<svg id="Capa_1" enable-background="new 0 0 512 512" height="512" viewBox="0 0 512 512" width="512" xmlns="http://www.w3.org/2000/svg"><g><circle cx="256" cy="204.729" fill="#a4bcff" r="197.229"/><path d="m275.545 400.994v48.358h-18.453c-15.229 0-27.574 12.345-27.574 27.574 0 15.228 12.345 27.574 27.574 27.574h46.027c15.229 0 27.574-12.345 27.574-27.574v-89.62c-17.291 7.082-35.807 11.785-55.148 13.688z" fill="#88f8d8"/><path d="m235.714 400.925c-19.349-1.977-37.865-6.761-55.148-13.921v62.348h-18.453c-15.228 0-27.574 12.345-27.574 27.574 0 15.228 12.346 27.574 27.574 27.574h46.027c10.649 0 19.882-6.041 24.476-14.88-1.975-3.801-3.098-8.115-3.098-12.694 0-6.604 2.324-12.664 6.196-17.411z" fill="#88f8d8"/><g fill="#007ea8"><path d="m330.693 381.807c-4.143 0-7.5 3.358-7.5 7.5v87.62c0 11.069-9.005 20.074-20.074 20.074h-46.026c-11.146 0-20.074-9.096-20.074-20.074 0-10.976 8.922-20.074 20.074-20.074h18.452c4.143 0 7.5-3.358 7.5-7.5v-46.358c0-4.142-3.357-7.5-7.5-7.5s-7.5 3.358-7.5 7.5v38.858h-10.952c-4.928 0-9.62 1.027-13.879 2.869v-41.796c0-4.142-3.357-7.5-7.5-7.5s-7.5 3.358-7.5 7.5v54.1c-4.018 5.823-6.195 12.843-6.195 19.901 0 4.192.802 8.435 2.147 12.086-3.758 4.995-9.644 7.988-16.025 7.988h-46.027c-11.069 0-20.074-9.005-20.074-20.074s9.005-20.074 20.074-20.074h18.453c4.143 0 7.5-3.358 7.5-7.5v-60.348c0-4.142-3.357-7.5-7.5-7.5s-7.5 3.358-7.5 7.5v52.848h-10.953c-19.34 0-35.074 15.734-35.074 35.074s15.733 35.073 35.073 35.073h46.027c9.332 0 18.042-3.673 24.486-9.976 6.324 6.167 14.957 9.976 24.466 9.976h46.026c19.34 0 35.074-15.734 35.074-35.074v-87.62c.001-4.141-3.356-7.499-7.499-7.499z"/><path d="m180.566 419.713c17.675 6.187 36.169 10.178 55.148 11.842v-30.63c-19.349-1.977-37.865-6.761-55.148-13.921z"/><path d="m275.545 431.619c18.974-1.603 37.467-5.532 55.148-11.651v-32.661c-17.291 7.081-35.807 11.784-55.148 13.687z"/></g><path d="m256 0c-112.439 0-204.729 91.464-204.729 204.729 0 112.639 91.594 204.729 204.729 204.729 112.85 0 204.729-91.84 204.729-204.729 0-113.089-92.081-204.729-204.729-204.729zm-62.582 25.619c-14.276 22.839-25.581 48.341-33.651 75.64-17.056-4.876-33.443-11.071-48.935-18.542 21.711-25.79 50.148-45.731 82.586-57.098zm-91.981 69.194c17.164 8.502 35.386 15.499 54.392 20.92-6.453 25.979-10.066 53.376-10.611 81.496h-78.785c1.488-38.065 14.231-73.289 35.004-102.416zm-35.004 117.416h78.785c.545 28.121 4.157 55.518 10.611 81.497-19.006 5.421-37.228 12.418-54.391 20.92-20.775-29.128-33.517-64.353-35.005-102.417zm44.399 114.512c15.492-7.471 31.878-13.666 48.935-18.542 8.07 27.299 19.375 52.8 33.65 75.639-32.438-11.367-60.875-31.308-82.585-57.097zm137.668 67.555c-11.201-.438-22.154-1.85-32.779-4.156-18.064-24.986-32.031-54.06-41.444-85.732 23.792-5.641 48.72-8.782 74.223-9.298zm0-114.19c-26.842.522-53.098 3.843-78.166 9.825-6.13-24.745-9.571-50.866-10.111-77.703h88.277zm0-82.877h-88.277c.54-26.836 3.981-52.957 10.111-77.702 25.068 5.981 51.324 9.302 78.166 9.824zm0-82.881c-25.503-.516-50.431-3.657-74.223-9.298 9.413-31.672 23.38-60.747 41.445-85.732 10.625-2.306 21.578-3.718 32.778-4.156zm197.067 82.881h-78.786c-.545-28.12-4.157-55.518-10.61-81.496 19.006-5.421 37.228-12.418 54.392-20.92 20.774 29.127 33.516 64.351 35.004 102.416zm-44.399-114.513c-15.492 7.471-31.879 13.666-48.935 18.542-8.07-27.299-19.375-52.801-33.65-75.64 32.437 11.368 60.875 31.309 82.585 57.098zm-137.668-67.554c11.2.438 22.153 1.85 32.778 4.156 18.064 24.985 32.031 54.06 41.444 85.732-23.792 5.641-48.72 8.782-74.222 9.298zm0 114.189c26.842-.522 53.098-3.843 78.165-9.824 6.13 24.745 9.571 50.866 10.111 77.702h-88.276zm0 82.878h88.276c-.54 26.837-3.981 52.958-10.111 77.703-25.068-5.982-51.323-9.303-78.165-9.825zm32.778 177.911c-10.625 2.306-21.578 3.718-32.778 4.156v-99.187c25.502.516 50.431 3.657 74.222 9.298-9.413 31.673-23.38 60.748-41.444 85.733zm22.304-6.302c14.276-22.839 25.581-48.341 33.651-75.64 17.056 4.876 33.443 11.071 48.935 18.542-21.71 25.79-50.148 45.731-82.586 57.098zm91.981-69.193c-17.164-8.502-35.386-15.498-54.392-20.919 6.453-25.979 10.065-53.376 10.61-81.497h78.786c-1.488 38.064-14.23 73.288-35.004 102.416z" fill="#2115c2"/></g></svg>