<svg id="Capa_1" enable-background="new 0 0 512 512" height="512" viewBox="0 0 512 512" width="512" xmlns="http://www.w3.org/2000/svg"><g><path d="m225.997 504.5c39.26 0 71.086-31.826 71.086-71.086h-142.172c0 39.26 31.827 71.086 71.086 71.086z" fill="#ffff6f"/><path d="m89.236 328.962-26.792 52.691c-12.049 23.695 5.166 51.761 31.749 51.761h263.609c26.583 0 43.797-28.066 31.749-51.761l-26.792-52.691z" fill="#f90"/><path d="m278.78 39.542c-9.925-19.037-29.829-32.042-52.782-32.042-32.862 0-59.501 26.64-59.501 59.501v28.583c17.99-8.706 38.175-13.59 59.501-13.59 9.724 0 19.206 1.026 28.355 2.956 4.121-17.287 12.688-32.847 24.427-45.408z" fill="#f90"/><path d="m352.541 209.386c-55.749 0-100.943-45.194-100.943-100.943 0-8.091.958-15.957 2.756-23.497-9.149-1.929-18.633-2.951-28.356-2.951-75.531 0-136.761 61.23-136.761 136.761v110.206h273.523v-110.207c0-3.313-.125-6.596-.356-9.85-3.246.315-6.535.481-9.863.481z" fill="#ffff6f"/><circle cx="352.541" cy="108.443" fill="#ff63ed" r="100.943"/><circle cx="280.582" cy="256.033" fill="#f95116" r="11.581"/><g><path d="m250.521 294.747h-49.047c-4.143 0-7.5-3.358-7.5-7.5s3.357-7.5 7.5-7.5h49.047c4.143 0 7.5 3.358 7.5 7.5s-3.358 7.5-7.5 7.5z" fill="#f95116"/></g><circle cx="171.413" cy="256.033" fill="#f95116" r="11.581"/><g><g><path d="m356.205 166.398c-4.143 0-7.5-3.358-7.5-7.5v-93.41h-14.068c-4.143 0-7.5-3.358-7.5-7.5s3.357-7.5 7.5-7.5h21.568c4.143 0 7.5 3.358 7.5 7.5v100.91c0 4.142-3.357 7.5-7.5 7.5z" fill="#e207b9"/></g></g><path d="m396.236 378.253-25.978-51.089v-108.408c0-3.016-.1-6.123-.297-9.235-.262-4.134-3.823-7.272-7.96-7.01-4.134.262-7.272 3.825-7.011 7.959.178 2.798.268 5.585.268 8.286v102.706h-258.522v-102.706c0-71.595 58.305-129.262 129.262-129.262 8.489 0 17.253.847 25.905 2.607 4.061.826 8.019-1.794 8.846-5.854.784-3.854-1.501-7.952-6.1-8.899-9.606-1.937-19.309-2.854-28.651-2.854-17.694 0-35.238 3.153-52.001 9.653v-17.146c0-28.674 23.327-52.001 52.001-52.001 18.988 0 36.467 10.362 45.615 27.043 1.991 3.631 6.549 4.961 10.183 2.969 3.632-1.992 4.961-6.551 2.97-10.183-11.784-21.483-34.303-34.829-58.769-34.829-36.944 0-67.001 30.057-67.001 67.001v24.029c-45.894 24.172-77.261 72.351-77.261 127.726v108.41l-25.977 51.087c-14.601 28.716 6.288 62.661 38.434 62.661h53.585c3.791 39.826 37.418 71.086 78.22 71.086s74.431-31.26 78.22-71.086h53.584c32.216 0 53.005-34.006 38.435-62.661zm-170.239 118.747c-32.523 0-59.423-24.548-63.146-56.086h126.294c-3.725 31.538-30.624 56.086-63.148 56.086zm131.805-71.086c-61.724 0-207.016 0-263.609 0-21.009 0-34.564-22.177-25.063-40.862l24.707-48.59h264.321l24.707 48.59c9.523 18.727-4.1 40.862-25.063 40.862z" fill="#f95116"/><g><path d="m352.541 216.886c-59.796 0-108.443-48.647-108.443-108.443s48.647-108.443 108.443-108.443c59.795 0 108.442 48.647 108.442 108.443s-48.647 108.443-108.442 108.443zm0-201.886c-51.524 0-93.443 41.918-93.443 93.443s41.919 93.443 93.443 93.443 93.442-41.918 93.442-93.443-41.917-93.443-93.442-93.443z" fill="#e207b9"/></g></g></svg>