<svg id="Capa_1" enable-background="new 0 0 512 512" height="512" viewBox="0 0 512 512" width="512" xmlns="http://www.w3.org/2000/svg"><g><path d="m154.491 406.646v49.737h-16.101c-13.287 0-24.058 10.771-24.058 24.058s10.771 24.058 24.058 24.058h40.159c13.287 0 24.058-10.771 24.058-24.058v-73.796h-48.116z" fill="#ffff6f"/><path d="m266.461 406.646v49.737h-16.101c-13.287 0-24.058 10.771-24.058 24.058s10.771 24.058 24.058 24.058h40.159c13.287 0 24.058-10.771 24.058-24.058v-73.796h-48.116z" fill="#ffff6f"/><g><path d="m178.549 512h-40.158c-17.401 0-31.559-14.157-31.559-31.558s14.157-31.558 31.559-31.558h8.601v-39.237c0-4.142 3.357-7.5 7.5-7.5s7.5 3.358 7.5 7.5v46.737c0 4.142-3.357 7.5-7.5 7.5h-16.101c-9.131 0-16.559 7.428-16.559 16.558s7.428 16.558 16.559 16.558h40.158c9.131 0 16.559-7.428 16.559-16.558v-70.796c0-4.142 3.357-7.5 7.5-7.5s7.5 3.358 7.5 7.5v70.796c0 17.401-14.157 31.558-31.559 31.558z" fill="#f95116"/></g><g><path d="m290.52 512h-40.159c-17.401 0-31.559-14.157-31.559-31.558s14.157-31.558 31.559-31.558h8.601v-39.237c0-4.142 3.357-7.5 7.5-7.5s7.5 3.358 7.5 7.5v46.737c0 4.142-3.357 7.5-7.5 7.5h-16.101c-9.131 0-16.559 7.428-16.559 16.558s7.428 16.558 16.559 16.558h40.159c9.13 0 16.558-7.428 16.558-16.558v-70.796c0-4.142 3.357-7.5 7.5-7.5s7.5 3.358 7.5 7.5v70.796c0 17.401-14.157 31.558-31.558 31.558z" fill="#f95116"/></g><path d="m154.491 406.646h48.117v30.217h-48.117z" fill="#f95116"/><path d="m266.461 406.646h48.117v30.217h-48.117z" fill="#f95116"/><path d="m491.617 137.574v218.549c0 27.91-22.622 50.523-50.523 50.523h-56.405c27.9 0 50.523-22.612 50.523-50.523v-218.549c0-9.881-2.901-19.54-8.33-27.79l-45.769-69.489c-9.347-14.182-25.201-22.723-42.193-22.723h56.405c16.992 0 32.846 8.541 42.193 22.723l45.769 69.489c5.429 8.25 8.33 17.909 8.33 27.79z" fill="#9448f5"/><path d="m253.283 45.924h-27.7c-8.229 0-14.9 6.671-14.9 14.9v46.474c0 8.229 6.671 14.9 14.9 14.9h27.7c8.229 0 14.9-6.671 14.9-14.9v-46.474c-.001-8.229-6.671-14.9-14.9-14.9z" fill="#a4bcff"/><path d="m426.882 109.784-45.769-69.489c-9.347-14.182-25.201-22.723-42.193-22.723h-43.348c10.656 8.485 17.494 21.56 17.494 36.24v60.497c0 25.578-20.735 46.313-46.313 46.313h-126.233c-25.578 0-46.313-20.735-46.313-46.313v-60.496c0-14.68 6.838-27.755 17.494-36.24h-37.35c-29.804 0-53.967 24.163-53.967 53.967v281.139c0 29.804 24.163 53.967 53.967 53.967h310.338c27.9 0 50.523-22.612 50.523-50.523v-218.549c0-9.881-2.901-19.54-8.33-27.79z" fill="#b98eff"/><path d="m266.754 7.5h-126.234c-25.578 0-46.313 20.735-46.313 46.313v60.497c0 25.578 20.735 46.313 46.313 46.313h126.234c25.578 0 46.313-20.735 46.313-46.313v-60.497c-.001-25.578-20.736-46.313-46.313-46.313z" fill="#a4bcff"/><path d="m335.961 217.145h-216.326c-18.153 0-32.868 14.716-32.868 32.868v70.86c0 18.153 14.716 32.868 32.868 32.868h216.326c18.153 0 32.868-14.716 32.868-32.868v-70.86c0-18.152-14.715-32.868-32.868-32.868z" fill="#ffff6f"/><g><path d="m253.283 129.698h-27.7c-12.352 0-22.399-10.048-22.399-22.4v-46.474c0-12.351 10.048-22.4 22.399-22.4h27.7c12.352 0 22.399 10.048 22.399 22.4v46.474c0 12.351-10.048 22.4-22.399 22.4zm-27.7-76.274c-4.08 0-7.399 3.32-7.399 7.4v46.474c0 4.08 3.319 7.4 7.399 7.4h27.7c4.08 0 7.399-3.32 7.399-7.4v-46.474c0-4.08-3.319-7.4-7.399-7.4z" fill="#2115c2"/></g><path d="m489.551 105.659-45.771-69.491c-10.77-16.34-28.884-26.096-48.455-26.096-14.646 0-83.911 0-96.753 0-4.143 0-7.5 3.358-7.5 7.5 0 4.143 3.357 7.5 7.5 7.5h40.348c14.513 0 27.944 7.234 35.93 19.349l45.768 69.487c4.644 7.056 7.095 15.242 7.095 23.667v218.549c0 23.643-19.221 43.023-43.023 43.023h-310.339c-25.622 0-46.468-20.845-46.468-46.467v-281.14c0-25.622 20.846-46.468 46.468-46.468h34.35c4.143 0 7.5-3.357 7.5-7.5 0-4.142-3.357-7.5-7.5-7.5h-34.35c-33.894 0-61.468 27.574-61.468 61.468v281.139c0 33.893 27.574 61.467 61.468 61.467h366.743c31.994 0 58.022-26.029 58.022-58.023v-218.549c.001-11.37-3.307-22.405-9.565-31.915zm-5.434 250.464c0 23.723-19.3 43.023-43.022 43.023h-17.513c11.944-10.824 19.131-26.306 19.131-43.022v-218.55c0-11.369-3.308-22.404-9.566-31.915l-45.771-69.491c-2.579-3.911-5.48-7.395-9.499-11.096h17.449c14.513 0 27.944 7.234 35.93 19.349l45.768 69.487c4.641 7.052 7.094 15.236 7.094 23.667v218.548z" fill="#6d00ca"/><g><path d="m266.753 168.122h-126.233c-29.672 0-53.813-24.14-53.813-53.813v-60.496c.001-29.673 24.141-53.813 53.813-53.813h126.233c29.672 0 53.813 24.14 53.813 53.813v60.497c0 29.672-24.141 53.812-53.813 53.812zm-126.233-153.122c-21.401 0-38.813 17.411-38.813 38.813v60.497c0 21.401 17.411 38.813 38.813 38.813h126.233c21.401 0 38.813-17.411 38.813-38.813v-60.497c0-21.401-17.411-38.813-38.813-38.813z" fill="#2115c2"/></g><g><path d="m335.96 361.242h-216.326c-22.259 0-40.368-18.109-40.368-40.368v-70.86c0-22.259 18.109-40.368 40.368-40.368h216.326c22.26 0 40.369 18.109 40.369 40.368v70.86c.001 22.259-18.109 40.368-40.369 40.368zm-216.326-136.597c-13.988 0-25.368 11.38-25.368 25.368v70.86c0 13.988 11.38 25.368 25.368 25.368h216.326c13.988 0 25.369-11.38 25.369-25.368v-70.86c0-13.988-11.381-25.368-25.369-25.368z" fill="#f95116"/></g><circle cx="281.853" cy="275.511" fill="#f95116" r="11.469"/><g><path d="m252.083 313.923h-48.571c-4.143 0-7.5-3.358-7.5-7.5s3.357-7.5 7.5-7.5h48.571c4.143 0 7.5 3.358 7.5 7.5s-3.357 7.5-7.5 7.5z" fill="#f95116"/></g><circle cx="173.743" cy="275.511" fill="#f95116" r="11.469"/></g></svg>