<svg id="Capa_1" enable-background="new 0 0 512 512" height="512" viewBox="0 0 512 512" width="512" xmlns="http://www.w3.org/2000/svg"><g><path d="m162.1 407.828v46.786h-16.125c-13.307 0-24.094 10.788-24.094 24.094 0 13.307 10.788 24.094 24.094 24.094h40.219c13.307 0 24.094-10.788 24.094-24.094v-70.88z" fill="#f90"/><path d="m274.237 407.828v46.786h-16.125c-13.307 0-24.094 10.788-24.094 24.094 0 13.307 10.788 24.094 24.094 24.094h40.219c13.307 0 24.094-10.788 24.094-24.094v-70.88z" fill="#f90"/><g><path d="m186.194 510.302h-40.219c-17.422 0-31.595-14.173-31.595-31.594s14.173-31.594 31.595-31.594h8.625v-36.286c0-4.142 3.357-7.5 7.5-7.5s7.5 3.358 7.5 7.5v43.786c0 4.142-3.357 7.5-7.5 7.5h-16.125c-9.15 0-16.595 7.444-16.595 16.594s7.444 16.594 16.595 16.594h40.219c9.15 0 16.595-7.444 16.595-16.594v-67.88c0-4.142 3.357-7.5 7.5-7.5s7.5 3.358 7.5 7.5v67.88c0 17.421-14.173 31.594-31.595 31.594z" fill="#f95116"/></g><g><path d="m298.332 510.302h-40.219c-17.422 0-31.595-14.173-31.595-31.594s14.173-31.594 31.595-31.594h8.624v-36.286c0-4.142 3.357-7.5 7.5-7.5s7.5 3.358 7.5 7.5v43.786c0 4.142-3.357 7.5-7.5 7.5h-16.124c-9.15 0-16.595 7.444-16.595 16.594s7.444 16.594 16.595 16.594h40.219c9.149 0 16.594-7.444 16.594-16.594v-67.88c0-4.142 3.357-7.5 7.5-7.5s7.5 3.358 7.5 7.5v67.88c0 17.421-14.173 31.594-31.594 31.594z" fill="#f95116"/></g><path d="m162.1 407.828h48.189v30.262h-48.189z" fill="#f95116"/><path d="m274.237 407.828h48.189v30.262h-48.189z" fill="#f95116"/><g fill="#88f8d8"><path d="m170.825 227.697-146.378 160.39c-10.511-11.187-16.947-26.248-16.947-42.801v-209.777c0-17.522 7.202-33.369 18.823-44.717z"/><path d="m450.427 388.087c-11.399 12.155-27.609 19.741-45.595 19.741h-334.79c-17.986 0-34.196-7.586-45.595-19.741l146.378-160.389 21.91 20.75c6.032 5.72 13.053 10.168 20.639 13.194s15.746 4.62 24.058 4.62c16.634 0 32.633-6.375 44.707-17.814l21.91-20.75z"/><path d="m300.851 111.023c0-13.455 2.616-26.298 7.357-38.056h-238.166c-17.027 0-32.451 6.799-43.719 17.824l144.502 136.906 21.91 20.75c6.032 5.72 13.053 10.168 20.639 13.194s15.746 4.62 24.058 4.62c16.634 0 32.633-6.375 44.707-17.814l21.91-20.75 37.328-35.366c-24.615-18.586-40.526-48.088-40.526-81.308z"/><path d="m402.675 212.848c-23.016 0-44.245-7.64-61.298-20.516l-37.328 35.366 146.378 160.389c10.511-11.187 16.947-26.247 16.947-42.801v-155.632c-17.591 14.49-40.128 23.194-64.699 23.194z"/></g><circle cx="402.675" cy="111.023" fill="#b98eff" r="101.825"/><g><g><path d="m406.372 169.418c-4.143 0-7.5-3.358-7.5-7.5v-94.291h-14.257c-4.143 0-7.5-3.358-7.5-7.5s3.357-7.5 7.5-7.5h21.757c4.143 0 7.5 3.358 7.5 7.5v101.791c0 4.143-3.357 7.5-7.5 7.5z" fill="#6d00ca"/></g></g><circle cx="294.802" cy="322.387" fill="#007ea8" r="12.172"/><g><path d="m263.209 362.692h-51.546c-4.143 0-7.5-3.358-7.5-7.5s3.357-7.5 7.5-7.5h51.546c4.143 0 7.5 3.358 7.5 7.5s-3.357 7.5-7.5 7.5z" fill="#007ea8"/></g><circle cx="180.071" cy="322.387" fill="#007ea8" r="12.172"/><path d="m474.873 191.654c0-4.142-3.357-7.5-7.5-7.5s-7.5 3.358-7.5 7.5v153.632c0 11.305-3.427 22.172-9.772 31.317l-135.55-148.524 31.165-29.526c3.007-2.849 3.135-7.596.286-10.603-2.846-3.002-7.589-3.139-10.603-.286l-58.419 55.339c-22.337 21.161-57.085 20.862-79.089-.001l-160.356-151.92c9.376-6.89 20.671-10.615 32.507-10.615h236.165c4.143 0 7.5-3.358 7.5-7.5s-3.357-7.5-7.5-7.5h-236.165c-38.445 0-70.042 31.108-70.042 70.042v209.777c0 38.57 31.268 70.042 70.042 70.042h334.79c31.425 0 49.02-20.688 51.063-22.109.493-.78 18.978-18.051 18.978-47.933zm-459.873-56.145c0-12.516 4.124-24.35 11.738-33.993l133.584 126.563-135.549 148.524c-6.346-9.145-9.773-20.011-9.773-31.317zm55.042 264.819c-13.038 0-25.269-4.439-35.092-12.624 6.949-7.614 131.073-143.62 136.265-149.308l16.359 15.493c6.686 6.339 14.431 11.291 23.02 14.718 1.072.427 2.15.829 3.236 1.203 6.513 2.249 13.264 3.545 20.149 3.87 1.147.054 2.299.081 3.453.081 18.632 0 36.341-7.057 49.864-19.869l16.363-15.497 136.265 149.308c-9.823 8.185-22.054 12.624-35.092 12.624h-334.79z" fill="#007ea8"/><g><path d="m402.676 220.348c-60.282 0-109.325-49.043-109.325-109.325s49.043-109.325 109.325-109.325c60.281 0 109.324 49.043 109.324 109.325s-49.043 109.325-109.324 109.325zm0-203.65c-52.011 0-94.325 42.314-94.325 94.325s42.314 94.325 94.325 94.325 94.324-42.314 94.324-94.325-42.313-94.325-94.324-94.325z" fill="#6d00ca"/></g></g></svg>