<svg id="Capa_1" enable-background="new 0 0 512 512" height="512" viewBox="0 0 512 512" width="512" xmlns="http://www.w3.org/2000/svg"><g><path d="m459.511 110.75c-.764-16.597-13.677-30.079-30.231-31.493-76.07-6.498-125.155-39.579-151.008-63.088-12.634-11.488-31.911-11.488-44.545 0-25.853 23.509-74.938 56.59-151.008 63.088-16.554 1.414-29.466 14.897-30.231 31.493-2.816 61.132 10.353 201.104 171.69 293.6 19.72 11.305 43.921 11.305 63.641 0 161.338-92.495 174.508-232.467 171.692-293.6z" fill="#7181ff"/><path d="m392.623 213.121c-1.498 4.1-3.13 8.242-4.906 12.415-23.218 54.461-65.471 99.555-125.582 134.01-1.869 1.074-3.987 1.642-6.135 1.642v-148.067z" fill="#ffd600"/><path d="m408.157 128.883c-.382 22.96-3.935 52.478-15.534 84.238h-136.623v-148.067c32.441 26.183 82.244 54.503 152.157 63.829z" fill="#f90"/><path d="m256 65.054v148.067h-136.624c-11.599-31.76-15.152-61.278-15.534-84.238 69.903-9.326 119.706-37.646 152.158-63.829z" fill="#ffd600"/><path d="m256 213.121v148.067c-2.148 0-4.266-.568-6.135-1.642-60.111-34.455-102.364-79.549-125.582-134.01-1.776-4.173-3.408-8.314-4.906-12.415z" fill="#f90"/><path d="m240.861 411.004c-5.767-1.405-11.386-3.618-16.681-6.653-13.813-7.919-26.515-16.193-38.239-24.729v69.96h-18.377c-15.165 0-27.46 12.294-27.46 27.46s12.295 27.46 27.46 27.46h45.837c10.605 0 19.8-6.016 24.375-14.818-1.967-3.785-3.085-8.081-3.085-12.641 0-6.577 2.315-12.611 6.17-17.34z" fill="#ffd600"/><path d="m287.82 404.35c-2.371 1.359-4.808 2.551-7.293 3.583v41.647h-18.377c-15.166 0-27.46 12.294-27.46 27.46s12.294 27.46 27.46 27.46h45.837c15.166 0 27.46-12.294 27.46-27.46v-104.451c-14.232 11.042-30.049 21.684-47.627 31.761z" fill="#ffd600"/><g fill="#f95116"><path d="m415.655 129.008c.063-3.805-2.734-7.055-6.506-7.558-70.631-9.422-119.707-39.042-148.439-62.231-2.69-2.177-6.717-2.187-9.418-.001-28.743 23.19-77.828 52.811-148.441 62.233-3.772.503-6.57 3.753-6.506 7.558.497 29.833 5.876 58.999 15.989 86.686 0 .001.001.003.002.004 24.147 66.16 72.45 115.188 133.794 150.349 6.17 3.546 13.67 3.49 19.736.004 61.112-35.029 109.533-83.939 133.803-150.358 0-.001.001-.003.001-.005 10.11-27.689 15.489-56.853 15.985-86.681zm-28.335 76.614h-123.821v-125.415c30.048 21.683 75.474 45.718 136.965 55.149-1.02 24.097-5.432 47.681-13.144 70.266zm-138.819-125.417v125.417h-123.821c-7.712-22.582-12.124-46.166-13.145-70.266 61.477-9.431 106.909-33.469 136.966-55.151zm-117.319 142.394c-.279-.657-.557-1.317-.832-1.978h118.151v129.448c-55.959-33.224-95.412-76.085-117.319-127.47zm249.637-.004c-21.907 51.385-61.361 94.248-117.32 127.474v-129.448h118.15c-.275.661-.551 1.319-.83 1.974z"/><path d="m335.447 368.089c-4.142 0-7.499 3.358-7.499 7.499v101.453c0 11.006-8.954 19.96-19.961 19.96h-45.836c-11.023 0-19.961-8.983-19.961-19.96 0-11.162 9.105-19.961 19.961-19.961h18.376c4.142 0 7.499-3.358 7.499-7.499v-38.648c0-4.142-3.357-7.499-7.499-7.499s-7.499 3.358-7.499 7.499v31.149h-10.877c-4.895 0-9.557 1.016-13.791 2.84v-30.919c0-4.142-3.357-7.499-7.499-7.499s-7.499 3.358-7.499 7.499v43.209c-3.879 5.648-6.17 12.585-6.17 19.829 0 4.111.778 8.342 2.134 12.031-3.737 4.958-9.585 7.929-15.925 7.929h-45.837c-11.007 0-19.961-8.954-19.961-19.96 0-11.007 8.954-19.961 19.961-19.961h18.377c4.142 0 7.499-3.358 7.499-7.499v-66.96c0-4.142-3.357-7.499-7.499-7.499s-7.499 3.358-7.499 7.499v59.461h-10.878c-19.276 0-34.959 15.682-34.959 34.959 0 19.276 15.683 34.959 34.959 34.959h45.837c9.292 0 17.964-3.653 24.385-9.923 6.302 6.134 14.897 9.923 24.365 9.923h45.836c19.276 0 34.959-15.682 34.959-34.959v-101.452c0-4.142-3.357-7.5-7.499-7.5z"/><path d="m280.527 407.934v32.015c7.804-2.102 15.343-5.201 22.4-9.247 11.336-6.499 22.171-13.333 32.52-20.48v-37.632c-14.232 11.042-30.048 21.684-47.627 31.761-2.371 1.359-4.808 2.55-7.293 3.583z"/><path d="m185.941 379.621v36.902c7.472 4.883 15.174 9.616 23.132 14.178 9.853 5.649 20.642 9.456 31.788 11.273v-30.971c-5.767-1.405-11.386-3.618-16.681-6.653-13.813-7.919-26.515-16.193-38.239-24.729z"/></g><g><path d="m255.999 420.285c-12.293 0-24.585-3.143-35.55-9.429-71.528-41.008-122.187-95.555-150.57-162.126-23.312-54.676-26.398-105.4-24.881-138.325.934-20.291 16.877-36.894 37.083-38.62 72.371-6.182 119.668-36.673 146.602-61.164 15.575-14.161 39.06-14.162 54.635 0 26.934 24.491 74.23 54.982 146.601 61.164 20.206 1.726 36.15 18.329 37.084 38.62 1.516 32.925-1.569 83.649-24.881 138.325-28.384 66.571-79.043 121.118-150.571 162.126-10.966 6.286-23.258 9.429-35.552 9.429zm.001-405.265c-6.159 0-12.316 2.233-17.227 6.698-28.647 26.048-78.863 58.472-155.415 65.011-12.738 1.088-22.788 11.564-23.377 24.367-1.445 31.364 1.493 79.681 23.695 131.752 27.074 63.501 75.601 115.649 144.234 154.997 17.327 9.934 38.855 9.933 56.181 0 68.632-39.347 117.16-91.496 144.235-154.997 22.202-52.072 25.14-100.389 23.695-131.752-.59-12.803-10.64-23.278-23.378-24.366-76.553-6.54-126.769-38.964-155.416-65.012-4.911-4.466-11.068-6.698-17.227-6.698z" fill="#2115c2"/></g></g></svg>