<svg id="Capa_1" enable-background="new 0 0 512 512" height="512" viewBox="0 0 512 512" width="512" xmlns="http://www.w3.org/2000/svg"><g><path d="m7.5 270.255h103.231c30.055 0 54.42-24.365 54.42-54.42v-103.231z" fill="#17d9c3"/><path d="m341.799 277.412-.944.944c-15.195 15.195-34.868 25.057-56.063 28.166-1.128.171-2.269.315-3.41.446l-34.33 3.849c-24.743 2.774-45.662-18.145-42.888-42.888l3.849-34.33c.131-1.141.275-2.282.446-3.41 3.108-21.195 12.971-40.869 28.166-56.063l.944-.944 60.577-60.577h-132.995v103.231c0 30.055-24.365 54.42-54.42 54.42h-103.231v177.324c0 29.79 24.149 53.939 53.939 53.939h281.037c29.79 0 53.939-24.149 53.939-53.939v-224.784z" fill="#88f8d8"/><path d="m396.416 218.295c-4.143 0-7.5 3.358-7.5 7.5v221.785c0 25.607-20.832 46.439-46.439 46.439h-281.037c-25.607 0-46.439-20.832-46.439-46.439v-169.825h95.73c34.143 0 61.92-27.777 61.92-61.92v-95.73h122.494c4.143 0 7.5-3.358 7.5-7.5s-3.358-7.5-7.5-7.5h-129.994c-2.053 0-3.965.861-5.299 2.193-.001.001-.003.002-.005.004l-157.651 157.649c-.001.001-.003.003-.004.005-1.317 1.32-2.192 3.229-2.192 5.299v177.325c0 33.878 27.562 61.44 61.44 61.44h281.037c33.878 0 61.44-27.561 61.44-61.44v-221.784c-.001-4.143-3.359-7.501-7.501-7.501zm-238.765-87.584v85.123c0 25.871-21.048 46.919-46.919 46.919h-85.124z" fill="#007ea8"/><path d="m341.799 277.412-.944.944c-15.194 15.195-34.868 25.058-56.063 28.166l-76.333-76.333c3.108-21.195 12.971-40.868 28.166-56.063l.944-.944z" fill="#ffff6f"/><path d="m284.792 306.522c-1.128.171-2.269.315-3.41.446l-34.33 3.849c-24.743 2.774-45.662-18.145-42.888-42.888l3.849-34.33c.131-1.141.275-2.282.446-3.41z" fill="#f90"/><path d="m272.579 110.3h116.799v147.404h-116.799z" fill="#f90" transform="matrix(.707 -.707 .707 .707 -33.168 287.93)"/><path d="m457.349 161.862-104.23-104.23c-9.102-9.102-23.859-9.102-32.961 0-9.102 9.102-9.102 23.859 0 32.961l104.23 104.23c9.102 9.102 23.859 9.102 32.961 0 9.102-9.102 9.102-23.859 0-32.961z" fill="#a4bcff"/><path d="m490.879 62.442-38.341-38.341c-18.195-18.195-47.695-18.195-65.89 0l-33.53 33.53 104.23 104.23 33.53-33.53c18.196-18.194 18.196-47.694.001-65.889z" fill="#ff9bff"/><ellipse cx="330.979" cy="184.002" fill="#ffff6f" rx="32.147" ry="24.58" transform="matrix(.707 -.707 .707 .707 -33.168 287.93)"/><circle cx="263.775" cy="413.904" fill="#007ea8" r="12.87"/><g><path d="m230.369 456.093h-54.504c-4.143 0-7.5-3.358-7.5-7.5s3.358-7.5 7.5-7.5h54.504c4.143 0 7.5 3.358 7.5 7.5s-3.357 7.5-7.5 7.5z" fill="#007ea8"/></g><circle cx="142.46" cy="413.904" fill="#007ea8" r="12.87"/><path d="m427.693 191.519c-2.93-2.929-7.678-2.929-10.608 0l-75.285 75.286-93.624-93.623 75.286-75.286c2.929-2.929 2.929-7.678 0-10.607-2.93-2.929-7.678-2.929-10.608 0-7.466 7.466-71.335 71.336-81.533 81.534-16.196 16.196-26.947 37.589-30.276 60.24v.002c0 .002 0 .004-.001.006-.001.01-.004.02-.005.03 0 .003 0 .007-.001.011-.47 3.11-.436 3.497-4.327 37.982-3.106 27.694 18.674 51.471 45.943 51.471 4.55 0 42.087-4.45 43.218-4.621h.009c.005-.001.01-.002.015-.002.006-.001.012-.001.019-.002.004-.001.008-.002.012-.003 36.989-5.441 60.987-31.081 61.178-31.22l80.589-80.59c2.927-2.93 2.927-7.679-.001-10.608zm-181.477 111.845c-19.976 2.239-36.836-14.65-34.599-34.598l2.502-22.309 54.406 54.407zm41.148-4.877-70.871-70.871c3.044-16.112 10.446-31.323 21.224-43.678l93.326 93.326c-12.355 10.776-27.569 18.179-43.679 21.223z" fill="#f95116"/><g><path d="m454.045 165.165c-2.929-2.929-2.929-7.678 0-10.607l31.53-31.53c15.241-15.241 15.241-40.041 0-55.282l-38.341-38.341c-15.24-15.241-40.04-15.241-55.282 0l-31.529 31.53c-2.93 2.929-7.678 2.929-10.608 0-2.929-2.929-2.929-7.678 0-10.607l31.529-31.53c21.091-21.09 55.407-21.09 76.498 0l38.341 38.341c21.089 21.09 21.089 55.406 0 76.497l-31.53 31.53c-2.929 2.928-7.678 2.929-10.608-.001z" fill="#e207b9"/></g><g><path d="m302.943 212.037c-12.507-12.509-10.107-35.261 5.351-50.719 14.282-14.281 37.117-18.953 50.719-5.35 12.507 12.508 10.108 35.26-5.35 50.719-14.073 14.071-37.184 18.884-50.72 5.35zm15.959-40.112c-9.447 9.446-11.897 22.958-5.351 29.505 6.546 6.546 20.058 4.096 29.504-5.351 9.447-9.447 11.897-22.958 5.35-29.504-7.589-7.592-21.674-2.48-29.503 5.35z" fill="#f95116"/></g><g><path d="m440.869 209.135c-7.889 0-15.778-3.003-21.784-9.009l-104.231-104.23c-12.01-12.012-12.01-31.556 0-43.568 12.011-12.011 31.556-12.013 43.57 0l104.23 104.23c5.819 5.819 9.023 13.555 9.023 21.784s-3.204 15.965-9.023 21.784c-6.007 6.006-13.896 9.009-21.785 9.009zm-104.23-150.822c-4.049 0-8.096 1.54-11.177 4.622-6.162 6.163-6.162 16.191 0 22.354l104.231 104.23c6.161 6.163 16.191 6.163 22.353 0 2.986-2.985 4.63-6.955 4.63-11.177s-1.645-8.191-4.63-11.177l-104.23-104.23c-3.082-3.081-7.13-4.622-11.177-4.622z" fill="#2115c2"/></g></g></svg>