<svg id="Capa_1" enable-background="new 0 0 512 512" height="512" viewBox="0 0 512 512" width="512" xmlns="http://www.w3.org/2000/svg"><g><path d="m256 391.32c-8.73 0-17.3-.694-25.664-2.016v56.954h51.329v-56.954c-8.365 1.322-16.935 2.016-25.665 2.016z" fill="#9448f5"/><path d="m307.723 446.258h-103.446c-18.978 0-34.363 15.385-34.363 34.363 0 13.188 10.691 23.879 23.879 23.879h124.415c13.188 0 23.879-10.691 23.879-23.879-.001-18.978-15.386-34.363-34.364-34.363z" fill="#b98eff"/><path d="m307.723 438.758h-18.559v-46.454c0-4.142-3.357-7.5-7.5-7.5s-7.5 3.358-7.5 7.5v46.454h-36.329v-46.454c0-4.142-3.357-7.5-7.5-7.5s-7.5 3.358-7.5 7.5v46.454h-18.559c-23.084 0-41.863 18.78-41.863 41.864 0 17.302 14.076 31.378 31.379 31.378h124.415c17.303 0 31.379-14.076 31.379-31.379 0-23.083-18.78-41.863-41.863-41.863zm10.485 58.242h-124.416c-9.031 0-16.379-7.347-16.379-16.379 0-14.813 12.051-26.863 26.863-26.863h103.446c14.813 0 26.863 12.051 26.863 26.864.001 9.031-7.346 16.378-16.377 16.378z" fill="#6d00ca"/><path d="m92.239 227.559v-34.715h-23.761c-12.972 0-23.487 10.516-23.487 23.487v26.066c0 12.972 10.516 23.487 23.487 23.487h28.302c-2.961-12.299-4.541-25.13-4.541-38.325z" fill="#b98eff"/><path d="m443.522 192.844h-23.761v34.715c0 13.195-1.58 26.026-4.541 38.326h28.302c12.972 0 23.487-10.516 23.487-23.487v-26.066c0-12.972-10.515-23.488-23.487-23.488z" fill="#b98eff"/><g><path d="m94.78 273.385h-26.302c-17.087 0-30.987-13.901-30.987-30.987v-26.066c0-17.086 13.9-30.987 30.987-30.987h21.761c4.143 0 7.5 3.358 7.5 7.5s-3.357 7.5-7.5 7.5h-21.761c-8.815 0-15.987 7.172-15.987 15.987v26.066c0 8.815 7.172 15.987 15.987 15.987h26.302c4.143 0 7.5 3.358 7.5 7.5s-3.358 7.5-7.5 7.5z" fill="#6d00ca"/></g><g><path d="m443.522 273.385h-26.302c-4.143 0-7.5-3.358-7.5-7.5s3.357-7.5 7.5-7.5h26.302c8.815 0 15.987-7.172 15.987-15.987v-26.066c0-8.815-7.172-15.987-15.987-15.987h-21.762c-4.143 0-7.5-3.358-7.5-7.5s3.357-7.5 7.5-7.5h21.762c17.087 0 30.987 13.901 30.987 30.987v26.066c0 17.086-13.9 30.987-30.987 30.987z" fill="#6d00ca"/></g><path d="m394.596 140.45c-13.898 0-25.165 11.267-25.165 25.165v61.945c0 31.325-12.693 59.68-33.227 80.204-20.524 20.534-48.88 33.227-80.205 33.227-62.65 0-113.432-50.792-113.432-113.432v-61.945c0-13.898-11.267-25.165-25.165-25.165s-25.165 11.267-25.165 25.165v61.945c0 90.29 73.46 163.761 163.761 163.761s163.761-73.47 163.761-163.761v-61.945c.002-13.898-11.265-25.164-25.163-25.164z" fill="#7181ff"/><path d="m369.432 192.842v34.717c0 31.325-12.693 59.68-33.227 80.204-20.524 20.534-48.88 33.227-80.205 33.227-62.65 0-113.432-50.792-113.432-113.432v-34.717h226.864z" fill="#565eec"/><g><path d="m256 348.491c-66.682 0-120.932-54.25-120.932-120.932v-34.717c0-4.142 3.357-7.5 7.5-7.5h226.863c4.143 0 7.5 3.358 7.5 7.5v34.717c0 32.309-12.581 62.676-35.425 85.509-22.83 22.842-53.198 35.423-85.506 35.423zm-105.932-148.149v27.217c0 58.411 47.521 105.932 105.932 105.932 28.301 0 54.9-11.02 74.9-31.029 20.012-20.002 31.031-46.602 31.031-74.903v-27.217z" fill="#2115c2"/></g><path d="m369.432 120.942v71.9h-226.864v-71.9c0-62.65 50.782-113.442 113.432-113.442s113.432 50.792 113.432 113.442z" fill="#a4bcff"/><path d="m394.596 132.95c-6.506 0-12.568 1.919-17.665 5.21v-17.218c0-66.688-54.25-120.942-120.931-120.942s-120.932 54.254-120.932 120.942v17.218c-5.097-3.291-11.159-5.21-17.664-5.21-18.012 0-32.665 14.653-32.665 32.665v61.945c0 94.434 76.827 171.261 171.261 171.261s171.26-76.828 171.26-171.262v-61.945c0-18.011-14.653-32.664-32.664-32.664zm-244.528 67.392h211.863v27.217c0 28.301-11.02 54.901-31.031 74.903-20 20.009-46.6 31.029-74.9 31.029-58.411 0-105.932-47.521-105.932-105.932zm0-79.4c0-58.417 47.52-105.942 105.932-105.942s105.932 47.525 105.932 105.942v64.4h-211.864c0-13.605 0-49.112 0-64.4zm262.192 106.617c0 86.163-70.099 156.261-156.261 156.261s-156.26-70.098-156.26-156.261v-61.945c0-9.74 7.925-17.665 17.665-17.665s17.664 7.924 17.664 17.665v61.945c0 66.682 54.25 120.932 120.932 120.932 32.309 0 62.677-12.581 85.507-35.423 22.844-22.833 35.425-53.201 35.425-85.509 0-6.799 0-55.961 0-61.945 0-9.74 7.925-17.665 17.665-17.665s17.664 7.924 17.664 17.665v61.945z" fill="#2115c2"/><circle cx="307.008" cy="121.808" fill="#2115c2" r="10.823"/><g><path d="m278.917 158.477h-45.833c-4.143 0-7.5-3.358-7.5-7.5s3.357-7.5 7.5-7.5h45.833c4.143 0 7.5 3.358 7.5 7.5s-3.358 7.5-7.5 7.5z" fill="#2115c2"/></g><circle cx="204.992" cy="121.808" fill="#2115c2" r="10.823"/></g></svg>