<svg id="Capa_1" enable-background="new 0 0 512 512" height="512" viewBox="0 0 512 512" width="512" xmlns="http://www.w3.org/2000/svg"><g><path d="m167.671 388.945v47.305h-16.303c-13.454 0-24.362 10.907-24.362 24.362 0 13.454 10.907 24.362 24.362 24.362h40.665c13.454 0 24.362-10.907 24.362-24.362v-71.666h-48.724z" fill="#ffff6f"/><path d="m281.052 388.945v47.305h-16.303c-13.454 0-24.362 10.907-24.362 24.362 0 13.454 10.907 24.362 24.362 24.362h40.665c13.454 0 24.362-10.907 24.362-24.362v-71.666h-48.724z" fill="#ffff6f"/><g><path d="m192.033 492.472h-40.665c-17.568 0-31.861-14.293-31.861-31.862s14.293-31.862 31.861-31.862h8.804v-36.805c0-4.142 3.357-7.5 7.5-7.5s7.5 3.358 7.5 7.5v44.305c0 4.142-3.357 7.5-7.5 7.5h-16.304c-9.298 0-16.861 7.564-16.861 16.862 0 9.297 7.563 16.862 16.861 16.862h40.665c9.298 0 16.861-7.564 16.861-16.862v-68.666c0-4.142 3.357-7.5 7.5-7.5s7.5 3.358 7.5 7.5v68.666c.001 17.569-14.292 31.862-31.861 31.862z" fill="#f95116"/></g><g><path d="m305.414 492.472h-40.665c-17.568 0-31.861-14.293-31.861-31.862s14.293-31.862 31.861-31.862h8.804v-36.805c0-4.142 3.357-7.5 7.5-7.5s7.5 3.358 7.5 7.5v44.305c0 4.142-3.357 7.5-7.5 7.5h-16.304c-9.298 0-16.861 7.564-16.861 16.862 0 9.297 7.563 16.862 16.861 16.862h40.665c9.298 0 16.861-7.564 16.861-16.862v-68.666c0-4.142 3.357-7.5 7.5-7.5s7.5 3.358 7.5 7.5v68.666c0 17.569-14.293 31.862-31.861 31.862z" fill="#f95116"/></g><path d="m167.671 388.945h48.723v30.597h-48.723z" fill="#f95116"/><path d="m281.052 388.945h48.723v30.597h-48.723z" fill="#f95116"/><path d="m199.454 27.028h-40.879c-16.266 0-29.452 13.186-29.452 29.452v24.07h99.782v-24.07c.001-16.266-13.185-29.452-29.451-29.452z" fill="#88f8d8"/><g><path d="m228.906 85.049c-4.143 0-7.5-3.358-7.5-7.5v-21.07c0-12.104-9.848-21.952-21.952-21.952h-40.878c-12.104 0-21.952 9.848-21.952 21.952v21.07c0 4.142-3.357 7.5-7.5 7.5s-7.5-3.358-7.5-7.5v-21.07c0-20.375 16.577-36.952 36.952-36.952h40.878c20.376 0 36.952 16.577 36.952 36.952v21.07c0 4.143-3.357 7.5-7.5 7.5z" fill="#007ea8"/></g><path d="m447.385 140.674v188.136c0 33.209-26.926 60.135-60.135 60.135h-287.13c-33.209 0-60.125-26.926-60.125-60.135v-13.218c20.133 20.174 47.967 32.658 78.728 32.658h58.136c61.43 0 111.223-49.793 111.223-111.223 0-61.42-49.793-111.223-111.223-111.223h-58.136c-30.761 0-58.595 12.484-78.728 32.668v-17.798c0-33.209 26.916-60.125 60.125-60.125h287.13c33.208 0 60.135 26.916 60.135 60.125z" fill="#ff9bff"/><path d="m504.5 140.674v188.136c0 33.209-26.926 60.135-60.135 60.135h-57.115c33.209 0 60.135-26.926 60.135-60.135v-188.136c0-33.209-26.926-60.125-60.135-60.125h57.116c33.208 0 60.134 26.916 60.134 60.125z" fill="#ff63ed"/><path d="m377.579 131.631h-21.694c-13.004 0-23.546 10.542-23.546 23.546 0 13.004 10.542 23.546 23.546 23.546h21.694c13.004 0 23.546-10.542 23.546-23.546 0-13.004-10.542-23.546-23.546-23.546z" fill="#88f8d8"/><circle cx="359.875" cy="307.661" fill="#ffff6f" r="27.537"/><path d="m444.365 73.049h-57.115-287.13c-37.288 0-67.625 30.336-67.625 67.625v14.798c0 4.142 3.357 7.5 7.5 7.5s7.5-3.358 7.5-7.5v-14.798c0-29.017 23.607-52.625 52.625-52.625h287.127.002c29.026 0 52.635 23.61 52.635 52.625v188.136c0 29.023-23.612 52.635-52.635 52.635h-287.129c-29.018 0-52.625-23.612-52.625-52.635v-10.218c0-4.142-3.357-7.5-7.5-7.5s-7.5 3.358-7.5 7.5v10.218c0 37.294 30.337 67.635 67.625 67.635h344.245c37.294 0 67.635-30.341 67.635-67.635v-188.136c0-37.289-30.341-67.625-67.635-67.625zm52.635 255.761c0 29.023-23.612 52.635-52.635 52.635h-14.685c15.982-12.913 25.205-32.227 25.205-52.635v-188.136c0-20.708-9.421-39.854-25.203-52.625h14.684c29.022 0 52.635 23.607 52.635 52.625v188.136z" fill="#e207b9"/><g><path d="m377.579 186.223h-21.694c-17.119 0-31.047-13.927-31.047-31.046s13.928-31.046 31.047-31.046h21.694c17.119 0 31.046 13.927 31.046 31.046s-13.927 31.046-31.046 31.046zm-21.694-47.092c-8.849 0-16.047 7.198-16.047 16.046s7.198 16.046 16.047 16.046h21.694c8.848 0 16.046-7.198 16.046-16.046s-7.198-16.046-16.046-16.046z" fill="#007ea8"/></g><g><path d="m359.875 342.698c-19.319 0-35.037-15.717-35.037-35.037s15.718-35.037 35.037-35.037 35.037 15.718 35.037 35.037-15.718 35.037-35.037 35.037zm0-55.074c-11.049 0-20.037 8.989-20.037 20.037s8.988 20.037 20.037 20.037 20.037-8.989 20.037-20.037c0-11.049-8.988-20.037-20.037-20.037z" fill="#f95116"/></g><circle cx="118.723" cy="237.027" fill="#b98eff" r="111.223"/><path d="m288.082 237.027c0 61.43-49.793 111.223-111.223 111.223h-58.136c61.43 0 111.223-49.793 111.223-111.223 0-61.42-49.793-111.223-111.223-111.223h58.136c61.43 0 111.223 49.803 111.223 111.223z" fill="#9448f5"/><path d="m176.859 118.303h-58.136c-65.464 0-118.723 53.26-118.723 118.724s53.259 118.723 118.724 118.723h58.136c65.464 0 118.723-53.259 118.723-118.723-.001-65.464-53.26-118.724-118.724-118.724zm-161.859 118.724c0-57.193 46.53-103.723 103.724-103.723 57.203 0 103.723 46.54 103.723 103.723 0 57.003-46.34 103.723-103.723 103.723-57.194 0-103.724-46.531-103.724-103.723zm161.859 103.723h-.413c36.882-20.606 61-59.775 61-103.723 0-43.462-23.778-82.928-61-103.723h.413c57.193 0 103.723 46.53 103.723 103.723s-46.529 103.723-103.723 103.723z" fill="#6d00ca"/><circle cx="173.46" cy="227.183" fill="#6d00ca" r="11.614"/><g><path d="m143.315 265.984h-49.183c-4.143 0-7.5-3.358-7.5-7.5s3.357-7.5 7.5-7.5h49.184c4.143 0 7.5 3.358 7.5 7.5s-3.358 7.5-7.501 7.5z" fill="#6d00ca"/></g><circle cx="63.987" cy="227.183" fill="#6d00ca" r="11.614"/></g></svg>