<svg id="Capa_1" enable-background="new 0 0 512 512" height="512" viewBox="0 0 512 512" width="512" xmlns="http://www.w3.org/2000/svg"><g><path d="m83.173 200.362h-42.073c-11.654 0-21.102 9.448-21.102 21.102v18.126c0 11.654 9.448 21.102 21.102 21.102h49.28z" fill="#b98eff"/><path d="m428.827 200.362h42.073c11.654 0 21.102 9.448 21.102 21.102v18.126c0 11.654-9.448 21.102-21.102 21.102h-49.28z" fill="#b98eff"/><g><path d="m87.38 268.193h-46.28c-15.771 0-28.603-12.831-28.603-28.602v-18.126c0-15.771 12.831-28.602 28.603-28.602h39.073c4.143 0 7.5 3.358 7.5 7.5s-3.357 7.5-7.5 7.5h-39.073c-7.5 0-13.603 6.102-13.603 13.602v18.126c0 7.5 6.103 13.602 13.603 13.602h46.28c4.143 0 7.5 3.358 7.5 7.5s-3.357 7.5-7.5 7.5z" fill="#6d00ca"/></g><g><path d="m470.9 268.193h-46.28c-4.143 0-7.5-3.358-7.5-7.5s3.357-7.5 7.5-7.5h46.28c7.5 0 13.603-6.102 13.603-13.602v-18.126c0-7.5-6.103-13.602-13.603-13.602h-39.073c-4.143 0-7.5-3.358-7.5-7.5s3.357-7.5 7.5-7.5h39.073c15.771 0 28.603 12.831 28.603 28.602v18.126c-.001 15.771-12.832 28.602-28.603 28.602z" fill="#6d00ca"/></g><path d="m467.727 106.554c-11.484-25.03-36.499-41.075-64.039-41.075h-295.376c-27.539 0-52.554 16.045-64.039 41.075-7.212 15.719 4.273 33.626 21.568 33.626h380.317c17.295 0 28.781-17.906 21.569-33.626z" fill="#b98eff"/><path d="m291.221 7.5h-70.442c-18.539 0-33.568 15.029-33.568 33.568v24.411h137.578v-24.411c0-18.539-15.029-33.568-33.568-33.568z" fill="#7181ff"/><path d="m436.016 140.18-36.421 304.891c-4.05 33.904-32.805 59.428-66.95 59.428h-153.29c-34.145 0-62.9-25.524-66.95-59.428l-36.421-304.891z" fill="#565eec"/><g><path d="m256 450.422c-11.046 0-20-8.954-20-20v-164.44c0-11.046 8.954-20 20-20s20 8.954 20 20v164.44c0 11.046-8.954 20-20 20z" fill="#b98eff"/></g><g><path d="m174.211 450.422c-11.046 0-20-8.954-20-20v-164.44c0-11.046 8.954-20 20-20s20 8.954 20 20v164.44c0 11.046-8.954 20-20 20z" fill="#b98eff"/></g><g><path d="m337.789 450.422c11.046 0 20-8.954 20-20v-164.44c0-11.046-8.954-20-20-20s-20 8.954-20 20v164.44c0 11.046 8.954 20 20 20z" fill="#b98eff"/></g><g><path d="m324.789 69.979c-4.143 0-7.5-3.358-7.5-7.5v-21.411c0-14.374-11.693-26.068-26.067-26.068h-70.442c-14.374 0-26.068 11.694-26.068 26.068v21.411c0 4.142-3.357 7.5-7.5 7.5s-7.5-3.358-7.5-7.5v-21.411c-.002-22.645 18.421-41.068 41.067-41.068h70.442c22.645 0 41.067 18.423 41.067 41.068v21.411c.001 4.142-3.357 7.5-7.499 7.5z" fill="#2115c2"/></g><g><path d="m332.645 512h-153.29c-37.916 0-69.899-28.391-74.396-66.039l-36.189-302.939c-.491-4.113 2.444-7.845 6.558-8.337 4.105-.492 7.847 2.444 8.337 6.557l36.188 302.939c3.597 30.112 29.177 52.819 59.502 52.819h153.29c30.325 0 55.905-22.707 59.502-52.818l36.263-303.565c.492-4.114 4.239-7.047 8.337-6.557 4.113.491 7.049 4.224 6.558 8.337l-36.263 303.564c-4.498 37.648-36.481 66.039-74.397 66.039z" fill="#2115c2"/></g><g><g><path d="m256 457.922c-15.163 0-27.5-12.336-27.5-27.5v-164.44c0-15.164 12.337-27.5 27.5-27.5s27.5 12.336 27.5 27.5v164.44c0 15.163-12.337 27.5-27.5 27.5zm0-204.44c-6.893 0-12.5 5.607-12.5 12.5v164.44c0 6.893 5.607 12.5 12.5 12.5s12.5-5.607 12.5-12.5v-164.44c0-6.893-5.608-12.5-12.5-12.5z" fill="#6d00ca"/></g></g><g><g><path d="m174.21 457.922c-15.163 0-27.5-12.336-27.5-27.5v-164.44c0-15.164 12.337-27.5 27.5-27.5s27.5 12.336 27.5 27.5v164.44c0 15.163-12.336 27.5-27.5 27.5zm0-204.44c-6.893 0-12.5 5.607-12.5 12.5v164.44c0 6.893 5.607 12.5 12.5 12.5s12.5-5.607 12.5-12.5v-164.44c0-6.893-5.607-12.5-12.5-12.5z" fill="#6d00ca"/></g></g><g><g><path d="m337.789 457.922c-15.163 0-27.5-12.336-27.5-27.5v-164.44c0-15.164 12.337-27.5 27.5-27.5s27.5 12.336 27.5 27.5v164.44c0 15.163-12.337 27.5-27.5 27.5zm0-204.44c-6.893 0-12.5 5.607-12.5 12.5v164.44c0 6.893 5.607 12.5 12.5 12.5s12.5-5.607 12.5-12.5v-164.44c0-6.893-5.608-12.5-12.5-12.5z" fill="#6d00ca"/></g></g><circle cx="312.33" cy="181.084" fill="#2115c2" r="11.952"/><g><path d="m281.307 220.797h-50.615c-4.143 0-7.5-3.358-7.5-7.5s3.357-7.5 7.5-7.5h50.615c4.143 0 7.5 3.358 7.5 7.5s-3.357 7.5-7.5 7.5z" fill="#2115c2"/></g><circle cx="199.67" cy="181.084" fill="#2115c2" r="11.952"/><g><path d="m446.159 147.68h-380.318c-10.688 0-20.516-5.371-26.287-14.369-5.771-8.997-6.556-20.169-2.098-29.885 12.667-27.609 40.479-45.448 70.855-45.448h295.376c30.375 0 58.188 17.839 70.855 45.447 4.458 9.715 3.674 20.887-2.098 29.885-5.77 8.999-15.596 14.37-26.285 14.37zm-337.847-74.701c-24.531 0-46.992 14.407-57.223 36.703-2.351 5.125-1.953 10.786 1.091 15.531 3.044 4.746 8.023 7.467 13.661 7.467h380.317c5.638 0 10.617-2.722 13.661-7.467 3.044-4.746 3.441-10.407 1.091-15.531-10.231-22.296-32.692-36.703-57.223-36.703z" fill="#6d00ca"/></g></g></svg>