<svg id="Capa_1" enable-background="new 0 0 512 512" height="512" viewBox="0 0 512 512" width="512" xmlns="http://www.w3.org/2000/svg"><g><path d="m242.319 330.909c6.113.265 12.056-2.047 16.382-6.373l15.722-15.722c-14.93-7.457-28.933-17.405-41.383-29.854-12.45-12.45-22.397-26.453-29.854-41.383l-170.731 170.731c-11.45 11.45-18.898 26.286-21.25 42.306l-3.414 23.32c-2.592 17.689 12.585 32.866 30.274 30.274l23.32-3.414c16.019-2.351 30.856-9.8 42.306-21.25l3.692-3.692c4.326-4.326 6.638-10.27 6.373-16.382-.555-12.79 9.965-23.31 22.755-22.755 6.113.265 12.056-2.047 16.382-6.373l7.397-7.397c4.326-4.326 6.638-10.27 6.373-16.382-.555-12.79 9.965-23.31 22.755-22.755 6.113.265 12.056-2.047 16.382-6.373l7.39-7.39c4.326-4.326 6.638-10.27 6.373-16.382-.554-12.789 9.966-23.309 22.756-22.754z" fill="#ffd600"/><path d="m457.895 54.106c-62.092-62.092-162.763-62.092-224.854 0s-62.092 162.763 0 224.854 162.763 62.092 224.854 0c62.092-62.091 62.092-162.762 0-224.854zm-124.176 124.176c-19.672-19.672-19.672-51.566 0-71.237s51.566-19.672 71.237 0 19.672 51.566 0 71.237-51.565 19.671-71.237 0z" fill="#ff63ed"/><g><path d="m.372 472.847 3.414-23.32c2.569-17.503 10.867-34.023 23.367-46.522l168.73-168.731c2.929-2.929 7.677-2.929 10.607 0 2.928 2.929 2.928 7.677 0 10.606l-168.731 168.731c-10.235 10.234-17.029 23.762-19.132 38.092l-3.414 23.318c-1.864 12.72 9.024 23.635 21.767 21.768l23.321-3.414c14.326-2.103 27.854-8.898 38.09-19.132l3.69-3.691c2.833-2.833 4.358-6.752 4.184-10.755-.744-17.143 13.377-31.319 30.573-30.572 4.016.172 7.92-1.351 10.753-4.183l7.397-7.397c2.833-2.832 4.357-6.751 4.183-10.754-.744-17.153 13.385-31.317 30.573-30.573 3.999.174 7.922-1.351 10.754-4.183l7.39-7.39c2.833-2.832 4.358-6.752 4.184-10.755-.744-17.142 13.375-31.318 30.573-30.572 4.006.173 7.921-1.351 10.753-4.183l13.722-13.722c2.928-2.928 7.676-2.93 10.607 0 2.928 2.929 2.928 7.677 0 10.606l-13.722 13.722c-5.797 5.797-13.814 8.919-22.01 8.562-8.408-.366-15.303 6.529-14.937 14.937.354 8.193-2.766 16.215-8.564 22.011l-7.389 7.39c-5.798 5.797-13.829 8.917-22.011 8.562-8.401-.364-15.303 6.522-14.936 14.937.354 8.193-2.766 16.215-8.564 22.011l-7.396 7.397c-5.797 5.797-13.816 8.919-22.01 8.562-8.41-.363-15.303 6.528-14.937 14.937.354 8.193-2.766 16.215-8.564 22.011l-3.69 3.691c-12.5 12.5-29.021 20.798-46.521 23.367l-23.323 3.414c-22.627 3.315-42.108-16.073-38.781-38.783z" fill="#f90"/></g><g><path d="m227.737 284.263c-65.065-65.065-65.074-170.386 0-235.46 65.067-65.065 170.386-65.076 235.461 0 65.065 65.065 65.075 170.386 0 235.46-64.915 64.915-170.542 64.919-235.461 0zm10.607-224.854c-59.205 59.204-59.213 155.036 0 214.249 59.068 59.069 155.18 59.068 214.248 0 59.205-59.204 59.213-155.036 0-214.249-59.205-59.204-155.036-59.213-214.248 0zm90.072 124.176c0-.001 0-.001 0 0-22.564-22.564-22.564-59.279 0-81.843 22.616-22.616 59.225-22.619 81.844 0 22.564 22.564 22.564 59.279 0 81.843-22.616 22.615-59.224 22.619-81.844 0zm10.606-10.606c16.753 16.754 43.875 16.757 60.631 0 16.716-16.716 16.716-43.915 0-60.632-16.753-16.754-43.875-16.757-60.631 0-16.716 16.716-16.716 43.916 0 60.632z" fill="#e207b9"/></g><circle cx="341.605" cy="250.044" fill="#e207b9" r="11.95"/><g><path d="m291.595 256.189-35.783-35.784c-2.928-2.929-2.928-7.677 0-10.606 2.929-2.929 7.677-2.928 10.607 0l35.783 35.784c2.928 2.929 2.928 7.677 0 10.606-2.929 2.928-7.677 2.929-10.607 0z" fill="#e207b9"/></g><circle cx="261.957" cy="170.396" fill="#e207b9" r="11.95"/></g></svg>