<svg id="Capa_1" enable-background="new 0 0 512 512" height="512" viewBox="0 0 512 512" width="512" xmlns="http://www.w3.org/2000/svg"><g><path d="m155.41 413.281v43.413h-15.997c-13.201 0-23.903 10.702-23.903 23.903s10.702 23.903 23.903 23.903h39.9c13.201 0 23.903-10.702 23.903-23.903v-67.316z" fill="#88f8d8"/><path d="m266.658 413.281v43.413h-15.997c-13.201 0-23.903 10.702-23.903 23.903s10.702 23.903 23.903 23.903h39.9c13.201 0 23.903-10.702 23.903-23.903v-67.316z" fill="#88f8d8"/><g><path d="m179.313 512h-39.899c-17.315 0-31.403-14.087-31.403-31.403s14.088-31.403 31.403-31.403h8.496v-32.912c0-4.142 3.357-7.5 7.5-7.5s7.5 3.358 7.5 7.5v40.412c0 4.142-3.357 7.5-7.5 7.5h-15.996c-9.045 0-16.403 7.359-16.403 16.403s7.357 16.403 16.402 16.403h39.899c9.045 0 16.403-7.358 16.403-16.403v-64.316c0-4.142 3.357-7.5 7.5-7.5s7.5 3.358 7.5 7.5v64.316c.001 17.316-14.087 31.403-31.402 31.403z" fill="#007ea8"/></g><g><path d="m290.562 512h-39.9c-17.315 0-31.403-14.087-31.403-31.403s14.088-31.403 31.403-31.403h8.497v-32.912c0-4.142 3.357-7.5 7.5-7.5s7.5 3.358 7.5 7.5v40.412c0 4.142-3.357 7.5-7.5 7.5h-15.997c-9.045 0-16.403 7.359-16.403 16.403s7.357 16.403 16.402 16.403h39.9c9.045 0 16.403-7.358 16.403-16.403v-64.316c0-4.142 3.357-7.5 7.5-7.5s7.5 3.358 7.5 7.5v64.316c.001 17.316-14.087 31.403-31.402 31.403z" fill="#007ea8"/></g><path d="m155.41 413.281h47.807v30.023h-47.807z" fill="#007ea8"/><path d="m266.658 443.303h44.208c1.207 0 2.405-.037 3.599-.091v-29.931h-47.807z" fill="#007ea8"/><path d="m140.09 183.761h37.648v-48.966c0-43.152 35.116-78.258 78.268-78.258 43.142 0 78.258 35.106 78.258 78.258v48.966h37.648c3.923 0 7.732.474 11.388 1.345v-50.311c0-70.303-56.993-127.295-127.295-127.295h-.01c-70.302 0-127.294 56.992-127.294 127.294v50.311c3.656-.87 7.466-1.344 11.389-1.344z" fill="#b98eff"/><g><path d="m383.3 189.605c-4.143 0-7.5-3.358-7.5-7.5v-47.311c0-66.054-53.74-119.794-119.795-119.794-66.064 0-119.804 53.74-119.804 119.794v47.311c0 4.142-3.357 7.5-7.5 7.5s-7.5-3.358-7.5-7.5v-47.311c0-74.325 60.469-134.794 134.794-134.794 74.336 0 134.805 60.469 134.805 134.794v47.311c0 4.143-3.358 7.5-7.5 7.5z" fill="#6d00ca"/></g><g><path d="m334.264 188.261c-4.143 0-7.5-3.358-7.5-7.5v-45.966c0-39.016-31.742-70.758-70.759-70.758-39.021 0-70.768 31.742-70.768 70.758v45.966c0 4.142-3.357 7.5-7.5 7.5s-7.5-3.358-7.5-7.5v-45.966c0-47.287 38.476-85.758 85.768-85.758 47.287 0 85.759 38.471 85.759 85.758v45.966c0 4.142-3.358 7.5-7.5 7.5z" fill="#6d00ca"/></g><path d="m359.862 232.757v131.538c0 27.06-21.936 48.986-48.996 48.986h-170.776c-27.06 0-48.996-21.926-48.996-48.986v-131.538c0-27.06 21.936-48.996 48.996-48.996h170.777c27.059 0 48.995 21.936 48.995 48.996z" fill="#ff9bff"/><path d="m420.908 232.757v131.538c0 27.06-21.936 48.986-48.996 48.986h-61.045c27.06 0 48.996-21.926 48.996-48.986v-131.538c0-27.06-21.936-48.996-48.996-48.996h61.045c27.059 0 48.996 21.936 48.996 48.996z" fill="#ff63ed"/><path d="m222.905 278.367c-17.622 1.216-32.005 15.315-33.54 32.912-1.223 14.015 5.541 26.547 16.243 33.574v19.531c0 6.279 5.09 11.37 11.37 11.37h17.001c6.279 0 11.37-5.09 11.37-11.37v-19.531c9.866-6.479 16.385-17.635 16.385-30.32-.001-20.875-17.642-37.628-38.829-36.166z" fill="#ffff6f"/><path d="m371.911 176.261c-15.984 0-165.506 0-231.821 0-31.152 0-56.497 25.344-56.497 56.496v131.538c0 31.146 25.345 56.486 56.497 56.486h231.821c31.152 0 56.496-25.34 56.496-56.486v-131.538c0-31.152-25.344-56.496-56.496-56.496zm-273.318 188.033v-131.537c0-22.881 18.615-41.496 41.497-41.496h170.776c22.881 0 41.496 18.615 41.496 41.496v131.538c0 22.875-18.615 41.486-41.496 41.486h-170.776c-22.882 0-41.497-18.611-41.497-41.487zm314.814 0c0 22.875-18.615 41.486-41.496 41.486h-22.741c11.277-10.43 18.192-25.368 18.192-41.486v-131.537c0-16.082-6.929-31.097-18.195-41.496h22.744c22.881 0 41.496 18.615 41.496 41.496z" fill="#e207b9"/><g><path d="m233.979 383.253h-17.001c-10.405 0-18.87-8.465-18.87-18.87v-15.721c-11.35-9.106-17.497-23.321-16.214-38.036 1.849-21.191 19.258-38.277 40.495-39.742 12.292-.848 23.978 3.292 32.938 11.656 8.837 8.248 13.905 19.909 13.905 31.992 0 13.382-6.056 25.858-16.385 34.132v15.719c.001 10.405-8.464 18.87-18.868 18.87zm-10.557-97.404c-13.943.962-25.372 12.175-26.585 26.081-.926 10.612 4.013 20.825 12.888 26.653 2.111 1.387 3.383 3.743 3.383 6.269v19.531c0 2.134 1.736 3.87 3.87 3.87h17.001c2.134 0 3.869-1.736 3.869-3.87v-19.531c0-2.526 1.271-4.883 3.384-6.269 8.141-5.346 13.001-14.337 13.001-24.051 0-8.058-3.246-15.525-9.14-21.027-5.889-5.495-13.588-8.215-21.671-7.656zm-.517-7.482h.01z" fill="#f95116"/></g><circle cx="279.185" cy="217.823" fill="#e207b9" r="11.395"/><g><path d="m249.607 256.036h-48.259c-4.143 0-7.5-3.358-7.5-7.5s3.357-7.5 7.5-7.5h48.259c4.143 0 7.5 3.358 7.5 7.5s-3.357 7.5-7.5 7.5z" fill="#e207b9"/></g><circle cx="171.771" cy="217.823" fill="#e207b9" r="11.395"/></g></svg>