<svg id="Capa_1" enable-background="new 0 0 512 512" height="512" viewBox="0 0 512 512" width="512" xmlns="http://www.w3.org/2000/svg"><g><path d="m28.69 219.64h269.99c9.23 0 17.74-5.02 22.21-13.11l64.33-116.5 64.33 116.5c4.46 8.09 12.97 13.11 22.2 13.11h19.99c9.1 0 14.87-9.77 10.47-17.74l-82.99-150.28c-10.89-19.73-31.65-31.98-54.18-31.98h-209.65c-22.53 0-43.29 12.25-54.18 31.98l-82.98 150.28c-4.4 7.97 1.36 17.74 10.46 17.74z" fill="#f90"/><path d="m298.68 219.64v200.3h173.07v-200.3c-9.23 0-17.74-5.02-22.2-13.11l-64.33-116.5-64.33 116.5c-4.47 8.09-12.98 13.11-22.21 13.11z" fill="#ffd600"/><path d="m28.69 219.64h269.99v200.3h-269.99z" fill="#ffff6f"/><path d="m368.865 304.88h32.699c10.491 0 18.995 8.504 18.995 18.995v96.065h-70.69v-96.065c.001-10.49 8.505-18.995 18.996-18.995z" fill="#565eec"/><g><path d="m349.87 424.44c4.143 0 7.5-3.358 7.5-7.5v-93.065c0-6.339 5.156-11.495 11.495-11.495h32.699c6.339 0 11.495 5.157 11.495 11.495v93.065c0 4.142 3.357 7.5 7.5 7.5s7.5-3.358 7.5-7.5v-93.065c0-14.609-11.886-26.495-26.495-26.495h-32.699c-14.609 0-26.495 11.886-26.495 26.495v93.065c0 4.142 3.358 7.5 7.5 7.5z" fill="#2115c2"/></g><path d="m122.108 276.45h83.153c12.126 0 21.956 9.83 21.956 21.956v42.768c0 12.126-9.83 21.956-21.956 21.956h-83.153c-12.126 0-21.956-9.83-21.956-21.956v-42.768c0-12.126 9.83-21.956 21.956-21.956z" fill="#565eec"/><circle cx="145.345" cy="122.527" fill="#f95116" r="11.387"/><g><path d="m174.9 160.717h48.223c4.143 0 7.5-3.358 7.5-7.5s-3.357-7.5-7.5-7.5h-48.223c-4.143 0-7.5 3.358-7.5 7.5s3.358 7.5 7.5 7.5z" fill="#f95116"/></g><circle cx="252.679" cy="122.527" fill="#f95116" r="11.387"/><g><path d="m92.652 341.174v-42.768c0-16.242 13.214-29.456 29.456-29.456h83.152c16.242 0 29.456 13.214 29.456 29.456v42.768c0 16.242-13.214 29.456-29.456 29.456h-83.152c-16.242 0-29.456-13.214-29.456-29.456zm29.456-57.224c-7.971 0-14.456 6.485-14.456 14.456v42.768c0 7.971 6.485 14.456 14.456 14.456h83.152c7.971 0 14.456-6.485 14.456-14.456v-42.768c0-7.971-6.485-14.456-14.456-14.456z" fill="#2115c2"/></g><path d="m21.189 225.658v191.282c0 4.143 3.357 7.5 7.5 7.5s7.5-3.357 7.5-7.5v-189.8h254.99v189.8c0 9.733 15 10.147 15 0v-190.667c9.275-2.172 16.935-8.26 21.274-16.116l57.766-104.612 57.765 104.61c4.381 7.949 12.068 13.96 21.266 16.118v190.667c0 9.931 15 9.915 15 0v-189.8h12.489c14.825 0 24.19-15.905 17.037-28.864l-82.991-150.282c-12.206-22.115-35.482-35.854-60.745-35.854h-209.65c-25.263 0-48.539 13.739-60.746 35.856l-82.98 150.279c-5.84 10.58-.686 23.147 9.525 27.383zm3.607-20.133 82.979-150.279c9.568-17.336 27.813-28.105 47.614-28.105h209.65c19.801 0 38.046 10.769 47.613 28.104l82.991 150.281c1.639 2.968-.509 6.614-3.905 6.614h-19.988c-6.503 0-12.493-3.537-15.632-9.231l-64.333-116.504c-2.841-5.144-10.282-5.159-13.131 0l-64.33 116.5c-3.154 5.707-9.154 9.235-15.645 9.235h-269.99c-3.391 0-5.534-3.643-3.893-6.615z" fill="#f95116"/><path d="m271.22 447.4v17.5c0 15.17 12.3 27.46 27.46 27.46h178.36c15.17 0 27.46-12.29 27.46-27.46v-17.5c0-15.17-12.29-27.46-27.46-27.46h-178.36c-15.16 0-27.46 12.29-27.46 27.46z" fill="#ff63ed"/><path d="m7.5 447.4v17.5c0 15.17 12.29 27.46 27.46 27.46h263.72c-15.16 0-27.46-12.29-27.46-27.46v-17.5c0-15.17 12.3-27.46 27.46-27.46h-263.72c-15.17 0-27.46 12.29-27.46 27.46z" fill="#ff9bff"/><path d="m0 447.4v17.5c0 19.277 15.683 34.96 34.96 34.96h442.08c19.277 0 34.96-15.683 34.96-34.96v-17.5c0-19.277-15.683-34.96-34.96-34.96h-178.36-263.72c-19.277 0-34.96 15.683-34.96 34.96zm477.04 37.46h-178.36c-11.006 0-19.96-8.954-19.96-19.96v-17.5c0-11.036 8.98-19.96 19.96-19.96h178.36c11.006 0 19.96 8.954 19.96 19.96v17.5c0 11.006-8.954 19.96-19.96 19.96zm-462.04-37.46c0-11.006 8.954-19.96 19.96-19.96h235.032c-4.171 6.017-6.272 12.96-6.272 19.96v17.5c0 6.841 2.013 13.814 6.272 19.96h-235.032c-11.006 0-19.96-8.954-19.96-19.96z" fill="#e207b9"/></g></svg>