<svg id="Capa_1" enable-background="new 0 0 512 512" height="512" viewBox="0 0 512 512" width="512" xmlns="http://www.w3.org/2000/svg"><g><path d="m310.848 347.281-99.666-60.397c-5.087 16.368-14.114 31-25.969 42.792l111.006 67.27c.624-18.117 5.882-35.054 14.629-49.665z" fill="#b98eff"/><path d="m296.22 115.055-111.006 67.27c11.854 11.792 20.881 26.424 25.969 42.792l99.665-60.398c-8.747-14.611-14.005-31.548-14.628-49.664z" fill="#b98eff"/><g><path d="m295.274 403.877c-1.324 0-2.665-.351-3.88-1.087l-109.489-66.351c-3.543-2.147-4.674-6.759-2.527-10.301 2.146-3.543 6.759-4.674 10.301-2.527l109.489 66.351c3.543 2.147 4.674 6.759 2.527 10.301-1.41 2.327-3.885 3.614-6.421 3.614z" fill="#6d00ca"/></g><g><path d="m310.054 354.304c-1.324 0-2.665-.351-3.88-1.087l-98.096-59.446c-3.543-2.147-4.674-6.759-2.527-10.301 2.146-3.543 6.759-4.674 10.301-2.527l98.096 59.446c3.543 2.147 4.674 6.759 2.527 10.301-1.411 2.328-3.885 3.614-6.421 3.614z" fill="#6d00ca"/></g><g><path d="m185.662 189.559c-2.536 0-5.011-1.287-6.421-3.614-2.146-3.542-1.016-8.154 2.527-10.301l109.917-66.611c3.543-2.146 8.155-1.016 10.301 2.527 2.146 3.542 1.016 8.154-2.527 10.301l-109.917 66.611c-1.215.736-2.556 1.087-3.88 1.087z" fill="#6d00ca"/></g><g><path d="m211.798 232.25c-2.536 0-5.011-1.286-6.421-3.614-2.146-3.542-1.016-8.154 2.527-10.301l98.508-59.696c3.542-2.146 8.155-1.016 10.301 2.527 2.146 3.542 1.016 8.154-2.527 10.301l-98.508 59.696c-1.215.736-2.556 1.087-3.88 1.087z" fill="#6d00ca"/></g><circle cx="111.93" cy="256" fill="#ff9bff" r="103.919"/><circle cx="400.069" cy="400.581" fill="#ffff6f" r="103.919"/><circle cx="400.069" cy="111.419" fill="#88f8d8" r="103.919"/><circle cx="161.68" cy="247.053" fill="#e207b9" r="10.556"/><g><path d="m134.281 283.003h-44.703c-4.143 0-7.5-3.358-7.5-7.5s3.357-7.5 7.5-7.5h44.703c4.143 0 7.5 3.358 7.5 7.5s-3.357 7.5-7.5 7.5z" fill="#e207b9"/></g><circle cx="62.179" cy="247.053" fill="#e207b9" r="10.556"/><circle cx="449.82" cy="102.472" fill="#007ea8" r="10.556"/><g><path d="m422.421 138.422h-44.703c-4.143 0-7.5-3.358-7.5-7.5s3.357-7.5 7.5-7.5h44.703c4.143 0 7.5 3.358 7.5 7.5s-3.358 7.5-7.5 7.5z" fill="#007ea8"/></g><circle cx="350.319" cy="102.472" fill="#007ea8" r="10.556"/><circle cx="350.319" cy="391.633" fill="#f95116" r="10.556"/><g><path d="m422.421 427.584h-44.703c-4.143 0-7.5-3.358-7.5-7.5s3.357-7.5 7.5-7.5h44.703c4.143 0 7.5 3.358 7.5 7.5s-3.358 7.5-7.5 7.5z" fill="#f95116"/></g><circle cx="449.82" cy="391.633" fill="#f95116" r="10.556"/><g><path d="m111.93 367.419c-61.437 0-111.419-49.982-111.419-111.419s49.982-111.419 111.419-111.419c61.438 0 111.42 49.983 111.42 111.419s-49.983 111.419-111.42 111.419zm0-207.838c-53.166 0-96.419 43.254-96.419 96.419s43.253 96.419 96.419 96.419 96.42-43.254 96.42-96.419-43.254-96.419-96.42-96.419z" fill="#e207b9"/></g><g><path d="m400.069 512c-61.437 0-111.419-49.982-111.419-111.419s49.982-111.419 111.419-111.419c61.438 0 111.42 49.983 111.42 111.419s-49.982 111.419-111.42 111.419zm0-207.839c-53.166 0-96.419 43.254-96.419 96.419 0 53.166 43.253 96.419 96.419 96.419s96.42-43.254 96.42-96.419-43.254-96.419-96.42-96.419z" fill="#f95116"/></g><g><path d="m400.069 222.839c-61.437 0-111.419-49.982-111.419-111.419s49.983-111.42 111.419-111.42c61.438 0 111.42 49.983 111.42 111.419s-49.982 111.42-111.42 111.42zm0-207.839c-53.166 0-96.419 43.254-96.419 96.419 0 53.166 43.253 96.419 96.419 96.419s96.42-43.254 96.42-96.419-43.254-96.419-96.42-96.419z" fill="#007ea8"/></g></g></svg>