<svg id="Capa_1" enable-background="new 0 0 512 512" height="512" viewBox="0 0 512 512" width="512" xmlns="http://www.w3.org/2000/svg"><g><path d="m189.733 134.065-53.096 29.498v184.874l53.096 29.498c18.479 10.266 41.188-3.096 41.188-24.235v-195.399c0-21.139-22.709-34.502-41.188-24.236z" fill="#f90"/><path d="m54.532 163.563c-25.975 0-47.032 21.057-47.032 47.032v90.811c0 25.975 21.057 47.032 47.032 47.032h82.105v-184.875z" fill="#ffd600"/><g><path d="m413.39 414.774c-6.999-6.998-6.999-18.344 0-25.344 35.641-35.64 55.269-83.026 55.269-133.43s-19.628-97.791-55.269-133.431c-6.999-6.998-6.999-18.345 0-25.344 6.998-6.998 18.344-6.998 25.343 0 42.411 42.41 65.767 98.798 65.767 158.775s-23.357 116.365-65.767 158.774c-6.998 6.997-18.345 7-25.343 0z" fill="#a4bcff"/></g><g><path d="m347.344 364.088c-6.999-6.998-6.999-18.344 0-25.343 22.102-22.102 34.274-51.488 34.274-82.745s-12.172-60.643-34.274-82.745c-6.999-6.999-6.999-18.345 0-25.344 6.998-6.998 18.344-6.998 25.343 0 28.872 28.872 44.772 67.258 44.772 108.088s-15.9 79.217-44.772 108.087c-7 7.001-18.345 7-25.343.002z" fill="#565eec"/></g><g><path d="m281.297 313.402c-6.999-6.998-6.999-18.344 0-25.343 17.676-17.677 17.676-46.44 0-64.117-6.999-6.999-6.999-18.345 0-25.344 6.998-6.998 18.344-6.998 25.343 0 15.332 15.332 23.777 35.718 23.777 57.402s-8.444 42.069-23.777 57.401c-6.999 7-18.344 6.999-25.343.001z" fill="#a4bcff"/></g><path d="m186.09 127.509-51.397 28.554h-80.161c-30.069.001-54.532 24.463-54.532 54.532v90.811c0 30.069 24.463 54.531 54.532 54.531h80.161l51.397 28.554c23.379 12.987 52.331-3.817 52.331-30.792v-195.398c0-26.841-28.829-43.848-52.331-30.792zm-171.09 173.896v-90.811c0-21.798 17.734-39.531 39.532-39.531h74.604v169.873h-74.604c-21.798.001-39.532-17.733-39.532-39.531zm208.421 52.294c0 15.413-16.555 25.175-30.046 17.679l-49.238-27.355v-176.047l49.238-27.354c13.473-7.485 30.046 2.244 30.046 17.679z" fill="#f95116"/><g><g><path d="m408.088 420.078c-.002 0-.006.002-.001-.001-9.934-9.933-9.935-26.013 0-35.949 34.225-34.223 53.072-79.726 53.072-128.127s-18.848-93.904-53.072-128.128c-9.934-9.934-9.936-26.015.001-35.95 9.933-9.934 26.012-9.935 35.948 0 43.827 43.825 67.964 102.096 67.964 164.077s-24.137 120.252-67.965 164.078c-9.934 9.933-26.013 9.936-35.947 0zm10.606-317.549c-4.072 4.072-4.075 10.663-.001 14.737 37.058 37.058 57.466 86.328 57.466 138.735s-20.408 101.677-57.465 138.733c-4.072 4.071-4.074 10.663-.001 14.737.001 0 .001.001.001.001 4.071 4.072 10.661 4.072 14.735 0 40.995-40.994 63.571-95.497 63.571-153.472 0-57.974-22.576-112.479-63.571-153.472-4.072-4.071-10.663-4.072-14.735.001z" fill="#2115c2"/></g></g><g><g><path d="m342.041 369.391c-.001 0-.001 0 0 0-9.935-9.935-9.937-26.014 0-35.95 20.685-20.686 32.076-48.188 32.076-77.441 0-29.254-11.392-56.756-32.077-77.442-9.934-9.935-9.936-26.014.001-35.95 9.933-9.934 26.013-9.935 35.949 0 30.287 30.288 46.968 70.558 46.968 113.391 0 42.834-16.681 83.103-46.968 113.391-10.369 10.369-26.404 9.546-35.949.001zm10.606-216.176c-4.072 4.072-4.074 10.663-.001 14.737 23.519 23.519 36.471 54.788 36.471 88.048s-12.952 64.529-36.47 88.048c-4.072 4.071-4.074 10.662-.001 14.736h.001c4.072 4.073 10.663 4.073 14.735 0 27.455-27.454 42.575-63.957 42.575-102.784s-15.12-75.33-42.575-102.785c-4.071-4.072-10.663-4.072-14.735 0z" fill="#2115c2"/></g></g><g><g><path d="m275.995 318.706c.002-.001-.001-.001 0 0-9.936-9.934-9.939-26.015 0-35.951 14.751-14.752 14.751-38.757-.001-53.51-9.935-9.933-9.938-26.014.001-35.951 9.934-9.933 26.012-9.935 35.948.001 16.749 16.749 25.974 39.018 25.974 62.705s-9.225 45.956-25.975 62.705c-9.983 9.985-26.077 9.87-35.947.001zm10.607-114.804c-4.073 4.071-4.076 10.662-.001 14.737 20.601 20.602 20.601 54.122.001 74.724-4.072 4.07-4.077 10.661-.001 14.736 0 0 0 0 .001.001 4.071 4.072 10.662 4.073 14.734 0 13.917-13.916 21.581-32.418 21.581-52.098s-7.664-38.182-21.58-52.098c-4.072-4.073-10.662-4.076-14.735-.002z" fill="#2115c2"/></g></g></g></svg>