<svg id="Capa_1" enable-background="new 0 0 512 512" height="512" viewBox="0 0 512 512" width="512" xmlns="http://www.w3.org/2000/svg"><g><path d="m256 64.145c-16.736 0-30.302 13.567-30.302 30.302v323.104c0 16.736 13.567 30.302 30.302 30.302s30.302-13.567 30.302-30.302v-323.103c.001-16.736-13.566-30.303-30.302-30.303z" fill="#b98eff"/><path d="m116.599 144.439v223.122c0 16.736 13.567 30.302 30.302 30.302s30.302-13.567 30.302-30.302v-223.122c0-16.736-13.567-30.302-30.302-30.302s-30.302 13.566-30.302 30.302z" fill="#ff63ed"/><path d="m37.803 164.128c-16.736 0-30.302 13.567-30.302 30.302v123.14c0 16.736 13.567 30.302 30.302 30.302s30.302-13.567 30.302-30.302v-123.14c0-16.735-13.567-30.302-30.302-30.302z" fill="#88f8d8"/><path d="m395.401 144.439v223.122c0 16.736-13.567 30.302-30.302 30.302s-30.302-13.567-30.302-30.302v-223.122c0-16.736 13.567-30.302 30.302-30.302s30.302 13.566 30.302 30.302z" fill="#ff63ed"/><path d="m474.198 164.128c16.736 0 30.302 13.567 30.302 30.302v123.14c0 16.736-13.567 30.302-30.302 30.302-16.736 0-30.302-13.567-30.302-30.302v-123.14c-.001-16.735 13.566-30.302 30.302-30.302z" fill="#88f8d8"/><g><path d="m256 455.355c-20.845 0-37.803-16.958-37.803-37.802v-323.105c0-20.844 16.958-37.802 37.803-37.802s37.803 16.958 37.803 37.802v323.104c0 20.844-16.958 37.803-37.803 37.803zm0-383.71c-12.573 0-22.803 10.229-22.803 22.802v323.104c0 12.573 10.229 22.802 22.803 22.802s22.803-10.229 22.803-22.802v-323.103c0-12.573-10.23-22.803-22.803-22.803z" fill="#6d00ca"/></g><g><path d="m146.901 405.363c-20.845 0-37.803-16.958-37.803-37.802v-223.122c0-20.844 16.958-37.802 37.803-37.802s37.803 16.958 37.803 37.802v223.122c0 20.844-16.958 37.802-37.803 37.802zm0-283.726c-12.573 0-22.803 10.229-22.803 22.802v223.122c0 12.573 10.229 22.802 22.803 22.802s22.803-10.229 22.803-22.802v-223.122c0-12.573-10.229-22.802-22.803-22.802z" fill="#e207b9"/></g><g><path d="m37.803 355.372c-20.845 0-37.803-16.958-37.803-37.802v-123.14c0-20.844 16.958-37.802 37.803-37.802s37.803 16.958 37.803 37.802v123.14c-.001 20.844-16.959 37.802-37.803 37.802zm0-183.744c-12.574 0-22.803 10.229-22.803 22.802v123.14c0 12.573 10.229 22.802 22.803 22.802s22.803-10.229 22.803-22.802v-123.14c-.001-12.573-10.23-22.802-22.803-22.802z" fill="#007ea8"/></g><g><path d="m365.099 405.363c-20.844 0-37.802-16.958-37.802-37.802v-223.122c0-20.844 16.958-37.802 37.802-37.802 20.845 0 37.803 16.958 37.803 37.802v223.122c-.001 20.844-16.959 37.802-37.803 37.802zm0-283.726c-12.573 0-22.802 10.229-22.802 22.802v223.122c0 12.573 10.229 22.802 22.802 22.802s22.803-10.229 22.803-22.802v-223.122c-.001-12.573-10.23-22.802-22.803-22.802z" fill="#e207b9"/></g><g><path d="m474.197 355.372c-20.844 0-37.802-16.958-37.802-37.802v-123.14c0-20.844 16.958-37.802 37.802-37.802 20.845 0 37.803 16.958 37.803 37.802v123.14c0 20.844-16.958 37.802-37.803 37.802zm0-183.744c-12.573 0-22.802 10.229-22.802 22.802v123.14c0 12.573 10.229 22.802 22.802 22.802s22.803-10.229 22.803-22.802v-123.14c0-12.573-10.229-22.802-22.803-22.802z" fill="#007ea8"/></g></g></svg>