<svg id="Capa_1" enable-background="new 0 0 512 512" height="512" viewBox="0 0 512 512" width="512" xmlns="http://www.w3.org/2000/svg"><g><path d="m364.815 110.683h-32.995v53.157h-233.863v-53.157h-32.984c-31.748 0-57.473 25.725-57.473 57.473v206.521c0 31.748 25.725 57.473 57.473 57.473h32.984v-108.685h233.863v108.685h32.995c31.738 0 57.463-25.725 57.463-57.473v-206.521c0-31.748-25.725-57.473-57.463-57.473z" fill="#b98eff"/><path d="m504.5 168.156v206.521c0 31.748-25.725 57.473-57.463 57.473h-82.222c31.738 0 57.463-25.725 57.463-57.473v-206.521c0-31.748-25.725-57.473-57.463-57.473h82.222c31.738 0 57.463 25.725 57.463 57.473z" fill="#9448f5"/><g fill="#565eec"><path d="m97.957 323.465h-6.167c-15.334 0-27.764 12.43-27.764 27.764 0 15.334 12.43 27.764 27.764 27.764h6.167z"/><path d="m337.987 323.465h-6.167v55.528h6.167c15.334 0 27.764-12.43 27.764-27.764 0-15.334-12.43-27.764-27.764-27.764z"/></g><path d="m293.552 473.825h-157.326c-21.135 0-38.269-17.134-38.269-38.269v-112.091h233.863v112.091c.001 21.135-17.133 38.269-38.268 38.269z" fill="#a4bcff"/><circle cx="355.233" cy="232.729" fill="#ff63ed" r="23.412"/><circle cx="274.161" cy="232.729" fill="#88f8d8" r="23.412"/><path d="m447.037 103.183c-11.474 0-96.546 0-112.217 0-4.143 0-7.5 3.358-7.5 7.5 0 4.143 3.357 7.5 7.5 7.5h29.995c27.55 0 49.963 22.418 49.963 49.973v206.521c0 27.555-22.413 49.973-49.963 49.973h-29.995c-4.143 0-7.5 3.358-7.5 7.5s3.357 7.5 7.5 7.5h112.217c35.82 0 64.963-29.146 64.963-64.973v-206.521c0-35.826-29.143-64.973-64.963-64.973zm49.963 271.494c0 27.555-22.413 49.973-49.963 49.973h-40.748c14.847-12.339 23.489-30.712 23.489-49.973v-206.521c0-19.21-8.584-37.552-23.489-49.973h40.748c27.55 0 49.963 22.418 49.963 49.973z" fill="#6d00ca"/><g><path d="m94.957 439.65h-29.984c-35.827 0-64.973-29.147-64.973-64.973v-206.521c0-35.826 29.146-64.973 64.973-64.973h29.984c4.143 0 7.5 3.358 7.5 7.5s-3.357 7.5-7.5 7.5h-29.984c-27.555 0-49.973 22.418-49.973 49.973v206.521c0 27.555 22.418 49.973 49.973 49.973h29.984c4.143 0 7.5 3.358 7.5 7.5s-3.357 7.5-7.5 7.5z" fill="#6d00ca"/></g><path d="m373.251 351.229c0-19.445-15.819-35.265-35.264-35.265-27.723 0-218.476 0-246.196 0-19.445 0-35.265 15.819-35.265 35.265 0 18.997 15.102 34.525 33.931 35.23v49.097c0 25.237 20.532 45.769 45.77 45.769h157.325c25.237 0 45.769-20.532 45.769-45.769v-49.097c18.827-.704 33.93-16.232 33.93-35.23zm-301.725 0c0-10.726 8.376-19.532 18.931-20.221v40.441c-10.555-.689-18.931-9.494-18.931-20.22zm252.794 84.327c0 16.966-13.803 30.769-30.769 30.769h-157.324c-16.967 0-30.77-13.803-30.77-30.769 0-11.095 0-93.564 0-104.591h218.863zm15-64.106v-40.441c10.554.688 18.931 9.495 18.931 20.221s-8.377 19.53-18.931 20.22z" fill="#2115c2"/><g><path d="m355.233 263.641c-17.046 0-30.913-13.867-30.913-30.912s13.867-30.912 30.913-30.912c17.045 0 30.912 13.867 30.912 30.912.001 17.045-13.867 30.912-30.912 30.912zm0-46.824c-8.774 0-15.913 7.138-15.913 15.912s7.139 15.912 15.913 15.912 15.912-7.138 15.912-15.912c.001-8.774-7.137-15.912-15.912-15.912z" fill="#e207b9"/></g><g><path d="m274.161 263.641c-17.045 0-30.912-13.867-30.912-30.912s13.867-30.912 30.912-30.912 30.912 13.867 30.912 30.912-13.867 30.912-30.912 30.912zm0-46.824c-8.774 0-15.912 7.138-15.912 15.912s7.138 15.912 15.912 15.912 15.912-7.138 15.912-15.912-7.137-15.912-15.912-15.912z" fill="#007ea8"/></g><path d="m293.552 38.175h-157.326c-21.135 0-38.269 17.134-38.269 38.269v87.396h233.863v-87.396c.001-21.135-17.133-38.269-38.268-38.269z" fill="#a4bcff"/><g><path d="m331.82 171.34h-233.863c-4.143 0-7.5-3.358-7.5-7.5v-87.396c0-25.237 20.532-45.769 45.77-45.769h157.325c25.237 0 45.769 20.532 45.769 45.769v87.396c-.001 4.142-3.358 7.5-7.501 7.5zm-226.363-15h218.863v-79.896c0-16.966-13.803-30.769-30.769-30.769h-157.324c-16.967 0-30.77 13.803-30.77 30.769z" fill="#2115c2"/></g><circle cx="269.941" cy="87.484" fill="#2115c2" r="11.681"/><g><path d="m239.622 126.466h-49.467c-4.143 0-7.5-3.358-7.5-7.5s3.357-7.5 7.5-7.5h49.467c4.143 0 7.5 3.358 7.5 7.5s-3.357 7.5-7.5 7.5z" fill="#2115c2"/></g><circle cx="159.837" cy="87.484" fill="#2115c2" r="11.681"/></g></svg>