<svg id="Capa_1" enable-background="new 0 0 512 512" height="512" viewBox="0 0 512 512" width="512" xmlns="http://www.w3.org/2000/svg"><g><path d="m380.927 59.247c-68.995-68.995-180.858-68.995-249.853 0-68.995 68.995-68.995 180.858 0 249.853l98.885 98.885c14.383 14.383 37.701 14.383 52.084 0l98.885-98.885c68.994-68.995 68.994-180.858-.001-249.853z" fill="#ff63ed"/><circle cx="256" cy="186.086" fill="#ff9bff" r="108.002"/><path d="m239.026 414.634c-3.264-1.696-6.329-3.91-9.068-6.649l-45.242-45.242v87.447h-18.173c-14.997 0-27.155 12.158-27.155 27.155s12.158 27.155 27.155 27.155h45.328c10.488 0 19.58-5.95 24.104-14.654-1.945-3.743-3.051-7.992-3.051-12.501 0-6.504 2.289-12.471 6.102-17.147z" fill="#88f8d8"/><path d="m282.042 407.985c-1.203 1.203-2.472 2.295-3.789 3.297v38.908h-18.173c-14.997 0-27.155 12.158-27.155 27.155s12.158 27.155 27.155 27.155h45.328c14.997 0 27.155-12.158 27.155-27.155v-119.881z" fill="#88f8d8"/><g><path d="m256 301.588c-63.688 0-115.502-51.814-115.502-115.502s51.813-115.502 115.502-115.502 115.502 51.814 115.502 115.502-51.814 115.502-115.502 115.502zm0-216.004c-55.417 0-100.502 45.085-100.502 100.502s45.085 100.502 100.502 100.502 100.502-45.085 100.502-100.502-45.085-100.502-100.502-100.502z" fill="#e207b9"/></g><circle cx="309.734" cy="168.412" fill="#e207b9" r="11.401"/><g><path d="m280.141 206.64h-48.282c-4.143 0-7.5-3.358-7.5-7.5s3.357-7.5 7.5-7.5h48.282c4.143 0 7.5 3.358 7.5 7.5s-3.357 7.5-7.5 7.5z" fill="#e207b9"/></g><circle cx="202.266" cy="168.412" fill="#e207b9" r="11.401"/><g fill="#007ea8"><path d="m229.958 407.985-45.242-45.242v42.479l24.003 24.003c8.523 8.522 18.945 14.449 30.308 17.41v-32.001c-3.265-1.696-6.329-3.91-9.069-6.649z"/><path d="m282.042 407.985c-1.203 1.203-2.472 2.295-3.789 3.297v33.746c9.309-3.276 17.844-8.618 25.029-15.803l29.282-29.282v-42.479z"/><path d="m332.563 352.964c-4.143 0-7.5 3.358-7.5 7.5v116.881c0 10.838-8.817 19.655-19.655 19.655h-45.328c-10.889 0-19.655-8.885-19.655-19.655 0-10.972 8.941-19.655 19.655-19.655h18.173c4.143 0 7.5-3.358 7.5-7.5v-35.908c0-4.143-3.357-7.5-7.5-7.5s-7.5 3.357-7.5 7.5v28.408h-10.673c-4.807 0-9.388.986-13.554 2.763v-27.818c0-4.142-3.357-7.5-7.5-7.5s-7.5 3.358-7.5 7.5v40.077c-3.853 5.592-6.102 12.504-6.102 19.634 0 4.112.781 8.281 2.1 11.884-3.682 4.86-9.426 7.771-15.653 7.771h-45.328c-10.838 0-19.655-8.817-19.655-19.655s8.817-19.655 19.655-19.655h18.173c4.143 0 7.5-3.358 7.5-7.5v-84.447c0-4.142-3.357-7.5-7.5-7.5s-7.5 3.358-7.5 7.5v76.947h-10.673c-19.109 0-34.655 15.546-34.655 34.655s15.545 34.654 34.655 34.654h45.328c9.183 0 17.757-3.598 24.116-9.779 6.241 6.047 14.737 9.779 24.093 9.779h45.328c19.109 0 34.655-15.546 34.655-34.655v-116.881c0-4.142-3.357-7.5-7.5-7.5z"/></g><g><path d="m256 426.251c-11.352 0-22.703-4.321-31.345-12.963l-98.886-98.885c-71.809-71.809-71.809-188.651 0-260.46 34.787-34.786 81.037-53.943 130.231-53.943s95.444 19.157 130.23 53.943c71.809 71.809 71.809 188.651 0 260.46l-98.885 98.885c-8.642 8.642-19.994 12.963-31.345 12.963zm0-411.251c-45.188 0-87.671 17.597-119.623 49.55-65.961 65.961-65.961 173.286 0 239.247l98.885 98.885c11.434 11.435 30.043 11.435 41.477 0l98.885-98.885c65.961-65.961 65.961-173.286 0-239.247-31.953-31.953-74.437-49.55-119.624-49.55z" fill="#e207b9"/></g></g></svg>