<svg id="Capa_1" enable-background="new 0 0 512 512" height="512" viewBox="0 0 512 512" width="512" xmlns="http://www.w3.org/2000/svg"><g><path d="m476.632 205.191h-38.098c-4.147-14.931-10.078-29.119-17.547-42.323l26.951-26.951c10.883-10.883 10.883-28.528 0-39.411l-32.445-32.445c-10.883-10.883-28.528-10.883-39.411 0l-26.951 26.951c-13.204-7.469-27.391-13.4-42.322-17.547v-38.097c0-15.391-12.477-27.868-27.868-27.868h-45.884c-15.391 0-27.868 12.477-27.868 27.868v38.098c-14.931 4.147-29.119 10.078-42.322 17.547l-26.951-26.951c-10.883-10.883-28.528-10.883-39.411 0l-32.444 32.444c-10.883 10.883-10.883 28.528 0 39.411l26.951 26.951c-7.469 13.204-13.4 27.391-17.547 42.322h-38.098c-15.391 0-27.868 12.477-27.868 27.868v45.884c0 15.391 12.477 27.868 27.868 27.868h38.098c4.147 14.931 10.078 29.119 17.547 42.322l-26.951 26.951c-10.883 10.883-10.883 28.528 0 39.411l32.445 32.445c10.883 10.883 28.528 10.883 39.411 0l26.951-26.951c13.204 7.469 27.391 13.4 42.323 17.547v38.098c0 15.391 12.477 27.868 27.868 27.868h45.884c15.391 0 27.868-12.477 27.868-27.868v-38.098c14.931-4.147 29.119-10.078 42.322-17.547l26.951 26.951c10.883 10.883 28.528 10.883 39.411 0l32.445-32.445c10.883-10.883 10.883-28.528 0-39.411l-26.951-26.951c7.469-13.204 13.4-27.391 17.547-42.322h38.098c15.391 0 27.868-12.477 27.868-27.868v-45.884c-.002-15.391-12.479-27.867-27.87-27.867z" fill="#565eec"/><circle cx="256" cy="256" fill="#ffff6f" r="121.869"/><g><path d="m278.941 512h-45.884c-19.502 0-35.367-15.866-35.367-35.367v-32.485c-11.552-3.578-22.775-8.231-33.491-13.886l-22.979 22.979c-6.681 6.68-15.563 10.359-25.01 10.359-9.446 0-18.328-3.679-25.009-10.359l-32.444-32.445c-13.789-13.79-13.789-36.228 0-50.017l22.979-22.98c-5.654-10.716-10.309-21.94-13.886-33.49h-32.483c-19.502.001-35.367-15.865-35.367-35.367v-45.884c0-19.502 15.865-35.368 35.367-35.368h32.484c3.577-11.551 8.231-22.774 13.886-33.49l-22.979-22.98c-13.789-13.79-13.789-36.228 0-50.017l32.444-32.445c13.791-13.791 36.228-13.79 50.019 0l22.979 22.98c10.715-5.655 21.938-10.308 33.49-13.886v-32.484c0-19.502 15.866-35.368 35.368-35.368h45.884c19.502 0 35.368 15.866 35.368 35.368v32.485c11.551 3.577 22.774 8.231 33.49 13.886l22.979-22.98c13.791-13.789 36.227-13.79 50.018 0l32.445 32.445c13.789 13.79 13.789 36.228 0 50.018l-22.98 22.98c5.654 10.714 10.308 21.938 13.886 33.49h32.484c19.502 0 35.368 15.866 35.368 35.368v45.884c0 19.502-15.866 35.367-35.368 35.367h-32.484c-3.578 11.552-8.231 22.776-13.886 33.49l22.98 22.98c13.789 13.79 13.789 36.227 0 50.017l-32.445 32.445c-6.681 6.68-15.562 10.359-25.009 10.359s-18.328-3.679-25.009-10.359l-22.979-22.981c-10.715 5.654-21.938 10.308-33.49 13.886v32.485c0 19.501-15.867 35.367-35.369 35.367zm-116.072-98.512c1.264 0 2.535.318 3.69.972 12.816 7.25 26.488 12.918 40.638 16.849 3.246.902 5.493 3.857 5.493 7.226v38.098c0 11.231 9.137 20.367 20.367 20.367h45.884c11.231 0 20.368-9.137 20.368-20.367v-38.098c0-3.369 2.246-6.325 5.493-7.226 14.148-3.93 27.821-9.599 40.637-16.849 2.933-1.659 6.613-1.158 8.996 1.225l26.951 26.951c3.847 3.847 8.961 5.966 14.401 5.966s10.555-2.119 14.401-5.966l32.445-32.445c7.941-7.941 7.941-20.863 0-28.804l-26.951-26.951c-2.383-2.383-2.884-6.063-1.224-8.996 7.249-12.814 12.917-26.486 16.848-40.637.902-3.246 3.857-5.493 7.227-5.493h38.098c11.231 0 20.368-9.137 20.368-20.367v-45.884c0-11.231-9.137-20.368-20.368-20.368h-38.098c-3.369 0-6.324-2.247-7.227-5.493-3.931-14.151-9.599-27.823-16.848-40.637-1.66-2.933-1.159-6.613 1.225-8.996l26.95-26.951c7.941-7.941 7.941-20.863 0-28.804l-32.445-32.445c-7.939-7.941-20.863-7.941-28.803 0l-26.951 26.951c-2.384 2.382-6.063 2.885-8.996 1.225-12.816-7.25-26.489-12.919-40.637-16.849-3.246-.902-5.493-3.857-5.493-7.226v-38.098c0-11.231-9.137-20.368-20.368-20.368h-45.884c-11.23 0-20.367 9.137-20.367 20.368v38.098c0 3.369-2.247 6.325-5.493 7.226-14.148 3.93-27.821 9.599-40.636 16.848-2.937 1.66-6.614 1.157-8.997-1.225l-26.951-26.951c-7.941-7.942-20.862-7.94-28.804 0l-32.443 32.446c-7.941 7.941-7.941 20.863 0 28.804l26.95 26.951c2.383 2.383 2.884 6.063 1.225 8.996-7.25 12.817-12.919 26.489-16.849 40.637-.901 3.246-3.857 5.493-7.227 5.493h-38.097c-11.23 0-20.367 9.137-20.367 20.368v45.884c0 11.231 9.137 20.367 20.367 20.367h38.098c3.369 0 6.325 2.247 7.227 5.493 3.93 14.148 9.599 27.82 16.849 40.637 1.659 2.933 1.158 6.613-1.225 8.996l-26.95 26.951c-7.941 7.941-7.941 20.863 0 28.804l32.444 32.445c3.847 3.847 8.961 5.966 14.401 5.966 5.441 0 10.556-2.119 14.402-5.966l26.95-26.951c1.445-1.444 3.365-2.197 5.306-2.197z" fill="#2115c2"/></g><g><path d="m256 385.369c-71.334 0-129.369-58.035-129.369-129.369s58.035-129.369 129.369-129.369 129.368 58.035 129.368 129.369-58.034 129.369-129.368 129.369zm0-243.738c-63.063 0-114.369 51.306-114.369 114.369s51.306 114.369 114.369 114.369 114.368-51.306 114.368-114.369-51.305-114.369-114.368-114.369z" fill="#f95116"/></g><circle cx="309.667" cy="246.349" fill="#f95116" r="11.387"/><g><path d="m280.111 284.539h-48.223c-4.143 0-7.5-3.358-7.5-7.5s3.357-7.5 7.5-7.5h48.223c4.143 0 7.5 3.358 7.5 7.5s-3.357 7.5-7.5 7.5z" fill="#f95116"/></g><circle cx="202.333" cy="246.349" fill="#f95116" r="11.387"/></g></svg>