<svg id="Capa_1" enable-background="new 0 0 512 512" height="512" viewBox="0 0 512 512" width="512" xmlns="http://www.w3.org/2000/svg"><g><path d="m242.006 415.735c-18.961-1.283-37.21-5.15-54.402-11.255v45.619h-18.204c-15.022 0-27.201 12.178-27.201 27.201 0 15.022 12.179 27.201 27.201 27.201h45.405c10.505 0 19.613-5.96 24.145-14.679-1.948-3.749-3.056-8.005-3.056-12.522 0-6.515 2.293-12.492 6.112-17.176z" fill="#ff63ed"/><path d="m281.299 414.663v35.436h-18.203c-15.023 0-27.201 12.178-27.201 27.201 0 15.022 12.178 27.201 27.201 27.201h45.404c15.023 0 27.201-12.178 27.201-27.201v-77.205c-17.071 7.236-35.33 12.213-54.402 14.568z" fill="#ff63ed"/><g fill="#e207b9"><path d="m187.604 404.479v26.485c17.504 5.441 35.741 8.78 54.402 9.895v-25.125c-18.96-1.282-37.209-5.15-54.402-11.255z"/><path d="m335.701 395.594c-4.143 0-7.5 3.358-7.5 7.5v74.206c0 10.863-8.838 19.701-19.701 19.701h-45.404c-10.981 0-19.701-8.975-19.701-19.701 0-10.915 8.89-19.701 19.701-19.701h18.203c4.143 0 7.5-3.358 7.5-7.5v-32.436c0-4.142-3.357-7.5-7.5-7.5s-7.5 3.358-7.5 7.5v24.936h-10.703c-4.82 0-9.413.99-13.589 2.774v-26.638c0-4.142-3.357-7.5-7.5-7.5s-7.5 3.358-7.5 7.5v38.901c-4.038 5.866-6.112 12.812-6.112 19.664 0 4.132.783 8.3 2.105 11.907-3.69 4.874-9.451 7.793-15.694 7.793h-45.404c-10.863 0-19.701-8.838-19.701-19.701s8.838-19.701 19.701-19.701h18.203c4.143 0 7.5-3.358 7.5-7.5v-42.619c0-4.143-3.357-7.5-7.5-7.5s-7.5 3.357-7.5 7.5v35.119h-10.703c-19.135 0-34.701 15.566-34.701 34.701s15.565 34.701 34.7 34.701h45.404c9.199 0 17.787-3.607 24.156-9.801 6.25 6.06 14.761 9.801 24.134 9.801h45.405c19.135 0 34.701-15.566 34.701-34.701v-74.206c0-4.141-3.358-7.499-7.5-7.499z"/><path d="m281.299 414.663v25.245c18.743-2.043 36.983-6.35 54.402-12.789v-27.025c-17.071 7.237-35.33 12.214-54.402 14.569z"/></g><circle cx="256" cy="211.861" fill="#ffff6f" r="204.36"/><circle cx="256" cy="211.861" fill="#a4bcff" r="156.889"/><g fill="#f90"><path d="m256 182.158c6.567 0 12.634 2.136 17.551 5.744v-78.505c0-9.693-7.858-17.551-17.551-17.551s-17.551 7.858-17.551 17.551v78.505c4.917-3.608 10.984-5.744 17.551-5.744z"/><path d="m358.463 194.309h-78.505c3.609 4.918 5.744 10.984 5.744 17.551s-2.136 12.634-5.744 17.551h78.505c9.693 0 17.551-7.858 17.551-17.551s-7.857-17.551-17.551-17.551z"/></g><circle cx="256" cy="211.861" fill="#ffff6f" r="29.702"/><g><path d="m256 376.25c-90.645 0-164.389-73.745-164.389-164.389s73.744-164.39 164.389-164.39 164.39 73.745 164.39 164.389-73.746 164.39-164.39 164.39zm0-313.779c-82.373 0-149.389 67.016-149.389 149.389s67.015 149.39 149.389 149.39 149.39-67.016 149.39-149.389-67.016-149.39-149.39-149.39z" fill="#2115c2"/></g><path d="m358.463 186.81h-74.985c-.772-.846-1.582-1.656-2.427-2.427v-74.985c0-13.813-11.238-25.051-25.052-25.051s-25.051 11.238-25.051 25.051v74.984c-7.462 6.808-12.151 16.605-12.151 27.479 0 20.514 16.688 37.203 37.202 37.203 10.873 0 20.67-4.689 27.479-12.151h74.985c13.813 0 25.051-11.238 25.051-25.052s-11.237-25.051-25.051-25.051zm-112.514-77.413c0-5.542 4.509-10.051 10.051-10.051 5.543 0 10.052 4.509 10.052 10.051v66.631c-3.22-.896-6.856-1.37-10.052-1.37-3.328 0-6.978.512-10.051 1.37zm10.051 124.666c-12.242 0-22.202-9.96-22.202-22.203 0-12.202 9.955-22.202 22.202-22.202 12.204 0 22.203 9.935 22.203 22.202 0 12.406-10.138 22.203-22.203 22.203zm102.463-12.151h-66.631c.818-2.926 1.37-6.656 1.37-10.052 0-3.423-.577-7.22-1.37-10.051h66.631c5.542 0 10.051 4.509 10.051 10.051 0 5.543-4.509 10.052-10.051 10.052z" fill="#f95116"/><circle cx="309.824" cy="280.505" fill="#2115c2" r="11.42"/><g><path d="m280.182 318.785h-48.364c-4.143 0-7.5-3.358-7.5-7.5s3.357-7.5 7.5-7.5h48.364c4.143 0 7.5 3.358 7.5 7.5s-3.357 7.5-7.5 7.5z" fill="#2115c2"/></g><circle cx="202.176" cy="280.505" fill="#2115c2" r="11.42"/><g><path d="m256 423.721c-116.82 0-211.86-95.04-211.86-211.86-.001-116.821 95.039-211.861 211.86-211.861s211.861 95.04 211.861 211.861c0 116.82-95.041 211.86-211.861 211.86zm0-408.721c-108.549 0-196.86 88.311-196.86 196.861 0 108.549 88.312 196.86 196.86 196.86 108.55 0 196.861-88.311 196.861-196.86 0-108.55-88.312-196.861-196.861-196.861z" fill="#f95116"/></g></g></svg>