<svg id="Capa_1" enable-background="new 0 0 512 512" height="512" viewBox="0 0 512 512" width="512" xmlns="http://www.w3.org/2000/svg"><g><path d="m175.95 406.491v49.315h-16.294c-13.446 0-24.347 10.901-24.347 24.347s10.901 24.347 24.347 24.347h40.641c13.446 0 24.347-10.901 24.347-24.347v-73.662z" fill="#ffff6f"/><path d="m289.263 406.491v49.315h-16.294c-13.446 0-24.347 10.901-24.347 24.347s10.901 24.347 24.347 24.347h40.641c13.446 0 24.347-10.901 24.347-24.347v-73.662z" fill="#ffff6f"/><g><path d="m200.297 512h-40.641c-17.561 0-31.847-14.287-31.847-31.847s14.286-31.847 31.847-31.847h8.794v-38.815c0-4.142 3.357-7.5 7.5-7.5s7.5 3.358 7.5 7.5v46.315c0 4.142-3.357 7.5-7.5 7.5h-16.294c-9.289 0-16.847 7.557-16.847 16.847s7.558 16.847 16.847 16.847h40.641c9.289 0 16.847-7.558 16.847-16.847v-70.662c0-4.142 3.357-7.5 7.5-7.5s7.5 3.358 7.5 7.5v70.662c-.001 17.561-14.287 31.847-31.847 31.847z" fill="#f95116"/></g><g><path d="m313.61 512h-40.641c-17.561 0-31.848-14.287-31.848-31.847s14.287-31.847 31.848-31.847h8.793v-38.815c0-4.142 3.357-7.5 7.5-7.5s7.5 3.358 7.5 7.5v46.315c0 4.142-3.357 7.5-7.5 7.5h-16.293c-9.29 0-16.848 7.557-16.848 16.847s7.558 16.847 16.848 16.847h40.641c9.289 0 16.847-7.558 16.847-16.847v-70.662c0-4.142 3.357-7.5 7.5-7.5s7.5 3.358 7.5 7.5v70.662c0 17.561-14.286 31.847-31.847 31.847z" fill="#f95116"/></g><path d="m175.949 406.491h48.694v30.58h-48.694z" fill="#f95116"/><path d="m289.263 406.491h48.694v30.58h-48.694z" fill="#f95116"/><path d="m441.016 61.126v291.739c0 29.611-24.015 53.626-53.626 53.626h-262.78c-29.611 0-53.626-24.015-53.626-53.626v-191.958h102.319c28.215 0 51.088-22.873 51.088-51.088v-102.319h162.999c29.611 0 53.626 24.015 53.626 53.626z" fill="#ddbeff"/><path d="m224.391 7.5v102.319c0 28.215-22.873 51.088-51.088 51.088h-102.319c0-23.985 9.531-46.991 26.492-63.952l62.963-62.963c16.961-16.961 39.967-26.492 63.952-26.492z" fill="#b98eff"/><path d="m387.389 0h-162.998c-26.16 0-50.756 10.188-69.256 28.689l-62.963 62.963c-18.499 18.5-28.688 43.095-28.688 69.255v191.958c0 33.705 27.421 61.126 61.126 61.126h262.779c33.705 0 61.127-27.421 61.127-61.126v-291.739c0-33.705-27.422-61.126-61.127-61.126zm-284.61 102.259 62.964-62.963c13.885-13.885 31.825-22.242 51.148-23.963v94.487c0 24.034-19.554 43.588-43.589 43.588h-94.486c1.721-19.324 10.077-37.264 23.963-51.149zm330.737 250.606c0 25.434-20.692 46.126-46.127 46.126h-262.779c-25.434 0-46.126-20.692-46.126-46.126v-184.458h94.818c32.306 0 58.589-26.282 58.589-58.588v-94.819h155.498c25.435 0 46.127 20.692 46.127 46.126z" fill="#6d00ca"/><circle cx="321.469" cy="292.318" fill="#6d00ca" r="13.891"/><g><path d="m285.414 337.258h-58.828c-4.143 0-7.5-3.358-7.5-7.5s3.357-7.5 7.5-7.5h58.828c4.143 0 7.5 3.358 7.5 7.5s-3.358 7.5-7.5 7.5z" fill="#6d00ca"/></g><circle cx="190.53" cy="292.318" fill="#6d00ca" r="13.891"/></g></svg>