<svg id="Capa_1" enable-background="new 0 0 512 512" height="512" viewBox="0 0 512 512" width="512" xmlns="http://www.w3.org/2000/svg"><g><circle cx="314.087" cy="197.976" fill="#ffff6f" r="190.432"/><circle cx="314.087" cy="197.976" fill="#ff9bff" r="128.438"/><path d="m213.139 359.498c-11.973-7.498-23.294-16.452-33.709-26.866s-19.368-21.736-26.866-33.709l-122.896 99.554c-27.52 22.292-29.676 63.51-4.634 88.552 25.043 25.043 66.26 22.886 88.552-4.634z" fill="#b98eff"/><g><path d="m217.964 294.099c-53.125-53.125-53.13-139.113 0-192.244 53.005-53.003 139.243-53.002 192.246 0 53.123 53.123 53.13 139.114 0 192.244l-5.303-5.303 5.303 5.303c-53.002 53-139.241 53.003-192.246 0zm10.607-181.639c-47.263 47.262-47.27 123.764 0 171.033 47.155 47.155 123.882 47.153 171.033 0 47.261-47.26 47.27-123.764 0-171.033-47.152-47.153-123.879-47.156-171.033 0z" fill="#e207b9"/></g><circle cx="359.895" cy="228.37" fill="#e207b9" r="11.433"/><g><path d="m311.82 234.478-34.236-34.236c-2.928-2.929-2.928-7.677 0-10.606 2.929-2.929 7.677-2.929 10.607 0l34.236 34.236c2.928 2.929 2.928 7.677 0 10.606-2.929 2.929-7.677 2.929-10.607 0z" fill="#e207b9"/></g><circle cx="283.693" cy="152.168" fill="#e207b9" r="11.433"/><g><path d="m19.73 492.333c-28.124-28.126-25.791-74.565 5.217-99.683l121.991-98.819c3.219-2.607 7.941-2.111 10.548 1.107s2.111 7.941-1.107 10.548l-121.991 98.818c-24.004 19.444-25.969 55.506-4.051 77.422 21.847 21.846 57.913 20.034 77.422-4.051l98.665-121.801c2.607-3.217 7.33-3.714 10.548-1.107s3.715 7.33 1.107 10.548l-98.665 121.801c-25.007 30.87-71.409 33.489-99.684 5.217z" fill="#6d00ca"/></g><g><path d="m174.128 337.935c-77.173-77.173-77.173-202.744 0-279.918 77.352-77.351 202.556-77.362 279.919 0 77.173 77.173 77.173 202.744 0 279.918-77.352 77.352-202.557 77.362-279.919 0zm10.606-269.312c-71.326 71.326-71.326 187.381 0 258.707 71.491 71.492 187.209 71.497 258.706 0 71.326-71.326 71.326-187.381 0-258.707-71.489-71.489-187.207-71.499-258.706 0z" fill="#f95116"/></g></g></svg>