<svg id="Capa_1" enable-background="new 0 0 512 512" height="512" viewBox="0 0 512 512" width="512" xmlns="http://www.w3.org/2000/svg"><g><path d="m140.246 317.625-101.267 101.268c-13.37 13.37-22.859 30.12-27.453 48.462l-3.437 13.72c-3.455 13.794 9.043 26.292 22.837 22.837l13.72-3.437c18.342-4.594 35.092-14.083 48.462-27.453l101.267-101.267z" fill="#a4bcff"/><g><path d="m.813 479.252 3.437-13.72c4.923-19.653 15.097-37.615 29.426-51.942l99.267-99.267c2.93-2.929 7.677-2.929 10.607 0 2.929 2.929 2.929 7.677 0 10.606l-99.268 99.268c-12.408 12.407-21.219 27.961-25.481 44.981l-3.437 13.72c-2.084 8.317 5.415 15.823 13.74 13.739l13.72-3.437c17.02-4.263 32.574-13.075 44.98-25.481l99.268-99.268c2.931-2.93 7.678-2.928 10.607 0 2.929 2.929 2.929 7.677 0 10.606l-99.269 99.267c-14.327 14.327-32.288 24.502-51.942 29.425l-13.72 3.437c-19.278 4.828-36.769-12.629-31.935-31.934z" fill="#2115c2"/></g><path d="m497.341 130.562-115.903-115.903c-11.496-11.496-30.86-8.75-38.621 5.537-11.803 21.728-15.735 46.596-11.799 70.418l90.368 90.368c23.821 3.937 48.69.005 70.418-11.799 14.286-7.761 17.033-27.125 5.537-38.621z" fill="#ff9bff"/><path d="m318.376 365.219c86.747-86.747 103.01-184.238 103.01-184.238l-90.368-90.368s-97.491 16.263-184.238 103.01z" fill="#ff63ed"/><path d="m301.205 427.925c9.614-19.872 15.336-41.155 17.171-62.706l-171.595-171.595c-21.551 1.835-42.834 7.557-62.706 17.171-16.714 8.086-20.282 30.378-7.153 43.507l180.776 180.776c13.13 13.129 35.421 9.561 43.507-7.153z" fill="#ff9bff"/><circle cx="331.844" cy="252.04" fill="#e207b9" r="10.785"/><g><path d="m286.192 258.102-32.296-32.296c-2.929-2.929-2.929-7.677 0-10.606 2.93-2.929 7.677-2.929 10.607 0l32.296 32.296c2.929 2.929 2.929 7.677 0 10.606s-7.677 2.93-10.607 0z" fill="#e207b9"/></g><g fill="#e207b9"><circle cx="259.96" cy="180.156" r="10.785"/><path d="m502.644 125.259-115.903-115.903c-15.048-15.047-40.348-11.451-50.515 7.259-11.235 20.682-15.936 44.595-13.537 68.063-9.878 2.264-29.353 7.491-54.184 18.004-32.283 13.667-79.993 39.253-125.093 83.732-21.852 2.179-42.902 8.097-62.604 17.629-21.564 10.433-25.803 38.946-9.19 55.561l180.776 180.776c16.605 16.603 45.119 12.395 55.561-9.19 9.531-19.7 15.45-40.749 17.629-62.603 44.479-45.099 70.065-92.811 83.732-125.094 10.512-24.829 15.74-44.304 18.003-54.182 23.958 2.449 47.724-2.491 68.063-13.54 18.703-10.156 22.319-35.453 7.262-50.512zm-208.189 299.4c-5.82 12.026-21.915 14.654-31.453 5.116l-180.777-180.777c-9.479-9.479-6.976-25.604 5.116-31.452 17.832-8.627 36.868-14.045 56.633-16.122 9.254 9.254 157.349 157.348 166.602 166.601-2.078 19.766-7.495 38.802-16.121 56.634zm100.849-186.536c-12.798 30.113-36.412 74.232-76.979 116.437l-160.886-160.884c42.205-40.567 86.325-64.181 116.438-76.979 26.335-11.192 46.668-16.218 54.673-17.945l84.698 84.698c-1.728 8.007-6.753 28.339-17.944 54.673zm92.92-75.531c-19.18 10.42-41.558 14.418-63.271 11.349-10.947-10.947-76.171-76.171-86.894-86.894-3.068-21.713.93-44.092 11.348-63.271 5.362-9.868 18.753-11.79 26.728-3.814l115.903 115.902h.001c7.971 7.973 6.059 21.365-3.815 26.728z"/></g></g></svg>