<svg id="Capa_1" enable-background="new 0 0 512 512" height="512" viewBox="0 0 512 512" width="512" xmlns="http://www.w3.org/2000/svg"><g><path d="m182.885 401.88v52.16h-16.885c-13.934 0-25.23 11.296-25.23 25.23s11.296 25.23 25.23 25.23h42.115c13.934 0 25.23-11.296 25.23-25.23v-77.39z" fill="#b98eff"/><path d="m300.308 401.88v52.16h-16.885c-13.934 0-25.23 11.296-25.23 25.23s11.296 25.23 25.23 25.23h42.115c13.934 0 25.23-11.296 25.23-25.23v-77.39z" fill="#b98eff"/><g><path d="m208.115 512h-42.114c-18.048 0-32.73-14.683-32.73-32.73 0-18.048 14.683-32.73 32.73-32.73h9.385v-41.66c0-4.142 3.357-7.5 7.5-7.5s7.5 3.358 7.5 7.5v49.16c0 4.142-3.357 7.5-7.5 7.5h-16.885c-9.776 0-17.73 7.954-17.73 17.73s7.954 17.73 17.73 17.73h42.114c9.776 0 17.73-7.954 17.73-17.73v-74.39c0-4.142 3.357-7.5 7.5-7.5s7.5 3.358 7.5 7.5v74.39c.001 18.047-14.682 32.73-32.73 32.73z" fill="#6d00ca"/></g><g><path d="m325.538 512h-42.114c-18.048 0-32.73-14.683-32.73-32.73 0-18.048 14.683-32.73 32.73-32.73h9.385v-41.66c0-4.142 3.357-7.5 7.5-7.5s7.5 3.358 7.5 7.5v49.16c0 4.142-3.357 7.5-7.5 7.5h-16.885c-9.776 0-17.73 7.954-17.73 17.73s7.954 17.73 17.73 17.73h42.114c9.776 0 17.73-7.954 17.73-17.73v-74.39c0-4.142 3.357-7.5 7.5-7.5s7.5 3.358 7.5 7.5v74.39c0 18.047-14.682 32.73-32.73 32.73z" fill="#6d00ca"/></g><path d="m182.885 401.88h50.46v31.688h-50.46z" fill="#6d00ca"/><path d="m300.308 401.88h50.46v31.688h-50.46z" fill="#6d00ca"/><path d="m441.502 7.5h-342.058c-28.168 0-51.003 22.835-51.003 51.003v3.864c.484-.159.972-.308 1.463-.449.076-.022.152-.043.228-.065.477-.135.956-.264 1.439-.382.045-.011.091-.02.136-.031.894-.215 1.799-.401 2.714-.558.156-.027.311-.058.468-.084.329-.052.66-.096.991-.141.324-.044.648-.087.974-.124.286-.032.574-.061.862-.087.404-.037.811-.067 1.219-.093.231-.014.46-.031.692-.042.649-.03 1.301-.05 1.958-.05h84c23.246 0 42.09 18.845 42.09 42.09 0 13.908 11.274 25.182 25.182 25.182h228.644c28.168 0 51.003 22.835 51.003 51.003v-49.786-70.248c.001-28.168-22.834-51.002-51.002-51.002z" fill="#f90"/><path d="m441.502 127.534h-228.644c-13.908 0-25.182-11.274-25.182-25.182 0-23.246-18.845-42.09-42.09-42.09h-84c-23.246 0-42.09 18.845-42.09 42.09v248.525c0 28.168 22.835 51.003 51.003 51.003h371.005c28.168 0 51.003-22.835 51.003-51.003v-172.34c-.002-28.168-22.837-51.003-51.005-51.003z" fill="#ffd600"/><path d="m441.502 0h-342.058c-31.843 0-57.808 25.578-58.47 57.266-17.081 7.84-28.979 25.095-28.979 45.086v248.525c0 32.258 26.244 58.502 58.502 58.502h371.005c32.259 0 58.503-26.244 58.503-58.502 0-9.525 0-276.859 0-292.375 0-32.258-26.244-58.502-58.503-58.502zm43.503 350.877c0 23.987-19.516 43.502-43.503 43.502h-371.005c-23.987 0-43.502-19.515-43.502-43.502v-248.525c0-19.247 15.715-34.59 34.59-34.59h84.001c19.073 0 34.59 15.518 34.59 34.591 0 18.017 14.655 32.682 32.683 32.682h228.644c23.987 0 43.503 19.515 43.503 43.502v172.34zm-43.503-230.843h-228.644c-9.75 0-17.683-7.932-17.683-17.682 0-27.344-22.246-49.59-49.59-49.59h-84c-1.797 0-3.869.133-5.302.287 2.691-21.423 21.022-38.049 43.161-38.049h342.058c23.987 0 43.503 19.515 43.503 43.502v80.958c-10.742-11.969-26.506-19.426-43.503-19.426z" fill="#f95116"/><circle cx="326.338" cy="300.505" fill="#f95116" r="14.924"/><g><path d="m287.6 348.229h-63.202c-4.143 0-7.5-3.358-7.5-7.5s3.357-7.5 7.5-7.5h63.202c4.143 0 7.5 3.358 7.5 7.5s-3.357 7.5-7.5 7.5z" fill="#f95116"/></g><circle cx="185.661" cy="300.505" fill="#f95116" r="14.924"/></g></svg>