<svg id="Capa_1" enable-background="new 0 0 511.96 511.96" height="512" viewBox="0 0 511.96 511.96" width="512" xmlns="http://www.w3.org/2000/svg"><g><path d="m283.174 222.043h21.553c.313-2.809.488-5.66.488-8.553v-82.453c0-42.21-34.218-76.428-76.428-76.428h-123.31c-42.21 0-76.428 34.218-76.428 76.428v99.053l-17.303 24.126c-10.704 14.925-.037 35.702 18.33 35.702h177.158c4.254-38.183 36.622-67.875 75.94-67.875z" fill="#88f8d8"/><path d="m283.174 222.043h123.309c42.21 0 76.428 34.218 76.428 76.428v99.053l17.303 24.126c10.704 14.925.037 35.702-18.33 35.702h-198.71c-42.21 0-76.428-34.218-76.428-76.428v-82.453c-.001-42.21 34.217-76.428 76.428-76.428z" fill="#ff63ed"/><circle cx="227.362" cy="150.209" fill="#007ea8" r="12.779"/><g><path d="m194.191 192.152h-54.119c-4.143 0-7.5-3.358-7.5-7.5s3.357-7.5 7.5-7.5h54.119c4.143 0 7.5 3.358 7.5 7.5s-3.357 7.5-7.5 7.5z" fill="#007ea8"/></g><circle cx="106.902" cy="150.209" fill="#007ea8" r="12.779"/><circle cx="284.598" cy="317.643" fill="#e207b9" r="12.779"/><g><path d="m371.888 359.586h-54.119c-4.143 0-7.5-3.358-7.5-7.5s3.357-7.5 7.5-7.5h54.119c4.143 0 7.5 3.358 7.5 7.5s-3.358 7.5-7.5 7.5z" fill="#e207b9"/></g><circle cx="405.058" cy="317.643" fill="#e207b9" r="12.779"/><g><path d="m204.233 297.418h-174.157c-11.321 0-21.566-6.257-26.738-16.328-5.171-10.072-4.284-22.044 2.313-31.244l15.897-22.167v-96.642c0-46.278 37.65-83.928 83.929-83.928h123.309c46.278 0 83.929 37.65 83.929 83.928v82.453c0 1.603-.05 3.24-.147 4.864-.248 4.134-3.802 7.279-7.937 7.036-4.135-.249-7.285-3.802-7.036-7.937.08-1.325.12-2.659.12-3.963v-82.453c0-38.007-30.921-68.928-68.929-68.928h-123.308c-38.008 0-68.929 30.921-68.929 68.928v99.053c0 1.568-.491 3.097-1.405 4.371l-17.303 24.126c-3.355 4.678-3.788 10.53-1.158 15.651 2.629 5.122 7.637 8.179 13.394 8.179h174.157c4.143 0 7.5 3.358 7.5 7.5s-3.358 7.501-7.501 7.501z" fill="#007ea8"/></g><g><path d="m481.884 464.852h-198.71c-46.278 0-83.929-37.65-83.929-83.928v-82.453c0-46.278 37.65-83.928 83.929-83.928h123.309c46.278 0 83.929 37.65 83.929 83.928v96.641l15.897 22.167c6.598 9.2 7.484 21.172 2.313 31.244-5.172 10.072-15.417 16.329-26.738 16.329zm-198.71-235.309c-38.008 0-68.929 30.921-68.929 68.928v82.453c0 38.007 30.921 68.928 68.929 68.928h198.71c5.757 0 10.765-3.058 13.394-8.179 2.63-5.122 2.197-10.973-1.158-15.651l-17.303-24.126c-.914-1.274-1.405-2.803-1.405-4.371v-99.053c0-38.007-30.921-68.928-68.929-68.928h-123.309z" fill="#e207b9"/></g></g></svg>