<svg id="Capa_1" enable-background="new 0 0 512 512" height="512" viewBox="0 0 512 512" width="512" xmlns="http://www.w3.org/2000/svg"><g><path d="m159.09 406.897v47.115h-16.238c-13.4 0-24.264 10.864-24.264 24.264s10.864 24.264 24.264 24.264h40.502c13.401 0 24.264-10.863 24.264-24.264v-71.379z" fill="#ffff6f"/><path d="m272.017 406.897v47.115h-16.238c-13.4 0-24.264 10.864-24.264 24.264s10.864 24.264 24.264 24.264h40.502c13.4 0 24.264-10.863 24.264-24.264v-71.379z" fill="#ffff6f"/><g><path d="m183.354 510.04h-40.503c-17.515 0-31.764-14.249-31.764-31.764s14.249-31.764 31.764-31.764h8.738v-36.615c0-4.142 3.357-7.5 7.5-7.5s7.5 3.358 7.5 7.5v44.115c0 4.142-3.357 7.5-7.5 7.5h-16.238c-9.243 0-16.764 7.52-16.764 16.764s7.521 16.764 16.764 16.764h40.503c9.243 0 16.764-7.52 16.764-16.764v-68.379c0-4.142 3.357-7.5 7.5-7.5s7.5 3.358 7.5 7.5v68.379c0 17.515-14.249 31.764-31.764 31.764z" fill="#f90"/></g><g><path d="m296.281 510.04h-40.502c-17.515 0-31.765-14.249-31.765-31.764s14.25-31.764 31.765-31.764h8.737v-36.615c0-4.142 3.357-7.5 7.5-7.5s7.5 3.358 7.5 7.5v44.115c0 4.142-3.357 7.5-7.5 7.5h-16.237c-9.244 0-16.765 7.52-16.765 16.764s7.521 16.764 16.765 16.764h40.502c9.243 0 16.764-7.52 16.764-16.764v-68.379c0-4.142 3.357-7.5 7.5-7.5s7.5 3.358 7.5 7.5v68.379c0 17.515-14.249 31.764-31.764 31.764z" fill="#f90"/></g><path d="m159.09 406.897h48.528v30.475h-48.528z" fill="#f90"/><path d="m272.017 406.897h48.528v30.475h-48.528z" fill="#f90"/><path d="m445.582 89.711v34.498h-438.082v-34.498c0-44.321 35.931-80.251 80.252-80.251h277.578c44.321 0 80.252 35.93 80.252 80.251z" fill="#ffff6f"/><path d="m445.582 124.209v202.447c0 44.321-35.93 80.241-80.251 80.241h-277.579c-44.321 0-80.251-35.92-80.251-80.241v-202.447h60.95v202.447c0 10.636 8.655 19.291 19.301 19.291h277.578c10.636 0 19.301-8.655 19.301-19.291v-202.447z" fill="#7181ff"/><path d="m504.5 89.711v236.945c0 44.321-35.93 80.241-80.251 80.241h-58.919c44.321 0 80.251-35.92 80.251-80.241v-236.945c0-44.321-35.93-80.251-80.251-80.251h58.919c44.321 0 80.251 35.93 80.251 80.251z" fill="#565eec"/><path d="m384.631 124.209v202.447c0 10.636-8.665 19.291-19.301 19.291h-277.578c-10.646 0-19.301-8.655-19.301-19.291v-202.447z" fill="#a4bcff"/><circle cx="89.054" cy="66.835" fill="#f90" r="20.603"/><circle cx="159.544" cy="66.835" fill="#ff63ed" r="20.603"/><circle cx="230.035" cy="66.835" fill="#88f8d8" r="20.603"/><g fill="#2115c2"><path d="m424.249 1.96h-52.919c-4.143 0-7.5 3.358-7.5 7.5 0 4.143 3.357 7.5 7.5 7.5h52.919c40.115 0 72.751 32.636 72.751 72.752v236.944c0 40.11-32.636 72.741-72.751 72.741h-9.897c.159-.178 38.73-24.233 38.73-72.741v-198.446-2.498c0-4.143-3.357-7.5-7.5-7.5s-7.5 3.357-7.5 7.5v2.498 198.446c0 40.11-32.637 72.741-72.752 72.741h-277.578c-40.115 0-72.752-32.631-72.752-72.741v-198.446c0-4.143-3.357-7.5-7.5-7.5s-7.5 3.357-7.5 7.5v198.446c0 48.381 39.365 87.741 87.752 87.741h336.497c48.386 0 87.751-39.36 87.751-87.741v-236.944c0-48.387-39.365-87.752-87.751-87.752z"/><path d="m87.752 353.447h277.578c14.778 0 26.801-12.019 26.801-26.791v-198.446c0-4.143-3.357-7.5-7.5-7.5s-7.5 3.357-7.5 7.5v198.446c0 6.502-5.294 11.791-11.801 11.791h-277.578c-6.507 0-11.801-5.289-11.801-11.791v-198.446c0-4.143-3.357-7.5-7.5-7.5s-7.5 3.357-7.5 7.5v198.446c0 14.772 12.023 26.791 26.801 26.791z"/></g><g><path d="m445.582 131.709h-438.082c-4.143 0-7.5-3.358-7.5-7.5v-34.498c0-48.386 39.365-87.751 87.752-87.751h277.578c48.387 0 87.752 39.365 87.752 87.751v34.498c0 4.142-3.357 7.5-7.5 7.5zm-430.582-15h423.082v-26.998c0-40.115-32.637-72.751-72.752-72.751h-277.578c-40.115 0-72.752 32.636-72.752 72.751z" fill="#f90"/></g><g><path d="m89.054 94.938c-15.496 0-28.103-12.607-28.103-28.103s12.606-28.103 28.103-28.103 28.104 12.607 28.104 28.103-12.608 28.103-28.104 28.103zm0-41.206c-7.225 0-13.103 5.878-13.103 13.103s5.878 13.103 13.103 13.103c7.226 0 13.104-5.878 13.104-13.103s-5.879-13.103-13.104-13.103z" fill="#f95116"/></g><g><path d="m159.544 94.938c-15.496 0-28.103-12.607-28.103-28.103s12.606-28.103 28.103-28.103 28.104 12.607 28.104 28.103-12.608 28.103-28.104 28.103zm0-41.206c-7.225 0-13.103 5.878-13.103 13.103s5.878 13.103 13.103 13.103c7.226 0 13.104-5.878 13.104-13.103s-5.878-13.103-13.104-13.103z" fill="#e207b9"/></g><g><path d="m230.035 94.938c-15.496 0-28.104-12.607-28.104-28.103s12.607-28.103 28.104-28.103 28.103 12.607 28.103 28.103-12.607 28.103-28.103 28.103zm0-41.206c-7.226 0-13.104 5.878-13.104 13.103s5.878 13.103 13.104 13.103c7.225 0 13.103-5.878 13.103-13.103s-5.878-13.103-13.103-13.103z" fill="#007ea8"/></g><circle cx="289.317" cy="231.533" fill="#2115c2" r="13.319"/><g><path d="m254.744 274.932h-56.406c-4.143 0-7.5-3.358-7.5-7.5s3.357-7.5 7.5-7.5h56.406c4.143 0 7.5 3.358 7.5 7.5s-3.357 7.5-7.5 7.5z" fill="#2115c2"/></g><circle cx="163.765" cy="231.533" fill="#2115c2" r="13.319"/></g></svg>