<svg id="Capa_1" enable-background="new 0 0 512 512" height="512" viewBox="0 0 512 512" width="512" xmlns="http://www.w3.org/2000/svg"><g><path d="m207.418 353.514v40.403h-15.994c-13.199 0-23.899 10.7-23.899 23.899s10.7 23.899 23.899 23.899h39.893c13.199 0 23.899-10.7 23.899-23.899v-64.302z" fill="#b98eff"/><path d="m318.646 353.514v40.403h-15.994c-13.199 0-23.899 10.7-23.899 23.899s10.7 23.899 23.899 23.899h39.893c13.199 0 23.899-10.7 23.899-23.899v-64.302z" fill="#b98eff"/><g><path d="m231.316 449.215h-39.893c-17.313 0-31.398-14.086-31.398-31.399s14.085-31.399 31.398-31.399h8.494v-29.903c0-4.142 3.357-7.5 7.5-7.5s7.5 3.358 7.5 7.5v37.403c0 4.142-3.357 7.5-7.5 7.5h-15.994c-9.042 0-16.398 7.356-16.398 16.399s7.356 16.399 16.398 16.399h39.893c9.043 0 16.399-7.357 16.399-16.399v-61.302c0-4.142 3.357-7.5 7.5-7.5s7.5 3.358 7.5 7.5v61.302c.001 17.314-14.085 31.399-31.399 31.399z" fill="#6d00ca"/></g><g><path d="m342.545 449.215h-39.893c-17.313 0-31.399-14.086-31.399-31.399s14.086-31.399 31.399-31.399h8.493v-29.903c0-4.142 3.357-7.5 7.5-7.5s7.5 3.358 7.5 7.5v37.403c0 4.142-3.357 7.5-7.5 7.5h-15.993c-9.043 0-16.399 7.356-16.399 16.399s7.356 16.399 16.399 16.399h39.893c9.043 0 16.399-7.357 16.399-16.399v-61.302c0-4.142 3.357-7.5 7.5-7.5s7.5 3.358 7.5 7.5v61.302c0 17.314-14.086 31.399-31.399 31.399z" fill="#6d00ca"/></g><path d="m207.418 353.514h47.798v25.014h-47.798z" fill="#6d00ca"/><path d="m318.646 353.514h47.798v25.014h-47.798z" fill="#6d00ca"/><path d="m433.323 70.285h-294.147c-39.31 0-71.177 31.867-71.177 71.177v9.896h-29.418c-17.165 0-31.081 13.915-31.081 31.081v58.922c0 17.165 13.915 31.081 31.081 31.081h29.418v9.896c0 39.31 31.867 71.177 71.177 71.177h294.146c39.31 0 71.177-31.867 71.177-71.177v-140.876c.001-39.31-31.866-71.177-71.176-71.177z" fill="#88f8d8"/><path d="m139.176 308.489c-14.421 0-26.152-11.732-26.152-26.152v-140.875c0-14.42 11.732-26.152 26.152-26.152h34.001c14.42 0 26.152 11.732 26.152 26.152v140.875c0 14.42-11.732 26.152-26.152 26.152z" fill="#ffceff"/><path d="m269.249 308.489c-14.421 0-26.152-11.732-26.152-26.152v-140.875c0-14.42 11.732-26.152 26.152-26.152h34.001c14.42 0 26.152 11.732 26.152 26.152v140.875c0 14.42-11.732 26.152-26.152 26.152z" fill="#ff9bff"/><path d="m399.321 308.489c-14.421 0-26.152-11.732-26.152-26.152v-140.875c0-14.42 11.732-26.152 26.152-26.152h34.001c14.42 0 26.152 11.732 26.152 26.152v140.875c0 14.42-11.732 26.152-26.152 26.152z" fill="#ff63ed"/><g><path d="m173.178 315.989h-34.001c-18.556 0-33.652-15.096-33.652-33.652v-140.875c0-18.556 15.097-33.652 33.652-33.652h34.001c18.556 0 33.652 15.096 33.652 33.652v140.875c0 18.555-15.097 33.652-33.652 33.652zm-34.001-193.179c-10.285 0-18.652 8.367-18.652 18.652v140.875c0 10.285 8.367 18.652 18.652 18.652h34.001c10.285 0 18.652-8.367 18.652-18.652v-140.875c0-10.285-8.367-18.652-18.652-18.652z" fill="#e207b9"/></g><g><path d="m303.25 315.989h-34.001c-18.556 0-33.652-15.096-33.652-33.652v-140.875c0-18.556 15.097-33.652 33.652-33.652h34.001c18.556 0 33.652 15.096 33.652 33.652v140.875c0 18.555-15.096 33.652-33.652 33.652zm-34.001-193.179c-10.285 0-18.652 8.367-18.652 18.652v140.875c0 10.285 8.367 18.652 18.652 18.652h34.001c10.285 0 18.652-8.367 18.652-18.652v-140.875c0-10.285-8.367-18.652-18.652-18.652z" fill="#e207b9"/></g><g><path d="m433.323 315.989h-34.002c-18.556 0-33.652-15.096-33.652-33.652v-140.875c0-18.556 15.097-33.652 33.652-33.652h34.002c18.556 0 33.652 15.096 33.652 33.652v140.875c.001 18.555-15.096 33.652-33.652 33.652zm-34.002-193.179c-10.285 0-18.652 8.367-18.652 18.652v140.875c0 10.285 8.367 18.652 18.652 18.652h34.002c10.285 0 18.652-8.367 18.652-18.652v-140.875c0-10.285-8.367-18.652-18.652-18.652z" fill="#e207b9"/></g><g><path d="m433.323 361.015h-294.146c-43.383 0-78.678-35.295-78.678-78.677v-2.396h-21.918c-21.273 0-38.581-17.308-38.581-38.581v-58.922c0-21.274 17.308-38.581 38.581-38.581h21.918v-2.396c0-43.383 35.295-78.677 78.678-78.677h294.146c43.383 0 78.677 35.295 78.677 78.677v140.875c0 43.383-35.294 78.678-78.677 78.678zm-394.742-202.157c-13.003 0-23.581 10.578-23.581 23.58v58.922c0 13.002 10.578 23.581 23.581 23.581h29.418c4.143 0 7.5 3.358 7.5 7.5v9.896c0 35.112 28.565 63.677 63.678 63.677h294.146c35.111 0 63.677-28.566 63.677-63.677v-140.875c0-35.112-28.565-63.677-63.677-63.677h-294.146c-35.112 0-63.678 28.566-63.678 63.677v9.896c0 4.142-3.357 7.5-7.5 7.5z" fill="#007ea8"/></g></g></svg>