<svg id="Capa_1" enable-background="new 0 0 512 512" height="512" viewBox="0 0 512 512" width="512" xmlns="http://www.w3.org/2000/svg"><g><path d="m216.553 163.425 25.299-14.483c15.635-8.957 21.037-28.892 12.067-44.514l-46.299-80.592c-8.957-15.586-28.842-20.975-44.44-12.042-8.202 4.708-17.097 9.8-25.051 14.359l-.148.471z" fill="#ffff6f"/><path d="m436.511 422.385-46.274-80.555c-8.957-15.598-28.867-20.987-44.477-12.017-8.177 4.708-17.035 9.788-24.989 14.347l-.099.545 78.486 136.641c8.053-4.596 17.023-9.725 25.287-14.458 15.634-8.946 21.035-28.881 12.066-44.503z" fill="#ffff6f"/><path d="m399.157 481.345c-13.616 7.78-24.605 14.037-25.113 14.297-147.964 76.751-404.569-370.908-260.334-455.502.149-.087 10.927-6.257 24.419-13.987l-.149.471 78.572 136.802-23.973 13.727c-43.821 26.389 58.527 205.797 103.45 181.155.384-.186 11.249-6.405 24.741-14.148l-.099.545z" fill="#b98eff"/><g><path d="m337.425 512c-28.861 0-60.855-13.353-94.456-39.724-43.103-33.83-85.654-86.535-119.815-148.406-32.545-58.945-53.247-118.998-58.293-169.096-5.892-58.484 9.689-100.36 45.056-121.102.063-.038 1.824-1.046 4.782-2.74l18.958-10.859c3.594-2.059 8.176-.816 10.236 2.778 2.058 3.594.814 8.177-2.779 10.236l-18.96 10.86c-2.816 1.613-4.528 2.593-4.684 2.683-37.786 22.162-41.353 70.226-37.684 106.64 4.847 48.126 24.914 106.138 56.501 163.349 32.73 59.279 74.99 111.713 115.944 143.857 31.462 24.693 77.533 49.685 118.362 28.508.747-.406 10.503-5.956 24.845-14.151 3.592-2.055 8.176-.807 10.232 2.79 2.056 3.596.806 8.177-2.791 10.232-4.066 2.324-24.405 13.943-25.413 14.46-12.473 6.47-25.879 9.685-40.041 9.685z" fill="#6d00ca"/></g><g><path d="m286.797 368.119c-9.214.001-21.375-4.344-36.758-18.161-15.185-13.639-31.169-34.403-45.007-58.467-14.019-24.378-24.087-49.063-28.352-69.507-6.741-32.316 2.822-45.711 12.031-51.256.047-.028.095-.056.143-.083l23.973-13.727c3.594-2.057 8.176-.813 10.235 2.782 2.057 3.594.812 8.177-2.782 10.235l-23.891 13.68c-4.133 2.53-10.204 10.476-5.025 35.308 3.892 18.66 13.613 42.385 26.671 65.092 26.604 46.262 59.286 76.006 74.388 67.718.044-.024.087-.047.131-.07.817-.449 7.681-4.364 24.484-14.008 3.593-2.06 8.175-.821 10.238 2.771 2.061 3.592.821 8.176-2.771 10.238-19.984 11.469-23.914 13.697-24.868 14.218l.001.002c-3.373 1.848-7.639 3.234-12.841 3.235z" fill="#6d00ca"/></g><g><path d="m216.56 170.926c-2.598 0-5.124-1.351-6.51-3.766l-78.573-136.801c-1.044-1.818-1.279-3.99-.649-5.99l.148-.471c.566-1.797 1.789-3.315 3.424-4.252l7.752-4.442c5.74-3.289 11.68-6.692 17.295-9.915 19.153-10.969 43.678-4.324 54.675 14.81l46.299 80.593c5.338 9.297 6.732 20.112 3.928 30.455-2.804 10.344-9.469 18.975-18.77 24.303l-25.3 14.484c-1.175.672-2.456.992-3.719.992zm-68.504-141.817 71.27 124.088 18.799-10.762c5.821-3.335 9.994-8.737 11.748-15.211 1.755-6.473.882-13.243-2.458-19.061l-46.298-80.59c-6.881-11.974-22.23-16.132-34.21-9.27-5.612 3.221-11.556 6.627-17.3 9.917z" fill="#f95116"/></g><g><path d="m399.164 488.846c-2.598 0-5.124-1.351-6.51-3.765l-78.486-136.641c-.881-1.534-1.191-3.33-.876-5.071l.099-.545c.394-2.178 1.73-4.07 3.65-5.171 7.951-4.557 16.804-9.634 24.977-14.34 9.291-5.339 20.095-6.739 30.433-3.945 10.332 2.794 18.959 9.444 24.29 18.727l46.273 80.554c.001 0 .001.001.001.001 5.339 9.298 6.733 20.115 3.926 30.46-2.806 10.34-9.472 18.965-18.771 24.286-8.265 4.733-17.237 9.864-25.293 14.462-1.175.67-2.452.988-3.713.988zm-68.462-141.736 71.232 124.013c6.211-3.548 12.689-7.254 18.782-10.744 5.821-3.33 9.993-8.727 11.747-15.196 1.757-6.474.885-13.245-2.457-19.064l-46.273-80.554c-3.337-5.809-8.734-9.97-15.198-11.718-6.469-1.749-13.229-.872-19.04 2.467-6.101 3.514-12.587 7.237-18.793 10.796z" fill="#f95116"/></g></g></svg>