<svg id="Capa_1" enable-background="new 0 0 512 512" height="512" viewBox="0 0 512 512" width="512" xmlns="http://www.w3.org/2000/svg"><g><path d="m504.5 91.88v321.19l-109.44-116.82c-18.6-19.85-50.1-19.85-68.7 0l-19.79 21.13-104.09-111.11c-18.6-19.85-50.1-19.85-68.7 0l-126.28 134.8v-249.19c0-46.6 37.78-84.38 84.38-84.38h328.24c46.6 0 84.38 37.78 84.38 84.38z" fill="#88f8d8"/><path d="m306.57 317.38-175.3 187.12h-39.39c-46.6 0-84.38-37.78-84.38-84.38v-79.05l126.28-134.8c18.6-19.85 50.1-19.85 68.7 0z" fill="#f90"/><path d="m395.06 296.25c-18.6-19.85-50.1-19.85-68.7 0l-195.09 208.25h288.85c17.76 0 34.24-5.48 47.83-14.86 22.08-15.22 36.55-40.68 36.55-69.52v-7.05z" fill="#ffd600"/><circle cx="360.951" cy="139.733" fill="#7181ff" r="51.65"/><g><path d="m504.5 417.57c-4.143 0-7.5-3.358-7.5-7.5v-318.19c0-42.392-34.488-76.88-76.88-76.88h-328.24c-42.392 0-76.88 34.488-76.88 76.88v246.19c0 4.142-3.357 7.5-7.5 7.5s-7.5-3.358-7.5-7.5v-246.19c0-50.663 41.217-91.88 91.88-91.88h328.24c50.663 0 91.88 41.217 91.88 91.88v318.19c0 4.142-3.357 7.5-7.5 7.5z" fill="#007ea8"/></g><circle cx="414.375" cy="397.723" fill="#f95116" r="11.387"/><g><path d="m384.819 435.913h-48.223c-4.143 0-7.5-3.358-7.5-7.5s3.357-7.5 7.5-7.5h48.223c4.143 0 7.5 3.358 7.5 7.5s-3.357 7.5-7.5 7.5z" fill="#f95116"/></g><circle cx="307.041" cy="397.723" fill="#f95116" r="11.387"/><circle cx="221.798" cy="307.746" fill="#f95116" r="11.387"/><g><path d="m192.242 345.936h-48.222c-4.143 0-7.5-3.358-7.5-7.5s3.357-7.5 7.5-7.5h48.223c4.143 0 7.5 3.358 7.5 7.5s-3.358 7.5-7.501 7.5z" fill="#f95116"/></g><circle cx="114.464" cy="307.746" fill="#f95116" r="11.387"/><path d="m509.974 407.942-109.439-116.82-.001-.001c-21.457-22.897-57.934-23.17-79.646.001l-14.319 15.285-98.615-105.265c-21.458-22.899-57.934-23.171-79.646 0l-126.28 134.8c-1.303 1.391-2.028 3.224-2.028 5.128v79.05c0 50.663 41.217 91.88 91.88 91.88h328.24c51.119 0 91.88-41.564 91.88-91.88v-7.05c0-1.904-.725-3.738-2.026-5.128zm-494.974 12.178v-76.086l124.253-132.636c15.565-16.61 42.016-16.795 57.754 0l99.284 105.98-168.271 179.622h-36.14c-42.392 0-76.88-34.488-76.88-76.88zm482 0c0 42.109-34.101 76.88-76.88 76.88h-271.546c5.482-5.852 174.37-186.134 183.259-195.622 15.598-16.647 42.047-16.763 57.754-.001l107.413 114.657z" fill="#f95116"/><g><path d="m360.95 198.883c-32.615 0-59.149-26.534-59.149-59.15s26.534-59.15 59.149-59.15 59.15 26.534 59.15 59.15-26.535 59.15-59.15 59.15zm0-103.3c-24.344 0-44.149 19.805-44.149 44.15s19.806 44.15 44.149 44.15c24.345 0 44.15-19.805 44.15-44.15s-19.805-44.15-44.15-44.15z" fill="#2115c2"/></g></g></svg>