<svg id="Capa_1" enable-background="new 0 0 512 512" height="512" viewBox="0 0 512 512" width="512" xmlns="http://www.w3.org/2000/svg"><g><path d="m355.691 7.5h-210.449c-29.693 0-54.764 19.739-62.839 46.807h9.161c13.687 0 24.782 11.095 24.782 24.782s-11.095 24.782-24.782 24.782h-11.903v36.676h11.903c13.687 0 24.782 11.095 24.782 24.782s-11.095 24.782-24.782 24.782h-11.903v36.676h11.903c13.687 0 24.782 11.095 24.782 24.782s-11.095 24.782-24.782 24.782h-11.903v36.676h11.903c13.687 0 24.782 11.095 24.782 24.782s-11.095 24.782-24.782 24.782h-9.161c8.076 27.068 33.146 46.807 62.839 46.807h210.449c36.219 0 65.581-29.362 65.581-65.581v-270.736c-.001-36.219-29.362-65.581-65.581-65.581z" fill="#ff63ed"/><path d="m446.243 73.081h-24.972v90.246h24.972c12.581 0 22.78-10.199 22.78-22.78v-44.686c0-12.581-10.199-22.78-22.78-22.78z" fill="#ffceff"/><path d="m446.243 163.327h-24.972v90.246h24.972c12.581 0 22.78-10.199 22.78-22.78v-44.686c0-12.581-10.199-22.78-22.78-22.78z" fill="#ff9bff"/><path d="m446.243 253.572h-24.972v90.246h24.972c12.581 0 22.78-10.199 22.78-22.78v-44.686c0-12.581-10.199-22.78-22.78-22.78z" fill="#ff63ed"/><path d="m307.898 103.871h-114.864c-18.269 0-33.08 14.81-33.08 33.08v38.419c0 18.269 14.81 33.08 33.08 33.08h114.864c18.269 0 33.08-14.81 33.08-33.08v-38.419c0-18.27-14.81-33.08-33.08-33.08z" fill="#ffd600"/><path d="m176.225 409.399v47.355h-15.976c-13.185 0-23.873 10.688-23.873 23.873 0 13.184 10.688 23.873 23.873 23.873h39.849c13.185 0 23.873-10.688 23.873-23.873v-71.228z" fill="#88f8d8"/><path d="m287.332 409.399v47.355h-15.976c-13.185 0-23.873 10.688-23.873 23.873 0 13.184 10.688 23.873 23.873 23.873h39.849c13.185 0 23.873-10.688 23.873-23.873v-71.228z" fill="#88f8d8"/><g><path d="m307.898 215.949h-114.864c-22.376 0-40.58-18.204-40.58-40.58v-38.419c0-22.376 18.204-40.58 40.58-40.58h114.864c22.375 0 40.579 18.204 40.579 40.58v38.419c.001 22.377-18.204 40.58-40.579 40.58zm-114.864-104.578c-14.104 0-25.58 11.475-25.58 25.58v38.419c0 14.105 11.476 25.58 25.58 25.58h114.864c14.104 0 25.579-11.475 25.579-25.58v-38.419c0-14.105-11.475-25.58-25.579-25.58z" fill="#f95116"/></g><circle cx="309.062" cy="279.564" fill="#e207b9" r="12.433"/><g><path d="m276.792 320.573h-52.651c-4.143 0-7.5-3.358-7.5-7.5s3.357-7.5 7.5-7.5h52.651c4.143 0 7.5 3.358 7.5 7.5s-3.357 7.5-7.5 7.5z" fill="#e207b9"/></g><circle cx="191.87" cy="279.564" fill="#e207b9" r="12.433"/><g><path d="m200.098 512h-39.85c-17.299 0-31.372-14.074-31.372-31.373s14.073-31.373 31.372-31.373h8.477v-36.855c0-4.142 3.357-7.5 7.5-7.5s7.5 3.358 7.5 7.5v44.355c0 4.142-3.357 7.5-7.5 7.5h-15.977c-9.027 0-16.372 7.345-16.372 16.373s7.345 16.373 16.372 16.373h39.85c9.028 0 16.373-7.345 16.373-16.373v-68.228c0-4.142 3.357-7.5 7.5-7.5s7.5 3.358 7.5 7.5v68.228c0 17.299-14.075 31.373-31.373 31.373z" fill="#007ea8"/></g><g><path d="m311.205 512h-39.85c-17.299 0-31.373-14.074-31.373-31.373s14.074-31.373 31.373-31.373h8.477v-36.855c0-4.142 3.357-7.5 7.5-7.5s7.5 3.358 7.5 7.5v44.355c0 4.142-3.357 7.5-7.5 7.5h-15.977c-9.028 0-16.373 7.345-16.373 16.373s7.345 16.373 16.373 16.373h39.85c9.028 0 16.373-7.345 16.373-16.373v-68.228c0-4.142 3.357-7.5 7.5-7.5s7.5 3.358 7.5 7.5v68.228c0 17.299-14.074 31.373-31.373 31.373z" fill="#007ea8"/></g><path d="m176.225 409.399h47.746v29.984h-47.746z" fill="#007ea8"/><path d="m287.332 409.399h47.746v29.984h-47.746z" fill="#007ea8"/><path d="m476.523 140.547v-44.686c0-16.697-13.584-30.28-30.28-30.28h-17.854c-3.768-36.787-34.933-65.581-72.699-65.581h-210.448c-31.878 0-59.841 20.385-69.581 50.726-1.267 3.944.904 8.168 4.848 9.434 3.947 1.266 8.167-.904 9.434-4.849 7.741-24.111 29.963-40.311 55.299-40.311h210.448c32.026 0 58.081 26.055 58.081 58.081v270.737c0 32.026-26.055 58.081-58.081 58.081h-210.448c-25.506 0-47.773-16.341-55.411-40.662-1.24-3.951-5.444-6.15-9.402-4.908-3.952 1.241-6.149 5.451-4.908 9.403 9.61 30.605 37.63 51.167 69.722 51.167h210.447c37.765 0 68.931-28.794 72.698-65.581h17.854c16.696 0 30.28-13.583 30.28-30.28v-44.686c0-9.076-4.019-17.226-10.365-22.78 6.346-5.555 10.365-13.704 10.365-22.78v-44.686c0-9.076-4.019-17.225-10.365-22.78 6.347-5.554 10.366-13.703 10.366-22.779zm-15 180.491c0 8.425-6.854 15.28-15.28 15.28h-17.472v-75.246h17.472c8.426 0 15.28 6.854 15.28 15.28zm0-90.246c0 8.426-6.854 15.28-15.28 15.28h-17.472v-75.246h17.472c8.426 0 15.28 6.854 15.28 15.28zm0-90.245c0 8.425-6.854 15.28-15.28 15.28h-17.472v-75.246h17.472c8.426 0 15.28 6.854 15.28 15.28z" fill="#e207b9"/><g><path d="m79.661 317.528c-4.143 0-7.5-3.358-7.5-7.5v-30.676c0-4.142 3.357-7.5 7.5-7.5s7.5 3.358 7.5 7.5v30.676c0 4.142-3.357 7.5-7.5 7.5z" fill="#e207b9"/></g><g><path d="m79.661 231.288c-4.143 0-7.5-3.358-7.5-7.5v-30.676c0-4.142 3.357-7.5 7.5-7.5s7.5 3.358 7.5 7.5v30.676c0 4.142-3.357 7.5-7.5 7.5z" fill="#e207b9"/></g><g><path d="m79.661 145.047c-4.143 0-7.5-3.358-7.5-7.5v-30.676c0-4.142 3.357-7.5 7.5-7.5s7.5 3.358 7.5 7.5v30.676c0 4.142-3.357 7.5-7.5 7.5z" fill="#e207b9"/></g><g fill="#ffd600"><path d="m91.564 54.307h-23.806c-13.687 0-24.782 11.095-24.782 24.782s11.095 24.782 24.782 24.782h23.805c13.687 0 24.782-11.095 24.782-24.782s-11.095-24.782-24.781-24.782z"/><path d="m91.564 140.547h-23.806c-13.687 0-24.782 11.095-24.782 24.782s11.095 24.782 24.782 24.782h23.805c13.687 0 24.782-11.095 24.782-24.782.001-13.686-11.095-24.782-24.781-24.782z"/><path d="m91.564 226.788h-23.806c-13.687 0-24.782 11.095-24.782 24.782s11.095 24.782 24.782 24.782h23.805c13.687 0 24.782-11.095 24.782-24.782s-11.095-24.782-24.781-24.782z"/><path d="m91.564 313.028h-23.806c-13.687 0-24.782 11.095-24.782 24.782s11.095 24.782 24.782 24.782h23.805c13.687 0 24.782-11.095 24.782-24.782s-11.095-24.782-24.781-24.782z"/></g><g><path d="m91.563 111.371h-23.805c-17.8 0-32.281-14.482-32.281-32.282s14.481-32.282 32.281-32.282h23.806c17.801 0 32.282 14.481 32.282 32.282s-14.482 32.282-32.283 32.282zm-23.805-49.564c-9.529 0-17.281 7.753-17.281 17.282s7.752 17.282 17.281 17.282h23.806c9.529 0 17.282-7.753 17.282-17.282s-7.753-17.282-17.282-17.282z" fill="#f95116"/></g><g><path d="m91.563 197.611h-23.805c-17.8 0-32.281-14.482-32.281-32.282s14.481-32.282 32.281-32.282h23.806c17.801 0 32.282 14.482 32.282 32.282s-14.482 32.282-32.283 32.282zm-23.805-49.564c-9.529 0-17.281 7.753-17.281 17.282s7.752 17.282 17.281 17.282h23.806c9.529 0 17.282-7.753 17.282-17.282s-7.753-17.282-17.282-17.282z" fill="#f95116"/></g><g><path d="m91.563 283.852h-23.805c-17.8 0-32.281-14.482-32.281-32.282s14.481-32.282 32.281-32.282h23.806c17.801 0 32.282 14.482 32.282 32.282s-14.482 32.282-32.283 32.282zm-23.805-49.564c-9.529 0-17.281 7.753-17.281 17.282s7.752 17.282 17.281 17.282h23.806c9.529 0 17.282-7.753 17.282-17.282s-7.753-17.282-17.282-17.282z" fill="#f95116"/></g><g><path d="m91.563 370.092h-23.805c-17.8 0-32.281-14.482-32.281-32.282s14.481-32.282 32.281-32.282h23.806c17.801 0 32.282 14.482 32.282 32.282s-14.482 32.282-32.283 32.282zm-23.805-49.564c-9.529 0-17.281 7.753-17.281 17.282s7.752 17.282 17.281 17.282h23.806c9.529 0 17.282-7.753 17.282-17.282s-7.753-17.282-17.282-17.282z" fill="#f95116"/></g></g></svg>