<svg id="Capa_1" enable-background="new 0 0 512 512" height="512" viewBox="0 0 512 512" width="512" xmlns="http://www.w3.org/2000/svg"><g><path d="m156.381 422.421v34.35h-15.971c-13.18 0-23.864 10.685-23.864 23.864 0 13.18 10.685 23.864 23.864 23.864h39.835c13.18 0 23.864-10.685 23.864-23.864v-58.214z" fill="#ffff6f"/><path d="m267.448 422.421v34.35h-15.971c-13.18 0-23.864 10.685-23.864 23.864 0 13.18 10.685 23.864 23.864 23.864h39.835c13.18 0 23.864-10.685 23.864-23.864v-58.214z" fill="#ffff6f"/><g><path d="m180.245 512h-39.835c-17.294 0-31.364-14.07-31.364-31.364s14.07-31.365 31.364-31.365h8.471v-23.85c0-4.142 3.357-7.5 7.5-7.5s7.5 3.358 7.5 7.5v31.35c0 4.142-3.357 7.5-7.5 7.5h-15.971c-9.023 0-16.364 7.341-16.364 16.365 0 9.023 7.341 16.364 16.364 16.364h39.835c9.023 0 16.365-7.341 16.365-16.364v-55.214c0-4.142 3.357-7.5 7.5-7.5s7.5 3.358 7.5 7.5v55.214c0 17.294-14.071 31.364-31.365 31.364z" fill="#f90"/></g><g><path d="m291.312 512h-39.835c-17.294 0-31.364-14.07-31.364-31.364s14.07-31.365 31.364-31.365h8.471v-23.85c0-4.142 3.357-7.5 7.5-7.5s7.5 3.358 7.5 7.5v31.35c0 4.142-3.357 7.5-7.5 7.5h-15.971c-9.023 0-16.364 7.341-16.364 16.365 0 9.023 7.341 16.364 16.364 16.364h39.835c9.023 0 16.365-7.341 16.365-16.364v-55.214c0-4.142 3.357-7.5 7.5-7.5s7.5 3.358 7.5 7.5v55.214c0 17.294-14.07 31.364-31.365 31.364z" fill="#f90"/></g><path d="m156.381 422.421h47.729v24.977h-47.729z" fill="#f90"/><path d="m267.448 422.421h47.729v24.977h-47.729z" fill="#f90"/><path d="m394.117 81.304v267.312c0 40.764-33.041 73.804-73.804 73.804h-188.573c-40.764 0-73.804-33.041-73.804-73.804v-267.312c0-40.764 33.041-73.804 73.804-73.804h188.572c40.765 0 73.805 33.04 73.805 73.804z" fill="#b98eff"/><path d="m131.74 152.66c-13.15 0-23.849-10.698-23.849-23.849v-47.507c0-13.15 10.699-23.848 23.849-23.848h188.572c13.15 0 23.849 10.699 23.849 23.848v47.508c0 13.15-10.698 23.849-23.849 23.849h-188.572z" fill="#ffff6f"/><path d="m454.064 81.304v267.312c0 40.764-33.041 73.804-73.804 73.804h-59.947c40.764 0 73.804-33.041 73.804-73.804v-267.312c0-40.764-33.041-73.804-73.804-73.804h59.947c40.763 0 73.804 33.04 73.804 73.804z" fill="#9448f5"/><path d="m181.035 187.238h-51.114c-12.167 0-22.03 9.863-22.03 22.03v33.812c0 12.167 9.863 22.03 22.03 22.03h51.114c12.167 0 22.03-9.863 22.03-22.03v-33.812c0-12.167-9.863-22.03-22.03-22.03z" fill="#ff9bff"/><path d="m271.018 187.238h51.114c12.167 0 22.03 9.863 22.03 22.03v33.812c0 12.167-9.863 22.03-22.03 22.03h-51.114c-12.167 0-22.03-9.863-22.03-22.03v-33.812c0-12.167 9.863-22.03 22.03-22.03z" fill="#88f8d8"/><path d="m271.018 304.324h51.114c12.167 0 22.03 9.863 22.03 22.03v33.812c0 12.167-9.863 22.03-22.03 22.03h-51.114c-12.167 0-22.03-9.863-22.03-22.03v-33.812c0-12.167 9.863-22.03 22.03-22.03z" fill="#a4bcff"/><circle cx="277.134" cy="95.867" fill="#f90" r="10.844"/><g><path d="m248.988 132.593h-45.923c-4.143 0-7.5-3.358-7.5-7.5s3.357-7.5 7.5-7.5h45.923c4.143 0 7.5 3.358 7.5 7.5s-3.358 7.5-7.5 7.5z" fill="#f90"/></g><circle cx="174.919" cy="95.867" fill="#f90" r="10.844"/><g><path d="m320.313 160.16h-188.572c-17.286 0-31.349-14.063-31.349-31.349v-47.507c0-17.286 14.063-31.348 31.349-31.348h188.572c17.286 0 31.349 14.063 31.349 31.348v47.508c-.001 17.285-14.063 31.348-31.349 31.348zm-188.572-95.204c-9.015 0-16.349 7.334-16.349 16.348v47.508c0 9.015 7.334 16.349 16.349 16.349h188.572c9.015 0 16.349-7.334 16.349-16.349v-47.508c0-9.015-7.334-16.348-16.349-16.348z" fill="#f90"/></g><path d="m380.259 0c-6.611 0-241.73 0-248.519 0-44.831 0-81.304 36.473-81.304 81.304v267.313c0 44.831 36.473 81.304 81.305 81.304h248.519c44.832 0 81.305-36.473 81.305-81.304v-267.313c-.001-44.831-36.474-81.304-81.306-81.304zm-314.823 348.617v-267.313c0-36.56 29.744-66.304 66.305-66.304h188.572c36.561 0 66.305 29.744 66.305 66.304v267.313c0 36.56-29.744 66.304-66.305 66.304h-188.572c-36.561 0-66.305-29.744-66.305-66.304zm381.128 0c0 36.56-29.744 66.304-66.305 66.304h-12.939c21.488-15.269 34.298-39.932 34.298-66.304v-267.313c0-27.242-13.56-51.568-34.298-66.304h12.939c36.561 0 66.305 29.744 66.305 66.304z" fill="#6d00ca"/><g><path d="m181.036 272.609h-51.114c-16.282 0-29.529-13.247-29.529-29.53v-33.812c0-16.283 13.247-29.53 29.529-29.53h51.114c16.282 0 29.529 13.247 29.529 29.53v33.812c0 16.283-13.247 29.53-29.529 29.53zm-51.115-77.871c-8.012 0-14.529 6.518-14.529 14.53v33.812c0 8.012 6.518 14.53 14.529 14.53h51.114c8.012 0 14.529-6.518 14.529-14.53v-33.812c0-8.012-6.518-14.53-14.529-14.53z" fill="#e207b9"/></g><path d="m181.035 304.324h-51.114c-12.167 0-22.03 9.863-22.03 22.03v33.812c0 12.167 9.863 22.03 22.03 22.03h51.114c12.167 0 22.03-9.863 22.03-22.03v-33.812c0-12.167-9.863-22.03-22.03-22.03z" fill="#f90"/><g><path d="m181.036 389.695h-51.114c-16.282 0-29.529-13.247-29.529-29.53v-33.812c0-16.283 13.247-29.53 29.529-29.53h51.114c16.282 0 29.529 13.247 29.529 29.53v33.812c0 16.283-13.247 29.53-29.529 29.53zm-51.115-77.871c-8.012 0-14.529 6.518-14.529 14.53v33.812c0 8.012 6.518 14.53 14.529 14.53h51.114c8.012 0 14.529-6.518 14.529-14.53v-33.812c0-8.012-6.518-14.53-14.529-14.53z" fill="#f95116"/></g><g><path d="m322.132 272.609h-51.114c-16.283 0-29.53-13.247-29.53-29.53v-33.812c0-16.283 13.247-29.53 29.53-29.53h51.114c16.282 0 29.529 13.247 29.529 29.53v33.812c0 16.283-13.247 29.53-29.529 29.53zm-51.114-77.871c-8.012 0-14.53 6.518-14.53 14.53v33.812c0 8.012 6.519 14.53 14.53 14.53h51.114c8.012 0 14.529-6.518 14.529-14.53v-33.812c0-8.012-6.518-14.53-14.529-14.53z" fill="#007ea8"/></g><g><path d="m322.132 389.695h-51.114c-16.283 0-29.53-13.247-29.53-29.53v-33.812c0-16.283 13.247-29.53 29.53-29.53h51.114c16.282 0 29.529 13.247 29.529 29.53v33.812c0 16.283-13.247 29.53-29.529 29.53zm-51.114-77.871c-8.012 0-14.53 6.518-14.53 14.53v33.812c0 8.012 6.519 14.53 14.53 14.53h51.114c8.012 0 14.529-6.518 14.529-14.53v-33.812c0-8.012-6.518-14.53-14.529-14.53z" fill="#2115c2"/></g><g><path d="m155.478 246.227c-4.143 0-7.5-3.358-7.5-7.5v-25.107c0-4.142 3.357-7.5 7.5-7.5s7.5 3.358 7.5 7.5v25.106c0 4.143-3.358 7.501-7.5 7.501z" fill="#e207b9"/></g><g><path d="m168.032 233.673h-25.106c-4.143 0-7.5-3.358-7.5-7.5s3.357-7.5 7.5-7.5h25.106c4.143 0 7.5 3.358 7.5 7.5s-3.358 7.5-7.5 7.5z" fill="#e207b9"/></g><g><path d="m168.032 350.76h-25.106c-4.143 0-7.5-3.358-7.5-7.5s3.357-7.5 7.5-7.5h25.106c4.143 0 7.5 3.358 7.5 7.5s-3.358 7.5-7.5 7.5z" fill="#f95116"/></g><g><path d="m305.452 242.55c-1.919 0-3.839-.732-5.304-2.197l-17.753-17.753c-2.929-2.929-2.929-7.678 0-10.607 2.93-2.929 7.678-2.929 10.607 0l17.753 17.753c2.929 2.929 2.929 7.677 0 10.606-1.465 1.466-3.385 2.198-5.303 2.198z" fill="#007ea8"/></g><g><path d="m287.699 242.55c-1.92 0-3.839-.732-5.304-2.197-2.929-2.929-2.929-7.678 0-10.606l17.753-17.753c2.931-2.929 7.679-2.928 10.607 0 2.929 2.929 2.929 7.678 0 10.607l-17.753 17.753c-1.465 1.463-3.384 2.196-5.303 2.196z" fill="#007ea8"/></g><g><g><path d="m309.128 338.206h-25.106c-4.143 0-7.5-3.358-7.5-7.5s3.357-7.5 7.5-7.5h25.106c4.143 0 7.5 3.358 7.5 7.5s-3.357 7.5-7.5 7.5z" fill="#2115c2"/></g><g><path d="m309.128 363.313h-25.106c-4.143 0-7.5-3.358-7.5-7.5s3.357-7.5 7.5-7.5h25.106c4.143 0 7.5 3.358 7.5 7.5s-3.357 7.5-7.5 7.5z" fill="#2115c2"/></g></g></g></svg>