<svg id="Capa_1" enable-background="new 0 0 512 512" height="512" viewBox="0 0 512 512" width="512" xmlns="http://www.w3.org/2000/svg"><g><path d="m239.308 342.886-56.756 54.539v50.319h-18.991c-15.672 0-28.378 12.705-28.378 28.378 0 15.672 12.705 28.378 28.378 28.378h47.369c10.96 0 20.462-6.217 25.189-15.314-2.033-3.911-3.188-8.352-3.188-13.064 0-6.796 2.392-13.033 6.377-17.919z" fill="#88f8d8"/><path d="m280.3 350.198v97.546h-18.991c-15.673 0-28.378 12.705-28.378 28.378 0 15.672 12.705 28.378 28.378 28.378h47.369c15.672 0 28.378-12.705 28.378-28.378v-71.385z" fill="#88f8d8"/><path d="m376.745 7.5h-241.491c-29.286 0-53.027 23.741-53.027 53.027v332.545c0 23.702 19.214 42.917 42.917 42.917 11.086 0 21.743-4.29 29.736-11.972l91.85-88.263c5.178-4.976 13.361-4.976 18.539 0l91.85 88.263c7.994 7.682 18.65 11.972 29.736 11.972 23.702 0 42.917-19.215 42.917-42.917v-332.545c0-29.286-23.741-53.027-53.027-53.027z" fill="#ff63ed"/><circle cx="315.433" cy="118.002" fill="#e207b9" r="12.61"/><g><path d="m282.701 159.489h-53.403c-4.143 0-7.5-3.358-7.5-7.5s3.357-7.5 7.5-7.5h53.403c4.143 0 7.5 3.358 7.5 7.5s-3.357 7.5-7.5 7.5z" fill="#e207b9"/></g><circle cx="196.567" cy="118.002" fill="#e207b9" r="12.61"/><g fill="#007ea8"><path d="m337.056 400.237c-4.143 0-7.5 3.358-7.5 7.5v68.385c0 11.512-9.366 20.878-20.878 20.878h-47.368c-11.551 0-20.878-9.422-20.878-20.878 0-11.34 9.209-20.878 20.878-20.878h18.991c4.143 0 7.5-3.358 7.5-7.5v-94.546c0-4.142-3.357-7.5-7.5-7.5s-7.5 3.358-7.5 7.5v87.046h-11.491c-5.159 0-10.063 1.103-14.501 3.073v-97.43c0-4.142-3.357-7.5-7.5-7.5s-7.5 3.358-7.5 7.5v109.822c-4.28 6.196-6.377 13.402-6.377 20.414 0 4.339.833 8.692 2.24 12.473-3.905 5.253-10.061 8.405-16.74 8.405h-47.369c-11.512 0-20.878-9.366-20.878-20.878s9.366-20.878 20.878-20.878h18.991c4.143 0 7.5-3.358 7.5-7.5v-47.319c0-4.142-3.357-7.5-7.5-7.5s-7.5 3.358-7.5 7.5v39.819h-11.491c-19.783 0-35.878 16.095-35.878 35.878s16.093 35.877 35.877 35.877h47.369c9.618 0 18.59-3.815 25.196-10.354 6.482 6.397 15.378 10.354 25.183 10.354h47.368c19.783 0 35.878-16.095 35.878-35.878v-68.385c0-4.142-3.358-7.5-7.5-7.5z"/><path d="m280.3 350.198v43.532s56.191 43.489 56.756 44v-32.994z"/><path d="m182.553 397.425v43.534l56.755-54.539v-43.534z"/></g><g><path d="m386.855 443.488c-13.089 0-25.495-4.995-34.933-14.063l-91.85-88.263c-2.286-2.195-5.862-2.194-8.146 0l-91.851 88.263c-9.437 9.069-21.843 14.064-34.933 14.064-27.8 0-50.416-22.617-50.416-50.417v-332.545c.002-33.375 27.154-60.527 60.528-60.527h241.491c33.375 0 60.527 27.152 60.527 60.527v332.545c0 27.8-22.617 50.416-50.417 50.416zm-130.855-118.988c5.205 0 10.409 1.949 14.466 5.846l91.85 88.263c6.631 6.371 15.346 9.879 24.54 9.879 19.529 0 35.417-15.888 35.417-35.417v-332.544c0-25.104-20.424-45.527-45.527-45.527h-241.492c-25.104 0-45.526 20.423-45.526 45.527v332.545c0 19.529 15.888 35.417 35.416 35.417 9.195 0 17.91-3.509 24.539-9.879l91.852-88.263c4.055-3.898 9.26-5.847 14.465-5.847z" fill="#e207b9"/></g></g></svg>