<svg id="Capa_1" enable-background="new 0 0 512 512" height="512" viewBox="0 0 512 512" width="512" xmlns="http://www.w3.org/2000/svg"><g><path d="m504.5 240.638v167.7c0 38.04-30.837 68.877-68.877 68.877h-57.372c38.04 0 68.877-30.837 68.877-68.877v-167.7c0-38.04-30.837-68.877-68.877-68.877h57.372c38.039 0 68.877 30.837 68.877 68.877z" fill="#9448f5"/><path d="m122.935 248.398-55.504-19.92c-29.187-10.474-59.931 11.157-59.931 42.166v107.691c0 31.009 30.744 52.639 59.93 42.165l55.504-19.92v-152.182z" fill="#ff63ed"/><path d="m447.128 240.638v167.7c0 38.04-30.837 68.877-68.877 68.877h-186.439c-38.04 0-68.877-30.837-68.877-68.877v-167.7c0-38.04 30.837-68.877 68.877-68.877h186.438c38.04 0 68.878 30.837 68.878 68.877z" fill="#b98eff"/><path d="m348.521 253.723h-126.983c-23.406 0-42.381 18.974-42.381 42.381v56.772c0 23.406 18.974 42.381 42.381 42.381h126.983c23.406 0 42.381-18.974 42.381-42.381v-56.772c-.001-23.407-18.975-42.381-42.381-42.381z" fill="#88f8d8"/><path d="m289.273 103.273c0 37.825-30.674 68.488-68.498 68.488s-68.488-30.663-68.488-68.488 30.663-68.488 68.488-68.488 68.498 30.663 68.498 68.488z" fill="#ddbeff"/><path d="m244.187 103.273c0 12.926-10.482 23.405-23.408 23.405s-23.405-10.479-23.405-23.405 10.479-23.405 23.405-23.405c12.925 0 23.408 10.479 23.408 23.405z" fill="#ff63ed"/><path d="m470.907 110.731c0 33.706-27.323 61.029-61.04 61.029h-30.735c33.716 0 61.04-27.323 61.04-61.029 0-33.716-27.323-61.04-61.04-61.04h30.735c33.716.001 61.04 27.324 61.04 61.04z" fill="#b98eff"/><path d="m318.103 110.731c0-8.097 1.59-15.818 4.452-22.888-7.001-30.39-34.205-53.058-66.721-53.058h-35.058c37.824 0 68.498 30.663 68.498 68.488s-30.674 68.488-68.498 68.488h35.058c29.608 0 54.824-18.79 64.384-45.094-1.371-5.082-2.115-10.421-2.115-15.936z" fill="#b98eff"/><path d="m440.172 110.731c0 33.706-27.323 61.029-61.04 61.029-33.706 0-61.029-27.323-61.029-61.029 0-33.716 27.323-61.04 61.029-61.04 33.716.001 61.04 27.324 61.04 61.04z" fill="#ddbeff"/><path d="m398.72 110.728c0 10.814-8.766 19.581-19.584 19.581-10.814 0-19.581-8.767-19.581-19.581 0-10.818 8.767-19.584 19.581-19.584 10.817 0 19.584 8.766 19.584 19.584z" fill="#ff63ed"/><circle cx="340.011" cy="314.601" fill="#007ea8" r="11.666"/><g><path d="m309.731 353.543h-49.404c-4.143 0-7.5-3.358-7.5-7.5s3.357-7.5 7.5-7.5h49.404c4.143 0 7.5 3.358 7.5 7.5s-3.357 7.5-7.5 7.5z" fill="#007ea8"/></g><circle cx="230.048" cy="314.601" fill="#007ea8" r="11.666"/><g><path d="m0 378.335v-107.691c0-36.183 35.791-61.488 69.964-49.224l54.321 19.495c3.898 1.399 5.925 5.694 4.526 9.592-1.4 3.9-5.697 5.923-9.593 4.526l-54.321-19.495c-24.336-8.733-49.897 9.257-49.897 35.106v107.691c0 25.856 25.569 43.837 49.897 35.106l54.516-19.565c3.899-1.398 8.193.627 9.593 4.526 1.398 3.898-.628 8.193-4.526 9.592l-54.516 19.565c-34.133 12.249-69.964-12.997-69.964-49.224z" fill="#e207b9"/></g><g><path d="m348.521 402.757h-126.983c-27.504 0-49.881-22.376-49.881-49.881v-56.772c0-27.504 22.377-49.88 49.881-49.88h126.982c27.504 0 49.881 22.376 49.881 49.88v56.772c0 27.504-22.377 49.881-49.88 49.881zm-126.983-141.534c-19.233 0-34.881 15.647-34.881 34.88v56.772c0 19.233 15.647 34.881 34.881 34.881h126.982c19.233 0 34.881-15.647 34.881-34.881v-56.772c0-19.233-15.647-34.88-34.881-34.88z" fill="#007ea8"/></g><g><path d="m220.778 134.177c-17.041 0-30.904-13.864-30.904-30.905s13.863-30.904 30.904-30.904c17.043 0 30.908 13.864 30.908 30.904.001 17.042-13.865 30.905-30.908 30.905zm0-46.809c-8.77 0-15.904 7.135-15.904 15.904 0 8.77 7.135 15.905 15.904 15.905 8.771 0 15.908-7.135 15.908-15.905.001-8.769-7.136-15.904-15.908-15.904z" fill="#e207b9"/></g><path d="m450.669 165.757c16.818-12.5 27.737-32.51 27.737-55.025 0-37.793-30.746-68.54-68.539-68.54h-30.735c-22.527 0-42.545 10.931-55.044 27.764-4.876-9.957-11.904-18.85-20.618-25.876-13.433-10.83-30.351-16.794-47.637-16.794h-35.058c-41.9 0-75.988 34.088-75.988 75.988 0 25.799 12.935 48.622 32.648 62.364-35.262 6.747-62 37.802-62 75.001v167.7c0 42.114 34.263 76.377 76.377 76.377h186.438 57.372c42.114 0 76.377-34.263 76.377-76.377v-167.7c.001-36.966-26.397-67.874-61.33-74.882zm-114.253-1.497h-35.345c7.239-5.364 13.539-12.003 18.522-19.663 4.325 7.575 10.048 14.246 16.823 19.663zm87.795-105.117c22.58 6.285 39.195 27.033 39.195 51.588 0 24.549-16.614 45.292-39.191 51.578 14.413-12.6 23.457-31.254 23.457-51.578 0-20.005-8.83-38.798-23.461-51.588zm-45.079-1.951c29.522 0 53.54 24.018 53.54 53.54 0 29.516-24.018 53.529-53.54 53.529-29.497 0-53.529-24.013-53.529-53.529 0-29.236 23.773-53.54 53.529-53.54zm-111.623-13.804c22.652 4.342 41.072 21.136 47.198 43.974-2.673 7.357-4.104 15.444-4.104 23.369 0 5.201.654 10.656 1.766 15.457-7.785 19.192-24.848 32.989-44.806 36.927 18.035-14.124 29.211-35.926 29.211-59.842-.001-23.981-11.254-45.8-29.265-59.885zm-107.722 59.885c0-33.629 27.359-60.988 60.988-60.988 33.635 0 60.998 27.359 60.998 60.988s-27.363 60.988-60.998 60.988c-33.629-.001-60.988-27.359-60.988-60.988zm-29.351 305.065v-167.7c0-33.844 27.533-61.377 61.377-61.377h64.021 122.418c33.844 0 61.377 27.534 61.377 61.377v167.7c0 33.843-27.533 61.377-61.377 61.377h-186.439c-33.844 0-61.377-27.534-61.377-61.377zm366.564 0c0 33.843-27.533 61.377-61.377 61.377h-11.963c19.829-14.784 30.968-37.503 30.968-61.377v-167.7c0-24.125-11.537-47.016-30.968-61.377h11.963c33.844 0 61.377 27.534 61.377 61.377z" fill="#6d00ca"/><g><path d="m379.136 137.809c-14.933 0-27.081-12.148-27.081-27.081 0-14.934 12.148-27.084 27.081-27.084 14.935 0 27.084 12.15 27.084 27.084 0 14.932-12.15 27.081-27.084 27.081zm0-39.165c-6.661 0-12.081 5.421-12.081 12.084 0 6.662 5.42 12.081 12.081 12.081 6.663 0 12.084-5.419 12.084-12.081 0-6.663-5.421-12.084-12.084-12.084z" fill="#e207b9"/></g></g></svg>