<svg id="Capa_1" enable-background="new 0 0 512.017 512.017" height="512" viewBox="0 0 512.017 512.017" width="512" xmlns="http://www.w3.org/2000/svg"><g><path d="m239.032 397.221c-19.531-1.774-38.236-6.5-55.666-13.73v65.36h-18.626c-15.371 0-27.833 12.461-27.833 27.833s12.462 27.833 27.833 27.833h46.46c10.749 0 20.069-6.098 24.706-15.02-1.994-3.836-3.127-8.191-3.127-12.813 0-6.666 2.346-12.783 6.254-17.575v-61.888z" fill="#ffd600"/><path d="m279.237 396.671v52.179h-18.626c-15.372 0-27.833 12.461-27.833 27.833s12.461 27.833 27.833 27.833h46.459c15.372 0 27.833-12.461 27.833-27.833v-95.45c-17.349 7.806-36.058 13.106-55.666 15.438z" fill="#ffd600"/><g fill="#f95116"><path d="m334.903 376.734c-4.143 0-7.5 3.358-7.5 7.5v92.45c0 11.211-9.121 20.333-20.333 20.333h-46.459c-11.226 0-20.333-9.149-20.333-20.333 0-11.182 9.096-20.333 20.333-20.333h18.626c4.143 0 7.5-3.358 7.5-7.5v-49.179c0-4.142-3.357-7.5-7.5-7.5s-7.5 3.358-7.5 7.5v41.679h-11.126c-5.002 0-9.762 1.051-14.079 2.935v-44.064c0-4.142-3.357-7.5-7.5-7.5s-7.5 3.358-7.5 7.5v56.396c-4.06 5.881-6.254 12.944-6.254 20.067 0 4.244.815 8.525 2.177 12.211-3.806 5.078-9.778 8.122-16.256 8.122h-46.46c-11.212 0-20.333-9.121-20.333-20.333s9.121-20.333 20.333-20.333h18.627c4.143 0 7.5-3.358 7.5-7.5v-62.36c0-4.142-3.357-7.5-7.5-7.5s-7.5 3.358-7.5 7.5v54.86h-11.127c-19.482 0-35.333 15.851-35.333 35.333s15.851 35.333 35.333 35.333h46.46c9.424 0 18.219-3.719 24.715-10.098 6.375 6.24 15.092 10.098 24.697 10.098h46.459c19.482 0 35.333-15.85 35.333-35.333v-92.45c0-4.143-3.357-7.501-7.5-7.501z"/><path d="m239.032 397.221c-19.531-1.774-38.236-6.5-55.666-13.73v32.954c17.663 6.169 36.323 10.179 55.666 11.687z"/><path d="m334.903 381.234c-17.349 7.805-36.059 13.105-55.666 15.437v30.959c19.145-1.964 37.838-6.39 55.666-13.116z"/></g><path d="m430.278 206.118h-37.652c-8.625 0-15.986 6.378-17.053 14.937-7.566 60.707-60.631 107.489-123.888 105.039-62.315-2.413-112.817-52.915-115.231-115.23-2.648-68.358 52.195-124.814 119.976-124.814 17.043 0 33.4 3.466 48.717 10.293l-18.408 24.817c-6.833 9.212.883 22.086 12.228 20.404l71.93-10.665c19.458-2.885 32.892-20.997 30.007-40.455l-10.665-71.93c-1.682-11.345-16.241-14.993-23.074-5.781l-18.355 24.746-5.597-2.558c-26.68-13.546-56.688-20.707-86.783-20.707-105.978 0-192.167 86.351-191.903 192.39.262 105.215 86.199 191.155 191.415 191.418 99.653.249 181.92-75.857 191.468-172.986.994-10.13-6.953-18.918-17.132-18.918z" fill="#88f8d8"/><g><path d="m256.426 405.522c-.171 0-.333 0-.503 0-109.399-.274-198.624-89.5-198.896-198.899-.133-53.28 20.568-103.448 58.29-141.264 37.723-37.818 87.838-58.645 141.113-58.645 31.192 0 62.3 7.405 89.975 21.417l14.736-19.866c5.003-6.745 13.173-9.666 21.315-7.625 8.146 2.041 13.97 8.469 15.201 16.775l10.665 71.93c3.486 23.517-12.809 45.486-36.326 48.973l-71.931 10.665c-8.29 1.229-16.146-2.477-20.463-9.68-4.316-7.203-3.891-15.867 1.112-22.611l12.593-16.977c-11.777-4.094-24.143-6.165-36.878-6.165-30.845 0-59.646 12.281-81.099 34.581-21.434 22.28-32.579 51.559-31.383 82.443 2.26 58.317 49.711 105.768 108.027 108.026 28.463 1.092 56.05-8.499 77.654-27.034 21.371-18.336 35.045-43.707 38.501-71.439 1.527-12.262 12.059-21.509 24.495-21.509h37.652c6.958 0 13.629 2.957 18.303 8.113 4.681 5.162 6.974 12.102 6.292 19.039-4.821 49.048-27.679 94.444-64.36 127.824-36.809 33.495-84.415 51.928-134.085 51.928zm.004-383.808c-49.261 0-95.604 19.262-130.493 54.238-34.887 34.974-54.032 81.367-53.91 130.633.252 101.17 82.764 183.684 183.934 183.937h.465c45.932 0 89.948-17.044 123.992-48.023 33.93-30.875 55.07-72.852 59.528-118.197.272-2.772-.607-5.434-2.477-7.497-1.864-2.056-4.417-3.188-7.19-3.188h-37.652c-4.885 0-9.017 3.596-9.61 8.364-3.919 31.442-19.409 60.198-43.618 80.968-24.484 21.007-55.742 31.886-88.002 30.638-66.095-2.559-119.875-56.339-122.436-122.434-1.356-34.998 11.273-68.176 35.562-93.423 24.307-25.267 56.947-39.182 91.908-39.182 18.062 0 35.479 3.682 51.771 10.942 2.078.926 3.623 2.746 4.2 4.947.578 2.201.125 4.544-1.23 6.372l-18.408 24.817c-1.931 2.603-.848 5.038-.293 5.963.555.926 2.186 3.032 5.397 2.553l71.931-10.665c15.335-2.273 25.961-16.6 23.688-31.935l-10.665-71.93c-.475-3.206-2.962-4.162-4.009-4.424-1.048-.264-3.692-.592-5.623 2.011l-18.355 24.746c-2.109 2.845-5.919 3.825-9.142 2.353l-5.597-2.558c-.093-.043-.186-.087-.277-.134-25.635-13.013-54.469-19.892-83.389-19.892z" fill="#007ea8"/></g></g></svg>