<svg id="Capa_1" enable-background="new 0 0 512 512" height="512" viewBox="0 0 512 512" width="512" xmlns="http://www.w3.org/2000/svg"><g><path d="m208.922 405.253c-19.241-1.726-37.699-6.172-54.973-12.977v57.251h-18.395c-15.18 0-27.487 12.306-27.487 27.487 0 15.18 12.306 27.487 27.487 27.487h45.882c10.616 0 19.819-6.022 24.398-14.833-1.969-3.789-3.088-8.089-3.088-12.654 0-6.583 2.317-12.624 6.176-17.356z" fill="#a4bcff"/><path d="m285.042 406.074h-36.415v43.453h-18.395c-15.18 0-27.487 12.306-27.487 27.487 0 15.18 12.306 27.487 27.487 27.487h45.881c15.18 0 27.487-12.306 27.487-27.487v-71.807c-6.111.564-12.299.867-18.558.867z" fill="#a4bcff"/><g fill="#2115c2"><path d="m303.601 398.706c-4.143 0-7.5 3.358-7.5 7.5v70.808c0 11.021-8.966 19.986-19.987 19.986h-45.881c-11.007 0-19.986-8.961-19.986-19.986 0-10.993 8.941-19.987 19.986-19.987h18.395c4.143 0 7.5-3.358 7.5-7.5v-42.453c0-4.142-3.357-7.5-7.5-7.5s-7.5 3.358-7.5 7.5v34.953h-10.895c-4.903 0-9.571 1.018-13.811 2.847v-36.62c0-4.142-3.357-7.5-7.5-7.5s-7.5 3.358-7.5 7.5v48.915c-4.146 6.001-6.176 13.09-6.176 19.846 0 4.158.794 8.397 2.137 12.044-3.742 4.966-9.598 7.942-15.948 7.942h-45.882c-11.021 0-19.986-8.966-19.986-19.986 0-11.021 8.966-19.987 19.986-19.987h18.395c4.143 0 7.5-3.358 7.5-7.5v-54.25c0-4.142-3.357-7.5-7.5-7.5s-7.5 3.358-7.5 7.5v46.75h-10.895c-19.292 0-34.986 15.695-34.986 34.987s15.694 34.986 34.986 34.986h45.882c9.301 0 17.982-3.657 24.409-9.935 6.307 6.141 14.91 9.935 24.388 9.935h45.881c19.292 0 34.987-15.695 34.987-34.986v-70.808c.001-4.143-3.357-7.501-7.499-7.501z"/><path d="m153.949 424.682c17.65 5.895 36.081 9.637 54.973 11.095v-30.523c-19.241-1.726-37.699-6.172-54.973-12.977z"/><path d="m248.627 406.074v32.39c18.919-1.76 37.352-5.815 54.973-12.036v-21.221c-6.112.565-12.299.867-18.558.867z"/></g><path d="m426.24 206.782c0 110.063-89.228 199.292-199.292 199.292-110.054 0-199.282-89.228-199.282-199.292 0-110.053 89.229-199.282 199.282-199.282 110.064 0 199.292 89.229 199.292 199.282z" fill="#ff9bff"/><path d="m261.766 206.787 71.66-71.659c9.613-9.613 9.613-25.199 0-34.813-9.612-9.612-25.199-9.612-34.813 0l-71.66 71.659-71.66-71.659c-9.614-9.613-25.199-9.613-34.813 0-9.613 9.613-9.613 25.199 0 34.813l71.66 71.659-71.66 71.659c-9.613 9.613-9.613 25.199 0 34.813 9.612 9.612 25.198 9.614 34.813 0l71.66-71.659 71.66 71.659c9.612 9.612 25.199 9.614 34.813 0 9.613-9.614 9.613-25.2 0-34.813z" fill="#ffceff"/><path d="m484.334 206.782c0 110.063-89.228 199.292-199.292 199.292h-58.094c110.063 0 199.292-89.228 199.292-199.292 0-110.053-89.228-199.282-199.292-199.282h58.094c110.063 0 199.292 89.229 199.292 199.282z" fill="#ff63ed"/><g><path d="m316.02 327.954c-8.225 0-16.448-3.131-22.71-9.392l-66.356-66.356-66.355 66.356c-12.523 12.521-32.897 12.521-45.419 0-6.066-6.066-9.407-14.131-9.407-22.71s3.341-16.644 9.407-22.709l66.355-66.356-66.356-66.356c-6.065-6.065-9.406-14.13-9.406-22.709s3.341-16.644 9.406-22.709c12.521-12.52 32.897-12.521 45.419 0l66.356 66.357 66.356-66.356c12.523-12.522 32.898-12.521 45.42 0 12.521 12.522 12.521 32.897 0 45.419l-66.357 66.356 66.357 66.356c12.521 12.521 12.521 32.896 0 45.418-6.262 6.26-14.487 9.391-22.71 9.391zm-89.067-93.854c1.989 0 3.896.79 5.304 2.197l71.66 71.66c6.674 6.674 17.532 6.673 24.206 0 6.672-6.674 6.673-17.533-.001-24.206l-71.66-71.66c-1.406-1.406-2.196-3.314-2.196-5.303s.79-3.897 2.196-5.303l71.66-71.66c6.674-6.673 6.674-17.532 0-24.206-6.672-6.673-17.53-6.674-24.206 0l-71.659 71.659c-1.407 1.407-3.314 2.197-5.304 2.197-1.989 0-3.896-.79-5.304-2.197l-71.659-71.66c-6.672-6.671-17.53-6.672-24.206 0-3.232 3.232-5.013 7.531-5.013 12.103s1.78 8.87 5.013 12.103l71.66 71.66c2.929 2.929 2.929 7.678 0 10.606l-71.659 71.66c-3.233 3.233-5.014 7.531-5.014 12.103s1.78 8.871 5.014 12.104c6.673 6.674 17.531 6.673 24.206 0l71.658-71.66c1.408-1.407 3.315-2.197 5.304-2.197z" fill="#e207b9"/></g><path d="m285.042 0h-58.094c-114.02 0-206.782 92.762-206.782 206.782 0 114.025 92.762 206.792 206.782 206.792h58.094c114.025 0 206.792-92.766 206.792-206.792 0-114.02-92.767-206.782-206.792-206.782zm-249.876 206.782c0-105.749 86.033-191.782 191.782-191.782 105.755 0 191.792 86.033 191.792 191.782 0 105.754-86.037 191.792-191.792 191.792-105.749 0-191.782-86.037-191.782-191.792zm272.246 190.495c75.01-31.809 126.328-105.814 126.328-190.495 0-82.38-49.386-157.857-126.326-190.485 95.256 11.113 169.42 92.301 169.42 190.485 0 98.19-74.167 179.382-169.422 190.495z" fill="#e207b9"/></g></svg>