<svg id="Capa_1" enable-background="new 0 0 512 512" height="512" viewBox="0 0 512 512" width="512" xmlns="http://www.w3.org/2000/svg"><g><path d="m389.881 120.565c-14.675-60.323-69.043-105.109-133.881-105.109s-119.207 44.786-133.882 105.109c-62.957-1.509-114.618 49.071-114.618 111.852 0 61.793 50.093 111.886 111.887 111.886h37.486c.537-.863 1.118-1.716 1.779-2.543l77.697-97.341c10.066-12.611 29.237-12.611 39.303 0l77.697 97.341c.661.828 1.242 1.68 1.779 2.543h37.486c61.793 0 111.887-50.093 111.887-111.886-.001-62.714-51.595-113.362-114.62-111.852z" fill="#a4bcff"/><path d="m353.348 341.76-77.697-97.341c-10.066-12.611-29.236-12.611-39.303 0l-77.697 97.341c-13.144 16.468-1.419 40.829 19.651 40.829h34.433v91.702c0 12.29 9.963 22.253 22.253 22.253h42.022c12.29 0 22.253-9.963 22.253-22.253v-91.702h34.433c21.071 0 32.797-24.362 19.652-40.829z" fill="#88f8d8"/><circle cx="318.71" cy="149.047" fill="#2115c2" r="13.306"/><g><path d="m284.174 192.408h-56.349c-4.143 0-7.5-3.358-7.5-7.5s3.357-7.5 7.5-7.5h56.349c4.143 0 7.5 3.358 7.5 7.5s-3.358 7.5-7.5 7.5z" fill="#2115c2"/></g><circle cx="193.289" cy="149.047" fill="#2115c2" r="13.306"/><g><path d="m392.613 351.803h-35.486c-4.143 0-7.5-3.358-7.5-7.5s3.357-7.5 7.5-7.5h35.486c57.559 0 104.387-46.828 104.387-104.386 0-28.356-11.176-54.884-31.47-74.698-20.285-19.805-47.098-30.348-75.47-29.656-3.494.082-6.633-2.298-7.467-5.725-6.779-27.865-22.942-53.108-45.514-71.081-23.251-18.515-51.288-28.301-81.079-28.301s-57.828 9.786-81.08 28.301c-22.571 17.973-38.735 43.216-45.515 71.081-.833 3.427-3.945 5.803-7.467 5.725-28.338-.68-55.187 9.855-75.477 29.665-20.288 19.807-31.461 46.333-31.461 74.689 0 57.559 46.828 104.386 104.387 104.386h35.486c4.143 0 7.5 3.358 7.5 7.5s-3.357 7.5-7.5 7.5h-35.486c-65.83 0-119.387-53.557-119.387-119.386 0-32.431 12.779-62.768 35.982-85.422 21.784-21.268 50.129-33.188 80.368-33.926 8.295-28.804 25.617-54.748 49.226-73.546 25.935-20.652 57.203-31.567 90.424-31.567s64.488 10.916 90.424 31.566c23.607 18.798 40.93 44.741 49.225 73.546 30.24.737 58.582 12.655 80.36 33.918 23.209 22.66 35.991 53 35.991 85.431 0 65.829-53.557 119.386-119.387 119.386z" fill="#2115c2"/></g><g><path d="m277.011 504.044h-42.021c-16.406 0-29.754-13.347-29.754-29.753v-84.202h-26.933c-12.655 0-23.926-7.084-29.414-18.487s-3.993-24.631 3.901-34.521l77.697-97.341c6.228-7.804 15.526-12.28 25.512-12.28s19.285 4.476 25.514 12.28l77.697 97.341c7.895 9.891 9.39 23.119 3.901 34.521s-16.76 18.486-29.414 18.486h-26.934v84.202c.001 16.407-13.346 29.754-29.752 29.754zm-21.012-261.584c-5.396 0-10.422 2.419-13.788 6.637l-77.698 97.341c-4.331 5.427-5.119 12.402-2.108 18.658 3.012 6.257 8.955 9.992 15.898 9.992h34.433c4.143 0 7.5 3.358 7.5 7.5v91.702c0 8.135 6.618 14.753 14.754 14.753h42.021c8.135 0 14.753-6.618 14.753-14.753v-91.702c0-4.142 3.357-7.5 7.5-7.5h34.434c6.943 0 12.887-3.735 15.897-9.992 3.012-6.257 2.224-13.232-2.107-18.659l-77.697-97.341c-3.368-4.217-8.395-6.636-13.792-6.636z" fill="#007ea8"/></g></g></svg>