<svg id="Capa_1" enable-background="new 0 0 512 512" height="512" viewBox="0 0 512 512" width="512" xmlns="http://www.w3.org/2000/svg"><g><path d="m418.178 130.057c-3.103 0-6.164.172-9.182.491-3.243-38.023-35.113-67.878-73.975-67.878-12.101 0-23.515 2.913-33.61 8.047-17.021-36.005-53.666-60.917-96.134-60.917-58.697 0-106.281 47.584-106.281 106.281 0 4.821.327 9.565.949 14.216-2.025-.142-4.062-.24-6.123-.24-47.674 0-86.322 38.648-86.322 86.322s38.648 86.322 86.322 86.322h118.296v-43.269c0-12.466 10.105-22.571 22.571-22.571h42.622c12.466 0 22.571 10.105 22.571 22.571v43.269h118.296c47.674 0 86.322-38.648 86.322-86.322s-38.648-86.322-86.322-86.322z" fill="#ff9bff"/><path d="m157.261 393.856 78.807 98.731c10.21 12.791 29.654 12.791 39.864 0l78.807-98.731c13.332-16.703 1.439-41.412-19.932-41.412h-34.925v-93.012c0-12.466-10.105-22.571-22.571-22.571h-42.622c-12.466 0-22.571 10.105-22.571 22.571v93.012h-34.925c-21.371 0-33.264 24.709-19.932 41.412z" fill="#ffff6f"/><circle cx="312.618" cy="146.753" fill="#e207b9" r="12.013"/><g><path d="m281.437 186.63h-50.873c-4.143 0-7.5-3.358-7.5-7.5s3.357-7.5 7.5-7.5h50.873c4.143 0 7.5 3.358 7.5 7.5s-3.358 7.5-7.5 7.5z" fill="#e207b9"/></g><circle cx="199.382" cy="146.753" fill="#e207b9" r="12.013"/><g><path d="m418.178 310.201h-115.296c-4.143 0-7.5-3.358-7.5-7.5s3.357-7.5 7.5-7.5h115.296c43.463 0 78.822-35.359 78.822-78.822 0-46.441-40.299-83.342-87.215-78.373-4.214.441-7.908-2.667-8.262-6.821-2.922-34.243-31.63-61.015-66.503-61.015-10.611 0-20.775 2.433-30.211 7.231-3.763 1.914-8.373.343-10.18-3.48-16.259-34.396-51.332-56.621-89.353-56.621-59.383 0-105.853 52.395-97.898 112.005.629 4.703-3.222 8.807-7.959 8.474-2.151-.151-3.93-.221-5.597-.221-43.463 0-78.822 35.359-78.822 78.821s35.359 78.822 78.822 78.822h115.296c4.143 0 7.5 3.358 7.5 7.5s-3.357 7.5-7.5 7.5h-115.296c-51.733 0-93.822-42.088-93.822-93.822 0-51.017 40.935-92.654 91.683-93.798-3.727-65.231 48.339-120.281 113.593-120.281 42.336 0 79.916 23.246 99.546 58.644 9.591-3.834 19.717-5.773 30.198-5.773 40.159 0 73.688 28.992 80.491 67.426 52.722-1.527 96.488 41 96.488 93.783.001 51.733-42.088 93.821-93.821 93.821z" fill="#e207b9"/></g><g><path d="m230.206 497.265-78.806-98.73c-17.227-21.583-1.899-53.591 25.793-53.591h27.425v-85.512c0-16.581 13.49-30.071 30.071-30.071h42.621c16.581 0 30.071 13.49 30.071 30.071v85.512h27.425c27.617 0 43.065 31.952 25.793 53.591l-78.807 98.731c-13.598 17.039-38.725 16.114-51.586-.001zm-53.013-137.321c-15.108 0-23.51 17.407-14.07 29.233l78.807 98.731c7.216 9.039 20.939 9.022 28.141 0l78.807-98.731c9.426-11.808 1.061-29.233-14.07-29.233h-34.925c-4.143 0-7.5-3.358-7.5-7.5v-93.012c0-8.31-6.761-15.071-15.071-15.071h-42.621c-8.311 0-15.071 6.761-15.071 15.071v93.012c0 4.142-3.357 7.5-7.5 7.5z" fill="#f95116"/></g></g></svg>