<svg id="Capa_1" enable-background="new 0 0 512 512" height="512" viewBox="0 0 512 512" width="512" xmlns="http://www.w3.org/2000/svg"><g><g fill="#ffd600"><path d="m459.486 413.104h-406.972c-15.138 0-27.41 12.272-27.41 27.41v36.577c0 15.138 12.272 27.41 27.41 27.41h406.971c15.138 0 27.41-12.272 27.41-27.41v-36.577c.001-15.138-12.271-27.41-27.409-27.41z"/><path d="m425.574 413.105h-339.148l20.094-70.93h298.961z"/><path d="m388.281 281.425h-264.561l37.416-132.066h189.729z"/><path d="m333.665 88.619h-155.329l14.357-50.683c5.105-18.005 21.54-30.436 40.258-30.436h46.097c18.718 0 35.154 12.431 40.259 30.436z"/></g><path d="m405.481 342.175h-298.961l17.2-60.75h264.561z" fill="#f90"/><path d="m350.865 149.359h-189.729l17.2-60.74h155.329z" fill="#f90"/><path d="m459.486 405.604h-28.242l-104.721-369.714c-5.991-21.131-25.513-35.89-47.474-35.89h-46.098c-21.96 0-41.482 14.758-47.475 35.892l-104.72 369.712h-28.241c-19.249 0-34.91 15.66-34.91 34.91v36.577c0 19.249 15.661 34.91 34.91 34.91h406.972c19.249 0 34.909-15.661 34.909-34.91v-36.577c0-19.25-15.661-34.91-34.91-34.91zm-330.095-116.679h253.219l12.953 45.75h-279.126zm54.616-192.806h143.987l12.951 45.74h-169.89zm15.901-56.137c4.171-14.709 17.759-24.982 33.043-24.982h46.098c15.285 0 28.873 10.273 33.043 24.98l11.653 41.139h-135.489zm-33.102 116.877h178.389l33.166 117.066h-244.721zm-54.616 192.816h287.62l15.845 55.929h-319.309zm367.206 127.415c0 10.978-8.932 19.91-19.909 19.91h-406.972c-10.979 0-19.91-8.932-19.91-19.91v-36.577c0-10.978 8.932-19.91 19.91-19.91h406.972c10.978 0 19.909 8.932 19.909 19.91z" fill="#f95116"/><circle cx="310.684" cy="203.868" fill="#f95116" r="11.603"/><g><path d="m280.568 242.639h-49.137c-4.143 0-7.5-3.358-7.5-7.5s3.357-7.5 7.5-7.5h49.137c4.143 0 7.5 3.358 7.5 7.5s-3.357 7.5-7.5 7.5z" fill="#f95116"/></g><circle cx="201.316" cy="203.868" fill="#f95116" r="11.603"/></g></svg>