<svg id="Capa_1" enable-background="new 0 0 512 512" height="512" viewBox="0 0 512 512" width="512" xmlns="http://www.w3.org/2000/svg"><g><path d="m406.437 36.801h-216.224c7.303 10.723 11.577 23.674 11.577 37.626s-4.274 26.903-11.577 37.626h216.224c20.78 0 37.626-16.846 37.626-37.626 0-20.781-16.846-37.626-37.626-37.626z" fill="#ff63ed"/><circle cx="134.864" cy="74.427" fill="#ff9bff" r="66.926"/><path d="m406.437 218.374h-216.224c7.303 10.723 11.577 23.674 11.577 37.626s-4.274 26.903-11.577 37.626h216.224c20.78 0 37.626-16.846 37.626-37.626 0-20.78-16.846-37.626-37.626-37.626z" fill="#ffd600"/><circle cx="134.864" cy="256" fill="#ffff6f" r="66.926"/><path d="m406.437 399.948h-216.224c7.303 10.723 11.577 23.674 11.577 37.626s-4.274 26.903-11.577 37.626h216.224c20.78 0 37.626-16.846 37.626-37.626 0-20.781-16.846-37.626-37.626-37.626z" fill="#7181ff"/><circle cx="134.864" cy="437.574" fill="#a4bcff" r="66.926"/><path d="m406.437 29.301h-212.442c-13.613-17.794-35.049-29.301-59.131-29.301-41.039 0-74.427 33.388-74.427 74.427s33.388 74.426 74.427 74.426c24.082 0 45.518-11.507 59.13-29.301h212.442c24.883 0 45.126-20.244 45.126-45.126s-20.243-45.125-45.125-45.125zm-271.573 104.552c-32.768 0-59.427-26.659-59.427-59.426 0-32.768 26.66-59.427 59.427-59.427 32.728 0 59.426 26.613 59.426 59.427v.002c0 32.708-26.604 59.424-59.426 59.424zm271.573-29.301h-203.5c4.039-9.102 6.353-19.595 6.353-30.125 0-.008 0-.015 0-.023-.004-10.68-2.385-21.159-6.352-30.102h203.499c16.611 0 30.126 13.515 30.126 30.126s-13.515 30.124-30.126 30.124z" fill="#e207b9"/><path d="m406.437 210.874h-212.443c-13.612-17.794-35.048-29.3-59.13-29.3-41.039 0-74.427 33.388-74.427 74.426 0 41.039 33.388 74.427 74.427 74.427 24.082 0 45.518-11.507 59.13-29.301h212.442c24.883 0 45.126-20.244 45.126-45.126s-20.243-45.126-45.125-45.126zm-271.573 104.553c-32.768 0-59.427-26.659-59.427-59.427s26.659-59.426 59.427-59.426c32.712 0 59.426 26.603 59.426 59.426 0 32.967-26.842 59.427-59.426 59.427zm271.573-29.301h-203.5c3.954-8.92 6.353-19.395 6.353-30.126 0-10.49-2.312-21.021-6.353-30.126h203.499c16.611 0 30.126 13.515 30.126 30.126s-13.514 30.126-30.125 30.126z" fill="#f95116"/><path d="m406.437 392.448h-212.442c-13.612-17.794-35.048-29.301-59.13-29.301-41.039 0-74.427 33.388-74.427 74.427s33.388 74.426 74.427 74.426c24.082 0 45.518-11.507 59.13-29.3h212.442c24.883 0 45.126-20.244 45.126-45.126s-20.244-45.126-45.126-45.126zm-271.573 104.552c-32.768 0-59.427-26.659-59.427-59.426 0-32.768 26.659-59.427 59.427-59.427 32.74 0 59.426 26.625 59.426 59.427 0 32.925-26.803 59.426-59.426 59.426zm271.573-29.3h-203.5c4.055-9.14 6.353-19.611 6.353-30.126 0-10.686-2.401-21.217-6.353-30.126h203.499c16.611 0 30.126 13.515 30.126 30.126s-13.514 30.126-30.125 30.126z" fill="#2115c2"/></g></svg>