<svg id="Capa_1" enable-background="new 0 0 512.09 512.09" height="512" viewBox="0 0 512.09 512.09" width="512" xmlns="http://www.w3.org/2000/svg"><g><path d="m467.465 44.579c-49.4-49.4-129.494-49.4-178.903.009l-103.05 103.051c-6.507 6.507-12.163 13.552-16.944 20.987 31.372-20.249 69.736-25.212 104.543-14.888l58.423-58.423c23.485-23.485 61.711-23.485 85.196 0 23.494 23.494 23.485 61.711 0 85.196l-58.423 58.423-36.863 36.863c-8.407 8.407-18.679 13.803-29.506 16.198-19.434 4.286-40.603-1.11-55.69-16.198s-20.483-36.256-16.189-55.681c-10.819 2.386-21.108 7.782-29.506 16.18l-36.863 36.863c5.795 19.538 16.397 37.948 31.823 53.373 15.426 15.426 33.835 26.027 53.373 31.823 11.756 3.479 23.91 5.223 36.074 5.223 23.841 0 47.682-6.698 68.46-20.102 7.435-4.78 14.48-10.437 20.987-16.944l103.051-103.051c49.407-49.407 49.407-129.502.007-178.902z" fill="#a4bcff"/><path d="m343.419 343.477c-20.778 13.404-44.619 20.102-68.46 20.102-12.163 0-24.318-1.744-36.074-5.223l-58.423 58.423c-23.485 23.485-61.702 23.494-85.196 0-23.485-23.485-23.485-61.711 0-85.196l58.423-58.423 36.863-36.863c8.398-8.398 18.688-13.794 29.506-16.18 19.434-4.303 40.603 1.093 55.69 16.18 15.096 15.096 20.492 36.265 16.189 55.698 10.827-2.395 21.099-7.791 29.506-16.198l36.863-36.863c-5.795-19.538-16.397-37.948-31.823-53.373s-33.835-26.027-53.373-31.823c-34.807-10.324-73.171-5.362-104.543 14.888-7.435 4.78-14.471 10.428-20.978 16.935l-103.05 103.05c-49.4 49.4-49.408 129.503-.009 178.903 24.7 24.7 57.069 37.046 89.447 37.046s64.756-12.354 89.456-37.054l103.051-103.051c6.507-6.507 12.155-13.543 16.935-20.978z" fill="#7181ff"/><path d="m472.769 39.276c-52.366-52.366-137.129-52.372-189.511.009l-103.049 103.05c-6.402 6.402-12.126 13.423-17.052 20.879-7.456 4.927-14.475 10.648-20.871 17.044l-103.051 103.049c-52.25 52.251-52.254 137.264-.009 189.51 52.361 52.361 137.131 52.37 189.511-.009l103.051-103.051c6.398-6.399 12.119-13.418 17.042-20.87 7.456-4.925 14.477-10.649 20.879-17.051l103.051-103.05c52.368-52.369 52.389-137.13.009-189.51zm-254.64 422.926c-46.496 46.497-121.78 46.525-168.295.009-46.397-46.397-46.393-121.895.009-168.296l103.051-103.051c46.785-46.789 122.101-46.182 168.287 0 12.943 12.943 22.771 28.768 28.597 45.99l-33.638 33.639c-7.693 7.689-14.512 10.184-15.291 10.643.647-18.6-6.355-36.701-19.798-50.144-16.437-16.437-39.846-23.241-62.609-18.201-12.584 2.776-24.062 9.069-33.194 18.201l-36.863 36.863s-.001.001-.001.001l-58.421 58.421c-26.435 26.435-26.436 69.366 0 95.803 26.438 26.437 69.36 26.443 95.803 0l55.328-55.329c24.02 6.257 50.244 5.734 74.401-1.917zm143.321-237.018c-6.714-16.736-16.827-32.093-29.661-44.926-12.835-12.834-28.192-22.948-44.927-29.663l49.976-49.976c20.564-20.564 54.025-20.563 74.588 0 20.564 20.564 20.564 54.025 0 74.589zm-134.888 1.433c16.152-2.047 32.26 3.36 43.883 14.982 11.628 11.628 17.038 27.738 14.992 43.889-16.158 2.036-32.267-3.376-43.885-14.995-11.622-11.621-17.032-27.727-14.99-43.876zm-76.016 60.293c6.714 16.734 16.828 32.091 29.661 44.926 12.834 12.834 28.191 22.947 44.927 29.662l-49.976 49.976c-20.573 20.575-54.01 20.58-74.587 0-20.573-20.571-20.576-54.015 0-74.589zm311.606-68.731-103.051 103.05c-6.035 6.035-12.676 11.397-19.748 15.945-46.172 29.785-108.281 24.314-148.538-15.945-12.944-12.944-22.772-28.769-28.598-45.99l33.64-33.64c4.411-4.411 9.537-7.978 15.293-10.635-.646 18.599 6.355 36.696 19.794 50.136 26.802 26.803 69.696 26.104 95.804 0l95.286-95.286c26.412-26.413 26.412-69.39 0-95.803-26.414-26.413-69.391-26.413-95.804 0l-55.325 55.326c-25.137-6.558-51.068-5.526-74.382 1.899l97.344-97.345c46.503-46.504 121.777-46.526 168.294-.008 46.504 46.504 46.51 121.778-.009 168.296z" fill="#2115c2"/></g></svg>