<svg id="Capa_1" enable-background="new 0 0 512 512" height="512" viewBox="0 0 512 512" width="512" xmlns="http://www.w3.org/2000/svg"><g><path d="m155.121 391.57v50.09h-16.215c-13.381 0-24.229 10.848-24.229 24.229s10.848 24.229 24.229 24.229h40.443c13.381 0 24.229-10.848 24.229-24.229v-74.319z" fill="#ffff6f"/><path d="m267.884 391.57v50.09h-16.215c-13.381 0-24.229 10.848-24.229 24.229s10.848 24.229 24.229 24.229h40.444c13.381 0 24.229-10.848 24.229-24.229v-74.319z" fill="#ffff6f"/><g><path d="m179.35 497.617h-40.443c-17.496 0-31.729-14.233-31.729-31.729s14.233-31.729 31.729-31.729h8.715v-39.59c0-4.142 3.357-7.5 7.5-7.5s7.5 3.358 7.5 7.5v47.09c0 4.142-3.357 7.5-7.5 7.5h-16.215c-9.225 0-16.729 7.504-16.729 16.729 0 9.224 7.505 16.729 16.729 16.729h40.443c9.225 0 16.729-7.504 16.729-16.729v-71.318c0-4.142 3.357-7.5 7.5-7.5s7.5 3.358 7.5 7.5v71.319c-.001 17.495-14.234 31.728-31.729 31.728z" fill="#f95116"/></g><g><path d="m292.112 497.617h-40.443c-17.495 0-31.729-14.233-31.729-31.729s14.233-31.729 31.729-31.729h8.715v-39.59c0-4.142 3.357-7.5 7.5-7.5s7.5 3.358 7.5 7.5v47.09c0 4.142-3.357 7.5-7.5 7.5h-16.215c-9.225 0-16.729 7.504-16.729 16.729 0 9.224 7.504 16.729 16.729 16.729h40.443c9.225 0 16.729-7.504 16.729-16.729v-71.318c0-4.142 3.357-7.5 7.5-7.5s7.5 3.358 7.5 7.5v71.319c.001 17.495-14.233 31.728-31.729 31.728z" fill="#f95116"/></g><path d="m155.121 391.57h48.458v30.431h-48.458z" fill="#f95116"/><path d="m267.884 391.57h48.458v30.431h-48.458z" fill="#f95116"/><path d="m443.638 108.378v196.696c0 47.767-38.718 86.495-86.495 86.495h-263.148c-47.767 0-86.495-38.729-86.495-86.495v-196.696c0-47.777 38.729-86.495 86.495-86.495h263.148c47.776 0 86.495 38.718 86.495 86.495z" fill="#ff9bff"/><path d="m504.5 108.378v196.696c0 47.767-38.718 86.495-86.495 86.495h-60.862c47.777 0 86.495-38.729 86.495-86.495v-196.696c0-47.777-38.718-86.495-86.495-86.495h60.862c47.776 0 86.495 38.718 86.495 86.495z" fill="#ff63ed"/><path d="m307.454 180.411-116.16-60.307c-19.737-10.247-43.312 4.076-43.312 26.315v120.614c0 22.239 23.574 36.562 43.312 26.315l116.16-60.307c21.317-11.067 21.317-41.562 0-52.63z" fill="#88f8d8"/><path d="m418.005 14.383c-3.233 0-310.118 0-324.01 0-51.829 0-93.995 42.166-93.995 93.995v196.696c0 51.829 42.166 93.995 93.995 93.995h324.01c51.829 0 93.995-42.166 93.995-93.995v-196.696c0-51.829-42.166-93.995-93.995-93.995zm-403.005 290.691v-196.696c0-43.558 35.438-78.995 78.995-78.995h263.147c43.558 0 78.995 35.437 78.995 78.995v196.696c0 43.558-35.438 78.995-78.995 78.995h-263.147c-43.557.001-78.995-35.436-78.995-78.995zm482 0c0 43.558-35.438 78.995-78.995 78.995h-9.971c26.523-17.12 43.104-46.658 43.104-78.995v-196.696c0-31.595-16.035-61.523-43.104-78.995h9.971c43.558 0 78.995 35.437 78.995 78.995z" fill="#e207b9"/><g><path d="m140.482 267.033v-120.614c0-27.895 29.562-45.797 54.268-32.971l116.16 60.307c26.681 13.852 26.691 52.085 0 65.942l-116.16 60.307c-24.755 12.854-54.268-5.137-54.268-32.971zm15-120.614v120.614c0 16.631 17.625 27.306 32.355 19.658l116.16-60.307c15.961-8.286 15.942-31.041 0-39.317l-116.16-60.307c-14.717-7.641-32.355 3.025-32.355 19.659z" fill="#007ea8"/></g></g></svg>