<svg id="Capa_1" enable-background="new 0 0 512 512" height="512" viewBox="0 0 512 512" width="512" xmlns="http://www.w3.org/2000/svg"><g><path d="m504.5 218.3v218.365c0 33.923-27.503 61.416-61.426 61.416h-331.372c-33.923 0-61.426-27.493-61.426-61.416v-.205h335.136c30.221 0 58.339-15.833 73.68-41.87 35.358-60.001 43.736-133.866 45.408-176.29z" fill="#ff63ed"/><path d="m50.276 183.895s.831 13.29 0 34.333c-1.548 39.532-8.922 106.434-38.578 163.963-12.767 24.775 5.199 54.268 33.061 54.268h5.517 335.136c30.221 0 58.339-15.833 73.68-41.87 35.358-60.001 43.737-133.866 45.408-176.29v-34.405h-454.224z" fill="#ff9bff"/><path d="m460.208 51.557v25.878c0 15.127-12.263 27.389-27.389 27.389s-27.389-12.263-27.389-27.389v-28.318h-48.843v28.318c0 15.127-12.263 27.389-27.389 27.389-15.127 0-27.389-12.263-27.389-27.389v-28.318h-48.843v28.318c0 15.127-12.263 27.389-27.389 27.389s-27.389-12.263-27.389-27.389v-28.318h-48.843v28.318c0 15.127-12.263 27.389-27.389 27.389s-27.389-12.263-27.389-27.389v-25.878c-25.582 7.418-44.292 31.002-44.292 58.976v73.363h454.225v-73.363c0-27.974-18.71-51.559-44.292-58.976z" fill="#b98eff"/><circle cx="300.076" cy="281.039" fill="#e207b9" r="13.358"/><g><path d="m265.404 324.541h-56.568c-4.143 0-7.5-3.358-7.5-7.5s3.357-7.5 7.5-7.5h56.568c4.142 0 7.5 3.358 7.5 7.5s-3.357 7.5-7.5 7.5z" fill="#e207b9"/></g><circle cx="174.164" cy="281.039" fill="#e207b9" r="13.358"/><path d="m504.5 176.395c-4.143 0-7.5 3.358-7.5 7.5v34.244c-2.296 57.907-15.186 123.117-44.37 172.643-13.904 23.598-39.69 38.177-67.218 38.177-14.99 0-323.895 0-340.654 0-22.218 0-36.601-23.523-26.395-43.332 29.393-57.016 37.653-122.344 39.406-167.104.837-21.181.026-34.538-.009-35.097-.258-4.134-3.837-7.276-7.951-7.016-4.133.257-7.275 3.817-7.019 7.95.008.13.795 13.224-.009 33.574-1.387 35.403-8.136 103.373-37.751 160.822-15.06 29.225 5.457 64.014 38.128 65.152 3.633 34.608 32.984 61.672 68.542 61.672h331.372c38.006 0 68.926-30.915 68.926-68.916v-218.364-34.405c.002-4.142-3.355-7.5-7.498-7.5zm-7.5 260.27c0 29.729-24.191 53.916-53.927 53.916h-331.372c-27.261 0-49.862-20.329-53.435-46.621h327.145c32.873 0 63.583-17.459 80.142-45.563 14.136-23.985 24.356-50.863 31.447-77.44z" fill="#e207b9"/><g><path d="m298.809 56.617h-42.843c-4.143 0-7.5-3.358-7.5-7.5s3.357-7.5 7.5-7.5h42.843c4.142 0 7.5 3.358 7.5 7.5s-3.358 7.5-7.5 7.5z" fill="#6d00ca"/></g><g><path d="m402.43 56.617h-42.843c-4.143 0-7.5-3.358-7.5-7.5s3.357-7.5 7.5-7.5h42.843c4.143 0 7.5 3.358 7.5 7.5s-3.358 7.5-7.5 7.5z" fill="#6d00ca"/></g><g><path d="m504.5 191.395h-454.224c-4.142 0-7.5-3.358-7.5-7.5v-73.362c0-15.124 4.81-29.478 13.912-41.511 8.797-11.63 21.3-20.33 35.209-24.497 3.965-1.188 8.148 1.063 9.337 5.032 1.188 3.968-1.064 8.148-5.032 9.337-22.625 6.778-38.426 28.013-38.426 51.639v65.862h439.224v-65.862c0-23.708-15.2-44.386-37.823-51.455-3.954-1.235-6.157-5.442-4.922-9.395s5.447-6.158 9.394-4.922c28.921 9.036 48.351 35.468 48.351 65.772v73.362c0 4.142-3.357 7.5-7.5 7.5z" fill="#6d00ca"/></g><g><path d="m195.188 56.617h-42.843c-4.143 0-7.5-3.358-7.5-7.5s3.357-7.5 7.5-7.5h42.843c4.143 0 7.5 3.358 7.5 7.5s-3.358 7.5-7.5 7.5z" fill="#6d00ca"/></g><g fill="#88f8d8"><path d="m121.956 13.92c-15.127 0-27.389 12.262-27.389 27.389v36.126c0 15.127 12.263 27.389 27.389 27.389s27.389-12.263 27.389-27.389v-36.126c0-15.127-12.262-27.389-27.389-27.389z"/><path d="m225.577 13.92c-15.127 0-27.389 12.262-27.389 27.389v36.126c0 15.127 12.263 27.389 27.389 27.389 15.127 0 27.389-12.263 27.389-27.389v-36.126c0-15.127-12.262-27.389-27.389-27.389z"/><path d="m329.198 13.92c-15.127 0-27.389 12.262-27.389 27.389v36.126c0 15.127 12.263 27.389 27.389 27.389s27.389-12.263 27.389-27.389v-36.126c0-15.127-12.262-27.389-27.389-27.389z"/><path d="m432.819 13.92c15.127 0 27.389 12.262 27.389 27.389v36.126c0 15.127-12.263 27.389-27.389 27.389s-27.389-12.263-27.389-27.389v-36.126c0-15.127 12.263-27.389 27.389-27.389z"/></g><g><path d="m121.957 112.323c-19.238 0-34.889-15.651-34.889-34.889v-36.125c0-19.238 15.651-34.889 34.889-34.889 19.237 0 34.888 15.651 34.888 34.889v36.126c0 19.237-15.651 34.888-34.888 34.888zm0-90.904c-10.967 0-19.889 8.922-19.889 19.889v36.126c0 10.967 8.923 19.889 19.889 19.889s19.888-8.922 19.888-19.889v-36.125c0-10.967-8.922-19.89-19.888-19.89z" fill="#007ea8"/></g><g><path d="m225.577 112.323c-19.237 0-34.888-15.651-34.888-34.889v-36.125c0-19.238 15.651-34.889 34.888-34.889 19.238 0 34.889 15.651 34.889 34.889v36.126c0 19.237-15.651 34.888-34.889 34.888zm0-90.904c-10.967 0-19.888 8.922-19.888 19.889v36.126c0 10.967 8.922 19.889 19.888 19.889s19.889-8.922 19.889-19.889v-36.125c0-10.967-8.923-19.89-19.889-19.89z" fill="#007ea8"/></g><g><path d="m329.198 112.323c-19.238 0-34.889-15.651-34.889-34.889v-36.125c0-19.238 15.651-34.889 34.889-34.889s34.889 15.651 34.889 34.889v36.126c0 19.237-15.651 34.888-34.889 34.888zm0-90.904c-10.967 0-19.889 8.922-19.889 19.889v36.126c0 10.967 8.923 19.889 19.889 19.889s19.889-8.922 19.889-19.889v-36.125c0-10.967-8.923-19.89-19.889-19.89z" fill="#007ea8"/></g><g><path d="m432.819 112.323c-19.238 0-34.889-15.651-34.889-34.889v-36.125c0-19.238 15.651-34.889 34.889-34.889s34.889 15.651 34.889 34.889v36.126c0 19.237-15.651 34.888-34.889 34.888zm0-90.904c-10.967 0-19.889 8.922-19.889 19.889v36.126c0 10.967 8.923 19.889 19.889 19.889s19.889-8.922 19.889-19.889v-36.125c0-10.967-8.922-19.89-19.889-19.89z" fill="#007ea8"/></g></g></svg>