<svg id="Capa_1" enable-background="new 0 0 512 512" height="512" viewBox="0 0 512 512" width="512" xmlns="http://www.w3.org/2000/svg"><g><path d="m265.378 361.777s-87.93 64.19-96.97 70l27.12-107.669z" fill="#565eec"/><g><path d="m504.502 80.214-111.732 317.946c-5.01 14.27-21.59 20.671-34.89 13.5l-92.502-49.881-69.851-37.671z" fill="#a4bcff"/><path d="m504.502 80.214-385.657 202.544-103.862-56.021c-11.47-6.17-9.31-23.24 3.34-26.371z" fill="#a4bcff"/><path d="m504.502 80.214-308.976 243.895-27.12 107.672-49.561-149.023z" fill="#7181ff"/><path d="m510.266 75.423c-1.818-2.188-4.805-3.163-7.563-2.49l-486.182 120.153c-19.274 4.769-22.602 30.837-5.099 40.252l101.245 54.609 48.622 146.2c1.52 4.591 7.035 6.597 11.172 3.943 8.136-5.229 76.31-54.913 93.52-67.467l88.34 47.639c17.319 9.337 38.982 1.017 45.524-17.615l111.734-317.947c.84-2.374.434-5.174-1.313-7.277zm-491.731 144.709c-5.423-2.918-4.405-11.001 1.587-12.485l426.127-105.311-327.357 171.926zm148.876 184.891-39.438-118.587 308.29-161.912-245.383 193.698c-.064.051-.119.11-.181.162-.147.124-.292.25-.429.384-.071.069-.137.141-.205.213-.05.053-.099.105-.147.159-.083.094-.163.19-.242.288-.078.097-.151.197-.224.297-.066.092-.135.18-.197.274-.031.047-.055.096-.084.144-.002.003-.003.006-.005.009-.067.107-.131.216-.192.326-.082.148-.158.299-.229.453-.018.039-.041.076-.058.115-.012.026-.027.049-.038.075-.023.053-.038.109-.06.162-.063.154-.117.311-.17.47-.042.126-.084.251-.119.379-.013.049-.033.095-.045.144zm13.205 8.987c2.412-9.577 16.855-66.915 19.831-78.726l50.899 27.449c-21.973 16.018-52.122 37.932-70.73 51.277zm205.077-18.334c-3.48 9.912-15.008 14.367-24.254 9.383l-152.308-82.134 279.722-220.803z" fill="#2115c2"/></g></g></svg>