<svg id="Capa_1" enable-background="new 0 0 512 512" height="512" viewBox="0 0 512 512" width="512" xmlns="http://www.w3.org/2000/svg"><g><path d="m481.3 232.8h-28.649c-10.632-90.681-82.77-162.819-173.451-173.451v-28.649c0-12.813-10.387-23.2-23.2-23.2s-23.2 10.387-23.2 23.2v28.649c-90.682 10.632-162.82 82.77-173.451 173.451h-28.649c-12.813 0-23.2 10.387-23.2 23.2s10.387 23.2 23.2 23.2h28.649c10.631 90.682 82.769 162.82 173.451 173.451v28.649c0 12.813 10.387 23.2 23.2 23.2s23.2-10.387 23.2-23.2v-28.649c90.681-10.632 162.819-82.77 173.451-173.451h28.649c12.813 0 23.2-10.387 23.2-23.2s-10.387-23.2-23.2-23.2zm-248.5-131.853v64.765c.001 0 .003-.001.004-.001-32.793 8.43-58.663 34.3-67.093 67.093 0-.001.001-.003.001-.004h-64.765c10.117-67.91 63.943-121.736 131.853-131.853zm0 245.342v64.765c-67.91-10.118-121.736-63.944-131.853-131.854h64.765c0-.001-.001-.003-.001-.004 8.43 32.793 34.3 58.663 67.093 67.093-.002 0-.003 0-.004 0zm23.2-38.322c-28.655 0-51.967-23.312-51.967-51.967s23.312-51.967 51.967-51.967 51.967 23.312 51.967 51.967-23.312 51.967-51.967 51.967zm23.2 103.086v-64.765c-.001 0-.003.001-.004.001 32.793-8.43 58.663-34.3 67.093-67.093 0 .001-.001.003-.001.004h64.765c-10.117 67.91-63.943 121.736-131.853 131.853zm67.088-178.253c0 .001.001.003.001.004-8.43-32.793-34.3-58.663-67.093-67.093.001 0 .003.001.004.001v-64.765c67.91 10.117 121.735 63.943 131.853 131.853z" fill="#88f8d8"/><g><path d="m256 512c-16.928 0-30.7-13.772-30.7-30.7v-22.089c-43.063-6.51-83.52-26.936-114.548-57.963-31.027-31.028-51.453-71.485-57.963-114.548h-22.089c-16.928 0-30.7-13.772-30.7-30.7s13.772-30.7 30.7-30.7h22.089c6.51-43.063 26.936-83.52 57.963-114.547 31.028-31.028 71.484-51.454 114.548-57.963v-22.09c0-16.928 13.772-30.7 30.7-30.7s30.7 13.772 30.7 30.7v22.09c43.063 6.509 83.52 26.936 114.547 57.963 31.028 31.028 51.454 71.484 57.964 114.547h22.089c16.928 0 30.7 13.772 30.7 30.7s-13.772 30.7-30.7 30.7h-22.089c-6.51 43.063-26.936 83.52-57.964 114.547-31.027 31.028-71.484 51.454-114.547 57.963v22.09c0 16.928-13.772 30.7-30.7 30.7zm-225.3-271.7c-8.657 0-15.7 7.043-15.7 15.7s7.043 15.7 15.7 15.7h28.648c3.805 0 7.006 2.848 7.449 6.626 4.946 42.189 24.323 82.076 54.561 112.314s70.126 49.615 112.314 54.562c3.778.443 6.627 3.645 6.627 7.449v28.649c0 8.657 7.043 15.7 15.7 15.7s15.7-7.043 15.7-15.7v-28.648c0-3.804 2.849-7.006 6.627-7.449 42.188-4.947 82.075-24.324 112.313-54.562s49.615-70.125 54.562-112.314c.443-3.778 3.645-6.626 7.449-6.626h28.65c8.657 0 15.7-7.043 15.7-15.7s-7.043-15.7-15.7-15.7h-28.648c-3.805 0-7.006-2.848-7.449-6.626-4.946-42.189-24.323-82.076-54.562-112.314-30.238-30.238-70.125-49.615-112.313-54.561-3.778-.443-6.627-3.645-6.627-7.449v-28.651c0-8.657-7.043-15.7-15.7-15.7s-15.7 7.043-15.7 15.7v28.649c0 3.804-2.849 7.006-6.627 7.449-42.188 4.946-82.076 24.323-112.314 54.561-30.237 30.238-49.614 70.125-54.561 112.314-.443 3.778-3.645 6.626-7.449 6.626h-28.65zm248.5 178.253c-1.785 0-3.526-.638-4.896-1.819-1.653-1.425-2.604-3.499-2.604-5.681v-64.484c-.106-2.868 1.448-5.641 4.142-6.987.383-.191.78-.349 1.189-.473.111-.034.223-.064.336-.093 30.251-7.792 53.873-31.42 61.655-61.675.002-.01.005-.019.007-.029.001-.001.001-.003.002-.005 0-.001 0-.003.001-.004.891-3.418 4.018-5.722 7.508-5.603h64.513c2.182 0 4.256.95 5.681 2.603s2.059 3.844 1.737 6.002c-5.202 34.922-21.236 66.665-46.369 91.797-25.132 25.132-56.875 41.167-91.796 46.369-.369.055-.739.082-1.106.082zm7.5-66.624v50.168c28.325-5.915 54.035-19.842 74.795-40.602s34.688-46.47 40.602-74.795h-50.168c-9.918 30.995-34.235 55.311-65.229 65.229zm-53.9 66.624c-.367 0-.736-.027-1.105-.082-34.922-5.203-66.664-21.237-91.797-46.369-25.132-25.132-41.166-56.875-46.368-91.797-.321-2.158.313-4.349 1.737-6.002s3.499-2.603 5.681-2.603h64.576c3.466-.088 6.575 2.216 7.451 5.629 7.778 30.259 31.401 53.892 61.653 61.686.127.032.252.067.377.105.001 0 .005.001.008.002.394.122.776.275 1.146.459 2.693 1.347 4.248 4.119 4.142 6.987v64.484c0 2.182-.95 4.256-2.603 5.681-1.372 1.182-3.113 1.82-4.898 1.82zm-122.897-131.853c5.914 28.326 19.842 54.036 40.602 74.795 20.759 20.759 46.47 34.687 74.795 40.602v-50.169c-30.994-9.917-55.311-34.234-65.229-65.229h-50.168zm146.097 28.767c-32.79 0-59.467-26.677-59.467-59.467s26.677-59.467 59.467-59.467 59.467 26.677 59.467 59.467-26.677 59.467-59.467 59.467zm0-103.934c-24.52 0-44.467 19.948-44.467 44.467s19.947 44.467 44.467 44.467 44.467-19.948 44.467-44.467-19.947-44.467-44.467-44.467zm90.283 28.771c-3.301 0-6.256-2.179-7.194-5.401-.027-.093-.053-.186-.076-.28-7.794-30.246-31.422-53.865-61.674-61.646-.516-.132-1.018-.319-1.497-.559-2.693-1.347-4.248-4.119-4.142-6.987v-64.484c0-2.182.95-4.256 2.604-5.681 1.652-1.424 3.836-2.061 6.002-1.737 34.921 5.203 66.664 21.237 91.796 46.369 25.133 25.132 41.167 56.875 46.369 91.797.321 2.158-.313 4.349-1.737 6.002s-3.499 2.603-5.681 2.603h-64.513c-.086.003-.172.004-.257.004zm5.646-15.004h50.168c-5.914-28.325-19.842-54.036-40.602-74.795s-46.47-34.687-74.795-40.602v50.168c30.994 9.918 55.311 34.235 65.229 65.229zm-186.212 15.004c-.085 0-.171-.001-.257-.004h-64.513c-2.182 0-4.256-.95-5.681-2.603s-2.059-3.844-1.737-6.002c5.202-34.922 21.236-66.665 46.368-91.797 25.133-25.132 56.875-41.167 91.797-46.369 2.163-.323 4.35.313 6.003 1.737 1.652 1.425 2.603 3.499 2.603 5.681v64.484c.106 2.868-1.448 5.641-4.142 6.987-.479.24-.981.426-1.497.559-30.269 7.785-53.905 31.424-61.687 61.694-.86 3.349-3.878 5.633-7.257 5.633zm-55.814-15.004h50.168c9.918-30.994 34.234-55.311 65.229-65.229v-50.169c-28.325 5.915-54.036 19.843-74.795 40.602-20.76 20.76-34.688 46.47-40.602 74.796z" fill="#007ea8"/></g></g></svg>