<svg id="Capa_1" enable-background="new 0 0 512 512" height="512" viewBox="0 0 512 512" width="512" xmlns="http://www.w3.org/2000/svg"><g><path d="m251.176 414.517v38.701h-17.16c-14.161 0-25.641 11.48-25.641 25.641s11.48 25.641 25.641 25.641h42.801c14.161 0 25.641-11.48 25.641-25.641v-95.879c-15.657 10.598-32.726 21.129-51.282 31.537z" fill="#9448f5"/><path d="m214.137 418.129c-18.528-10.172-35.595-20.44-51.282-30.757v65.846h-17.16c-14.161 0-25.641 11.48-25.641 25.641s11.48 25.641 25.641 25.641h42.801c9.903 0 18.489-5.618 22.76-13.837-1.837-3.534-2.881-7.546-2.881-11.804 0-6.141 2.161-11.776 5.762-16.191z" fill="#9448f5"/><path d="m401.765 210.928c-56.175 0-101.714-45.539-101.714-101.714 0-19.591 5.544-37.885 15.141-53.409-28.974 3.456-58.933 17.068-85.792 43.316-53.553-52.336-119.435-54.46-165.247-25.937-84.823 52.79-100.814 210.632 157.745 349.16 6.608 3.536 11.81 1.732 17.626-1.413 136.498-73.723 196.77-154.279 208.723-221.224-13.933 7.171-29.734 11.221-46.482 11.221z" fill="#ff63ed"/><circle cx="401.765" cy="109.214" fill="#ffff6f" r="101.714"/><circle cx="288.372" cy="265.084" fill="#e207b9" r="12.486"/><g><path d="m255.963 306.238h-52.878c-4.143 0-7.5-3.358-7.5-7.5s3.357-7.5 7.5-7.5h52.878c4.143 0 7.5 3.358 7.5 7.5s-3.358 7.5-7.5 7.5z" fill="#e207b9"/></g><circle cx="170.675" cy="265.084" fill="#e207b9" r="12.486"/><g fill="#6d00ca"><path d="m302.458 379.48c-4.143 0-7.5 3.358-7.5 7.5v91.879c0 10.003-8.138 18.141-18.141 18.141h-42.801c-10.035 0-18.141-8.18-18.141-18.141 0-9.873 8.021-18.141 18.141-18.141h17.16c4.143 0 7.5-3.358 7.5-7.5v-34.701c0-4.142-3.357-7.5-7.5-7.5s-7.5 3.358-7.5 7.5v27.201h-9.66c-4.375 0-8.551.86-12.379 2.408v-25.997c0-4.142-3.357-7.5-7.5-7.5s-7.5 3.358-7.5 7.5v38.061c-3.803 5.562-5.762 12.163-5.762 18.669 0 3.777.666 7.596 1.933 11.145-3.402 4.38-8.641 6.996-14.313 6.996h-42.801c-10.003 0-18.141-8.138-18.141-18.141s8.138-18.141 18.141-18.141h17.16c4.143 0 7.5-3.358 7.5-7.5v-61.846c0-4.142-3.357-7.5-7.5-7.5s-7.5 3.358-7.5 7.5v54.346h-9.66c-18.273 0-33.141 14.867-33.141 33.141s14.869 33.141 33.142 33.141h42.801c8.643 0 16.727-3.329 22.778-9.069 5.94 5.615 13.943 9.069 22.743 9.069h42.801c18.273 0 33.141-14.867 33.141-33.141v-91.879c-.001-4.142-3.359-7.5-7.501-7.5z"/><path d="m162.855 421.043c14.127 8.771 29.318 17.552 45.661 26.308 1.847.988 3.724 1.824 5.621 2.537v-31.759c-18.528-10.172-35.595-20.44-51.282-30.757z"/><path d="m302.458 382.98c-15.658 10.598-32.726 21.129-51.282 31.537v32.328c.629-.322 1.241-.643 1.826-.959 17.432-9.415 33.917-19.084 49.456-28.985z"/></g><g><g><path d="m405.457 167.554c-4.143 0-7.5-3.358-7.5-7.5v-94.18h-14.233c-4.143 0-7.5-3.358-7.5-7.5s3.357-7.5 7.5-7.5h21.733c4.143 0 7.5 3.358 7.5 7.5v101.681c0 4.141-3.358 7.499-7.5 7.499z" fill="#f95116"/></g></g><g><path d="m218.359 428.957c-73.009-39.116-128.877-82.172-166.055-127.976-32.22-39.695-49.928-81.534-51.207-120.995-2.667-82.225 66.183-141.008 143.68-131.6 30.321 3.681 59.441 17.621 84.622 40.438 24.804-22.47 53.476-36.352 83.323-40.268 4.102-.542 7.872 2.354 8.412 6.46.539 4.107-2.354 7.873-6.461 8.412-28.731 3.771-56.406 17.968-80.032 41.057-2.914 2.849-7.57 2.849-10.484 0-23.965-23.42-52.039-37.67-81.188-41.209-68.394-8.305-129.247 43.223-126.88 116.224 1.173 36.159 17.723 74.898 47.861 112.028 35.917 44.249 90.25 86.038 161.489 124.206 2.939 1.572 4.972 1.598 10.517-1.4 117.829-63.64 190.501-139.797 204.632-214.445.771-4.069 4.696-6.744 8.765-5.974 4.069.771 6.744 4.694 5.974 8.764-7.036 37.17-27.206 74.514-59.948 110.995-36.53 40.701-87.768 79.007-152.29 113.856-8.158 4.41-15.922 6.14-24.73 1.427z" fill="#e207b9"/></g><g><path d="m401.765 218.428c-60.221 0-109.214-48.993-109.214-109.214s48.993-109.214 109.214-109.214 109.214 48.993 109.214 109.214-48.994 109.214-109.214 109.214zm0-203.428c-51.949 0-94.214 42.264-94.214 94.214s42.265 94.214 94.214 94.214 94.214-42.264 94.214-94.214-42.265-94.214-94.214-94.214z" fill="#f95116"/></g></g></svg>