<svg id="Capa_1" enable-background="new 0 0 512 512" height="512" viewBox="0 0 512 512" width="512" xmlns="http://www.w3.org/2000/svg"><g><path d="m396.717 74.773-51.548 51.548c-20.753-26.452-53.008-43.476-89.169-43.476s-68.416 17.024-89.169 43.476l-51.548-51.548c34.068-39.476 84.476-64.457 140.717-64.457 51.32 0 97.78 20.806 131.413 54.438 3.222 3.222 6.331 6.569 9.304 10.019z" fill="#ff63ed"/><path d="m109.677 279.677 32.689-14.983c.104-.047.208-.085.312-.131v-68.396c0-26.328 9.025-50.594 24.152-69.846l-51.548-51.548c-28.119 32.566-45.132 74.996-45.132 121.394v91.44c12.159-5.106 25.513-7.93 39.527-7.93z" fill="#b98eff"/><path d="m369.322 264.563c.104.046.209.084.312.131l32.689 14.983c14.014 0 27.368 2.824 39.528 7.93v-91.44c0-46.398-17.013-88.827-45.134-121.393l-51.548 51.548c15.127 19.251 24.152 43.517 24.152 69.846v68.395z" fill="#b98eff"/><g><path d="m70.149 292.107c-4.143 0-7.5-3.358-7.5-7.5v-88.44c0-46.374 16.677-91.227 46.957-126.295 2.709-3.135 7.446-3.479 10.578-.775 3.136 2.707 3.482 7.443.775 10.579-27.929 32.344-43.31 73.714-43.31 116.49v88.44c0 4.143-3.357 7.501-7.5 7.501z" fill="#6d00ca"/></g><g><path d="m142.679 269.063c-4.143 0-7.5-3.358-7.5-7.5v-65.396c0-27.283 8.906-53.038 25.755-74.479 2.561-3.258 7.275-3.821 10.531-1.263 3.257 2.559 3.822 7.274 1.264 10.531-14.752 18.772-22.55 41.322-22.55 65.211v65.396c0 4.142-3.358 7.5-7.5 7.5z" fill="#6d00ca"/></g><g><path d="m369.322 269.063c-4.143 0-7.5-3.358-7.5-7.5v-65.396c0-23.888-7.798-46.438-22.55-65.211-2.559-3.257-1.993-7.972 1.264-10.531 3.257-2.558 7.973-1.994 10.531 1.264 16.849 21.442 25.755 47.197 25.755 74.479v65.396c0 4.141-3.357 7.499-7.5 7.499z" fill="#6d00ca"/></g><g><path d="m441.852 292.107c-4.143 0-7.5-3.358-7.5-7.5v-88.44c0-42.776-15.381-84.146-43.311-116.491-2.707-3.135-2.36-7.872.775-10.579 3.134-2.706 7.871-2.361 10.578.775 30.28 35.068 46.957 79.921 46.957 126.295v88.44c.001 4.142-3.357 7.5-7.499 7.5z" fill="#6d00ca"/></g><g><path d="m345.17 133.821c-.149 0-.3-.004-.45-.014-2.142-.129-4.126-1.168-5.45-2.857-20.246-25.805-50.597-40.605-83.27-40.605-32.672 0-63.022 14.8-83.269 40.605-1.324 1.688-3.309 2.728-5.45 2.857-2.149.134-4.236-.666-5.754-2.183l-51.548-51.548c-2.777-2.778-2.941-7.229-.374-10.203 36.778-42.616 90.137-67.057 146.395-67.057 51.642 0 100.194 20.113 136.717 56.635 3.343 3.343 6.6 6.851 9.682 10.425 2.564 2.975 2.399 7.424-.377 10.201l-51.548 51.548c-1.411 1.41-3.321 2.196-5.304 2.196zm-219.56-59.327 40.745 40.746c22.929-25.454 55.153-39.895 89.645-39.895 34.493 0 66.717 14.44 89.646 39.895l40.747-40.748c-1.405-1.505-2.835-2.987-4.283-4.435-33.689-33.688-78.475-52.241-126.11-52.241-49.568 0-96.699 20.573-130.39 56.678z" fill="#e207b9"/></g><path d="m109.677 484.031c-56.43 0-102.177-45.747-102.177-102.177s45.746-102.177 102.177-102.177z" fill="#ffd600"/><path d="m402.323 484.031c56.431 0 102.177-45.746 102.177-102.177s-45.746-102.177-102.177-102.177z" fill="#ffd600"/><path d="m142.366 264.694-32.689 14.983v204.354l32.689 14.983c19.186 8.794 41.033-5.226 41.033-26.331v-181.658c.001-21.105-21.847-35.125-41.033-26.331z" fill="#f90"/><path d="m369.634 264.694 32.689 14.983v204.354l-32.689 14.983c-19.186 8.794-41.033-5.226-41.033-26.331v-181.658c0-21.105 21.847-35.125 41.033-26.331z" fill="#f90"/><g fill="#f95116"><path d="m404.007 272.198-31.247-14.322c-24.164-11.076-51.659 6.602-51.659 33.148v181.658c0 26.603 27.568 44.192 51.659 33.148l31.247-14.322c59.701-.903 107.993-49.741 107.993-109.654s-48.292-108.752-107.993-109.656zm-9.184 207.02-28.313 12.977c-14.205 6.511-30.409-3.797-30.409-19.513v-181.657c0-15.526 16.027-26.105 30.409-19.513l28.313 12.977zm15-2.984v-188.76c48.712 3.836 87.177 44.7 87.177 94.38s-38.465 90.544-87.177 94.38z"/><path d="m139.241 257.876-31.247 14.322c-59.702.904-107.994 49.743-107.994 109.656s48.292 108.751 107.994 109.655l31.247 14.322c24.139 11.063 51.658-6.601 51.658-33.148v-181.658c0-26.581-27.527-44.211-51.658-33.149zm-37.063 218.358c-48.713-3.836-87.178-44.699-87.178-94.38s38.465-90.545 87.178-94.38zm73.721-3.552c0 15.584-16.089 26.075-30.408 19.513l-28.313-12.977v-194.729l28.313-12.977c14.238-6.526 30.408 3.825 30.408 19.513z"/></g></g></svg>