<svg id="Capa_1" enable-background="new 0 0 512 512" height="512" viewBox="0 0 512 512" width="512" xmlns="http://www.w3.org/2000/svg"><g><path d="m451.192 102.109c-117.541 41.435-235.083-92.432-352.624-15.937v278.167c117.625-76.55 235.25 57.563 352.876 15.848 19.151-6.792 31.805-25.101 31.805-45.421v-209.725c0-16.612-16.39-28.455-32.057-22.932z" fill="#565eec"/><circle cx="355.648" cy="213.613" fill="#2115c2" r="13.736"/><g><path d="m319.995 258.135h-58.172c-4.143 0-7.5-3.358-7.5-7.5s3.357-7.5 7.5-7.5h58.172c4.143 0 7.5 3.358 7.5 7.5s-3.358 7.5-7.5 7.5z" fill="#2115c2"/></g><circle cx="226.169" cy="213.613" fill="#2115c2" r="13.736"/><g><path d="m402.034 395.908c-38.347 0-76.331-12.36-113.446-24.438-63.566-20.685-123.607-40.221-184.108-2.013-3.502 2.212-8.134 1.166-10.346-2.336s-1.166-8.134 2.336-10.346c66.457-41.968 132.7-20.414 196.76.432 53.791 17.503 104.599 34.037 155.708 15.911 16.037-5.687 26.812-21.1 26.812-38.353v-209.724c0-5.529-2.595-10.537-7.119-13.739-4.427-3.133-9.874-3.906-14.944-2.12-55.825 19.679-111.376 1.603-165.098-15.878-63.203-20.566-122.9-39.99-183.045-2.678-3.521 2.183-8.144 1.101-10.327-2.419-2.184-3.52-1.101-8.143 2.419-10.327 66.068-40.987 131.916-19.561 195.595 1.161 53.707 17.476 104.436 33.984 155.47 15.995 9.718-3.426 20.144-1.961 28.597 4.023 8.424 5.962 13.453 15.675 13.453 25.982v209.724c0 23.59-14.788 44.684-36.798 52.49-17.349 6.152-34.671 8.653-51.919 8.653z" fill="#2115c2"/></g><path d="m72.428 94.855c-9.803 0-18.851-3.229-26.139-8.682v403.389c0 8.25 6.688 14.939 14.939 14.939h22.402c8.25 0 14.939-6.688 14.939-14.939v-403.39c-7.289 5.453-16.338 8.683-26.141 8.683z" fill="#f90"/><circle cx="72.428" cy="51.177" fill="#ffff6f" r="43.677"/><path d="m123.606 51.177c0-28.219-22.958-51.177-51.178-51.177-28.219 0-51.177 22.958-51.177 51.177 0 15.349 6.801 29.13 17.537 38.519v399.866c0 12.373 10.066 22.438 22.439 22.438h22.401c12.373 0 22.438-10.066 22.438-22.438v-399.866c10.738-9.388 17.54-23.17 17.54-38.519zm-87.355 0c0-19.948 16.229-36.177 36.177-36.177s36.178 16.229 36.178 36.177c0 20.016-16.304 36.177-36.178 36.177-19.865 0-36.177-16.156-36.177-36.177zm54.817 47.688v390.696c0 4.102-3.337 7.438-7.438 7.438h-22.402c-4.103 0-7.439-3.337-7.439-7.438v-390.696c5.97 2.337 12.454 3.49 18.64 3.49 6.237-.001 12.713-1.17 18.639-3.49z" fill="#f95116"/></g></svg>