<svg id="Capa_1" enable-background="new 0 0 512 512" height="512" viewBox="0 0 512 512" width="512" xmlns="http://www.w3.org/2000/svg"><g><path d="m85.347 322.473h-45.548c-13.893 0-25.156 11.263-25.156 25.156v128.915c0 13.893 11.263 25.156 25.156 25.156h45.548c13.893 0 25.156-11.263 25.156-25.156v-128.915c0-13.894-11.263-25.156-25.156-25.156z" fill="#f90"/><path d="m241.835 300.644c0-13.893-11.263-25.156-25.156-25.156h-45.548c-13.893 0-25.156 11.263-25.156 25.156v175.9c0 13.893 11.263 25.156 25.156 25.156h45.548c13.893 0 25.156-11.263 25.156-25.156z" fill="#b98eff"/><path d="m373.168 253.659c0-13.893-11.263-25.156-25.156-25.156h-45.548c-13.893 0-25.156 11.263-25.156 25.156v222.884c0 13.893 11.263 25.156 25.156 25.156h45.548c13.893 0 25.156-11.263 25.156-25.156z" fill="#88f8d8"/><path d="m479.344 181.519h-45.548c-13.893 0-25.156 11.263-25.156 25.156v269.869c0 13.893 11.263 25.156 25.156 25.156h45.548c13.893 0 25.156-11.263 25.156-25.156v-269.869c0-13.894-11.263-25.156-25.156-25.156z" fill="#ffff6f"/><path d="m455.266 10.344-74.147 5.049c-10.601.722-16.171 12.92-9.772 21.403l15.428 20.453-152.095 114.723-21.586-67.852c-1.98-6.224-6.855-11.101-13.079-13.083-6.223-1.981-13.021-.821-18.236 3.111l-169.319 127.716c-5.491 4.142-6.585 11.951-2.443 17.443l9.252 12.266c4.142 5.491 11.951 6.585 17.443 2.443l146.623-110.596 21.586 67.852c1.98 6.224 6.855 11.101 13.079 13.083 6.224 1.983 13.022.822 18.236-3.111l174.791-131.843 13.906 18.436c6.399 8.483 19.658 6.48 23.264-3.515l25.225-69.907c4.412-12.226-5.189-24.954-18.156-24.071z" fill="#565eec"/><g><path d="m85.347 509.2h-45.548c-18.007 0-32.656-14.649-32.656-32.656v-128.915c0-18.007 14.649-32.656 32.656-32.656h45.547c18.007 0 32.656 14.649 32.656 32.656v128.915c.001 18.006-14.649 32.656-32.655 32.656zm-45.548-179.227c-9.735 0-17.656 7.92-17.656 17.656v128.915c0 9.736 7.921 17.656 17.656 17.656h45.547c9.735 0 17.656-7.92 17.656-17.656v-128.915c0-9.736-7.921-17.656-17.656-17.656z" fill="#f95116"/></g><g><path d="m216.679 509.2h-45.547c-18.007 0-32.656-14.649-32.656-32.656v-175.9c0-18.007 14.649-32.656 32.656-32.656h45.547c18.007 0 32.656 14.649 32.656 32.656v175.9c0 18.006-14.649 32.656-32.656 32.656zm-45.547-226.212c-9.735 0-17.656 7.92-17.656 17.656v175.9c0 9.736 7.921 17.656 17.656 17.656h45.547c9.735 0 17.656-7.92 17.656-17.656v-175.9c0-9.736-7.921-17.656-17.656-17.656z" fill="#6d00ca"/></g><g><path d="m348.011 509.2h-45.547c-18.007 0-32.656-14.649-32.656-32.656v-222.885c0-18.007 14.649-32.656 32.656-32.656h45.547c18.007 0 32.657 14.649 32.657 32.656v222.884c0 18.007-14.65 32.657-32.657 32.657zm-45.547-273.197c-9.735 0-17.656 7.92-17.656 17.656v222.884c0 9.736 7.921 17.656 17.656 17.656h45.547c9.736 0 17.657-7.92 17.657-17.656v-222.884c0-9.736-7.921-17.656-17.657-17.656z" fill="#007ea8"/></g><g><path d="m479.344 509.2h-45.547c-18.007 0-32.656-14.649-32.656-32.656v-269.869c0-18.007 14.649-32.656 32.656-32.656h45.547c18.007 0 32.656 14.65 32.656 32.656v269.869c0 18.006-14.649 32.656-32.656 32.656zm-45.547-320.182c-9.735 0-17.656 7.921-17.656 17.657v269.869c0 9.736 7.921 17.656 17.656 17.656h45.547c9.735 0 17.656-7.92 17.656-17.656v-269.869c0-9.736-7.921-17.657-17.656-17.657z" fill="#f90"/></g><g><path d="m13.282 256.09-9.252-12.266c-6.643-8.805-4.892-21.305 3.913-27.947l169.32-127.716c15.197-11.46 37.208-4.453 42.978 13.686l18.376 57.761 137.654-103.831-10.911-14.465c-9.974-13.223-1.275-32.277 15.249-33.402l74.148-5.049c18.38-1.24 31.962 16.798 25.72 34.099l-25.225 69.907c-5.621 15.581-26.333 18.706-36.306 5.486l-9.39-12.448-168.803 127.326c-15.193 11.459-37.207 4.457-42.978-13.686l-18.376-57.761-138.171 104.22c-8.764 6.61-21.305 4.889-27.946-3.914zm173.013-155.953-169.319 127.715c-2.185 1.648-2.621 4.752-.972 6.938l9.252 12.266c1.645 2.18 4.756 2.617 6.938.972l146.624-110.596c1.942-1.465 4.473-1.897 6.792-1.159 2.318.738 4.134 2.555 4.872 4.873l21.587 67.852c2.637 8.293 12.701 11.499 19.65 6.258l174.792-131.843c3.309-2.495 8.011-1.835 10.504 1.471l13.906 18.436c2.82 3.737 8.637 2.848 10.222-1.544l25.225-69.907c2.573-7.132-3.004-14.569-10.592-14.042l-74.148 5.048c-4.659.317-7.109 5.67-4.294 9.405l15.428 20.453c2.495 3.307 1.836 8.009-1.471 10.504l-152.094 114.723c-4.116 3.101-10.09 1.227-11.664-3.714l-21.587-67.852c-2.644-8.314-12.715-11.487-19.651-6.257z" fill="#2115c2"/></g></g></svg>