<?xml version="1.0" encoding="UTF-8" standalone="no"?>
<svg
   version="1.2"
   viewBox="0 0 91.519997 121.88"
   width="91.519997"
   height="121.88"
   id="svg220833"
   sodipodi:docname="AdobeStock_122748317-ai.svg"
   inkscape:version="1.1.1 (3bf5ae0d25, 2021-09-20)"
   xmlns:inkscape="http://www.inkscape.org/namespaces/inkscape"
   xmlns:sodipodi="http://sodipodi.sourceforge.net/DTD/sodipodi-0.dtd"
   xmlns="http://www.w3.org/2000/svg"
   xmlns:svg="http://www.w3.org/2000/svg"
   xmlns:rdf="http://www.w3.org/1999/02/22-rdf-syntax-ns#"
   xmlns:cc="http://creativecommons.org/ns#"
   xmlns:dc="http://purl.org/dc/elements/1.1/">
  <sodipodi:namedview
     id="namedview220835"
     pagecolor="#ffffff"
     bordercolor="#666666"
     borderopacity="1.0"
     inkscape:pageshadow="2"
     inkscape:pageopacity="0.0"
     inkscape:pagecheckerboard="0"
     showgrid="false"
     inkscape:zoom="0.6778797"
     inkscape:cx="-34.666918"
     inkscape:cy="81.872934"
     inkscape:window-width="2516"
     inkscape:window-height="1340"
     inkscape:window-x="0"
     inkscape:window-y="0"
     inkscape:window-maximized="1"
     inkscape:current-layer="svg220833" />
  <title
     id="title189441">AdobeStock_122748317-ai</title>
  <defs
     id="defs189722">
    <clipPath
       clipPathUnits="userSpaceOnUse"
       id="cp1">
      <path
         d="m 1088.15,811.37 v 103.58 h -21.33 V 811.37 Z"
         id="path189443" />
    </clipPath>
    <clipPath
       clipPathUnits="userSpaceOnUse"
       id="cp2">
      <path
         d="m 1149.33,811.37 v 103.58 h -21.32 V 811.37 Z"
         id="path189446" />
    </clipPath>
    <clipPath
       clipPathUnits="userSpaceOnUse"
       id="cp3">
      <path
         d="m 306.15,959.13 v 103.58 l -15.23,15.23 V 974.36 Z"
         id="path189449" />
    </clipPath>
    <clipPath
       clipPathUnits="userSpaceOnUse"
       id="cp4">
      <path
         d="m 290.92,974.36 v 103.58 H 269.6 V 974.36 Z"
         id="path189452" />
    </clipPath>
    <clipPath
       clipPathUnits="userSpaceOnUse"
       id="cp5">
      <path
         d="m 1222.59,796.14 -15.23,15.23 h -21.33 l 15.23,-15.23 z"
         id="path189455" />
    </clipPath>
    <clipPath
       clipPathUnits="userSpaceOnUse"
       id="cp6">
      <path
         d="m 1207.36,811.37 v 103.58 h -21.33 V 811.37 Z"
         id="path189458" />
    </clipPath>
    <clipPath
       clipPathUnits="userSpaceOnUse"
       id="cp7">
      <path
         d="m 770.59,1123.64 -15.2,15.23 h -24.37 l 15.23,-15.23 z"
         id="path189461" />
    </clipPath>
    <clipPath
       clipPathUnits="userSpaceOnUse"
       id="cp8">
      <path
         d="m 770.62,1123.64 -35.79,103.58 -15.24,15.23 5.27,-15.23 30.53,-88.35 15.2,-15.23 z"
         id="path189464" />
    </clipPath>
    <clipPath
       clipPathUnits="userSpaceOnUse"
       id="cp9">
      <path
         d="m 755.39,1138.87 -30.53,88.35 -5.27,15.23 h -22.85 l -35.76,-103.58 h 24.37 l 22.82,70.5 10.08,-31.14 12.77,-39.36 z"
         id="path189467" />
    </clipPath>
    <clipPath
       clipPathUnits="userSpaceOnUse"
       id="cp10">
      <path
         d="m 479.8,876.87 c 0,6.58 -1.68,12.8 -4.63,18.22 -1.74,3.2 -3.97,6.15 -6.52,8.71 -3.45,3.44 -7.56,6.22 -12.1,8.17 -4.57,1.92 -9.57,2.98 -14.84,2.98 h -15.32 v -76.16 h 15.32 c 10.51,0 20.05,4.26 26.94,11.15 3.44,3.44 6.24,7.56 8.16,12.09 1.92,4.57 2.99,9.6 2.99,14.84 z"
         id="path189470" />
    </clipPath>
    <clipPath
       clipPathUnits="userSpaceOnUse"
       id="cp11">
      <path
         d="m 495.03,861.64 c 0,10.51 -4.27,20.04 -11.15,26.93 l -15.23,15.23 c 2.55,-2.56 4.78,-5.51 6.52,-8.71 2.95,-5.42 4.63,-11.64 4.63,-18.22 0,-5.24 -1.07,-10.27 -2.99,-14.84 -1.92,-4.53 -4.72,-8.65 -8.16,-12.09 -6.89,-6.89 -16.43,-11.15 -26.94,-11.15 h -15.32 l 15.23,-15.23 h 15.33 c 10.51,0 20.04,4.26 26.93,11.15 3.44,3.44 6.24,7.55 8.16,12.09 1.92,4.57 2.99,9.6 2.99,14.84 z"
         id="path189473" />
    </clipPath>
    <clipPath
       clipPathUnits="userSpaceOnUse"
       id="cp12">
      <path
         d="m 604.3,796.14 -15.27,15.23 h -21.41 c -10.39,0 -20.08,3.08 -28.21,8.35 -3.05,1.98 -5.85,4.26 -8.41,6.82 l 15.23,-15.23 c 9.38,-9.38 22.33,-15.17 36.62,-15.17 z"
         id="path189476" />
    </clipPath>
    <clipPath
       clipPathUnits="userSpaceOnUse"
       id="cp13">
      <path
         d="m 604.3,870.75 v 28.97 l -15.27,15.23 v -28.94 z"
         id="path189479" />
    </clipPath>
    <clipPath
       clipPathUnits="userSpaceOnUse"
       id="cp14">
      <path
         d="m 604.3,796.14 v 28.91 l -15.27,15.26 v -28.94 z"
         id="path189482" />
    </clipPath>
    <clipPath
       clipPathUnits="userSpaceOnUse"
       id="cp15">
      <path
         d="m 589.03,886.01 v 28.94 h -21.41 c -14.29,0 -27.24,-5.79 -36.62,-15.17 -9.39,-9.38 -15.17,-22.33 -15.17,-36.62 h 28.94 c 0,6.31 2.56,12 6.7,16.15 4.14,4.14 9.84,6.7 16.15,6.7 z"
         id="path189485" />
    </clipPath>
    <clipPath
       clipPathUnits="userSpaceOnUse"
       id="cp16">
      <path
         d="m 589.03,811.37 v 28.94 h -21.41 c -2.29,0 -4.51,0.34 -6.61,0.98 -2.11,0.64 -4.06,1.55 -5.85,2.71 -1.34,0.88 -2.56,1.89 -3.69,3.01 -4.14,4.15 -6.7,9.85 -6.7,16.15 h -28.94 c 0,-14.29 5.78,-27.23 15.17,-36.62 2.56,-2.56 5.36,-4.84 8.41,-6.82 8.13,-5.27 17.82,-8.35 28.21,-8.35 z"
         id="path189488" />
    </clipPath>
    <clipPath
       clipPathUnits="userSpaceOnUse"
       id="cp17">
      <path
         d="m 887.17,832.7 v 67.02 l -15.24,15.23 V 832.7 Z"
         id="path189491" />
    </clipPath>
    <clipPath
       clipPathUnits="userSpaceOnUse"
       id="cp18">
      <path
         d="m 871.93,832.7 v 82.25 H 850.61 V 832.7 Z"
         id="path189494" />
    </clipPath>
    <clipPath
       clipPathUnits="userSpaceOnUse"
       id="cp19">
      <path
         d="M 929.06,811.37 V 832.7 H 850.61 V 811.37 Z"
         id="path189497" />
    </clipPath>
    <clipPath
       clipPathUnits="userSpaceOnUse"
       id="cp20">
      <path
         d="m 622.5,1039.86 -15.24,15.23 h -54.07 l 15.23,-15.23 z"
         id="path189500" />
    </clipPath>
    <clipPath
       clipPathUnits="userSpaceOnUse"
       id="cp21">
      <path
         d="m 553.19,974.36 v 80.73 h -21.33 v -80.73 z"
         id="path189503" />
    </clipPath>
    <clipPath
       clipPathUnits="userSpaceOnUse"
       id="cp22">
      <path
         d="m 607.26,1055.09 v 22.85 h -75.4 v -22.85 z"
         id="path189506" />
    </clipPath>
    <clipPath
       clipPathUnits="userSpaceOnUse"
       id="cp23">
      <path
         d="m 777.6,832.7 v 45.69 l -15.23,15.24 V 832.7 Z"
         id="path189509" />
    </clipPath>
    <clipPath
       clipPathUnits="userSpaceOnUse"
       id="cp24">
      <path
         d="m 819.49,796.14 -15.23,15.23 h -63.21 l 15.23,-15.23 z"
         id="path189512" />
    </clipPath>
    <clipPath
       clipPathUnits="userSpaceOnUse"
       id="cp25">
      <path
         d="m 804.26,893.63 v 21.32 H 741.05 V 832.7 h 21.32 v 60.93 z"
         id="path189515" />
    </clipPath>
    <clipPath
       clipPathUnits="userSpaceOnUse"
       id="cp26">
      <path
         d="M 804.26,811.37 V 832.7 H 741.05 V 811.37 Z"
         id="path189518" />
    </clipPath>
    <clipPath
       clipPathUnits="userSpaceOnUse"
       id="cp27">
      <path
         d="m 819.49,878.39 v 21.33 l -15.23,15.23 v -21.32 z"
         id="path189521" />
    </clipPath>
    <clipPath
       clipPathUnits="userSpaceOnUse"
       id="cp28">
      <path
         d="m 400.08,959.13 v 71.59 l -15.24,15.23 v -71.59 z"
         id="path189524" />
    </clipPath>
    <clipPath
       clipPathUnits="userSpaceOnUse"
       id="cp29">
      <path
         d="m 384.83,974.36 v 71.59 H 363.5 v -71.59 z"
         id="path189527" />
    </clipPath>
    <clipPath
       clipPathUnits="userSpaceOnUse"
       id="cp30">
      <path
         d="m 444.03,974.36 v 103.58 H 422.61 V 974.36 Z"
         id="path189530" />
    </clipPath>
    <clipPath
       clipPathUnits="userSpaceOnUse"
       id="cp31">
      <path
         d="m 459.26,959.13 -15.23,15.23 h -21.42 l 15.24,-15.23 z"
         id="path189533" />
    </clipPath>
    <clipPath
       clipPathUnits="userSpaceOnUse"
       id="cp32">
      <path
         d="m 495.82,974.36 c 0,10.39 -3.08,20.08 -8.35,28.21 l -0.03,0.03 c -1.98,3.05 -4.26,5.85 -6.79,8.38 -2.56,2.56 -5.36,4.84 -8.41,6.82 -3.96,2.56 -8.35,4.63 -12.98,6.07 -4.81,1.49 -9.93,2.28 -15.23,2.28 v -21.32 c 3.11,0 6.12,-0.46 8.96,-1.35 2.22,-0.7 4.32,-1.61 6.27,-2.74 0.46,-0.27 0.92,-0.55 1.37,-0.82 1.8,-1.16 3.45,-2.53 4.94,-4.02 1.49,-1.49 2.83,-3.14 3.99,-4.94 h 0.03 c 3.11,-4.78 4.9,-10.48 4.9,-16.6 z"
         id="path189536" />
    </clipPath>
    <clipPath
       clipPathUnits="userSpaceOnUse"
       id="cp33">
      <path
         d="m 790.82,974.36 v 103.58 H 769.5 V 974.36 Z"
         id="path189539" />
    </clipPath>
    <clipPath
       clipPathUnits="userSpaceOnUse"
       id="cp34">
      <path
         d="m 849.56,974.36 v 103.58 H 828.24 V 974.36 Z"
         id="path189542" />
    </clipPath>
    <clipPath
       clipPathUnits="userSpaceOnUse"
       id="cp35">
      <path
         d="m 1106.86,997.18 -15.23,15.23 h -53.4 l 15.23,-15.23 z"
         id="path189545" />
    </clipPath>
    <clipPath
       clipPathUnits="userSpaceOnUse"
       id="cp36">
      <path
         d="m 1091.63,1012.41 c 0,6.58 -1.67,12.8 -4.63,18.22 -1.74,3.2 -3.96,6.15 -6.52,8.71 -3.44,3.44 -7.56,6.22 -12.09,8.17 -4.57,1.92 -9.57,2.98 -14.84,2.98 h -15.32 v -38.08 z"
         id="path189548" />
    </clipPath>
    <clipPath
       clipPathUnits="userSpaceOnUse"
       id="cp37">
      <path
         d="m 1038.23,974.33 v 103.58 H 1016.9 V 974.33 Z"
         id="path189551" />
    </clipPath>
    <clipPath
       clipPathUnits="userSpaceOnUse"
       id="cp38">
      <path
         d="m 266.76,1138.87 v 103.58 h -21.33 v -103.58 z"
         id="path189554" />
    </clipPath>
    <clipPath
       clipPathUnits="userSpaceOnUse"
       id="cp39">
      <path
         d="m 320.16,1176.95 h -53.4 v -38.08 h 15.32 c 10.51,0 20.05,4.27 26.93,11.15 3.35,3.35 6.1,7.31 7.98,11.7 0.07,0.12 0.13,0.28 0.19,0.4 1.92,4.57 2.98,9.59 2.98,14.83 z"
         id="path189557" />
    </clipPath>
    <clipPath
       clipPathUnits="userSpaceOnUse"
       id="cp40">
      <path
         d="m 335.4,1161.72 -15.24,15.23 c 0,-5.24 -1.06,-10.26 -2.98,-14.83 -0.06,-0.12 -0.12,-0.28 -0.19,-0.4 -1.88,-4.39 -4.63,-8.35 -7.98,-11.7 -6.88,-6.88 -16.42,-11.15 -26.93,-11.15 h -36.62 l 15.23,-15.23 h 36.62 c 10.51,0 20.05,4.27 26.94,11.15 3.44,3.44 6.24,7.56 8.16,12.09 1.92,4.57 2.99,9.6 2.99,14.84 z"
         id="path189560" />
    </clipPath>
    <clipPath
       clipPathUnits="userSpaceOnUse"
       id="cp41">
      <path
         d="m 1212.93,1026.09 v 6.12 c 0,8.75 -2.46,16.91 -6.7,23.83 -1.89,3.07 -4.14,5.91 -6.67,8.47 -8.29,8.28 -19.71,13.4 -32.32,13.4 -12.62,0 -24.04,-5.12 -32.33,-13.4 -8.25,-8.26 -13.37,-19.68 -13.37,-32.3 v -6.12 z"
         id="path189563" />
    </clipPath>
    <clipPath
       clipPathUnits="userSpaceOnUse"
       id="cp42">
      <path
         d="m 1167.24,974.3 v 51.79 h -45.7 V 1020 c 0,-12.62 5.12,-24.04 13.37,-32.33 2.56,-2.56 5.42,-4.81 8.53,-6.7 6.95,-4.23 15.08,-6.67 23.8,-6.67 z"
         id="path189566" />
    </clipPath>
    <clipPath
       clipPathUnits="userSpaceOnUse"
       id="cp43">
      <path
         d="m 1182.47,959.07 -15.23,15.23 c -8.72,0 -16.85,2.44 -23.8,6.67 -3.11,1.89 -5.97,4.14 -8.53,6.7 l 15.23,-15.23 c 8.29,-8.26 19.72,-13.37 32.33,-13.37 z"
         id="path189569" />
    </clipPath>
    <clipPath
       clipPathUnits="userSpaceOnUse"
       id="cp44">
      <path
         d="m 1227.65,1015.43 v 21.32 h -60.42 v -21.32 z"
         id="path189572" />
    </clipPath>
    <clipPath
       clipPathUnits="userSpaceOnUse"
       id="cp45">
      <path
         d="m 390.68,1204.37 v 38.08 c -6.58,0 -12.79,-1.67 -18.21,-4.63 -3.2,-1.73 -6.16,-3.96 -8.72,-6.52 -3.44,-3.44 -6.21,-7.55 -8.16,-12.09 -1.92,-4.57 -2.99,-9.57 -2.99,-14.84 z"
         id="path189575" />
    </clipPath>
    <clipPath
       clipPathUnits="userSpaceOnUse"
       id="cp46">
      <path
         d="m 390.69,1176.35 v -10.06"
         id="path189578" />
    </clipPath>
    <clipPath
       clipPathUnits="userSpaceOnUse"
       id="cp47">
      <path
         d="m 405.86,1151.06 -15.17,15.23"
         id="path189581" />
    </clipPath>
    <clipPath
       clipPathUnits="userSpaceOnUse"
       id="cp48">
      <path
         d="m 444.01,1189.14 c 0,10.51 -4.27,20.05 -11.15,26.93 l -15.24,15.23 c 2.56,-2.55 4.79,-5.51 6.52,-8.71 2.96,-5.42 4.63,-11.64 4.63,-18.22 0,-5.24 -1.06,-10.26 -2.98,-14.83 -1.92,-4.54 -4.72,-8.66 -8.17,-12.1 -6.88,-6.88 -16.39,-11.15 -26.9,-11.15 l 15.2,-15.23 c 10.51,0 20.05,4.26 26.94,11.15 3.44,3.44 6.24,7.55 8.16,12.09 1.92,4.57 2.99,9.6 2.99,14.84 z"
         id="path189584" />
    </clipPath>
    <clipPath
       clipPathUnits="userSpaceOnUse"
       id="cp49">
      <path
         d="m 508.92,1123.64 v 103.58 l -15.23,15.23 v -103.58 z"
         id="path189587" />
    </clipPath>
    <clipPath
       clipPathUnits="userSpaceOnUse"
       id="cp50">
      <path
         d="m 493.69,1138.87 v 103.58 h -21.33 v -103.58 z"
         id="path189590" />
    </clipPath>
    <clipPath
       clipPathUnits="userSpaceOnUse"
       id="cp51">
      <path
         d="m 644.13,1189.14 v 0.03 l -15.24,15.2 v 0.03 c 0,6.58 -1.67,12.8 -4.63,18.19 -1.09,0.61 -2.22,1.16 -3.38,1.65 -4.57,1.92 -9.6,2.98 -14.84,2.98 -4.96,0 -9.71,-0.94 -14.07,-2.68 -0.91,-0.36 -1.8,-0.76 -2.68,-1.22 -0.49,-0.21 -0.98,-0.45 -1.46,-0.73 -3.2,-1.74 -6.16,-3.96 -8.72,-6.52 -3.35,-3.35 -6.06,-7.31 -7.98,-11.7 -0.06,-0.12 -0.12,-0.27 -0.18,-0.39 -1.92,-4.57 -2.99,-9.57 -2.99,-14.84 z"
         id="path189593" />
    </clipPath>
    <clipPath
       clipPathUnits="userSpaceOnUse"
       id="cp52">
      <path
         d="m 628.89,1204.37 v 0.03 c 0,6.58 -1.67,12.8 -4.63,18.19 -1.73,3.2 -3.96,6.16 -6.52,8.71 -3.44,3.45 -7.55,6.25 -12.09,8.17 -4.57,1.92 -9.6,2.98 -14.84,2.98 -4.96,0 -9.72,-0.94 -14.07,-2.68 -0.92,-0.36 -1.8,-0.76 -2.68,-1.21 -0.49,-0.22 -0.98,-0.46 -1.47,-0.74 -3.2,-1.73 -6.15,-3.96 -8.71,-6.52 -3.44,-3.44 -6.21,-7.55 -8.16,-12.09 -1.92,-4.57 -2.99,-9.57 -2.99,-14.84 z"
         id="path189596" />
    </clipPath>
    <clipPath
       clipPathUnits="userSpaceOnUse"
       id="cp53">
      <path
         d="m 574.06,1138.87 v 65.5 h -21.33 v -65.5 z"
         id="path189599" />
    </clipPath>
    <clipPath
       clipPathUnits="userSpaceOnUse"
       id="cp54">
      <path
         d="m 1018.33,1227.21 -15.23,15.24 -8.53,-15.24 -20.47,-36.55 15.23,-15.24 z"
         id="path189602" />
    </clipPath>
    <clipPath
       clipPathUnits="userSpaceOnUse"
       id="cp55">
      <path
         d="m 1003.1,1242.45 h -81.89 l 29.03,-51.79 h 23.86 l 20.47,36.55 z"
         id="path189605" />
    </clipPath>
    <clipPath
       clipPathUnits="userSpaceOnUse"
       id="cp56">
      <path
         d="m 1003.1,1138.86 -20.47,36.56 -8.53,15.24 h -23.86 l 11.91,-21.3 17.09,-30.5 z"
         id="path189608" />
    </clipPath>
    <clipPath
       clipPathUnits="userSpaceOnUse"
       id="cp57">
      <path
         d="m 1133.83,1123.63 -15.24,15.23 h -87.62 l 15.24,-15.23 z"
         id="path189611" />
    </clipPath>
    <clipPath
       clipPathUnits="userSpaceOnUse"
       id="cp58">
      <path
         d="m 1118.59,1138.86 -31.8,55.09 -12.01,20.8 -43.81,-75.89 z"
         id="path189614" />
    </clipPath>
    <clipPath
       clipPathUnits="userSpaceOnUse"
       id="cp59">
      <path
         d="m 1240.22,1205.89 -15.23,15.23 h -45.01 l 15.23,-15.23 z"
         id="path189617" />
    </clipPath>
    <clipPath
       clipPathUnits="userSpaceOnUse"
       id="cp60">
      <path
         d="m 1224.99,1221.12 v 21.33 h -57.26 l 12.25,-21.33 z"
         id="path189620" />
    </clipPath>
    <clipPath
       clipPathUnits="userSpaceOnUse"
       id="cp61">
      <path
         d="m 1242.49,1123.63 -15.23,15.23 h -23.73 l 15.23,-15.23 z"
         id="path189623" />
    </clipPath>
    <clipPath
       clipPathUnits="userSpaceOnUse"
       id="cp62">
      <path
         d="m 1227.26,1138.86 -38.51,67.03 -8.77,15.23 -12.25,21.33 h -23.76 l 59.56,-103.59 z"
         id="path189626" />
    </clipPath>
    <clipPath
       clipPathUnits="userSpaceOnUse"
       id="cp63">
      <path
         d="m 350.3,796.14 -15.23,15.23 h -22.85 l 15.23,-15.23 z"
         id="path189629" />
    </clipPath>
    <clipPath
       clipPathUnits="userSpaceOnUse"
       id="cp64">
      <path
         d="m 372.35,914.95 h -24.37 l -17.88,-51.79 -1.43,-4.17 -0.03,-0.06 -5,-14.47 -6.46,18.7 -17.91,51.79 H 274.9 l 18.67,-51.79 18.65,-51.79 h 22.85 l 5.11,14.26 0.03,0.03 13.5,37.5 z"
         id="path189632" />
    </clipPath>
    <clipPath
       clipPathUnits="userSpaceOnUse"
       id="cp65">
      <path
         d="m 387.59,899.72 -15.24,15.23 -18.64,-51.79 -13.5,-37.5 -0.03,-0.03 -5.11,-14.26 15.23,-15.23 0.06,0.18 18.58,51.61 z"
         id="path189635" />
    </clipPath>
    <clipPath
       clipPathUnits="userSpaceOnUse"
       id="cp66">
      <path
         d="M 346.27,909.99 330.1,863.16"
         id="path189638" />
    </clipPath>
    <clipPath
       clipPathUnits="userSpaceOnUse"
       id="cp67">
      <path
         d="m 868.37,537.8 c 0,20.51 -5.22,39.87 -14.43,56.77 -5.41,9.96 -12.34,19.17 -20.31,27.14 -10.73,10.73 -23.54,19.37 -37.68,25.44 -14.24,5.98 -29.81,9.3 -46.23,9.3 h -47.74 v -237.3 h 47.74 c 32.75,0 62.46,13.29 83.91,34.74 10.73,10.73 19.46,23.55 25.44,37.69 5.98,14.24 9.3,29.9 9.3,46.22 z"
         id="path189641" />
    </clipPath>
    <clipPath
       clipPathUnits="userSpaceOnUse"
       id="cp68">
      <path
         d="m 915.83,490.34 c 0,32.75 -13.29,62.46 -34.74,83.91 l -47.46,47.46 c 7.97,-7.97 14.9,-17.18 20.31,-27.14 9.21,-16.9 14.43,-36.26 14.43,-56.77 0,-16.32 -3.32,-31.98 -9.3,-46.22 -5.98,-14.14 -14.71,-26.96 -25.44,-37.69 -21.45,-21.45 -51.16,-34.74 -83.91,-34.74 h -47.74 l 47.46,-47.45 h 47.74 c 32.75,0 62.46,13.28 83.91,34.74 10.73,10.72 19.46,23.54 25.44,37.68 5.98,14.24 9.3,29.9 9.3,46.22 z"
         id="path189644" />
    </clipPath>
    <clipPath
       clipPathUnits="userSpaceOnUse"
       id="cp69">
      <path
         d="m 1256.27,286.27 -47.55,47.46 h -66.73 c -32.37,0 -62.55,9.58 -87.89,26.01 -9.49,6.17 -18.23,13.28 -26.2,21.26 l 47.46,-47.46 c 29.23,-29.24 69.57,-47.27 114.09,-47.27 z"
         id="path189647" />
    </clipPath>
    <clipPath
       clipPathUnits="userSpaceOnUse"
       id="cp70">
      <path
         d="m 1256.27,518.72 v 90.27 l -47.55,47.46 v -90.17 z"
         id="path189650" />
    </clipPath>
    <clipPath
       clipPathUnits="userSpaceOnUse"
       id="cp71">
      <path
         d="m 1256.27,286.27 v 90.08 l -47.55,47.55 v -90.17 z"
         id="path189653" />
    </clipPath>
    <clipPath
       clipPathUnits="userSpaceOnUse"
       id="cp72">
      <path
         d="m 1208.72,566.28 v 90.17 h -66.73 c -44.51,0 -84.86,-18.03 -114.09,-47.27 -29.24,-29.23 -47.27,-69.57 -47.27,-114.09 h 90.17 c 0,19.65 7.98,37.4 20.88,50.31 12.91,12.91 30.66,20.88 50.31,20.88 z"
         id="path189656" />
    </clipPath>
    <clipPath
       clipPathUnits="userSpaceOnUse"
       id="cp73">
      <path
         d="m 1208.72,333.73 v 90.17 h -66.73 c -7.12,0 -14.05,1.04 -20.6,3.04 -6.55,1.99 -12.62,4.84 -18.22,8.45 -4.18,2.75 -7.97,5.88 -11.49,9.39 -12.9,12.91 -20.88,30.66 -20.88,50.31 h -90.17 c 0,-44.52 18.03,-84.86 47.27,-114.09 7.97,-7.98 16.71,-15.09 26.2,-21.26 25.34,-16.43 55.52,-26.01 87.89,-26.01 z"
         id="path189659" />
    </clipPath>
    <clipPath
       clipPathUnits="userSpaceOnUse"
       id="cp74">
      <path
         d="m 464.9,286.27 -47.46,47.46 h -71.19 l 47.46,-47.46 z"
         id="path189662" />
    </clipPath>
    <clipPath
       clipPathUnits="userSpaceOnUse"
       id="cp75">
      <path
         d="m 533.62,656.45 h -75.93 l -55.72,-161.36 -4.46,-13 -0.1,-0.19 -15.56,-45.09 -20.12,58.28 -55.82,161.36 h -75.93 l 58.18,-161.36 58.09,-161.36 h 71.19 l 15.95,44.42 0.09,0.09 42.05,116.85 z"
         id="path189665" />
    </clipPath>
    <clipPath
       clipPathUnits="userSpaceOnUse"
       id="cp76">
      <path
         d="m 581.08,608.99 -47.46,47.46 -58.09,-161.36 -42.05,-116.85 -0.09,-0.09 -15.95,-44.42 47.46,-47.46 0.19,0.57 57.9,160.79 z"
         id="path189668" />
    </clipPath>
    <clipPath
       clipPathUnits="userSpaceOnUse"
       id="cp77">
      <path
         d="M 452.35,640.98 401.97,495.09"
         id="path189671" />
    </clipPath>
    <clipPath
       clipPathUnits="userSpaceOnUse"
       id="cp78">
      <path
         d="m 718.23,847.93 -15.24,15.23 H 651.2 l 15.24,-15.23 z"
         id="path189674" />
    </clipPath>
    <clipPath
       clipPathUnits="userSpaceOnUse"
       id="cp79">
      <path
         d="m 702.99,863.16 c 0,10.39 -3.07,20.08 -8.34,28.21 l -0.03,0.03 c -1.98,3.05 -4.27,5.85 -6.8,8.38 -2.56,2.56 -5.36,4.84 -8.41,6.83 -8.13,5.27 -17.82,8.34 -28.21,8.34 v -51.79 z"
         id="path189677" />
    </clipPath>
    <clipPath
       clipPathUnits="userSpaceOnUse"
       id="cp80">
      <path
         d="m 666.44,796.14 -15.24,15.23 h -21.41 l 15.23,-15.23 z"
         id="path189680" />
    </clipPath>
    <clipPath
       clipPathUnits="userSpaceOnUse"
       id="cp81">
      <path
         d="m 1041.71,796.12 v 28.91 l -15.27,15.27 v -28.94 z"
         id="path189683" />
    </clipPath>
    <clipPath
       clipPathUnits="userSpaceOnUse"
       id="cp82">
      <path
         d="m 1026.44,811.36 v 28.94 h -21.41 c -2.29,0 -4.51,0.33 -6.61,0.97 -2.11,0.64 -4.06,1.56 -5.85,2.71 -1.34,0.89 -2.56,1.89 -3.69,3.02 -4.14,4.14 -6.7,9.84 -6.7,16.15 h -28.94 c 0,-14.29 5.78,-27.24 15.17,-36.62 2.56,-2.56 5.36,-4.85 8.41,-6.83 8.13,-5.27 17.82,-8.34 28.21,-8.34 z"
         id="path189686" />
    </clipPath>
    <clipPath
       clipPathUnits="userSpaceOnUse"
       id="cp83">
      <path
         d="m 993.72,1010.89 -15.24,15.23 h -45.69 l 15.23,-15.23 z"
         id="path189689" />
    </clipPath>
    <clipPath
       clipPathUnits="userSpaceOnUse"
       id="cp84">
      <path
         d="m 978.48,1026.12 v 6.12 c 0,8.75 -2.46,16.91 -6.7,23.83 -1.89,3.07 -4.14,5.91 -6.67,8.47 -8.29,8.28 -19.71,13.4 -32.32,13.4 -12.62,0 -24.04,-5.12 -32.33,-13.4 -8.25,-8.26 -13.37,-19.68 -13.37,-32.3 v -6.12 z"
         id="path189692" />
    </clipPath>
    <clipPath
       clipPathUnits="userSpaceOnUse"
       id="cp85">
      <path
         d="m 993.72,1010.89 v 6.12 c 0,12.61 -5.12,24.04 -13.38,32.29 l -15.23,15.24 c 2.53,-2.56 4.78,-5.4 6.67,-8.47 4.24,-6.92 6.7,-15.08 6.7,-23.83 v -6.12 z"
         id="path189695" />
    </clipPath>
    <clipPath
       clipPathUnits="userSpaceOnUse"
       id="cp86">
      <path
         d="m 664.88,974.36 v 103.58 H 643.56 V 974.36 Z"
         id="path189698" />
    </clipPath>
    <clipPath
       clipPathUnits="userSpaceOnUse"
       id="cp87">
      <path
         d="m 664.88,974.36 15.24,-15.23"
         id="path189701" />
    </clipPath>
    <clipPath
       clipPathUnits="userSpaceOnUse"
       id="cp88">
      <path
         d="m 680.12,959.13 -15.24,15.23 h -21.32 l 15.23,-15.23 z"
         id="path189704" />
    </clipPath>
    <clipPath
       clipPathUnits="userSpaceOnUse"
       id="cp89">
      <path
         d="m 744.09,959.13 v 103.58 l -15.23,15.23 V 974.36 Z"
         id="path189707" />
    </clipPath>
    <clipPath
       clipPathUnits="userSpaceOnUse"
       id="cp90">
      <path
         d="m 728.86,974.36 v 103.58 H 707.53 V 974.36 Z"
         id="path189710" />
    </clipPath>
    <clipPath
       clipPathUnits="userSpaceOnUse"
       id="cp91">
      <path
         d="M 822.62,1242.45 H 800.6 l -15.66,-103.59 h 22.02 l 12.01,88.35 z"
         id="path189713" />
    </clipPath>
    <clipPath
       clipPathUnits="userSpaceOnUse"
       id="cp92">
      <path
         d="m 853.72,1160.96 -15.87,66.25 -15.23,15.24 15.86,-66.25 z"
         id="path189716" />
    </clipPath>
    <clipPath
       clipPathUnits="userSpaceOnUse"
       id="cp93">
      <path
         d="m 892.02,1138.86 -12.92,88.35 -2.74,15.24 h -22.02 l 3.65,-15.24 12.01,-88.35 z"
         id="path189719" />
    </clipPath>
  </defs>
  <style
     id="style189724">
		tspan { white-space:pre }
		.shp0 { fill: #ffffff } 
		.shp1 { fill: #ffb20f }
		.shp2 { fill: #484849 }
		.shp3 { fill: #dd426a } 
		.shp4 { fill: #25c9d0 }
	</style>
  <g
     id="g217686"
     transform="translate(-951.71,-794.6)">
    <g
       id="g217678">
      <g
         id="g217168">
        <path
           id="path217164"
           class="shp3"
           d="m 1041.71,796.12 -15.27,15.24 h -21.41 c -10.39,0 -20.08,3.07 -28.21,8.34 -3.05,1.98 -5.85,4.27 -8.41,6.83 l 15.23,-15.24 c 9.38,-9.38 22.33,-15.17 36.62,-15.17 z" />
        <path
           id="path217166"
           fill-rule="evenodd"
           class="shp2"
           d="m 968.41,828.05 c -0.39,0 -0.78,-0.15 -1.08,-0.45 -0.59,-0.59 -0.59,-1.56 0,-2.15 l 15.23,-15.23 c 10.07,-10.07 23.46,-15.62 37.7,-15.62 h 21.45 c 0.61,0 1.17,0.37 1.4,0.94 0.24,0.57 0.11,1.22 -0.33,1.66 l -15.26,15.23 c -0.28,0.29 -0.67,0.45 -1.08,0.45 h -21.41 c -9.74,0 -19.2,2.8 -27.39,8.1 -2.91,1.89 -5.65,4.12 -8.16,6.62 -0.29,0.3 -0.68,0.45 -1.07,0.45 z m 51.85,-30.4 c -13.42,0 -26.05,5.23 -35.54,14.72 l -2.66,2.65 c 7.15,-3.41 14.98,-5.19 22.97,-5.19 h 20.78 l 12.21,-12.18 z" />
      </g>
      <g
         id="g217286">
        <g
           id="g217282"
           clip-path="url(#cp81)">
          <g
             id="g217224">
            <g
               id="g217172">
              <path
                 id="path217170"
                 class="shp4"
                 d="m 1060.98,796.88 h -45.69 v -45.7 h 45.69 z" />
            </g>
            <g
               id="g217222">
              <g
                 id="g217176">
                <path
                   id="path217174"
                   class="shp1"
                   d="m 1034.01,793.78 c 1.19,0 2.38,-0.37 3.41,-1.12 1.31,-0.96 2.15,-2.44 2.32,-4.05 0.08,-0.84 -0.53,-1.59 -1.36,-1.67 -0.81,-0.07 -1.59,0.52 -1.67,1.36 -0.08,0.77 -0.47,1.45 -1.1,1.9 -1.2,0.89 -2.9,0.63 -3.79,-0.58 -0.5,-0.67 -1.45,-0.82 -2.13,-0.32 -0.68,0.5 -0.82,1.45 -0.32,2.13 1.12,1.53 2.87,2.35 4.64,2.35 z" />
              </g>
              <g
                 id="g217180">
                <path
                   id="path217178"
                   class="shp1"
                   d="m 1036.8,770.39 0.28,-0.23 c 0.65,-0.53 1.63,-1.32 1.95,-2.62 0.2,-0.82 -0.3,-1.64 -1.12,-1.84 -0.81,-0.2 -1.64,0.3 -1.84,1.12 -0.07,0.3 -0.53,0.67 -0.9,0.96 0,0 -0.29,0.24 -0.29,0.24 -0.64,0.52 -1.62,1.31 -1.93,2.61 -0.32,1.3 0.19,2.45 0.53,3.21 0.1,0.23 0.15,0.34 0.15,0.35 0.19,0.43 0.43,0.96 0.36,1.26 -0.2,0.81 0.3,1.64 1.12,1.84 0.12,0.03 0.24,0.04 0.36,0.04 0.68,0 1.31,-0.47 1.48,-1.17 0.31,-1.3 -0.2,-2.45 -0.54,-3.21 l -0.15,-0.34 c -0.19,-0.43 -0.42,-0.97 -0.35,-1.27 0.07,-0.29 0.52,-0.66 0.89,-0.95 z" />
              </g>
              <g
                 id="g217184">
                <path
                   id="path217182"
                   class="shp1"
                   d="m 1024.51,768.93 c 0.11,-0.83 0.29,-2.07 -0.38,-3.23 -0.66,-1.16 -1.81,-1.65 -2.58,-1.98 0,0 -0.12,-0.05 -0.35,-0.15 -0.44,-0.18 -0.97,-0.4 -1.12,-0.67 -0.42,-0.73 -1.34,-0.98 -2.08,-0.57 -0.73,0.42 -0.99,1.35 -0.57,2.08 0.66,1.16 1.82,1.65 2.59,1.97 l 0.35,0.15 c 0.43,0.18 0.97,0.41 1.12,0.68 0.15,0.26 0.07,0.84 0,1.3 l -0.05,0.38 c -0.11,0.82 -0.28,2.07 0.38,3.23 0.28,0.49 0.8,0.77 1.32,0.77 0.26,0 0.52,-0.06 0.76,-0.2 0.73,-0.42 0.98,-1.35 0.57,-2.08 -0.15,-0.26 -0.07,-0.84 -0.01,-1.3 0,0 0.02,-0.13 0.05,-0.38 z" />
              </g>
              <g
                 id="g217188">
                <path
                   id="path217186"
                   class="shp1"
                   d="m 1051.62,790.62 c 0.35,-0.76 0.87,-1.91 0.57,-3.21 -0.31,-1.31 -1.28,-2.11 -1.92,-2.64 l -0.29,-0.24 c -0.36,-0.3 -0.81,-0.67 -0.88,-0.96 -0.07,-0.3 0.17,-0.83 0.36,-1.26 l 0.16,-0.34 c 0.34,-0.76 0.86,-1.9 0.56,-3.21 -0.3,-1.31 -1.28,-2.11 -1.92,-2.63 l -0.29,-0.24 c -0.36,-0.3 -0.81,-0.67 -0.88,-0.97 -0.19,-0.82 -1.01,-1.32 -1.83,-1.14 -0.82,0.19 -1.33,1.01 -1.14,1.83 0.3,1.31 1.27,2.1 1.92,2.63 0.19,0.16 0.29,0.24 0.29,0.24 0.36,0.3 0.81,0.67 0.88,0.97 0.07,0.3 -0.17,0.83 -0.37,1.26 0,0 -0.05,0.11 -0.15,0.34 -0.34,0.76 -0.86,1.9 -0.56,3.2 0.3,1.31 1.27,2.11 1.91,2.63 0.2,0.17 0.29,0.25 0.3,0.25 0.36,0.29 0.81,0.67 0.88,0.96 0.07,0.3 -0.17,0.84 -0.37,1.27 -0.1,0.22 -0.15,0.34 -0.15,0.34 -0.35,0.75 -0.87,1.9 -0.56,3.2 0.16,0.71 0.79,1.18 1.48,1.18 0.11,0 0.23,-0.01 0.35,-0.04 0.82,-0.19 1.33,-1.01 1.13,-1.83 -0.06,-0.29 0.18,-0.83 0.37,-1.25 z" />
              </g>
              <g
                 id="g217192">
                <path
                   id="path217190"
                   class="shp1"
                   d="m 1018.03,782.11 0.36,-0.12 c 0.44,-0.15 0.99,-0.34 1.29,-0.24 0.28,0.1 0.61,0.59 0.87,0.98 l 0.21,0.31 c 0.46,0.69 1.16,1.74 2.42,2.17 0.41,0.14 0.8,0.19 1.18,0.19 0.81,0 1.54,-0.25 2.08,-0.43 l 0.35,-0.12 c 0.45,-0.15 1,-0.33 1.29,-0.24 0.8,0.28 1.66,-0.15 1.93,-0.95 0.27,-0.8 -0.15,-1.66 -0.95,-1.93 -1.26,-0.43 -2.46,-0.03 -3.25,0.24 0,0 -0.12,0.04 -0.35,0.12 -0.45,0.15 -1.01,0.33 -1.29,0.24 -0.29,-0.1 -0.61,-0.59 -0.88,-0.98 l -0.21,-0.31 c -0.46,-0.69 -1.16,-1.74 -2.42,-2.17 -1.27,-0.44 -2.46,-0.03 -3.25,0.24 l -0.36,0.12 c -0.44,0.15 -1,0.32 -1.28,0.24 -0.16,-0.06 -0.32,-0.23 -0.48,-0.43 v 3.41 c 1.07,0.19 2.06,-0.11 2.74,-0.34 z" />
              </g>
              <g
                 id="g217196">
                <path
                   id="path217194"
                   class="shp1"
                   d="m 1040.89,756.7 0.23,-0.29 c 0.29,-0.38 0.64,-0.84 0.94,-0.92 0.29,-0.06 0.83,0.15 1.27,0.33 l 0.34,0.15 c 0.77,0.32 1.93,0.81 3.23,0.47 0.81,-0.21 1.3,-1.04 1.08,-1.86 -0.21,-0.81 -1.04,-1.29 -1.86,-1.09 -0.29,0.1 -0.83,-0.14 -1.26,-0.33 -0.01,0 -0.36,-0.14 -0.36,-0.14 -0.76,-0.33 -1.91,-0.82 -3.21,-0.47 -1.3,0.34 -2.07,1.33 -2.58,1.99 l -0.23,0.29 c -0.29,0.37 -0.65,0.84 -0.94,0.91 -0.28,0.1 -0.84,-0.14 -1.27,-0.33 l -0.34,-0.14 c -0.77,-0.32 -1.93,-0.81 -3.23,-0.48 -1.29,0.35 -2.06,1.34 -2.57,2 l -0.24,0.3 c -0.28,0.37 -0.64,0.83 -0.94,0.9 -0.81,0.22 -1.3,1.05 -1.09,1.86 0.18,0.69 0.8,1.14 1.48,1.14 0.13,0 0.26,-0.02 0.39,-0.05 1.29,-0.34 2.06,-1.33 2.57,-1.99 l 0.23,-0.3 c 0.29,-0.37 0.65,-0.83 0.95,-0.91 0.3,-0.08 0.83,0.15 1.26,0.34 0,0 0.35,0.14 0.35,0.14 0.77,0.33 1.92,0.81 3.22,0.47 1.3,-0.34 2.07,-1.33 2.58,-1.99 z" />
              </g>
              <g
                 id="g217200">
                <path
                   id="path217198"
                   class="shp1"
                   d="m 1060.98,792.23 c -0.94,0.58 -1.7,1.4 -2.18,2.42 -0.34,0.71 -0.52,1.47 -0.56,2.23 h 2.74 z" />
              </g>
              <g
                 id="g217204">
                <path
                   id="path217202"
                   class="shp1"
                   d="m 1016.07,756.41 c 0.19,0.08 0.39,0.12 0.59,0.12 0.59,0 1.16,-0.35 1.4,-0.94 0.33,-0.77 -0.04,-1.67 -0.81,-1.99 -0.71,-0.3 -1.26,-0.88 -1.51,-1.6 -0.1,-0.27 -0.11,-0.55 -0.12,-0.82 h -0.33 v 4.8 c 0.25,0.16 0.5,0.31 0.78,0.43 z" />
              </g>
              <g
                 id="g217208">
                <path
                   id="path217206"
                   class="shp1"
                   d="m 1017.39,794.58 c 0.8,-0.28 1.21,-1.15 0.93,-1.94 -0.28,-0.8 -1.14,-1.21 -1.94,-0.93 -0.39,0.13 -0.75,0.31 -1.09,0.52 v 4.65 h 0.32 c 0.04,-0.31 0.1,-0.62 0.24,-0.91 0.31,-0.66 0.86,-1.15 1.54,-1.39 z" />
              </g>
              <g
                 id="g217212">
                <path
                   id="path217210"
                   class="shp1"
                   d="m 1053.38,768.86 c 0,0.84 0.68,1.52 1.52,1.52 0.84,0 1.52,-0.68 1.52,-1.52 0,-3.17 -2.58,-5.76 -5.76,-5.76 -1.62,0 -3.18,0.69 -4.27,1.9 -0.56,0.62 -0.52,1.58 0.11,2.15 0.62,0.56 1.58,0.52 2.15,-0.11 0.52,-0.57 1.25,-0.89 2.01,-0.89 1.5,0 2.72,1.21 2.72,2.71 z" />
              </g>
              <g
                 id="g217216">
                <path
                   id="path217214"
                   class="shp1"
                   d="m 1058.56,753.01 c 0.44,1.25 1.31,2.28 2.42,2.97 v -4.8 h -2.72 c 0.01,0.62 0.09,1.23 0.3,1.83 z" />
              </g>
              <g
                 id="g217220">
                <path
                   id="path217218"
                   class="shp1"
                   d="m 1056.97,778.89 c 0.29,0.1 0.62,0.58 0.88,0.97 l 0.2,0.31 c 0.46,0.7 1.16,1.74 2.43,2.18 0.17,0.06 0.34,0.07 0.5,0.1 v -3.41 c -0.13,-0.17 -0.27,-0.37 -0.39,-0.55 0,0 -0.21,-0.31 -0.21,-0.32 -0.46,-0.69 -1.16,-1.73 -2.43,-2.17 -0.79,-0.26 -1.66,0.16 -1.93,0.96 -0.27,0.79 0.16,1.66 0.95,1.93 z" />
              </g>
            </g>
          </g>
          <g
             id="g217280">
            <g
               id="g217228">
              <path
                 id="path217226"
                 class="shp4"
                 d="m 1060.98,842.57 h -45.69 v -45.69 h 45.69 z" />
            </g>
            <g
               id="g217278">
              <g
                 id="g217232">
                <path
                   id="path217230"
                   class="shp1"
                   d="m 1034.01,839.47 c 1.19,0 2.38,-0.36 3.41,-1.11 1.31,-0.96 2.15,-2.44 2.32,-4.06 0.08,-0.83 -0.53,-1.58 -1.36,-1.67 -0.81,-0.06 -1.59,0.53 -1.67,1.36 -0.08,0.77 -0.47,1.45 -1.1,1.91 -1.2,0.89 -2.9,0.63 -3.79,-0.58 -0.5,-0.67 -1.45,-0.82 -2.13,-0.32 -0.68,0.5 -0.82,1.45 -0.32,2.13 1.12,1.53 2.87,2.34 4.64,2.34 z" />
              </g>
              <g
                 id="g217236">
                <path
                   id="path217234"
                   class="shp1"
                   d="m 1036.8,816.09 0.28,-0.23 c 0.65,-0.53 1.63,-1.32 1.95,-2.62 0.2,-0.82 -0.3,-1.65 -1.12,-1.84 -0.81,-0.2 -1.64,0.3 -1.84,1.12 -0.07,0.3 -0.53,0.67 -0.9,0.96 0,0 -0.29,0.24 -0.29,0.24 -0.64,0.52 -1.62,1.31 -1.93,2.61 -0.32,1.3 0.19,2.45 0.53,3.21 0.1,0.23 0.15,0.34 0.15,0.34 0.19,0.43 0.43,0.97 0.36,1.26 -0.2,0.82 0.3,1.65 1.12,1.84 0.12,0.03 0.24,0.05 0.36,0.05 0.68,0 1.31,-0.47 1.48,-1.17 0.31,-1.3 -0.2,-2.45 -0.54,-3.22 l -0.15,-0.33 c -0.19,-0.43 -0.42,-0.97 -0.35,-1.27 0.07,-0.29 0.52,-0.66 0.89,-0.95 z" />
              </g>
              <g
                 id="g217240">
                <path
                   id="path217238"
                   class="shp1"
                   d="m 1024.51,814.63 c 0.11,-0.83 0.29,-2.07 -0.38,-3.23 -0.66,-1.17 -1.81,-1.65 -2.58,-1.98 0,0 -0.12,-0.05 -0.35,-0.15 -0.44,-0.18 -0.97,-0.41 -1.12,-0.67 -0.42,-0.73 -1.34,-0.98 -2.08,-0.57 -0.73,0.41 -0.99,1.35 -0.57,2.08 0.66,1.16 1.82,1.65 2.59,1.97 l 0.35,0.15 c 0.43,0.18 0.97,0.41 1.12,0.67 0.15,0.27 0.07,0.84 0,1.31 l -0.05,0.38 c -0.11,0.82 -0.28,2.07 0.38,3.23 0.28,0.49 0.8,0.77 1.32,0.77 0.26,0 0.52,-0.07 0.76,-0.2 0.73,-0.42 0.98,-1.35 0.57,-2.08 -0.15,-0.26 -0.07,-0.84 -0.01,-1.31 0,0 0.02,-0.12 0.05,-0.37 z" />
              </g>
              <g
                 id="g217244">
                <path
                   id="path217242"
                   class="shp1"
                   d="m 1051.62,836.32 c 0.35,-0.76 0.87,-1.91 0.57,-3.22 -0.31,-1.3 -1.28,-2.1 -1.92,-2.63 l -0.29,-0.24 c -0.36,-0.3 -0.81,-0.67 -0.88,-0.96 -0.07,-0.3 0.17,-0.83 0.36,-1.26 l 0.16,-0.34 c 0.34,-0.76 0.86,-1.91 0.56,-3.21 -0.3,-1.31 -1.28,-2.11 -1.92,-2.64 l -0.29,-0.23 c -0.36,-0.3 -0.81,-0.67 -0.88,-0.97 -0.19,-0.82 -1.01,-1.33 -1.83,-1.14 -0.82,0.19 -1.33,1.01 -1.14,1.83 0.3,1.3 1.27,2.1 1.92,2.63 0.19,0.16 0.29,0.24 0.29,0.24 0.36,0.3 0.81,0.67 0.88,0.97 0.07,0.29 -0.17,0.83 -0.37,1.26 0,0 -0.05,0.11 -0.15,0.34 -0.34,0.76 -0.86,1.9 -0.56,3.2 0.3,1.31 1.27,2.1 1.91,2.63 0.2,0.16 0.29,0.24 0.3,0.24 0.36,0.3 0.81,0.67 0.88,0.97 0.07,0.3 -0.17,0.84 -0.37,1.26 -0.1,0.23 -0.15,0.34 -0.15,0.35 -0.35,0.75 -0.87,1.9 -0.56,3.2 0.16,0.7 0.79,1.18 1.48,1.18 0.11,0 0.23,-0.02 0.35,-0.04 0.82,-0.19 1.33,-1.01 1.13,-1.83 -0.06,-0.3 0.18,-0.83 0.37,-1.25 z" />
              </g>
              <g
                 id="g217248">
                <path
                   id="path217246"
                   class="shp1"
                   d="m 1018.03,827.81 0.36,-0.12 c 0.44,-0.15 0.99,-0.34 1.29,-0.24 0.28,0.1 0.61,0.58 0.87,0.97 l 0.21,0.32 c 0.46,0.69 1.16,1.74 2.42,2.17 0.41,0.14 0.8,0.19 1.18,0.19 0.81,0 1.54,-0.25 2.08,-0.43 l 0.35,-0.12 c 0.45,-0.15 1,-0.33 1.29,-0.24 0.8,0.27 1.66,-0.15 1.93,-0.95 0.27,-0.8 -0.15,-1.66 -0.95,-1.93 -1.26,-0.43 -2.46,-0.03 -3.25,0.23 0,0 -0.12,0.04 -0.35,0.12 -0.45,0.15 -1.01,0.34 -1.29,0.24 -0.29,-0.09 -0.61,-0.58 -0.88,-0.97 l -0.21,-0.31 c -0.46,-0.7 -1.16,-1.74 -2.42,-2.17 -1.27,-0.44 -2.46,-0.03 -3.25,0.23 l -0.36,0.12 c -0.44,0.15 -1,0.33 -1.28,0.24 -0.16,-0.05 -0.32,-0.22 -0.48,-0.42 v 3.41 c 1.07,0.19 2.06,-0.11 2.74,-0.34 z" />
              </g>
              <g
                 id="g217252">
                <path
                   id="path217250"
                   class="shp1"
                   d="m 1040.89,802.4 0.23,-0.29 c 0.29,-0.38 0.64,-0.84 0.94,-0.92 0.29,-0.06 0.83,0.15 1.27,0.33 l 0.34,0.15 c 0.77,0.32 1.93,0.81 3.23,0.47 0.81,-0.21 1.3,-1.04 1.08,-1.86 -0.21,-0.81 -1.04,-1.29 -1.86,-1.09 -0.29,0.09 -0.83,-0.15 -1.26,-0.33 -0.01,0 -0.36,-0.15 -0.36,-0.15 -0.76,-0.32 -1.91,-0.81 -3.21,-0.46 -1.3,0.33 -2.07,1.33 -2.58,1.99 l -0.23,0.29 c -0.29,0.37 -0.65,0.83 -0.94,0.91 -0.28,0.1 -0.84,-0.15 -1.27,-0.33 l -0.34,-0.14 c -0.77,-0.33 -1.93,-0.81 -3.23,-0.48 -1.29,0.34 -2.06,1.34 -2.57,1.99 l -0.24,0.3 c -0.28,0.37 -0.64,0.84 -0.94,0.91 -0.81,0.22 -1.3,1.05 -1.09,1.86 0.18,0.69 0.8,1.14 1.48,1.14 0.13,0 0.26,-0.02 0.39,-0.05 1.29,-0.34 2.06,-1.33 2.57,-1.99 l 0.23,-0.3 c 0.29,-0.37 0.65,-0.83 0.95,-0.91 0.3,-0.08 0.83,0.15 1.26,0.33 0,0 0.35,0.15 0.35,0.15 0.77,0.32 1.92,0.81 3.22,0.47 1.3,-0.34 2.07,-1.34 2.58,-1.99 z" />
              </g>
              <g
                 id="g217256">
                <path
                   id="path217254"
                   class="shp1"
                   d="m 1060.98,837.93 c -0.94,0.57 -1.7,1.4 -2.18,2.42 -0.34,0.71 -0.52,1.46 -0.56,2.22 h 2.74 z" />
              </g>
              <g
                 id="g217260">
                <path
                   id="path217258"
                   class="shp1"
                   d="m 1016.07,802.11 c 0.19,0.08 0.39,0.12 0.59,0.12 0.59,0 1.16,-0.36 1.4,-0.94 0.33,-0.78 -0.04,-1.67 -0.81,-1.99 -0.71,-0.3 -1.26,-0.88 -1.51,-1.6 -0.1,-0.27 -0.11,-0.55 -0.12,-0.82 h -0.33 v 4.8 c 0.25,0.15 0.5,0.31 0.78,0.43 z" />
              </g>
              <g
                 id="g217264">
                <path
                   id="path217262"
                   class="shp1"
                   d="m 1017.39,840.28 c 0.8,-0.28 1.21,-1.15 0.93,-1.95 -0.28,-0.79 -1.14,-1.2 -1.94,-0.93 -0.39,0.14 -0.75,0.32 -1.09,0.53 v 4.64 h 0.32 c 0.04,-0.31 0.1,-0.62 0.24,-0.91 0.31,-0.65 0.86,-1.14 1.54,-1.38 z" />
              </g>
              <g
                 id="g217268">
                <path
                   id="path217266"
                   class="shp1"
                   d="m 1053.38,814.56 c 0,0.84 0.68,1.52 1.52,1.52 0.84,0 1.52,-0.68 1.52,-1.52 0,-3.18 -2.58,-5.76 -5.76,-5.76 -1.62,0 -3.18,0.69 -4.27,1.89 -0.56,0.63 -0.52,1.59 0.11,2.16 0.62,0.55 1.58,0.51 2.15,-0.11 0.52,-0.57 1.25,-0.89 2.01,-0.89 1.5,0 2.72,1.21 2.72,2.71 z" />
              </g>
              <g
                 id="g217272">
                <path
                   id="path217270"
                   class="shp1"
                   d="m 1058.56,798.71 c 0.44,1.25 1.31,2.28 2.42,2.97 v -4.8 h -2.72 c 0.01,0.61 0.09,1.23 0.3,1.83 z" />
              </g>
              <g
                 id="g217276">
                <path
                   id="path217274"
                   class="shp1"
                   d="m 1056.97,824.59 c 0.29,0.1 0.62,0.58 0.88,0.97 l 0.2,0.31 c 0.46,0.69 1.16,1.74 2.43,2.18 0.17,0.06 0.34,0.07 0.5,0.1 v -3.41 c -0.13,-0.17 -0.27,-0.37 -0.39,-0.56 0,0 -0.21,-0.31 -0.21,-0.31 -0.46,-0.69 -1.16,-1.74 -2.43,-2.17 -0.79,-0.27 -1.66,0.16 -1.93,0.96 -0.27,0.79 0.16,1.66 0.95,1.93 z" />
              </g>
            </g>
          </g>
        </g>
        <path
           id="path217284"
           fill-rule="evenodd"
           class="shp2"
           d="m 1026.44,841.82 c -0.19,0 -0.39,-0.04 -0.58,-0.12 -0.57,-0.23 -0.94,-0.79 -0.94,-1.4 v -28.95 c 0,-0.4 0.16,-0.79 0.45,-1.07 l 15.26,-15.24 c 0.44,-0.43 1.1,-0.56 1.66,-0.32 0.57,0.23 0.94,0.79 0.94,1.4 v 28.91 c 0,0.41 -0.16,0.8 -0.45,1.08 l -15.26,15.26 c -0.29,0.3 -0.68,0.45 -1.08,0.45 z m 1.53,-29.83 v 24.63 l 12.21,-12.22 v -24.61 z" />
      </g>
      <g
         id="g217292">
        <path
           id="path217288"
           class="shp1"
           d="m 1026.44,886 v 28.94 h -21.41 c -14.29,0 -27.24,-5.79 -36.62,-15.17 -9.39,-9.39 -15.17,-22.34 -15.17,-36.62 h 28.94 c 0,6.3 2.56,12 6.7,16.14 4.14,4.15 9.84,6.71 16.15,6.71 z" />
        <path
           id="path217290"
           fill-rule="evenodd"
           class="shp2"
           d="m 1026.44,916.46 h -21.41 c -14.24,0 -27.63,-5.55 -37.7,-15.62 -10.07,-10.07 -15.62,-23.46 -15.62,-37.69 0,-0.85 0.68,-1.53 1.53,-1.53 h 28.94 c 0.84,0 1.52,0.68 1.52,1.53 0,5.68 2.22,11.03 6.26,15.07 4.03,4.03 9.38,6.25 15.07,6.25 h 21.41 c 0.85,0 1.53,0.68 1.53,1.52 v 28.95 c 0,0.84 -0.68,1.52 -1.53,1.52 z m -71.66,-51.79 c 0.38,12.85 5.57,24.88 14.7,34.02 9.5,9.49 22.12,14.72 35.55,14.72 h 19.89 v -25.89 h -19.89 c -6.5,0 -12.62,-2.54 -17.23,-7.15 -4.25,-4.25 -6.73,-9.78 -7.1,-15.7 z" />
      </g>
      <g
         id="g217634">
        <g
           id="g217630"
           clip-path="url(#cp82)">
          <g
             id="g217348">
            <path
               id="path217294"
               class="shp0"
               d="m 1027.32,840.42 h -33.29 v -33.29 h 33.29 z" />
            <g
               id="g217346">
              <path
                 id="path217296"
                 class="shp2"
                 d="m 998.17,826.17 c 0.68,0 1.26,-0.51 1.34,-1.2 0.09,-0.74 -0.44,-1.41 -1.19,-1.5 l -3.04,-0.35 c -0.5,-0.05 -0.97,0.19 -1.25,0.58 v 1.55 c 0.22,0.3 0.55,0.51 0.94,0.56 l 3.05,0.35 c 0.05,0 0.1,0.01 0.15,0.01 z" />
              <path
                 id="path217298"
                 class="shp2"
                 d="m 1000.09,830.71 c 0.19,0 0.38,-0.04 0.56,-0.12 l 2.79,-1.26 c 0.68,-0.31 0.99,-1.11 0.68,-1.79 -0.31,-0.68 -1.1,-0.98 -1.79,-0.68 l -2.79,1.26 c -0.68,0.31 -0.99,1.11 -0.68,1.79 0.22,0.5 0.72,0.8 1.23,0.8 z" />
              <path
                 id="path217300"
                 class="shp2"
                 d="m 996.54,840.22 c 0.48,0 0.94,-0.25 1.19,-0.7 0.36,-0.65 0.12,-1.47 -0.53,-1.83 l -2.68,-1.49 c -0.15,-0.09 -0.32,-0.14 -0.49,-0.16 v 2.98 l 1.86,1.03 c 0.21,0.12 0.43,0.17 0.65,0.17 z" />
              <path
                 id="path217302"
                 class="shp2"
                 d="m 1005.29,825.11 c 0.73,-0.13 1.22,-0.83 1.09,-1.57 l -0.52,-3.02 c -0.13,-0.73 -0.83,-1.22 -1.57,-1.09 -0.74,0.12 -1.23,0.83 -1.1,1.56 l 0.53,3.02 c 0.12,0.66 0.69,1.12 1.33,1.12 0.08,0 0.16,-0.01 0.24,-0.02 z" />
              <path
                 id="path217304"
                 class="shp2"
                 d="m 1008.07,834.45 c 0.38,0 0.77,-0.17 1.04,-0.49 l 1.95,-2.36 c 0.48,-0.57 0.4,-1.43 -0.17,-1.9 -0.58,-0.48 -1.43,-0.4 -1.91,0.17 l -1.95,2.36 c -0.48,0.58 -0.4,1.43 0.17,1.91 0.25,0.21 0.56,0.31 0.87,0.31 z" />
              <path
                 id="path217306"
                 class="shp2"
                 d="m 1002.2,838 c 0.21,0.53 0.72,0.86 1.26,0.86 0.16,0 0.33,-0.03 0.5,-0.1 0.69,-0.28 1.03,-1.06 0.75,-1.76 l -1.13,-2.84 c -0.28,-0.7 -1.06,-1.03 -1.76,-0.76 -0.69,0.28 -1.03,1.06 -0.76,1.76 z" />
              <path
                 id="path217308"
                 class="shp2"
                 d="m 1008.6,818.15 c 0.26,0.27 0.61,0.4 0.95,0.4 0.35,0 0.69,-0.13 0.96,-0.4 0.53,-0.53 0.53,-1.38 0,-1.91 l -2.17,-2.17 c -0.53,-0.53 -1.38,-0.53 -1.91,0 -0.53,0.53 -0.53,1.39 0,1.91 z" />
              <path
                 id="path217310"
                 class="shp2"
                 d="m 1024.77,829.93 c -0.74,0.11 -1.25,0.8 -1.14,1.53 0.1,0.68 0.68,1.16 1.34,1.16 0.06,0 0.13,0 0.2,-0.01 l 2.15,-0.32 v -2.74 z" />
              <path
                 id="path217312"
                 class="shp2"
                 d="m 1025.97,836.72 c -0.36,0.66 -0.13,1.48 0.53,1.84 l 0.82,0.46 v -2.98 c -0.53,-0.06 -1.07,0.19 -1.35,0.68 z" />
              <path
                 id="path217314"
                 class="shp2"
                 d="m 1002.36,812.93 c 0.34,0 0.69,-0.13 0.95,-0.39 l 2.17,-2.17 c 0.53,-0.53 0.53,-1.39 0,-1.91 -0.53,-0.53 -1.38,-0.53 -1.91,0 l -2.17,2.17 c -0.53,0.52 -0.53,1.38 0,1.91 0.27,0.26 0.61,0.39 0.96,0.39 z" />
              <path
                 id="path217316"
                 class="shp2"
                 d="m 1000.2,816.85 -2.83,-1.18 c -0.69,-0.29 -1.48,0.04 -1.77,0.73 -0.29,0.69 0.04,1.48 0.73,1.77 l 2.83,1.18 c 0.17,0.07 0.35,0.1 0.52,0.1 0.53,0 1.03,-0.31 1.25,-0.83 0.29,-0.69 -0.04,-1.48 -0.73,-1.77 z" />
              <path
                 id="path217318"
                 class="shp2"
                 d="m 994.03,810.44 v 3.3 l 1.49,-1.06 c 0.61,-0.43 0.75,-1.27 0.32,-1.88 -0.41,-0.59 -1.21,-0.73 -1.81,-0.36 z" />
              <path
                 id="path217320"
                 class="shp2"
                 d="m 996.05,830.62 c -0.11,-0.74 -0.79,-1.25 -1.53,-1.14 l -0.49,0.07 v 2.74 l 0.88,-0.13 c 0.74,-0.11 1.25,-0.8 1.14,-1.54 z" />
              <path
                 id="path217322"
                 class="shp2"
                 d="m 1024.55,825.16 1.58,-2.63 c 0.38,-0.64 0.17,-1.47 -0.47,-1.85 -0.64,-0.39 -1.47,-0.18 -1.85,0.46 l -1.58,2.63 c -0.38,0.64 -0.17,1.47 0.47,1.86 0.22,0.13 0.46,0.19 0.69,0.19 0.46,0 0.91,-0.24 1.16,-0.66 z" />
              <path
                 id="path217324"
                 class="shp2"
                 d="m 1015.25,808.75 c -0.7,-0.28 -1.48,0.06 -1.76,0.76 l -1.12,2.85 c -0.27,0.7 0.07,1.48 0.76,1.76 0.17,0.06 0.33,0.09 0.5,0.09 0.54,0 1.05,-0.33 1.26,-0.86 l 1.12,-2.85 c 0.27,-0.7 -0.07,-1.48 -0.76,-1.75 z" />
              <path
                 id="path217326"
                 class="shp2"
                 d="m 1014.14,833.88 2.98,0.7 c 0.11,0.02 0.21,0.04 0.31,0.04 0.62,0 1.17,-0.42 1.32,-1.05 0.17,-0.73 -0.28,-1.45 -1.01,-1.62 l -2.99,-0.7 c -0.73,-0.17 -1.45,0.28 -1.62,1.01 -0.17,0.73 0.28,1.45 1.01,1.62 z" />
              <path
                 id="path217328"
                 class="shp2"
                 d="m 1019.28,839.39 c 0.23,0 0.45,-0.05 0.66,-0.17 l 2.68,-1.49 c 0.65,-0.36 0.88,-1.19 0.52,-1.84 -0.36,-0.65 -1.18,-0.88 -1.84,-0.52 l -2.68,1.49 c -0.65,0.36 -0.88,1.19 -0.52,1.84 0.25,0.44 0.71,0.69 1.18,0.69 z" />
              <path
                 id="path217330"
                 class="shp2"
                 d="m 1013.38,825.34 c -0.08,-0.74 -0.75,-1.27 -1.5,-1.19 l -3.04,0.35 c -0.74,0.08 -1.28,0.75 -1.19,1.49 0.07,0.69 0.66,1.2 1.34,1.2 0.05,0 0.1,0 0.15,-0.01 l 3.05,-0.34 c 0.74,-0.08 1.27,-0.75 1.19,-1.5 z" />
              <path
                 id="path217332"
                 class="shp2"
                 d="m 1009.17,807.95 c -0.08,0.74 0.45,1.41 1.2,1.49 0.05,0 0.09,0.01 0.14,0.01 0.69,0 1.27,-0.52 1.35,-1.21 l 0.12,-1.11 h -2.72 z" />
              <path
                 id="path217334"
                 class="shp2"
                 d="m 1012.19,838.48 c 0.08,-0.74 -0.45,-1.41 -1.2,-1.49 -0.74,-0.09 -1.41,0.46 -1.49,1.2 l -0.24,2.23 h 2.72 z" />
              <path
                 id="path217336"
                 class="shp2"
                 d="m 1023.42,807.29 -3.07,-0.06 c -0.69,0.01 -1.36,0.58 -1.37,1.33 -0.02,0.75 0.58,1.36 1.33,1.38 l 3.06,0.05 h 0.02 c 0.74,0 1.34,-0.59 1.36,-1.32 0.01,-0.75 -0.58,-1.37 -1.33,-1.38 z" />
              <path
                 id="path217338"
                 class="shp2"
                 d="m 1024.75,812.25 c -0.61,0.44 -0.76,1.28 -0.32,1.89 0.26,0.37 0.68,0.57 1.1,0.57 0.27,0 0.54,-0.08 0.78,-0.25 l 1.01,-0.72 v -3.3 c -0.02,0.02 -0.05,0.02 -0.08,0.04 z" />
              <path
                 id="path217340"
                 class="shp2"
                 d="m 1017.09,824.46 c -0.62,0.41 -0.79,1.25 -0.38,1.87 l 1.69,2.56 c 0.26,0.39 0.69,0.6 1.13,0.6 0.26,0 0.52,-0.07 0.75,-0.22 0.62,-0.41 0.79,-1.25 0.38,-1.88 l -1.69,-2.55 c -0.41,-0.62 -1.26,-0.79 -1.88,-0.38 z" />
              <path
                 id="path217342"
                 class="shp2"
                 d="m 1018.67,815.42 1.24,2.8 c 0.23,0.5 0.72,0.8 1.24,0.8 0.18,0 0.37,-0.04 0.55,-0.12 0.68,-0.31 0.99,-1.11 0.69,-1.79 l -1.25,-2.8 c -0.31,-0.68 -1.1,-0.98 -1.79,-0.68 -0.68,0.3 -0.99,1.1 -0.68,1.79 z" />
              <path
                 id="path217344"
                 class="shp2"
                 d="m 1017.17,818.78 -3.04,-0.36 c -0.74,-0.09 -1.42,0.44 -1.51,1.18 -0.08,0.74 0.44,1.41 1.19,1.5 l 3.04,0.37 c 0.05,0.01 0.11,0.01 0.16,0.01 0.68,0 1.26,-0.51 1.34,-1.19 0.09,-0.74 -0.44,-1.42 -1.18,-1.51 z" />
            </g>
          </g>
          <g
             id="g217404">
            <path
               id="path217350"
               class="shp0"
               d="m 1027.32,873.71 h -33.29 v -33.29 h 33.29 z" />
            <g
               id="g217402">
              <path
                 id="path217352"
                 class="shp2"
                 d="m 998.17,859.46 c 0.68,0 1.26,-0.51 1.34,-1.2 0.09,-0.74 -0.44,-1.42 -1.19,-1.5 l -3.04,-0.35 c -0.5,-0.06 -0.97,0.19 -1.25,0.58 v 1.55 c 0.22,0.3 0.55,0.51 0.94,0.56 l 3.05,0.35 c 0.05,0 0.1,0.01 0.15,0.01 z" />
              <path
                 id="path217354"
                 class="shp2"
                 d="m 1000.09,864 c 0.19,0 0.38,-0.04 0.56,-0.12 l 2.79,-1.26 c 0.68,-0.31 0.99,-1.11 0.68,-1.79 -0.31,-0.68 -1.1,-0.98 -1.79,-0.68 l -2.79,1.26 c -0.68,0.31 -0.99,1.11 -0.68,1.79 0.22,0.5 0.72,0.8 1.23,0.8 z" />
              <path
                 id="path217356"
                 class="shp2"
                 d="m 996.54,873.51 c 0.48,0 0.94,-0.25 1.19,-0.7 0.36,-0.65 0.12,-1.47 -0.53,-1.84 l -2.68,-1.48 c -0.15,-0.09 -0.32,-0.14 -0.49,-0.16 v 2.98 l 1.86,1.03 c 0.21,0.11 0.43,0.17 0.65,0.17 z" />
              <path
                 id="path217358"
                 class="shp2"
                 d="m 1005.29,858.4 c 0.73,-0.13 1.22,-0.83 1.09,-1.57 l -0.52,-3.02 c -0.13,-0.73 -0.83,-1.22 -1.57,-1.1 -0.74,0.13 -1.23,0.83 -1.1,1.57 l 0.53,3.02 c 0.12,0.66 0.69,1.12 1.33,1.12 0.08,0 0.16,-0.01 0.24,-0.02 z" />
              <path
                 id="path217360"
                 class="shp2"
                 d="m 1008.07,867.74 c 0.38,0 0.77,-0.17 1.04,-0.49 l 1.95,-2.36 c 0.48,-0.57 0.4,-1.43 -0.17,-1.9 -0.58,-0.48 -1.43,-0.4 -1.91,0.17 l -1.95,2.36 c -0.48,0.58 -0.4,1.43 0.17,1.91 0.25,0.21 0.56,0.31 0.87,0.31 z" />
              <path
                 id="path217362"
                 class="shp2"
                 d="m 1002.2,871.29 c 0.21,0.53 0.72,0.86 1.26,0.86 0.16,0 0.33,-0.04 0.5,-0.1 0.69,-0.28 1.03,-1.06 0.75,-1.76 l -1.13,-2.85 c -0.28,-0.69 -1.06,-1.02 -1.76,-0.75 -0.69,0.28 -1.03,1.06 -0.76,1.76 z" />
              <path
                 id="path217364"
                 class="shp2"
                 d="m 1008.6,851.44 c 0.26,0.27 0.61,0.4 0.95,0.4 0.35,0 0.69,-0.13 0.96,-0.4 0.53,-0.53 0.53,-1.38 0,-1.91 l -2.17,-2.17 c -0.53,-0.53 -1.38,-0.53 -1.91,0 -0.53,0.53 -0.53,1.38 0,1.91 z" />
              <path
                 id="path217366"
                 class="shp2"
                 d="m 1024.77,863.22 c -0.74,0.11 -1.25,0.79 -1.14,1.53 0.1,0.68 0.68,1.16 1.34,1.16 0.06,0 0.13,-0.01 0.2,-0.02 l 2.15,-0.31 v -2.74 z" />
              <path
                 id="path217368"
                 class="shp2"
                 d="m 1025.97,870.01 c -0.36,0.65 -0.13,1.48 0.53,1.84 l 0.82,0.46 v -2.98 c -0.53,-0.07 -1.07,0.18 -1.35,0.68 z" />
              <path
                 id="path217370"
                 class="shp2"
                 d="m 1002.36,846.22 c 0.34,0 0.69,-0.13 0.95,-0.39 l 2.17,-2.17 c 0.53,-0.53 0.53,-1.39 0,-1.91 -0.53,-0.53 -1.38,-0.53 -1.91,0 l -2.17,2.16 c -0.53,0.53 -0.53,1.39 0,1.92 0.27,0.26 0.61,0.39 0.96,0.39 z" />
              <path
                 id="path217372"
                 class="shp2"
                 d="m 1000.2,850.14 -2.83,-1.18 c -0.69,-0.29 -1.48,0.04 -1.77,0.73 -0.29,0.69 0.04,1.48 0.73,1.77 l 2.83,1.18 c 0.17,0.07 0.35,0.1 0.52,0.1 0.53,0 1.03,-0.31 1.25,-0.83 0.29,-0.69 -0.04,-1.48 -0.73,-1.77 z" />
              <path
                 id="path217374"
                 class="shp2"
                 d="m 994.03,843.73 v 3.3 l 1.49,-1.06 c 0.61,-0.43 0.75,-1.27 0.32,-1.88 -0.41,-0.59 -1.21,-0.73 -1.81,-0.36 z" />
              <path
                 id="path217376"
                 class="shp2"
                 d="m 996.05,863.91 c -0.11,-0.74 -0.79,-1.25 -1.53,-1.14 l -0.49,0.07 v 2.74 l 0.88,-0.13 c 0.74,-0.11 1.25,-0.8 1.14,-1.54 z" />
              <path
                 id="path217378"
                 class="shp2"
                 d="m 1024.55,858.45 1.58,-2.63 c 0.38,-0.64 0.17,-1.47 -0.47,-1.86 -0.64,-0.38 -1.47,-0.17 -1.85,0.47 l -1.58,2.63 c -0.38,0.64 -0.17,1.47 0.47,1.85 0.22,0.13 0.46,0.2 0.69,0.2 0.46,0 0.91,-0.24 1.16,-0.66 z" />
              <path
                 id="path217380"
                 class="shp2"
                 d="m 1015.25,842.03 c -0.7,-0.27 -1.48,0.07 -1.76,0.77 l -1.12,2.85 c -0.27,0.7 0.07,1.48 0.76,1.75 0.17,0.07 0.33,0.1 0.5,0.1 0.54,0 1.05,-0.33 1.26,-0.86 l 1.12,-2.85 c 0.27,-0.7 -0.07,-1.48 -0.76,-1.76 z" />
              <path
                 id="path217382"
                 class="shp2"
                 d="m 1014.14,867.17 2.98,0.7 c 0.11,0.02 0.21,0.03 0.31,0.03 0.62,0 1.17,-0.42 1.32,-1.04 0.17,-0.73 -0.28,-1.45 -1.01,-1.62 l -2.99,-0.7 c -0.73,-0.17 -1.45,0.28 -1.62,1.01 -0.17,0.73 0.28,1.45 1.01,1.62 z" />
              <path
                 id="path217384"
                 class="shp2"
                 d="m 1019.28,872.68 c 0.23,0 0.45,-0.05 0.66,-0.17 l 2.68,-1.49 c 0.65,-0.36 0.88,-1.19 0.52,-1.84 -0.36,-0.65 -1.18,-0.88 -1.84,-0.52 l -2.68,1.49 c -0.65,0.36 -0.88,1.18 -0.52,1.84 0.25,0.44 0.71,0.69 1.18,0.69 z" />
              <path
                 id="path217386"
                 class="shp2"
                 d="m 1013.38,858.63 c -0.08,-0.74 -0.75,-1.27 -1.5,-1.19 l -3.04,0.35 c -0.74,0.08 -1.28,0.75 -1.19,1.49 0.07,0.69 0.66,1.2 1.34,1.2 0.05,0 0.1,0 0.15,-0.01 l 3.05,-0.34 c 0.74,-0.09 1.27,-0.75 1.19,-1.5 z" />
              <path
                 id="path217388"
                 class="shp2"
                 d="m 1009.17,841.24 c -0.08,0.74 0.45,1.41 1.2,1.49 0.05,0 0.09,0 0.14,0 0.69,0 1.27,-0.51 1.35,-1.2 l 0.12,-1.11 h -2.72 z" />
              <path
                 id="path217390"
                 class="shp2"
                 d="m 1012.19,871.77 c 0.08,-0.74 -0.45,-1.41 -1.2,-1.49 -0.74,-0.09 -1.41,0.45 -1.49,1.2 l -0.24,2.23 h 2.72 z" />
              <path
                 id="path217392"
                 class="shp2"
                 d="m 1023.42,840.58 -3.07,-0.06 c -0.69,0.01 -1.36,0.58 -1.37,1.33 -0.02,0.75 0.58,1.36 1.33,1.38 l 3.06,0.05 h 0.02 c 0.74,0 1.34,-0.59 1.36,-1.33 0.01,-0.74 -0.58,-1.36 -1.33,-1.37 z" />
              <path
                 id="path217394"
                 class="shp2"
                 d="m 1024.75,845.54 c -0.61,0.43 -0.76,1.28 -0.32,1.89 0.26,0.37 0.68,0.57 1.1,0.57 0.27,0 0.54,-0.08 0.78,-0.25 l 1.01,-0.72 v -3.3 c -0.02,0.02 -0.05,0.02 -0.08,0.04 z" />
              <path
                 id="path217396"
                 class="shp2"
                 d="m 1017.09,857.75 c -0.62,0.41 -0.79,1.25 -0.38,1.87 l 1.69,2.56 c 0.26,0.39 0.69,0.6 1.13,0.6 0.26,0 0.52,-0.07 0.75,-0.22 0.62,-0.42 0.79,-1.25 0.38,-1.88 l -1.69,-2.55 c -0.41,-0.63 -1.26,-0.79 -1.88,-0.38 z" />
              <path
                 id="path217398"
                 class="shp2"
                 d="m 1018.67,848.71 1.24,2.79 c 0.23,0.51 0.72,0.81 1.24,0.81 0.18,0 0.37,-0.04 0.55,-0.12 0.68,-0.31 0.99,-1.11 0.69,-1.79 l -1.25,-2.8 c -0.31,-0.68 -1.1,-0.98 -1.79,-0.68 -0.68,0.3 -0.99,1.1 -0.68,1.79 z" />
              <path
                 id="path217400"
                 class="shp2"
                 d="m 1017.17,852.07 -3.04,-0.36 c -0.74,-0.09 -1.42,0.44 -1.51,1.18 -0.08,0.74 0.44,1.41 1.19,1.5 l 3.04,0.37 c 0.05,0 0.11,0.01 0.16,0.01 0.68,0 1.26,-0.51 1.34,-1.19 0.09,-0.75 -0.44,-1.42 -1.18,-1.51 z" />
            </g>
          </g>
          <g
             id="g217460">
            <path
               id="path217406"
               class="shp0"
               d="m 994.03,840.42 h -33.28 v -33.29 h 33.28 z" />
            <g
               id="g217458">
              <path
                 id="path217408"
                 class="shp2"
                 d="m 964.88,826.17 c 0.68,0 1.27,-0.51 1.34,-1.2 0.09,-0.74 -0.44,-1.41 -1.19,-1.5 l -3.04,-0.35 c -0.5,-0.05 -0.97,0.19 -1.24,0.58 v 1.55 c 0.21,0.3 0.54,0.51 0.93,0.56 l 3.05,0.35 c 0.05,0 0.1,0.01 0.15,0.01 z" />
              <path
                 id="path217410"
                 class="shp2"
                 d="m 966.8,830.71 c 0.19,0 0.38,-0.04 0.56,-0.12 l 2.79,-1.26 c 0.68,-0.31 0.99,-1.11 0.68,-1.79 -0.3,-0.68 -1.1,-0.98 -1.79,-0.68 l -2.79,1.26 c -0.68,0.31 -0.99,1.11 -0.68,1.79 0.23,0.5 0.72,0.8 1.23,0.8 z" />
              <path
                 id="path217412"
                 class="shp2"
                 d="m 963.25,840.22 c 0.48,0 0.94,-0.25 1.19,-0.7 0.36,-0.65 0.13,-1.47 -0.53,-1.83 l -2.68,-1.49 c -0.15,-0.09 -0.32,-0.14 -0.48,-0.16 v 2.98 l 1.85,1.03 c 0.21,0.12 0.43,0.17 0.65,0.17 z" />
              <path
                 id="path217414"
                 class="shp2"
                 d="m 972,825.11 c 0.73,-0.13 1.23,-0.83 1.1,-1.57 l -0.53,-3.02 c -0.13,-0.73 -0.83,-1.22 -1.57,-1.09 -0.73,0.12 -1.23,0.83 -1.1,1.56 l 0.53,3.02 c 0.12,0.66 0.69,1.12 1.33,1.12 0.08,0 0.16,-0.01 0.24,-0.02 z" />
              <path
                 id="path217416"
                 class="shp2"
                 d="m 974.78,834.45 c 0.39,0 0.77,-0.17 1.04,-0.49 l 1.96,-2.36 c 0.47,-0.57 0.39,-1.43 -0.18,-1.9 -0.58,-0.48 -1.43,-0.4 -1.91,0.17 l -1.95,2.36 c -0.48,0.58 -0.4,1.43 0.17,1.91 0.26,0.21 0.56,0.31 0.87,0.31 z" />
              <path
                 id="path217418"
                 class="shp2"
                 d="m 968.91,838 c 0.21,0.53 0.72,0.86 1.26,0.86 0.16,0 0.33,-0.03 0.5,-0.1 0.69,-0.28 1.03,-1.06 0.75,-1.76 l -1.13,-2.84 c -0.28,-0.7 -1.06,-1.03 -1.76,-0.76 -0.69,0.28 -1.03,1.06 -0.76,1.76 z" />
              <path
                 id="path217420"
                 class="shp2"
                 d="m 975.31,818.15 c 0.26,0.27 0.61,0.4 0.95,0.4 0.35,0 0.7,-0.13 0.96,-0.4 0.53,-0.53 0.53,-1.38 0,-1.91 l -2.17,-2.17 c -0.53,-0.53 -1.38,-0.53 -1.91,0 -0.53,0.53 -0.53,1.39 0,1.91 z" />
              <path
                 id="path217422"
                 class="shp2"
                 d="m 991.48,829.93 c -0.74,0.11 -1.25,0.8 -1.14,1.53 0.1,0.68 0.68,1.16 1.34,1.16 0.06,0 0.13,0 0.2,-0.01 l 2.15,-0.32 v -2.74 z" />
              <path
                 id="path217424"
                 class="shp2"
                 d="m 992.68,836.72 c -0.36,0.66 -0.12,1.48 0.53,1.84 l 0.82,0.46 v -2.98 c -0.53,-0.06 -1.07,0.19 -1.35,0.68 z" />
              <path
                 id="path217426"
                 class="shp2"
                 d="m 969.07,812.93 c 0.34,0 0.69,-0.13 0.95,-0.39 l 2.17,-2.17 c 0.53,-0.53 0.53,-1.39 0,-1.91 -0.53,-0.53 -1.38,-0.53 -1.91,0 l -2.17,2.17 c -0.53,0.52 -0.53,1.38 0,1.91 0.27,0.26 0.61,0.39 0.96,0.39 z" />
              <path
                 id="path217428"
                 class="shp2"
                 d="m 966.91,816.85 -2.83,-1.18 c -0.69,-0.29 -1.48,0.04 -1.77,0.73 -0.28,0.69 0.04,1.48 0.73,1.77 l 2.83,1.18 c 0.17,0.07 0.35,0.1 0.52,0.1 0.53,0 1.03,-0.31 1.25,-0.83 0.29,-0.69 -0.04,-1.48 -0.73,-1.77 z" />
              <path
                 id="path217430"
                 class="shp2"
                 d="m 960.75,810.44 v 3.3 l 1.48,-1.06 c 0.61,-0.43 0.75,-1.27 0.32,-1.88 -0.41,-0.59 -1.21,-0.73 -1.8,-0.36 z" />
              <path
                 id="path217432"
                 class="shp2"
                 d="m 962.76,830.62 c -0.11,-0.74 -0.79,-1.25 -1.53,-1.14 l -0.48,0.07 v 2.74 l 0.87,-0.13 c 0.74,-0.11 1.25,-0.8 1.14,-1.54 z" />
              <path
                 id="path217434"
                 class="shp2"
                 d="m 991.27,825.16 1.57,-2.63 c 0.38,-0.64 0.18,-1.47 -0.47,-1.85 -0.64,-0.39 -1.47,-0.18 -1.85,0.46 l -1.57,2.63 c -0.39,0.64 -0.18,1.47 0.46,1.86 0.22,0.13 0.46,0.19 0.69,0.19 0.46,0 0.91,-0.24 1.17,-0.66 z" />
              <path
                 id="path217436"
                 class="shp2"
                 d="m 981.96,808.75 c -0.7,-0.28 -1.48,0.06 -1.76,0.76 l -1.12,2.85 c -0.27,0.7 0.07,1.48 0.77,1.76 0.16,0.06 0.33,0.09 0.49,0.09 0.54,0 1.05,-0.33 1.26,-0.86 l 1.12,-2.85 c 0.27,-0.7 -0.07,-1.48 -0.76,-1.75 z" />
              <path
                 id="path217438"
                 class="shp2"
                 d="m 980.85,833.88 2.99,0.7 c 0.1,0.02 0.2,0.04 0.3,0.04 0.62,0 1.17,-0.42 1.32,-1.05 0.17,-0.73 -0.28,-1.45 -1.01,-1.62 l -2.98,-0.7 c -0.73,-0.17 -1.46,0.28 -1.63,1.01 -0.17,0.73 0.28,1.45 1.01,1.62 z" />
              <path
                 id="path217440"
                 class="shp2"
                 d="m 985.99,839.39 c 0.23,0 0.45,-0.05 0.66,-0.17 l 2.68,-1.49 c 0.65,-0.36 0.89,-1.19 0.52,-1.84 -0.36,-0.65 -1.18,-0.88 -1.84,-0.52 l -2.67,1.49 c -0.66,0.36 -0.89,1.19 -0.53,1.84 0.25,0.44 0.71,0.69 1.18,0.69 z" />
              <path
                 id="path217442"
                 class="shp2"
                 d="m 980.09,825.34 c -0.08,-0.74 -0.74,-1.27 -1.5,-1.19 l -3.04,0.35 c -0.74,0.08 -1.28,0.75 -1.19,1.49 0.07,0.69 0.66,1.2 1.34,1.2 0.05,0 0.1,0 0.15,-0.01 l 3.05,-0.34 c 0.74,-0.08 1.27,-0.75 1.19,-1.5 z" />
              <path
                 id="path217444"
                 class="shp2"
                 d="m 975.88,807.95 c -0.08,0.74 0.45,1.41 1.2,1.49 0.05,0 0.1,0.01 0.15,0.01 0.68,0 1.26,-0.52 1.34,-1.21 l 0.12,-1.11 h -2.72 z" />
              <path
                 id="path217446"
                 class="shp2"
                 d="m 978.9,838.48 c 0.08,-0.74 -0.45,-1.41 -1.2,-1.49 -0.74,-0.09 -1.41,0.46 -1.49,1.2 l -0.24,2.23 h 2.72 z" />
              <path
                 id="path217448"
                 class="shp2"
                 d="m 990.13,807.29 -3.06,-0.06 c -0.7,0.01 -1.37,0.58 -1.38,1.33 -0.01,0.75 0.58,1.36 1.33,1.38 l 3.06,0.05 h 0.03 c 0.73,0 1.33,-0.59 1.35,-1.32 0.01,-0.75 -0.58,-1.37 -1.33,-1.38 z" />
              <path
                 id="path217450"
                 class="shp2"
                 d="m 991.46,812.25 c -0.61,0.44 -0.76,1.28 -0.32,1.89 0.26,0.37 0.68,0.57 1.1,0.57 0.27,0 0.55,-0.08 0.78,-0.25 l 1.01,-0.72 v -3.3 c -0.02,0.02 -0.05,0.02 -0.07,0.04 z" />
              <path
                 id="path217452"
                 class="shp2"
                 d="m 983.8,824.46 c -0.62,0.41 -0.79,1.25 -0.38,1.87 l 1.69,2.56 c 0.26,0.39 0.69,0.6 1.13,0.6 0.26,0 0.52,-0.07 0.75,-0.22 0.62,-0.41 0.79,-1.25 0.38,-1.88 l -1.69,-2.55 c -0.41,-0.62 -1.26,-0.79 -1.88,-0.38 z" />
              <path
                 id="path217454"
                 class="shp2"
                 d="m 985.38,815.42 1.25,2.8 c 0.22,0.5 0.71,0.8 1.23,0.8 0.19,0 0.37,-0.04 0.55,-0.12 0.68,-0.31 0.99,-1.11 0.69,-1.79 l -1.25,-2.8 c -0.31,-0.68 -1.1,-0.98 -1.79,-0.68 -0.68,0.3 -0.99,1.1 -0.68,1.79 z" />
              <path
                 id="path217456"
                 class="shp2"
                 d="m 983.88,818.78 -3.04,-0.36 c -0.74,-0.09 -1.41,0.44 -1.5,1.18 -0.09,0.74 0.44,1.41 1.18,1.5 l 3.04,0.37 c 0.05,0.01 0.11,0.01 0.16,0.01 0.68,0 1.26,-0.51 1.34,-1.19 0.09,-0.74 -0.44,-1.42 -1.18,-1.51 z" />
            </g>
          </g>
          <g
             id="g217516">
            <path
               id="path217462"
               class="shp0"
               d="m 994.03,873.71 h -33.28 v -33.29 h 33.28 z" />
            <g
               id="g217514">
              <path
                 id="path217464"
                 class="shp2"
                 d="m 964.88,859.46 c 0.68,0 1.27,-0.51 1.34,-1.2 0.09,-0.74 -0.44,-1.42 -1.19,-1.5 l -3.04,-0.35 c -0.5,-0.06 -0.97,0.19 -1.24,0.58 v 1.55 c 0.21,0.3 0.54,0.51 0.93,0.56 l 3.05,0.35 c 0.05,0 0.1,0.01 0.15,0.01 z" />
              <path
                 id="path217466"
                 class="shp2"
                 d="m 966.8,864 c 0.19,0 0.38,-0.04 0.56,-0.12 l 2.79,-1.26 c 0.68,-0.31 0.99,-1.11 0.68,-1.79 -0.3,-0.68 -1.1,-0.98 -1.79,-0.68 l -2.79,1.26 c -0.68,0.31 -0.99,1.11 -0.68,1.79 0.23,0.5 0.72,0.8 1.23,0.8 z" />
              <path
                 id="path217468"
                 class="shp2"
                 d="m 963.25,873.51 c 0.48,0 0.94,-0.25 1.19,-0.7 0.36,-0.65 0.13,-1.47 -0.53,-1.84 l -2.68,-1.48 c -0.15,-0.09 -0.32,-0.14 -0.48,-0.16 v 2.98 l 1.85,1.03 c 0.21,0.11 0.43,0.17 0.65,0.17 z" />
              <path
                 id="path217470"
                 class="shp2"
                 d="m 972,858.4 c 0.73,-0.13 1.23,-0.83 1.1,-1.57 l -0.53,-3.02 c -0.13,-0.73 -0.83,-1.22 -1.57,-1.1 -0.73,0.13 -1.23,0.83 -1.1,1.57 l 0.53,3.02 c 0.12,0.66 0.69,1.12 1.33,1.12 0.08,0 0.16,-0.01 0.24,-0.02 z" />
              <path
                 id="path217472"
                 class="shp2"
                 d="m 974.78,867.74 c 0.39,0 0.77,-0.17 1.04,-0.49 l 1.96,-2.36 c 0.47,-0.57 0.39,-1.43 -0.18,-1.9 -0.58,-0.48 -1.43,-0.4 -1.91,0.17 l -1.95,2.36 c -0.48,0.58 -0.4,1.43 0.17,1.91 0.26,0.21 0.56,0.31 0.87,0.31 z" />
              <path
                 id="path217474"
                 class="shp2"
                 d="m 968.91,871.29 c 0.21,0.53 0.72,0.86 1.26,0.86 0.16,0 0.33,-0.04 0.5,-0.1 0.69,-0.28 1.03,-1.06 0.75,-1.76 l -1.13,-2.85 c -0.28,-0.69 -1.06,-1.02 -1.76,-0.75 -0.69,0.28 -1.03,1.06 -0.76,1.76 z" />
              <path
                 id="path217476"
                 class="shp2"
                 d="m 975.31,851.44 c 0.26,0.27 0.61,0.4 0.95,0.4 0.35,0 0.7,-0.13 0.96,-0.4 0.53,-0.53 0.53,-1.38 0,-1.91 l -2.17,-2.17 c -0.53,-0.53 -1.38,-0.53 -1.91,0 -0.53,0.53 -0.53,1.38 0,1.91 z" />
              <path
                 id="path217478"
                 class="shp2"
                 d="m 991.48,863.22 c -0.74,0.11 -1.25,0.79 -1.14,1.53 0.1,0.68 0.68,1.16 1.34,1.16 0.06,0 0.13,-0.01 0.2,-0.02 l 2.15,-0.31 v -2.74 z" />
              <path
                 id="path217480"
                 class="shp2"
                 d="m 992.68,870.01 c -0.36,0.65 -0.12,1.48 0.53,1.84 l 0.82,0.46 v -2.98 c -0.53,-0.07 -1.07,0.18 -1.35,0.68 z" />
              <path
                 id="path217482"
                 class="shp2"
                 d="m 969.07,846.22 c 0.34,0 0.69,-0.13 0.95,-0.39 l 2.17,-2.17 c 0.53,-0.53 0.53,-1.39 0,-1.91 -0.53,-0.53 -1.38,-0.53 -1.91,0 l -2.17,2.16 c -0.53,0.53 -0.53,1.39 0,1.92 0.27,0.26 0.61,0.39 0.96,0.39 z" />
              <path
                 id="path217484"
                 class="shp2"
                 d="m 966.91,850.14 -2.83,-1.18 c -0.69,-0.29 -1.48,0.04 -1.77,0.73 -0.28,0.69 0.04,1.48 0.73,1.77 l 2.83,1.18 c 0.17,0.07 0.35,0.1 0.52,0.1 0.53,0 1.03,-0.31 1.25,-0.83 0.29,-0.69 -0.04,-1.48 -0.73,-1.77 z" />
              <path
                 id="path217486"
                 class="shp2"
                 d="m 960.75,843.73 v 3.3 l 1.48,-1.06 c 0.61,-0.43 0.75,-1.27 0.32,-1.88 -0.41,-0.59 -1.21,-0.73 -1.8,-0.36 z" />
              <path
                 id="path217488"
                 class="shp2"
                 d="m 962.76,863.91 c -0.11,-0.74 -0.79,-1.25 -1.53,-1.14 l -0.48,0.07 v 2.74 l 0.87,-0.13 c 0.74,-0.11 1.25,-0.8 1.14,-1.54 z" />
              <path
                 id="path217490"
                 class="shp2"
                 d="m 991.27,858.45 1.57,-2.63 c 0.38,-0.64 0.18,-1.47 -0.47,-1.86 -0.64,-0.38 -1.47,-0.17 -1.85,0.47 l -1.57,2.63 c -0.39,0.64 -0.18,1.47 0.46,1.85 0.22,0.13 0.46,0.2 0.69,0.2 0.46,0 0.91,-0.24 1.17,-0.66 z" />
              <path
                 id="path217492"
                 class="shp2"
                 d="m 981.96,842.03 c -0.7,-0.27 -1.48,0.07 -1.76,0.77 l -1.12,2.85 c -0.27,0.7 0.07,1.48 0.77,1.75 0.16,0.07 0.33,0.1 0.49,0.1 0.54,0 1.05,-0.33 1.26,-0.86 l 1.12,-2.85 c 0.27,-0.7 -0.07,-1.48 -0.76,-1.76 z" />
              <path
                 id="path217494"
                 class="shp2"
                 d="m 980.85,867.17 2.99,0.7 c 0.1,0.02 0.2,0.03 0.3,0.03 0.62,0 1.17,-0.42 1.32,-1.04 0.17,-0.73 -0.28,-1.45 -1.01,-1.62 l -2.98,-0.7 c -0.73,-0.17 -1.46,0.28 -1.63,1.01 -0.17,0.73 0.28,1.45 1.01,1.62 z" />
              <path
                 id="path217496"
                 class="shp2"
                 d="m 985.99,872.68 c 0.23,0 0.45,-0.05 0.66,-0.17 l 2.68,-1.49 c 0.65,-0.36 0.89,-1.19 0.52,-1.84 -0.36,-0.65 -1.18,-0.88 -1.84,-0.52 l -2.67,1.49 c -0.66,0.36 -0.89,1.18 -0.53,1.84 0.25,0.44 0.71,0.69 1.18,0.69 z" />
              <path
                 id="path217498"
                 class="shp2"
                 d="m 980.09,858.63 c -0.08,-0.74 -0.74,-1.27 -1.5,-1.19 l -3.04,0.35 c -0.74,0.08 -1.28,0.75 -1.19,1.49 0.07,0.69 0.66,1.2 1.34,1.2 0.05,0 0.1,0 0.15,-0.01 l 3.05,-0.34 c 0.74,-0.09 1.27,-0.75 1.19,-1.5 z" />
              <path
                 id="path217500"
                 class="shp2"
                 d="m 975.88,841.24 c -0.08,0.74 0.45,1.41 1.2,1.49 0.05,0 0.1,0 0.15,0 0.68,0 1.26,-0.51 1.34,-1.2 l 0.12,-1.11 h -2.72 z" />
              <path
                 id="path217502"
                 class="shp2"
                 d="m 978.9,871.77 c 0.08,-0.74 -0.45,-1.41 -1.2,-1.49 -0.74,-0.09 -1.41,0.45 -1.49,1.2 l -0.24,2.23 h 2.72 z" />
              <path
                 id="path217504"
                 class="shp2"
                 d="m 990.13,840.58 -3.06,-0.06 c -0.7,0.01 -1.37,0.58 -1.38,1.33 -0.01,0.75 0.58,1.36 1.33,1.38 l 3.06,0.05 h 0.03 c 0.73,0 1.33,-0.59 1.35,-1.33 0.01,-0.74 -0.58,-1.36 -1.33,-1.37 z" />
              <path
                 id="path217506"
                 class="shp2"
                 d="m 991.46,845.54 c -0.61,0.43 -0.76,1.28 -0.32,1.89 0.26,0.37 0.68,0.57 1.1,0.57 0.27,0 0.55,-0.08 0.78,-0.25 l 1.01,-0.72 v -3.3 c -0.02,0.02 -0.05,0.02 -0.07,0.04 z" />
              <path
                 id="path217508"
                 class="shp2"
                 d="m 983.8,857.75 c -0.62,0.41 -0.79,1.25 -0.38,1.87 l 1.69,2.56 c 0.26,0.39 0.69,0.6 1.13,0.6 0.26,0 0.52,-0.07 0.75,-0.22 0.62,-0.42 0.79,-1.25 0.38,-1.88 l -1.69,-2.55 c -0.41,-0.63 -1.26,-0.79 -1.88,-0.38 z" />
              <path
                 id="path217510"
                 class="shp2"
                 d="m 985.38,848.71 1.25,2.79 c 0.22,0.51 0.71,0.81 1.23,0.81 0.19,0 0.37,-0.04 0.55,-0.12 0.68,-0.31 0.99,-1.11 0.69,-1.79 l -1.25,-2.8 c -0.31,-0.68 -1.1,-0.98 -1.79,-0.68 -0.68,0.3 -0.99,1.1 -0.68,1.79 z" />
              <path
                 id="path217512"
                 class="shp2"
                 d="m 983.88,852.07 -3.04,-0.36 c -0.74,-0.09 -1.41,0.44 -1.5,1.18 -0.09,0.74 0.44,1.41 1.18,1.5 l 3.04,0.37 c 0.05,0 0.11,0.01 0.16,0.01 0.68,0 1.26,-0.51 1.34,-1.19 0.09,-0.75 -0.44,-1.42 -1.18,-1.51 z" />
            </g>
          </g>
          <g
             id="g217572">
            <path
               id="path217518"
               class="shp0"
               d="m 960.75,840.42 h -33.29 v -33.29 h 33.29 z" />
            <g
               id="g217570">
              <path
                 id="path217520"
                 class="shp2"
                 d="m 931.59,826.17 c 0.68,0 1.27,-0.51 1.35,-1.2 0.08,-0.74 -0.45,-1.41 -1.2,-1.5 l -3.04,-0.35 c -0.5,-0.05 -0.96,0.19 -1.24,0.58 v 1.55 c 0.21,0.3 0.54,0.51 0.93,0.56 l 3.05,0.35 c 0.05,0 0.1,0.01 0.15,0.01 z" />
              <path
                 id="path217522"
                 class="shp2"
                 d="m 933.52,830.71 c 0.18,0 0.37,-0.04 0.55,-0.12 l 2.79,-1.26 c 0.69,-0.31 0.99,-1.11 0.68,-1.79 -0.3,-0.68 -1.1,-0.98 -1.79,-0.68 l -2.79,1.26 c -0.68,0.31 -0.99,1.11 -0.68,1.79 0.23,0.5 0.72,0.8 1.24,0.8 z" />
              <path
                 id="path217524"
                 class="shp2"
                 d="m 929.97,840.22 c 0.47,0 0.93,-0.25 1.18,-0.7 0.36,-0.65 0.13,-1.47 -0.53,-1.83 l -2.68,-1.49 c -0.15,-0.09 -0.32,-0.14 -0.48,-0.16 v 2.98 l 1.85,1.03 c 0.21,0.12 0.43,0.17 0.66,0.17 z" />
              <path
                 id="path217526"
                 class="shp2"
                 d="m 938.71,825.11 c 0.73,-0.13 1.23,-0.83 1.1,-1.57 l -0.53,-3.02 c -0.13,-0.73 -0.83,-1.22 -1.57,-1.09 -0.73,0.12 -1.22,0.83 -1.1,1.56 l 0.53,3.02 c 0.12,0.66 0.69,1.12 1.33,1.12 0.08,0 0.16,-0.01 0.24,-0.02 z" />
              <path
                 id="path217528"
                 class="shp2"
                 d="m 941.49,834.45 c 0.39,0 0.77,-0.17 1.04,-0.49 l 1.96,-2.36 c 0.47,-0.57 0.39,-1.43 -0.18,-1.9 -0.58,-0.48 -1.43,-0.4 -1.9,0.17 l -1.96,2.36 c -0.48,0.58 -0.4,1.43 0.17,1.91 0.26,0.21 0.56,0.31 0.87,0.31 z" />
              <path
                 id="path217530"
                 class="shp2"
                 d="m 935.62,838 c 0.21,0.53 0.72,0.86 1.26,0.86 0.16,0 0.33,-0.03 0.5,-0.1 0.69,-0.28 1.03,-1.06 0.75,-1.76 L 937,834.16 c -0.28,-0.7 -1.06,-1.03 -1.76,-0.76 -0.69,0.28 -1.03,1.06 -0.75,1.76 z" />
              <path
                 id="path217532"
                 class="shp2"
                 d="m 942.02,818.15 c 0.26,0.27 0.61,0.4 0.95,0.4 0.35,0 0.7,-0.13 0.96,-0.4 0.53,-0.53 0.53,-1.38 0,-1.91 l -2.17,-2.17 c -0.53,-0.53 -1.38,-0.53 -1.91,0 -0.53,0.53 -0.53,1.39 0,1.91 z" />
              <path
                 id="path217534"
                 class="shp2"
                 d="m 958.19,829.93 c -0.73,0.11 -1.25,0.8 -1.14,1.53 0.1,0.68 0.68,1.16 1.34,1.16 0.06,0 0.13,0 0.2,-0.01 l 2.16,-0.32 v -2.74 z" />
              <path
                 id="path217536"
                 class="shp2"
                 d="m 959.39,836.72 c -0.36,0.66 -0.12,1.48 0.53,1.84 l 0.83,0.46 v -2.98 c -0.54,-0.06 -1.08,0.19 -1.36,0.68 z" />
              <path
                 id="path217538"
                 class="shp2"
                 d="m 935.78,812.93 c 0.35,0 0.69,-0.13 0.96,-0.39 l 2.16,-2.17 c 0.53,-0.53 0.53,-1.39 0,-1.91 -0.53,-0.53 -1.38,-0.53 -1.91,0 l -2.17,2.17 c -0.53,0.52 -0.53,1.38 0,1.91 0.27,0.26 0.61,0.39 0.96,0.39 z" />
              <path
                 id="path217540"
                 class="shp2"
                 d="m 933.62,816.85 -2.83,-1.18 c -0.69,-0.29 -1.48,0.04 -1.76,0.73 -0.29,0.69 0.03,1.48 0.72,1.77 l 2.83,1.18 c 0.17,0.07 0.35,0.1 0.52,0.1 0.53,0 1.03,-0.31 1.25,-0.83 0.29,-0.69 -0.04,-1.48 -0.73,-1.77 z" />
              <path
                 id="path217542"
                 class="shp2"
                 d="m 927.46,810.44 v 3.3 l 1.48,-1.06 c 0.61,-0.43 0.76,-1.27 0.32,-1.88 -0.41,-0.59 -1.2,-0.73 -1.8,-0.36 z" />
              <path
                 id="path217544"
                 class="shp2"
                 d="m 929.47,830.62 c -0.11,-0.74 -0.79,-1.25 -1.53,-1.14 l -0.48,0.07 v 2.74 l 0.87,-0.13 c 0.74,-0.11 1.25,-0.8 1.14,-1.54 z" />
              <path
                 id="path217546"
                 class="shp2"
                 d="m 957.98,825.16 1.57,-2.63 c 0.39,-0.64 0.18,-1.47 -0.46,-1.85 -0.64,-0.39 -1.48,-0.18 -1.86,0.46 l -1.57,2.63 c -0.39,0.64 -0.18,1.47 0.46,1.86 0.22,0.13 0.46,0.19 0.7,0.19 0.45,0 0.9,-0.24 1.16,-0.66 z" />
              <path
                 id="path217548"
                 class="shp2"
                 d="m 948.67,808.75 c -0.7,-0.28 -1.48,0.06 -1.76,0.76 l -1.12,2.85 c -0.27,0.7 0.07,1.48 0.77,1.76 0.16,0.06 0.33,0.09 0.49,0.09 0.54,0 1.05,-0.33 1.26,-0.86 l 1.12,-2.85 c 0.28,-0.7 -0.07,-1.48 -0.76,-1.75 z" />
              <path
                 id="path217550"
                 class="shp2"
                 d="m 947.56,833.88 2.99,0.7 c 0.1,0.02 0.2,0.04 0.3,0.04 0.62,0 1.18,-0.42 1.32,-1.05 0.17,-0.73 -0.28,-1.45 -1.01,-1.62 l -2.98,-0.7 c -0.73,-0.17 -1.46,0.28 -1.63,1.01 -0.17,0.73 0.28,1.45 1.01,1.62 z" />
              <path
                 id="path217552"
                 class="shp2"
                 d="m 952.7,839.39 c 0.23,0 0.45,-0.05 0.66,-0.17 l 2.68,-1.49 c 0.65,-0.36 0.89,-1.19 0.52,-1.84 -0.36,-0.65 -1.18,-0.88 -1.84,-0.52 l -2.67,1.49 c -0.66,0.36 -0.89,1.19 -0.53,1.84 0.25,0.44 0.71,0.69 1.18,0.69 z" />
              <path
                 id="path217554"
                 class="shp2"
                 d="m 946.8,825.34 c -0.08,-0.74 -0.74,-1.27 -1.49,-1.19 l -3.05,0.35 c -0.74,0.08 -1.28,0.75 -1.19,1.49 0.08,0.69 0.66,1.2 1.34,1.2 0.05,0 0.1,0 0.15,-0.01 l 3.05,-0.34 c 0.74,-0.08 1.27,-0.75 1.19,-1.5 z" />
              <path
                 id="path217556"
                 class="shp2"
                 d="m 942.59,807.95 c -0.08,0.74 0.45,1.41 1.2,1.49 0.05,0 0.1,0.01 0.15,0.01 0.68,0 1.26,-0.52 1.34,-1.21 l 0.12,-1.11 h -2.72 z" />
              <path
                 id="path217558"
                 class="shp2"
                 d="m 945.61,838.48 c 0.08,-0.74 -0.45,-1.41 -1.19,-1.49 -0.75,-0.09 -1.41,0.46 -1.5,1.2 l -0.24,2.23 h 2.72 z" />
              <path
                 id="path217560"
                 class="shp2"
                 d="m 956.84,807.29 -3.06,-0.06 c -0.7,0.01 -1.37,0.58 -1.38,1.33 -0.01,0.75 0.58,1.36 1.33,1.38 l 3.06,0.05 h 0.03 c 0.73,0 1.34,-0.59 1.35,-1.32 0.01,-0.75 -0.58,-1.37 -1.33,-1.38 z" />
              <path
                 id="path217562"
                 class="shp2"
                 d="m 958.17,812.25 c -0.61,0.44 -0.75,1.28 -0.32,1.89 0.26,0.37 0.68,0.57 1.1,0.57 0.27,0 0.55,-0.08 0.78,-0.25 l 1.02,-0.72 v -3.3 c -0.03,0.02 -0.06,0.02 -0.08,0.04 z" />
              <path
                 id="path217564"
                 class="shp2"
                 d="m 950.51,824.46 c -0.62,0.41 -0.79,1.25 -0.38,1.87 l 1.7,2.56 c 0.26,0.39 0.69,0.6 1.12,0.6 0.26,0 0.52,-0.07 0.75,-0.22 0.62,-0.41 0.79,-1.25 0.38,-1.88 l -1.69,-2.55 c -0.41,-0.62 -1.25,-0.79 -1.88,-0.38 z" />
              <path
                 id="path217566"
                 class="shp2"
                 d="m 952.09,815.42 1.25,2.8 c 0.22,0.5 0.71,0.8 1.23,0.8 0.19,0 0.37,-0.04 0.55,-0.12 0.69,-0.31 0.99,-1.11 0.69,-1.79 l -1.25,-2.8 c -0.31,-0.68 -1.1,-0.98 -1.79,-0.68 -0.68,0.3 -0.99,1.1 -0.68,1.79 z" />
              <path
                 id="path217568"
                 class="shp2"
                 d="m 950.59,818.78 -3.04,-0.36 c -0.74,-0.09 -1.41,0.44 -1.5,1.18 -0.09,0.74 0.44,1.41 1.18,1.5 l 3.04,0.37 c 0.06,0.01 0.11,0.01 0.16,0.01 0.68,0 1.26,-0.51 1.35,-1.19 0.08,-0.74 -0.44,-1.42 -1.19,-1.51 z" />
            </g>
          </g>
          <g
             id="g217628">
            <path
               id="path217574"
               class="shp0"
               d="m 960.75,873.71 h -33.29 v -33.29 h 33.29 z" />
            <g
               id="g217626">
              <path
                 id="path217576"
                 class="shp2"
                 d="m 931.59,859.46 c 0.68,0 1.27,-0.51 1.35,-1.2 0.08,-0.74 -0.45,-1.42 -1.2,-1.5 l -3.04,-0.35 c -0.5,-0.06 -0.96,0.19 -1.24,0.58 v 1.55 c 0.21,0.3 0.54,0.51 0.93,0.56 l 3.05,0.35 c 0.05,0 0.1,0.01 0.15,0.01 z" />
              <path
                 id="path217578"
                 class="shp2"
                 d="m 933.52,864 c 0.18,0 0.37,-0.04 0.55,-0.12 l 2.79,-1.26 c 0.69,-0.31 0.99,-1.11 0.68,-1.79 -0.3,-0.68 -1.1,-0.98 -1.79,-0.68 l -2.79,1.26 c -0.68,0.31 -0.99,1.11 -0.68,1.79 0.23,0.5 0.72,0.8 1.24,0.8 z" />
              <path
                 id="path217580"
                 class="shp2"
                 d="m 929.97,873.51 c 0.47,0 0.93,-0.25 1.18,-0.7 0.36,-0.65 0.13,-1.47 -0.53,-1.84 l -2.68,-1.48 c -0.15,-0.09 -0.32,-0.14 -0.48,-0.16 v 2.98 l 1.85,1.03 c 0.21,0.11 0.43,0.17 0.66,0.17 z" />
              <path
                 id="path217582"
                 class="shp2"
                 d="m 938.71,858.4 c 0.73,-0.13 1.23,-0.83 1.1,-1.57 l -0.53,-3.02 c -0.13,-0.73 -0.83,-1.22 -1.57,-1.1 -0.73,0.13 -1.22,0.83 -1.1,1.57 l 0.53,3.02 c 0.12,0.66 0.69,1.12 1.33,1.12 0.08,0 0.16,-0.01 0.24,-0.02 z" />
              <path
                 id="path217584"
                 class="shp2"
                 d="m 941.49,867.74 c 0.39,0 0.77,-0.17 1.04,-0.49 l 1.96,-2.36 c 0.47,-0.57 0.39,-1.43 -0.18,-1.9 -0.58,-0.48 -1.43,-0.4 -1.9,0.17 l -1.96,2.36 c -0.48,0.58 -0.4,1.43 0.17,1.91 0.26,0.21 0.56,0.31 0.87,0.31 z" />
              <path
                 id="path217586"
                 class="shp2"
                 d="m 935.62,871.29 c 0.21,0.53 0.72,0.86 1.26,0.86 0.16,0 0.33,-0.04 0.5,-0.1 0.69,-0.28 1.03,-1.06 0.75,-1.76 L 937,867.44 c -0.28,-0.69 -1.06,-1.02 -1.76,-0.75 -0.69,0.28 -1.03,1.06 -0.75,1.76 z" />
              <path
                 id="path217588"
                 class="shp2"
                 d="m 942.02,851.44 c 0.26,0.27 0.61,0.4 0.95,0.4 0.35,0 0.7,-0.13 0.96,-0.4 0.53,-0.53 0.53,-1.38 0,-1.91 l -2.17,-2.17 c -0.53,-0.53 -1.38,-0.53 -1.91,0 -0.53,0.53 -0.53,1.38 0,1.91 z" />
              <path
                 id="path217590"
                 class="shp2"
                 d="m 958.19,863.22 c -0.73,0.11 -1.25,0.79 -1.14,1.53 0.1,0.68 0.68,1.16 1.34,1.16 0.06,0 0.13,-0.01 0.2,-0.02 l 2.16,-0.31 v -2.74 z" />
              <path
                 id="path217592"
                 class="shp2"
                 d="m 959.39,870.01 c -0.36,0.65 -0.12,1.48 0.53,1.84 l 0.83,0.46 v -2.98 c -0.54,-0.07 -1.08,0.18 -1.36,0.68 z" />
              <path
                 id="path217594"
                 class="shp2"
                 d="m 935.78,846.22 c 0.35,0 0.69,-0.13 0.96,-0.39 l 2.16,-2.17 c 0.53,-0.53 0.53,-1.39 0,-1.91 -0.53,-0.53 -1.38,-0.53 -1.91,0 l -2.17,2.16 c -0.53,0.53 -0.53,1.39 0,1.92 0.27,0.26 0.61,0.39 0.96,0.39 z" />
              <path
                 id="path217596"
                 class="shp2"
                 d="m 933.62,850.14 -2.83,-1.18 c -0.69,-0.29 -1.48,0.04 -1.76,0.73 -0.29,0.69 0.03,1.48 0.72,1.77 l 2.83,1.18 c 0.17,0.07 0.35,0.1 0.52,0.1 0.53,0 1.03,-0.31 1.25,-0.83 0.29,-0.69 -0.04,-1.48 -0.73,-1.77 z" />
              <path
                 id="path217598"
                 class="shp2"
                 d="m 927.46,843.73 v 3.3 l 1.48,-1.06 c 0.61,-0.43 0.76,-1.27 0.32,-1.88 -0.41,-0.59 -1.2,-0.73 -1.8,-0.36 z" />
              <path
                 id="path217600"
                 class="shp2"
                 d="m 929.47,863.91 c -0.11,-0.74 -0.79,-1.25 -1.53,-1.14 l -0.48,0.07 v 2.74 l 0.87,-0.13 c 0.74,-0.11 1.25,-0.8 1.14,-1.54 z" />
              <path
                 id="path217602"
                 class="shp2"
                 d="m 957.98,858.45 1.57,-2.63 c 0.39,-0.64 0.18,-1.47 -0.46,-1.86 -0.64,-0.38 -1.48,-0.17 -1.86,0.47 l -1.57,2.63 c -0.39,0.64 -0.18,1.47 0.46,1.85 0.22,0.13 0.46,0.2 0.7,0.2 0.45,0 0.9,-0.24 1.16,-0.66 z" />
              <path
                 id="path217604"
                 class="shp2"
                 d="m 948.67,842.03 c -0.7,-0.27 -1.48,0.07 -1.76,0.77 l -1.12,2.85 c -0.27,0.7 0.07,1.48 0.77,1.75 0.16,0.07 0.33,0.1 0.49,0.1 0.54,0 1.05,-0.33 1.26,-0.86 l 1.12,-2.85 c 0.28,-0.7 -0.07,-1.48 -0.76,-1.76 z" />
              <path
                 id="path217606"
                 class="shp2"
                 d="m 947.56,867.17 2.99,0.7 c 0.1,0.02 0.2,0.03 0.3,0.03 0.62,0 1.18,-0.42 1.32,-1.04 0.17,-0.73 -0.28,-1.45 -1.01,-1.62 l -2.98,-0.7 c -0.73,-0.17 -1.46,0.28 -1.63,1.01 -0.17,0.73 0.28,1.45 1.01,1.62 z" />
              <path
                 id="path217608"
                 class="shp2"
                 d="m 952.7,872.68 c 0.23,0 0.45,-0.05 0.66,-0.17 l 2.68,-1.49 c 0.65,-0.36 0.89,-1.19 0.52,-1.84 -0.36,-0.65 -1.18,-0.88 -1.84,-0.52 l -2.67,1.49 c -0.66,0.36 -0.89,1.18 -0.53,1.84 0.25,0.44 0.71,0.69 1.18,0.69 z" />
              <path
                 id="path217610"
                 class="shp2"
                 d="m 946.8,858.63 c -0.08,-0.74 -0.74,-1.27 -1.49,-1.19 l -3.05,0.35 c -0.74,0.08 -1.28,0.75 -1.19,1.49 0.08,0.69 0.66,1.2 1.34,1.2 0.05,0 0.1,0 0.15,-0.01 l 3.05,-0.34 c 0.74,-0.09 1.27,-0.75 1.19,-1.5 z" />
              <path
                 id="path217612"
                 class="shp2"
                 d="m 942.59,841.24 c -0.08,0.74 0.45,1.41 1.2,1.49 0.05,0 0.1,0 0.15,0 0.68,0 1.26,-0.51 1.34,-1.2 l 0.12,-1.11 h -2.72 z" />
              <path
                 id="path217614"
                 class="shp2"
                 d="m 945.61,871.77 c 0.08,-0.74 -0.45,-1.41 -1.19,-1.49 -0.75,-0.09 -1.41,0.45 -1.5,1.2 l -0.24,2.23 h 2.72 z" />
              <path
                 id="path217616"
                 class="shp2"
                 d="m 956.84,840.58 -3.06,-0.06 c -0.7,0.01 -1.37,0.58 -1.38,1.33 -0.01,0.75 0.58,1.36 1.33,1.38 l 3.06,0.05 h 0.03 c 0.73,0 1.34,-0.59 1.35,-1.33 0.01,-0.74 -0.58,-1.36 -1.33,-1.37 z" />
              <path
                 id="path217618"
                 class="shp2"
                 d="m 958.17,845.54 c -0.61,0.43 -0.75,1.28 -0.32,1.89 0.26,0.37 0.68,0.57 1.1,0.57 0.27,0 0.55,-0.08 0.78,-0.25 l 1.02,-0.72 v -3.3 c -0.03,0.02 -0.06,0.02 -0.08,0.04 z" />
              <path
                 id="path217620"
                 class="shp2"
                 d="m 950.51,857.75 c -0.62,0.41 -0.79,1.25 -0.38,1.87 l 1.7,2.56 c 0.26,0.39 0.69,0.6 1.12,0.6 0.26,0 0.52,-0.07 0.75,-0.22 0.62,-0.42 0.79,-1.25 0.38,-1.88 l -1.69,-2.55 c -0.41,-0.63 -1.25,-0.79 -1.88,-0.38 z" />
              <path
                 id="path217622"
                 class="shp2"
                 d="m 952.09,848.71 1.25,2.79 c 0.22,0.51 0.71,0.81 1.23,0.81 0.19,0 0.37,-0.04 0.55,-0.12 0.69,-0.31 0.99,-1.11 0.69,-1.79 l -1.25,-2.8 c -0.31,-0.68 -1.1,-0.98 -1.79,-0.68 -0.68,0.3 -0.99,1.1 -0.68,1.79 z" />
              <path
                 id="path217624"
                 class="shp2"
                 d="m 950.59,852.07 -3.04,-0.36 c -0.74,-0.09 -1.41,0.44 -1.5,1.18 -0.09,0.74 0.44,1.41 1.18,1.5 l 3.04,0.37 c 0.06,0 0.11,0.01 0.16,0.01 0.68,0 1.26,-0.51 1.35,-1.19 0.08,-0.75 -0.44,-1.42 -1.19,-1.51 z" />
            </g>
          </g>
        </g>
        <path
           id="path217632"
           fill-rule="evenodd"
           class="shp2"
           d="m 982.18,864.67 h -28.94 c -0.85,0 -1.53,-0.68 -1.53,-1.52 0,-14.24 5.55,-27.63 15.62,-37.7 2.65,-2.65 5.57,-5.02 8.66,-7.02 8.67,-5.63 18.72,-8.6 29.04,-8.6 h 21.41 c 0.85,0 1.53,0.68 1.53,1.52 v 28.95 c 0,0.84 -0.68,1.52 -1.53,1.52 h -21.41 c -2.11,0 -4.19,0.31 -6.17,0.91 -1.93,0.59 -3.77,1.44 -5.47,2.53 -1.22,0.81 -2.35,1.73 -3.43,2.82 -4.04,4.03 -6.26,9.38 -6.26,15.07 0,0.84 -0.68,1.52 -1.52,1.52 z m -27.4,-3.05 h 25.92 c 0.37,-5.92 2.85,-11.45 7.1,-15.7 1.24,-1.23 2.52,-2.28 3.93,-3.21 1.95,-1.25 4.04,-2.23 6.24,-2.89 2.27,-0.7 4.65,-1.05 7.06,-1.05 h 19.89 v -25.89 h -19.89 c -9.74,0 -19.2,2.8 -27.39,8.1 -2.91,1.89 -5.65,4.12 -8.16,6.62 -9.13,9.14 -14.32,21.17 -14.7,34.02 z" />
      </g>
      <g
         id="g217640">
        <path
           id="path217636"
           class="shp0"
           d="M 1041.68,870.76 1026.44,886 h -21.41 c -6.31,0 -12.01,-2.56 -16.15,-6.71 -4.14,-4.14 -6.7,-9.84 -6.7,-16.14 0,-6.31 2.56,-12.01 6.7,-16.15 1.13,-1.13 2.35,-2.13 3.69,-3.02 1.79,-1.15 3.74,-2.07 5.85,-2.71 -0.67,2.1 -1.01,4.33 -1.01,6.64 0,6.31 2.56,12.01 6.7,16.15 4.15,4.14 9.84,6.7 16.15,6.7 z" />
        <path
           id="path217638"
           fill-rule="evenodd"
           class="shp2"
           d="m 1026.44,887.52 h -21.41 c -6.5,0 -12.62,-2.54 -17.23,-7.15 -4.61,-4.61 -7.15,-10.73 -7.15,-17.22 0,-6.5 2.54,-12.62 7.15,-17.23 1.24,-1.23 2.52,-2.28 3.93,-3.21 1.95,-1.25 4.04,-2.23 6.24,-2.89 0.54,-0.16 1.13,-0.02 1.53,0.38 0.4,0.4 0.54,1 0.37,1.54 -0.62,1.94 -0.94,4.02 -0.94,6.17 0,5.69 2.23,11.04 6.26,15.07 4.03,4.04 9.39,6.26 15.07,6.26 h 21.42 c 0.61,0 1.17,0.37 1.4,0.94 0.24,0.57 0.11,1.22 -0.33,1.66 l -15.23,15.23 c -0.28,0.29 -0.67,0.45 -1.08,0.45 z m -30.19,-43.81 c -0.99,0.45 -1.94,0.96 -2.86,1.55 -1.22,0.81 -2.35,1.73 -3.43,2.82 -4.04,4.03 -6.26,9.38 -6.26,15.07 0,5.68 2.22,11.03 6.26,15.07 4.03,4.03 9.38,6.25 15.07,6.25 h 20.78 L 1038,872.29 h -17.74 c -6.5,0 -12.62,-2.54 -17.22,-7.15 -4.61,-4.61 -7.15,-10.73 -7.15,-17.23 0,-1.43 0.12,-2.83 0.36,-4.2 z" />
      </g>
      <g
         id="g217644">
        <path
           id="path217642"
           class="shp3"
           d="m 1034.06,908.84 c -0.84,0 -1.52,-0.68 -1.52,-1.52 v -56.36 c 0,-0.84 0.68,-1.52 1.52,-1.52 0.84,0 1.52,0.68 1.52,1.52 v 56.36 c 0,0.84 -0.68,1.52 -1.52,1.52 z" />
      </g>
      <g
         id="g217648">
        <path
           id="path217646"
           class="shp3"
           d="m 1041.68,901.23 c -0.84,0 -1.53,-0.68 -1.53,-1.53 v -56.36 c 0,-0.84 0.69,-1.52 1.53,-1.52 0.84,0 1.52,0.68 1.52,1.52 v 56.36 c 0,0.85 -0.68,1.53 -1.52,1.53 z" />
      </g>
      <g
         id="g217654">
        <path
           id="path217650"
           class="shp0"
           d="m 1022.09,914.94 h 4.35" />
        <path
           id="path217652"
           class="shp2"
           d="m 1026.44,916.46 h -4.35 c -0.84,0 -1.52,-0.68 -1.52,-1.52 0,-0.84 0.68,-1.53 1.52,-1.53 h 4.35 c 0.85,0 1.53,0.69 1.53,1.53 0,0.84 -0.68,1.52 -1.53,1.52 z" />
      </g>
      <g
         id="g217658">
        <path
           id="path217656"
           class="shp3"
           d="m 1026.44,916.46 c -0.84,0 -1.52,-0.68 -1.52,-1.52 v -56.36 c 0,-0.85 0.68,-1.53 1.52,-1.53 0.85,0 1.53,0.68 1.53,1.53 v 56.36 c 0,0.84 -0.68,1.52 -1.53,1.52 z" />
      </g>
      <g
         id="g217664">
        <path
           id="path217660"
           class="shp0"
           d="m 1041.71,899.7 -15.25,15.25" />
        <path
           id="path217662"
           class="shp2"
           d="m 1026.46,916.48 c -0.39,0 -0.78,-0.15 -1.08,-0.45 -0.59,-0.59 -0.59,-1.56 0,-2.15 l 15.25,-15.25 c 0.59,-0.6 1.56,-0.6 2.15,0 0.6,0.59 0.6,1.56 0,2.15 l -15.24,15.25 c -0.3,0.3 -0.69,0.45 -1.08,0.45 z" />
      </g>
      <g
         id="g217670">
        <path
           id="path217666"
           class="shp0"
           d="m 1014.02,914.94 h 12.42" />
        <path
           id="path217668"
           class="shp2"
           d="m 1026.44,916.46 h -12.42 c -0.85,0 -1.53,-0.68 -1.53,-1.52 0,-0.84 0.68,-1.53 1.53,-1.53 h 12.42 c 0.85,0 1.53,0.69 1.53,1.53 0,0.84 -0.68,1.52 -1.53,1.52 z" />
      </g>
      <g
         id="g217676">
        <path
           id="path217672"
           class="shp3"
           d="m 1041.71,870.73 v 28.97 l -15.27,15.24 V 886 Z" />
        <path
           id="path217674"
           fill-rule="evenodd"
           class="shp2"
           d="m 1026.44,916.46 c -0.19,0 -0.39,-0.04 -0.58,-0.12 -0.57,-0.23 -0.94,-0.79 -0.94,-1.4 v -28.95 c 0,-0.4 0.16,-0.79 0.45,-1.07 l 15.26,-15.26 c 0.44,-0.44 1.1,-0.57 1.66,-0.33 0.57,0.23 0.94,0.79 0.94,1.4 v 28.97 c 0,0.41 -0.16,0.8 -0.45,1.08 l -15.26,15.24 c -0.29,0.29 -0.68,0.44 -1.08,0.44 z m 1.53,-29.83 v 24.63 l 12.21,-12.19 v -24.66 z" />
      </g>
    </g>
    <g
       id="g217684">
      <path
         id="path217680"
         class="shp0"
         d="m 1041.68,870.76 h -1.77" />
      <path
         id="path217682"
         class="shp2"
         d="m 1041.68,872.29 h -1.77 c -0.84,0 -1.52,-0.69 -1.52,-1.53 0,-0.84 0.68,-1.52 1.52,-1.52 h 1.77 c 0.84,0 1.52,0.68 1.52,1.52 0,0.84 -0.68,1.53 -1.52,1.53 z" />
    </g>
  </g>
  <metadata
     id="metadata220837">
    <rdf:RDF>
      <cc:Work
         rdf:about="">
        <dc:title>AdobeStock_122748317-ai</dc:title>
      </cc:Work>
    </rdf:RDF>
  </metadata>
</svg>
