<svg id="Capa_1" enable-background="new 0 0 512 512" height="512" viewBox="0 0 512 512" width="512" xmlns="http://www.w3.org/2000/svg"><g><path d="m326.179 376.082h-140.358c-8.002 0-15.555-1.906-22.248-5.271l35.328 93.247c9.222 24.342 32.539 40.442 58.57 40.442 26.03 0 49.348-16.1 58.57-40.442l36.112-95.317c-7.556 4.652-16.45 7.341-25.974 7.341z" fill="#ffff6f"/><path d="m368.448 304.852c-14.07 7.439-30.909 7.439-44.979 0-14.07-7.438-30.909-7.438-44.979 0-14.07 7.439-30.909 7.439-44.979 0-14.07-7.438-30.909-7.438-44.979 0-14.07 7.439-30.909 7.439-44.979 0-2.647-1.399-5.1-3.06-7.343-4.935v26.554c0 27.399 22.212 49.611 49.611 49.611h140.359c27.399 0 49.611-22.212 49.611-49.611v-26.554c-2.244 1.875-4.697 3.536-7.343 4.935z" fill="#ffff6f"/><path d="m375.79 295.417c-4.143 0-7.5 3.357-7.5 7.5v23.554c0 23.554-19.266 42.111-42.11 42.111h-140.36c-23.142 0-42.11-18.839-42.11-42.111v-23.555c0-4.142-3.357-7.5-7.5-7.5s-7.5 3.358-7.5 7.5v23.555c0 21.205 11.625 39.734 28.829 49.585l34.347 90.658c10.263 27.087 36.62 45.286 65.585 45.286s55.32-18.199 65.583-45.285l35.256-93.057c15.068-10.292 24.98-27.602 24.98-47.187v-23.554c0-4.143-3.357-7.5-7.5-7.5zm-36.725 86.696-30.039 79.287c-8.067 21.293-28.786 35.6-51.557 35.6-22.77 0-43.488-14.307-51.556-35.6l-29.792-78.635c2.795.481 6.417.816 9.698.816h140.361c4.535.001 9.26-.62 12.885-1.468z" fill="#f95116"/><path d="m256 7.5c-74.524 0-134.937 60.413-134.937 134.937v27.435c0 15.649 8.655 30.014 22.49 37.328 14.07 7.438 30.909 7.438 44.979 0 14.07-7.438 30.909-7.438 44.979 0 14.07 7.438 30.909 7.438 44.979 0s30.909-7.438 44.979 0 30.909 7.438 44.979 0c13.835-7.314 22.489-21.679 22.489-37.328v-27.435c0-74.524-60.413-134.937-134.937-134.937z" fill="#ff9bff"/><path d="m368.448 207.2c-14.07 7.438-30.909 7.438-44.979 0s-30.909-7.438-44.979 0-30.909 7.438-44.979 0c-14.07-7.438-30.909-7.438-44.979 0-14.07 7.438-30.909 7.438-44.979 0-5.89-3.114-10.829-7.514-14.573-12.738-5.12 14.252-7.917 29.612-7.917 45.626v27.435c0 15.649 8.655 30.014 22.49 37.328 14.07 7.439 30.909 7.439 44.979 0 14.07-7.438 30.909-7.438 44.979 0 14.07 7.439 30.909 7.439 44.979 0 14.07-7.438 30.909-7.438 44.979 0 14.07 7.439 30.909 7.439 44.979 0 13.835-7.314 22.489-21.679 22.489-37.328v-27.435c0-16.015-2.797-31.374-7.917-45.626-3.744 5.225-8.683 9.625-14.572 12.738z" fill="#ff63ed"/><g fill="#e207b9"><circle cx="308.823" cy="130.501" r="10.896"/><circle cx="206.118" cy="130.501" r="10.896"/><circle cx="308.823" cy="242.923" r="10.896"/><g><path d="m398.438 142.437c0-78.54-63.898-142.437-142.438-142.437s-142.437 63.897-142.437 142.437v27.435c0 9.241 2.538 18.073 7.119 25.675-4.721 14.344-7.119 29.308-7.119 44.542v27.435c0 18.479 10.148 35.323 26.485 43.959 16.275 8.605 35.713 8.605 51.988 0 11.889-6.284 26.081-6.285 37.97 0 16.275 8.605 35.713 8.605 51.988 0 11.89-6.285 26.082-6.284 37.97 0 16.274 8.604 35.711 8.606 51.988 0 16.337-8.636 26.485-25.48 26.485-43.959v-27.435c0-15.233-2.398-30.198-7.119-44.542 4.581-7.602 7.119-16.434 7.119-25.675v-27.435zm-269.875 0c0-70.269 57.167-127.437 127.437-127.437s127.438 57.168 127.438 127.437v27.435c0 12.467-6.576 23.463-16.612 29.618-21.855 13.338-41.962-.173-46.092-1.744-14.555-5.542-31.36-4.785-45.75 2.823-22.086 11.676-39.209-1.372-47.417-3.933-11.853-3.697-24.637-3.327-36.302 1.11-7.06 2.685-11.609 6.788-22.78 7.463-21.311 1.285-39.923-13.877-39.923-35.337v-27.435zm254.875 125.086c0 12.904-7.087 24.667-18.495 30.698-11.889 6.285-26.08 6.285-37.969 0-8.139-4.302-17.066-6.454-25.995-6.454-8.928 0-17.855 2.151-25.994 6.454-11.889 6.285-26.08 6.285-37.969 0-16.278-8.605-35.713-8.604-51.989 0-11.889 6.285-26.08 6.285-37.969 0-11.408-6.031-18.495-17.793-18.495-30.698v-27.435c0-10.608 1.295-21.068 3.858-31.231 9.649 7.622 22.947 12.173 36.968 11.327 7.916-.477 15.626-2.641 22.647-6.353 11.889-6.285 26.079-6.285 37.97 0 16.267 8.601 35.701 8.61 51.988 0 11.888-6.284 26.079-6.285 37.97 0 19.993 10.571 43.709 7.587 59.615-4.974 2.563 10.163 3.858 20.623 3.858 31.231v27.435z"/><path d="m234.398 167.368h46.144c4.143 0 7.5-3.358 7.5-7.5s-3.357-7.5-7.5-7.5h-46.144c-4.143 0-7.5 3.358-7.5 7.5s3.358 7.5 7.5 7.5z"/><path d="m280.542 264.789h-46.144c-4.143 0-7.5 3.358-7.5 7.5 0 4.143 3.357 7.5 7.5 7.5h46.144c4.143 0 7.5-3.357 7.5-7.5 0-4.142-3.357-7.5-7.5-7.5z"/></g><circle cx="206.118" cy="242.923" r="10.896"/></g></g></svg>