<svg id="Capa_1" enable-background="new 0 0 512 512" height="512" viewBox="0 0 512 512" width="512" xmlns="http://www.w3.org/2000/svg"><g><path d="m121.309 442.685h-13.12v-23.515c-13.863-.149-27.09-3.882-39.21-10.14v53.259c0 10.827 8.777 19.605 19.605 19.605h32.725c10.827 0 19.605-8.777 19.605-19.605 0-10.827-8.778-19.604-19.605-19.604z" fill="#ffd600"/><path d="m188.838 442.685h-13.12v-46.95c-11.384 9.149-24.686 16.006-39.21 19.871v34.305c2.753 3.376 4.405 7.684 4.405 12.379 0 3.256-.798 6.323-2.203 9.025 3.266 6.284 9.831 10.579 17.402 10.579h32.725c10.827 0 19.605-8.777 19.605-19.605.001-10.827-8.776-19.604-19.604-19.604z" fill="#ffd600"/><g fill="#f95116"><path d="m108.189 419.17c-13.863-.149-27.09-3.882-39.21-10.14v22.508c12.762 5.249 25.892 7.958 39.21 8.07z"/><path d="m175.718 420.662v-24.926c-11.384 9.149-24.686 16.006-39.21 19.871v21.018c14.087-3.12 27.301-8.583 39.21-15.963z"/><path d="m188.839 435.185h-5.62v-36.45c0-4.142-3.357-7.5-7.5-7.5s-7.5 3.358-7.5 7.5v43.95c0 4.142 3.357 7.5 7.5 7.5h13.12c6.675 0 12.104 5.43 12.104 12.105s-5.43 12.105-12.104 12.105h-32.725c-3.467 0-6.69-1.465-8.952-3.958.832-2.634 1.253-5.558 1.253-8.147 0-5.219-1.549-10.432-4.405-14.808v-28.876c0-4.142-3.357-7.5-7.5-7.5s-7.5 3.358-7.5 7.5v17.7c-2.442-.725-5.025-1.121-7.7-1.121h-5.62v-13.015c0-4.142-3.357-7.5-7.5-7.5s-7.5 3.358-7.5 7.5v20.514c0 4.142 3.357 7.5 7.5 7.5h13.12c6.661 0 12.105 5.417 12.105 12.105 0 6.593-5.391 12.105-12.105 12.105h-32.726c-6.675 0-12.104-5.43-12.104-12.105v-50.259c0-4.142-3.357-7.5-7.5-7.5s-7.5 3.358-7.5 7.5v50.259c0 14.946 12.159 27.105 27.104 27.105h32.725c6.615 0 12.682-2.385 17.392-6.336 4.792 4.026 10.907 6.336 17.412 6.336h32.725c14.945 0 27.104-12.159 27.104-27.105s-12.158-27.104-27.103-27.104z"/></g><path d="m390.69 442.685h13.12v-23.515c13.863-.149 27.09-3.882 39.21-10.14v53.259c0 10.827-8.777 19.605-19.605 19.605h-32.725c-10.827 0-19.605-8.777-19.605-19.605 0-10.827 8.777-19.604 19.605-19.604z" fill="#ffd600"/><path d="m323.16 442.685h13.12v-46.95c11.384 9.149 24.686 16.006 39.21 19.871v34.305c-2.753 3.376-4.405 7.684-4.405 12.379 0 3.256.798 6.323 2.203 9.025-3.266 6.284-9.831 10.579-17.402 10.579h-32.726c-10.827 0-19.605-8.777-19.605-19.605 0-10.827 8.778-19.604 19.605-19.604z" fill="#ffd600"/><path d="m403.81 419.17c13.863-.149 27.09-3.882 39.21-10.14v22.508c-12.762 5.249-25.892 7.958-39.21 8.07z" fill="#f95116"/><path d="m336.28 420.662v-24.926c11.384 9.149 24.686 16.006 39.21 19.871v21.018c-14.087-3.12-27.3-8.583-39.21-15.963z" fill="#f95116"/><path d="m443.019 404.531c-4.143 0-7.5 3.358-7.5 7.5v50.259c0 6.675-5.43 12.105-12.104 12.105h-32.725c-6.792 0-12.104-5.598-12.104-12.105 0-6.592 5.355-12.105 12.104-12.105h13.12c4.143 0 7.5-3.358 7.5-7.5v-20.514c0-4.142-3.357-7.5-7.5-7.5s-7.5 3.358-7.5 7.5v13.015h-5.62c-2.674 0-5.257.395-7.699 1.12v-17.7c0-4.142-3.357-7.5-7.5-7.5s-7.5 3.358-7.5 7.5v28.876c-2.926 4.476-4.405 9.73-4.405 14.808 0 2.58.418 5.5 1.253 8.146-2.262 2.493-5.486 3.958-8.953 3.958h-32.724c-6.675 0-12.105-5.43-12.105-12.105s5.431-12.105 12.105-12.105h13.12c4.143 0 7.5-3.358 7.5-7.5v-43.95c0-4.142-3.357-7.5-7.5-7.5s-7.5 3.358-7.5 7.5v36.45h-5.62c-14.946 0-27.105 12.159-27.105 27.105s12.159 27.105 27.105 27.105h32.724c6.506 0 12.621-2.31 17.413-6.336 4.71 3.951 10.777 6.336 17.391 6.336h32.725c14.945 0 27.104-12.159 27.104-27.105v-50.259c0-4.141-3.358-7.499-7.5-7.499z" fill="#f95116"/><path d="m296.442 312.681v-12.329c-12.052-1.168-21.477-11.328-21.477-23.695 0-6.571 2.667-12.518 6.969-16.83 3.798-3.789 8.865-6.307 14.508-6.855v-7.233c0-43.911 35.597-79.507 79.507-79.507 28.823 0 54.064 15.338 68.006 38.297 62.866-135.891-86.58-233.139-187.957-133.613-101.376-99.528-250.822-2.28-187.956 133.611 13.942-22.959 39.183-38.297 68.006-38.297 43.911 0 79.507 35.597 79.507 79.507v7.233c5.643.548 10.71 3.066 14.508 6.855 4.302 4.312 6.969 10.26 6.969 16.83 0 12.367-9.425 22.527-21.477 23.695v12.329c0 11.873-1.945 23.291-5.53 33.956 12.195 7.569 25.201 15.1 39.081 22.57 4.3 2.314 9.483 2.314 13.784 0 13.88-7.47 26.886-15.001 39.081-22.57-3.583-10.663-5.529-22.081-5.529-33.954z" fill="#ff63ed"/><path d="m31.784 402.512c-13.569-13.569-3.35-45.788 10.219-59.357s35.569-13.569 49.139 0 13.569 35.569 0 49.139c-13.57 13.569-45.789 23.787-59.358 10.218z" fill="#ffceff"/><path d="m213.233 300.466h-42.03c-6.571 0-12.518-2.667-16.83-6.969-4.302-4.312-6.969-10.27-6.969-16.841 0-13.141 10.658-23.8 23.8-23.8h42.03c.784 0 1.558.04 2.323.115v-7.233c0-43.911-35.597-79.507-79.507-79.507-43.911 0-79.507 35.597-79.507 79.507v56.724h-21.444c-19.32 0-32.586 19.315-25.8 37.404 4.173 11.123 10.161 22.133 17.59 32.255 2.639-11.207 8.47-22.322 15.114-28.966 13.569-13.569 35.569-13.569 49.139 0 13.569 13.569 13.569 35.569 0 49.139-6.131 6.131-16.07 11.569-26.376 14.447 13.486 7.775 28.483 12.446 44.285 12.446 58.821 0 106.505-47.684 106.505-106.505v-12.329c-.764.073-1.539.113-2.323.113z" fill="#ffceff"/><circle cx="176.896" cy="240.707" fill="#e207b9" r="11.296"/><path d="m237.033 276.657h-89.63c0-13.141 10.658-23.8 23.8-23.8h42.03c6.571 0 12.518 2.667 16.83 6.969 4.303 4.312 6.97 10.26 6.97 16.831z" fill="#ffd600"/><path d="m237.033 276.657c0 13.152-10.658 23.81-23.8 23.81h-42.03c-6.571 0-12.518-2.667-16.83-6.969-4.302-4.312-6.969-10.27-6.969-16.841z" fill="#ffd600"/><path d="m480.215 402.512c13.569-13.569 3.35-45.788-10.219-59.357s-35.569-13.569-49.139 0-13.569 35.569 0 49.139c13.57 13.569 45.789 23.787 59.358 10.218z" fill="#7181ff"/><path d="m298.765 300.466h42.03c6.571 0 12.518-2.667 16.831-6.969 4.302-4.312 6.969-10.27 6.969-16.841 0-13.141-10.658-23.8-23.8-23.8h-42.03c-.784 0-1.558.04-2.323.115v-7.233c0-43.911 35.597-79.507 79.507-79.507 43.911 0 79.507 35.597 79.507 79.507v56.724h21.444c19.32 0 32.586 19.315 25.8 37.404-4.173 11.123-10.161 22.133-17.59 32.255-2.639-11.207-8.47-22.322-15.114-28.966-13.569-13.569-35.569-13.569-49.139 0-13.569 13.569-13.569 35.569 0 49.139 6.131 6.131 16.07 11.569 26.376 14.447-13.486 7.775-28.482 12.446-44.285 12.446-58.821 0-106.505-47.684-106.505-106.505v-12.329c.764.073 1.538.113 2.322.113z" fill="#7181ff"/><path d="m274.965 276.657h89.63c0-13.141-10.658-23.8-23.8-23.8h-42.03c-6.571 0-12.518 2.667-16.83 6.969-4.302 4.312-6.97 10.26-6.97 16.831z" fill="#ffd600"/><path d="m274.965 276.657c0 13.152 10.658 23.81 23.8 23.81h42.03c6.571 0 12.518-2.667 16.831-6.969 4.302-4.312 6.969-10.27 6.969-16.841z" fill="#ffd600"/><path d="m462.374 109.468c-21.691-82.612-126.893-120.908-206.378-48.861-24.116-21.814-52.012-34.728-81.081-37.459-58.491-5.496-111.809 31.341-125.764 88.182-7.106 28.943-3.47 60.956 10.495 92.811-6.759 12.365-10.605 26.54-10.605 41.597v49.224h-13.942c-24.56 0-41.432 24.587-32.823 47.538 4.08 10.874 9.668 21.379 16.599 31.285-2.649 14.42.011 26.437 7.604 34.03 9.318 9.316 23.702 9.966 36.616 7.084.211-.047.422-.104.633-.153 14.651 7.922 29.883 11.939 45.323 11.939 46.876 0 87.229-28.441 104.725-68.971 10.21 6.152 20.86 12.222 31.777 18.097 6.54 3.521 14.352 3.521 20.893 0 13.099-7.05 25.828-14.379 37.834-21.783 3.526-2.174 4.621-6.795 2.447-10.321-2.176-3.526-6.797-4.62-10.32-2.446-11.757 7.25-24.228 14.431-37.069 21.342-2.092 1.125-4.587 1.125-6.677 0-11.641-6.265-22.973-12.749-33.764-19.317 5.548-19.961 3.829-34.816 4.159-39.935 0-4.142-3.357-7.5-7.5-7.5s-7.5 3.358-7.5 7.5c-.213 7.908 1.205 20.743-4.577 39.101-12.667 40.089-50.207 69.234-94.429 69.234-8.62 0-17.203-1.518-25.659-4.527 29.311-16.198 32.85-49.51 13.054-69.308-.01-.01-.021-.02-.031-.03-19.15-19.122-54.678-18.26-71.529 17.491-3.389-5.903-6.284-12.004-8.563-18.081-4.968-13.242 4.717-27.27 18.778-27.27h21.442c4.143 0 7.5-3.358 7.5-7.5v-56.724c0-39.844 32.455-72.008 72.008-72.008 39.71 0 72.007 32.306 72.007 72.008 0 .421 0 4.338 0 4.233 0 4.142 3.357 7.5 7.5 7.5s7.5-3.358 7.5-7.5c0-.848 0-4.338 0-4.233 0-48.08-39.126-87.007-87.008-87.007-25.684 0-49.698 11.031-66.249 30.56-9.629-25.814-11.746-51.308-6.08-74.385 18.352-74.762 114.702-109.642 187.025-38.638 2.918 2.864 7.592 2.864 10.508 0 22.647-22.233 49.183-35.421 76.74-38.137 50.638-4.991 97.03 26.23 109.874 75.148 6.874 26.179 3.636 55.608-9.364 85.105-1.67 3.79.048 8.217 3.839 9.888 3.789 1.67 8.216-.048 9.888-3.838 14.38-32.634 17.889-65.471 10.144-94.965zm-425.287 287.741c-4.61-4.609-5.129-13.632-3.001-23.043.031-.11.076-.214.102-.327 8.123-34.504 35.808-41.223 51.649-25.382 16.678 16.678 7.635 44.288-26.009 51.802-10.231 2.284-18.519 1.172-22.741-3.05z" fill="#e207b9"/><circle cx="120.342" cy="240.707" fill="#e207b9" r="11.296"/><path d="m476.9 294.962h-13.943v-49.224c0-47.976-39.031-87.007-87.007-87.007s-87.008 39.031-87.008 87.007v5.181c0 4.142 3.357 7.5 7.5 7.5s7.5-3.358 7.5-7.5v-5.181c0-39.705 32.302-72.008 72.008-72.008 39.705 0 72.007 32.302 72.007 72.008v56.724c0 4.142 3.357 7.5 7.5 7.5h21.443c14.104 0 23.73 14.068 18.777 27.269-2.28 6.078-5.175 12.18-8.563 18.081-3.52-7.468-8.541-15.064-15.014-20.353-.017-.013-.033-.025-.05-.039-16.494-13.438-40.931-12.609-56.465 2.901-.01.01-.021.019-.031.029-16.522 16.524-16.429 43.316 0 59.745.008.008.018.017.026.025 3.706 3.702 8.386 6.96 13.026 9.538-8.455 3.009-17.039 4.527-25.659 4.527-54.592 0-99.006-44.414-99.006-99.005v-9.329c0-4.142-3.357-7.5-7.5-7.5s-7.5 3.358-7.5 7.5v9.329c0 62.863 51.143 114.005 114.006 114.005 15.439 0 30.671-4.017 45.322-11.939 13.118 3.067 27.799 2.518 37.249-6.931 7.593-7.593 10.253-19.611 7.604-34.031 6.93-9.903 12.519-20.408 16.599-31.284 8.626-22.993-8.313-47.538-32.821-47.538zm-1.989 102.247c-9.666 9.669-37.224 1.253-48.702-10.173-.015-.016-.032-.031-.048-.046-10.586-10.586-10.66-27.873 0-38.532 10.654-10.654 27.88-10.652 38.531 0 10.314 10.313 20.566 38.405 10.219 48.751z" fill="#2115c2"/><circle cx="335.102" cy="240.707" fill="#2115c2" r="11.296"/><path d="m213.234 245.357h-42.031c-17.259 0-31.3 14.041-31.3 31.3 0 17.174 13.88 31.31 31.3 31.31h42.031c17.259 0 31.3-14.046 31.3-31.31-.001-17.277-13.988-31.3-31.3-31.3zm-42.031 15h42.031c6.315 0 11.765 3.576 14.478 8.8h-70.979c2.719-5.224 8.185-8.8 14.47-8.8zm42.031 32.61h-42.031c-6.222 0-11.725-3.492-14.483-8.81h70.986c-2.718 5.23-8.185 8.81-14.472 8.81z" fill="#f95116"/><path d="m340.795 307.966c17.097 0 31.299-13.814 31.299-31.31 0-17.259-14.041-31.3-31.299-31.3h-42.03c-17.278 0-31.3 13.988-31.3 31.3 0 17.264 14.041 31.31 31.3 31.31zm-42.03-47.609h42.03c6.285 0 11.751 3.576 14.47 8.8h-70.98c2.725-5.249 8.202-8.8 14.48-8.8zm-14.471 23.8h70.986c-2.709 5.232-8.177 8.81-14.484 8.81h-42.03c-6.288 0-11.755-3.58-14.472-8.81z" fill="#f95116"/><circle cx="391.656" cy="240.707" fill="#2115c2" r="11.296"/></g></svg>