<svg id="Capa_1" enable-background="new 0 0 512 512" height="512" viewBox="0 0 512 512" width="512" xmlns="http://www.w3.org/2000/svg"><g><path d="m184.459 116.052h-.026c-5.333-12.712-7.504-23.234-7.411-32.098l-31.738-31.366c-3.02-2.984-6.914-4.925-11.115-5.539l-63.838-9.331c-6.842-1-13.199 3.736-14.2 10.578l-2.137 14.622c-1 6.842 3.736 13.199 10.578 14.2l57.371 8.386 44.867 44.342c4.895-5.683 10.885-10.394 17.649-13.794z" fill="#ddbeff"/><path d="m327.539 116.052h.026c5.333-12.712 7.504-23.234 7.411-32.098l31.738-31.366c3.02-2.984 6.914-4.925 11.115-5.539l63.838-9.331c6.842-1 13.199 3.736 14.2 10.578l2.137 14.622c1 6.842-3.736 13.199-10.578 14.2l-57.371 8.386-44.867 44.342c-4.895-5.683-10.884-10.394-17.649-13.794z" fill="#ddbeff"/><path d="m170.503 133.494c2.912-2.946 2.884-7.695-.062-10.607l-43.226-42.72c-1.138-1.124-2.606-1.855-4.188-2.086l-57.372-8.386c-2.739-.4-4.642-2.954-4.241-5.693l2.137-14.622c.401-2.736 2.938-4.643 5.694-4.241l63.839 9.331c2.637.385 5.032 1.579 6.928 3.453l30.007 29.655c2.943 2.911 7.693 2.884 10.606-.063 2.912-2.946 2.884-7.695-.063-10.607l-30.006-29.655c-4.187-4.138-9.479-6.775-15.303-7.626l-63.838-9.331c-10.94-1.599-21.103 5.955-22.705 16.914l-2.137 14.621c-1.597 10.923 5.99 21.109 16.914 22.706l54.936 8.03 41.474 40.989c2.943 2.909 7.692 2.886 10.606-.062z" fill="#6d00ca"/><path d="m465.425 61.832-2.138-14.622c-1.597-10.923-11.787-18.512-22.706-16.914l-63.837 9.331c-5.825.851-11.117 3.488-15.303 7.626l-29.62 29.272c-2.945 2.912-2.974 7.66-.062 10.607 2.911 2.946 7.66 2.974 10.606.063l29.62-29.272c1.895-1.873 4.29-3.067 6.928-3.452l63.837-9.331c2.749-.401 5.294 1.503 5.694 4.242l2.138 14.621c.401 2.752-1.501 5.293-4.242 5.693l-57.371 8.386c-1.582.231-3.05.962-4.187 2.086l-43.232 42.726c-2.946 2.912-2.975 7.66-.063 10.607 2.908 2.943 7.658 2.976 10.607.063l41.48-40.995 54.935-8.03c10.952-1.602 18.517-11.757 16.916-22.707z" fill="#6d00ca"/><path d="m184.459 116.052c7.693-3.867 16.374-6.058 25.572-6.058h91.936c9.197 0 17.879 2.19 25.572 6.058h.026c28.931-68.965-34.958-73.622-50.902-97.391-4.642-6.92-12.331-11.173-20.663-11.173-8.333 0-16.022 4.253-20.663 11.173-15.944 23.769-79.833 28.426-50.902 97.391z" fill="#ffceff"/><path d="m162.475 181.394h187.049c3.292 0 6.469.487 9.471 1.379v-15.753c0-31.495-25.532-57.027-57.027-57.027h-91.936c-31.495 0-57.027 25.532-57.027 57.027v15.753c3.001-.892 6.178-1.379 9.47-1.379z" fill="#ff63ed"/><path d="m336.885 112.8c18.319-50.483-11.86-69.121-34.131-82.867-8.335-5.144-16.207-10.003-19.862-15.451-12.955-19.314-40.835-19.306-53.785 0-3.654 5.447-11.527 10.306-19.862 15.451-22.272 13.746-52.45 32.384-34.131 82.867-17.797 11.501-29.611 31.501-29.611 54.221v11.752c0 4.143 3.358 7.5 7.5 7.5 4.143 0 7.5-3.358 7.5-7.5v-11.752c0-19.48 11.309-36.362 27.703-44.445 6.795-3.346 14.245-5.082 21.825-5.082h91.936c7.233 0 14.779 1.613 21.819 5.079 16.396 8.082 27.708 24.966 27.708 44.448v11.752c0 4.143 3.358 7.5 7.5 7.5 4.143 0 7.5-3.358 7.5-7.5v-11.752c.001-22.72-11.813-42.72-29.609-54.221zm-126.854-10.307c-6.988 0-14.355 1.153-21.378 3.633-13.074-37.784 7.14-50.263 28.471-63.428 9.758-6.023 18.974-11.711 24.44-19.859 7.014-10.458 21.857-10.456 28.87 0 5.466 8.148 14.682 13.837 24.44 19.859 21.332 13.165 41.545 25.644 28.471 63.428-6.817-2.406-14.171-3.633-21.378-3.633z" fill="#e207b9"/><path d="m305.967 448.011s13.363 5.343 24.495 17.897c13.255 14.948 2.3 38.592-17.679 38.592h-113.557c-20.281 0-30.861-24.037-17.255-39.078 11.042-12.206 24.06-17.411 24.06-17.411z" fill="#ddbeff"/><path d="m349.524 247.746h-187.049c-5.084 0-9.898-1.147-14.205-3.191-7.021 122.076 57.761 203.456 57.761 203.456h99.936s64.781-81.38 57.761-203.456c-4.306 2.044-9.121 3.191-14.204 3.191z" fill="#b98eff"/><path d="m349.524 181.394h-187.049c-18.323 0-33.176 14.853-33.176 33.176 0 18.323 14.853 33.176 33.176 33.176h187.049c18.323 0 33.176-14.853 33.176-33.176 0-18.323-14.854-33.176-33.176-33.176z" fill="#ddbeff"/><g fill="#6d00ca"><circle cx="307.86" cy="319.712" r="11.004"/><circle cx="204.139" cy="319.712" r="11.004"/><path d="m279.299 341.869h-46.599c-4.143 0-7.5 3.358-7.5 7.5s3.357 7.5 7.5 7.5h46.599c4.143 0 7.5-3.358 7.5-7.5s-3.358-7.5-7.5-7.5z"/><path d="m349.524 173.894h-187.05c-22.428 0-40.676 18.247-40.676 40.676 0 14.362 7.488 26.999 18.758 34.239-2.685 62.406 13.123 113.798 27.071 146.216 10.357 24.072 21.051 41.276 27.239 50.335-5.225 3.125-12.129 8.034-18.457 15.03-8.331 9.209-10.381 21.971-5.351 33.305 5.012 11.292 15.805 18.305 28.167 18.305h113.558c12.333 0 23.149-7.012 28.227-18.301 5.007-11.131 3.115-23.686-4.937-32.767-6.459-7.284-13.585-12.367-18.942-15.572 6.188-9.06 16.882-26.263 27.238-50.334 13.948-32.419 29.756-83.81 27.071-146.217 11.27-7.24 18.758-19.877 18.758-34.239.002-22.429-18.246-40.676-40.674-40.676zm-24.672 296.99c4.143 4.672 5.07 10.901 2.48 16.661-2.057 4.571-6.957 9.454-14.547 9.454h-113.56c-6.443 0-11.847-3.51-14.456-9.389-2.629-5.923-1.596-12.337 2.764-17.157 7.826-8.652 16.899-13.428 20.095-14.943h96.757c3.246 1.524 12.473 6.36 20.467 15.374zm31.792-216.257c1.501 57.022-13.004 104-25.84 133.973-11.575 27.029-23.806 45.238-28.603 51.909h-92.403c-4.8-6.675-17.03-24.883-28.603-51.909-12.836-29.973-27.341-76.951-25.84-133.973 2.146.378 4.749.619 7.12.619h187.05c2.447 0 5.066-.257 7.119-.619zm-7.12-14.381h-187.05c-14.14 0-25.675-11.533-25.675-25.676 0-14.158 11.518-25.675 25.675-25.675h187.05c14.158 0 25.675 11.518 25.675 25.675 0 14.084-11.45 25.676-25.675 25.676z"/></g></g></svg>