<svg id="Capa_1" enable-background="new 0 0 512 512" height="512" viewBox="0 0 512 512" width="512" xmlns="http://www.w3.org/2000/svg"><g><path d="m473.043 224.533v69.655h-89.867c-7.32 0-13.981 2.826-18.964 7.44-40.535-28.251-58.32-70.923-65.8-97.297.14-.1.28-.2.419-.3 12.133-8.828 16.907-22.949 8.089-35.092-3.026-4.144-7.799-8.289-13.272-11.634 6.381.539 12.683-.02 17.566-1.608 14.271-4.634 18.724-18.864 14.081-33.135-4.634-14.27-16.597-23.178-30.868-18.535-4.873 1.588-10.316 4.853-15.159 9.028 2.477-5.912 3.895-12.084 3.895-17.216 0-14.999-12.163-23.628-27.163-23.628-14.999 0-27.163 8.628-27.163 23.628 0 5.133 1.438 11.315 3.905 17.216-4.853-4.174-10.286-7.44-15.169-9.028-14.271-4.644-26.234 4.264-30.868 18.535-4.644 14.271-.19 28.501 14.081 33.135 4.873 1.588 11.185 2.137 17.566 1.598-5.472 3.335-10.256 7.5-13.272 11.644-8.818 12.143-4.044 26.264 8.089 35.092.14.1.28.2.419.3-7.48 26.374-25.265 69.046-65.8 97.297-4.983-4.614-11.644-7.44-18.964-7.44h-89.867v-69.655c0-119.866 97.177-217.033 217.043-217.033s217.043 97.167 217.043 217.033z" fill="#a4bcff"/><g><path d="m361.84 307.444c-1.529 0-3.071-.466-4.403-1.433-38.945-28.3-57.254-68.885-65.754-97.948-1.163-3.976 1.117-8.141 5.093-9.304 3.983-1.163 8.142 1.118 9.304 5.093 7.845 26.821 24.653 64.212 60.176 90.024 3.351 2.435 4.093 7.125 1.658 10.476-1.469 2.02-3.756 3.092-6.074 3.092z" fill="#2115c2"/></g><path d="m383.176 349.991s-50.741 57.092-55.714 154.509h-142.924c-4.973-97.417-55.714-154.509-55.714-154.509 15.409 0 27.902-12.493 27.902-27.902 0-7.699-3.126-14.68-8.169-19.733-.25-.25-.509-.499-.769-.729 40.535-28.251 58.32-70.923 65.8-97.297 12.063 8.518 26.733 8.548 35.451-3.455 3.026-4.154 5.482-9.996 6.95-16.228 1.478 6.232 3.955 12.074 6.97 16.228 8.718 12.004 23.388 11.974 35.452 3.455 7.48 26.374 25.265 69.046 65.8 97.297-.26.23-.519.479-.769.729-5.043 5.053-8.169 12.034-8.169 19.733.001 15.41 12.494 27.902 27.903 27.902z" fill="#565eec"/><g><path d="m327.463 512h-142.925c-3.993 0-7.287-3.129-7.49-7.118-4.394-86.061-44.883-139.114-52.955-148.875-2.64-3.192-2.191-7.92 1.001-10.559 3.191-2.639 7.92-2.193 10.559 1 8.375 10.127 49.49 63.929 55.93 150.552h128.837c6.422-86.169 47.362-140.116 55.702-150.276 2.629-3.203 7.354-3.666 10.556-1.039 3.201 2.628 3.666 7.354 1.038 10.556-8.044 9.799-48.391 63.02-52.762 148.641-.204 3.989-3.498 7.118-7.491 7.118z" fill="#2115c2"/></g><g><path d="m149.729 307.756c-2.328 0-4.623-1.081-6.089-3.114-2.423-3.36-1.663-8.047 1.696-10.47 35.718-25.758 52.628-63.223 60.524-90.116 1.167-3.974 5.327-6.251 9.31-5.083 3.974 1.167 6.25 5.335 5.083 9.309-8.558 29.144-26.979 69.813-66.144 98.057-1.325.957-2.859 1.417-4.38 1.417z" fill="#2115c2"/></g><g><path d="m362.673 308.045c-1.512 0-3.038-.456-4.36-1.403-39.305-28.145-57.832-68.816-66.454-97.979-1.174-3.972 1.094-8.144 5.066-9.319 3.973-1.174 8.144 1.094 9.318 5.066 7.955 26.908 24.961 64.371 60.802 90.036 3.368 2.411 4.144 7.097 1.731 10.464-1.463 2.046-3.766 3.135-6.103 3.135z" fill="#2115c2"/></g><g><path d="m149.128 308.188c-2.342 0-4.648-1.093-6.112-3.144-2.405-3.372-1.623-8.056 1.749-10.461 35.806-25.549 52.858-62.893 60.858-89.722 1.185-3.97 5.366-6.227 9.331-5.044 3.969 1.184 6.228 5.361 5.044 9.33-8.672 29.08-27.251 69.626-66.521 97.646-1.32.942-2.842 1.395-4.349 1.395z" fill="#2115c2"/></g><g><path d="m38.957 299.688c-4.143 0-7.5-3.358-7.5-7.5v-67.655c0-59.975 23.357-116.361 65.769-158.77 42.411-42.408 98.797-65.763 158.774-65.763s116.363 23.355 158.774 65.763c42.411 42.409 65.769 98.794 65.769 158.77v66.655c0 4.142-3.357 7.5-7.5 7.5s-7.5-3.358-7.5-7.5v-66.655c0-115.537-94.001-209.533-209.543-209.533s-209.543 93.996-209.543 209.533v67.655c0 4.142-3.357 7.5-7.5 7.5z" fill="#2115c2"/></g><path d="m184.538 504.5h-145.581v-154.509h89.867s50.741 57.092 55.714 154.509z" fill="#a4bcff"/><path d="m473.043 349.991v154.509h-145.58c4.973-97.417 55.714-154.509 55.714-154.509z" fill="#a4bcff"/><path d="m156.726 322.09c0 15.409-12.493 27.902-27.902 27.902h-89.867v-55.804h89.867c7.32 0 13.981 2.826 18.964 7.44.26.23.519.479.769.729 5.043 5.053 8.169 12.033 8.169 19.733z" fill="#ffff6f"/><path d="m473.043 294.188v55.804h-89.867c-15.409 0-27.902-12.493-27.902-27.902 0-7.699 3.126-14.68 8.169-19.733.25-.25.509-.499.769-.729 4.983-4.614 11.644-7.44 18.964-7.44z" fill="#ffff6f"/><circle cx="256" cy="145.077" fill="#ffceff" r="23.026"/><g fill="#ff63ed"><path d="m270.602 127.293c5.139 4.222 8.425 10.615 8.425 17.785 0 2.912-.546 5.696-1.533 8.261 10.24 4.676 24.527 5.352 33.725 2.363 14.27-4.637 18.717-18.871 14.081-33.141-4.637-14.27-16.602-23.171-30.871-18.535-4.887 1.588-10.323 4.867-15.18 9.053-2.188 5.217-5.184 10.224-8.752 14.112z"/><path d="m277.42 153.504c-3.364 8.546-11.679 14.6-21.42 14.6-.407 0-.812-.011-1.214-.032-1.283 11.184 2.489 24.98 8.174 32.805 8.819 12.139 23.731 11.97 35.87 3.151s16.907-22.949 8.088-35.088c-3.021-4.158-7.819-8.314-13.301-11.64-5.636-.469-11.324-1.771-16.123-3.962z"/><path d="m254.535 168.058c-10.008-.629-18.278-7.652-20.78-17.029-11.032 2.237-22.987 10.087-28.672 17.911-8.819 12.139-4.051 26.269 8.088 35.088s27.051 8.988 35.87-3.151c3.021-4.158 5.491-10.005 6.96-16.247-1.296-5.506-1.815-11.317-1.214-16.558z"/><path d="m243.605 125.683c3.579-2.294 7.828-3.632 12.395-3.632 5.495 0 10.538 1.928 14.496 5.14 7.612-8.294 12.671-21.674 12.671-31.347 0-15.004-12.163-23.633-27.167-23.633s-27.168 8.629-27.168 23.633c0 5.139 1.439 11.322 3.919 17.235 4.285 3.693 8.122 8.09 10.717 12.685z"/><path d="m233.74 150.945c-.495-1.874-.766-3.838-.766-5.868 0-8.094 4.18-15.207 10.495-19.314-5.535-9.803-16.697-18.749-25.897-21.738-14.27-4.637-26.235 4.265-30.871 18.535s-.189 28.504 14.081 33.141c4.887 1.588 11.212 2.13 17.602 1.598 4.835-2.933 10.201-5.223 15.371-6.271z"/></g><g><path d="m184.538 512h-145.581c-4.143 0-7.5-3.358-7.5-7.5v-151.509c0-4.142 3.357-7.5 7.5-7.5s7.5 3.358 7.5 7.5v144.009h130.08c-6.298-80.199-44.114-130.707-51.848-140.264-2.605-3.22-2.107-7.943 1.112-10.548 3.219-2.607 7.942-2.107 10.548 1.112 8.497 10.5 51.114 67.407 55.679 156.817.104 2.053-.638 4.059-2.054 5.549s-3.38 2.334-5.436 2.334z" fill="#2115c2"/></g><g><path d="m473.043 512h-145.58c-2.056 0-4.021-.844-5.437-2.334s-2.158-3.496-2.054-5.549c4.404-86.273 43.326-141.338 55.15-156.16 2.584-3.238 7.304-3.769 10.54-1.186 3.238 2.583 3.77 7.302 1.187 10.54-7.664 9.607-45.13 60.301-51.385 139.688h130.078v-144.008c0-4.142 3.357-7.5 7.5-7.5s7.5 3.358 7.5 7.5v151.509c.001 4.142-3.356 7.5-7.499 7.5z" fill="#2115c2"/></g><g><path d="m128.824 357.491h-89.867c-4.143 0-7.5-3.358-7.5-7.5v-55.804c0-4.142 3.357-7.5 7.5-7.5h89.867c19.326 0 35.402 15.619 35.402 35.402.001 19.521-15.881 35.402-35.402 35.402zm-82.367-15h82.367c11.25 0 20.402-9.152 20.402-20.402 0-11.336-9.19-20.402-20.402-20.402h-82.367z" fill="#f95116"/></g><g><path d="m473.043 357.491h-89.866c-19.521 0-35.402-15.881-35.402-35.402 0-19.83 16.117-35.402 35.402-35.402h89.866c4.143 0 7.5 3.358 7.5 7.5v55.804c0 4.143-3.357 7.5-7.5 7.5zm-89.866-55.803c-11.111 0-20.402 8.974-20.402 20.402 0 11.25 9.152 20.402 20.402 20.402h82.366v-40.804z" fill="#f95116"/></g><path d="m332.433 120.243c-6.307-19.413-22.888-29.015-40.321-23.351-.492.16-.993.352-1.492.538.022-.532.048-1.065.048-1.586 0-18.331-14.256-31.133-34.668-31.133-20.411 0-34.667 12.802-34.667 31.133 0 .517.028 1.053.051 1.585-.499-.186-.998-.375-1.494-.537-17.426-5.663-34.014 3.937-40.322 23.351-5.975 18.386.771 36.702 18.896 42.591.493.16 1.001.309 1.516.452-.328.414-.66.827-.964 1.245-11.227 15.453-5.858 34.226 9.747 45.564 16.367 11.891 35.476 10.151 46.346-4.81.304-.418.596-.868.891-1.312.294.443.587.89.894 1.312 10.673 14.69 29.685 16.916 46.346 4.81 15.644-11.367 20.948-30.148 9.747-45.564-.302-.416-.637-.83-.966-1.244.513-.143 1.021-.292 1.517-.453 18.148-5.897 24.862-24.227 18.895-42.591zm-76.433 9.308c8.776 0 15.526 7.227 15.526 15.526 0 8.531-6.962 15.526-15.526 15.526-8.629 0-15.526-7.036-15.526-15.526 0-8.67 7.092-15.526 15.526-15.526zm0-49.84c22.337 0 24.332 19.279 12.621 37.577-6.862-3.125-14.949-3.694-22.547-1.077-2.119-2.697-4.27-5.078-7.035-7.608-7.306-19.221 1.49-28.892 16.961-28.892zm-62.167 45.167c6.818-20.986 25.617-17.435 39.633-.398-5.296 5.778-8.119 13.374-7.988 21.118-3.021 1.079-6.265 2.559-9.406 4.338-20.384 1.002-27.063-10.214-22.239-25.058zm23.746 73.082c-18.02-13.092-8.402-29.918 11.862-37.813 3.84 6.784 10.152 11.853 17.622 14.13.001.023.003.048.004.071.106 3.363.522 6.81 1.216 10.206-5.385 19.847-18.185 22.499-30.704 13.406zm76.843 0c-17.898 13-30.953-.973-32.297-22.965 7.684-1.551 14.418-5.983 18.881-12.396 2.967.861 6.596 1.602 10.134 2.003 17.183 11.226 15.831 24.24 3.282 33.358zm-8.087-49.465c.858-8.011-1.367-15.659-5.953-21.773 1.471-2.093 3.461-5.522 5.064-9.046 16.024-12.89 27.94-7.513 32.72 7.202 6.747 20.758-10.356 29.146-31.831 23.617z" fill="#e207b9"/></g></svg>