<svg id="Capa_1" enable-background="new 0 0 512 512" height="512" viewBox="0 0 512 512" width="512" xmlns="http://www.w3.org/2000/svg"><g><path d="m366.082 7.5h-233.838c-26.198 0-47.436 21.238-47.436 47.436v9.393h19.182c11.828 0 21.417 9.589 21.417 21.417 0 11.828-9.589 21.417-21.417 21.417h-19.182v38.726h19.182c11.828 0 21.417 9.589 21.417 21.417 0 11.828-9.589 21.417-21.417 21.417h-19.182v38.726h19.182c11.828 0 21.417 9.589 21.417 21.417 0 11.828-9.589 21.417-21.417 21.417h-19.182v38.726h19.182c11.828 0 21.417 9.589 21.417 21.417 0 11.828-9.589 21.417-21.417 21.417h-19.182v9.393c0 26.198 21.238 47.436 47.436 47.436h233.838c26.198 0 47.436-21.238 47.436-47.436v-306.3c-.001-26.198-21.238-47.436-47.436-47.436z" fill="#17d9c3"/><path d="m420.356 7.5h-54.275c26.198 0 47.436 21.238 47.436 47.436v306.303c0 26.198-21.238 47.436-47.436 47.436h54.275c26.198 0 47.436-21.238 47.436-47.436v-306.303c0-26.198-21.238-47.436-47.436-47.436z" fill="#88f8d8"/><path d="m344.029 143.458c-21.713-14.153-53.464-13.501-79.199 11.649-25.348-24.771-56.531-25.777-78.214-12.276-40.148 24.986-47.717 99.696 74.663 165.263 3.128 1.674 5.59.82 8.343-.669 117.065-63.227 115.686-137.075 74.407-163.967z" fill="#b98eff"/><path d="m184.998 408.675v48.242h-15.922c-13.14 0-23.792 10.652-23.792 23.792s10.652 23.792 23.792 23.792h39.714c13.14 0 23.792-10.652 23.792-23.792v-72.034z" fill="#b98eff"/><path d="m295.727 408.675v48.242h-15.922c-13.14 0-23.792 10.652-23.792 23.792s10.652 23.792 23.792 23.792h39.714c13.14 0 23.792-10.652 23.792-23.792v-72.034z" fill="#b98eff"/><g><path d="m257.742 314.707c-89.424-47.91-104.119-96.499-104.92-121.198-.766-23.619 10.386-44.945 29.831-57.046 12.536-7.805 27.666-11.105 42.601-9.292 14.11 1.713 27.67 7.839 39.577 17.821 12.109-10.156 25.912-16.31 40.28-17.903 15.184-1.683 30.453 1.899 43.012 10.084 19.272 12.556 29.773 33.191 28.811 56.614-1.009 24.523-15.828 72.752-103.746 120.237-5.19 2.805-10.202 3.489-15.446.683zm7.221-13.157c.001 0 .001 0 0 0zm-47.595-159.853c-10.353 0-19.685 3.078-26.788 7.501-15.067 9.377-23.364 25.351-22.766 43.826.527 16.245 8.056 33.765 21.772 50.664 16.658 20.522 41.949 39.956 75.174 57.764.222-.082.618-.256 1.295-.622 59.447-32.108 94.397-71.347 95.891-107.657.74-18.004-7.282-33.833-22.011-43.429-.001 0-.001-.001-.002-.001-16.293-10.621-44.367-14.184-69.86 10.73-2.914 2.848-7.57 2.848-10.484 0-14.048-13.731-28.97-18.776-42.221-18.776z" fill="#6d00ca"/></g><circle cx="309.68" cy="208.514" fill="#6d00ca" r="9.504"/><g><path d="m285.012 241.628h-40.246c-4.143 0-7.5-3.358-7.5-7.5s3.357-7.5 7.5-7.5h40.246c4.143 0 7.5 3.358 7.5 7.5s-3.357 7.5-7.5 7.5z" fill="#6d00ca"/></g><circle cx="220.099" cy="208.514" fill="#6d00ca" r="9.504"/><g><path d="m208.79 512h-39.714c-17.254 0-31.291-14.037-31.291-31.292s14.037-31.292 31.291-31.292h8.423v-37.742c0-4.142 3.357-7.5 7.5-7.5s7.5 3.358 7.5 7.5v45.242c0 4.142-3.357 7.5-7.5 7.5h-15.923c-8.982 0-16.291 7.308-16.291 16.292 0 8.983 7.309 16.292 16.291 16.292h39.714c8.983 0 16.292-7.308 16.292-16.292v-69.034c0-4.142 3.357-7.5 7.5-7.5s7.5 3.358 7.5 7.5v69.034c0 17.255-14.037 31.292-31.292 31.292z" fill="#6d00ca"/></g><path d="m184.998 408.675h47.583v30.152h-47.583z" fill="#6d00ca"/><path d="m295.727 408.675h47.583v30.152h-47.583z" fill="#6d00ca"/><g><path d="m319.518 512h-39.714c-17.254 0-31.291-14.037-31.291-31.292s14.037-31.292 31.291-31.292h8.422v-37.742c0-4.142 3.357-7.5 7.5-7.5s7.5 3.358 7.5 7.5v45.242c0 4.142-3.357 7.5-7.5 7.5h-15.922c-8.982 0-16.291 7.308-16.291 16.292 0 8.983 7.309 16.292 16.291 16.292h39.714c8.983 0 16.292-7.308 16.292-16.292v-69.034c0-4.142 3.357-7.5 7.5-7.5s7.5 3.358 7.5 7.5v69.034c0 17.255-14.037 31.292-31.292 31.292z" fill="#6d00ca"/></g><g fill="#007ea8"><path d="m420.356 0c-9.201 0-275.299 0-288.112 0-30.292 0-54.936 24.645-54.936 54.936v6.393c0 4.142 3.357 7.5 7.5 7.5s7.5-3.358 7.5-7.5v-6.393c0-22.02 17.915-39.936 39.936-39.936h233.837.001c22.021 0 39.936 17.916 39.936 39.936v306.303c0 22.021-17.915 39.936-39.936 39.936h-233.838c-22.021 0-39.936-17.916-39.936-39.936v-6.393c0-4.142-3.357-7.5-7.5-7.5s-7.5 3.358-7.5 7.5v6.393c0 30.292 24.644 54.936 54.936 54.936h288.112c30.292 0 54.936-24.644 54.936-54.936v-306.303c0-30.291-24.644-54.936-54.936-54.936zm39.936 361.239c0 22.021-17.915 39.936-39.936 39.936h-16.588c10.659-10.068 17.249-24.433 17.249-39.935v-.001-306.303c0-15.07-6.237-29.537-17.249-39.936h16.588c22.021 0 39.936 17.916 39.936 39.936z"/><path d="m84.808 313.511c4.143 0 7.5-3.358 7.5-7.5v-32.726c0-4.142-3.357-7.5-7.5-7.5s-7.5 3.358-7.5 7.5v32.726c0 4.142 3.358 7.5 7.5 7.5z"/><path d="m84.808 231.951c4.143 0 7.5-3.358 7.5-7.5v-32.726c0-4.143-3.357-7.5-7.5-7.5s-7.5 3.357-7.5 7.5v32.726c0 4.142 3.358 7.5 7.5 7.5z"/><path d="m84.808 150.39c4.143 0 7.5-3.358 7.5-7.5v-32.726c0-4.142-3.357-7.5-7.5-7.5s-7.5 3.358-7.5 7.5v32.726c0 4.142 3.358 7.5 7.5 7.5z"/></g><g fill="#ffff6f"><path d="m103.99 64.329h-38.364c-11.828 0-21.417 9.589-21.417 21.417 0 11.828 9.589 21.417 21.417 21.417h38.364c11.828 0 21.417-9.589 21.417-21.417 0-11.828-9.589-21.417-21.417-21.417z"/><path d="m103.99 145.89h-38.364c-11.828 0-21.417 9.589-21.417 21.417 0 11.828 9.589 21.417 21.417 21.417h38.364c11.828 0 21.417-9.589 21.417-21.417 0-11.828-9.589-21.417-21.417-21.417z"/><path d="m103.99 227.451h-38.364c-11.828 0-21.417 9.589-21.417 21.417 0 11.828 9.589 21.417 21.417 21.417h38.364c11.828 0 21.417-9.589 21.417-21.417 0-11.829-9.589-21.417-21.417-21.417z"/><path d="m103.99 309.011h-38.364c-11.828 0-21.417 9.589-21.417 21.417 0 11.828 9.589 21.417 21.417 21.417h38.364c11.828 0 21.417-9.589 21.417-21.417 0-11.828-9.589-21.417-21.417-21.417z"/></g><g><path d="m103.99 114.664h-38.363c-15.945 0-28.918-12.972-28.918-28.917s12.973-28.917 28.918-28.917h38.363c15.945 0 28.918 12.972 28.918 28.917 0 15.944-12.973 28.917-28.918 28.917zm-38.363-42.835c-7.675 0-13.918 6.243-13.918 13.917s6.243 13.917 13.918 13.917h38.363c7.675 0 13.918-6.243 13.918-13.917s-6.243-13.917-13.918-13.917z" fill="#f95116"/></g><g><path d="m103.99 196.224h-38.363c-15.945 0-28.918-12.972-28.918-28.917s12.973-28.917 28.918-28.917h38.363c15.945 0 28.918 12.972 28.918 28.917s-12.973 28.917-28.918 28.917zm-38.363-42.834c-7.675 0-13.918 6.243-13.918 13.917s6.243 13.917 13.918 13.917h38.363c7.675 0 13.918-6.243 13.918-13.917s-6.243-13.917-13.918-13.917z" fill="#f95116"/></g><g><path d="m103.99 277.785h-38.363c-15.945 0-28.918-12.972-28.918-28.917s12.973-28.917 28.918-28.917h38.363c15.945 0 28.918 12.972 28.918 28.917s-12.973 28.917-28.918 28.917zm-38.363-42.834c-7.675 0-13.918 6.243-13.918 13.917s6.243 13.917 13.918 13.917h38.363c7.675 0 13.918-6.243 13.918-13.917s-6.243-13.917-13.918-13.917z" fill="#f95116"/></g><g><path d="m103.99 359.346h-38.363c-15.945 0-28.918-12.972-28.918-28.917s12.973-28.917 28.918-28.917h38.363c15.945 0 28.918 12.972 28.918 28.917s-12.973 28.917-28.918 28.917zm-38.363-42.835c-7.675 0-13.918 6.243-13.918 13.917s6.243 13.917 13.918 13.917h38.363c7.675 0 13.918-6.243 13.918-13.917s-6.243-13.917-13.918-13.917z" fill="#f95116"/></g></g></svg>