<svg id="Capa_1" enable-background="new 0 0 512 512" height="512" viewBox="0 0 512 512" width="512" xmlns="http://www.w3.org/2000/svg"><g><path d="m415.915 25.84c-19.268-11.999-41.625-18.34-64.645-18.34-34.112 0-66.816 13.437-94.994 38.944l-.276-.275-.275.275c-28.178-25.507-60.883-38.944-94.994-38.944-23.02 0-45.377 6.341-64.645 18.34-36.385 22.643-57.253 62.606-55.816 106.902.005.156.01.312.016.469 1.205 33.808 30.087 60.106 63.875 58.437 10.394-.514 21.829-2.677 33.907-7.545 12.611-5.077 25.956-7.615 39.311-7.615s26.7 2.539 39.311 7.615c12.611 5.077 25.956 7.626 39.311 7.626s26.7-2.549 39.311-7.626 25.956-7.615 39.311-7.615 26.7 2.539 39.311 7.615c12.489 5.028 24.299 7.166 34.99 7.577 33.38 1.285 61.603-25.088 62.792-58.472.006-.155.011-.311.016-.466 1.436-44.296-19.432-84.259-55.817-106.902z" fill="#b98eff"/><path d="m263.198 361.573c-4.738 2.528-9.824 2.439-14.395 0-5.695-3.051-11.249-6.113-16.664-9.182v128.248c0 13.178 10.683 23.862 23.862 23.862 13.178 0 23.862-10.683 23.862-23.862v-128.249c-5.417 3.07-10.97 6.131-16.665 9.183z" fill="#ffff6f"/><path d="m408.923 191.68c-10.692-.412-22.502-2.55-34.99-7.577-12.611-5.077-25.956-7.615-39.311-7.615s-26.7 2.539-39.311 7.615c-12.611 5.077-25.956 7.626-39.311 7.626s-26.7-2.549-39.311-7.626-25.956-7.615-39.311-7.615-26.7 2.539-39.311 7.615c-12.078 4.867-23.513 7.031-33.907 7.545-20.367 1.006-38.941-8.159-50.755-22.997 17.535 59.333 74.874 128.349 195.398 192.922 4.57 2.439 9.657 2.528 14.395 0 120.452-64.534 177.795-133.507 195.367-192.816-11.596 14.578-29.695 23.691-49.642 22.923z" fill="#ff63ed"/><circle cx="309.112" cy="245.695" fill="#e207b9" r="11.269"/><g><path d="m279.862 283.568h-47.723c-4.143 0-7.5-3.358-7.5-7.5s3.357-7.5 7.5-7.5h47.723c4.143 0 7.5 3.358 7.5 7.5s-3.358 7.5-7.5 7.5z" fill="#e207b9"/></g><circle cx="202.889" cy="245.695" fill="#e207b9" r="11.269"/><g><path d="m256 512c-17.293 0-31.361-14.069-31.361-31.362v-125.248c0-4.142 3.357-7.5 7.5-7.5s7.5 3.358 7.5 7.5v125.248c0 9.022 7.34 16.362 16.361 16.362s16.361-7.34 16.361-16.362v-125.248c0-4.142 3.357-7.5 7.5-7.5s7.5 3.358 7.5 7.5v125.248c.001 17.293-14.068 31.362-31.361 31.362z" fill="#f90"/></g><path d="m263.198 361.573c-4.738 2.528-9.824 2.439-14.395 0-5.695-3.051-11.249-6.113-16.664-9.182v34.944c7.335 3.959 14.268 6.685 23.865 6.685 9.381 0 16.294-2.603 23.859-6.686v-34.944c-5.417 3.07-10.97 6.131-16.665 9.183z" fill="#f90"/><g><path d="m245.273 368.19c-137.096-73.451-183.667-147.057-198.596-195.872-1.212-3.961 1.018-8.154 4.979-9.365 3.96-1.21 8.155 1.017 9.365 4.979 14.104 46.117 58.745 116 191.324 187.031 2.421 1.293 4.889 1.292 7.321-.006 131.716-70.57 176.543-140.022 190.953-185.857 1.242-3.951 5.454-6.148 9.403-4.906 3.952 1.242 6.148 5.453 4.906 9.404-15.246 48.497-62.006 121.624-198.188 194.585-6.676 3.563-14.498 3.726-21.467.007z" fill="#e207b9"/></g><g><path d="m213.889 191.06c-22.78-9.17-48.936-9.696-73.021 0-29.692 11.966-61.804 12.361-86.058-9.914-13.548-12.443-21.368-29.372-22.021-47.668l-.017-.501c-2.465-76.01 56.454-132.977 127.959-132.977 33.981 0 66.798 12.674 95.27 36.722 28.471-24.048 61.288-36.722 95.269-36.722 24.426 0 48.151 6.734 68.607 19.473 38.688 24.076 60.875 66.511 59.35 113.513l-.016.458c-.649 18.24-8.394 35.126-21.807 47.58-24.098 22.376-56.255 22.122-86.272 10.036-22.78-9.17-48.936-9.696-73.021 0-26.36 10.613-56.464 11.175-84.222 0zm5.602-13.914c22.858 9.203 48.951 9.69 73.02 0 26.274-10.578 56.445-11.184 84.224 0 24.186 9.737 50.747 11.195 70.465-7.114 10.471-9.722 16.516-22.895 17.021-37.09l.015-.435c1.35-41.594-18.195-79.086-52.283-100.299 0 0-.001-.001-.002-.001-18.077-11.257-39.059-17.207-60.681-17.207-32.11 0-63.218 12.796-89.961 37.004-2.863 2.592-7.676 2.663-10.617 0-26.743-24.208-57.851-37.004-89.961-37.004-63.189 0-115.152 50.112-112.965 117.499l.016.478c.507 14.221 6.607 27.416 17.176 37.122 19.578 17.982 45.758 16.941 70.307 7.048 26.382-10.621 56.551-11.143 84.226-.001z" fill="#6d00ca"/></g></g></svg>