<svg id="Capa_1" enable-background="new 0 0 512 512" height="512" viewBox="0 0 512 512" width="512" xmlns="http://www.w3.org/2000/svg"><g><path d="m453.727 438.178c22.098-25.04 24.119-58.359 10.078-84.613-3.492-6.549-7.992-12.663-13.427-18.098-6.964-6.964-15.456-12.813-25.355-17.056-7.549-3.235-15.92-5.535-25.048-6.678-1.507-12.063-5.05-22.805-10.099-32.083-23.348-42.917-79.021-54.609-116.346-21.669-17.555 15.484-28.94 39.154-32.933 68.444-4.478 32.79.121 72.158 13.677 116.996 2.05 6.753 7.25 11.955 14.006 14.006 36.846 11.116 78.728 18.905 116.996 13.677 29.29-3.993 52.96-15.377 68.451-32.926z" fill="#88f8d8"/><path d="m260.066 452.693c38.425 35.078 89.138 54.046 141.109 51.592 31.212-1.474 63.459-10.768 84.291-34.367 27.612-31.283 23.883-75.479-3.35-102.712l-31.74-31.74c5.435 5.435 9.935 11.549 13.427 18.098 14.042 26.255 12.02 59.573-10.078 84.613-15.491 17.548-39.161 28.933-68.451 32.925-38.28 5.229-80.169-2.567-116.996-13.677-3.364-1.021-6.364-2.835-8.763-5.235z" fill="#17d9c3"/><path d="m206.663 58.266c-25.04-22.098-58.359-24.119-84.613-10.078-6.549 3.492-12.663 7.992-18.098 13.427-6.964 6.964-12.813 15.456-17.056 25.355-3.235 7.549-5.535 15.92-6.678 25.048-12.063 1.507-22.805 5.05-32.083 10.099-42.917 23.348-54.609 79.022-21.669 116.347 15.484 17.556 39.153 28.94 68.444 32.933 32.79 4.478 72.157-.121 116.996-13.677 3.364-1.021 6.364-2.835 8.771-5.242 2.4-2.4 4.214-5.399 5.235-8.763 1.407-4.664 2.721-9.263 3.935-13.806 10.485-39.153 13.756-73.807 9.742-103.19-3.993-29.292-15.378-52.961-32.926-68.453z" fill="#ffceff"/><path d="m221.178 251.927c35.078-38.425 54.046-89.138 51.592-141.109-.257-5.44-.735-10.724-1.435-15.848-3.992-29.29-15.384-52.952-32.933-68.444-31.283-27.612-75.479-23.883-102.712 3.35l-31.74 31.74c5.435-5.435 11.549-9.935 18.098-13.427 26.255-14.042 59.573-12.02 84.613 10.078 17.548 15.491 28.933 39.161 32.926 68.451 4.014 29.383.743 64.037-9.742 103.19-1.214 4.542-2.528 9.142-3.935 13.806-1.021 3.364-2.835 6.364-5.235 8.763z" fill="#ff63ed"/><g fill="#007ea8"><path d="m332.216 369.592c-2.582-2.889-6.796-3.678-10.244-1.918-.081.041-.16.083-.239.127l-20.902 11.629 11.503-21.132c.045-.082.088-.164.129-.247 1.725-3.47.892-7.675-2.025-10.226s-7.195-2.814-10.476-.593l-37.313 25.903c-3.402 2.362-4.246 7.035-1.884 10.437s7.034 4.246 10.437 1.884l14.905-10.348c-4.82 11.43-14.855 19.697-7.613 26.868 7.236 7.163 15.433-2.943 26.729-7.826l-10.286 15.147c-2.327 3.426-1.436 8.09 1.99 10.417 3.427 2.326 8.09 1.436 10.417-1.991l25.627-37.736c2.136-3.231 1.826-7.506-.755-10.395z"/><path d="m359.013 418.174c2.928 2.928 7.676 2.929 10.606 0 2.928-2.929 2.928-7.677 0-10.605l-13.551-13.552c-2.928-2.927-7.677-2.929-10.606 0l-32.161 32.161c-2.928 2.928-2.928 7.677 0 10.605l13.551 13.552c2.93 2.929 7.677 2.928 10.606 0 2.928-2.929 2.928-7.677 0-10.605l-8.249-8.249 5.475-5.475 7.249 7.249c2.929 2.928 7.677 2.928 10.606 0 2.928-2.929 2.928-7.677 0-10.606l-7.25-7.25 5.475-5.475z"/><path d="m297.69 310.347 5.471-5.471.339 18.915c.073 4.095 3.417 7.365 7.495 7.364.046 0 .092 0 .138-.001 4.141-.074 7.438-3.491 7.363-7.632l-.477-26.565 23.559.992c4.106.174 7.633-3.038 7.808-7.177.175-4.138-3.039-7.634-7.177-7.808l-16.444-.693 4.382-4.381c2.928-2.928 2.928-7.677 0-10.605-2.929-2.929-7.677-2.929-10.606 0l-32.458 32.458c-2.928 2.928-2.928 7.677 0 10.605 2.929 2.927 7.677 2.928 10.607-.001z"/><path d="m323.829 347.092c2.93 2.929 7.677 2.929 10.606 0l32.458-32.458c2.928-2.928 2.928-7.677 0-10.605-2.929-2.929-7.677-2.929-10.606 0l-32.458 32.458c-2.929 2.929-2.929 7.677 0 10.605z"/><path d="m402.733 384.672c.43 2.054 5.235 12.898 6.142 14.866 1.093 2.37 1.861 5.493.429 6.492-1.266.882-4.402.927-7.107-1.78-2.881-2.881-4.494-6.788-4.313-10.452.203-4.137-2.986-7.655-7.122-7.858-4.156-.206-7.655 2.986-7.859 7.122-.39 7.939 2.777 15.882 8.688 21.793 4.432 4.432 10.143 6.744 15.685 6.744 3.765 0 7.453-1.069 10.604-3.265 5.918-4.126 10.239-12.879 4.615-25.077-2.375-5.15-4.386-10.175-5.122-12.047.01-.438.221-.814.629-1.12.815-.609 2.014-.564 3.294.123 5.075 2.725 5.916 9.365 5.948 9.626.392 4.092 4.007 7.112 8.112 6.757 4.127-.358 7.181-3.992 6.824-8.119-.475-5.482-3.913-16.176-13.789-21.478-6.439-3.459-13.866-3.044-19.379 1.085-5.206 3.9-7.612 10.256-6.279 16.588z"/><path d="m364.351 346.289c.429 2.048 5.241 12.91 6.142 14.866 1.093 2.371 1.861 5.494.429 6.492-1.267.882-4.402.927-7.107-1.78-2.882-2.881-4.493-6.787-4.312-10.45.204-4.136-2.984-7.655-7.121-7.86-4.158-.206-7.655 2.985-7.86 7.121-.392 7.939 2.775 15.883 8.687 21.794 4.432 4.432 10.143 6.744 15.685 6.744 3.765 0 7.453-1.069 10.604-3.265 5.918-4.125 10.239-12.879 4.616-25.076-2.375-5.151-4.387-10.176-5.122-12.048.01-.438.221-.814.629-1.12.815-.609 2.013-.563 3.294.124 5.074 2.724 5.916 9.361 5.948 9.625.39 4.092 4.013 7.114 8.111 6.758 4.127-.357 7.182-3.991 6.824-8.118-.474-5.482-3.912-16.176-13.789-21.479-6.438-3.459-13.866-3.043-19.379 1.086-5.207 3.898-7.613 10.254-6.279 16.586z"/><path d="m487.42 361.903-31.74-31.74c-7.864-7.864-17.184-14.138-27.704-18.646-6.724-2.882-13.906-5.015-21.418-6.366-1.876-10.443-5.261-20.205-10.096-29.085-12.549-23.07-34.218-38.856-59.447-43.311-24.489-4.322-49.433 2.822-68.447 19.601-18.92 16.689-31.162 41.951-35.402 73.053-4.626 33.874.06 74.309 13.931 120.19 1.665 5.485 4.894 10.185 8.938 13.562 19.695 17.748 42.203 31.35 66.917 40.441 24.755 9.107 51.16 13.469 78.576 12.174 33.388-1.578 67.349-11.735 89.561-36.896 29.216-33.1 27.638-81.669-3.669-112.977zm-216.962 88.348c-2.162-.656-3.762-1.706-5.335-3.096 0 0 0 0-.001 0-.08-.1-2.506-2.076-3.67-5.904-13.241-43.796-17.758-82.088-13.424-113.813 3.747-27.486 14.28-49.559 30.464-63.834 15.541-13.716 35.911-19.609 55.916-16.078 20.708 3.656 38.524 16.672 48.882 35.71 4.795 8.811 7.906 18.712 9.244 29.427.426 3.404 3.106 6.086 6.51 6.512 8.177 1.024 15.923 3.086 23.025 6.13 8.755 3.752 16.494 8.954 23.002 15.462l.004.004h.001c4.845 4.845 8.92 10.337 12.117 16.332 13.316 24.897 9.745 54.773-9.087 76.114-14.283 16.179-36.358 26.712-63.843 30.458-36.949 5.045-77.797-2.563-113.805-13.424zm209.388 14.704c-19.295 21.856-49.633 30.451-79.024 31.84-33.802 1.596-67.852-6.468-97.955-22.799 27.067 5.541 56.153 8.264 83.422 4.539 34.449-4.697 58.257-18.624 73.061-35.393 0 0 0 0 0-.001 16.612-18.822 23.931-43.822 19.637-68.362 23.509 25.655 24.062 63.886.859 90.176z"/></g><g fill="#e207b9"><path d="m278.767 93.957c-4.238-31.088-16.48-56.349-35.402-73.053-33.101-29.216-81.671-27.637-112.977 3.67l-31.687 31.686c-.018.018-.035.035-.053.053-.001.001-.002.002-.003.003-13.357 13.36-21.651 30.445-25.008 49.119-10.443 1.875-20.205 5.261-29.085 10.095-23.071 12.55-38.857 34.219-43.311 59.448-4.323 24.485 2.822 49.433 19.6 68.445 24.239 27.482 62.418 37.128 99.536 37.128 27.846 0 59.241-5.238 93.706-15.658 5.4-1.639 10.092-4.803 13.553-8.927 17.752-19.699 31.357-42.208 40.45-66.927 11.6-31.53 14.86-64.44 10.681-95.082zm-246.678 139.544c-13.742-15.572-19.602-35.952-16.077-55.915 3.656-20.708 16.671-38.525 35.709-48.882 8.811-4.795 18.712-7.906 29.428-9.245 3.404-.425 6.085-3.106 6.512-6.51 2.186-17.469 9.202-33.638 21.594-46.031 25.207-25.207 65.073-27.187 92.446-3.03 18.161 16.031 27.199 39.929 30.458 63.843 4.451 32.583-.982 68.218-9.558 100.24-1.162 4.348-2.464 8.915-3.866 13.563-1.292 4.253-4.603 7.672-9 9.006-58.006 17.538-138.18 27.709-177.646-17.039zm210.391-24.372c5.568-27.114 8.254-56.227 4.54-83.424-3.77-27.659-14.49-54.607-35.393-73.06-.001 0-.001 0-.001-.001-19.37-17.089-44.489-23.812-68.363-19.636 25.656-23.509 63.887-24.062 90.177-.859 16.186 14.289 26.721 36.362 30.467 63.836 4.975 36.493-1.676 76.736-21.427 113.144z"/><path d="m170.112 168.974c-2.928-2.928-7.676-2.929-10.606 0-2.928 2.929-2.928 7.677 0 10.606l22.093 22.092c2.877 2.877 1.517 7.978-1.312 10.801-2.371 2.365-7.473 3.869-10.391.949l-22.116-22.116c-2.929-2.929-7.677-2.928-10.606 0-2.928 2.929-2.928 7.677 0 10.606l22.116 22.115c8.809 8.808 23.322 7.31 31.589-.934 8.738-8.713 10.21-23.145 1.327-32.026z"/><path d="m79.738 212.75c-1.988 2.011-4.08 4.119-5.898 5.946l-26.834-26.834c-2.929-2.928-7.677-2.928-10.606 0-2.928 2.929-2.928 7.677 0 10.606l32.113 32.112c2.571 2.571 6.639 2.94 9.635.819.654-.463.953-.675 12.256-12.103 2.912-2.945 2.885-7.693-.06-10.605s-7.693-2.887-10.606.059z"/><path d="m192.202 100.34-8.117 8.116-5.318-5.317 7.127-7.127c2.928-2.929 2.928-7.677 0-10.606-2.929-2.929-7.677-2.929-10.606 0l-7.126 7.127-5.318-5.318 8.116-8.116c2.928-2.928 2.928-7.676 0-10.605-2.929-2.928-7.677-2.928-10.606 0l-13.419 13.419c-2.928 2.929-2.928 7.677 0 10.605 3.533 3.534 31.846 31.846 31.846 31.846 2.928 2.928 7.676 2.929 10.605 0l13.419-13.419c2.929-2.928 2.929-7.676.001-10.605-2.927-2.928-7.676-2.929-10.604 0z"/><path d="m108.061 134.284 42.695 20.692c3.293 1.568 7.201.854 9.731-1.71 2.547-2.581 3.181-6.501 1.556-9.802l-21.095-42.083c-1.856-3.702-6.362-5.199-10.065-3.343-3.702 1.856-5.199 6.363-3.343 10.065l12.551 25.038-25.488-12.353c-3.731-1.807-8.213-.249-10.019 3.478s-.249 8.211 3.477 10.018z"/><path d="m75.771 152.491c-11.784 11.785-11.784 30.96 0 42.745 11.813 11.812 30.93 11.815 42.745 0 11.812-11.811 11.815-30.931.001-42.746-11.815-11.811-30.932-11.813-42.746.001zm32.139 32.14c-5.95 5.951-15.582 5.952-21.533 0-5.937-5.937-5.937-15.597 0-21.534 5.95-5.951 15.582-5.952 21.533 0h.001c5.949 5.95 5.952 15.582-.001 21.534z"/></g></g></svg>