<svg id="Capa_1" enable-background="new 0 0 512 512" height="512" viewBox="0 0 512 512" width="512" xmlns="http://www.w3.org/2000/svg"><g><path d="m359.511 143.01h-207.973c-31.243 0-56.831 24.14-59.172 54.783 7.707-2.369 15.89-3.65 24.373-3.65h73.288c45.756 0 82.849 37.093 82.849 82.849s-37.093 82.849-82.849 82.849h-73.288c-8.554 0-16.804-1.298-24.566-3.705v1.846c0 32.787 26.579 59.366 59.366 59.366h207.973c32.787 0 59.366-26.579 59.366-59.366v-155.606c-.001-32.787-26.58-59.366-59.367-59.366z" fill="#b98eff"/><path d="m418.744 143.01h-59.233c32.787 0 59.366 26.579 59.366 59.366v155.607c0 32.787-26.579 59.366-59.366 59.366h59.233c32.787 0 59.366-26.579 59.366-59.366v-155.607c0-32.787-26.579-59.366-59.366-59.366z" fill="#9448f5"/><path d="m362.208 194.144h-31.097c-11.284 0-20.431 9.147-20.431 20.431 0 11.284 9.147 20.431 20.431 20.431h31.097c11.284 0 20.431-9.147 20.431-20.431.001-11.284-9.147-20.431-20.431-20.431z" fill="#ffff6f"/><circle cx="335.333" cy="335.188" fill="#ffceff" r="24.653"/><path d="m309.433 7.5h-107.817c-27.658 0-50.078 22.421-50.078 50.078v85.431h207.973v-85.43c0-27.658-22.42-50.079-50.078-50.079z" fill="#ddbeff"/><path d="m214.184 143.01h82.668c5.862-5.174 10.894-10.504 15.05-15.976 9.858-12.97 14.645-26.63 13.844-39.505-1.147-18.369-13.343-32.14-29.046-36.9-3.913-1.191-8.049-1.82-12.285-1.82-5.427 0-11.016 1.03-16.527 3.234-4.203 1.681-8.361 4.047-12.363 7.158-5.288-4.114-10.854-6.919-16.438-8.567-25.823-7.626-52.074 9.513-53.783 36.894-.807 12.875 3.98 26.535 13.838 39.505 4.157 5.472 9.18 10.804 15.042 15.977z" fill="#ff63ed"/><path d="m180.802 417.349v39.38h-15.985c-13.191 0-23.886 10.694-23.886 23.886 0 13.191 10.694 23.886 23.886 23.886h39.871c13.192 0 23.886-10.694 23.886-23.886v-63.266z" fill="#ffff6f"/><path d="m291.968 417.349v39.38h-15.985c-13.191 0-23.886 10.694-23.886 23.886 0 13.191 10.694 23.886 23.886 23.886h39.871c13.191 0 23.886-10.694 23.886-23.886v-63.266z" fill="#ffff6f"/><g><path d="m362.208 242.506h-31.097c-15.401 0-27.932-12.53-27.932-27.931s12.53-27.931 27.932-27.931h31.097c15.401 0 27.932 12.53 27.932 27.931s-12.531 27.931-27.932 27.931zm-31.097-40.862c-7.131 0-12.932 5.801-12.932 12.931s5.801 12.931 12.932 12.931h31.097c7.131 0 12.932-5.801 12.932-12.931s-5.801-12.931-12.932-12.931z" fill="#f95116"/></g><g><path d="m335.333 367.341c-17.729 0-32.153-14.424-32.153-32.153s14.424-32.153 32.153-32.153 32.152 14.424 32.152 32.153-14.423 32.153-32.152 32.153zm0-49.306c-9.458 0-17.153 7.695-17.153 17.153s7.695 17.153 17.153 17.153 17.152-7.695 17.152-17.153-7.694-17.153-17.152-17.153z" fill="#e207b9"/></g><g><path d="m206.606 146.266c-5.117-4.752-9.638-9.696-13.436-14.695-10.963-14.424-16.271-29.816-15.351-44.511 1.98-31.728 32.514-52.737 63.393-43.618 4.982 1.47 9.777 3.677 14.314 6.582 3.081-1.972 6.285-3.628 9.575-4.944 31.802-12.72 66.012 8.073 68.129 41.982.915 14.697-4.396 30.088-15.358 44.511-3.755 4.943-8.233 9.846-13.311 14.571-3.031 2.822-7.777 2.652-10.6-.38-2.822-3.032-2.651-7.778.381-10.6 4.449-4.142 8.348-8.403 11.586-12.667 8.756-11.519 13.02-23.449 12.331-34.502-1.464-23.457-25.059-37.998-47.587-28.988-3.661 1.465-7.209 3.522-10.544 6.116-2.708 2.106-6.502 2.106-9.208-.001-4.364-3.394-9.06-5.848-13.956-7.293-21.112-6.235-42.758 7.465-44.175 30.168-.692 11.052 3.569 22.981 12.323 34.5 3.277 4.314 7.213 8.613 11.699 12.779 3.035 2.818 3.211 7.564.393 10.599-2.818 3.034-7.563 3.209-10.598.391z" fill="#e207b9"/></g><circle cx="289.358" cy="89.777" fill="#e207b9" r="7.179"/><g><path d="m270.725 116.625h-30.4c-4.143 0-7.5-3.358-7.5-7.5s3.357-7.5 7.5-7.5h30.4c4.143 0 7.5 3.358 7.5 7.5s-3.358 7.5-7.5 7.5z" fill="#e207b9"/></g><circle cx="221.691" cy="89.777" fill="#e207b9" r="7.179"/><g><path d="m204.688 512h-39.871c-17.307 0-31.386-14.08-31.386-31.386s14.079-31.386 31.386-31.386h8.485v-28.88c0-4.142 3.357-7.5 7.5-7.5s7.5 3.358 7.5 7.5v36.38c0 4.142-3.357 7.5-7.5 7.5h-15.985c-9.035 0-16.386 7.351-16.386 16.386s7.35 16.386 16.386 16.386h39.871c9.035 0 16.386-7.351 16.386-16.386v-60.266c0-4.142 3.357-7.5 7.5-7.5s7.5 3.358 7.5 7.5v60.266c-.001 17.307-14.08 31.386-31.386 31.386z" fill="#f95116"/></g><g><path d="m315.854 512h-39.871c-17.307 0-31.386-14.08-31.386-31.386s14.079-31.386 31.386-31.386h8.485v-28.88c0-4.142 3.357-7.5 7.5-7.5s7.5 3.358 7.5 7.5v36.38c0 4.142-3.357 7.5-7.5 7.5h-15.985c-9.035 0-16.386 7.351-16.386 16.386s7.35 16.386 16.386 16.386h39.871c9.035 0 16.386-7.351 16.386-16.386v-60.266c0-4.142 3.357-7.5 7.5-7.5s7.5 3.358 7.5 7.5v60.266c-.001 17.307-14.08 31.386-31.386 31.386z" fill="#f95116"/></g><path d="m291.968 417.349h47.771v27.106h-47.771z" fill="#f95116"/><path d="m180.802 417.349h47.771v27.106h-47.771z" fill="#f95116"/><path d="m418.744 135.51h-51.732v-77.931c0-31.749-25.83-57.579-57.579-57.579h-107.817c-31.749 0-57.578 25.83-57.578 57.579v78.364c-30.723 3.426-55.462 27.635-58.938 59-.456 4.117 2.511 7.824 6.628 8.28 4.127.458 7.825-2.512 8.28-6.629 2.911-26.272 25.064-46.085 51.529-46.085h207.974c28.586 0 51.865 23.252 51.865 51.866v155.606c0 28.599-23.267 51.866-51.865 51.866h-207.973c-28.6 0-51.866-23.267-51.866-51.866 0-4.142-3.357-7.5-7.5-7.5s-7.5 3.358-7.5 7.5c0 36.87 29.996 66.866 66.866 66.866h267.206c36.87 0 66.866-29.996 66.866-66.866v-155.605c0-36.87-29.996-66.866-66.866-66.866zm-259.706-77.931c0-23.478 19.101-42.579 42.578-42.579h107.816c23.479 0 42.579 19.101 42.579 42.579v77.931h-192.973zm311.572 300.403c0 28.599-23.267 51.866-51.866 51.866h-17.075c15.527-12.667 24.708-31.655 24.708-51.866v-155.606c0-19.272-8.366-38.417-24.708-51.866h17.075c28.6 0 51.866 23.267 51.866 51.866z" fill="#6d00ca"/><circle cx="116.738" cy="276.992" fill="#88f8d8" r="82.849"/><circle cx="116.738" cy="276.992" fill="#17d9c3" r="41.986"/><path d="m190.027 194.144h-73.288c45.756 0 82.849 37.093 82.849 82.849s-37.093 82.849-82.849 82.849h73.288c45.756 0 82.849-37.093 82.849-82.849-.001-45.757-37.093-82.849-82.849-82.849z" fill="#17d9c3"/><g fill="#007ea8"><path d="m166.225 276.992c0-27.287-22.199-49.486-49.486-49.486s-49.486 22.199-49.486 49.486 22.199 49.486 49.486 49.486 49.486-22.199 49.486-49.486zm-83.973 0c0-19.016 15.471-34.486 34.486-34.486s34.486 15.47 34.486 34.486-15.471 34.486-34.486 34.486-34.486-15.47-34.486-34.486z"/><path d="m190.026 186.644h-73.288c-49.818 0-90.349 40.53-90.349 90.349s40.53 90.349 90.349 90.349h73.288c49.818 0 90.349-40.53 90.349-90.349s-40.53-90.349-90.349-90.349zm-148.636 90.348c0-41.547 33.801-75.349 75.349-75.349 41.547 0 75.349 33.801 75.349 75.349 0 41.362-33.657 75.349-75.349 75.349-41.548 0-75.349-33.801-75.349-75.349zm148.636 75.349h-23.482c24.857-16.392 40.543-44.56 40.543-75.348 0 0 0 0 0-.001 0-30.377-15.213-58.507-40.543-75.349h23.482c41.548 0 75.349 33.801 75.349 75.349s-33.801 75.349-75.349 75.349z"/></g></g></svg>