<svg id="Capa_1" enable-background="new 0 0 512 512" height="512" viewBox="0 0 512 512" width="512" xmlns="http://www.w3.org/2000/svg"><g><path d="m504.5 169.471v247.48c0 47.366-38.393 85.749-85.749 85.749h-325.502c-47.355 0-85.749-38.383-85.749-85.749v-247.48z" fill="#ff63ed"/><path d="m360.698 232.251c-28.704-18.71-70.679-17.848-104.7 15.4-33.51-32.748-74.733-34.077-103.399-16.229-53.075 33.032-63.081 131.798 98.705 218.478 4.135 2.213 7.39 1.083 11.029-.884 154.758-83.586 152.935-181.213 98.365-216.765z" fill="#ff9bff"/><g fill="#e207b9"><circle cx="309.668" cy="315.366" r="11.387"/><path d="m280.111 353.556h-48.223c-4.143 0-7.5-3.358-7.5-7.5s3.357-7.5 7.5-7.5h48.223c4.143 0 7.5 3.358 7.5 7.5s-3.357 7.5-7.5 7.5z"/><circle cx="202.333" cy="315.366" r="11.387"/></g><g><path d="m255.79 458.605c-2.437 0-5.147-.553-8.024-2.093-117.147-62.763-136.386-126.039-137.428-158.171-.983-30.352 13.333-57.749 38.299-73.286 16.106-10.028 35.556-14.267 54.749-11.936 18.8 2.282 36.859 10.658 52.612 24.337 16.012-13.907 34.386-22.322 53.518-24.443 19.516-2.163 39.142 2.438 55.278 12.955 24.745 16.121 38.228 42.626 36.99 72.719-1.037 25.202-12.492 51.914-33.129 77.249-23.333 28.646-57.906 55.453-102.758 79.678-1.921 1.04-5.531 2.991-10.107 2.991zm-62.504-231.108c-14.184 0-26.979 4.227-36.723 10.293-20.366 12.675-32.042 35.129-31.233 60.065.714 22.008 10.854 45.667 29.322 68.42 22.237 27.397 55.947 53.308 100.193 77.013.819.439 1.162.621 3.92-.87 43.116-23.288 76.175-48.842 98.26-75.955 18.574-22.803 28.869-46.453 29.771-68.392 1.015-24.674-9.99-46.373-30.192-59.535-.001 0-.001-.001-.002-.001-13.232-8.625-29.37-12.394-45.434-10.613-17.896 1.984-35.161 10.661-49.929 25.094-2.914 2.848-7.57 2.848-10.484 0-19.091-18.658-39.403-25.519-57.469-25.519z" fill="#e207b9"/></g><g><path d="m418.752 510.2h-325.503c-51.418 0-93.249-41.831-93.249-93.249v-244.48c0-4.142 3.357-7.5 7.5-7.5s7.5 3.358 7.5 7.5v244.48c0 43.146 35.103 78.249 78.249 78.249h325.503c43.146 0 78.248-35.102 78.248-78.249v-244.48c0-4.142 3.357-7.5 7.5-7.5s7.5 3.358 7.5 7.5v244.48c0 51.418-41.831 93.249-93.248 93.249z" fill="#e207b9"/></g><path d="m98.928 9.3c-16.324 0-29.558 13.234-29.558 29.558v35.904c0 16.324 13.233 29.557 29.557 29.557 16.324 0 29.557-13.233 29.557-29.557v-35.904c.001-16.324-13.232-29.558-29.556-29.558z" fill="#ffff6f"/><path d="m203.643 9.3c-16.324 0-29.557 13.233-29.557 29.557v35.904c0 16.324 13.233 29.557 29.557 29.557 16.324 0 29.557-13.233 29.557-29.557v-35.903c0-16.324-13.233-29.558-29.557-29.558z" fill="#ffff6f"/><path d="m308.358 9.3c-16.324 0-29.557 13.233-29.557 29.557v35.904c0 16.324 13.233 29.557 29.557 29.557 16.324 0 29.557-13.233 29.557-29.557v-35.903c0-16.324-13.233-29.558-29.557-29.558z" fill="#ffff6f"/><path d="m442.63 50.301v24.461c0 16.324-13.233 29.557-29.557 29.557-16.324 0-29.557-13.233-29.557-29.557v-27.857h-45.601v27.856c0 16.324-13.233 29.557-29.557 29.557-16.324 0-29.557-13.233-29.557-29.557v-27.856h-45.601v27.856c0 16.324-13.233 29.557-29.557 29.557-16.324 0-29.557-13.233-29.557-29.557v-27.856h-45.601v27.856c0 16.324-13.233 29.557-29.557 29.557-16.324 0-29.557-13.233-29.557-29.557v-24.46c-35.733 10.345-61.871 43.288-61.871 82.353v36.817h497v-36.817c0-39.065-26.137-72.008-61.87-82.353z" fill="#565eec"/><path d="m413.073 9.3c16.324 0 29.557 13.233 29.557 29.557v35.904c0 16.324-13.233 29.557-29.557 29.557-16.324 0-29.557-13.233-29.557-29.557v-35.903c0-16.324 13.233-29.558 29.557-29.558z" fill="#ffff6f"/><path d="m171.086 54.405h-39.601c-4.143 0-7.5-3.358-7.5-7.5s3.357-7.5 7.5-7.5h39.601c4.143 0 7.5 3.358 7.5 7.5s-3.357 7.5-7.5 7.5z" fill="#2115c2"/><path d="m275.801 54.405h-39.601c-4.143 0-7.5-3.358-7.5-7.5s3.357-7.5 7.5-7.5h39.601c4.143 0 7.5 3.358 7.5 7.5s-3.358 7.5-7.5 7.5z" fill="#2115c2"/><path d="m380.516 54.405h-39.601c-4.143 0-7.5-3.358-7.5-7.5s3.357-7.5 7.5-7.5h39.601c4.143 0 7.5 3.358 7.5 7.5s-3.358 7.5-7.5 7.5z" fill="#2115c2"/><g><path d="m504.5 176.971h-497c-4.143 0-7.5-3.358-7.5-7.5v-36.817c0-40.862 26.171-76.589 65.123-88.903 3.948-1.248 8.164.941 9.412 4.891s-.941 8.163-4.891 9.412c-32.684 10.332-54.644 40.311-54.644 74.6v29.317h482v-29.317c0-34.22-21.902-64.181-54.501-74.555-3.947-1.256-6.129-5.474-4.872-9.421 1.255-3.947 5.472-6.128 9.421-4.872 38.849 12.362 64.952 48.068 64.952 88.848v36.817c0 4.142-3.357 7.5-7.5 7.5z" fill="#2115c2"/></g><g><path d="m98.928 111.818c-20.434 0-37.058-16.624-37.058-37.057v-35.903c0-20.434 16.624-37.058 37.058-37.058s37.058 16.624 37.058 37.057v35.904c-.001 20.434-16.625 37.057-37.058 37.057zm0-95.018c-12.163 0-22.058 9.895-22.058 22.057v35.904c0 12.162 9.895 22.057 22.058 22.057s22.058-9.895 22.058-22.057v-35.903c-.001-12.163-9.895-22.058-22.058-22.058z" fill="#f95116"/></g><g><path d="m203.643 111.818c-20.433 0-37.057-16.624-37.057-37.057v-35.903c0-20.433 16.624-37.057 37.057-37.057 20.434 0 37.058 16.624 37.058 37.057v35.904c-.001 20.433-16.625 37.056-37.058 37.056zm0-95.018c-12.162 0-22.057 9.895-22.057 22.057v35.904c0 12.162 9.895 22.057 22.057 22.057 12.163 0 22.058-9.895 22.058-22.057v-35.903c-.001-12.163-9.895-22.058-22.058-22.058z" fill="#f95116"/></g><g><path d="m308.358 111.818c-20.434 0-37.058-16.624-37.058-37.057v-35.903c0-20.433 16.624-37.057 37.058-37.057 20.433 0 37.057 16.624 37.057 37.057v35.904c0 20.433-16.624 37.056-37.057 37.056zm0-95.018c-12.163 0-22.058 9.895-22.058 22.057v35.904c0 12.162 9.895 22.057 22.058 22.057 12.162 0 22.057-9.895 22.057-22.057v-35.903c0-12.163-9.894-22.058-22.057-22.058z" fill="#f95116"/></g><g><path d="m413.073 111.818c-20.434 0-37.058-16.624-37.058-37.057v-35.903c0-20.433 16.624-37.057 37.058-37.057s37.058 16.624 37.058 37.057v35.904c0 20.433-16.624 37.056-37.058 37.056zm0-95.018c-12.163 0-22.058 9.895-22.058 22.057v35.904c0 12.162 9.895 22.057 22.058 22.057s22.058-9.895 22.058-22.057v-35.903c0-12.163-9.895-22.058-22.058-22.058z" fill="#f95116"/></g></g></svg>