<svg id="Capa_1" enable-background="new 0 0 512 512" height="512" viewBox="0 0 512 512" width="512" xmlns="http://www.w3.org/2000/svg"><g><path d="m345.91 272.057c0-5.167.5-10.349 1.444-15.472-13.192-26.318-34.103-49.048-61.598-64.423-4.483-2.507-7.173-3.722-7.173-3.722-5.589 6.576-13.916 10.753-23.222 10.753h-106.023c-9.306 0-17.633-4.177-23.222-10.753 0 0-2.69 1.215-7.173 3.722-70.592 39.474-97.798 127.428-62.336 200.119l27.924 57.241c14.859 30.458 45.782 49.779 79.671 49.779h76.294c33.889 0 64.812-19.321 79.671-49.779l27.924-57.241c11.032-22.614 15.996-46.704 15.478-70.353-11.036-13.625-17.659-30.971-17.659-49.871z" fill="#b98eff"/><path d="m218.156 18.905h-31.614c-20.547 0-37.204 16.657-37.204 37.204v82.141h106.022v-82.14c0-20.548-16.656-37.205-37.204-37.205z" fill="#ff9bff"/><ellipse cx="202.349" cy="78.578" fill="#ff63ed" rx="20.128" ry="23.6"/><path d="m272.442 275.091h-140.185c-15.497 0-28.061 12.563-28.061 28.061v55.044c0 15.497 12.563 28.061 28.061 28.061h140.185c15.497 0 28.061-12.563 28.061-28.061v-55.044c-.001-15.498-12.564-28.061-28.061-28.061z" fill="#ffff6f"/><path d="m320.447 60.987h-65.087v35.182h65.086c48.065 0 87.168 39.103 87.168 87.167v2.451c5.658-1.591 11.545-2.451 17.591-2.451s11.933.86 17.591 2.452v-2.451c0-67.464-54.886-122.35-122.349-122.35z" fill="#ff63ed"/><path d="m504.5 272.057c0 43.794-35.502 79.295-79.295 79.295s-79.295-35.502-79.295-79.295 35.502-88.721 79.295-88.721 79.295 44.927 79.295 88.721z" fill="#9448f5"/><path d="m83.442 120.009c-8.974-5.849-22.097-5.58-32.733 4.815-10.476-10.238-23.364-10.654-32.326-5.074-16.593 10.327-19.722 41.204 30.859 68.304 1.293.692 2.31.339 3.448-.276 48.382-26.133 47.812-56.654 30.752-67.769z" fill="#ff63ed"/><path d="m108.495 15.822c-7.325-4.775-18.037-4.555-26.719 3.93-8.552-8.357-19.072-8.696-26.387-4.142-13.545 8.43-16.098 33.634 25.189 55.755 1.055.565 1.886.277 2.815-.226 39.493-21.331 39.028-46.245 25.102-55.317z" fill="#ff63ed"/><g><path d="m272.442 393.756h-140.185c-19.608 0-35.561-15.952-35.561-35.561v-55.044c0-19.608 15.952-35.561 35.561-35.561h140.185c19.608 0 35.561 15.952 35.561 35.561v55.044c0 19.608-15.953 35.561-35.561 35.561zm-140.185-111.165c-11.337 0-20.561 9.223-20.561 20.561v55.044c0 11.337 9.224 20.561 20.561 20.561h140.185c11.337 0 20.561-9.224 20.561-20.561v-55.044c0-11.337-9.224-20.561-20.561-20.561z" fill="#f95116"/></g><circle cx="254.717" cy="318.388" fill="#f95116" r="11.111"/><g><path d="m225.876 355.834h-47.055c-4.143 0-7.5-3.358-7.5-7.5s3.357-7.5 7.5-7.5h47.055c4.143 0 7.5 3.358 7.5 7.5.001 4.143-3.357 7.5-7.5 7.5z" fill="#f95116"/></g><circle cx="149.982" cy="318.388" fill="#f95116" r="11.111"/><g fill="#e207b9"><path d="m202.349 47.478c-15.234 0-27.628 13.951-27.628 31.1 0 17.148 12.394 31.1 27.628 31.1s27.629-13.952 27.629-31.1c0-17.149-12.394-31.1-27.629-31.1zm0 47.2c-6.963 0-12.628-7.223-12.628-16.1s5.665-16.1 12.628-16.1c6.964 0 12.629 7.223 12.629 16.1s-5.665 16.1-12.629 16.1z"/><path d="m320.447 53.487h-57.669c-1.363-23.433-20.852-42.082-44.621-42.082h-31.614c-24.65 0-44.704 20.054-44.704 44.704v79.141c0 4.142 3.357 7.5 7.5 7.5s7.5-3.358 7.5-7.5v-79.14c0-16.379 13.325-29.704 29.704-29.704h31.614c16.379 0 29.704 13.325 29.704 29.704v79.141c0 4.142 3.357 7.5 7.5 7.5s7.5-3.358 7.5-7.5v-31.582h57.586c43.929 0 79.667 35.739 79.667 79.668 0 4.142 3.357 7.5 7.5 7.5s7.5-3.358 7.5-7.5c0-52.2-42.468-94.668-94.667-94.668h-57.586v-20.182h57.586c63.328 0 114.849 51.521 114.849 114.849 0 4.142 3.357 7.5 7.5 7.5s7.5-3.358 7.5-7.5c0-71.599-58.25-129.849-129.849-129.849z"/></g><g><path d="m45.701 194.666c-38.906-20.845-45.322-42.672-45.683-53.828-.368-11.351 5.017-21.614 14.402-27.456 12.505-7.787 26.276-5.061 36.255 1.758 11.493-8.006 25.64-8.73 36.86-1.416 9.299 6.058 14.366 15.996 13.902 27.266-.455 11.069-6.931 32.724-45.184 53.385-3.494 1.891-7.062 2.158-10.552.291zm-23.353-68.55c-4.859 3.024-7.533 8.212-7.338 14.235.202 6.246 4.132 22.456 35.698 39.96 31.456-17.446 35.485-33.692 35.742-39.937.244-5.938-2.278-10.939-7.103-14.082-.001 0-.001-.001-.002-.001-5.369-3.5-14.72-4.584-23.396 3.896-2.914 2.848-7.57 2.848-10.484 0-6.508-6.361-15.611-8.746-23.117-4.071z" fill="#e207b9"/></g><g><path d="m77.04 77.978c-32.37-17.343-37.715-35.707-38.02-45.11-.316-9.763 4.321-18.595 12.405-23.626 9.279-5.777 20.82-5.266 30.322.913 10.85-7.173 22.862-5.818 30.84-.618 8.008 5.217 12.372 13.77 11.973 23.468-.383 9.328-5.778 27.544-37.604 44.733-3.231 1.747-6.677 1.973-9.916.24zm-17.687-56.001c-3.537 2.201-5.482 5.993-5.34 10.405.156 4.82 3.223 17.29 27.759 31.083 17.064-9.641 27.395-21.156 27.802-31.077.179-4.342-1.658-7.993-5.173-10.283-.001 0-.001-.001-.002-.001-3.955-2.579-10.883-3.34-17.381 3.011-2.914 2.848-7.568 2.848-10.484 0-4.685-4.577-11.455-6.703-17.181-3.138z" fill="#e207b9"/></g><path d="m255.36 138.251h-106.022c-16.829 0-30.471 13.642-30.471 30.471 0 16.829 13.642 30.471 30.471 30.471h106.022c16.829 0 30.471-13.642 30.471-30.471 0-16.829-13.642-30.471-30.471-30.471z" fill="#ddbeff"/><path d="m425.205 175.837c-36.745 0-67.406 27.994-80.228 61.59-14.003-21.447-32.946-39.165-55.56-51.811-.017-.009-.033-.018-.05-.028 2.532-5.085 3.965-10.811 3.965-16.867 0-20.937-17.033-37.971-37.971-37.971h-106.023c-20.938 0-37.971 17.034-37.971 37.971 0 6.056 1.433 11.781 3.965 16.867-.018.01-.032.018-.05.028-73.944 41.349-102.677 133.57-65.416 209.953l27.925 57.241c16.108 33.023 49.64 53.991 86.411 53.991h76.294c36.741 0 70.29-20.941 86.411-53.991l27.924-57.241c8.593-17.613 13.883-36.77 15.625-56.215 14.946 12.183 34.008 19.499 54.749 19.499 47.858 0 86.795-38.937 86.795-86.796 0-47.536-38.356-96.22-86.795-96.22zm-275.867-30.086h106.023c12.666 0 22.971 10.305 22.971 22.971 0 12.654-10.296 22.971-22.971 22.971h-106.023c-12.749 0-22.971-10.42-22.971-22.971.001-12.667 10.305-22.971 22.971-22.971zm192.013 243.241-27.924 57.241c-13.504 27.681-42.131 45.567-72.931 45.567h-76.294c-30.8 0-59.427-17.886-72.931-45.567l-27.925-57.241c-34.312-70.336-6.783-154.835 61.318-191.415 6.891 5.9 15.709 9.115 24.673 9.115h106.023c8.881 0 17.721-3.164 24.673-9.115 25.491 13.712 46.104 34.54 59.508 60.206-.673 4.323-1.132 9.572-1.132 14.274 0 19.775 6.718 38.062 17.694 52.504.102 22.179-4.981 44.402-14.752 64.431zm83.854-45.14c-39.84 0-71.795-32.459-71.795-71.796 0-39.387 31.944-81.22 71.795-81.22 39.786 0 71.795 41.754 71.795 81.22 0 39.589-32.207 71.796-71.795 71.796z" fill="#6d00ca"/></g></svg>