<svg id="Capa_1" enable-background="new 0 0 512 512" height="512" viewBox="0 0 512 512" width="512" xmlns="http://www.w3.org/2000/svg"><g><path d="m375.432 54.038c-4.711-2.858-10.821-.717-12.717 4.457-4.776 13.033-17.435 33.084-49.292 25.975-38.888-8.678-33.409-46.107-27.548-65.833 1.787-6.013-3.248-11.911-9.462-11.05-68.433 9.475-88.12 65.725-88.12 65.725-13.528-27.619-41.406-34.111-56.571-35.545-5.18-.49-9.579 3.646-9.497 8.848.431 27.521-20.068 46.369-44.44 73.981-128.657 145.755-30.839 377.117 163.462 383.76 2.63.09 5.27.138 7.92.144 133.632.283 241.775-106.355 243.271-239.979.998-89.201-46.118-167.476-117.006-210.483z" fill="#ffd600"/><path d="m376.441 186.203c-33.02-21.523-81.305-20.531-120.442 17.716-38.548-37.671-85.969-39.2-118.944-18.669-61.056 37.997-72.566 151.612 113.544 251.325 4.757 2.545 8.501 1.246 12.687-1.017 178.026-96.154 175.929-208.459 113.155-249.355z" fill="#ff9bff"/><circle cx="313.59" cy="282.067" fill="#e207b9" r="12.219"/><g><path d="m281.874 322.5h-51.746c-4.143 0-7.5-3.358-7.5-7.5s3.357-7.5 7.5-7.5h51.746c4.143 0 7.5 3.358 7.5 7.5s-3.357 7.5-7.5 7.5z" fill="#e207b9"/></g><circle cx="198.413" cy="282.067" fill="#e207b9" r="12.219"/><g><path d="m249.699 512c-.188 0-.362 0-.549 0-51.948-.112-99.261-16.091-137.384-43.461-71.173-51.098-109.511-140.195-97.557-227.828 7.723-56.619 32.321-96.69 66.762-134.929 19.788-21.974 34.086-37.85 33.754-59.05-.151-9.664 8.081-17.342 17.702-16.432 14.416 1.363 38.808 6.866 55.038 27.598 3.133-5.417 7.572-12.037 13.605-18.862 13.135-14.861 36.689-33.668 74.314-38.878 11.599-1.608 21.022 9.367 17.68 20.615-7.979 26.857-5.376 50.27 21.993 56.378 20.136 4.494 33.805-2.65 40.616-21.236 3.525-9.616 14.909-13.592 23.649-8.288 36.527 22.161 66.989 53.499 88.09 90.625 21.774 38.31 33.02 82.002 32.524 126.353-.746 66.613-27.139 128.926-74.318 175.461-47.039 46.397-109.504 71.931-175.919 71.934zm-119.976-465.502c.424 27.093-16.358 45.728-37.606 69.322-31.996 35.537-55.674 72.881-63.046 126.918-11.18 81.965 24.64 165.654 91.443 213.616 36.287 26.052 80.761 40.545 128.667 40.646h.517c62.453 0 121.17-24 165.388-67.615 44.344-43.738 69.15-102.318 69.851-164.949.468-41.699-10.102-82.77-30.565-118.774-19.841-34.909-48.483-64.375-82.831-85.212-.678-.412-1.512-.117-1.784.626-4.447 12.131-18.989 39.41-57.967 30.713-36.07-8.049-43.773-39.381-33.104-75.289.237-.793-.423-1.595-1.244-1.485-26.319 3.644-48.092 14.909-64.711 33.481-12.537 14.009-17.319 27.182-17.366 27.313-1.014 2.841-3.634 4.81-6.645 4.98-2.977.17-5.835-1.469-7.162-4.179-11.886-24.267-36.767-30.075-50.542-31.377-.735-.068-1.305.528-1.293 1.265z" fill="#f95116"/></g><g><path d="m247.061 443.187c-134.26-71.933-156.304-144.275-157.495-180.995-1.118-34.509 15.153-65.653 43.526-83.311 18.309-11.4 40.416-16.22 62.249-13.569 21.694 2.634 42.535 12.406 60.658 28.375 18.42-16.234 39.615-26.048 61.688-28.495 22.187-2.46 44.506 2.77 62.849 14.727l-.002-.001c28.126 18.324 43.45 48.453 42.043 82.662-1.183 28.746-14.272 59.244-37.857 88.198-26.747 32.837-66.404 63.581-117.869 91.378-6.768 3.658-12.87 4.734-19.79 1.031zm-63.187-263.587c-16.546 0-31.484 4.936-42.855 12.016-23.774 14.796-37.404 40.997-36.461 70.09.829 25.565 12.58 53.014 33.982 79.381 25.676 31.633 64.57 61.534 115.601 88.875 1.206.644 1.868 1.003 5.578-1.004 49.729-26.859 87.872-56.349 113.371-87.654 21.522-26.422 33.452-53.858 34.5-79.341 1.184-28.791-11.662-54.114-35.243-69.477-.001 0-.001-.001-.002-.001-15.439-10.064-34.261-14.464-53.005-12.384-20.839 2.31-40.929 12.401-58.099 29.181-2.914 2.848-7.57 2.848-10.484 0-22.208-21.701-45.845-29.682-66.883-29.682z" fill="#e207b9"/></g></g></svg>