<svg id="Capa_1" enable-background="new 0 0 512 512" height="512" viewBox="0 0 512 512" width="512" xmlns="http://www.w3.org/2000/svg"><g><path d="m82.591 360.212c-22.832 0-44.73 9.07-60.875 25.215l-11.84 11.841c-5.066 5.066-1.478 13.728 5.686 13.728h52.123l50.784-50.784z" fill="#ff9bff"/><path d="m151.789 429.409c0 22.832-9.07 44.73-25.215 60.875l-11.841 11.841c-5.066 5.066-13.728 1.478-13.728-5.686v-52.123l50.784-50.784z" fill="#ff9bff"/><g fill="#ffd600"><path d="m387.193 124.021c6.858 4.468 13.052 9.717 18.456 15.648l37.205-37.205c-5.518-5.512-9.488-13.166-10.675-22.642-9.48-1.188-17.134-5.158-22.645-10.674l-44.311 44.312c7.794 2.578 15.177 6.134 21.97 10.561z"/><path d="m149.557 329.124-81.871 81.872 33.318 33.318 85.405-85.405c-13.815-9.922-26.057-19.873-36.852-29.785z"/></g><path d="m387.193 124.021c-36.117-23.542-88.932-22.457-131.739 19.378-42.164-41.205-94.033-42.877-130.102-20.42-66.783 41.561-79.373 165.834 124.195 274.899 5.203 2.784 9.298 1.363 13.877-1.113 194.725-105.171 192.431-228.011 123.769-272.744z" fill="#b98eff"/><circle cx="318.542" cy="240.756" fill="#6d00ca" r="13.365"/><g><path d="m283.851 284.278h-56.6c-4.143 0-7.5-3.358-7.5-7.5s3.357-7.5 7.5-7.5h56.6c4.143 0 7.5 3.358 7.5 7.5s-3.358 7.5-7.5 7.5z" fill="#6d00ca"/></g><circle cx="192.56" cy="240.756" fill="#6d00ca" r="13.365"/><g><path d="m67.685 418.496h-52.123c-13.822 0-20.769-16.753-10.989-26.531l11.84-11.841c17.677-17.676 41.182-27.412 66.179-27.412h33.224c4.143 0 7.5 3.358 7.5 7.5s-3.357 7.5-7.5 7.5h-33.224c-20.992 0-40.727 8.175-55.571 23.018l-11.841 11.841c-.353.353-.113.925.383.925h52.123c4.143 0 7.5 3.358 7.5 7.5s-3.358 7.5-7.501 7.5z" fill="#e207b9"/></g><g><path d="m93.505 496.439v-52.123c0-4.142 3.357-7.5 7.5-7.5s7.5 3.358 7.5 7.5v52.123c0 .497.574.734.926.383l11.84-11.841c14.844-14.843 23.019-34.579 23.019-55.571v-31.472c0-4.142 3.357-7.5 7.5-7.5s7.5 3.358 7.5 7.5v31.472c0 24.999-9.735 48.502-27.411 66.178l-11.841 11.841c-9.775 9.772-26.533 2.839-26.533-10.99z" fill="#e207b9"/></g><g><g><path d="m361.301 117.38c-2.929-2.929-2.929-7.678 0-10.607l41.725-41.725c2.93-2.929 7.678-2.929 10.607 0s2.929 7.678 0 10.607l-41.724 41.725c-2.93 2.929-7.678 2.929-10.608 0z" fill="#f95116"/></g><g><path d="m401.959 143.359c-2.929-2.929-2.929-7.678 0-10.607l34.276-34.277c2.93-2.929 7.678-2.929 10.607 0s2.929 7.678 0 10.607l-34.276 34.277c-2.929 2.928-7.677 2.929-10.607 0z" fill="#f95116"/></g><g><path d="m95.7 449.618-33.318-33.318c-2.929-2.929-2.929-7.678 0-10.607l80.684-80.685c2.93-2.929 7.678-2.929 10.607 0s2.929 7.678 0 10.607l-75.382 75.382 22.712 22.712 78.617-78.618c2.93-2.929 7.678-2.929 10.607 0s2.929 7.678 0 10.607l-83.921 83.921c-2.927 2.926-7.676 2.927-10.606-.001z" fill="#f95116"/></g></g><g><path d="m246.008 404.491c-146.541-78.513-170.599-157.362-171.896-197.375-1.216-37.492 16.457-71.325 47.276-90.505 19.893-12.385 43.912-17.621 67.632-14.741 23.773 2.886 46.608 13.66 66.433 31.278 20.146-17.907 43.368-28.727 67.552-31.408 24.111-2.673 48.355 3.009 68.283 15.998 30.549 19.902 47.194 52.632 45.666 89.796-1.287 31.289-15.551 64.505-41.251 96.055-29.197 35.846-72.504 69.415-128.715 99.775-6.97 3.769-13.517 5.121-20.98 1.127zm-69.767-288.394c-16.645 0-32.982 4.567-46.926 13.248-26.22 16.318-41.252 45.209-40.211 77.284.911 28.118 13.818 58.288 37.326 87.248 28.143 34.673 70.758 67.439 126.659 97.389 1.728.924 2.758 1.068 6.768-1.099 54.475-29.422 96.267-61.738 124.217-96.052 23.638-29.019 36.741-59.172 37.893-87.199 1.306-31.745-12.861-59.67-38.868-76.613-.001 0-.001-.001-.002-.001-17.024-11.097-37.779-15.947-58.438-13.656-22.951 2.545-45.068 13.65-63.963 32.115-2.914 2.848-7.57 2.848-10.484 0-18.615-18.192-40.4-29.258-62.999-32.002-3.657-.442-7.323-.662-10.972-.662z" fill="#6d00ca"/></g><path d="m497.612 20.679c-.915-3.024-3.264-5.377-6.29-6.29-20.14-6.09-37.817-8.157-52.545-6.147-13.156 1.795-23.786 6.911-30.743 14.791-17.987 20.38-6.355 52.968 24.143 56.79 3.82 30.477 36.399 42.138 56.788 24.141 7.881-6.955 12.996-17.587 14.793-30.741 2.011-14.727-.058-32.406-6.146-52.544z" fill="#ff9bff"/><g><path d="m452.325 117.327c-13.466-5.091-23.119-16.49-26.593-31.059-14.569-3.473-25.969-13.124-31.059-26.586-5.444-14.397-2.551-29.953 7.739-41.612 8.167-9.25 20.391-15.218 35.351-17.259 15.797-2.157 34.55-.005 55.729 6.399 5.43 1.638 9.655 5.863 11.299 11.299h-.001c6.403 21.18 8.556 39.93 6.398 55.729-2.043 14.963-8.011 27.187-17.26 35.35-11.68 10.309-27.237 13.171-41.603 7.739zm-12.533-101.654c-11.347 1.548-20.383 5.81-26.135 12.324-6.544 7.415-8.396 17.277-4.954 26.38 3.715 9.824 12.839 16.555 24.407 18.004 3.402.426 6.083 3.106 6.509 6.509 1.45 11.567 8.183 20.691 18.011 24.407 9.102 3.441 18.96 1.588 26.374-4.955 6.513-5.748 10.774-14.785 12.324-26.133 1.863-13.649-.12-30.256-5.895-49.36h-.001c-.188-.625-.654-1.092-1.276-1.279-15.396-4.656-33.297-8.091-49.364-5.897z" fill="#e207b9"/></g></g></svg>