<svg id="Capa_1" enable-background="new 0 0 512 512" height="512" viewBox="0 0 512 512" width="512" xmlns="http://www.w3.org/2000/svg"><g><g><path d="m335.2 400.048v81.39c0 12.737-10.326 23.063-23.063 23.063h-38.497c-12.737 0-23.062-10.326-23.062-23.063s10.326-23.062 23.062-23.062h15.434v-58.327h46.126z" fill="#88f8d8"/></g><g><path d="m227.866 400.048v81.39c0 12.737-10.326 23.063-23.062 23.063h-38.497c-12.737 0-23.062-10.326-23.062-23.063s10.326-23.062 23.062-23.062h15.434v-58.327h46.125z" fill="#88f8d8"/></g><g><g><path d="m312.138 512h-38.496c-16.852 0-30.563-13.71-30.563-30.562s13.711-30.562 30.563-30.562h7.933v-47.828c0-4.142 3.357-7.5 7.5-7.5s7.5 3.358 7.5 7.5v55.327c0 4.142-3.357 7.5-7.5 7.5h-15.433c-8.582 0-15.563 6.982-15.563 15.563s6.981 15.563 15.563 15.563h38.496c8.581 0 15.562-6.981 15.562-15.563v-78.39c0-4.142 3.357-7.5 7.5-7.5s7.5 3.358 7.5 7.5v78.39c0 16.852-13.71 30.562-30.562 30.562z" fill="#007ea8"/></g></g><g><g><path d="m204.803 512h-38.496c-16.852 0-30.562-13.71-30.562-30.562s13.71-30.562 30.562-30.562h7.934v-47.828c0-4.142 3.357-7.5 7.5-7.5s7.5 3.358 7.5 7.5v55.327c0 4.142-3.357 7.5-7.5 7.5h-15.434c-8.581 0-15.562 6.982-15.562 15.563s6.981 15.563 15.562 15.563h38.496c8.581 0 15.562-6.981 15.562-15.563v-78.39c0-4.142 3.357-7.5 7.5-7.5s7.5 3.358 7.5 7.5v78.39c0 16.852-13.71 30.562-30.562 30.562z" fill="#007ea8"/></g></g><path d="m181.741 400.048h46.125v30.818h-46.125z" fill="#007ea8"/><path d="m289.076 400.048h46.125v30.818h-46.125z" fill="#007ea8"/><path d="m397.664 85.242h-315.131v283.002c0 17.565 14.239 31.803 31.803 31.803h283.328c17.564 0 31.803-14.239 31.803-31.803v-251.198c0-17.565-14.239-31.804-31.803-31.804z" fill="#ffff6f"/><path d="m335.522 8.886-252.989 76.356h293.981v-45.909c0-21.326-20.576-36.609-40.992-30.447z" fill="#ffd600"/><path d="m370.388 211.453c-3.383-54.227-65.883-83.848-114.39-46.143-48.475-37.677-111.003-8.111-114.386 46.143-1.309 20.97 6.489 43.226 22.542 64.357 17.974 23.657 45.885 45.719 82.954 65.578 5.567 2.982 12.213 2.986 17.781 0 37.073-19.859 64.979-41.922 82.954-65.578 16.056-21.131 23.849-43.387 22.545-64.357z" fill="#ff9bff"/><path d="m397.664 77.743h-13.65v-38.41c0-26.369-25.396-45.25-50.659-37.627l-252.989 76.356c-.003.001-.007.002-.01.003-3.132.956-5.323 3.868-5.323 7.177v283.002c0 21.672 17.632 39.303 39.303 39.303h283.328c21.672 0 39.303-17.631 39.303-39.303v-251.198c0-21.672-17.631-39.303-39.303-39.303zm-59.975-61.677c15.612-4.712 31.326 6.953 31.326 23.267v38.409h-235.676zm84.278 352.178c0 13.401-10.902 24.303-24.303 24.303h-283.328c-13.401 0-24.303-10.902-24.303-24.303v-275.502h307.631c13.401 0 24.303 10.902 24.303 24.303z" fill="#f95116"/><circle cx="297.461" cy="235.973" fill="#e207b9" r="8.797"/><g><path d="m274.627 267.182h-37.254c-4.143 0-7.5-3.358-7.5-7.5s3.357-7.5 7.5-7.5h37.254c4.143 0 7.5 3.358 7.5 7.5 0 4.143-3.357 7.5-7.5 7.5z" fill="#e207b9"/></g><g fill="#e207b9"><circle cx="214.539" cy="235.973" r="8.797"/><path d="m377.873 210.988v-.001c-1.759-28.202-18.013-51.899-43.481-63.391-25.253-11.394-54.171-8.185-78.395 8.432-24.224-16.615-53.146-19.82-78.401-8.424-25.46 11.49-41.71 35.183-43.469 63.38v.001c-1.423 22.788 6.894 46.772 24.054 69.361.002.002.004.005.006.007 18.628 24.514 47.353 47.274 85.378 67.645.001 0 .002.001.003.001 7.777 4.165 17.07 4.174 24.857 0 .001-.001.002-.001.003-.002.001 0 .002-.001.003-.001h.001c38.022-20.367 66.746-43.127 85.377-67.646l.003-.003c17.16-22.58 25.479-46.564 24.061-69.359zm-116.526 123.79s-.001 0-.002.001c0 0-.001 0-.002.001-3.344 1.793-7.34 1.793-10.693-.001-36.113-19.347-63.203-40.71-80.519-63.497-.001-.002-.003-.004-.004-.007-14.953-19.683-22.224-40.207-21.029-59.352v-.001c1.406-22.549 14.366-41.481 34.668-50.643 21.718-9.801 46.999-6.079 67.629 9.954 2.706 2.094 6.516 2.091 9.205 0 20.633-16.036 45.915-19.759 67.623-9.963 20.309 9.164 33.273 28.1 34.68 50.652v.001c1.191 19.153-6.081 39.677-21.033 59.352-.001.001-.001.002-.002.003-17.319 22.791-44.41 44.156-80.521 63.5z"/></g></g></svg>