<svg id="Capa_1" enable-background="new 0 0 512 512" height="512" viewBox="0 0 512 512" width="512" xmlns="http://www.w3.org/2000/svg"><g><path d="m490.769 136.986c-6.943-111.295-135.217-172.087-234.773-94.703-99.49-77.328-227.821-16.648-234.764 94.704-2.686 43.039 13.318 88.716 46.264 132.086 36.89 48.553 94.174 93.833 170.253 134.592 11.427 6.12 25.066 6.129 36.493 0 76.088-40.759 133.363-86.039 170.253-134.592 32.956-43.37 48.951-89.048 46.274-132.087z" fill="#b98eff"/><g fill="#ffff6f"><path d="m392.31 258.686-112.893-64.397v-110.661c71.17-61.077 159.914-18.842 164.596 56.272 2.734 43.786-22.389 86.153-51.703 118.786z"/><path d="m232.575 83.619v110.671l-112.893 64.397c-29.314-32.643-54.427-75.01-51.703-118.786 4.692-75.191 93.484-117.312 164.596-56.282z"/><path d="m232.575 248.215v98.828c-29.739-17.518-55.714-35.708-77.782-54.456z"/><path d="m357.208 292.587c-22.077 18.748-48.052 36.938-77.791 54.465v-98.838z"/></g><path d="m279.054 401.058v49.204h-18.149c-14.978 0-27.119 12.142-27.119 27.119s12.142 27.119 27.119 27.119h45.268c14.978 0 27.119-12.142 27.119-27.119v-108.728c-16.816 11.084-34.909 21.892-54.238 32.405z" fill="#88f8d8"/><path d="m239.88 404.722c-.718-.33-1.428-.682-2.13-1.058-18.491-9.906-35.861-20.082-52.108-30.504v77.102h-18.149c-14.977 0-27.119 12.142-27.119 27.119s12.142 27.119 27.119 27.119h45.268c10.474 0 19.555-5.942 24.072-14.635-1.943-3.738-3.047-7.981-3.047-12.485 0-6.495 2.286-12.455 6.094-17.124z" fill="#88f8d8"/><g><path d="m388.595 265.2-112.893-64.397c-2.34-1.334-3.784-3.821-3.784-6.514v-110.661c0-2.188.955-4.266 2.615-5.691 35.591-30.543 79.508-39.199 117.48-23.161 34.341 14.505 57.135 46.944 59.486 84.657 3.116 49.91-27.433 95.123-53.609 124.264-2.347 2.613-6.215 3.26-9.295 1.503zm-101.679-75.266 103.803 59.211c40.409-46.847 47.302-84.86 45.809-108.778-1.995-31.996-21.288-59.498-50.353-71.774-31.71-13.394-68.585-6.444-99.26 18.539v102.802z" fill="#f95116"/></g><g><path d="m114.102 263.697c-26.17-29.143-56.714-74.358-53.608-124.263 2.353-37.721 25.145-70.16 59.478-84.661 37.983-16.041 81.904-7.385 117.488 23.155 1.66 1.425 2.615 3.503 2.615 5.691v110.671c0 2.693-1.444 5.18-3.784 6.514l-112.893 64.396c-3.06 1.746-6.934 1.128-9.296-1.503zm11.705-195.107c-29.056 12.272-48.347 39.775-50.344 71.777-1.488 23.915 5.408 61.926 45.81 108.778l103.802-59.211v-102.811c-28.569-23.27-65.509-32.79-99.268-18.533z" fill="#f95116"/></g><g><path d="m228.769 353.505c-29.978-17.659-56.5-36.231-78.831-55.202-3.958-3.362-3.38-9.651 1.139-12.23l77.782-44.372c4.987-2.844 11.216.756 11.216 6.514v98.828c0 5.835-6.347 9.383-11.306 6.462zm-60.84-59.777c16.902 13.644 36.049 27.062 57.147 40.047v-72.648z" fill="#f95116"/></g><g><path d="m271.917 347.053v-98.838c0-5.74 6.215-9.367 11.215-6.514l77.791 44.372c4.513 2.574 5.104 8.863 1.139 12.23-22.333 18.965-48.858 37.54-78.837 55.21-4.959 2.922-11.308-.626-11.308-6.46zm14.999-85.927v72.654c21.099-12.991 40.25-26.412 57.153-40.054z" fill="#f95116"/></g><path d="m333.293 364.153c-4.142 0-7.499 3.358-7.499 7.499v105.729c0 10.818-8.801 19.62-19.62 19.62h-45.269c-10.781 0-19.62-8.773-19.62-19.62 0-10.685 8.68-19.62 19.62-19.62h18.149c4.142 0 7.499-3.358 7.499-7.499v-46.204c0-4.142-3.357-7.499-7.499-7.499s-7.499 3.358-7.499 7.499v38.705h-10.65c-4.797 0-9.368.982-13.526 2.754v-37.795c0-4.142-3.357-7.499-7.499-7.499s-7.499 3.358-7.499 7.499v50.048c-4.048 5.885-6.093 12.822-6.093 19.611 0 4.017.752 8.196 2.096 11.867-3.675 4.849-9.407 7.753-15.622 7.753h-45.269c-10.818 0-19.62-8.801-19.62-19.62s8.801-19.62 19.62-19.62h18.149c4.142 0 7.499-3.358 7.499-7.499v-74.102c0-4.142-3.357-7.499-7.499-7.499s-7.499 3.358-7.499 7.499v66.603h-10.65c-19.088 0-34.618 15.53-34.618 34.619s15.528 34.618 34.617 34.618h45.269c9.17 0 17.732-3.592 24.084-9.763 6.234 6.037 14.718 9.763 24.061 9.763h45.269c19.088 0 34.618-15.53 34.618-34.618v-105.729c0-4.142-3.358-7.5-7.5-7.5z" fill="#007ea8"/><path d="m222.96 431.281c5.344 2.862 11.045 5.005 16.92 6.4v-32.959c-.718-.33-1.428-.682-2.13-1.058-18.491-9.906-35.861-20.082-52.108-30.504v36.892c11.93 7.211 24.366 14.29 37.318 21.229z" fill="#007ea8"/><path d="m333.293 368.653c-16.817 11.084-34.91 21.892-54.239 32.405v34.603c3.431-1.198 6.772-2.66 9.981-4.382 15.484-8.295 30.235-16.79 44.258-25.472z" fill="#007ea8"/><path d="m498.254 136.522c0-.001 0-.001 0-.002-3.487-55.912-36.566-101.721-84.609-123.399-50.812-22.928-109.34-15.48-157.65 19.775-48.307-35.249-106.841-42.691-157.663-19.756-48.059 21.688-81.098 67.488-84.584 123.379v.001c-2.8 44.854 13.722 92.258 47.777 137.089.001.002.003.004.005.006 37.541 49.407 95.639 95.387 172.678 136.661.002.001.004.001.006.002 13.641 7.305 29.929 7.314 43.573-.004.003-.002.006-.004.009-.006 77.03-41.264 135.124-87.242 172.668-136.656 0-.001.001-.001.002-.002 34.054-44.815 50.579-92.219 47.788-137.088zm-227.549 260.53c-.003.002-.005.003-.008.004-9.197 4.934-20.189 4.934-29.404-.001 0 0 0 0-.001 0-75.127-40.249-131.589-84.832-167.818-132.512-.001-.002-.003-.004-.004-.006-31.849-41.925-47.323-85.87-44.751-127.082 3.071-49.252 31.402-90.614 75.784-110.642 47.29-21.34 102.202-13.342 146.892 21.393 2.594 2.043 6.404 2.152 9.204 0 44.692-34.739 99.602-42.745 146.879-21.411 44.395 20.033 72.735 61.401 75.808 110.661v.001c2.564 41.228-12.914 85.172-44.76 127.08-.001.001-.002.003-.003.004-36.236 47.686-92.697 92.27-167.818 132.511z" fill="#6d00ca"/></g></svg>