<svg id="Capa_1" enable-background="new 0 0 512 512" height="512" viewBox="0 0 512 512" width="512" xmlns="http://www.w3.org/2000/svg"><g><path d="m271.727 341.736h71.543v152.354h-71.543z" fill="#ff63ed"/><g><path d="m343.271 501.59h-71.544c-4.143 0-7.5-3.358-7.5-7.5v-149.355c0-4.142 3.357-7.5 7.5-7.5s7.5 3.358 7.5 7.5v141.855h56.544v-141.855c0-4.142 3.357-7.5 7.5-7.5s7.5 3.358 7.5 7.5v149.355c0 4.142-3.358 7.5-7.5 7.5z" fill="#e207b9"/></g><path d="m271.727 341.736h71.543v30.262h-71.543z" fill="#e207b9"/><path d="m396.163 86.152h-1.533v11.219c0 13.843-11.222 25.065-25.065 25.065h-7.013v80.555c0 13.057-10.585 23.641-23.641 23.641-13.057 0-23.641-10.585-23.641-23.641v-80.555-36.284h-76.718c-.002 18.597-6.93 38.044-20.237 56.736 8.326 15.341 13.055 32.919 13.055 51.601v101.23c0 25.414-20.602 46.016-46.016 46.016h273.131c25.414 0 46.016-20.602 46.016-46.016v-101.23c-.001-59.833-48.505-108.337-108.338-108.337z" fill="#f90"/><g><path d="m312.269 93.652h-70.717c-4.143 0-7.5-3.358-7.5-7.5s3.357-7.5 7.5-7.5h70.717c4.143 0 7.5 3.358 7.5 7.5s-3.358 7.5-7.5 7.5z" fill="#f95116"/></g><g><path d="m458.483 349.235h-268.13c-4.143 0-7.5-3.358-7.5-7.5s3.357-7.5 7.5-7.5h268.13c21.238 0 38.517-17.278 38.517-38.516v-101.23c0-55.601-45.235-100.837-100.837-100.837-4.143 0-7.5-3.358-7.5-7.5s3.357-7.5 7.5-7.5c63.873 0 115.837 51.964 115.837 115.837v101.23c0 29.509-24.008 53.516-53.517 53.516z" fill="#f95116"/></g><path d="m215.68 146.482c-18.132 23.864-46.283 46.12-83.681 66.153-5.616 3.013-12.32 3.008-17.937 0-37.393-20.033-65.549-42.289-83.681-66.153-.907-1.193-1.778-2.391-2.632-3.591-8.325 15.341-13.054 32.917-13.054 51.598v101.23c0 25.414 20.602 46.016 46.016 46.016h124.641c25.414 0 46.016-20.602 46.016-46.016v-101.23c0-18.682-4.729-36.259-13.055-51.601-.854 1.201-1.726 2.4-2.633 3.594z" fill="#7181ff"/><path d="m131.999 212.635c-5.616 3.013-12.32 3.008-17.937 0-18.047-9.669-33.935-19.856-47.591-30.491-.868 3.981-1.338 8.108-1.338 12.345v96.809h115.799v-96.809c0-4.238-.47-8.366-1.339-12.346-13.655 10.635-29.544 20.823-47.594 30.492z" fill="#565eec"/><path d="m238.423 81.561c-3.413-54.702-66.46-84.583-115.393-46.548-48.9-38.007-111.975-8.182-115.388 46.548-1.32 21.154 6.546 43.605 22.739 64.921 18.132 23.864 46.287 46.12 83.681 66.153 5.616 3.008 12.32 3.013 17.937 0 37.398-20.033 65.549-42.289 83.681-66.153 16.197-21.316 24.059-43.767 22.743-64.921z" fill="#ffff6f"/><path d="m369.565 17.937h-13.775c-22.379 0-40.521 18.142-40.521 40.521v63.979 80.555c0 13.057 10.585 23.641 23.641 23.641 13.057 0 23.641-10.585 23.641-23.641v-80.555h7.013c13.843 0 25.065-11.222 25.065-25.065v-54.37c.001-13.843-11.221-25.065-25.064-25.065z" fill="#ff63ed"/><circle cx="164.857" cy="106.295" fill="#f95116" r="8.874"/><g><path d="m141.823 137.713h-37.581c-4.143 0-7.5-3.358-7.5-7.5s3.357-7.5 7.5-7.5h37.581c4.143 0 7.5 3.358 7.5 7.5s-3.357 7.5-7.5 7.5z" fill="#f95116"/></g><circle cx="81.208" cy="106.295" fill="#f95116" r="8.874"/><g><path d="m185.354 349.235h-124.642c-29.509 0-53.517-24.007-53.517-53.516v-101.23c0-18.52 4.48-36.943 12.956-53.279 1.908-3.677 6.437-5.11 10.111-3.203 3.677 1.908 5.11 6.435 3.203 10.111-7.479 14.414-11.271 30.015-11.271 46.371v101.23c0 21.238 17.278 38.516 38.517 38.516h124.642c21.237 0 38.516-17.278 38.516-38.516v-101.23c0-16.367-3.796-31.977-11.283-46.397-1.909-3.676-.476-8.204 3.2-10.112 3.674-1.908 8.203-.476 10.112 3.2 8.485 16.343 12.971 34.777 12.971 53.309v101.23c0 29.509-24.007 53.516-53.515 53.516z" fill="#2115c2"/></g><g><path d="m180.932 298.798h-115.799c-4.143 0-7.5-3.358-7.5-7.5v-96.809c0-3.877.354-7.793 1.051-11.639.74-4.076 4.638-6.781 8.719-6.041 4.075.739 6.78 4.642 6.041 8.718-.538 2.964-.811 5.98-.811 8.962v89.309h100.799v-89.309c0-3.088-.291-6.207-.866-9.27-.765-4.071 1.916-7.991 5.987-8.755s7.991 1.916 8.755 5.988c.746 3.973 1.124 8.023 1.124 12.037v96.809c0 4.142-3.358 7.5-7.5 7.5z" fill="#2115c2"/></g><path d="m245.908 81.096c0-.001 0-.001 0-.002-1.772-28.424-18.155-52.308-43.823-63.89-25.46-11.49-54.629-8.246-79.055 8.527-24.422-16.77-53.591-20.012-79.061-8.518-25.662 11.58-42.04 35.46-43.812 63.88v.001c-1.434 22.972 6.952 47.152 24.252 69.925.002.002.004.004.006.007 18.785 24.722 47.755 47.674 86.105 68.22 7.646 4.095 16.993 4.296 25.004.007.005-.003.01-.004.016-.007 38.349-20.543 67.32-43.498 86.108-68.225 0 0 .001-.001.002-.002 17.3-22.766 25.688-46.945 24.258-69.923zm-36.2 60.849c-17.477 23.001-44.813 44.56-81.251 64.08-.002 0-.003.002-.005.003-3.393 1.819-7.448 1.818-10.848-.003-36.438-19.521-63.772-41.078-81.245-64.073-.001-.002-.003-.004-.004-.006-15.093-19.868-22.433-40.587-21.227-59.917 0 0 0 0 0-.001 1.42-22.771 14.508-41.89 35.011-51.142 21.931-9.896 47.459-6.14 68.289 10.05 2.737 2.111 6.529 2.081 9.205 0 20.83-16.191 46.356-19.952 68.283-10.059 20.509 9.254 33.601 28.376 35.021 51.152 1.203 19.336-6.138 40.054-21.229 59.916z" fill="#f95116"/><g><path d="m338.91 234.133c-17.172 0-31.142-13.97-31.142-31.141v-144.534c0-26.479 21.542-48.021 48.021-48.021h13.775c17.956 0 32.564 14.609 32.564 32.565v54.37c0 17.794-14.345 32.301-32.078 32.561v73.058c.002 17.172-13.968 31.142-31.14 31.142zm16.88-208.696c-18.208 0-33.021 14.813-33.021 33.021v144.533c0 8.901 7.241 16.141 16.142 16.141s16.142-7.241 16.142-16.141v-80.555c0-4.142 3.357-7.5 7.5-7.5h7.014c9.686 0 17.564-7.88 17.564-17.565v-54.37c0-9.685-7.879-17.565-17.564-17.565h-13.777z" fill="#e207b9"/></g></g></svg>