<svg id="Capa_1" enable-background="new 0 0 512 512" height="512" viewBox="0 0 512 512" width="512" xmlns="http://www.w3.org/2000/svg"><g><path d="m471.924 145.618.009-.111c3.463-40.388-41.745-66.496-74.995-43.31l-.099.069-.099-.069c-15.433-10.761-33.439-10.899-47.962-3.923-1.414 4.011-3.409 7.958-6.053 11.749l-.069.099.069.099c23.186 33.251-2.922 78.459-43.31 74.995l-.111-.01c-1.395 2.978-3.041 5.689-4.859 8.184 1.442 15.802 10.528 30.978 27.308 38.837l-.01.111c-3.463 40.388 41.745 66.496 74.996 43.31l.099-.069.099.069c33.251 23.186 78.459-2.922 74.995-43.31l-.009-.111c36.717-17.195 36.717-69.412.001-86.609z" fill="#ff9bff"/><path d="m217.555 193.39c-1.818-2.495-3.464-5.206-4.859-8.184l-.111.01c-40.388 3.463-66.496-41.745-43.31-74.995l.069-.099-.069-.099c-2.643-3.791-4.639-7.737-6.053-11.749-14.523-6.976-32.529-6.838-47.962 3.923l-.099.069-.099-.069c-33.251-23.186-78.459 2.922-74.995 43.31l.01.111c-36.716 17.196-36.716 69.413 0 86.609l-.01.111c-3.463 40.388 41.745 66.496 74.995 43.31l.099-.069.099.069c33.251 23.186 78.459-2.922 74.996-43.31l-.01-.111c16.78-7.858 25.866-23.034 27.309-38.837z" fill="#ff9bff"/><path d="m342.657 110.122.069-.099c23.186-33.251-2.922-78.459-43.31-74.995l-.111.01c-17.196-36.716-69.413-36.716-86.609 0l-.111-.01c-40.388-3.463-66.496 41.745-43.31 74.995l.069.099-.069.099c-23.186 33.251 2.922 78.459 43.31 74.996l.111-.01c17.196 36.716 69.413 36.716 86.609 0l.111.01c40.388 3.463 66.496-41.745 43.31-74.995z" fill="#ffceff"/><g fill="#ffff6f"><circle cx="256" cy="110.122" r="31.646"/><circle cx="115.161" cy="188.923" r="31.646"/><circle cx="396.839" cy="188.923" r="31.646"/></g><g fill="#88f8d8"><path d="m419.45 284.112-21.74 39.319h-283.42l-21.74-39.319c7.661-.779 15.361-3.48 22.509-8.459l.099-.069.099.069c33.256 23.18 78.462-2.928 75.001-43.313l-.01-.108c16.781-7.858 25.861-23.042 27.311-38.836 18.772 25.763 58.112 25.763 76.884 0 .72 7.897 3.362 15.637 7.907 22.391s11.013 12.512 19.403 16.446l-.01.108c-3.461 40.384 41.745 66.492 75.001 43.313l.099-.069.099.069c7.147 4.977 14.847 7.679 22.508 8.458z"/><path d="m345.149 418.506-27.419 49.583c-6.202 11.23-15.223 20.34-25.891 26.63-10.678 6.29-23.002 9.781-35.839 9.781-25.674 0-49.317-13.941-61.73-36.411l-27.419-49.583z"/></g><path d="m397.71 323.431-52.561 95.075h-178.298l-52.561-95.075z" fill="#b98eff"/><g><path d="m256 149.268c-21.585 0-39.146-17.561-39.146-39.146s17.561-39.146 39.146-39.146 39.146 17.561 39.146 39.146-17.561 39.146-39.146 39.146zm0-63.292c-13.313 0-24.146 10.832-24.146 24.146s10.832 24.146 24.146 24.146 24.146-10.832 24.146-24.146-10.833-24.146-24.146-24.146z" fill="#f95116"/></g><g><path d="m115.161 228.069c-21.585 0-39.146-17.561-39.146-39.146s17.561-39.146 39.146-39.146 39.146 17.561 39.146 39.146-17.561 39.146-39.146 39.146zm0-63.291c-13.313 0-24.146 10.832-24.146 24.146s10.832 24.146 24.146 24.146 24.146-10.832 24.146-24.146-10.832-24.146-24.146-24.146z" fill="#f95116"/></g><g><path d="m396.839 228.069c-21.585 0-39.146-17.561-39.146-39.146s17.561-39.146 39.146-39.146 39.146 17.561 39.146 39.146-17.561 39.146-39.146 39.146zm0-63.291c-13.313 0-24.146 10.832-24.146 24.146s10.832 24.146 24.146 24.146 24.146-10.832 24.146-24.146-10.833-24.146-24.146-24.146z" fill="#f95116"/></g><g><g><path d="m107.727 327.06-21.166-38.281c-2.004-3.625-.69-8.188 2.935-10.192 3.626-2.005 8.188-.691 10.192 2.935l21.166 38.281c2.004 3.625.69 8.188-2.935 10.192-3.625 2.003-8.188.691-10.192-2.935z" fill="#007ea8"/></g><g><path d="m394.081 329.995c-3.625-2.004-4.938-6.568-2.935-10.192l20.839-37.69c2.005-3.625 6.568-4.938 10.192-2.935 3.625 2.004 4.938 6.568 2.935 10.192l-20.839 37.69c-2.003 3.624-6.565 4.94-10.192 2.935z" fill="#007ea8"/></g><g><path d="m256 512c-28.398 0-54.567-15.436-68.294-40.284l-26.274-47.512c-2.004-3.625-.69-8.188 2.934-10.193 3.626-2.005 8.189-.691 10.193 2.934l26.275 47.515c11.089 20.072 32.227 32.54 55.166 32.54 22.921 0 44.072-12.452 55.165-32.537l25.913-46.859c2.005-3.625 6.569-4.938 10.193-2.934s4.938 6.568 2.934 10.193l-25.911 46.856c-13.719 24.84-39.891 40.281-68.294 40.281z" fill="#007ea8"/></g></g><g><path d="m345.149 426.006h-178.297c-2.729 0-5.243-1.483-6.563-3.871l-52.562-95.075c-2.759-4.991.857-11.129 6.563-11.129h283.42c5.703 0 9.324 6.134 6.563 11.129l-52.561 95.075c-1.319 2.388-3.833 3.871-6.563 3.871zm-173.874-15h169.45l44.269-80.075h-257.988z" fill="#6d00ca"/></g><circle cx="307.365" cy="358.803" fill="#6d00ca" r="10.898"/><g><path d="m279.077 395.677h-46.153c-4.143 0-7.5-3.358-7.5-7.5s3.357-7.5 7.5-7.5h46.153c4.143 0 7.5 3.358 7.5 7.5s-3.357 7.5-7.5 7.5z" fill="#6d00ca"/></g><circle cx="204.635" cy="358.803" fill="#6d00ca" r="10.898"/><path d="m479.616 141.188c-.023-19.704-10.32-37.657-27.662-47.671-17.344-10.015-38.046-9.96-55.113-.134-11.74-6.768-25.155-8.92-38.11-6.302.88-10.915-1.538-22.054-7.324-32.074-10.017-17.345-27.978-27.643-47.672-27.663-9.887-16.99-27.75-27.344-47.735-27.344s-37.848 10.355-47.734 27.345c-19.703.025-37.657 10.321-47.671 27.662-5.786 10.019-8.203 21.157-7.322 32.074-12.961-2.621-26.38-.467-38.114 6.302-17.076-9.824-37.772-9.879-55.112.135-17.353 10.021-27.651 27.992-27.664 47.672-16.987 9.887-27.343 27.749-27.343 47.733 0 19.986 10.356 37.849 27.346 47.735.024 19.702 10.32 37.656 27.661 47.67 17.337 10.012 38.027 9.959 55.114.132 17.171 9.881 37.869 9.829 55.116-.132 17.337-10.012 27.633-27.959 27.661-47.67 11.137-6.479 19.424-16.405 23.807-28.194 9.522 7.523 21.451 11.78 34.256 11.78s24.734-4.257 34.256-11.78c4.383 11.789 12.67 21.716 23.806 28.194.024 19.702 10.32 37.656 27.661 47.67 17.338 10.012 38.03 9.959 55.114.132 8.523 4.904 17.945 7.375 27.404 7.375 9.494-.001 19.024-2.49 27.712-7.507 17.337-10.012 27.633-27.96 27.661-47.671 16.989-9.886 27.346-27.75 27.346-47.735 0-19.984-10.356-37.847-27.345-47.734zm-292.551 84.248c-2.853 1.336-4.566 4.312-4.291 7.449l.009.095c1.351 15.754-6.316 30.452-20.009 38.359-13.691 7.908-30.254 7.202-43.212-1.833l-.099-.069c-2.579-1.806-6.018-1.812-8.605 0l-.086.06c-12.97 9.043-29.531 9.75-43.226 1.842-13.691-7.907-21.358-22.605-20.003-38.408l.009-.111c.247-3.116-1.465-6.058-4.296-7.384-14.321-6.707-23.218-20.698-23.218-36.513s8.896-29.805 23.218-36.513c2.831-1.325 4.543-4.268 4.296-7.383l-.013-.161c-1.352-15.753 6.315-30.452 20.007-38.359 13.693-7.907 30.255-7.201 43.213 1.833l.099.069c2.571 1.803 5.996 1.811 8.577.02l.115-.08c11.295-7.876 25.231-9.475 37.805-4.464.7 1.658 2.01 4.328 3.105 6.239-20.792 36.135 4.729 82.723 47.805 82.774.48.825.985 1.63 1.502 2.423-2.044 13.379-10.206 24.262-22.702 30.115zm112.878-47.702c-3.14-.271-6.105 1.46-7.431 4.291-6.492 13.872-20.274 23.219-36.513 23.219-15.913 0-29.873-9.037-36.513-23.219-1.3-2.773-4.293-4.56-7.437-4.291l-.106.009c-33.965 2.91-56.081-35.173-36.525-63.222l.065-.094s.001-.001.001-.002l.004-.005c2.952-4.227-.033-8.584-.063-8.688-9.037-12.966-9.755-29.524-1.843-43.225 7.907-13.693 22.604-21.36 38.373-20.007l.11.01c3.106.264 6.089-1.449 7.42-4.293 6.71-14.321 20.701-23.217 36.515-23.217s29.805 8.896 36.513 23.218c1.333 2.846 4.308 4.564 7.431 4.292l.113-.01c15.755-1.352 30.453 6.316 38.36 20.008s7.201 30.255-1.86 43.25l-.068.099c-1.772 2.564-1.774 5.957-.005 8.523l.09.131c9.054 12.985 9.743 29.546 1.844 43.225-7.907 13.692-22.603 21.359-38.362 20.008zm168.8 47.702c-2.853 1.336-4.566 4.312-4.29 7.449l.008.095c1.351 15.754-6.316 30.453-20.009 38.36-13.691 7.908-30.254 7.201-43.239-1.853l-.1-.069c-2.58-1.791-6.005-1.782-8.577.02l-.086.06c-12.97 9.043-29.531 9.75-43.226 1.842-13.691-7.907-21.358-22.605-20.003-38.408l.009-.111c.247-3.116-1.465-6.058-4.295-7.384-12.497-5.853-20.658-16.737-22.702-30.115.517-.793 1.021-1.597 1.501-2.421 19.82-.026 37.715-10.424 47.672-27.662 9.749-16.882 10.21-37.624.135-55.115 1.013-1.771 2.267-4.255 3.103-6.236 12.573-5.009 26.509-3.414 37.793 4.455l.099.069c2.572 1.803 5.997 1.811 8.577.02l.115-.08c12.968-9.044 29.531-9.75 43.224-1.843s21.359 22.606 20.011 38.344l-.01.111c-.276 3.137 1.438 6.113 4.29 7.448 14.321 6.708 23.218 20.698 23.218 36.513s-8.897 29.804-23.218 36.511z" fill="#e207b9"/></g></svg>