<svg id="Capa_1" enable-background="new 0 0 512 512" height="512" viewBox="0 0 512 512" width="512" xmlns="http://www.w3.org/2000/svg"><g><path d="m351.586 184.814h-191.171c-15.143 0-27.419 12.276-27.419 27.419 0 15.143 12.276 27.419 27.419 27.419h191.171c15.143 0 27.419-12.276 27.419-27.419 0-15.143-12.276-27.419-27.419-27.419z" fill="#7181ff"/><path d="m226.667 85.258c9.244-2.978 19.099-4.592 29.333-4.592 10.234 0 20.089 1.615 29.333 4.592l4.161-24.582c1.858-10.974-6.599-20.983-17.73-20.983h-31.529c-11.13 0-19.587 10.009-17.73 20.983z" fill="#7181ff"/><path d="m256 80.666c-52.791 0-95.586 42.795-95.586 95.585v8.563h191.171v-8.563c.001-52.79-42.794-95.585-95.585-95.585z" fill="#a4bcff"/><path d="m228.542 294.489h54.917v129.427h-54.917z" fill="#7181ff"/><path d="m304.993 423.916h-97.986c-17.483 0-31.655 14.173-31.655 31.655 0 9.243 7.493 16.736 16.736 16.736h127.824c9.243 0 16.736-7.493 16.736-16.736.001-17.482-14.172-31.655-31.655-31.655z" fill="#a4bcff"/><path d="m44.913 384.73c-3.487 0-6.825-.663-9.897-1.864v80.485c0 4.946 4.01 8.956 8.956 8.956h17.653c4.946 0 8.956-4.01 8.956-8.956v-78.621z" fill="#ffd600"/><path d="m107.941 384.73v78.621c0 4.946 4.01 8.956 8.956 8.956h17.653c4.946 0 8.956-4.01 8.956-8.956v-78.621z" fill="#ffd600"/><path d="m144.875 330.295h-74.095l-8.896-174.713c-.397-7.789-7.033-13.782-14.822-13.386l-26.157 1.332c-7.789.397-13.782 7.033-13.386 14.822l10.212 200.547c.737 14.475 12.689 25.834 27.182 25.834h99.962c9.387 0 16.996-7.609 16.996-16.996v-20.443c0-9.388-7.609-16.997-16.996-16.997z" fill="#f90"/><path d="m467.088 384.73c3.488 0 6.825-.663 9.897-1.864v80.485c0 4.946-4.01 8.956-8.956 8.956h-17.653c-4.946 0-8.956-4.01-8.956-8.956v-78.621z" fill="#ffd600"/><path d="m404.06 384.73v78.621c0 4.946-4.01 8.956-8.956 8.956h-17.654c-4.946 0-8.956-4.01-8.956-8.956v-78.621z" fill="#ffd600"/><path d="m367.126 330.295h74.095l8.896-174.713c.397-7.789 7.033-13.782 14.822-13.386l26.157 1.332c7.789.397 13.782 7.033 13.386 14.822l-10.212 200.546c-.737 14.475-12.689 25.834-27.182 25.834h-99.962c-9.387 0-16.996-7.609-16.996-16.996v-20.443c0-9.387 7.609-16.996 16.996-16.996z" fill="#f90"/><g fill="#2115c2"><circle cx="295.282" cy="132.965" r="8.335"/><circle cx="216.718" cy="132.965" r="8.335"/><g><path d="m359.086 178.134v-1.883c0-43.515-27.102-80.818-65.313-95.918l3.115-18.404c2.631-15.528-9.335-29.735-25.124-29.735h-31.529c-15.751 0-27.759 14.168-25.124 29.735l3.115 18.405c-38.21 15.1-65.312 52.404-65.312 95.918v1.883c-15.66 3.442-27.419 17.419-27.419 34.099 0 16.923 12.073 31.376 28.707 34.367 4.079.732 7.976-1.979 8.709-6.055.732-4.077-1.978-7.976-6.055-8.709-9.48-1.704-16.361-9.949-16.361-19.604 0-10.983 8.936-19.919 19.919-19.919h191.171c10.983 0 19.919 8.936 19.919 19.919 0 9.392-6.659 17.593-15.834 19.501-4.056.844-6.659 4.815-5.815 8.871.843 4.055 4.814 6.658 8.87 5.815 16.097-3.349 27.779-17.726 27.779-34.187.001-16.68-11.758-30.657-27.418-34.099zm-126.409-102.311-2.777-16.399c-1.085-6.415 3.866-12.231 10.335-12.231h31.529c6.48 0 11.418 5.827 10.335 12.231l-2.776 16.399c-7.374-1.71-15.401-2.657-23.323-2.657-7.793 0-15.781.912-23.323 2.657zm-64.762 101.49v-1.063c0-39.413 26.021-72.862 61.785-84.074 17.079-5.34 35.573-5.335 52.592-.002 35.769 11.209 61.794 44.661 61.794 84.077v1.063h-176.171z"/><path d="m273.648 147.929h-35.297c-4.143 0-7.5 3.358-7.5 7.5s3.357 7.5 7.5 7.5h35.297c4.143 0 7.5-3.358 7.5-7.5s-3.357-7.5-7.5-7.5z"/><path d="m304.993 416.416h-14.034v-118.927c0-4.142-3.357-7.5-7.5-7.5s-7.5 3.358-7.5 7.5v118.927h-39.917v-118.927c0-4.142-3.357-7.5-7.5-7.5s-7.5 3.358-7.5 7.5v118.927h-14.035c-21.59 0-39.155 17.565-39.155 39.155 0 13.364 10.872 24.236 24.236 24.236h127.824c13.364 0 24.236-10.872 24.236-24.236 0-21.59-17.565-39.155-39.155-39.155zm14.919 48.392h-127.824c-5.093 0-9.236-4.144-9.236-9.236 0-13.319 10.836-24.155 24.155-24.155h97.986c13.319 0 24.155 10.836 24.155 24.155 0 5.092-4.143 9.236-9.236 9.236z"/></g></g><path d="m393.123 239.652h-274.245c-8.744 0-15.832 7.088-15.832 15.832v23.174c0 8.744 7.088 15.832 15.832 15.832h274.245c8.744 0 15.832-7.088 15.832-15.832v-23.174c-.001-8.744-7.089-15.832-15.832-15.832z" fill="#f90"/><g fill="#f95116"><path d="m144.875 322.795h-66.967l-8.534-167.595c-.607-11.91-10.745-21.112-22.694-20.494l-26.156 1.332c-11.907.605-21.102 10.786-20.495 22.693l10.211 200.547c.619 12.156 7.424 22.578 17.275 28.288v75.786c0 9.074 7.382 16.456 16.456 16.456h17.653c9.074 0 16.456-7.382 16.456-16.456v-71.122h22.36v71.122c0 9.074 7.382 16.456 16.456 16.456h17.653c9.074 0 16.456-7.382 16.456-16.456v-71.899c10.549-2.729 18.364-12.328 18.364-23.719v-20.443c.002-13.507-10.987-24.496-24.494-24.496zm-81.794 140.556c0 .803-.653 1.456-1.456 1.456h-17.653c-.803 0-1.456-.653-1.456-1.456v-71.204c.452.03 1.626.082 2.397.082h18.168zm72.926 0c0 .803-.653 1.456-1.456 1.456h-17.653c-.803 0-1.456-.653-1.456-1.456v-71.121h20.565zm18.364-95.617c0 5.236-4.26 9.496-9.496 9.496-9.436 0-90.524 0-99.962 0-10.504 0-19.16-8.26-19.692-18.715l-10.212-200.546c-.186-3.647 2.63-6.765 6.277-6.95 27.746-1.41 26.175-1.341 26.501-1.341 3.461 0 6.424 2.706 6.606 6.285l8.896 174.713c.203 3.989 3.496 7.119 7.49 7.119h74.095c5.236 0 9.496 4.26 9.496 9.496v20.443z"/><path d="m491.478 136.038-26.158-1.332c-11.933-.609-22.084 8.559-22.692 20.494l-8.534 167.595h-66.967c-13.507 0-24.496 10.989-24.496 24.496v20.443c0 11.391 7.815 20.99 18.364 23.719v71.899c0 9.074 7.382 16.456 16.456 16.456h17.653c9.074 0 16.456-7.382 16.456-16.456v-71.122h22.359v71.122c0 9.074 7.383 16.456 16.457 16.456h17.652c9.074 0 16.456-7.382 16.456-16.456v-75.785c9.852-5.709 16.657-16.131 17.275-28.289l10.212-200.546c.609-11.933-8.556-22.088-20.493-22.694zm-94.918 327.313c0 .803-.653 1.456-1.456 1.456h-17.654c-.803 0-1.456-.653-1.456-1.456v-71.121h20.565v71.121zm72.924-71.203v71.203c0 .803-.653 1.456-1.456 1.456h-17.652c-.804 0-1.457-.653-1.457-1.456v-71.121h18.169c.902 0 2.292-.075 2.396-.082zm27.507-234.179-10.212 200.547c-.539 10.592-9.336 18.714-19.691 18.714-8.55 0-84.346 0-99.962 0-5.236 0-9.496-4.26-9.496-9.496v-20.443c0-5.236 4.26-9.496 9.496-9.496h74.095c3.994 0 7.287-3.13 7.49-7.119l8.896-174.713c.187-3.678 3.323-6.462 6.949-6.276l26.158 1.332c3.657.185 6.463 3.295 6.277 6.95z"/><path d="m118.878 301.989h274.245c12.865 0 23.331-10.467 23.331-23.332v-23.174c0-12.865-10.466-23.332-23.331-23.332h-274.245c-12.865 0-23.332 10.467-23.332 23.332v23.174c0 12.865 10.467 23.332 23.332 23.332zm-8.332-46.506c0-4.594 3.737-8.332 8.332-8.332h274.245c4.594 0 8.331 3.738 8.331 8.332v23.174c0 4.595-3.737 8.332-8.331 8.332h-274.245c-4.595 0-8.332-3.737-8.332-8.332z"/></g></g></svg>