<svg id="Capa_1" enable-background="new 0 0 512 512" height="512" viewBox="0 0 512 512" width="512" xmlns="http://www.w3.org/2000/svg"><g><path d="m189.652 359.38-24.13-108.938c-18.124-14.642-33.458-29.834-45.903-45.497l34.207 154.435z" fill="#ff9bff"/><path d="m358.172 359.38 34.21-154.445c-12.445 15.666-27.779 30.859-45.904 45.504l-24.131 108.941z" fill="#ff9bff"/><path d="m157.199 466.063c3.94 22.235 23.267 38.438 45.848 38.438h105.907c22.581 0 41.908-16.203 45.848-38.438l8.834-49.853h-215.272z" fill="#f90"/><path d="m363.636 359.38h-215.272c-15.693 0-28.415 12.722-28.415 28.415 0 15.693 12.722 28.415 28.415 28.415h215.271c15.693 0 28.415-12.722 28.415-28.415 0-15.693-12.721-28.415-28.414-28.415z" fill="#ffff6f"/><g><path d="m181.605 357.731-22.817-103.015c-.896-4.044 1.656-8.048 5.7-8.944 4.037-.895 8.047 1.656 8.944 5.7l22.817 103.015c.896 4.044-1.656 8.048-5.7 8.944-4.066.901-8.053-1.677-8.944-5.7z" fill="#e207b9"/></g><g><path d="m145.918 358.35-32.48-146.632c-.896-4.044 1.656-8.048 5.7-8.944 4.038-.897 8.048 1.656 8.944 5.7l32.48 146.632c.896 4.044-1.656 8.048-5.7 8.944-4.045.897-8.049-1.659-8.944-5.7z" fill="#e207b9"/></g><g><path d="m357.281 363.405c-4.044-.896-6.596-4.9-5.7-8.944l32.633-147.326c.896-4.043 4.9-6.596 8.944-5.7s6.596 4.9 5.7 8.944l-32.633 147.325c-.891 4.024-4.88 6.6-8.944 5.701z" fill="#e207b9"/></g><g><path d="m321.456 363.405c-4.044-.896-6.596-4.9-5.7-8.944l22.751-102.713c.895-4.044 4.904-6.596 8.944-5.7 4.044.896 6.596 4.9 5.7 8.944l-22.751 102.712c-.896 4.046-4.903 6.597-8.944 5.701z" fill="#e207b9"/></g><path d="m399.55 387.795c0-19.804-16.111-35.914-35.914-35.914h-215.272c-19.803 0-35.914 16.111-35.914 35.914 0 17.621 12.76 32.309 29.524 35.333l7.84 44.244c4.583 25.859 26.97 44.628 53.232 44.628h105.907c26.262 0 48.65-18.769 53.232-44.628l7.84-44.244c16.764-3.024 29.525-17.712 29.525-35.333zm-52.133 76.96c-3.311 18.684-19.487 32.246-38.464 32.246h-105.906c-18.976 0-35.152-13.562-38.464-32.246l-7.273-41.046h197.38zm16.219-56.045h-215.272c-11.533 0-20.915-9.382-20.915-20.915s9.382-20.915 20.915-20.915h215.272c11.533 0 20.915 9.383 20.915 20.915s-9.382 20.915-20.915 20.915z" fill="#f95116"/><path d="m429.676 103.29c-5.136-82.333-100.03-127.306-173.679-70.06-73.6-57.205-168.536-12.316-173.672 70.06-1.987 31.839 9.853 65.63 34.225 97.714 27.29 35.918 69.668 69.416 125.949 99.568 8.453 4.527 18.543 4.534 26.997 0 56.288-30.152 98.658-63.65 125.949-99.568 24.379-32.084 36.212-65.875 34.231-97.714z" fill="#b98eff"/><circle cx="312.253" cy="131.327" fill="#6d00ca" r="11.936"/><g><path d="m281.274 170.995h-50.547c-4.142 0-7.5-3.358-7.5-7.5s3.357-7.5 7.5-7.5h50.547c4.142 0 7.5 3.358 7.5 7.5s-3.358 7.5-7.5 7.5z" fill="#6d00ca"/></g><g fill="#6d00ca"><circle cx="199.747" cy="131.327" r="11.936"/><path d="m437.161 102.825s0-.001 0-.002c-2.58-41.355-26.407-76.1-63.737-92.945-37.841-17.075-81.337-11.769-117.427 14.018-36.088-25.783-79.589-31.083-117.438-14.003-37.32 16.841-61.141 51.581-63.719 92.929v.001c-2.1 33.655 10.257 69.174 35.737 102.717.001.002.003.003.004.005 27.942 36.775 71.133 70.971 128.375 101.638 10.668 5.713 23.41 5.723 34.083-.003.004-.002.007-.004.011-.006 57.23-30.659 100.416-64.852 128.361-101.631 0 0 .001-.001.002-.002 25.481-33.531 37.843-69.049 35.748-102.716zm-171.205 191.135c-.002.001-.004.002-.006.003-6.225 3.34-13.668 3.34-19.909-.002-55.329-29.642-96.886-62.442-123.515-97.489-.001-.001-.002-.003-.003-.005-23.274-30.638-34.585-62.696-32.712-92.71 0 0 0 0 0-.001 2.226-35.701 22.757-65.679 54.919-80.193 34.312-15.484 74.187-9.656 106.666 15.588 2.731 2.106 6.54 2.079 9.205 0 32.483-25.248 72.353-31.081 106.657-15.602 32.171 14.517 52.708 44.5 54.935 80.207v.001c1.867 30.025-9.447 62.083-32.719 92.708 0 .001-.001.001-.001.002-26.637 35.056-68.193 67.857-123.517 97.493z"/></g></g></svg>