<svg id="Capa_1" enable-background="new 0 0 512 512" height="512" viewBox="0 0 512 512" width="512" xmlns="http://www.w3.org/2000/svg"><g><g fill="#f90"><path d="m443.549 75.567v263.283c0 20.632-9.175 39.115-23.666 51.589l-37.434-44.624v-277.214l37.434-44.624c14.491 12.475 23.666 30.958 23.666 51.59z"/><path d="m419.883 390.44c-11.925 10.275-27.434 16.477-44.4 16.477h-238.966c-16.966 0-32.475-6.202-44.4-16.477l37.434-44.624h252.896z"/><path d="m419.883 23.977-37.434 44.624h-252.897l-37.435-44.624c11.925-10.275 27.435-16.477 44.4-16.477h238.965c16.966 0 32.476 6.202 44.401 16.477z"/><path d="m129.552 68.601v277.215l-37.435 44.624c-14.491-12.475-23.666-30.958-23.666-51.589v-263.284c0-20.632 9.175-39.115 23.666-51.59z"/></g><path d="m129.552 68.601h252.896v277.215h-252.896z" fill="#ddbeff"/><path d="m180.38 406.917v49.127h-16.214c-13.381 0-24.228 10.847-24.228 24.228s10.847 24.228 24.228 24.228h40.442c13.381 0 24.228-10.847 24.228-24.228v-73.356h-48.456z" fill="#88f8d8"/><path d="m293.14 406.917v49.127h-16.214c-13.381 0-24.228 10.847-24.228 24.228s10.847 24.228 24.228 24.228h40.442c13.381 0 24.228-10.847 24.228-24.228v-73.356h-48.456z" fill="#88f8d8"/><g fill="#6d00ca"><path d="m191.933 190.225c-.023-4.143-3.37-7.481-7.542-7.458-2.631.015-5.391.026-7.814.032v-36.35c0-4.142-3.357-7.5-7.5-7.5s-7.5 3.358-7.5 7.5v43.818c0 3.653 2.633 6.775 6.233 7.392 1.375.236 10.33.143 16.665.108 4.142-.024 7.482-3.401 7.458-7.542z"/><path d="m342.923 182.803h-10.81v-6.727h9.459c4.143 0 7.5-3.358 7.5-7.5 0-4.143-3.357-7.5-7.5-7.5h-9.459v-6.728h10.81c4.143 0 7.5-3.357 7.5-7.5 0-4.142-3.357-7.5-7.5-7.5h-18.31c-4.143 0-7.5 3.358-7.5 7.5v43.454c0 4.143 3.357 7.5 7.5 7.5h18.31c4.143 0 7.5-3.357 7.5-7.5 0-4.141-3.357-7.499-7.5-7.499z"/><path d="m305.869 148.894c1.307-3.931-.822-8.176-4.753-9.482-3.928-1.305-8.176.822-9.481 4.754l-8.273 24.906-8.707-25.082c-1.357-3.913-5.636-5.986-9.544-4.626-3.913 1.358-5.984 5.632-4.626 9.545l15.013 43.249c1.203 3.383 4.412 5.646 7.999 5.646h.057c3.608-.024 6.815-2.335 7.998-5.807z"/><path d="m225.492 197.803c16.227 0 29.428-13.201 29.428-29.427 0-16.227-13.201-29.428-29.428-29.428-16.226 0-29.427 13.201-29.427 29.428 0 16.226 13.201 29.427 29.427 29.427zm0-43.855c7.955 0 14.428 6.472 14.428 14.428 0 7.955-6.473 14.427-14.428 14.427s-14.427-6.472-14.427-14.427c0-7.956 6.472-14.428 14.427-14.428z"/><path d="m215.082 217.939c-3.472-2.259-8.115-1.278-10.377 2.193l-7.618 11.702-7.718-11.821c-2.266-3.469-6.913-4.444-10.381-2.18s-4.444 6.912-2.18 10.38l12.783 19.577-.049 20.159c-.01 4.142 3.34 7.508 7.481 7.518h.019c4.134 0 7.49-3.346 7.5-7.482l.049-20.186 12.684-19.484c2.26-3.47 1.278-8.116-2.193-10.376z"/><path d="m328.912 216.614c-4.143 0-7.5 3.358-7.5 7.5v30.145c0 3.809-4.387 6.226-8 6.209-3.478-.004-7.473-2.601-7.473-6.178v-30.177c0-4.142-3.357-7.5-7.5-7.5s-7.5 3.358-7.5 7.5v30.177c0 12.564 11.285 21.163 22.453 21.178h.035c11.312 0 22.984-8.343 22.984-21.209v-30.145c.001-4.142-3.357-7.5-7.499-7.5z"/><path d="m252.677 216.614c-16.226 0-29.427 13.201-29.427 29.427s13.201 29.427 29.427 29.427c16.227 0 29.428-13.201 29.428-29.427s-13.201-29.427-29.428-29.427zm0 43.854c-7.955 0-14.427-6.472-14.427-14.427s6.472-14.427 14.427-14.427 14.428 6.472 14.428 14.427-6.473 14.427-14.428 14.427z"/></g><g><path d="m204.608 512h-40.441c-17.495 0-31.729-14.233-31.729-31.728s14.233-31.728 31.729-31.728h8.714v-38.627c0-4.142 3.357-7.5 7.5-7.5s7.5 3.358 7.5 7.5v46.127c0 4.142-3.357 7.5-7.5 7.5h-16.214c-9.225 0-16.729 7.504-16.729 16.728s7.504 16.728 16.729 16.728h40.441c9.225 0 16.729-7.504 16.729-16.728v-70.355c0-4.142 3.357-7.5 7.5-7.5s7.5 3.358 7.5 7.5v70.355c0 17.495-14.234 31.728-31.729 31.728z" fill="#007ea8"/></g><path d="m180.38 406.917h48.456v30.705h-48.456z" fill="#007ea8"/><path d="m293.14 406.917h48.456v30.705h-48.456z" fill="#007ea8"/><g><path d="m317.351 512h-40.431c-17.491 0-31.722-14.233-31.722-31.728s14.23-31.728 31.722-31.728h8.71v-38.627c0-4.142 3.357-7.5 7.5-7.5s7.5 3.358 7.5 7.5v46.127c0 4.142-3.357 7.5-7.5 7.5h-16.21c-9.221 0-16.722 7.504-16.722 16.728s7.501 16.728 16.722 16.728h40.432c9.221 0 16.722-7.504 16.722-16.728v-70.355c0-4.142 3.357-7.5 7.5-7.5s7.5 3.358 7.5 7.5v70.355c-.001 17.495-14.232 31.728-31.723 31.728z" fill="#007ea8"/></g><path d="m424.776 18.293c-.006-.005-.012-.009-.018-.014-13.689-11.787-31.187-18.279-49.275-18.279h-238.966c-18.095 0-35.601 6.497-49.292 18.292s-.001.001-.002.002c-.002.001-.003.003-.005.005-16.694 14.375-26.267 35.247-26.267 57.267v263.284c0 22.021 9.573 42.893 26.267 57.267.001.001.003.003.005.004.001.001.002.001.002.002h.001c13.691 11.796 31.196 18.292 49.291 18.292h238.966c18.086 0 35.583-6.491 49.271-18.275.007-.006.015-.011.022-.017 16.697-14.375 26.273-35.25 26.273-57.274v-263.283c0-22.024-9.576-42.899-26.273-57.273zm-288.259-3.293h238.966c12.018 0 23.708 3.574 33.604 10.176l-30.137 35.925h-245.9c-6.698-7.985-23.908-28.5-30.137-35.925 9.895-6.602 21.587-10.176 33.604-10.176zm238.431 61.101v262.214h-237.897v-262.214zm-298.997 262.749v-263.284c0-15.095 5.613-29.518 15.609-40.584 8.873 10.577 21.624 25.777 30.491 36.348v271.756c-8.869 10.572-21.622 25.775-30.491 36.348-9.996-11.066-15.609-25.489-15.609-40.584zm299.532 60.567h-238.966c-12.018 0-23.709-3.574-33.604-10.176 6.27-7.474 23.57-28.097 30.137-35.925h245.9l30.137 35.925c-9.896 6.602-21.586 10.176-33.604 10.176zm60.566-60.567c0 15.095-5.613 29.518-15.609 40.584-1.201-1.432-27.097-32.301-30.492-36.348v-271.755c6.317-7.53 23.6-28.132 30.492-36.348 9.996 11.066 15.609 25.489 15.609 40.584z" fill="#f95116"/></g></svg>