<svg id="Capa_1" enable-background="new 0 0 512 512" height="512" viewBox="0 0 512 512" width="512" xmlns="http://www.w3.org/2000/svg"><g><circle cx="256" cy="207.71" fill="#ffff6f" r="200.21"/><path d="m227.024 163.906c-1.321-21.17-25.72-32.733-44.657-18.014-18.924-14.709-43.334-3.167-44.655 18.014-.511 8.186 2.533 16.875 8.8 25.124 7.017 9.235 17.913 17.848 32.384 25.601 2.173 1.164 4.768 1.166 6.941 0 14.473-7.753 25.367-16.366 32.384-25.601 6.269-8.249 9.312-16.937 8.803-25.124z" fill="#ff63ed"/><path d="m293.778 189.031c7.017 9.235 17.911 17.848 32.384 25.601 2.173 1.166 4.768 1.164 6.941 0 14.471-7.753 25.367-16.366 32.384-25.601 6.267-8.249 9.311-16.938 8.8-25.124-1.321-21.181-25.731-32.723-44.655-18.014-18.937-14.719-43.336-3.156-44.657 18.014-.508 8.186 2.535 16.874 8.803 25.124z" fill="#ff63ed"/><path d="m276.259 406.905v43.261h-18.181c-15.004 0-27.167 12.163-27.167 27.167s12.163 27.167 27.167 27.167h45.348c15.004 0 27.167-12.163 27.167-27.167v-83.783c-17.075 6.86-35.31 11.443-54.334 13.355z" fill="#b98eff"/><path d="m237.015 407.018c-19.008-1.788-37.247-6.222-54.334-12.95v56.098h-18.181c-15.004 0-27.167 12.163-27.167 27.167s12.163 27.167 27.167 27.167h45.348c10.492 0 19.589-5.952 24.115-14.66-1.946-3.744-3.052-7.995-3.052-12.507 0-6.507 2.29-12.477 6.105-17.155v-53.16z" fill="#b98eff"/><path d="m234.509 163.442c0-.001 0-.002 0-.003-.782-12.542-8.315-23.512-19.657-28.63-10.455-4.717-22.258-3.888-32.485 2.061-10.229-5.948-22.034-6.776-32.487-2.057-11.34 5.117-18.871 16.086-19.653 28.626-.624 10.007 2.942 20.426 10.314 30.129 7.671 10.097 19.385 19.408 34.813 27.675h.001c4.186 2.241 9.313 2.429 13.833.086.063-.031.127-.054.189-.087.001 0 .001-.001.002-.001 0 0 .001 0 .002-.001s.003-.002.004-.002c15.422-8.262 27.133-17.572 34.806-27.67 7.374-9.699 10.94-20.117 10.318-30.126zm-52.142 44.54c-13.48-7.231-23.535-15.134-29.883-23.488-5.164-6.798-7.685-13.755-7.287-20.121.441-7.082 4.499-13.021 10.853-15.888 6.904-3.115 15.024-1.872 21.715 3.329 2.675 2.048 6.399 2.146 9.205 0 6.691-5.202 14.808-6.448 21.713-3.332 6.355 2.868 10.414 8.809 10.856 15.892.395 6.368-2.125 13.325-7.288 20.119-6.352 8.358-16.406 16.26-29.884 23.489z" fill="#e207b9"/><path d="m381.774 163.439c-.782-12.54-8.313-23.509-19.653-28.626-10.453-4.718-22.259-3.89-32.487 2.057-10.227-5.949-22.031-6.778-32.487-2.061-11.342 5.118-18.874 16.088-19.656 28.629v.002c-.622 10.009 2.944 20.427 10.315 30.126 7.673 10.099 19.384 19.408 34.806 27.67.001 0 .003.001.004.002.001 0 .002.001.002.001.001 0 .001.001.002.001.066.036.136.06.203.093 4.5 2.326 9.618 2.158 13.82-.092h.001c15.423-8.263 27.134-17.571 34.805-27.664.003-.004.007-.007.01-.011 7.373-9.703 10.939-20.121 10.315-30.127zm-22.259 21.055c-.001.002-.002.004-.004.006-6.348 8.353-16.401 16.253-29.878 23.482-13.478-7.229-23.533-15.131-29.884-23.489-5.164-6.794-7.683-13.751-7.288-20.119 0 0 0 0 0-.001.441-7.082 4.5-13.022 10.855-15.891 6.906-3.116 15.021-1.87 21.714 3.332 2.853 2.184 6.645 1.998 9.205 0 6.692-5.201 14.81-6.445 21.715-3.329 6.354 2.867 10.411 8.807 10.853 15.888.397 6.364-2.123 13.322-7.288 20.121z" fill="#e207b9"/><g><path d="m279.445 222.055h-46.89c-4.143 0-7.5-3.358-7.5-7.5s3.357-7.5 7.5-7.5h46.89c4.143 0 7.5 3.358 7.5 7.5s-3.358 7.5-7.5 7.5z" fill="#e207b9"/></g><g fill="#6d00ca"><path d="m330.592 389.05c-4.143 0-7.5 3.357-7.5 7.5v80.783c0 10.844-8.822 19.667-19.666 19.667h-45.349c-10.735 0-19.667-8.726-19.667-19.667 0-10.954 8.925-19.667 19.667-19.667h18.181c4.143 0 7.5-3.358 7.5-7.5v-40.261c0-4.142-3.357-7.5-7.5-7.5s-7.5 3.358-7.5 7.5v32.761h-10.681c-4.811 0-9.395.987-13.563 2.766v-35.414c0-4.142-3.357-7.5-7.5-7.5s-7.5 3.358-7.5 7.5v47.673c-4.073 5.938-6.104 12.85-6.104 19.642 0 4.158.788 8.305 2.102 11.891-3.684 4.864-9.433 7.776-15.664 7.776h-45.348c-10.845 0-19.667-8.823-19.667-19.667s8.822-19.667 19.667-19.667h18.181c4.143 0 7.5-3.358 7.5-7.5v-53.098c0-4.142-3.357-7.5-7.5-7.5s-7.5 3.358-7.5 7.5v45.598h-10.681c-19.115 0-34.667 15.551-34.667 34.667s15.552 34.667 34.667 34.667h45.348c9.187 0 17.765-3.601 24.126-9.785 6.244 6.05 14.743 9.785 24.103 9.785h45.349c19.115 0 34.666-15.551 34.666-34.667v-80.783c0-4.142-3.357-7.5-7.5-7.5z"/><path d="m182.681 426.099c17.45 5.84 35.665 9.576 54.334 11.09v-30.17c-19.008-1.788-37.247-6.222-54.334-12.95z"/><path d="m276.259 437.079c18.678-1.618 36.893-5.466 54.334-11.419v-32.11c-17.075 6.86-35.31 11.443-54.334 13.355z"/></g><g><path d="m256 415.42c-114.531 0-207.709-93.178-207.709-207.71s93.177-207.71 207.709-207.71 207.71 93.178 207.71 207.71c-.001 114.531-93.179 207.71-207.71 207.71zm0-400.42c-106.26 0-192.709 86.449-192.709 192.71s86.449 192.71 192.709 192.71c106.261 0 192.71-86.449 192.71-192.71s-86.45-192.71-192.71-192.71z" fill="#f90"/></g></g></svg>