<svg id="Capa_1" enable-background="new 0 0 512.924 512.924" height="512" viewBox="0 0 512.924 512.924" width="512" xmlns="http://www.w3.org/2000/svg"><g><path d="m374.39 35.449c-31.982-31.979-81.428-36.115-117.93-12.404-36.497-23.714-85.944-19.578-117.926 12.405-17.792 17.794-27.591 41.453-27.591 66.621 0 25.163 9.799 48.82 27.592 66.615l87.318 87.318-59.383 59.382c5.991 3.88 11.676 8.428 16.927 13.68 5.251 5.251 9.799 10.935 13.679 16.926l47.099-47.099s129.723-129.718 130.215-130.208c17.792-17.794 27.591-41.451 27.591-66.614.001-25.168-9.798-48.827-27.591-66.622zm-30.553 102.577c-.09.089-8.571 8.569-64.543 64.537-8.461 8.461-16.409 16.408-22.834 22.833l-87.319-87.319c-9.618-9.617-14.915-22.405-14.915-36.008 0-13.606 5.297-26.397 14.914-36.015 9.927-9.927 22.967-14.891 36.008-14.891 13.04 0 26.08 4.964 36.008 14.891 8.451 8.451 22.152 8.453 30.604.002 19.859-19.855 52.169-19.856 72.024-.002 9.618 9.618 14.915 22.409 14.915 36.015-.001 13.604-5.297 26.392-14.862 35.957z" fill="#88f8d8"/><path d="m315.845 345.995c3.881-5.993 8.43-11.678 13.682-16.931 5.25-5.25 10.933-9.797 16.923-13.677-19.127-19.127-43.689-43.689-59.384-59.384l-30.607 30.605c15.696 15.697 40.259 40.26 59.386 59.387z" fill="#88f8d8"/><circle cx="402.37" cy="401.908" fill="#ff63ed" r="103.016"/><circle cx="363.572" cy="428.879" fill="#e207b9" r="9.868"/><g><path d="m395.175 434.886c-2.934-2.934-2.934-7.691 0-10.625l29.548-29.549c2.935-2.934 7.691-2.934 10.626 0 2.934 2.934 2.934 7.691 0 10.625l-29.548 29.549c-2.935 2.934-7.691 2.935-10.626 0z" fill="#e207b9"/></g><circle cx="429.341" cy="363.109" fill="#e207b9" r="9.868"/><path d="m379.701 30.137c-32.622-32.621-83.724-38.98-123.24-15.914-39.518-23.072-90.617-16.71-123.241 15.915-39.75 39.752-39.755 104.101.001 143.859l82.006 82.006-52.161 52.16c-2.934 2.934-2.934 7.691 0 10.625s7.69 2.934 10.626 0c5.701-5.701 172.535-172.529 175.456-175.449 22.673-22.671 22.877-59.668-.053-82.596-22.783-22.783-59.858-22.782-82.647.001-5.508 5.507-14.47 5.508-19.98-.001-22.807-22.806-59.831-22.807-82.641 0-22.836 22.838-22.838 59.807.001 82.647l82.007 82.006-19.982 19.981-82.005-82.005c-33.879-33.88-33.885-88.724-.001-122.611 28.776-28.775 74.416-33.577 108.521-11.416 2.489 1.617 5.697 1.617 8.186 0 34.107-22.157 79.749-17.356 108.523 11.416 33.873 33.874 33.89 88.72.005 122.606-.473.474 11.003-11.003-175.248 175.242-2.934 2.934-2.934 7.691 0 10.625 2.934 2.933 7.691 2.934 10.626 0l52-52.001 52.54 52.542c2.935 2.934 7.691 2.933 10.626 0 2.934-2.934 2.934-7.691 0-10.625l-52.542-52.542 19.982-19.981 52.413 52.412c2.933 2.934 7.69 2.933 10.625 0 2.934-2.934 2.934-7.691-.001-10.625l-52.411-52.412c9.967-9.967 81.884-81.878 82.013-82.006 39.749-39.756 39.753-104.1-.004-143.859zm-205.248 102.629c-16.963-16.964-16.966-44.43-.001-61.397 16.935-16.933 44.456-16.936 61.392 0 11.366 11.367 29.863 11.366 41.229.002 16.929-16.926 44.472-16.927 61.4-.002 16.998 16.998 16.905 44.493.074 61.324-.27.265-81.811 81.805-82.086 82.081z" fill="#007ea8"/><g><path d="m324.214 480.064c-43.195-43.194-43.201-113.112 0-156.312 43.097-43.094 113.216-43.096 156.313 0 43.192 43.192 43.201 113.112 0 156.312-43.096 43.094-113.215 43.096-156.313 0zm10.626-145.687c-37.325 37.324-37.328 97.735 0 135.063 37.23 37.23 97.819 37.243 135.062 0 37.322-37.321 37.328-97.735 0-135.063-37.235-37.236-97.826-37.237-135.062 0z" fill="#e207b9"/></g><circle cx="110.553" cy="401.908" fill="#ff63ed" r="103.016"/><circle cx="149.352" cy="428.879" fill="#e207b9" r="9.868"/><g><path d="m107.124 434.886-29.548-29.549c-2.934-2.934-2.934-7.691 0-10.625 2.935-2.934 7.691-2.933 10.626 0l29.548 29.549c2.934 2.934 2.934 7.691 0 10.625-2.935 2.934-7.691 2.935-10.626 0z" fill="#e207b9"/></g><circle cx="83.583" cy="363.109" fill="#e207b9" r="9.868"/><g><path d="m32.398 480.064c-43.193-43.192-43.201-113.112 0-156.312 43.194-43.194 113.112-43.201 156.313 0 43.094 43.095 43.094 113.217 0 156.312-43.195 43.194-113.113 43.201-156.313 0zm10.625-145.687c-37.322 37.322-37.328 97.735 0 135.063 37.322 37.323 97.737 37.326 135.062 0 37.236-37.237 37.236-97.826 0-135.063-37.322-37.323-97.736-37.328-135.062 0z" fill="#e207b9"/></g></g></svg>