<svg id="Capa_1" enable-background="new 0 0 512 512" height="512" viewBox="0 0 512 512" width="512" xmlns="http://www.w3.org/2000/svg"><g><path d="m134.163 348.734c-5.914-6.7-10.616-13.898-14.169-21.384l-68.188 19.495c-9.988 2.856-19.083 8.208-26.428 15.554-23.879 23.879-23.879 62.595 0 86.474l48.103 48.103c10.022 10.022 26.27 10.022 36.291 0s10.022-26.27 0-36.291l-8.289-8.289c10.021 10.021 26.27 10.021 36.291 0 10.022-10.021 10.022-26.27 0-36.291l-8.289-8.289c10.022 10.021 26.27 10.021 36.291 0 9.237-9.237 9.953-23.759 2.163-33.824-13.357-6.545-24.74-15.018-33.776-25.258z" fill="#a4bcff"/><path d="m348.734 134.164c-6.7-5.914-13.898-10.616-21.384-14.169l19.495-68.188c2.856-9.988 8.208-19.083 15.554-26.428 23.879-23.879 62.595-23.879 86.474 0l48.103 48.103c10.022 10.022 10.022 26.27 0 36.291s-26.27 10.022-36.291 0l-8.289-8.289c10.021 10.021 10.021 26.27 0 36.291-10.022 10.022-26.27 10.022-36.291 0l-8.289-8.289c10.022 10.022 10.022 26.27 0 36.291-9.237 9.237-23.759 9.953-33.824 2.163-6.546-13.357-15.019-24.74-25.258-33.776z" fill="#a4bcff"/><path d="m348.738 134.16c-54.034-47.688-140.436-16.85-150.568 64.011-80.804 10.128-111.72 96.504-64.006 150.564 18.441 20.896 46.629 34.456 81.505 39.22 39.047 5.33 85.918-.156 139.312-16.297 8.019-2.425 14.256-8.654 16.677-16.677 16.145-53.398 21.626-100.265 16.297-139.312-4.761-34.88-18.325-63.064-39.217-81.509z" fill="#ff9bff"/><circle cx="295.914" cy="226.701" fill="#e207b9" r="10.384"/><g><path d="m260.247 301.947c-2.929-2.929-2.929-7.678 0-10.607l31.095-31.095c2.93-2.93 7.678-2.929 10.608 0 2.929 2.929 2.929 7.678 0 10.607l-31.095 31.095c-2.93 2.929-7.678 2.929-10.608 0z" fill="#e207b9"/></g><circle cx="226.703" cy="295.912" fill="#e207b9" r="10.384"/><g><path d="m68.178 502.28-48.104-48.103c-36.917-36.917-20.535-100.189 29.67-114.543l66.207-18.929c3.981-1.138 8.135 1.167 9.273 5.149 1.139 3.983-1.167 8.135-5.15 9.273l-66.207 18.929c-39.224 11.214-52.043 60.656-23.186 89.513l48.103 48.103c7.097 7.097 18.585 7.098 25.683 0 7.096-7.096 7.1-18.585.001-25.684l-8.289-8.29c-2.929-2.929-2.929-7.678.001-10.607 2.928-2.93 7.677-2.928 10.607 0 7.096 7.097 18.584 7.098 25.684 0 7.08-7.081 7.08-18.603-.001-25.684l-8.289-8.289c-2.929-2.929-2.929-7.678 0-10.607 2.93-2.929 7.679-2.929 10.607 0 7.097 7.096 18.585 7.099 25.684 0 6.328-6.328 7.131-16.182 1.909-23.43-2.422-3.361-1.66-8.048 1.701-10.47 3.361-2.421 8.048-1.66 10.469 1.701 9.544 13.247 8.083 31.25-3.472 42.806-5.532 5.532-12.674 8.869-20.37 9.573 4.361 11.781 1.816 25.559-7.631 35.007-5.528 5.527-12.663 8.863-20.351 9.571 4.301 11.589 1.957 25.401-7.653 35.01-12.955 12.96-33.935 12.962-46.896.001z" fill="#2115c2"/></g><g><path d="m370.806 174.902c-3.405-2.359-4.252-7.032-1.893-10.437 2.359-3.404 7.033-4.252 10.436-1.893 7.206 4.995 16.947 4.113 23.16-2.099 3.431-3.43 5.32-7.991 5.32-12.842s-1.889-9.412-5.319-12.842h-.001c-2.929-2.929-2.929-7.678 0-10.607 2.93-2.929 7.679-2.929 10.607 0h.001l8.289 8.289c7.081 7.081 18.604 7.08 25.684 0 7.081-7.081 7.081-18.603 0-25.684-2.929-2.929-2.929-7.678 0-10.607 2.93-2.929 7.679-2.929 10.607 0l8.29 8.289c7.096 7.097 18.585 7.099 25.683 0 7.099-7.098 7.1-18.585.001-25.684l-48.104-48.103c-28.866-28.867-78.304-16.019-89.513 23.187l-18.929 66.206c-1.139 3.983-5.294 6.289-9.273 5.15-3.983-1.139-6.288-5.291-5.15-9.273l18.929-66.206c14.348-50.193 77.618-66.596 114.543-29.67l48.103 48.103c12.961 12.961 12.961 33.937-.001 46.898-9.591 9.593-23.415 11.962-35.026 7.645-.69 7.433-3.875 14.677-9.553 20.356-9.453 9.452-23.239 11.994-35.025 7.626-.687 7.441-3.871 14.691-9.555 20.376-11.357 11.357-29.154 12.94-42.311 3.822z" fill="#2115c2"/></g><path d="m395.385 214.654c-5.004-36.682-19.418-66.46-41.682-86.117 0 0-.001-.001-.001-.001-27.408-24.189-63.948-31.001-97.752-18.219-34.049 12.875-57.784 43.02-64.366 81.266-38.244 6.584-68.388 30.325-81.264 64.382-12.778 33.793-5.966 70.328 18.222 97.732l.003.003c19.645 22.259 49.42 36.673 86.105 41.684.002 0 .004.001.006.001 46.608 6.363 97.651-2.991 142.497-16.549s0 0 .001 0c10.434-3.155 18.541-11.264 21.688-21.689.001-.005.002-.011.004-.016 16.449-54.421 22.015-102.358 16.539-142.477zm-178.703 165.869c-.001 0-.002 0-.003 0-33.071-4.518-59.66-17.225-76.891-36.749 0 0-.001-.001-.001-.002-20.441-23.16-26.213-54.001-15.437-82.501 11.504-30.426 39.45-51.233 74.753-55.658 3.512-.471 6.095-3.193 6.509-6.51 4.425-35.307 25.226-63.253 55.643-74.755 28.506-10.78 59.354-5.009 82.52 15.435 19.528 17.242 32.235 43.834 36.747 76.899 5.182 37.972-.215 83.768-16.042 136.118-.001.004-.003.008-.005.013-1.691 5.607-6.053 9.967-11.668 11.665 0 0 0 0-.001 0-52.359 15.829-98.159 21.227-136.124 16.045z" fill="#e207b9"/></g></svg>