<svg id="Capa_1" enable-background="new 0 0 512 512" height="512" viewBox="0 0 512 512" width="512" xmlns="http://www.w3.org/2000/svg"><g><path d="m256.366 166.192 37.33 39.526" fill="#b98eff"/><path d="m217.573 206.449 38.061 38.795" fill="#b98eff"/><path d="m255.634 245.244c-38.062 36.598-74.66 76.124-136.145 76.124-66.608 0-111.989-49.042-111.989-115.65 0-62.216 47.577-115.65 117.845-115.65 54.165 0 95.154 40.99 131.021 76.124 37.33-36.598 74.66-76.124 136.145-76.124 66.608 0 111.989 49.042 111.989 115.65 0 62.217-47.577 115.65-117.845 115.65-54.165 0-95.154-40.99-131.021-76.124zm-38.061-38.795c-24.887-24.154-53.433-60.02-91.496-60.02-32.938 0-58.556 27.082-58.556 59.288 0 34.403 24.154 59.289 56.361 59.289 37.33.001 67.34-32.206 93.691-58.557zm226.907-.731c0-34.402-24.154-59.288-56.36-59.288-37.331 0-68.073 32.206-94.424 59.288 25.619 23.423 54.166 59.289 92.227 59.289 32.939 0 58.557-27.083 58.557-59.289z" fill="#9448f5"/><path d="m119.49 321.368c-6.447 0-12.693-.465-18.72-1.355v50.397h-17.24c-14.227 0-25.761 11.534-25.761 25.761s11.534 25.761 25.761 25.761h43.002c14.227 0 25.761-11.534 25.761-25.761v-78.874c-10.146 2.607-21.014 4.071-32.803 4.071z" fill="#88f8d8"/><path d="m386.655 321.368c-6.59 0-12.982-.617-19.197-1.746v50.788h-17.24c-14.227 0-25.761 11.534-25.761 25.761s11.534 25.761 25.761 25.761h43.002c14.227 0 25.761-11.534 25.761-25.761v-78.847c-10.108 2.627-20.915 4.044-32.326 4.044z" fill="#88f8d8"/><g><path d="m126.531 429.432h-43.002c-18.341 0-33.262-14.921-33.262-33.261s14.921-33.261 33.262-33.261h9.74v-39.897c0-4.142 3.357-7.5 7.5-7.5s7.5 3.358 7.5 7.5v47.397c0 4.142-3.357 7.5-7.5 7.5h-17.24c-10.069 0-18.262 8.192-18.262 18.261s8.192 18.261 18.262 18.261h43.002c10.069 0 18.261-8.192 18.261-18.261v-75.874c0-4.142 3.357-7.5 7.5-7.5s7.5 3.358 7.5 7.5v75.874c0 18.34-14.921 33.261-33.261 33.261z" fill="#007ea8"/></g><path d="m119.49 321.368c-6.447 0-12.693-.465-18.72-1.355v32.766c6.096.706 12.341 1.073 18.72 1.073 11.657 0 22.555-1.135 32.802-3.186v-33.369c-10.145 2.607-21.013 4.071-32.802 4.071z" fill="#007ea8"/><g><path d="m393.22 429.432h-43.002c-18.34 0-33.261-14.921-33.261-33.261s14.921-33.261 33.261-33.261h9.74v-40.288c0-4.142 3.357-7.5 7.5-7.5s7.5 3.358 7.5 7.5v47.788c0 4.142-3.357 7.5-7.5 7.5h-17.24c-10.069 0-18.261 8.192-18.261 18.261s8.191 18.261 18.261 18.261h43.002c10.069 0 18.261-8.192 18.261-18.261v-75.847c0-4.142 3.357-7.5 7.5-7.5s7.5 3.358 7.5 7.5v75.847c-.001 18.34-14.921 33.261-33.261 33.261z" fill="#007ea8"/></g><path d="m386.655 321.368c-6.59 0-12.982-.617-19.197-1.746v32.91c6.219.855 12.612 1.32 19.197 1.32 11.063 0 21.878-1.099 32.326-3.223v-33.304c-10.108 2.626-20.915 4.043-32.326 4.043z" fill="#007ea8"/><path d="m392.511 82.568c-61.671 0-99.563 37.118-136.153 73.117-35.786-35.011-76.457-73.117-131.012-73.117-73.265 0-125.346 55.628-125.346 123.15 0 71.436 49.463 123.15 119.489 123.15 60.593 0 97.949-36.193 134.076-71.194.678-.656 1.354-1.312 2.031-1.968 35.798 35.024 76.479 73.162 131.059 73.162 73.264 0 125.345-55.629 125.345-123.15 0-71.434-49.463-123.15-119.489-123.15zm-5.856 231.299c-50.277 0-89.511-38.447-124.127-72.369-66.885-68.067-31.477-31.85-51.003-51.735-23.397-23.827-49.916-50.834-85.448-50.834-36.423 0-66.056 29.961-66.056 66.789 0 38.367 27.347 66.789 63.86 66.789 37.917 0 67.527-29.166 93.649-55.392l27.458 27.987c-.62.6-1.241 1.198-1.861 1.798-35.546 34.439-69.121 66.968-123.639 66.968-61.52-.001-104.488-44.473-104.488-108.15 0-59.662 45.793-108.149 110.346-108.149 50.276 0 89.51 38.447 124.125 72.368 55.65 58.748 28.561 30.641 52.717 54.307 23.093 22.623 49.268 48.264 83.736 48.264 36.423 0 66.056-29.961 66.056-66.789 0-38.28-27.269-66.789-63.86-66.789-37.794 0-68.953 29.963-94.34 55.954l-26.912-28.495c34.44-33.885 70.102-68.82 125.644-68.82 61.52-.001 104.488 44.472 104.488 108.149 0 59.612-45.743 108.149-110.345 108.149zm-179.707-107.382c-24.07 24.166-51.311 51.022-83.066 51.022-28.312 0-48.86-21.781-48.86-51.789 0-28.556 22.903-51.789 51.056-51.789 29.238 0 53.415 24.621 74.745 46.343 2.091 2.13 4.121 4.198 6.125 6.213zm97.453-1.011c24.411-25.005 51.926-51.545 83.718-51.545 28.312 0 48.86 21.78 48.86 51.789 0 28.557-22.903 51.789-51.056 51.789-28.346 0-52.196-23.365-73.239-43.979-2.832-2.776-5.574-5.461-8.283-8.054z" fill="#6d00ca"/></g></svg>