<svg id="Capa_1" enable-background="new 0 0 512 512" height="512" viewBox="0 0 512 512" width="512" xmlns="http://www.w3.org/2000/svg"><g><path d="m238.135 412.498c-.257-.131-.519-.248-.774-.384-20.377-10.917-39.421-22.155-57.128-33.684v68.168h-19.375c-15.989 0-28.951 12.962-28.951 28.951s12.962 28.951 28.951 28.951h48.326c11.181 0 20.875-6.343 25.698-15.623-2.074-3.99-3.253-8.52-3.253-13.328 0-6.934 2.44-13.296 6.505-18.281v-44.77z" fill="#ffff6f"/><path d="m279.955 409.23v37.368h-19.375c-15.989 0-28.951 12.962-28.951 28.951s12.962 28.951 28.951 28.951h48.326c15.989 0 28.951-12.962 28.951-28.951v-101.133c-17.881 11.922-37.191 23.535-57.902 34.814z" fill="#ffff6f"/><path d="m495.777 139.747c-7.091-113.669-138.101-175.758-239.781-96.724-101.612-78.977-232.68-17.002-239.771 96.724-2.744 43.957 13.602 90.609 47.251 134.903 37.677 49.589 96.183 95.835 173.885 137.463 11.67 6.251 25.601 6.26 37.271 0 77.711-41.628 136.207-87.875 173.885-137.463 33.657-44.294 49.994-90.946 47.26-134.903z" fill="#ff63ed"/><circle cx="314.885" cy="228.685" fill="#e207b9" r="12.494"/><g><path d="m282.455 269.858h-52.911c-4.142 0-7.499-3.358-7.499-7.499 0-4.142 3.357-7.499 7.499-7.499h52.911c4.142 0 7.499 3.358 7.499 7.499.001 4.142-3.356 7.499-7.499 7.499z" fill="#e207b9"/></g><circle cx="197.115" cy="228.685" fill="#e207b9" r="12.494"/><g fill="#f90"><path d="m337.857 369.916c-4.142 0-7.499 3.358-7.499 7.499v98.133c0 11.829-9.623 21.452-21.451 21.452h-48.327c-11.882 0-21.451-9.696-21.451-21.452 0-11.781 9.587-21.451 21.451-21.451h19.374c4.142 0 7.499-3.358 7.499-7.499v-34.368c0-4.142-3.357-7.499-7.499-7.499s-7.499 3.358-7.499 7.499v26.869h-11.875c-5.325 0-10.382 1.157-14.946 3.219v-26.819c0-4.142-3.357-7.499-7.499-7.499s-7.499 3.357-7.499 7.499v39.273c-4.309 6.214-6.505 13.541-6.505 20.778 0 5.179.905 8.538 2.305 12.748-4.009 5.438-10.36 8.704-17.251 8.704h-48.326c-11.829 0-21.452-9.623-21.452-21.452 0-11.828 9.623-21.451 21.452-21.451h19.374c4.142 0 7.499-3.358 7.499-7.499v-65.17c0-4.141-3.357-7.499-7.499-7.499s-7.499 3.358-7.499 7.499v57.669h-11.875c-20.099 0-36.451 16.351-36.451 36.45s16.352 36.451 36.451 36.451h48.326c9.823 0 18.982-3.917 25.703-10.623 6.594 6.561 15.677 10.623 25.692 10.623h48.326c20.099 0 36.45-16.352 36.45-36.451v-98.133c.001-4.142-3.356-7.5-7.499-7.5z"/><path d="m279.955 409.23v31.447c3.365-1.197 6.644-2.643 9.798-4.334 16.888-9.047 32.919-18.328 48.104-27.825v-34.103c-17.881 11.923-37.191 23.536-57.902 34.815z"/><path d="m237.36 412.114c-20.377-10.917-39.421-22.155-57.128-33.684v33.861c13.365 8.185 27.364 16.207 42.009 24.052 5.036 2.698 10.383 4.772 15.894 6.197v-30.042c-.258-.13-.52-.247-.775-.384z"/></g><path d="m503.261 139.283c0-.001 0-.001 0-.002-3.559-57.047-37.304-103.777-86.319-125.895-51.874-23.408-111.634-15.78-160.946 20.251-49.311-36.027-109.078-43.646-160.961-20.232-49.132 22.171-82.746 68.967-86.295 125.874v.001c-2.857 45.772 14.005 94.151 48.763 139.907.002.002.004.004.006.007 38.328 50.442 97.647 97.387 176.309 139.53.002.001.004.002.006.003 13.882 7.433 30.457 7.447 44.347-.003.001-.001.003-.001.004-.002s.002-.001.002-.001c78.655-42.134 137.973-89.079 176.307-139.531 0 0 .001-.001.002-.002 34.758-45.74 51.624-94.119 48.775-139.905zm-60.716 130.83c0 .001-.001.001-.001.002-37.022 48.726-94.708 94.276-171.453 135.388 0 0 0 0-.001 0s-.002.001-.003.001c-9.443 5.065-20.724 5.064-30.183 0-.001 0-.001-.001-.002-.001-76.75-41.118-134.434-86.668-171.45-135.383-.001-.002-.003-.004-.004-.006-32.552-42.85-48.367-87.769-45.738-129.9 3.14-50.363 32.11-92.657 77.494-113.138 48.35-21.819 104.497-13.645 150.189 21.868 2.625 2.067 6.46 2.124 9.204 0 45.696-35.518 101.836-43.699 150.176-21.887 45.397 20.485 74.376 62.786 77.518 113.157v.001c2.621 42.146-13.197 87.064-45.746 129.898z" fill="#e207b9"/></g></svg>