<svg id="Capa_1" enable-background="new 0 0 512 512" height="512" viewBox="0 0 512 512" width="512" xmlns="http://www.w3.org/2000/svg"><g><path d="m238.135 412.498c-.257-.131-.519-.248-.774-.384-20.377-10.917-39.421-22.155-57.128-33.684v68.168h-19.375c-15.989 0-28.951 12.962-28.951 28.951s12.962 28.951 28.951 28.951h48.326c11.181 0 20.875-6.343 25.698-15.623-2.074-3.99-3.253-8.52-3.253-13.328 0-6.934 2.44-13.296 6.505-18.281v-44.77z" fill="#88f8d8"/><path d="m279.955 409.23v37.368h-19.375c-15.989 0-28.951 12.962-28.951 28.951s12.962 28.951 28.951 28.951h48.326c15.989 0 28.951-12.962 28.951-28.951v-101.133c-17.881 11.921-37.191 23.535-57.902 34.814z" fill="#88f8d8"/><path d="m495.777 139.747c-7.091-113.669-138.101-175.759-239.781-96.724-101.612-78.977-232.68-17.003-239.771 96.724-2.744 43.957 13.602 90.609 47.251 134.903 37.677 49.589 96.183 95.835 173.885 137.464 11.67 6.251 25.601 6.26 37.271 0 77.711-41.628 136.208-87.875 173.885-137.464 33.658-44.294 49.994-90.946 47.26-134.903z" fill="#b98eff"/><g fill="#ffff6f"><path d="m403.252 155.985 8.466-8.466c8.475-8.475 8.475-22.215 0-30.69l-16.29-16.29c-8.475-8.475-22.215-8.475-30.69 0l-8.466 8.466z"/><path d="m309.293 155.985-8.466 8.466c-8.475 8.475-8.475 22.215 0 30.69l16.29 16.29c8.475 8.475 22.215 8.475 30.69 0l8.466-8.466z"/></g><path d="m411.718 164.45-63.911-63.911c-8.475-8.475-22.215-8.475-30.69 0l-16.29 16.29c-8.475 8.475-8.475 22.215 0 30.69l63.911 63.911c8.475 8.475 22.215 8.475 30.69 0l16.29-16.29c8.475-8.475 8.475-22.215 0-30.69z" fill="#ffff6f"/><circle cx="314.885" cy="288.68" fill="#6d00ca" r="12.494"/><g><path d="m282.455 329.854h-52.911c-4.142 0-7.499-3.358-7.499-7.499 0-4.142 3.357-7.499 7.499-7.499h52.911c4.142 0 7.499 3.358 7.499 7.499.001 4.141-3.356 7.499-7.499 7.499z" fill="#6d00ca"/></g><circle cx="197.115" cy="288.68" fill="#6d00ca" r="12.494"/><g fill="#007ea8"><path d="m337.857 369.917c-4.142 0-7.499 3.357-7.499 7.499v98.133c0 11.828-9.623 21.452-21.451 21.452h-48.327c-11.84 0-21.451-9.65-21.451-21.452 0-11.672 9.483-21.452 21.451-21.452h19.375c4.142 0 7.499-3.358 7.499-7.499v-34.368c0-4.142-3.357-7.5-7.499-7.5s-7.499 3.358-7.499 7.5v26.869h-11.876c-5.325 0-10.382 1.157-14.946 3.218v-26.819c0-4.142-3.357-7.499-7.499-7.499s-7.499 3.358-7.499 7.499v39.273c-4.364 6.286-6.505 13.651-6.505 20.778 0 6.345 1.687 10.571 2.305 12.748-4.009 5.438-10.36 8.704-17.251 8.704h-48.326c-11.828 0-21.451-9.623-21.451-21.452s9.623-21.452 21.451-21.452h19.374c4.142 0 7.499-3.358 7.499-7.499v-65.169c0-4.141-3.357-7.499-7.499-7.499s-7.499 3.358-7.499 7.499v57.67h-11.875c-20.099 0-36.45 16.352-36.45 36.451s16.349 36.45 36.448 36.45h48.326c9.823 0 18.982-3.916 25.703-10.623 6.595 6.561 15.679 10.623 25.694 10.623h48.326c20.099 0 36.45-16.352 36.45-36.451v-98.133c.001-4.142-3.356-7.499-7.499-7.499z"/><path d="m279.955 409.23v31.448c3.365-1.197 6.644-2.643 9.798-4.334 16.888-9.047 32.919-18.328 48.104-27.825v-34.103c-17.881 11.921-37.191 23.535-57.902 34.814z"/><path d="m237.36 412.114c-20.377-10.917-39.421-22.155-57.128-33.684v33.861c13.365 8.185 27.364 16.207 42.009 24.052 5.036 2.698 10.383 4.772 15.894 6.197v-30.042c-.258-.131-.519-.248-.775-.384z"/></g><path d="m503.261 139.282s0-.001 0-.002c-3.558-57.045-37.305-103.779-86.318-125.895-51.873-23.407-111.634-15.779-160.947 20.251-49.31-36.025-109.074-43.647-160.962-20.232-49.129 22.171-82.745 68.966-86.293 125.874v.002c-2.857 45.771 14.005 94.15 48.763 139.907.002.002.004.004.006.007 38.328 50.442 97.647 97.387 176.309 139.53.002.001.004.002.006.003 13.881 7.432 30.458 7.447 44.347-.003s0 0 0 0c.001 0 .002-.001.004-.002.001 0 .002-.001.003-.002 78.654-42.134 137.973-89.079 176.307-139.531 0 0 .001-.001.002-.002 34.756-45.739 51.622-94.118 48.773-139.905zm-232.17 266.221c0 .001 0 .001 0 0-.002.001-.003.001-.004.002-9.443 5.064-20.724 5.064-30.183-.001-.001 0-.001-.001-.002-.001-76.75-41.119-134.434-86.668-171.45-135.383-.001-.002-.003-.004-.004-.006-32.552-42.851-48.367-87.77-45.738-129.899 0 0 0 0 0-.001 3.14-50.363 32.11-92.657 77.494-113.138 48.352-21.821 104.498-13.645 150.19 21.868 2.733 2.118 6.537 2.069 9.204 0 45.695-35.518 101.836-43.701 150.175-21.888 45.398 20.485 74.376 62.787 77.518 113.158v.001c2.62 42.146-13.198 87.063-45.746 129.898 0 .001-.001.001-.001.002-37.022 48.726-94.708 94.278-171.453 135.388z" fill="#6d00ca"/><path d="m413.858 155.984 3.162-3.162c11.411-11.409 11.415-29.882.001-41.296l-16.29-16.291c-11.386-11.385-29.912-11.384-41.296 0l-3.163 3.163-3.163-3.163c-11.384-11.385-29.91-11.384-41.296 0l-16.29 16.29c-11.41 11.41-11.413 29.883 0 41.295l3.163 3.163-3.163 3.163c-11.41 11.41-11.413 29.883 0 41.296l16.291 16.29c11.384 11.385 29.909 11.384 41.296 0l3.162-3.163 3.163 3.163c11.385 11.384 29.91 11.385 41.297 0l16.29-16.29c11.41-11.41 11.413-29.883 0-41.296zm-71.355 50.143c-5.536 5.536-14.546 5.538-20.083 0l-16.29-16.291c-5.55-5.549-5.551-14.533 0-20.083l3.162-3.163 36.374 36.374zm27.538-100.285c5.534-5.537 14.544-5.539 20.083 0l16.29 16.29c5.55 5.55 5.551 14.533 0 20.083l-3.162 3.163-36.374-36.374zm36.374 83.995-16.289 16.29c-5.538 5.536-14.549 5.538-20.084 0l-63.912-63.912c-5.549-5.55-5.55-14.533.001-20.083l16.29-16.29c5.535-5.537 14.545-5.538 20.083 0 14.099 14.099 12.172 12.172 63.911 63.912 5.55 5.55 5.55 14.532 0 20.083z" fill="#f95116"/></g></svg>