<svg id="Capa_1" enable-background="new 0 0 512 512" height="512" viewBox="0 0 512 512" width="512" xmlns="http://www.w3.org/2000/svg"><g><path d="m364.887 342.137 14.394 5.242c2.846 1.034 5.774 1.536 8.661 1.536 9.245 0 18.069-5.098 22.512-13.749 6.972-13.565.471-30.16-13.851-35.371l-14.394-5.242z" fill="#ff9bff"/><path d="m147.113 342.137-14.394 5.242c-2.846 1.034-5.774 1.536-8.661 1.536-9.245 0-18.069-5.098-22.512-13.749-6.972-13.565-.471-30.16 13.851-35.371l14.394-5.242z" fill="#ff9bff"/><path d="m418.495 311.604c-3.436-8.766-10.48-15.639-19.325-18.857l-14.395-5.242c-3.896-1.417-8.197.59-9.613 4.481-1.418 3.892.589 8.196 4.48 9.613l14.396 5.242c4.802 1.747 8.625 5.478 10.49 10.235 1.867 4.763 1.596 10.106-.746 14.661-4.086 7.958-13.519 11.651-21.936 8.593l-14.395-5.242c-3.896-1.417-8.197.589-9.613 4.481-1.418 3.893.589 8.196 4.48 9.614l14.399 5.244c3.672 1.333 7.446 1.97 11.171 1.97 12.008 0 23.488-6.615 29.235-17.804 4.311-8.382 4.81-18.219 1.372-26.989z" fill="#e207b9"/><path d="m144.546 335.089-14.388 5.24c-1.982.72-4.035 1.085-6.101 1.085-6.706 0-12.775-3.708-15.842-9.677-2.341-4.553-2.612-9.896-.745-14.66 1.865-4.758 5.688-8.488 10.492-10.236l14.395-5.242c3.892-1.417 5.898-5.721 4.48-9.613-1.417-3.892-5.724-5.899-9.613-4.481l-14.393 5.241c-8.847 3.219-15.892 10.092-19.327 18.857-3.438 8.771-2.938 18.608 1.368 26.988 5.647 10.993 16.83 17.822 29.185 17.822 3.817 0 7.593-.668 11.228-1.988l14.394-5.242c3.892-1.417 5.898-5.722 4.48-9.614-1.417-3.89-5.723-5.897-9.613-4.48z" fill="#e207b9"/><g fill="#7181ff"><path d="m316.681 270.71c2.489 3.573 3.991 7.943 3.991 12.804v12.557c0 13.046-10.757 22.59-22.657 22.492v71.845h47.318v-55.385l19.554 7.115 17.322-47.584z"/><path d="m191.328 296.07v-12.557c0-4.861 1.502-9.231 3.991-12.804l-65.528 23.842 17.322 47.584 19.554-7.115v55.385h47.318v-71.845c-11.9.1-22.657-9.444-22.657-22.49z"/><path d="m292.794 414.527c-7.387 3.889-15.47 6.638-24.012 8.026v38.225h43.722v-60.936c-5.745 5.858-12.384 10.831-19.71 14.685z"/><path d="m201.258 401.583v59.196h43.722v-37.962c-16.859-2.351-32.008-10.012-43.722-21.234z"/><path d="m320.435 390.407c-7.187 10.043-16.646 18.336-27.642 24.12-10.985 5.784-23.506 9.06-36.794 9.06-26.577 0-50.072-13.104-64.436-33.18h22.42v-24.13h84.03v24.13z"/></g><path d="m298.015 318.56v47.717h-84.03v-47.717c3.051-.021 6.173-.665 9.204-2.068l16.38-7.525c3.399 2.078 7.381 3.266 11.661 3.266h9.541c2.14 0 4.208-.297 6.163-.85 1.955-.563 3.798-1.372 5.498-2.416l16.38 7.525c3.03 1.402 6.152 2.047 9.203 2.068z" fill="#a4bcff"/><path d="m241.706 482.644c0-.15.012-1.13.037-1.207.094-3.099 1.166-6.895 3.236-10.265v-10.393h-48.942c-6.833 0-12.936 3.136-16.942 8.05v.009c-3.17 3.837-4.76 8.76-4.877 12.599-.026.077-.038 1.057-.038 1.207 0 12.054 9.696 21.856 21.856 21.856h27.076c9.129 0 16.95-5.599 20.223-13.544-1.048-2.564-1.629-5.37-1.629-8.312z" fill="#88f8d8"/><path d="m312.504 460.778v21.865c0 12.065-9.791 21.856-21.865 21.856h-27.076c-12.16 0-21.856-9.802-21.856-21.856 0-.15.012-1.13.037-1.207.116-3.839 1.707-8.762 4.877-12.599 0-.009 0-.009 0-.009 4.006-4.914 10.109-8.05 16.942-8.05z" fill="#88f8d8"/><path d="m384.773 287.505-64.481-23.462c-3.896-1.418-8.195.592-9.612 4.483-1.416 3.893.591 8.196 4.483 9.612l57.433 20.897-12.191 33.489-12.507-4.551c-4.893-1.781-10.064 1.853-10.064 7.048v47.886c-7.892 0-23.976 0-32.318 0 0-12.163 0-48.955 0-62.345 0-9.916-15-9.93-15 0v38.215h-69.03v-37.215-.003c0-9.916-15-9.93-15 0v.003 61.345c-8.342 0-24.426 0-32.317 0v-47.886c0-5.195-5.174-8.83-10.064-7.048l-12.508 4.551-12.19-33.489 55.725-20.276c3.893-1.416 5.899-5.72 4.483-9.612s-5.719-5.902-9.612-4.483l-62.773 22.841c-3.888 1.414-5.901 5.721-4.483 9.613l17.321 47.584c1.416 3.891 5.716 5.899 9.612 4.482l9.49-3.453v44.676c0 4.142 3.357 7.5 7.5 7.5h21.163c1.867 2.375 3.843 4.645 5.928 6.792v53.079c0 4.142 3.357 7.5 7.5 7.5s7.5-3.358 7.5-7.5v-40.689c8.752 5.717 18.444 9.776 28.722 12.006v28.684c0 4.142 3.357 7.5 7.5 7.5s7.5-3.358 7.5-7.5v-26.772c1.171.048 2.344.081 3.52.081 1.763 0 3.525-.055 5.282-.162v26.854c0 4.142 3.357 7.5 7.5 7.5s7.5-3.358 7.5-7.5v-29.086c10.691-2.562 20.372-7.053 28.722-12.793v41.879c0 4.142 3.357 7.5 7.5 7.5s7.5-3.358 7.5-7.5v-54.953c1.45-1.586 2.837-3.229 4.166-4.918h21.163c4.143 0 7.5-3.358 7.5-7.5v-44.675l9.489 3.453c3.893 1.416 8.195-.591 9.612-4.482l17.322-47.584c1.414-3.891-.593-8.201-4.486-9.616zm-176.436 110.402h5.647c4.143 0 7.5-3.358 7.5-7.5v-16.63h69.03v16.63c0 4.142 3.357 7.5 7.5 7.5h5.644c-12.684 11.36-29.573 18.18-47.659 18.18-17.694 0-34.649-6.61-47.662-18.18z" fill="#2115c2"/><g><path d="m223.114 512h-27.076c-16.188 0-29.356-13.169-29.356-29.356 0-.68.011-1.232.051-1.725.246-5.767 2.607-11.922 6.364-16.591.06-.081.122-.16.186-.238 5.601-6.871 13.896-10.811 22.756-10.811h48.941c4.143 0 7.5 3.358 7.5 7.5v10.393c0 1.386-.384 2.745-1.109 3.926-1.498 2.438-2.083 4.99-2.131 6.566-.004.141-.012.281-.024.422-.006.204-.009.471-.009.563.001 1.892.361 3.73 1.071 5.466.748 1.826.746 3.874-.006 5.699-4.552 11.047-15.212 18.186-27.158 18.186zm-41.424-29.915c-.006.209-.009.484-.009.57 0 7.905 6.44 14.345 14.356 14.345h27.076c4.982 0 9.509-2.54 12.115-6.639-.68-2.504-1.023-5.087-1.023-7.717 0-.681.011-1.233.052-1.727.165-3.836 1.316-7.982 3.222-11.697v-.941h-41.441c-4.254 0-8.24 1.857-10.978 5.105-.059.078-.12.155-.183.231-2.093 2.534-3.097 5.868-3.163 8.049-.003.14-.011.281-.024.421zm67.179 1.689c0 .002-.001.005-.002.007.001-.002.002-.004.002-.007zm-67.524 0c0 .002-.001.004-.002.007.001-.002.002-.004.002-.007zm67.527-.006c-.001.001-.001.003-.002.004.001-.001.001-.003.002-.004zm-67.524 0c-.001.001-.001.003-.002.004.001-.001.001-.003.002-.004zm67.526-.008s0 .001 0 0z" fill="#007ea8"/></g><g><path d="m290.639 512h-27.077c-16.187 0-29.355-13.169-29.355-29.356 0-.68.011-1.232.051-1.725.246-5.767 2.607-11.922 6.364-16.591.06-.081.122-.16.186-.238 5.601-6.871 13.895-10.811 22.755-10.811h48.942c4.143 0 7.5 3.358 7.5 7.5v21.865c-.001 16.187-13.174 29.356-29.366 29.356zm-41.424-29.915c-.006.209-.009.484-.009.57 0 7.905 6.439 14.345 14.355 14.345h27.077c7.921 0 14.365-6.44 14.365-14.356v-14.365h-41.442c-4.253 0-8.239 1.858-10.976 5.105-.06.078-.121.155-.184.231-2.093 2.534-3.097 5.868-3.163 8.049-.003.14-.01.281-.023.421zm-.346 1.689c0 .002-.001.004-.002.007.001-.002.002-.004.002-.007zm.003-.006c-.001.001-.001.003-.002.004.001-.001.001-.003.002-.004z" fill="#007ea8"/></g><path d="m389.734 109.6c-74.724-4.515-124.305-23.598-157.065-45.557-17.558 15.653-51.874 37.746-110.116 44.513-3.348 11.937-5.139 24.529-5.139 37.531 0 54.773 31.782 102.121 77.906 124.622 5.903-8.471 17.397-12.433 27.87-7.621l16.377 7.524c3.398-2.07 7.388-3.262 11.658-3.262h9.551c4.269 0 8.26 1.193 11.658 3.262l16.377-7.524c10.473-4.812 21.967-.851 27.87 7.621 46.124-22.502 77.906-69.85 77.906-124.622 0-12.623-1.69-24.857-4.853-36.487z" fill="#ff9bff"/><path d="m260.775 267.35h-9.551c-12.394 0-22.442 10.048-22.442 22.442 0 12.394 10.048 22.442 22.442 22.442h9.551c12.394 0 22.442-10.048 22.442-22.442 0-12.395-10.047-22.442-22.442-22.442z" fill="#ff63ed"/><path d="m228.783 289.792c0-8.125 4.318-15.241 10.784-19.18l-16.377-7.524c-14.891-6.841-31.862 4.038-31.862 20.425v12.557c0 16.387 16.971 27.267 31.862 20.425l16.377-7.524c-6.466-3.938-10.784-11.054-10.784-19.179z" fill="#ff63ed"/><path d="m288.81 263.088-16.377 7.524c6.466 3.939 10.784 11.055 10.784 19.18 0 8.125-4.318 15.241-10.784 19.18l16.377 7.524c14.891 6.841 31.862-4.038 31.862-20.425v-12.557c0-16.388-16.971-27.267-31.862-20.426z" fill="#ff63ed"/><circle cx="309.335" cy="157.673" fill="#e207b9" r="11.316"/><circle cx="202.665" cy="157.673" fill="#e207b9" r="11.316"/><path d="m232.038 195.673h47.924c4.143 0 7.5-3.358 7.5-7.5s-3.357-7.5-7.5-7.5h-47.924c-4.143 0-7.5 3.358-7.5 7.5s3.358 7.5 7.5 7.5z" fill="#e207b9"/><path d="m379.254 224.532c14.938-23.419 22.833-50.545 22.833-78.446 0-13.038-1.722-25.976-5.116-38.456-1.088-3.998-5.212-6.354-9.206-5.269-3.997 1.088-6.355 5.209-5.269 9.206 3.046 11.196 4.591 22.81 4.591 34.518 0 25.037-7.082 49.374-20.479 70.379-12.032 18.864-28.614 34.299-48.188 44.915-8.885-8.118-21.803-10.134-32.741-5.107l-13.076 6.007c-3.822-1.619-7.741-2.431-11.827-2.431h-9.551c-4.14 0-8.024.826-11.827 2.431l-13.077-6.007c-10.82-4.976-23.737-3.098-32.74 5.107-19.573-10.615-36.155-26.05-48.188-44.915-13.397-21.005-20.479-45.342-20.479-70.379 0-12.058 1.636-24.004 4.861-35.506 1.118-3.988-1.208-8.128-5.196-9.247-3.996-1.121-8.13 1.208-9.247 5.196-3.595 12.82-5.418 26.129-5.418 39.556 0 27.9 7.896 55.027 22.833 78.446 13.185 20.671 31.289 37.629 52.635 49.435-1.012 3.029-1.553 6.244-1.553 9.546v12.557c0 21.849 22.658 36.353 42.492 27.24l13.087-6.012c3.628 1.564 7.622 2.436 11.818 2.436h9.551c4.195 0 8.189-.871 11.817-2.436l13.086 6.012c19.874 9.131 42.493-5.41 42.493-27.24v-12.557c0-3.303-.541-6.517-1.553-9.546 21.345-11.803 39.449-28.761 52.634-49.433zm-159.195 85.149c-9.89 4.543-21.23-2.618-21.23-13.61v-12.557c0-10.826 11.318-18.163 21.23-13.61l6.437 2.957c-3.503 5.104-5.212 11.188-5.212 16.932 0 5.889 1.786 11.941 5.212 16.931zm31.166-4.947c-8.264 0-14.941-6.739-14.941-14.942 0-8.215 6.685-14.942 14.941-14.942h9.551c8.234 0 14.941 6.711 14.941 14.942 0 8.195-6.671 14.942-14.941 14.942zm61.947-8.664c0 10.936-11.279 18.181-21.231 13.61l-6.436-2.957c3.273-4.768 5.212-10.768 5.212-16.932 0-5.974-1.832-12.009-5.212-16.932 6.008-2.737 7.566-3.747 10.677-4.208 8.503-1.182 16.99 5.381 16.99 14.861z" fill="#e207b9"/><path d="m256 7.5c-23.833 0-46.254 6.009-65.838 16.616-32.638 17.639-57.382 48.004-67.609 84.44 58.242-6.767 92.558-28.86 110.116-44.513 32.76 21.96 82.341 41.043 157.065 45.557-16.012-58.846-69.821-102.1-133.734-102.1z" fill="#88f8d8"/><g><path d="m389.281 117.086c-63.737-3.851-116.184-18.547-155.999-43.697-20.25 16.665-54.899 36.23-109.864 42.616-5.295.612-9.526-4.346-8.086-9.477 17.248-61.449 73.79-106.528 140.668-106.528 65.759 0 123.729 44.259 140.971 107.631 1.349 4.962-2.587 9.768-7.69 9.455zm-152.437-59.274c35.911 24.072 83.784 38.695 142.411 43.522-18.617-51.332-67.855-86.334-123.255-86.334-55.603 0-103.578 34.748-122.558 84.483 48.224-7.743 77.685-26.283 94.234-41.039 2.559-2.28 6.331-2.534 9.168-.632z" fill="#007ea8"/></g></g></svg>