<svg id="Capa_1" enable-background="new 0 0 512 512" height="512" viewBox="0 0 512 512" width="512" xmlns="http://www.w3.org/2000/svg"><g><path d="m407.154 338.931c-5.647 11.01-18.643 16.265-30.505 11.959-45.527-16.578-42.131-15.336-45.527-16.578-46.594-31.141-75.122 9.787-75.122 9.787s-28.528-40.927-75.122-9.787c-3.396 1.243 0 0-45.527 16.578-11.861 4.306-24.858-.949-30.505-11.959-6.831-13.271-.47-29.506 13.554-34.615 65.678-23.899 76.58-27.862 78.038-28.391.01-.01.02-.01.039-.02.02-.01.049-.02.069-.02 0-.01.01-.01.02-.01.029-.01.039-.02.049-.02 17.939 8.749 38.089 13.662 59.385 13.662 21.315 0 41.466-4.913 59.395-13.662.01.01.02.01.039.02h.01c.029.01.049.02.078.029.02.01.02.01.029.01 1.429.519 12.243 4.453 78.048 28.401 14.025 5.11 20.386 21.346 13.555 34.616z" fill="#ff9bff"/><path d="m391.633 153.897c0 74.779-60.589 135.622-135.632 135.622-74.887 0-135.632-60.696-135.632-135.622 0-3.053.098-6.077.303-9.072 61.88-4.335 100.165-29.751 119.592-47.318 8.925-8.064 22.548-8.064 31.474 0 19.426 17.567 57.711 42.983 119.592 47.318.205 3.005.303 6.029.303 9.072z" fill="#ff9bff"/><path d="m377.549 93.672c14.297-7.763 24.004-22.908 24.004-40.321 0-25.323-20.528-45.851-45.851-45.851-17.544 0-32.781 9.858-40.49 24.333 27.022 13.131 49.001 34.969 62.337 61.839z" fill="#ffff6f"/><path d="m391.329 144.825c-61.88-4.335-100.165-29.751-119.592-47.318-8.925-8.064-22.548-8.064-31.474 0-19.426 17.567-57.711 42.983-119.592 47.318 4.668-70.708 63.485-126.56 135.328-126.56 71.992.001 130.672 55.989 135.33 126.56z" fill="#ffff6f"/><g fill="#e207b9"><circle cx="308.198" cy="165.233" r="11.075"/><circle cx="203.805" cy="165.233" r="11.075"/><g><path d="m232.55 202.582h46.901c4.143 0 7.5-3.357 7.5-7.5 0-4.142-3.357-7.5-7.5-7.5h-46.901c-4.143 0-7.5 3.358-7.5 7.5 0 4.143 3.358 7.5 7.5 7.5z"/><path d="m396.165 297.269c-32.694-11.898-51.812-18.855-62.952-22.908 39.622-25.481 65.919-69.958 65.919-120.463 0-3.247-.107-6.471-.32-9.583-.282-4.133-3.858-7.248-7.993-6.972-4.133.282-7.254 3.86-6.972 7.993.189 2.773.285 5.654.285 8.562 0 70.614-57.449 128.122-128.132 128.122-70.489 0-128.132-57.306-128.132-128.122 0-2.907.097-5.787.286-8.56.283-4.133-2.838-7.712-6.97-7.995-4.124-.282-7.712 2.837-7.995 6.97-.213 3.113-.321 6.338-.321 9.585 0 50.506 26.3 94.984 65.923 120.465-11.141 4.053-30.261 11.009-62.958 22.907-18.252 6.648-26.55 27.815-17.66 45.085 7.397 14.424 24.482 21.124 39.744 15.583l43.063-15.678c3.892-1.418 5.897-5.722 4.479-9.614-1.419-3.891-5.719-5.9-9.614-4.479l-43.054 15.675c-8.167 2.965-17.314-.616-21.276-8.342-4.745-9.218-.358-20.561 9.45-24.135 51.393-18.701 69.242-25.193 75.272-27.386 18.748 8.637 38.87 13.041 59.762 13.041 21.57 0 41.651-4.689 59.774-13.042 6.048 2.2 23.91 8.699 75.258 27.386 9.758 3.555 14.224 14.866 9.447 24.146-3.956 7.716-13.098 11.298-21.264 8.334l-43.016-15.661c-3.893-1.418-8.196.587-9.614 4.479s.587 8.196 4.479 9.614l43.024 15.665c15.339 5.568 32.38-1.241 39.731-15.576 8.898-17.278.606-38.445-17.653-45.096z"/></g></g><path d="m387.144 96.457c13.663-9.968 21.908-25.917 21.908-43.105 0-29.418-23.932-53.352-53.35-53.352-17.371 0-33.417 8.385-43.363 22.274-17.61-7.539-36.717-11.508-56.338-11.508-75.624 0-137.87 58.714-142.812 133.565-.299 4.527 3.463 8.289 8.008 7.976 62.399-4.372 101.927-29.188 124.096-49.234 6.105-5.517 15.313-5.516 21.415-.002 22.17 20.048 61.696 44.865 124.098 49.237.176.013.351.019.525.019 4.344 0 7.767-3.678 7.482-7.994-1.102-16.704-5.093-32.863-11.669-47.876zm-31.442-81.457c21.146 0 38.351 17.205 38.351 38.352 0 11.509-5.142 22.246-13.787 29.457-12.86-22.44-31.659-41.089-54.224-53.771 7.206-8.801 18.021-14.038 29.66-14.038zm-78.937 76.942c-11.838-10.695-29.691-10.695-41.531.002-19.356 17.503-53.207 38.961-106.197 44.615 8.509-62.797 62.661-110.794 126.964-110.794s118.456 47.998 126.964 110.795c-52.998-5.653-86.84-27.112-106.2-44.618z" fill="#f95116"/><path d="m338.619 504.5h-165.236c-22.832 0-38.07-23.449-28.88-44.343 26.248-59.649 36.377-125.845 36.377-125.845 46.594-31.141 75.122 9.787 75.122 9.787s28.528-40.927 75.122-9.787c0 0 10.129 66.196 36.377 125.845 9.188 20.895-6.05 44.343-28.882 44.343z" fill="#b98eff"/><g><path d="m338.619 512h-165.236c-28.212 0-47.121-29-35.746-54.862 25.554-58.072 35.729-123.308 35.828-123.96.318-2.081 1.497-3.931 3.246-5.101 27.037-18.068 48.91-13.935 62.497-7.286 7.265 3.554 12.915 8.186 16.792 11.991 3.877-3.805 9.527-8.437 16.792-11.991 13.589-6.649 35.463-10.782 62.498 7.286 1.749 1.169 2.927 3.021 3.245 5.1.101.653 10.306 65.959 35.828 123.96 11.36 25.828-7.49 54.863-35.744 54.863zm-150.876-173.181c-2.447 14.42-13.09 71.442-36.375 124.359-6.966 15.839 4.45 33.822 22.016 33.822h165.235c17.354 0 29.072-17.779 22.015-33.823-23.283-52.913-33.926-109.931-36.374-124.357-38.394-23.535-61.137 8.174-62.106 9.567-2.98 4.276-9.321 4.28-12.306 0-.046-.065-6.501-9.041-17.722-14.359-13.71-6.498-28.629-4.884-44.383 4.791z" fill="#6d00ca"/></g></g></svg>