<svg id="Capa_1" enable-background="new 0 0 512 512" height="512" viewBox="0 0 512 512" width="512" xmlns="http://www.w3.org/2000/svg"><g><path d="m169.092 372.462c-1.529.839-3.068 1.675-4.622 2.508-6.947 3.727-15.24 3.721-22.187 0-3.58-1.918-7.083-3.854-10.525-5.805 2.268 10.812 5.939 21.077 9.451 30.878 9.323 26.02 17.375 48.491 1.317 78.486-4.598 8.587-1.363 19.275 7.224 23.872 8.588 4.6 19.275 1.362 23.872-7.224 23.45-43.801 10.887-78.861.792-107.033-2.022-5.641-3.831-10.82-5.322-15.682z" fill="#ffff6f"/><path d="m296.111 212.837c-4.221-67.664-82.208-104.624-142.735-57.577-60.487-47.013-138.508-10.121-142.729 57.577-1.633 26.166 8.097 53.937 28.127 80.304 22.428 29.519 57.255 57.048 103.509 81.828 6.947 3.721 15.24 3.727 22.187 0 46.26-24.78 81.081-52.309 103.509-81.828 20.035-26.367 29.76-54.138 28.132-80.304z" fill="#ff63ed"/><path d="m380.105 242.633c-3.4 1.925-6.859 3.836-10.393 5.729-6.947 3.727-15.24 3.721-22.187 0-.979-.524-1.93-1.055-2.899-1.582-.818 10.241-4.498 21.23-9.401 34.914-10.095 28.171-22.658 63.232.792 107.033 4.597 8.586 15.285 11.824 23.872 7.224 8.587-4.597 11.822-15.285 7.224-23.872-16.058-29.996-8.006-52.467 1.317-78.486 5.621-15.685 11.66-32.554 11.675-50.96z" fill="#ffff6f"/><path d="m501.354 86.23c-4.221-67.664-82.208-104.624-142.735-57.577-60.487-47.013-138.509-10.122-142.73 57.577-.995 15.943 2.236 32.481 9.438 48.935 37.408 5.794 68.176 35.867 70.784 77.672.073 1.181.116 2.367.143 3.554 15.108 11.088 32.217 21.763 51.271 31.971 6.947 3.721 15.24 3.727 22.187 0 46.26-24.78 81.081-52.309 103.509-81.828 20.036-26.367 29.76-54.138 28.133-80.304z" fill="#9448f5"/><circle cx="409.147" cy="121.036" fill="#6d00ca" r="10.72"/><g><path d="m381.321 157.429h-45.399c-4.142 0-7.499-3.358-7.499-7.499 0-4.142 3.357-7.499 7.499-7.499h45.399c4.142 0 7.499 3.358 7.499 7.499s-3.357 7.499-7.499 7.499z" fill="#6d00ca"/></g><circle cx="308.096" cy="121.036" fill="#6d00ca" r="10.72"/><circle cx="203.904" cy="247.643" fill="#e207b9" r="10.72"/><g><path d="m176.078 284.036h-45.4c-4.142 0-7.499-3.358-7.499-7.499 0-4.142 3.357-7.499 7.499-7.499h45.4c4.142 0 7.499 3.358 7.499 7.499.001 4.141-3.356 7.499-7.499 7.499z" fill="#e207b9"/></g><circle cx="102.853" cy="247.643" fill="#e207b9" r="10.72"/><g><path d="m146.208 509.013c-12.246-6.556-16.852-21.774-10.295-34.023 14.486-27.059 7.316-47.074-1.764-72.414-3.152-8.795-6.723-18.76-9.12-29.105-.935-4.035 1.578-8.064 5.613-8.999 4.033-.934 8.064 1.578 8.999 5.613 2.2 9.493 5.467 18.611 8.627 27.428 9.513 26.552 18.497 51.627.868 84.556-2.644 4.938-.789 11.077 4.152 13.721 4.937 2.645 11.075.79 13.721-4.152 21.879-40.866 10.438-72.794.344-100.963-1.523-4.252-3.128-8.794-4.547-13.2-1.268-3.943.898-8.168 4.841-9.437 3.942-1.269 8.168.898 9.436 4.84 1.353 4.203 2.91 8.606 4.389 12.738 10.036 28.007 23.782 66.365-1.24 113.101-6.543 12.224-21.753 16.869-34.024 10.296z" fill="#f90"/></g><g><path d="m329.406 392.266c-25.022-46.736-11.277-85.094-1.24-113.102 4.348-12.136 7.757-22.135 8.802-31.126.478-4.115 4.221-7.063 8.316-6.583 4.114.478 7.061 4.201 6.584 8.315-1.227 10.555-5.065 21.848-9.581 34.453-10.095 28.17-21.536 60.097.344 100.963 2.644 4.939 8.779 6.798 13.72 4.153 4.939-2.644 6.799-8.778 4.154-13.721-17.63-32.93-8.646-58.005.866-84.553 5.242-14.628 10.66-29.75 11.194-45.93.137-4.14 3.622-7.392 7.743-7.248 4.139.136 7.385 3.603 7.249 7.742-.61 18.531-6.696 35.511-12.064 50.492-9.08 25.343-16.251 45.358-1.765 72.417 6.556 12.246 1.953 27.466-10.296 34.023-12.248 6.561-27.466 1.957-34.026-10.295z" fill="#f90"/></g><g><path d="m343.984 254.973c-18.541-9.933-35.509-20.455-50.437-31.275-3.353-2.431-4.102-7.12-1.671-10.473 2.431-3.355 7.121-4.101 10.473-1.671 14.382 10.424 30.772 20.583 48.717 30.198 4.733 2.535 10.378 2.535 15.1.002 45.303-24.268 79.312-51.101 101.084-79.757 18.929-24.911 28.134-50.95 26.619-75.302-1.8-28.84-18.384-53.058-44.364-64.781-27.732-12.512-59.987-7.782-86.284 12.659-2.707 2.104-6.498 2.104-9.204 0-26.296-20.438-58.554-25.165-86.294-12.648-25.972 11.721-42.551 35.934-44.349 64.77-.858 13.754 1.697 28.071 7.595 42.554 1.562 3.836-.281 8.212-4.117 9.774-3.842 1.562-8.213-.282-9.775-4.117-6.754-16.588-9.673-33.122-8.673-49.145 2.15-34.485 22.019-63.46 53.15-77.508 31.273-14.112 67.166-9.919 97.065 11.074 29.896-20.995 65.788-25.196 97.055-11.086 31.138 14.051 51.014 43.03 53.165 77.52 1.742 27.994-8.51 57.493-29.646 85.309-23.084 30.383-58.727 58.612-105.94 83.902-9.153 4.912-20.097 4.914-29.269.001z" fill="#6d00ca"/></g><path d="m303.597 212.372s0-.001 0-.002c-2.151-34.49-22.027-63.469-53.165-77.52-31.267-14.109-67.154-9.897-97.056 11.103-29.896-20.996-65.787-25.205-97.063-11.091-31.131 14.048-51 43.022-53.15 77.507v.001c-1.746 27.984 8.503 57.483 29.639 85.307.002.003.004.005.006.007 23.08 30.375 58.721 58.601 105.933 83.895.002.001.004.002.006.003 9.162 4.905 20.099 4.911 29.263-.003.001-.001.003-.001.004-.002s.002-.001.002-.001c47.206-25.288 82.845-53.514 105.928-83.893.001-.002.003-.003.004-.005 21.138-27.813 31.39-57.312 29.649-85.306zm-142.668 155.987c-.002.001-.003.001-.004.002-4.722 2.534-10.366 2.533-15.098 0-.001 0-.001-.001-.002-.001-45.299-24.27-79.306-51.1-101.074-79.748-.001-.002-.003-.004-.004-.006-18.93-24.919-28.133-50.958-26.614-75.301 1.799-28.837 18.378-53.05 44.349-64.771 27.741-12.517 59.999-7.788 86.293 12.648 2.707 2.105 6.529 2.078 9.204 0 26.297-20.44 58.553-25.172 86.285-12.659 25.98 11.723 42.564 35.94 44.364 64.781v.001c1.513 24.353-7.692 50.39-26.62 75.299-.001.001-.002.002-.003.004-21.774 28.655-55.78 55.487-101.076 79.751z" fill="#e207b9"/></g></svg>