<svg id="Capa_1" enable-background="new 0 0 512 512" height="512" viewBox="0 0 512 512" width="512" xmlns="http://www.w3.org/2000/svg"><g><path d="m363.221 373.876c-17.06-6.983-37.915-6.59-56.947 2.764-11.082 5.447-20.126 13.246-26.722 22.315v50.099c17.899 9.394 41.136 10.003 62.154-.328 19.031-9.354 32.081-25.627 36.973-43.4 3.53-12.822-3.15-26.412-15.458-31.45z" fill="#17d9c3"/><path d="m232.447 398.955c-6.596-9.069-15.64-16.867-26.722-22.315-19.031-9.354-39.886-9.747-56.947-2.764-12.308 5.038-18.988 18.628-15.458 31.45 4.892 17.773 17.942 34.045 36.973 43.4 21.018 10.331 44.255 9.722 62.154.329z" fill="#17d9c3"/><path d="m256 353.587c-8.827 0-16.976-2.898-23.553-7.791v158.704h47.105v-158.704c-6.576 4.894-14.725 7.791-23.552 7.791z" fill="#88f8d8"/><path d="m366.063 366.935c-26.443-10.822-57.15-4.774-79.011 13.245v-31.384c0-4.143-3.358-7.5-7.5-7.5s-7.5 3.357-7.5 7.5v148.203h-32.104c0-18.32 0-132.677 0-148.204 0-4.142-3.357-7.5-7.5-7.5s-7.5 3.358-7.5 7.5v31.383c-21.831-17.992-52.532-24.081-79.01-13.244-15.865 6.494-24.398 23.854-19.849 40.382 5.673 20.608 20.58 38.154 40.896 48.14 17.954 8.825 38.848 10.985 57.962 4.833v44.21c0 4.142 3.357 7.5 7.5 7.5h47.105c4.143 0 7.5-3.358 7.5-7.5v-44.21c19.152 6.164 40.046 3.973 57.963-4.833 20.317-9.986 35.223-27.533 40.896-48.14 4.55-16.527-3.984-33.887-19.848-40.381zm-192.461 75.06c-16.469-8.095-28.516-22.186-33.051-38.659-2.537-9.216 2.221-18.897 11.068-22.518 25.598-10.476 56.35-.884 73.328 20.655v42.841c-15.767 6.682-34.631 5.897-51.345-2.319zm197.846-38.659c-4.534 16.474-16.581 30.564-33.051 38.659-16.712 8.216-35.578 9.001-51.346 2.318v-42.84c16.825-21.343 47.496-31.229 73.329-20.655 8.848 3.621 13.606 13.302 11.068 22.518z" fill="#007ea8"/><path d="m150.339 66.508c21.766 12.689 48.675 12.689 70.44 0 21.766-12.689 48.674-12.689 70.44 0 21.766 12.689 48.674 12.689 70.44 0 1.523-.888 3.085-1.576 4.662-2.089v-4.864c0-19.081-10.637-36.571-27.581-45.347-17.296-8.959-37.866-8.959-55.161 0-17.296 8.959-37.866 8.959-55.161 0-17.296-8.959-37.866-8.959-55.161 0-16.943 8.776-27.581 26.266-27.581 45.347v4.864c1.578.513 3.14 1.201 4.663 2.089z" fill="#ff9bff"/><path d="m361.661 66.508c-21.766 12.689-48.675 12.689-70.44 0-21.766-12.689-48.674-12.689-70.44 0-21.766 12.689-48.674 12.689-70.44 0-15.615-9.103-35.22 2.161-35.22 20.236v84.456c0 77.806 63.074 140.881 140.881 140.881 77.806 0 140.881-63.074 140.881-140.881v-84.456c-.002-18.075-19.607-29.339-35.222-20.236z" fill="#ff63ed"/><path d="m256 312.08c-13.712 0-26.962-1.967-39.494-5.62v7.632c0 21.812 17.682 39.494 39.494 39.494 21.812 0 39.494-17.682 39.494-39.494v-7.632c-12.532 3.654-25.782 5.62-39.494 5.62z" fill="#ff63ed"/><g fill="#e207b9"><circle cx="308.423" cy="205.196" r="11.123"/><circle cx="203.577" cy="205.196" r="11.123"/><g><path d="m279.552 227.675h-47.105c-4.143 0-7.5 3.357-7.5 7.5 0 4.142 3.357 7.5 7.5 7.5h47.105c4.143 0 7.5-3.358 7.5-7.5 0-4.143-3.358-7.5-7.5-7.5z"/><path d="m373.699 55.78c-1.301-20.46-13.12-38.707-31.507-48.232-19.43-10.064-42.631-10.063-62.061 0-15.108 7.827-33.149 7.828-48.263 0-19.427-10.063-42.627-10.065-62.06 0-18.387 9.524-30.206 27.772-31.507 48.232-16.04.128-30.682 13.022-30.682 30.965v84.455c0 65.399 42.532 121.047 101.386 140.749v2.144c0 25.913 21.082 46.995 46.994 46.995s46.994-21.082 46.994-46.995v-2.144c58.856-19.702 101.388-75.349 101.388-140.749v-84.455c0-17.924-14.624-30.834-30.682-30.965zm-196.992-34.912c15.114-7.827 33.155-7.826 48.263 0 19.431 10.065 42.632 10.064 62.061 0 15.11-7.826 33.151-7.827 48.263 0 14.497 7.51 23.51 22.311 23.53 38.635-.316.17-.629.346-.939.526-19.395 11.306-43.491 11.306-62.886 0-11.348-6.616-24.829-10.518-38.999-10.518-13.486 0-26.97 3.506-38.998 10.517-19.735 11.505-43.848 11.097-62.886 0-.31-.181-.623-.356-.939-.526.019-16.324 9.032-31.124 23.53-38.634zm111.223 295.259c-1.053 16.699-14.972 29.96-31.93 29.96s-30.878-13.262-31.93-29.96c10.319 2.264 21.224 3.454 31.931 3.454 10.692-.001 21.565-1.183 31.929-3.454zm101.45-144.927c0 60.897-41.022 112.392-96.884 128.305-23.28 6.644-48.752 6.881-72.999-.001-55.858-15.914-96.878-67.408-96.878-128.303v-84.456c0-9.212 7.551-15.95 15.924-15.95 5.396 0 7.754 2.261 12.594 4.658 22.892 11.353 50.583 10.849 73.42-2.465 19.397-11.306 43.492-11.305 62.885 0 20.806 12.128 46.118 13.836 68.327 4.758.132-.054.266-.103.398-.158 9.821-4.079 15.29-10.358 25.221-4.651 5.004 2.875 7.991 8.036 7.991 13.807v84.456z"/></g></g></g></svg>