<svg id="Capa_1" enable-background="new 0 0 512 512" height="512" viewBox="0 0 512 512" width="512" xmlns="http://www.w3.org/2000/svg"><g><path d="m214.19 41.597c-5.52 12.807-7.786 26.934-6.83 40.812h-56.322c-.333-10.759 1.996-21.601 7.017-31.508l9.283-18.296c7.807-15.396 23.608-25.105 40.875-25.105h21.726z" fill="#7181ff"/><path d="m304.64 82.409h-97.28c-.956-13.878 1.31-28.005 6.83-40.812l15.749-34.097h52.122l15.749 34.097c5.52 12.807 7.786 26.934 6.83 40.812z" fill="#a4bcff"/><path d="m360.962 82.409h-56.322c.956-13.878-1.31-28.005-6.83-40.812l-15.749-34.097h21.726c17.267 0 33.068 9.709 40.874 25.105l9.283 18.296c5.022 9.906 7.35 20.748 7.018 31.508z" fill="#7181ff"/><path d="m360.962 82.409c-.333 10.593-3.254 21.113-8.732 30.583l-34.762 60.075c-14.158-5.447-29.221-9.054-44.897-10.562l23.525-47.829c4.938-10.032 7.797-21.061 8.545-32.267z" fill="#a4bcff"/><path d="m239.43 162.504c-15.676 1.507-30.739 5.114-44.897 10.562l-34.762-60.075c-5.478-9.47-8.399-19.99-8.732-30.583h56.322c.748 11.206 3.607 22.236 8.545 32.267z" fill="#a4bcff"/><path d="m304.64 82.409c-.748 11.206-3.607 22.236-8.545 32.267l-23.525 47.829c-5.458-.52-10.977-.79-16.57-.79s-11.113.27-16.57.79l-23.525-47.829c-4.938-10.032-7.796-21.061-8.545-32.267z" fill="#7181ff"/><path d="m351.351 29.213c-9.138-18.019-27.362-29.213-47.563-29.213-35.354 0-60.146 0-95.575 0-20.201 0-38.426 11.194-47.563 29.211-5.382 12.71-17.91 27.509-17.107 53.43v.001.003c.375 11.949 3.742 23.741 9.737 34.104l33.281 57.517c2.074 3.586 6.664 4.81 10.247 2.735 3.586-2.075 4.811-6.663 2.735-10.248l-33.28-57.516c-3.456-5.974-5.812-12.545-6.956-19.328h41.29c3.274 23.443 12.643 34.124 31.054 73.774 1.819 3.698 6.306 5.256 10.041 3.42 3.717-1.828 5.248-6.323 3.42-10.04l-.741-1.507c-.001-.003-.003-.006-.004-.01-18.805-39.884-25.497-47.321-28.577-65.638h80.421c-3.04 18.049-9.821 25.934-24.3 56.943l-4.854 9.868c-4.377 8.898 9.076 15.53 13.461 6.62.049-.101.361-.733.312-.633 17.306-37.489 27.273-49.128 30.574-72.798h41.289c-1.144 6.781-3.499 13.353-6.954 19.327l-33.282 57.517c-2.075 3.585-.851 8.173 2.734 10.248 3.615 2.089 8.189.823 10.248-2.735l33.283-57.518c5.994-10.364 9.361-22.157 9.735-34.103 0-.001 0-.001 0-.002.803-25.923-11.759-40.803-17.106-53.429zm-136.69 45.696c.552-26.33 11.425-38.314 20.075-59.909h42.528c8.517 21.017 19.653 34.128 20.075 59.909zm-55.89 0c1.555-16.2 8.666-24.549 15.257-38.912 6.567-12.952 19.666-20.997 34.184-20.997h10.001c-5.486 14.144-18.164 30.694-18.557 59.909zm153.572 0c-.427-29.208-12.73-45.036-18.556-59.909h10.001c14.519 0 27.617 8.045 34.186 20.998 6.58 14.34 13.7 22.724 15.256 38.911z" fill="#2115c2"/><path d="m317.468 173.066c-14.158-5.447-29.221-9.054-44.897-10.562-5.458-.52-10.977-.79-16.57-.79s-11.113.27-16.57.79c-15.676 1.507-30.739 5.114-44.897 10.562-64.295 24.71-109.92 87.05-109.92 160.046-.001 94.65 76.726 171.388 171.386 171.388s171.388-76.738 171.388-171.388c0-72.995-45.625-135.336-109.92-160.046zm-61.468 273.969c-62.923 0-113.922-51.01-113.922-113.922 0-59.004 44.856-107.529 102.331-113.33 3.805-.395 7.672-.593 11.591-.593s7.786.198 11.591.593c57.476 5.801 102.332 54.326 102.332 113.33-.001 62.912-51 113.922-113.923 113.922z" fill="#ffff6f"/><g fill="#f90"><path d="m320.166 166.068c-.002-.001-.004-.002-.006-.002-19.872-7.645-41.554-11.852-64.16-11.852-21.56 0-43.313 3.832-64.161 11.852-.002.001-.004.002-.006.002-68.001 26.139-114.721 91.741-114.721 167.044.001 98.639 80.25 178.888 178.888 178.888s178.887-80.249 178.887-178.888c0-75.204-46.632-140.871-114.721-167.044zm-64.166 330.932c-90.368 0-163.888-73.52-163.888-163.888 0-68.906 42.727-129.071 105.11-153.045.001 0 .002 0 .003-.001 18.606-7.158 38.492-10.852 58.774-10.852 20.254 0 40.143 3.684 58.773 10.852.001 0 .002 0 .003.001 62.299 23.942 105.11 84.052 105.11 153.045.002 90.368-73.517 163.888-163.885 163.888z"/><path d="m256 211.69c-66.968 0-121.423 54.292-121.423 121.422 0 66.953 54.47 121.422 121.423 121.422 66.952 0 121.422-54.47 121.422-121.422 0-67.133-54.437-121.422-121.422-121.422zm0 227.845c-58.682 0-106.423-47.741-106.423-106.422 0-58.726 47.604-106.422 106.423-106.422 58.731 0 106.422 47.616 106.422 106.422 0 58.681-47.74 106.422-106.422 106.422z"/></g></g></svg>