<svg id="Capa_1" enable-background="new 0 0 512 512" height="512" viewBox="0 0 512 512" width="512" xmlns="http://www.w3.org/2000/svg"><g><path d="m321.173 279.708h22.551c9.108 0 16.819 5.936 19.504 14.147l132.844-101.099c-6.047-12.974-15.172-24.49-26.84-33.424l-158.529-121.409c-32.279-24.723-77.128-24.723-109.407 0l-158.529 121.409c-11.668 8.933-20.794 20.449-26.84 33.424l132.844 101.099c2.685-8.211 10.396-14.147 19.504-14.147h22.551c8.073 0 15.038 4.672 18.391 11.45 2.353-1.225 4.751-2.361 7.191-3.398 12.397-5.257 25.848-8.052 39.592-8.052 16.45 0 32.474 4.001 46.782 11.451 3.353-6.778 10.318-11.451 18.391-11.451z" fill="#9448f5"/><path d="m414.039 216.7c-4.674-74.92-91.024-115.844-158.042-63.752-66.974-52.055-153.362-11.207-158.035 63.752-.88 14.103 1.229 28.627 6.176 43.187l44.633 33.968c2.685-8.211 10.396-14.147 19.504-14.147h22.551c8.073 0 15.038 4.672 18.391 11.45 2.353-1.225 4.751-2.361 7.191-3.398 12.397-5.257 25.848-8.052 39.592-8.052 16.45 0 32.474 4.001 46.782 11.451 3.352-6.778 10.318-11.451 18.391-11.451h22.551c9.108 0 16.819 5.936 19.504 14.147l44.631-33.965c4.947-14.562 7.057-29.086 6.18-43.19z" fill="#ff9bff"/><circle cx="308.766" cy="216.775" fill="#e207b9" r="11.196"/><g><path d="m279.706 254.45h-47.412c-4.143 0-7.5-3.358-7.5-7.5s3.357-7.5 7.5-7.5h47.412c4.143 0 7.5 3.358 7.5 7.5s-3.357 7.5-7.5 7.5z" fill="#e207b9"/></g><circle cx="203.234" cy="216.775" fill="#e207b9" r="11.196"/><g><path d="m408.213 266.339c-5.083 0-8.732-4.984-7.122-9.855 4.416-13.367 6.254-26.596 5.463-39.317-2.011-32.236-20.551-59.306-49.593-72.411-30.982-13.979-67.005-8.704-96.361 14.114-2.707 2.104-6.498 2.105-9.205 0-29.354-22.815-65.382-28.086-96.37-14.102-29.034 13.102-47.567 40.167-49.577 72.399-.76 12.164.89 24.809 4.902 37.585 1.241 3.952-.956 8.162-4.908 9.402-3.953 1.242-8.161-.957-9.402-4.908-4.565-14.537-6.437-29.009-5.563-43.014 2.362-37.88 24.186-69.707 58.378-85.137 34.522-15.579 74.183-10.846 107.143 12.513 32.962-23.362 72.618-28.101 107.133-12.526 34.201 15.433 56.031 47.265 58.395 85.15.911 14.64-1.172 29.765-6.191 44.956-1.043 3.154-3.975 5.151-7.122 5.151z" fill="#e207b9"/></g><g fill="#b98eff"><path d="m147.747 303.409v-3.173c0-2.23.367-4.371 1.024-6.381l-132.844-101.099c-5.48 11.749-8.427 24.693-8.427 38.001v171.848c0 24.612 9.875 46.915 25.898 63.15l130.173-134.853c-9.46-5.51-15.824-15.755-15.824-27.493z"/><path d="m348.428 330.903c-4.696 2.736-10.152 4.31-15.979 4.31-17.565 0-31.804-14.239-31.804-31.804v-3.173c0-3.264.782-6.338 2.137-9.077-14.308-7.45-30.332-11.451-46.782-11.451-13.744 0-27.195 2.795-39.592 8.052-2.44 1.037-4.838 2.172-7.191 3.398 1.355 2.74 2.137 5.815 2.137 9.079v3.173c0 17.565-14.239 31.804-31.804 31.804-5.827 0-11.283-1.574-15.979-4.31l-130.173 134.852c16.307 16.56 38.994 26.82 64.072 26.82h317.059c25.078 0 47.765-10.26 64.072-26.82z"/><path d="m496.073 192.756-132.844 101.099c.657 2.01 1.024 4.151 1.024 6.381v3.173c0 11.738-6.364 21.983-15.825 27.494l130.173 134.853c16.023-16.236 25.898-38.539 25.898-63.15v-171.849c.001-13.308-2.946-26.252-8.426-38.001z"/></g><g fill="#6d00ca"><path d="m303.951 283.346c-14.84-7.286-31.421-11.138-47.951-11.138-14.682 0-28.987 2.909-42.524 8.649-1.646.7-3.307 1.455-4.933 2.244-3.727 1.809-5.28 6.296-3.472 10.022s6.298 5.28 10.022 3.472c1.401-.681 2.831-1.331 4.242-1.931 11.67-4.948 24.005-7.457 36.664-7.457 14.251 0 28.546 3.32 41.34 9.603 1.063.522 2.19.769 3.3.769 2.771 0 5.435-1.541 6.738-4.196 1.826-3.718.292-8.212-3.426-10.037z"/><path d="m512 230.757c0-14.328-3.071-28.179-9.128-41.167 0-.001 0-.002-.001-.003-6.61-14.185-16.666-26.707-29.077-36.21l-158.53-121.408c-34.896-26.727-83.637-26.726-118.527 0l-158.53 121.408c-12.412 9.503-22.467 22.024-29.078 36.211 0 .001-.001.002-.001.003-6.057 12.987-9.128 26.838-9.128 41.166v171.849c0 25.781 9.963 50.076 28.052 68.41l.003.003c.001.001.003.003.005.005 0 0 0 .001.001.001 0 0 0 0 .001.001 18.45 18.734 43.1 29.051 69.409 29.051h317.059c26.31 0 50.959-10.317 69.409-29.051 0 0 .001 0 .001-.001 0 0 .001-.001.001-.001.724-1.1 28.06-25.255 28.06-68.417v-171.85zm-15 171.849c0 19.229-6.55 37.48-18.584 52.158l-123.097-127.522c-2.878-2.98-7.626-3.064-10.605-.187-2.98 2.876-3.063 7.625-.188 10.605l123.381 127.817c-14.876 12.688-33.571 19.599-53.378 19.599h-317.058c-19.807 0-38.502-6.911-53.378-19.599l32.595-33.767 90.732-93.994c.004-.004.007-.008.01-.012l.406-.42c2.876-2.98 2.793-7.729-.188-10.605-2.98-2.877-7.729-2.792-10.605.187l-123.459 127.898c-12.034-14.678-18.584-32.929-18.584-52.158v-171.849c0-8.953 1.418-17.686 4.224-26.068 5.32 4.049 117.79 89.642 123.509 93.995 3.298 2.509 8.002 1.869 10.51-1.426 2.509-3.296 1.87-8.002-1.426-10.51l-.44-.335c-.002-.001-.003-.003-.005-.005l-125.915-95.825c5.479-9.807 12.955-18.472 21.87-25.297l158.53-121.409c29.522-22.612 70.761-22.614 100.285 0l158.531 121.409c8.914 6.826 16.392 15.492 21.869 25.297-4.317 3.286-119.529 90.966-126.019 95.905-.001.001-.002.002-.003.002l-.063.048c-3.296 2.508-3.935 7.214-1.426 10.51 1.476 1.939 3.711 2.958 5.974 2.958 1.286 0 2.573-.348 3.741-1.025.232-.131.46-.276.681-.435.037-.027.077-.045.114-.073l123.234-93.786c2.806 8.381 4.224 17.115 4.224 26.068v171.851z"/></g><path d="m190.826 279.708h-22.551c-11.337 0-20.528 9.191-20.528 20.528v3.173c0 17.565 14.239 31.804 31.804 31.804 17.565 0 31.804-14.239 31.804-31.804v-3.173c0-11.337-9.191-20.528-20.529-20.528z" fill="#ff9bff"/><path d="m321.173 279.708h22.551c11.337 0 20.528 9.191 20.528 20.528v3.173c0 17.565-14.239 31.804-31.804 31.804-17.565 0-31.804-14.239-31.804-31.804v-3.173c.001-11.337 9.192-20.528 20.529-20.528z" fill="#ff9bff"/><g><path d="m332.449 342.713c-21.672 0-39.304-17.631-39.304-39.304v-3.173c0-15.455 12.573-28.028 28.028-28.028h22.551c15.455 0 28.028 12.573 28.028 28.028v3.173c.001 21.672-17.631 39.304-39.303 39.304zm-11.275-55.505c-7.184 0-13.028 5.844-13.028 13.028v3.173c0 13.401 10.902 24.304 24.304 24.304s24.304-10.903 24.304-24.304v-3.173c0-7.184-5.845-13.028-13.028-13.028z" fill="#e207b9"/></g><g><path d="m179.551 342.713c-21.672 0-39.304-17.631-39.304-39.304v-3.173c0-15.455 12.573-28.028 28.028-28.028h22.551c15.455 0 28.028 12.573 28.028 28.028v3.173c0 21.672-17.631 39.304-39.303 39.304zm-11.276-55.505c-7.184 0-13.028 5.844-13.028 13.028v3.173c0 13.401 10.902 24.304 24.304 24.304s24.304-10.903 24.304-24.304v-3.173c0-7.184-5.845-13.028-13.028-13.028z" fill="#e207b9"/></g></g></svg>