<svg id="Capa_1" enable-background="new 0 0 512 512" height="512" viewBox="0 0 512 512" width="512" xmlns="http://www.w3.org/2000/svg"><g><path d="m309.968 409.913c-10.823 10.831-24.899 18.4-40.631 21.173v28.675h-5.342c-6.992 0-13.237 3.209-17.336 8.237v.01c-3.244 3.927-4.871 8.964-4.99 12.892-.026.079-.038 1.082-.038 1.236 0 12.335 9.922 22.365 22.365 22.365h27.707c12.356 0 22.374-10.019 22.374-22.365v-22.374-54.308c-1.314 1.537-2.68 3.029-4.109 4.459z" fill="#ff9bff"/><path d="m200.241 408.047v51.714h-5.342c-6.992 0-13.237 3.209-17.336 8.237v.01c-3.244 3.927-4.871 8.964-4.99 12.892-.026.079-.038 1.082-.038 1.236 0 12.335 9.922 22.365 22.365 22.365h27.707c9.342 0 17.344-5.729 20.694-13.859-1.074-2.624-1.669-5.495-1.669-8.506 0-.154.012-1.156.038-1.236.096-3.171 1.193-7.056 3.311-10.504v-10.635-28.294c-17.562-2.541-33.181-11.055-44.74-23.42z" fill="#ff9bff"/><path d="m314.077 400.953c-4.143 0-7.5 3.358-7.5 7.5v73.682c0 8.196-6.673 14.865-14.874 14.865h-27.707c-6.612 0-12.225-4.343-14.15-10.317-.015-.048-.036-.094-.05-.143-.11-.354-.196-.718-.279-1.083-.027-.12-.064-.237-.089-.358-.065-.319-.105-.647-.149-.973-.022-.166-.056-.331-.073-.498-.035-.353-.044-.713-.055-1.073-.003-.137-.02-.272-.02-.41 0-.082.003-.335.008-.544 0-.012 0-.026.001-.038.013-.145.021-.29.025-.436.007-.245.032-.51.063-.781.013-.118.032-.243.05-.367.021-.147.047-.298.075-.45.032-.173.065-.347.107-.529.019-.086.043-.174.064-.261.334-1.355.918-2.907 1.847-4.419.017-.027.027-.056.043-.083.312-.501.645-.993 1.026-1.454.064-.077.126-.155.187-.234 2.834-3.365 6.964-5.29 11.368-5.29h5.342c4.143 0 7.5-3.358 7.5-7.5v-25.674c0-4.142-3.357-7.5-7.5-7.5s-7.5 3.358-7.5 7.5v18.252c-3.255.233-6.407.998-9.356 2.229v-20.101c0-4.142-3.357-7.5-7.5-7.5s-7.5 3.358-7.5 7.5v33.974c-.013.026-.025.053-.038.079-.702 1.371-1.299 2.792-1.786 4.245-.016.047-.032.094-.048.141-.155.469-.299.937-.43 1.409-.031.112-.057.225-.087.337-.175.664-.327 1.327-.453 1.994-.071.371-.137.74-.192 1.109-.036.246-.07.49-.099.735-.076.625-.136 1.247-.163 1.859 0 .006-.001.013-.001.019v.012.005c-.002.027-.002.061-.004.088-.036.479-.048 1.01-.048 1.662 0 .615.025 1.225.062 1.831.011.174.026.347.04.521.035.437.078.872.131 1.303.024.198.047.396.076.594.068.476.148.947.238 1.415.037.194.075.388.116.582.1.469.21.934.333 1.394.025.094.042.191.068.285-2.692 4.283-7.4 6.94-12.587 6.94h-27.706c-8.196 0-14.865-6.668-14.865-14.852 0-.089.003-.372.01-.585.013-.145.021-.29.025-.436.069-2.263 1.108-5.72 3.275-8.343.063-.077.125-.155.186-.233 2.834-3.365 6.964-5.29 11.369-5.29h5.342c4.143 0 7.5-3.358 7.5-7.5v-48.714c0-4.142-3.357-7.5-7.5-7.5s-7.5 3.358-7.5 7.5v41.291c-8.192.585-15.75 4.493-20.991 10.921-.065.079-.128.16-.189.242-3.819 4.747-6.221 11.004-6.473 16.868-.042.505-.054 1.07-.054 1.767 0 16.467 13.398 29.865 29.865 29.865h27.706c7.915 0 15.261-3.095 20.712-8.347 5.371 5.163 12.657 8.347 20.678 8.347h27.707c16.473 0 29.874-13.398 29.874-29.865v-73.682c-.003-4.141-3.361-7.499-7.503-7.499z" fill="#e207b9"/><path d="m330.393 373.095c-3.254 14.193-10.478 26.871-20.425 36.818-13.804 13.814-32.888 22.359-53.968 22.359-36.265 0-66.615-25.285-74.392-59.176h148.785z" fill="#a4bcff"/><g><path d="m256 439.771c-39.349 0-73.061-27.34-81.703-64.998-.927-4.038 1.595-8.061 5.632-8.988 4.038-.925 8.061 1.595 8.987 5.632 6.863 29.908 33.727 53.354 67.083 53.354 33.268 0 60.202-23.349 67.081-53.352.927-4.039 4.957-6.556 8.986-5.635 4.038.926 6.561 4.949 5.635 8.986-8.344 36.401-41.018 65.001-81.701 65.001z" fill="#2115c2"/></g><path d="m125.951 322.281 53.723-21.579c.001 0 .001.001.002.001-10.205-7.135-19.346-15.679-27.15-25.339l-49.604-15.16c-18.835-5.757-39.156 2.206-49.066 19.226l-10.685 18.35c-5.697 9.784-2.941 22.547 6.635 28.588 10.053 6.342 23.272 3.041 29.201-7.143l4.799-8.243c-5.802 9.965-2.428 22.748 7.538 28.55 6.569 3.825 14.351 3.64 20.562.231 1.273-7.607 6.357-14.394 14.045-17.482z" fill="#a4bcff"/><path d="m386.049 322.302-53.723-21.579c-.001 0-.001.001-.002.001 10.205-7.135 19.346-15.679 27.15-25.339l49.604-15.16c18.835-5.757 39.156 2.206 49.066 19.226l10.684 18.349c5.697 9.784 2.941 22.547-6.635 28.588-10.053 6.342-23.272 3.041-29.201-7.143l-4.799-8.243c5.802 9.965 2.428 22.748-7.538 28.55-6.569 3.825-14.351 3.64-20.562.231-1.271-7.607-6.356-14.393-14.044-17.481z" fill="#a4bcff"/><g><path d="m101.813 349.856c-11.139 0-21.387-6.553-25.941-16.968-8.876 5.458-20.498 5.861-30.068-.177-12.764-8.052-16.853-25.415-9.114-38.705l10.684-18.349c11.72-20.129 35.46-29.433 57.74-22.625l48.184 14.726c3.961 1.21 6.19 5.403 4.98 9.364-1.211 3.962-5.407 6.192-9.365 4.98l-48.184-14.726c-15.583-4.762-32.193 1.746-40.392 15.828l-10.684 18.349c-3.722 6.392-1.857 14.677 4.155 18.47 6.481 4.088 14.93 1.933 18.718-4.573l4.799-8.243c2.084-3.58 6.675-4.793 10.255-2.708 3.58 2.084 4.792 6.675 2.708 10.255l-.003.006c-6.594 11.338 5.469 24.427 17.316 18.784 3.744-1.779 8.216-.192 9.996 3.549 1.779 3.74.19 8.215-3.549 9.995-3.885 1.85-8.067 2.768-12.235 2.768z" fill="#2115c2"/></g><g><path d="m398.216 347.232c-3.759-1.742-5.393-6.201-3.65-9.959s6.204-5.393 9.959-3.649c3.98 1.845 8.599 1.636 12.358-.553 3.088-1.798 5.291-4.692 6.203-8.147.912-3.456.425-7.059-1.374-10.147-2.084-3.579-.872-8.171 2.707-10.255 3.578-2.083 8.171-.873 10.256 2.708l4.8 8.243c3.794 6.516 12.247 8.656 18.718 4.573 6.013-3.793 7.876-12.079 4.155-18.471l-10.684-18.348c-8.2-14.083-24.814-20.588-40.393-15.828l-47.68 14.572c-3.96 1.21-8.155-1.019-9.365-4.98s1.02-8.154 4.98-9.364l47.68-14.572c22.279-6.808 46.021 2.497 57.741 22.625l10.684 18.349c7.737 13.291 3.648 30.653-9.114 38.705-9.555 6.029-21.178 5.643-30.068.177-2.328 5.325-6.302 9.983-11.697 13.126-7.992 4.648-17.794 5.101-26.216 1.195z" fill="#2115c2"/></g><path d="m420.973 148.792c-.542-.491-1.095-.982-1.647-1.453l-.082-.072c2.292-6.416 3.377-12.934 3.377-19.32 0-26.789-19.002-51.287-47.132-56.393h-.02v-.02c-6.324-34.822-42.374-55.666-75.712-43.755l-.061-.072c-11.452-13.476-27.569-20.209-43.696-20.209s-32.244 6.733-43.694 20.21l-.061.072c-33.338-11.911-69.389 8.933-75.712 43.755v.02h-.02c-28.13 5.106-47.132 29.603-47.132 56.393 0 6.385 1.085 12.904 3.377 19.32l-.082.072c-.553.471-1.105.962-1.647 1.453-33.175 30.391-10.652 85.925 34.341 85.925h4.738c-11.911-36.367-7.511-76.234 12.105-109.071 4.891-8.186 15.595-10.396 23.495-5.065 6.999 4.738 15.042 7.03 23.003 7.03 8.943 0 17.314-2.906 24.047-7.767 5.73-4.144 13.456-4.144 19.186 0 7.183 5.188 15.626 7.767 24.057 7.767 8.432 0 16.874-2.579 24.057-7.767 5.73-4.144 13.456-4.144 19.186 0 6.733 4.861 15.104 7.767 24.047 7.767 7.961 0 16.004-2.292 23.003-7.03 7.9-5.331 18.603-3.121 23.495 5.065 19.616 32.837 24.016 72.704 12.105 109.071h4.738c44.994-.001 67.516-55.534 34.341-85.926z" fill="#ffff6f"/><path d="m256.415 324.542c71.729.076 130.906-57.167 132.016-128.887.011-.734.017-1.46.017-2.177 0-24.792-6.81-47.993-18.661-67.831-4.889-8.184-15.593-10.4-23.492-5.063-6.564 4.435-14.479 7.026-23.002 7.026-8.977 0-17.284-2.881-24.047-7.767-5.732-4.141-13.462-4.141-19.193 0-6.763 4.886-15.068 7.767-24.052 7.767s-17.289-2.881-24.052-7.767c-5.732-4.141-13.462-4.14-19.194 0-6.763 4.886-15.069 7.767-24.047 7.767-8.522 0-16.435-2.59-22.999-7.024-7.877-5.321-18.579-3.157-23.458 5.001-11.605 19.403-18.386 42.026-18.687 66.211-.01.773-.012 1.556-.009 2.348.346 72.206 59.558 130.319 131.765 130.395z" fill="#ff9bff"/><g><path d="m386.632 242.217c-4.143 0-7.5-3.358-7.5-7.5s3.357-7.5 7.5-7.5c38.3 0 58.323-48.119 27.827-74.172l-.153-.133c-2.318-2.028-3.16-5.267-2.124-8.168 10.414-29.162-7.844-60.254-37.91-65.787-3.207-.522-5.743-3.075-6.222-6.295-5.61-30.155-36.889-48.14-65.771-37.82-2.927 1.044-6.195.179-8.218-2.182-.007-.008-.076-.088-.083-.096-19.91-23.434-56.076-23.397-75.956 0-2.021 2.377-5.361 3.328-8.3 2.278-28.957-10.346-60.232 7.746-65.788 37.91-.522 3.207-3.075 5.742-6.294 6.221-30.003 5.578-48.229 36.626-37.82 65.771 1.79 5.009-2.145 8.139-2.206 8.239-14.79 12.799-18.244 30.727-11.956 46.899 5.138 13.214 18.269 27.334 39.712 27.334 4.143 0 7.5 3.358 7.5 7.5s-3.357 7.5-7.5 7.5c-23.901 0-44.978-14.483-53.693-36.899-8.357-21.496-3.552-44.392 12.498-60.351-9.458-34.581 11.09-70.525 46.071-79.701 9.149-34.805 44.979-55.509 79.694-46.067 25.352-25.61 66.791-25.589 92.121 0 34.725-9.445 70.55 11.273 79.694 46.067 34.887 9.15 55.559 45.013 46.072 79.702 35.768 35.617 9.519 97.25-41.195 97.25z" fill="#f90"/></g><circle cx="309.31" cy="211.854" fill="#e207b9" r="11.311"/><circle cx="202.69" cy="211.854" fill="#e207b9" r="11.311"/><g fill="#ff9bff"><path d="m256.415 324.542-1.096-.001c-28.08-.03-54.193-8.839-75.645-23.839v55.243c0 5.894.665 11.635 1.934 17.15h148.785c1.269-5.515 1.934-11.256 1.934-17.15v-55.222c-21.536 15.043-47.756 23.849-75.912 23.819z"/><path d="m179.674 300.702-53.723 21.579c-11.794 4.737-17.468 18.177-12.638 29.933 4.777 11.625 18.035 17.222 29.697 12.538l36.663-14.727v-49.323z"/><path d="m332.327 300.702 53.723 21.579c11.794 4.737 17.468 18.177 12.638 29.933-4.777 11.625-18.035 17.222-29.697 12.538l-36.663-14.727v-49.323z"/></g><path d="m232.049 249.839h47.902c4.143 0 7.5-3.358 7.5-7.5s-3.357-7.5-7.5-7.5h-47.902c-4.143 0-7.5 3.358-7.5 7.5s3.357 7.5 7.5 7.5z" fill="#e207b9"/><path d="m388.846 315.322-41.556-16.692c2.338-1.997 4.625-4.071 6.847-6.234 26.384-25.686 41.226-60.001 41.793-96.622.441-26.901-6.838-52.436-19.704-73.974-7.238-12.113-22.896-15.02-34.13-7.43-11.332 7.657-26.743 7.857-38.458-.606-8.365-6.044-19.608-6.044-27.978 0-11.627 8.401-27.507 8.533-39.32 0-8.367-6.045-19.609-6.045-27.979 0-11.269 8.142-26.674 8.566-38.455.607-11.276-7.618-26.903-4.657-34.093 7.366-12.63 21.115-19.882 46.064-19.759 72.445.199 41.674 19.108 79.101 48.76 104.406l-41.658 16.733c-15.672 6.294-23.199 24.12-16.78 39.743 6.298 15.326 23.959 22.86 39.431 16.647l26.526-10.655c.279 4.637.935 9.234 1.966 13.719.783 3.405 3.815 5.819 7.31 5.819h148.785c3.494 0 6.525-2.413 7.309-5.818 1.033-4.485 1.688-9.081 1.968-13.72l26.526 10.654c15.456 6.209 33.126-1.306 39.431-16.647 6.415-15.619-1.111-33.446-16.782-39.741zm-257.792-121.213c-.118-22.605 5.892-45.044 17.632-64.672 2.643-4.417 8.458-5.585 12.823-2.636 16.725 11.299 38.979 11.157 55.636-.878 3.113-2.249 7.297-2.249 10.41 0 16.838 12.163 39.794 12.351 56.888 0 3.113-2.249 7.298-2.249 10.409 0 16.624 12.01 38.883 12.198 55.641.876 4.309-2.911 10.16-1.816 12.855 2.694 11.773 19.709 17.946 42.491 17.583 66.045-.505 32.63-13.737 63.211-37.259 86.109-23.359 22.738-54.466 35.394-87.116 35.394-.044 0-.091 0-.135 0h-.001l-1.095-.001c-68.138-.069-123.946-55.167-124.271-122.931zm9.161 163.684c-7.807 3.138-16.766-.644-19.964-8.428-3.251-7.909.559-16.936 8.496-20.124l43.427-17.443v33.158zm183.942 7.802h-136.313c-.947-6.764-.591-11.207-.67-15.569v-35.766c20.047 11.247 43.4 17.755 68.138 17.781 1.576-.206 34.149 2.085 69.515-17.736v35.72c-.076 4.208.286 8.738-.67 15.57zm67.594-16.231c-3.201 7.785-12.159 11.565-19.965 8.429l-31.959-12.837v-33.158l43.427 17.443c7.933 3.186 11.746 12.212 8.497 20.123z" fill="#e207b9"/></g></svg>