<svg id="Capa_1" enable-background="new 0 0 512 512" height="512" viewBox="0 0 512 512" width="512" xmlns="http://www.w3.org/2000/svg"><g><path d="m252.194 231.047c-2.125.783-4.095 1.831-5.901 3.077h85.209c15.059-21.411 23.028-46.514 23.028-72.69 0-34.255-13.554-66.407-38.165-90.532-3.007-2.948-4.755-5.895-4.675-7.884.07-1.73 1.701-4.879 6.075-8.524 11.277-9.404 12.796-26.17 3.391-37.448-9.403-11.278-26.169-12.796-37.448-3.392-15.515 12.938-24.447 29.711-25.152 47.229-.693 17.258 6.617 34.303 20.584 47.994 14.325 14.042 22.213 32.707 22.213 52.558.001 30.795-19.755 58.771-49.159 69.612z" fill="#b98eff"/><path d="m258.589 65.608-138.314 168.516h49.701l105.748-128.839c-10.551-11.722-16.51-25.527-17.135-39.677z" fill="#ddbeff"/><path d="m258.589 446.378-138.314-168.516h49.701l105.748 128.839c-10.551 11.722-16.51 25.526-17.135 39.677z" fill="#ddbeff"/><path d="m58.697 234.124h61.577l-20.583-25.14c-13.103-16.004-32.696-25.285-53.379-25.285h-20.304c-9.737 0-15.097 11.316-8.929 18.849l29.087 35.527c3.55-2.487 7.868-3.951 12.531-3.951z" fill="#ff9bff"/><path d="m58.697 277.862c-4.663 0-8.982-1.464-12.531-3.951l-29.087 35.527c-6.168 7.534-.808 18.849 8.929 18.849h20.304c20.684 0 40.276-9.281 53.379-25.285l20.583-25.141h-61.577z" fill="#ff9bff"/><path d="m354.53 350.551c0-26.176-7.969-51.28-23.028-72.69h-85.209c1.806 1.247 3.776 2.294 5.901 3.077 29.404 10.842 49.16 38.817 49.16 69.613 0 19.851-7.888 38.517-22.213 52.558-13.967 13.692-21.278 30.737-20.584 47.996.704 17.517 9.637 34.289 25.153 47.227 4.972 4.146 11.009 6.168 17.013 6.168 7.615 0 15.176-3.255 20.435-9.562 9.404-11.277 7.885-28.044-3.393-37.448-4.372-3.645-6.004-6.793-6.074-8.523-.08-1.989 1.667-4.937 4.676-7.885 24.609-24.123 38.163-56.275 38.163-90.531z" fill="#b98eff"/><path d="m408.352 255.994c-5.442-7.001-8.066-14.582-8.415-21.87h-341.24c-12.078 0-21.869 9.791-21.869 21.869 0 12.078 9.791 21.869 21.869 21.869h341.243c.349-7.289 2.973-14.87 8.412-21.868z" fill="#88f8d8"/><path d="m496.446 251.546c-9.936-18.548-20.974-32.51-32.809-41.502-10.572-8.033-21.707-11.933-32.198-11.28-27.13 1.692-41.95 32.962-23.086 57.23-18.85 24.253-4.058 55.535 23.086 57.228 10.491.655 21.626-3.247 32.198-11.278 11.836-8.993 22.874-22.957 32.809-41.502 1.492-2.786 1.494-6.111 0-8.896z" fill="#ff9bff"/><g><path d="m39.171 241.37-27.894-34.071c-10.183-12.437-1.322-31.101 14.731-31.101h20.304c23.025 0 44.597 10.218 59.183 28.034l19.223 23.48c2.624 3.205 2.153 7.93-1.052 10.555-3.204 2.623-7.931 2.153-10.554-1.052l-19.223-23.48c-11.726-14.321-29.067-22.535-47.577-22.535h-20.304c-3.408 0-5.292 3.951-3.125 6.597l27.894 34.071c2.624 3.205 2.153 7.93-1.052 10.555-3.197 2.617-7.924 2.16-10.554-1.053z" fill="#e207b9"/></g><g><path d="m46.312 335.787h-20.304c-16.072 0-24.904-18.678-14.731-31.101l27.656-33.779c2.623-3.206 7.351-3.676 10.554-1.052 3.205 2.624 3.676 7.35 1.052 10.555l-27.656 33.779c-2.154 2.632-.303 6.598 3.125 6.598h20.304c18.51 0 35.851-8.214 47.577-22.536l18.834-23.004c2.623-3.206 7.351-3.675 10.554-1.052 3.205 2.624 3.676 7.35 1.052 10.555l-18.834 23.004c-14.586 17.815-36.158 28.033-59.183 28.033z" fill="#e207b9"/></g><g fill="#6d00ca"><path d="m118.433 236.369c3.199 2.627 7.927 2.164 10.555-1.039l125.13-152.453c2.364 7.461 6.434 15.38 11.865 22.452l-99.394 121.1c-2.628 3.202-2.163 7.928 1.039 10.556 3.215 2.64 7.94 2.148 10.555-1.039l97.98-119.375c11.432 12.316 17.691 28.123 17.691 44.863 0 27.669-17.785 52.816-44.254 62.575-1.563.576-3.107 1.282-4.586 2.097-6.787 3.738-4.083 14.071 3.625 14.071 2.673 0 3.479-1.111 6.15-2.093 32.339-11.923 54.066-42.726 54.066-76.65 0-21.883-8.688-42.45-24.464-57.914-11.39-11.168-18.992-26.153-18.339-42.337.617-15.372 8.594-30.206 22.46-41.769 8.086-6.741 20.144-5.648 26.885 2.435 6.756 8.103 5.668 20.127-2.435 26.883-11.452 9.547-11.239 18.321-1.847 27.526 23.16 22.703 35.915 52.952 35.915 85.176 0 23.598-6.941 46.44-20.071 66.055-2.305 3.442-1.382 8.1 2.061 10.405 3.441 2.305 8.101 1.382 10.405-2.061 14.79-22.093 22.606-47.819 22.606-74.399 0-36.287-14.353-70.341-40.415-95.889-.957-.938-1.593-1.726-1.991-2.298.533-.716 1.461-1.757 2.944-2.994 14.469-12.066 16.416-33.541 4.349-48.011-12.037-14.436-33.573-16.387-48.012-4.35-17.164 14.314-27.052 33.025-27.842 52.688-.032.804-.026 1.607-.028 2.41l-133.64 162.822c-2.63 3.202-2.165 7.929 1.037 10.557z"/><path d="m362.03 350.552c0-26.943-8.018-52.967-23.186-75.258-2.329-3.423-6.995-4.313-10.419-1.982-3.425 2.33-4.313 6.996-1.982 10.42 13.468 19.793 20.587 42.899 20.587 66.82 0 32.223-12.754 62.473-35.913 85.175-9.373 9.185-9.628 17.963 1.844 27.526 8.101 6.755 9.194 18.78 2.437 26.884-6.78 8.129-18.82 9.162-26.884 2.437-13.867-11.563-21.844-26.396-22.462-41.768-.647-16.053 6.805-31.032 18.339-42.339 15.776-15.462 24.464-36.03 24.464-57.914 0-33.923-21.727-64.726-54.064-76.649-.897-.331-1.781-.738-2.628-1.211-8.655-4.831-15.984 8.256-7.313 13.097 1.524.852 3.122 1.587 4.749 2.188 26.471 9.76 44.255 34.907 44.255 62.575 0 16.741-6.259 32.548-17.691 44.863l-98.677-120.226c-2.628-3.202-7.356-3.667-10.555-1.039-3.202 2.628-3.667 7.354-1.039 10.556l100.092 121.949c-5.325 6.936-9.407 14.736-11.865 22.452l-126.317-153.897c-2.627-3.203-7.356-3.666-10.555-1.039-3.202 2.628-3.667 7.354-1.039 10.556l134.827 164.267c.002.804-.004 1.607.028 2.412.791 19.662 10.679 38.373 27.844 52.686 14.376 11.987 35.883 10.193 48.01-4.35 12.066-14.47 10.121-35.944-4.351-48.012-1.482-1.235-2.409-2.276-2.941-2.992.397-.573 1.034-1.361 1.991-2.299 26.061-25.548 40.414-59.602 40.414-95.888z"/></g><g><path d="m396.941 285.362h-338.244c-16.194 0-29.369-13.175-29.369-29.369s13.175-29.369 29.369-29.369h338.24c4.143 0 7.5 3.358 7.5 7.5s-3.358 7.5-7.5 7.5h-338.24c-7.923 0-14.369 6.446-14.369 14.369s6.446 14.369 14.369 14.369h338.243c4.143 0 7.5 3.358 7.5 7.5.001 4.142-3.357 7.5-7.499 7.5z" fill="#007ea8"/></g><g><path d="m430.971 320.707c-15.519-.967-28.563-9.92-34.893-23.947-5.922-13.122-4.688-28.008 3.158-40.766-7.847-12.758-9.083-27.643-3.163-40.763 6.331-14.03 19.377-22.985 34.898-23.953 31.831-1.984 56.987 28.542 72.084 56.723 2.683 5.002 2.684 10.977.002 15.983-15.134 28.246-40.297 58.71-72.086 56.723zm.933-114.458c-9.87.616-18.154 6.28-22.157 15.151-4.32 9.574-2.628 20.785 4.527 29.991 2.105 2.708 2.105 6.498 0 9.205-7.155 9.204-8.845 20.417-4.524 29.994 4.002 8.868 12.284 14.53 22.154 15.146 24.808 1.555 45.988-26.548 57.93-48.837.309-.576.31-1.235.002-1.808 0-.001-.001-.002-.002-.004-11.9-22.214-33.154-50.374-57.93-48.838z" fill="#e207b9"/></g></g></svg>