<svg id="Capa_1" enable-background="new 0 0 512 512" height="512" viewBox="0 0 512 512" width="512" xmlns="http://www.w3.org/2000/svg"><g><path d="m407.608 207.139c-2.025 3.958-5.327 7.324-9.706 9.393-17.975 8.484-38.789 8.484-56.764 0-8.988-4.237-18.68-6.351-28.372-6.351-9.702 0-19.405 2.114-28.382 6.351-8.988 4.237-18.68 6.361-28.382 6.361s-19.395-2.124-28.382-6.361c-8.978-4.237-18.68-6.351-28.382-6.351-9.692 0-19.384 2.114-28.372 6.351s-18.69 6.361-28.382 6.361-19.395-2.124-28.382-6.361c-4.379-2.069-7.681-5.436-9.706-9.393-12.056 22.232-19.373 47.409-20.576 74.18 6.111-3.482 13.126-5.612 20.731-5.889.644-.02 1.288-.03 1.932-.03 23.3 0 43.026 15.208 49.84 36.233 6.814-21.025 26.55-36.233 49.84-36.233 23.3 0 43.026 15.208 49.84 36.233 6.814-21.025 26.54-36.233 49.84-36.233 23.289 0 43.026 15.208 49.84 36.233 6.814-21.025 26.54-36.233 49.84-36.233.644 0 1.288.01 1.932.03 7.605.277 14.621 2.407 20.731 5.889-1.205-26.772-8.522-51.948-20.578-74.18z" fill="#f90"/><path d="m406.27 185.852c-20.045-29.065-48.309-52.037-81.396-65.577-14.667 16.431-35.312 31.841-61.565 45.905-4.577 2.455-10.04 2.451-14.617 0-26.25-14.063-46.897-29.473-61.564-45.904-33.087 13.54-61.35 36.511-81.394 65.576-7.294 10.576-3.249 25.192 8.368 30.68 8.988 4.237 18.69 6.361 28.382 6.361s19.394-2.124 28.382-6.361 18.68-6.351 28.372-6.351c9.702 0 19.405 2.114 28.382 6.351 8.988 4.237 18.68 6.361 28.382 6.361s19.395-2.124 28.382-6.361c8.978-4.237 18.68-6.351 28.382-6.351 9.692 0 19.384 2.114 28.372 6.351 17.975 8.484 38.789 8.484 56.764 0 11.616-5.488 15.662-20.103 8.368-30.68z" fill="#ff9bff"/><path d="m350.034 59.367c-2.781-44.577-54.159-68.927-94.034-37.932-39.849-30.972-91.25-6.668-94.031 37.932-1.076 17.238 5.334 35.534 18.53 52.905 14.776 19.447 37.72 37.583 68.192 53.909 4.577 2.451 10.04 2.455 14.617 0 30.476-16.325 53.416-34.462 68.192-53.909 13.199-17.371 19.606-35.667 18.534-52.905z" fill="#ff63ed"/><g><path d="m83.996 285.64c-.159 0-.319-.005-.48-.016-4.134-.262-7.273-3.825-7.011-7.958 1.623-25.633 8.543-50.108 20.568-72.744 1.942-3.657 6.485-5.048 10.141-3.105 3.658 1.943 5.048 6.484 3.104 10.142-11.016 20.739-17.357 43.165-18.843 66.654-.253 3.973-3.553 7.027-7.479 7.027z" fill="#f95116"/></g><g><path d="m427.969 285.088c-3.915 0-7.212-3.039-7.475-7.003-1.537-23.127-7.788-45.226-18.576-65.685-1.933-3.664-.528-8.2 3.136-10.132 3.665-1.932 8.201-.527 10.131 3.136 11.776 22.33 18.598 46.449 20.276 71.687.274 4.133-2.852 7.706-6.986 7.981-.17.01-.338.016-.506.016z" fill="#f95116"/></g><circle cx="303.139" cy="74.792" fill="#e207b9" r="10.001"/><g><path d="m277.178 109.248h-42.355c-4.142 0-7.5-3.358-7.5-7.5s3.357-7.5 7.5-7.5h42.355c4.142 0 7.5 3.358 7.5 7.5s-3.357 7.5-7.5 7.5z" fill="#e207b9"/></g><circle cx="208.863" cy="74.792" fill="#e207b9" r="10.001"/><path d="m412.443 181.594c-19.184-27.817-45.145-49.82-75.474-64.149 16.254-21.13 21.613-41.448 20.55-58.543 0-.001 0-.001 0-.002-3.037-48.692-57.311-76.29-101.52-46.7-44.184-29.565-98.477-2.02-101.515 46.699v.001c-1.071 17.153 4.351 37.516 20.547 58.546-30.327 14.329-56.288 36.332-75.471 64.148-9.895 14.347-4.498 34.239 11.343 41.722 19.647 9.264 42.818 9.591 63.16 0 16.421-7.741 34.93-7.282 50.358 0 19.771 9.319 42.936 9.533 63.164-.001 15.464-7.299 33.973-7.721 50.353 0 20.072 9.474 43.093 9.475 63.169-.001 15.793-7.463 21.256-27.338 11.336-41.72zm-242.989-121.76c2.421-38.815 47.007-59.631 81.943-32.478 2.703 2.093 6.509 2.095 9.205 0 34.945-27.162 79.526-6.337 81.947 32.478v.001c.958 15.421-4.927 31.985-17.021 47.9-16.457 21.662-41.873 39.038-65.762 51.835-.001.001-.003.002-.004.002-2.383 1.278-5.202 1.244-7.529-.003-.002-.001-.003-.001-.005-.002-.015-.008-.029-.016-.044-.024-23.763-12.733-49.265-30.162-65.709-51.805 0-.001-.001-.001-.001-.002-12.097-15.923-17.982-32.487-17.02-47.902zm225.246 149.916c-16.003 7.554-34.359 7.553-50.364-.002-19.701-9.286-42.928-9.544-63.151 0-15.964 7.527-34.37 7.543-50.365.001-19.49-9.198-42.724-9.632-63.154-.001-15.605 7.358-34.079 7.679-50.361.002-7.462-3.526-10.047-12.9-5.398-19.641 18.47-26.781 43.738-47.74 73.304-60.864 16.787 17.507 38.476 32.048 59.94 43.546 6.891 3.689 15.028 3.578 21.699 0 21.492-11.514 43.191-26.078 59.94-43.546 29.567 13.124 54.835 34.083 73.306 60.865 4.649 6.741 2.061 16.116-5.396 19.64z" fill="#e207b9"/><path d="m184.673 504.5h-25.041c-34.582 0-64.564-23.934-72.234-57.65l-25.986-114.243c-6.441-28.312 14.131-56.12 43.137-57.177.644-.02 1.288-.03 1.932-.03 23.3 0 43.026 15.208 49.84 36.233z" fill="#7181ff"/><path d="m256.001 311.632v192.868h-71.328l-28.352-192.868c6.814-21.025 26.55-36.233 49.84-36.233 23.3.001 43.026 15.208 49.84 36.233z" fill="#a4bcff"/><path d="m355.681 311.632-28.352 192.868h-71.328v-192.868c6.814-21.025 26.54-36.233 49.84-36.233 23.289.001 43.026 15.208 49.84 36.233z" fill="#7181ff"/><path d="m450.59 332.607-25.987 114.243c-7.669 33.716-37.652 57.65-72.234 57.65h-25.041l28.352-192.868c6.814-21.025 26.54-36.233 49.84-36.233.644 0 1.288.01 1.932.03 29.007 1.058 49.579 28.866 43.138 57.178z" fill="#a4bcff"/><path d="m407.686 267.933c-21.85-.665-40.937 9.966-52.005 26.612-10.897-16.389-29.396-26.645-49.84-26.645s-38.942 10.256-49.839 26.645c-10.897-16.389-29.396-26.645-49.84-26.645s-38.942 10.256-49.839 26.645c-11.175-16.808-30.342-27.278-52.045-26.61-33.437 1.219-57.718 33.184-50.177 66.335l25.986 114.244c8.395 36.909 41.281 63.486 79.545 63.486h192.738c37.78 0 71.041-26.1 79.547-63.486l25.986-114.244c7.517-33.045-16.612-65.111-50.217-66.337zm-201.526 14.967c19.145 0 36.017 11.993 42.34 29.964v184.137h-57.349l-27.145-184.654c6.463-17.683 23.195-29.447 42.154-29.447zm-46.528 214.101c-31.285 0-57.981-21.306-64.92-51.813l-25.987-114.245c-5.458-23.983 12.068-47.143 36.057-48.017 20.736-.645 38.03 12.191 44.213 30.444l26.994 183.631zm103.868-184.137c6.324-17.971 23.196-29.964 42.34-29.964 18.96 0 35.692 11.764 42.155 29.447l-27.145 184.654h-57.35zm179.777 18.079-25.987 114.244c-6.939 30.507-33.635 51.813-64.92 51.813h-16.359l8.93-60.747 18.064-122.883c6.208-18.324 23.554-31.078 44.174-30.445 24.061.876 41.551 24.055 36.098 48.018z" fill="#2115c2"/></g></svg>