<svg id="Capa_1" enable-background="new 0 0 512 512" height="512" viewBox="0 0 512 512" width="512" xmlns="http://www.w3.org/2000/svg"><g><path d="m248.867 319.903c0-20.617 16.713-37.33 37.33-37.33s37.33 16.713 37.33 37.33c0 5.233-1.081 10.212-3.025 14.732 37.699-.093 78.844-9.284 126.984-38.501-.041-1.778-.112-3.567-.224-5.335-4.684-72.582-77.114-117.901-147.928-96.766v-63.02h-86.696v63.03c-70.794-21.114-143.243 24.144-147.928 96.757-.732 11.36.244 22.954 2.886 34.64 68.61-28.719 123.642-11.373 181.788.636-.334-2.009-.517-4.069-.517-6.173z" fill="#88f8d8"/><path d="m212.636 78.043h86.694c3.095 0 6.064.536 8.825 1.512v-40.63c0-17.355-14.069-31.424-31.424-31.424h-41.489c-17.355 0-31.424 14.069-31.424 31.424v40.628c2.758-.975 5.725-1.51 8.818-1.51z" fill="#ffff6f"/><path d="m299.33 78.043h-86.694c-14.629 0-26.487 11.859-26.487 26.487 0 14.629 11.859 26.487 26.487 26.487h86.694c14.629 0 26.487-11.859 26.487-26.487 0-14.629-11.858-26.487-26.487-26.487z" fill="#88f8d8"/><g><path d="m308.155 84.054c-4.143 0-7.5-3.358-7.5-7.5v-37.629c0-13.192-10.732-23.925-23.924-23.925h-41.489c-13.192 0-23.925 10.732-23.925 23.925v37.627c0 4.142-3.357 7.5-7.5 7.5s-7.5-3.358-7.5-7.5v-37.627c0-21.464 17.462-38.925 38.925-38.925h41.489c21.463 0 38.924 17.461 38.924 38.925v37.629c0 4.142-3.358 7.5-7.5 7.5z" fill="#f90"/></g><path d="m405.683 203.33c-28.571-19.889-64.105-26.609-98.849-18.979v-46.679c15.14-3.427 26.482-16.981 26.482-33.142 0-18.741-15.247-33.987-33.987-33.987h-86.693c-18.74 0-33.987 15.247-33.987 33.988 0 16.164 11.346 29.719 26.489 33.144v46.689c-34.751-7.629-70.304-.905-98.876 18.991-37.842 26.35-57.513 72.745-45.981 123.739.919 4.06 4.951 6.571 8.97 5.661 4.04-.914 6.574-4.93 5.661-8.97-9.469-41.868 4.167-83.224 39.922-108.122 27.453-19.116 62.32-24.376 95.661-14.433 4.832 1.439 9.644-2.194 9.644-7.187v-55.526h71.696v55.516c0 5.013 4.837 8.625 9.645 7.187 33.327-9.946 68.183-4.69 95.634 14.42 26.238 18.267 42.081 46.449 42.875 80.667.096 4.141 3.535 7.447 7.671 7.325 4.141-.096 7.421-3.53 7.325-7.671-.898-39.233-20.026-72.25-49.302-92.631zm-212.034-98.8c0-10.47 8.518-18.987 18.987-18.987h86.693c10.47 0 18.987 8.518 18.987 18.988 0 10.456-8.496 18.963-18.946 18.985-.012 0-.024-.002-.036-.002h-86.696c-.013 0-.026.002-.04.002-10.452-.021-18.949-8.529-18.949-18.986z" fill="#007ea8"/><circle cx="355.776" cy="257.438" fill="#ff9bff" r="19.373"/><path d="m447.485 296.134c-48.14 29.217-89.285 38.408-126.984 38.501-5.715 13.29-18.921 22.598-34.305 22.598-18.513 0-33.87-13.48-36.813-31.158-58.147-12.009-113.178-29.355-181.788-.636 5.223 23.178 16.959 46.701 34.813 69.412 30.057 38.247 76.728 73.923 138.712 106.033 9.308 4.816 20.424 4.827 29.732 0 61.984-32.11 108.655-67.786 138.712-106.033 25.443-32.374 38.47-66.394 37.921-98.717z" fill="#ff63ed"/><circle cx="286.197" cy="319.904" fill="#ff9bff" r="37.33"/><g fill="#e207b9"><circle cx="308.923" cy="391.235" r="11.232"/><circle cx="203.049" cy="391.235" r="11.232"/><g><path d="m279.769 414.007h-47.566c-4.143 0-7.5 3.358-7.5 7.5s3.357 7.5 7.5 7.5h47.566c4.143 0 7.5-3.358 7.5-7.5s-3.357-7.5-7.5-7.5z"/><path d="m355.776 284.311c14.817 0 26.873-12.055 26.873-26.874 0-14.818-12.056-26.873-26.873-26.873-14.818 0-26.874 12.055-26.874 26.873 0 14.819 12.056 26.874 26.874 26.874zm0-38.747c6.547 0 11.873 5.326 11.873 11.873s-5.326 11.874-11.873 11.874-11.874-5.327-11.874-11.874 5.327-11.873 11.874-11.873z"/><path d="m454.985 296.007c-.099-5.778-6.443-9.287-11.391-6.285-38.552 23.397-74.762 35.322-113.113 37.155.357-2.274.545-4.602.545-6.974 0-24.719-20.11-44.83-44.83-44.83-23.656 0-43.077 18.42-44.706 41.669-3.192-.686-6.367-1.378-9.489-2.058-51.134-11.138-104.01-22.656-167.301 3.836-3.357 1.405-5.221 5.017-4.421 8.567 5.514 24.471 17.704 48.83 36.231 72.397 30.725 39.096 78.217 75.452 141.162 108.06 11.462 5.931 25.155 5.947 36.629-.001 62.941-32.606 110.434-68.962 141.158-108.059 26.436-33.633 40.103-69.415 39.526-103.477zm-168.788-5.933c16.448 0 29.83 13.381 29.83 29.83 0 16.416-13.354 29.83-29.83 29.83s-29.83-13.423-29.83-29.83c0-16.449 13.382-29.83 29.83-29.83zm117.47 100.143c-29.393 37.4-75.239 72.394-136.268 104.009-7.141 3.702-15.678 3.701-22.83-.001-61.027-31.614-106.873-66.607-136.265-104.009-15.556-19.787-26.247-40.025-31.843-60.252 56.24-21.556 102.971-11.378 152.347-.623 4.694 1.023 9.51 2.072 14.337 3.092.059.205.127.406.189.609.034.112.069.225.104.336 5.835 18.7 23.107 31.354 42.757 31.354 16.159 0 31.065-8.763 38.966-22.654 39.142-.852 75.854-11.298 114.247-32.583-2.738 26.608-14.937 54.252-35.741 80.722z"/></g></g></g></svg>