<svg id="Capa_1" enable-background="new 0 0 512 512" height="512" viewBox="0 0 512 512" width="512" xmlns="http://www.w3.org/2000/svg"><g><path d="m448.438 8.561h-384.876c-30.962 0-56.062 25.099-56.062 56.062v268.155c0 30.962 25.1 56.062 56.062 56.062h66.541c-.467-2.851-.37-5.858.399-8.885l10.654-41.915c2.455-9.657 11.148-16.417 21.112-16.417h187.464c9.964 0 18.658 6.76 21.112 16.417l10.654 41.915c.769 3.026.866 6.034.399 8.885h66.541c30.962 0 56.062-25.1 56.062-56.062v-268.155c0-30.963-25.1-56.062-56.062-56.062z" fill="#ff9bff"/><g fill="#a4bcff"><path d="m182.312 407.105v48.498h-16.007c-13.209 0-23.918 10.709-23.918 23.918s10.709 23.918 23.918 23.918h39.925c13.209 0 23.918-10.709 23.918-23.918v-72.417h-47.836z"/><path d="m293.628 407.105v48.498h-16.007c-13.209 0-23.918 10.709-23.918 23.918s10.709 23.918 23.918 23.918h39.925c13.209 0 23.918-10.709 23.918-23.918v-72.417h-47.836z"/></g><g><g><path d="m206.229 510.939h-39.925c-17.324 0-31.418-14.094-31.418-31.418s14.094-31.418 31.418-31.418h8.507v-37.999c0-4.142 3.357-7.5 7.5-7.5s7.5 3.358 7.5 7.5v45.499c0 4.142-3.357 7.5-7.5 7.5h-16.007c-9.053 0-16.418 7.365-16.418 16.418s7.365 16.418 16.418 16.418h39.925c9.053 0 16.418-7.365 16.418-16.418v-69.417c0-4.142 3.357-7.5 7.5-7.5s7.5 3.358 7.5 7.5v69.417c0 17.324-14.093 31.418-31.418 31.418z" fill="#2115c2"/></g><g><path d="m317.546 510.939h-39.925c-17.324 0-31.418-14.094-31.418-31.418s14.094-31.418 31.418-31.418h8.507v-37.999c0-4.142 3.357-7.5 7.5-7.5s7.5 3.358 7.5 7.5v45.499c0 4.142-3.357 7.5-7.5 7.5h-16.007c-9.053 0-16.418 7.365-16.418 16.418s7.365 16.418 16.418 16.418h39.925c9.053 0 16.418-7.365 16.418-16.418v-69.417c0-4.142 3.357-7.5 7.5-7.5s7.5 3.358 7.5 7.5v69.417c0 17.324-14.094 31.418-31.418 31.418z" fill="#2115c2"/></g></g><path d="m182.312 407.105h47.836v30.159h-47.836z" fill="#2115c2"/><path d="m293.628 407.105h47.836v30.159h-47.836z" fill="#2115c2"/><g fill="#ffff6f"><circle cx="67.819" cy="328.52" r="19.684"/><circle cx="444.181" cy="328.52" r="19.684"/><circle cx="67.819" cy="68.879" r="19.684"/><circle cx="444.181" cy="68.879" r="19.684"/></g><path d="m400.14 113.673h-288.28c-18.771 0-33.988 15.217-33.988 33.988v103.145c0 18.771 15.217 33.988 33.988 33.988h288.28c18.771 0 33.988-15.217 33.988-33.988v-103.145c0-18.771-15.217-33.988-33.988-33.988z" fill="#b98eff"/><circle cx="170.268" cy="199.234" fill="#ff63ed" r="32.31"/><path d="m309.422 199.234c0-17.844 14.466-32.31 32.31-32.31h-171.464c17.844 0 32.31 14.466 32.31 32.31s-14.466 32.31-32.31 32.31h171.463c-17.844-.001-32.309-14.466-32.309-32.31z" fill="#ff9bff"/><circle cx="341.732" cy="199.234" fill="#ff63ed" r="32.31"/><path d="m381.499 379.954-10.654-41.915c-2.455-9.657-11.148-16.417-21.112-16.417h-187.465c-9.964 0-18.658 6.76-21.112 16.417l-10.654 41.915c-3.5 13.769 6.905 27.15 21.112 27.15h208.773c14.206.001 24.612-13.38 21.112-27.15z" fill="#ff63ed"/><path d="m201.901 348.327h-12.439c-5.422 0-9.816 4.395-9.816 9.816v12.439c0 5.422 4.395 9.816 9.816 9.816h12.439c5.422 0 9.817-4.395 9.817-9.816v-12.439c-.001-5.421-4.396-9.816-9.817-9.816z" fill="#ff9bff"/><path d="m310.099 348.327h12.439c5.422 0 9.816 4.395 9.816 9.816v12.439c0 5.422-4.395 9.816-9.816 9.816h-12.439c-5.422 0-9.816-4.395-9.816-9.816v-12.439c-.001-5.421 4.394-9.816 9.816-9.816z" fill="#ff9bff"/><g><path d="m67.818 355.705c-14.989 0-27.184-12.195-27.184-27.185 0-14.989 12.194-27.184 27.184-27.184s27.185 12.195 27.185 27.184c0 14.99-12.195 27.185-27.185 27.185zm0-39.369c-6.718 0-12.184 5.466-12.184 12.184 0 6.719 5.466 12.185 12.184 12.185 6.719 0 12.185-5.466 12.185-12.185 0-6.718-5.466-12.184-12.185-12.184z" fill="#f95116"/></g><g><path d="m444.182 355.705c-14.989 0-27.185-12.195-27.185-27.185 0-14.989 12.195-27.184 27.185-27.184s27.184 12.195 27.184 27.184c-.001 14.99-12.195 27.185-27.184 27.185zm0-39.369c-6.719 0-12.185 5.466-12.185 12.184 0 6.719 5.466 12.185 12.185 12.185 6.718 0 12.184-5.466 12.184-12.185-.001-6.718-5.467-12.184-12.184-12.184z" fill="#f95116"/></g><g><path d="m67.818 96.064c-14.989 0-27.184-12.195-27.184-27.185 0-14.989 12.194-27.184 27.184-27.184s27.185 12.195 27.185 27.184c0 14.99-12.195 27.185-27.185 27.185zm0-39.369c-6.718 0-12.184 5.466-12.184 12.184 0 6.719 5.466 12.185 12.184 12.185 6.719 0 12.185-5.466 12.185-12.185 0-6.718-5.466-12.184-12.185-12.184z" fill="#f95116"/></g><g><path d="m444.182 96.064c-14.989 0-27.185-12.195-27.185-27.185 0-14.989 12.195-27.184 27.185-27.184s27.184 12.195 27.184 27.184c-.001 14.99-12.195 27.185-27.184 27.185zm0-39.369c-6.719 0-12.185 5.466-12.185 12.184 0 6.719 5.466 12.185 12.185 12.185 6.718 0 12.184-5.466 12.184-12.185-.001-6.718-5.467-12.184-12.184-12.184z" fill="#f95116"/></g><g><path d="m400.141 292.294h-288.282c-22.876 0-41.487-18.611-41.487-41.488v-103.145c0-22.876 18.611-41.488 41.487-41.488h288.281c22.876 0 41.487 18.611 41.487 41.488v103.146c.001 22.876-18.61 41.487-41.486 41.487zm-288.282-171.121c-14.605 0-26.487 11.882-26.487 26.488v103.146c0 14.605 11.882 26.488 26.487 26.488h288.281c14.605 0 26.487-11.882 26.487-26.488v-103.146c0-14.605-11.882-26.488-26.487-26.488z" fill="#6d00ca"/></g><circle cx="308.374" cy="50.091" fill="#e207b9" r="11.112"/><circle cx="203.626" cy="50.091" fill="#e207b9" r="11.112"/><g fill="#e207b9"><path d="m341.731 159.424h-171.462c-21.951 0-39.81 17.858-39.81 39.81s17.858 39.81 39.81 39.81h171.463c21.951 0 39.81-17.858 39.81-39.81s-17.859-39.81-39.811-39.81zm-196.272 39.81c0-13.68 11.13-24.81 24.81-24.81s24.81 11.129 24.81 24.81-11.13 24.81-24.81 24.81-24.81-11.13-24.81-24.81zm55.922 24.809c5.68-7.106 8.697-15.885 8.697-24.81 0-8.822-2.966-17.639-8.697-24.81h109.238c-5.654 7.073-8.697 15.846-8.697 24.81 0 8.916 3.017 17.703 8.697 24.81zm140.35 0c-13.68 0-24.81-11.129-24.81-24.81s11.13-24.81 24.81-24.81 24.81 11.129 24.81 24.81-11.13 24.81-24.81 24.81z"/><path d="m232.47 87.542h47.061c4.143 0 7.5-3.358 7.5-7.5s-3.357-7.5-7.5-7.5h-47.061c-4.143 0-7.5 3.358-7.5 7.5s3.357 7.5 7.5 7.5z"/><path d="m448.438 1.061h-384.876c-35.048 0-63.562 28.513-63.562 63.561v268.155c0 35.048 28.514 63.562 63.562 63.562h60.911c4.449 10.891 14.963 18.266 27.141 18.266h208.772c12.154 0 22.688-7.362 27.142-18.266h60.911c35.048 0 63.562-28.514 63.562-63.562v-268.155c-.001-35.048-28.515-63.561-63.563-63.561zm-88.052 398.544h-208.773c-9.327 0-16.137-8.777-13.844-17.803l10.654-41.915c1.611-6.338 7.305-10.765 13.844-10.765h187.465c6.539 0 12.232 4.427 13.844 10.765l10.653 41.914c.009.034.012.068.021.102 2.251 9.118-4.692 17.702-13.864 17.702zm136.614-66.828c0 26.777-21.784 48.562-48.562 48.562h-59.035c-.158-1.123-.382-2.232-.636-3.232l-10.654-41.916c-3.304-12.994-14.974-22.069-28.381-22.069h-187.464c-13.407 0-25.077 9.075-28.381 22.069l-10.655 41.917c-.259 1.019-.481 2.135-.635 3.231h-59.035c-26.778 0-48.562-21.785-48.562-48.562v-268.155c0-26.777 21.784-48.562 48.562-48.562h384.877c26.777 0 48.562 21.785 48.562 48.562v268.155z"/><path d="m201.901 340.827h-12.439c-9.548 0-17.316 7.768-17.316 17.316v12.439c0 9.548 7.769 17.317 17.316 17.317h12.439c9.548 0 17.316-7.769 17.316-17.317v-12.439c.001-9.548-7.768-17.316-17.316-17.316zm2.317 29.756c0 1.277-1.039 2.317-2.316 2.317h-12.439c-1.277 0-2.316-1.04-2.316-2.317v-12.439c0-1.277 1.039-2.316 2.316-2.316h12.439c1.277 0 2.316 1.039 2.316 2.316z"/><path d="m322.538 340.827h-12.439c-9.548 0-17.316 7.768-17.316 17.316v12.439c0 9.548 7.769 17.317 17.316 17.317h12.439c9.548 0 17.316-7.769 17.316-17.317v-12.439c0-9.548-7.768-17.316-17.316-17.316zm2.316 29.756c0 1.277-1.039 2.317-2.316 2.317h-12.439c-1.277 0-2.316-1.04-2.316-2.317v-12.439c0-1.277 1.039-2.316 2.316-2.316h12.439c1.277 0 2.316 1.039 2.316 2.316z"/></g></g></svg>