<svg id="Capa_1" enable-background="new 0 0 512 512" height="512" viewBox="0 0 512 512" width="512" xmlns="http://www.w3.org/2000/svg"><g><path d="m334.049 83.092v291.938c-2.348-.257-4.718-.397-7.131-.397-36.886 0-66.578 30.742-64.862 67.993 1.523 33.273 28.523 60.273 61.796 61.796 1.029.043 2.048.075 3.067.075 35.857 0 64.927-29.08 64.927-64.937v-330.653c45.359 0 86.21-27.441 103.362-69.432 6.234-15.262-4.992-31.975-21.479-31.975h-64.087c-41.749 0-75.593 33.844-75.593 75.592z" fill="#88f8d8"/><g fill="#7181ff"><path d="m247.461 137.019h-203.5c-15.96 0-28.898 12.938-28.898 28.898 0 15.96 12.938 28.898 28.898 28.898h203.5c15.96 0 28.898-12.938 28.898-28.898 0-15.96-12.938-28.898-28.898-28.898z"/><path d="m247.461 7.5h-203.5c-15.96 0-28.898 12.938-28.898 28.898 0 15.96 12.938 28.898 28.898 28.898h203.5c15.96 0 28.898-12.938 28.898-28.898 0-15.96-12.938-28.898-28.898-28.898z"/><path d="m247.461 266.537h-203.5c-15.96 0-28.898 12.938-28.898 28.898 0 15.96 12.938 28.898 28.898 28.898h203.5c15.96 0 28.898-12.938 28.898-28.898 0-15.96-12.938-28.898-28.898-28.898z"/></g><path d="m157.519 431.472c-1.869-29.96-36.4-46.326-63.201-25.494-26.783-20.816-61.329-4.482-63.198 25.494-.723 11.586 3.585 23.882 12.454 35.557 9.931 13.07 25.352 25.26 45.832 36.232 3.076 1.647 6.748 1.65 9.824 0 20.483-10.972 35.901-23.162 45.832-36.232 8.872-11.675 13.178-23.971 12.457-35.557z" fill="#b98eff"/><g><path d="m326.918 511.998c-38.886 0-70.626-31.249-72.354-69.028-1.898-41.18 30.711-75.633 71.985-75.835v-284.043c0-45.817 37.275-83.092 83.092-83.092h64.088c10.246 0 19.773 5.078 25.486 13.583s6.81 19.245 2.936 28.729c-17.434 42.681-57.272 71.042-102.805 73.864v323.384c0 39.943-32.491 72.438-72.428 72.438zm0-129.865c-32.603 0-58.892 27.103-57.37 60.148 1.361 29.744 26.319 54.716 57.37 54.716 31.666 0 57.427-25.766 57.427-57.437v-330.653c0-4.142 3.357-7.5 7.5-7.5 42.501 0 80.347-25.423 96.418-64.767 2.012-4.924 1.465-10.279-1.501-14.693-2.964-4.415-7.715-6.947-13.033-6.947h-64.088c-37.547 0-68.092 30.546-68.092 68.092v291.938c0 4.443-3.857 7.943-8.317 7.456-2.163-.237-4.228-.353-6.314-.353z" fill="#007ea8"/></g><g><path d="m247.462 202.314h-203.501c-20.069 0-36.397-16.328-36.397-36.398s16.328-36.398 36.397-36.398h203.501c20.069 0 36.397 16.328 36.397 36.398s-16.328 36.398-36.397 36.398zm-203.501-57.796c-11.799 0-21.397 9.599-21.397 21.398s9.599 21.398 21.397 21.398h203.501c11.799 0 21.397-9.599 21.397-21.398s-9.599-21.398-21.397-21.398z" fill="#2115c2"/></g><g><path d="m247.462 72.796h-203.501c-20.069 0-36.397-16.328-36.397-36.398-.001-20.07 16.327-36.398 36.397-36.398h203.501c20.069 0 36.397 16.328 36.397 36.398s-16.328 36.398-36.397 36.398zm-203.501-57.796c-11.799 0-21.397 9.599-21.397 21.398s9.599 21.398 21.397 21.398h203.501c11.799 0 21.397-9.599 21.397-21.398s-9.599-21.398-21.397-21.398z" fill="#2115c2"/></g><g><path d="m247.462 331.833h-203.501c-20.069 0-36.397-16.328-36.397-36.398s16.328-36.398 36.397-36.398h203.501c20.069 0 36.397 16.328 36.397 36.398s-16.328 36.398-36.397 36.398zm-203.501-57.796c-11.799 0-21.397 9.599-21.397 21.398s9.599 21.398 21.397 21.398h203.501c11.799 0 21.397-9.599 21.397-21.398s-9.599-21.398-21.397-21.398z" fill="#2115c2"/></g><path d="m165.004 431.006v-.001c-1.051-16.846-10.768-31.004-25.993-37.874-14.386-6.491-30.734-5.048-44.692 3.708-13.96-8.755-30.308-10.196-44.699-3.702-15.218 6.868-24.931 21.021-25.983 37.859 0 .003-.001.005-.001.008-.837 13.405 3.992 27.431 13.967 40.562.002.003.005.005.007.009 10.585 13.929 26.82 26.814 48.255 38.298 5.198 2.784 11.512 2.887 16.894.006.004-.002.009-.004.013-.006 21.435-11.484 37.674-24.371 48.261-38.306 9.975-13.126 14.805-27.152 13.971-40.561zm-69.315 65.644c-.001.001-.002.001-.004.002-.854.459-1.879.458-2.737-.002-19.524-10.46-34.124-21.95-43.397-34.152-.001-.002-.002-.004-.004-.005-7.768-10.225-11.551-20.79-10.941-30.554v-.001c.698-11.194 7.122-20.588 17.184-25.129 10.847-4.894 23.528-2.991 33.927 5.09 2.635 2.055 6.464 2.131 9.205 0 10.398-8.083 23.08-9.987 33.921-5.095 10.066 4.542 16.493 13.938 17.191 25.135.607 9.767-3.177 20.332-10.942 30.553-9.276 12.206-23.879 23.699-43.403 34.158z" fill="#6d00ca"/></g></svg>