<svg id="Capa_1" enable-background="new 0 0 512 512" height="512" viewBox="0 0 512 512" width="512" xmlns="http://www.w3.org/2000/svg"><g><path d="m188.785 171.461v-51.537c0-37.062 30.153-67.215 67.216-67.215 37.062 0 67.215 30.153 67.215 67.215v51.529c16.527 1.056 32.126 6.604 45.208 15.723v-67.252c0-61.991-50.433-112.424-112.424-112.424s-112.424 50.433-112.424 112.424v67.255c13.084-9.117 28.683-14.662 45.209-15.718z" fill="#ffff6f"/><path d="m239.495 420.539c-19.518-10.716-37.015-21.912-52.427-33.532v65.066h-17.543c-14.477 0-26.213 11.736-26.213 26.213s11.736 26.213 26.213 26.213h43.756c10.124 0 18.901-5.743 23.268-14.146-1.878-3.613-2.945-7.715-2.945-12.068 0-6.278 2.21-12.039 5.89-16.552v-41.194z" fill="#ff9bff"/><path d="m277.36 417.837v34.237h-17.543c-14.477 0-26.213 11.736-26.213 26.213s11.736 26.213 26.213 26.213h43.756c14.477 0 26.213-11.736 26.213-26.213v-95.012c-15.307 11.978-32.805 23.519-52.426 34.562z" fill="#ff9bff"/><path d="m405.315 253.589c-4.416-70.785-85.999-109.449-149.317-60.232-63.276-49.181-144.896-10.588-149.311 60.232-1.709 27.373 8.471 56.424 29.424 84.008 23.462 30.88 59.895 59.679 108.282 85.602 7.267 3.892 15.942 3.898 23.21 0 48.393-25.923 84.82-54.722 108.282-85.602 20.96-27.584 31.133-56.636 29.43-84.008z" fill="#b98eff"/><path d="m253.154 299.406c-11.359 1.254-20.558 10.32-21.958 21.661-1.164 9.426 2.927 17.977 9.734 23.128v21.722c0 8.323 6.747 15.069 15.069 15.069 8.323 0 15.069-6.747 15.069-15.069v-21.722c6.032-4.564 9.931-11.799 9.931-19.946.002-14.745-12.763-26.508-27.845-24.843z" fill="#7181ff"/><g><path d="m143.576 191.679c-4.143 0-7.5-3.358-7.5-7.5v-64.255c0-66.127 53.798-119.924 119.925-119.924 66.126 0 119.923 53.797 119.923 119.924v64.252c0 4.142-3.357 7.5-7.5 7.5s-7.5-3.358-7.5-7.5v-64.252c0-57.855-47.069-104.924-104.923-104.924-57.855 0-104.925 47.069-104.925 104.924v64.255c0 4.142-3.357 7.5-7.5 7.5z" fill="#f90"/></g><g><path d="m188.785 175.961c-4.143 0-7.5-3.358-7.5-7.5v-48.538c0-41.198 33.518-74.715 74.716-74.715s74.715 33.517 74.715 74.715v48.529c0 4.142-3.357 7.5-7.5 7.5s-7.5-3.358-7.5-7.5v-48.529c0-32.927-26.788-59.715-59.715-59.715-32.928 0-59.716 26.788-59.716 59.715v48.538c0 4.143-3.358 7.5-7.5 7.5z" fill="#f90"/></g><g fill="#e207b9"><path d="m187.068 387.007v30.889c13.875 9.483 29.038 18.641 45.468 27.443 2.238 1.198 4.571 2.199 6.959 3.04v-27.84c-19.519-10.716-37.015-21.912-52.427-33.532z"/><path d="m329.787 378.774c-4.143 0-7.5 3.358-7.5 7.5v92.013c0 10.318-8.395 18.713-18.713 18.713h-43.756c-10.35 0-18.714-8.44-18.714-18.713 0-10.379 8.453-18.713 18.714-18.713h17.542c4.143 0 7.5-3.358 7.5-7.5v-31.237c0-4.142-3.357-7.5-7.5-7.5s-7.5 3.358-7.5 7.5v23.737h-10.042c-4.539 0-8.868.907-12.823 2.54v-23.574c0-4.142-3.357-7.5-7.5-7.5s-7.5 3.358-7.5 7.5v35.713c-3.907 5.705-5.891 12.495-5.891 19.034 0 3.825.686 7.797 1.996 11.424-3.508 4.561-8.937 7.289-14.819 7.289h-43.756c-10.318 0-18.713-8.395-18.713-18.713s8.395-18.713 18.713-18.713h17.543c4.143 0 7.5-3.358 7.5-7.5v-62.066c0-4.142-3.357-7.5-7.5-7.5s-7.5 3.358-7.5 7.5v54.566h-10.043c-18.59 0-33.713 15.124-33.713 33.713s15.123 33.713 33.713 33.713h43.756c8.847 0 17.116-3.431 23.284-9.337 6.055 5.778 14.244 9.337 23.253 9.337h43.756c18.59 0 33.713-15.124 33.713-33.713v-92.013c0-4.142-3.358-7.5-7.5-7.5z"/><path d="m277.36 417.837v28.545c.706-.337 1.412-.675 2.102-1.045 18.369-9.84 35.154-20.126 50.325-30.814v-31.248c-15.308 11.978-32.806 23.519-52.427 34.562z"/></g><path d="m412.801 253.124c0-.001 0-.001 0-.002-2.243-35.95-22.958-66.157-55.414-80.801-32.665-14.74-70.172-10.295-101.389 11.722-31.216-22.014-68.725-26.455-101.398-11.71-32.447 14.642-53.157 44.843-55.398 80.788v.001c-4.851 77.711 73.343 140.093 141.649 176.688 9.479 5.077 20.804 5.089 30.292 0 .001-.001.003-.001.004-.002.001 0 .002-.001.002-.001 68.326-36.603 146.485-98.983 141.652-176.683zm-148.74 163.463c-.002.001-.003.001-.004.002-5.043 2.706-11.069 2.706-16.124-.002-.002-.001-.004-.002-.006-.003-62.3-33.379-138.166-91.871-133.755-162.528 1.89-30.296 19.309-55.736 46.598-68.05 29.138-13.149 63.016-8.187 90.626 13.273 2.75 2.126 6.544 2.062 9.205 0 27.612-21.463 61.488-26.428 90.616-13.285 27.298 12.317 44.723 37.761 46.613 68.063v.001c4.387 70.595-71.32 129.076-133.769 162.529z" fill="#6d00ca"/><circle cx="308.339" cy="235.904" fill="#6d00ca" r="11.105"/><g><path d="m279.514 273.334h-47.028c-4.143 0-7.5-3.358-7.5-7.5s3.357-7.5 7.5-7.5h47.028c4.143 0 7.5 3.358 7.5 7.5s-3.357 7.5-7.5 7.5z" fill="#6d00ca"/></g><circle cx="203.662" cy="235.904" fill="#6d00ca" r="11.105"/><g><path d="m256 388.486c-12.444 0-22.569-10.125-22.569-22.569v-18.276c-7.377-7.077-10.961-17.091-9.678-27.492 1.816-14.711 13.835-26.569 28.578-28.197 19.463-2.153 36.17 13.056 36.17 32.297 0 8.956-3.577 17.289-9.931 23.39v18.278c0 12.445-10.125 22.569-22.57 22.569zm-2.023-81.625c-7.913.874-14.363 7.235-15.338 15.125-.782 6.34 1.766 12.407 6.816 16.228 1.874 1.418 2.975 3.631 2.975 5.981v21.722c0 4.174 3.396 7.569 7.569 7.569s7.57-3.396 7.57-7.569v-21.722c0-2.349 1.101-4.563 2.975-5.98 4.421-3.346 6.956-8.436 6.956-13.966.001-10.107-8.709-18.585-19.523-17.388z" fill="#2115c2"/></g></g></svg>