<svg id="Capa_1" enable-background="new 0 0 512 512" height="512" viewBox="0 0 512 512" width="512" xmlns="http://www.w3.org/2000/svg"><g><path d="m234.952 410.393c-12.637-6.822-24.77-13.765-36.373-20.827l-19.26 33.842-1.058-1.996v26.398h-18.97c-15.655 0-28.346 12.691-28.346 28.346s12.691 28.345 28.346 28.345h47.315c10.947 0 20.439-6.21 25.161-15.296-2.03-3.907-3.185-8.342-3.185-13.049 0-6.789 2.389-13.018 6.369-17.899v-47.864z" fill="#b98eff"/><path d="m313.343 389.568c-11.933 7.263-24.417 14.401-37.445 21.409v36.833h-18.969c-15.655 0-28.346 12.691-28.346 28.346s12.691 28.345 28.346 28.345h47.315c15.655 0 28.345-12.691 28.345-28.345v-52.771z" fill="#b98eff"/><path d="m198.58 389.566-15.514 27.259c12.634 7.67 25.906 15.24 39.474 22.51 3.967 2.125 8.129 3.857 12.412 5.19v-34.13c-12.637-6.824-24.769-13.766-36.372-20.829z" fill="#6d00ca"/><path d="m313.343 389.568c-11.933 7.263-24.417 14.401-37.445 21.409v33.873c4.663-1.371 9.19-3.213 13.483-5.515 13.557-7.262 26.83-14.832 39.475-22.508z" fill="#6d00ca"/><path d="m332.589 415.885c-4.142 0-7.499 3.358-7.499 7.499v52.771c0 11.495-9.352 20.846-20.846 20.846h-47.315c-11.504 0-20.847-9.373-20.847-20.846 0-11.495 9.356-20.846 20.847-20.846h18.969c4.142 0 7.499-3.358 7.499-7.499v-33.833c0-4.142-3.357-7.499-7.499-7.499s-7.499 3.358-7.499 7.499v26.334h-11.47c-5.15 0-10.047 1.101-14.477 3.065v-29.982c0-4.142-3.357-7.499-7.499-7.499s-7.499 3.358-7.499 7.499v42.369c-4.081 5.884-6.37 13.074-6.37 20.393 0 4.163.768 8.507 2.236 12.457-3.9 5.243-10.046 8.388-16.713 8.388h-47.316c-11.494 0-20.846-9.351-20.846-20.846s9.352-20.846 20.846-20.846h18.97c4.142 0 7.499-3.358 7.499-7.499v-26.398c0-4.142-3.357-7.499-7.499-7.499s-7.499 3.358-7.499 7.499v18.898h-11.471c-19.765 0-35.845 16.08-35.845 35.845s16.08 35.845 35.845 35.845h47.316c9.607 0 18.568-3.81 25.168-10.338 6.476 6.387 15.361 10.338 25.154 10.338h47.315c19.765 0 35.845-16.08 35.845-35.845v-52.771c-.001-4.141-3.358-7.499-7.5-7.499z" fill="#6d00ca"/><path d="m241.645 265.215c-12.087 0-23.185-4.207-31.932-11.224 0 0-22.815 17.91-45.899 22.378l-59.416 104.399 51.001-2.472 23.92 45.112 90.031-158.193z" fill="#f90"/><path d="m302.216 253.991c-8.747 7.017-19.846 11.224-31.932 11.224h-.933l-13.39 23.528 76.641 134.665 23.92-45.112 51.001 2.472-59.417-104.401c-23.081-4.47-45.89-22.376-45.89-22.376z" fill="#f90"/><path d="m163.809 276.378c-16.474 3.189-33.081-.477-41.635-22.388h-71.429c-.432 0-.861-.02-1.289-.044 4.322 6.852 9.049 13.668 14.185 20.428 17.113 22.523 38.541 44.353 64.103 65.375z" fill="#ffd600"/><path d="m36.627 174.279h85.546c20.541-52.616 87.538-.001 87.54 0 8.747-7.017 19.846-11.224 31.932-11.224h28.639c12.087 0 23.185 4.207 31.932 11.224.002-.001 66.999-52.616 87.54 0h85.55c6.895 0 12.94 2.967 17.13 7.559 2.879-14.238 3.92-28.366 3.058-42.226-7.085-113.552-137.959-175.577-239.533-96.624-101.507-78.896-232.439-16.986-239.523 96.623-.866 13.876.178 28.021 3.064 42.276 4.16-4.622 10.186-7.608 17.125-7.608z" fill="#ffd600"/><path d="m461.185 253.991h-71.429c-8.555 21.914-25.168 25.578-41.644 22.386l36.068 63.375c25.561-21.023 46.989-42.853 64.102-65.377 5.137-6.76 9.865-13.576 14.188-20.428-.427.023-.855.044-1.285.044z" fill="#ffd600"/><path d="m255.961 288.743-57.381 100.823c12.34 7.511 25.255 14.892 38.765 22.13 11.658 6.244 25.575 6.254 37.233 0 13.511-7.237 26.426-14.618 38.766-22.128z" fill="#ffd600"/><g fill="#f90"><path d="m116.256 214.135c0-17.361 2.199-30.33 5.918-39.856h-85.547c-15.72 0-26.767 15.31-22.002 30.29 3.946 12.406 9.185 24.819 15.685 37.145 3.991 7.568 11.878 12.277 20.434 12.277h71.429c-3.718-9.526-5.917-22.495-5.917-39.856z"/><path d="m475.306 174.279h-85.55c3.719 9.526 5.918 22.495 5.918 39.856s-2.199 30.33-5.918 39.856h71.429c8.556 0 16.443-4.709 20.434-12.277 6.565-12.45 11.844-24.989 15.804-37.519 4.686-14.832-6.562-29.916-22.117-29.916z"/><path d="m190.565 214.135c0-16.124 7.479-30.495 19.148-39.856-.002-.002-93.457-73.4-93.457 39.856 0 113.257 93.457 39.856 93.457 39.856-11.669-9.362-19.148-23.732-19.148-39.856z"/><path d="m302.216 174.279c11.669 9.361 19.148 23.732 19.148 39.856 0 16.124-7.479 30.494-19.148 39.856s93.457 73.401 93.457-39.856c.001-113.256-93.455-39.858-93.457-39.856z"/><path d="m270.284 163.054h-28.639c-28.211 0-51.08 22.869-51.08 51.08 0 28.211 22.869 51.08 51.08 51.08h28.639c28.211 0 51.08-22.869 51.08-51.08 0-28.21-22.869-51.08-51.08-51.08z"/></g><circle cx="318.478" cy="87.639" fill="#f95116" r="13.264"/><g fill="#f95116"><path d="m500.432 179.855c2.502-13.742 3.373-27.42 2.546-40.71-1.751-28.071-10.982-54.646-26.694-76.851-14.998-21.196-35.587-38.112-59.54-48.92-51.821-23.384-111.52-15.769-160.784 20.223-49.26-35.987-108.965-43.595-160.796-20.205-23.948 10.807-44.53 27.718-59.523 48.905-15.709 22.2-24.937 48.774-26.688 76.848-.83 13.317.045 27.023 2.558 40.792-5.492 7.906-6.972 17.663-4.033 26.905 4.07 12.793 9.52 25.703 16.199 38.37 4.396 8.337 12.296 14.037 21.376 15.737 19.587 30.192 45.235 57.057 73.068 80.545l-20.241 35.565c-2.913 5.117.958 11.479 6.881 11.2l46.243-2.242 21.69 40.903c2.771 5.227 10.22 5.332 13.143.196l15.461-27.167c10.506 6.251 21.406 12.411 32.505 18.356 13.864 7.426 30.433 7.447 44.314 0 11.108-5.95 22.007-12.108 32.505-18.355l15.461 27.165c2.926 5.142 10.376 5.025 13.143-.196l21.69-40.903 46.243 2.242c5.888.298 9.807-6.059 6.881-11.2l-20.24-35.564c23.864-20.139 44.182-41.171 60.452-62.584 4.473-5.887 8.694-11.916 12.617-17.961 9.082-1.698 16.985-7.399 21.382-15.738 6.746-12.791 12.236-25.831 16.321-38.757 2.882-9.118 1.363-18.774-4.14-26.599zm-476.51-39.777c3.138-50.308 32.076-92.556 77.411-113.015 48.3-21.797 104.384-13.629 150.025 21.845 2.707 2.104 6.498 2.104 9.204 0 45.647-35.479 101.722-43.653 150.012-21.863 45.347 20.462 74.295 62.718 77.433 113.032.589 9.472.238 19.179-1.043 28.979-3.648-1.49-7.683-2.277-11.659-2.277h-80.657c-5.597-11.394-14.474-19.558-26.863-22.311-21.451-4.857-47.494 7.941-65.599 20.549-9.658-6.266-20.838-9.462-31.903-9.462h-28.639c-11.444 0-22.606 3.424-31.903 9.462-21.265-14.803-52.678-29.375-75.512-16.836-.007.004-.015.008-.022.012-7.096 3.899-12.765 10.111-16.928 18.586h-80.652c-4.024 0-8.087.8-11.666 2.271-1.279-9.797-1.629-19.501-1.039-28.972zm290.057 35.042c14.802-9.697 39.932-22.121 55.734-14.186 0 0 .001 0 .001.001 15.949 8.017 18.459 35.385 18.459 53.2 0 19.61-2.97 48.664-21.761 54.537-.014.004-.027.009-.041.013-15.834 4.921-38.431-6.435-52.366-15.568 9.575-10.701 14.858-24.596 14.858-38.982.001-14.416-5.294-28.312-14.884-39.015zm-.114 39.015c0 23.819-19.35 43.581-43.581 43.581-6.563 0-19.972 0-28.639 0-24.029 0-43.58-19.562-43.58-43.581 0-23.816 19.35-43.581 43.58-43.581h28.639c23.796 0 43.581 19.334 43.581 43.581zm-115.936 38.988c-8.078 5.301-21.881 13.239-35.539 15.883-.038.007-.075.02-.112.028-31.514 6.031-38.522-22.876-38.522-54.9 0-17.85 2.528-45.191 18.459-53.2 0 0 .001 0 .001-.001 15.788-7.931 40.936 4.493 55.734 14.186-9.66 10.782-14.884 24.702-14.884 39.015 0 14.144 5.119 28.102 14.863 38.989zm-147.185-6.632c-5.635 0-11.031-3.024-13.801-8.275-6.266-11.885-11.371-23.97-15.172-35.92-3.254-10.228 4.291-20.518 14.855-20.518h75.411c-4.419 18.58-4.35 46.427 0 64.713zm12.759 14.999h53.786c6.756 13.655 17.647 22.052 33.143 23.231-2.151 3.78-22.465 39.474-24.761 43.508-23.101-19.727-44.884-42.198-62.168-66.739zm128.558 124.367c-.002.004-.004.009-.007.013l-12.502 21.967-17.528-33.054c-1.354-2.554-4.066-4.117-6.989-3.977l-37.37 1.811c5.844-10.268 20.95-36.809 51.016-89.639 14.143-3.449 29.268-11.504 41.062-19.724 9.775 6.345 21.01 9.461 31.901 9.461h14.808l-7.011 12.318c0 .001-.001.002-.001.003zm78.971 19.23c-9.43 5.058-20.7 5.057-30.146-.002-10.988-5.886-21.779-11.982-32.169-18.169l47.243-83.011 47.245 83.012c-10.381 6.183-21.172 12.277-32.173 18.17zm123.224-32.47-37.37-1.811c-2.874-.14-5.626 1.408-6.989 3.977l-17.528 33.054-67.78-119.095 9.182-16.133c10.037-.607 19.868-3.81 28.414-9.356 11.788 8.22 26.861 16.26 41.053 19.723 23.403 41.121 43.712 76.804 51.018 89.641zm48.055-102.78c-15.123 19.904-33.957 39.518-56.058 58.394-7.427-13.05-17.343-30.473-24.762-43.509 5.101-.39 9.997-1.56 14.543-3.77 8.519-4.141 14.47-11.106 18.608-19.462h53.779c-1.977 2.804-4.017 5.592-6.11 8.347zm47.961-67.901c-3.815 12.073-8.958 24.28-15.286 36.28-2.7 5.119-8.009 8.275-13.801 8.275h-61.294c1.869-7.857 3.282-18.716 3.282-32.356 0-10.443-.866-22.2-3.282-32.357h75.415c10.535 0 18.115 10.188 14.966 20.158z"/><path d="m227.879 130.887h56.172c4.142 0 7.499-3.358 7.499-7.499 0-4.142-3.357-7.499-7.499-7.499h-56.172c-4.142 0-7.499 3.358-7.499 7.499-.001 4.141 3.356 7.499 7.499 7.499z"/></g><circle cx="193.451" cy="87.639" fill="#f95116" r="13.264"/></g></svg>