<svg id="Capa_1" enable-background="new 0 0 512 512" height="512" viewBox="0 0 512 512" width="512" xmlns="http://www.w3.org/2000/svg"><g><path d="m263.342 237.986c-2.549-4.31-3.707-9.056-3.614-13.719h-202.664c-25.049 0-45.357 20.308-45.357 45.357v170.428c0 25.049 20.308 45.357 45.357 45.357h233.901c25.049 0 45.357-20.308 45.357-45.357v-78.66z" fill="#a4bcff"/><g fill="#ffff6f"><path d="m136.994 224.267h74.041v261.142h-74.041z"/><path d="m449.901 286.023c-11.554-19.537-36.752-26.007-56.289-14.453l-16.879 9.982 41.836 70.742 16.879-9.982c10.606-6.272 17.357-16.555 19.473-27.781 1.779-9.447.267-19.568-5.02-28.508z"/><path d="m487.094 330.713c-17.383-12.407-31.581-16.03-32.173-16.182-2.116 11.225-8.867 21.508-19.473 27.781l-16.879 9.982 29.999 50.726c.654.235 1.302.462 1.954.675 44.482 14.571 74.672-45.787 36.572-72.982z"/><path d="m428.657 231.901c-5.476-46.489-72.911-49.112-81.574-3.112-.128.674-.242 1.351-.35 2.037l29.999 50.726 16.879-9.982c10.606-6.272 22.87-7.234 33.726-3.68.152-.592 3.818-14.779 1.32-35.989z"/></g><path d="m454.921 314.531c-.014-.004-.014-.004-.014-.004" fill="#b98eff"/><path d="m272.492 202.377 20.167-11.926c9.144-5.407 20.252-4.567 28.372 1.246 14.151-24.482 20.777-49.499 19.292-73.37-4.918-78.84-95.786-121.906-166.311-67.087-70.478-54.779-161.386-11.794-166.304 67.086-1.903 30.488 9.435 62.846 32.773 93.568 3.268 4.301 6.762 8.566 10.48 12.793 1.998-.269 4.032-.421 6.104-.421h79.93 74.041 48.692c.172-8.707 4.714-17.128 12.764-21.889z" fill="#b98eff"/><path d="m467.039 434.254-138.777-234.661c-7.31-12.36-23.252-16.446-35.604-9.142l-20.167 11.926c-12.36 7.31-16.46 23.249-9.151 35.609l138.776 234.662c7.305 12.352 23.252 16.446 35.613 9.137l20.167-11.926c12.352-7.306 16.447-23.253 9.143-35.605z" fill="#a4bcff"/><circle cx="231.05" cy="138.797" fill="#6d00ca" r="12.101"/><g><path d="m199.639 178.913h-51.249c-4.142 0-7.499-3.358-7.499-7.499 0-4.142 3.357-7.499 7.499-7.499h51.249c4.142 0 7.499 3.358 7.499 7.499.001 4.141-3.356 7.499-7.499 7.499z" fill="#6d00ca"/></g><circle cx="116.98" cy="138.797" fill="#6d00ca" r="12.101"/><path d="m211.036 219.768c-4.142 0-7.499 3.358-7.499 7.499v255.143c0 4.142 3.357 7.499 7.499 7.499s7.499-3.358 7.499-7.499v-255.143c0-4.141-3.357-7.499-7.499-7.499z" fill="#f95116"/><path d="m136.994 219.768c-4.142 0-7.499 3.358-7.499 7.499v255.143c0 4.142 3.357 7.499 7.499 7.499s7.499-3.358 7.499-7.499v-255.143c.001-4.141-3.357-7.499-7.499-7.499z" fill="#f95116"/><path d="m491.451 324.609c-11.644-8.31-22.048-12.95-28.388-15.305.434-8.991-1.635-18.004-6.041-25.936-4.88-8.788-12.25-15.65-21.208-19.917.999-6.666 1.978-18.098.291-32.428-3.37-28.608-26.014-42.141-46.963-42.863-20.804-.727-44.136 11.141-49.428 39.24-.767 4.07 1.911 7.992 5.982 8.758 4.062.768 7.991-1.911 8.757-5.982 3.419-18.157 17.847-27.585 34.172-27.027 14.541.501 30.255 9.857 32.584 29.628 1.312 11.149.806 20.211.101 26.045-10.78-1.516-21.851.621-31.375 6.209-15.622 7.586-15.022 7.653-15.875 8.662-2.782 2.214-3.675 6.161-1.935 9.404 1.948 3.631 6.486 5.03 10.153 3.063 10.911-5.823 14.26-7.609 14.381-7.68 16.236-9.603 37.909-4.653 47.251 12.17 8.769 15.788 3.457 35.766-12.091 45.092l-12.791 6.43c-3.737 1.331-7.803 6.571-5.069 11.667 1.959 3.65 6.503 5.023 10.154 3.063 11.049-5.929 14.936-8.008 15.151-8.136 9.448-5.587 16.798-14.311 20.698-24.587 5.45 2.192 13.635 6.114 22.773 12.637 16.204 11.566 16.832 29.843 10.266 42.826-6.018 11.901-20.145 23.479-40.146 16.925-3.937-1.288-8.172.857-9.461 4.793-1.29 3.936.856 8.172 4.792 9.461 5.598 1.833 10.961 2.663 16.03 2.663 19.539 0 34.716-12.333 42.17-27.073 9.46-18.703 8.51-45.067-14.935-61.802z" fill="#f95116"/><g><path d="m43.445 227.473c-26.624-30.98-45.745-69.197-43.222-109.614 5.177-83.045 98.975-129.222 173.79-75.966 75.058-53.433 168.634-6.784 173.795 75.966 1.513 24.317-4.671 49.286-18.379 74.214-1.997 3.629-6.556 4.953-10.186 2.957-3.629-1.996-4.953-6.556-2.958-10.185 12.317-22.398 17.886-44.621 16.553-66.054-4.571-73.291-88.764-112.511-154.223-61.631-2.707 2.104-6.498 2.105-9.204 0-65.456-50.872-149.65-11.643-154.218 61.633-2.285 36.608 15.904 71.306 39.627 98.903 2.7 3.141 2.343 7.876-.799 10.576-3.14 2.7-7.876 2.342-10.576-.799z" fill="#6d00ca"/></g><path d="m473.494 430.437c0-.001 0-.001 0 0l-138.777-234.662c-9.401-15.896-29.982-21.18-45.875-11.779l-20.166 11.926c-7.702 4.555-13.172 11.835-15.398 20.499-.03.116-.052.232-.08.348h-196.134c-29.145 0-52.856 23.711-52.856 52.856v170.428c0 29.145 23.711 52.856 52.856 52.856h233.901c29.145 0 52.856-23.711 52.856-52.856v-51.247l51.841 87.66c9.374 15.851 29.943 21.201 45.885 11.774l20.166-11.926c15.897-9.401 21.181-29.981 11.781-45.877zm-144.671-66.993v76.609c0 20.875-16.983 37.858-37.857 37.858h-233.902c-20.874 0-37.857-16.983-37.857-37.858v-170.429c0-20.875 16.983-37.857 37.857-37.857h195.894c.781 3.632 2.187 7.091 3.928 10.037zm125.257 99.959-20.166 11.926c-8.782 5.193-20.15 2.278-25.341-6.499l-138.775-234.661c-5.166-8.732-2.352-20.094 6.512-25.337l20.166-11.926c8.81-5.209 20.161-2.24 25.331 6.504l138.776 234.661c5.191 8.778 2.274 20.141-6.503 25.332z" fill="#2115c2"/></g></svg>