<svg id="Capa_1" enable-background="new 0 0 512 512" height="512" viewBox="0 0 512 512" width="512" xmlns="http://www.w3.org/2000/svg"><g><path d="m393.4 411.626h-43.748s-.301 0-.874-.01c-27.243-.502-48.097-24.611-44.551-51.744l30.116-210.18c1.878-14.425 14.174-25.204 28.71-25.204h16.947c14.536 0 26.821 10.779 28.71 25.204l30.116 210.18c3.585 27.424-17.761 51.754-45.426 51.754z" fill="#ff63ed"/><path d="m348.778 411.616c-27.243-.502-48.097-24.611-44.551-51.744l30.116-210.18c1.878-14.425 14.174-25.204 28.71-25.204h-231.045c-14.536 0-26.831 10.779-28.71 25.204l-30.116 210.18c-3.586 27.424 17.76 51.754 45.425 51.754z" fill="#ff9bff"/><path d="m282.536 246.439c-2.344-37.572-45.647-58.095-79.256-31.971-33.587-26.105-76.909-5.62-79.253 31.971-.907 14.529 4.496 29.949 15.618 44.59 12.454 16.391 31.792 31.677 57.475 45.437 3.857 2.066 8.462 2.069 12.32 0 25.686-13.76 45.022-29.046 57.475-45.437 11.125-14.641 16.525-30.061 15.621-44.59z" fill="#b98eff"/><g><path d="m295.298 411.626v69.706c0 12.795-10.373 23.168-23.168 23.168h-38.672c-12.795 0-23.168-10.373-23.168-23.168s10.373-23.168 23.168-23.168h15.504v-46.539h46.336z" fill="#b98eff"/></g><g><path d="m187.474 411.626v69.706c0 12.795-10.373 23.168-23.168 23.168h-38.672c-12.795 0-23.168-10.373-23.168-23.168s10.373-23.168 23.168-23.168h15.504v-46.539h46.336z" fill="#b98eff"/></g><path d="m337.236 97.205v27.283h-45.204v-27.283c0-24.541-19.96-44.501-44.501-44.501s-44.501 19.96-44.501 44.501v27.283h-45.204v-27.283c0-24.772 10.035-47.203 26.269-63.437 16.232-16.233 38.664-26.268 63.435-26.268 49.544 0 89.706 40.161 89.706 89.705z" fill="#ffff6f"/><path d="m290.021 245.974v-.001c-1.272-20.407-13.04-37.558-31.478-45.877-17.797-8.03-38.082-6.035-55.264 5.177-17.183-11.21-37.472-13.201-55.27-5.17-18.432 8.318-30.196 25.466-31.469 45.87v.001c-2.675 42.851 39.343 76.911 77.036 97.105h.001c6.07 3.252 13.324 3.259 19.401 0s0 0 0 0c.001-.001.003-.002.005-.002s.003-.002.004-.002c37.919-20.316 79.695-54.341 77.034-97.101zm-84.123 83.88c0 .001 0 .001 0 0-.002.001-.004.002-.005.002-1.634.877-3.59.875-5.232-.002-31.601-16.93-71.385-47.111-69.149-82.948.92-14.756 9.395-27.142 22.668-33.132 14.255-6.432 30.889-3.96 44.497 6.616 2.678 2.086 6.505 2.1 9.205 0 13.609-10.577 30.24-13.052 44.491-6.622 13.278 5.992 21.756 18.38 22.677 33.139 2.225 35.754-37.137 65.798-69.152 82.947z" fill="#6d00ca"/><circle cx="242.435" cy="259.318" fill="#6d00ca" r="8.308"/><g><path d="m220.872 289.209h-35.182c-4.143 0-7.5-3.358-7.5-7.5s3.357-7.5 7.5-7.5h35.182c4.143 0 7.5 3.358 7.5 7.5s-3.357 7.5-7.5 7.5z" fill="#6d00ca"/></g><circle cx="164.127" cy="259.318" fill="#6d00ca" r="8.308"/><g><g><path d="m272.13 512h-38.672c-16.91 0-30.667-13.757-30.667-30.667s13.757-30.667 30.667-30.667h8.005v-36.039c0-4.142 3.357-7.5 7.5-7.5s7.5 3.358 7.5 7.5v43.539c0 4.142-3.357 7.5-7.5 7.5h-15.505c-8.639 0-15.667 7.028-15.667 15.667s7.028 15.667 15.667 15.667h38.672c8.64 0 15.668-7.028 15.668-15.667v-66.707c0-4.142 3.357-7.5 7.5-7.5s7.5 3.358 7.5 7.5v66.707c0 16.91-13.758 30.667-30.668 30.667z" fill="#6d00ca"/></g></g><g><g><path d="m164.307 512h-38.672c-16.91 0-30.668-13.757-30.668-30.667s13.758-30.667 30.668-30.667h8.004v-36.039c0-4.142 3.357-7.5 7.5-7.5s7.5 3.358 7.5 7.5v43.539c0 4.142-3.357 7.5-7.5 7.5h-15.504c-8.64 0-15.668 7.028-15.668 15.667s7.028 15.667 15.668 15.667h38.672c8.639 0 15.667-7.028 15.667-15.667v-66.707c0-4.142 3.357-7.5 7.5-7.5s7.5 3.358 7.5 7.5v66.707c0 16.91-13.757 30.667-30.667 30.667z" fill="#6d00ca"/></g></g><path d="m141.139 411.626h46.335v30.959h-46.335z" fill="#6d00ca"/><path d="m248.963 411.626h46.335v30.959h-46.335z" fill="#6d00ca"/><g><path d="m337.236 128.989c-4.143 0-7.5-3.358-7.5-7.5v-24.284c0-45.328-36.878-82.205-82.206-82.205-45.446 0-82.205 36.752-82.205 82.205v24.284c0 4.142-3.357 7.5-7.5 7.5s-7.5-3.358-7.5-7.5v-24.284c0-53.736 43.46-97.205 97.205-97.205 53.6 0 97.206 43.606 97.206 97.205v24.284c0 4.142-3.357 7.5-7.5 7.5z" fill="#f95116"/></g><g><path d="m292.031 128.989c-4.143 0-7.5-3.358-7.5-7.5v-24.284c0-20.402-16.599-37.001-37.001-37.001s-37.001 16.599-37.001 37.001v24.284c0 4.142-3.357 7.5-7.5 7.5s-7.5-3.358-7.5-7.5v-24.284c0-28.673 23.327-52.001 52.001-52.001s52.001 23.328 52.001 52.001v24.284c0 4.142-3.357 7.5-7.5 7.5z" fill="#f95116"/></g><path d="m446.249 358.808-30.104-210.089c-2.368-18.089-17.908-31.73-36.146-31.73-3.033 0-235.104 0-247.99 0-18.251 0-33.791 13.643-36.134 31.64l-30.129 210.271c-4.165 31.857 20.642 60.226 52.862 60.226h231.041.003 43.747c32.059 0 57.054-28.181 52.85-60.318zm-327.641 45.318c-23.195 0-40.973-20.46-38.002-43.19l30.13-210.275c1.386-10.645 10.531-18.672 21.272-18.672h201.579c-3.524 4.782-5.896 10.696-6.669 16.64l-30.128 210.271c-2.179 16.665 3.653 33.485 15.781 45.217zm274.791 0h-43.743c-23.301 0-40.962-20.552-38.006-43.19l30.13-210.275c1.386-10.645 10.531-18.672 21.272-18.672h16.946c10.733 0 19.879 8.029 21.286 18.768l30.104 210.088c2.994 22.895-14.835 43.281-37.989 43.281z" fill="#e207b9"/></g></svg>