<svg id="Capa_1" enable-background="new 0 0 512 512" height="512" viewBox="0 0 512 512" width="512" xmlns="http://www.w3.org/2000/svg"><g><path d="m249.742 230.23v-54.99c0-31.777-25.76-57.537-57.537-57.537h-111.089c-31.777 0-57.537 25.76-57.537 57.537v54.99c0 31.777 25.76 57.537 57.537 57.537h168.346c12.983 0 21.502-13.571 15.858-25.264z" fill="#ff9bff"/><path d="m354.323 7.5h-174.403c-44.67 0-80.882 36.212-80.882 80.882v29.321h93.167c31.777 0 57.537 25.76 57.537 57.537v54.99l15.579 32.273c5.644 11.692-2.875 25.263-15.858 25.263h-150.425v135.851c0 44.67 36.212 80.882 80.882 80.882h174.403c44.67 0 80.882-36.212 80.882-80.882v-335.235c0-44.67-36.212-80.882-80.882-80.882z" fill="#7181ff"/><path d="m407.539 7.5h-53.215c44.67 0 80.882 36.212 80.882 80.882v335.236c0 44.67-36.212 80.882-80.882 80.882h53.215c44.67 0 80.882-36.212 80.882-80.882v-335.236c-.001-44.67-36.213-80.882-80.882-80.882z" fill="#565eec"/><path d="m194.129 189.153c-1.644-26.354-32.019-40.75-55.593-22.425-23.559-18.311-53.947-3.942-55.591 22.425-.636 10.191 3.154 21.008 10.955 31.277 8.735 11.497 22.3 22.219 40.315 31.871 2.706 1.449 5.936 1.451 8.641 0 18.017-9.652 31.58-20.374 40.315-31.871 7.804-10.269 11.592-21.086 10.958-31.277z" fill="#ff63ed"/><path d="m354.324 62.724h-174.404c-14.148 0-25.658 11.51-25.658 25.658v29.321h37.943c31.777 0 57.537 25.76 57.537 57.537v54.99l15.579 32.273c5.644 11.692-2.875 25.263-15.858 25.263h-95.201v105.73c0 14.147 11.51 25.658 25.658 25.658h174.403c14.147 0 25.658-11.51 25.658-25.658v-305.114c0-14.148-11.51-25.658-25.657-25.658z" fill="#88f8d8"/><circle cx="267.108" cy="461.827" fill="#ff9bff" r="18.526"/><path d="m201.614 188.689c0-.001 0-.001 0-.002-.945-15.158-9.69-27.898-23.394-34.082-12.771-5.764-27.254-4.566-39.685 3.036-12.432-7.601-26.915-8.797-39.688-3.031-13.7 6.182-22.443 18.921-23.389 34.077-.749 12.01 3.563 24.556 12.468 36.28.002.003.005.005.007.009 9.391 12.356 23.769 23.774 42.739 33.937 4.923 2.637 10.8 2.64 15.726 0 .001 0 .002-.001.003-.001s.001-.001.002-.001c18.966-10.161 33.343-21.579 42.734-33.936.001-.002.003-.004.005-.006 8.906-11.721 13.219-24.266 12.472-36.28zm-62.299 57.001c-.001.001-.002.001-.004.002-.492.263-1.058.263-1.554-.002-17.058-9.139-29.803-19.162-37.881-29.792-.001-.002-.002-.004-.004-.005-6.699-8.819-9.965-17.904-9.442-26.273.593-9.507 6.046-17.484 14.587-21.338 9.23-4.166 20.038-2.532 28.916 4.368 2.652 2.068 6.507 2.117 9.205 0 8.879-6.901 19.686-8.536 28.913-4.372 8.544 3.855 13.999 11.834 14.592 21.343.52 8.373-2.746 17.458-9.443 26.272-.001.001-.001.002-.002.004-8.08 10.631-20.825 20.655-37.883 29.793z" fill="#e207b9"/><g><path d="m354.324 426.654h-174.404c-18.283 0-33.158-14.875-33.158-33.158v-102.73c0-4.142 3.357-7.5 7.5-7.5s7.5 3.358 7.5 7.5v102.73c0 10.012 8.146 18.158 18.158 18.158h174.403c10.012 0 18.157-8.146 18.157-18.158v-305.114c0-10.013-8.146-18.158-18.157-18.158h-174.403c-10.013 0-18.158 8.146-18.158 18.158v26.321c0 4.142-3.357 7.5-7.5 7.5s-7.5-3.358-7.5-7.5v-26.321c0-18.284 14.875-33.158 33.158-33.158h174.403c18.283 0 33.157 14.875 33.157 33.158v305.115c.001 18.283-14.873 33.157-33.156 33.157z" fill="#007ea8"/></g><path d="m407.539 0c-10.686 0-216.81 0-227.619 0-48.734 0-88.382 39.647-88.382 88.381v26.322c0 4.142 3.357 7.5 7.5 7.5s7.5-3.358 7.5-7.5v-26.322c.001-40.462 32.92-73.381 73.382-73.381h174.402c40.463 0 73.382 32.919 73.382 73.381v335.237c0 40.463-32.919 73.382-73.382 73.382h-174.402c-40.463 0-73.382-32.919-73.382-73.382v-132.851c0-4.142-3.357-7.5-7.5-7.5s-7.5 3.358-7.5 7.5v132.852c0 48.734 39.647 88.382 88.382 88.382h227.618c48.734 0 88.382-39.648 88.382-88.382v-335.238c0-48.734-39.647-88.381-88.381-88.381zm73.381 423.618c0 40.463-32.919 73.382-73.382 73.382h-4.005c25.568-17.455 39.171-44.982 39.171-73.382v-335.237c0-29.66-14.867-56.986-39.098-73.331-.024-.017-.048-.034-.073-.051h4.005c40.463 0 73.382 32.919 73.382 73.381z" fill="#2115c2"/><g><path d="m249.462 295.267h-168.345c-35.861 0-65.037-29.175-65.037-65.037v-54.99c0-35.861 29.176-65.037 65.037-65.037h111.089c35.861 0 65.036 29.175 65.036 65.037v53.275l14.833 30.729c8.04 16.656-4.083 36.023-22.613 36.023zm-168.345-170.064c-27.591 0-50.037 22.446-50.037 50.037v54.99c0 27.59 22.446 50.037 50.037 50.037h168.346c7.467 0 12.353-7.771 9.104-14.503l-15.579-32.273c-.491-1.017-.746-2.131-.746-3.26v-54.99c0-27.59-22.446-50.037-50.036-50.037h-111.089z" fill="#e207b9"/></g><g><path d="m267.108 487.853c-14.351 0-26.026-11.675-26.026-26.026s11.676-26.026 26.026-26.026 26.025 11.675 26.025 26.026-11.675 26.026-26.025 26.026zm0-37.052c-6.08 0-11.026 4.946-11.026 11.026s4.946 11.026 11.026 11.026c6.079 0 11.025-4.946 11.025-11.026s-4.946-11.026-11.025-11.026z" fill="#e207b9"/></g><circle cx="319.416" cy="340.174" fill="#007ea8" r="11.099"/><g><path d="m290.609 377.587h-47.002c-4.143 0-7.5-3.358-7.5-7.5s3.357-7.5 7.5-7.5h47.002c4.143 0 7.5 3.358 7.5 7.5s-3.358 7.5-7.5 7.5z" fill="#007ea8"/></g><circle cx="214.799" cy="340.174" fill="#007ea8" r="11.099"/></g></svg>