<svg id="Capa_1" enable-background="new 0 0 512 512" height="512" viewBox="0 0 512 512" width="512" xmlns="http://www.w3.org/2000/svg"><g><path d="m501.16 329.368v118.066c0 31.514-25.552 57.066-57.066 57.066h-45.932c31.514 0 57.066-25.552 57.066-57.066v-118.066c0-31.514-25.552-57.066-57.066-57.066h45.932c31.514 0 57.066 25.552 57.066 57.066z" fill="#ff63ed"/><path d="m56.773 64.566v118.066c0 31.514 25.552 57.066 57.066 57.066h168.681c12.552 0 20.739-10.255 20.739-20.869 0-5.382-2.107-10.864-6.82-15.148-14.748-13.4-23.156-32.412-23.156-52.343v-86.772c0-31.514-25.552-57.066-57.066-57.066h-102.378c-31.514 0-57.066 25.552-57.066 57.066z" fill="#88f8d8"/><path d="m10.84 64.566v118.066c0 31.514 25.552 57.066 57.066 57.066h45.932c-31.514 0-57.066-25.552-57.066-57.066v-118.066c0-31.514 25.552-57.066 57.066-57.066h-45.932c-31.513 0-57.066 25.552-57.066 57.066z" fill="#17d9c3"/><path d="m455.228 329.368v118.066c0 31.514-25.552 57.066-57.066 57.066h-168.682c-12.552 0-20.739-10.255-20.739-20.869 0-5.382 2.107-10.864 6.82-15.148 14.748-13.4 23.156-32.412 23.156-52.343v-86.772c0-31.514 25.552-57.066 57.066-57.066h102.379c31.513 0 57.066 25.552 57.066 57.066z" fill="#ff9bff"/><path d="m229.727 110.197c-1.915-30.699-37.298-47.468-64.759-26.123-27.443-21.33-62.841-4.592-64.756 26.123-.741 11.872 3.674 24.471 12.761 36.434 10.176 13.393 25.977 25.883 46.962 37.125 3.152 1.688 6.914 1.691 10.066 0 20.988-11.243 36.786-23.733 46.962-37.125 9.09-11.963 13.502-24.562 12.764-36.434z" fill="#ff9bff"/><circle cx="397.466" cy="381.043" fill="#e207b9" r="11.037"/><circle cx="293.425" cy="381.043" fill="#e207b9" r="11.037"/><path d="m301.483 198.13c-13.154-11.952-20.699-29.007-20.699-46.792v-86.772c0-35.602-28.965-64.566-64.567-64.566-18.128 0-130.667 0-148.311 0-35.602 0-64.566 28.964-64.566 64.566v118.066c0 35.602 28.964 64.566 64.565 64.566h214.614c7.962 0 15.267-3.143 20.57-8.848 10.26-11.038 10.715-29.022-1.606-40.22zm-228.977 34.068h-4.601c-27.33 0-49.565-22.235-49.565-49.566v-118.066c0-27.331 22.236-49.566 49.566-49.566h4.601c-14.397 12.028-23.234 30.124-23.234 49.566v118.066c0 19.132 8.543 37.293 23.233 49.566zm210.014 0h-168.682c-27.33 0-49.565-22.235-49.565-49.566v-118.066c0-27.331 22.235-49.566 49.565-49.566h102.379c27.331 0 49.566 22.235 49.566 49.566v86.772c0 22.004 9.336 43.105 25.611 57.893 8.978 8.158 3.166 22.967-8.874 22.967z" fill="#007ea8"/><g fill="#e207b9"><g><path d="m444.094 264.802c-17.64 0-130.185 0-148.312 0-35.602 0-64.566 28.964-64.566 64.566v86.772c0 17.785-7.545 34.839-20.7 46.793-12.3 11.179-11.884 29.16-1.605 40.219 5.303 5.706 12.608 8.848 20.569 8.848h214.614c35.602 0 64.565-28.964 64.565-64.566v-118.066c.001-35.602-28.963-64.566-64.565-64.566zm-223.489 209.232c16.276-14.789 25.611-35.891 25.611-57.894v-86.772c0-27.331 22.235-49.566 49.566-49.566h102.379c27.331 0 49.566 22.235 49.566 49.566v118.066c0 27.331-22.235 49.566-49.566 49.566h-168.681c-12.039 0-17.852-14.808-8.875-22.966zm273.055-26.6c0 27.331-22.235 49.566-49.565 49.566h-4.6c14.292-11.934 23.233-29.959 23.233-49.566v-118.066c0-18.88-8.397-37.167-23.233-49.566h4.6c27.33 0 49.565 22.235 49.565 49.566z"/><path d="m368.817 403.291h-46.743c-4.143 0-7.5 3.358-7.5 7.5s3.357 7.5 7.5 7.5h46.743c4.143 0 7.5-3.358 7.5-7.5s-3.358-7.5-7.5-7.5z"/></g><path d="m237.212 109.733c0-.001 0-.001 0-.002-1.072-17.191-10.988-31.64-26.524-38.65-14.718-6.641-31.449-5.147-45.72 3.847-14.271-8.992-31.004-10.484-45.724-3.842-15.532 7.009-25.444 21.454-26.516 38.641v.003c-.854 13.689 4.08 28.016 14.27 41.432.001.002.003.005.005.007 10.83 14.254 27.448 27.442 49.392 39.199h.001c5.239 2.805 11.645 2.943 17.136.005.004-.002.009-.004.013-.006 21.942-11.755 38.56-24.943 49.392-39.199 10.19-13.412 15.127-27.741 14.275-41.435zm-70.753 67.413c-.001 0-.002.001-.003.002-.934.499-2.046.498-2.98-.002-20.03-10.732-35.013-22.525-44.531-35.052-.001-.001-.002-.002-.003-.003-7.983-10.51-11.871-21.377-11.244-31.426.72-11.54 7.343-21.225 17.717-25.906 11.178-5.042 24.242-3.084 34.951 5.239 2.769 2.143 6.57 2.045 9.205 0 10.709-8.323 23.776-10.284 34.947-5.244 10.378 4.683 17.004 14.37 17.724 25.912v.001c.625 10.053-3.265 20.921-11.25 31.429-9.52 12.526-24.502 24.32-44.533 35.05z"/></g></g></svg>