<svg id="Capa_1" enable-background="new 0 0 512 512" height="512" viewBox="0 0 512 512" width="512" xmlns="http://www.w3.org/2000/svg"><g><path d="m504.18 193.378c-166.345 74.21-165.996 5.893-248.18 5.893s-81.835 68.317-248.18-5.893c.881-8.322 3.597-16.49 8.107-23.869 79.765-130.444 190.563-85.627 227.519-65.519 7.82 4.253 17.289 4.253 25.109 0 36.956-20.108 147.754-64.925 227.519 65.519 4.509 7.379 7.225 15.547 8.106 23.869z" fill="#ff63ed"/><path d="m179.305 329.338v53.879h-16.318c-13.466 0-24.383 10.917-24.383 24.383s10.917 24.383 24.383 24.383h40.701c13.466 0 24.383-10.917 24.383-24.383v-72.781c-17.534-.972-33.758-2.854-48.766-5.481z" fill="#ffd600"/><path d="m292.786 334.234v48.983h-16.318c-13.466 0-24.383 10.917-24.383 24.383s10.917 24.383 24.383 24.383h40.701c13.466 0 24.383-10.917 24.383-24.383v-79.935c-14.952 3.006-31.175 5.254-48.766 6.569z" fill="#ffd600"/><path d="m497.437 226.717c-24.32 43.772-88.394 108.86-241.436 108.86s-217.117-65.089-241.437-108.86c-5.729-10.32-7.943-21.973-6.744-33.339 166.345 74.21 165.996 5.893 248.18 5.893s81.835 68.317 248.18-5.893c1.199 11.366-1.014 23.018-6.743 33.339z" fill="#ff63ed"/><path d="m179.305 329.338v31.171c15.573 2.513 31.837 4.213 48.766 5.096v-30.785c-17.534-.973-33.758-2.855-48.766-5.482z" fill="#f95116"/><g><path d="m203.688 439.483h-40.701c-17.58 0-31.882-14.302-31.882-31.883 0-17.58 14.302-31.883 31.882-31.883h8.818v-43.38c0-4.142 3.357-7.5 7.5-7.5 4.142 0 7.5 3.358 7.5 7.5v50.879c0 4.142-3.357 7.5-7.5 7.5h-16.318c-9.309 0-16.882 7.574-16.882 16.883s7.573 16.883 16.882 16.883h40.701c9.309 0 16.883-7.574 16.883-16.883v-69.781c0-4.142 3.357-7.5 7.5-7.5s7.5 3.358 7.5 7.5v69.782c0 17.58-14.303 31.883-31.883 31.883z" fill="#f95116"/></g><g><path d="m317.169 439.483h-40.701c-17.581 0-31.883-14.302-31.883-31.883 0-17.58 14.302-31.883 31.883-31.883h8.818v-38.483c0-4.142 3.357-7.5 7.5-7.5s7.5 3.358 7.5 7.5v45.983c0 4.142-3.357 7.5-7.5 7.5h-16.318c-9.309 0-16.883 7.574-16.883 16.883s7.574 16.883 16.883 16.883h40.701c9.309 0 16.883-7.574 16.883-16.883v-76.935c0-4.142 3.357-7.5 7.5-7.5 4.142 0 7.5 3.358 7.5 7.5v76.935c0 17.58-14.302 31.883-31.883 31.883z" fill="#f95116"/></g><path d="m292.786 334.234v30.824c16.955-1.188 33.219-3.218 48.766-6.085v-31.309c-14.952 3.007-31.175 5.255-48.766 6.57z" fill="#f95116"/><path d="m502.472 165.597c-35.612-58.238-81.286-89.457-135.752-92.79-44.235-2.71-82.733 14.248-101.749 24.595-5.617 3.056-12.325 3.055-17.94 0-19.018-10.347-57.512-27.296-101.749-24.596-54.468 3.333-100.141 34.553-135.754 92.792-11.855 19.397-12.973 44.132-1.52 64.761 11.437 20.586 33.784 50.086 75.291 73.72 45.449 25.877 103.554 38.998 172.7 38.998 69.147 0 127.251-13.121 172.701-38.998 41.507-23.633 63.854-53.134 75.291-73.72.001-.001.001-.002.002-.003 11.439-20.606 10.346-45.343-1.521-64.759zm-356.274-77.819c40.489-2.476 76.06 13.221 93.665 22.8 10.105 5.497 22.171 5.496 32.277 0 17.604-9.578 53.19-25.275 93.663-22.799 49.29 3.016 90.967 31.831 123.872 85.642 2.9 4.746 5.001 10.001 6.187 15.433-26.321 11.503-56.634 23.036-84.606 28.385-36.763 7.039-56.573 2.949-89.699-10.424-48.49-19.565-79.144-20.968-131.112 0-21.151 8.534-36.628 13.859-59.493 13.652-37.045-.335-80.714-16.713-114.812-31.612 1.187-5.432 3.287-10.688 6.186-15.432 32.906-53.814 74.582-82.629 123.872-85.645zm344.683 135.296c-10.508 18.911-31.112 46.054-69.602 67.97-43.159 24.574-98.767 37.033-165.279 37.033s-122.119-12.46-165.278-37.033c-38.49-21.916-59.095-49.059-69.6-67.967-3.155-5.683-5.115-11.861-5.822-18.245 35.488 15.142 78.948 30.589 117.32 30.589 27.009-.001 45.375-7.409 63.437-14.697 44.761-18.059 71.407-19.56 119.887 0 37.275 15.039 58.812 18.882 99.455 10.872 27.147-5.372 55.653-15.79 81.301-26.764-.707 6.382-2.665 12.561-5.819 18.242z" fill="#e207b9"/></g></svg>