<svg id="Capa_1" enable-background="new 0 0 512 512" height="512" viewBox="0 0 512 512" width="512" xmlns="http://www.w3.org/2000/svg"><g><path d="m293.261 70.219-.186.186 10.508 10.508c10.238 10.238 10.238 26.837 0 37.075-10.237 10.238-26.838 10.237-37.074 0l-10.509-10.509-10.508 10.508c-10.238 10.238-26.838 10.237-37.075 0-10.238-10.238-10.238-26.837 0-37.075l10.508-10.508-.186-.186c-66.842 14.424-116.372 67.486-116.372 139.483 0 16.451 2.596 34.067 7.383 51.776 2.722-6.382 7.444-11.932 13.835-15.626 8.188-4.733 17.338-7.095 26.487-7.095 9.139 0 18.278 2.361 26.477 7.095 8.199 4.733 17.338 7.095 26.477 7.095 9.149 0 18.299-2.361 26.487-7.095 8.188-4.733 17.338-7.095 26.487-7.095s18.299 2.361 26.487 7.095c8.188 4.733 17.338 7.095 26.487 7.095 9.139 0 18.278-2.361 26.477-7.095 16.387-9.466 36.577-9.466 52.964 0 6.39 3.694 11.112 9.244 13.835 15.626 4.787-17.709 7.383-35.324 7.383-51.776-.001-71.997-49.53-125.058-116.372-139.482z" fill="#ff63ed"/><path d="m293.075 70.405 18.143-18.143c10.238-10.238 10.238-26.837 0-37.075-10.237-10.238-26.837-10.238-37.074 0l-18.144 18.143-18.143-18.144c-10.238-10.238-26.837-10.238-37.075 0s-10.238 26.837 0 37.075l18.143 18.143-10.508 10.508c-10.238 10.238-10.238 26.837 0 37.075 10.237 10.237 26.837 10.238 37.075 0l10.508-10.507 10.508 10.508c10.236 10.237 26.837 10.238 37.074 0 10.238-10.238 10.238-26.837 0-37.075z" fill="#88f8d8"/><path d="m268.583 165.601c-6.031-8.851-19.134-8.851-25.165 0-4.574 6.712-7.391 15.497-7.391 22.574 0 .879.043 1.748.128 2.604 2.323 23.447 37.367 23.447 39.691 0 .085-.857.128-1.725.128-2.604 0-7.077-2.818-15.862-7.391-22.574z" fill="#ffff6f"/><path d="m185.074 148.223c-6.031-8.851-19.134-8.851-25.165 0-4.574 6.712-7.391 15.497-7.391 22.574 0 .879.043 1.748.128 2.604 2.323 23.447 37.367 23.447 39.69 0 .085-.857.128-1.725.128-2.604.001-7.077-2.816-15.862-7.39-22.574z" fill="#ffff6f"/><path d="m326.926 148.223c6.031-8.851 19.134-8.851 25.165 0 4.574 6.712 7.391 15.497 7.391 22.574 0 .879-.043 1.748-.128 2.604-2.323 23.447-37.367 23.447-39.69 0-.085-.857-.128-1.725-.128-2.604-.001-7.077 2.816-15.862 7.39-22.574z" fill="#ffff6f"/><path d="m280.223 415.651v41.414h-15.872c-13.099 0-23.718 10.619-23.718 23.717 0 13.099 10.619 23.717 23.718 23.717h39.59c13.099 0 23.717-10.619 23.717-23.717v-88.089c-15.143 11.338-31.112 19.083-47.435 22.958z" fill="#88f8d8"/><path d="m245.963 418.023c-16.169-1.585-32.13-6.964-47.435-15.894v54.936h-15.872c-13.099 0-23.718 10.619-23.718 23.717 0 13.099 10.619 23.717 23.718 23.717h39.59c9.16 0 17.102-5.196 21.053-12.799-1.699-3.269-2.665-6.98-2.665-10.919 0-5.68 1.999-10.892 5.329-14.976z" fill="#88f8d8"/><path d="m388.414 245.852c-16.387-9.466-36.577-9.466-52.964 0-8.199 4.733-17.338 7.095-26.477 7.095-9.149 0-18.299-2.361-26.487-7.095-8.188-4.733-17.338-7.095-26.487-7.095s-18.299 2.361-26.487 7.095c-8.188 4.733-17.338 7.095-26.487 7.095-9.139 0-18.278-2.361-26.477-7.095-8.199-4.733-17.338-7.095-26.477-7.095-9.149 0-18.299 2.361-26.487 7.095-14.026 8.108-20.048 25.145-14.418 40.336 7.872 21.239 18.587 41.988 31.51 60.368 32.621 46.421 73.583 71.978 115.322 71.978s82.702-25.557 115.322-71.978c12.923-18.38 23.638-39.129 31.51-60.368 5.632-15.191-.39-32.229-14.416-40.336z" fill="#f90"/><circle cx="309.257" cy="300.285" fill="#f95116" r="11.3"/><g><path d="m279.927 338.24h-47.854c-4.143 0-7.5-3.358-7.5-7.5s3.357-7.5 7.5-7.5h47.854c4.143 0 7.5 3.358 7.5 7.5s-3.358 7.5-7.5 7.5z" fill="#f95116"/></g><circle cx="202.743" cy="300.285" fill="#f95116" r="11.3"/><g><path d="m395.696 256.92c4.271-16.557 6.436-32.443 6.436-47.218 0-32.684-10.764-62.504-31.131-86.237-19.716-22.976-46.952-38.811-78.765-45.793-4.046-.888-6.606-4.888-5.718-8.933.887-4.045 4.888-6.605 8.932-5.718 35.02 7.686 65.081 25.21 86.934 50.676 22.732 26.491 34.748 59.689 34.748 96.006 0 16.037-2.325 33.184-6.911 50.964-2.489 9.643-17.017 5.915-14.525-3.747z" fill="#e207b9"/></g><g><path d="m101.718 260.428c-4.545-17.696-6.85-34.762-6.85-50.726 0-36.207 11.949-69.327 34.554-95.78 21.729-25.427 51.644-42.982 86.51-50.765 4.04-.905 8.052 1.644 8.953 5.685.903 4.043-1.643 8.052-5.685 8.954-31.67 7.07-58.773 22.932-78.375 45.87-20.253 23.7-30.958 53.451-30.958 86.036 0 14.706 2.146 30.517 6.379 46.994 2.479 9.652-12.047 13.388-14.528 3.732z" fill="#e207b9"/></g><g><path d="m256.001 215.865c-15.385.001-27.475-11.101-27.475-27.69 0-8.661 3.331-18.929 8.694-26.798 8.986-13.189 28.544-13.231 37.56 0 5.362 7.868 8.693 18.136 8.693 26.797.001 16.565-12.063 27.691-27.472 27.691zm-6.385-46.041c-3.643 5.345-6.09 12.72-6.09 18.351 0 8.178 5.395 12.69 12.474 12.69 7.042 0 12.473-4.468 12.473-12.69 0-5.632-2.447-13.007-6.089-18.351h-.001c-3.037-4.461-9.693-4.513-12.767 0z" fill="#f95116"/></g><g><path d="m172.492 198.487c-15.381 0-27.473-11.093-27.473-27.69 0-8.661 3.331-18.929 8.692-26.798 8.988-13.19 28.545-13.231 37.561 0 .001 0 .001 0 .001.001 5.361 7.87 8.692 18.137 8.692 26.797 0 16.566-12.065 27.69-27.473 27.69zm-6.385-46.041c-3.643 5.344-6.089 12.719-6.089 18.351 0 8.179 5.394 12.69 12.473 12.69 7.046 0 12.473-4.477 12.473-12.69 0-5.631-2.446-13.005-6.088-18.351-3.045-4.471-9.7-4.506-12.769 0z" fill="#f95116"/></g><g><path d="m339.508 198.487c-.001 0 0 0 0 0-15.384-.001-27.473-11.1-27.473-27.69 0-8.661 3.331-18.929 8.694-26.798h-.001c8.988-13.19 28.545-13.232 37.561 0 5.362 7.869 8.693 18.137 8.693 26.797 0 16.565-12.068 27.691-27.474 27.691zm-6.384-46.041c-3.643 5.345-6.09 12.72-6.09 18.351 0 8.196 5.414 12.69 12.473 12.69 7.042 0 12.474-4.468 12.474-12.69 0-5.632-2.447-13.006-6.089-18.351-3.052-4.481-9.705-4.497-12.768 0z" fill="#f95116"/></g><g fill="#007ea8"><path d="m280.223 415.651v31.354c16.276-2.964 32.185-8.912 47.435-17.64v-36.672c-15.143 11.338-31.112 19.083-47.435 22.958z"/><path d="m198.528 402.129v34.47c15.355 6.879 31.26 11.01 47.435 12.221v-30.798c-16.17-1.584-32.13-6.963-47.435-15.893z"/><path d="m208.319 70.404-5.205 5.205c-13.145 13.146-13.145 34.536 0 47.681 13.162 13.162 34.504 13.179 47.681 0l5.206-5.205 5.205 5.205c13.162 13.163 34.505 13.178 47.681 0 13.145-13.146 13.145-34.536 0-47.681l-5.205-5.205 12.841-12.84c13.145-13.146 13.145-34.536 0-47.681-13.177-13.177-34.504-13.178-47.682 0l-12.841 12.84-12.84-12.84c-13.146-13.146-34.537-13.146-47.683 0-13.144 13.146-13.144 34.536 0 47.681zm-2.234-49.915c7.314-7.314 19.153-7.315 26.468 0l18.143 18.144c2.928 2.927 7.677 2.929 10.607 0l18.143-18.144c7.312-7.314 19.154-7.315 26.467 0 7.315 7.315 7.315 19.153 0 26.469l-18.143 18.143c-2.929 2.929-2.929 7.677 0 10.606l10.508 10.508c7.315 7.315 7.315 19.153 0 26.469-7.313 7.314-19.152 7.314-26.467 0l-10.509-10.508c-2.928-2.929-7.677-2.929-10.605 0l-10.51 10.508c-7.312 7.314-19.154 7.315-26.467 0-7.298-7.298-7.298-19.171 0-26.469l10.508-10.508c2.929-2.929 2.929-7.678 0-10.606l-18.143-18.143c-7.297-7.297-7.297-19.172 0-26.469z"/><path d="m327.658 388.194c-4.143 0-7.5 3.358-7.5 7.5v85.089c0 8.942-7.275 16.218-16.218 16.218h-39.589c-9.035 0-16.218-7.383-16.218-16.218 0-8.83 7.171-16.218 16.218-16.218h15.872c4.143 0 7.5-3.358 7.5-7.5v-38.414c0-4.142-3.357-7.5-7.5-7.5s-7.5 3.358-7.5 7.5v30.914h-8.372c-3.829 0-7.496.696-10.889 1.963v-30.505c0-4.142-3.357-7.5-7.5-7.5s-7.5 3.358-7.5 7.5v42.319c-3.519 5.224-5.329 11.357-5.329 17.441 0 3.195.528 6.754 1.717 10.202-3.045 3.771-7.64 6.015-12.605 6.015h-39.59c-8.942 0-16.218-7.275-16.218-16.218s7.275-16.218 16.218-16.218h15.873c4.143 0 7.5-3.358 7.5-7.5v-51.936c0-4.142-3.357-7.5-7.5-7.5s-7.5 3.358-7.5 7.5v44.436h-8.373c-17.214 0-31.217 14.004-31.217 31.217s14.003 31.219 31.217 31.219h39.59c7.957 0 15.411-2.994 21.067-8.177 5.553 5.076 12.94 8.177 21.039 8.177h39.589c17.214 0 31.217-14.004 31.217-31.217v-85.089c.001-4.142-3.357-7.5-7.499-7.5z"/></g><g><path d="m256 426.033c-44.263 0-87.397-26.694-121.459-75.166-13.002-18.492-24.209-39.958-32.406-62.073-6.933-18.709.509-39.5 17.696-49.436 18.521-10.707 41.604-10.892 60.468-.002 6.9 3.984 14.76 6.09 22.727 6.09 22.329 0 26.132-14.189 52.974-14.189 26.791 0 30.752 14.189 52.974 14.189 7.968 0 15.826-2.106 22.726-6.09 18.645-10.771 41.816-10.773 60.465.001.001 0 .002 0 .003.001 17.187 9.936 24.63 30.727 17.696 49.435-8.196 22.115-19.403 43.58-32.408 62.075-34.059 48.471-77.193 75.165-121.456 75.165zm-128.661-173.688c-10.84 6.267-15.524 19.403-11.139 31.236 7.756 20.922 18.342 41.207 30.614 58.661 31.172 44.361 69.949 68.791 109.187 68.791 39.237 0 78.013-24.43 109.185-68.79 12.274-17.456 22.86-37.74 30.615-58.662 4.386-11.833-.3-24.97-11.139-31.236-14.02-8.098-31.439-8.097-45.459.001-9.179 5.3-19.631 8.1-30.227 8.1-26.791 0-30.752-14.189-52.974-14.189-22.329 0-26.132 14.189-52.974 14.189-10.597 0-21.049-2.801-30.227-8.099-14.232-8.215-31.59-8.021-45.462-.002z" fill="#f95116"/></g></g></svg>