<svg id="Capa_1" enable-background="new 0 0 512 512" height="512" viewBox="0 0 512 512" width="512" xmlns="http://www.w3.org/2000/svg"><g><g><path d="m428.491 361.187v73.811c0 12.987-10.528 23.515-23.515 23.515h-39.252c-12.987 0-23.515-10.528-23.515-23.515s10.528-23.515 23.515-23.515h15.737v-50.296z" fill="#b98eff"/></g><g><path d="m130.54 361.187v73.811c0 12.987-10.528 23.515-23.515 23.515h-39.253c-12.987 0-23.515-10.528-23.515-23.515s10.528-23.515 23.515-23.515h15.737v-50.296z" fill="#b98eff"/></g><g><g><path d="m404.976 466.013h-39.252c-17.103 0-31.016-13.914-31.016-31.015s13.913-31.015 31.016-31.015h8.237v-39.796c0-4.142 3.357-7.5 7.5-7.5s7.5 3.358 7.5 7.5v47.296c0 4.142-3.357 7.5-7.5 7.5h-15.737c-8.831 0-16.016 7.185-16.016 16.015s7.185 16.015 16.016 16.015h39.252c8.831 0 16.016-7.185 16.016-16.015v-70.811c0-4.142 3.357-7.5 7.5-7.5s7.5 3.358 7.5 7.5v70.811c-.001 17.101-13.914 31.015-31.016 31.015z" fill="#6d00ca"/></g></g><path d="m381.461 361.187h47.03v31.423h-47.03z" fill="#6d00ca"/><g><g><path d="m107.024 466.013h-39.252c-17.103 0-31.016-13.914-31.016-31.015s13.913-31.015 31.016-31.015h8.237v-39.796c0-4.142 3.357-7.5 7.5-7.5s7.5 3.358 7.5 7.5v47.296c0 4.142-3.357 7.5-7.5 7.5h-15.737c-8.831 0-16.016 7.185-16.016 16.015s7.185 16.015 16.016 16.015h39.252c8.831 0 16.016-7.185 16.016-16.015v-70.811c0-4.142 3.357-7.5 7.5-7.5s7.5 3.358 7.5 7.5v70.811c0 17.101-13.913 31.015-31.016 31.015z" fill="#6d00ca"/></g></g><path d="m83.509 361.187h47.03v31.423h-47.03z" fill="#6d00ca"/><path d="m504.5 303.935v31.475c0 14.234-11.542 25.776-25.776 25.776h-23.981v-59.189c0-109.588-89.155-198.743-198.743-198.743s-198.743 89.156-198.743 198.744v59.189h-23.981c-14.234 0-25.776-11.542-25.776-25.776v-33.413c0-136.914 111.291-248.327 248.153-248.51 136.873-.184 248.847 113.575 248.847 250.447z" fill="#f90"/><path d="m454.743 301.998v59.189h-49.767v-59.189c0-82.15-66.825-148.976-148.976-148.976s-148.976 66.825-148.976 148.976v59.189h-49.767v-59.189c0-109.588 89.155-198.743 198.743-198.743s198.743 89.155 198.743 198.743z" fill="#ff63ed"/><path d="m404.976 301.998v59.189h-49.767v-59.189c0-54.712-44.506-99.219-99.208-99.219s-99.208 44.506-99.208 99.219v59.189h-49.767v-59.189c0-82.15 66.825-148.976 148.976-148.976s148.974 66.826 148.974 148.976z" fill="#ffff6f"/><path d="m355.208 301.998v59.189h-49.757v-59.189c0-27.315-22.146-49.451-49.451-49.451s-49.451 22.136-49.451 49.451v59.189h-49.757v-59.189c0-54.712 44.506-99.219 99.208-99.219s99.208 44.507 99.208 99.219z" fill="#88f8d8"/><path d="m305.451 301.998v59.189h-98.902v-59.189c0-27.315 22.146-49.451 49.451-49.451s49.451 22.136 49.451 49.451z" fill="#565eec"/><g><path d="m478.725 368.687h-23.981c-4.143 0-7.5-3.358-7.5-7.5s3.357-7.5 7.5-7.5h23.981c10.077 0 18.275-8.199 18.275-18.276v-31.475c0-32.682-6.495-64.509-19.304-94.598-12.383-29.086-30.063-55.221-52.551-77.678-45.642-45.581-105.707-70.672-169.159-70.672-.108 0-.214 0-.323 0-132.702.178-240.663 108.295-240.663 241.01v33.413c0 10.077 8.199 18.276 18.276 18.276h23.98c4.143 0 7.5 3.358 7.5 7.5s-3.357 7.5-7.5 7.5h-23.98c-18.348 0-33.276-14.928-33.276-33.276v-33.413c0-140.976 114.681-255.821 255.644-256.01h.343c67.46 0 131.281 26.646 179.759 75.059 23.854 23.823 42.613 51.552 55.752 82.417 13.604 31.955 20.502 65.759 20.502 100.472v31.475c0 18.348-14.928 33.276-33.275 33.276z" fill="#f95116"/></g><g><path d="m454.743 368.687h-49.768c-4.143 0-7.5-3.358-7.5-7.5s3.357-7.5 7.5-7.5h42.268v-51.688c0-105.452-85.791-191.243-191.243-191.243s-191.243 85.79-191.243 191.242v51.688h42.268c4.143 0 7.5 3.358 7.5 7.5s-3.357 7.5-7.5 7.5h-49.768c-4.143 0-7.5-3.358-7.5-7.5v-59.188c0-113.723 92.521-206.243 206.243-206.243s206.243 92.521 206.243 206.243v59.188c0 4.143-3.357 7.501-7.5 7.501z" fill="#e207b9"/></g><g><path d="m404.976 368.687h-49.768c-4.143 0-7.5-3.358-7.5-7.5s3.357-7.5 7.5-7.5h42.268v-51.688c0-78.01-63.466-141.476-141.476-141.476s-141.476 63.466-141.476 141.476v51.688h42.268c4.143 0 7.5 3.358 7.5 7.5s-3.357 7.5-7.5 7.5h-49.768c-4.143 0-7.5-3.358-7.5-7.5v-59.188c0-86.281 70.194-156.476 156.476-156.476s156.476 70.195 156.476 156.476v59.188c0 4.142-3.358 7.5-7.5 7.5z" fill="#f95116"/></g><g><path d="m355.208 368.687h-49.757c-4.143 0-7.5-3.358-7.5-7.5s3.357-7.5 7.5-7.5h42.257v-51.688c0-50.574-41.14-91.719-91.708-91.719s-91.708 41.145-91.708 91.719v51.688h42.257c4.143 0 7.5 3.358 7.5 7.5s-3.357 7.5-7.5 7.5h-49.757c-4.143 0-7.5-3.358-7.5-7.5v-59.188c0-58.845 47.869-106.719 106.708-106.719s106.708 47.874 106.708 106.719v59.188c0 4.142-3.357 7.5-7.5 7.5z" fill="#007ea8"/></g><g><path d="m305.451 368.687h-98.902c-4.143 0-7.5-3.358-7.5-7.5v-59.188c0-31.403 25.548-56.951 56.951-56.951s56.951 25.548 56.951 56.951v59.188c0 4.142-3.357 7.5-7.5 7.5zm-91.402-15h83.902v-51.688c0-23.132-18.819-41.951-41.951-41.951s-41.951 18.819-41.951 41.951z" fill="#2115c2"/></g></g></svg>