<svg id="Capa_1" enable-background="new 0 0 512 512" height="512" viewBox="0 0 512 512" width="512" xmlns="http://www.w3.org/2000/svg"><g><path d="m177.432 200.515c.082 14.088-11.272 25.564-25.36 25.646-19.178.102-32.286.153-41.335.153-18.831 0-20.045-.204-21.871-.52-12.241-2.101-21.198-12.711-21.198-25.135v-167.656c0-14.088 11.415-25.503 25.503-25.503s25.503 11.415 25.503 25.503v142.285c9.997-.02 21.851-.071 33.113-.133h.143c.133 0 .275 0 .408.01 13.842.214 25.012 11.446 25.094 25.35z" fill="#b98eff"/><path d="m152.337 33.003v142.152h-.551c-11.262.061-23.116.112-33.113.133v-142.285c0-14.088-11.415-25.503-25.503-25.503h33.664c14.088 0 25.503 11.415 25.503 25.503z" fill="#9448f5"/><path d="m152.337 175.155v.01.122" fill="#b98eff"/><path d="m211.096 200.515c.082 14.088-11.272 25.564-25.36 25.646-19.178.102-24.625 0-33.664 0 14.088-.082 25.441-11.558 25.36-25.646-.082-13.904-11.252-25.135-25.095-25.35-.133-.01-.275-.01-.408-.01h33.664c14.026 0 25.421 11.323 25.503 25.36z" fill="#9448f5"/><path d="m333.58 7.5c-60.319 0-109.396 49.077-109.396 109.396 0 60.329 49.077 109.407 109.396 109.407 60.329 0 109.407-49.077 109.407-109.407-.001-60.319-49.078-109.396-109.407-109.396zm0 167.798c-32.195 0-58.391-26.196-58.391-58.401 0-32.195 26.196-58.391 58.391-58.391 32.205 0 58.401 26.196 58.401 58.391 0 32.204-26.196 58.401-58.401 58.401z" fill="#ffff6f"/><path d="m478.69 116.896c0 60.329-49.077 109.407-109.407 109.407h-35.703c60.329 0 109.407-49.077 109.407-109.407-.001-60.319-49.078-109.396-109.407-109.396h35.704c60.329 0 109.406 49.077 109.406 109.396z" fill="#ffd600"/><path d="m183.155 286.499c1.01.204 2.01.469 3.009.806 13.374 4.437 20.606 18.872 16.169 32.246l-54.79 164.921c-.02.051-.041.112-.061.163-4.009 11.803-15.067 19.78-27.533 19.861h33.664c12.466-.082 23.524-8.059 27.533-19.861.02-.051.041-.112.061-.163l54.79-164.921c.143-.418.265-.836.388-1.255 4.427-16.046-8.049-32.603-24.697-32.603h-32.277z" fill="#17d9c3"/><path d="m186.164 287.305c-1-.337-1.999-.602-3.009-.806-3.387-.683-6.784-.653-10.017 0-8.691 1.734-16.22 7.957-19.209 16.964l-34.622 104.224-36.398-104.856c-4.621-13.302-19.158-20.341-32.46-15.72-13.302 4.611-20.341 19.147-15.73 32.45l57.371 165.278c.02.061.041.122.061.173 4.152 11.68 15.23 19.484 27.604 19.484h.194c12.466-.082 23.524-8.059 27.533-19.861.02-.051.041-.112.061-.163l54.79-164.921c4.437-13.374-2.795-27.808-16.169-32.246z" fill="#88f8d8"/><g fill="#ff63ed"><path d="m324.057 338.233h34.684v32.127h-34.684z"/><path d="m324.057 421.366h34.684v32.128h-34.684z"/><path d="m394.115 312.731c0 14.084-11.418 25.503-25.503 25.503h34.684c14.084 0 25.503-11.418 25.503-25.503s-11.418-25.503-25.503-25.503h-34.684c14.084 0 25.503 11.418 25.503 25.503z"/><path d="m363.447 421.366h34.684c14.085 0 25.503-11.417 25.503-25.503 0-14.085-11.417-25.503-25.503-25.503h-34.684c14.085 0 25.503 11.417 25.503 25.503-.001 14.086-11.418 25.503-25.503 25.503z"/><path d="m403.296 453.495h-34.684c14.084 0 25.503 11.417 25.503 25.503 0 14.084-11.418 25.503-25.503 25.503h34.684c14.084 0 25.503-11.418 25.503-25.503-.001-14.086-11.419-25.503-25.503-25.503z"/></g><path d="m368.612 338.233c14.084 0 25.503-11.418 25.503-25.503s-11.418-25.503-25.503-25.503h-70.058c-14.085 0-25.503 11.417-25.503 25.503v166.267c0 14.084 11.417 25.503 25.503 25.503h70.058c14.084 0 25.503-11.418 25.503-25.503s-11.418-25.503-25.503-25.503h-44.555v-32.128h39.39c14.085 0 25.503-11.417 25.503-25.503 0-14.085-11.417-25.503-25.503-25.503h-39.39v-32.127z" fill="#ff9bff"/><path d="m185.593 167.655h-25.756v-134.652c0-18.198-14.805-33.003-33.002-33.003h-33.664c-18.198 0-33.003 14.805-33.003 33.003v167.654c0 16.119 11.536 29.799 27.42 32.526 6.069 1.05 91.811.511 98.19.477 18.2-.105 32.922-14.994 32.817-33.188 0 0 0 0 0-.001-.105-18.095-14.91-32.816-33.002-32.816zm-58.758-152.655c9.927 0 18.002 8.076 18.002 18.003v134.688c-5.989.03-12.705.058-18.663.077v-134.765c0-6.18-1.791-12.555-5.354-18.003zm-36.7 203.401c-8.672-1.489-14.967-8.951-14.967-17.744v-167.654c0-9.927 8.076-18.003 18.003-18.003s18.003 8.076 18.003 18.003v142.284c0 4.143 3.362 7.5 7.5 7.5h.015c10.271-.021 21.986-.073 33.257-.132 11.533.613 17.936 9.26 17.986 17.904.059 9.966-7.971 18.044-17.902 18.102-27.014.143-58.303.362-61.895-.26zm95.56.259c-2.211.012-4.238.021-6.108.028 3.563-5.412 5.383-11.864 5.345-18.217-.039-6.514-2.044-12.686-5.415-17.816h6.076c9.869 0 17.945 8.031 18.003 17.903.057 9.924-7.975 18.045-17.901 18.102z" fill="#6d00ca"/><g fill="#f95116"><path d="m333.58 51.005c-36.333 0-65.892 29.559-65.892 65.891 0 36.338 29.559 65.901 65.892 65.901 36.338 0 65.901-29.563 65.901-65.901.001-36.332-29.563-65.891-65.901-65.891zm0 116.792c-28.062 0-50.892-22.834-50.892-50.901 0-28.062 22.83-50.891 50.892-50.891 28.067 0 50.901 22.83 50.901 50.891.001 28.067-22.833 50.901-50.901 50.901z"/><path d="m369.283 0h-35.703c-64.457 0-116.896 52.439-116.896 116.896 0 64.462 52.439 116.906 116.896 116.906h35.703c64.463 0 116.907-52.444 116.907-116.906 0-64.457-52.444-116.896-116.907-116.896zm-35.703 218.803c-56.186 0-101.896-45.715-101.896-101.906 0-56.187 45.711-101.897 101.896-101.897 56.191 0 101.906 45.71 101.906 101.896 0 56.192-45.714 101.907-101.906 101.907zm63.677-3.903c32.014-20.884 53.229-57.019 53.229-98.003 0-39.215-19.751-76.15-53.227-97.993 42.632 12.188 73.931 51.505 73.931 97.993 0 46.495-31.297 85.817-73.933 98.003z"/></g><path d="m211.688 278.193s-33.759.115-34.449.324c-14.118.392-26.136 9.652-30.427 22.582l-27.661 83.268-29.156-83.997c-5.98-17.214-24.772-26.334-42.001-20.346-17.187 5.958-26.321 24.795-20.359 41.996l57.341 165.19c.044.131.089.26.134.381 5.222 14.601 19.135 24.405 34.646 24.405h.194.05 33.663c15.412-.102 29.554-9.911 34.661-25.16l54.771-164.864c7.285-21.378-9.325-43.779-31.407-43.779zm-112.469 204.307c-.011-.029-.021-.058-.031-.086-.005-.014-.01-.027-.013-.035l-57.369-165.274c-3.252-9.382 1.728-19.659 11.104-22.909 9.391-3.263 19.648 1.696 22.914 11.095l36.397 104.857c2.309 6.657 11.926 6.756 14.202-.095l34.623-104.227c3.12-9.402 13.364-14.556 22.755-11.403 9.467 3.142 14.542 13.333 11.414 22.763l-54.743 164.78c-3.791 9.994-11.87 14.973-20.573 15.031h-.145c-9.201 0-17.454-5.826-20.535-14.497zm129.66-165.314-54.75 164.801c-3.979 10.27-12.115 14.954-20.517 15.01h-4.218c2.318-3.142 4.187-6.864 5.266-10.16l54.791-164.924c2.777-8.369 2.131-17.317-1.818-25.197-.611-1.219-1.488-2.688-2.041-3.522h6.096c12.141-.001 21.044 12.643 17.191 23.992z" fill="#007ea8"/><path d="m403.296 445.995h-34.684-2.372v-17.128h31.89c18.198 0 33.003-14.805 33.003-33.002s-14.805-33.003-33.003-33.003h-31.89v-17.127h37.056c18.197 0 33.002-14.805 33.002-33.002s-14.805-33.003-33.002-33.003c-12.25 0-93.541 0-104.741 0-18.198 0-33.003 14.805-33.003 33.003v166.267c0 18.198 14.805 33.002 33.003 33.002h104.741c18.197 0 33.002-14.805 33.002-33.002s-14.805-33.005-33.002-33.005zm-52.056 0h-19.684v-17.128h19.684zm46.89-68.134c9.927 0 18.003 8.076 18.003 18.003s-8.076 18.002-18.003 18.002h-7.034c3.578-5.488 5.354-11.804 5.354-18.002 0-6.221-1.809-12.584-5.354-18.003zm-46.89-15h-19.684v-17.127h19.684zm52.056-68.133c9.927 0 18.002 8.076 18.002 18.003s-8.075 18.002-18.002 18.002h-7.035c3.589-5.489 5.354-11.85 5.354-18.002 0-6.121-1.751-12.486-5.354-18.003zm-122.744 184.27v-166.267c0-9.927 8.076-18.003 18.003-18.003h70.058c9.927 0 18.002 8.076 18.002 18.003s-8.075 18.002-18.002 18.002c-9.063 0-35.461 0-44.556 0-4.143 0-7.5 3.358-7.5 7.5v32.127c0 4.142 3.357 7.5 7.5 7.5h39.39c9.927 0 18.003 8.076 18.003 18.003s-8.076 18.002-18.003 18.002c-9.72 0-28.966 0-39.39 0-4.143 0-7.5 3.358-7.5 7.5v32.128c0 4.142 3.357 7.5 7.5 7.5h44.556c9.927 0 18.002 8.076 18.002 18.003s-8.076 18.004-18.003 18.004h-70.058c-9.926 0-18.002-8.076-18.002-18.002zm122.744 18.002h-7.035c3.47-5.307 5.354-11.628 5.354-18.002 0-6.217-1.8-12.562-5.354-18.003h7.035c9.927 0 18.002 8.076 18.002 18.003s-8.075 18.002-18.002 18.002z" fill="#e207b9"/></g></svg>