<svg id="Capa_1" enable-background="new 0 0 512 512" height="512" viewBox="0 0 512 512" width="512" xmlns="http://www.w3.org/2000/svg"><g><path d="m446.086 23.148-17.183-11.647c-10.599-7.184-25.015-4.416-32.199 6.183l-27.984 41.288c-5.449 8.039-3.349 18.972 4.69 24.421l26.454 17.931c8.039 5.449 18.972 3.349 24.421-4.69l27.985-41.288c7.183-10.598 4.415-25.014-6.184-32.198z" fill="#f90"/><g fill="#7181ff"><path d="m136.664 280.008c-6.271-10.013-4.761-21.742 1.562-29.881h-47.601c-19.262 0-34.877 15.615-34.877 34.877 0 19.262 15.615 34.877 34.877 34.877h71.011z"/><path d="m360.941 250.127h-41.48c6.323 8.139 7.833 19.868 1.562 29.881l-24.972 39.872h64.889c19.262 0 34.877-15.615 34.877-34.877 0-19.261-15.614-34.876-34.876-34.876z"/></g><path d="m352.399 204.611c-25.559.959-48.775-14.777-57.343-38.868l-11.224-31.501c-22.309 13.718-48.18 35.795-83.672 88.159l-12.007 17.715h110.785c8.665 0 15.886 4.042 20.524 10.011h41.48c3.387 0 6.658.492 9.754 1.393 8.596-19.173 12.752-34.557 15.113-48.157z" fill="#88f8d8"/><path d="m296.052 319.88-3.767 6.014c-13.686 21.853-37.656 35.124-63.441 35.124-25.785 0-49.755-13.271-63.441-35.124l-3.767-6.014h-71.011l13.871 126.974c3.583 32.803 31.289 57.646 64.287 57.646h114.002c32.998 0 60.703-24.844 64.287-57.646l13.871-126.974z" fill="#565eec"/><path d="m298.937 240.116h-140.187c-20.479 0-32.956 22.536-22.086 39.892l28.738 45.887c13.686 21.853 37.656 35.124 63.441 35.124 25.785 0 49.755-13.271 63.441-35.124l28.738-45.887c10.871-17.356-1.605-39.892-22.085-39.892z" fill="#a4bcff"/><g><path d="m368.818 255.865c-3.798-1.654-5.535-6.074-3.881-9.871 6.645-15.256 10.93-29.21 13.481-43.915.708-4.081 4.591-6.814 8.672-6.107 4.081.708 6.815 4.591 6.107 8.672-2.763 15.915-7.373 30.958-14.509 47.339-1.648 3.787-6.06 5.541-9.87 3.882z" fill="#007ea8"/></g><g><path d="m185.88 243.468c-3.429-2.324-4.324-6.988-2-10.416l10.071-14.858c38.616-56.971 66.218-78.206 85.951-90.34 3.531-2.17 8.149-1.068 10.317 2.46 2.17 3.529 1.068 8.148-2.46 10.317-18.454 11.347-44.381 31.374-81.393 85.979l-10.071 14.858c-2.311 3.411-6.969 4.335-10.415 2z" fill="#007ea8"/></g><g fill="#2115c2"><circle cx="276.268" cy="416.852" r="10.712"/><circle cx="175.297" cy="416.852" r="10.712"/><g><path d="m248.464 438.223h-45.364c-4.143 0-7.5 3.358-7.5 7.5s3.357 7.5 7.5 7.5h45.364c4.143 0 7.5-3.358 7.5-7.5s-3.357-7.5-7.5-7.5z"/><path d="m360.941 242.627h-38.039c-6.197-6.379-14.684-10.011-23.965-10.011h-140.187c-9.28 0-17.768 3.632-23.965 10.011h-44.161c-23.367 0-42.376 19.01-42.376 42.376 0 21.056 15.439 38.568 35.591 41.826l13.201 120.838c4.006 36.676 34.848 64.333 71.742 64.333h114.002c36.893 0 67.736-27.656 71.743-64.332l13.2-120.838c20.151-3.258 35.59-20.77 35.59-41.826 0-23.367-19.01-42.377-42.376-42.377zm-202.191 4.989h140.187c14.454 0 23.518 15.97 15.729 28.411l-28.738 45.886c-12.394 19.79-33.735 31.605-57.085 31.605s-44.69-11.815-57.084-31.605l-28.738-45.886c-7.778-12.425 1.21-28.411 15.729-28.411zm-68.126 64.764c-15.096 0-27.377-12.281-27.377-27.377s12.281-27.377 27.377-27.377h35.637c-2.444 9.148-.802 18.619 4.047 26.362l17.781 28.391h-57.465zm248.991 133.659c-3.174 29.053-27.607 50.961-56.832 50.961h-114.001c-29.225 0-53.658-21.908-56.83-50.961l-12.964-118.659h58.495l1.562 2.495c15.154 24.197 41.247 38.643 69.797 38.643 28.475 0 54.604-14.382 69.798-38.643l1.563-2.495h52.372zm21.326-133.659h-51.342l17.781-28.391c5.003-7.991 6.417-17.489 4.047-26.362h29.514c15.096 0 27.377 12.281 27.377 27.377-.001 15.095-12.282 27.376-27.377 27.376z"/></g></g><path d="m410.945 104.295c-3.79.266-7.693-.675-11.082-2.972l-26.454-17.931c-3.387-2.296-5.705-5.57-6.863-9.186-30.486 38.408-53.558 42.099-82.715 60.035l11.224 31.501c8.568 24.091 31.784 39.826 57.343 38.868l33.41-1.248c5.86-33.727.749-56.521 25.137-99.067z" fill="#ffff6f"/><path d="m450.294 16.94-17.182-11.647c-14.037-9.511-33.098-5.859-42.615 8.183l-27.985 41.287c-3.521 5.195-4.951 11.383-4.079 17.553-20.376 24.821-36.898 33.323-55.921 43.107-7.204 3.705-14.653 7.536-22.61 12.431-3.017 1.856-4.324 5.569-3.135 8.906l11.223 31.497c9.431 26.516 34.205 43.897 62.155 43.897 2.233 0 .623.008 35.945-1.296 3.539-.132 6.503-2.722 7.109-6.211 1.598-9.2 2.397-17.533 3.171-25.593 2.044-21.301 3.824-39.803 19.348-67.94 5.822-1.429 11.156-4.93 14.775-10.27l27.985-41.288c9.492-14.007 5.821-33.124-8.184-42.616zm-68.857 160.68c-.571 5.956-1.157 12.066-2.074 18.478l-27.246 1.018c-22.386.836-42.487-12.778-49.997-33.891l-9.153-25.688c5.62-3.228 11.082-6.037 16.405-8.775 18.422-9.474 35.921-18.475 56.422-41.927.957.925 2.256 1.985 3.407 2.766l26.454 17.93c1.359.921 3.254 1.882 3.837 2.143-14.195 27.735-16.076 47.324-18.055 67.946zm64.625-126.481-27.985 41.287c-3.168 4.669-9.499 5.745-14.006 2.689l-26.454-17.93c-4.585-3.109-5.83-9.372-2.689-14.005l27.985-41.288c4.865-7.177 14.604-9.049 21.783-4.183l17.182 11.646c7.158 4.853 9.035 14.625 4.184 21.784z" fill="#f95116"/></g></svg>