<?xml version="1.0" encoding="UTF-8" standalone="no"?>
<!-- Created with Inkscape (http://www.inkscape.org/) -->

<svg
   version="1.1"
   id="svg9"
   xml:space="preserve"
   width="11787.846"
   height="4383.4082"
   viewBox="0 0 11787.846 4383.4082"
   sodipodi:docname="landing.svg"
   inkscape:version="1.1.1 (3bf5ae0d25, 2021-09-20)"
   inkscape:export-filename="/home/kyle/bitmap.png"
   inkscape:export-xdpi="20.685665"
   inkscape:export-ydpi="20.685665"
   xmlns:inkscape="http://www.inkscape.org/namespaces/inkscape"
   xmlns:sodipodi="http://sodipodi.sourceforge.net/DTD/sodipodi-0.dtd"
   xmlns="http://www.w3.org/2000/svg"
   xmlns:svg="http://www.w3.org/2000/svg"><defs
     id="defs13"><clipPath
       clipPathUnits="userSpaceOnUse"
       id="clipPath25"><path
         d="M 0,3250 H 4875.001 V 0 H 0 Z"
         id="path23" /></clipPath><clipPath
       clipPathUnits="userSpaceOnUse"
       id="clipPath49"><path
         d="M 0,3250 H 4875.001 V 0 H 0 Z"
         id="path47" /></clipPath><clipPath
       clipPathUnits="userSpaceOnUse"
       id="clipPath65"><path
         d="M 0,3250 H 4875.001 V 0 H 0 Z"
         id="path63" /></clipPath></defs><sodipodi:namedview
     id="namedview11"
     pagecolor="#ffffff"
     bordercolor="#666666"
     borderopacity="1.0"
     inkscape:pageshadow="2"
     inkscape:pageopacity="0.0"
     inkscape:pagecheckerboard="0"
     showgrid="false"
     inkscape:zoom="0.067442305"
     inkscape:cx="10445.966"
     inkscape:cy="1416.0252"
     inkscape:window-width="2516"
     inkscape:window-height="1340"
     inkscape:window-x="0"
     inkscape:window-y="0"
     inkscape:window-maximized="1"
     inkscape:current-layer="g15"
     fit-margin-top="0"
     fit-margin-left="0"
     fit-margin-right="0"
     fit-margin-bottom="0" /><g
     id="g15"
     inkscape:groupmode="layer"
     inkscape:label="AdobeStock_301523967"
     transform="matrix(1.3333333,0,0,-1.3333333,9159.6384,4355.2355)"><g
       id="g2391"
       transform="rotate(-30,5559.0058,-143.80827)"
       style="fill:#ffb20f;fill-opacity:1"><g
         id="g1956"><g
           id="g95"
           transform="translate(227.70568,-285.53546)"
           style="fill:#ffb20f;fill-opacity:1"><path
             d="m 0,0 c 35.569,0 64.405,-28.836 64.405,-64.405 0,-35.569 -28.836,-64.405 -64.405,-64.405 -35.569,0 -64.405,28.836 -64.405,64.405 C -64.405,-28.836 -35.569,0 0,0"
             style="fill:#ffb20f;fill-opacity:1;fill-rule:evenodd;stroke:none"
             id="path97" /></g><g
           id="g1944"><g
             id="g31"
             transform="translate(660.13674,-784.20037)"
             style="fill:#ffb20f;fill-opacity:1"><path
               d="m 0,0 -660.768,-381.494 c -60.528,-34.945 -137.921,-14.206 -172.866,46.32 -28.808,49.893 -19.776,111.251 18.19,150.843 l 167.07,102.241 c 60.527,34.945 81.264,112.34 46.319,172.866 -34.945,60.526 -112.339,81.265 -172.867,46.321 L -1000.712,6.734 v -1639.732 h 703.229 l 467.8,270.084 c 60.526,34.946 81.263,112.341 46.318,172.868 -34.945,60.526 -112.339,81.264 -172.866,46.32 l -336.023,-194.004 c -60.527,-34.944 -137.921,-14.206 -172.866,46.32 -34.945,60.527 -14.208,137.922 46.319,172.868 l 615.055,355.102 c 60.527,34.945 81.264,112.341 46.319,172.867 -34.945,60.526 -112.339,81.265 -172.866,46.321 -60.528,-34.946 -137.922,-14.207 -172.867,46.319 -34.945,60.526 -14.208,137.922 46.319,172.867 l 183.388,105.879 c 60.527,34.945 81.265,112.341 46.32,172.867 C 137.921,14.207 60.527,34.945 0,0"
               style="fill:#ffb20f;fill-opacity:1;fill-rule:evenodd;stroke:none"
               id="path1912" /></g><g
             id="g11864"
             transform="translate(722.79952,-1333.0893)"
             style="fill:#ffb20f;fill-opacity:1"><path
               d="m 0,0 -660.768,-381.494 c -60.528,-34.945 -137.921,-14.206 -172.866,46.32 -28.808,49.893 -19.776,111.251 18.19,150.843 l 167.07,102.241 c 60.527,34.945 81.264,112.34 46.319,172.866 -34.945,60.526 -112.339,81.265 -172.867,46.321 l -225.79,-130.363 -5899.3313,-3347.1419 911.3099,-1578.435 6299.34652,3636.9289 c 60.526,34.946 81.263,112.341 46.318,172.868 -34.945,60.526 -112.339,81.264 -172.866,46.32 l -128.319248,-74.0862 c -60.5270002,-34.944 -137.921,-14.206 -172.866002,46.32 -34.945,60.527 -14.208,137.92202 46.319002,172.86802 L 196.254,-763.44 c 60.527,34.945 81.264,112.341 46.319,172.867 -34.945,60.526 -112.339,81.265 -172.866,46.321 -60.528,-34.946 -137.922,-14.207 -172.867,46.319 -34.945,60.526 -14.208,137.922 46.319,172.867 l 183.388,105.879 c 60.527,34.945 81.265,112.341 46.32,172.867 C 137.921,14.207 60.527,34.945 0,0"
               style="fill:#ffb20f;fill-opacity:1;fill-rule:evenodd;stroke:none"
               id="path1909"
               sodipodi:nodetypes="cccccscccccsccsccscsccsc" /></g><path
             d="m 0,0 -660.768,-381.494 c -60.528,-34.945 -137.921,-14.206 -172.866,46.32 -28.808,49.893 -19.776,111.251 18.19,150.843 l 167.07,102.241 c 60.527,34.945 81.264,112.34 46.319,172.866 -34.945,60.526 -112.339,81.265 -172.867,46.321 L -1000.7119,6.733877 -6909.7103,-3404.8279 -6067.6114,-4863.3859 170.317,-1362.914 c 60.526,34.946 81.263,112.341 46.318,172.868 -34.945,60.526 -112.339,81.264 -172.866,46.32 l -163.06475,-94.1465 c -60.527,-34.944 -137.921,-14.206 -172.866,46.32 -34.945,60.527 -14.208,137.922 46.319,172.868 L 196.254,-763.44 c 60.527,34.945 81.264,112.341 46.319,172.867 -34.945,60.526 -112.339,81.265 -172.866,46.321 -60.528,-34.946 -137.922,-14.207 -172.867,46.319 -34.945,60.526 -14.208,137.922 46.319,172.867 l 183.388,105.879 c 60.527,34.945 81.265,112.341 46.32,172.867 C 137.921,14.207 60.527,34.945 0,0"
             style="fill:#ffb20f;fill-opacity:1;fill-rule:evenodd;stroke:none"
             id="path1915"
             sodipodi:nodetypes="cccccscccccccccccscscccc" /></g></g></g></g></svg>
