<?xml version="1.0" encoding="UTF-8" standalone="no"?>
<!-- Created with Inkscape (http://www.inkscape.org/) -->

<svg
   version="1.1"
   id="svg9"
   xml:space="preserve"
   width="11787.846"
   height="4383.4082"
   viewBox="0 0 11787.846 4383.4082"
   sodipodi:docname="landing.svg"
   inkscape:version="1.1.1 (3bf5ae0d25, 2021-09-20)"
   inkscape:export-filename="/home/kyle/bitmap.png"
   inkscape:export-xdpi="20.685665"
   inkscape:export-ydpi="20.685665"
   xmlns:inkscape="http://www.inkscape.org/namespaces/inkscape"
   xmlns:sodipodi="http://sodipodi.sourceforge.net/DTD/sodipodi-0.dtd"
   xmlns="http://www.w3.org/2000/svg"
   xmlns:svg="http://www.w3.org/2000/svg"><defs
     id="defs13"><clipPath
       clipPathUnits="userSpaceOnUse"
       id="clipPath25"><path
         d="M 0,3250 H 4875.001 V 0 H 0 Z"
         id="path23" /></clipPath><clipPath
       clipPathUnits="userSpaceOnUse"
       id="clipPath49"><path
         d="M 0,3250 H 4875.001 V 0 H 0 Z"
         id="path47" /></clipPath><clipPath
       clipPathUnits="userSpaceOnUse"
       id="clipPath65"><path
         d="M 0,3250 H 4875.001 V 0 H 0 Z"
         id="path63" /></clipPath></defs><sodipodi:namedview
     id="namedview11"
     pagecolor="#ffffff"
     bordercolor="#666666"
     borderopacity="1.0"
     inkscape:pageshadow="2"
     inkscape:pageopacity="0.0"
     inkscape:pagecheckerboard="0"
     showgrid="false"
     inkscape:zoom="0.067442305"
     inkscape:cx="10445.966"
     inkscape:cy="1416.0252"
     inkscape:window-width="2516"
     inkscape:window-height="1340"
     inkscape:window-x="0"
     inkscape:window-y="0"
     inkscape:window-maximized="1"
     inkscape:current-layer="g15"
     fit-margin-top="0"
     fit-margin-left="0"
     fit-margin-right="0"
     fit-margin-bottom="0" /><g
     id="g15"
     inkscape:groupmode="layer"
     inkscape:label="AdobeStock_301523967"
     transform="matrix(1.3333333,0,0,-1.3333333,9159.6384,4355.2355)"><g
       id="g1304"
       transform="translate(-536.61319,7.2544546)"><g
         id="g83"
         transform="rotate(-30,1338.5766,-3042.6628)"><path
           d="m 0,0 c 24.395,0 44.172,-19.776 44.172,-44.171 0,-24.396 -19.777,-44.174 -44.172,-44.174 -24.396,0 -44.173,19.778 -44.173,44.174 C -44.173,-19.776 -24.396,0 0,0"
           style="fill:#ffffff;fill-opacity:1;fill-rule:evenodd;stroke:none"
           id="path85" /></g><g
         id="g99"
         transform="rotate(-30,2592.0385,-2951.5445)"
         style="fill:#ffffff;fill-opacity:1"><path
           d="m 0,0 c 24.395,0 44.171,-19.777 44.171,-44.172 0,-24.396 -19.776,-44.174 -44.171,-44.174 -24.396,0 -44.173,19.778 -44.173,44.174 C -44.173,-19.777 -24.396,0 0,0"
           style="fill:#ffffff;fill-opacity:1;fill-rule:evenodd;stroke:none"
           id="path101" /></g><g
         id="g67"
         transform="rotate(-30,4045.1896,-3587.5713)"
         style="fill:#ffffff;fill-opacity:1"><path
           d="m 0,0 c -189.955,0 -343.946,-153.99 -343.946,-343.946 0,-189.955 153.991,-343.945 343.946,-343.945 189.956,0 343.946,153.99 343.946,343.945 C 343.946,-153.99 189.956,0 0,0 m 0,-130.113 c 118.097,0 213.833,-95.736 213.833,-213.833 0,-118.097 -95.736,-213.832 -213.833,-213.832 -118.097,0 -213.832,95.735 -213.832,213.832 0,118.097 95.735,213.833 213.832,213.833"
           style="fill:#ffffff;fill-opacity:1;fill-rule:evenodd;stroke:none"
           id="path69" /></g><g
         id="g75"
         transform="rotate(-30,4885.0751,-2471.9446)"
         style="fill:#ffffff;fill-opacity:1"><path
           d="m 0,0 c 50.191,0 90.879,-40.688 90.879,-90.879 0,-50.192 -40.688,-90.879 -90.879,-90.879 -50.192,0 -90.879,40.687 -90.879,90.879 C -90.879,-40.688 -50.192,0 0,0"
           style="fill:#ffffff;fill-opacity:1;fill-rule:evenodd;stroke:none"
           id="path77" /></g><g
         id="g10381"
         transform="rotate(-30,1184.6825,1549.1453)"><g
           id="g51"
           transform="translate(1080.7306,1335.8104)"><path
             d="m 0,0 c 6.951,4.014 15.842,1.632 19.854,-5.318 4.014,-6.954 1.633,-15.842 -5.321,-19.856 -6.95,-4.015 -15.839,-1.633 -19.854,5.32 C -9.333,-12.901 -6.952,-4.015 0,0 m -74.898,-43.244 c 6.949,4.013 15.84,1.633 19.851,-5.319 4.015,-6.954 1.633,-15.842 -5.318,-19.855 -6.95,-4.014 -15.842,-1.633 -19.856,5.32 -4.012,6.952 -1.63,15.84 5.323,19.854 m -74.901,-43.241 c 6.952,4.011 15.84,1.63 19.854,-5.322 4.015,-6.952 1.632,-15.841 -5.318,-19.854 -6.955,-4.014 -15.842,-1.634 -19.856,5.321 -4.014,6.949 -1.633,15.84 5.32,19.855 m -74.9,-43.245 c 6.952,4.013 15.842,1.632 19.854,-5.32 4.014,-6.952 1.633,-15.841 -5.319,-19.854 -6.953,-4.014 -15.841,-1.633 -19.855,5.321 -4.013,6.949 -1.632,15.84 5.32,19.853 m -74.898,-43.245 c 6.949,4.015 15.841,1.634 19.854,-5.318 4.014,-6.951 1.632,-15.841 -5.321,-19.855 -6.951,-4.013 -15.841,-1.632 -19.856,5.32 -4.011,6.952 -1.63,15.842 5.323,19.853 m -74.902,-43.241 c 6.953,4.014 15.842,1.63 19.856,-5.319 4.014,-6.954 1.631,-15.843 -5.319,-19.858 -6.954,-4.013 -15.841,-1.629 -19.857,5.322 -4.014,6.952 -1.63,15.84 5.32,19.855 m -74.899,-43.244 c 6.952,4.015 15.841,1.632 19.854,-5.318 4.015,-6.954 1.633,-15.842 -5.318,-19.856 -6.952,-4.014 -15.843,-1.632 -19.856,5.321 -4.013,6.952 -1.632,15.838 5.32,19.853 M -43.245,74.899 c 6.954,4.014 15.843,1.631 19.855,-5.32 4.015,-6.952 1.634,-15.841 -5.32,-19.855 -6.951,-4.014 -15.839,-1.631 -19.853,5.321 -4.013,6.951 -1.633,15.841 5.318,19.854 m -74.898,-43.242 c 6.951,4.013 15.841,1.63 19.854,-5.323 4.014,-6.949 1.633,-15.841 -5.319,-19.854 -6.951,-4.013 -15.841,-1.631 -19.855,5.321 -4.013,6.951 -1.631,15.841 5.32,19.856 m -74.898,-43.243 c 6.949,4.013 15.84,1.629 19.854,-5.322 4.012,-6.951 1.631,-15.843 -5.319,-19.855 -6.954,-4.014 -15.845,-1.631 -19.857,5.322 -4.014,6.949 -1.634,15.841 5.322,19.855 m -74.901,-43.245 c 6.952,4.014 15.842,1.632 19.853,-5.32 4.016,-6.952 1.634,-15.841 -5.317,-19.856 -6.952,-4.013 -15.843,-1.631 -19.857,5.322 -4.012,6.95 -1.632,15.841 5.321,19.854 m -74.9,-43.242 c 6.952,4.014 15.844,1.631 19.855,-5.323 4.016,-6.949 1.632,-15.84 -5.321,-19.854 -6.949,-4.013 -15.84,-1.631 -19.854,5.32 -4.013,6.952 -1.631,15.844 5.32,19.857 m -74.898,-43.243 c 6.949,4.013 15.839,1.629 19.853,-5.321 4.013,-6.953 1.632,-15.842 -5.319,-19.856 -6.954,-4.015 -15.842,-1.63 -19.855,5.319 -4.014,6.953 -1.633,15.843 5.321,19.858 m -74.9,-43.246 c 6.951,4.014 15.841,1.632 19.853,-5.319 4.015,-6.952 1.634,-15.841 -5.318,-19.855 -6.953,-4.014 -15.841,-1.63 -19.857,5.321 -4.011,6.952 -1.631,15.84 5.322,19.853 m 406.152,334.36 c 6.954,4.014 15.844,1.632 19.857,-5.32 4.014,-6.951 1.63,-15.84 -5.323,-19.854 -6.95,-4.013 -15.839,-1.632 -19.853,5.32 -4.013,6.952 -1.632,15.841 5.319,19.854 m -74.899,-43.242 c 6.953,4.013 15.842,1.629 19.854,-5.321 4.014,-6.952 1.632,-15.839 -5.319,-19.855 -6.95,-4.011 -15.84,-1.631 -19.855,5.319 -4.013,6.952 -1.63,15.844 5.32,19.857 m -74.898,-43.243 c 6.951,4.013 15.84,1.63 19.854,-5.322 4.013,-6.952 1.632,-15.839 -5.32,-19.852 -6.953,-4.015 -15.841,-1.633 -19.854,5.318 -4.014,6.95 -1.634,15.841 5.32,19.856 m -74.9,-43.245 c 6.952,4.016 15.842,1.631 19.854,-5.32 4.015,-6.952 1.632,-15.839 -5.32,-19.853 -6.953,-4.015 -15.839,-1.632 -19.854,5.318 -4.013,6.953 -1.632,15.842 5.32,19.855 m -74.901,-43.241 c 6.953,4.012 15.844,1.628 19.857,-5.321 4.014,-6.952 1.629,-15.842 -5.32,-19.854 -6.953,-4.015 -15.843,-1.633 -19.857,5.318 -4.013,6.951 -1.629,15.843 5.32,19.857 m -74.898,-43.244 c 6.951,4.013 15.84,1.631 19.854,-5.322 4.012,-6.95 1.632,-15.84 -5.321,-19.852 -6.952,-4.014 -15.841,-1.634 -19.853,5.319 -4.014,6.949 -1.634,15.84 5.32,19.855 m -74.9,-43.245 c 6.953,4.015 15.842,1.632 19.854,-5.32 4.014,-6.95 1.634,-15.842 -5.319,-19.856 -6.952,-4.013 -15.841,-1.63 -19.855,5.322 -4.013,6.952 -1.632,15.841 5.32,19.854 m 406.152,334.361 c 6.956,4.014 15.843,1.631 19.857,-5.32 4.014,-6.952 1.632,-15.84 -5.32,-19.856 -6.953,-4.013 -15.84,-1.63 -19.854,5.32 -4.016,6.953 -1.632,15.841 5.317,19.856 m -74.898,-43.244 c 6.952,4.013 15.84,1.632 19.856,-5.321 4.013,-6.951 1.629,-15.84 -5.32,-19.853 -6.952,-4.013 -15.842,-1.634 -19.857,5.319 -4.014,6.951 -1.628,15.841 5.321,19.855 m -74.898,-43.243 c 6.951,4.013 15.84,1.632 19.855,-5.321 4.011,-6.953 1.631,-15.84 -5.322,-19.853 -6.951,-4.015 -15.841,-1.634 -19.854,5.318 -4.014,6.953 -1.633,15.842 5.321,19.856 m -74.9,-43.245 c 6.952,4.015 15.84,1.635 19.854,-5.321 4.014,-6.949 1.632,-15.839 -5.321,-19.853 -6.952,-4.013 -15.839,-1.633 -19.854,5.32 -4.014,6.952 -1.631,15.843 5.321,19.854 m -74.9,-43.242 c 6.953,4.014 15.841,1.633 19.856,-5.321 4.014,-6.951 1.63,-15.84 -5.321,-19.853 -6.952,-4.013 -15.841,-1.632 -19.855,5.317 -4.016,6.955 -1.63,15.844 5.32,19.857 M -504.226,8.481 c 6.95,4.014 15.839,1.632 19.854,-5.32 4.013,-6.953 1.632,-15.84 -5.32,-19.854 -6.953,-4.014 -15.843,-1.632 -19.854,5.319 -4.016,6.954 -1.634,15.842 5.32,19.855 m -74.901,-43.242 c 6.952,4.014 15.839,1.631 19.855,-5.32 4.014,-6.952 1.63,-15.84 -5.322,-19.856 -6.951,-4.013 -15.839,-1.629 -19.854,5.32 -4.014,6.954 -1.632,15.841 5.321,19.856 m 406.153,334.358 c 6.954,4.014 15.841,1.631 19.855,-5.318 4.015,-6.955 1.633,-15.842 -5.32,-19.857 -6.952,-4.015 -15.84,-1.631 -19.853,5.32 -4.015,6.952 -1.632,15.84 5.318,19.855 m -74.898,-43.243 c 6.953,4.012 15.839,1.632 19.854,-5.321 4.014,-6.952 1.632,-15.841 -5.319,-19.853 -6.953,-4.014 -15.841,-1.634 -19.855,5.32 -4.015,6.949 -1.631,15.84 5.32,19.854 M -322.77,213.11 c 6.949,4.012 15.839,1.632 19.852,-5.321 4.014,-6.951 1.634,-15.841 -5.319,-19.852 -6.952,-4.015 -15.841,-1.635 -19.857,5.319 -4.012,6.951 -1.63,15.84 5.324,19.854 m -74.901,-43.244 c 6.952,4.015 15.839,1.634 19.855,-5.318 4.014,-6.953 1.63,-15.843 -5.322,-19.857 -6.951,-4.012 -15.84,-1.632 -19.854,5.324 -4.014,6.949 -1.63,15.839 5.321,19.851 m -74.9,-43.243 c 6.952,4.014 15.841,1.634 19.856,-5.319 4.014,-6.952 1.63,-15.841 -5.321,-19.855 -6.951,-4.012 -15.842,-1.633 -19.856,5.321 -4.014,6.952 -1.629,15.84 5.321,19.853 M -547.469,83.38 c 6.95,4.014 15.839,1.632 19.852,-5.319 4.014,-6.955 1.634,-15.841 -5.319,-19.856 -6.953,-4.014 -15.841,-1.632 -19.856,5.32 -4.012,6.954 -1.631,15.84 5.323,19.855 m -74.9,-43.242 c 6.952,4.013 15.839,1.63 19.854,-5.32 4.014,-6.954 1.632,-15.84 -5.321,-19.856 -6.952,-4.015 -15.84,-1.631 -19.853,5.322 -4.016,6.95 -1.632,15.839 5.32,19.854 m 406.152,334.359 c 6.952,4.014 15.842,1.632 19.856,-5.32 4.013,-6.951 1.631,-15.842 -5.32,-19.857 -6.952,-4.011 -15.843,-1.63 -19.855,5.323 -4.014,6.95 -1.633,15.841 5.319,19.854 m -74.898,-43.244 c 6.95,4.016 15.839,1.631 19.853,-5.32 4.013,-6.952 1.632,-15.841 -5.317,-19.855 -6.952,-4.013 -15.844,-1.631 -19.857,5.32 -4.014,6.953 -1.632,15.843 5.321,19.855 m -74.9,-43.241 c 6.953,4.013 15.841,1.629 19.853,-5.322 4.015,-6.952 1.634,-15.841 -5.318,-19.856 -6.953,-4.014 -15.842,-1.629 -19.856,5.32 -4.012,6.952 -1.632,15.843 5.321,19.858 m -74.9,-43.244 c 6.951,4.014 15.841,1.63 19.855,-5.321 4.013,-6.952 1.632,-15.841 -5.32,-19.854 -6.953,-4.016 -15.842,-1.631 -19.854,5.319 -4.014,6.953 -1.633,15.842 5.319,19.856 m -74.899,-43.243 c 6.95,4.012 15.842,1.629 19.856,-5.321 4.012,-6.951 1.629,-15.843 -5.32,-19.855 -6.952,-4.015 -15.845,-1.632 -19.857,5.32 -4.014,6.951 -1.631,15.842 5.321,19.856 m -74.9,-43.243 c 6.952,4.013 15.84,1.629 19.854,-5.322 4.013,-6.95 1.633,-15.842 -5.318,-19.855 -6.952,-4.014 -15.843,-1.63 -19.857,5.321 -4.012,6.95 -1.632,15.843 5.321,19.856 m -74.898,-43.246 c 6.952,4.014 15.839,1.633 19.853,-5.319 4.013,-6.95 1.632,-15.841 -5.32,-19.857 -6.953,-4.011 -15.842,-1.629 -19.854,5.324 -4.014,6.949 -1.632,15.839 5.321,19.852 m 406.153,334.36 c 6.951,4.015 15.841,1.631 19.855,-5.319 4.012,-6.953 1.632,-15.842 -5.32,-19.856 -6.952,-4.014 -15.842,-1.631 -19.854,5.321 -4.014,6.952 -1.634,15.841 5.319,19.854 m -74.899,-43.241 c 6.95,4.012 15.84,1.629 19.854,-5.323 4.012,-6.95 1.631,-15.842 -5.319,-19.854 -6.952,-4.015 -15.844,-1.633 -19.856,5.32 -4.014,6.951 -1.631,15.843 5.321,19.857 m -74.901,-43.244 c 6.953,4.013 15.843,1.631 19.854,-5.322 4.015,-6.951 1.634,-15.842 -5.318,-19.853 -6.952,-4.016 -15.842,-1.632 -19.856,5.32 -4.013,6.949 -1.632,15.841 5.32,19.855 m -74.899,-43.245 c 6.952,4.014 15.841,1.632 19.854,-5.32 4.013,-6.95 1.633,-15.841 -5.32,-19.855 -6.952,-4.013 -15.841,-1.631 -19.854,5.321 -4.013,6.951 -1.633,15.842 5.32,19.854 m -74.899,-43.242 c 6.95,4.014 15.841,1.631 19.855,-5.321 4.013,-6.95 1.631,-15.842 -5.319,-19.856 -6.953,-4.013 -15.844,-1.629 -19.856,5.32 -4.014,6.953 -1.632,15.844 5.32,19.857 m -74.899,-43.243 c 6.951,4.013 15.841,1.629 19.853,-5.321 4.014,-6.952 1.634,-15.841 -5.318,-19.856 -6.953,-4.015 -15.842,-1.629 -19.857,5.319 -4.011,6.953 -1.631,15.843 5.322,19.858 m -58.573,-44.461 c 1.384,-1.102 2.589,-2.478 3.528,-4.103 3.645,-6.317 2.013,-14.229 -3.528,-18.636 z M 302.702,-524.3 c 6.952,4.014 15.841,1.632 19.857,-5.32 4.011,-6.953 1.63,-15.843 -5.321,-19.857 -6.952,-4.013 -15.842,-1.629 -19.855,5.324 -4.014,6.949 -1.633,15.84 5.319,19.853 m -74.9,-43.243 c 6.952,4.012 15.842,1.63 19.854,-5.321 4.014,-6.952 1.634,-15.841 -5.319,-19.856 -6.949,-4.011 -15.841,-1.632 -19.855,5.322 -4.013,6.952 -1.63,15.84 5.32,19.855 m -74.898,-43.242 c 6.949,4.013 15.84,1.629 19.854,-5.32 4.013,-6.954 1.632,-15.844 -5.319,-19.858 -6.954,-4.014 -15.843,-1.632 -19.855,5.32 -4.015,6.954 -1.634,15.843 5.32,19.858 m -74.902,-43.246 c 6.953,4.014 15.844,1.633 19.858,-5.319 4.012,-6.952 1.632,-15.84 -5.321,-19.856 -6.952,-4.015 -15.841,-1.631 -19.853,5.322 -4.016,6.95 -1.634,15.841 5.316,19.853 M 3.103,-697.274 c 6.952,4.014 15.845,1.632 19.857,-5.319 4.014,-6.951 1.63,-15.843 -5.322,-19.855 -6.95,-4.014 -15.841,-1.632 -19.855,5.32 -4.012,6.951 -1.629,15.841 5.32,19.854 m -74.898,-43.243 c 6.951,4.015 15.839,1.631 19.854,-5.321 4.012,-6.951 1.631,-15.842 -5.319,-19.853 -6.954,-4.015 -15.843,-1.631 -19.855,5.32 -4.014,6.95 -1.635,15.839 5.32,19.854 m -74.9,-43.245 c 6.954,4.015 15.841,1.634 19.856,-5.318 4.012,-6.952 1.631,-15.841 -5.321,-19.857 -6.953,-4.012 -15.841,-1.628 -19.853,5.324 -4.015,6.949 -1.633,15.84 5.318,19.851 m 406.155,334.361 c 6.951,4.013 15.841,1.631 19.855,-5.322 4.013,-6.95 1.632,-15.84 -5.32,-19.856 -6.953,-4.012 -15.841,-1.629 -19.854,5.323 -4.014,6.949 -1.633,15.842 5.319,19.855 m -74.901,-43.245 c 6.952,4.015 15.841,1.631 19.854,-5.32 4.015,-6.952 1.633,-15.841 -5.318,-19.854 -6.95,-4.014 -15.843,-1.631 -19.856,5.319 -4.013,6.953 -1.63,15.843 5.32,19.855 m -74.898,-43.242 c 6.95,4.015 15.839,1.629 19.853,-5.32 4.013,-6.952 1.632,-15.842 -5.317,-19.856 -6.956,-4.015 -15.844,-1.629 -19.857,5.32 -4.014,6.952 -1.633,15.843 5.321,19.856 m -74.9,-43.243 c 6.952,4.014 15.841,1.631 19.855,-5.32 4.012,-6.952 1.632,-15.841 -5.321,-19.856 -6.952,-4.015 -15.84,-1.63 -19.853,5.321 -4.014,6.951 -1.633,15.84 5.319,19.855 m -74.902,-43.243 c 6.953,4.012 15.845,1.63 19.857,-5.32 4.014,-6.952 1.632,-15.843 -5.32,-19.856 -6.951,-4.014 -15.841,-1.632 -19.856,5.321 -4.012,6.951 -1.63,15.84 5.319,19.855 m -74.898,-43.242 c 6.951,4.012 15.84,1.629 19.856,-5.323 4.012,-6.951 1.63,-15.842 -5.319,-19.855 -6.955,-4.014 -15.844,-1.63 -19.857,5.321 -4.014,6.951 -1.634,15.842 5.32,19.857 m -74.899,-43.245 c 6.952,4.013 15.841,1.632 19.856,-5.321 4.011,-6.951 1.631,-15.84 -5.32,-19.857 -6.952,-4.011 -15.843,-1.629 -19.855,5.324 -4.014,6.949 -1.634,15.841 5.319,19.854 m 406.155,334.359 c 6.952,4.014 15.841,1.63 19.854,-5.32 4.013,-6.952 1.633,-15.84 -5.321,-19.854 -6.951,-4.014 -15.84,-1.633 -19.853,5.319 -4.013,6.952 -1.633,15.841 5.32,19.855 m -74.9,-43.242 c 6.951,4.013 15.841,1.629 19.853,-5.323 4.015,-6.95 1.633,-15.84 -5.318,-19.853 -6.953,-4.014 -15.842,-1.634 -19.857,5.319 -4.011,6.951 -1.629,15.841 5.322,19.857 m -74.899,-43.243 c 6.95,4.012 15.84,1.629 19.854,-5.323 4.013,-6.95 1.631,-15.839 -5.32,-19.851 -6.952,-4.015 -15.843,-1.634 -19.855,5.318 -4.014,6.949 -1.634,15.841 5.321,19.856 m -74.901,-43.245 c 6.953,4.013 15.843,1.631 19.857,-5.321 4.013,-6.951 1.63,-15.84 -5.324,-19.853 -6.948,-4.013 -15.839,-1.633 -19.852,5.32 -4.014,6.95 -1.633,15.841 5.319,19.854 m -74.899,-43.243 c 6.952,4.014 15.842,1.631 19.855,-5.322 4.016,-6.948 1.63,-15.839 -5.321,-19.853 -6.952,-4.013 -15.84,-1.632 -19.855,5.319 -4.012,6.952 -1.63,15.844 5.321,19.856 m -74.899,-43.243 c 6.949,4.014 15.84,1.629 19.854,-5.32 4.012,-6.952 1.632,-15.84 -5.321,-19.854 -6.952,-4.016 -15.84,-1.632 -19.853,5.317 -4.014,6.953 -1.634,15.843 5.32,19.857 m -74.899,-43.244 c 6.951,4.015 15.841,1.631 19.855,-5.32 4.013,-6.952 1.632,-15.839 -5.322,-19.854 -6.951,-4.013 -15.84,-1.632 -19.853,5.319 -4.013,6.953 -1.633,15.841 5.32,19.855 m 406.153,334.358 c 6.953,4.014 15.842,1.633 19.857,-5.32 4.012,-6.949 1.632,-15.84 -5.324,-19.853 -6.949,-4.013 -15.839,-1.633 -19.85,5.319 -4.016,6.953 -1.635,15.842 5.317,19.854 m -74.9,-43.242 c 6.953,4.014 15.84,1.63 19.854,-5.32 4.014,-6.952 1.632,-15.84 -5.319,-19.855 -6.952,-4.011 -15.841,-1.63 -19.855,5.318 -4.014,6.954 -1.63,15.845 5.32,19.857 m -74.898,-43.243 c 6.95,4.014 15.84,1.632 19.853,-5.32 4.014,-6.953 1.633,-15.84 -5.32,-19.855 -6.952,-4.013 -15.841,-1.632 -19.854,5.32 -4.013,6.954 -1.633,15.84 5.321,19.855 m -74.9,-43.244 c 6.951,4.016 15.841,1.632 19.855,-5.32 4.013,-6.951 1.633,-15.84 -5.321,-19.854 -6.951,-4.014 -15.84,-1.632 -19.852,5.319 -4.015,6.954 -1.634,15.841 5.318,19.855 m -74.901,-43.242 c 6.953,4.013 15.843,1.633 19.856,-5.32 4.015,-6.953 1.63,-15.843 -5.319,-19.854 -6.953,-4.016 -15.844,-1.633 -19.857,5.317 -4.014,6.953 -1.629,15.843 5.32,19.857 m -74.898,-43.243 c 6.951,4.012 15.839,1.631 19.854,-5.322 4.012,-6.951 1.631,-15.839 -5.321,-19.852 -6.952,-4.015 -15.841,-1.634 -19.854,5.318 -4.014,6.952 -1.633,15.842 5.321,19.856 m -74.9,-43.245 c 6.953,4.013 15.841,1.633 19.855,-5.321 4.013,-6.949 1.632,-15.84 -5.322,-19.853 -6.95,-4.013 -15.839,-1.633 -19.852,5.32 -4.014,6.952 -1.633,15.841 5.319,19.854 m 406.155,334.357 c 6.952,4.015 15.841,1.634 19.853,-5.316 4.015,-6.954 1.635,-15.843 -5.319,-19.858 -6.952,-4.013 -15.84,-1.632 -19.854,5.322 -4.013,6.951 -1.632,15.84 5.32,19.852 M 54.83,-267.947 c 6.952,4.013 15.839,1.63 19.855,-5.32 4.014,-6.954 1.63,-15.84 -5.319,-19.856 -6.952,-4.011 -15.843,-1.631 -19.857,5.322 -4.014,6.95 -1.629,15.841 5.321,19.854 m -74.898,-43.244 c 6.95,4.014 15.839,1.631 19.852,-5.319 4.014,-6.954 1.633,-15.842 -5.319,-19.855 -6.951,-4.014 -15.841,-1.632 -19.856,5.32 -4.012,6.952 -1.631,15.84 5.323,19.854 m -74.9,-43.244 c 6.952,4.016 15.841,1.632 19.853,-5.317 4.015,-6.954 1.634,-15.843 -5.32,-19.856 -6.949,-4.015 -15.839,-1.632 -19.854,5.32 -4.012,6.952 -1.631,15.839 5.321,19.853 m -74.9,-43.242 c 6.952,4.013 15.841,1.632 19.855,-5.318 4.014,-6.954 1.631,-15.845 -5.32,-19.856 -6.952,-4.015 -15.841,-1.633 -19.855,5.321 -4.016,6.949 -1.631,15.84 5.32,19.853 m -74.898,-43.243 c 6.949,4.012 15.839,1.632 19.852,-5.32 4.014,-6.952 1.634,-15.842 -5.319,-19.854 -6.952,-4.014 -15.843,-1.634 -19.857,5.32 -4.012,6.951 -1.632,15.839 5.324,19.854 m -74.901,-43.245 c 6.952,4.016 15.842,1.633 19.854,-5.317 4.015,-6.954 1.635,-15.843 -5.321,-19.857 -6.949,-4.013 -15.84,-1.632 -19.854,5.321 -4.012,6.952 -1.632,15.84 5.321,19.853 m 406.153,334.362 c 6.953,4.015 15.843,1.629 19.855,-5.32 4.014,-6.952 1.634,-15.841 -5.32,-19.856 -6.95,-4.015 -15.84,-1.629 -19.854,5.32 -4.012,6.952 -1.632,15.843 5.319,19.856 m -74.899,-43.243 c 6.95,4.013 15.84,1.63 19.854,-5.322 4.013,-6.951 1.633,-15.841 -5.318,-19.854 -6.953,-4.014 -15.843,-1.632 -19.855,5.321 -4.016,6.949 -1.632,15.84 5.319,19.855 m -74.9,-43.242 c 6.952,4.013 15.842,1.629 19.855,-5.323 4.014,-6.95 1.633,-15.842 -5.319,-19.855 -6.952,-4.013 -15.843,-1.632 -19.857,5.321 -4.012,6.951 -1.63,15.842 5.321,19.857 m -74.9,-43.245 c 6.953,4.013 15.844,1.632 19.857,-5.321 4.013,-6.951 1.633,-15.842 -5.322,-19.857 -6.949,-4.012 -15.84,-1.628 -19.854,5.324 -4.012,6.95 -1.631,15.841 5.319,19.854 m -74.898,-43.244 c 6.95,4.014 15.84,1.632 19.856,-5.32 4.011,-6.95 1.63,-15.841 -5.322,-19.855 -6.95,-4.013 -15.842,-1.631 -19.855,5.32 -4.014,6.952 -1.632,15.843 5.321,19.855 m -74.9,-43.242 c 6.952,4.014 15.841,1.629 19.853,-5.321 4.014,-6.951 1.634,-15.842 -5.318,-19.856 -6.953,-4.014 -15.841,-1.629 -19.856,5.321 -4.012,6.951 -1.631,15.841 5.321,19.856 m -74.902,-43.244 c 6.955,4.015 15.845,1.63 19.857,-5.32 4.014,-6.952 1.634,-15.841 -5.32,-19.856 -6.951,-4.014 -15.84,-1.629 -19.854,5.321 -4.012,6.951 -1.632,15.842 5.317,19.855 M 43.242,-74.904 c 6.954,4.013 15.845,1.632 19.857,-5.321 4.014,-6.951 1.63,-15.839 -5.321,-19.854 -6.952,-4.012 -15.839,-1.632 -19.854,5.321 -4.012,6.949 -1.631,15.841 5.318,19.854 m -74.898,-43.243 c 6.951,4.015 15.84,1.629 19.854,-5.322 4.012,-6.952 1.632,-15.84 -5.32,-19.853 -6.95,-4.013 -15.842,-1.632 -19.854,5.319 -4.014,6.952 -1.632,15.844 5.32,19.856 m -74.9,-43.244 c 6.952,4.015 15.842,1.63 19.854,-5.319 4.014,-6.953 1.632,-15.84 -5.319,-19.855 -6.954,-4.015 -15.841,-1.631 -19.855,5.318 -4.012,6.953 -1.632,15.843 5.32,19.856 m -74.901,-43.243 c 6.956,4.014 15.845,1.631 19.857,-5.32 4.014,-6.952 1.632,-15.84 -5.32,-19.854 -6.953,-4.013 -15.84,-1.631 -19.854,5.32 -4.013,6.952 -1.632,15.841 5.317,19.854 m -74.898,-43.242 c 6.951,4.011 15.843,1.63 19.857,-5.321 4.012,-6.951 1.629,-15.842 -5.322,-19.854 -6.951,-4.014 -15.843,-1.634 -19.855,5.319 -4.014,6.951 -1.631,15.84 5.32,19.856 m -74.899,-43.243 c 6.951,4.013 15.84,1.629 19.853,-5.321 4.014,-6.953 1.632,-15.84 -5.319,-19.853 -6.954,-4.016 -15.841,-1.634 -19.855,5.316 -4.012,6.953 -1.632,15.844 5.321,19.858 m -74.9,-43.245 c 6.953,4.013 15.842,1.632 19.855,-5.321 4.014,-6.951 1.632,-15.839 -5.321,-19.853 -6.952,-4.013 -15.839,-1.633 -19.853,5.32 -4.013,6.949 -1.632,15.841 5.319,19.854 m -118.142,31.66 c 6.95,4.014 15.839,1.633 19.852,-5.319 4.014,-6.954 1.634,-15.842 -5.319,-19.855 -6.949,-4.014 -15.841,-1.633 -19.855,5.321 -4.012,6.951 -1.631,15.839 5.322,19.853 m -74.9,-43.241 c 6.952,4.011 15.84,1.631 19.854,-5.321 4.013,-6.952 1.632,-15.842 -5.32,-19.855 -6.953,-4.014 -15.84,-1.634 -19.854,5.321 -4.014,6.95 -1.632,15.84 5.32,19.855 m -74.901,-43.245 c 6.955,4.013 15.843,1.632 19.856,-5.32 4.014,-6.952 1.632,-15.841 -5.32,-19.854 -6.952,-4.013 -15.839,-1.633 -19.854,5.321 -4.013,6.95 -1.632,15.84 5.318,19.853 m 106.558,161.385 c 6.95,4.012 15.84,1.632 19.851,-5.321 4.016,-6.949 1.634,-15.841 -5.317,-19.853 -6.951,-4.014 -15.843,-1.632 -19.857,5.32 -4.012,6.951 -1.629,15.84 5.323,19.854 m -74.901,-43.241 c 6.951,4.013 15.84,1.631 19.854,-5.321 4.012,-6.951 1.632,-15.844 -5.317,-19.856 -6.955,-4.014 -15.845,-1.631 -19.857,5.322 -4.014,6.95 -1.633,15.841 5.32,19.855 m 31.656,118.142 c 6.951,4.014 15.842,1.629 19.854,-5.321 4.014,-6.952 1.634,-15.842 -5.319,-19.856 -6.95,-4.013 -15.84,-1.629 -19.855,5.32 -4.012,6.952 -1.63,15.844 5.32,19.857 m -74.898,-43.243 c 6.95,4.013 15.84,1.63 19.854,-5.321 4.013,-6.952 1.632,-15.84 -5.32,-19.853 -6.953,-4.015 -15.843,-1.633 -19.855,5.318 -0.701,1.213 -1.207,2.485 -1.526,3.779 v 6.96 c 0.914,3.71 3.278,7.056 6.847,9.117 m 31.655,118.142 c 6.952,4.014 15.84,1.633 19.854,-5.321 4.014,-6.951 1.631,-15.84 -5.319,-19.853 -6.951,-4.013 -15.841,-1.633 -19.855,5.32 -4.014,6.951 -1.631,15.84 5.32,19.854 m -38.502,76.629 c 5.847,1.029 11.971,-1.61 15.114,-7.051 4.014,-6.952 1.63,-15.841 -5.319,-19.853 -3.082,-1.78 -6.545,-2.3 -9.795,-1.726 z m 470.936,-825.629 c 6.949,4.015 15.84,1.632 19.852,-5.318 4.014,-6.953 1.634,-15.842 -5.319,-19.856 -6.951,-4.012 -15.842,-1.632 -19.857,5.321 -4.012,6.952 -1.628,15.84 5.324,19.853 m -74.902,-43.24 c 6.953,4.013 15.844,1.629 19.856,-5.32 4.014,-6.953 1.634,-15.843 -5.319,-19.857 -6.953,-4.015 -15.842,-1.633 -19.856,5.32 -4.013,6.953 -1.631,15.842 5.319,19.857 m -74.899,-43.245 c 6.952,4.014 15.841,1.632 19.857,-5.319 4.011,-6.953 1.63,-15.841 -5.322,-19.855 -6.951,-4.016 -15.841,-1.632 -19.854,5.32 -4.014,6.95 -1.634,15.841 5.319,19.854 m -74.9,-43.243 c 6.952,4.013 15.843,1.631 19.856,-5.32 4.014,-6.95 1.631,-15.843 -5.321,-19.855 -6.949,-4.014 -15.841,-1.632 -19.855,5.321 -4.012,6.95 -1.631,15.841 5.32,19.854 m -74.898,-43.243 c 6.952,4.014 15.841,1.63 19.854,-5.322 4.014,-6.95 1.633,-15.841 -5.319,-19.853 -6.953,-4.014 -15.841,-1.63 -19.855,5.32 -4.012,6.951 -1.633,15.84 5.32,19.855 m -74.901,-43.244 c 6.952,4.015 15.843,1.633 19.857,-5.319 4.012,-6.953 1.632,-15.842 -5.321,-19.857 -6.952,-4.011 -15.842,-1.629 -19.853,5.323 -4.016,6.949 -1.634,15.84 5.317,19.853 m 331.255,291.116 c 6.952,4.015 15.841,1.629 19.854,-5.322 4.014,-6.952 1.633,-15.841 -5.319,-19.854 -6.949,-4.013 -15.841,-1.631 -19.855,5.32 -4.013,6.952 -1.631,15.843 5.32,19.856 m -74.898,-43.243 c 6.952,4.014 15.841,1.629 19.854,-5.32 4.013,-6.953 1.633,-15.843 -5.32,-19.857 -6.952,-4.014 -15.84,-1.629 -19.855,5.32 -4.012,6.953 -1.632,15.843 5.321,19.857 m -74.902,-43.243 c 6.952,4.014 15.843,1.63 19.857,-5.321 4.013,-6.952 1.632,-15.841 -5.32,-19.856 -6.953,-4.014 -15.841,-1.629 -19.854,5.322 -4.015,6.952 -1.633,15.841 5.317,19.855 m -74.9,-43.243 c 6.953,4.012 15.845,1.63 19.857,-5.321 4.014,-6.951 1.631,-15.843 -5.321,-19.856 -6.95,-4.013 -15.842,-1.632 -19.855,5.321 -4.013,6.951 -1.63,15.84 5.319,19.856 m -74.898,-43.243 c 6.953,4.013 15.842,1.629 19.854,-5.321 4.014,-6.952 1.634,-15.843 -5.319,-19.856 -6.951,-4.015 -15.841,-1.631 -19.855,5.32 -4.013,6.951 -1.632,15.843 5.32,19.857 m -74.899,-43.245 c 6.952,4.013 15.841,1.633 19.855,-5.321 4.012,-6.95 1.632,-15.84 -5.321,-19.856 -6.952,-4.011 -15.841,-1.629 -19.853,5.323 -4.014,6.949 -1.634,15.841 5.319,19.854 m -53.194,-54.143 c 0.13,-1.126 0.13,-2.256 0,-3.367 z m 384.447,345.261 c 6.953,4.012 15.842,1.628 19.854,-5.324 4.016,-6.95 1.632,-15.839 -5.317,-19.852 -6.953,-4.015 -15.843,-1.634 -19.857,5.318 -4.013,6.952 -1.629,15.843 5.32,19.858 m -74.898,-43.244 c 6.953,4.012 15.841,1.631 19.854,-5.323 4.014,-6.95 1.632,-15.838 -5.321,-19.851 -6.952,-4.015 -15.839,-1.634 -19.853,5.318 -4.013,6.949 -1.632,15.842 5.32,19.856 m -74.899,-43.245 c 6.952,4.014 15.841,1.631 19.855,-5.321 4.012,-6.949 1.632,-15.84 -5.322,-19.853 -6.951,-4.013 -15.84,-1.632 -19.853,5.32 -4.013,6.951 -1.633,15.841 5.32,19.854 m -74.902,-43.243 c 6.952,4.015 15.844,1.631 19.857,-5.321 4.014,-6.949 1.629,-15.84 -5.321,-19.854 -6.952,-4.012 -15.84,-1.63 -19.856,5.319 -4.011,6.952 -1.629,15.844 5.32,19.856 m -74.898,-43.243 c 6.952,4.014 15.843,1.629 19.855,-5.32 4.014,-6.952 1.631,-15.84 -5.321,-19.854 -6.952,-4.014 -15.838,-1.631 -19.854,5.318 -4.012,6.952 -1.631,15.842 5.32,19.856 m -74.9,-43.244 c 6.953,4.015 15.842,1.631 19.857,-5.319 4.011,-6.953 1.63,-15.84 -5.324,-19.855 -6.949,-4.013 -15.839,-1.632 -19.852,5.32 -4.014,6.952 -1.633,15.84 5.319,19.854 m 331.255,291.116 c 6.951,4.015 15.84,1.631 19.854,-5.32 4.014,-6.952 1.632,-15.839 -5.319,-19.854 -6.952,-4.012 -15.841,-1.631 -19.857,5.318 -4.014,6.954 -1.628,15.845 5.322,19.856 m -74.898,-43.243 c 6.951,4.014 15.84,1.632 19.854,-5.32 4.014,-6.953 1.63,-15.84 -5.32,-19.855 -6.953,-4.013 -15.84,-1.631 -19.856,5.32 -4.014,6.954 -1.63,15.842 5.322,19.855 m -74.901,-43.243 c 6.952,4.016 15.842,1.632 19.856,-5.321 4.014,-6.95 1.631,-15.84 -5.323,-19.854 -6.949,-4.013 -15.839,-1.632 -19.852,5.32 -4.014,6.954 -1.634,15.84 5.319,19.855 m -74.9,-43.243 c 6.953,4.014 15.841,1.633 19.856,-5.319 4.015,-6.954 1.63,-15.843 -5.321,-19.855 -6.952,-4.016 -15.841,-1.633 -19.855,5.317 -4.014,6.954 -1.631,15.843 5.32,19.857 m -74.898,-43.243 c 6.952,4.012 15.84,1.632 19.854,-5.322 4.014,-6.951 1.631,-15.839 -5.321,-19.852 -6.952,-4.014 -15.84,-1.634 -19.854,5.319 -4.014,6.952 -1.632,15.841 5.321,19.855 m 256.354,247.871 c 6.952,4.013 15.839,1.632 19.854,-5.32 4.014,-6.953 1.631,-15.84 -5.319,-19.856 -6.953,-4.011 -15.842,-1.631 -19.856,5.322 -4.014,6.95 -1.63,15.841 5.321,19.854 m -74.898,-43.243 c 6.952,4.013 15.839,1.631 19.853,-5.32 4.015,-6.954 1.633,-15.841 -5.32,-19.854 -6.952,-4.015 -15.84,-1.633 -19.854,5.319 -4.014,6.953 -1.631,15.84 5.321,19.855 m -74.9,-43.243 c 6.951,4.014 15.841,1.63 19.853,-5.319 4.015,-6.954 1.635,-15.842 -5.32,-19.856 -6.951,-4.015 -15.839,-1.632 -19.854,5.32 -4.012,6.952 -1.631,15.84 5.321,19.855 m -74.902,-43.243 c 6.953,4.012 15.843,1.632 19.857,-5.319 4.014,-6.954 1.629,-15.843 -5.32,-19.856 -6.952,-4.015 -15.843,-1.633 -19.857,5.321 -4.014,6.949 -1.628,15.84 5.32,19.854 m -73.262,-42.431 c 6.655,2.806 14.513,0.284 18.218,-6.133 4.016,-6.952 1.632,-15.842 -5.32,-19.854 -4.093,-2.362 -8.853,-2.508 -12.898,-0.813 z m 254.718,247.061 c 6.951,4.013 15.84,1.63 19.855,-5.322 4.012,-6.951 1.631,-15.841 -5.318,-19.854 -6.953,-4.013 -15.845,-1.631 -19.857,5.321 -4.014,6.949 -1.63,15.841 5.32,19.855 m -74.899,-43.242 c 6.952,4.013 15.84,1.629 19.855,-5.323 4.013,-6.95 1.632,-15.841 -5.32,-19.854 -6.951,-4.014 -15.842,-1.633 -19.854,5.321 -4.014,6.95 -1.634,15.841 5.319,19.856 m -74.9,-43.245 c 6.954,4.014 15.842,1.632 19.855,-5.32 4.014,-6.952 1.634,-15.843 -5.32,-19.857 -6.949,-4.013 -15.84,-1.629 -19.854,5.323 -4.012,6.95 -1.632,15.841 5.319,19.854 m -74.898,-43.243 c 6.949,4.013 15.841,1.632 19.855,-5.321 4.012,-6.949 1.631,-15.841 -5.32,-19.855 -6.953,-4.013 -15.844,-1.631 -19.856,5.32 -4.015,6.952 -1.631,15.843 5.321,19.856 m 181.455,204.629 c 6.95,4.015 15.84,1.629 19.854,-5.322 4.012,-6.952 1.632,-15.839 -5.32,-19.852 -6.951,-4.014 -15.842,-1.633 -19.854,5.318 -4.016,6.952 -1.632,15.844 5.32,19.856 m -74.901,-43.243 c 6.953,4.014 15.843,1.629 19.857,-5.32 4.012,-6.953 1.632,-15.84 -5.32,-19.854 -6.953,-4.016 -15.843,-1.632 -19.854,5.317 -4.016,6.953 -1.634,15.844 5.317,19.857 m -74.9,-43.243 c 6.954,4.014 15.845,1.63 19.857,-5.321 4.014,-6.952 1.631,-15.84 -5.322,-19.854 -6.951,-4.013 -15.84,-1.631 -19.853,5.32 -4.013,6.952 -1.631,15.841 5.318,19.855 m -61.675,-42.572 c 2.694,-1.207 5.045,-3.241 6.634,-5.992 4.011,-6.951 1.629,-15.842 -5.323,-19.854 -0.431,-0.249 -0.867,-0.471 -1.311,-0.672 z"
             style="fill:#ffffff;fill-opacity:1;fill-rule:evenodd;stroke:none"
             id="path53" /></g><path
           d="m 164.80303,673.58 c -6.951,-4.014 -15.842,-1.632 -19.854,5.318 -4.014,6.954 -1.633,15.842 5.321,19.856 6.95,4.015 15.839,1.633 19.854,-5.32 4.012,-6.953 1.631,-15.839 -5.321,-19.854 m 74.898,43.244 c -6.949,-4.013 -15.84,-1.633 -19.851,5.319 -4.015,6.954 -1.633,15.842 5.318,19.855 6.95,4.014 15.842,1.633 19.856,-5.32 4.012,-6.952 1.63,-15.84 -5.323,-19.854 m 74.901,43.241 c -6.952,-4.011 -15.84,-1.63 -19.854,5.322 -4.015,6.952 -1.632,15.841 5.318,19.854 6.955,4.014 15.842,1.634 19.856,-5.321 4.014,-6.949 1.633,-15.84 -5.32,-19.855 m 74.9,43.245 c -6.952,-4.013 -15.842,-1.632 -19.854,5.32 -4.014,6.952 -1.633,15.841 5.319,19.854 6.953,4.014 15.841,1.633 19.855,-5.321 4.013,-6.949 1.632,-15.84 -5.32,-19.853 m 74.898,43.245 c -6.949,-4.015 -15.841,-1.634 -19.854,5.318 -4.014,6.951 -1.632,15.841 5.321,19.855 6.951,4.013 15.841,1.632 19.856,-5.32 4.011,-6.952 1.63,-15.842 -5.323,-19.853 m 74.902,43.241 c -6.953,-4.014 -15.842,-1.63 -19.856,5.319 -4.014,6.954 -1.631,15.843 5.319,19.858 6.954,4.013 15.841,1.629 19.857,-5.322 4.014,-6.952 1.63,-15.84 -5.32,-19.855 m 74.899,43.244 c -6.952,-4.015 -15.841,-1.632 -19.854,5.318 -4.015,6.954 -1.633,15.842 5.318,19.856 6.952,4.014 15.843,1.632 19.856,-5.321 4.013,-6.952 1.632,-15.838 -5.32,-19.853 m -406.153,-334.359 c -6.954,-4.014 -15.843,-1.631 -19.855,5.32 -4.015,6.952 -1.634,15.841 5.32,19.855 6.951,4.014 15.839,1.631 19.853,-5.321 4.013,-6.951 1.633,-15.841 -5.318,-19.854 m 74.898,43.242 c -6.951,-4.013 -15.841,-1.63 -19.854,5.323 -4.014,6.949 -1.633,15.841 5.319,19.854 6.951,4.013 15.841,1.631 19.855,-5.321 4.013,-6.951 1.631,-15.841 -5.32,-19.856 m 74.898,43.243 c -6.949,-4.013 -15.84,-1.629 -19.854,5.322 -4.012,6.951 -1.631,15.843 5.319,19.855 6.954,4.014 15.845,1.631 19.857,-5.322 4.014,-6.949 1.634,-15.841 -5.322,-19.855 m 74.901,43.245 c -6.952,-4.014 -15.842,-1.632 -19.853,5.32 -4.016,6.952 -1.634,15.841 5.317,19.856 6.952,4.013 15.843,1.631 19.857,-5.322 4.012,-6.95 1.632,-15.841 -5.321,-19.854 m 74.9,43.242 c -6.952,-4.014 -15.844,-1.631 -19.855,5.323 -4.016,6.949 -1.632,15.84 5.321,19.854 6.949,4.013 15.84,1.631 19.854,-5.32 4.013,-6.952 1.631,-15.844 -5.32,-19.857 m 74.898,43.243 c -6.949,-4.013 -15.839,-1.629 -19.853,5.321 -4.013,6.953 -1.632,15.842 5.319,19.856 6.954,4.015 15.842,1.63 19.855,-5.319 4.014,-6.953 1.633,-15.843 -5.321,-19.858 m 74.9,43.246 c -6.951,-4.014 -15.841,-1.632 -19.853,5.319 -4.015,6.952 -1.634,15.841 5.318,19.855 6.953,4.014 15.841,1.63 19.857,-5.321 4.011,-6.952 1.631,-15.84 -5.322,-19.853 m -406.152,-334.36 c -6.954,-4.014 -15.844,-1.632 -19.857,5.32 -4.014,6.951 -1.63,15.84 5.323,19.854 6.95,4.013 15.839,1.632 19.853,-5.32 4.013,-6.952 1.632,-15.841 -5.319,-19.854 m 74.899,43.242 c -6.953,-4.013 -15.842,-1.629 -19.854,5.321 -4.014,6.952 -1.632,15.839 5.319,19.855 6.95,4.011 15.84,1.631 19.855,-5.319 4.013,-6.952 1.63,-15.844 -5.32,-19.857 m 74.898,43.243 c -6.951,-4.013 -15.84,-1.63 -19.854,5.322 -4.013,6.952 -1.632,15.839 5.32,19.852 6.953,4.015 15.841,1.633 19.854,-5.318 4.014,-6.95 1.634,-15.841 -5.32,-19.856 m 74.9,43.245 c -6.952,-4.016 -15.842,-1.631 -19.854,5.32 -4.015,6.952 -1.632,15.839 5.32,19.853 6.953,4.015 15.839,1.632 19.854,-5.318 4.013,-6.953 1.632,-15.842 -5.32,-19.855 m 74.901,43.241 c -6.953,-4.012 -15.844,-1.628 -19.857,5.321 -4.014,6.952 -1.629,15.842 5.32,19.854 6.953,4.015 15.843,1.633 19.857,-5.318 4.013,-6.951 1.629,-15.843 -5.32,-19.857 m 74.898,43.244 c -6.951,-4.013 -15.84,-1.631 -19.854,5.322 -4.012,6.95 -1.632,15.84 5.321,19.852 6.952,4.014 15.841,1.634 19.853,-5.319 4.014,-6.949 1.634,-15.84 -5.32,-19.855 m 74.9,43.245 c -6.953,-4.015 -15.842,-1.632 -19.854,5.32 -4.014,6.95 -1.634,15.842 5.319,19.856 6.952,4.013 15.841,1.63 19.855,-5.322 4.013,-6.952 1.632,-15.841 -5.32,-19.854 m -406.152,-334.361 c -6.956,-4.014 -15.843,-1.631 -19.857,5.32 -4.014,6.952 -1.632,15.84 5.32,19.856 6.953,4.013 15.84,1.63 19.854,-5.32 4.016,-6.953 1.632,-15.841 -5.317,-19.856 m 74.898,43.244 c -6.952,-4.013 -15.84,-1.632 -19.856,5.321 -4.013,6.951 -1.629,15.84 5.32,19.853 6.952,4.013 15.842,1.634 19.857,-5.319 4.014,-6.951 1.628,-15.841 -5.321,-19.855 m 74.898,43.243 c -6.951,-4.013 -15.84,-1.632 -19.855,5.321 -4.011,6.953 -1.631,15.84 5.322,19.853 6.951,4.015 15.841,1.634 19.854,-5.318 4.014,-6.953 1.633,-15.842 -5.321,-19.856 m 74.9,43.245 c -6.952,-4.015 -15.84,-1.635 -19.854,5.321 -4.014,6.949 -1.632,15.839 5.321,19.853 6.952,4.013 15.839,1.633 19.854,-5.32 4.014,-6.952 1.631,-15.843 -5.321,-19.854 m 74.9,43.242 c -6.953,-4.014 -15.841,-1.633 -19.856,5.321 -4.014,6.951 -1.63,15.84 5.321,19.853 6.952,4.013 15.841,1.632 19.855,-5.317 4.016,-6.955 1.63,-15.844 -5.32,-19.857 m 74.898,43.244 c -6.95,-4.014 -15.839,-1.632 -19.854,5.32 -4.013,6.953 -1.632,15.84 5.32,19.854 6.953,4.014 15.843,1.632 19.854,-5.319 4.016,-6.954 1.634,-15.842 -5.32,-19.855 m 74.901,43.242 c -6.952,-4.014 -15.839,-1.631 -19.855,5.32 -4.014,6.952 -1.63,15.84 5.322,19.856 6.951,4.013 15.839,1.629 19.854,-5.32 4.014,-6.954 1.632,-15.841 -5.321,-19.856 m -406.153,-334.358 c -6.954,-4.014 -15.841,-1.631 -19.855,5.318 -4.015,6.955 -1.633,15.842 5.32,19.857 6.952,4.015 15.84,1.631 19.853,-5.32 4.015,-6.952 1.632,-15.84 -5.318,-19.855 m 74.898,43.243 c -6.953,-4.012 -15.839,-1.632 -19.854,5.321 -4.014,6.952 -1.632,15.841 5.319,19.853 6.953,4.014 15.841,1.634 19.855,-5.32 4.015,-6.949 1.631,-15.84 -5.32,-19.854 m 74.898,43.244 c -6.949,-4.012 -15.839,-1.632 -19.852,5.321 -4.014,6.951 -1.634,15.841 5.319,19.852 6.952,4.015 15.841,1.635 19.857,-5.319 4.012,-6.951 1.63,-15.84 -5.324,-19.854 m 74.901,43.244 c -6.952,-4.015 -15.839,-1.634 -19.855,5.318 -4.014,6.953 -1.63,15.843 5.322,19.857 6.951,4.012 15.84,1.632 19.854,-5.324 4.014,-6.949 1.63,-15.839 -5.321,-19.851 m 74.9,43.243 c -6.952,-4.014 -15.841,-1.634 -19.856,5.319 -4.014,6.952 -1.63,15.841 5.321,19.855 6.951,4.012 15.842,1.633 19.856,-5.321 4.014,-6.952 1.629,-15.84 -5.321,-19.853 m 74.898,43.243 c -6.95,-4.014 -15.839,-1.632 -19.852,5.319 -4.014,6.955 -1.634,15.841 5.319,19.856 6.953,4.014 15.841,1.632 19.856,-5.32 4.012,-6.954 1.631,-15.84 -5.323,-19.855 m 74.9,43.242 c -6.952,-4.013 -15.839,-1.63 -19.854,5.32 -4.014,6.954 -1.632,15.84 5.321,19.856 6.952,4.015 15.84,1.631 19.853,-5.322 4.016,-6.95 1.632,-15.839 -5.32,-19.854 m -406.152,-334.359 c -6.952,-4.014 -15.842,-1.632 -19.856,5.32 -4.013,6.951 -1.631,15.842 5.32,19.857 6.952,4.011 15.843,1.63 19.855,-5.323 4.014,-6.95 1.633,-15.841 -5.319,-19.854 m 74.898,43.244 c -6.95,-4.016 -15.839,-1.631 -19.853,5.32 -4.013,6.952 -1.632,15.841 5.317,19.855 6.952,4.013 15.844,1.631 19.857,-5.32 4.014,-6.953 1.632,-15.843 -5.321,-19.855 m 74.9,43.241 c -6.953,-4.013 -15.841,-1.629 -19.853,5.322 -4.015,6.952 -1.634,15.841 5.318,19.856 6.953,4.014 15.842,1.629 19.856,-5.32 4.012,-6.952 1.632,-15.843 -5.321,-19.858 m 74.9,43.244 c -6.951,-4.014 -15.841,-1.63 -19.855,5.321 -4.013,6.952 -1.632,15.841 5.32,19.854 6.953,4.016 15.842,1.631 19.854,-5.319 4.014,-6.953 1.633,-15.842 -5.319,-19.856 m 74.899,43.243 c -6.95,-4.012 -15.842,-1.629 -19.856,5.321 -4.012,6.951 -1.629,15.843 5.32,19.855 6.952,4.015 15.845,1.632 19.857,-5.32 4.014,-6.951 1.631,-15.842 -5.321,-19.856 m 74.9,43.243 c -6.952,-4.013 -15.84,-1.629 -19.854,5.322 -4.013,6.95 -1.633,15.842 5.318,19.855 6.952,4.014 15.843,1.63 19.857,-5.321 4.012,-6.95 1.632,-15.843 -5.321,-19.856 m 74.898,43.246 c -6.952,-4.014 -15.839,-1.633 -19.853,5.319 -4.013,6.95 -1.632,15.841 5.32,19.857 6.953,4.011 15.842,1.629 19.854,-5.324 4.014,-6.949 1.632,-15.839 -5.321,-19.852 m -406.153,-334.36 c -6.951,-4.015 -15.841,-1.631 -19.855,5.319 -4.012,6.953 -1.632,15.842 5.32,19.856 6.952,4.014 15.842,1.631 19.854,-5.321 4.014,-6.952 1.634,-15.841 -5.319,-19.854 m 74.899,43.241 c -6.95,-4.012 -15.84,-1.629 -19.854,5.323 -4.012,6.95 -1.631,15.842 5.319,19.854 6.952,4.015 15.844,1.633 19.856,-5.32 4.014,-6.951 1.631,-15.843 -5.321,-19.857 m 74.901,43.244 c -6.953,-4.013 -15.843,-1.631 -19.854,5.322 -4.015,6.951 -1.634,15.842 5.318,19.853 6.952,4.016 15.842,1.632 19.856,-5.32 4.013,-6.949 1.632,-15.841 -5.32,-19.855 m 74.899,43.245 c -6.952,-4.014 -15.841,-1.632 -19.854,5.32 -4.013,6.95 -1.633,15.841 5.32,19.855 6.952,4.013 15.841,1.631 19.854,-5.321 4.013,-6.951 1.633,-15.842 -5.32,-19.854 m 74.899,43.242 c -6.95,-4.014 -15.841,-1.631 -19.855,5.321 -4.013,6.95 -1.631,15.842 5.319,19.856 6.953,4.013 15.844,1.629 19.856,-5.32 4.014,-6.953 1.632,-15.844 -5.32,-19.857 m 74.899,43.243 c -6.951,-4.013 -15.841,-1.629 -19.853,5.321 -4.014,6.952 -1.634,15.841 5.318,19.856 6.953,4.015 15.842,1.629 19.857,-5.319 4.011,-6.953 1.631,-15.843 -5.322,-19.858 m 58.573,44.461 c -1.384,1.102 -2.589,2.478 -3.528,4.103 -3.645,6.317 -2.013,14.229 3.528,18.636 z m -995.231,713.02 c -6.952,-4.014 -15.841,-1.632 -19.857,5.32 -4.011,6.953 -1.63,15.843 5.321,19.857 6.952,4.013 15.842,1.629 19.855,-5.324 4.014,-6.949 1.633,-15.84 -5.319,-19.853 m 74.900002,43.243 c -6.952,-4.012 -15.842,-1.63 -19.854,5.321 -4.014,6.952 -1.634,15.841 5.319,19.856 6.949,4.011 15.841,1.632 19.855,-5.322 4.013,-6.952 1.63,-15.84 -5.32,-19.855 m 74.898,43.242 c -6.949,-4.013 -15.84,-1.629 -19.854,5.32 -4.013,6.954 -1.632,15.844 5.319,19.858 6.954,4.014 15.843,1.632 19.855,-5.32 4.015,-6.954 1.634,-15.843 -5.32,-19.858 m 74.902,43.246 c -6.953,-4.014 -15.844,-1.633 -19.858,5.319 -4.012,6.952 -1.632,15.84 5.321,19.856 6.952,4.015 15.841,1.631 19.853,-5.322 4.016,-6.95 1.634,-15.841 -5.316,-19.853 m 74.898998,43.243 c -6.952,-4.014 -15.845,-1.632 -19.857,5.319 -4.014,6.951 -1.63,15.843 5.322,19.855 6.95,4.014 15.841,1.632 19.855,-5.32 4.012,-6.951 1.629,-15.841 -5.32,-19.854 m 74.898,43.243 c -6.951,-4.015 -15.839,-1.631 -19.854,5.321 -4.012,6.951 -1.631,15.842 5.319,19.853 6.954,4.015 15.843,1.631 19.855,-5.32 4.014,-6.95 1.635,-15.839 -5.32,-19.854 m 74.9,43.245 c -6.954,-4.015 -15.841,-1.634 -19.856,5.318 -4.012,6.952 -1.631,15.841 5.321,19.857 6.953,4.012 15.841,1.628 19.853,-5.324 4.015,-6.949 1.633,-15.84 -5.318,-19.851 M -94.656968,1122.981 c -6.951002,-4.013 -15.841002,-1.631 -19.855002,5.322 -4.013,6.95 -1.632,15.84 5.32,19.856 6.953,4.012 15.841002,1.629 19.854002,-5.323 4.014,-6.949 1.633,-15.842 -5.319,-19.855 m 74.901,43.245 c -6.952,-4.015 -15.841,-1.631 -19.854,5.32 -4.015,6.952 -1.633,15.841 5.318,19.854 6.95,4.014 15.843,1.631 19.856,-5.319 4.013,-6.953 1.63,-15.843 -5.32,-19.855 m 74.898,43.242 c -6.95,-4.015 -15.839,-1.629 -19.853,5.32 -4.013,6.952 -1.632,15.842 5.317,19.856 6.956,4.015 15.844,1.629 19.857,-5.32 4.014,-6.952 1.633,-15.843 -5.321,-19.856 m 74.899998,43.243 c -6.952,-4.014 -15.841,-1.631 -19.855,5.32 -4.012,6.952 -1.632,15.841 5.321,19.856 6.952,4.015 15.84,1.63 19.853,-5.321 4.014,-6.951 1.633,-15.84 -5.319,-19.855 m 74.902,43.243 c -6.953,-4.012 -15.845,-1.63 -19.857,5.32 -4.014,6.952 -1.632,15.843 5.32,19.856 6.951,4.014 15.841,1.632 19.856,-5.321 4.012,-6.951 1.63,-15.84 -5.319,-19.855 m 74.898,43.242 c -6.951,-4.012 -15.84,-1.629 -19.856,5.323 -4.012,6.951 -1.63,15.842 5.319,19.855 6.955,4.014 15.844,1.63 19.857,-5.321 4.014,-6.951 1.634,-15.842 -5.32,-19.857 m 74.899,43.245 c -6.952,-4.013 -15.841,-1.632 -19.856,5.321 -4.011,6.951 -1.631,15.84 5.32,19.857 6.952,4.011 15.843,1.629 19.855,-5.324 4.014,-6.949 1.634,-15.841 -5.319,-19.854 M -51.413968,1048.082 c -6.952,-4.014 -15.841,-1.63 -19.854,5.32 -4.013,6.952 -1.633,15.84 5.321,19.854 6.951,4.014 15.84,1.633 19.853,-5.319 4.013,-6.952 1.633,-15.841 -5.32,-19.855 m 74.9,43.242 c -6.951,-4.013 -15.841,-1.629 -19.853,5.323 -4.015,6.95 -1.633,15.84 5.318,19.853 6.953,4.014 15.842,1.634 19.857,-5.319 4.011,-6.951 1.629,-15.841 -5.322,-19.857 m 74.899,43.243 c -6.95,-4.012 -15.84,-1.629 -19.854,5.323 -4.013,6.95 -1.631,15.839 5.32,19.851 6.952,4.015 15.843,1.634 19.854998,-5.318 4.014,-6.949 1.634,-15.841 -5.320998,-19.856 m 74.900998,43.245 c -6.953,-4.013 -15.843,-1.631 -19.857,5.321 -4.013,6.951 -1.63,15.84 5.324,19.853 6.948,4.013 15.839,1.633 19.852,-5.32 4.014,-6.95 1.633,-15.841 -5.319,-19.854 m 74.899,43.243 c -6.952,-4.014 -15.842,-1.631 -19.855,5.322 -4.016,6.948 -1.63,15.839 5.321,19.853 6.952,4.013 15.84,1.632 19.855,-5.319 4.012,-6.952 1.63,-15.844 -5.321,-19.856 m 74.899,43.243 c -6.949,-4.014 -15.84,-1.629 -19.854,5.32 -4.012,6.952 -1.632,15.84 5.321,19.854 6.952,4.016 15.84,1.632 19.853,-5.317 4.014,-6.953 1.634,-15.843 -5.32,-19.857 m 74.899,43.244 c -6.951,-4.015 -15.841,-1.631 -19.855,5.32 -4.013,6.952 -1.632,15.839 5.322,19.854 6.951,4.013 15.84,1.632 19.853,-5.319 4.013,-6.953 1.633,-15.841 -5.32,-19.855 M -8.169968,973.184 c -6.953,-4.014 -15.842,-1.633 -19.857,5.32 -4.012,6.949 -1.632,15.84 5.324,19.853 6.949,4.013 15.839,1.633 19.85,-5.319 4.016,-6.953 1.635,-15.842 -5.317,-19.854 m 74.9,43.242 c -6.953,-4.014 -15.84,-1.63 -19.854,5.32 -4.014,6.952 -1.632,15.84 5.319,19.855 6.952,4.011 15.841,1.63 19.855,-5.318 4.014,-6.954 1.63,-15.845 -5.32,-19.857 m 74.897998,43.243 c -6.95,-4.014 -15.84,-1.632 -19.853,5.32 -4.014,6.953 -1.633,15.84 5.32,19.855 6.952,4.013 15.841,1.632 19.854,-5.32 4.013,-6.954 1.633,-15.84 -5.321,-19.855 m 74.9,43.244 c -6.951,-4.016 -15.841,-1.632 -19.855,5.32 -4.013,6.951 -1.633,15.84 5.321,19.854 6.951,4.014 15.84,1.632 19.852,-5.319 4.015,-6.954 1.634,-15.841 -5.318,-19.855 m 74.901,43.242 c -6.953,-4.013 -15.843,-1.633 -19.856,5.32 -4.015,6.953 -1.63,15.843 5.319,19.854 6.953,4.016 15.844,1.633 19.857,-5.317 4.014,-6.953 1.629,-15.843 -5.32,-19.857 m 74.898,43.243 c -6.951,-4.012 -15.839,-1.631 -19.854,5.322 -4.012,6.951 -1.631,15.839 5.321,19.852 6.952,4.015 15.841,1.634 19.854,-5.318 4.014,-6.952 1.633,-15.842 -5.321,-19.856 m 74.9,43.245 c -6.953,-4.013 -15.841,-1.633 -19.855,5.321 -4.013,6.949 -1.632,15.84 5.322,19.853 6.95,4.013 15.839,1.633 19.852,-5.32 4.014,-6.952 1.633,-15.841 -5.319,-19.854 M 35.072032,898.286 c -6.952,-4.015 -15.841,-1.634 -19.853,5.316 -4.015,6.954 -1.635,15.843 5.319,19.858 6.952,4.013 15.84,1.632 19.854,-5.322 4.013,-6.951 1.632,-15.84 -5.32,-19.852 m 74.900998,43.241 c -6.952,-4.013 -15.838998,-1.63 -19.854998,5.32 -4.014,6.954 -1.63,15.84 5.319,19.856 6.951998,4.011 15.842998,1.631 19.856998,-5.322 4.014,-6.95 1.629,-15.841 -5.321,-19.854 m 74.898,43.244 c -6.95,-4.014 -15.839,-1.631 -19.852,5.319 -4.014,6.954 -1.633,15.842 5.319,19.855 6.951,4.014 15.841,1.632 19.856,-5.32 4.012,-6.952 1.631,-15.84 -5.323,-19.854 m 74.9,43.244 c -6.952,-4.016 -15.841,-1.632 -19.853,5.317 -4.015,6.954 -1.634,15.843 5.32,19.856 6.949,4.015 15.839,1.632 19.854,-5.32 4.012,-6.952 1.631,-15.839 -5.321,-19.853 m 74.9,43.242 c -6.952,-4.013 -15.841,-1.632 -19.855,5.318 -4.014,6.954 -1.631,15.845 5.32,19.856 6.952,4.015 15.841,1.633 19.855,-5.321 4.016,-6.949 1.631,-15.84 -5.32,-19.853 m 74.898,43.243 c -6.949,-4.012 -15.839,-1.632 -19.852,5.32 -4.014,6.952 -1.634,15.842 5.319,19.854 6.952,4.014 15.843,1.634 19.857,-5.32 4.012,-6.951 1.632,-15.839 -5.324,-19.854 m 74.901,43.245 c -6.952,-4.016 -15.842,-1.633 -19.854,5.317 -4.015,6.954 -1.635,15.843 5.321,19.857 6.949,4.013 15.84,1.632 19.854,-5.321 4.012,-6.952 1.632,-15.84 -5.321,-19.853 M 78.317032,823.383 c -6.953,-4.015 -15.843,-1.629 -19.855,5.32 -4.014,6.952 -1.634,15.841 5.32,19.856 6.95,4.015 15.84,1.629 19.854,-5.32 4.012,-6.952 1.632,-15.843 -5.319,-19.856 m 74.898998,43.243 c -6.95,-4.013 -15.84,-1.63 -19.854,5.322 -4.013,6.951 -1.633,15.841 5.318,19.854 6.953,4.014 15.843,1.632 19.855,-5.321 4.016,-6.949 1.632,-15.84 -5.319,-19.855 m 74.9,43.242 c -6.952,-4.013 -15.842,-1.629 -19.855,5.323 -4.014,6.95 -1.633,15.842 5.319,19.855 6.952,4.013 15.843,1.632 19.857,-5.321 4.012,-6.951 1.63,-15.842 -5.321,-19.857 m 74.9,43.245 c -6.953,-4.013 -15.844,-1.632 -19.857,5.321 -4.013,6.951 -1.633,15.842 5.322,19.857 6.949,4.012 15.84,1.628 19.854,-5.324 4.012,-6.95 1.631,-15.841 -5.319,-19.854 m 74.898,43.244 c -6.95,-4.014 -15.84,-1.632 -19.856,5.32 -4.011,6.95 -1.63,15.841 5.322,19.855 6.95,4.013 15.842,1.631 19.855,-5.32 4.014,-6.952 1.632,-15.843 -5.321,-19.855 m 74.9,43.242 c -6.952,-4.014 -15.841,-1.629 -19.853,5.321 -4.014,6.951 -1.634,15.842 5.318,19.856 6.953,4.014 15.841,1.629 19.856,-5.321 4.012,-6.951 1.631,-15.841 -5.321,-19.856 m 74.902,43.244 c -6.955,-4.015 -15.845,-1.63 -19.857,5.32 -4.014,6.952 -1.634,15.841 5.32,19.856 6.951,4.014 15.84,1.629 19.854,-5.321 4.012,-6.951 1.632,-15.842 -5.317,-19.855 m -406.155,-334.359 c -6.954,-4.013 -15.845,-1.632 -19.857,5.321 -4.013998,6.951 -1.63,15.839 5.321,19.854 6.952,4.012 15.839,1.632 19.854,-5.321 4.012,-6.949 1.631,-15.841 -5.318,-19.854 m 74.898,43.243 c -6.951,-4.015 -15.84,-1.629 -19.854,5.322 -4.012,6.952 -1.632,15.84 5.32,19.853 6.95,4.013 15.842,1.632 19.854,-5.319 4.014,-6.952 1.632,-15.844 -5.32,-19.856 m 74.9,43.244 c -6.952,-4.015 -15.842,-1.63 -19.854,5.319 -4.014,6.953 -1.632,15.84 5.319,19.855 6.954,4.015 15.841,1.631 19.855,-5.318 4.012,-6.953 1.632,-15.843 -5.32,-19.856 m 74.901,43.243 c -6.956,-4.014 -15.845,-1.631 -19.857,5.32 -4.014,6.952 -1.632,15.84 5.32,19.854 6.953,4.013 15.84,1.631 19.854,-5.32 4.013,-6.952 1.632,-15.841 -5.317,-19.854 m 74.898,43.242 c -6.951,-4.011 -15.843,-1.63 -19.857,5.321 -4.012,6.951 -1.629,15.842 5.322,19.854 6.951,4.014 15.843,1.634 19.855,-5.319 4.014,-6.951 1.631,-15.84 -5.32,-19.856 m 74.899,43.243 c -6.951,-4.013 -15.84,-1.629 -19.853,5.321 -4.014,6.953 -1.632,15.84 5.319,19.853 6.954,4.016 15.841,1.634 19.855,-5.316 4.012,-6.953 1.632,-15.844 -5.321,-19.858 m 74.9,43.245 c -6.953,-4.013 -15.842,-1.632 -19.855,5.321 -4.014,6.951 -1.632,15.839 5.321,19.853 6.952,4.013 15.839,1.633 19.853,-5.32 4.013,-6.949 1.632,-15.841 -5.319,-19.854 m 118.142,-31.66 c -6.95,-4.014 -15.839,-1.633 -19.852,5.319 -4.014,6.954 -1.634,15.842 5.319,19.855 6.949,4.014 15.841,1.633 19.855,-5.321 4.012,-6.951 1.631,-15.839 -5.322,-19.853 m 74.9,43.241 c -6.952,-4.011 -15.84,-1.631 -19.854,5.321 -4.013,6.952 -1.632,15.842 5.32,19.855 6.953,4.014 15.84,1.634 19.854,-5.321 4.014,-6.95 1.632,-15.84 -5.32,-19.855 m 74.901,43.245 c -6.955,-4.013 -15.843,-1.632 -19.856,5.32 -4.014,6.952 -1.632,15.841 5.32,19.854 6.952,4.013 15.839,1.633 19.854,-5.321 4.013,-6.95 1.632,-15.84 -5.318,-19.853 m -106.558,-161.385 c -6.95,-4.012 -15.84,-1.632 -19.851,5.321 -4.016,6.949 -1.634,15.841 5.317,19.853 6.951,4.014 15.843,1.632 19.857,-5.32 4.012,-6.951 1.629,-15.84 -5.323,-19.854 m 74.901,43.241 c -6.951,-4.013 -15.84,-1.631 -19.854,5.321 -4.012,6.951 -1.632,15.844 5.317,19.856 6.955,4.014 15.845,1.631 19.857,-5.322 4.014,-6.95 1.633,-15.841 -5.32,-19.855 m -31.656,-118.142 c -6.951,-4.014 -15.842,-1.629 -19.854,5.321 -4.014,6.952 -1.634,15.842 5.319,19.856 6.95,4.013 15.84,1.629 19.855,-5.32 4.012,-6.952 1.63,-15.844 -5.32,-19.857 m 74.898,43.243 c -6.95,-4.013 -15.84,-1.63 -19.854,5.321 -4.013,6.952 -1.632,15.84 5.32,19.853 6.953,4.015 15.843,1.633 19.855,-5.318 0.701,-1.213 1.207,-2.485 1.526,-3.779 v -6.96 c -0.914,-3.71 -3.278,-7.056 -6.847,-9.117 m -31.655,-118.142 c -6.952,-4.014 -15.84,-1.633 -19.854,5.321 -4.014,6.951 -1.631,15.84 5.319,19.853 6.951,4.013 15.841,1.633 19.855,-5.32 4.014,-6.951 1.631,-15.84 -5.32,-19.854 m 38.502,-76.629 c -5.847,-1.029 -11.971,1.61 -15.114,7.051 -4.014,6.952 -1.63,15.841 5.319,19.853 3.082,1.78 6.545,2.3 9.795,1.726 z m -470.936,825.629 c -6.949,-4.015 -15.84,-1.632 -19.852,5.318 -4.014,6.953 -1.634,15.842 5.319,19.856 6.951,4.012 15.842,1.632 19.857,-5.321 4.012,-6.952 1.628,-15.84 -5.324,-19.853 m 74.902,43.24 c -6.953,-4.013 -15.844,-1.629 -19.856,5.32 -4.014,6.953 -1.634,15.843 5.319,19.857 6.953,4.015 15.842,1.633 19.856,-5.32 4.013,-6.953 1.631,-15.842 -5.319,-19.857 m 74.899,43.245 c -6.952,-4.014 -15.841,-1.632 -19.857,5.319 -4.011,6.953 -1.63,15.841 5.322,19.855 6.951,4.016 15.841,1.632 19.854,-5.32 4.014,-6.95 1.634,-15.841 -5.319,-19.854 m 74.9,43.243 c -6.952,-4.013 -15.843,-1.631 -19.856,5.32 -4.014,6.95 -1.631,15.843 5.321,19.855 6.949,4.014 15.841,1.632 19.855,-5.321 4.012,-6.95 1.631,-15.841 -5.32,-19.854 m 74.898,43.243 c -6.952,-4.014 -15.841,-1.63 -19.854,5.322 -4.014,6.95 -1.633,15.841 5.319,19.853 6.953,4.014 15.841,1.63 19.855,-5.32 4.012,-6.951 1.633,-15.84 -5.32,-19.855 m 74.901,43.244 c -6.952,-4.015 -15.843,-1.633 -19.857,5.319 -4.012,6.953 -1.632,15.842 5.321,19.857 6.952,4.011 15.842,1.629 19.853,-5.323 4.016,-6.949 1.634,-15.84 -5.317,-19.853 m -331.255,-291.116 c -6.952,-4.015 -15.841,-1.629 -19.854,5.322 -4.014,6.952 -1.633,15.841 5.319,19.854 6.949,4.013 15.841,1.631 19.855,-5.32 4.013,-6.952 1.631,-15.843 -5.32,-19.856 m 74.898,43.243 c -6.952,-4.014 -15.841,-1.629 -19.854,5.32 -4.013,6.953 -1.633,15.843 5.32,19.857 6.952,4.014 15.84,1.629 19.855,-5.32 4.012,-6.953 1.632,-15.843 -5.321,-19.857 m 74.902,43.243 c -6.952,-4.014 -15.843,-1.63 -19.857,5.321 -4.013,6.952 -1.632,15.841 5.32,19.856 6.953,4.014 15.841,1.629 19.854,-5.322 4.015,-6.952 1.633,-15.841 -5.317,-19.855 m 74.9,43.243 c -6.953,-4.012 -15.845,-1.63 -19.857,5.321 -4.014,6.951 -1.631,15.843 5.321,19.856 6.95,4.013 15.842,1.632 19.855,-5.321 4.013,-6.951 1.63,-15.84 -5.319,-19.856 m 74.898,43.243 c -6.953,-4.013 -15.842,-1.629 -19.854,5.321 -4.014,6.952 -1.634,15.843 5.319,19.856 6.951,4.015 15.841,1.631 19.855,-5.32 4.013,-6.951 1.632,-15.843 -5.32,-19.857 m 74.899,43.245 c -6.952,-4.013 -15.841,-1.633 -19.855,5.321 -4.012,6.95 -1.632,15.84 5.321,19.856 6.952,4.011 15.841,1.629 19.853,-5.323 4.014,-6.949 1.634,-15.841 -5.319,-19.854 m 53.194,54.143 c -0.13,1.126 -0.13,2.256 0,3.367 z m -384.447,-345.261 c -6.953,-4.012 -15.842,-1.628 -19.854,5.324 -4.016,6.95 -1.632,15.839 5.317,19.852 6.953,4.015 15.843,1.634 19.857,-5.318 4.013,-6.952 1.629,-15.843 -5.32,-19.858 m 74.898,43.244 c -6.953,-4.012 -15.841,-1.631 -19.854,5.323 -4.014,6.95 -1.632,15.838 5.321,19.851 6.952,4.015 15.839,1.634 19.853,-5.318 4.013,-6.949 1.632,-15.842 -5.32,-19.856 m 74.899,43.245 c -6.952,-4.014 -15.841,-1.631 -19.855,5.321 -4.012,6.949 -1.632,15.84 5.322,19.853 6.951,4.013 15.84,1.632 19.853,-5.32 4.013,-6.951 1.633,-15.841 -5.32,-19.854 m 74.902,43.243 c -6.952,-4.015 -15.844,-1.631 -19.857,5.321 -4.014,6.949 -1.629,15.84 5.321,19.854 6.952,4.012 15.84,1.63 19.856,-5.319 4.011,-6.952 1.629,-15.844 -5.32,-19.856 m 74.898,43.243 c -6.952,-4.014 -15.843,-1.629 -19.855,5.32 -4.014,6.952 -1.631,15.84 5.321,19.854 6.952,4.014 15.838,1.631 19.854,-5.318 4.012,-6.952 1.631,-15.842 -5.32,-19.856 m 74.9,43.244 c -6.953,-4.015 -15.842,-1.631 -19.857,5.319 -4.011,6.953 -1.63,15.84 5.324,19.855 6.949,4.013 15.839,1.632 19.852,-5.32 4.014,-6.952 1.633,-15.84 -5.319,-19.854 m -331.255,-291.116 c -6.951,-4.015 -15.84,-1.631 -19.854,5.32 -4.014,6.952 -1.632,15.839 5.319,19.854 6.952,4.012 15.841,1.631 19.857,-5.318 4.014,-6.954 1.628,-15.845 -5.322,-19.856 m 74.898,43.243 c -6.951,-4.014 -15.84,-1.632 -19.854,5.32 -4.014,6.953 -1.63,15.84 5.32,19.855 6.953,4.013 15.84,1.631 19.856,-5.32 4.014,-6.954 1.63,-15.842 -5.322,-19.855 m 74.901,43.243 c -6.952,-4.016 -15.842,-1.632 -19.856,5.321 -4.014,6.95 -1.631,15.84 5.323,19.854 6.949,4.013 15.839,1.632 19.852,-5.32 4.014,-6.954 1.634,-15.84 -5.319,-19.855 m 74.9,43.243 c -6.953,-4.014 -15.841,-1.633 -19.856,5.319 -4.015,6.954 -1.63,15.843 5.321,19.855 6.952,4.016 15.841,1.633 19.855,-5.317 4.014,-6.954 1.631,-15.843 -5.32,-19.857 m 74.898,43.243 c -6.952,-4.012 -15.84,-1.632 -19.854,5.322 -4.014,6.951 -1.631,15.839 5.321,19.852 6.952,4.014 15.84,1.634 19.854,-5.319 4.014,-6.952 1.632,-15.841 -5.321,-19.855 m -256.354,-247.871 c -6.952,-4.013 -15.839,-1.632 -19.854,5.32 -4.014,6.953 -1.631,15.84 5.319,19.856 6.953,4.011 15.842,1.631 19.856,-5.322 4.014,-6.95 1.63,-15.841 -5.321,-19.854 m 74.898,43.243 c -6.952,-4.013 -15.839,-1.631 -19.853,5.32 -4.015,6.954 -1.633,15.841 5.32,19.854 6.952,4.015 15.84,1.633 19.854,-5.319 4.014,-6.953 1.631,-15.84 -5.321,-19.855 m 74.9,43.243 c -6.951,-4.014 -15.841,-1.63 -19.853,5.319 -4.015,6.954 -1.635,15.842 5.32,19.856 6.951,4.015 15.839,1.632 19.854,-5.32 4.012,-6.952 1.631,-15.84 -5.321,-19.855 m 74.902,43.243 c -6.953,-4.012 -15.843,-1.632 -19.857,5.319 -4.014,6.954 -1.629,15.843 5.32,19.856 6.952,4.015 15.843,1.633 19.857,-5.321 4.014,-6.949 1.628,-15.84 -5.32,-19.854 m 73.262,42.431 c -6.655,-2.806 -14.513,-0.284 -18.218,6.133 -4.016,6.952 -1.632,15.842 5.32,19.854 4.093,2.362 8.853,2.508 12.898,0.813 z m -254.718,-247.061 c -6.951,-4.013 -15.84,-1.63 -19.855,5.322 -4.012,6.951 -1.631,15.841 5.318,19.854 6.953,4.013 15.845,1.631 19.857,-5.321 4.014,-6.949 1.63,-15.841 -5.32,-19.855 m 74.899,43.242 c -6.952,-4.013 -15.84,-1.629 -19.855,5.323 -4.013,6.95 -1.632,15.841 5.32,19.854 6.951,4.014 15.842,1.633 19.854,-5.321 4.014,-6.95 1.634,-15.841 -5.319,-19.856 m 74.9,43.245 c -6.954,-4.014 -15.842,-1.632 -19.855,5.32 -4.014,6.952 -1.634,15.843 5.32,19.857 6.949,4.013 15.84,1.629 19.854,-5.323 4.012,-6.95 1.632,-15.841 -5.319,-19.854 m 74.898,43.243 c -6.949,-4.013 -15.841,-1.632 -19.855,5.321 -4.012,6.949 -1.631,15.841 5.32,19.855 6.953,4.013 15.844,1.631 19.856,-5.32 4.015,-6.952 1.631,-15.843 -5.321,-19.856 m -181.455,-204.629 c -6.95,-4.015 -15.84,-1.629 -19.854,5.322 -4.012,6.952 -1.632,15.839 5.32,19.852 6.951,4.014 15.842,1.633 19.854,-5.318 4.016,-6.952 1.632,-15.844 -5.32,-19.856 m 74.901,43.243 c -6.953,-4.014 -15.843,-1.629 -19.857,5.32 -4.012,6.953 -1.632,15.84 5.32,19.854 6.953,4.016 15.843,1.632 19.854,-5.317 4.016,-6.953 1.634,-15.844 -5.317,-19.857 m 74.9,43.243 c -6.954,-4.014 -15.845,-1.63 -19.857,5.321 -4.014,6.952 -1.631,15.84 5.322,19.854 6.951,4.013 15.84,1.631 19.853,-5.32 4.013,-6.952 1.631,-15.841 -5.318,-19.855 m 61.675,42.572 c -2.694,1.207 -5.045,3.241 -6.634,5.992 -4.011,6.951 -1.629,15.842 5.323,19.854 0.431,0.249 0.867,0.471 1.311,0.672 z"
           style="fill:#ffffff;fill-opacity:1;fill-rule:evenodd;stroke:none"
           id="path10238" /></g></g></g></svg>
