<?xml version="1.0" encoding="UTF-8" standalone="no"?>
<!-- Created with Inkscape (http://www.inkscape.org/) -->

<svg
   version="1.1"
   id="svg9"
   xml:space="preserve"
   width="11787.846"
   height="4383.4082"
   viewBox="0 0 11787.846 4383.4082"
   sodipodi:docname="landing.svg"
   inkscape:version="1.1.1 (3bf5ae0d25, 2021-09-20)"
   inkscape:export-filename="/home/kyle/bitmap.png"
   inkscape:export-xdpi="20.685665"
   inkscape:export-ydpi="20.685665"
   xmlns:inkscape="http://www.inkscape.org/namespaces/inkscape"
   xmlns:sodipodi="http://sodipodi.sourceforge.net/DTD/sodipodi-0.dtd"
   xmlns="http://www.w3.org/2000/svg"
   xmlns:svg="http://www.w3.org/2000/svg"><defs
     id="defs13"><clipPath
       clipPathUnits="userSpaceOnUse"
       id="clipPath25"><path
         d="M 0,3250 H 4875.001 V 0 H 0 Z"
         id="path23" /></clipPath><clipPath
       clipPathUnits="userSpaceOnUse"
       id="clipPath49"><path
         d="M 0,3250 H 4875.001 V 0 H 0 Z"
         id="path47" /></clipPath><clipPath
       clipPathUnits="userSpaceOnUse"
       id="clipPath65"><path
         d="M 0,3250 H 4875.001 V 0 H 0 Z"
         id="path63" /></clipPath></defs><sodipodi:namedview
     id="namedview11"
     pagecolor="#ffffff"
     bordercolor="#666666"
     borderopacity="1.0"
     inkscape:pageshadow="2"
     inkscape:pageopacity="0.0"
     inkscape:pagecheckerboard="0"
     showgrid="false"
     inkscape:zoom="0.067442305"
     inkscape:cx="10445.966"
     inkscape:cy="1416.0252"
     inkscape:window-width="2516"
     inkscape:window-height="1340"
     inkscape:window-x="0"
     inkscape:window-y="0"
     inkscape:window-maximized="1"
     inkscape:current-layer="g15"
     fit-margin-top="0"
     fit-margin-left="0"
     fit-margin-right="0"
     fit-margin-bottom="0" /><g
     id="g15"
     inkscape:groupmode="layer"
     inkscape:label="AdobeStock_301523967"
     transform="matrix(1.3333333,0,0,-1.3333333,9159.6384,4355.2355)"><g
       id="g1272"
       transform="translate(-536.61319,7.2544546)"><g
         id="g27"
         transform="rotate(-30,5203.5197,-3235.2899)"
         style="fill:#00a9b1;fill-opacity:1"><path
           d="m 0,0 -967.729,-558.717 c -88.646,-51.18 -201.993,-20.807 -253.171,67.838 -42.189,73.07 -28.962,162.931 26.642,220.917 l 244.681,149.736 c 88.644,51.179 119.015,164.528 67.836,253.173 -51.178,88.643 -164.525,119.016 -253.172,67.838 l -1101.8559,-636.15999 1297.34759,-2247.07181 503.74235,290.8357 685.11696,395.5541 c 88.643,51.178 119.015,164.527 67.835,253.172 -51.177,88.644 -164.524,119.017 -253.17,67.837 l -492.123,-284.127 c -88.647,-51.179 -201.993,-20.806 -253.173,67.838 -51.178,88.644 -20.806,201.995 67.837,253.173 l 900.783,520.067 c 88.643,51.178 119.014,164.528 67.835,253.171 -51.178,88.644 -164.527,119.017 -253.173,67.838 -88.645,-51.178 -201.993,-20.804 -253.172,67.839 -51.179,88.644 -20.808,201.994 67.835,253.172 l 268.584,155.066 c 88.644,51.179 119.015,164.528 67.836,253.173 C 201.994,20.805 88.646,51.178 0,0"
           style="fill:#00a9b1;fill-opacity:1;fill-rule:evenodd;stroke:none"
           id="path29"
           sodipodi:nodetypes="cccccscccccccccsscscccsc" /></g><g
         id="g123"
         transform="rotate(-30,2410.2398,-3675.606)"
         style="fill:#00a9b1;fill-opacity:1"><path
           d="m 0,0 c 35.568,0 64.405,-28.836 64.405,-64.404 0,-35.57 -28.837,-64.406 -64.405,-64.406 -35.569,0 -64.405,28.836 -64.405,64.406 C -64.405,-28.836 -35.569,0 0,0"
           style="fill:#00a9b1;fill-opacity:1;fill-rule:evenodd;stroke:none"
           id="path125" /></g></g></g></svg>
