<?xml version="1.0" encoding="UTF-8" standalone="no"?>
<!-- Created with Inkscape (http://www.inkscape.org/) -->

<svg
   version="1.1"
   id="svg9"
   xml:space="preserve"
   width="2207.7305"
   height="3326.0032"
   viewBox="0 0 2207.7305 3326.0032"
   sodipodi:docname="landing.svg"
   inkscape:version="1.1.1 (3bf5ae0d25, 2021-09-20)"
   inkscape:export-filename="/home/kyle/bitmap.png"
   inkscape:export-xdpi="20.685665"
   inkscape:export-ydpi="20.685665"
   xmlns:inkscape="http://www.inkscape.org/namespaces/inkscape"
   xmlns:sodipodi="http://sodipodi.sourceforge.net/DTD/sodipodi-0.dtd"
   xmlns="http://www.w3.org/2000/svg"
   xmlns:svg="http://www.w3.org/2000/svg"><defs
     id="defs13"><clipPath
       clipPathUnits="userSpaceOnUse"
       id="clipPath25"><path
         d="M 0,3250 H 4875.001 V 0 H 0 Z"
         id="path23" /></clipPath><clipPath
       clipPathUnits="userSpaceOnUse"
       id="clipPath49"><path
         d="M 0,3250 H 4875.001 V 0 H 0 Z"
         id="path47" /></clipPath><clipPath
       clipPathUnits="userSpaceOnUse"
       id="clipPath65"><path
         d="M 0,3250 H 4875.001 V 0 H 0 Z"
         id="path63" /></clipPath></defs><sodipodi:namedview
     id="namedview11"
     pagecolor="#ffffff"
     bordercolor="#666666"
     borderopacity="1.0"
     inkscape:pageshadow="2"
     inkscape:pageopacity="0.0"
     inkscape:pagecheckerboard="0"
     showgrid="false"
     inkscape:zoom="0.26976922"
     inkscape:cx="1158.3975"
     inkscape:cy="1714.4284"
     inkscape:window-width="2516"
     inkscape:window-height="1340"
     inkscape:window-x="0"
     inkscape:window-y="0"
     inkscape:window-maximized="1"
     inkscape:current-layer="g15"
     fit-margin-top="0"
     fit-margin-left="0"
     fit-margin-right="0"
     fit-margin-bottom="0" /><g
     id="g15"
     inkscape:groupmode="layer"
     inkscape:label="AdobeStock_301523967"
     transform="matrix(1.3333333,0,0,-1.3333333,-4272.8507,3559.0875)"><g
       id="g1368"
       transform="rotate(30,4191.831,-306.17048)"><g
         id="g39"
         transform="rotate(-30,3580.2162,-9196.2586)"
         style="fill:#ffb20f;fill-opacity:1"><path
           d="M 0,0 C 136.637,0 247.408,-110.771 247.408,-247.413 247.408,-384.05 136.637,-494.822 0,-494.822 c -136.642,0 -247.413,110.772 -247.413,247.409 C -247.413,-110.771 -136.642,0 0,0"
           style="fill:#ffb20f;fill-opacity:1;fill-rule:evenodd;stroke:none"
           id="path41" /></g><g
         id="g111"
         transform="rotate(-30,7201.5176,-8862.5796)"
         style="fill:#ffb20f;fill-opacity:1"><path
           d="m 0,0 c 24.396,0 44.172,-19.777 44.172,-44.172 0,-24.396 -19.776,-44.173 -44.172,-44.173 -24.396,0 -44.174,19.777 -44.174,44.173 C -44.174,-19.777 -24.396,0 0,0"
           style="fill:#ffb20f;fill-opacity:1;fill-rule:evenodd;stroke:none"
           id="path113" /></g><g
         id="g115"
         transform="rotate(-30,5344.2072,-7375.9518)"
         style="fill:#ffb20f;fill-opacity:1"><path
           d="m 0,0 c 35.568,0 64.405,-28.836 64.405,-64.405 0,-35.569 -28.837,-64.405 -64.405,-64.405 -35.568,0 -64.405,28.836 -64.405,64.405 C -64.405,-28.836 -35.568,0 0,0"
           style="fill:#ffb20f;fill-opacity:1;fill-rule:evenodd;stroke:none"
           id="path117" /></g></g></g></svg>
