<?xml version="1.0" encoding="UTF-8" standalone="no"?>
<!-- Created with Inkscape (http://www.inkscape.org/) -->

<svg
   version="1.1"
   id="svg9"
   xml:space="preserve"
   width="2207.7305"
   height="3326.0032"
   viewBox="0 0 2207.7305 3326.0032"
   sodipodi:docname="landing.svg"
   inkscape:version="1.1.1 (3bf5ae0d25, 2021-09-20)"
   inkscape:export-filename="/home/kyle/bitmap.png"
   inkscape:export-xdpi="20.685665"
   inkscape:export-ydpi="20.685665"
   xmlns:inkscape="http://www.inkscape.org/namespaces/inkscape"
   xmlns:sodipodi="http://sodipodi.sourceforge.net/DTD/sodipodi-0.dtd"
   xmlns="http://www.w3.org/2000/svg"
   xmlns:svg="http://www.w3.org/2000/svg"><defs
     id="defs13"><clipPath
       clipPathUnits="userSpaceOnUse"
       id="clipPath25"><path
         d="M 0,3250 H 4875.001 V 0 H 0 Z"
         id="path23" /></clipPath><clipPath
       clipPathUnits="userSpaceOnUse"
       id="clipPath49"><path
         d="M 0,3250 H 4875.001 V 0 H 0 Z"
         id="path47" /></clipPath><clipPath
       clipPathUnits="userSpaceOnUse"
       id="clipPath65"><path
         d="M 0,3250 H 4875.001 V 0 H 0 Z"
         id="path63" /></clipPath></defs><sodipodi:namedview
     id="namedview11"
     pagecolor="#ffffff"
     bordercolor="#666666"
     borderopacity="1.0"
     inkscape:pageshadow="2"
     inkscape:pageopacity="0.0"
     inkscape:pagecheckerboard="0"
     showgrid="false"
     inkscape:zoom="0.26976922"
     inkscape:cx="1158.3975"
     inkscape:cy="1714.4284"
     inkscape:window-width="2516"
     inkscape:window-height="1340"
     inkscape:window-x="0"
     inkscape:window-y="0"
     inkscape:window-maximized="1"
     inkscape:current-layer="g15"
     fit-margin-top="0"
     fit-margin-left="0"
     fit-margin-right="0"
     fit-margin-bottom="0" /><g
     id="g15"
     inkscape:groupmode="layer"
     inkscape:label="AdobeStock_301523967"
     transform="matrix(1.3333333,0,0,-1.3333333,-4272.8507,3559.0875)"><g
       id="g1350"
       transform="rotate(30,4191.831,-306.17048)"><g
         id="g55"
         transform="rotate(-30,4956.7053,-10157.93)"><path
           d="m 0,0 c 6.952,4.014 15.843,1.634 19.855,-5.319 4.014,-6.952 1.631,-15.841 -5.321,-19.855 -6.95,-4.013 -15.841,-1.632 -19.854,5.32 C -9.334,-12.903 -6.951,-4.013 0,0 m -74.898,-43.242 c 6.951,4.013 15.839,1.631 19.852,-5.32 4.016,-6.953 1.633,-15.841 -5.317,-19.855 -6.954,-4.015 -15.843,-1.632 -19.857,5.32 -4.012,6.952 -1.633,15.841 5.322,19.855 M -149.8,-86.487 c 6.954,4.015 15.842,1.633 19.856,-5.318 4.013,-6.953 1.632,-15.842 -5.321,-19.856 -6.951,-4.012 -15.839,-1.632 -19.853,5.322 -4.015,6.95 -1.633,15.839 5.318,19.852 M 31.656,118.145 c 1.707,0.986 3.533,1.584 5.374,1.826 V 91.146 c -4.325,0.572 -8.344,3.075 -10.692,7.144 -4.015,6.951 -1.635,15.841 5.318,19.855 m -74.9,-43.244 c 6.951,4.013 15.844,1.631 19.855,-5.32 4.015,-6.951 1.632,-15.843 -5.32,-19.855 -6.951,-4.014 -15.841,-1.632 -19.854,5.32 -4.014,6.951 -1.631,15.841 5.319,19.855 m -74.898,-43.243 c 6.951,4.014 15.84,1.631 19.854,-5.32 4.013,-6.953 1.632,-15.843 -5.319,-19.856 -6.953,-4.014 -15.842,-1.63 -19.855,5.321 -4.014,6.95 -1.634,15.841 5.32,19.855 m -74.9,-43.245 c 6.953,4.014 15.842,1.632 19.855,-5.319 4.013,-6.951 1.632,-15.841 -5.322,-19.855 -6.95,-4.014 -15.839,-1.631 -19.852,5.32 -4.014,6.952 -1.633,15.839 5.319,19.854 m 181.454,204.63 c 6.953,4.014 15.844,1.631 19.856,-5.32 4.014,-6.951 1.631,-15.84 -5.321,-19.854 -6.952,-4.014 -15.839,-1.632 -19.853,5.319 -4.013,6.952 -1.632,15.842 5.318,19.855 m -74.899,-43.244 c 6.952,4.014 15.842,1.633 19.857,-5.32 4.012,-6.951 1.628,-15.839 -5.322,-19.854 -6.951,-4.012 -15.841,-1.631 -19.856,5.319 -4.012,6.951 -1.63,15.843 5.321,19.855 m -74.899,-43.241 c 6.951,4.012 15.842,1.629 19.855,-5.322 4.013,-6.951 1.632,-15.84 -5.32,-19.852 -6.954,-4.016 -15.842,-1.634 -19.854,5.317 -4.015,6.952 -1.633,15.842 5.319,19.857 m -74.901,-43.244 c 6.954,4.014 15.844,1.631 19.857,-5.321 4.013,-6.951 1.632,-15.842 -5.32,-19.856 -6.953,-4.012 -15.841,-1.629 -19.855,5.321 -4.013,6.951 -1.632,15.842 5.318,19.856 M 20.07,311.186 c 5.58,3.222 12.409,2.321 16.96,-1.755 v -21.665 c -0.733,-0.655 -1.541,-1.244 -2.425,-1.754 -6.954,-4.016 -15.841,-1.633 -19.855,5.317 -4.015,6.955 -1.632,15.843 5.32,19.857 m -74.901,-43.244 c 6.954,4.014 15.843,1.633 19.857,-5.32 4.012,-6.952 1.632,-15.841 -5.322,-19.855 -6.951,-4.012 -15.84,-1.63 -19.852,5.321 -4.016,6.952 -1.634,15.841 5.317,19.854 m -74.898,-43.243 c 6.951,4.013 15.84,1.632 19.855,-5.32 4.015,-6.951 1.631,-15.842 -5.32,-19.854 -6.952,-4.014 -15.843,-1.634 -19.856,5.319 -4.013,6.953 -1.63,15.841 5.321,19.855 m -74.9,-43.244 c 6.952,4.015 15.84,1.633 19.856,-5.319 4.012,-6.953 1.629,-15.84 -5.321,-19.854 -6.953,-4.015 -15.841,-1.633 -19.855,5.318 -4.015,6.953 -1.632,15.841 5.32,19.855 m -74.899,-43.243 c 6.952,4.014 15.841,1.633 19.855,-5.32 4.014,-6.951 1.632,-15.84 -5.322,-19.854 -6.951,-4.014 -15.84,-1.632 -19.853,5.318 -4.013,6.955 -1.633,15.844 5.32,19.856 m 256.355,247.873 c 6.952,4.014 15.839,1.632 19.854,-5.319 4.013,-6.955 1.632,-15.842 -5.32,-19.856 -6.952,-4.014 -15.84,-1.632 -19.855,5.321 -4.014,6.951 -1.632,15.84 5.321,19.854 m -74.9,-43.244 c 6.953,4.014 15.841,1.632 19.855,-5.319 4.015,-6.952 1.632,-15.841 -5.322,-19.855 -6.95,-4.014 -15.84,-1.632 -19.854,5.32 -4.012,6.953 -1.631,15.841 5.321,19.854 m -74.9,-43.244 c 6.952,4.015 15.841,1.634 19.855,-5.317 4.014,-6.954 1.631,-15.843 -5.319,-19.857 -6.952,-4.012 -15.842,-1.632 -19.856,5.321 -4.015,6.951 -1.631,15.841 5.32,19.853 m -74.898,-43.242 c 6.951,4.013 15.84,1.633 19.852,-5.32 4.016,-6.952 1.634,-15.841 -5.319,-19.853 -6.952,-4.016 -15.841,-1.634 -19.855,5.319 -4.012,6.951 -1.632,15.84 5.322,19.854 m -74.901,-43.243 c 6.954,4.014 15.84,1.632 19.855,-5.319 4.015,-6.954 1.632,-15.843 -5.32,-19.857 -6.951,-4.012 -15.84,-1.63 -19.854,5.322 -4.014,6.951 -1.632,15.84 5.319,19.854 M 8.483,504.229 c 6.951,4.013 15.839,1.629 19.853,-5.322 4.014,-6.951 1.633,-15.841 -5.318,-19.854 -6.951,-4.014 -15.843,-1.631 -19.856,5.319 -4.014,6.951 -1.632,15.843 5.321,19.857 m -74.9,-43.243 c 6.951,4.012 15.841,1.63 19.854,-5.322 4.014,-6.951 1.633,-15.841 -5.317,-19.854 -6.954,-4.016 -15.844,-1.632 -19.857,5.321 -4.013,6.95 -1.632,15.841 5.32,19.855 m -74.899,-43.244 c 6.952,4.014 15.84,1.631 19.854,-5.32 4.014,-6.952 1.633,-15.843 -5.319,-19.857 -6.951,-4.012 -15.842,-1.629 -19.855,5.322 -4.013,6.951 -1.633,15.841 5.32,19.855 m -74.9,-43.244 c 6.95,4.015 15.842,1.631 19.855,-5.319 4.013,-6.952 1.632,-15.844 -5.321,-19.856 -6.95,-4.014 -15.84,-1.632 -19.855,5.32 -4.014,6.952 -1.63,15.843 5.321,19.855 m -74.9,-43.243 c 6.953,4.014 15.841,1.631 19.855,-5.32 4.013,-6.951 1.632,-15.841 -5.318,-19.856 -6.954,-4.014 -15.844,-1.63 -19.858,5.321 -4.012,6.951 -1.631,15.841 5.321,19.855 m -74.898,-43.245 c 6.952,4.014 15.841,1.632 19.853,-5.319 4.015,-6.951 1.635,-15.841 -5.319,-19.855 -6.952,-4.014 -15.84,-1.631 -19.855,5.32 -4.014,6.952 -1.632,15.841 5.321,19.854 M 37.03,599.6 c -0.838,0.856 -1.583,1.831 -2.21,2.916 -3.34,5.783 -2.253,12.907 2.21,17.45 z m -71.791,-20.472 c 6.951,4.013 15.841,1.63 19.854,-5.322 4.013,-6.951 1.634,-15.841 -5.319,-19.854 -6.951,-4.015 -15.841,-1.632 -19.855,5.32 -4.013,6.951 -1.631,15.843 5.32,19.856 m -74.898,-43.244 c 6.951,4.014 15.84,1.631 19.853,-5.321 4.013,-6.95 1.633,-15.841 -5.318,-19.855 -6.952,-4.014 -15.843,-1.63 -19.855,5.321 -4.014,6.95 -1.633,15.841 5.32,19.855 M -184.56,492.64 c 6.953,4.015 15.842,1.631 19.855,-5.32 4.014,-6.951 1.634,-15.841 -5.32,-19.855 -6.951,-4.014 -15.84,-1.631 -19.854,5.32 -4.013,6.953 -1.632,15.843 5.319,19.855 m -74.9,-43.242 c 6.953,4.013 15.843,1.631 19.856,-5.32 4.013,-6.952 1.631,-15.843 -5.319,-19.857 -6.953,-4.012 -15.844,-1.63 -19.857,5.321 -4.013,6.951 -1.63,15.842 5.32,19.856 m -74.897,-43.243 c 6.95,4.014 15.84,1.631 19.852,-5.322 4.015,-6.951 1.635,-15.841 -5.318,-19.854 -6.952,-4.015 -15.843,-1.631 -19.856,5.32 -4.013,6.952 -1.633,15.842 5.322,19.856 m -74.902,-43.244 c 6.953,4.014 15.842,1.631 19.857,-5.32 4.011,-6.952 1.631,-15.841 -5.321,-19.857 -6.952,-4.012 -15.841,-1.629 -19.855,5.322 -4.013,6.951 -1.632,15.841 5.319,19.855 m 432.432,-749 c 4.42,2.553 9.622,2.521 13.857,0.372 v -25.913 c -6.84,-3.487 -15.291,-1.041 -19.175,5.688 -4.015,6.952 -1.632,15.84 5.318,19.853 m -43.242,74.9 c 6.953,4.014 15.841,1.631 19.855,-5.319 4.014,-6.953 1.632,-15.842 -5.32,-19.855 -6.952,-4.015 -15.84,-1.632 -19.856,5.32 -4.012,6.952 -1.63,15.84 5.321,19.854 m 31.656,118.145 c 6.953,4.012 15.842,1.628 19.855,-5.323 4.013,-6.95 1.632,-15.841 -5.318,-19.854 -6.954,-4.015 -15.843,-1.631 -19.857,5.32 -4.012,6.952 -1.632,15.842 5.32,19.857 m -74.9,-43.244 c 6.953,4.014 15.841,1.63 19.856,-5.32 4.014,-6.953 1.632,-15.843 -5.32,-19.857 -6.952,-4.013 -15.842,-1.629 -19.854,5.322 -4.015,6.951 -1.634,15.841 5.318,19.855 M 37.03,-92.928 c -1.443,3.567 -1.371,7.463 0,10.872 z m -68.685,-25.218 c 6.951,4.014 15.84,1.63 19.854,-5.321 4.012,-6.952 1.632,-15.84 -5.32,-19.854 -6.952,-4.013 -15.842,-1.632 -19.854,5.32 -4.014,6.95 -1.633,15.841 5.32,19.855 m -74.901,-43.244 c 6.952,4.015 15.843,1.631 19.855,-5.32 4.014,-6.951 1.633,-15.84 -5.32,-19.854 -6.953,-4.014 -15.839,-1.632 -19.854,5.319 -4.013,6.953 -1.632,15.843 5.319,19.855 m -118.142,31.661 c 6.951,4.012 15.84,1.632 19.852,-5.321 4.014,-6.952 1.634,-15.841 -5.318,-19.853 -6.951,-4.014 -15.842,-1.634 -19.856,5.32 -4.012,6.951 -1.63,15.84 5.322,19.854 m -74.9,-43.244 c 6.952,4.015 15.84,1.632 19.854,-5.319 4.015,-6.954 1.633,-15.842 -5.318,-19.854 -6.953,-4.015 -15.841,-1.633 -19.856,5.32 -4.014,6.951 -1.632,15.84 5.32,19.853 m -74.899,-43.243 c 6.952,4.014 15.841,1.632 19.853,-5.319 4.014,-6.952 1.634,-15.841 -5.32,-19.856 -6.951,-4.013 -15.84,-1.631 -19.853,5.321 -4.013,6.953 -1.633,15.84 5.32,19.854 m -74.9,-43.243 c 6.951,4.014 15.841,1.633 19.855,-5.319 4.015,-6.953 1.631,-15.842 -5.32,-19.856 -6.951,-4.012 -15.841,-1.632 -19.857,5.321 -4.012,6.951 -1.629,15.84 5.322,19.854 m -74.899,-43.243 c 6.951,4.013 15.84,1.631 19.853,-5.319 4.013,-6.954 1.633,-15.842 -5.319,-19.856 -6.952,-4.015 -15.842,-1.632 -19.855,5.32 -4.014,6.953 -1.632,15.841 5.321,19.855 m -74.9,-43.244 c 6.952,4.014 15.841,1.633 19.854,-5.318 4.015,-6.954 1.633,-15.842 -5.319,-19.857 -6.953,-4.013 -15.84,-1.632 -19.856,5.322 -4.012,6.951 -1.63,15.84 5.321,19.853 m -74.9,-43.242 c 6.952,4.012 15.841,1.631 19.853,-5.321 4.014,-6.952 1.633,-15.842 -5.319,-19.853 -6.95,-4.015 -15.84,-1.634 -19.855,5.319 -4.014,6.951 -1.631,15.84 5.321,19.855 m 406.155,334.357 c 6.951,4.014 15.839,1.632 19.853,-5.319 4.013,-6.951 1.632,-15.841 -5.318,-19.855 -6.951,-4.012 -15.843,-1.631 -19.858,5.32 -4.011,6.951 -1.629,15.842 5.323,19.854 m -74.9,-43.24 c 6.95,4.012 15.841,1.629 19.854,-5.323 4.013,-6.95 1.633,-15.84 -5.32,-19.854 -6.952,-4.014 -15.841,-1.631 -19.854,5.32 -4.015,6.952 -1.633,15.843 5.32,19.857 m -74.901,-43.243 c 6.953,4.013 15.843,1.629 19.856,-5.321 4.013,-6.953 1.632,-15.843 -5.32,-19.857 -6.952,-4.013 -15.841,-1.629 -19.856,5.322 -4.011,6.951 -1.631,15.841 5.32,19.856 m -74.899,-43.245 c 6.951,4.013 15.843,1.631 19.856,-5.32 4.014,-6.951 1.631,-15.842 -5.32,-19.855 -6.952,-4.014 -15.843,-1.632 -19.856,5.32 -4.014,6.951 -1.631,15.841 5.32,19.855 m -74.9,-43.243 c 6.953,4.014 15.842,1.631 19.855,-5.32 4.013,-6.953 1.632,-15.843 -5.318,-19.856 -6.954,-4.014 -15.843,-1.63 -19.856,5.321 -4.013,6.951 -1.633,15.841 5.319,19.855 m -74.899,-43.243 c 6.952,4.013 15.842,1.63 19.855,-5.321 4.014,-6.95 1.632,-15.841 -5.32,-19.855 -6.951,-4.014 -15.841,-1.631 -19.854,5.321 -4.013,6.952 -1.634,15.842 5.319,19.855 m -74.9,-43.244 c 6.951,4.014 15.841,1.631 19.854,-5.32 4.013,-6.951 1.633,-15.841 -5.318,-19.856 -6.952,-4.012 -15.842,-1.631 -19.856,5.32 -4.013,6.952 -1.631,15.843 5.32,19.856 M -311.185,20.07 c 6.951,4.013 15.841,1.631 19.854,-5.321 4.014,-6.952 1.634,-15.842 -5.319,-19.854 -6.951,-4.014 -15.842,-1.632 -19.855,5.32 -4.015,6.951 -1.631,15.842 5.32,19.855 m -74.9,-43.243 c 6.953,4.014 15.842,1.63 19.856,-5.321 4.012,-6.952 1.63,-15.839 -5.321,-19.854 -6.952,-4.013 -15.841,-1.631 -19.855,5.32 -4.013,6.95 -1.632,15.841 5.32,19.855 m -74.899,-43.244 c 6.952,4.015 15.842,1.631 19.855,-5.32 4.014,-6.951 1.632,-15.84 -5.322,-19.854 -6.951,-4.014 -15.84,-1.632 -19.852,5.319 -4.014,6.953 -1.634,15.843 5.319,19.855 m -74.901,-43.243 c 6.951,4.014 15.844,1.632 19.858,-5.32 4.012,-6.951 1.629,-15.84 -5.323,-19.854 -6.95,-4.013 -15.84,-1.632 -19.854,5.318 -4.013,6.952 -1.631,15.843 5.319,19.856 m -74.897,-43.242 c 6.95,4.012 15.84,1.629 19.853,-5.322 4.013,-6.951 1.632,-15.84 -5.32,-19.852 -6.952,-4.016 -15.841,-1.634 -19.854,5.317 -4.014,6.952 -1.633,15.842 5.321,19.857 m -74.902,-43.244 c 6.953,4.014 15.843,1.631 19.856,-5.32 4.014,-6.952 1.632,-15.84 -5.321,-19.855 -6.951,-4.013 -15.839,-1.631 -19.853,5.32 -4.014,6.951 -1.633,15.841 5.318,19.855 m -74.898,-43.243 c 6.951,4.014 15.84,1.63 19.853,-5.322 4.013,-6.951 1.632,-15.84 -5.32,-19.852 -6.951,-4.014 -15.841,-1.634 -19.853,5.319 -4.014,6.951 -1.632,15.841 5.32,19.855 m 406.153,334.358 c 6.953,4.013 15.84,1.632 19.855,-5.321 4.013,-6.951 1.632,-15.839 -5.32,-19.853 -6.951,-4.013 -15.84,-1.632 -19.855,5.318 -4.014,6.952 -1.63,15.843 5.32,19.856 m -74.897,-43.242 c 6.95,4.012 15.839,1.631 19.853,-5.323 4.014,-6.95 1.632,-15.839 -5.32,-19.852 -6.953,-4.015 -15.841,-1.633 -19.854,5.318 -4.014,6.954 -1.633,15.843 5.321,19.857 M -504.228,8.483 c 6.954,4.014 15.841,1.632 19.855,-5.32 4.015,-6.953 1.633,-15.84 -5.32,-19.855 -6.951,-4.013 -15.839,-1.631 -19.854,5.32 -4.014,6.952 -1.632,15.841 5.319,19.855 m -74.898,-43.243 c 6.95,4.014 15.841,1.632 19.855,-5.321 4.012,-6.951 1.63,-15.841 -5.322,-19.854 -6.951,-4.014 -15.841,-1.633 -19.853,5.319 -4.016,6.953 -1.632,15.841 5.32,19.856 m -74.9,-43.244 c 6.951,4.014 15.839,1.632 19.854,-5.32 4.014,-6.953 1.632,-15.84 -5.319,-19.854 -6.954,-4.014 -15.841,-1.632 -19.856,5.319 -4.013,6.952 -1.632,15.841 5.321,19.855 m -74.902,-43.244 c 6.954,4.014 15.844,1.634 19.858,-5.32 4.012,-6.951 1.632,-15.84 -5.323,-19.853 -6.95,-4.015 -15.838,-1.633 -19.852,5.318 -4.016,6.955 -1.633,15.843 5.317,19.855 m -74.897,-43.242 c 6.95,4.013 15.84,1.631 19.853,-5.322 4.014,-6.95 1.632,-15.839 -5.319,-19.853 -6.952,-4.013 -15.842,-1.632 -19.855,5.319 -4.014,6.953 -1.63,15.843 5.321,19.856 m 406.155,334.358 c 6.95,4.013 15.839,1.632 19.852,-5.32 4.014,-6.952 1.633,-15.841 -5.319,-19.854 -6.951,-4.013 -15.841,-1.633 -19.855,5.321 -4.015,6.95 -1.631,15.839 5.322,19.853 m -74.9,-43.243 c 6.951,4.014 15.84,1.632 19.854,-5.319 4.014,-6.954 1.632,-15.841 -5.319,-19.855 -6.954,-4.014 -15.842,-1.632 -19.858,5.32 -4.011,6.951 -1.629,15.84 5.323,19.854 m -74.902,-43.244 c 6.954,4.015 15.843,1.634 19.856,-5.318 4.014,-6.953 1.634,-15.841 -5.321,-19.856 -6.951,-4.014 -15.839,-1.632 -19.853,5.32 -4.015,6.953 -1.632,15.842 5.318,19.854 M -622.37,40.138 c 6.951,4.014 15.842,1.633 19.855,-5.317 4.015,-6.954 1.631,-15.843 -5.32,-19.858 -6.952,-4.012 -15.843,-1.631 -19.856,5.321 -4.013,6.952 -1.629,15.841 5.321,19.854 m -74.9,-43.242 c 6.953,4.012 15.841,1.632 19.854,-5.32 4.015,-6.953 1.632,-15.842 -5.318,-19.854 -6.953,-4.016 -15.842,-1.634 -19.856,5.32 -4.014,6.951 -1.632,15.839 5.32,19.854 m -74.899,-43.244 c 6.952,4.014 15.841,1.632 19.856,-5.319 4.013,-6.954 1.631,-15.841 -5.322,-19.856 -6.952,-4.013 -15.841,-1.631 -19.855,5.322 -4.012,6.951 -1.63,15.839 5.321,19.853 m -74.9,-43.243 c 6.953,4.013 15.84,1.632 19.854,-5.321 4.014,-6.952 1.632,-15.841 -5.319,-19.853 -6.951,-4.014 -15.841,-1.634 -19.856,5.32 -4.013,6.951 -1.63,15.84 5.321,19.854 m 406.155,334.357 c 6.951,4.015 15.84,1.633 19.853,-5.318 4.013,-6.952 1.633,-15.842 -5.318,-19.855 -6.952,-4.013 -15.843,-1.631 -19.857,5.319 -4.012,6.953 -1.628,15.842 5.322,19.854 m -74.899,-43.24 c 6.951,4.014 15.84,1.631 19.853,-5.322 4.015,-6.951 1.634,-15.841 -5.318,-19.854 -6.953,-4.015 -15.844,-1.632 -19.856,5.321 -4.014,6.95 -1.634,15.841 5.321,19.855 m -74.902,-43.243 c 6.954,4.014 15.843,1.63 19.857,-5.321 4.012,-6.952 1.632,-15.841 -5.321,-19.857 -6.952,-4.012 -15.841,-1.628 -19.855,5.322 -4.012,6.951 -1.632,15.841 5.319,19.856 m -74.898,-43.244 c 6.951,4.014 15.842,1.63 19.855,-5.32 4.014,-6.951 1.63,-15.843 -5.32,-19.856 -6.951,-4.014 -15.843,-1.632 -19.856,5.321 -4.013,6.951 -1.631,15.842 5.321,19.855 m -74.9,-43.242 c 6.951,4.012 15.841,1.629 19.854,-5.322 4.013,-6.951 1.634,-15.841 -5.318,-19.855 -6.954,-4.014 -15.842,-1.63 -19.856,5.32 -4.013,6.951 -1.632,15.841 5.32,19.857 m -74.9,-43.245 c 6.953,4.014 15.842,1.632 19.855,-5.32 4.013,-6.951 1.632,-15.842 -5.32,-19.856 -6.95,-4.014 -15.841,-1.63 -19.853,5.323 -4.015,6.95 -1.634,15.841 5.318,19.853 m -74.899,-43.242 c 6.951,4.012 15.84,1.629 19.853,-5.322 4.015,-6.95 1.634,-15.841 -5.318,-19.855 -6.952,-4.012 -15.842,-1.631 -19.856,5.321 -4.013,6.952 -1.631,15.842 5.321,19.856 m 406.155,334.358 c 6.951,4.014 15.839,1.63 19.853,-5.322 4.014,-6.951 1.632,-15.841 -5.318,-19.854 -6.951,-4.014 -15.844,-1.632 -19.856,5.32 -4.014,6.951 -1.631,15.843 5.321,19.856 m -74.9,-43.242 c 6.953,4.012 15.841,1.629 19.855,-5.322 4.013,-6.951 1.633,-15.841 -5.319,-19.855 -6.954,-4.014 -15.842,-1.631 -19.857,5.32 -4.012,6.951 -1.632,15.841 5.321,19.857 m -74.9,-43.245 c 6.952,4.014 15.841,1.632 19.855,-5.321 4.014,-6.95 1.632,-15.841 -5.32,-19.855 -6.951,-4.014 -15.842,-1.631 -19.853,5.322 -4.015,6.951 -1.634,15.841 5.318,19.854 m -74.899,-43.243 c 6.95,4.014 15.842,1.631 19.854,-5.319 4.015,-6.953 1.633,-15.843 -5.319,-19.858 -6.951,-4.012 -15.842,-1.63 -19.856,5.321 -4.012,6.953 -1.631,15.842 5.321,19.856 m -74.899,-43.243 c 6.951,4.014 15.84,1.631 19.854,-5.321 4.012,-6.952 1.631,-15.842 -5.319,-19.854 -6.952,-4.016 -15.842,-1.632 -19.855,5.32 -4.015,6.951 -1.634,15.841 5.32,19.855 m -74.901,-43.243 c 6.952,4.013 15.843,1.631 19.855,-5.321 4.014,-6.952 1.634,-15.841 -5.32,-19.857 -6.951,-4.012 -15.84,-1.628 -19.855,5.323 -4.011,6.95 -1.631,15.841 5.32,19.855 m -74.9,-43.244 c 6.952,4.014 15.841,1.631 19.855,-5.322 4.013,-6.95 1.633,-15.841 -5.319,-19.853 -6.951,-4.014 -15.842,-1.632 -19.857,5.32 -4.012,6.951 -1.63,15.843 5.321,19.855 M 3.104,-697.271 c 6.953,4.012 15.841,1.629 19.855,-5.322 4.013,-6.95 1.632,-15.841 -5.318,-19.855 -6.954,-4.014 -15.843,-1.63 -19.857,5.321 -4.013,6.952 -1.633,15.842 5.32,19.856 m -74.9,-43.245 c 6.952,4.016 15.843,1.632 19.856,-5.32 4.013,-6.951 1.631,-15.842 -5.321,-19.855 -6.951,-4.014 -15.841,-1.63 -19.853,5.321 -4.014,6.952 -1.634,15.842 5.318,19.854 m -74.899,-43.242 c 6.951,4.013 15.842,1.631 19.856,-5.32 4.013,-6.951 1.631,-15.843 -5.32,-19.857 -6.952,-4.012 -15.843,-1.63 -19.857,5.321 -4.012,6.952 -1.63,15.843 5.321,19.856 m -74.899,-43.243 c 6.951,4.014 15.84,1.63 19.854,-5.321 4.012,-6.952 1.632,-15.842 -5.319,-19.855 -6.953,-4.013 -15.842,-1.631 -19.855,5.321 -4.014,6.95 -1.633,15.84 5.32,19.855 m -74.9,-43.244 c 6.951,4.015 15.842,1.631 19.854,-5.32 4.014,-6.952 1.634,-15.841 -5.32,-19.855 -6.951,-4.015 -15.84,-1.631 -19.853,5.319 -4.013,6.952 -1.633,15.842 5.319,19.856 m -74.9,-43.243 c 6.952,4.013 15.84,1.63 19.855,-5.321 4.012,-6.953 1.632,-15.842 -5.319,-19.855 -6.952,-4.015 -15.843,-1.631 -19.855,5.32 -4.015,6.951 -1.633,15.843 5.319,19.856 M 34.76,-579.129 c 0.738,0.426 1.497,0.777 2.27,1.062 v -27.3 c -3.09,1.13 -5.816,3.309 -7.59,6.382 -4.013,6.952 -1.63,15.841 5.32,19.856 m -74.898,-43.244 c 6.95,4.015 15.84,1.631 19.854,-5.319 4.013,-6.954 1.632,-15.844 -5.32,-19.856 -6.952,-4.014 -15.841,-1.631 -19.854,5.32 -4.015,6.952 -1.634,15.841 5.32,19.855 m -74.901,-43.243 c 6.952,4.013 15.843,1.631 19.855,-5.321 4.014,-6.95 1.633,-15.84 -5.321,-19.855 -6.95,-4.014 -15.839,-1.631 -19.852,5.321 -4.014,6.95 -1.633,15.841 5.318,19.855 m -74.898,-43.243 c 6.951,4.013 15.841,1.631 19.855,-5.321 4.013,-6.951 1.63,-15.842 -5.32,-19.855 -6.952,-4.014 -15.843,-1.631 -19.856,5.32 -4.013,6.951 -1.632,15.843 5.321,19.856 m -74.9,-43.243 c 6.95,4.013 15.841,1.629 19.854,-5.322 4.013,-6.951 1.633,-15.841 -5.32,-19.854 -6.952,-4.015 -15.841,-1.631 -19.854,5.319 -4.013,6.953 -1.633,15.844 5.32,19.857 m -74.901,-43.245 c 6.954,4.016 15.842,1.632 19.856,-5.32 4.013,-6.951 1.632,-15.841 -5.32,-19.855 -6.951,-4.013 -15.841,-1.631 -19.854,5.322 -4.014,6.95 -1.633,15.841 5.318,19.853 m -74.899,-43.242 c 6.951,4.013 15.842,1.629 19.854,-5.322 4.014,-6.95 1.634,-15.841 -5.319,-19.855 -6.951,-4.012 -15.842,-1.63 -19.855,5.321 -4.014,6.952 -1.631,15.842 5.32,19.856 M -8.481,-504.23 c 6.95,4.013 15.839,1.629 19.853,-5.321 4.013,-6.953 1.632,-15.84 -5.32,-19.854 -6.951,-4.012 -15.841,-1.632 -19.854,5.319 -4.014,6.951 -1.633,15.843 5.321,19.856 m -74.901,-43.243 c 6.951,4.013 15.842,1.629 19.855,-5.322 4.013,-6.95 1.631,-15.84 -5.32,-19.853 -6.954,-4.014 -15.841,-1.632 -19.855,5.319 -4.013,6.952 -1.632,15.842 5.32,19.856 m -74.901,-43.245 c 6.954,4.016 15.844,1.632 19.857,-5.32 4.013,-6.951 1.632,-15.84 -5.322,-19.854 -6.951,-4.012 -15.839,-1.631 -19.853,5.321 -4.013,6.951 -1.632,15.841 5.318,19.853 m -74.898,-43.242 c 6.951,4.013 15.842,1.631 19.856,-5.32 4.013,-6.951 1.63,-15.841 -5.321,-19.854 -6.953,-4.013 -15.842,-1.634 -19.855,5.318 -4.015,6.952 -1.631,15.842 5.32,19.856 m -74.9,-43.243 c 6.953,4.014 15.842,1.631 19.855,-5.321 4.013,-6.953 1.631,-15.841 -5.32,-19.853 -6.952,-4.015 -15.841,-1.633 -19.854,5.318 -4.014,6.951 -1.633,15.841 5.319,19.856 m -74.899,-43.244 c 6.952,4.014 15.842,1.631 19.855,-5.321 4.014,-6.951 1.632,-15.838 -5.32,-19.853 -6.953,-4.015 -15.841,-1.632 -19.855,5.318 -4.013,6.951 -1.632,15.842 5.32,19.856 m -74.9,-43.243 c 6.952,4.013 15.841,1.629 19.856,-5.321 4.011,-6.953 1.629,-15.84 -5.322,-19.854 -6.95,-4.012 -15.841,-1.632 -19.854,5.319 -4.013,6.951 -1.631,15.843 5.32,19.856 m 406.154,334.359 c 6.952,4.013 15.84,1.632 19.855,-5.322 4.014,-6.951 1.632,-15.84 -5.319,-19.852 -6.953,-4.015 -15.841,-1.634 -19.856,5.318 -4.014,6.954 -1.63,15.841 5.32,19.856 m -74.899,-43.244 c 6.952,4.014 15.841,1.633 19.855,-5.32 4.013,-6.953 1.63,-15.841 -5.32,-19.854 -6.953,-4.014 -15.842,-1.632 -19.855,5.319 -4.015,6.952 -1.632,15.841 5.32,19.855 m -74.899,-43.243 c 6.952,4.013 15.84,1.632 19.855,-5.321 4.014,-6.95 1.632,-15.84 -5.321,-19.853 -6.952,-4.014 -15.841,-1.632 -19.854,5.319 -4.013,6.953 -1.632,15.841 5.32,19.855 m -74.901,-43.244 c 6.953,4.014 15.843,1.633 19.857,-5.32 4.013,-6.951 1.63,-15.84 -5.322,-19.853 -6.951,-4.013 -15.84,-1.633 -19.855,5.318 -4.014,6.952 -1.63,15.843 5.32,19.855 m -74.897,-43.242 c 6.95,4.013 15.84,1.63 19.853,-5.321 4.014,-6.952 1.632,-15.84 -5.319,-19.854 -6.954,-4.014 -15.842,-1.632 -19.856,5.318 -4.013,6.954 -1.632,15.844 5.322,19.857 m -74.902,-43.245 c 6.954,4.016 15.841,1.634 19.857,-5.32 4.013,-6.951 1.631,-15.84 -5.322,-19.854 -6.951,-4.012 -15.84,-1.632 -19.854,5.321 -4.014,6.952 -1.632,15.84 5.319,19.853 m -74.898,-43.242 c 6.951,4.013 15.84,1.632 19.853,-5.322 4.013,-6.95 1.632,-15.839 -5.32,-19.852 -6.951,-4.014 -15.841,-1.634 -19.853,5.318 -4.015,6.954 -1.632,15.842 5.32,19.856 m 406.153,334.358 c 6.952,4.014 15.84,1.632 19.854,-5.319 4.014,-6.954 1.632,-15.841 -5.319,-19.855 -6.951,-4.012 -15.841,-1.632 -19.855,5.321 -4.015,6.95 -1.631,15.841 5.32,19.853 m -74.898,-43.242 c 6.951,4.013 15.84,1.631 19.852,-5.32 4.016,-6.952 1.634,-15.842 -5.317,-19.856 -6.954,-4.013 -15.843,-1.631 -19.857,5.321 -4.012,6.953 -1.632,15.841 5.322,19.855 m -74.902,-43.245 c 6.955,4.016 15.841,1.634 19.856,-5.317 4.015,-6.954 1.632,-15.843 -5.32,-19.857 -6.952,-4.012 -15.84,-1.632 -19.854,5.322 -4.015,6.951 -1.632,15.839 5.318,19.852 m -74.897,-43.242 c 6.95,4.013 15.841,1.633 19.854,-5.319 4.015,-6.953 1.631,-15.842 -5.321,-19.855 -6.951,-4.014 -15.842,-1.634 -19.855,5.32 -4.013,6.951 -1.631,15.84 5.322,19.854 m -74.9,-43.243 c 6.953,4.013 15.839,1.632 19.854,-5.32 4.014,-6.953 1.632,-15.842 -5.319,-19.854 -6.952,-4.015 -15.842,-1.633 -19.856,5.319 -4.013,6.951 -1.632,15.84 5.321,19.855 m -74.9,-43.244 c 6.952,4.014 15.841,1.631 19.854,-5.319 4.015,-6.953 1.633,-15.841 -5.321,-19.855 -6.951,-4.014 -15.839,-1.632 -19.853,5.32 -4.013,6.952 -1.632,15.84 5.32,19.854 m -74.899,-43.244 c 6.95,4.014 15.84,1.632 19.853,-5.319 4.014,-6.954 1.632,-15.841 -5.319,-19.854 -6.95,-4.013 -15.841,-1.633 -19.856,5.32 -4.013,6.95 -1.629,15.841 5.322,19.853 m 406.153,334.361 c 6.95,4.013 15.841,1.631 19.854,-5.322 4.013,-6.951 1.633,-15.841 -5.32,-19.853 -6.95,-4.015 -15.841,-1.632 -19.855,5.32 -4.012,6.951 -1.63,15.841 5.321,19.855 m -74.898,-43.243 c 6.951,4.013 15.839,1.63 19.853,-5.321 4.013,-6.952 1.632,-15.842 -5.318,-19.855 -6.953,-4.014 -15.843,-1.63 -19.856,5.321 -4.014,6.95 -1.633,15.841 5.321,19.855 m -74.902,-43.244 c 6.952,4.014 15.843,1.631 19.855,-5.32 4.014,-6.951 1.635,-15.842 -5.32,-19.855 -6.951,-4.014 -15.839,-1.631 -19.854,5.32 -4.012,6.953 -1.632,15.843 5.319,19.855 m -74.899,-43.244 c 6.952,4.015 15.842,1.632 19.856,-5.319 4.013,-6.952 1.631,-15.842 -5.32,-19.855 -6.951,-4.013 -15.843,-1.631 -19.857,5.319 -4.012,6.952 -1.63,15.844 5.321,19.855 m -74.899,-43.241 c 6.952,4.012 15.841,1.629 19.854,-5.322 4.015,-6.951 1.634,-15.841 -5.318,-19.856 -6.954,-4.013 -15.844,-1.63 -19.856,5.321 -4.015,6.952 -1.632,15.842 5.32,19.857 m -74.901,-43.244 c 6.954,4.015 15.843,1.631 19.857,-5.32 4.012,-6.953 1.632,-15.843 -5.321,-19.857 -6.952,-4.012 -15.841,-1.629 -19.855,5.321 -4.012,6.952 -1.632,15.842 5.319,19.856 m -74.898,-43.243 c 6.951,4.012 15.84,1.63 19.854,-5.322 4.014,-6.952 1.632,-15.841 -5.319,-19.854 -6.951,-4.015 -15.843,-1.632 -19.856,5.32 -4.013,6.951 -1.63,15.842 5.321,19.856 m 406.155,334.358 c 6.951,4.014 15.84,1.63 19.853,-5.321 4.013,-6.952 1.632,-15.839 -5.32,-19.854 -6.95,-4.012 -15.841,-1.631 -19.853,5.319 -4.015,6.951 -1.633,15.843 5.32,19.856 m -74.9,-43.242 c 6.951,4.012 15.841,1.628 19.854,-5.322 4.014,-6.951 1.632,-15.84 -5.319,-19.852 -6.954,-4.016 -15.841,-1.634 -19.856,5.317 -4.013,6.952 -1.632,15.842 5.321,19.857 m -74.901,-43.244 c 6.953,4.014 15.842,1.631 19.857,-5.32 4.012,-6.953 1.631,-15.841 -5.323,-19.856 -6.95,-4.012 -15.84,-1.631 -19.853,5.321 -4.013,6.951 -1.632,15.841 5.319,19.855 m -74.898,-43.243 c 6.951,4.011 15.842,1.631 19.854,-5.321 4.015,-6.951 1.631,-15.841 -5.319,-19.853 -6.953,-4.015 -15.844,-1.634 -19.856,5.318 -4.014,6.951 -1.63,15.841 5.321,19.856 m -74.9,-43.244 c 6.952,4.014 15.841,1.63 19.855,-5.321 4.012,-6.952 1.631,-15.839 -5.321,-19.853 -6.952,-4.014 -15.84,-1.632 -19.855,5.318 -4.012,6.951 -1.632,15.842 5.321,19.856 m -74.9,-43.244 c 6.953,4.014 15.843,1.63 19.855,-5.32 4.014,-6.951 1.632,-15.84 -5.322,-19.853 -6.95,-4.015 -15.84,-1.633 -19.851,5.318 -4.015,6.952 -1.634,15.843 5.318,19.855 m -74.9,-43.243 c 6.953,4.014 15.841,1.63 19.854,-5.321 4.015,-6.95 1.632,-15.839 -5.318,-19.854 -6.952,-4.012 -15.842,-1.631 -19.856,5.32 -4.013,6.95 -1.631,15.843 5.32,19.855"
           style="fill:#ffffff;fill-opacity:1;fill-rule:evenodd;stroke:none"
           id="path57" /></g><g
         id="g71"
         transform="rotate(-30,5314.789,-9760.6748)"><path
           d="m 0,0 c -98.703,0 -178.717,-80.014 -178.717,-178.717 0,-98.703 80.014,-178.718 178.717,-178.718 98.703,0 178.718,80.015 178.718,178.718 C 178.718,-80.014 98.703,0 0,0 m 0,-39.033 c 77.146,0 139.685,-62.54 139.685,-139.684 0,-77.145 -62.539,-139.685 -139.685,-139.685 -77.145,0 -139.685,62.54 -139.685,139.685 0,77.144 62.54,139.684 139.685,139.684"
           style="fill:#ffffff;fill-opacity:1;fill-rule:evenodd;stroke:none"
           id="path73" /></g><g
         id="g79"
         transform="rotate(-30,6166.6689,-8413.9137)"><path
           d="m 0,0 c 34.545,0 62.552,-28.006 62.552,-62.551 0,-34.547 -28.007,-62.554 -62.552,-62.554 -34.547,0 -62.554,28.007 -62.554,62.554 C -62.554,-28.006 -34.547,0 0,0"
           style="fill:#ffffff;fill-opacity:1;fill-rule:evenodd;stroke:none"
           id="path81" /></g><g
         id="g87"
         transform="rotate(-30,3955.6944,-6740.5201)"><path
           d="m 0,0 c 24.396,0 44.172,-19.777 44.172,-44.172 0,-24.396 -19.776,-44.173 -44.172,-44.173 -24.396,0 -44.173,19.777 -44.173,44.173 C -44.173,-19.777 -24.396,0 0,0"
           style="fill:#ffffff;fill-opacity:1;fill-rule:evenodd;stroke:none"
           id="path89" /></g><g
         id="g91"
         transform="rotate(-30,3876.5877,-9647.2961)"><path
           d="m 0,0 c 42.273,0 76.545,-34.271 76.545,-76.546 0,-42.273 -34.272,-76.545 -76.545,-76.545 -42.274,0 -76.546,34.272 -76.546,76.545 C -76.546,-34.271 -42.274,0 0,0"
           style="fill:#ffffff;fill-opacity:1;fill-rule:evenodd;stroke:none"
           id="path93" /></g><g
         id="g127"
         transform="rotate(-30,5945.3912,-9658.609)"><path
           d="m 0,0 c 24.395,0 44.171,-19.776 44.171,-44.171 0,-24.397 -19.776,-44.174 -44.171,-44.174 -24.396,0 -44.174,19.777 -44.174,44.174 C -44.174,-19.776 -24.396,0 0,0"
           style="fill:#ffffff;fill-opacity:1;fill-rule:evenodd;stroke:none"
           id="path129" /></g><g
         id="g131"
         transform="rotate(-30,3198.6038,-7335.4493)"><path
           d="m 0,0 c -74.647,0 -135.16,-60.513 -135.16,-135.159 0,-74.648 60.513,-135.159 135.16,-135.159 74.646,0 135.158,60.511 135.158,135.159 C 135.158,-60.513 74.646,0 0,0 m 0,-29.521 c 58.342,0 105.639,-47.295 105.639,-105.638 0,-58.344 -47.297,-105.64 -105.639,-105.64 -58.344,0 -105.64,47.296 -105.64,105.64 0,58.343 47.296,105.638 105.64,105.638"
           style="fill:#ffffff;fill-opacity:1;fill-rule:evenodd;stroke:none"
           id="path133" /></g></g></g></svg>
