<svg id="Capa_1" enable-background="new 0 0 512 512" height="512" viewBox="0 0 512 512" width="512" xmlns="http://www.w3.org/2000/svg"><g><path d="m386.713 36.033h-23.277c1.305 6.577 2.025 14.504 2.025 23.988 0 101.175-81.938 25.053-81.938 25.053-5.878 5.173-13.585 8.316-22.03 8.316h-5.493v303.711h130.713c46.674 0 84.522-37.848 84.522-84.532v-192.014c0-46.684-37.848-84.522-84.522-84.522z" fill="#7181ff"/><g><path d="m337.678 397.101v83.908c0 12.974-10.517 23.491-23.491 23.491h-39.212c-12.974 0-23.491-10.517-23.491-23.491s10.517-23.491 23.491-23.491h15.721v-60.417z" fill="#ff63ed"/></g><g><path d="m228.348 397.101v83.908c0 12.974-10.517 23.491-23.491 23.491h-39.212c-12.974 0-23.491-10.517-23.491-23.491s10.517-23.491 23.491-23.491h15.721v-60.417z" fill="#ff63ed"/></g><path d="m181.366 397.101h46.982v31.391h-46.982z" fill="#e207b9"/><path d="m290.696 397.101h46.982v31.391h-46.982z" fill="#e207b9"/><g><g><path d="m314.187 512h-39.211c-17.089 0-30.992-13.903-30.992-30.991 0-17.089 13.902-30.991 30.992-30.991h8.221v-51.917c0-4.142 3.357-7.5 7.5-7.5h46.982c4.143 0 7.5 3.358 7.5 7.5v82.908c-.001 17.088-13.903 30.991-30.992 30.991zm-39.212-46.982c-8.817 0-15.991 7.174-15.991 15.991s7.174 15.991 15.991 15.991h39.211c8.817 0 15.991-7.174 15.991-15.991v-75.408h-31.982v51.917c0 4.142-3.357 7.5-7.5 7.5z" fill="#e207b9"/></g></g><g><g><path d="m204.857 512h-39.212c-17.089 0-30.992-13.903-30.992-30.991 0-17.089 13.902-30.991 30.992-30.991h8.221v-51.917c0-4.142 3.357-7.5 7.5-7.5h46.982c4.143 0 7.5 3.358 7.5 7.5v82.908c0 17.088-13.903 30.991-30.991 30.991zm-39.212-46.982c-8.817 0-15.991 7.174-15.991 15.991s7.174 15.991 15.991 15.991h39.212c8.817 0 15.99-7.174 15.99-15.991v-75.408h-31.982v51.917c0 4.142-3.357 7.5-7.5 7.5z" fill="#e207b9"/></g></g><path d="m414.197 235.617v24.729c0 27.936-22.648 40.532-50.574 40.532h-.01c-27.926 0-50.574-12.596-50.574-40.532v-24.729z" fill="#7181ff"/><path d="m414.197 209.802v25.815h-101.159v-25.815c0-10.173 8.243-18.426 18.426-18.426h64.306c10.184-.001 18.427 8.252 18.427 18.426z" fill="#ff63ed"/><path d="m250.505 93.39c-8.445 0-16.152-3.144-22.03-8.316 0 0-81.938 76.122-81.938-25.053 0-9.485.72-17.411 2.025-23.988h-23.277c-46.674 0-84.522 37.838-84.522 84.522v192.014c0 46.684 37.848 84.532 84.522 84.532h130.715v-303.711z" fill="#7181ff"/><g fill="#ff63ed"><path d="m217.136 60.021c0-9.984 4.39-18.938 11.339-25.053s-81.938-76.122-81.938 25.053 81.938 25.053 81.938 25.053c-6.948-6.115-11.339-15.069-11.339-25.053z"/><path d="m283.524 34.969c6.949 6.115 11.339 15.069 11.339 25.053 0 9.984-4.39 18.938-11.339 25.053s81.938 76.122 81.938-25.053-81.938-25.053-81.938-25.053z"/><path d="m261.495 26.652h-10.989c-18.429 0-33.369 14.94-33.369 33.369 0 18.429 14.94 33.369 33.369 33.369h10.989c18.429 0 33.369-14.94 33.369-33.369 0-18.429-14.94-33.369-33.369-33.369z"/></g><g><path d="m363.623 308.378c-35.831 0-58.085-18.405-58.085-48.032v-24.729c0-4.142 3.357-7.5 7.5-7.5s7.5 3.358 7.5 7.5v24.729c0 9.932 4.197 33.032 43.075 33.032 38.887 0 43.084-23.1 43.084-33.032v-24.729c0-4.142 3.357-7.5 7.5-7.5s7.5 3.358 7.5 7.5v24.729c0 29.627-22.253 48.032-58.074 48.032z" fill="#2115c2"/></g><g><path d="m414.197 243.117h-101.159c-4.143 0-7.5-3.358-7.5-7.5v-25.815c0-14.296 11.63-25.926 25.926-25.926h64.306c14.296 0 25.927 11.631 25.927 25.926v25.815c0 4.142-3.357 7.5-7.5 7.5zm-93.659-15h86.159v-18.315c0-6.025-4.901-10.926-10.927-10.926h-64.306c-6.024 0-10.926 4.902-10.926 10.926z" fill="#e207b9"/></g><path d="m386.714 28.533h-22.277c-4.143 0-7.5 3.358-7.5 7.5 0 4.143 3.357 7.5 7.5 7.5h22.277c42.469 0 77.021 34.552 77.021 77.022v192.014c0 42.476-34.552 77.032-77.021 77.032h-123.214v-295.211c0-4.142-3.357-7.5-7.5-7.5s-7.5 3.358-7.5 7.5v295.21h-123.214c-42.469 0-77.021-34.556-77.021-77.032v-192.013c0-42.47 34.552-77.022 77.021-77.022h22.277c4.143 0 7.5-3.357 7.5-7.5 0-4.142-3.357-7.5-7.5-7.5h-22.277c-50.741 0-92.021 41.281-92.021 92.022v192.014c0 50.747 41.281 92.032 92.021 92.032h130.714 130.714c50.741 0 92.021-41.286 92.021-92.032v-192.014c0-50.741-41.281-92.022-92.021-92.022z" fill="#2115c2"/><path d="m349.567 2.552c-23.35-10.178-54.4 12.705-66.456 22.808-6.275-3.928-13.683-6.208-21.616-6.208h-10.989c-7.934 0-15.341 2.28-21.616 6.208-12.057-10.103-43.111-32.986-66.456-22.808-15.525 6.768-23.396 26.103-23.396 57.47s7.871 50.702 23.396 57.469c20.925 9.123 48.907-8.104 66.456-22.808 6.275 3.928 13.683 6.208 21.616 6.208h10.989c7.934 0 15.341-2.28 21.616-6.208 17.556 14.71 45.53 31.931 66.456 22.808 15.525-6.767 23.396-26.103 23.396-57.469s-7.872-50.703-23.396-57.47zm-181.147 101.185c-9.409-4.109-14.382-19.225-14.382-43.716s4.973-39.607 14.382-43.716c13.776-6.017 37.564 9.899 49.303 19.326-5.094 6.842-8.086 15.403-8.086 24.389 0 8.729 2.844 17.345 8.086 24.389-12.452 10-35.77 25.236-49.303 19.328zm82.085-17.847c-14.31 0-25.868-11.67-25.868-25.868v-.001c0-14.13 11.49-25.869 25.868-25.869h10.989c14.302 0 25.868 11.652 25.868 25.869 0 14.201-11.558 25.869-25.868 25.869zm93.075 17.847c-13.526 5.91-36.854-9.33-49.303-19.326 5.12-6.884 8.086-15.463 8.086-24.389 0-9.057-3.033-17.599-8.086-24.389 12.452-9.999 35.779-25.235 49.303-19.326 9.409 4.108 14.382 19.225 14.382 43.716s-4.972 39.605-14.382 43.714z" fill="#e207b9"/><g><g><circle cx="194.972" cy="229.921" fill="#2115c2" r="9.885"/></g><g><path d="m169.314 264.063h-41.864c-4.143 0-7.5-3.358-7.5-7.5s3.357-7.5 7.5-7.5h41.864c4.143 0 7.5 3.358 7.5 7.5 0 4.143-3.357 7.5-7.5 7.5z" fill="#2115c2"/></g><g><circle cx="101.793" cy="229.921" fill="#2115c2" r="9.885"/></g></g></g></svg>