<svg id="Capa_1" enable-background="new 0 0 512 512" height="512" viewBox="0 0 512 512" width="512" xmlns="http://www.w3.org/2000/svg"><g><circle cx="147.211" cy="454.768" fill="#a4bcff" r="49.732"/><circle cx="147.211" cy="454.768" fill="#a4bcff" r="17.772"/><g><path d="m147.211 480.04c-13.936 0-25.272-11.337-25.272-25.272s11.337-25.272 25.272-25.272 25.272 11.337 25.272 25.272-11.337 25.272-25.272 25.272zm0-35.545c-5.664 0-10.272 4.608-10.272 10.272s4.608 10.272 10.272 10.272 10.272-4.608 10.272-10.272-4.608-10.272-10.272-10.272z" fill="#2115c2"/></g><g fill="#7181ff"><path d="m154.503 338.945-17.583 67.163c3.321-.699 6.762-1.072 10.29-1.072 12.484 0 23.885 4.611 32.617 12.208l16.058-61.339c-14.837-3.84-28.747-9.554-41.382-16.96z"/><path d="m396.761 488.926-39.264-149.982c-12.635 7.406-26.545 13.12-41.383 16.96l36.472 139.316c1.431 5.467 6.371 9.28 12.022 9.28h20.132c8.141 0 14.083-7.698 12.021-15.574z"/><path d="m196.943 454.768c0 7.966-1.883 15.489-5.213 22.164h156.068l-11.605-44.329h-144.463c3.33 6.675 5.213 14.198 5.213 22.165z"/></g><path d="m146.651 368.937c13.043 6.895 26.98 12.27 41.621 16.052l7.614-29.085c-14.839-3.84-28.749-9.554-41.383-16.96z" fill="#2115c2"/><path d="m357.497 338.944c-12.635 7.406-26.545 13.12-41.383 16.96l7.614 29.085c14.641-3.782 28.578-9.157 41.621-16.052z" fill="#2115c2"/><path d="m404.017 487.027-38.766-148.079c-1.05-4.007-5.147-6.404-9.155-5.356-4.007 1.049-6.405 5.148-5.356 9.155l38.767 148.079c.817 3.121-1.528 6.174-4.767 6.174h-20.132c-2.239 0-4.199-1.512-4.766-3.679l-35.969-137.394c-1.05-4.007-5.146-6.404-9.155-5.356-4.007 1.049-6.405 5.148-5.356 9.155l17.115 65.376h-130.338c-2.255-3.707-4.929-7.128-7.94-10.221l14.295-54.604c1.049-4.007-1.35-8.106-5.356-9.155-4.009-1.049-8.105 1.349-9.155 5.356l-12.68 48.435c-8.539-4.822-18.324-7.378-28.092-7.378-.098 0-.196 0-.294 0l14.295-54.601c1.049-4.007-1.35-8.105-5.356-9.155-4.011-1.049-8.106 1.349-9.155 5.356l-15.922 60.814c-23.572 7.08-40.8 28.969-40.8 54.816 0 31.558 25.675 57.232 57.232 57.232 20.706 0 38.878-11.053 48.929-27.568h145.869l3.322 12.688c2.293 8.761 10.22 14.88 19.277 14.88h20.132c13.053.003 22.586-12.332 19.277-24.97zm-256.806 9.973c-23.287 0-42.232-18.945-42.232-42.232 0-23.327 18.996-42.232 42.232-42.232 23.265 0 42.232 18.939 42.232 42.232 0 23.235-18.912 42.232-42.232 42.232zm55.338-27.568c1.278-4.814 1.895-9.82 1.895-14.665 0-4.787-.606-9.812-1.896-14.665h127.855c1.793 6.85 5.828 22.26 7.678 29.329h-135.532z" fill="#2115c2"/><path d="m425.789 186.23c-12.896-74.331-77.704-130.858-155.722-130.858h-28.133c-78.018 0-142.827 56.527-155.722 130.858z" fill="#f90"/><path d="m86.211 240.639c12.896 74.331 77.704 121.007 155.722 121.007h28.133c78.018 0 142.827-46.676 155.722-121.007z" fill="#f90"/><path d="m216.602 57.402c8.249-1.329 16.708-2.03 25.332-2.03h28.133c8.624 0 17.083.701 25.332 2.03l7.906-21.14c5.206-13.922-5.087-28.762-19.951-28.762h-54.707c-14.864 0-25.158 14.839-19.951 28.762z" fill="#ffff6f"/><path d="m428.129 186.23h-344.258c-15.025 0-27.205 12.18-27.205 27.205 0 15.025 12.18 27.205 27.205 27.205h344.259c15.025 0 27.205-12.18 27.205-27.205-.001-15.025-12.181-27.205-27.206-27.205z" fill="#ffff6f"/><g><g><circle cx="303.112" cy="121.277" fill="#f95116" r="9.996"/></g><g><path d="m277.166 155.718h-42.332c-4.143 0-7.5-3.358-7.5-7.5s3.357-7.5 7.5-7.5h42.332c4.143 0 7.5 3.358 7.5 7.5s-3.357 7.5-7.5 7.5z" fill="#f95116"/></g><g><circle cx="208.888" cy="121.277" fill="#f95116" r="9.996"/></g></g><path d="m462.834 213.435c0-17.822-13.506-32.543-30.82-34.481-7.559-35.601-26.86-67.993-54.809-91.742-20.725-17.61-45.399-29.721-71.676-35.486l4.801-12.836c7.033-18.81-6.9-38.89-26.976-38.89h-54.707c-20.079 0-34.009 20.083-26.976 38.889l4.801 12.836c-26.277 5.765-50.952 17.876-71.677 35.486-27.949 23.749-47.25 56.141-54.809 91.742-17.314 1.938-30.82 16.659-30.82 34.481 0 17.823 13.507 32.544 30.822 34.482 7.516 35.281 26.481 65.291 55.124 87.071 29.391 22.347 66.329 34.159 106.822 34.159h28.133c40.493 0 77.432-11.812 106.822-34.159 28.643-21.78 47.608-51.79 55.124-87.071 17.314-1.937 30.821-16.658 30.821-34.481zm-241.319-164.306-5.794-15.495c-3.375-9.021 3.272-18.634 12.925-18.634h54.707c9.605 0 16.316 9.569 12.927 18.635l-5.795 15.495c-6.967-.851-14.067-1.258-20.419-1.258h-28.133c-6.298 0-13.368.396-20.418 1.257zm-77.007 49.513c27.539-23.4 62.282-35.771 97.426-35.771h28.133c34.859 0 69.675 12.191 97.426 35.771 24.548 20.858 41.766 49.036 49.108 80.088h-321.202c7.343-31.052 24.561-59.23 49.109-80.088zm125.558 255.504h-28.133c-73.487 0-131.23-42.227-146.521-106.007h321.176c-15.291 63.78-73.034 106.007-146.522 106.007zm158.063-121.007c-53.395 0-293.483 0-344.258 0-10.865 0-19.705-8.839-19.705-19.705s8.84-19.705 19.705-19.705h344.258c10.865 0 19.705 8.839 19.705 19.705s-8.84 19.705-19.705 19.705z" fill="#f95116"/></g></svg>