<svg id="Capa_1" enable-background="new 0 0 512 512" height="512" viewBox="0 0 512 512" width="512" xmlns="http://www.w3.org/2000/svg"><g><path d="m325.845 256.13h-139.691l25.288-208.731c2.513-22.712 21.707-39.899 44.557-39.899 22.851 0 42.044 17.187 44.557 39.899z" fill="#ff63ed"/><path d="m214.89 34.459h-19.808c-28.835 0-53.586 20.523-58.926 48.859l-36.296 172.812h86.293l25.288-208.731c.506-4.571 1.698-8.912 3.449-12.94z" fill="#ff9bff"/><path d="m375.842 83.318c-5.34-28.336-30.091-48.859-58.926-48.859h-19.808c1.751 4.028 2.942 8.369 3.448 12.94l25.288 208.73v.001h86.293z" fill="#ff9bff"/><path d="m99.864 256.11 36.292-172.792c1.533-8.137 4.674-15.624 9.046-22.172h-18.894c-28.835 0-53.586 20.523-58.926 48.859l-31.263 146.105z" fill="#ffceff"/><path d="m412.134 256.11h63.745l-31.263-146.105c-5.34-28.336-30.091-48.859-58.926-48.859h-18.894c4.372 6.547 7.512 14.035 9.046 22.172z" fill="#ffceff"/><g fill="#88f8d8"><path d="m475.879 256.11c17.535 0 29.277 18.031 22.187 34.068l-14.305 32.356c-10.81 24.45-35.027 40.222-61.76 40.222h-332.004c-26.733 0-50.95-15.771-61.76-40.222l-14.305-32.356c-7.09-16.037 4.652-34.068 22.187-34.068z"/><path d="m202.406 444.358h107.187c-13.71-28.913-16.119-61.372-15.999-81.603h-75.188c.119 20.232-2.291 52.69-16 81.603z"/><path d="m361.58 477.16c-6.445-19.574-24.726-32.801-45.334-32.801h-120.494c-20.608 0-38.889 13.227-45.334 32.801-4.436 13.472 5.599 27.34 19.782 27.34h171.598c14.184 0 24.218-13.868 19.782-27.34z"/></g><path d="m483.214 254.541-31.245-146.018c-6.038-31.804-33.896-54.877-66.278-54.877h-15.054c-12.436-16.354-32.06-26.687-53.719-26.687h-15.142c-8.971-16.197-26.199-26.959-45.777-26.959-19.59 0-36.827 10.775-45.789 26.959h-15.128c-21.659 0-41.283 10.333-53.719 26.687h-15.055c-32.381 0-60.239 23.074-66.278 54.878l-31.245 146.017c-.867 4.05 1.714 8.037 5.765 8.903 4.041.865 8.034-1.706 8.903-5.765l31.263-146.105c.013-.06.025-.12.036-.18 4.668-24.77 26.351-42.748 51.556-42.748h6.421c-1.503 3.635-3.037 8.509-3.928 13.204l-17.99 85.65-18.287 87.068c0 .001 0 .002-.001.004l-.003.016c-.852 4.054 1.744 8.03 5.798 8.881 4.149.868 8.051-1.852 8.882-5.798l34.311-163.361c2.664-12.687 1.848-8.711 1.995-9.502 5.363-26.433 27.566-42.85 51.576-42.85h9.623c-.305 1.5-.551 3.112-.709 4.538l-25.287 208.731c-.498 4.112 2.432 7.849 6.543 8.347 4.113.498 7.85-2.431 8.348-6.543l25.296-208.808c2.09-18.873 18.007-33.223 37.103-33.223 19.062 0 35.008 14.309 37.112 33.301l25.288 208.731c.501 4.135 4.311 7.061 8.348 6.543 4.116-.498 7.042-4.241 6.543-8.348l-25.279-208.653c-.159-1.442-.407-3.066-.721-4.615h9.627c18.028 0 34.25 9.2 43.737 23.501 7.337 11.066 7.642 19.896 9.834 28.851l34.311 163.361c.848 4.038 4.82 6.65 8.882 5.798 4.054-.852 6.649-4.828 5.798-8.881l-.003-.016c0-.001 0-.003-.001-.004l-36.276-172.72c-.004-.022-.01-.043-.014-.065-.911-4.781-2.459-9.617-3.914-13.138h6.42c25.206 0 46.889 17.978 51.556 42.748.011.06.023.12.036.181l31.264 146.105c.865 4.043 4.843 6.632 8.903 5.765 4.05-.867 6.63-4.854 5.764-8.904z" fill="#e207b9"/><circle cx="303.35" cy="297.431" fill="#007ea8" r="10.047"/><g><path d="m277.273 332.009h-42.548c-4.143 0-7.5-3.358-7.5-7.5s3.357-7.5 7.5-7.5h42.548c4.143 0 7.5 3.358 7.5 7.5s-3.357 7.5-7.5 7.5z" fill="#007ea8"/></g><circle cx="208.648" cy="297.431" fill="#007ea8" r="10.047"/><path d="m218.405 362.755c.049 8.231-.321 18.486-1.701 29.703h78.59c-1.379-11.217-1.749-21.472-1.701-29.703z" fill="#007ea8"/><path d="m475.88 248.61h-439.761c-22.956 0-38.321 23.624-29.047 44.601l14.306 32.355c12.002 27.147 38.937 44.689 68.619 44.689h120.833c-.487 19.025-3.439 43.742-13.271 66.603h-1.807c-23.901 0-44.982 15.253-52.458 37.956-6.039 18.346 7.596 37.186 26.906 37.186h171.599c19.312 0 32.946-18.845 26.905-37.186-7.475-22.703-28.556-37.956-52.457-37.956h-1.807c-9.831-22.86-12.784-47.577-13.271-66.603h120.832c29.683 0 56.617-17.542 68.62-44.689l14.305-32.355c9.285-21.002-6.114-44.601-29.046-44.601zm-121.424 230.895c2.842 8.629-3.572 17.495-12.657 17.495h-171.599c-9.085 0-15.501-8.865-12.658-17.495 5.444-16.537 20.801-27.647 38.21-27.647h120.495c17.41 0 32.765 11.111 38.209 27.647zm-56.2-42.647h-84.513c8.892-23.379 11.636-47.696 12.093-66.603h60.327c.457 18.909 3.201 43.225 12.093 66.603zm192.951-149.712-14.305 32.355c-9.604 21.72-31.153 35.754-54.901 35.754-11.124 0-316.293 0-332.004 0-23.748 0-45.298-14.034-54.9-35.754l-14.306-32.355c-4.896-11.077 3.164-23.535 15.328-23.535h439.761c12.043-.001 20.267 12.363 15.327 23.535z" fill="#007ea8"/></g></svg>