<svg id="Capa_1" enable-background="new 0 0 512 512" height="512" viewBox="0 0 512 512" width="512" xmlns="http://www.w3.org/2000/svg"><g><g><path d="m315.887 401.725v80.083c0 12.532-10.16 22.692-22.692 22.692h-37.878c-12.532 0-22.692-10.16-22.692-22.692s10.16-22.692 22.692-22.692h15.186v-57.391z" fill="#ff9bff"/></g><g><path d="m210.276 401.725v80.083c0 12.532-10.16 22.692-22.692 22.692h-37.878c-12.532 0-22.692-10.16-22.692-22.692s10.16-22.692 22.692-22.692h15.186v-57.391z" fill="#ff9bff"/></g><g><g><path d="m293.195 512h-37.879c-16.648 0-30.192-13.544-30.192-30.193 0-16.648 13.544-30.193 30.192-30.193h7.685v-49.89c0-4.143 3.358-7.501 7.501-7.501h45.384c4.143 0 7.501 3.358 7.501 7.501v80.083c.001 16.649-13.544 30.193-30.192 30.193zm-37.878-45.384c-8.377 0-15.191 6.815-15.191 15.191s6.814 15.191 15.191 15.191h37.879c8.377 0 15.191-6.815 15.191-15.191v-72.582h-30.383v49.89c0 4.143-3.358 7.501-7.501 7.501z" fill="#e207b9"/></g></g><g><g><path d="m187.584 512h-37.878c-16.649 0-30.193-13.544-30.193-30.193 0-16.648 13.544-30.193 30.193-30.193h7.685v-49.89c0-4.143 3.358-7.501 7.501-7.501h45.384c4.143 0 7.501 3.358 7.501 7.501v80.083c0 16.649-13.544 30.193-30.193 30.193zm-37.878-45.384c-8.377 0-15.192 6.815-15.192 15.191s6.815 15.191 15.192 15.191h37.878c8.377 0 15.192-6.815 15.192-15.191v-72.582h-30.383v49.89c0 4.143-3.358 7.501-7.501 7.501z" fill="#e207b9"/></g></g><path d="m164.892 401.725h45.384v30.323h-45.384z" fill="#e207b9"/><path d="m270.503 401.725h45.384v30.323h-45.384z" fill="#e207b9"/><path d="m226.866 72.01h58.264c57.177 0 97.881 6.06 126.521 15.62-5.268-21.547-23.155-38.026-45.491-41.195l-.806-.114c-12.724-1.805-24.409-8.027-33.008-17.578l-2.851-3.167c-15.235-16.921-39.351-22.651-60.568-14.39l-2.769 1.078c-12.779 4.975-26.959 4.975-39.738 0l-2.771-1.079c-21.218-8.261-45.333-2.531-60.568 14.391l-2.849 3.164c-8.599 9.552-20.284 15.774-33.009 17.579l-.805.114c-24.24 3.438-43.254 22.548-46.569 46.805l-.408 2.983c28.485-14.376 74.587-24.211 147.425-24.211z" fill="#17d9c3"/><g><path d="m79.45 103.724c-.339 0-.68-.023-1.025-.07-4.105-.56-6.977-4.342-6.417-8.447l.407-2.983c3.751-27.444 25.524-49.327 52.947-53.217l.805-.114c10.964-1.555 21.081-6.943 28.488-15.171l2.849-3.165c17.215-19.121 44.89-25.695 68.864-16.362l2.771 1.079c11.059 4.305 23.238 4.305 34.296 0l2.768-1.078c23.974-9.334 51.649-2.761 68.865 16.36l2.851 3.166c7.408 8.229 17.525 13.617 28.488 15.171l.807.114c25.343 3.595 45.646 21.981 51.723 46.84.983 4.024-1.481 8.084-5.504 9.067-4.032.984-8.085-1.482-9.067-5.505-4.612-18.867-20.022-32.821-39.26-35.55l-.807-.115c-14.441-2.048-27.769-9.146-37.528-19.986l-2.851-3.166c-13.068-14.514-34.076-19.505-52.273-12.419l-2.768 1.078c-14.568 5.672-30.613 5.672-45.181.001l-2.771-1.079c-18.2-7.085-39.205-2.094-52.273 12.42l-2.849 3.164c-9.759 10.84-23.087 17.938-37.53 19.987l-.805.114c-20.817 2.953-37.344 19.564-40.192 40.395l-.407 2.982c-.513 3.762-3.73 6.489-7.421 6.489z" fill="#007ea8"/></g><path d="m467.127 189.839c-6.662 15.488-9.924 32.239-9.924 49.107v110.72c0 28.753-23.305 52.059-52.059 52.059h-58.264c28.753 0 52.059-23.305 52.059-52.059v-110.72c0-16.867 3.263-33.618 9.924-49.107 15.945-37.027 26.801-117.829-181.997-117.829h58.264c208.798 0 197.941 80.802 181.997 117.829z" fill="#ffff6f"/><path d="m408.863 189.839c-6.662 15.488-9.924 32.239-9.924 49.107v110.72c0 28.753-23.306 52.059-52.059 52.059h-240.027c-28.753 0-52.059-23.305-52.059-52.059v-110.72c0-16.867-3.263-33.618-9.934-49.107-15.935-37.027-26.791-117.829 182.006-117.829s197.942 80.802 181.997 117.829z" fill="#ffd600"/><path d="m471.558 119.373c-23.959-36.405-86.683-54.864-186.428-54.864h-58.263c-99.74 0-162.464 18.457-186.427 54.859-17.029 25.868-10.742 54.213-2.468 73.438 6.185 14.36 9.321 29.883 9.321 46.139v110.72c0 32.841 26.718 59.559 59.559 59.559h298.291c32.841 0 59.559-26.718 59.559-59.559v-110.72c0-16.248 3.133-31.771 9.313-46.14 14.997-34.821 6.941-59.153-2.457-73.432zm-409.263 230.293v-110.72c0-18.309-3.548-35.829-10.545-52.072-6.814-15.835-12.135-38.97 1.22-59.256 26.175-39.761 109.013-48.107 173.897-48.107 96.06 0 213.097 19.152 175.106 107.361 0 .001-.001.002-.001.003-7.121 16.558-10.534 34.118-10.534 52.07v110.72c0 24.717-20.129 44.558-44.558 44.558h-240.028c-24.569.001-44.557-19.988-44.557-44.557zm397.942-162.794c0 .001-.001.002-.001.003-6.991 16.253-10.535 33.772-10.535 52.07v110.72c0 24.569-19.988 44.558-44.558 44.558h-18.783c12.795-11.382 20.079-27.539 20.079-44.558v-110.72c0-16.737 3.361-32.303 9.312-46.14 19.546-45.389 5.342-85.408-47.589-107.605 39.85 6.291 75.334 18.823 90.865 42.42 13.353 20.288 8.029 43.42 1.21 59.252z" fill="#f90"/><path d="m366.471 150.19c-1.995-3.033-22.868-29.626-139.605-29.626-116.733 0-137.611 26.595-139.607 29.627-3.604 5.475.338 16.128 2.194 20.443 9.219 21.406 13.894 44.39 13.894 68.313v91.034c0 12.808 10.383 23.191 23.191 23.191h200.654c12.809 0 23.192-10.383 23.192-23.192v-91.034c0-23.908 4.668-46.884 13.884-68.311 1.864-4.324 5.806-14.973 2.203-20.445z" fill="#ffff6f"/><g><path d="m327.194 360.672h-200.655c-16.923 0-30.692-13.768-30.692-30.692v-91.034c0-22.898-4.469-44.883-13.283-65.346-3.552-8.255-6.707-19.73-1.57-27.534 2.112-3.206 9.314-11.461 30.563-18.905 26.704-9.355 65.499-14.098 115.31-14.098s88.607 4.743 115.31 14.098c21.254 7.446 28.452 15.703 30.561 18.907 5.136 7.804 1.977 19.281-1.578 27.535-8.807 20.475-13.273 42.461-13.273 65.343v91.034c-.001 16.924-13.77 30.692-30.693 30.692zm-100.327-232.608c-114.506 0-133.17 25.991-133.345 26.253-.502.927-.511 5.609 2.822 13.351 9.624 22.346 14.504 46.328 14.504 71.278v91.034c0 8.652 7.039 15.691 15.691 15.691h200.655c8.652 0 15.691-7.039 15.691-15.691v-91.034c0-24.933 4.876-48.913 14.495-71.274 3.326-7.723 3.33-12.4 2.821-13.367-.428-.605-19.607-26.241-133.334-26.241z" fill="#f90"/></g><g><circle cx="281.192" cy="198.546" fill="#f95116" r="11.527"/></g><g><path d="m251.273 237.113h-48.814c-4.143 0-7.501-3.358-7.501-7.501s3.358-7.501 7.501-7.501h48.814c4.143 0 7.501 3.358 7.501 7.501s-3.358 7.501-7.501 7.501z" fill="#f95116"/></g><g><circle cx="172.541" cy="198.546" fill="#f95116" r="11.527"/></g></g></svg>