<svg id="Capa_1" enable-background="new 0 0 512 512" height="512" viewBox="0 0 512 512" width="512" xmlns="http://www.w3.org/2000/svg"><g><path d="m178.531 28.841c-12.099-13.118-29.424-21.341-48.676-21.341-36.568 0-66.211 29.644-66.211 66.211 0 27.589 16.878 51.228 40.868 61.178 7.973-45.255 35.73-83.683 74.019-106.048z" fill="#ff9bff"/><path d="m382.145 7.5c-19.252 0-36.577 8.223-48.676 21.341 38.289 22.365 66.046 60.793 74.019 106.048 23.99-9.949 40.868-33.589 40.868-61.178.001-36.567-29.643-66.211-66.211-66.211z" fill="#ff9bff"/><path d="m153.003 270.426c-.323-46.45 59.895-71.898 102.997-33.103 43.102-38.795 103.32-13.346 102.997 33.103 31.212-25.457 50.834-63.322 50.834-108.666.001-84.959-68.872-153.831-153.831-153.831s-153.831 68.872-153.831 153.831c0 45.344 19.622 83.209 50.834 108.666z" fill="#ff9bff"/><g fill="#e207b9"><circle cx="310.657" cy="152.483" r="11.597"/><circle cx="201.343" cy="152.483" r="11.597"/><path d="m283.666 176.865-23.187-17.262c-2.657-1.978-6.298-1.979-8.957 0l-23.188 17.262c-3.322 2.473-4.011 7.172-1.537 10.494 1.472 1.978 3.732 3.022 6.021 3.022 1.557 0 3.128-.483 4.473-1.484l18.709-13.928 18.708 13.928c3.32 2.473 8.021 1.786 10.494-1.537s1.786-8.021-1.536-10.495z"/><path d="m455.857 73.711c0-40.644-33.067-73.711-73.712-73.711-18.529 0-36.421 7.084-49.974 19.578-22.7-12.211-48.639-19.149-76.171-19.149s-53.471 6.938-76.172 19.149c-13.552-12.494-31.443-19.578-49.973-19.578-40.645 0-73.712 33.067-73.712 73.711 0 27.913 15.556 53.053 40.094 65.603-1.026 7.338-1.569 14.83-1.569 22.446 0 45.633 19.033 86.289 53.595 114.478 3.211 2.619 7.935 2.138 10.552-1.071 2.618-3.21 2.139-7.935-1.071-10.552-31.002-25.286-48.075-61.813-48.075-102.854 0-80.688 65.645-146.332 146.332-146.332s146.331 65.644 146.331 146.331c0 41.041-17.073 77.568-48.074 102.854-3.21 2.618-3.689 7.342-1.071 10.552 2.622 3.215 7.348 3.686 10.552 1.072 34.561-28.188 53.594-68.844 53.594-114.478 0-7.617-.543-15.107-1.569-22.446 24.538-12.549 40.093-37.689 40.093-65.603zm-384.714 0c0-32.373 26.338-58.711 58.712-58.711 13.253 0 26.107 4.539 36.41 12.674-33.727 22.577-57.626 56.811-67.096 96.107-17.274-10.558-28.026-29.358-28.026-50.07zm341.689 50.07c-9.471-39.298-33.371-73.532-67.097-96.107 10.303-8.135 23.157-12.674 36.41-12.674 32.374 0 58.712 26.338 58.712 58.711 0 20.712-10.752 39.512-28.025 50.07z"/></g><path d="m242.295 431.947c-16.763-2.518-32.037-9.582-44.526-19.899v47.926h-14.899c-12.295 0-22.263 9.968-22.263 22.263s9.968 22.263 22.263 22.263h37.162c8.598 0 16.053-4.878 19.762-12.014-1.595-3.068-2.501-6.552-2.501-10.249 0-5.332 1.877-10.224 5.003-14.058v-36.232z" fill="#ff9bff"/><path d="m274.454 431.107v28.867h-14.899c-12.295 0-22.263 9.968-22.263 22.263s9.968 22.263 22.263 22.263h37.162c12.295 0 22.263-9.968 22.263-22.263v-74.398c-12.155 11.539-27.475 19.776-44.526 23.268z" fill="#ff9bff"/><path d="m197.769 412.048v24.83c13.277 8.134 28.374 13.574 44.526 15.557v-20.488c-16.763-2.518-32.037-9.582-44.526-19.899z" fill="#e207b9"/><path d="m274.454 431.107v20.637c16.297-2.718 31.411-8.971 44.526-17.946v-25.959c-12.155 11.539-27.475 19.776-44.526 23.268z" fill="#e207b9"/><path d="m323.679 334.302c-15.367 13.953-36.363 28.119-64.181 41.844-2.183 1.077-4.814 1.077-6.997 0-27.817-13.725-48.814-27.892-64.181-41.845-6.815 5.604-15.579 7.641-23.811 6.113v1.064c0 50.529 40.962 91.491 91.491 91.491 50.529 0 91.491-40.962 91.491-91.491v-1.064c-8.232 1.529-16.996-.508-23.812-6.112z" fill="#ff9bff"/><path d="m321.559 332.381-28.164-28.165c-11.37-11.37-11.37-29.806 0-41.177 11.372-11.37 29.807-11.37 41.177 0l22.325 22.324c14.982-55.48-53.365-90.824-100.897-48.042-47.532-42.782-115.879-7.438-100.897 48.042l22.325-22.324c11.37-11.37 29.805-11.37 41.177 0 11.37 11.371 11.37 29.807 0 41.177l-28.164 28.165c-.682.682-1.391 1.32-2.12 1.92 15.367 13.953 36.363 28.119 64.181 41.845 2.183 1.077 4.814 1.077 6.997 0 27.817-13.725 48.814-27.892 64.181-41.844-.73-.6-1.439-1.239-2.121-1.921z" fill="#9448f5"/><g><path d="m356.902 292.866c-.647 0-1.306-.084-1.96-.261-3.999-1.08-6.365-5.197-5.285-9.196 5.549-20.549-1.576-39.228-19.059-49.968-24.257-14.899-52.424-5.986-69.58 9.456-2.854 2.567-7.182 2.567-10.035 0-17.156-15.443-45.326-24.355-69.581-9.456-17.482 10.739-24.607 29.419-19.059 49.967 1.08 3.999-1.286 8.116-5.285 9.196-3.994 1.079-8.117-1.286-9.195-5.285-7.27-26.918 2.573-52.461 25.688-66.659 20.986-12.892 53.949-15.279 82.45 6.885 28.499-22.162 61.461-19.778 82.448-6.885 23.115 14.199 32.958 39.741 25.688 66.66-.902 3.344-3.929 5.546-7.235 5.546z" fill="#6d00ca"/></g><g><path d="m256 384.452c-2.341 0-4.683-.526-6.816-1.579-26.924-13.284-49.097-27.758-65.905-43.018-3.066-2.784-3.295-7.528-.511-10.594 2.785-3.067 7.528-3.295 10.595-.511 15.773 14.322 36.787 28.006 62.457 40.671.091.044.269.045.359 0 25.673-12.667 46.687-26.351 62.458-40.671 3.066-2.784 7.81-2.556 10.595.511 2.784 3.067 2.556 7.81-.511 10.594-16.806 15.259-38.979 29.733-65.904 43.018-2.134 1.052-4.476 1.579-6.817 1.579z" fill="#6d00ca"/></g><g><path d="m321.559 332.381-28.164-28.165c-11.37-11.37-11.37-29.806 0-41.177 11.372-11.37 29.807-11.37 41.177 0l28.165 28.164c11.37 11.371 11.37 29.807 0 41.178-11.372 11.37-29.806 11.371-41.178 0z" fill="#ff9bff"/></g><g><path d="m190.441 332.381 28.164-28.165c11.37-11.37 11.37-29.806 0-41.177-11.372-11.37-29.807-11.37-41.177 0l-28.165 28.164c-11.37 11.371-11.37 29.807 0 41.178 11.372 11.37 29.806 11.371 41.178 0z" fill="#ff9bff"/></g><path d="m368.04 285.9-28.164-28.164c-14.276-14.276-37.506-14.275-51.784 0-14.276 14.277-14.275 37.507 0 51.783l28.164 28.165h.001c6.514 6.514 14.893 10.044 23.434 10.614-3.486 43.135-39.68 77.17-83.689 77.17-44.012 0-80.204-34.039-83.69-77.17 8.541-.569 16.92-4.101 23.434-10.614h.001l28.164-28.165c14.275-14.276 14.276-37.506-.001-51.784-14.278-14.276-37.508-14.274-51.782 0l-28.169 28.165c-14.275 14.277-14.275 37.507.001 51.785 3.853 3.852 8.359 6.654 13.164 8.427 1.275 27.515 13.832 52.129 33.145 69.314v37.048h-7.398c-16.412 0-29.764 13.352-29.764 29.763s13.351 29.763 29.764 29.763h37.161c7.443 0 14.419-2.754 19.772-7.524 5.259 4.676 12.177 7.524 19.751 7.524h37.162c16.411 0 29.763-13.352 29.763-29.763v-71.323c16.606-16.854 27.232-39.613 28.399-64.804 4.804-1.773 9.31-4.576 13.161-8.426 14.276-14.277 14.276-37.507 0-51.784zm-213.474 10.607 28.166-28.164c8.427-8.429 22.143-8.426 30.569 0 8.429 8.429 8.429 22.143 0 30.571l-28.163 28.164c-8.429 8.427-22.143 8.427-30.571 0-8.428-8.429-8.428-22.143-.001-30.571zm80.229 169.219c-3.351 5.035-5.003 10.839-5.003 16.511 0 3.087.506 6.391 1.554 9.482-2.771 3.315-6.88 5.28-11.314 5.28h-37.161c-8.141 0-14.764-6.623-14.764-14.763s6.623-14.763 14.764-14.763h14.898c4.143 0 7.5-3.358 7.5-7.5v-33.48c9.319 5.568 19.653 9.53 29.526 11.693zm15-25.457c2.053.127 4.121.2 6.205.2 3.703 0 7.356-.211 10.954-.609v12.615h-7.399c-3.418 0-6.7.586-9.76 1.652zm61.685 41.968c0 8.14-6.622 14.763-14.763 14.763h-37.162c-8.145 0-14.763-6.667-14.763-14.763 0-8.058 6.544-14.763 14.763-14.763h14.899c4.143 0 7.5-3.358 7.5-7.5v-22.944c9.954-2.703 20.211-7.242 29.525-13.557v58.764zm45.954-155.159c-8.429 8.427-22.144 8.427-30.572 0h.001l-28.164-28.165c-8.429-8.428-8.429-22.142-.001-30.57 8.429-8.428 22.143-8.428 30.571 0l28.164 28.164c8.428 8.428 8.428 22.142.001 30.571z" fill="#e207b9"/></g></svg>