<svg id="Capa_1" enable-background="new 0 0 512 512" height="512" viewBox="0 0 512 512" width="512" xmlns="http://www.w3.org/2000/svg"><g><path d="m425.793 130.429c-12.217 12.217-32.025 12.217-44.242 0s-12.217-32.025 0-44.242l50.449-50.45h-147.437c-26.55 0-52.012 10.547-70.785 29.32l-190.702 190.703c-20.777 20.777-20.777 54.464 0 75.242l157.902 157.902c20.777 20.778 54.464 20.778 75.242 0l190.702-190.702c18.774-18.773 29.32-44.236 29.32-70.785v-147.438z" fill="#ff63ed"/><path d="m425.793 130.429c-12.217 12.217-32.025 12.217-44.242 0s-12.217-32.025 0-44.242l5.046-5.046h-102.033c-14.612 0-28.349 5.69-38.68 16.022l-190.703 190.702c-3.041 3.041-3.041 7.99 0 11.031l157.902 157.902c3.041 3.041 7.99 3.042 11.032 0l190.702-190.702c10.332-10.332 16.022-24.069 16.022-38.679v-102.034z" fill="#ffceff"/><path d="m495.308 16.671c-12.217-12.217-32.025-12.217-44.242 0l-69.516 69.516c-12.217 12.217-12.217 32.025 0 44.242 12.217 12.217 32.025 12.217 44.242 0l69.516-69.516c12.217-12.217 12.217-32.025 0-44.242z" fill="#ffff6f"/><g><g><path d="m346.122 273.766-31.327-45.125c-2.277-3.364-2.006-7.751.61-10.743s6.928-3.844 10.486-2.075c.083.041.166.084.247.128l30.31 16.5-16.695-30.009c-.044-.078-.086-.157-.127-.237-1.806-3.539-.998-7.859 1.965-10.506 2.962-2.646 7.345-2.966 10.661-.774l45.623 30.981c3.427 2.327 4.317 6.991 1.99 10.418-2.326 3.426-6.989 4.318-10.418 1.991l-23.784-16.152 14.384 25.855c.045.079.087.16.129.241 1.718 3.372 1.084 7.445-1.58 10.134-2.662 2.69-6.726 3.364-10.118 1.679-.083-.041-.165-.084-.246-.128l-26.081-14.197 16.291 23.466c2.362 3.402 1.518 8.075-1.884 10.437-3.401 2.361-8.073 1.519-10.436-1.884z" fill="#e207b9"/></g></g><g><path d="m272.569 310.562c-13.746-13.746-13.746-36.113 0-49.86 13.747-13.745 36.115-13.747 49.86 0h.001c13.745 13.746 13.745 36.113 0 49.86-13.745 13.744-36.114 13.748-49.861 0zm10.606-39.254c-7.898 7.898-7.898 20.75 0 28.648 7.896 7.897 20.748 7.899 28.648 0 7.897-7.898 7.897-20.749-.001-28.648-7.897-7.898-20.748-7.898-28.647 0z" fill="#e207b9"/></g><g fill="#e207b9"><path d="m212.723 380.563 9.236-9.236c2.929-2.929 2.929-7.677 0-10.606-2.93-2.929-7.677-2.929-10.607 0l-9.235 9.235-8.508-8.508 10.491-10.49c2.929-2.929 2.929-7.677 0-10.606-2.93-2.929-7.677-2.929-10.607 0l-15.793 15.794c-2.929 2.929-2.929 7.677 0 10.606l38.966 38.966c2.929 2.929 7.677 2.929 10.607 0 2.929-2.929 2.929-7.677 0-10.606z"/><path d="m280 335.378-20.478-1.306c4.243-8.446 3.048-18.77-3.749-25.565-8.548-8.549-22.72-8.291-31.586.577l-10.432 10.431c-.002.002-.004.005-.006.007s-.004.004-.007.006c-2.929 2.929-2.929 7.677 0 10.606l39.254 39.254c2.93 2.929 7.677 2.929 10.607 0 2.929-2.929 2.929-7.677 0-10.606l-10.061-10.062c19.357 1.23 25.602 1.642 25.987 1.642 3.925 0 7.224-3.052 7.477-7.023.264-4.133-2.873-7.697-7.006-7.961zm-45.207-15.687c2.966-2.968 7.718-3.233 10.375-.577 2.748 2.748 2.26 7.536-.578 10.374-1.197 1.198-3.168 3.183-5.068 5.102-4.99-4.94-3.731-3.712-9.84-9.787z"/><path d="m129.359 281.492 5.579-5.579c2.93-2.929 2.93-7.677.001-10.606s-7.677-2.93-10.606 0l-21.679 21.678c-2.93 2.929-2.93 7.677-.001 10.606 2.929 2.928 7.677 2.93 10.606 0l5.493-5.492 33.951 33.951c2.93 2.929 7.677 2.929 10.607 0 2.929-2.929 2.929-7.677 0-10.606z"/></g><g><path d="m160.608 278.893c-13.746-13.747-13.746-36.114-.001-49.86 13.747-13.747 36.116-13.746 49.861 0 13.745 13.746 13.745 36.113 0 49.86-13.746 13.744-36.114 13.747-49.86 0zm10.605-39.254c-7.897 7.898-7.897 20.749.001 28.648 7.898 7.898 20.749 7.898 28.647 0s7.898-20.75 0-28.648c-7.896-7.897-20.748-7.9-28.648 0z" fill="#e207b9"/></g><g><path d="m175.674 494.207-157.902-157.903c-23.668-23.668-23.668-62.179 0-85.848l190.703-190.701c20.323-20.324 47.346-31.517 76.088-31.517h147.437c4.142 0 7.5 3.358 7.5 7.5s-3.357 7.5-7.5 7.5h-147.437c-24.736 0-47.992 9.633-65.481 27.124l-190.703 190.701c-17.821 17.82-17.821 46.815 0 64.635l157.902 157.902c17.861 17.861 46.771 17.864 64.635 0l190.702-190.702c17.491-17.491 27.125-40.747 27.125-65.482v-147.437c0-4.142 3.357-7.5 7.5-7.5s7.5 3.358 7.5 7.5v147.437c0 28.742-11.193 55.764-31.517 76.088l-190.703 190.703c-23.723 23.723-62.123 23.726-85.849 0z" fill="#e207b9"/></g><g><path d="m218.599 466.576c-3.918 0-7.836-1.491-10.819-4.474l-157.903-157.903c-5.965-5.966-5.965-15.672 0-21.637l190.703-190.702c11.749-11.749 27.369-18.219 43.983-18.219h102.034c4.142 0 7.5 3.358 7.5 7.5s-3.357 7.5-7.5 7.5h-102.034c-12.608 0-24.462 4.91-33.376 13.826l-190.703 190.701c-.113.113-.113.312 0 .426l157.902 157.902c.113.113.312.113.425.001l190.703-190.702c8.916-8.915 13.826-20.769 13.826-33.376l-.001-102.034c0-4.142 3.357-7.5 7.5-7.5 4.141 0 7.5 3.358 7.5 7.5l.001 102.034c0 16.614-6.47 32.234-18.218 43.982l-190.704 190.701c-2.982 2.982-6.9 4.474-10.819 4.474z" fill="#e207b9"/></g><g><path d="m376.247 135.732c-15.156-15.156-15.158-39.69 0-54.848l69.516-69.516c15.156-15.156 39.688-15.159 54.848 0 15.156 15.156 15.158 39.69 0 54.848l-69.516 69.516c-15.121 15.121-39.726 15.122-54.848 0zm80.123-113.758-69.516 69.516c-9.294 9.293-9.298 24.34 0 33.636 9.273 9.274 24.362 9.274 33.635 0l69.516-69.516c9.294-9.293 9.298-24.34 0-33.636-9.295-9.294-24.339-9.296-33.635 0z" fill="#f90"/></g></g></svg>