<svg id="Capa_1" enable-background="new 0 0 512 512" height="512" viewBox="0 0 512 512" width="512" xmlns="http://www.w3.org/2000/svg"><g><path d="m160.545 118.271c9.693-10.676 21.255-19.62 34.167-26.327-6.555-24.769-17.448-49.568-25.803-61.296-17.687-24.827-52.149-30.616-76.977-12.929-9.384 6.69-16.054 15.774-19.76 25.829 44.034.893 80.455 32.77 88.373 74.723z" fill="#ff9bff"/><path d="m160.545 118.271c-7.918-41.953-44.339-73.829-88.373-74.723-6.089 16.545-4.166 35.704 6.83 51.148 10 14.034 36.488 37.612 62.12 52.277 5.101-10.497 11.662-20.154 19.423-28.702z" fill="#ffceff"/><path d="m341.103 118.271c7.918-41.953 44.339-73.829 88.373-74.723-3.706-10.055-10.376-19.139-19.76-25.829-24.828-17.687-59.29-11.898-76.977 12.93-8.355 11.728-19.248 36.527-25.803 61.296 12.911 6.706 24.474 15.65 34.167 26.326z" fill="#ff9bff"/><path d="m429.476 43.548c-44.034.893-80.455 32.77-88.373 74.723 7.761 8.548 14.322 18.205 19.423 28.702 25.632-14.665 52.12-38.243 62.12-52.277 10.996-15.444 12.919-34.603 6.83-51.148z" fill="#ffceff"/><g fill="#ff9bff"><path d="m151.436 238.285c19.951 0 36.41 14.901 38.885 34.179h121.005c2.475-19.278 18.934-34.179 38.885-34.179 4.928 0 9.642.912 13.986 2.572 5.504-11.344 8.53-24.821 8.53-40.67 0-67.325-54.578-121.904-121.904-121.904s-121.903 54.578-121.903 121.904c0 15.849 3.027 29.326 8.53 40.67 4.345-1.66 9.058-2.572 13.986-2.572z"/><path d="m151.436 238.285c-21.66 0-39.218 17.558-39.218 39.218 0 12.465 10.105 22.569 22.569 22.569h33.297c12.465 0 22.569-10.105 22.569-22.569.001-21.66-17.557-39.218-39.217-39.218z"/><path d="m350.211 238.285c21.66 0 39.218 17.558 39.218 39.218 0 12.465-10.105 22.569-22.569 22.569h-33.297c-12.465 0-22.569-10.105-22.569-22.569-.001-21.66 17.558-39.218 39.217-39.218z"/></g><path d="m399.079 391.177h-296.511l5.018-55.484h286.476z" fill="#a4bcff"/><g fill="#e207b9"><circle cx="301.856" cy="189.387" r="10.828"/><circle cx="199.792" cy="189.387" r="10.828"/></g><path d="m480.727 175.173c-13.692-2.891-23.785-12.787-26.687-26.816-1.013-4.896-5.353-8.389-10.482-8.389h-.673c-5.023 0-9.205 3.611-10.241 8.526-2.887 13.698-12.786 23.796-26.818 26.698-4.896 1.013-8.389 5.353-8.389 10.462v.564c0 5.017 3.522 9.34 8.434 10.362 14.004 2.914 23.883 13 26.77 26.677 1.039 4.919 5.215 8.538 10.374 8.538h.672c4.999 0 9.34-3.493 10.352-8.388 2.902-14.029 12.995-23.926 26.687-26.816 4.919-1.038 8.538-5.216 8.538-10.244v-.93c0-5.028-3.618-9.205-8.537-10.244z" fill="#ffff6f"/><path d="m106.025 435.601c-13.692-2.891-23.785-12.787-26.687-26.816-1.013-4.896-5.353-8.389-10.482-8.389h-.673c-5.023 0-9.205 3.611-10.241 8.526-2.887 13.698-12.786 23.796-26.818 26.698-4.896 1.013-8.389 5.353-8.389 10.462v.564c0 5.017 3.523 9.34 8.434 10.362 14.004 2.914 23.883 13 26.77 26.677 1.039 4.919 5.215 8.538 10.374 8.538h.672c4.999 0 9.34-3.493 10.352-8.388 2.902-14.029 12.995-23.926 26.687-26.816 4.919-1.038 8.538-5.216 8.538-10.244v-.93c.001-5.027-3.617-9.205-8.537-10.244z" fill="#ffff6f"/><g><path d="m443.017 239.296c-8.628 0-15.912-5.958-17.714-14.488-2.318-10.983-9.958-18.595-20.96-20.884-8.347-1.737-14.406-9.183-14.406-17.705v-.564c0-8.596 6.043-16.085 14.369-17.807 11.027-2.281 18.681-9.899 20.999-20.9 1.797-8.525 9.027-14.48 17.58-14.48h.673c8.607 0 16.104 6.043 17.827 14.37 2.28 11.022 9.895 18.675 20.891 20.996 8.531 1.801 14.489 9.031 14.489 17.583v.93c0 8.552-5.958 15.782-14.489 17.583-10.997 2.322-18.611 9.975-20.891 20.997-1.721 8.326-9.164 14.369-17.697 14.369zm-.132-91.827c-1.389 0-2.582 1.058-2.902 2.573-3.553 16.855-15.754 29.003-32.638 32.496-1.417.293-2.407 1.575-2.407 3.117v.564c0 1.452 1.035 2.722 2.462 3.019 16.85 3.506 29.029 15.645 32.58 32.471.252 1.192 1.198 2.586 3.036 2.586h.671c1.455 0 2.72-1.012 3.008-2.406 3.491-16.88 15.635-29.08 32.483-32.637 1.523-.322 2.586-1.516 2.586-2.906v-.93c0-1.389-1.064-2.584-2.586-2.906-16.848-3.557-28.991-15.757-32.483-32.635-.293-1.418-1.583-2.408-3.137-2.408h-.673z" fill="#f90"/></g><path d="m431.154 272.463h-42.058c.212 1.651.333 3.33.333 5.039 0 12.465-10.105 22.569-22.569 22.569h-33.297c-12.465 0-22.569-10.105-22.569-22.569 0-1.709.121-3.388.333-5.039h-121.006c.212 1.651.333 3.33.333 5.039 0 12.465-10.105 22.569-22.569 22.569h-33.297c-12.465 0-22.569-10.105-22.569-22.569 0-1.709.121-3.388.333-5.039h-42.058c-10.422 0-18.87 8.448-18.87 18.87v25.489c0 10.422 8.448 18.87 18.87 18.87h360.66c10.422 0 18.87-8.448 18.87-18.87v-25.489c0-10.421-8.448-18.87-18.87-18.87z" fill="#565eec"/><path d="m405.169 458.51-6.089-67.333h-296.512l-3.807 42.092c2.281 1.008 4.709 1.793 7.264 2.332 4.919 1.038 8.538 5.216 8.538 10.244v.93c0 5.028-3.618 9.206-8.538 10.244-3.478.734-6.72 1.925-9.674 3.516-1.017 23.824 18.025 43.964 42.142 43.964h224.662c24.797.001 44.237-21.292 42.014-45.989z" fill="#565eec"/><g fill="#2115c2"><path d="m191.321 279.964h119.005c4.143 0 7.5-3.358 7.5-7.5s-3.358-7.5-7.5-7.5h-119.005c-4.143 0-7.5 3.358-7.5 7.5s3.357 7.5 7.5 7.5z"/><path d="m431.154 264.963h-41.058c-4.143 0-7.5 3.358-7.5 7.5s3.358 7.5 7.5 7.5h41.058c6.269 0 11.37 5.1 11.37 11.37v25.489c0 6.269-5.101 11.37-11.37 11.37-15.194 0-352.099 0-360.66 0-6.269 0-11.37-5.1-11.37-11.37v-25.489c0-6.269 5.101-11.37 11.37-11.37h41.059c4.143 0 7.5-3.358 7.5-7.5 0-4.143-3.358-7.5-7.5-7.5h-41.06c-14.541 0-26.371 11.83-26.371 26.371v25.489c0 14.541 11.83 26.371 26.371 26.371h28.883c-1.587 17.55-6.275 69.383-7.896 87.306-.373 4.126 2.669 7.772 6.794 8.145 4.124.373 7.772-2.669 8.146-6.794l3-33.173h282.806l5.472 60.505c1.831 20.335-14.122 37.817-34.544 37.817h-224.661c-19.442 0-34.697-15.839-34.681-34.671.003-4.142-3.352-7.503-7.495-7.507-.002 0-.004 0-.006 0-4.139 0-7.497 3.355-7.5 7.495-.021 26.949 21.776 49.683 49.682 49.683h224.662c29.168 0 52.1-25.088 49.484-54.166-2.335-25.824-8.179-90.442-10.368-114.641h28.882c14.541 0 26.371-11.83 26.371-26.371v-25.489c0-14.54-11.83-26.37-26.37-26.37zm-40.284 118.713h-280.092l3.661-40.484h272.77z"/></g><g><path d="m68.315 499.724c-8.628 0-15.912-5.958-17.714-14.488-2.318-10.983-9.958-18.595-20.96-20.884-8.347-1.737-14.406-9.183-14.406-17.705v-.564c0-8.596 6.043-16.085 14.369-17.807 11.026-2.281 18.68-9.899 20.999-20.901 1.797-8.525 9.027-14.479 17.58-14.479h.673c8.607 0 16.104 6.043 17.827 14.369 2.28 11.022 9.895 18.675 20.891 20.997 8.531 1.801 14.489 9.031 14.489 17.583v.93c0 8.552-5.958 15.782-14.489 17.583-10.997 2.322-18.611 9.975-20.891 20.997-1.723 8.326-9.166 14.369-17.697 14.369zm-.131-91.827c-1.389 0-2.582 1.058-2.902 2.573-3.554 16.856-15.755 29.004-32.638 32.496-1.418.293-2.407 1.575-2.407 3.117v.564c0 1.452 1.035 2.722 2.462 3.019 16.85 3.506 29.029 15.645 32.58 32.471.252 1.192 1.198 2.586 3.036 2.586h.671c1.455 0 2.72-1.012 3.008-2.407 3.491-16.878 15.635-29.079 32.483-32.635 1.523-.322 2.586-1.516 2.586-2.906v-.93c0-1.389-1.064-2.584-2.586-2.906-16.848-3.557-28.991-15.757-32.483-32.635-.293-1.418-1.583-2.408-3.137-2.408h-.673z" fill="#f90"/></g><g fill="#e207b9"><path d="m276.951 211.753-21.649-16.117c-2.657-1.979-6.298-1.98-8.958 0l-21.65 16.117c-3.322 2.474-4.011 7.173-1.537 10.496 2.48 3.333 7.181 4.003 10.495 1.537l17.171-12.783 17.17 12.783c3.321 2.473 8.021 1.786 10.495-1.537 2.474-3.324 1.786-8.023-1.537-10.496z"/><path d="m414.068 11.61c-28.154-20.056-67.38-13.47-87.438 14.687-8.331 11.695-17.936 33.473-24.492 55.106-15.742-6.826-33.092-10.62-51.313-10.62-18.222 0-35.572 3.794-51.314 10.62-6.557-21.632-16.161-43.41-24.492-55.106-20.058-28.155-59.282-34.745-87.44-14.685-28.17 20.08-34.806 59.179-14.685 87.436 9.621 13.502 33.54 35.435 58.657 50.95-6.522 15.441-10.131 32.401-10.131 50.189 0 13.577 2.13 26.008 6.329 37.072-13.77 8.136-23.031 23.125-23.031 40.244 0 16.58 13.489 30.069 30.07 30.069h33.298c16.581 0 30.07-13.489 30.07-30.07 0-25.723-20.974-46.718-46.707-46.718-.004 0-.007 0-.011 0h-.001c-3.338 0-6.841.416-9.721 1.015-3.516-9.323-5.294-19.926-5.294-31.612 0-63.082 51.321-114.403 114.403-114.403s114.403 51.322 114.403 114.403c0 11.685-1.778 22.288-5.295 31.612-3.293-.686-6.659-1.015-9.721-1.015-25.625 0-46.718 20.879-46.718 46.719 0 16.58 13.489 30.069 30.07 30.069h33.297c16.581 0 30.07-13.489 30.07-30.07 0-17.119-9.261-32.108-23.03-40.244 4.2-11.065 6.329-23.496 6.329-37.072 0-17.788-3.609-34.747-10.131-50.189 25.115-15.514 49.034-37.447 58.658-50.952 20.088-28.211 13.523-67.322-14.689-87.435zm-245.983 280.962h-33.298c-8.309 0-15.069-6.76-15.069-15.069 0-17.49 14.23-31.717 31.718-31.717 17.373 0 31.717 14.135 31.717 31.718.001 8.308-6.759 15.068-15.068 15.068zm-71.801-268.744c21.419-15.258 51.257-10.247 66.517 11.172 6.646 9.33 16.37 30.113 23.096 53.232-7.663 4.448-14.819 9.648-21.402 15.551-11.929-35.461-43.375-61.64-80.721-66.832 3.261-5.095 7.487-9.543 12.51-13.123zm-11.172 66.517c-8.088-11.359-10.751-25.588-7.494-38.977 37.15 3.243 66.928 30.612 74.81 64.77-5.395 6.31-10.164 13.112-14.249 20.32-22.775-14.304-44.664-34.32-53.067-46.113zm281.747 202.227h-33.297c-8.309 0-15.069-6.76-15.069-15.069 0-17.459 14.216-31.717 31.717-31.717 17.474 0 31.717 14.214 31.717 31.718.001 8.308-6.759 15.068-15.068 15.068zm-28.012-257.572c15.258-21.418 45.096-26.431 66.515-11.174 5.024 3.582 9.25 8.029 12.511 13.125-36.873 5.073-68.673 31.029-80.721 66.831-6.582-5.902-13.738-11.102-21.402-15.55 6.726-23.119 16.451-43.903 23.097-53.232zm77.691 55.343c-8.407 11.796-30.296 31.811-53.069 46.116-4.085-7.206-8.854-14.01-14.25-20.32 8.047-34.731 38.284-61.579 74.811-64.77 3.257 13.389.595 27.617-7.492 38.974z"/></g></g></svg>