<svg id="Capa_1" enable-background="new 0 0 512 512" height="512" viewBox="0 0 512 512" width="512" xmlns="http://www.w3.org/2000/svg"><g><path d="m411.285 413.323v36.002c0 9.404-2.411 18.519-6.854 26.648s-10.908 15.261-19.027 20.721c-7.75 5.2-16.815 7.8-25.881 7.8-9.065 0-18.13-2.6-25.881-7.8-7.75-5.2-16.815-7.81-25.881-7.81-9.065 0-18.13 2.61-25.881 7.81-7.75 5.2-16.815 7.8-25.881 7.8-9.065 0-18.13-2.6-25.881-7.8-7.75-5.2-16.815-7.81-25.881-7.81-9.065 0-18.13 2.61-25.881 7.81-7.75 5.2-16.815 7.8-25.881 7.8-9.065 0-18.13-2.6-25.881-7.8-16.238-10.908-25.881-28.56-25.881-47.368v-36.002h310.572z" fill="#88f8d8"/><g><path d="m329.464 502.921c-12.901-8.655-30.305-8.788-43.404 0-17.97 12.057-42.009 12.15-60.119 0-12.923-8.671-30.327-8.774-43.404 0-17.98 12.064-42.015 12.146-60.119 0-18.287-12.285-29.202-32.32-29.202-53.596v-36.002c0-4.142 3.357-7.5 7.5-7.5s7.5 3.358 7.5 7.5v36.002c0 16.271 8.434 31.651 22.563 41.143 12.903 8.656 30.345 8.758 43.401-.002 17.988-12.071 41.994-12.162 60.118 0 12.879 8.639 30.32 8.778 43.405 0 17.99-12.07 41.99-12.162 60.118 0 12.878 8.641 30.322 8.777 43.404 0 6.966-4.684 12.717-10.941 16.625-18.09 3.883-7.103 5.935-15.073 5.935-23.051v-36.002c0-4.142 3.357-7.5 7.5-7.5s7.5 3.358 7.5 7.5v36.002c0 10.484-2.687 20.943-7.772 30.245-17.905 32.752-55.259 40.991-81.549 23.351z" fill="#007ea8"/></g><path d="m309.888 97.547c-4.513 4.057-10.616 6.552-17.341 6.552h-73.095c-6.726 0-12.83-2.496-17.344-6.555-6.165 38.671-62.053 60.113-88.124 108.484 19.794-1.026 39.807.578 58.765 4.214 14.973 3.088 7.242 1.584 16.527 3.696 46.472 11.287 60.329 26.947 96.679 32.326 37.606 5.499 80.959-2.7 121.105-17.921-18.278-64.959-90.131-86.649-97.172-130.796z" fill="#88f8d8"/><g><path d="m219.453 56.607h73.095c4.925 0 9.516 1.341 13.395 3.65v-30.526c0-12.278-10.544-22.231-23.551-22.231h-52.783c-13.007 0-23.551 9.953-23.551 22.231v30.526c3.879-2.308 8.47-3.65 13.395-3.65z" fill="#0eb4bb"/></g><path d="m411.285 279.128v134.195h-310.569v-129.373c13.14-6.206 33.601-11.845 63.028-9.703 31.957 2.012 63.178 14.843 65.339 15.53 14.973 5.648 34.926 9.444 50.705 10.888 12.99.926 4.493.289 12.721.727 5.281-.756 47.559 4.254 118.776-22.264z" fill="#ffff6f"/><path d="m292.548 56.607h-73.095c-13.893 0-25.156 10.632-25.156 23.746 0 13.115 11.263 23.746 25.156 23.746h73.095c13.893 0 25.156-10.632 25.156-23.746 0-13.114-11.263-23.746-25.156-23.746z" fill="#17d9c3"/><path d="m414.28 226.312c-10.298-36.598-36.138-59.807-58.938-80.285-17.638-15.843-33.025-29.666-37.313-46.165 4.483-5.351 7.173-12.132 7.173-19.508 0-9.63-4.579-18.254-11.761-23.99v-26.633c0-16.394-13.93-29.731-31.05-29.731h-52.784c-17.121 0-31.05 13.337-31.05 29.731v26.631c-7.182 5.736-11.762 14.361-11.762 23.991 0 7.374 2.689 14.155 7.171 19.505-4.288 16.505-19.679 30.332-37.322 46.179-17.123 15.379-36.53 32.81-49.263 56.433-1.965 3.646-.603 8.195 3.044 10.161 3.646 1.966 8.195.602 10.161-3.043 11.493-21.325 29.077-37.118 46.08-52.39 17.006-15.274 33.213-29.832 40.072-48.055 4.07 1.647 8.426 2.458 12.713 2.458h73.095c4.309 0 8.667-.821 12.71-2.457 6.857 18.218 23.062 32.773 40.063 48.043 21.281 19.114 45.402 40.779 54.521 73.189.931 3.308 3.94 5.47 7.216 5.47.672 0 1.356-.091 2.035-.282 3.988-1.124 6.311-5.265 5.189-9.252zm-200.722-176.693v-19.888c0-8.123 7.2-14.731 16.051-14.731h52.784c8.85 0 16.051 6.608 16.051 14.731v19.888c-1.81-.315-3.916-.512-5.895-.512h-73.095c-1.963.001-4.115.202-5.896.512zm5.895 46.981c-9.869 0-17.656-7.456-17.656-16.246 0-9.146 8.147-16.246 17.656-16.246h73.095c9.364 0 17.656 6.979 17.656 16.246 0 9.103-8.146 16.246-17.656 16.246z" fill="#007ea8"/><circle cx="303.642" cy="342.799" fill="#f95116" r="10.108"/><circle cx="208.358" cy="342.799" fill="#f95116" r="10.108"/><path d="m275.472 165.254c.096-.828.15-1.668.15-2.522 0-12.014-9.739-21.753-21.754-21.753-12.014 0-21.753 9.739-21.753 21.753s9.739 21.753 21.753 21.753c4.616 0 8.893-1.442 12.414-3.894 1.278-6.106 4.588-11.464 9.19-15.337z" fill="#17d9c3"/><circle cx="293.108" cy="186.228" fill="#17d9c3" r="27.408"/><path d="m293.108 151.32c-4.049 0-7.937.701-11.556 1.975-3.936-11.512-14.854-19.816-27.683-19.816-16.131 0-29.254 13.123-29.254 29.254 0 16.13 13.123 29.253 29.254 29.253 1.602 0 3.186-.139 4.744-.393 2.588 16.711 17.071 29.544 34.495 29.544 19.248 0 34.908-15.659 34.908-34.908s-15.66-34.909-34.908-34.909zm-53.493 11.412c0-7.86 6.394-14.254 14.254-14.254 7.575 0 13.79 5.94 14.229 13.407-3.599 3.702-6.543 8.412-8.268 13.795-1.856.858-3.88 1.305-5.961 1.305-7.859.001-14.254-6.393-14.254-14.253zm53.493 43.404c-10.977 0-19.908-8.931-19.908-19.908 0-10.915 8.892-19.908 19.908-19.908 10.977 0 19.908 8.931 19.908 19.908s-8.931 19.908-19.908 19.908z" fill="#007ea8"/><path d="m411.285 259.962v19.166c-71.217 26.518-113.495 21.507-118.774 22.265-8.228-.438.269.199-12.721-.727-15.779-1.444-35.733-5.24-50.705-10.888-2.162-.687-33.382-13.518-65.339-15.53-29.427-2.142-49.889 3.497-63.028 9.703v-23.988c0-21.428 5.21-38.97 13.269-53.933 19.794-1.026 39.807.578 58.765 4.214 14.973 3.088 7.242 1.584 16.527 3.696 46.472 11.287 60.329 26.947 96.679 32.326 37.606 5.499 80.959-2.7 121.105-17.921 2.687 9.531 4.222 20.001 4.222 31.617z" fill="#f90"/><g fill="#f95116"><path d="m277.405 362.543h-42.809c-4.143 0-7.5 3.358-7.5 7.5s3.357 7.5 7.5 7.5h42.809c4.143 0 7.5-3.358 7.5-7.5s-3.357-7.5-7.5-7.5z"/><path d="m414.279 226.307c-1.195-4.234-5.764-6.535-9.878-4.977-42.56 16.137-84.24 22.356-117.348 17.515-17.904-2.649-30.126-7.962-44.278-14.113-41.205-17.91-83.579-28.557-129.179-26.193-2.616.135-4.972 1.626-6.215 3.933-9.532 17.698-14.166 36.502-14.166 57.489v153.362c0 4.142 3.357 7.5 7.5 7.5h310.568c4.143 0 7.5-3.358 7.5-7.5 0-26.534 0-131.461 0-153.362.001-11.734-1.515-23.057-4.504-33.654zm-306.063 33.654c0-16.957 3.422-32.254 10.445-46.623 41.142-1.336 79.788 8.482 118.135 25.151 14.499 6.302 28.194 12.255 48.075 15.197 24.008 3.51 63.383 3.502 116.857-15.402 1.366 6.947 2.057 14.207 2.057 21.678v13.918c-40.369 14.547-80.234 22.392-123.385 19.31-49.993-4.598-67.427-23.36-116.111-26.423-23.006-1.673-39.747.78-56.073 6.075zm295.568 145.862h-295.568v-116.964c16.864-6.851 36.94-8.443 55.057-7.127 45.586 2.872 63.635 21.623 115.832 26.402.05.004.1.009.15.012 8.686.62 9.042.568 8.942.568 40.139 1.581 78.2-6.058 115.586-18.93v116.039z"/></g></g></svg>