<svg id="Capa_1" enable-background="new 0 0 512 512" height="512" viewBox="0 0 512 512" width="512" xmlns="http://www.w3.org/2000/svg"><g><path d="m339.816 128.128 49.891-63.722c-39.754-24.757-85.71-38.01-133.707-38.01s-93.953 13.253-133.707 38.01l49.891 63.722c.07.09.13.183.198.273 24.788-13.7 53.291-21.504 83.618-21.504s58.828 7.805 83.616 21.505c.07-.091.13-.184.2-.274z" fill="#7181ff"/><g><path d="m385.743 70.772c-38.738-24.125-83.602-36.877-129.743-36.877-46.14 0-91.004 12.752-129.742 36.877-3.516 2.189-8.143 1.115-10.331-2.402-2.189-3.516-1.114-8.141 2.401-10.331 41.12-25.608 88.727-39.144 137.672-39.144 48.946 0 96.553 13.536 137.673 39.144 3.516 2.19 4.591 6.815 2.401 10.331-2.189 3.516-6.816 4.592-10.331 2.402z" fill="#2115c2"/></g><path d="m172.185 128.128c.07.09.13.183.198.273 24.788-13.7 53.291-21.504 83.618-21.504s58.828 7.805 83.616 21.505c.069-.091.129-.184.199-.274" style="fill:none;stroke:#2115c2;stroke-width:15;stroke-linecap:round;stroke-linejoin:round;stroke-miterlimit:10"/><path d="m358.598 300.028c-8.304 1.656-15.705 5.803-21.402 11.626h-162.391c-5.697-5.824-13.098-9.97-21.402-11.626v-141.238h3.846c15.699 0 24.546-17.947 15.134-30.389 24.788-13.7 53.291-21.504 83.618-21.504s58.828 7.805 83.616 21.505c.069-.091.129-.184.199-.274-9.748 12.451-.878 30.662 14.935 30.662h3.846v141.238z" fill="#565eec"/><g><path d="m335.989 134.966c-24.348-13.457-52.008-20.569-79.989-20.569-27.983 0-55.643 7.112-79.989 20.568-3.624 2.004-8.188.689-10.192-2.936-2.003-3.625-.688-8.188 2.937-10.192 26.562-14.68 56.73-22.44 87.245-22.44 30.513 0 60.682 7.76 87.245 22.441 3.625 2.004 4.939 6.567 2.937 10.192-2.001 3.619-6.561 4.943-10.194 2.936z" fill="#2115c2"/></g><path d="m57.032 311.654h58.722c7.5-7.666 17.954-12.43 29.525-12.43 2.782 0 5.497.282 8.124.807v-141.241h-121.322v159.614c7.329-4.284 15.85-6.75 24.951-6.75z" fill="#ffff6f"/><path d="m366.722 299.225c11.572 0 22.026 4.764 29.526 12.43h58.722c9.101 0 17.622 2.466 24.95 6.749v-159.614h-121.322v141.242c2.627-.525 5.342-.807 8.124-.807z" fill="#ffff6f"/><g fill="#f90"><path d="m172.185 128.128-64.507-82.39c-7.595-9.7-22.276-9.7-29.871 0l-64.507 82.39c-9.748 12.451-.878 30.662 14.935 30.662h129.014c15.813 0 24.684-18.212 14.936-30.662z"/><path d="m339.816 128.128 64.507-82.39c7.595-9.7 22.276-9.7 29.871 0l64.507 82.39c9.748 12.451.878 30.662-14.935 30.662h-129.014c-15.813 0-24.684-18.212-14.936-30.662z"/><path d="m103.969 444.295v-103.76c0-11.243 4.498-21.432 11.784-28.88h-58.721c-27.356 0-49.531 22.176-49.531 49.531v62.458c0 27.356 22.176 49.532 49.531 49.532h58.722c-7.287-7.449-11.785-17.638-11.785-28.881z"/><path d="m174.805 473.175h162.391c-7.287-7.449-11.784-17.637-11.784-28.88v-103.76c0-11.243 4.498-21.432 11.784-28.88h-162.391c7.287 7.449 11.784 17.637 11.784 28.88v103.76c0 11.243-4.497 21.432-11.784 28.88z"/><path d="m454.969 311.654h-58.722c7.287 7.449 11.784 17.637 11.784 28.88v103.76c0 11.243-4.498 21.432-11.784 28.88h58.722c27.356 0 49.531-22.176 49.531-49.532v-62.458c0-27.354-22.176-49.53-49.531-49.53z"/></g><g><path d="m337.196 480.675h-162.391c-6.626 0-9.998-8.004-5.361-12.745 6.22-6.358 9.646-14.752 9.646-23.635v-103.76c0-8.884-3.426-17.278-9.646-23.635-4.633-4.737-1.269-12.745 5.361-12.745h162.392c6.626 0 9.998 8.005 5.361 12.745-6.22 6.358-9.646 14.751-9.646 23.635v103.76c0 8.884 3.426 17.278 9.646 23.635 4.633 4.737 1.269 12.745-5.362 12.745zm-148.021-15h133.651c-3.215-6.583-4.914-13.86-4.914-21.38v-103.76c0-7.521 1.699-14.797 4.914-21.38h-133.651c3.215 6.583 4.914 13.859 4.914 21.38v103.76c0 7.52-1.699 14.797-4.914 21.38z" fill="#f95116"/></g><path d="m145.279 299.225c-22.815 0-41.31 18.495-41.31 41.31v103.76c0 22.815 18.495 41.31 41.31 41.31 22.815 0 41.31-18.495 41.31-41.31v-103.76c0-22.815-18.495-41.31-41.31-41.31z" fill="#7181ff"/><path d="m366.722 299.225c22.815 0 41.31 18.495 41.31 41.31v103.76c0 22.815-18.495 41.31-41.31 41.31-22.815 0-41.31-18.495-41.31-41.31v-103.76c0-22.815 18.495-41.31 41.31-41.31z" fill="#7181ff"/><g><g><circle cx="304.125" cy="224.672" fill="#2115c2" r="10.211"/></g><g><path d="m277.622 259.693h-43.243c-4.143 0-7.5-3.358-7.5-7.5s3.357-7.5 7.5-7.5h43.243c4.143 0 7.5 3.358 7.5 7.5s-3.357 7.5-7.5 7.5z" fill="#2115c2"/></g><g><circle cx="207.876" cy="224.672" fill="#2115c2" r="10.211"/></g></g><path d="m178.09 123.504-64.507-82.39c-10.591-13.527-31.074-13.548-41.682 0l-64.507 82.39c-12.702 16.223-2.788 39.812 17.187 42.535v148.286c-14.839 10.308-24.581 27.464-24.581 46.861v62.458c0 31.447 25.585 57.031 57.032 57.031h58.722c3.019 0 5.743-1.81 6.913-4.592 1.171-2.782.559-5.995-1.552-8.153-6.221-6.358-9.646-14.752-9.646-23.635v-103.76c0-8.883 3.426-17.277 9.646-23.635 0 0 .001-.001.002-.002 6.417-6.56 14.999-10.173 24.162-10.173 2.219 0 4.458.223 6.655.662 4.628.926 8.969-2.618 8.969-7.355v-133.993c20.009-2.727 29.865-26.343 17.187-42.535zm-76.706 342.171h-44.352c-23.177 0-42.032-18.855-42.032-42.031v-62.458c0-23.069 18.778-42.032 42.032-42.032h44.352c-3.216 6.583-4.915 13.86-4.915 21.38v103.76c0 7.521 1.699 14.798 4.915 21.381zm44.519-173.946c-12.37-.159-24.045 4.249-33.156 12.426h-55.715c-6.151 0-11.938.996-17.451 2.737v-140.602h106.322zm11.346-140.439c-45.575 0-84.745 0-129.014 0-9.547 0-14.953-10.973-9.03-18.539l64.507-82.39c4.589-5.862 13.464-5.87 18.061 0l64.507 82.39c5.901 7.538.559 18.539-9.031 18.539z" fill="#f95116"/><path d="m487.419 314.325v-148.286c20.005-2.726 29.868-26.34 17.188-42.535l-64.507-82.39c-10.591-13.527-31.074-13.548-41.682 0l-64.507 82.39c-12.702 16.223-2.788 39.812 17.187 42.535v133.992c0 4.737 4.341 8.281 8.969 7.355 2.197-.439 4.437-.662 6.655-.662 9.163 0 17.745 3.613 24.162 10.173.001 0 .001.001.002.002 6.22 6.357 9.646 14.751 9.646 23.635v103.76c0 8.884-3.426 17.277-9.646 23.635-4.636 4.74-1.265 12.745 5.361 12.745h58.722c31.447 0 57.031-25.584 57.031-57.031v-62.458c0-19.396-9.741-36.553-24.581-46.86zm-141.697-181.574 64.507-82.39c4.589-5.862 13.464-5.87 18.061 0l64.507 82.39c5.888 7.522.572 18.539-9.03 18.539-45.575 0-84.745 0-129.014 0-9.574 0-14.942-10.988-9.031-18.539zm20.376 158.978v-125.439h106.321v140.602c-4.766-1.589-11.332-2.737-17.45-2.737h-55.715c-9.111-8.177-20.792-12.585-33.156-12.426zm130.902 131.915c0 23.176-18.855 42.031-42.031 42.031h-44.352c3.215-6.583 4.914-13.859 4.914-21.38v-103.76c0-7.521-1.699-14.797-4.914-21.38h44.352c23.2 0 42.031 18.898 42.031 42.032z" fill="#f95116"/><g><path d="m145.279 493.105c-26.914 0-48.811-21.896-48.811-48.81v-103.76c0-26.914 21.896-48.81 48.811-48.81s48.81 21.896 48.81 48.81v103.76c0 26.914-21.896 48.81-48.81 48.81zm0-186.38c-18.644 0-33.811 15.167-33.811 33.81v103.76c0 18.643 15.167 33.81 33.811 33.81 18.643 0 33.81-15.167 33.81-33.81v-103.76c0-18.643-15.167-33.81-33.81-33.81z" fill="#2115c2"/></g><g><path d="m366.722 493.105c-26.914 0-48.81-21.896-48.81-48.81v-103.76c0-26.914 21.896-48.81 48.81-48.81s48.81 21.896 48.81 48.81v103.76c-.001 26.914-21.896 48.81-48.81 48.81zm0-186.38c-18.643 0-33.81 15.167-33.81 33.81v103.76c0 18.643 15.167 33.81 33.81 33.81s33.81-15.167 33.81-33.81v-103.76c-.001-18.643-15.168-33.81-33.81-33.81z" fill="#2115c2"/></g></g></svg>