<svg id="Capa_1" enable-background="new 0 0 512 512" height="512" viewBox="0 0 512 512" width="512" xmlns="http://www.w3.org/2000/svg"><g><path d="m345.356 81.23.013-.05c8.522-31.767-20.552-60.841-52.319-52.32l-.05.014c-16.435-28.498-57.564-28.498-73.999 0l-.05-.013c-31.767-8.522-60.841 20.552-52.32 52.319l.014.051c-28.498 16.435-28.498 57.564 0 73.999l-.013.05c-8.522 31.767 20.552 60.841 52.319 52.32l.05-.014c16.435 28.498 57.564 28.498 73.999 0l.05.013c31.767 8.522 60.841-20.552 52.32-52.319l-.014-.05c28.498-16.437 28.498-57.565 0-74z" fill="#ff63ed"/><g><path d="m113.966 326.528c0-131.281 106.319-32.507 106.319-32.507 7.627-6.712 17.627-10.791 28.586-10.791h14.259c10.958 0 20.959 4.079 28.586 10.791s106.319-98.773 106.319 32.507c0 .556-.007 1.098-.011 1.646 35.088-71.659 55.405-123.983 55.405-123.983l-.012-.019c-7.113 2.137-14.986 2.371-22.998.048l-.026.042c-16.231 26.882-55.48 26.102-70.63-1.404l-.024-.044c-10.348 2.558-20.312.979-28.627-3.392-10.025 8.215-23.764 12.011-38.062 8.175l-.05-.013c-16.435 28.498-57.564 28.498-73.999 0l-.05.014c-14.298 3.835-28.037.039-38.062-8.175-8.315 4.371-18.279 5.95-28.627 3.392l-.024.044c-15.15 27.506-54.399 28.287-70.63 1.404l-.026-.042c-8.006 2.321-15.874 2.09-22.984-.044l-.026.015s20.317 52.324 55.405 123.983c-.004-.549-.011-1.091-.011-1.647z" fill="#88f8d8"/></g><path d="m291.715 359.035c-7.627 6.712-17.627 10.791-28.585 10.791h-14.259c-10.958 0-20.959-4.079-28.586-10.791s-41.121 38.199-72.217 35.508c12.772 23.688 26.694 48.23 41.627 72.777 14.067 23.124 39.237 37.18 66.304 37.18 27.067 0 52.237-14.055 66.304-37.18 14.933-24.547 28.855-49.089 41.627-72.777-31.094 2.691-72.215-35.508-72.215-35.508z" fill="#88f8d8"/><g><g><path d="m394.726 334.909c-3.721-1.822-5.26-6.314-3.438-10.034 33.297-68 53.476-119.129 55.051-123.148 2.027-5.871 10.079-6.919 13.442-1.522 1.25 2.004 1.494 4.499.639 6.701-.204.526-20.834 53.444-55.661 124.566-1.824 3.725-6.318 5.257-10.033 3.437z" fill="#007ea8"/></g><g><path d="m107.24 331.472c-34.825-71.123-55.455-124.04-55.659-124.566-1.34-3.45.037-7.362 3.243-9.211 3.586-2.069 8.187-.848 10.257 2.741.963 1.667 19.109 49.85 55.632 124.44 1.821 3.72.282 8.212-3.438 10.034-3.688 1.807-8.197.312-10.035-3.438z" fill="#007ea8"/></g></g><g><path d="m256 512c-29.548 0-57.409-15.627-72.711-40.782-13.999-23.01-28.069-47.609-41.821-73.115-1.966-3.646-.604-8.195 3.042-10.161 3.648-1.967 8.196-.603 10.161 3.042 13.629 25.278 27.569 49.65 41.433 72.438 12.598 20.712 35.549 33.578 59.896 33.578s47.298-12.866 59.897-33.577c13.871-22.802 27.811-47.174 41.433-72.438 1.966-3.645 6.515-5.009 10.161-3.042 3.646 1.966 5.008 6.515 3.042 10.161-13.745 25.493-27.815 50.093-41.821 73.116-15.303 25.154-43.164 40.78-72.712 40.78z" fill="#007ea8"/></g><g fill="#ffff6f"><path d="m205.572 326.528c0-12.955 5.697-24.573 14.713-32.508s-106.319-98.773-106.319 32.507 106.319 32.508 106.319 32.508c-9.016-7.934-14.713-19.552-14.713-32.507z"/><path d="m291.715 294.02c9.016 7.935 14.713 19.553 14.713 32.507 0 12.955-5.697 24.573-14.713 32.507s106.319 98.773 106.319-32.508-106.319-32.506-106.319-32.506z"/><path d="m263.13 283.229h-14.259c-23.913 0-43.298 19.385-43.298 43.298 0 23.913 19.385 43.298 43.298 43.298h14.259c23.913 0 43.298-19.385 43.298-43.298 0-23.912-19.385-43.298-43.298-43.298z"/></g><path d="m376.517 254.003c-15.379-6.704-35.419-2.703-59.556 11.896-11.01 6.66-20.266 13.978-25.567 18.441-8.086-5.435-17.81-8.611-28.264-8.611h-14.259c-10.454 0-20.178 3.177-28.264 8.612-5.301-4.464-14.557-11.781-25.568-18.442-24.138-14.6-44.176-18.601-59.556-11.896-19.255 8.394-29.018 32.795-29.018 72.525s9.763 64.131 29.018 72.525c18.987 8.277 41.823-1.17 59.556-11.896 11.011-6.66 20.267-13.978 25.568-18.441 8.086 5.435 17.811 8.611 28.264 8.611h14.259c10.454 0 20.178-3.176 28.264-8.611 5.301 4.464 14.557 11.781 25.567 18.441 17.737 10.729 40.566 20.173 59.556 11.896 19.255-8.394 29.018-32.794 29.018-72.525-.001-39.73-9.764-64.132-29.018-72.525zm-189.446 120.442c-13.502 8.138-32.374 16.627-45.603 10.853-16.532-7.216-20.003-35.943-20.003-58.771s3.471-51.554 20.003-58.77c13.563-5.921 32.935 3.217 45.602 10.853 9.219 5.557 17.253 11.748 22.344 15.941-6.986 8.621-11.342 19.878-11.342 31.977 0 11.558 3.993 22.908 11.342 31.977-5.092 4.193-13.125 10.384-22.343 15.94zm61.8-12.119c-19.733 0-35.799-16.065-35.799-35.798 0-19.722 16.066-35.798 35.799-35.798h14.259c19.892 0 35.799 16.239 35.799 35.798 0 19.819-16.14 35.798-35.799 35.798zm121.66 22.972c-13.229 5.774-32.101-2.715-45.603-10.853-9.218-5.557-17.251-11.748-22.343-15.94 7.348-9.065 11.343-20.399 11.343-31.977 0-11.777-4.13-23.079-11.345-31.979 5.042-4.154 12.979-10.273 22.141-15.814 13.563-8.205 32.518-16.77 45.798-10.98 16.54 7.21 20.012 35.941 20.012 58.774 0 22.826-3.471 51.553-20.003 58.769z" fill="#f90"/><circle cx="256" cy="118.229" fill="#ffff6f" r="36.186"/><path d="m166.631 155.278.013-.05c-28.498-16.435-28.498-57.564 0-73.999l-.014-.051c-4.756-17.731 2.206-34.615 14.806-44.599-9.209-5.656-20.74-7.771-32.568-4.342l-.026-.042c-16.229-26.882-55.478-26.101-70.628 1.405l-.024.044c-30.491-7.539-57.7 20.774-48.955 50.942l-.042.026c-26.882 16.231-26.102 55.48 1.404 70.63l.044.024c-7.539 30.491 20.774 57.7 50.942 48.955l.026.042c16.231 26.882 55.48 26.102 70.63-1.404l.024-.044c10.348 2.558 20.312.979 28.627-3.392-12.249-10.036-18.945-26.676-14.259-44.145z" fill="#ffceff"/><path d="m345.369 155.278-.013-.05c28.498-16.435 28.498-57.564 0-73.999l.013-.051c4.756-17.731-2.206-34.615-14.806-44.599 9.209-5.656 20.74-7.771 32.568-4.342l.026-.042c16.231-26.882 55.48-26.102 70.63 1.404l.024.044c30.491-7.539 57.7 20.774 48.955 50.942l.042.026c26.882 16.231 26.102 55.48-1.404 70.63l-.044.024c7.539 30.491-20.774 57.7-50.942 48.955l-.026.042c-16.231 26.882-55.48 26.102-70.63-1.404l-.024-.044c-10.348 2.558-20.312.979-28.627-3.392 12.249-10.035 18.944-26.675 14.258-44.144z" fill="#ff9bff"/><path d="m147.256 105.282c-1.769-4.384-4.461-8.476-8.09-11.964-13.758-13.221-35.629-12.787-48.851.971s-12.787 35.629.971 48.851c13.758 13.221 35.629 12.787 48.851-.971 3.15-3.278 5.515-7.019 7.12-10.991-2.634-8.403-2.634-17.494-.001-25.896z" fill="#ffff6f"/><path d="m364.745 105.282c1.769-4.384 4.461-8.476 8.09-11.964 13.758-13.221 35.629-12.787 48.851.971s12.787 35.629-.971 48.851c-13.758 13.221-35.629 12.787-48.851-.971-3.15-3.278-5.515-7.019-7.12-10.991 2.634-8.403 2.634-17.494.001-25.896z" fill="#ffff6f"/><g><path d="m256 161.915c-24.089 0-43.687-19.598-43.687-43.686 0-24.089 19.598-43.686 43.687-43.686s43.687 19.598 43.687 43.686c0 24.089-19.598 43.686-43.687 43.686zm0-72.372c-15.817 0-28.687 12.869-28.687 28.686 0 15.818 12.869 28.686 28.687 28.686s28.687-12.869 28.687-28.686c0-15.818-12.87-28.686-28.687-28.686z" fill="#f90"/></g><g><path d="m86.089 148.548c-16.755-16.103-17.288-42.697-1.182-59.455 16.065-16.718 42.737-17.248 59.455-1.182 4.305 4.136 7.618 9.037 9.849 14.566.649 1.609.721 3.393.202 5.049-2.163 6.903-2.163 14.507 0 21.411.519 1.656.447 3.441-.202 5.05-2.016 4.993-4.932 9.495-8.667 13.381-16.04 16.689-42.711 17.271-59.455 1.18zm9.633-49.062c-10.357 10.778-10.02 27.886.762 38.246 10.752 10.334 27.909 9.994 38.246-.761 1.84-1.915 3.371-4.062 4.569-6.404-2.003-8.051-2.002-16.626 0-24.678-1.36-2.664-3.146-5.066-5.33-7.164-10.756-10.337-27.915-9.99-38.247.761z" fill="#f90"/></g><g><path d="m366.456 147.365c-3.733-3.885-6.649-8.386-8.666-13.379-.65-1.61-.722-3.396-.202-5.052 2.163-6.903 2.164-14.506 0-21.41-.519-1.656-.447-3.44.202-5.049 2.229-5.528 5.543-10.428 9.848-14.565 16.721-16.066 43.392-15.535 59.456 1.182 16.065 16.718 15.535 43.39-1.182 59.455-16.74 16.088-43.352 15.577-59.456-1.182zm6.246-16.798c1.198 2.343 2.729 4.49 4.569 6.404 10.357 10.778 27.466 11.124 38.246.761 10.754-10.335 11.096-27.492.761-38.246s-27.49-11.094-38.247-.76c-2.183 2.098-3.969 4.5-5.329 7.164 2.002 8.051 2.002 16.627 0 24.677z" fill="#f90"/></g><path d="m510 120.48c.311-15.587-6.605-29.861-18.786-39.197 2.606-15.069-1.995-30.258-12.804-41.505-10.808-11.247-25.799-16.449-40.957-14.446-8.812-12.519-22.817-20.019-38.427-20.329-15.621-.304-29.926 6.638-39.208 18.783-9.836-1.703-19.741-.326-28.704 3.973-10.237-6.592-22.434-9.208-34.64-7.284-9.416-12.915-24.18-20.475-40.475-20.475-16.293 0-31.056 7.561-40.472 20.475-12.205-1.923-24.403.692-34.641 7.285-8.964-4.3-18.871-5.677-28.708-3.973-9.302-12.158-23.638-19.086-39.203-18.784-15.609.31-29.614 7.809-38.427 20.329-15.16-2.002-30.15 3.199-40.957 14.445-10.808 11.246-15.41 26.432-12.806 41.499-12.159 9.302-19.096 23.595-18.785 39.204.311 15.6 7.801 29.598 20.33 38.424-2.005 15.16 3.197 30.151 14.443 40.959 11.247 10.809 26.433 15.411 41.499 12.806 9.103 11.898 22.982 18.796 38.201 18.795.333 0 .669-.003 1.004-.01 15.616-.311 29.626-7.815 38.432-20.334 8.18 1.063 16.457.018 24.053-3.028 10.417 7.037 22.977 9.87 35.563 7.89 9.416 12.916 24.18 20.477 40.474 20.477h.001c16.292 0 31.058-7.561 40.474-20.475 12.576 1.982 25.142-.851 35.564-7.892 7.595 3.046 15.87 4.091 24.055 3.028 8.811 12.522 22.819 20.024 38.431 20.335.336.007.67.01 1.004.01 15.196 0 29.062-6.88 38.193-18.797 15.069 2.606 30.257-1.995 41.505-12.804 11.246-10.808 16.449-25.798 14.446-40.957 12.518-8.811 20.018-22.817 20.328-38.427zm-355.938 75.054c-3.298-.816-6.756.731-8.394 3.707-5.807 10.542-16.456 16.978-28.488 17.217-12.054.245-22.931-5.769-29.16-16.085-1.76-2.946-5.274-4.299-8.525-3.355-11.563 3.351-23.646.374-32.327-7.968-8.679-8.341-12.136-20.297-9.246-31.983.815-3.298-.73-6.755-3.706-8.394-10.542-5.806-16.979-16.457-17.218-28.489s5.769-22.93 16.146-29.195c2.887-1.763 4.237-5.241 3.295-8.49-3.352-11.562-.372-23.646 7.969-32.326s20.297-12.136 31.984-9.247c3.296.815 6.753-.731 8.393-3.706 5.805-10.544 16.454-16.98 28.487-17.22 12.011-.243 22.93 5.769 29.164 16.093 1.751 2.921 5.251 4.296 8.521 3.348 5.823-1.688 11.775-1.786 17.402-.355-8.842 11.118-12.262 25.073-10.111 38.668-12.917 9.417-20.477 24.18-20.478 40.475 0 16.323 7.647 31.119 20.476 40.474-2.163 13.698 1.491 27.099 9.189 37.431-4.359.708-8.869.513-13.373-.6zm140.89 4.809c-3.279-.884-6.75.548-8.449 3.495-6.363 11.033-17.767 17.621-30.503 17.62-12.736 0-24.14-6.587-30.502-17.62-1.699-2.946-5.214-4.363-8.491-3.483-26.112 7.005-50.159-16.907-43.133-43.125.001-.002.001-.005.002-.008.008-.029.025-.096.034-.134.001-.003.002-.009.003-.011 0-.001.001-.003.001-.003.794-3.142-.571-6.639-3.522-8.341-11.158-6.433-17.62-17.966-17.62-30.502 0-12.736 6.587-24.139 17.62-30.502 2.952-1.703 4.361-5.22 3.483-8.491-.001-.005-.002-.01-.003-.015-3.61-13.472.846-27.731 12.213-36.753 8.698-6.91 19.981-9.299 30.981-6.348 3.277.876 6.738-.558 8.433-3.499 6.361-11.036 17.765-17.623 30.501-17.623s24.14 6.587 30.503 17.621c1.697 2.942 5.207 4.364 8.491 3.483 10.958-2.94 22.244-.542 30.946 6.384 11.218 8.916 15.841 23.113 12.185 36.748-.001.003-.002.01-.003.013l-.002.009v.002c-.892 3.493.702 6.861 3.49 8.467 11.033 6.363 17.62 17.766 17.62 30.502.001 12.744-6.655 24.179-17.62 30.502-2.786 1.607-4.434 4.821-3.41 8.804 3.29 12.704-.627 25.607-9.859 34.341-.012.011-.024.022-.035.033-9.365 8.836-21.801 11.533-33.354 8.434zm182.78-51.642c-2.97 1.641-4.467 5.071-3.653 8.364 2.89 11.686-.567 23.642-9.247 31.983-8.678 8.341-20.762 11.319-32.325 7.968-3.258-.945-6.778.461-8.534 3.369-6.221 10.303-17.065 16.312-29.151 16.072-12.032-.239-22.682-6.676-28.488-17.217-.01-.019-.045-.081-.055-.099-1.35-2.402-3.874-3.827-6.538-3.827-2.34 0-7.044 2.139-15.175.819 7.8-10.462 11.338-23.898 9.193-37.434 12.913-9.417 20.471-24.178 20.471-40.47 0-16.546-7.829-31.247-20.473-40.471 2.163-13.616-1.282-27.567-10.115-38.672 5.627-1.431 11.579-1.333 17.401.355 3.223.935 6.706-.431 8.481-3.282.018-.029.036-.058.054-.087 6.219-10.302 17.108-16.314 29.15-16.072 12.033.239 22.683 6.676 28.535 17.301 1.648 2.95 5.064 4.435 8.348 3.623 11.687-2.889 23.643.567 31.984 9.248 8.341 8.679 11.319 20.764 7.968 32.325-.946 3.262.462 6.778 3.369 8.534 10.303 6.221 16.311 17.118 16.071 29.151s-6.675 22.683-17.271 28.519z" fill="#e207b9"/></g></svg>