<svg id="Capa_1" enable-background="new 0 0 512 512" height="512" viewBox="0 0 512 512" width="512" xmlns="http://www.w3.org/2000/svg"><g><path d="m140.041 371.947c-10.741-3.997-20.125-9.995-27.911-17.401l-98.187 98.187c-8.583 8.583-8.583 22.498 0 31.08l14.231 14.231c8.583 8.583 22.498 8.583 31.08 0l98.187-98.187c-7.405-7.786-13.404-17.17-17.4-27.91z" fill="#ffff6f"/><g><path d="m22.871 503.347-14.231-14.231c-11.52-11.52-11.52-30.165 0-41.686l98.187-98.187c2.879-2.877 7.525-2.936 10.472-.131 7.299 6.943 15.83 12.261 25.356 15.806 2.043.76 3.653 2.371 4.414 4.413 3.545 9.526 8.863 18.058 15.807 25.357 2.804 2.948 2.746 7.595-.131 10.472l-98.187 98.187c-11.52 11.519-30.165 11.521-41.687 0zm89.601-138.538-93.225 93.226c-5.645 5.645-5.645 14.83 0 20.474l14.231 14.231c5.645 5.645 14.83 5.645 20.474 0l93.226-93.226c-5.316-6.593-9.643-13.888-12.92-21.785-7.898-3.276-15.192-7.603-21.786-12.92z" fill="#f90"/></g><path d="m140.041 371.947c-10.741-3.997-20.125-9.995-27.911-17.401l-20.822 20.822c3.956 3.816 8.153 7.312 12.578 10.475 8.603 6.149 16.109 13.654 22.258 22.258 3.163 4.426 6.66 8.623 10.476 12.579l20.822-20.822c-7.406-7.787-13.405-17.171-17.401-27.911z" fill="#f90"/><path d="m493.715 183.748-3.386-5.943.147-.344c18.452-43.072-2.87-92.822-46.786-109.163h-.001c-16.341-43.916-66.091-65.239-109.163-46.787l-.344.147-5.944-3.387c-38.493-21.935-87.448-9.334-110.568 28.459l-3.74 6.114-9.698.312c-43.225 1.392-77.941 36.108-79.333 79.333l-.312 9.698-6.114 3.74c-37.793 23.12-50.394 72.075-28.459 110.568l3.386 5.943-.147.344c-18.452 43.072 2.87 92.822 46.786 109.163h.001c16.341 43.916 66.091 65.239 109.163 46.787l.344-.147 5.944 3.387c38.493 21.935 87.448 9.334 110.568-28.459l3.74-6.114 9.698-.312c43.225-1.392 77.941-36.108 79.333-79.333l.312-9.698 6.114-3.74c37.794-23.119 50.394-72.075 28.459-110.568z" fill="#ffceff"/><g><path d="m295.984 440.258c-26.799.001-45.737-12.825-46.978-13.349-21.882 8.438-45.671 8.008-67.36-1.288-21.688-9.295-38.406-26.226-47.388-47.891-21.665-8.982-38.596-25.699-47.891-47.387-9.296-21.69-9.726-45.478-1.288-67.362-.524-1.501-20.682-29.824-10.496-69.403 10.205-39.646 41.429-54.59 42.639-55.676l.183-5.653c1.515-47.039 39.548-85.073 86.588-86.588l5.653-.182c1.051-1.172 16.137-32.462 55.676-42.639 39.205-10.091 68.085 10.035 69.403 10.495 21.884-8.438 45.672-8.008 67.362 1.288 21.688 9.296 38.405 26.226 47.387 47.891 21.665 8.982 38.596 25.699 47.891 47.388 9.296 21.688 9.724 45.478 1.287 67.362l1.58 2.771c11.579 20.319 14.744 43.983 8.916 66.632-10.205 39.646-41.429 54.59-42.639 55.676l-.183 5.653c-1.515 47.039-39.548 85.073-86.587 86.588l-5.654.182-1.629 2.663c-12.204 19.949-31.398 34.146-54.046 39.976-7.417 1.908-14.945 2.853-22.426 2.853zm-42.724-28.188c2.885 1.062 26.522 19.788 61.41 10.808 35.029-9.016 46.57-36.893 48.732-39.393 1.318-2.154 3.632-3.5 6.156-3.581l9.698-.312c39.156-1.261 70.817-32.922 72.078-72.079l.313-9.698c.081-2.524 1.428-4.838 3.582-6.156 2.467-2.134 30.39-13.755 39.392-48.731 8.995-34.942-9.663-58.298-10.808-61.409-1.163-2.041-1.303-4.509-.377-6.668l.147-.344c8.108-18.925 8.106-39.771-.005-58.696s-23.206-33.303-42.503-40.483c-2.043-.76-3.653-2.371-4.414-4.413-7.181-19.298-21.559-34.393-40.484-42.504-31.931-13.685-58.209-.029-59.043.143-2.158.924-4.624.785-6.666-.378-2.842-1.046-26.52-19.788-61.409-10.808-35.029 9.016-46.569 36.892-48.731 39.392-1.317 2.154-3.632 3.501-6.156 3.582l-9.698.312c-39.157 1.261-70.818 32.922-72.079 72.079l-.312 9.698c-.081 2.524-1.428 4.838-3.582 6.156-2.467 2.134-30.39 13.755-39.392 48.731-8.995 34.942 9.68 58.343 10.808 61.409 2.07 3.635.253 6.893.23 7.011-8.108 18.927-8.106 39.773.005 58.698s23.206 33.302 42.503 40.483c2.043.76 3.654 2.371 4.414 4.413 7.181 19.298 21.559 34.393 40.485 42.504 31.931 13.686 58.225.025 59.041-.143 2.113-.906 4.582-.81 6.665.377z" fill="#e207b9"/></g><circle cx="284.149" cy="309.181" fill="#e207b9" r="12.204"/><g><path d="m238.492 317.54c-1.919 0-3.839-.732-5.303-2.197l-36.545-36.545c-2.929-2.929-2.929-7.677 0-10.606 2.93-2.929 7.677-2.929 10.607 0l36.545 36.545c2.929 2.929 2.929 7.677 0 10.606-1.465 1.465-3.385 2.197-5.304 2.197z" fill="#e207b9"/></g><circle cx="202.807" cy="227.838" fill="#e207b9" r="12.204"/></g></svg>