<svg id="Capa_1" enable-background="new 0 0 512 512" height="512" viewBox="0 0 512 512" width="512" xmlns="http://www.w3.org/2000/svg"><g><path d="m256 112.898c-8.021 0-15.493-2.328-21.797-6.332v59.572h43.595v-59.572c-6.305 4.004-13.777 6.332-21.798 6.332z" fill="#ffd600"/><path d="m256 7.5c-22.493 0-40.726 42.179-40.726 64.672s18.234 40.726 40.726 40.726 40.726-18.234 40.726-40.726-18.233-64.672-40.726-64.672z" fill="#ffff6f"/><path d="m304.226 72.172c0-25.351-19.888-72.172-48.226-72.172-28.339 0-48.227 46.821-48.227 72.172 0 15.579 7.432 29.448 18.929 38.27v55.697c0 4.142 3.357 7.5 7.5 7.5h43.595c4.143 0 7.5-3.358 7.5-7.5v-55.696c11.497-8.823 18.929-22.692 18.929-38.271zm-33.929 86.467h-28.595v-40.404c4.39 1.361 9.39 2.164 14.298 2.164 5.03 0 10.132-.86 14.297-2.164zm-14.297-53.241c-18.286 0-33.227-14.894-33.227-33.227 0-10.301 4.419-25.229 10.995-37.147 6.92-12.538 15.231-20.024 22.232-20.024s15.312 7.486 22.23 20.024c6.576 11.918 10.995 26.847 10.995 37.147.001 18.253-14.877 33.227-33.225 33.227z" fill="#f90"/><g><path d="m341.537 401.318v79.736c0 12.949-10.498 23.447-23.447 23.447h-39.138c-12.949 0-23.447-10.498-23.447-23.447s10.498-23.447 23.447-23.447h15.691v-56.289z" fill="#ff9bff"/></g><g><path d="m232.414 401.318v79.736c0 12.949-10.498 23.447-23.447 23.447h-39.138c-12.949 0-23.447-10.498-23.447-23.447s10.498-23.447 23.447-23.447h15.691v-56.289z" fill="#ff9bff"/></g><path d="m427.459 262.671c-15.705 6.388-33.284 6.388-48.988 0-15.705-6.388-33.283-6.388-48.988 0-15.705 6.388-33.283 6.388-48.988 0-15.705-6.388-33.283-6.388-48.988 0-15.705 6.388-33.283 6.388-48.988 0-15.705-6.388-33.283-6.388-48.988 0-15.705 6.388-33.283 6.388-48.988 0-4.265-1.735-8.087-4.182-11.393-7.143v88.252c0 31.777 25.761 57.538 57.538 57.538h250.627c31.777 0 57.538-25.761 57.538-57.538v-88.252c-3.308 2.961-7.129 5.408-11.394 7.143z" fill="#b98eff"/><path d="m407.459 166.139h-302.918c-24.573 0-44.493 19.92-44.493 44.493v15.633c0 15.988 9.685 30.382 24.494 36.405 15.705 6.388 33.283 6.388 48.988 0 15.705-6.388 33.283-6.388 48.988 0 15.705 6.388 33.283 6.388 48.988 0 15.705-6.388 33.283-6.388 48.988 0 15.705 6.388 33.283 6.388 48.988 0 15.705-6.388 33.283-6.388 48.988 0 15.705 6.388 33.283 6.388 48.988 0 14.809-6.024 24.494-20.418 24.494-36.405v-15.633c.001-24.573-19.92-44.493-44.493-44.493z" fill="#ff9bff"/><g><g><circle cx="309.677" cy="318.009" fill="#6d00ca" r="11.389"/></g><g><path d="m280.116 356.204h-48.231c-4.143 0-7.5-3.358-7.5-7.5s3.357-7.5 7.5-7.5h48.231c4.143 0 7.5 3.358 7.5 7.5s-3.358 7.5-7.5 7.5z" fill="#6d00ca"/></g><g><circle cx="202.323" cy="318.009" fill="#6d00ca" r="11.389"/></g></g><g><g><path d="m318.09 512h-39.138c-17.064 0-30.947-13.883-30.947-30.947s13.883-30.947 30.947-30.947h8.19v-48.789c0-4.142 3.357-7.5 7.5-7.5s7.5 3.358 7.5 7.5v56.289c0 4.142-3.357 7.5-7.5 7.5h-15.69c-8.793 0-15.947 7.154-15.947 15.947s7.154 15.947 15.947 15.947h39.138c8.793 0 15.946-7.154 15.946-15.947v-79.736c0-4.142 3.357-7.5 7.5-7.5s7.5 3.358 7.5 7.5v79.736c.001 17.064-13.882 30.947-30.946 30.947z" fill="#e207b9"/></g></g><g><g><path d="m208.967 512h-39.137c-17.064 0-30.947-13.883-30.947-30.947s13.883-30.947 30.947-30.947h8.191v-48.789c0-4.142 3.357-7.5 7.5-7.5s7.5 3.358 7.5 7.5v56.289c0 4.142-3.357 7.5-7.5 7.5h-15.691c-8.793 0-15.947 7.154-15.947 15.947s7.154 15.947 15.947 15.947h39.138c8.793 0 15.946-7.154 15.946-15.947v-79.736c0-4.142 3.357-7.5 7.5-7.5s7.5 3.358 7.5 7.5v79.736c0 17.064-13.883 30.947-30.947 30.947z" fill="#e207b9"/></g></g><path d="m185.521 401.318h46.893v31.331h-46.893z" fill="#e207b9"/><path d="m294.643 401.318h46.893v31.331h-46.893z" fill="#e207b9"/><g><path d="m381.313 408.818h-250.626c-35.862 0-65.038-29.176-65.038-65.038v-88.252c0-4.142 3.357-7.5 7.5-7.5s7.5 3.358 7.5 7.5v88.252c0 27.591 22.447 50.038 50.038 50.038h250.626c27.591 0 50.038-22.447 50.038-50.038v-88.252c0-4.142 3.357-7.5 7.5-7.5s7.5 3.358 7.5 7.5v88.252c0 35.862-29.176 65.038-65.038 65.038z" fill="#6d00ca"/></g><g><path d="m375.645 269.618c-13.975-5.684-29.364-5.684-43.337 0-17.617 7.166-37.021 7.166-54.641 0-13.973-5.684-29.362-5.684-43.335 0-17.617 7.166-37.021 7.167-54.641 0-13.973-5.684-29.363-5.684-43.336 0-17.618 7.166-37.022 7.167-54.641 0-17.719-7.207-29.168-24.224-29.168-43.353v-15.633c0-28.669 23.324-51.994 51.993-51.994h302.919c28.669 0 51.993 23.324 51.993 51.994v15.633c0 19.129-11.449 36.146-29.169 43.353-17.612 7.165-37.019 7.166-54.637 0zm-190.301-13.895c13.973 5.684 29.362 5.684 43.335 0 17.618-7.166 37.022-7.167 54.641 0 13.972 5.683 29.362 5.684 43.336 0 17.619-7.166 37.023-7.167 54.641 0 13.973 5.684 29.363 5.684 43.336 0 12.041-4.897 19.82-16.46 19.82-29.458v-15.633c0-20.398-16.595-36.994-36.993-36.994h-302.919c-20.398 0-36.993 16.595-36.993 36.994v15.633c0 12.998 7.779 24.561 19.819 29.458 13.975 5.684 29.364 5.683 43.337 0 17.616-7.165 37.021-7.166 54.64 0z" fill="#e207b9"/></g></g></svg>