<svg id="Capa_1" enable-background="new 0 0 512 512" height="512" viewBox="0 0 512 512" width="512" xmlns="http://www.w3.org/2000/svg"><g><g><path d="m333.153 401.358v80.369c0 12.577-10.196 22.773-22.773 22.773h-38.014c-12.577 0-22.773-10.196-22.773-22.773s10.196-22.773 22.773-22.773h15.24v-57.596z" fill="#ff9bff"/></g><g><path d="m227.165 401.358v80.369c0 12.577-10.196 22.773-22.773 22.773h-38.014c-12.577 0-22.773-10.196-22.773-22.773s10.196-22.773 22.773-22.773h15.24v-57.596z" fill="#ff9bff"/></g><g><g><path d="m310.38 512h-38.014c-16.692 0-30.273-13.581-30.273-30.273s13.581-30.273 30.273-30.273h7.74v-50.096c0-4.142 3.357-7.5 7.5-7.5h45.547c4.143 0 7.5 3.358 7.5 7.5v80.369c0 16.692-13.581 30.273-30.273 30.273zm-38.014-45.546c-8.422 0-15.273 6.852-15.273 15.273s6.851 15.273 15.273 15.273h38.014c8.422 0 15.273-6.852 15.273-15.273v-72.869h-30.547v50.096c0 4.142-3.357 7.5-7.5 7.5z" fill="#e207b9"/></g></g><g><g><path d="m204.392 512h-38.014c-16.692 0-30.273-13.581-30.273-30.273s13.581-30.273 30.273-30.273h7.74v-50.096c0-4.142 3.357-7.5 7.5-7.5h45.546c4.143 0 7.5 3.358 7.5 7.5v80.369c0 16.692-13.58 30.273-30.272 30.273zm-38.014-45.546c-8.422 0-15.273 6.852-15.273 15.273s6.851 15.273 15.273 15.273h38.014c8.421 0 15.272-6.852 15.272-15.273v-72.869h-30.546v50.096c0 4.142-3.357 7.5-7.5 7.5z" fill="#e207b9"/></g></g><path d="m181.618 401.358h45.546v30.432h-45.546z" fill="#e207b9"/><path d="m287.607 401.358h45.546v30.432h-45.546z" fill="#e207b9"/><path d="m341.523 364.364c0 14.93 6.851 28.252 17.59 36.993h-206.231c10.739-8.742 17.59-22.063 17.59-36.993 0-26.342-21.352-47.694-47.694-47.694-3.362 0-6.646.351-9.814 1.004l29.324-68.48c5.409 2.124 11.295 3.294 17.464 3.294 26.342 0 47.694-21.352 47.694-47.694 0-19.169-11.305-35.687-27.609-43.269l17.142-40.024c6.646 7.65 16.801 12.367 28.642 10.973l.097-.01c5.721 13.293 18 19.939 30.279 19.939s24.558-6.646 30.279-19.939l.097.01c11.841 1.394 21.995-3.323 28.642-10.973l17.142 40.024c-16.304 7.582-27.609 24.1-27.609 43.269 0 26.342 21.352 47.694 47.694 47.694 6.169 0 12.055-1.169 17.464-3.294l29.324 68.48c-3.167-.653-6.451-1.004-9.814-1.004-26.341.001-47.693 21.353-47.693 47.694z" fill="#b98eff"/><g fill="#9448f5"><path d="m170.472 364.364c0 14.93-6.851 28.252-17.59 36.993h-19.793c-26.498 0-44.361-27.082-33.933-51.446l13.809-32.238c3.167-.653 6.451-1.004 9.814-1.004 26.341.002 47.693 21.354 47.693 47.695z"/><path d="m207.446 204.794c0 26.342-21.352 47.694-47.694 47.694-6.169 0-12.055-1.169-17.464-3.294l37.549-87.669c16.305 7.582 27.609 24.1 27.609 43.269z"/><path d="m378.906 401.358h-19.793c-10.739-8.742-17.59-22.063-17.59-36.993 0-26.342 21.352-47.694 47.694-47.694 3.362 0 6.646.351 9.814 1.004l13.809 32.238c10.427 24.362-7.437 51.445-33.934 51.445z"/><path d="m369.706 249.194c-5.409 2.124-11.295 3.294-17.464 3.294-26.342 0-47.694-21.352-47.694-47.694 0-19.169 11.305-35.687 27.609-43.269z"/></g><circle cx="305.592" cy="295.656" fill="#6d00ca" r="10.523"/><g fill="#6d00ca"><path d="m419.734 346.959c-20.283-47.361-78.297-182.824-97.823-228.411-1.632-3.807-6.038-5.573-9.848-3.942-3.808 1.631-5.572 6.04-3.941 9.847l14.47 33.786c-15.998 10.257-25.542 27.929-25.542 46.555 0 30.434 24.76 55.193 55.193 55.193 4.415 0 9.164-.594 13.243-1.598l21.759 50.815c-29.377.966-53.222 25.323-53.222 55.159 0 10.781 3.136 20.976 8.518 29.493h-173.086c5.634-8.945 8.518-19.156 8.518-29.493 0-29.745-23.775-54.191-53.223-55.159l21.76-50.815c3.842.964 8.76 1.597 13.243 1.597 30.434 0 55.193-24.76 55.193-55.193 0-18.522-9.477-36.255-25.542-46.555l14.47-33.786c1.631-3.808-.134-8.216-3.941-9.847-3.811-1.631-8.216.134-9.848 3.942 1.187-2.771-15.762 36.804-97.823 228.413-12.523 29.258 8.915 61.897 40.827 61.897h245.816c31.824.001 53.385-32.557 40.829-61.898zm-107.685-142.165c0-12.251 5.75-24.566 16.567-32.488l30.851 72.031c-2.298.416-4.653.65-7.225.65-22.163.001-40.193-18.03-40.193-40.193zm-152.296 40.194c-2.467 0-4.883-.227-7.225-.65l30.851-72.032c10.524 7.708 16.567 19.79 16.567 32.488 0 22.163-18.03 40.194-40.193 40.194zm-53.702 107.877 12.178-28.432c1.706-.187 3.196-.263 4.55-.263 22.129 0 40.194 17.996 40.194 40.194 0 11.041-4.52 21.743-12.896 29.493h-16.988c-21.037.001-35.401-21.455-27.038-40.992zm272.854 40.993h-16.987c-8.016-7.416-12.896-17.955-12.896-29.493 0-21.993 17.849-40.194 40.193-40.194 1.316 0 2.846.073 4.55.263l12.179 28.43c8.272 19.327-5.769 40.994-27.039 40.994z"/><path d="m233.716 331.518h44.563c4.143 0 7.5-3.358 7.5-7.5s-3.357-7.5-7.5-7.5h-44.563c-4.143 0-7.5 3.358-7.5 7.5s3.357 7.5 7.5 7.5z"/></g><circle cx="206.403" cy="295.656" fill="#6d00ca" r="10.523"/><path d="m315.015 121.491v.01c-6.646 7.65-16.801 12.367-28.642 10.973l-.097-.01c-5.721 13.293-18 19.939-30.279 19.939s-24.558-6.646-30.279-19.939l-.097.01c-11.841 1.394-21.995-3.323-28.642-10.973v-.01c-9.492-10.925-11.811-27.823-1.647-41.457l.068-.088-.068-.078c-17.298-23.194 1.55-55.831 30.289-52.44l.097.01c5.721-13.293 18-19.939 30.279-19.939s24.558 6.646 30.279 19.939l.097-.01c28.739-3.391 47.586 29.246 30.289 52.44l-.068.078.068.088c10.165 13.634 7.845 30.533-1.647 41.457z" fill="#ffff6f"/><g><path d="m255.997 159.903c-14.614 0-27.497-7.42-34.737-19.685-11.54-.069-22.25-4.945-29.942-13.799-.073-.085-.146-.172-.215-.26-11.282-13.191-12.947-31.495-4.654-46.2-7.059-12.422-7.061-27.338.271-40.031 7.33-12.693 20.251-20.146 34.538-20.241 7.24-12.265 20.124-19.687 34.739-19.687 14.614 0 27.498 7.42 34.738 19.684 14.275.088 27.205 7.542 34.541 20.245 7.331 12.693 7.329 27.609.271 40.031 8.292 14.705 6.627 33.008-4.653 46.199-.07.088-.143.175-.216.26-7.688 8.848-18.388 13.723-29.94 13.796-7.241 12.267-20.126 19.688-34.741 19.688zm-30.368-34.929c2.982 0 5.786 1.755 6.979 4.526 4.888 11.357 15.287 15.404 23.39 15.404s18.503-4.047 23.391-15.404c1.292-3.003 4.386-4.824 7.635-4.498.044.004.185.019.229.024 8.432.992 16.402-2.012 21.928-8.244.058-.071.115-.14.175-.209 6.737-7.754 9.756-20.647 1.34-31.995l-.017-.022c-2.157-2.77-2.099-6.655.109-9.354 7.23-9.859 5.529-20.796 1.501-27.77-4.053-7.019-12.754-14.002-25.034-12.553-.044.005-.088.01-.133.014-3.267.324-6.44-1.485-7.732-4.488-4.89-11.358-15.29-15.405-23.393-15.405s-18.502 4.047-23.39 15.404c-1.292 3.003-4.372 4.825-7.635 4.498-.045-.004-.187-.019-.23-.024-12.271-1.449-20.981 5.535-25.034 12.553-4.028 6.974-5.729 17.911 1.501 27.77 2.208 2.7 2.267 6.584.109 9.355l-.017.021c-8.418 11.349-5.398 24.241 1.339 31.996.061.069.119.139.176.21 5.527 6.232 13.497 9.236 21.928 8.244.044-.005.087-.01.131-.014.252-.027.504-.039.754-.039z" fill="#f90"/></g></g></svg>