<svg id="Capa_1" enable-background="new 0 0 512 512" height="512" viewBox="0 0 512 512" width="512" xmlns="http://www.w3.org/2000/svg"><g><g><path d="m327.608 400.519v81.023c0 12.679-10.279 22.958-22.958 22.958h-38.323c-12.679 0-22.958-10.279-22.958-22.958s10.279-22.958 22.958-22.958h15.364v-58.064h45.917z" fill="#9448f5"/></g><g><path d="m220.758 400.519v81.023c0 12.679-10.279 22.958-22.958 22.958h-38.323c-12.679 0-22.958-10.279-22.958-22.958s10.279-22.958 22.958-22.958h15.364v-58.064h45.917z" fill="#9448f5"/></g><path d="m174.841 400.519h45.917v30.679h-45.917z" fill="#6d00ca"/><path d="m281.691 400.519h45.917v30.679h-45.917z" fill="#6d00ca"/><path d="m381.597 223.598h-315.064c-8.726 0-16.761-2.95-23.176-7.897v149.186c0 19.679 15.953 35.632 35.632 35.632h290.162c19.679 0 35.632-15.953 35.632-35.632v-149.191c-6.418 4.951-14.457 7.902-23.186 7.902z" fill="#b98eff"/><path d="m445.457 223.598h-40.674v141.289c0 19.679-15.953 35.632-35.632 35.632h58.741c19.679 0 35.632-15.953 35.632-35.632v-145.852c-5.374 2.91-11.528 4.563-18.067 4.563z" fill="#9448f5"/><path d="m419.608 150.533v35.054c0 20.995-17.026 38.011-38.011 38.011h-315.064c-20.985 0-38.001-17.016-38.001-38.011v-35.054c0-25.848 20.956-46.814 46.804-46.814h297.459c25.848 0 46.813 20.965 46.813 46.814z" fill="#ff9bff"/><g fill="#ff63ed"><path d="m483.468 150.533v35.054c0 20.995-17.026 38.011-38.011 38.011h-63.86c20.985 0 38.011-17.016 38.011-38.011v-35.054c0-25.848-20.966-46.814-46.814-46.814h63.86c25.849 0 46.814 20.965 46.814 46.814z"/><path d="m180.419 103.719h87.301v119.88h-87.301z"/><path d="m186.195 103.719c-7.225-7.623-11.669-17.906-11.669-29.237 0-12.728 5.597-24.142 14.455-31.937 0 0-104.454-97.041-104.454 31.937 0 11.456.828 21.121 2.33 29.237z"/><path d="m261.957 103.719c7.22-7.623 11.656-17.909 11.656-29.237 0-23.494-19.045-42.539-42.539-42.539h-14.009c-23.494 0-42.539 19.045-42.539 42.539 0 11.328 4.437 21.614 11.656 29.237z"/><path d="m273.613 74.481c0 11.332-4.444 21.615-11.669 29.237h99.338c1.502-8.116 2.33-17.781 2.33-29.237 0-128.978-104.454-31.937-104.454-31.937 8.858 7.796 14.455 19.21 14.455 31.937z"/></g><circle cx="271.056" cy="295.15" fill="#6d00ca" r="9.969"/><g fill="#6d00ca"><path d="m463.524 211.535c-4.142 0-7.5 3.358-7.5 7.5v145.852c0 15.512-12.621 28.133-28.133 28.133h-26.071c6.719-7.8 10.462-17.781 10.462-28.133v-141.289-7.902c0-4.142-3.357-7.5-7.5-7.5s-7.5 3.358-7.5 7.5v7.902 141.289c0 15.512-12.621 28.133-28.133 28.133-28.777 0-258.551 0-290.163 0-15.512 0-28.133-12.621-28.133-28.133v-149.186c0-4.141-3.357-7.5-7.5-7.5s-7.5 3.358-7.5 7.5v149.186c0 23.783 19.349 43.132 43.132 43.132h88.353v43.065h-7.865c-16.794 0-30.458 13.663-30.458 30.458s13.663 30.458 30.458 30.458h38.323c16.795 0 30.459-13.663 30.459-30.458v-73.523h45.934v43.065h-7.864c-16.795 0-30.459 13.663-30.459 30.458s13.663 30.458 30.459 30.458h38.323c16.794 0 30.458-13.663 30.458-30.458v-73.523h92.784c23.783 0 43.132-19.349 43.132-43.132v-145.852c.002-4.142-3.356-7.5-7.498-7.5zm-250.266 270.007c0 8.524-6.935 15.459-15.459 15.459h-38.323c-8.524 0-15.458-6.935-15.458-15.459s6.934-15.459 15.458-15.459h15.365c4.142 0 7.5-3.358 7.5-7.5v-50.564h30.918v73.523zm106.85 0c0 8.524-6.934 15.459-15.458 15.459h-38.323c-8.524 0-15.459-6.935-15.459-15.459s6.935-15.459 15.459-15.459h15.364c4.142 0 7.5-3.358 7.5-7.5v-50.564h30.918v73.523z"/><path d="m202.961 329.518h42.219c4.142 0 7.5-3.357 7.5-7.5 0-4.141-3.357-7.5-7.5-7.5h-42.219c-4.142 0-7.5 3.358-7.5 7.5 0 4.143 3.357 7.5 7.5 7.5z"/></g><circle cx="177.084" cy="295.15" fill="#6d00ca" r="9.969"/><path d="m436.654 96.219h-63.86-2.837c.761-6.631 1.154-13.896 1.154-21.738 0-39.09-9.618-63.103-28.588-71.373-15.155-6.607-34.881-2.671-58.63 11.695-10.774 6.517-19.839 13.673-25.062 18.068-7.948-5.32-17.496-8.429-27.758-8.429h-14.008c-10.262 0-19.809 3.109-27.758 8.429-5.224-4.395-14.288-11.551-25.062-18.068-23.749-14.366-43.477-18.301-58.63-11.695-18.97 8.269-28.588 32.282-28.588 71.373 0 7.842.394 15.108 1.154 21.738h-2.847c-29.943 0-54.303 24.365-54.303 54.314v35.054c0 25.095 20.411 45.511 45.501 45.511h378.924c25.096 0 45.512-20.416 45.512-45.511v-35.054c0-29.949-24.365-54.314-54.314-54.314zm-24.546 54.314v35.054c0 16.824-13.687 30.511-30.511 30.511h-106.377v-104.88h97.574c21.678 0 39.314 17.637 39.314 39.315zm-120.452-122.895c13.299-8.044 31.882-16.445 44.874-10.78 16.185 7.055 19.582 35.229 19.582 57.623 0 7.968-.42 15.251-1.251 21.738h-78.714c3.318-6.883 4.966-14.301 4.966-21.738 0-11.378-3.916-22.5-11.093-31.4 4.954-4.076 12.702-10.039 21.636-15.443zm-60.582 11.804c19.229 0 35.04 15.623 35.04 35.039 0 7.7-2.516 15.358-7.586 21.738h-68.915c-5.039-6.344-7.586-13.979-7.586-21.738 0-19.224 15.65-35.039 35.04-35.039zm-139.047 35.039c0-22.388 3.395-50.557 19.572-57.619 18.933-8.262 50.475 12.874 66.55 26.183-7.165 8.866-11.123 19.978-11.123 31.436 0 7.478 1.684 14.939 4.966 21.738h-78.713c-.832-6.486-1.252-13.768-1.252-21.738zm-55.996 111.106v-35.054c0-21.678 17.632-39.314 39.304-39.314h97.585v104.88h-106.387c-16.819-.001-30.502-13.688-30.502-30.512zm151.888 30.511v-104.88h72.302v104.88zm288.05-30.511c0 16.824-13.688 30.511-30.512 30.511h-30.12c7.514-8.292 11.771-19.204 11.771-30.511v-35.054c0-15.322-6.468-29.395-16.875-39.314h26.422c21.678 0 39.315 17.636 39.315 39.314v35.054z" fill="#e207b9"/></g></svg>