<svg id="Capa_1" enable-background="new 0 0 512 512" height="512" viewBox="0 0 512 512" width="512" xmlns="http://www.w3.org/2000/svg"><g><g><path d="m305.964 398.728v82.418c0 12.898-10.456 23.354-23.354 23.354h-38.983c-12.898 0-23.354-10.456-23.354-23.354s10.456-23.354 23.354-23.354h15.629v-59.064z" fill="#88f8d8"/></g><g><path d="m197.273 398.728v82.418c0 12.898-10.456 23.354-23.354 23.354h-38.983c-12.898 0-23.354-10.456-23.354-23.354s10.456-23.354 23.354-23.354h15.629v-59.064z" fill="#88f8d8"/></g><path d="m150.565 398.728h46.708v31.208h-46.708z" fill="#007ea8"/><path d="m259.256 398.728h46.708v31.208h-46.708z" fill="#007ea8"/><path d="m415.876 169.085c-6.305 1.609-13.269-.033-18.204-4.968l-11.442-11.442c-7.443-7.443-7.443-19.51 0-26.953 4.208-4.208 9.894-6.033 15.387-5.483-11.323-28.079-28.968-56.125-56.433-77.221-.644 3.747-2.398 7.341-5.291 10.234l-11.442 11.442c-7.443 7.443-19.51 7.443-26.952 0-7.443-7.443-7.443-19.51 0-26.952l11.442-11.442c.583-.583 1.202-1.103 1.837-1.595-23.354-10.739-51.788-17.205-86.412-17.205s-63.057 6.466-86.412 17.206c.635.491 1.254 1.012 1.837 1.595l11.442 11.442c7.443 7.443 7.443 19.51 0 26.952-7.443 7.443-19.51 7.443-26.952 0l-11.442-11.442c-2.893-2.893-4.647-6.487-5.291-10.234-27.466 21.096-45.111 49.142-56.433 77.221 5.493-.55 11.179 1.275 15.387 5.483 7.443 7.443 7.443 19.51 0 26.953l-11.442 11.442c-4.935 4.935-11.899 6.577-18.204 4.968-2.461 12.594-3.899 24.201-4.726 34.003-1.54 18.249 7.502 35.769 23.203 45.195 14.862 8.923 33.433 8.923 48.295 0 14.862-8.923 33.433-8.923 48.295 0s33.433 8.923 48.295 0c14.862-8.923 33.433-8.923 48.295 0 14.862 8.923 33.433 8.923 48.295 0s33.433-8.923 48.295 0c14.862 8.923 33.433 8.923 48.295 0 15.701-9.427 24.744-26.947 23.203-45.195-.826-9.802-2.264-21.41-4.725-34.004z" fill="#ff9bff"/><path d="m349.104 248.283c-14.862-8.923-33.433-8.923-48.295 0s-33.433 8.923-48.295 0c-14.862-8.923-33.433-8.923-48.295 0-14.862 8.923-33.433 8.923-48.295 0s-33.433-8.923-48.295 0c-11.795 7.081-25.92 8.521-38.679 4.362l20.075 99.46c5.474 27.12 29.305 46.622 56.972 46.622h164.741c27.667 0 51.498-19.502 56.972-46.622l20.075-99.46c-12.761 4.159-26.886 2.719-38.681-4.362z" fill="#88f8d8"/><g fill="#007ea8"><path d="m389.266 245.294c-4.056-.818-8.017 1.807-8.835 5.868l-20.074 99.46c-4.749 23.529-25.617 40.606-49.62 40.606-53.636 0-112.561 0-164.741 0-24.003 0-44.871-17.077-49.62-40.606l-20.076-99.46c-.819-4.06-4.769-6.688-8.836-5.868-4.06.82-6.687 4.775-5.867 8.835l20.075 99.46c5.962 29.539 31.523 51.233 61.393 52.572v44.131h-8.129c-17.014 0-30.854 13.841-30.854 30.854s13.841 30.854 30.854 30.854h38.982c17.014 0 30.854-13.841 30.854-30.854v-74.918h46.983v44.064h-8.129c-17.014 0-30.854 13.841-30.854 30.854s13.842 30.854 30.856 30.854h38.982c17.014 0 30.854-13.841 30.854-30.854v-74.979c29.957-1.25 55.62-22.972 61.596-52.578l20.074-99.46c.82-4.06-1.807-8.015-5.868-8.835zm-199.493 235.852c0 8.742-7.112 15.854-15.854 15.854h-38.982c-8.742 0-15.854-7.112-15.854-15.854s7.112-15.854 15.854-15.854h15.629c4.143 0 7.5-3.358 7.5-7.5v-51.564h31.708v74.918zm108.692 0c0 8.742-7.112 15.854-15.854 15.854h-38.982c-8.742 0-15.854-7.112-15.854-15.854s7.112-15.854 15.854-15.854h15.629c4.143 0 7.5-3.358 7.5-7.5v-51.564h31.708v74.918z"/><path d="m276.162 329.627c5.601 0 10.141-4.54 10.141-10.141s-4.54-10.141-10.141-10.141-10.141 4.541-10.141 10.141c-.001 5.601 4.54 10.141 10.141 10.141z"/><path d="m206.893 354.319h42.946c4.143 0 7.5-3.358 7.5-7.5 0-4.143-3.357-7.5-7.5-7.5h-42.946c-4.143 0-7.5 3.357-7.5 7.5 0 4.141 3.358 7.5 7.5 7.5z"/><path d="m180.571 329.627c5.601 0 10.141-4.54 10.141-10.141s-4.54-10.141-10.141-10.141-10.141 4.541-10.141 10.141c0 5.601 4.54 10.141 10.141 10.141z"/></g><g fill="#ffff6f"><path d="m317.907 165.182c-7.443-7.443-19.51-7.443-26.953 0l-11.442 11.442c-7.443 7.443-7.443 19.51 0 26.952 7.443 7.443 19.51 7.443 26.952 0l11.442-11.442c7.444-7.442 7.444-19.509.001-26.952z"/><path d="m138.825 165.182c7.443-7.443 19.51-7.443 26.953 0l11.442 11.442c7.443 7.443 7.443 19.51 0 26.952-7.443 7.443-19.51 7.443-26.952 0l-11.442-11.442c-7.444-7.442-7.444-19.509-.001-26.952z"/><path d="m247.563 93.743c-7.443-7.443-19.51-7.443-26.953 0l-11.442 11.442c-7.443 7.443-7.443 19.51 0 26.952 7.443 7.443 19.51 7.443 26.952 0l11.442-11.442c7.444-7.442 7.444-19.509.001-26.952z"/></g><g><path d="m274.21 208.88c-10.378-10.379-10.38-27.179.001-37.559l11.44-11.442c10.355-10.354 27.206-10.355 37.56 0h.001c10.354 10.355 10.354 27.204 0 37.559l-11.443 11.442c-10.379 10.379-27.178 10.38-37.559 0zm22.047-38.394-11.44 11.442c-4.517 4.516-4.519 11.827-.001 16.346 4.517 4.516 11.828 4.519 16.346 0l11.443-11.442c4.506-4.506 4.506-11.839-.001-16.346-4.506-4.507-11.838-4.507-16.347 0z" fill="#f90"/></g><g><path d="m144.964 208.88-11.441-11.442c-10.355-10.355-10.355-27.204-.001-37.559 10.379-10.378 27.179-10.382 37.56 0l11.442 11.442c10.354 10.355 10.354 27.204 0 37.559-10.381 10.379-27.179 10.38-37.56 0zm-.835-38.395c-4.507 4.507-4.507 11.84 0 16.346l11.441 11.442c4.517 4.516 11.828 4.519 16.346 0 4.507-4.507 4.507-11.84 0-16.346l-11.441-11.442c-4.517-4.517-11.83-4.517-16.346 0z" fill="#f90"/></g><g><path d="m203.866 137.441c-10.355-10.355-10.355-27.204-.001-37.559l11.443-11.442c10.378-10.379 27.177-10.38 37.559 0 10.378 10.379 10.38 27.179-.001 37.559l-11.44 11.442c-10.355 10.353-27.205 10.355-37.56 0zm22.049-38.395-11.443 11.442c-4.506 4.506-4.506 11.839.001 16.346 4.506 4.506 11.839 4.507 16.347 0l11.44-11.442c4.517-4.516 4.519-11.827.001-16.346h-.001c-4.517-4.517-11.829-4.517-16.345 0z" fill="#f90"/></g><path d="m478.002 33.929-16.644-16.644c-10.548-10.548-27.857-9.832-37.498 1.551l-47.434 56.006c10.725 14.343 18.928 29.864 25.191 45.398 4.052.406 7.991 2.117 11.162 5.113l63.672-53.926c11.383-9.641 12.099-26.95 1.551-37.498z" fill="#ffff6f"/><g><path d="m407.629 130.805c-1.879-1.775-4.216-2.847-6.76-3.102-2.774-.278-5.165-2.072-6.208-4.658-6.556-16.26-14.711-30.967-24.241-43.711-2.093-2.799-1.975-6.672.283-9.339l47.434-56.006c12.465-14.718 34.891-15.643 48.525-2.007l16.644 16.644c13.638 13.636 12.707 36.061-2.007 48.524l-63.672 53.927c-2.911 2.464-7.216 2.356-9.998-.272zm-.616-17.143c1.87.532 3.668 1.268 5.369 2.198l59.221-50.157c7.98-6.758 8.608-18.958 1.096-26.471h-.001l-16.644-16.644c-7.41-7.41-19.618-6.997-26.471 1.095l-43.64 51.526c8.082 11.572 15.149 24.468 21.07 38.453z" fill="#f90"/></g><path d="m339.894 26.301c-7.443-7.443-19.51-7.443-26.953 0l-11.442 11.442c-7.443 7.443-7.443 19.51 0 26.952 7.443 7.443 19.51 7.443 26.952 0l11.442-11.442c7.444-7.442 7.444-19.509.001-26.952z" fill="#ff63ed"/><path d="m116.838 26.301c7.443-7.443 19.51-7.443 26.953 0l11.442 11.442c7.443 7.443 7.443 19.51 0 26.952-7.443 7.443-19.51 7.443-26.952 0l-11.442-11.442c-7.443-7.442-7.443-19.509-.001-26.952z" fill="#ffceff"/><path d="m70.502 125.723c-7.443-7.443-19.51-7.443-26.953 0l-11.442 11.442c-7.443 7.443-7.443 19.51 0 26.952 7.443 7.443 19.51 7.443 26.952 0l11.442-11.442c7.444-7.442 7.444-19.509.001-26.952z" fill="#ff63ed"/><path d="m386.23 125.723c7.443-7.443 19.51-7.443 26.953 0l11.442 11.442c7.443 7.443 7.443 19.51 0 26.952-7.443 7.443-19.51 7.443-26.952 0l-11.442-11.442c-7.443-7.442-7.443-19.509-.001-26.952z" fill="#ffceff"/><path d="m429.928 131.862-11.442-11.442c-3.308-3.309-7.281-5.555-11.493-6.749-12.97-30.639-31.121-55.514-54.033-74.04-.037-6.752-2.623-13.492-7.762-18.633h-.001c-8.393-8.392-21.049-9.98-31.059-4.77-24.966-10.763-53.791-16.228-85.772-16.228-31.976 0-60.798 5.464-85.763 16.224-9.772-5.112-22.472-3.821-31.068 4.774-5.14 5.14-7.725 11.88-7.762 18.632-22.909 18.524-41.058 43.394-54.025 74.023-4.304 1.22-8.251 3.517-11.5 6.767l-11.443 11.442c-10.354 10.355-10.354 27.204.001 37.56 1.703 1.703 3.584 3.12 5.58 4.262-1.656 9.45-2.911 19.099-3.729 28.774-3.732 44.232 44.332 75.372 82.833 52.256 12.513-7.512 28.06-7.513 40.574 0 17.274 10.372 38.739 10.372 56.016 0 12.515-7.513 28.062-7.512 40.574 0 17.276 10.373 38.742 10.372 56.017 0 12.513-7.512 28.06-7.513 40.574 0 38.758 23.27 86.549-8.23 82.832-52.256-.816-9.663-2.071-19.311-3.727-28.767 2.014-1.158 3.891-2.583 5.578-4.27 10.378-10.378 10.382-27.178 0-37.559zm-10.606 10.606c4.516 4.518 4.518 11.829-.001 16.346-4.424 4.424-11.782 4.563-16.346 0l-11.441-11.441c-4.507-4.507-4.507-11.84 0-16.346 4.391-4.391 11.741-4.605 16.346 0zm-84.731-110.864c4.588 4.59 4.396 11.95 0 16.346l-11.443 11.442c-4.517 4.518-11.827 4.518-16.346 0-4.516-4.517-4.518-11.827.001-16.346l11.438-11.44c.003-.003.007-.006.01-.01 4.467-4.442 11.787-4.544 16.34.008zm-212.449 0c4.573-4.573 11.892-4.452 16.345 0l11.442 11.442c4.507 4.507 4.507 11.839 0 16.346-4.5 4.502-11.816 4.53-16.346 0l-11.441-11.441c-4.453-4.453-4.536-11.811 0-16.347zm-84.732 110.864 11.443-11.442c4.538-4.538 11.832-4.461 16.293-.046.017.016.035.03.051.046h.001c4.516 4.516 4.518 11.827-.001 16.346l-11.44 11.441c-4.52 4.52-11.884 4.463-16.347 0-4.506-4.505-4.506-11.838 0-16.345zm315.555 99.385c-17.277-10.373-38.74-10.371-56.016 0-12.514 7.512-28.062 7.514-40.575 0-17.277-10.373-38.741-10.372-56.016 0-12.515 7.514-28.062 7.512-40.574 0-17.277-10.373-38.74-10.371-56.016 0-28.194 16.924-62.865-6.152-60.165-38.134.755-8.932 1.895-17.842 3.397-26.573 6.563-.347 12.732-3.093 17.364-7.726l11.44-11.442c10.379-10.378 10.381-27.178.001-37.559-2.813-2.812-6.251-4.974-9.92-6.27 10.863-23.853 25.195-43.646 42.745-59.035.844 1.2 2.025 2.562 2.905 3.442l11.441 11.441c10.492 10.494 27.311 10.251 37.56 0 10.354-10.354 10.355-27.204 0-37.559l-5.202-5.202c21.497-8.124 46.006-12.236 73.032-12.236s51.536 4.112 73.032 12.238c-4.794 4.84-5.607 5.493-6.976 7.158-8.517 10.366-8.031 25.798 1.774 35.603 10.379 10.379 27.178 10.382 37.559 0l11.443-11.442c.911-.911 2.008-2.187 2.904-3.441 17.55 15.389 31.883 35.183 42.747 59.038-3.789 1.337-7.236 3.579-9.923 6.266-10.354 10.355-10.354 27.204.001 37.559l11.441 11.442c4.682 4.681 10.803 7.398 17.366 7.74 1.503 8.733 2.642 17.638 3.394 26.558 2.703 31.988-31.98 55.054-60.163 38.134z" fill="#e207b9"/></g></svg>