<svg id="Capa_1" enable-background="new 0 0 512 512" height="512" viewBox="0 0 512 512" width="512" xmlns="http://www.w3.org/2000/svg"><g><path d="m85.097 176.101 18.625 95.777c3.142 24.831 24.263 43.448 49.292 43.448h197.796c25.029 0 46.15-18.617 49.292-43.448l18.625-95.777z" fill="#ff63ed"/><path d="m318.401 403.589h-37.124v56.35h-14.911c-12.305 0-22.281 9.976-22.281 22.281s9.975 22.281 22.281 22.281h37.191c12.305 0 22.281-9.975 22.281-22.281v-79.133c-2.436.329-4.919.502-7.437.502z" fill="#b98eff"/><path d="m185.424 403.589c-2.658 0-5.276-.195-7.843-.561v56.911h-14.911c-12.305 0-22.281 9.976-22.281 22.281s9.976 22.281 22.281 22.281h37.191c12.305 0 22.281-9.975 22.281-22.281v-78.631z" fill="#b98eff"/><path d="m350.811 315.326h-197.796c-13.194 0-25.299-5.178-34.26-13.708l12.06 54.889c4.027 27.054 27.257 47.082 54.609 47.082h132.977c27.353 0 50.582-20.027 54.609-47.082l12.06-54.889c-8.96 8.53-21.065 13.708-34.259 13.708z" fill="#ff63ed"/><path d="m452.711 49.655-31.467 17.233-22.193-40.525 31.457-17.233c6.429-3.523 14.491-1.171 18.014 5.258l9.448 17.264c3.522 6.429 1.17 14.491-5.259 18.003z" fill="#ffd600"/><path d="m421.244 66.888-33.121 18.147-37.043-30.738c1.787-2.064 3.944-3.82 6.378-5.156l41.593-22.779z" fill="#ffff6f"/><path d="m380.773 110.684 7.35-25.649-37.043-30.738c-2.167 2.516-3.8 5.484-4.734 8.74l-13.652 47.647z" fill="#ffd600"/><g><path d="m303.558 512h-37.191c-16.421 0-29.781-13.36-29.781-29.781s13.36-29.781 29.781-29.781h7.411v-47.85c0-4.142 3.358-7.5 7.5-7.5s7.5 3.358 7.5 7.5v55.35c0 4.142-3.358 7.5-7.5 7.5h-14.911c-8.15 0-14.78 6.631-14.78 14.781s6.63 14.78 14.78 14.78h37.191c8.15 0 14.78-6.63 14.78-14.78v-78.133c0-4.142 3.358-7.5 7.5-7.5s7.5 3.358 7.5 7.5v78.133c.001 16.421-13.359 29.781-29.78 29.781z" fill="#6d00ca"/></g><path d="m185.424 403.589c-2.658 0-5.276-.195-7.843-.561v30.334h44.561v-29.773z" fill="#6d00ca"/><g><path d="m199.862 512h-37.191c-16.422 0-29.781-13.36-29.781-29.781s13.36-29.781 29.781-29.781h7.41v-48.411c0-4.142 3.358-7.5 7.5-7.5s7.5 3.358 7.5 7.5v55.911c0 4.142-3.358 7.5-7.5 7.5h-14.91c-8.15 0-14.781 6.631-14.781 14.781s6.631 14.78 14.781 14.78h37.191c8.15 0 14.78-6.63 14.78-14.78v-77.631c0-4.142 3.358-7.5 7.5-7.5s7.5 3.358 7.5 7.5v77.631c.001 16.421-13.359 29.781-29.78 29.781z" fill="#6d00ca"/></g><path d="m318.401 403.589h-37.124v29.773h44.561v-30.275c-2.436.329-4.919.502-7.437.502z" fill="#6d00ca"/><path d="m464.549 28.051-9.45-17.267c-5.502-10.042-18.15-13.735-28.195-8.232l-73.054 40.014c-7.116 3.904-12.447 10.507-14.715 18.405l-13.652 47.647c-1.141 3.982 1.162 8.135 5.144 9.276 3.963 1.135 8.129-1.143 9.276-5.144l13.422-46.843 26.239 21.772-6.001 20.939c-1.141 3.981 1.162 8.135 5.144 9.276 3.98 1.141 8.134-1.161 9.276-5.144l6.488-22.64 61.836-33.872c10.07-5.503 13.761-18.114 8.242-28.187zm-75.559 47.957-25.834-21.436 32.919-18.028c6.976 12.738 11.426 20.864 14.989 27.37zm60.125-32.935c-.002.001-.004.003-.006.004l-24.889 13.63c-4.474-8.17-10.447-19.075-14.989-27.369l24.88-13.63c2.789-1.529 6.304-.505 7.831 2.281l9.45 17.267c1.528 2.789.522 6.289-2.277 7.817z" fill="#f90"/><path d="m418.728 110.684h-333.631c-18.065 0-32.709 14.644-32.709 32.709 0 18.064 14.644 32.709 32.709 32.709h333.631c18.065 0 32.709-14.644 32.709-32.709 0-18.065-14.644-32.709-32.709-32.709z" fill="#ffceff"/><g fill="#e207b9"><path d="m312.201 241.808c7.065 0 12.792-5.727 12.792-12.792s-5.727-12.792-12.792-12.792-12.792 5.727-12.792 12.792c.001 7.065 5.728 12.792 12.792 12.792z"/><path d="m224.827 270.993h54.173c4.142 0 7.5-3.358 7.5-7.5 0-4.143-3.358-7.5-7.5-7.5h-54.173c-4.142 0-7.5 3.357-7.5 7.5-.001 4.141 3.357 7.5 7.5 7.5z"/><path d="m191.624 241.808c7.065 0 12.792-5.727 12.792-12.792s-5.727-12.792-12.792-12.792-12.792 5.727-12.792 12.792 5.727 12.792 12.792 12.792z"/><path d="m458.937 143.393c0-22.171-18.038-40.209-40.209-40.209h-333.631c-22.171 0-40.209 18.038-40.209 40.209 0 20.035 14.731 36.692 33.931 39.715l17.496 89.966c1.642 12.527 7.303 23.683 15.574 32.244l11.548 52.556c4.68 30.55 30.973 53.215 61.988 53.215h132.976c31.027 0 57.311-22.678 61.988-53.215l11.548-52.557c8.271-8.56 13.932-19.717 15.574-32.243l17.496-89.966c19.199-3.024 33.93-19.68 33.93-39.715zm-93.252 211.504c-.037.167-.068.336-.093.505-3.453 23.195-23.741 40.686-47.191 40.686h-132.976c-23.451 0-43.738-17.491-47.191-40.686-.025-.169-.057-.338-.093-.505l-8.102-36.875c7.366 3.235 15.455 4.803 22.977 4.803h197.796c7.981 0 16.003-1.74 22.977-4.803zm26.977-83.961c-2.64 20.863-20.487 36.889-41.852 36.889h-197.795c-20.935 0-39.158-15.605-41.851-36.889-.061-.476.874 4.44-16.968-87.335h315.432c-17.631 90.701-16.907 86.862-16.966 87.335zm26.066-102.335h-333.631c-13.9 0-25.208-11.309-25.208-25.208 0-13.901 11.308-25.209 25.208-25.209h333.631c13.9 0 25.209 11.308 25.209 25.209 0 13.899-11.309 25.208-25.209 25.208z"/></g></g></svg>