<svg id="Capa_1" enable-background="new 0 0 512 512" height="512" viewBox="0 0 512 512" width="512" xmlns="http://www.w3.org/2000/svg"><g><g><path d="m311.471 412.452v69.604c0 12.396-10.049 22.445-22.444 22.445h-37.465c-12.396 0-22.445-10.049-22.445-22.445s10.049-22.444 22.445-22.444h15.02v-47.16z" fill="#17d9c3"/></g><g><path d="m207.012 412.452v69.604c0 12.396-10.049 22.445-22.444 22.445h-37.465c-12.396 0-22.445-10.049-22.445-22.445s10.049-22.444 22.445-22.444h15.02v-47.16z" fill="#17d9c3"/></g><g><g><path d="m289.026 512h-37.465c-16.512 0-29.944-13.433-29.944-29.944s13.433-29.945 29.944-29.945h7.521v-39.66c0-4.142 3.357-7.5 7.5-7.5h44.889c4.143 0 7.5 3.358 7.5 7.5v69.604c-.001 16.512-13.433 29.945-29.945 29.945zm-37.465-44.889c-8.24 0-14.944 6.704-14.944 14.945 0 8.24 6.704 14.944 14.944 14.944h37.465c8.24 0 14.944-6.704 14.944-14.944v-62.104h-29.889v39.66c0 4.142-3.357 7.5-7.5 7.5h-15.02z" fill="#007ea8"/></g></g><g><g><path d="m184.567 512h-37.465c-16.512 0-29.944-13.433-29.944-29.944s13.433-29.945 29.944-29.945h7.521v-39.66c0-4.142 3.357-7.5 7.5-7.5h44.89c4.143 0 7.5 3.358 7.5 7.5v69.604c-.001 16.512-13.434 29.945-29.946 29.945zm-37.465-44.889c-8.24 0-14.944 6.704-14.944 14.945 0 8.24 6.704 14.944 14.944 14.944h37.465c8.241 0 14.945-6.704 14.945-14.944v-62.104h-29.89v39.66c0 4.142-3.357 7.5-7.5 7.5h-15.02z" fill="#007ea8"/></g></g><path d="m162.123 412.452h44.889v29.992h-44.889z" fill="#007ea8"/><path d="m266.582 412.452h44.889v29.992h-44.889z" fill="#007ea8"/><path d="m366.763 7.5h-270.51c-22.527 0-40.789 18.262-40.789 40.789v323.374c0 22.527 18.262 40.789 40.789 40.789h270.51c22.527 0 40.789-18.262 40.789-40.789v-323.374c0-22.527-18.262-40.789-40.789-40.789z" fill="#b98eff"/><g fill="#88f8d8"><circle cx="113.092" cy="65.128" r="19.275"/><circle cx="349.924" cy="65.128" r="19.275"/><circle cx="113.092" cy="354.824" r="19.275"/><circle cx="349.924" cy="354.824" r="19.275"/><circle cx="231.508" cy="257.999" r="103.008"/></g><circle cx="231.508" cy="83.92" fill="#17d9c3" r="41.714"/><circle cx="231.508" cy="257.999" fill="#17d9c3" r="66.672"/><path d="m415.747 7.5h-48.984c22.527 0 40.789 18.262 40.789 40.789v323.374c0 22.527-18.262 40.789-40.789 40.789h48.984c22.527 0 40.789-18.262 40.789-40.789v-323.374c0-22.527-18.262-40.789-40.789-40.789z" fill="#9448f5"/><g><path d="m113.092 91.903c-14.764 0-26.775-12.011-26.775-26.775s12.012-26.775 26.775-26.775 26.774 12.011 26.774 26.775c.001 14.764-12.01 26.775-26.774 26.775zm0-38.55c-6.493 0-11.775 5.282-11.775 11.775s5.282 11.775 11.775 11.775c6.492 0 11.774-5.282 11.774-11.775.001-6.493-5.281-11.775-11.774-11.775z" fill="#007ea8"/></g><g><path d="m349.923 91.903c-14.764 0-26.774-12.011-26.774-26.775s12.011-26.775 26.774-26.775 26.775 12.011 26.775 26.775c.001 14.764-12.011 26.775-26.775 26.775zm0-38.55c-6.492 0-11.774 5.282-11.774 11.775s5.282 11.775 11.774 11.775c6.493 0 11.775-5.282 11.775-11.775.001-6.493-5.281-11.775-11.775-11.775z" fill="#007ea8"/></g><g><path d="m113.092 381.599c-14.764 0-26.775-12.011-26.775-26.775s12.012-26.775 26.775-26.775 26.774 12.011 26.774 26.775c.001 14.763-12.01 26.775-26.774 26.775zm0-38.55c-6.493 0-11.775 5.282-11.775 11.775s5.282 11.775 11.775 11.775c6.492 0 11.774-5.282 11.774-11.775.001-6.493-5.281-11.775-11.774-11.775z" fill="#007ea8"/></g><g><path d="m349.923 381.599c-14.764 0-26.774-12.011-26.774-26.775s12.011-26.775 26.774-26.775 26.775 12.011 26.775 26.775c.001 14.763-12.011 26.775-26.775 26.775zm0-38.55c-6.492 0-11.774 5.282-11.774 11.775s5.282 11.775 11.774 11.775c6.493 0 11.775-5.282 11.775-11.775.001-6.493-5.281-11.775-11.775-11.775z" fill="#007ea8"/></g><g><path d="m231.508 368.507c-60.934 0-110.508-49.573-110.508-110.508s49.574-110.508 110.509-110.508 110.508 49.574 110.508 110.508-49.574 110.508-110.509 110.508zm0-206.016c-52.664 0-95.509 42.845-95.509 95.508s42.845 95.508 95.509 95.508c52.663 0 95.508-42.845 95.508-95.508s-42.844-95.508-95.508-95.508z" fill="#007ea8"/></g><g><path d="m231.508 133.134c-27.137 0-49.215-22.077-49.215-49.214s22.078-49.214 49.215-49.214 49.214 22.077 49.214 49.214-22.077 49.214-49.214 49.214zm0-83.428c-18.866 0-34.215 15.348-34.215 34.214s15.349 34.214 34.215 34.214c18.865 0 34.214-15.348 34.214-34.214s-15.348-34.214-34.214-34.214z" fill="#007ea8"/></g><g><path d="m231.508 332.171c-40.898 0-74.172-33.273-74.172-74.172 0-40.898 33.273-74.171 74.172-74.171s74.171 33.273 74.171 74.171c0 40.899-33.272 74.172-74.171 74.172zm0-133.343c-32.628 0-59.172 26.544-59.172 59.171s26.544 59.172 59.172 59.172c32.627 0 59.171-26.544 59.171-59.172 0-32.627-26.544-59.171-59.171-59.171z" fill="#007ea8"/></g><circle cx="270.202" cy="251.225" fill="#007ea8" r="8.21"/><circle cx="192.814" cy="251.225" fill="#007ea8" r="8.21"/><path d="m415.747 0c-14.974 0-302.721 0-319.494 0-26.626 0-48.289 21.663-48.289 48.289v323.374c0 26.626 21.662 48.289 48.288 48.289h319.494c26.627 0 48.289-21.663 48.289-48.289v-323.374c.001-26.626-21.661-48.289-48.288-48.289zm-352.783 371.663v-323.374c0-18.355 14.933-33.289 33.289-33.289h270.511c18.355 0 33.288 14.934 33.288 33.289v323.374c0 18.355-14.933 33.289-33.288 33.289h-270.511c-18.356 0-33.289-14.933-33.289-33.289zm386.072 0c0 18.355-14.934 33.289-33.289 33.289h-14.034c8.422-8.831 13.339-20.763 13.339-33.289v-323.374c0-12.452-4.822-24.327-13.339-33.289h14.034c18.355 0 33.289 14.934 33.289 33.289z" fill="#6d00ca"/><g><path d="m248.892 280.852h-34.769c-4.143 0-7.5-3.358-7.5-7.5s3.357-7.5 7.5-7.5h34.769c4.143 0 7.5 3.358 7.5 7.5s-3.357 7.5-7.5 7.5z" fill="#007ea8"/></g></g></svg>