<svg id="Capa_1" enable-background="new 0 0 512 512" height="512" viewBox="0 0 512 512" width="512" xmlns="http://www.w3.org/2000/svg"><g><path d="m372.293 43.193c-6.911 0-13.693.552-20.31 1.601 28.39 25.995 46.196 63.359 46.196 104.886 0 40.159-16.651 90.483-43.425 130.073-11.127 16.454-26.032 29.549-43.122 38.509 17.658 11.937 38.742 18.559 60.66 18.559 35.769 0 69.336-17.608 89.374-47.238 24.23-35.829 39.3-81.372 39.3-117.716.001-71.065-57.608-128.674-128.673-128.674z" fill="#7181ff"/><path d="m393.32 377.032h-36.709l.412.629c3.469 5.298 3.469 12.144 0 17.441-11.003 16.803-11.003 38.517 0 55.321 3.469 5.298 3.469 12.144 0 17.441-5.23 7.986-2.996 18.701 4.991 23.931 2.92 1.912 6.206 2.826 9.454 2.826 5.635 0 11.159-2.751 14.477-7.818 11.003-16.803 11.003-38.517 0-55.32-3.469-5.298-3.469-12.145 0-17.442 7.29-11.132 9.745-24.421 7.375-37.009z" fill="#7181ff"/><path d="m339.927 331.885c10.35 3.233 21.251 4.936 32.366 4.936 11.115 0 22.016-1.703 32.366-4.936l7.554 21.55c4.042 11.53-4.515 23.597-16.733 23.597h-46.374c-12.218 0-20.775-12.067-16.733-23.597z" fill="#565eec"/><path d="m356.611 377.032.412.629c3.469 5.298 3.469 12.144 0 17.441-2.466 3.766-4.375 7.78-5.736 11.929h38.482c4.252-9.481 5.441-19.961 3.55-29.999z" fill="#2115c2"/><path d="m372.294 35.693c-7.169 0-14.397.57-21.485 1.693-4.091.648-6.881 4.491-6.232 8.582.647 4.091 4.48 6.882 8.582 6.233 6.312-1.001 12.751-1.508 19.136-1.508 66.814 0 121.173 54.358 121.173 121.173 0 34.813-14.921 79.37-38.013 113.515-12.772 18.886-31.426 32.546-52.692 39.257-.113.03-.226.053-.339.088-19.249 6.013-40.305 6.232-60.259 0-.025-.008-.05-.012-.075-.02-9.257-2.902-18.093-7.14-26.256-12.658-3.429-2.32-8.092-1.418-10.414 2.013-2.319 3.432-1.418 8.094 2.014 10.414 7.23 4.888 14.917 8.906 22.931 12.02l-5.069 14.46c-5.743 16.389 6.447 33.578 23.811 33.578h2.79c.493 2.185.124 4.518-1.148 6.461-12.638 19.299-12.638 44.239 0 63.538 1.834 2.802 1.834 6.423 0 9.225-7.487 11.433-4.276 26.826 7.157 34.314 11.387 7.456 26.768 4.366 34.314-7.158 12.638-19.299 12.638-44.238 0-63.537-1.835-2.802-1.835-6.423 0-9.225 6.746-10.302 9.982-22.271 9.416-34.388 14.563-3.675 22.502-18.979 17.656-32.808l-5.067-14.453c21.556-8.347 40.368-23.072 53.655-42.717 25.035-37.019 40.587-83.734 40.587-121.918 0-75.086-61.087-136.174-136.173-136.174zm7.377 399.899c9.368 14.307 9.368 32.796 0 47.102-2.962 4.523-9.024 5.789-13.548 2.827-4.515-2.956-5.782-9.034-2.826-13.549 5.104-7.793 5.104-17.865 0-25.658-9.368-14.308-9.368-32.797 0-47.104 2.904-4.435 4.155-9.608 3.755-14.678h19.606c.399 8.951-2.004 17.791-6.987 25.401-5.104 7.794-5.104 17.866 0 25.659zm25.465-79.676c2.33 6.648-2.584 13.616-9.655 13.616-10.698 0-37.026 0-46.374 0-7.049 0-11.993-6.947-9.655-13.616l5.232-14.926c17.15 4.246 36.43 4.597 55.223.009z" fill="#2115c2"/><path d="m157.245 279.753c-26.774-39.589-43.425-89.914-43.425-130.073 0-41.527 17.807-78.891 46.196-104.886-6.616-1.049-13.398-1.601-20.31-1.601-71.064 0-128.673 57.609-128.673 128.673 0 36.344 15.069 81.888 39.3 117.716 20.038 29.629 53.605 47.238 89.374 47.238 21.918 0 43.002-6.621 60.66-18.559-17.09-8.959-31.995-22.054-43.122-38.508z" fill="#88f8d8"/><path d="m154.978 395.102c-3.469-5.298-3.469-12.144 0-17.441l.412-.629h-36.709c-2.37 12.588.084 25.877 7.375 37.009 3.469 5.298 3.469 12.145 0 17.442-11.003 16.803-11.003 38.517 0 55.32 3.318 5.067 8.842 7.818 14.477 7.818 3.248 0 6.534-.914 9.454-2.826 7.987-5.23 10.222-15.945 4.991-23.931-3.469-5.298-3.469-12.144 0-17.441 11.003-16.804 11.003-38.518 0-55.321z" fill="#88f8d8"/><path d="m172.073 331.885c-10.35 3.233-21.251 4.936-32.366 4.936-11.115 0-22.016-1.703-32.366-4.936l-7.554 21.55c-4.042 11.53 4.515 23.597 16.733 23.597h46.374c12.218 0 20.775-12.067 16.733-23.597z" fill="#17d9c3"/><path d="m206.581 314.062c-2.32-3.432-6.983-4.333-10.414-2.013-8.164 5.519-17.001 9.757-26.259 12.659-.024.007-.047.011-.071.019-19.813 6.188-40.879 6.054-60.26 0-.112-.035-.224-.058-.337-.087-21.267-6.711-39.922-20.372-52.695-39.258-23.092-34.145-38.013-78.702-38.013-113.515 0-66.815 54.358-121.173 121.174-121.173 6.385 0 12.823.507 19.135 1.508 4.097.646 7.934-2.142 8.582-6.233s-2.142-7.933-6.232-8.582c-7.087-1.124-14.315-1.693-21.484-1.693-75.087-.001-136.174 61.087-136.174 136.173 0 38.184 15.552 84.899 40.587 121.918 13.286 19.645 32.099 34.371 53.655 42.717l-5.066 14.453c-4.851 13.838 3.105 29.136 17.655 32.809-.566 12.117 2.671 24.086 9.417 34.387 1.835 2.802 1.835 6.423 0 9.225-12.639 19.299-12.639 44.239 0 63.537 7.529 11.501 22.906 14.627 34.314 7.158 11.459-7.505 14.662-22.854 7.156-34.314-1.834-2.802-1.834-6.423 0-9.225 12.638-19.299 12.638-44.239 0-63.538-1.272-1.943-1.641-4.277-1.148-6.461h2.79c17.363 0 29.555-17.187 23.811-33.578l-5.068-14.46c8.014-3.113 15.701-7.131 22.931-12.019 3.432-2.321 4.333-6.983 2.014-10.414zm-57.878 85.149c9.368 14.307 9.368 32.796 0 47.104-5.104 7.793-5.104 17.865 0 25.659 2.964 4.522 1.7 10.585-2.825 13.547-4.524 2.962-10.587 1.698-13.548-2.826-9.369-14.307-9.369-32.795 0-47.103 5.104-7.793 5.104-17.865 0-25.659-4.984-7.61-7.388-16.449-6.988-25.4h19.607c-.401 5.07.85 10.242 3.754 14.678zm18.614-58.221 5.231 14.926c2.33 6.648-2.584 13.616-9.655 13.616-23.743 0-32.065 0-46.374 0-7.059 0-11.99-6.956-9.654-13.616l5.229-14.917c17.8 4.346 36.785 4.464 54.987.045.079-.018.158-.034.236-.054z" fill="#007ea8"/><path d="m154.977 395.102c-3.469-5.298-3.469-12.144 0-17.441l.412-.629h-36.709c-1.89 10.038-.702 20.519 3.55 29.999h38.483c-1.36-4.149-3.269-8.162-5.736-11.929z" fill="#007ea8"/><path d="m256 7.5c-78.524 0-142.18 63.656-142.18 142.18 0 40.159 16.651 90.483 43.425 130.073 22.141 32.74 59.231 52.196 98.755 52.196 39.524 0 76.614-19.457 98.755-52.196 26.774-39.589 43.425-89.914 43.425-130.073 0-78.524-63.656-142.18-142.18-142.18z" fill="#ffd600"/><circle cx="303.24" cy="222.877" fill="#f95116" r="10.023"/><circle cx="208.76" cy="222.877" fill="#f95116" r="10.023"/><path d="m271.356 397.341c-4.165-6.359-4.219-14.544-.181-20.96h-36.559c-2.642 13.557-.042 27.9 7.817 39.9 4.229 6.458 4.229 14.803 0 21.26-11.764 17.963-11.764 41.178 0 59.141 3.318 5.066 8.842 7.817 14.477 7.817 3.249 0 6.534-.914 9.454-2.827 7.987-5.23 10.221-15.944 4.991-23.931-4.229-6.457-4.229-14.801 0-21.259 11.763-17.963 11.763-41.177.001-59.141z" fill="#ffd600"/><path d="m291.764 326.495c-11.436 3.572-23.482 5.454-35.763 5.454-12.282 0-24.327-1.881-35.763-5.454l-8.347 23.812c-4.466 12.74 4.989 26.074 18.49 26.074h51.241c13.5 0 22.955-13.333 18.49-26.074z" fill="#ffd600"/><g fill="#f95116"><path d="m271.356 397.341c-4.165-6.359-4.219-14.544-.181-20.96h-36.559c-1.947 9.991-1.037 20.407 2.718 30h38.783c-1.284-3.119-2.868-6.148-4.761-9.04z"/><g><path d="m277.224 242.391h-42.447c-4.143 0-7.5 3.358-7.5 7.5s3.357 7.5 7.5 7.5h42.447c4.143 0 7.5-3.358 7.5-7.5s-3.358-7.5-7.5-7.5z"/><path d="m256 0c-82.533 0-149.68 67.146-149.68 149.68 0 42.044 17.133 93.495 44.712 134.274 14.736 21.789 35.661 38.068 59.629 47.184l-5.85 16.689c-5.551 15.839 4.522 33.071 21.387 35.717-.692 12.979 2.73 25.806 9.961 36.846 2.594 3.962 2.594 9.082 0 13.043-13.398 20.459-13.398 46.899 0 67.359 7.55 11.524 22.931 14.611 34.315 7.154 11.433-7.487 14.643-22.881 7.155-34.314-2.594-3.961-2.594-9.08 0-13.041 13.396-20.459 13.396-46.898 0-67.358-1.831-2.796-2.357-6.197-1.585-9.352h5.576c18.646 0 31.734-18.456 25.567-36.054l-5.85-16.688c23.969-9.115 44.894-25.395 59.63-47.184 27.579-40.781 44.712-92.232 44.712-134.274.002-82.535-67.145-149.681-149.679-149.681zm9.081 401.45c10.128 15.468 10.128 35.457 0 50.924-5.862 8.954-5.862 20.524 0 29.476 2.956 4.515 1.689 10.592-2.826 13.549-4.512 2.957-10.579 1.706-13.547-2.825-10.129-15.467-10.129-35.456 0-50.923 5.863-8.953 5.863-20.523 0-29.478-5.547-8.468-8.134-18.329-7.51-28.291h19.653c-.638 6.06.775 12.291 4.23 17.568zm27.951-48.661c2.757 7.862-3.056 16.092-11.411 16.092-11.122 0-40.18 0-51.242 0-8.357 0-14.167-8.234-11.411-16.092l6.012-17.153c10.018 2.506 20.425 3.814 31.02 3.814s21.002-1.308 31.02-3.813zm55.511-77.238c-14.213 21.017-34.97 36.218-58.634 43.686-2.348.604-9.639 3.143-20.893 4.453-18.936 2.197-29.679-.082-46.918-4.451-23.666-7.468-44.425-22.67-58.639-43.688-25.598-37.849-42.138-87.257-42.138-125.871-.001-74.263 60.416-134.68 134.679-134.68s134.681 60.417 134.681 134.68c0 38.613-16.54 88.02-42.138 125.871z"/></g></g></g></svg>