<svg id="Capa_1" enable-background="new 0 0 512 512" height="512" viewBox="0 0 512 512" width="512" xmlns="http://www.w3.org/2000/svg"><g><circle cx="378.484" cy="27.417" fill="#ff63ed" r="19.916"/><circle cx="225.667" cy="86.94" fill="#ff9bff" r="19.916"/><circle cx="425.06" cy="286.333" fill="#ff63ed" r="19.916"/><circle cx="484.583" cy="133.516" fill="#ff9bff" r="19.916"/><path d="m247.697 410.398-95.414 71.51.007-285.221 6.004-8.017c2.048 7.122 5.857 13.839 11.47 19.452l77.933 77.933z" fill="#ffd600"/><path d="m323.331 353.706-75.633 56.692v-124.344l56.182 56.182c5.611 5.612 12.328 9.422 19.451 11.47z" fill="#ffff6f"/><path d="m70.856 488.841-49.556-49.556c-16.677-16.677-18.557-43.076-4.41-61.948l53.966-71.999z" fill="#ffd600"/><path d="m152.283 481.907-17.621 13.203c-18.872 14.147-45.271 12.267-61.948-4.41l-1.859-1.859v-183.502l81.435-108.652z" fill="#ffff6f"/><path d="m315.57 116.889c-5.639-7.091-5.639-16.996 0-24.088 15.722-19.77 15.722-47.385 0-67.154-5.947-7.478-16.829-8.718-24.306-2.772-7.477 5.947-8.718 16.829-2.772 24.306 5.639 7.091 5.639 16.996 0 24.088-15.722 19.769-15.722 47.384 0 67.154 5.933 7.461 16.813 8.731 24.305 2.772 7.478-5.947 8.72-16.828 2.773-24.306z" fill="#b98eff"/><g><path d="m378.568 114.285c2.862-25.096 22.389-44.623 47.485-47.485 9.002-1.027 16.006-8.031 17.033-17.032 1.083-9.492 9.655-16.309 19.147-15.227 9.491 1.082 16.309 9.654 15.227 19.147-2.862 25.097-22.389 44.623-47.485 47.485-9.001 1.027-16.006 8.031-17.032 17.032-1.082 9.492-9.655 16.309-19.147 15.226-9.513-1.084-16.308-9.675-15.228-19.146z" fill="#ddbeff"/></g><path d="m489.124 220.736c5.946-7.476 4.706-18.359-2.772-24.306-19.77-15.722-47.385-15.722-67.154 0-7.091 5.639-16.996 5.639-24.088 0-7.477-5.947-18.359-4.705-24.305 2.772-5.959 7.492-4.689 18.372 2.772 24.305 19.77 15.722 47.385 15.722 67.154 0 7.092-5.639 16.997-5.639 24.088 0 7.477 5.947 18.359 4.706 24.305-2.771z" fill="#b98eff"/><g><path d="m378.484 54.835c-7.323 0-14.208-2.852-19.387-8.03-10.689-10.69-10.689-28.084 0-38.774 5.178-5.179 12.063-8.031 19.387-8.031s14.209 2.852 19.388 8.031c10.689 10.69 10.689 28.084 0 38.774-5.179 5.178-12.064 8.03-19.388 8.03zm14.083-13.335h.01zm-14.083-26.497c-3.316 0-6.434 1.291-8.778 3.636-4.841 4.841-4.841 12.717 0 17.557 4.841 4.842 12.718 4.84 17.557 0 4.841-4.841 4.841-12.717 0-17.557-2.344-2.345-5.462-3.636-8.779-3.636z" fill="#e207b9"/></g><g><path d="m206.279 106.327c-10.689-10.69-10.689-28.084 0-38.774 10.714-10.714 28.059-10.716 38.775 0 10.689 10.69 10.689 28.084 0 38.774-10.715 10.715-28.058 10.716-38.775 0zm10.61-28.166c-4.841 4.841-4.841 12.717 0 17.557 4.851 4.852 12.706 4.852 17.557 0 4.841-4.841 4.841-12.717 0-17.557-4.839-4.84-12.717-4.841-17.557 0z" fill="#e207b9"/></g><g><path d="m405.673 305.72c-10.689-10.69-10.689-28.084 0-38.774 5.179-5.179 12.064-8.03 19.387-8.03s14.208 2.852 19.387 8.03c10.714 10.714 10.717 28.058-.001 38.774-10.713 10.715-28.057 10.717-38.773 0zm10.609-28.165c-4.841 4.841-4.841 12.717 0 17.557 4.85 4.852 12.705 4.852 17.556 0 4.851-4.849 4.855-12.703.001-17.557-4.841-4.841-12.718-4.841-17.557 0z" fill="#e207b9"/></g><g><path d="m465.196 152.903c-5.178-5.178-8.03-12.064-8.03-19.387s2.852-14.209 8.03-19.387c10.715-10.715 28.058-10.716 38.774 0 5.178 5.178 8.03 12.064 8.03 19.387s-2.852 14.208-8.03 19.387c-10.715 10.714-28.058 10.716-38.774 0zm10.609-28.166c-4.841 4.841-4.841 12.717 0 17.557 4.839 4.84 12.717 4.84 17.556 0 4.841-4.841 4.841-12.717 0-17.557-4.839-4.84-12.717-4.84-17.556 0z" fill="#e207b9"/></g><path d="m329.332 349.207c-2.486-3.315-7.187-3.988-10.501-1.503l-63.632 47.696v-109.346c0-4.142-3.358-7.501-7.501-7.501s-7.501 3.359-7.501 7.501v120.591l-80.411 60.265.006-229.508.001-38.218 4.507-6.018c2.484-3.316 1.809-8.018-1.507-10.501-3.317-2.484-8.019-1.808-10.501 1.507l-6.004 8.017c0 .001-.001.002-.001.003-5.103 6.809-128.961 172.057-135.398 180.645-16.279 21.716-14.083 52.563 5.107 71.752 4.278 4.278 6.964 6.964 51.415 51.415 19.124 19.124 49.964 21.441 71.75 5.109 0 0 188.115-140.991 188.668-141.405 3.315-2.485 3.988-7.186 1.503-10.501zm-306.441 32.63 40.463-53.984v142.878l-36.749-36.75c-13.947-13.946-15.543-36.363-3.714-52.144zm107.272 107.271c-15.653 11.736-37.837 10.257-51.806-3.379v-177.892l66.432-88.634-.007 258.951z" fill="#f95116"/><g><path d="m282.621 143.092c-17.907-22.519-17.907-53.973 0-76.492 3.454-4.342 3.454-10.407 0-14.749-8.511-10.702-6.729-26.334 3.973-34.846 10.727-8.531 26.313-6.755 34.847 3.974 17.908 22.519 17.908 53.974 0 76.492-3.453 4.342-3.453 10.408 0 14.75 8.532 10.729 6.753 26.314-3.975 34.846-10.869 8.644-26.439 6.592-34.845-3.975zm13.313-114.346c-4.228 3.363-4.932 9.538-1.571 13.766 7.826 9.84 7.826 23.585 0 33.425-13.535 17.02-13.535 40.795 0 57.816 3.362 4.226 9.515 4.949 13.764 1.57 4.237-3.369 4.944-9.526 1.572-13.766-7.825-9.84-7.825-23.585 0-33.425 13.536-17.021 13.536-40.796 0-57.817-3.371-4.237-9.528-4.939-13.765-1.569z" fill="#6d00ca"/></g><g><g><path d="m392.944 140.884c-13.601-1.55-23.383-13.818-21.83-27.449 3.261-28.586 25.503-50.828 54.089-54.088 5.512-.629 9.8-4.918 10.428-10.43 1.551-13.586 13.857-23.381 27.45-21.83 13.618 1.552 23.383 13.829 21.831 27.449-3.26 28.587-25.502 50.829-54.089 54.088-5.512.629-9.8 4.918-10.428 10.43-1.554 13.621-13.832 23.383-27.451 21.83zm-6.923-25.749c-.61 5.336 3.205 10.226 8.624 10.843 5.381.612 10.231-3.243 10.844-8.623 1.425-12.491 11.143-22.21 23.635-23.636 21.608-2.464 38.419-19.275 40.883-40.882.614-5.379-3.243-10.23-8.624-10.844-5.382-.612-10.232 3.257-10.845 8.624-1.424 12.491-11.142 22.21-23.634 23.635-21.607 2.465-38.418 19.276-40.883 40.883z" fill="#6d00ca"/></g></g><g><path d="m407.155 242.81c-13.495.001-26.986-4.476-38.246-13.431-10.624-8.447-12.584-24.02-3.974-34.845 8.529-10.725 24.117-12.507 34.846-3.974 4.341 3.453 10.407 3.453 14.75 0 22.517-17.907 53.972-17.909 76.491 0 10.727 8.53 12.507 24.116 3.974 34.846-8.511 10.702-24.143 12.485-34.846 3.974-4.342-3.452-10.406-3.454-14.75 0-11.257 8.952-24.754 13.429-38.245 13.43zm-30.478-38.939c-3.397 4.271-2.633 10.423 1.57 13.765 17.02 13.536 40.796 13.536 57.816 0 9.841-7.826 23.586-7.824 33.425 0 4.225 3.361 10.401 2.659 13.766-1.57 3.37-4.236 2.669-10.395-1.57-13.765-17.023-13.537-40.797-13.535-57.816 0-9.84 7.826-23.586 7.825-33.426 0-4.226-3.361-10.387-2.677-13.765 1.57z" fill="#6d00ca"/></g><path d="m367.72 278.4-134.12-134.12c-17.629-17.629-46.21-17.629-63.839 0-17.629 17.629-17.629 46.21 0 63.839l134.12 134.12c17.629 17.629 46.21 17.629 63.839 0 17.629-17.629 17.629-46.21 0-63.839z" fill="#b98eff"/><g><path d="m298.577 347.543-134.12-134.12c-20.574-20.575-20.574-53.872 0-74.447 20.573-20.573 53.872-20.575 74.448 0l134.12 134.12c20.574 20.575 20.574 53.872 0 74.447-20.526 20.525-53.921 20.526-74.448 0zm-123.511-197.959c-14.711 14.71-14.712 38.519 0 53.231l134.12 134.12c14.675 14.676 38.556 14.675 53.23 0 14.711-14.71 14.712-38.519 0-53.231l-134.12-134.12c-14.709-14.71-38.52-14.712-53.23 0z" fill="#6d00ca"/></g><circle cx="310.276" cy="268.578" fill="#6d00ca" r="10.03"/><g><path d="m267.447 274.589-30.035-30.036c-2.929-2.929-2.929-7.679 0-10.608 2.93-2.93 7.679-2.929 10.609 0l30.035 30.036c2.929 2.929 2.929 7.679 0 10.608-2.93 2.929-7.679 2.929-10.609 0z" fill="#6d00ca"/></g><circle cx="243.422" cy="201.724" fill="#6d00ca" r="10.03"/></g></svg>