<svg id="Capa_1" enable-background="new 0 0 512 512" height="512" viewBox="0 0 512 512" width="512" xmlns="http://www.w3.org/2000/svg"><g><path d="m390.353 204.122c-4.643 2.498-9.952 3.918-15.594 3.918h-237.518c-5.642 0-10.951-1.42-15.594-3.918-24.124 29.552-38.502 73.998-38.502 112.704 0 2.412.06 4.81.157 7.198 18.438-14.698 46.018-17.659 67.435 1.284.618.544 1.225 1.109 1.831 1.674 14.516-13.699 33.113-20.554 51.711-20.554 18.608 0 37.205 6.855 51.721 20.554 14.516-13.699 33.113-20.554 51.721-20.554 18.597 0 37.195 6.855 51.711 20.554.607-.565 1.214-1.13 1.831-1.674 21.417-18.944 48.997-15.983 67.435-1.284.097-2.388.157-4.785.157-7.198 0-38.706-14.378-83.152-38.502-112.704z" fill="#ff9bff"/><circle cx="312.558" cy="245.885" fill="#e207b9" r="12"/><circle cx="199.442" cy="245.885" fill="#e207b9" r="12"/><path d="m267.243 10.797c-6.836-4.403-15.649-4.403-22.486 0-29.408 18.942-82.875 23.456-70.68 65.398h64.223c0-9.775 7.924-17.7 17.7-17.7 9.775 0 17.7 7.925 17.7 17.7h64.223c12.194-41.942-41.273-46.457-70.68-65.398z" fill="#ff63ed"/><path d="m362.571 124.417c2.827 0 5.489.68 7.859 1.858 3.039-4.99 4.79-10.85 4.79-17.119 0-18.204-14.757-32.961-32.961-32.961h-68.559c0 9.775-7.924 17.7-17.7 17.7-9.775 0-17.7-7.925-17.7-17.7h-68.559c-18.204 0-32.961 14.757-32.961 32.961 0 6.269 1.751 12.13 4.79 17.119 2.37-1.178 5.032-1.858 7.859-1.858 9.737 0 17.633 7.864 17.694 17.587.865.068 1.736.113 2.619.113h172.517c.882 0 1.754-.045 2.619-.113.061-9.722 7.956-17.587 17.693-17.587z" fill="#ff9bff"/><path d="m380.248 142.581c-.248 9.559-8.058 17.236-17.676 17.236-9.775 0-17.7-7.925-17.7-17.7h-177.744c0 9.775-7.924 17.7-17.7 17.7-9.619 0-17.428-7.677-17.676-17.236-15.59 2.614-27.473 16.165-27.473 32.498 0 18.204 14.757 32.961 32.961 32.961h237.518c18.204 0 32.961-14.757 32.961-32.961.001-16.333-11.881-29.883-27.471-32.498z" fill="#ff63ed"/><g fill="#e207b9"><path d="m401.07 205.779c8.653-7.426 14.15-18.43 14.15-30.7 0-19.839-14.186-36.617-33.732-39.894-4.468-.753-8.62 2.625-8.737 7.202-.145 5.568-4.616 9.931-10.18 9.931-5.617 0-10.186-4.564-10.198-10.178.001-.029.005-.058.005-.088.035-5.588 4.608-10.134 10.193-10.134 1.566 0 3.087.361 4.521 1.073 3.488 1.733 7.719.511 9.745-2.815 3.849-6.321 5.883-13.59 5.883-21.02 0-20.706-15.637-37.819-35.721-40.174 3.169-29.942-25.596-41.924-49.126-51.721-9.376-3.904-19.072-7.941-26.568-12.769-9.296-5.988-21.311-5.989-30.609 0-7.496 4.828-17.192 8.865-26.569 12.769-23.53 9.797-52.296 21.779-49.126 51.721-20.084 2.356-35.722 19.468-35.722 40.174 0 7.431 2.035 14.7 5.885 21.021 2.025 3.324 6.256 4.549 9.744 2.814 1.433-.712 2.954-1.073 4.52-1.073 5.586 0 10.159 4.546 10.194 10.134 0 .03.004.059.005.088-.012 5.614-4.583 10.178-10.199 10.178-5.563 0-10.034-4.362-10.179-9.931-.056-2.171-1.051-4.212-2.727-5.593-1.676-1.382-3.867-1.97-6.011-1.609-19.546 3.277-33.733 20.056-33.733 39.894 0 12.27 5.497 23.274 14.15 30.7-21.598 29.835-35.284 72.46-35.284 111.047 0 2.359.054 4.814.163 7.504.165 4.034 3.488 7.193 7.489 7.193.103 0 .207-.002.312-.006 4.139-.169 7.357-3.662 7.188-7.8-.102-2.483-.151-4.737-.151-6.891 0-36.18 12.968-76.118 33.348-103.514 4.029 1.392 8.633 2.229 13.247 2.229h237.518c4.615 0 9.247-.843 13.248-2.229 20.38 27.396 33.348 67.334 33.348 103.514 0 2.128-.05 4.383-.151 6.894-.167 4.139 3.052 7.63 7.19 7.798 4.133.166 7.629-3.052 7.798-7.191.109-2.715.163-5.169.163-7.501.001-38.587-13.685-81.212-35.284-111.047zm-181.177-174.671c9.984-4.156 20.306-8.454 28.926-14.006 4.36-2.81 10-2.811 14.362 0 8.62 5.552 18.943 9.85 28.926 14.006 28.272 11.772 42.332 19.833 39.805 37.586h-51.852c-3.199-10.244-12.776-17.7-24.061-17.7-11.284 0-20.861 7.456-24.06 17.7h-51.852c-2.526-17.752 11.533-25.814 39.806-37.586zm46.307 45.087c0 5.624-4.576 10.2-10.2 10.2s-10.199-4.576-10.199-10.2 4.575-10.2 10.199-10.2 10.2 4.575 10.2 10.2zm-116.772 40.723c-1.299 0-2.581.098-3.846.294-.859-2.581-1.303-5.299-1.303-8.056 0-14.039 11.422-25.461 25.462-25.461h62.198c3.199 10.245 12.776 17.7 24.06 17.7 11.285 0 20.862-7.456 24.061-17.7h62.198c14.039 0 25.461 11.422 25.461 25.461 0 2.756-.443 5.475-1.303 8.056-1.264-.196-2.547-.294-3.846-.294-11.252 0-20.841 7.462-24.05 17.699h-165.041c-3.209-10.237-12.798-17.699-24.051-17.699zm-12.188 83.622c-14.132 0-25.461-11.564-25.461-25.461 0-10.062 5.797-18.872 14.483-22.991 3.831 9.015 12.72 15.23 23.166 15.23 11.285 0 20.862-7.455 24.061-17.7h165.022c3.199 10.245 12.776 17.7 24.06 17.7 10.446 0 19.336-6.215 23.167-15.23 8.686 4.119 14.482 12.929 14.482 22.991 0 14.028-11.428 25.461-25.461 25.461z"/><path d="m281.41 270.728h-50.82c-4.143 0-7.5 3.358-7.5 7.5 0 4.143 3.357 7.5 7.5 7.5h50.82c4.143 0 7.5-3.357 7.5-7.5 0-4.142-3.357-7.5-7.5-7.5z"/></g><g fill="#b98eff"><circle cx="362.571" cy="142.117" r="17.7"/><circle cx="149.428" cy="142.117" r="17.7"/><circle cx="256" cy="76.195" r="17.7"/></g><g><path d="m362.571 167.318c-13.895 0-25.199-11.305-25.199-25.2s11.305-25.2 25.199-25.2c13.896 0 25.2 11.305 25.2 25.2s-11.304 25.2-25.2 25.2zm0-35.4c-5.624 0-10.199 4.576-10.199 10.2s4.575 10.2 10.199 10.2 10.2-4.576 10.2-10.2c0-5.625-4.576-10.2-10.2-10.2z" fill="#6d00ca"/></g><g><path d="m149.428 167.318c-13.895 0-25.199-11.305-25.199-25.2s11.305-25.2 25.199-25.2c13.896 0 25.2 11.305 25.2 25.2s-11.304 25.2-25.2 25.2zm0-35.4c-5.624 0-10.199 4.576-10.199 10.2s4.575 10.2 10.199 10.2 10.2-4.576 10.2-10.2c0-5.625-4.576-10.2-10.2-10.2z" fill="#6d00ca"/></g><g><path d="m256 101.395c-13.895 0-25.199-11.305-25.199-25.2s11.305-25.2 25.199-25.2c13.896 0 25.2 11.305 25.2 25.2s-11.305 25.2-25.2 25.2zm0-35.4c-5.624 0-10.199 4.576-10.199 10.2s4.575 10.2 10.199 10.2 10.2-4.576 10.2-10.2c0-5.625-4.576-10.2-10.2-10.2z" fill="#6d00ca"/></g><path d="m446.4 381.006-25.306 83.023c-7.326 24.039-29.503 40.47-54.63 40.47h-30.151l23.119-177.517c.607-.565 1.214-1.13 1.831-1.674 39.696-35.112 100.585 5.002 85.137 55.698z" fill="#7181ff"/><path d="m359.431 326.982-23.118 177.518h-80.313v-177.518c14.516-13.699 33.113-20.554 51.721-20.554 18.597 0 37.194 6.855 51.71 20.554z" fill="#a4bcff"/><path d="m256 326.982v177.518h-80.313l-23.119-177.517c14.516-13.699 33.113-20.554 51.711-20.554 18.608-.001 37.205 6.854 51.721 20.553z" fill="#7181ff"/><path d="m175.687 504.5h-30.151c-25.128 0-47.304-16.431-54.63-40.47l-25.306-83.023c-15.447-50.695 45.442-90.81 85.138-55.698.617.544 1.225 1.109 1.831 1.674z" fill="#a4bcff"/><path d="m428.12 314.38c-21.996-14.135-48.528-12.954-68.672 2.708-14.658-11.745-32.776-18.16-51.727-18.16-18.95 0-37.065 6.41-51.721 18.147-14.656-11.737-32.771-18.147-51.72-18.147-18.951 0-37.069 6.415-51.728 18.16-20.15-15.663-46.678-16.843-68.67-2.708-23.583 15.155-33.576 42.165-25.456 68.813l25.306 83.023c8.345 27.384 33.182 45.784 61.803 45.784h220.929c28.622 0 53.46-18.4 61.803-45.784l25.306-83.023h.001c8.12-26.647-1.872-53.658-25.454-68.813zm-223.841-.452c16.328 0 31.909 5.796 44.22 16.389v166.683h-66.225l-21.757-167.065c12.239-10.35 27.637-16.007 43.762-16.007zm-106.2 147.914-25.305-83.022c-7.424-24.364 5.712-43.143 19.217-51.821 6.607-4.246 15.425-7.381 24.924-7.381 9.354 0 19.367 3.043 28.572 11.062l21.66 166.32h-21.611c-21.977 0-41.048-14.129-47.457-35.158zm165.421-131.526c12.312-10.592 27.893-16.388 44.221-16.388 16.125 0 31.523 5.657 43.762 16.007l-21.757 167.065h-66.226zm175.726 48.503-25.306 83.024c-6.408 21.028-25.479 35.157-47.455 35.157h-21.611l21.66-166.322c18.54-16.162 40.381-12.108 53.495-3.679 13.505 8.678 26.64 27.457 19.217 51.82z" fill="#2115c2"/></g></svg>