<svg id="Capa_1" enable-background="new 0 0 512 512" height="512" viewBox="0 0 512 512" width="512" xmlns="http://www.w3.org/2000/svg"><g><path d="m82.691 344.369-62.63 62.63c-16.734 16.734-16.734 43.864 0 60.597 16.734 16.734 43.864 16.734 60.597 0l62.63-62.63z" fill="#ffff6f"/><g><path d="m14.758 472.899c-19.677-19.678-19.677-51.525 0-71.203l62.63-62.63c2.928-2.927 7.677-2.929 10.606 0l60.598 60.598c2.928 2.929 2.928 7.677 0 10.605l-62.63 62.63c-19.631 19.63-51.573 19.631-71.204 0zm67.933-117.925-57.326 57.327c-13.816 13.815-13.817 36.175 0 49.992 13.782 13.783 36.209 13.783 49.991 0l57.327-57.327z" fill="#f90"/></g><path d="m88.288 342.05h28.94v85.698h-28.94z" fill="#f90" transform="matrix(.707 -.707 .707 .707 -242.068 185.395)"/><path d="m421.812 303.529-5.459 5.45-49.505-49.505 21.128-21.118c12.149-12.149 12.149-31.837.01-43.976-12.149-12.138-31.827-12.138-43.976 0l-21.128 21.128-50.735-50.735 21.128-21.118c12.149-12.149 12.149-31.837 0-43.976-12.139-12.149-31.817-12.149-43.966 0l-21.128 21.128-49.505-49.505 5.459-5.459c65.634-65.634 172.043-65.634 237.677 0s65.644 172.042 0 237.686z" fill="#ffceff"/><path d="m327.041 398.3-41.396 41.396c-30.481 30.485-78.484 29.057-107.629 0l-34.727-34.727-60.594-60.594-34.727-34.727c-29.727-29.727-29.727-77.922 0-107.639l41.396-41.396 49.505 49.505-21.128 21.128c-12.149 12.149-12.149 31.827-.01 43.976 6.079 6.07 14.039 9.099 21.988 9.099 7.959 0 15.918-3.04 21.988-9.109l21.128-21.128 50.735 50.735-21.128 21.128c-6.069 6.07-9.099 14.029-9.109 21.988 0 7.959 3.03 15.918 9.109 21.988 12.139 12.139 31.817 12.139 43.966-.01l21.128-21.118z" fill="#ffceff"/><g fill="#ff9bff"><path d="m95.62 105.705h126.305v70.011h-126.305z" transform="matrix(.707 -.707 .707 .707 -52.993 153.482)"/><path d="m189.706 198.92h126.305v71.75h-126.305z" transform="matrix(.707 -.707 .707 .707 -91.965 247.568)"/><path d="m283.788 293.881h126.312v70.011h-126.312z" transform="matrix(.707 -.707 .707 .707 -130.939 341.682)"/></g><circle cx="411.778" cy="146.212" fill="#e207b9" r="10.552"/><circle cx="341.445" cy="75.879" fill="#e207b9" r="10.552"/><path d="m293.275 143.655-21.128 21.118-89.311 89.311-21.128 21.128c-6.069 6.069-14.029 9.109-21.988 9.109-7.949 0-15.908-3.029-21.988-9.099-12.139-12.149-12.139-31.826.01-43.976l131.567-131.567c12.149-12.149 31.827-12.149 43.966 0 12.149 12.139 12.149 31.827 0 43.976z" fill="#ff9bff"/><path d="m387.975 238.355-21.128 21.118-89.311 89.321-21.128 21.118c-12.149 12.149-31.827 12.149-43.966.01-6.079-6.069-9.109-14.028-9.109-21.988.01-7.959 3.04-15.918 9.109-21.988l131.568-131.567c12.149-12.138 31.827-12.138 43.976 0 12.138 12.139 12.138 31.827-.011 43.976z" fill="#ff9bff"/><path d="m455.237 99.265-33.423-33.423c65.633 65.633 65.633 172.045 0 237.678l-136.169 136.169c-29.722 29.722-77.912 29.722-107.634 0l33.423 33.423c29.722 29.722 77.912 29.722 107.634 0l136.169-136.169c65.633-65.633 65.633-172.045 0-237.678z" fill="#ff63ed"/><g fill="#e207b9"><path d="m366.997 152.258c2.93 2.929 7.677 2.929 10.606 0 2.928-2.929 2.928-7.677 0-10.605l-31.599-31.599c-2.929-2.929-7.677-2.929-10.606 0-2.928 2.928-2.928 7.677 0 10.605z"/><path d="m460.54 93.962-33.423-33.422c-.006-.006-.013-.012-.02-.018-68.607-68.587-179.645-68.602-248.265.017-4.552 4.553-129.666 129.668-136.165 136.166-32.68 32.668-32.683 85.562-.001 118.246 6.653 6.653 155.697 155.696 163.464 163.464 32.675 32.673 85.561 32.679 118.24 0l136.17-136.169c68.609-68.61 68.618-179.664 0-248.284zm-242.794 237.287c14.947-14.947 32.08-32.08 131.564-131.565 9.292-9.283 24.279-9.088 33.373-.002 9.167 9.167 9.224 24.137-.01 33.371-12.227 12.208-119.892 119.882-131.566 131.557-9.199 9.199-24.165 9.206-33.366.005-9.278-9.262-9.152-24.209.005-33.366zm-39.07-249.342 38.899 38.899-78.705 78.706-38.9-38.899zm75.935 23.075c9.223-9.226 24.143-9.226 33.363.002 9.206 9.197 9.242 24.123-.001 33.368-.03.03 3.364-3.376-131.567 131.557-9.233 9.231-24.155 9.212-33.369.012-9.194-9.202-9.191-24.173.008-33.372 14.947-14.948 32.082-32.082 131.566-131.567zm-21.041 189.231-40.128-40.129c7.621-7.621 70.908-70.909 78.705-78.705l40.129 40.129zm93.468 93.477-38.896-38.897c9.305-9.306 69.37-69.378 78.705-78.715 52.716 52.716 27.921 27.921 38.9 38.9-10.971 10.973-77.441 77.444-78.709 78.712zm89.471-316.545c62.981 62.981 62.227 164.865.002 227.073l-.156.157-38.9-38.9 15.825-15.817c15.049-15.051 15.054-39.536.007-54.583-15.047-15.034-39.53-15.034-54.58.002l-15.825 15.825-40.128-40.128 15.825-15.817c15.078-15.08 15.096-39.495.002-54.579-14.963-14.971-39.374-15.202-54.575-.002l-15.825 15.825-38.899-38.899.157-.157c62.747-62.749 164.312-62.757 227.07 0zm-363.236 136.167 36.092-36.093 38.899 38.899c-1.957 1.957-14.589 14.589-15.825 15.825-15.043 15.045-15.049 39.529-.005 54.585 15.091 15.066 39.489 15.072 54.578-.014l15.825-15.825 40.129 40.129-15.825 15.826c-15.007 15.008-15.144 39.463.001 54.581 15.104 15.104 39.593 14.971 54.57-.009l15.825-15.817 38.897 38.897-36.09 36.091c-26.71 26.694-70.146 26.881-97.028 0-.005-.005-.01-.009-.015-.014l-130.028-130.028c-26.814-26.812-26.827-70.217 0-97.033zm396.661 124.328-136.17 136.169c-26.597 26.599-69.634 26.861-96.534.484 26.824 4.684 54.367-3.935 73.718-23.296 5.307-5.307-20.191 20.195 132.743-132.749 1.563-2.282 54.847-46.367 54.847-127.567 0-19.709-3.225-38.922-9.427-57.037 42.235 61.688 36.967 147.853-19.177 203.996z"/></g></g></svg>