<svg id="Capa_1" enable-background="new 0 0 512 512" height="512" viewBox="0 0 512 512" width="512" xmlns="http://www.w3.org/2000/svg"><g><path d="m381.668 236.293h-24.763c3.39 9.268 5.17 19.122 5.17 29.138v20.842h19.594c11.102 0 20.135 9.033 20.135 20.135v62.29c0 11.102-9.033 20.135-20.135 20.135h-19.594v30.838c0 6.488-.758 12.905-2.203 19.143h21.797c38.661 0 70.115-31.453 70.115-70.115v-62.29c-.001-38.663-31.455-70.116-70.116-70.116z" fill="#88f8d8"/><path d="m362.078 325.561v94.113c0 9.876-1.719 19.602-5.028 28.749-3.299 9.156-8.167 17.743-14.474 25.35-16.114 19.462-40.064 30.728-65.334 30.728h-132.188c-12.635 0-24.94-2.819-36.106-8.067-11.156-5.248-21.182-12.935-29.238-22.661-12.595-15.214-19.492-34.346-19.492-54.099v-94.113c127.649-68.933 118.462 47.381 301.86 0z" fill="#ffff6f"/><path d="m362.078 265.435v60.126c-183.397 47.381-174.211-68.933-301.861 0v-60.126c0-19.762 6.897-38.895 19.492-54.109l15.544-18.763c3.778 1.479 7.887 2.299 12.185 2.299h207.408c4.308 0 8.417-.82 12.195-2.299l15.534 18.763c12.606 15.214 19.503 34.347 19.503 54.109z" fill="#88f8d8"/><path d="m236.136 127.939v-26.677c0-10.777 5.191-20.893 13.945-27.178l31.284-22.459c8.407-6.036 10.33-17.744 4.295-26.151l-7.29-10.155c-6.036-8.408-17.744-10.33-26.152-4.295l-31.285 22.459c-21.777 15.633-34.778 40.972-34.778 67.779v26.677z" fill="#ffff6f"/><path d="m314.85 127.939h-207.408c-18.48 0-33.461 14.981-33.461 33.461 0 18.48 14.981 33.461 33.461 33.461h207.408c18.48 0 33.461-14.981 33.461-33.461 0-18.48-14.981-33.461-33.461-33.461z" fill="#17d9c3"/><circle cx="261.965" cy="251.98" fill="#007ea8" r="10.624"/><circle cx="161.826" cy="251.98" fill="#007ea8" r="10.624"/><g><path d="m236.136 135.439c-4.143 0-7.5-3.358-7.5-7.5v-26.677c0-13.159 6.382-25.596 17.071-33.27l31.285-22.459c5.046-3.623 6.199-10.638 2.575-15.685l-7.29-10.155c-3.616-5.036-10.626-6.205-15.684-2.576l-31.285 22.459c-19.819 14.228-31.652 37.288-31.652 61.687v26.677c0 4.142-3.357 7.5-7.5 7.5s-7.5-3.358-7.5-7.5v-26.677c0-29.218 14.17-56.833 37.904-73.872l31.285-22.459c11.778-8.455 28.159-5.77 36.618 6.014l7.29 10.155c8.457 11.781 5.769 28.159-6.013 36.618l-31.285 22.459c-6.774 4.864-10.819 12.746-10.819 21.085v26.677c0 4.141-3.358 7.499-7.5 7.499z" fill="#f90"/></g><g fill="#007ea8"><path d="m381.668 228.792h-19.709c-3.447-7.974-8.002-15.484-13.606-22.249l-9.764-11.794c10.414-7.434 17.223-19.608 17.223-33.349 0-22.587-18.375-40.961-40.961-40.961h-207.409c-22.587 0-40.961 18.375-40.961 40.961 0 13.742 6.809 25.915 17.223 33.349l-9.771 11.794c-13.681 16.525-21.216 37.44-21.216 58.891v60.126c0 4.142 3.357 7.5 7.5 7.5s7.5-3.358 7.5-7.5v-60.126c0-17.967 6.31-35.484 17.768-49.324l12.337-14.891c2.758.664 6.056 1.113 9.352 1.135.088 0 .176.008.264.008h207.409c3.017 0 6.581-.403 9.625-1.143l12.328 14.891c11.256 13.586 17.774 31.048 17.774 49.32v20.842c0 .026.004.051.004.078v39.211c0 4.142 3.357 7.5 7.5 7.5s7.5-3.358 7.5-7.5v-31.788h12.09c6.967 0 12.635 5.668 12.635 12.635v62.29c0 6.967-5.668 12.635-12.635 12.635h-18.594c-4.143 0-7.5 3.358-7.5 7.5 0 4.143 3.357 7.5 7.5 7.5h18.594c15.238 0 27.634-12.396 27.634-27.634v-62.29c0-15.238-12.396-27.634-27.634-27.634h-12.09v-13.338c0-.179-.011-.357-.012-.536-.042-7.34-.977-14.535-2.566-21.106h14.668c34.526 0 62.616 28.089 62.616 62.615v62.29c0 34.526-28.09 62.615-62.616 62.615h-20.797c-4.143 0-7.5 3.358-7.5 7.5s3.357 7.5 7.5 7.5h20.797c42.797 0 77.615-34.818 77.615-77.615v-62.29c0-42.8-34.818-77.618-77.615-77.618zm-274.226-93.353h207.408c14.315 0 25.962 11.646 25.962 25.962 0 14.345-11.68 25.932-25.921 25.96-.013 0-.027.001-.04.001h-207.409c-.019 0-.037-.001-.055-.001-14.142-.029-25.907-11.541-25.907-25.961 0-14.315 11.647-25.961 25.962-25.961z"/><path d="m234.391 273.112h-44.99c-4.143 0-7.5 3.358-7.5 7.5s3.357 7.5 7.5 7.5h44.99c4.143 0 7.5-3.358 7.5-7.5s-3.358-7.5-7.5-7.5z"/></g><g><path d="m277.241 512h-132.187c-51.224 0-92.337-41.628-92.337-92.326v-94.113c0-2.756 1.512-5.29 3.936-6.599 66.827-36.087 98.985-23.305 136.22-8.507 36.506 14.508 77.885 30.953 167.328 7.845 2.244-.58 4.634-.089 6.469 1.332 1.834 1.421 2.907 3.61 2.907 5.93v94.113c.001 50.508-40.881 92.325-92.336 92.325zm-209.524-181.93v89.604c0 42.893 34.88 77.327 77.337 77.327h132.187c43.098 0 77.337-35.032 77.337-77.327v-84.53c-87.888 20.79-131.757 3.354-167.244-10.75-35.707-14.191-61.728-24.532-119.617 5.676z" fill="#f90"/></g></g></svg>