<svg id="Capa_1" enable-background="new 0 0 512 512" height="512" viewBox="0 0 512 512" width="512" xmlns="http://www.w3.org/2000/svg"><g><path d="m253.362 56.2 202.439 202.439c3.911 3.911 6.517 8.63 7.834 13.618 56.218-62.228 54.342-158.293-5.628-218.263s-156.035-61.846-218.263-5.628c4.988 1.317 9.707 3.923 13.618 7.834z" fill="#7181ff"/><path d="m413.09 301.349-202.439-202.439c-2.031-2.031-3.704-4.283-5.036-6.674-15.207 28.871-20.9 61.444-17.054 93.084l138.119 138.119c31.641 3.846 64.213-1.847 93.084-17.054-2.391-1.332-4.643-3.004-6.674-5.036z" fill="#7181ff"/><path d="m455.801 258.639-202.439-202.439c-11.794-11.794-30.916-11.794-42.711 0s-11.794 30.916 0 42.711l202.439 202.438c11.794 11.794 30.916 11.794 42.711 0s11.794-30.916 0-42.71z" fill="#a4bcff"/><g fill="#2115c2"><circle cx="431.395" cy="149.173" r="10.287"/><circle cx="362.827" cy="80.606" r="10.287"/><g><path d="m387.605 155.2c2.928 2.928 7.677 2.929 10.606 0 2.928-2.928 2.928-7.677 0-10.605l-30.806-30.806c-2.929-2.929-7.677-2.929-10.606 0-2.928 2.928-2.928 7.677 0 10.605z"/><path d="m463.31 48.691c-61.665-61.666-160.076-65.072-225.714-8.427-11.817-1.746-23.683 2.069-32.248 10.633-11.29 11.29-13.794 27.747-8.114 41.266-14.495 29.116-20.068 61.551-16.117 94.062.5 4.112 4.24 7.041 8.35 6.54 4.111-.5 7.039-4.238 6.539-8.349-3.269-26.895.62-53.729 11.26-78.285l198.604 198.604c-24.556 10.641-51.394 14.528-78.284 11.26-4.111-.498-7.85 2.427-8.35 6.539s2.428 7.85 6.539 8.35c32.467 3.944 64.884-1.596 94.08-16.136 13.682 5.723 30.092 3.06 41.248-8.096 8.569-8.569 12.376-20.438 10.633-32.247 56.644-65.636 53.24-164.047-8.426-225.714zm-10.606 10.605c54.205 54.205 58.927 139.62 12.699 199.183-.845-1.251-2.56-3.403-4.299-5.142l-202.44-202.44c-1.445-1.447-3.206-2.947-5.143-4.299 59.562-46.228 144.979-41.507 199.183 12.698zm-2.207 236.751c-8.869 8.868-23.276 8.824-32.104 0l-202.439-202.439c-8.792-8.782-8.947-23.159 0-32.105 8.88-8.88 23.255-8.858 32.104 0l202.439 202.439c8.755 8.75 8.983 23.123 0 32.105z"/></g></g><path d="m326.685 323.44-178.198 150.556-110.483-110.483 150.556-178.198z" fill="#b98eff"/><path d="m148.487 473.996-24.739 20.897c-16.144 13.649-40.058 12.645-55.012-2.308l-49.32-49.32c-14.954-14.954-15.957-38.868-2.308-55.012l20.897-24.739z" fill="#ff9bff"/><path d="m217.29 294.711c-10.173-10.173-26.666-10.173-36.839 0l-25.519 25.519c-10.173 10.173-10.173 26.666 0 36.839s26.666 10.173 36.839 0l25.519-25.519c10.173-10.173 10.173-26.667 0-36.839z" fill="#ff9bff"/><g><path d="m148.491 481.495c-2.132 0-4.248-.904-5.733-2.66-2.673-3.164-2.274-7.895.89-10.568l171.967-145.292-126.59-126.591-145.292 171.969c-2.675 3.164-7.404 3.561-10.568.889-3.164-2.673-3.562-7.404-.889-10.568l150.555-178.198c2.811-3.326 7.903-3.59 11.032-.463l138.125 138.125c3.1 3.1 2.89 8.199-.464 11.031l-178.198 150.555c-1.407 1.19-3.126 1.771-4.835 1.771z" fill="#6d00ca"/></g><g><path d="m63.433 497.887-49.32-49.32c-17.693-17.693-18.916-46.015-2.732-65.156l20.894-24.736c2.836-3.359 7.934-3.56 11.032-.464l110.483 110.482c3.102 3.103 2.888 8.199-.464 11.031l-24.739 20.897c-19.202 16.235-47.52 14.898-65.154-2.734zm-24.963-123.303-15.633 18.507c-11.044 13.063-10.217 32.771 1.883 44.87l49.32 49.32c12.098 12.099 31.807 12.926 44.866 1.884l18.51-15.635z" fill="#e207b9"/></g><g><path d="m149.628 362.371c-13.079-13.08-13.079-34.364 0-47.444l25.519-25.519c13.112-13.111 34.331-13.112 47.445 0 13.079 13.08 13.079 34.364 0 47.444l-25.519 25.519c-13.112 13.111-34.331 13.113-47.445 0zm36.126-62.358-25.519 25.519c-7.232 7.233-7.232 19.001 0 26.234 7.249 7.249 18.983 7.25 26.233 0l25.519-25.519c7.232-7.233 7.232-19.001 0-26.234-7.249-7.249-18.984-7.25-26.233 0z" fill="#e207b9"/></g></g></svg>