<svg id="Capa_1" enable-background="new 0 0 512 512" height="512" viewBox="0 0 512 512" width="512" xmlns="http://www.w3.org/2000/svg"><g><path d="m150.618 347.215-84.275 84.275c-7.124 7.124-7.124 18.673 0 25.797l15.126 15.126c7.124 7.124 18.673 7.124 25.797 0l84.275-84.275z" fill="#b98eff"/><path d="m116.948 313.545c-7.64-7.64-12.123-17.238-13.465-27.179-17.925 7.632-39.489 4.162-54.087-10.436-9.587-9.587-25.132-9.588-34.72 0s-9.587 25.132 0 34.72c31.439 31.439 79.052 37.075 116.299 16.923z" fill="#b98eff"/><g><path d="m76.166 477.717-15.127-15.127c-10.059-10.059-10.061-26.343.001-36.404l84.274-84.274c2.93-2.929 7.678-2.929 10.608 0 2.929 2.929 2.929 7.678 0 10.607l-84.275 84.275c-4.197 4.196-4.2 10.991-.001 15.19l15.126 15.126c4.189 4.188 11.002 4.187 15.191 0l84.274-84.275c2.93-2.929 7.678-2.929 10.608 0 2.929 2.929 2.929 7.678 0 10.607l-84.275 84.275c-10.036 10.034-26.368 10.037-36.404 0z" fill="#6d00ca"/></g><path d="m130.493 362.852h57.874v32.948h-57.874z" fill="#6d00ca" transform="matrix(.707 .707 -.707 .707 314.92 -1.632)"/><g><path d="m83.995 346.868c-4.8 0-9.603-.324-14.371-.98-22.999-3.165-43.834-13.517-60.253-29.935-12.495-12.496-12.495-32.829 0-45.326 12.5-12.497 32.833-12.496 45.327 0 12.083 12.083 30.079 15.552 45.845 8.839 3.816-1.624 8.217.152 9.839 3.963 1.623 3.811-.151 8.216-3.962 9.839-21.431 9.123-45.896 4.401-62.33-12.034-6.647-6.647-17.462-6.648-24.113 0-6.647 6.648-6.647 17.465.001 24.113 14.085 14.085 31.96 22.966 51.691 25.682 19.098 2.628 38.895-.94 55.735-10.051 3.646-1.971 8.196-.616 10.166 3.028 1.971 3.643.615 8.195-3.027 10.166-15.417 8.339-32.954 12.695-50.548 12.696z" fill="#6d00ca"/></g><path d="m116.948 313.545c-7.644-7.644-12.127-17.248-13.467-27.194-10.359 4.408-21.926 5.126-32.671 2.112 1.858 17.625 9.512 34.75 22.991 48.229l2.008 2.008c12.172-1.44 24.119-5.159 35.161-11.132z" fill="#6d00ca"/><path d="m498.732 281.654 5.75-203.063c.701-24.76-19.557-45.018-44.316-44.317l-203.063 5.75c-20.978.594-31.078 25.987-16.238 40.827l217.041 217.041c14.839 14.839 40.232 4.74 40.826-16.238z" fill="#b98eff"/><path d="m351.837 362.307-59.502 59.502c-8.564 8.564-19.566 13.163-30.769 13.811v-333.818l.123-.123 90.147 90.147z" fill="#88f8d8"/><path d="m437.077 277.066-85.24 85.241v-170.481z" fill="#17d9c3"/><path d="m261.566 435.619c-13.055.772-26.379-3.835-36.355-13.811l-46.192-46.192v-191.266l82.548-82.548v333.817z" fill="#17d9c3"/><path d="m179.018 375.616-62.071-62.071c-18.533-18.533-18.54-48.584 0-67.124l62.071-62.071z" fill="#88f8d8"/><circle cx="438.125" cy="172.232" fill="#6d00ca" r="10.743"/><g><path d="m392.632 178.292-32.169-32.169c-2.929-2.929-2.929-7.678 0-10.607 2.93-2.929 7.678-2.929 10.608 0l32.169 32.169c2.929 2.929 2.929 7.678 0 10.607-2.93 2.929-7.678 2.93-10.608 0z" fill="#6d00ca"/></g><circle cx="366.523" cy="100.63" fill="#6d00ca" r="10.743"/><path d="m442.381 271.763c-2.929-2.928-7.677-2.929-10.608 0l-72.436 72.437v-152.374c0-4.142-3.358-7.5-7.5-7.5s-7.5 3.359-7.5 7.5v167.374l-57.305 57.305c-5.016 5.016-11.217 8.565-17.964 10.357v-323.827c1.317-7.201-7.486-11.868-12.686-6.654l-.117.117s-.001 0-.001.001l-82.548 82.547-62.07 62.071c-21.48 21.481-21.484 56.246 0 77.731 24.57 24.57 85.71 85.71 108.263 108.263 21.434 21.434 56.279 21.453 77.732 0 5.006-5.006 142.359-142.359 144.742-144.742 2.927-2.928 2.927-7.677-.002-10.606zm-320.129-20.039 49.266-49.267v155.051l-49.266-49.267c-15.617-15.615-15.624-40.895 0-56.517zm64.266 120.785v-185.053l67.548-67.548v308.015c-8.844-1.049-17.168-5.035-23.551-11.418z" fill="#007ea8"/><g><path d="m452.602 303.195-217.041-217.041c-19.515-19.516-6.21-52.848 21.33-53.628l203.063-5.75c28.927-.804 52.855 22.76 52.026 52.026l-5.749 203.063c-.782 27.542-34.117 40.842-53.629 21.33zm8.821-261.439c-.349 0-.696.005-1.046.015l-203.063 5.75c-14.446.409-21.364 17.809-11.146 28.026l217.041 217.041c10.22 10.218 27.617 3.298 28.026-11.147l5.749-203.063c.573-20.222-15.671-36.622-35.561-36.622z" fill="#6d00ca"/></g></g></svg>