<svg id="Capa_1" enable-background="new 0 0 512 512" height="512" viewBox="0 0 512 512" width="512" xmlns="http://www.w3.org/2000/svg"><g><g fill="#ffd600"><circle cx="39.713" cy="140.952" r="32.213"/><circle cx="131.027" cy="74.739" r="32.213"/><circle cx="472.287" cy="140.952" r="32.213"/></g><path d="m117.248 168.663c47.982 10.116 77.566-16.999 95.202-46.958-21.231-10.708-38.845-27.276-50.076-39.562-2.155 9.098-8.229 17.188-17.299 21.583s-19.183 4.15-27.659.204c2.718 16.644 4.826 41.152-.168 64.733z" fill="#ffff6f"/><circle cx="380.974" cy="74.739" fill="#ffd600" r="32.213"/><path d="m394.753 168.663c-47.982 10.116-77.566-16.999-95.202-46.958 21.231-10.708 38.845-27.276 50.076-39.562 2.155 9.098 8.229 17.188 17.299 21.583s19.183 4.15 27.659.204c-2.719 16.644-4.827 41.152.168 64.733z" fill="#ffff6f"/><path d="m481.646 171.781-40.091 133.999h-371.11l-40.09-133.999c2.962.9 6.103 1.381 9.355 1.381 14.778 0 27.224-9.945 31.016-23.512 106.675 62.372 147.515-28.645 160.292-71.587 5.913 7.254 14.908 11.886 24.983 11.886s19.07-4.632 24.983-11.886c12.777 42.942 53.617 133.949 160.292 71.587 3.792 13.567 16.238 23.512 31.016 23.512 3.251 0 6.392-.48 9.354-1.381z" fill="#ffff6f"/><circle cx="256" cy="57.733" fill="#ffd600" r="32.213"/><circle cx="312.31" cy="233.961" fill="#f90" r="11.948"/><g><path d="m281.299 273.662h-50.597c-4.143 0-7.5-3.358-7.5-7.5s3.357-7.5 7.5-7.5h50.597c4.143 0 7.5 3.358 7.5 7.5s-3.358 7.5-7.5 7.5z" fill="#f90"/></g><circle cx="199.691" cy="233.961" fill="#f90" r="11.948"/><g><path d="m340.196 380.588v82.511c0 12.912-10.468 23.38-23.38 23.38h-39.027c-12.912 0-23.38-10.468-23.38-23.38s10.468-23.38 23.38-23.38h15.647v-59.131z" fill="#b98eff"/></g><g><path d="m231.382 380.588v82.511c0 12.912-10.468 23.38-23.38 23.38h-39.027c-12.912 0-23.38-10.468-23.38-23.38s10.468-23.38 23.38-23.38h15.647v-59.131z" fill="#b98eff"/></g><g><g><path d="m316.815 493.979h-39.027c-17.027 0-30.88-13.853-30.88-30.88s13.853-30.88 30.88-30.88h8.147v-51.631c0-4.142 3.357-7.5 7.5-7.5s7.5 3.358 7.5 7.5v59.131c0 4.142-3.357 7.5-7.5 7.5h-15.647c-8.756 0-15.88 7.124-15.88 15.88s7.124 15.88 15.88 15.88h39.027c8.756 0 15.88-7.124 15.88-15.88v-82.511c0-4.142 3.357-7.5 7.5-7.5s7.5 3.358 7.5 7.5v82.511c0 17.027-13.852 30.88-30.88 30.88z" fill="#6d00ca"/></g></g><g><g><path d="m208.002 493.979h-39.027c-17.027 0-30.88-13.853-30.88-30.88s13.853-30.88 30.88-30.88h8.146v-51.631c0-4.142 3.357-7.5 7.5-7.5s7.5 3.358 7.5 7.5v59.131c0 4.142-3.357 7.5-7.5 7.5h-15.646c-8.756 0-15.88 7.124-15.88 15.88s7.124 15.88 15.88 15.88h39.027c8.756 0 15.88-7.124 15.88-15.88v-82.511c0-4.142 3.357-7.5 7.5-7.5s7.5 3.358 7.5 7.5v82.511c0 17.027-13.853 30.88-30.88 30.88z" fill="#6d00ca"/></g></g><path d="m184.621 380.588h46.761v31.243h-46.761z" fill="#6d00ca"/><path d="m293.435 380.588h46.761v31.243h-46.761z" fill="#6d00ca"/><path d="m479.463 164.606c-13.208 4.017-27.254-3.7-30.964-16.975-1.322-4.729-6.769-6.936-11.009-4.456-12.897 7.54-25.162 12.962-36.753 16.269-2.93-20.1-1.044-40.258 1.25-54.303.968-5.934-5.116-10.549-10.567-8.009-14.23 6.625-30.884-1.472-34.495-16.716-1.384-5.85-8.776-7.773-12.833-3.333-9.522 10.415-24.097 24.327-41.601 34.482-6.769-12.845-11.376-25.752-14.319-35.641-1.713-5.762-9.201-7.262-13.002-2.6-9.927 12.179-28.433 12.153-38.339 0-3.798-4.661-11.288-3.166-13.002 2.6-2.942 9.889-7.55 22.796-14.318 35.642-17.503-10.155-32.08-24.068-41.602-34.483-1.874-2.051-4.73-2.896-7.42-2.199-2.689.698-4.772 2.826-5.413 5.531-1.724 7.273-6.561 13.31-13.271 16.563-6.711 3.253-14.448 3.309-21.224.154-2.517-1.172-5.479-.857-7.695.822-2.214 1.678-3.319 4.444-2.872 7.186 2.295 14.048 4.18 34.208 1.25 54.306-11.591-3.308-23.856-8.731-36.753-16.271-4.238-2.478-9.686-.275-11.009 4.456-3.709 13.273-17.752 20.992-30.966 16.975-5.691-1.732-11.088 3.573-9.367 9.325l40.091 133.999c.95 3.175 3.871 5.35 7.186 5.35h371.11c3.314 0 6.235-2.175 7.186-5.35l40.09-133.999c1.708-5.712-3.641-11.071-9.369-9.325zm-132.321-69.053c8.063 13.138 23.147 20.448 38.459 18.638-1.575 13.982-2.2 31.127.424 48.355-32.832 4.363-57.593-10.62-75.884-38.061 14.639-8.517 27.285-19.313 37.001-28.932zm-220.742 18.638c7.43.879 15.025-.361 21.945-3.714 6.921-3.354 12.601-8.547 16.514-14.924 9.716 9.62 22.363 20.416 37.002 28.933-18.541 27.818-43.396 42.369-75.885 38.064 2.623-17.226 1.998-34.376.424-48.359zm309.571 184.089h-359.941l-35.195-117.634c14.123-.401 26.832-8.341 33.554-20.351 76.927 41.136 132.668 8.978 160.238-69.081 12.988 8.314 29.754 8.318 42.747 0 27.742 78.542 83.747 109.977 160.237 69.08 6.723 12.01 19.431 19.95 33.554 20.352z" fill="#f90"/><path d="m441.555 305.78-6.463 21.601c-9.445 31.576-38.49 53.207-71.447 53.207h-215.29c-32.957 0-62.002-21.631-71.447-53.207l-6.463-21.601z" fill="#f90"/><g><path d="m363.646 388.088h-215.29c-35.939 0-68.13-23.442-78.632-58.558l-6.464-21.6c-1.437-4.805 2.165-9.65 7.186-9.65h371.11c5.015 0 8.624 4.84 7.186 9.65l-6.464 21.601c-10.276 34.356-41.908 58.557-78.632 58.557zm-283.127-74.808 3.576 11.951c8.415 28.138 34.304 47.857 64.261 47.857h215.29c29.371 0 55.677-19.158 64.261-47.856l3.576-11.952z" fill="#f95116"/></g><g><path d="m95.289 92.058c-9.549-19.706-1.286-43.507 18.419-53.056 19.751-9.571 43.485-1.336 53.056 18.419 9.572 19.751 1.336 43.483-18.418 53.056-19.621 9.508-43.466 1.374-53.057-18.419zm24.96-39.558c-12.262 5.942-17.404 20.754-11.462 33.017s20.755 17.404 33.018 11.461c12.29-5.957 17.418-20.724 11.461-33.016-5.936-12.247-20.677-17.442-33.017-11.462z" fill="#f95116"/></g><g><path d="m363.655 110.476c-19.705-9.549-27.968-33.35-18.419-53.056 9.549-19.706 33.351-27.968 53.057-18.418 19.752 9.572 27.991 33.303 18.418 53.056-9.58 19.766-33.409 27.94-53.056 18.418zm-4.921-46.515c-5.942 12.263-.8 27.074 11.462 33.017 12.264 5.942 27.073.801 33.017-11.461 5.956-12.29.832-27.058-11.461-33.016-12.262-5.943-27.074-.803-33.018 11.46z" fill="#f95116"/></g><g><path d="m39.713 180.665c-21.898 0-39.713-17.815-39.713-39.713s17.815-39.713 39.713-39.713 39.713 17.815 39.713 39.713-17.816 39.713-39.713 39.713zm0-64.425c-13.627 0-24.713 11.086-24.713 24.712s11.086 24.713 24.713 24.713 24.713-11.086 24.713-24.713-11.086-24.712-24.713-24.712z" fill="#f95116"/></g><g><path d="m472.287 180.665c-21.897 0-39.713-17.815-39.713-39.713s17.815-39.713 39.713-39.713 39.713 17.816 39.713 39.713-17.815 39.713-39.713 39.713zm0-64.425c-13.627 0-24.713 11.086-24.713 24.713s11.086 24.713 24.713 24.713 24.713-11.087 24.713-24.714-11.086-24.712-24.713-24.712z" fill="#f95116"/></g><g><path d="m256 97.446c-21.897 0-39.713-17.815-39.713-39.713s17.816-39.712 39.713-39.712 39.713 17.815 39.713 39.713-17.816 39.712-39.713 39.712zm0-64.425c-13.627 0-24.713 11.086-24.713 24.713s11.086 24.712 24.713 24.712 24.713-11.086 24.713-24.713-11.086-24.712-24.713-24.712z" fill="#f95116"/></g></g></svg>