<svg id="Capa_1" enable-background="new 0 0 512 512" height="512" viewBox="0 0 512 512" width="512" xmlns="http://www.w3.org/2000/svg"><g><g><path d="m337.501 413.009v69.182c0 12.32-9.988 22.308-22.308 22.308h-37.238c-12.32 0-22.308-9.988-22.308-22.308s9.988-22.308 22.308-22.308h14.929v-46.874z" fill="#ff63ed"/></g><g><path d="m233.676 413.009v69.182c0 12.32-9.988 22.308-22.308 22.308h-37.238c-12.32 0-22.308-9.988-22.308-22.308s9.988-22.308 22.308-22.308h14.929v-46.874z" fill="#ff63ed"/></g><g><g><path d="m315.193 512h-37.238c-16.436 0-29.808-13.372-29.808-29.809 0-16.436 13.372-29.808 29.808-29.808h7.43v-39.374c0-4.142 3.357-7.5 7.5-7.5s7.5 3.358 7.5 7.5v46.874c0 4.142-3.357 7.5-7.5 7.5h-14.93c-8.165 0-14.808 6.643-14.808 14.808 0 8.166 6.643 14.809 14.808 14.809h37.238c8.165 0 14.809-6.643 14.809-14.809v-69.182c0-4.142 3.357-7.5 7.5-7.5s7.5 3.358 7.5 7.5v69.182c-.001 16.437-13.373 29.809-29.809 29.809z" fill="#e207b9"/></g></g><g><g><path d="m211.368 512h-37.238c-16.437 0-29.809-13.372-29.809-29.809 0-16.436 13.372-29.808 29.809-29.808h7.429v-39.374c0-4.142 3.357-7.5 7.5-7.5s7.5 3.358 7.5 7.5v46.874c0 4.142-3.357 7.5-7.5 7.5h-14.929c-8.165 0-14.809 6.643-14.809 14.808 0 8.166 6.644 14.809 14.809 14.809h37.237c8.165 0 14.809-6.643 14.809-14.809v-69.182c0-4.142 3.357-7.5 7.5-7.5s7.5 3.358 7.5 7.5v69.182c0 16.437-13.372 29.809-29.808 29.809z" fill="#e207b9"/></g></g><path d="m189.059 413.009h44.617v29.81h-44.617z" fill="#e207b9"/><path d="m292.884 413.009h44.617v29.81h-44.617z" fill="#e207b9"/><path d="m461.591 371.838c0 22.74-18.434 41.164-41.174 41.164h-328.835c-22.732 0-41.174-18.422-41.174-41.164 0-22.942 18.656-41.174 41.174-41.174h328.836c22.744.001 41.173 18.435 41.173 41.174z" fill="#b98eff"/><path d="m278.797 141.684c.01 0 .01 0 .019-.01 4.753-1.551 9.596-2.823 14.501-3.828l-17.455-35.781c-.746-1.53-.439-3.364.764-4.568 1.204-1.203 3.038-1.51 4.568-.764l25.272 12.328c8.73 4.259 18.903-2.098 18.903-11.811v-40.759c0-9.713-10.174-16.07-18.903-11.811l-25.272 12.328c-1.53.746-3.364.439-4.568-.764-1.203-1.203-1.51-3.038-.764-4.568l12.328-25.272c4.259-8.73-2.098-18.903-11.811-18.903h-40.759c-9.713 0-16.07 10.174-11.811 18.903l12.328 25.272c.746 1.53.439 3.364-.764 4.568-1.203 1.203-3.038 1.51-4.568.764l-25.272-12.328c-8.73-4.259-18.903 2.098-18.903 11.811v40.759c0 9.713 10.174 16.07 18.903 11.811l25.272-12.328c1.53-.746 3.364-.439 4.568.764s1.51 3.038.764 4.568l-17.455 35.781c4.905 1.005 9.749 2.278 14.501 3.828.01.01.01.01.019.01l.208-.117c6.586-5.078 14.496-7.682 22.589-7.682 8.024 0 15.942 2.518 22.582 7.644z" fill="#ffff6f"/><g><path d="m273.999 147.465c-5.153-3.978-11.377-6.081-17.999-6.081-11.116 0-17.371 5.854-18.914 6.72-.109.034-2.798 1.911-6.376.651-4.368-1.419-8.92-2.618-13.532-3.563-4.795-.982-7.382-6.231-5.235-10.635l12.981-26.611-16.103 7.855c-13.698 6.684-29.691-3.282-29.691-18.552v-40.759c0-15.241 15.965-25.247 29.691-18.552l16.103 7.855-7.855-16.102c-6.696-13.727 3.311-29.691 18.552-29.691h40.759c15.272 0 25.234 15.995 18.552 29.692l-7.854 16.102 16.103-7.855c13.749-6.706 29.691 3.338 29.691 18.552v40.76c0 15.273-15.995 25.234-29.691 18.552l-16.103-7.855 12.981 26.611c2.145 4.4-.436 9.652-5.235 10.635-4.615.946-9.17 2.145-13.54 3.566-2.292.802-4.893.537-7.285-1.295zm-44.481-14.725c.811.224 1.617.455 2.419.692 7.165-4.623 15.41-7.048 24.063-7.048 8.695 0 16.952 2.422 24.099 7.038.79-.234 1.585-.461 2.384-.682l-13.36-27.387c-4.774-9.788 5.565-20.14 15.361-15.361l25.272 12.329c3.75 1.828 8.115-.902 8.115-5.071v-40.76c0-4.179-4.377-6.895-8.115-5.07l-25.272 12.328c-9.79 4.777-20.138-5.564-15.361-15.36l12.328-25.273c1.83-3.748-.901-8.115-5.07-8.115h-40.759c-4.179 0-6.895 4.375-5.071 8.115l12.329 25.272c4.773 9.79-5.566 20.143-15.362 15.361l-25.273-12.328c-3.745-1.826-8.115.897-8.115 5.07v40.76c0 4.165 4.36 6.9 8.115 5.071l25.272-12.328c9.787-4.777 20.14 5.564 15.361 15.361z" fill="#f95116"/></g><path d="m233.203 141.684c-4.149 3.232-6.832 6.42-9.527 10.912 0 .01-.01.019-.01.029-6.568 11.678-6.424 25.246-.496 36.152-9.804-3.885-20.324-5.9-31.007-5.9-46.424 0-84.19 37.766-84.19 84.19 0 25.365 11.284 48.152 29.088 63.598h-45.479c-2.396 0-4.745.21-7.017.601-2.282.391-4.496.983-6.635 1.728-11.246-19.408-17.689-41.928-17.689-65.928 0-72.744 59.178-131.922 131.922-131.922 14.014 0 27.856 2.234 41.021 6.53.01.01.01.01.019.01z" fill="#ffff6f"/><path d="m451.759 267.066c0 24-6.444 46.52-17.689 65.928-4.102-1.429-8.829-2.329-13.651-2.329h-45.479c17.804-15.446 29.088-38.233 29.088-63.598 0-46.424-37.766-84.19-84.19-84.19-10.682 0-21.203 2.014-31.007 5.9 5.738-10.649 6.276-24.111-.496-36.152 0-.01-.01-.019-.01-.029-2.61-4.351-5.282-7.626-9.527-10.912.01 0 .01 0 .019-.01 13.164-4.296 27.007-6.53 41.021-6.53 72.742.001 131.921 59.179 131.921 131.922z" fill="#ffff6f"/><g><path d="m77.938 340.496c-2.588 0-5.105-1.341-6.496-3.741-12.233-21.113-18.7-45.21-18.7-69.688 0-76.877 62.544-139.422 139.422-139.422 14.732 0 29.316 2.322 43.347 6.9 5.742 1.87 7.022 9.378 2.302 13.056-12.093 9.422-14.612 25.525-8.053 37.595 3.339 6.145-2.849 13.13-9.354 10.553-8.994-3.565-18.496-5.372-28.242-5.372-42.287 0-76.69 34.403-76.69 76.69 0 22.205 9.66 43.321 26.503 57.933 3.129 2.714 3.465 7.451.75 10.58-2.714 3.128-7.45 3.464-10.58.75-20.129-17.463-31.673-42.708-31.673-69.263 0-50.558 41.132-91.69 91.69-91.69 6.606 0 13.119.696 19.484 2.076-1.457-10.319.705-21.871 7.599-31.829-8.884-1.979-17.952-2.979-27.083-2.979-68.606 0-124.422 55.815-124.422 124.422 0 21.84 5.768 43.337 16.679 62.167 2.077 3.584.854 8.173-2.729 10.25-1.185.685-2.478 1.012-3.754 1.012z" fill="#f90"/></g><g><path d="m434.062 340.496c-1.276 0-2.569-.326-3.753-1.012-3.584-2.077-4.807-6.666-2.729-10.25 10.911-18.831 16.679-40.328 16.679-62.167 0-68.606-55.815-124.422-124.422-124.422-9.132 0-18.198.999-27.082 2.979 6.565 9.502 9.116 20.925 7.573 31.835 6.372-1.384 12.896-2.081 19.509-2.081 50.559 0 91.69 41.132 91.69 91.69 0 26.555-11.544 51.8-31.673 69.263-3.128 2.715-7.864 2.379-10.58-.75-2.715-3.129-2.379-7.866.75-10.58 16.843-14.612 26.503-35.728 26.503-57.933 0-42.287-34.403-76.69-76.69-76.69-9.746 0-19.249 1.807-28.244 5.372-6.491 2.572-12.676-4.386-9.365-10.53 4.852-9.003 4.69-19.813-.431-28.918-.013-.023-.026-.046-.039-.07-2.279-3.756-4.412-6.187-7.551-8.615-4.751-3.677-3.463-11.194 2.282-13.071 14.03-4.578 28.614-6.9 43.348-6.9 76.878 0 139.422 62.544 139.422 139.422 0 24.478-6.467 48.575-18.7 69.688-1.392 2.398-3.909 3.739-6.497 3.74z" fill="#f90"/></g><g fill="#f90"><path d="m404.027 267.066c0 25.365-11.284 48.152-29.088 63.598h-95.073v-130.91c3.647-3.036 6.702-6.768 8.964-10.978 9.804-3.885 20.324-5.9 31.007-5.9 46.424.001 84.19 37.766 84.19 84.19z"/><path d="m232.134 199.755v130.91h-95.073c-17.804-15.446-29.088-38.233-29.088-63.598 0-46.424 37.766-84.19 84.19-84.19 10.682 0 21.203 2.014 31.007 5.9 2.262 4.209 5.317 7.942 8.964 10.978z"/><path d="m279.866 199.755v130.91h-47.732v-130.91c6.718 5.678 15.484 8.649 23.866 8.649 8.563 0 17.149-2.972 23.866-8.649z"/></g><path d="m319.836 175.377c-11.646 0-23.008 2.162-33.77 6.427-1.646.652-3.007 1.864-3.845 3.423-1.811 3.37-4.218 6.319-7.154 8.763-.009.007-.016.015-.024.022-.006.005-.014.009-.02.015-11.038 9.33-27.417 8.987-38.048 0-.006-.005-.014-.009-.02-.015-.008-.007-.016-.015-.024-.022-2.937-2.444-5.345-5.393-7.156-8.764-.838-1.558-2.198-2.77-3.843-3.422-10.761-4.265-22.123-6.427-33.77-6.427-50.559 0-91.69 41.132-91.69 91.69 0 26.555 11.544 51.8 31.673 69.263 1.42 1.231 3.17 1.835 4.912 1.835 2.098 0 4.186-.876 5.668-2.585 2.715-3.129 2.379-7.866-.75-10.58-16.843-14.612-26.503-35.728-26.503-57.933 0-42.287 34.403-76.69 76.69-76.69 8.891 0 17.578 1.504 25.862 4.474 1.874 3.004 4.084 5.756 6.608 8.229v127.585c0 4.142 3.357 7.5 7.5 7.5s7.5-3.358 7.5-7.5v-117.883c10.834 4.236 22.436 4.07 32.731.042v117.841c0 4.142 3.357 7.5 7.5 7.5s7.5-3.358 7.5-7.5v-127.586c2.524-2.473 4.734-5.225 6.607-8.229 8.285-2.97 16.973-4.474 25.863-4.474 42.287 0 76.69 34.403 76.69 76.69 0 22.205-9.66 43.321-26.503 57.933-3.129 2.714-3.465 7.451-.75 10.58 1.483 1.709 3.569 2.585 5.668 2.585 1.742 0 3.493-.604 4.912-1.835 20.129-17.463 31.673-42.708 31.673-69.263.004-50.557-41.128-91.689-91.687-91.689z" fill="#f95116"/><path d="m293.26 171.144c0 20.832-16.929 37.26-37.26 37.26-19.907 0-36.752-16.035-37.241-36.066-.162-6.783 1.186-13.097 4.907-19.713 0-.01.01-.019.01-.029 7.385-12.309 19.632-18.711 32.324-18.711 12.514 0 24.771 6.123 32.324 18.711 0 .01.01.019.01.029 3.108 5.525 4.926 11.621 4.926 18.519z" fill="#ff63ed"/><g><path d="m256 215.904c-24.084 0-44.153-19.462-44.738-43.383-.622-26.206 20.371-46.136 44.738-46.136 25.405 0 44.76 20.68 44.76 44.76-.001 24.68-20.08 44.759-44.76 44.759zm-29.743-43.745c.387 15.848 13.729 28.745 29.742 28.745 16.409 0 29.76-13.35 29.76-29.76 0-16.033-13.026-29.76-29.76-29.76-16.488.001-30.156 13.377-29.742 30.775z" fill="#e207b9"/></g><g fill="#ff63ed"><circle cx="123.368" cy="371.837" r="15.688"/><circle cx="211.789" cy="371.837" r="15.688"/><circle cx="300.21" cy="371.837" r="15.688"/><circle cx="388.632" cy="371.837" r="15.688"/></g><g><g><path d="m123.369 395.025c-12.786 0-23.188-10.402-23.188-23.188s10.402-23.188 23.188-23.188 23.188 10.402 23.188 23.188-10.402 23.188-23.188 23.188zm0-31.377c-4.515 0-8.188 3.673-8.188 8.188s3.674 8.188 8.188 8.188 8.188-3.673 8.188-8.188-3.674-8.188-8.188-8.188z" fill="#e207b9"/></g><g><path d="m211.79 395.025c-12.786 0-23.188-10.402-23.188-23.188s10.402-23.188 23.188-23.188 23.188 10.402 23.188 23.188-10.402 23.188-23.188 23.188zm0-31.377c-4.515 0-8.188 3.673-8.188 8.188s3.674 8.188 8.188 8.188 8.188-3.673 8.188-8.188-3.674-8.188-8.188-8.188z" fill="#e207b9"/></g><g><path d="m300.21 395.025c-12.786 0-23.188-10.402-23.188-23.188s10.402-23.188 23.188-23.188 23.188 10.402 23.188 23.188-10.401 23.188-23.188 23.188zm0-31.377c-4.515 0-8.188 3.673-8.188 8.188s3.674 8.188 8.188 8.188 8.188-3.673 8.188-8.188-3.673-8.188-8.188-8.188z" fill="#e207b9"/></g><g><path d="m388.631 395.025c-12.786 0-23.188-10.402-23.188-23.188s10.402-23.188 23.188-23.188 23.188 10.402 23.188 23.188-10.402 23.188-23.188 23.188zm0-31.377c-4.515 0-8.188 3.673-8.188 8.188s3.674 8.188 8.188 8.188 8.188-3.673 8.188-8.188-3.673-8.188-8.188-8.188z" fill="#e207b9"/></g></g><g><path d="m420.417 420.502h-328.834c-26.839 0-48.674-21.831-48.674-48.664 0-26.839 21.835-48.674 48.674-48.674h328.835c26.839 0 48.674 21.835 48.674 48.674-.001 26.834-21.836 48.664-48.675 48.664zm-328.834-82.337c-18.567 0-33.674 15.106-33.674 33.674 0 18.563 15.106 33.664 33.674 33.664h328.835c18.567 0 33.674-15.102 33.674-33.664 0-18.568-15.106-33.674-33.674-33.674z" fill="#6d00ca"/></g></g></svg>