<svg id="Capa_1" enable-background="new 0 0 512 512" height="512" viewBox="0 0 512 512" width="512" xmlns="http://www.w3.org/2000/svg"><g><path d="m224.476 154.359c1.605-.245 3.248-.372 4.921-.372h53.205c1.673 0 3.317.127 4.921.372 15.738-13.256 26.144-35.074 26.144-55.285 0-31.849-25.818-91.574-57.667-91.574s-57.668 59.725-57.668 91.574c0 20.211 10.406 42.029 26.144 55.285z" fill="#ffd600"/><path d="m229.398 153.991h53.204c.227 0 .449.021.676.025 2.282-6.261 3.584-13.028 3.584-19.551 0-21.335-13.817-61.344-30.862-61.344s-30.862 40.009-30.862 61.344c0 6.52 1.302 13.285 3.582 19.543.226-.004.45-.017.678-.017z" fill="#ffff6f"/><path d="m118.053 154.359c-1.605-.245-3.248-.372-4.921-.372h-53.205c-1.673 0-3.317.127-4.921.372-15.738-13.256-26.144-35.074-26.144-55.285 0-31.849 25.819-91.574 57.668-91.574s57.668 59.725 57.668 91.574c-.001 20.211-10.407 42.029-26.145 55.285z" fill="#ffd600"/><path d="m113.131 153.991h-53.203c-.227 0-.449.021-.676.025-2.282-6.261-3.584-13.028-3.584-19.551 0-21.335 13.817-61.344 30.862-61.344s30.862 40.009 30.862 61.344c0 6.52-1.302 13.285-3.582 19.543-.226-.004-.451-.017-.679-.017z" fill="#ffff6f"/><path d="m456.994 154.359c-1.605-.245-3.248-.372-4.921-.372h-53.205c-1.673 0-3.317.127-4.921.372-15.738-13.256-26.144-35.074-26.144-55.285 0-31.849 25.819-91.574 57.668-91.574s57.668 59.725 57.668 91.574c-.001 20.211-10.407 42.029-26.145 55.285z" fill="#ffd600"/><path d="m452.072 153.991h-53.204c-.227 0-.449.021-.676.025-2.282-6.261-3.584-13.028-3.584-19.551 0-21.335 13.817-61.344 30.862-61.344s30.862 40.009 30.862 61.344c0 6.52-1.302 13.285-3.582 19.543-.226-.004-.45-.017-.678-.017z" fill="#ffff6f"/><g fill="#f95116"><path d="m256 0c-17.108 0-33.922 13.396-47.344 37.72-10.828 19.622-17.824 43.705-17.824 61.354 0 22.326 11.31 46.279 28.812 61.021 2.007 1.69 4.84 2.292 7.542 1.247 5.702 1.198 10.603-4.349 8.581-9.901-2.046-5.619-3.128-11.49-3.128-16.977 0-21.638 13.974-53.844 23.362-53.844s23.361 32.206 23.361 53.844c0 5.49-1.083 11.363-3.131 16.984-1.979 5.431 2.726 11.105 8.558 9.895 2.476.967 5.39.584 7.567-1.249 17.502-14.742 28.812-38.695 28.812-61.022 0-17.649-6.996-41.731-17.823-61.354-13.423-24.322-30.236-37.718-47.345-37.718zm38.337 135.508c.006-.347.025-.698.025-1.043 0-11.996-3.798-28.364-9.677-41.698-7.828-17.759-17.747-27.146-28.685-27.146s-20.857 9.387-28.686 27.146c-5.879 13.335-9.677 29.702-9.677 41.698 0 .345.019.696.025 1.043-7.362-10.927-11.831-24.178-11.831-36.434 0-15.066 6.413-36.81 15.957-54.107 10.51-19.045 22.98-29.967 34.212-29.967s23.701 10.923 34.21 29.967c9.544 17.297 15.957 39.041 15.957 54.107 0 12.256-4.468 25.507-11.83 36.434z"/><path d="m86.53 0c-17.109 0-33.922 13.396-47.344 37.72-10.828 19.622-17.824 43.705-17.824 61.354 0 22.327 11.31 46.279 28.813 61.022 2.176 1.833 5.09 2.215 7.566 1.249 5.815 1.206 10.546-4.442 8.559-9.895-2.049-5.623-3.132-11.496-3.132-16.984 0-21.638 13.974-53.844 23.362-53.844s23.362 32.206 23.362 53.844c0 5.488-1.082 11.358-3.129 16.976-1.418 3.892.588 8.196 4.479 9.614 1.365.497 2.778.566 4.101.288 2.705 1.046 5.539.439 7.542-1.247 17.503-14.743 28.813-38.695 28.813-61.022 0-17.648-6.996-41.731-17.824-61.354-13.423-24.325-30.236-37.721-47.344-37.721zm38.337 135.507c.006-.347.025-.697.025-1.042 0-11.996-3.798-28.364-9.677-41.698-7.828-17.759-17.748-27.146-28.686-27.146s-20.857 9.387-28.686 27.146c-5.879 13.335-9.677 29.702-9.677 41.698 0 .345.019.695.025 1.042-7.362-10.927-11.831-24.178-11.831-36.433 0-15.066 6.413-36.81 15.957-54.107 10.51-19.045 22.98-29.967 34.213-29.967s23.702 10.923 34.211 29.967c9.544 17.297 15.957 39.041 15.957 54.107 0 12.255-4.469 25.506-11.831 36.433z"/><path d="m472.814 37.72c-13.422-24.324-30.236-37.72-47.344-37.72s-33.922 13.396-47.344 37.72c-10.827 19.622-17.823 43.705-17.823 61.354 0 22.327 11.31 46.28 28.812 61.022 2.176 1.833 5.09 2.215 7.566 1.249 5.827 1.209 10.54-4.457 8.559-9.895-2.049-5.623-3.132-11.496-3.132-16.984 0-21.638 13.974-53.844 23.362-53.844s23.362 32.206 23.362 53.844c0 5.488-1.082 11.358-3.129 16.976-2.019 5.543 2.867 11.103 8.581 9.902 2.7 1.044 5.535.443 7.542-1.247 17.502-14.743 28.812-38.695 28.812-61.021 0-17.651-6.996-41.734-17.824-61.356zm-9.007 97.788c.006-.347.025-.698.025-1.043 0-11.996-3.798-28.364-9.677-41.698-7.828-17.759-17.748-27.146-28.686-27.146s-20.857 9.387-28.686 27.146c-5.879 13.335-9.677 29.702-9.677 41.698 0 .345.019.695.025 1.042-7.362-10.927-11.83-24.177-11.83-36.433 0-15.066 6.412-36.81 15.957-54.107 10.511-19.045 22.98-29.967 34.212-29.967s23.702 10.923 34.211 29.967c9.544 17.297 15.957 39.041 15.957 54.107 0 12.255-4.468 25.507-11.831 36.434z"/></g><path d="m314.924 266.662v95.982l-116.984 116.983c-.563-2.383-.865-4.876-.865-7.44v-87.677z" fill="#ff9bff"/><path d="m314.924 186.303v80.358l-117.848 117.849v-95.982l115.154-115.153c1.729 3.961 2.694 8.334 2.694 12.928z" fill="#ff63ed"/><path d="m314.924 362.643v109.544c0 17.845-14.477 32.312-32.322 32.312h-53.204c-15.281 0-28.1-10.617-31.458-24.873z" fill="#ff63ed"/><path d="m312.23 173.364v.01l-115.154 115.154v-102.225c0-17.845 14.477-32.312 32.322-32.312h53.204c13.25 0 24.631 7.973 29.628 19.373z" fill="#ff9bff"/><path d="m27.605 266.662v95.982l116.984 116.984c.563-2.383.865-4.876.865-7.44v-87.678z" fill="#88f8d8"/><path d="m27.605 186.303v80.358l117.849 117.849v-95.982l-115.154-115.153c-1.729 3.961-2.695 8.334-2.695 12.928z" fill="#17d9c3"/><path d="m27.605 362.643v109.544c0 17.845 14.477 32.312 32.322 32.312h53.204c15.281 0 28.1-10.617 31.458-24.873z" fill="#17d9c3"/><path d="m30.3 173.364v.01l115.154 115.154v-102.225c0-17.845-14.477-32.312-32.322-32.312h-53.204c-13.251 0-24.632 7.973-29.628 19.373z" fill="#88f8d8"/><path d="m366.546 266.662v95.982l116.984 116.983c.563-2.383.865-4.876.865-7.44v-87.677z" fill="#b98eff"/><path d="m366.546 186.303v80.358l117.848 117.849v-95.982l-115.154-115.153c-1.729 3.961-2.694 8.334-2.694 12.928z" fill="#ddbeff"/><path d="m366.546 362.643v109.544c0 17.845 14.477 32.312 32.322 32.312h53.204c15.281 0 28.1-10.617 31.458-24.873z" fill="#ddbeff"/><path d="m369.24 173.364v.01l115.154 115.154v-102.225c0-17.845-14.477-32.312-32.322-32.312h-53.204c-13.25 0-24.631 7.973-29.628 19.373z" fill="#b98eff"/><path d="m282.602 146.491h-53.204c-21.958 0-39.822 17.86-39.822 39.812v285.884c0 21.634 17.334 39.812 39.822 39.812h53.204c21.958 0 39.822-17.859 39.822-39.812 0-13.275 0-274.18 0-285.884 0-21.844-17.7-39.812-39.822-39.812zm-78.027 145.144 102.849-102.848v74.768l-102.849 102.848zm102.849 67.902-102.849 102.848v-74.769l102.849-102.848zm-78.026-198.046h53.204c8.189 0 15.738 4.028 20.333 10.572l-98.359 98.359v-84.118c-.001-13.682 11.134-24.813 24.822-24.813zm53.204 335.509h-53.204c-10.22 0-19.159-6.12-22.935-15.287l100.961-100.963v91.437c0 13.682-11.135 24.813-24.822 24.813z" fill="#e207b9"/><path d="m113.131 146.491h-53.203c-21.915 0-39.822 17.768-39.822 39.812v285.884c0 21.953 17.864 39.813 39.822 39.813h53.203c22.427 0 39.822-18.115 39.822-39.812 0-33.723 0-251.445 0-285.884 0-21.953-17.864-39.813-39.822-39.813zm-78.025 213.046v-74.768l102.848 102.848v74.768zm0-95.982v-74.768l102.848 102.848v74.768zm24.822-102.064h53.203c13.688 0 24.822 11.131 24.822 24.812v84.118l-98.358-98.359c4.594-6.543 12.143-10.571 20.333-10.571zm53.203 335.509h-53.203c-13.688 0-24.822-11.131-24.822-24.812v-91.438l100.962 100.962c-3.778 9.168-12.718 15.288-22.937 15.288z" fill="#007ea8"/><path d="m452.072 146.491h-53.203c-21.915 0-39.822 17.768-39.822 39.812v285.884c0 21.953 17.864 39.812 39.822 39.812h53.203c22.428 0 39.822-18.114 39.822-39.812 0-16.994 0-268.969 0-285.884 0-21.952-17.864-39.812-39.822-39.812zm-78.026 213.046v-74.768l102.848 102.848v74.768zm0-95.982v-74.768l102.848 102.848v74.768zm24.822-102.064h53.203c13.688 0 24.822 11.131 24.822 24.812v84.118l-98.358-98.359c4.594-6.543 12.143-10.571 20.333-10.571zm53.204 335.509h-53.203c-13.688 0-24.822-11.131-24.822-24.812v-91.438l100.962 100.962c-3.778 9.168-12.718 15.288-22.937 15.288z" fill="#6d00ca"/></g></svg>