<svg id="Capa_1" enable-background="new 0 0 512 512" height="512" viewBox="0 0 512 512" width="512" xmlns="http://www.w3.org/2000/svg"><g><path d="m504.5 82.376v339.459c0 31.833-25.8 57.633-57.623 57.633h-38.067c31.824 0 57.623-25.809 57.623-57.633v-339.459c0-27.532-22.316-49.848-49.839-49.848h38.067c27.522 0 49.839 22.316 49.839 49.848z" fill="#9448f5"/><circle cx="396.105" cy="182.177" fill="#ff9bff" r="34.103"/><path d="m137.22 287.942c-1.876-7.535-9.342-12.424-16.998-11.131-2.114.357-4.223.588-6.323.717v87.036c-2.084-.228-4.197-.352-6.329-.352-32.737 0-59.089 27.284-57.566 60.345 1.351 29.53 25.314 53.493 54.844 54.844 33.061 1.523 60.345-24.838 60.345-57.566v-96.44c-13.523-8.043-23.937-21.239-27.973-37.453z" fill="#b98eff"/><path d="m416.594 32.528h-252.857c-27.532 0-49.839 22.317-49.839 49.848v149.123c19.255-2.823 38.089 3.914 51.295 16.808v-52.94c0-12.543 10.164-22.707 22.697-22.707h175.468c4.12-14.201 17.217-24.586 32.747-24.586 18.835 0 34.103 15.268 34.103 34.103 0 11.786-5.98 22.175-15.07 28.301v154.086c-2.084-.228-4.187-.352-6.329-.352-32.737 0-59.089 27.284-57.566 60.345 1.351 29.53 25.314 53.493 54.844 54.844.914.038 1.818.067 2.722.067 31.824 0 57.623-25.809 57.623-57.633v-339.459c.001-27.532-22.315-49.848-49.838-49.848z" fill="#b98eff"/><path d="m267.655 333.219c-7.616-30.598-37.937-50.453-69.029-45.202-7.656 1.293-15.122-3.596-16.998-11.131-7.616-30.598-37.937-50.453-69.029-45.202-7.656 1.293-15.122-3.596-16.997-11.131-7.617-30.597-37.938-50.452-69.028-45.201-12.46 2.104-20.856 13.912-18.752 26.373s13.912 20.857 26.373 18.752c7.656-1.293 15.122 3.596 16.998 11.13 7.616 30.598 37.937 50.453 69.028 45.202 7.656-1.293 15.122 3.596 16.998 11.131 7.617 30.598 37.938 50.453 69.029 45.201 7.656-1.293 15.122 3.596 16.998 11.131 2.98 11.974 14.887 19.375 26.862 16.877.29-.06.58-.127.869-.199 12.264-3.051 19.731-15.467 16.678-27.731z" fill="#88f8d8"/><circle cx="340.003" cy="102.086" fill="#6d00ca" r="10.835"/><g><path d="m311.881 138.787h-45.883c-4.143 0-7.5-3.358-7.5-7.5s3.357-7.5 7.5-7.5h45.883c4.143 0 7.5 3.358 7.5 7.5s-3.358 7.5-7.5 7.5z" fill="#6d00ca"/></g><circle cx="237.875" cy="102.086" fill="#6d00ca" r="10.835"/><g><path d="m104.504 486.893c-33.239-1.521-60.471-28.751-61.992-61.994-1.699-36.905 27.319-67.544 63.888-68.178v-79.194c0-4.142 3.357-7.5 7.5-7.5s7.5 3.358 7.5 7.5v87.036c0 4.463-3.877 7.94-8.317 7.456-1.864-.205-3.719-.308-5.512-.308-28.524 0-51.401 23.716-50.074 52.5 1.171 25.577 22.121 46.527 47.695 47.697 28.678 1.334 52.502-21.464 52.502-50.074v-96.44c0-4.142 3.357-7.5 7.5-7.5s7.5 3.358 7.5 7.5v96.44c-.001 37.032-30.805 66.781-68.19 65.059z" fill="#6d00ca"/></g><path d="m454.661 25.028c-10.893 0-280.361 0-290.924 0-31.616 0-57.338 25.726-57.338 57.348v149.123c0 4.142 3.357 7.5 7.5 7.5s7.5-3.358 7.5-7.5v-149.123c0-23.351 18.993-42.348 42.338-42.348h252.858c23.346 0 42.339 18.997 42.339 42.348v339.459c0 27.75-22.944 51.298-52.503 50.074-25.575-1.17-46.524-22.12-47.694-47.697-1.328-28.822 21.592-52.5 50.073-52.5 1.819 0 3.622.101 5.512.308 4.4.491 8.317-2.962 8.317-7.455v-154.088c0-4.142-3.357-7.5-7.5-7.5s-7.5 3.358-7.5 7.5v146.244c-36.504.633-65.589 31.204-63.887 68.178 1.521 33.242 28.751 60.473 62.023 61.995 3.336.139 1.166.043 41.102.073 35.909 0 65.123-29.218 65.123-65.133v-339.458c0-31.622-25.722-57.348-57.339-57.348zm42.339 396.807c0 26.427-20.547 48.143-46.503 50.003 14.757-12.328 23.437-30.669 23.437-50.003v-339.459c0-15.734-6.584-31.267-18.709-42.345 23.086.303 41.775 19.182 41.775 42.345z" fill="#6d00ca"/><g><path d="m165.193 255.807c-4.143 0-7.5-3.358-7.5-7.5v-52.94c0-16.656 13.547-30.207 30.197-30.207h175.468c4.143 0 7.5 3.358 7.5 7.5s-3.357 7.5-7.5 7.5h-175.468c-8.38 0-15.197 6.822-15.197 15.207v52.94c0 4.142-3.357 7.5-7.5 7.5z" fill="#6d00ca"/></g><g><path d="m245.35 369.145c-13.672.001-25.942-9.24-29.383-23.061-.935-3.755-4.665-6.189-8.469-5.547-34.925 5.902-68.999-16.406-77.558-50.784-.934-3.756-4.661-6.196-8.471-5.548-34.937 5.9-68.998-16.408-77.555-50.785-.936-3.754-4.658-6.191-8.472-5.547-16.554 2.798-32.222-8.34-35.017-24.899-2.79-16.518 8.38-32.227 24.898-35.017 34.928-5.897 68.997 16.408 77.555 50.785.935 3.755 4.657 6.193 8.471 5.548 34.933-5.901 68.999 16.408 77.556 50.785.935 3.754 4.661 6.188 8.471 5.547 34.928-5.899 68.999 16.407 77.556 50.785 4.757 19.109-9.657 37.738-29.582 37.738zm-14.826-26.683c2.005 8.056 9.938 13.037 18.053 11.346 8.543-1.773 13.915-10.287 11.8-18.777-6.675-26.818-33.244-44.219-60.501-39.618-11.488 1.936-22.707-5.4-25.524-16.713-6.676-26.82-33.252-44.223-60.502-39.619-11.481 1.942-22.707-5.4-25.524-16.715-6.677-26.817-33.241-44.22-60.501-39.618-8.363 1.412-14.019 9.365-12.605 17.729 1.414 8.378 9.341 14.024 17.728 12.606 11.494-1.94 22.709 5.399 25.525 16.714 6.677 26.819 33.254 44.218 60.501 39.618 11.512-1.943 22.711 5.401 25.525 16.715 6.676 26.817 33.251 44.218 60.502 39.617 11.448-1.937 22.696 5.358 25.523 16.715z" fill="#007ea8"/></g><g><path d="m396.105 223.78c-22.94 0-41.604-18.663-41.604-41.603s18.663-41.603 41.604-41.603c22.939 0 41.603 18.663 41.603 41.603s-18.663 41.603-41.603 41.603zm0-68.206c-14.669 0-26.604 11.934-26.604 26.603s11.935 26.603 26.604 26.603 26.603-11.934 26.603-26.603-11.934-26.603-26.603-26.603z" fill="#e207b9"/></g></g></svg>