<svg id="Capa_1" enable-background="new 0 0 512 512" height="512" viewBox="0 0 512 512" width="512" xmlns="http://www.w3.org/2000/svg"><g><g><path d="m317.724 396.594v84.081c0 13.158-10.667 23.825-23.825 23.825h-39.769c-13.158 0-23.825-10.667-23.825-23.825s10.667-23.825 23.825-23.825h15.944v-60.256z" fill="#ff63ed"/></g><g><path d="m206.84 396.594v84.081c0 13.158-10.667 23.825-23.825 23.825h-39.769c-13.158 0-23.825-10.667-23.825-23.825s10.667-23.825 23.825-23.825h15.944v-60.256z" fill="#ff63ed"/></g><path d="m159.19 396.594h47.65v31.837h-47.65z" fill="#e207b9"/><path d="m270.074 396.594h47.65v31.837h-47.65z" fill="#e207b9"/><path d="m359.936 175.414c7.333 16.036 11.425 33.864 11.425 52.649 0 69.996-56.743 126.74-126.74 126.74s-126.74-56.743-126.74-126.74c0-18.785 4.092-36.614 11.425-52.649h-120.851v167.858c0 29.444 23.878 53.322 53.332 53.322h324.898c29.455 0 53.322-23.878 53.322-53.322v-167.858z" fill="#ff9bff"/><path d="m386.685 59.982h-324.898c-29.455 0-53.332 23.868-53.332 53.322v62.111h120.853c19.991-43.715 64.104-74.09 115.314-74.09s95.323 30.376 115.314 74.09h80.071v-62.111c0-29.455-23.867-53.322-53.322-53.322z" fill="#b98eff"/><circle cx="244.622" cy="228.064" fill="#ddbeff" r="126.74"/><path d="m503.545 175.414v167.858c0 29.444-23.878 53.322-53.322 53.322h-63.538c29.455 0 53.322-23.878 53.322-53.322v-167.858z" fill="#ff63ed"/><path d="m503.545 113.304v62.111h-63.538v-62.111c0-29.455-23.867-53.322-53.322-53.322h63.538c29.444 0 53.322 23.867 53.322 53.322z" fill="#9448f5"/><circle cx="244.622" cy="228.064" fill="#88f8d8" r="84.123"/><path d="m355.788 7.5h-47.424c-17.064 0-30.897 13.833-30.897 30.897v21.585h109.217v-21.585c.001-17.064-13.832-30.897-30.896-30.897z" fill="#ff63ed"/><path d="m97.104 94.174h-28.182c-11.027 0-19.966 8.939-19.966 19.966s8.939 19.966 19.966 19.966h28.182c11.027 0 19.966-8.939 19.966-19.966s-8.939-19.966-19.966-19.966z" fill="#88f8d8"/><path d="m349.488 299.255c-9.254 13.604-21.086 25.31-34.793 34.423 3.675 10.648 13.766 18.305 25.663 18.305 15.002 0 27.164-12.162 27.164-27.164-.001-11.795-7.53-21.811-18.034-25.564z" fill="#ff63ed"/><path d="m503.545 167.914h-63.538-80.071c-4.143 0-7.5 3.358-7.5 7.5s3.357 7.5 7.5 7.5h72.571v160.358c0 25.267-20.556 45.822-45.822 45.822-39.285 0-285.624 0-324.898 0-25.271 0-45.832-20.556-45.832-45.822v-160.358h113.353c4.143 0 7.5-3.358 7.5-7.5s-3.357-7.5-7.5-7.5h-120.853c-4.143 0-7.5 3.358-7.5 7.5v167.858c0 33.538 27.289 60.822 60.832 60.822h89.903v45.256h-8.444c-17.272 0-31.325 14.052-31.325 31.325s14.053 31.325 31.325 31.325h39.77c17.272 0 31.325-14.052 31.325-31.325v-76.581h48.233v45.256h-8.444c-17.272 0-31.325 14.052-31.325 31.325s14.053 31.325 31.325 31.325h39.77c17.272 0 31.325-14.052 31.325-31.325v-76.581h124.999c33.537 0 60.822-27.285 60.822-60.822v-167.858c-.001-4.142-3.358-7.5-7.501-7.5zm-304.205 312.761c0 9.002-7.323 16.325-16.325 16.325h-39.77c-9.002 0-16.325-7.323-16.325-16.325 0-9.001 7.323-16.325 16.325-16.325h15.944c4.143 0 7.5-3.358 7.5-7.5v-52.756h32.65v76.581zm110.884 0c0 9.002-7.323 16.325-16.325 16.325h-39.77c-9.002 0-16.325-7.323-16.325-16.325 0-9.001 7.323-16.325 16.325-16.325h15.944c4.143 0 7.5-3.358 7.5-7.5v-52.756h32.65v76.581zm185.821-137.403c0 25.267-20.556 45.822-45.822 45.822h-23.584c13.227-11.546 20.868-28.265 20.868-45.822v-160.358h48.538z" fill="#e207b9"/><g><path d="m244.622 319.687c-50.521 0-91.623-41.102-91.623-91.624 0-50.521 41.102-91.623 91.623-91.623s91.623 41.102 91.623 91.623c0 50.522-41.102 91.624-91.623 91.624zm0-168.247c-42.25 0-76.623 34.373-76.623 76.623s34.373 76.624 76.623 76.624 76.623-34.373 76.623-76.624-34.373-76.623-76.623-76.623z" fill="#007ea8"/></g><g><path d="m386.685 67.482c-4.143 0-7.5-3.358-7.5-7.5v-21.585c0-12.901-10.496-23.397-23.396-23.397h-47.424c-12.901 0-23.397 10.496-23.397 23.397v21.585c0 4.142-3.357 7.5-7.5 7.5s-7.5-3.358-7.5-7.5v-21.585c-.001-21.172 17.224-38.397 38.397-38.397h47.424c21.172 0 38.396 17.225 38.396 38.397v21.585c0 4.142-3.357 7.5-7.5 7.5z" fill="#e207b9"/></g><g><path d="m97.104 141.607h-28.182c-15.146 0-27.467-12.321-27.467-27.466s12.321-27.467 27.467-27.467h28.182c15.146 0 27.467 12.322 27.467 27.467s-12.321 27.466-27.467 27.466zm-28.182-39.933c-6.874 0-12.467 5.593-12.467 12.467s5.593 12.466 12.467 12.466h28.182c6.874 0 12.467-5.592 12.467-12.466s-5.593-12.467-12.467-12.467z" fill="#007ea8"/></g><circle cx="293.381" cy="222.353" fill="#007ea8" r="10.346"/><g><path d="m266.528 257.737h-43.813c-4.143 0-7.5-3.358-7.5-7.5s3.357-7.5 7.5-7.5h43.813c4.143 0 7.5 3.358 7.5 7.5s-3.358 7.5-7.5 7.5z" fill="#007ea8"/></g><circle cx="195.862" cy="222.353" fill="#007ea8" r="10.346"/><g><path d="m340.357 359.482c-14.768 0-27.93-9.387-32.753-23.358-1.352-3.916.728-8.185 4.643-9.537 3.916-1.353 8.185.727 9.537 4.642 2.736 7.927 10.2 13.252 18.573 13.252 10.843 0 19.664-8.821 19.664-19.664 0-8.276-5.247-15.711-13.057-18.501-3.9-1.394-5.933-5.686-4.539-9.586s5.685-5.932 9.586-4.54c13.763 4.917 23.01 18.029 23.01 32.627 0 19.116-15.55 34.665-34.664 34.665z" fill="#e207b9"/></g><path d="m450.223 52.482c-18.616 0-370.882 0-388.437 0-33.543 0-60.832 27.285-60.832 60.822v62.111c0 4.142 3.357 7.5 7.5 7.5h109.748c-5.057 14.116-7.82 29.315-7.82 45.149 0 74.02 60.22 134.24 134.239 134.24s134.239-60.22 134.239-134.24c0-15.834-2.764-31.033-7.82-45.149h132.505c4.143 0 7.5-3.358 7.5-7.5v-62.111c0-33.538-27.285-60.822-60.822-60.822zm-434.268 60.822c0-25.266 20.561-45.822 45.832-45.822h324.898c25.267 0 45.822 20.556 45.822 45.822v54.611h-67.851c-21.711-43.244-67.1-74.09-120.035-74.09-51.863 0-97.84 29.881-120.034 74.09h-108.632zm228.667 233.999c-65.749 0-119.239-53.491-119.239-119.24 0-66.262 54.005-119.24 119.239-119.24 65.509 0 119.239 53.272 119.239 119.24 0 65.75-53.49 119.24-119.239 119.24zm251.423-179.389h-48.538v-54.611c0-17.795-7.883-34.493-20.867-45.822h23.583c25.267 0 45.822 20.556 45.822 45.822z" fill="#6d00ca"/></g></svg>