<svg id="Capa_1" enable-background="new 0 0 512 512" height="512" viewBox="0 0 512 512" width="512" xmlns="http://www.w3.org/2000/svg"><g><path d="m321.712 99.892v30.275c0 11.019-8.932 19.951-19.951 19.951s-19.951-8.932-19.951-19.951v-30.275h-95v30.275c0 11.019-8.932 19.951-19.951 19.951s-19.951-8.932-19.951-19.951v-25.012c-25.971 9.768-46.018 32.341-51.722 60.854l-38.116 190.4c-4.399 21.986 12.419 42.515 34.854 42.515h249.384c-22.435 0-39.253-20.529-34.854-42.515l46.854-234.072c1.307-6.524 4.828-12.13 9.686-16.12 4.848-3.97 11.043-6.324 17.696-6.324h-58.978z" fill="#ff9bff"/><g fill="#ff63ed"><path d="m420.084 398.923h-78.775c-22.435 0-39.253-20.529-34.854-42.515l46.854-234.072c1.307-6.524 4.828-12.13 9.686-16.12 4.848-3.97 11.043-6.324 17.696-6.324 13.317 0 24.779 9.397 27.392 22.445l46.844 234.072c4.41 21.985-12.419 42.514-34.843 42.514z"/><path d="m176.208 221.262c0-7.976 3.508-15.129 9.059-20.015s-65.461-60.814-65.461 20.015 65.461 20.015 65.461 20.015c-5.551-4.886-9.059-12.039-9.059-20.015z"/><path d="m229.246 201.247c5.551 4.885 9.059 12.039 9.059 20.015 0 7.976-3.508 15.129-9.059 20.015s65.461 60.814 65.461-20.015-65.461-20.015-65.461-20.015z"/><path d="m211.646 194.603h-8.779c-14.723 0-26.659 11.936-26.659 26.659 0 14.723 11.936 26.659 26.659 26.659h8.779c14.723 0 26.659-11.936 26.659-26.659 0-14.723-11.936-26.659-26.659-26.659z"/></g><g><path d="m301.761 150.117c-11.019 0-19.951-8.932-19.951-19.951v-35.264c0-26.192-21.309-47.5-47.5-47.5-26.192 0-47.501 21.309-47.501 47.5v35.265c0 11.019-8.932 19.951-19.951 19.951s-19.951-8.932-19.951-19.951v-35.265c0-48.193 39.208-87.402 87.402-87.402s87.402 39.208 87.402 87.402v35.265c.001 11.018-8.931 19.95-19.95 19.95z" fill="#b98eff"/></g><g><path d="m287.967 398.923v82.266c0 12.874-10.437 23.311-23.311 23.311h-38.911c-12.874 0-23.311-10.437-23.311-23.311s10.437-23.311 23.311-23.311h15.6v-58.955z" fill="#b98eff"/></g><g><path d="m179.476 398.923v82.266c0 12.874-10.437 23.311-23.311 23.311h-38.911c-12.874 0-23.311-10.437-23.311-23.311s10.437-23.311 23.311-23.311h15.6v-58.955z" fill="#b98eff"/></g><circle cx="248.599" cy="311.573" fill="#e207b9" r="11.383"/><circle cx="141.305" cy="311.573" fill="#e207b9" r="11.383"/><g><g><path d="m264.656 512h-38.911c-16.989 0-30.811-13.822-30.811-30.811s13.821-30.811 30.811-30.811h8.1v-51.455c0-4.142 3.357-7.5 7.5-7.5h46.622c4.143 0 7.5 3.358 7.5 7.5v82.266c0 16.989-13.821 30.811-30.811 30.811zm-38.911-46.622c-8.718 0-15.811 7.093-15.811 15.811s7.093 15.811 15.811 15.811h38.911c8.718 0 15.811-7.093 15.811-15.811v-74.766h-31.622v51.455c0 4.142-3.357 7.5-7.5 7.5z" fill="#6d00ca"/></g></g><g><g><path d="m156.166 512h-38.911c-16.989 0-30.811-13.822-30.811-30.811s13.821-30.811 30.811-30.811h8.1v-51.455c0-4.142 3.357-7.5 7.5-7.5h46.622c4.143 0 7.5 3.358 7.5 7.5v82.266c0 16.989-13.822 30.811-30.811 30.811zm-38.911-46.622c-8.718 0-15.811 7.093-15.811 15.811s7.093 15.811 15.811 15.811h38.911c8.718 0 15.811-7.093 15.811-15.811v-74.766h-31.622v51.455c0 4.142-3.357 7.5-7.5 7.5z" fill="#6d00ca"/></g></g><path d="m132.855 398.923h46.621v31.15h-46.621z" fill="#6d00ca"/><path d="m241.345 398.923h46.621v31.15h-46.621z" fill="#6d00ca"/><g fill="#e207b9"><path d="m170.85 334.752c-4.143 0-7.5 3.358-7.5 7.5s3.357 7.5 7.5 7.5h48.204c4.143 0 7.5-3.358 7.5-7.5s-3.357-7.5-7.5-7.5z"/><path d="m462.282 354.937-46.846-234.073c-3.304-16.497-17.917-28.471-34.745-28.471h-58.979c-4.143 0-7.5 3.358-7.5 7.5s3.357 7.5 7.5 7.5h30.047c-2.886 4.093-4.875 8.827-5.805 13.472l-46.854 234.072c-2.537 12.684.658 26.107 9.555 36.486h-216.73c-17.709 0-30.97-16.207-27.5-33.543l38.116-190.4c5.097-25.477 22.67-46.151 47.008-55.305 3.877-1.458 5.838-5.783 4.379-9.66-1.458-3.878-5.782-5.837-9.66-4.38-29.219 10.99-50.315 35.813-56.436 66.402l-38.116 190.4c-5.334 26.658 15.073 51.487 42.209 51.487h328.159c27.177-.001 47.534-24.882 42.198-51.487zm-42.198 36.486h-78.775c-17.711 0-30.968-16.209-27.5-33.543l46.854-234.071c1.898-9.468 10.237-16.417 20.029-16.417 9.705 0 18.133 6.904 20.037 16.416l46.846 234.075c3.48 17.358-9.815 33.54-27.491 33.54z"/><path d="m131.903 173.966c-13.004 5.668-19.597 21.581-19.597 47.295 0 25.715 6.593 41.627 19.597 47.296 17.095 7.451 39.509-5.985 53.832-17.762 5.041 2.935 10.891 4.626 17.132 4.626h8.779c6.254 0 12.115-1.697 17.162-4.644 3.457 2.817 8.571 6.7 14.489 10.28 11.821 7.15 26.646 13.021 39.312 7.5 13.004-5.668 19.597-21.581 19.597-47.296 0-25.714-6.593-41.627-19.597-47.295-18.878-8.231-43.461 9.234-53.831 17.762-5.04-2.935-10.89-4.626-17.132-4.626h-8.779c-6.254 0-12.116 1.697-17.163 4.644-3.457-2.817-8.571-6.7-14.489-10.28-15.708-9.501-28.935-12.023-39.312-7.5zm144.719 13.754c6.825 2.981 10.584 14.894 10.584 33.542s-3.759 30.561-10.584 33.542c-9.111 3.981-25.497-5.371-36.755-14.309 3.893-5.707 5.938-12.479 5.938-19.233 0-6.58-1.944-13.36-5.938-19.233 11.262-8.941 27.653-18.29 36.755-14.309zm-64.975 14.383c10.542 0 19.158 8.64 19.158 19.159 0 10.48-8.59 19.159-19.158 19.159h-8.779c-10.55 0-19.159-8.644-19.159-19.159 0-10.457 8.558-19.159 19.159-19.159zm-37.001-.074c-4.018 5.894-5.938 12.708-5.938 19.233 0 6.696 1.999 13.441 5.938 19.233-11.261 8.939-27.65 18.29-36.755 14.31-6.825-2.981-10.584-14.894-10.584-33.542s3.759-30.561 10.584-33.542c10.073-4.402 28.131 7.461 36.755 14.308z"/><path d="m186.81 107.392h95.001c4.143 0 7.5-3.358 7.5-7.5s-3.357-7.5-7.5-7.5h-95.001c-4.143 0-7.5 3.358-7.5 7.5s3.357 7.5 7.5 7.5z"/></g><g><g><path d="m301.762 157.617c-15.137 0-27.451-12.314-27.451-27.451v-35.264c0-22.056-17.944-40-40-40-22.057 0-40.001 17.944-40.001 40v35.265c0 15.136-12.314 27.451-27.45 27.451-15.137 0-27.451-12.314-27.451-27.451v-35.265c-.001-52.329 42.572-94.902 94.902-94.902s94.901 42.573 94.901 94.902v35.265c0 15.136-12.314 27.45-27.45 27.45zm-67.451-117.716c30.327 0 55 24.673 55 55v35.265c0 6.865 5.586 12.451 12.451 12.451s12.45-5.585 12.45-12.451v-35.264c0-44.058-35.844-79.902-79.901-79.902-44.059 0-79.902 35.844-79.902 79.902v35.265c0 6.865 5.586 12.451 12.451 12.451s12.45-5.585 12.45-12.451v-35.265c0-30.327 24.672-55.001 55.001-55.001z" fill="#6d00ca"/></g></g></g></svg>