<svg id="Capa_1" enable-background="new 0 0 512 512" height="512" viewBox="0 0 512 512" width="512" xmlns="http://www.w3.org/2000/svg"><g><path d="m66.484 179.463v174.415c0 28.545 23.141 51.686 51.686 51.686h206.302c28.545 0 51.686-23.141 51.686-51.686v-174.415z" fill="#ffd600"/><path d="m376.158 179.462c24.002-32.427 8.922-78.842-29.556-90.97l.001-.116c.34-40.309-39.094-68.975-77.331-56.215l-.087.029-.07-.098c-23.427-32.789-72.161-32.789-95.588 0l-.07.098-.087-.029c-38.237-12.759-77.671 15.907-77.331 56.215l.001.116c-38.478 12.128-53.557 58.543-29.555 90.97z" fill="#ffff6f"/><circle cx="276.319" cy="86.362" fill="#f90" r="11.669"/><g><path d="m246.03 125.313h-49.419c-4.143 0-7.5-3.358-7.5-7.5s3.357-7.5 7.5-7.5h49.419c4.143 0 7.5 3.358 7.5 7.5s-3.357 7.5-7.5 7.5z" fill="#f90"/></g><g fill="#f90"><circle cx="166.322" cy="86.362" r="11.669"/><path d="m221.321 222.721c-12.356 0-22.373 10.017-22.373 22.373v94.839c0 12.356 10.017 22.373 22.373 22.373s22.373-10.017 22.373-22.373v-94.839c0-12.357-10.017-22.373-22.373-22.373z"/><path d="m132.985 222.721c-12.356 0-22.373 10.017-22.373 22.373v94.839c0 12.356 10.017 22.373 22.373 22.373s22.373-10.017 22.373-22.373v-94.839c.001-12.357-10.016-22.373-22.373-22.373z"/><path d="m309.656 222.721c12.356 0 22.373 10.017 22.373 22.373v94.839c0 12.356-10.017 22.373-22.373 22.373s-22.373-10.017-22.373-22.373v-94.839c0-12.357 10.017-22.373 22.373-22.373z"/></g><g><path d="m221.321 369.806c-16.472 0-29.873-13.401-29.873-29.873v-94.839c0-16.472 13.401-29.873 29.873-29.873s29.873 13.401 29.873 29.873v94.839c0 16.472-13.401 29.873-29.873 29.873zm0-139.585c-8.201 0-14.873 6.672-14.873 14.873v94.839c0 8.201 6.672 14.873 14.873 14.873s14.873-6.672 14.873-14.873v-94.839c0-8.201-6.672-14.873-14.873-14.873z" fill="#f95116"/></g><g><path d="m132.985 369.806c-16.472 0-29.873-13.401-29.873-29.873v-94.839c0-16.472 13.401-29.873 29.873-29.873s29.873 13.401 29.873 29.873v94.839c0 16.472-13.401 29.873-29.873 29.873zm0-139.585c-8.201 0-14.873 6.672-14.873 14.873v94.839c0 8.201 6.672 14.873 14.873 14.873s14.873-6.672 14.873-14.873v-94.839c0-8.201-6.672-14.873-14.873-14.873z" fill="#f95116"/></g><g><path d="m309.656 369.806c-16.472 0-29.873-13.401-29.873-29.873v-94.839c0-16.472 13.401-29.873 29.873-29.873s29.873 13.401 29.873 29.873v94.839c0 16.472-13.401 29.873-29.873 29.873zm0-139.585c-8.201 0-14.873 6.672-14.873 14.873v94.839c0 8.201 6.672 14.873 14.873 14.873s14.873-6.672 14.873-14.873v-94.839c0-8.201-6.672-14.873-14.873-14.873z" fill="#f95116"/></g><g><path d="m303.791 405.564v75.779c0 12.789-10.368 23.157-23.157 23.157h-38.655c-12.789 0-23.157-10.368-23.157-23.157s10.368-23.157 23.157-23.157h15.498v-52.622z" fill="#f90"/></g><g><path d="m196.015 405.564v75.779c0 12.789-10.368 23.157-23.157 23.157h-38.655c-12.789 0-23.157-10.368-23.157-23.157s10.368-23.157 23.157-23.157h15.497v-52.622z" fill="#f90"/></g><g><g><path d="m280.634 512h-38.654c-16.905 0-30.658-13.753-30.658-30.657s13.753-30.657 30.658-30.657h7.997v-45.122c0-4.142 3.357-7.5 7.5-7.5s7.5 3.358 7.5 7.5v52.622c0 4.142-3.357 7.5-7.5 7.5h-15.497c-8.634 0-15.658 7.024-15.658 15.657s7.023 15.657 15.657 15.657h38.654c8.634 0 15.657-7.024 15.657-15.657v-75.779c0-4.142 3.357-7.5 7.5-7.5s7.5 3.358 7.5 7.5v75.779c.001 16.904-13.752 30.657-30.656 30.657z" fill="#f95116"/></g></g><g><g><path d="m172.857 512h-38.655c-16.904 0-30.657-13.753-30.657-30.657s13.753-30.657 30.657-30.657h7.998v-45.122c0-4.142 3.357-7.5 7.5-7.5s7.5 3.358 7.5 7.5v52.622c0 4.142-3.357 7.5-7.5 7.5h-15.498c-8.634 0-15.657 7.024-15.657 15.657s7.023 15.657 15.657 15.657h38.655c8.634 0 15.657-7.024 15.657-15.657v-75.779c0-4.142 3.357-7.5 7.5-7.5s7.5 3.358 7.5 7.5v75.779c0 16.904-13.753 30.657-30.657 30.657z" fill="#f95116"/></g></g><path d="m149.7 405.564h46.315v30.945h-46.315z" fill="#f95116"/><path d="m257.476 405.564h46.315v30.945h-46.315z" fill="#f95116"/><path d="m391.892 205.235h-15.734v44.594h15.734c11.375 0 20.629 9.255 20.629 20.629v36.903c0 9.472-6.416 17.7-15.603 20.007l-20.761 5.216v21.293c0 9.7-2.677 18.772-7.325 26.528l38.951-9.786c29.046-7.296 49.332-33.309 49.332-63.258v-36.903c0-35.964-29.259-65.223-65.223-65.223z" fill="#ffd600"/><path d="m391.892 197.735h-8.234v-15.887c11.688-17.068 14.722-37.987 8.285-57.8-6.14-18.896-19.837-33.547-37.997-40.882-1.338-19.572-11.04-37.167-27.132-48.864-16.085-11.692-35.804-15.496-54.823-10.74-12.591-15.04-30.78-23.562-50.671-23.562-19.879 0-38.06 8.513-50.667 23.563-19.023-4.757-38.74-.953-54.825 10.739-16.106 11.708-25.811 29.321-27.136 48.865-18.157 7.336-31.854 21.986-37.993 40.881-6.437 19.813-3.403 40.732 8.285 57.8v172.03c0 32.635 26.551 59.186 59.186 59.186h206.302c20.392 0 38.408-10.366 49.056-26.105l36.083-9.065c32.386-8.135 55.005-37.139 55.005-70.532v-36.903c-.001-40.1-32.624-72.724-72.724-72.724zm-8.234 59.594h8.234c7.239 0 13.129 5.89 13.129 13.129v36.903c0 6.029-4.083 11.265-9.93 12.733l-11.434 2.873v-65.638zm-318.693-128.646c5.184-15.953 17.331-27.995 33.33-33.038 3.145-.991 5.272-3.919 5.245-7.216l-.001-.115c-.142-16.76 7.553-32.024 21.109-41.879s30.452-12.464 46.348-7.159c.005.001.097.032.102.034 3.132 1.038 6.579-.094 8.485-2.792l.046-.065c9.74-13.634 24.936-21.453 41.691-21.453 16.756 0 31.952 7.819 41.698 21.459l.07.098c1.916 2.674 5.438 3.759 8.558 2.717 15.896-5.305 32.791-2.695 46.348 7.159 13.557 9.855 21.251 25.119 21.109 41.879l-.001.117c-.027 3.296 2.102 6.225 5.245 7.216 15.998 5.042 28.146 17.083 33.329 33.037 4.801 14.776 2.795 30.35-5.456 43.28h-301.798c-8.251-12.93-10.257-28.504-5.457-43.279zm259.506 269.381h-206.301c-24.364 0-44.186-19.822-44.186-44.186v-166.916h294.674v18.273 148.643c0 24.32-19.809 44.186-44.187 44.186zm125.144-90.703c0 26.505-17.953 49.527-43.659 55.984l-24.386 6.126c1.409-5.167 2.088-10.558 2.088-15.594v-15.445l15.088-3.791c12.526-3.146 21.275-14.364 21.275-27.281v-36.903c0-15.511-12.618-28.129-28.129-28.129h-8.234v-29.594h8.234c31.828 0 57.723 25.895 57.723 57.723z" fill="#f90"/></g></svg>