<svg id="Capa_1" enable-background="new 0 0 512 512" height="512" viewBox="0 0 512 512" width="512" xmlns="http://www.w3.org/2000/svg"><g><path d="m375.621 375.621c-19.969 19.969-43.695 33.901-68.895 41.805l-212.153-212.153c7.904-25.2 21.836-48.927 41.805-68.895 19.969-19.969 43.696-33.901 68.895-41.805l212.153 212.153c-7.904 25.199-21.836 48.926-41.805 68.895z" fill="#ffff6f"/><path d="m318.342 98.696.026.025c20.848 8.255 40.391 20.794 57.254 37.656 16.862 16.862 29.402 36.406 37.656 57.254l.026.025c32.943 4.489 57.304-3.895 73.122-13.005 13.717-7.9 20.606-23.892 17.238-39.359-2.897-13.303-13.288-23.694-26.591-26.591-13.303-2.897-23.694-13.288-26.591-26.591-2.897-13.303-13.288-23.694-26.591-26.591-13.303-2.897-23.694-13.288-26.591-26.591-2.897-13.303-13.288-23.694-26.591-26.591-15.467-3.369-31.459 3.52-39.359 17.238-9.112 15.817-17.497 40.178-13.008 73.121z" fill="#b98eff"/><path d="m417.426 306.726-212.153-212.153c58.19-18.222 124.261-4.282 170.348 41.805s60.027 112.158 41.805 170.348z" fill="#ff63ed"/><path d="m193.657 413.303-.025-.025c-20.848-8.255-40.391-20.794-57.254-37.656-16.862-16.862-29.402-36.406-37.656-57.254l-.025-.025c-32.943-4.489-57.304 3.895-73.122 13.005-13.717 7.9-20.606 23.892-17.238 39.359 2.897 13.303 13.288 23.694 26.591 26.591 13.303 2.897 23.694 13.288 26.591 26.591 2.897 13.303 13.288 23.694 26.591 26.591 13.303 2.897 23.694 13.288 26.591 26.591 2.897 13.303 13.288 23.694 26.591 26.591 15.467 3.369 31.459-3.52 39.359-17.238 9.111-15.817 17.495-40.178 13.006-73.121z" fill="#b98eff"/><path d="m306.726 417.426c-58.19 18.222-124.261 4.282-170.348-41.805s-60.027-112.158-41.805-170.348z" fill="#ff63ed"/><g><path d="m358.038 128.976c-4.129-.326-7.213-3.937-6.887-8.067 1.784-22.611 11.759-39.592 17.546-47.702 2.406-3.37 7.088-4.155 10.462-1.749 3.372 2.406 4.154 7.09 1.749 10.462-4.885 6.845-13.304 21.167-14.803 40.169-.326 4.132-3.945 7.217-8.067 6.887z" fill="#6d00ca"/></g><g><path d="m383.024 153.961c-.326-4.129 2.757-7.741 6.887-8.067 19.004-1.5 33.323-9.918 40.168-14.803 3.371-2.407 8.055-1.623 10.461 1.748 2.406 3.372 1.624 8.056-1.748 10.462-8.109 5.787-25.09 15.762-47.702 17.547-4.081.328-7.738-2.717-8.066-6.887z" fill="#6d00ca"/></g><g><path d="m77.571 382.304c-2.342 0-4.648-1.093-6.112-3.144-2.406-3.372-1.624-8.055 1.747-10.462 8.11-5.788 25.09-15.763 47.703-17.547 4.123-.336 7.74 2.758 8.067 6.887.326 4.13-2.758 7.741-6.887 8.067-19.005 1.5-33.323 9.918-40.167 14.803-1.322.943-2.844 1.396-4.351 1.396z" fill="#6d00ca"/></g><g><path d="m137.189 441.936c-1.508 0-3.029-.453-4.351-1.396-3.371-2.406-4.153-7.09-1.747-10.462 4.885-6.844 13.303-21.164 14.803-40.168.325-4.129 3.914-7.222 8.067-6.887 4.129.326 7.213 3.937 6.887 8.067-1.784 22.613-11.759 39.594-17.547 47.703-1.464 2.05-3.77 3.143-6.112 3.143z" fill="#6d00ca"/></g><g><path d="m431.175 202.394c-5.965 0-12.258-.403-18.884-1.306-4.105-.559-6.978-4.34-6.419-8.444.56-4.105 4.347-6.976 8.445-6.419 31.678 4.317 54.666-4.182 68.366-12.073 22.081-12.717 17.836-46.667-7.206-52.122-16.124-3.512-28.812-16.199-32.323-32.323-2.267-10.405-10.454-18.593-20.859-20.86-16.125-3.511-28.813-16.199-32.324-32.323-5.468-25.1-39.434-29.236-52.122-7.207-7.87 13.666-16.347 36.565-12.106 68.126 1.227 7.187-7.522 11.733-12.677 6.582-1.159-1.159-1.932-2.692-2.153-4.316-4.888-35.878 4.881-62.154 13.938-77.878 19.536-33.92 71.401-26.958 79.777 11.501 2.267 10.406 10.454 18.593 20.859 20.859 16.125 3.512 28.813 16.2 32.324 32.324 2.267 10.405 10.453 18.593 20.858 20.859 38.386 8.36 45.476 60.211 11.501 79.778-12.823 7.383-32.663 15.242-58.995 15.242z" fill="#6d00ca"/></g><g><path d="m417.428 314.228c-.742 0-1.497-.111-2.243-.345-3.953-1.238-6.155-5.446-4.916-9.399 18.071-57.707 2.763-120.089-39.952-162.803-42.713-42.714-105.098-58.021-162.802-39.951-3.952 1.237-8.161-.963-9.399-4.916s.963-8.161 4.916-9.399c63.051-19.746 131.216-3.017 177.893 43.659 46.674 46.675 63.405 114.839 43.659 177.892-1.004 3.208-3.963 5.262-7.156 5.262z" fill="#e207b9"/></g><g><path d="m107.374 478.667c-2.267-10.405-10.454-18.592-20.859-20.859-16.125-3.511-28.813-16.199-32.324-32.323-2.267-10.405-10.453-18.593-20.859-20.86-38.383-8.358-45.475-60.211-11.5-79.778 15.725-9.056 42-18.827 77.878-13.936 6.094.83 8.7 8.352 4.304 12.747-1.857 1.857-4.441 2.541-6.825 2.049-31.424-4.16-54.24 4.29-67.87 12.139-22.081 12.716-17.836 46.669 7.205 52.122 16.125 3.512 28.813 16.2 32.324 32.324 2.267 10.406 10.454 18.593 20.859 20.859 16.125 3.512 28.813 16.2 32.324 32.324 5.464 25.093 39.434 29.238 52.122 7.207 7.87-13.667 16.347-36.567 12.105-68.127-1.228-7.197 7.533-11.723 12.677-6.581 1.159 1.159 1.932 2.691 2.153 4.316 4.889 35.877-4.88 62.153-13.937 77.878-19.508 33.876-71.389 27.018-79.777-11.501z" fill="#6d00ca"/></g><g><path d="m131.074 380.924c-46.674-46.674-63.404-114.839-43.658-177.892 1.236-3.953 5.443-6.155 9.399-4.916 3.953 1.238 6.155 5.446 4.916 9.399-18.071 57.707-2.763 120.09 39.952 162.803 42.712 42.713 105.092 58.022 162.803 39.951 3.958-1.237 8.161.963 9.399 4.916s-.963 8.161-4.916 9.399c-62.759 19.654-130.998 3.237-177.895-43.66z" fill="#e207b9"/></g><circle cx="304.633" cy="289.807" fill="#f95116" r="12.369"/><g><path d="m253.056 295.981-37.039-37.039c-2.929-2.929-2.929-7.678 0-10.607 2.93-2.929 7.678-2.929 10.608 0l37.039 37.039c2.929 2.929 2.929 7.678 0 10.607-2.93 2.93-7.678 2.929-10.608 0z" fill="#f95116"/></g><circle cx="222.192" cy="207.366" fill="#f95116" r="12.369"/><g><path d="m301.422 422.729-212.153-212.152c-1.975-1.975-2.689-4.883-1.853-7.548 8.459-26.97 23.556-51.851 43.658-71.954 20.102-20.102 44.984-35.199 71.955-43.658 2.664-.836 5.572-.122 7.548 1.853l212.153 212.152c1.975 1.975 2.689 4.883 1.853 7.548-8.458 26.97-23.556 51.851-43.658 71.954-20.102 20.102-44.984 35.199-71.955 43.658-2.647.832-5.561.134-7.548-1.853zm-198.281-219.495 205.624 205.624c23.02-7.949 44.224-21.213 61.552-38.541 17.33-17.329 30.593-38.533 38.541-61.553l-205.624-205.623c-23.02 7.949-44.224 21.212-61.552 38.54-17.329 17.329-30.593 38.533-38.541 61.553z" fill="#f95116"/></g></g></svg>