<svg id="Capa_1" enable-background="new 0 0 512 512" height="512" viewBox="0 0 512 512" width="512" xmlns="http://www.w3.org/2000/svg"><g><path d="m399.24 415.425c-.597.02-1.196.03-1.798.03-19.254 0-36.053-10.467-45.05-26.014v87.02c0 15.342 12.437 27.779 27.779 27.779h24.331c15.342 0 27.779-12.437 27.779-27.779v-77.674c-7.874 9.749-19.653 16.183-33.041 16.638z" fill="#9448f5"/><path d="m352.392 389.441c-8.997 15.547-25.796 26.014-45.05 26.014-6.975 0-13.624-1.38-19.701-3.871v64.877c0 15.342 12.437 27.779 27.779 27.779h24.331c7.967 0 15.145-3.359 20.21-8.731-4.689-4.974-7.569-11.672-7.569-19.048z" fill="#b98eff"/><path d="m217.242 415.455c-19.254 0-36.053-10.467-45.05-26.014v87.02c0 15.342 12.437 27.779 27.779 27.779h24.331c15.342 0 27.779-12.437 27.779-27.779v-74.414c-9.222 8.33-21.434 13.408-34.839 13.408z" fill="#9448f5"/><g fill="#b98eff"><path d="m172.191 389.441c-8.997 15.547-25.796 26.014-45.05 26.014-.602 0-1.201-.01-1.798-.03-6.424-.218-12.472-1.823-17.903-4.498v65.534c0 15.342 12.437 27.779 27.779 27.779h24.331c7.967 0 15.145-3.359 20.21-8.731-4.689-4.974-7.569-11.672-7.569-19.048z"/><path d="m73.245 177.52c0-7.052.866-13.898 2.462-20.458h-16.48c-28.568 0-51.728 23.159-51.728 51.728 0 28.568 23.159 51.728 51.728 51.728h14.018z"/><path d="m159.501 91.264c24.417 0 46.769 10.239 62.608 26.945h.017c-22.088-23.99-30.397-60.465-33.522-84.86-1.875-14.639-14.345-25.59-29.103-25.59s-27.228 10.951-29.103 25.59c-3.125 24.395-11.434 60.87-33.522 84.86h.03c15.719-16.584 37.941-26.945 62.595-26.945z"/></g><path d="m305.958 7.759h38.29v197.945h-38.29z" fill="#ffff6f"/><path d="m498.398 345.727c-3.89-3.89-6.075-9.166-6.075-14.667v-45.546c0-23.221-18.824-42.045-42.045-42.045l-.004.004c.692 3.238 1.065 6.595 1.065 10.04v44.078c0 10.307-3.269 19.951-8.846 27.839v44.481c0 3.786-.463 7.478-1.335 11.017 24.758 9.908 42.664 4.427 54.332-3.44 10.751-7.249 12.078-22.591 2.908-31.761z" fill="#9448f5"/><path d="m405.963 345.339c-.626.021-1.255.032-1.886.032-20.199 0-37.823-10.981-47.262-27.291-9.439 16.31-27.062 27.291-47.262 27.291-20.199 0-37.823-10.981-47.262-27.291-9.439 16.31-27.062 27.291-47.262 27.291-20.199 0-37.823-10.981-47.262-27.291-9.439 16.31-27.062 27.291-47.262 27.291-.631 0-1.26-.011-1.886-.032-15.143-.515-28.331-8.313-36.53-19.908v44.481c0 24.267 18.999 44.689 43.252 45.513.597.02 1.196.03 1.798.03 19.254 0 36.053-10.467 45.05-26.014 8.997 15.547 25.796 26.014 45.05 26.014 19.254 0 36.053-10.467 45.05-26.014 8.997 15.547 25.796 26.014 45.05 26.014 19.254 0 36.053-10.467 45.05-26.014 8.997 15.547 25.796 26.014 45.05 26.014.602 0 1.201-.01 1.798-.03 24.253-.824 43.252-21.246 43.252-45.513v-44.481c-8.195 11.596-21.384 19.394-36.526 19.908z" fill="#ff63ed"/><path d="m451.338 297.592c0 25.458-19.932 46.883-45.376 47.747-.626.021-1.255.032-1.886.032-20.199 0-37.823-10.981-47.262-27.291-9.439 16.31-27.062 27.291-47.262 27.291-20.199 0-37.823-10.981-47.262-27.291-9.439 16.31-27.062 27.291-47.262 27.291-20.199 0-37.823-10.981-47.262-27.291-9.439 16.31-27.062 27.291-47.262 27.291-.631 0-1.26-.011-1.886-.032-25.444-.865-45.376-22.289-45.376-47.747v-120.072c0-47.638 38.618-86.256 86.256-86.256 41.814 0 77.606 29.991 84.925 71.16 4.451 25.04 26.221 43.28 51.653 43.28h107.45c26.404 0 47.809 21.405 47.809 47.809v44.079z" fill="#ffff6f"/><path d="m426.446 394.075c-6.872 8.508-17.185 13.88-29.004 13.88-15.834 0-30.608-8.534-38.558-22.27-2.903-5.018-10.138-4.917-12.982 0-7.95 13.737-22.725 22.27-38.559 22.27-5.827 0-11.498-1.114-16.855-3.31-4.928-2.02-10.345 1.608-10.345 6.939v64.877c0 19.453 15.826 35.279 35.278 35.279h24.331c7.253 0 14.329-2.274 20.217-6.384 5.727 4.017 12.692 6.384 20.203 6.384h24.331c19.453 0 35.279-15.826 35.279-35.279v-77.674c-.001-7.048-8.9-10.203-13.336-4.712zm-86.695 102.666h-24.331c-11.182 0-20.278-9.097-20.278-20.279v-54.761c3.988.834 8.066 1.254 12.2 1.254 13.843 0 27.077-4.875 37.551-13.381v66.887c0 .715.028 1.423.07 2.128.013.213.032.425.049.638.04.508.089 1.013.15 1.515.027.225.054.45.086.674.079.559.172 1.113.277 1.664.027.14.047.282.075.422.134.659.289 1.31.459 1.955.064.246.138.489.208.733.118.411.241.819.374 1.224.094.287.19.573.291.858.131.367.271.729.413 1.09.172.437.352.869.541 1.299.171.388.343.775.527 1.155.166.343.344.679.522 1.017.129.246.26.49.395.733.111.2.21.406.325.604-2.986 1.679-6.367 2.571-9.904 2.571zm85.03-20.28c0 11.182-9.098 20.279-20.279 20.279h-24.331c-6.08 0-11.529-2.703-15.249-6.955-.184-.21-.37-.418-.544-.635-.239-.297-.463-.606-.686-.916-.151-.211-.306-.42-.448-.636-.219-.331-.42-.674-.619-1.018-.124-.214-.252-.425-.368-.643-.188-.355-.357-.721-.524-1.088-.102-.224-.211-.445-.305-.673-.152-.369-.283-.749-.414-1.129-.082-.238-.173-.473-.246-.715-.116-.383-.208-.776-.301-1.169-.059-.247-.129-.491-.179-.741-.084-.423-.14-.855-.197-1.288-.03-.224-.074-.446-.096-.672-.065-.659-.102-1.327-.102-2.003v-66.887c10.474 8.506 23.708 13.381 37.55 13.381.686 0 1.369-.012 2.05-.035h.003c9.021-.307 17.712-2.993 25.286-7.664v61.207z" fill="#6d00ca"/><path d="m252.08 394.547c-4.143 0-7.5 3.358-7.5 7.5v74.414c0 11.182-9.098 20.279-20.279 20.279h-24.331c-11.067 0-20.279-9.029-20.279-20.279v-85.02c0-4.142-3.357-7.5-7.5-7.5s-7.5 3.358-7.5 7.5v85.02c0 6.383 1.766 12.558 4.764 17.707-2.986 1.681-6.367 2.572-9.904 2.572h-24.331c-11.182 0-20.279-9.097-20.279-20.279v-65.534c0-4.142-3.357-7.5-7.5-7.5s-7.5 3.358-7.5 7.5v65.534c0 19.453 15.826 35.279 35.279 35.279h24.331c7.253 0 14.329-2.274 20.216-6.384 5.728 4.017 12.692 6.384 20.204 6.384h24.331c19.453 0 35.279-15.826 35.279-35.279v-74.414c-.001-4.142-3.358-7.5-7.501-7.5z" fill="#6d00ca"/><path d="m59.227 164.562h16.479c4.143 0 7.5-3.358 7.5-7.5s-3.357-7.5-7.5-7.5h-16.479c-32.658 0-59.227 26.57-59.227 59.228 0 32.353 26.313 59.227 59.227 59.227h14.018c4.143 0 7.5-3.358 7.5-7.5s-3.357-7.5-7.5-7.5h-14.018c-18.587 0-34.522-11.531-41.055-27.811h23.144c4.143 0 7.5-3.358 7.5-7.5s-3.357-7.5-7.5-7.5h-26.28c-.015-.472-.036-.942-.036-1.417 0-24.387 19.841-44.227 44.227-44.227z" fill="#6d00ca"/><circle cx="113.939" cy="171.869" fill="#f90" r="10.841"/><g><path d="m222.127 125.71c-2.272 0-4.312-1.01-5.688-2.606-22.959-25.072-31.855-62.112-35.273-88.801-1.391-10.856-10.705-19.043-21.664-19.043-10.96 0-20.272 8.187-21.663 19.043-3.41 26.622-12.269 63.541-35.097 88.608-1.371 1.707-3.474 2.799-5.836 2.799-2.978 0-5.687-1.761-6.883-4.487-1.196-2.727-.681-5.902 1.336-8.093 11.266-12.236 25.892-36.175 31.6-80.733 2.347-18.321 18.057-32.137 36.542-32.137s34.194 13.816 36.543 32.137c5.706 44.557 20.334 68.497 31.6 80.733 2.017 2.19 2.547 5.366 1.351 8.092-1.195 2.726-3.89 4.488-6.868 4.488z" fill="#6d00ca"/></g><g><path d="m466.675 393.763c-8.333 0-17.772-1.656-28.305-5.871-3.846-1.539-5.716-5.904-4.177-9.75 1.538-3.846 5.907-5.713 9.749-4.177 18.055 7.225 33.986 6.318 47.353-2.696 6.799-4.584 7.669-14.369 1.798-20.239-5.334-5.334-8.271-12.427-8.271-19.971v-45.546c0-19.012-15.439-34.486-34.438-34.544-6.69.105-10.164-8.049-5.414-12.799 1.407-1.407 3.318-2.201 5.308-2.201 27.319 0 49.545 22.226 49.545 49.544v45.546c0 3.538 1.377 6.863 3.879 9.364 12.533 12.533 10.612 33.419-4.021 43.283-7.7 5.193-18.727 10.057-33.006 10.057z" fill="#6d00ca"/></g><g><path d="m352.392 402.308c-11.202 12.941-27.646 20.647-45.051 20.647s-33.849-7.706-45.05-20.647c-11.202 12.941-27.646 20.647-45.051 20.647s-33.849-7.706-45.051-20.647c-11.201 12.941-27.644 20.647-45.05 20.647-30.024 0-52.551-24.666-52.551-53.043v-44.481c0-4.142 3.357-7.5 7.5-7.5s7.5 3.358 7.5 7.5v44.481c0 20.143 16.149 38.043 37.551 38.043 15.835 0 30.609-8.533 38.558-22.27 2.879-4.975 10.091-4.996 12.982 0 7.95 13.737 22.726 22.27 38.559 22.27s30.609-8.534 38.559-22.27c2.887-4.988 10.094-4.991 12.982 0 7.949 13.737 22.724 22.27 38.558 22.27 15.835 0 30.609-8.534 38.559-22.27 2.878-4.972 10.089-4.999 12.982 0 8.094 13.986 23.416 22.801 40.104 22.245 19.852-.675 36.005-17.729 36.005-38.017v-44.481c0-4.142 3.357-7.5 7.5-7.5s7.5 3.358 7.5 7.5v44.481c0 28.093-21.982 52.04-50.498 53.009-18.447.618-35.62-7.356-47.097-20.614z" fill="#e207b9"/></g><path d="m403.529 198.205h-51.781v-190.446c0-4.142-3.357-7.5-7.5-7.5h-38.29c-4.143 0-7.5 3.358-7.5 7.5v190.445h-2.379c-21.83 0-40.448-15.6-44.269-37.093-7.967-44.818-46.788-77.347-92.308-77.347-51.697 0-93.757 42.059-93.757 93.756v120.071c0 29.349 22.965 54.236 52.625 55.243 19.175.647 37.294-7.642 49.398-21.821 11.688 13.691 28.968 21.857 47.263 21.857s35.573-8.166 47.262-21.857c11.687 13.691 28.966 21.857 47.262 21.857 18.295 0 35.573-8.166 47.262-21.857 11.687 13.691 28.966 21.857 47.262 21.857 15.634 0 29.478-6.346 39.568-17.034 9.798-10.377 15.193-23.959 15.193-38.245v-44.078c-.002-30.497-24.813-55.308-55.311-55.308zm-90.071-182.946h23.29v182.945h-23.29zm130.381 282.333c0 21.327-17.102 40.279-39.762 40.279-16.743 0-32.365-9.023-40.77-23.547-2.879-4.975-10.091-4.996-12.982 0-8.406 14.524-24.028 23.547-40.77 23.547s-32.365-9.023-40.77-23.547c-2.879-4.975-10.091-4.996-12.982 0-8.406 14.524-24.029 23.547-40.771 23.547s-32.364-9.023-40.77-23.547c-2.877-4.971-10.088-5-12.982 0-8.588 14.839-24.826 24.108-42.401 23.519-21.025-.715-38.131-18.771-38.131-40.252v-120.07c0-43.426 35.33-78.756 78.757-78.756 38.237 0 70.848 27.325 77.541 64.972 5.095 28.664 29.924 49.468 59.037 49.468h107.45c22.227 0 40.309 18.082 40.309 40.309v44.078z" fill="#f90"/></g></svg>