<svg id="Capa_1" enable-background="new 0 0 512 512" height="512" viewBox="0 0 512 512" width="512" xmlns="http://www.w3.org/2000/svg"><g><g><path d="m335.201 400.048v81.39c0 12.737-10.326 23.063-23.063 23.063h-38.497c-12.737 0-23.062-10.326-23.062-23.063s10.326-23.063 23.062-23.063h15.434v-58.327z" fill="#f90"/></g><g><path d="m227.866 400.048v81.39c0 12.737-10.326 23.063-23.062 23.063h-38.497c-12.737 0-23.062-10.326-23.062-23.063s10.326-23.063 23.062-23.063h15.434v-58.327z" fill="#f90"/></g><g><g><path d="m312.139 512h-38.497c-16.852 0-30.562-13.71-30.562-30.562s13.71-30.562 30.562-30.562h7.934v-50.828c0-4.142 3.357-7.5 7.5-7.5 4.142 0 7.5 3.358 7.5 7.5v58.328c0 4.142-3.357 7.5-7.5 7.5h-15.434c-8.581 0-15.562 6.981-15.562 15.562s6.981 15.563 15.562 15.563h38.497c8.581 0 15.562-6.981 15.562-15.563v-81.39c0-4.142 3.357-7.5 7.5-7.5s7.5 3.358 7.5 7.5v81.39c0 16.852-13.71 30.562-30.562 30.562z" fill="#f95116"/></g></g><g><g><path d="m204.804 512h-38.496c-16.852 0-30.563-13.71-30.563-30.562s13.711-30.562 30.563-30.562h7.933v-50.828c0-4.142 3.357-7.5 7.5-7.5s7.5 3.358 7.5 7.5v58.328c0 4.142-3.357 7.5-7.5 7.5h-15.433c-8.582 0-15.563 6.981-15.563 15.562s6.981 15.563 15.563 15.563h38.496c8.581 0 15.562-6.981 15.562-15.563v-81.39c0-4.142 3.357-7.5 7.5-7.5s7.5 3.358 7.5 7.5v81.39c0 16.852-13.71 30.562-30.562 30.562z" fill="#f95116"/></g></g><path d="m181.741 400.048h46.125v30.818h-46.125z" fill="#f95116"/><path d="m289.076 400.048h46.125v30.818h-46.125z" fill="#f95116"/><path d="m397.664 85.242h-315.131v283.002c0 17.564 14.239 31.803 31.803 31.803h283.328c17.564 0 31.803-14.239 31.803-31.803v-251.198c0-17.565-14.239-31.804-31.803-31.804z" fill="#7181ff"/><path d="m359.71 129.653h-207.42c-13.998 0-25.346 11.348-25.346 25.346v175.291c0 13.998 11.348 25.346 25.346 25.346h207.42c13.998 0 25.346-11.348 25.346-25.346v-175.291c0-13.998-11.348-25.346-25.346-25.346z" fill="#a4bcff"/><path d="m335.522 8.886-252.989 76.356h293.982v-45.909c-.001-21.326-20.577-36.609-40.993-30.447z" fill="#565eec"/><g fill="#2115c2"><circle cx="303.199" cy="283.341" r="10.014"/><g><path d="m397.664 77.742h-13.649v-38.41c0-26.374-25.404-45.249-50.659-37.627l-252.99 76.357c-.004.001-.007.003-.011.004-3.122.945-5.322 3.877-5.322 7.176v283.003c0 21.672 17.632 39.303 39.303 39.303h283.327c21.672 0 39.303-17.631 39.303-39.303v-251.199c.001-21.672-17.631-39.304-39.302-39.304zm-59.975-61.676c15.611-4.711 31.326 6.951 31.326 23.267v38.41h-235.676zm84.278 352.179c0 13.401-10.902 24.303-24.303 24.303h-283.328c-13.401 0-24.303-10.902-24.303-24.303v-275.503h307.631c13.401 0 24.303 10.903 24.303 24.304z"/><path d="m359.71 122.154h-207.42c-18.111 0-32.845 14.735-32.845 32.846v175.291c0 18.111 14.734 32.846 32.845 32.846h207.42c18.111 0 32.846-14.735 32.846-32.846v-175.292c0-18.111-14.735-32.845-32.846-32.845zm17.847 208.137c0 9.84-8.006 17.846-17.846 17.846h-207.421c-9.84 0-17.845-8.006-17.845-17.846v-175.292c0-9.84 8.006-17.846 17.845-17.846h207.42c9.841 0 17.846 8.006 17.846 17.846v175.292z"/><path d="m297.393 176.168c-.025-.068-.053-.137-.08-.204-1.338-3.253-4.474-5.354-7.99-5.354-.003 0-.006 0-.009 0-3.52.003-6.656 2.111-7.989 5.37-.022.056-.045.113-.066.169l-18.886 49.588c-1.475 3.871.469 8.204 4.34 9.678 3.864 1.473 8.203-.468 9.678-4.339l2.864-7.519h19.991l2.83 7.498c1.467 3.888 5.801 5.827 9.665 4.369 3.875-1.462 5.831-5.79 4.368-9.665zm-12.427 32.388 4.329-11.365 4.289 11.365z"/><path d="m257.14 204.002c0-19.083-10.935-31.904-27.21-31.904h-13.823c-4.145 0-7.508 3.367-7.5 7.514v.035.001 47.965c0 5.242 3.643 8.292 7.599 8.292h.028c.418-.001 10.284-.04 14.231-.108 15.456-.269 26.675-13.641 26.675-31.795zm-33.461 16.864c-.054-17.32-.024-12.05-.06-33.769h6.309c11.33 0 12.211 12.939 12.211 16.904 0 8.258-3.691 16.655-11.937 16.798-1.528.028-4.042.05-6.523.067z"/><path d="m193.177 199.139c1.602-2.791 2.532-6.014 2.532-9.456 0-10.517-8.557-19.073-19.073-19.073h-14.61c-4.143 0-7.5 3.358-7.5 7.5v50.297c0 4.137 3.355 7.5 7.5 7.5h.033s13.428-.06 17.129-.06c11.6 0 21.038-9.438 21.038-21.038 0-6.228-2.735-11.814-7.049-15.67zm-16.541-13.529c2.246 0 4.073 1.828 4.073 4.074s-1.827 4.073-4.073 4.073c-.1 0-.576-.001-7.11.014v-8.161zm2.552 35.237c-1.805 0-5.913.014-9.662.028v-12.098c3.128-.012 3.411-.004 9.662-.007 3.329 0 6.038 2.709 6.038 6.038s-2.709 6.039-6.038 6.039z"/><path d="m358.014 171.952c-3.471-2.259-8.116-1.278-10.377 2.194l-9.659 14.836-9.775-14.973c-2.265-3.468-6.912-4.444-10.381-2.179-3.468 2.265-4.444 6.911-2.18 10.38l14.84 22.728-.057 23.45c-.01 4.142 3.34 7.508 7.481 7.518h.019c4.134 0 7.49-3.346 7.5-7.482l.057-23.476 14.725-22.619c2.26-3.471 1.279-8.117-2.193-10.377z"/><path d="m277.206 302.832h-42.41c-4.143 0-7.5 3.358-7.5 7.5s3.357 7.5 7.5 7.5h42.41c4.143 0 7.5-3.358 7.5-7.5s-3.358-7.5-7.5-7.5z"/></g><circle cx="208.801" cy="283.341" r="10.014"/></g></g></svg>