<svg id="Capa_1" enable-background="new 0 0 512 512" height="512" viewBox="0 0 512 512" width="512" xmlns="http://www.w3.org/2000/svg"><g><g><path d="m504.5 16.199v47.548c-3.455 1.94-7 3.839-10.627 5.707-63.872 32.851-148.352 50.943-237.873 50.943s-174-18.092-237.873-50.943c-3.627-1.869-7.172-3.768-10.627-5.707v-47.548c8.748 6.071 18.466 11.859 29.103 17.324 58.266 29.961 136.18 46.467 219.397 46.467s161.131-16.506 219.397-46.467c10.638-5.465 20.355-11.253 29.103-17.324z" fill="#ffff6f"/></g><path d="m337.999 115.195-2.193 4.767 89.782 98.99c12.839 14.156 38.589 6.034 40.983-12.926l16.581-131.3c-41.684 19.691-91.227 33.426-144.721 40.392z" fill="#88f8d8"/><path d="m173.35 115.089c-53.41-6.974-102.874-20.7-144.502-40.363l16.581 131.3c2.394 18.96 28.144 27.081 40.983 12.926l89.782-98.99-2.193-4.767z" fill="#b98eff"/><path d="m256 120.397c-27.984 0-55.475-1.768-81.999-5.202l59.742 129.875c8.273 17.984 36.24 17.984 44.512 0l59.742-129.875c-26.521 3.434-54.013 5.202-81.997 5.202z" fill="#ff63ed"/><g><path d="m504.5 253.453v47.548c-3.455 1.94-7 3.839-10.627 5.707-63.873 32.85-148.352 50.942-237.873 50.942s-174-18.091-237.873-50.941c-3.627-1.869-7.172-3.768-10.627-5.707v-47.548c8.748 6.071 18.466 11.859 29.103 17.324 58.266 29.961 136.18 46.467 219.397 46.467s161.131-16.506 219.397-46.467c10.638-5.466 20.355-11.254 29.103-17.325z" fill="#ffff6f"/></g><path d="m337.999 352.449-2.193 4.767 89.782 98.99c12.839 14.156 38.589 6.034 40.983-12.926l16.581-131.3c-41.684 19.691-91.227 33.426-144.721 40.392z" fill="#ff63ed"/><path d="m173.35 352.344c-53.41-6.974-102.874-20.7-144.502-40.363l16.581 131.3c2.394 18.96 28.144 27.081 40.983 12.926l89.782-98.99-2.193-4.767z" fill="#88f8d8"/><path d="m256 357.651c-27.984 0-55.475-1.768-81.999-5.202l59.742 129.875c8.273 17.984 36.24 17.984 44.512 0l59.742-129.875c-26.521 3.434-54.013 5.202-81.997 5.202z" fill="#b98eff"/><g><path d="m420.033 223.991-89.783-98.99c-2.782-3.068-2.551-7.811.517-10.594 3.068-2.784 7.812-2.552 10.595.517l89.783 98.99c4.719 5.203 11.669 5.397 16.596 3.841 4.93-1.554 10.51-5.699 11.391-12.668l16.581-131.3c.52-4.11 4.273-7.016 8.38-6.501 4.109.519 7.021 4.271 6.501 8.38l-16.581 131.3c-1.479 11.712-9.816 21.328-21.76 25.095-11.962 3.772-24.301.661-32.22-8.07z" fill="#007ea8"/></g><g><path d="m59.747 232.06c-11.942-3.767-20.279-13.382-21.759-25.094l-16.58-131.3c-.52-4.109 2.392-7.861 6.501-8.38 4.104-.516 7.861 2.391 8.38 6.501l16.581 131.3c.88 6.969 6.461 11.113 11.39 12.668 4.927 1.555 11.877 1.362 16.597-3.841l89.782-98.99c2.784-3.069 7.526-3.299 10.595-.517 3.067 2.783 3.299 7.526.517 10.594l-89.782 98.99c-7.877 8.684-20.197 11.862-32.222 8.069z" fill="#6d00ca"/></g><g><path d="m256 266.058c-12.865 0-24.004-6.841-29.069-17.854l-59.185-128.662c-1.731-3.763-.084-8.217 3.679-9.948 3.765-1.732 8.218-.084 9.948 3.679l59.185 128.662c3.094 6.726 10.006 9.122 15.442 9.122 5.438 0 12.35-2.396 15.443-9.122l58.757-127.734c1.73-3.763 6.186-5.411 9.947-3.679 3.764 1.731 5.411 6.185 3.68 9.948l-58.757 127.734c-5.065 11.013-16.204 17.854-29.07 17.854z" fill="#e207b9"/></g><g><path d="m420.033 461.245-89.783-98.99c-2.782-3.068-2.551-7.811.517-10.594s7.812-2.553 10.595.517l89.783 98.99c4.719 5.204 11.668 5.395 16.596 3.842 4.93-1.555 10.51-5.699 11.391-12.669l16.246-128.647c.52-4.109 4.282-7.017 8.38-6.501 4.109.519 7.021 4.271 6.501 8.38l-16.247 128.647c-1.479 11.712-9.816 21.328-21.76 25.095-11.91 3.757-24.269.695-32.219-8.07z" fill="#e207b9"/></g><g><path d="m59.747 469.315c-11.942-3.767-20.28-13.383-21.759-25.095l-16.251-128.695c-.52-4.109 2.392-7.861 6.501-8.38 4.103-.514 7.861 2.391 8.38 6.501l16.252 128.695c.88 6.969 6.46 11.113 11.39 12.668 4.927 1.555 11.877 1.362 16.597-3.841l89.782-98.99c2.784-3.068 7.526-3.299 10.595-.517 3.067 2.783 3.299 7.526.517 10.594l-89.782 98.99c-7.894 8.701-20.22 11.854-32.222 8.07z" fill="#007ea8"/></g><g><path d="m256 503.312c-12.865 0-24.004-6.841-29.069-17.854l-58.785-127.793c-1.731-3.763-.084-8.217 3.679-9.948 3.765-1.732 8.217-.084 9.948 3.679l58.785 127.793c3.094 6.726 10.006 9.122 15.442 9.122 5.438 0 12.35-2.396 15.443-9.122l58.642-127.482c1.73-3.763 6.187-5.412 9.947-3.679 3.764 1.731 5.411 6.185 3.68 9.948l-58.642 127.482c-5.065 11.013-16.204 17.854-29.07 17.854z" fill="#6d00ca"/></g><g><g><path d="m256 127.897c-84.779 0-178.943-16.498-252.171-57.61-2.365-1.327-3.829-3.828-3.829-6.54v-47.549c0-6.036 6.801-9.613 11.776-6.162 65.509 45.468 163.451 62.454 244.224 62.454 80.364 0 178.519-16.849 244.224-62.454 4.953-3.436 11.776.097 11.776 6.162v47.549c0 2.711-1.464 5.212-3.828 6.54-73.13 41.067-167.283 57.61-252.172 57.61zm-241-68.578c70.586 38.292 160.057 53.578 241 53.578 79.998 0 169.89-14.983 241-53.578v-29.3c-68.25 41.671-160.86 57.471-241 57.471-80.36 0-172.876-15.879-241-57.472z" fill="#f90"/></g></g><g><g><path d="m256 365.151c-84.77 0-178.941-16.495-252.171-57.61-2.365-1.327-3.829-3.828-3.829-6.54v-47.548c0-6.036 6.801-9.613 11.776-6.162 65.509 45.465 163.452 62.454 244.224 62.454 80.364 0 178.518-16.85 244.224-62.454 4.954-3.436 11.776.097 11.776 6.162v47.548c0 2.711-1.464 5.212-3.828 6.54-73.159 41.085-167.334 57.61-252.172 57.61zm-241-68.578c70.549 38.268 159.975 53.578 241 53.578 80.976 0 170.437-15.3 241-53.577v-29.301c-68.254 41.672-160.863 57.472-241 57.472-80.36 0-172.876-15.879-241-57.472z" fill="#f90"/></g></g></g></svg>