<svg id="Capa_1" enable-background="new 0 0 512 512" height="512" viewBox="0 0 512 512" width="512" xmlns="http://www.w3.org/2000/svg"><g><path d="m88.196 501.766c-6-2.184-11.604-5.682-16.368-10.445l-38.467-38.467c-15.555-15.555-17.583-40.071-4.799-57.972l59.633-83.492v190.376z" fill="#ddbeff"/><path d="m230.203 399.783-71.49-71.49v147.17l90.397-64.559-.001-.002c-6.923-1.969-13.456-5.669-18.906-11.119z" fill="#ddbeff"/><path d="m124.901 294.481c-5.45-5.45-9.15-11.984-11.118-18.906l-.003-.001-25.584 35.816v190.377c13.583 4.961 29.188 3.223 41.605-5.647l28.912-20.657v-147.17z" fill="#b98eff"/><path d="m342.586 338.811c22.437-17.843 53.778-17.843 76.214 0 8.048 6.4 19.29 6.4 27.337 0 8.486-6.749 20.836-5.34 27.585 3.146 6.749 8.485 5.341 20.836-3.146 27.585-22.437 17.843-53.778 17.843-76.215 0-8.048-6.4-19.29-6.4-27.337 0-8.486 6.749-20.836 5.34-27.585-3.146-6.762-8.504-5.32-20.852 3.147-27.585z" fill="#b98eff"/><path d="m444.642 201.381c7.411-7.411 18.26-9.283 27.411-5.624 30.794-47 25.706-110.793-15.273-152.239-45.9-46.425-121.07-48.219-169.037-3.933-22.311 20.599-35.798 48.144-38.657 77.553-1.245 12.798 9.668 23.486 22.459 22.167l19.485-2.008c9.384-.967 16.74-8.252 18.159-17.579 1.958-12.866 7.954-24.865 17.382-34.294 24.426-24.425 64.394-24.067 88.363 1.077 23.947 25.12 21.756 65.317-3.762 88.839-17.593 16.217-37.307 21.441-64.085 28.539-14.09 3.734-29.351 7.786-45.739 13.873.439 7.022-2.019 14.192-7.385 19.558-9.726 9.726-25.371 9.911-35.33.568-12.577 7.325-25.676 16.288-39.294 27.48l42.644 42.644c37.496-29.467 69.41-37.927 100.467-46.157 25.652-6.798 52.014-13.787 76.951-32.159-4.156-9.331-2.413-20.652 5.241-28.305z" fill="#ff63ed"/><circle cx="462.606" cy="219.345" fill="#ff9bff" r="25.405"/><path d="m255.816 407.547c-2.092-4.188-7.467-5.452-11.219-2.638l-78.385 55.98v-132.597c0-4.142-3.357-7.5-7.5-7.5s-7.5 3.358-7.5 7.5v143.311l-25.771 18.414c-8.672 6.195-19.48 8.361-29.745 6.132v-182.356c25.686-35.991 24.35-33.981 24.793-34.865 1.853-3.705.349-8.211-3.355-10.063-3.301-1.65-7.312-.654-9.457 2.349-9.283 12.996-78.929 110.505-85.218 119.309-14.976 20.97-12.621 49.414 5.599 67.634l38.467 38.467c18.204 18.204 46.821 20.466 67.637 5.598 132.653-94.749 118.211-84.433 119.306-85.216 3.003-2.144 3.999-6.158 2.348-9.459zm-217.151 40.004c-13.015-13.014-14.696-33.331-3.999-48.31l46.03-64.447v154.371c-1.244-.966-2.433-2.016-3.564-3.147z" fill="#6d00ca"/><path d="m185.873 182.098c17.843-22.437 17.843-53.778 0-76.214-6.4-8.048-6.4-19.29 0-27.337 6.749-8.486 5.34-20.836-3.146-27.585-8.485-6.749-20.836-5.341-27.585 3.146-17.843 22.437-17.843 53.778 0 76.215 6.4 8.048 6.4 19.29 0 27.337-6.749 8.486-5.34 20.836 3.146 27.585 8.504 6.761 20.852 5.32 27.585-3.147z" fill="#ff9bff"/><circle cx="275.998" cy="219.345" fill="#b98eff" r="25.405"/><g fill="#e207b9"><path d="m191.743 83.214c9.332-11.735 7.392-28.789-4.347-38.123-11.73-9.329-28.788-7.393-38.124 4.347-20.029 25.186-20.029 60.366 0 85.551 4.214 5.3 4.214 12.702 0 18.001-9.332 11.735-7.391 28.789 4.348 38.122 11.573 9.205 28.674 7.536 38.123-4.348 20.029-25.186 20.029-60.366 0-85.551-4.214-5.297-4.214-12.7 0-17.999zm-11.74 94.215c0 .001 0 .001 0 0-4.117 5.177-11.729 6.173-17.046 1.944-5.247-4.171-6.119-11.797-1.944-17.046 8.585-10.796 8.585-25.877 0-36.674-15.658-19.688-15.658-47.189 0-66.878 4.183-5.261 11.811-6.108 17.047-1.944 5.246 4.172 6.118 11.798 1.943 17.047-8.585 10.796-8.585 25.876 0 36.674 15.658 19.688 15.658 47.189 0 66.877z"/><path d="m265.114 234.103c-2.085-3.579-6.676-4.792-10.256-2.707-13.687 7.971-27.24 17.448-40.282 28.167-3.199 2.63-3.661 7.356-1.031 10.556 1.483 1.804 3.632 2.738 5.798 2.738 1.676 0 3.362-.559 4.759-1.706 12.597-10.354 25.127-19.119 38.306-26.793 3.578-2.084 4.79-6.676 2.706-10.255z"/><path d="m485.873 196.077c-1.078-1.078-2.222-2.066-3.416-2.973 13.058-22.943 18.841-49.72 16.34-76.253-6.085-64.576-59.283-115.259-125.585-116.814-68.772-1.63-125.166 50.259-131.591 116.375-1.702 17.496 13.166 32.158 30.692 30.354l19.484-2.008c12.662-1.305 22.862-11.138 24.806-23.911 3.936-25.867 26.392-46.327 54.278-45.973 29.497.353 54.264 24.377 53.259 55.531-.482 14.921-7.061 29.289-18.052 39.419-16.226 14.957-34.971 19.925-60.924 26.804-13.89 3.681-29.634 7.854-46.429 14.091-3.883 1.442-5.861 5.759-4.42 9.642 1.442 3.883 5.761 5.863 9.643 4.419 16.115-5.985 31.487-10.059 45.057-13.656 26.976-7.15 48.282-12.797 67.239-30.272 13.929-12.838 22.267-31.05 22.878-49.964 1.265-39.174-29.763-70.556-68.071-71.014-.287-.003-.571-.005-.858-.005-35.143 0-63.428 25.857-68.43 58.721-.915 6.017-5.649 10.642-11.513 11.246l-19.484 2.008c-8.114.839-15.008-5.94-14.226-13.981 5.614-57.762 54.885-104.317 116.309-102.83 59.531 1.396 105.711 47.068 111.005 103.225 2.26 23.98-3.122 48.175-15.199 68.738-10.847-2.021-21.747 1.5-29.327 9.081-8.233 8.233-11.247 19.951-8.782 30.675-22.549 15.26-46.661 21.65-70.027 27.843-31.692 8.399-64.464 17.083-103.18 47.51-3.256 2.56-3.821 7.274-1.262 10.531 1.479 1.883 3.68 2.866 5.901 2.866 1.622 0 3.256-.524 4.63-1.604 36.281-28.514 67.532-36.795 97.753-44.805 24.043-6.372 48.834-12.949 72.882-28.781.654.79 1.346 1.559 2.086 2.299 12.828 12.828 33.705 12.83 46.535 0h-.001c12.859-12.857 12.862-33.672 0-46.534zm-10.606 35.929c-6.98 6.981-18.34 6.981-25.321 0-7.001-7.001-6.912-18.41 0-25.322 6.948-6.952 18.297-7.024 25.321 0 6.997 6.997 6.998 18.323 0 25.322z"/></g><g><path d="m432.47 390.433c-15.094.001-30.182-5.006-42.775-15.022-5.3-4.214-12.702-4.213-18.002 0-11.76 9.352-28.807 7.368-38.123-4.349-9.245-11.624-7.491-28.709 4.349-38.122 25.185-20.027 60.363-20.029 85.55 0 5.301 4.214 12.703 4.214 18.002 0 11.709-9.312 28.811-7.361 38.123 4.348 9.333 11.734 7.392 28.788-4.348 38.123-12.591 10.014-27.687 15.021-42.776 15.022zm-33.439-26.762c19.686 15.658 47.188 15.659 66.879 0 5.246-4.172 6.118-11.798 1.944-17.046-4.164-5.237-11.811-6.108-17.048-1.945-10.794 8.584-25.876 8.586-36.674 0-19.686-15.658-47.187-15.658-66.878 0-5.186 4.124-6.165 11.741-1.944 17.046 4.172 5.246 11.796 6.119 17.047 1.945 10.797-8.585 25.877-8.585 36.674 0z" fill="#6d00ca"/></g><g><path d="m252.731 242.613c-12.83-12.83-12.83-33.705-.001-46.535 12.829-12.829 33.706-12.83 46.535 0 12.83 12.83 12.83 33.705.001 46.535h-.001c-12.827 12.827-33.705 12.828-46.534 0zm10.606-35.929c-6.98 6.981-6.98 18.34.001 25.322 6.982 6.981 18.342 6.981 25.322 0h-.001c6.981-6.981 6.981-18.34 0-25.322-6.981-6.981-18.34-6.982-25.322 0z" fill="#6d00ca"/></g><path d="m291.984 338.002-105.303-105.302c-17.06-17.061-44.72-17.061-61.781 0-17.06 17.06-17.06 44.72 0 61.781l105.302 105.302c17.06 17.061 44.72 17.061 61.78 0 17.062-17.061 17.062-44.72.002-61.781z" fill="#ffff6f"/><circle cx="242.949" cy="340.229" fill="#f95116" r="8.776"/><g><path d="m204.813 346.15-26.28-26.28c-2.929-2.929-2.929-7.678 0-10.606 2.93-2.929 7.678-2.929 10.607 0l26.28 26.28c2.929 2.929 2.929 7.678 0 10.606-2.929 2.929-7.677 2.929-10.607 0z" fill="#f95116"/></g><circle cx="184.455" cy="281.735" fill="#f95116" r="8.776"/><g><path d="m224.899 405.086-105.302-105.302c-19.956-19.957-19.956-52.43 0-72.387 19.959-19.957 52.43-19.958 72.388 0l105.302 105.302c19.956 19.957 19.956 52.43 0 72.387-19.958 19.957-52.428 19.959-72.388 0zm-94.695-167.082c-14.108 14.108-14.108 37.065 0 51.174l105.303 105.302c14.141 14.142 37.031 14.143 51.173 0 14.109-14.109 14.109-37.065.001-51.174l-105.303-105.302c-14.141-14.142-37.032-14.143-51.174 0z" fill="#f95116"/></g></g></svg>