<svg id="Capa_1" enable-background="new 0 0 512 512" height="512" viewBox="0 0 512 512" width="512" xmlns="http://www.w3.org/2000/svg"><g><path d="m159.415 151.328h46.018l-11.808-79.774c-.852-5.755-3.876-10.967-8.45-14.562l-59.04-46.407c-6.253-4.915-15.306-3.83-20.221 2.423l-10.332 13.145c-4.915 6.253-3.83 15.306 2.422 20.221l51.916 40.808z" fill="#ffd600"/><g><path d="m205.434 158.828h-46.018c-3.718 0-6.875-2.724-7.419-6.402l-9.059-61.193-49.569-38.963c-9.494-7.463-11.146-21.258-3.684-30.752l10.333-13.146c7.48-9.516 21.234-11.166 30.753-3.684l59.039 46.407c6.107 4.8 10.098 11.676 11.234 19.361l11.808 79.774c.67 4.526-2.839 8.598-7.418 8.598zm-39.547-15h30.855l-10.535-71.177c-.573-3.875-2.586-7.343-5.666-9.764l-59.04-46.407c-2.996-2.356-7.332-1.839-9.689 1.161l-10.333 13.146c-2.352 2.992-1.831 7.338 1.16 9.689l51.916 40.808c1.508 1.185 2.504 2.902 2.784 4.798z" fill="#f90"/></g><path d="m341.348 250.486c-90.336 15.488-156.506-53.069-240.307-28.264 3.905-15.366 9.671-31.127 16.965-46.17 7.304-15.073 22.498-24.724 39.25-24.724h89.153c14.183 31.451 45.816 53.342 82.557 53.342.698 0 1.386-.01 2.074-.02 5.311 15.629 8.861 31.299 10.308 45.836z" fill="#88f8d8"/><g><path d="m101.047 229.724c-.612 0-1.232-.075-1.853-.233-4.015-1.02-6.442-5.102-5.422-9.116 4.085-16.079 9.968-32.092 17.485-47.595 8.521-17.587 26.577-28.951 45.998-28.951h89.153c4.143 0 7.5 3.358 7.5 7.5s-3.357 7.5-7.5 7.5h-89.153c-13.711 0-26.467 8.044-32.501 20.494-6.976 14.389-12.663 29.861-16.445 44.746-.862 3.394-3.913 5.655-7.262 5.655z" fill="#007ea8"/></g><g><path d="m333.885 251.229c-1.372-13.78-4.811-29.052-9.947-44.166-1.332-3.922.767-8.182 4.688-9.514 3.923-1.334 8.182.767 9.515 4.688 5.497 16.179 9.186 32.606 10.67 47.505.41 4.122-2.598 7.796-6.72 8.206-4.109.413-7.795-2.589-8.206-6.719z" fill="#007ea8"/></g><path d="m287.748 459.077-28.346-10.083c-9.323-3.316-15.55-7.082-15.55-16.977v-46.521c-8.137 1.688-16.565 2.579-25.203 2.579-8.637 0-17.066-.891-25.203-2.579v46.521c0 9.895-6.227 13.661-15.55 16.977l-28.346 10.083c-9.323 3.316-15.55 12.14-15.55 22.035 0 12.917 10.471 23.388 23.388 23.388h122.522c12.917 0 23.388-10.471 23.388-23.388 0-9.895-6.227-18.719-15.55-22.035z" fill="#88f8d8"/><path d="m342.076 264.648c0 68.162-55.254 123.426-123.426 123.426s-123.426-55.264-123.426-123.426c0-13.09 2.043-27.576 5.817-42.427 83.801-24.805 149.971 43.752 240.307 28.264.485 4.857.728 9.601.728 14.163z" fill="#ffff6f"/><circle cx="328.965" cy="114.15" fill="#ffff6f" r="90.524"/><circle cx="328.965" cy="114.15" fill="#ffd600" r="53.149"/><path d="m389.614 114.151c0-33.417-27.23-60.649-60.65-60.649-33.417 0-60.65 27.23-60.65 60.649 0 33.417 27.231 60.649 60.65 60.649 33.418 0 60.65-27.23 60.65-60.649zm-105.673 7.499h26.916l-19.017 19.016c-3.973-5.546-6.736-12.012-7.899-19.016zm7.9-34.016 19.017 19.016h-26.916c1.162-7.003 3.925-13.469 7.899-19.016zm82.147 19.017h-26.916l19.017-19.016c3.973 5.546 6.736 12.012 7.899 19.016zm-37.523-10.607v-26.916c7.004 1.163 13.47 3.926 19.017 7.9zm-15 0-19.017-19.017c5.547-3.974 12.013-6.737 19.017-7.9zm0 36.213v26.916c-7.004-1.163-13.47-3.926-19.017-7.9zm15 0 19.017 19.017c-5.547 3.974-12.013 6.736-19.017 7.9zm10.607-10.607h26.916c-1.163 7.004-3.926 13.47-7.9 19.016z" fill="#f90"/><g><path d="m328.965 212.174c-54.05 0-98.023-43.973-98.023-98.024s43.973-98.024 98.023-98.024 98.023 43.973 98.023 98.024-43.973 98.024-98.023 98.024zm0-181.048c-45.78 0-83.024 37.244-83.024 83.024s37.244 83.024 83.024 83.024 83.024-37.244 83.024-83.024-37.245-83.024-83.024-83.024z" fill="#f90"/></g><circle cx="267.03" cy="295.932" fill="#f90" r="10.265"/><path d="m196.914 323.598h43.472" style="fill:none;stroke:#f90;stroke-width:15;stroke-linecap:round;stroke-linejoin:round;stroke-miterlimit:10"/><circle cx="170.27" cy="295.932" fill="#f90" r="10.265"/><g><path d="m279.909 512h-122.519c-17.031 0-30.887-13.856-30.887-30.888 0-13.037 8.253-24.732 20.536-29.102l28.345-10.083c9.564-3.402 10.563-5.632 10.563-9.911v-45.521c0-4.142 3.357-7.5 7.5-7.5s7.5 3.358 7.5 7.5v45.521c0 16.739-13.87 21.673-20.536 24.044l-28.345 10.083c-6.318 2.248-10.563 8.263-10.563 14.969 0 8.761 7.127 15.888 15.888 15.888h122.519c8.761 0 15.889-7.127 15.889-15.888 0-6.706-4.245-12.722-10.563-14.969l-28.345-10.083c-6.666-2.371-20.536-7.305-20.536-24.044v-45.521c0-4.142 3.357-7.5 7.5-7.5s7.5 3.358 7.5 7.5v45.521c0 4.279.999 6.509 10.563 9.911l28.345 10.083c12.283 4.37 20.536 16.064 20.536 29.102-.001 17.032-13.858 30.888-30.89 30.888z" fill="#007ea8"/></g><path d="m218.65 388.074c-8.637 0-17.066-.891-25.203-2.579v30.85c8.203 1.358 16.62 2.077 25.203 2.077s16.999-.718 25.203-2.077v-30.85c-8.137 1.689-16.565 2.579-25.203 2.579z" fill="#007ea8"/><g><path d="m218.65 395.574c-72.193 0-130.926-58.733-130.926-130.926 0-13.583 2.035-28.479 6.049-44.274.65-2.563 2.603-4.594 5.14-5.344 45.698-13.526 86.759-.517 126.468 12.063 35.912 11.377 73.048 23.143 114.7 16 2.049-.352 4.154.164 5.81 1.425 1.655 1.26 2.713 3.151 2.92 5.221.508 5.077.765 10.093.765 14.909 0 72.193-58.733 130.926-130.926 130.926zm-111.363-167.305c-3.029 13.013-4.563 25.233-4.563 36.379 0 63.922 52.004 115.926 115.927 115.926 63.921 0 115.926-52.004 115.926-115.926 0-1.827-.042-3.689-.124-5.577-6.964.845-13.789 1.228-20.476 1.228-33.45.001-63.676-9.577-93.125-18.907-37.977-12.03-73.914-23.417-113.565-13.123z" fill="#f90"/></g></g></svg>