<svg id="Capa_1" enable-background="new 0 0 512 512" height="512" viewBox="0 0 512 512" width="512" xmlns="http://www.w3.org/2000/svg"><g><path d="m74.235 52.068h13.722c2.368 0 4.467 1.507 5.224 3.751l34.794 103.161h47.034l-39.597-117.404c-6.874-20.382-25.945-34.076-47.455-34.076h-13.722c-12.307 0-22.284 9.977-22.284 22.284s9.977 22.284 22.284 22.284z" fill="#b98eff"/><path d="m498.718 200.528c-.634 9.419-1.793 18.738-3.457 27.939-240.371 78.895-287.098-57.057-476.314 10.805-2.872-12.667-4.784-25.612-5.665-38.735-1.515-22.472 16.243-41.557 38.764-41.557h407.907c22.522.001 40.28 19.086 38.765 41.548z" fill="#a4bcff"/><path d="m328.646 399.678h-35.896v58.534h-15.489c-12.782 0-23.144 10.362-23.144 23.144s10.363 23.144 23.145 23.144h38.633c12.782 0 23.144-10.362 23.144-23.144v-82.061c-3.448.246-6.913.383-10.393.383z" fill="#b98eff"/><path d="m185.036 399.678v58.534h-15.489c-12.782 0-23.144 10.362-23.144 23.144s10.362 23.144 23.144 23.144h38.633c12.782 0 23.144-10.362 23.144-23.144v-81.678z" fill="#b98eff"/><path d="m495.261 228.467c-8.062 44.479-27.89 85.898-56.225 119.928-27.226 32.703-67.833 51.283-110.39 51.283h-145.292c-42.558 0-83.164-18.58-110.39-51.283-26.018-31.257-44.875-68.754-54.017-109.123 189.217-67.862 235.944 68.091 476.314-10.805z" fill="#ff63ed"/><circle cx="315.742" cy="315.936" fill="#e207b9" r="12.676"/><g><path d="m282.84 357.6h-53.68c-4.143 0-7.5-3.358-7.5-7.5s3.357-7.5 7.5-7.5h53.681c4.143 0 7.5 3.358 7.5 7.5s-3.358 7.5-7.501 7.5z" fill="#e207b9"/></g><circle cx="196.259" cy="315.936" fill="#e207b9" r="12.676"/><g><path d="m175.01 166.481h-47.035c-3.219 0-6.078-2.053-7.106-5.103l-34.338-101.81h-12.296c-16.423 0-29.784-13.361-29.784-29.784s13.361-29.784 29.784-29.784h13.723c24.731 0 46.657 15.745 54.561 39.179l39.599 117.405c.772 2.289.395 4.81-1.015 6.771-1.409 1.962-3.677 3.126-6.093 3.126zm-41.649-15h31.205l-36.261-107.508c-5.845-17.329-22.059-28.973-40.347-28.973h-13.723c-8.152 0-14.784 6.632-14.784 14.784s6.632 14.784 14.784 14.784h13.723c5.589 0 10.544 3.559 12.33 8.854zm-45.403-91.913h.01z" fill="#6d00ca"/></g><g><path d="m18.941 246.774c-3.426 0-6.518-2.361-7.308-5.843-2.974-13.114-4.937-26.535-5.835-39.891-.862-12.801 3.662-25.512 12.413-34.874 8.854-9.471 20.87-14.687 33.835-14.687h407.907c12.966 0 24.982 5.216 33.837 14.688 8.75 9.359 13.273 22.067 12.411 34.863-.646 9.602-1.844 19.282-3.561 28.77-.737 4.076-4.634 6.782-8.715 6.045-4.076-.737-6.782-4.639-6.045-8.715 1.616-8.939 2.745-18.06 3.354-27.107.594-8.796-2.391-17.182-8.401-23.612-5.987-6.405-14.113-9.932-22.88-9.932h-407.907c-8.766 0-16.891 3.527-22.877 9.931-6.013 6.432-8.998 14.821-8.404 23.622.845 12.582 2.694 25.225 5.497 37.581.916 4.04-1.616 8.057-5.655 8.973-.559.128-1.117.188-1.666.188z" fill="#2115c2"/></g><g><path d="m315.894 512h-38.633c-16.896 0-30.644-13.747-30.644-30.644s13.747-30.644 30.644-30.644h7.989v-51.034c0-4.142 3.357-7.5 7.5-7.5s7.5 3.358 7.5 7.5v58.534c0 4.142-3.357 7.5-7.5 7.5h-15.489c-8.626 0-15.644 7.018-15.644 15.644s7.018 15.644 15.644 15.644h38.633c8.626 0 15.645-7.018 15.645-15.644v-82.061c0-4.142 3.357-7.5 7.5-7.5s7.5 3.358 7.5 7.5v82.061c0 16.897-13.747 30.644-30.645 30.644z" fill="#6d00ca"/></g><g><path d="m208.18 512h-38.633c-16.897 0-30.645-13.747-30.645-30.644s13.747-30.644 30.645-30.644h7.988v-51.034c0-4.142 3.357-7.5 7.5-7.5s7.5 3.358 7.5 7.5v58.534c0 4.142-3.357 7.5-7.5 7.5h-15.488c-8.626 0-15.645 7.018-15.645 15.644s7.019 15.644 15.645 15.644h38.633c8.626 0 15.644-7.018 15.644-15.644v-81.678c0-4.142 3.357-7.5 7.5-7.5s7.5 3.358 7.5 7.5v81.678c0 16.897-13.747 30.644-30.644 30.644z" fill="#6d00ca"/></g><path d="m185.036 399.678h46.288v30.927h-46.288z" fill="#6d00ca"/><path d="m328.646 399.678h-35.896v30.927h46.288v-31.31c-3.447.246-6.912.383-10.392.383z" fill="#6d00ca"/><g><path d="m328.646 407.178h-145.292c-45.255 0-87.592-19.677-116.154-53.984-27.092-32.548-46.307-71.368-55.566-112.265-.837-3.696 1.215-7.437 4.782-8.716 92.295-33.102 151.474-18.818 214.128-3.696 68.139 16.447 138.599 33.451 262.379-7.176 2.511-.825 5.271-.266 7.265 1.47 1.993 1.736 2.926 4.393 2.454 6.993-8.173 45.092-28.174 87.76-57.841 123.389-28.563 34.308-70.9 53.985-116.155 53.985zm-300.818-163.062c9.24 36.207 26.757 70.476 50.9 99.481 25.703 30.874 63.838 48.582 104.626 48.582h145.292c40.788 0 78.923-17.708 104.627-48.582 25.284-30.366 43.132-66.136 52.039-104.103-52.258 16.009-99.882 23.143-145.228 21.772-43.182-1.301-78.706-9.875-113.06-18.167-58.947-14.228-114.707-27.685-199.196 1.017z" fill="#e207b9"/></g></g></svg>