<svg id="Capa_1" enable-background="new 0 0 512 512" height="512" viewBox="0 0 512 512" width="512" xmlns="http://www.w3.org/2000/svg"><g><path d="m416.447 193.58c-32.902-48.121-88.213-79.708-150.907-79.708-30.883 0-59.97 7.674-85.476 21.203-2.795 26.043-17.182 48.667-37.894 62.581-17.153 11.523-27.538 30.742-27.538 51.406v150.48c32.902 48.121 88.213 79.708 150.907 79.708s118.005-31.586 150.907-79.708v-205.962z" fill="#7181ff"/><ellipse cx="265.539" cy="296.562" fill="#a4bcff" rx="123.478" ry="123.478" transform="matrix(.973 -.23 .23 .973 -61.033 68.942)"/><g><path d="m265.539 427.54c-72.221 0-130.978-58.757-130.978-130.978s58.757-130.978 130.978-130.978 130.978 58.757 130.978 130.978-58.756 130.978-130.978 130.978zm0-246.957c-63.951 0-115.978 52.028-115.978 115.978s52.027 115.979 115.978 115.979 115.978-52.028 115.978-115.978-52.027-115.979-115.978-115.979z" fill="#2115c2"/></g><path d="m459.349 354.637v105.916c0 11.632-9.045 21.538-20.669 21.951-12.204.434-22.233-9.33-22.233-21.437v-415c0-17.234 23.038-22.992 31.157-7.79 23.517 44.033 52.465 119.533 56.854 229.281.71 17.767-7.795 34.65-22.533 44.599-14.116 9.53-22.576 25.449-22.576 42.48z" fill="#b98eff"/><g><path d="m416.453 201.081c-2.394 0-4.745-1.143-6.198-3.268-32.725-47.865-86.825-76.441-144.715-76.441-28.547 0-56.889 7.03-81.962 20.329-3.661 1.942-8.199.548-10.141-3.111-1.94-3.659-.548-8.199 3.111-10.14 27.23-14.443 58.003-22.078 88.991-22.078 62.846 0 121.575 31.018 157.098 82.975 2.338 3.419 1.461 8.086-1.958 10.424-1.294.886-2.768 1.31-4.226 1.31z" fill="#2115c2"/></g><g><path d="m265.539 486.75c-62.847 0-121.575-31.018-157.099-82.975-2.338-3.419-1.461-8.086 1.958-10.424 3.42-2.337 8.087-1.461 10.425 1.958 32.726 47.865 86.826 76.441 144.716 76.441s111.99-28.576 144.715-76.441c2.338-3.419 7.004-4.297 10.425-1.958 3.419 2.338 4.296 7.005 1.958 10.424-35.523 51.957-94.251 82.975-157.098 82.975z" fill="#2115c2"/></g><g><path d="m408.946 461.068v-415c0-11.23 7.317-20.607 18.209-23.333 10.896-2.727 21.772 2.1 27.064 12.01 23.884 44.719 53.287 121.36 57.732 232.513.82 20.534-8.836 39.642-25.831 51.116-12.067 8.146-19.271 21.703-19.271 36.264v105.916c0 15.69-12.517 28.9-27.902 29.447-16.44.586-30.001-12.541-30.001-28.933zm21.851-423.782c-3.312.829-6.851 3.571-6.851 8.782v415c0 7.87 6.497 14.222 14.468 13.942 7.408-.263 13.436-6.749 13.436-14.456v-105.917c0-19.552 9.674-37.756 25.879-48.696 12.656-8.544 19.847-22.781 19.235-38.084-4.331-108.315-32.831-182.71-55.975-226.047-2.164-4.049-6.198-5.526-10.192-4.524z" fill="#6d00ca"/></g><circle cx="317.466" cy="257.381" fill="#2115c2" r="11.018"/><g><path d="m288.868 294.576h-46.658c-4.143 0-7.5-3.358-7.5-7.5s3.357-7.5 7.5-7.5h46.658c4.143 0 7.5 3.358 7.5 7.5s-3.357 7.5-7.5 7.5z" fill="#2115c2"/></g><circle cx="213.612" cy="257.381" fill="#2115c2" r="11.018"/><path d="m163.469 30.914c-9.77-.183-17.766 8.115-17.766 17.887v76.98c0 1.19-.04 2.371-.12 3.541-1.486 21.784-34.116 20.381-34.116-1.454v-79.068c0-9.771-7.996-18.07-17.766-17.887-9.474.177-17.1 7.913-17.1 17.43v79.523c0 21.834-32.629 23.238-34.116 1.455-.08-1.17-.12-2.351-.12-3.541v-76.98c0-9.771-7.996-18.07-17.766-17.887-9.474.177-17.1 7.913-17.1 17.43v76.334c0 29.862 14.946 56.536 37.833 72.401 16.581 11.494 26.396 30.452 26.396 50.627v213.363c0 11.847 9.604 21.451 21.451 21.451s21.451-9.604 21.451-21.451v-212.006c0-20.664 10.385-39.882 27.538-51.406 23.142-15.547 38.4-41.962 38.4-71.876v-77.437c.001-9.516-7.625-17.252-17.099-17.429z" fill="#b98eff"/><g><path d="m93.18 490.019c-15.964 0-28.951-12.988-28.951-28.952v-213.362c0-17.785-8.661-34.407-23.169-44.463-25.71-17.822-41.06-47.192-41.06-78.565v-76.333c0-13.493 10.973-24.676 24.459-24.929 14.09-.244 25.407 11.523 25.407 25.385v76.98c0 1.015.034 2.034.103 3.029.581 8.53 8.18 8.704 9.71 8.652 4.347-.148 9.423-2.75 9.423-9.595v-79.522c0-13.493 10.973-24.676 24.459-24.929 14.177-.274 25.407 11.648 25.407 25.385v79.067c0 6.845 5.076 9.447 9.424 9.595 1.509.05 9.127-.121 9.709-8.651.068-.997.103-2.016.103-3.031v-76.98c0-13.651 11.144-25.665 25.407-25.385 13.486.253 24.459 11.436 24.459 24.929v77.437c0 31.356-15.595 60.553-41.717 78.102-15.166 10.188-24.221 27.078-24.221 45.18v212.005c-.001 15.963-12.988 28.951-28.952 28.951zm-68.267-451.608c-.058 0-.115 0-.173.001-5.371.101-9.74 4.556-9.74 9.932v76.333c0 26.455 12.936 51.217 34.605 66.237 18.55 12.858 29.624 34.089 29.624 56.791v213.362c0 7.693 6.259 13.952 13.951 13.952s13.951-6.259 13.951-13.952v-212.005c0-23.107 11.535-44.652 30.855-57.631 21.968-14.758 35.082-39.3 35.082-65.651v-77.436c0-5.375-4.369-9.831-9.74-9.932-5.644-.083-10.126 4.875-10.126 10.388v76.98c0 1.354-.046 2.718-.138 4.053-1.048 15.377-13.498 23.012-25.185 22.621-11.884-.405-23.913-8.98-23.913-24.586v-79.068c0-5.547-4.515-10.472-10.126-10.388-5.371.101-9.74 4.556-9.74 9.932v79.523c0 15.606-12.029 24.181-23.912 24.586-11.745.414-24.136-7.242-25.185-22.62-.092-1.333-.138-2.696-.138-4.052v-76.981c.001-5.459-4.414-10.389-9.952-10.389z" fill="#6d00ca"/></g></g></svg>