<svg id="Capa_1" enable-background="new 0 0 512 512" height="512" viewBox="0 0 512 512" width="512" xmlns="http://www.w3.org/2000/svg"><g><path d="m383.426 148.908v29.148c-167.1 38.194-214.37-77.961-359.927-26.782v-2.366c0-14.609 4.295-28.894 12.335-41.087l22.112-33.493h291.032l22.112 33.493c8.041 12.193 12.336 26.478 12.336 41.087z" fill="#ffd600"/><path d="m348.982 7.5h-291.036c-18.454 0-33.413 14.96-33.413 33.413 0 18.454 14.96 33.413 33.413 33.413h291.035c18.454 0 33.413-14.96 33.413-33.413.001-18.454-14.959-33.413-33.412-33.413z" fill="#ffff6f"/><path d="m383.426 178.056v251.864c0 14.609-4.294 28.894-12.335 41.077-13.807 20.914-37.189 33.503-62.245 33.503h-210.767c-25.056 0-48.438-12.589-62.245-33.503-8.041-12.183-12.335-26.468-12.335-41.077v-278.646c145.556-51.179 192.826 64.976 359.927 26.782z" fill="#ffff6f"/><g><path d="m348.982 81.826h-291.036c-22.56 0-40.913-18.354-40.913-40.913s18.353-40.913 40.913-40.913h291.036c22.56 0 40.913 18.354 40.913 40.913s-18.353 40.913-40.913 40.913zm-291.036-66.826c-14.288 0-25.913 11.625-25.913 25.913s11.625 25.913 25.913 25.913h291.036c14.288 0 25.913-11.625 25.913-25.913s-11.625-25.913-25.913-25.913z" fill="#f95116"/></g><circle cx="251.207" cy="306.718" fill="#ffd600" r="89.115"/><circle cx="251.207" cy="306.718" fill="#ffff6f" r="52.323"/><path d="m162.092 306.718c0-37.034 22.592-68.789 54.745-82.242-14.452-22.733-39.843-37.83-68.775-37.83-44.989 0-81.46 36.471-81.46 81.46s36.471 81.46 81.46 81.46c8.075 0 15.867-1.192 23.231-3.38-5.887-11.898-9.201-25.295-9.201-39.468z" fill="#ffd600"/><path d="m162.092 306.718c0-24.926 10.238-47.458 26.733-63.631-8.416-13.682-23.522-22.809-40.763-22.809-26.414 0-47.828 21.413-47.828 47.828 0 26.414 21.413 47.828 47.828 47.828 4.984 0 9.789-.764 14.306-2.179-.182-2.322-.276-4.668-.276-7.037z" fill="#ffff6f"/><path d="m311.03 306.718c0-32.966-26.863-59.822-59.822-59.822-32.968 0-59.823 26.865-59.823 59.822 0 32.967 26.864 59.823 59.823 59.823 32.965 0 59.822-26.862 59.822-59.823zm-104.006 7.5h26.076l-18.424 18.424c-3.833-5.385-6.505-11.646-7.652-18.424zm7.653-33.423 18.424 18.424h-26.076c1.146-6.778 3.819-13.039 7.652-18.424zm80.713 18.423h-26.076l18.424-18.424c3.833 5.386 6.505 11.647 7.652 18.424zm-36.682-10.607v-26.075c6.777 1.147 13.038 3.819 18.423 7.652zm-15 .001-18.424-18.424c5.385-3.833 11.647-6.505 18.424-7.652zm0 36.213v26.077c-6.778-1.147-13.039-3.82-18.424-7.652zm15 .001 18.423 18.423c-5.385 3.833-11.646 6.505-18.423 7.652zm10.606-10.608h26.076c-1.147 6.777-3.82 13.039-7.652 18.424z" fill="#f95116"/><g><path d="m148.061 357.065c-49.052 0-88.959-39.907-88.959-88.959s39.907-88.959 88.959-88.959c30.586 0 58.663 15.441 75.104 41.306 1.187 1.866 1.489 4.16.827 6.27s-2.222 3.819-4.262 4.673c-30.458 12.745-50.14 42.311-50.14 75.323 0 12.686 2.834 24.845 8.423 36.141.981 1.982 1.037 4.297.153 6.324-.885 2.028-2.619 3.562-4.739 4.191-8.242 2.449-16.776 3.69-25.366 3.69zm0-162.919c-40.781 0-73.959 33.178-73.959 73.959s33.178 73.959 73.959 73.959c4.288 0 8.56-.372 12.772-1.11-4.146-10.896-6.242-22.375-6.242-34.237 0-35.946 19.711-68.439 50.933-85.158-13.982-17.304-34.902-27.413-57.463-27.413z" fill="#f90"/></g><g><path d="m148.061 323.434c-30.508 0-55.327-24.82-55.327-55.328s24.819-55.328 55.327-55.328c19.366 0 36.993 9.862 47.152 26.38 1.833 2.981 1.361 6.834-1.138 9.285-17.486 17.144-26.127 40.582-24.23 64.727.272 3.486-1.9 6.698-5.237 7.743-5.345 1.672-10.912 2.521-16.547 2.521zm0-95.656c-22.236 0-40.327 18.091-40.327 40.328s18.091 40.328 40.327 40.328c2.2 0 4.386-.177 6.538-.528-.005-.396-.008-.792-.008-1.188 0-24.006 8.668-46.614 24.536-64.335-7.613-9.233-18.867-14.605-31.066-14.605z" fill="#f90"/></g><g><path d="m251.208 403.334c-53.274 0-96.616-43.342-96.616-96.616s43.342-96.615 96.616-96.615c53.273 0 96.615 43.341 96.615 96.615s-43.342 96.616-96.615 96.616zm0-178.231c-45.003 0-81.616 36.612-81.616 81.615s36.613 81.616 81.616 81.616 81.615-36.613 81.615-81.616-36.613-81.615-81.615-81.615z" fill="#f95116"/></g><circle cx="259.383" cy="430.775" fill="#f90" r="11.865"/><g><path d="m228.586 470.254h-50.248c-4.143 0-7.5-3.358-7.5-7.5s3.357-7.5 7.5-7.5h50.248c4.143 0 7.5 3.358 7.5 7.5s-3.357 7.5-7.5 7.5z" fill="#f90"/></g><circle cx="147.541" cy="430.775" fill="#f90" r="11.865"/><path d="m487.415 321.672-5.09-11.013c-2.711-5.866-9.664-8.423-15.53-5.712l-11.601 5.362c-25.481 11.778-42.324 35.532-44.785 62.682h16.057c6.858 0 13.377 1.443 19.283 4.026 1.069-14.63 10.477-28.039 24.354-34.454l11.599-5.361c5.867-2.712 8.424-9.665 5.713-15.53z" fill="#ffd600"/><path d="m426.467 372.991h-43.041v45.686h43.041c1.374 0 2.488 1.114 2.488 2.488v24.363c0 8.718 7.067 15.785 15.785 15.785h14.116c8.718 0 15.785-7.067 15.785-15.785v-24.363c0-26.606-21.568-48.174-48.174-48.174z" fill="#b98eff"/><g><path d="m445.757 384.517c-.184 0-.368-.007-.555-.021-4.131-.302-7.235-3.896-6.934-8.027 1.281-17.527 12.274-33.128 28.688-40.715l11.598-5.361c2.106-.973 3.027-3.466 2.052-5.575l-5.09-11.013c-.971-2.102-3.462-3.027-5.574-2.051l-11.602 5.362c-23.094 10.674-38.22 31.815-40.462 56.551-.374 4.125-4.015 7.169-8.146 6.792-4.126-.374-7.167-4.021-6.793-8.146 2.732-30.138 21.09-55.863 49.108-68.813l11.601-5.361c9.632-4.452 21.031-.26 25.483 9.374l5.09 11.013c4.453 9.631.261 21.032-9.373 25.484l-11.598 5.361c-11.293 5.22-19.151 16.286-20.021 28.193-.288 3.944-3.578 6.953-7.472 6.953z" fill="#f95116"/></g><g><path d="m458.856 468.813h-14.116c-12.84 0-23.285-10.446-23.285-23.285v-19.351h-37.029c-4.143 0-7.5-3.358-7.5-7.5s3.357-7.5 7.5-7.5h42.042c5.507 0 9.987 4.48 9.987 9.988v24.363c0 4.568 3.717 8.285 8.285 8.285h14.116c4.568 0 8.285-3.717 8.285-8.285v-24.363c0-22.428-18.246-40.674-40.674-40.674h-42.042c-4.143 0-7.5-3.358-7.5-7.5s3.357-7.5 7.5-7.5h42.042c30.698 0 55.674 24.975 55.674 55.674v24.363c0 12.839-10.445 23.285-23.285 23.285zm-32.389-42.636h.01z" fill="#6d00ca"/></g><path d="m377.349 103.688-22.112-33.493c-1.388-2.103-3.739-3.368-6.259-3.368h-291.032c-2.52 0-4.871 1.265-6.259 3.368l-22.113 33.496c-8.881 13.467-13.575 29.102-13.575 45.216v2.365 278.646c0 44.871 36.287 82.082 82.081 82.082h210.766c45.783 0 82.08-37.197 82.08-82.081v-251.863-29.148c-.001-16.115-4.694-31.75-13.577-45.22zm-335.256 8.265 19.888-30.125h282.962l19.887 30.122c7.259 11.008 11.096 23.788 11.096 36.958v23.101c-67.639 14.259-110.994 4.262-175.978-18.56-38.195-13.414-70.913-24.391-111.315-22.857-19.288.736-38.4 4.371-57.072 10.124-.022.007-.044.013-.067.02 1.253-10.248 4.854-20.071 10.599-28.783zm333.832 317.966c0 36.677-29.662 67.081-67.08 67.081h-210.765c-37.485 0-67.081-30.466-67.081-67.081v-273.271c19.058-6.285 38.531-10.241 58.509-10.934.028-.001.057-.001.085-.002 38.31-1.313 69.844 9.407 105.385 21.89 50.521 17.746 103.126 35.463 180.948 19.733v242.584z" fill="#f90"/></g></svg>