<svg id="Capa_1" enable-background="new 0 0 512 512" height="512" viewBox="0 0 512 512" width="512" xmlns="http://www.w3.org/2000/svg"><g><path d="m140.134 132.942c3.402 0 6.696.457 9.833 1.299 10.559-11.978 17.211-28.353 17.211-43.722 0-28.874-23.407-83.02-52.281-83.02s-52.28 54.146-52.28 83.02c0 14.814 6.17 30.576 16.072 42.422h61.445z" fill="#ffff6f"/><path d="m140.134 132.942c.536 0 1.067.018 1.597.04.737-3.446 1.145-6.948 1.145-10.378 0-19.342-12.527-55.614-27.979-55.614s-27.979 36.272-27.979 55.614c0 3.416.405 6.904 1.137 10.337h52.079z" fill="#ffd600"/><path d="m336.763 142.828c2.68-2.308 4.803-4.032 6.224-5.153 16.346-12.897 39.877-10.452 53.262 5.266 14.273-12.306 23.683-32.223 23.683-50.703 0-29.472-23.892-84.739-53.363-84.739s-53.363 55.267-53.363 84.739c0 18.425 9.356 38.276 23.557 50.59z" fill="#ffff6f"/><path d="m342.987 137.675c15.078-11.897 36.273-10.74 49.976 1.848 1.385-4.755 2.165-9.716 2.165-14.536 0-19.743-12.786-56.765-28.558-56.765s-28.558 37.023-28.558 56.765c0 4.936.817 10.019 2.266 14.877 1.07-.882 1.983-1.616 2.709-2.189z" fill="#ffd600"/><g fill="#f95116"><path d="m114.897 0c-15.776 0-31.237 12.273-43.534 34.559-9.869 17.885-16.246 39.851-16.246 55.961 0 16.228 6.661 33.885 17.817 47.232 2.621 3.135 7.257 3.584 10.433 1.043 5.493 4.395 13.485-.556 12.023-7.416-.645-3.027-.972-5.979-.972-8.774 0-8.907 3.037-21.78 7.558-32.035 4.87-11.047 10.111-16.079 12.921-16.079s8.052 5.032 12.922 16.079c4.521 10.254 7.558 23.128 7.558 32.035 0 2.808-.329 5.771-.979 8.808-1.278 5.971 4.807 11.003 10.495 8.343 1.476 1.353 3.272 1.986 5.072 1.986 2.078 0 4.146-.859 5.629-2.541 11.95-13.556 19.085-31.755 19.085-48.681 0-16.11-6.377-38.076-16.246-55.961-12.299-22.286-27.76-34.559-43.536-34.559zm35.453 121.197c-.276-10.814-3.665-25.016-8.805-36.678-7.219-16.374-16.433-25.028-26.647-25.028s-19.43 8.655-26.648 25.028c-5.143 11.666-8.532 25.874-8.805 36.69-5.92-9.479-9.329-20.475-9.329-30.689 0-13.551 5.778-33.127 14.379-48.714 9.401-17.036 20.481-26.806 30.402-26.806s21.001 9.77 30.401 26.806c8.601 15.586 14.379 35.163 14.379 48.714 0 10.283-3.398 21.218-9.327 30.677z"/><path d="m410.87 35.194c-12.523-22.695-28.256-35.194-44.3-35.194s-31.777 12.499-44.3 35.194c-10.063 18.234-16.563 40.625-16.563 57.044 0 20.403 10.262 42.485 26.144 56.256 3.403 2.951 8.751 2.304 11.26-1.687 3.536-1.438 5.468-5.353 4.354-9.086-1.277-4.286-1.953-8.689-1.953-12.734 0-9.111 3.105-22.276 7.728-32.761 4.999-11.339 10.415-16.504 13.331-16.504s8.332 5.165 13.331 16.504c4.622 10.485 7.728 23.65 7.728 32.761 0 3.946-.646 8.247-1.866 12.438-1.017 3.49.62 7.122 3.724 8.742 2.154 4.512 7.952 5.651 11.66 2.453 15.968-13.768 26.286-35.9 26.286-56.384-.001-16.417-6.502-38.808-16.564-57.042zm-8.258 88.916c-.176-11.084-3.656-25.846-8.985-37.933-7.341-16.652-16.696-25.454-27.057-25.454s-19.716 8.802-27.057 25.454c-5.327 12.084-8.808 26.842-8.985 37.925-6.173-9.679-9.822-21.072-9.822-31.864 0-13.855 5.906-33.867 14.696-49.797 9.624-17.439 20.983-27.441 31.168-27.441s21.544 10.002 31.167 27.441c8.79 15.93 14.696 35.942 14.696 49.797 0 10.804-3.647 22.195-9.821 31.872z"/></g><path d="m140.134 132.942h-63.254c-20.881 0-37.809 16.928-37.809 37.809s16.927 37.809 37.809 37.809h25.445v258.13c0 20.882 16.928 37.809 37.809 37.809s37.809-16.928 37.809-37.809v-295.939c0-20.882-16.928-37.809-37.809-37.809z" fill="#ff9bff"/><path d="m346.987 252.614c-1.56 0-3.112.039-4.659.095 21.781-32.588 44.136-51.022 48.463-54.436 16.734-13.201 19.598-37.468 6.397-54.202-13.2-16.732-37.469-19.599-54.201-6.396-7.362 5.807-33.41 27.628-59.552 64.619-33.572 47.503-54.057 100.325-60.924 157.027-.966 6.273-1.467 12.697-1.467 19.236 0 69.445 56.498 125.942 125.943 125.942s125.942-56.497 125.942-125.942-56.497-125.943-125.942-125.943zm0 174.701c-26.886 0-48.759-21.873-48.759-48.758 0-2.153.155-4.269.427-6.349.081-.491.148-.987.211-1.484 3.759-23.174 23.902-40.926 48.121-40.926 26.885 0 48.758 21.873 48.758 48.759 0 26.885-21.873 48.758-48.758 48.758z" fill="#ff9bff"/><g><path d="m346.987 472.893c-52.017 0-94.336-42.319-94.336-94.335 0-49.816 20.77-109.007 55.559-158.336l.206-.291c24.376-34.495 48.851-54.573 53.51-58.247 3.253-2.565 7.968-2.008 10.533 1.244s2.008 7.968-1.244 10.533c-4.373 3.45-27.366 22.321-50.558 55.139l-.202.285c-18.725 26.551-33.18 56.021-42.193 85.091 17.999-19.161 42.955-29.755 68.726-29.755 52.017 0 94.336 42.319 94.336 94.337-.001 52.016-42.321 94.335-94.337 94.335zm-78.651-104.656c-.455 3.477-.686 6.949-.686 10.321 0 43.746 35.59 79.335 79.336 79.335s79.336-35.59 79.336-79.335c0-43.747-35.59-79.337-79.336-79.337-36.625 0-71.474 25.402-78.524 68.146-.014.1-.14.97-.126.87z" fill="#e207b9"/></g><g><path d="m139.882 473.938c-4.143 0-7.5-3.358-7.5-7.5v-287.935h-55.251c-4.143 0-7.5-3.358-7.5-7.5s3.357-7.5 7.5-7.5h62.751c4.143 0 7.5 3.358 7.5 7.5v295.435c0 4.143-3.357 7.5-7.5 7.5z" fill="#e207b9"/></g><g><path d="m140.134 512c-24.983 0-45.31-20.326-45.31-45.31v-250.63h-17.945c-24.983 0-45.309-20.326-45.309-45.31 0-24.983 20.325-45.309 45.309-45.309h63.255c24.983 0 45.31 20.326 45.31 45.309v295.94c0 24.984-20.326 45.31-45.31 45.31zm-63.255-371.558c-16.712 0-30.309 13.597-30.309 30.309 0 16.713 13.597 30.31 30.309 30.31h25.445c4.143 0 7.5 3.358 7.5 7.5v258.13c0 16.713 13.597 30.31 30.31 30.31s30.31-13.597 30.31-30.31v-295.94c0-16.712-13.597-30.309-30.31-30.309z" fill="#e207b9"/></g><g><path d="m346.987 512c-73.581 0-133.443-59.862-133.443-133.442 0-6.779.517-13.593 1.536-20.257 7.034-57.916 27.971-111.858 62.23-160.335 26.724-37.814 53.471-60.214 61.031-66.179 19.994-15.776 48.956-12.362 64.735 7.64 15.777 19.999 12.364 48.955-7.641 64.735-3.588 2.831-20.485 16.74-38.806 41.296 69.097 4.958 123.799 62.76 123.799 133.099.001 73.581-59.861 133.443-133.441 133.443zm.645-368.437c-7.161 5.65-32.513 26.892-58.072 63.06-32.833 46.457-52.886 98.135-59.604 153.6-.01.08-.021.16-.032.239-.916 5.95-1.381 12.038-1.381 18.095 0 65.31 53.134 118.442 118.443 118.442s118.442-53.133 118.442-118.442c0-65.31-53.133-118.444-118.442-118.444-1.311 0-2.703.029-4.384.09-6.088.224-9.912-6.573-6.51-11.663 22.432-33.563 45.631-52.667 50.053-56.156 13.493-10.644 15.799-30.176 5.153-43.668-10.631-13.48-30.175-15.796-43.666-5.153zm-.645 291.252c-31.021 0-56.259-25.237-56.259-56.258 0-32.287 26.023-56.259 56.259-56.259 31.021 0 56.258 25.238 56.258 56.259s-25.238 56.258-56.258 56.258zm-41.259-56.257c0 22.75 18.509 41.258 41.259 41.258s41.258-18.508 41.258-41.258-18.508-41.259-41.258-41.259c-23.742-.001-41.259 19.405-41.259 41.259z" fill="#e207b9"/></g></g></svg>