<svg id="Capa_1" enable-background="new 0 0 512 512" height="512" viewBox="0 0 512 512" width="512" xmlns="http://www.w3.org/2000/svg"><g><path d="m148.047 467.07c-11.592-10.701-16.037-27.099-11.78-42.29l12.08-43.1c-6.976-.603-13.998-1.883-20.984-3.9-6.999-2.021-13.629-4.697-19.854-7.932l-12.18 43.459c-4.258 15.191-16.577 26.89-32.042 30.008-5.404 1.089-11.088 2.91-16.316 5.887-12.407 7.065-10.102 25.611 3.645 29.464l89.885 25.192c13.747 3.853 25.355-10.794 18.427-23.278-2.92-5.261-6.83-9.77-10.881-13.51z" fill="#ddbeff"/><path d="m274.743 239.736c-67.375-48.012-118.318 11.647-209.593-33.49 13.379-34.308 28.256-56.844 39.369-70.513 8.945-11.004 23.584-15.615 37.24-11.788l106.911 29.964c13.618 3.817 23.744 15.308 25.668 29.317 1.835 13.31 2.857 32.18.405 56.51z" fill="#ddbeff"/><path d="m262.53 302.508c-16.319 58.225-76.967 92.081-135.167 75.268-57.776-16.684-90.697-77.633-74.27-135.48 3.754-13.247 7.83-25.237 12.057-36.049 91.275 45.137 142.218-14.522 209.593 33.49-1.812 17.963-5.526 38.912-12.213 62.771z" fill="#b98eff"/><path d="m363.953 416.893c11.592-10.701 16.037-27.099 11.78-42.29l-12.08-43.1c6.976-.603 13.998-1.883 20.984-3.9 6.999-2.021 13.629-4.697 19.854-7.932l12.18 43.459c4.258 15.191 16.577 26.89 32.042 30.008 5.404 1.089 11.088 2.91 16.316 5.887 12.407 7.065 10.102 25.611-3.645 29.464l-89.884 25.191c-13.747 3.853-25.355-10.794-18.427-23.278 2.919-5.26 6.829-9.77 10.88-13.509z" fill="#ff9bff"/><circle cx="187.473" cy="72.346" fill="#ff9bff" r="24.218"/><circle cx="263.296" cy="26.676" fill="#ddbeff" r="19.177"/><path d="m407.48 85.556c-8.945-11.004-23.584-15.615-37.24-11.788l-106.911 29.964c-13.618 3.817-23.744 15.308-25.668 29.317-.688 4.995-1.262 10.775-1.581 17.332l12.591 3.529c10.16 2.848 18.372 9.97 22.689 19.22 52.298-13.932 100.158 20.192 175.489-17.061-13.379-34.308-28.256-56.844-39.369-70.513z" fill="#ff9bff"/><path d="m458.906 192.118c-3.753-13.247-7.83-25.237-12.057-36.049-75.332 37.253-123.191 3.13-175.489 17.061 1.469 3.148 2.491 6.54 2.979 10.097 1.834 13.309 2.856 32.18.404 56.51-1.418 14.051-4.007 29.937-8.264 47.605 26.233 35.786 72.932 53.321 118.157 40.257 57.776-16.684 90.698-77.634 74.27-135.481z" fill="#ff63ed"/><circle cx="200.042" cy="296.235" fill="#6d00ca" r="9.993"/><circle cx="109.338" cy="270.813" fill="#6d00ca" r="9.993"/><circle cx="311.958" cy="246.057" fill="#e207b9" r="9.993"/><circle cx="402.663" cy="220.635" fill="#e207b9" r="9.993"/><path d="m119.008 406.7c6.938 2.004 13.995 3.445 21.106 4.355l8.233-29.374c-6.976-.603-13.998-1.883-20.984-3.9-6.999-2.021-13.629-4.697-19.854-7.932l-8.261 29.474c6.299 2.918 12.895 5.394 19.76 7.377z" fill="#6d00ca"/><g><path d="m187.473 104.064c-17.49 0-31.718-14.229-31.718-31.718s14.228-31.718 31.718-31.718 31.718 14.229 31.718 31.718-14.228 31.718-31.718 31.718zm0-48.436c-9.218 0-16.718 7.5-16.718 16.718s7.5 16.718 16.718 16.718 16.718-7.5 16.718-16.718-7.5-16.718-16.718-16.718z" fill="#e207b9"/></g><path d="m371.886 360.877c7.111-.909 14.168-2.35 21.104-4.354 6.866-1.983 13.463-4.459 19.763-7.379l-8.26-29.474c-6.226 3.236-12.856 5.911-19.854 7.932-6.987 2.018-14.008 3.297-20.984 3.9z" fill="#e207b9"/><g fill="#e207b9"><path d="m392.176 251.546c-1.116-3.989-5.258-6.317-9.246-5.198l-40.751 11.422c-3.988 1.118-6.315 5.257-5.197 9.245.928 3.312 3.939 5.478 7.218 5.478.67 0 1.352-.09 2.028-.28l40.751-11.422c3.988-1.117 6.315-5.256 5.197-9.245z"/><path d="m468.741 392.507c-5.382-3.064-11.621-5.326-18.545-6.722-12.673-2.555-22.752-12.011-26.303-24.679l-10.583-37.764c44.581-26.331 67.708-80.819 52.812-133.269-10.778-38.032-27.923-78.621-52.823-109.248-10.824-13.315-28.516-18.922-45.084-14.279l-106.91 29.964c-16.55 4.639-28.748 18.581-31.073 35.515-.788 5.715-1.341 11.769-1.643 17.992-.17 3.494 2.099 6.641 5.468 7.585l12.59 3.529c7.925 2.221 14.455 7.75 17.916 15.17 0 .001.001.001.001.002 1.18 2.528 1.969 5.201 2.346 7.947 2.256 16.373 2.381 34.789.372 54.733-1.5 14.858-4.223 30.538-8.094 46.601-.518 2.146-.063 4.411 1.242 6.191 22.247 30.35 57.64 47.57 94.171 47.57 1.147 0 2.296-.026 3.444-.06l10.465 37.34c3.55 12.669-.146 25.986-9.645 34.755-5.189 4.79-9.345 9.965-12.35 15.381-10.208 18.392 6.925 39.769 27.009 34.139l89.884-25.192c20.176-5.653 23.532-32.838 5.333-43.201zm-218.046-245.819-6.749-1.892c.286-3.687.67-7.277 1.145-10.727 1.513-11.017 9.466-20.09 20.262-23.116l106.91-29.964c10.803-3.028 22.344.622 29.398 9.298 9.416 11.582 22.971 31.52 35.59 62.009-36.514 16.46-63.636 15.979-103.2 12.003-19.999-2.008-39.142-3.893-58.921.232-5.673-8.639-14.314-15.006-24.435-17.843zm103.877 177.663c-30.718-.001-60.518-13.98-79.981-38.726 3.597-15.513 6.155-30.68 7.614-45.137 2.129-21.126 1.981-40.737-.436-58.282-.164-1.189-.377-2.368-.64-3.537 17.02-2.956 34.284-1.166 51.421.554 42.134 4.229 71.126 4.461 110.148-12.921 3.256 8.919 6.27 18.258 8.991 27.859 0 .001.001.002.001.004 13.695 48.22-9.397 98.401-52.395 119.724-.011.005-.021.011-.032.016-13.598 6.743-28.949 10.447-44.691 10.446zm104.788 96.916-89.884 25.192c-7.347 2.055-13.535-5.77-9.845-12.418 2.229-4.017 5.395-7.932 9.409-11.637 13.661-12.61 18.993-31.702 13.915-49.824l-9.732-34.725c9.049-1.49 18.177-4.146 26.438-7.633l9.79 34.931c5.079 18.123 19.557 31.662 37.782 35.335 5.356 1.08 10.095 2.78 14.087 5.053 6.604 3.761 5.389 13.666-1.96 15.726z"/></g><g fill="#6d00ca"><path d="m169.821 307.948-40.752-11.422c-3.999-1.119-8.129 1.209-9.246 5.198-1.118 3.988 1.209 8.128 5.197 9.245l40.752 11.422c.678.19 1.358.28 2.028.28 3.278 0 6.29-2.166 7.218-5.478 1.118-3.988-1.209-8.127-5.197-9.245z"/><path d="m263.296 53.353c14.71 0 26.677-11.967 26.677-26.676s-11.968-26.677-26.677-26.677c-14.71 0-26.676 11.967-26.676 26.676s11.966 26.677 26.676 26.677zm0-38.353c6.439 0 11.677 5.238 11.677 11.677s-5.238 11.677-11.677 11.677c-6.438 0-11.676-5.238-11.676-11.677s5.238-11.677 11.676-11.677z"/><path d="m281.77 182.206c-2.326-16.938-14.524-30.879-31.074-35.518l-106.912-29.964c-16.562-4.644-34.26.964-45.083 14.279-10.746 13.217-26.501 36.526-40.534 72.51 0 .001-.001.002-.001.003-4.532 11.593-8.666 23.953-12.286 36.731-14.897 52.453 8.23 106.941 52.811 133.272l-10.584 37.764c-3.551 12.669-13.629 22.125-26.303 24.679-6.924 1.396-13.163 3.658-18.544 6.722-18.204 10.366-14.837 37.55 5.332 43.203l89.884 25.192c20.169 5.651 37.172-15.825 27.009-34.139-3.004-5.414-7.159-10.589-12.349-15.381h-.001c-9.5-8.769-13.196-22.086-9.645-34.755l10.442-37.257c21.152.709 41.845-4.396 60.346-14.7 27.331-15.222 47.033-40.194 55.475-70.315 6.211-22.159 10.401-43.706 12.454-64.043 0-.001 0-.002 0-.002 2.127-21.126 1.98-40.736-.437-58.281zm-171.431-41.741c7.053-8.676 18.591-12.326 29.397-9.298l106.911 29.964c10.797 3.026 18.749 12.099 20.263 23.119 1.784 12.948 2.235 27.175 1.353 42.425-30.174-17.245-56.627-15.587-90.315-12.203-17.026 1.711-33.155 3.267-50.801 1.807-18.313-1.516-35.197-6.063-52.398-13.805 12.618-30.488 26.174-50.426 35.59-62.009zm28.439 247.568-9.732 34.724c-5.079 18.122.253 37.213 13.914 49.824 4.016 3.707 7.181 7.622 9.41 11.638 3.684 6.641-2.494 14.479-9.845 12.418l-89.885-25.193c-7.348-2.059-8.564-11.964-1.959-15.725 3.992-2.273 8.731-3.973 14.087-5.053 18.226-3.673 32.703-17.213 37.782-35.335l9.791-34.931c8.55 3.612 17.731 6.204 26.437 7.633zm68.2-26.29c-17.849 9.941-37.795 14.19-57.699 12.506-.096-.012-.19-.033-.287-.041-12.602-1.088-25-4.545-36.259-10.125-.008-.004-.016-.008-.023-.012-43.002-21.322-66.097-71.505-52.4-119.732 2.719-9.594 5.732-18.932 8.991-27.859 18.679 8.314 37.332 13.128 56.612 14.725 18.665 1.545 35.041.049 53.534-1.81 34.114-3.426 58.589-4.945 87.357 13.998-2.105 18.181-5.965 37.363-11.495 57.089-7.356 26.244-24.519 48-48.331 61.261z"/></g></g></svg>