<svg id="Capa_1" enable-background="new 0 0 512 512" height="512" viewBox="0 0 512 512" width="512" xmlns="http://www.w3.org/2000/svg"><g><circle cx="256" cy="212.343" fill="#ffff6f" r="204.843"/><path d="m216.778 173.119c-5.463 5.402-12.971 8.74-21.261 8.74-16.702 0-30.242-13.54-30.242-30.242 0-8.29 3.338-15.798 8.74-21.261l-26.706-26.706c-27.815 27.815-45.026 66.242-45.026 108.695h153.721z" fill="#ffff6f"/><path d="m147.309 103.651 26.706 26.706c5.482-5.543 13.089-8.981 21.501-8.981 16.702 0 30.242 13.54 30.242 30.242 0 8.412-3.437 16.02-8.981 21.501l39.227 39.227v-153.721c-42.453 0-80.88 17.211-108.695 45.026z" fill="#ffd600"/><circle cx="195.517" cy="151.618" fill="#f90" r="30.242"/><path d="m286.25 151.618c0-16.702 13.54-30.242 30.242-30.242 8.41 0 16.015 3.435 21.497 8.976l26.701-26.701c-27.815-27.815-66.242-45.026-108.685-45.026v153.711l39.221-39.222c-5.541-5.481-8.976-13.086-8.976-21.496z" fill="#ffff6f"/><path d="m364.689 103.651-26.701 26.701c5.405 5.463 8.745 12.974 8.745 21.266 0 16.702-13.54 30.242-30.242 30.242-8.292 0-15.803-3.34-21.266-8.745l-39.221 39.222v.01h153.711c0-42.454-17.211-80.892-45.026-108.696z" fill="#ffd600"/><circle cx="316.492" cy="151.618" fill="#ffff6f" r="30.242"/><path d="m256.004 212.336 39.227 39.236c5.463-5.402 12.971-8.74 21.26-8.74 16.702 0 30.242 13.54 30.242 30.242 0 8.292-3.34 15.802-8.744 21.265l26.696 26.702c27.815-27.815 45.026-66.242 45.026-108.695h.004z" fill="#ffff6f"/><path d="m337.988 294.34c-5.482 5.54-13.087 8.975-21.497 8.975-16.702 0-30.242-13.54-30.242-30.242 0-8.41 3.435-16.015 8.975-21.497l-39.221-39.221v153.701c42.443 0 80.871-17.201 108.685-45.016z" fill="#ffd600"/><circle cx="316.492" cy="273.074" fill="#ffff6f" r="30.242"/><path d="m165.275 273.074c0-16.702 13.54-30.242 30.242-30.242 8.29 0 15.799 3.338 21.262 8.741l39.221-39.217-153.721-.01c0 42.453 17.211 80.881 45.026 108.695l26.71-26.707c-5.402-5.463-8.74-12.971-8.74-21.26z" fill="#ffd600"/><path d="m216.781 251.576c5.542 5.482 8.977 13.088 8.977 21.498 0 16.702-13.54 30.242-30.242 30.242-8.412 0-16.018-3.437-21.5-8.979l-26.707 26.705c27.815 27.815 66.242 45.016 108.695 45.016v-153.702z" fill="#ffff6f"/><g><path d="m187.671 405.496v52.209h-15.658c-12.922 0-23.397 10.476-23.397 23.397s10.476 23.397 23.397 23.397h39.056c12.922 0 23.397-10.476 23.397-23.397v-65.042c-16.24-1.697-31.91-5.298-46.795-10.564z" fill="#ffd600"/></g><path d="m296.564 413.161v44.544h-15.658c-12.922 0-23.397 10.476-23.397 23.397s10.476 23.397 23.397 23.397h39.056c12.922 0 23.397-10.476 23.397-23.397v-83.441c-14.722 6.953-30.403 12.207-46.795 15.5z" fill="#ffd600"/><g fill="#f90"><path d="m417.215 212.346c0-43.071-16.77-83.557-47.221-113.998s0 0 0 0c-30.452-30.451-70.934-47.221-113.988-47.221-43.055 0-83.535 16.766-113.986 47.211-.004.004-.009.008-.013.012-30.42 30.421-47.186 70.855-47.22 113.867 0 .044-.006.087-.006.131 0 43.061 16.771 83.546 47.223 113.999.021.021.045.039.066.06 30.439 30.407 70.899 47.153 113.937 47.153 43.062 0 83.543-16.767 113.989-47.213.021-.022.04-.046.061-.068 30.351-30.385 47.091-70.746 47.157-113.681 0-.086.001-.169.001-.252zm-52.661 97.953-16.506-16.506c4.024-6.104 6.186-13.25 6.186-20.719 0-20.811-16.931-37.742-37.741-37.742-7.465 0-14.61 2.16-20.712 6.181l-21.662-21.667h127.905c-1.695 33.747-14.802 65.39-37.47 90.453zm-185.205-21.237c-.001-.001-.001-.001 0 0-4.239-4.287-6.573-9.964-6.573-15.988 0-12.54 10.202-22.742 22.741-22.742 12.354 0 22.741 9.99 22.741 22.742 0 12.54-10.202 22.742-22.741 22.742-10.076-.001-15.62-6.386-16.168-6.754zm16.168-160.186c12.539 0 22.741 10.202 22.741 22.742 0 12.607-10.235 22.741-22.741 22.741-12.539 0-22.741-10.202-22.741-22.741-.001-12.464 10.087-22.742 22.741-22.742zm98.233 22.742c0-12.54 10.202-22.742 22.742-22.742 12.404 0 22.741 10.041 22.741 22.742 0 12.54-10.202 22.741-22.741 22.741-12.524 0-22.742-10.141-22.742-22.741zm43.739-31.374c-6.159-4.143-13.403-6.368-20.997-6.368-20.812 0-37.742 16.931-37.742 37.742 0 7.594 2.225 14.837 6.368 20.997l-21.614 21.614v-127.916c33.743 1.693 65.382 14.802 90.446 37.47zm-20.997 130.088c12.539 0 22.741 10.202 22.741 22.742 0 12.354-9.99 22.742-22.741 22.742-12.54 0-22.742-10.202-22.742-22.742 0-12.382 10.018-22.742 22.742-22.742zm-42.382-45.495 21.663-21.663c6.103 4.025 13.25 6.185 20.719 6.185 20.811 0 37.741-16.931 37.741-37.741 0-7.469-2.161-14.616-6.186-20.719l16.51-16.51c22.668 25.056 35.775 56.7 37.47 90.456zm-25.606-138.524v127.926l-21.618-21.618c4.146-6.16 6.372-13.406 6.372-21.003 0-20.811-16.931-37.742-37.741-37.742-7.598 0-14.843 2.226-21.003 6.372l-16.466-16.465c25.064-22.668 56.708-35.777 90.456-37.47zm-101.063 48.077 16.516 16.515c-4.022 6.102-6.182 13.247-6.182 20.713 0 20.811 16.931 37.741 37.741 37.741 7.466 0 14.61-2.159 20.712-6.182l21.668 21.668h-127.925c1.694-33.748 14.802-65.391 37.47-90.455zm90.453 105.465-21.663 21.661c-6.103-4.023-13.248-6.184-20.714-6.184-20.811 0-37.741 16.931-37.741 37.742 0 7.465 2.159 14.61 6.181 20.711l-16.519 16.517c-22.669-25.063-35.777-56.708-37.472-90.456zm-63.379 84.589c6.16 4.146 13.405 6.372 21.002 6.372 20.811 0 37.741-16.931 37.741-37.742 0-7.595-2.226-14.839-6.369-20.999l21.615-21.614v127.909c-33.753-1.693-65.396-14.798-90.455-37.461zm88.989-73.982 21.614 21.614c-4.143 6.159-6.368 13.403-6.368 20.997 0 20.811 16.931 37.742 37.742 37.742 7.594 0 14.838-2.225 20.997-6.368 22.51 22.515 14.713 14.716 16.459 16.463-25.058 22.663-56.697 35.766-90.444 37.459z"/><circle cx="316.492" cy="151.618" r="30.242"/><circle cx="316.492" cy="273.074" r="30.242"/></g><g><path d="m316.492 189.359c-20.812 0-37.742-16.931-37.742-37.741 0-20.811 16.931-37.742 37.742-37.742s37.741 16.931 37.741 37.742-16.93 37.741-37.741 37.741zm0-60.483c-12.54 0-22.742 10.202-22.742 22.742s10.202 22.741 22.742 22.741 22.741-10.202 22.741-22.741c0-12.54-10.201-22.742-22.741-22.742z" fill="#f95116"/></g><g><path d="m316.492 310.815c-20.812 0-37.742-16.931-37.742-37.742s16.931-37.742 37.742-37.742 37.741 16.931 37.741 37.742-16.93 37.742-37.741 37.742zm0-60.483c-12.54 0-22.742 10.202-22.742 22.742s10.202 22.742 22.742 22.742 22.741-10.202 22.741-22.742-10.201-22.742-22.741-22.742z" fill="#f95116"/></g><circle cx="195.517" cy="273.074" fill="#f90" r="30.242"/><g><path d="m195.517 310.815c-20.811 0-37.741-16.931-37.741-37.742s16.931-37.742 37.741-37.742 37.741 16.931 37.741 37.742-16.931 37.742-37.741 37.742zm0-60.483c-12.54 0-22.741 10.202-22.741 22.742s10.201 22.742 22.741 22.742 22.741-10.202 22.741-22.742-10.201-22.742-22.741-22.742z" fill="#f95116"/></g><path d="m187.671 405.496v31.684c15.135 4.578 30.798 7.615 46.795 9.06v-30.18c-16.24-1.697-31.91-5.298-46.795-10.564z" fill="#f95116"/><path d="m296.564 413.161v30.592c16.102-2.787 31.764-7.247 46.795-13.263v-32.829c-14.722 6.953-30.403 12.207-46.795 15.5z" fill="#f95116"/><path d="m468.343 212.343c0-117.087-95.257-212.343-212.343-212.343s-212.343 95.256-212.343 212.343c0 90.381 56.767 167.741 136.514 198.334v39.528h-8.158c-17.037 0-30.897 13.86-30.897 30.897s13.86 30.898 30.897 30.898h39.056c17.037 0 30.897-13.86 30.897-30.897v-56.893c15.638 1.025 31.213.391 47.099-2.104v28.099h-8.158c-17.037 0-30.897 13.86-30.897 30.897s13.859 30.898 30.896 30.898h39.056c17.037 0 30.897-13.86 30.897-30.897v-78.823c69.595-34.899 117.484-106.926 117.484-189.937zm-132.484 268.76c0 8.766-7.132 15.897-15.897 15.897h-39.056c-8.766 0-15.897-7.131-15.897-15.897s7.132-15.897 15.897-15.897h15.658c4.143 0 7.5-3.358 7.5-7.5v-38.493c10.837-2.51 21.477-5.881 31.795-10.072zm-108.893-58.395v58.395c0 8.766-7.132 15.897-15.897 15.897h-39.056c-8.766 0-15.897-7.131-15.897-15.897s7.132-15.897 15.897-15.897h15.658c4.143 0 7.5-3.358 7.5-7.5v-41.879c10.169 3.035 21.104 5.416 31.795 6.881zm83.107-20.555c-.096.027-.192.054-.289.081-32.036 9.086-66.266 9.921-99.15 2.18-87.021-20.55-151.978-98.864-151.978-192.072.001-108.814 88.529-197.342 197.344-197.342s197.343 88.528 197.343 197.343c0 90.072-60.658 166.242-143.27 189.81z" fill="#f95116"/><g><path d="m195.517 189.359c-20.811 0-37.741-16.931-37.741-37.741 0-20.811 16.931-37.742 37.741-37.742s37.741 16.931 37.741 37.742-16.931 37.741-37.741 37.741zm0-60.483c-12.54 0-22.741 10.202-22.741 22.742s10.201 22.741 22.741 22.741 22.741-10.202 22.741-22.741c0-12.54-10.201-22.742-22.741-22.742z" fill="#f95116"/></g></g></svg>