<svg id="Capa_1" enable-background="new 0 0 512 512" height="512" viewBox="0 0 512 512" width="512" xmlns="http://www.w3.org/2000/svg"><g><path d="m415.626 292.878h-319.252c-15.461 0-27.995 12.534-27.995 27.995 0 42.087 34.118 76.206 76.206 76.206h222.829c42.087 0 76.206-34.118 76.206-76.206 0-15.461-12.533-27.995-27.994-27.995z" fill="#ffff6f"/><path d="m337.125 7.5h-162.251c-61.618 0-111.57 49.951-111.57 111.57 0 20.656 16.745 37.401 37.401 37.401h310.589c20.656 0 37.401-16.745 37.401-37.401 0-61.619-49.951-111.57-111.57-111.57z" fill="#ffff6f"/><path d="m429.465 151.759c-5.381 2.997-11.574 4.712-18.171 4.712h-310.589c-6.596 0-12.79-1.714-18.171-4.712-6.883 7.293-11.345 15.792-14.22 24.027-6.357 18.206 1.884 38.302 19.077 47.035 15.138 7.688 33.036 7.688 48.174 0 15.138-7.688 33.036-7.688 48.174 0 15.138 7.688 33.036 7.688 48.174 0 15.138-7.688 33.036-7.688 48.174 0 15.138 7.688 33.036 7.688 48.174 0 15.138-7.688 33.036-7.688 48.174 0 15.138 7.688 33.036 7.688 48.174 0 17.193-8.732 25.435-28.829 19.077-47.035-2.876-8.236-7.338-16.734-14.221-24.027z" fill="#88f8d8"/><g><path d="m341.611 397.079v83.703c0 13.099-10.619 23.718-23.718 23.718h-39.591c-13.099 0-23.718-10.619-23.718-23.718s10.619-23.718 23.718-23.718h15.873v-59.985z" fill="#b98eff"/></g><g><path d="m231.226 397.079v83.703c0 13.099-10.619 23.718-23.718 23.718h-39.591c-13.099 0-23.718-10.619-23.718-23.718s10.619-23.718 23.718-23.718h15.873v-59.985z" fill="#b98eff"/></g><g><path d="m422.785 224.469c-2.339-3.418-1.465-8.086 1.954-10.425 11.577-7.923 16.457-22.639 11.865-35.786-2.945-8.435-7.183-15.618-12.594-21.351-2.843-3.012-2.706-7.759.306-10.602 3.012-2.842 7.758-2.707 10.603.306 6.869 7.277 12.201 16.261 15.848 26.702 6.819 19.529-.399 41.369-17.557 53.11-3.396 2.324-8.07 1.486-10.425-1.954z" fill="#007ea8"/></g><g><path d="m78.791 226.423c-17.157-11.741-24.377-33.581-17.558-53.111 3.645-10.438 8.976-19.421 15.847-26.701 2.842-3.013 7.59-3.149 10.602-.307 3.013 2.843 3.15 7.59.307 10.602-5.412 5.735-9.649 12.918-12.593 21.351-4.592 13.148.288 27.864 11.866 35.787 3.419 2.339 4.293 7.006 1.954 10.425-2.328 3.401-6.991 4.305-10.425 1.954z" fill="#007ea8"/></g><circle cx="311.085" cy="75.888" fill="#f90" r="11.688"/><g><path d="m280.748 114.889h-49.497c-4.143 0-7.5-3.358-7.5-7.5s3.357-7.5 7.5-7.5h49.497c4.143 0 7.5 3.358 7.5 7.5s-3.357 7.5-7.5 7.5z" fill="#f90"/></g><circle cx="200.914" cy="75.888" fill="#f90" r="11.688"/><g><g><path d="m317.894 512h-39.591c-17.214 0-31.218-14.004-31.218-31.218 0-17.213 14.004-31.218 31.218-31.218h8.372v-51.485c0-4.142 3.357-7.5 7.5-7.5s7.5 3.358 7.5 7.5v58.985c0 4.142-3.357 7.5-7.5 7.5h-15.872c-8.942 0-16.218 7.275-16.218 16.218s7.275 16.218 16.218 16.218h39.591c8.942 0 16.218-7.275 16.218-16.218v-82.703c0-4.142 3.357-7.5 7.5-7.5s7.5 3.358 7.5 7.5v82.703c-.001 17.214-14.005 31.218-31.218 31.218z" fill="#6d00ca"/></g></g><g><g><path d="m207.508 512h-39.591c-17.214 0-31.218-14.004-31.218-31.218 0-17.213 14.004-31.218 31.218-31.218h8.373v-51.485c0-4.142 3.357-7.5 7.5-7.5s7.5 3.358 7.5 7.5v58.985c0 4.142-3.357 7.5-7.5 7.5h-15.873c-8.942 0-16.218 7.275-16.218 16.218s7.275 16.218 16.218 16.218h39.591c8.942 0 16.218-7.275 16.218-16.218v-82.703c0-4.142 3.357-7.5 7.5-7.5s7.5 3.358 7.5 7.5v82.703c0 17.214-14.004 31.218-31.218 31.218z" fill="#6d00ca"/></g></g><path d="m183.79 397.079h47.436v31.694h-47.436z" fill="#6d00ca"/><path d="m294.175 397.079h47.436v31.694h-47.436z" fill="#6d00ca"/><g><path d="m411.295 163.97h-310.59c-24.758 0-44.9-20.143-44.9-44.901 0-65.655 53.414-119.069 119.069-119.069h162.252c65.655 0 119.069 53.414 119.069 119.069 0 24.759-20.142 44.901-44.9 44.901zm-236.421-148.97c-57.384 0-104.069 46.685-104.069 104.069 0 16.487 13.413 29.901 29.9 29.901h310.59c16.487 0 29.9-13.414 29.9-29.901 0-57.384-46.685-104.069-104.069-104.069z" fill="#f90"/></g><g><path d="m367.414 404.579h-222.829c-46.155 0-83.706-37.55-83.706-83.706 0-19.572 15.923-35.495 35.495-35.495 4.143 0 7.5 3.358 7.5 7.5s-3.357 7.5-7.5 7.5c-11.301 0-20.495 9.194-20.495 20.495 0 37.885 30.821 68.706 68.706 68.706h222.829c37.885 0 68.706-30.821 68.706-68.706 0-11.301-9.193-20.495-20.494-20.495-4.143 0-7.5-3.358-7.5-7.5s3.357-7.5 7.5-7.5c19.571 0 35.494 15.923 35.494 35.495 0 46.155-37.551 83.706-83.706 83.706z" fill="#f90"/></g><path d="m428.97 220.229c-1.382.946-2.835 1.815-4.362 2.591-15.138 7.688-33.036 7.688-48.174 0-15.138-7.688-33.036-7.688-48.174 0-15.138 7.688-33.036 7.688-48.174 0-15.138-7.688-33.036-7.688-48.174 0-15.138 7.688-33.036 7.688-48.174 0-15.138-7.688-33.036-7.688-48.174 0-15.138 7.688-33.036 7.688-48.174 0-1.527-.776-2.98-1.645-4.362-2.591-14.148 5.382-24.205 19.063-24.205 35.1 0 20.738 16.811 37.549 37.549 37.549h319.252c20.738 0 37.549-16.811 37.549-37.549.002-16.037-10.055-29.717-24.203-35.1z" fill="#b98eff"/><g><path d="m415.626 300.378h-319.252c-24.84 0-45.049-20.209-45.049-45.049 0-18.58 11.669-35.502 29.037-42.109 2.301-.874 4.876-.567 6.901.82 11.513 7.872 29.568 9.883 44.905 2.093 17.209-8.74 37.758-8.74 54.967 0 12.955 6.58 28.426 6.58 41.381 0 17.209-8.74 37.758-8.74 54.967 0 12.955 6.58 28.426 6.58 41.381 0 17.209-8.74 37.758-8.74 54.967 0 15.259 7.751 33.334 5.819 44.904-2.093 2.026-1.387 4.604-1.695 6.9-.82 17.369 6.606 29.039 23.529 29.039 42.109.001 24.84-20.208 45.049-45.048 45.049zm-333.158-71.684c-9.78 5.13-16.143 15.431-16.143 26.635 0 16.569 13.479 30.049 30.049 30.049h319.252c16.569 0 30.049-13.48 30.049-30.049 0-11.204-6.362-21.505-16.144-26.635-16.441 9.171-38.091 10.159-56.493.813-12.955-6.58-28.426-6.58-41.381 0-17.209 8.74-37.758 8.74-54.967 0-12.955-6.58-28.426-6.58-41.381 0-17.209 8.74-37.758 8.74-54.967 0-12.955-6.58-28.426-6.58-41.381 0-18.483 9.388-40.108 8.311-56.493-.813z" fill="#6d00ca"/></g></g></svg>