<svg id="Capa_1" enable-background="new 0 0 512 512" height="512" viewBox="0 0 512 512" width="512" xmlns="http://www.w3.org/2000/svg"><g><path d="m13.108 319.508c35.605-72.082 40.015-173.536 40.015-173.536h394.213s-4.953 115.196-46.744 186.013c-9.372 15.882-26.469 25.596-44.91 25.596h-318.857c-19.564.001-32.381-20.533-23.717-38.073z" fill="#ddbeff"/><g><path d="m332.168 401.837v79.995c0 12.519-10.149 22.667-22.667 22.667h-37.837c-12.519 0-22.667-10.149-22.667-22.667s10.149-22.667 22.667-22.667h15.17v-57.328z" fill="#ddbeff"/></g><g><path d="m226.672 401.837v79.995c0 12.519-10.149 22.667-22.667 22.667h-37.837c-12.519 0-22.667-10.149-22.667-22.667s10.149-22.667 22.667-22.667h15.17v-57.328z" fill="#ddbeff"/></g><path d="m501.657 145.972v202.922c0 29.236-23.707 52.943-52.953 52.943h-54.32c29.246 0 52.953-23.707 52.953-52.943v-202.922z" fill="#f90"/><path d="m400.592 331.985c-9.372 15.882-26.469 25.596-44.91 25.596h-301.836c4.147 25.102 25.945 44.256 52.221 44.256h288.317c29.246 0 52.953-23.707 52.953-52.943v-202.922c-.001 0-4.954 115.197-46.745 186.013z" fill="#ffd600"/><g><g><path d="m309.501 512h-37.837c-16.635 0-30.168-13.533-30.168-30.167s13.533-30.167 30.168-30.167h7.669v-48.828c0-4.142 3.357-7.5 7.5-7.5s7.5 3.358 7.5 7.5v56.328c0 4.142-3.357 7.5-7.5 7.5h-15.169c-8.363 0-15.168 6.804-15.168 15.167s6.805 15.167 15.168 15.167h37.837c8.363 0 15.167-6.804 15.167-15.167v-78.995c0-4.142 3.357-7.5 7.5-7.5s7.5 3.358 7.5 7.5v78.995c0 16.634-13.533 30.167-30.167 30.167z" fill="#6d00ca"/></g></g><g><g><path d="m204.005 512h-37.837c-16.635 0-30.168-13.533-30.168-30.167s13.533-30.167 30.168-30.167h7.669v-48.828c0-4.142 3.357-7.5 7.5-7.5s7.5 3.358 7.5 7.5v56.328c0 4.142-3.357 7.5-7.5 7.5h-15.169c-8.363 0-15.168 6.804-15.168 15.167s6.805 15.167 15.168 15.167h37.837c8.363 0 15.167-6.804 15.167-15.167v-78.995c0-4.142 3.357-7.5 7.5-7.5s7.5 3.358 7.5 7.5v78.995c0 16.634-13.533 30.167-30.167 30.167z" fill="#6d00ca"/></g></g><path d="m181.337 401.837h45.335v30.29h-45.335z" fill="#6d00ca"/><path d="m286.833 401.837h45.335v30.29h-45.335z" fill="#6d00ca"/><path d="m501.657 138.472h-54.32c-4.055 0-7.324 3.222-7.493 7.178-.049 1.133-5.341 114.114-45.711 182.524-7.975 13.513-22.708 21.908-38.45 21.908h-301.837c-4.628 0-8.154 4.157-7.399 8.722 4.837 29.281 29.91 50.534 59.62 50.534h342.638c33.334 0 60.453-27.115 60.453-60.443v-202.923c-.001-4.142-3.358-7.5-7.501-7.5zm-438.075 226.61h292.101c21.025 0 40.709-11.221 51.368-29.285 13.475-22.832 24.457-51.928 32.786-86.792v99.89c0 25.057-20.391 45.443-45.453 45.443h-288.318c-19.26-.001-35.928-11.876-42.484-29.256zm430.575-16.187c0 25.057-20.391 45.443-45.453 45.443h-14.501c12.785-11.214 20.634-27.672 20.634-45.443v-195.423h39.32z" fill="#f95116"/><g fill="#6d00ca"><circle cx="276.181" cy="287.009" r="11.115"/><g><path d="m447.659 138.479c-4.144-.196-7.639 3.032-7.815 7.171-.049 1.133-5.341 114.114-45.711 182.524-7.975 13.513-22.708 21.908-38.45 21.908h-318.858c-14.009 0-23.191-14.701-16.992-27.251 35.893-72.664 40.602-172.325 40.784-176.532.18-4.138-3.028-7.638-7.166-7.818-4.145-.182-7.639 3.028-7.82 7.165-.044 1-4.774 100.754-39.247 170.542-11.121 22.516 5.308 48.895 30.441 48.895h318.857c21.025 0 40.709-11.221 51.368-29.285 42.259-71.609 47.573-184.722 47.779-189.502.179-4.14-3.031-7.639-7.17-7.817z"/><path d="m263.262 257.192c3.865 1.475 8.203-.468 9.678-4.339l4.791-12.578h32.421l4.739 12.557c1.466 3.888 5.802 5.827 9.665 4.369 3.875-1.462 5.831-5.79 4.368-9.665l-26.38-69.903c-.025-.069-.053-.138-.081-.207-1.411-3.428-4.716-5.641-8.422-5.641-.003 0-.007 0-.01 0-3.71.004-7.016 2.226-8.42 5.66-.022.056-.045.113-.066.169l-26.622 69.899c-1.476 3.872.467 8.205 4.339 9.679zm30.752-59.675 10.475 27.757h-21.047z"/><path d="m190.973 257.683c2.158 0 15.401-.072 20.048-.153 20.039-.35 34.583-17.908 34.583-41.748 0-25.062-14.18-41.9-35.284-41.9h-19.486c-4.147 0-7.508 3.369-7.5 7.514v.056.002 67.612c0 5.592 3.655 8.617 7.639 8.617zm19.347-68.801c14.955 0 20.284 13.896 20.284 26.9 0 12.717-6.21 26.512-19.845 26.75-2.811.049-7.964.088-12.312.114-.093-28.688-.037-19.586-.101-53.764z"/><path d="m114.603 257.683h.033c.002 0 18.938-.084 24.157-.084 14.658 0 26.584-11.925 26.584-26.583 0-8.8-4.301-16.611-10.908-21.452 2.853-3.927 4.542-8.751 4.542-13.965 0-13.131-10.683-23.814-23.813-23.814h-20.595c-4.143 0-7.5 3.358-7.5 7.5v70.898c0 4.135 3.355 7.5 7.5 7.5zm24.191-15.084c-3.051 0-10.777.029-16.69.053v-23.199c10.07-.04 6.055-.011 16.69-.021 6.388 0 11.584 5.196 11.584 11.583s-5.197 11.584-11.584 11.584zm-3.596-55.814c4.859 0 8.813 3.954 8.813 8.814s-3.954 8.813-8.813 8.813c-.212 0 1.784-.006-13.095.02v-17.647z"/><path d="m355.134 216.191-.083 33.974c-.01 4.142 3.34 7.508 7.481 7.518h.019c4.134 0 7.49-3.346 7.5-7.482l.083-34 21.251-32.645c2.26-3.471 1.278-8.118-2.193-10.377-3.472-2.259-8.116-1.278-10.377 2.194l-16.186 24.862-16.355-25.05c-2.265-3.468-6.912-4.444-10.381-2.179-3.468 2.265-4.444 6.912-2.18 10.38z"/><path d="m192.758 316.967c0 4.142 3.357 7.5 7.5 7.5h47.072c4.143 0 7.5-3.358 7.5-7.5s-3.357-7.5-7.5-7.5h-47.072c-4.143 0-7.5 3.358-7.5 7.5z"/></g><circle cx="171.407" cy="287.009" r="11.115"/></g><path d="m501.657 98.345v47.627h-54.32v-47.627c0-29.246-23.707-52.952-52.953-52.952h54.32c29.246 0 52.953 23.707 52.953 52.952z" fill="#f90"/><path d="m129.085 7.5c-12.713 0-23.019 10.306-23.019 23.019v33.566c0 12.713 10.306 23.019 23.019 23.019s23.019-10.306 23.019-23.019v-33.566c0-12.713-10.306-23.019-23.019-23.019z" fill="#ffff6f"/><path d="m209.845 7.5c-12.713 0-23.019 10.306-23.019 23.019v33.566c0 12.713 10.306 23.019 23.019 23.019s23.019-10.306 23.019-23.019v-33.566c0-12.713-10.306-23.019-23.019-23.019z" fill="#ffff6f"/><path d="m290.605 7.5c-12.713 0-23.019 10.306-23.019 23.019v33.566c0 12.713 10.306 23.019 23.019 23.019s23.019-10.306 23.019-23.019v-33.566c0-12.713-10.306-23.019-23.019-23.019z" fill="#ffff6f"/><path d="m394.384 45.393v18.692c0 12.713-10.306 23.019-23.019 23.019s-23.019-10.306-23.019-23.019v-18.692h-34.722v18.692c0 12.713-10.306 23.019-23.019 23.019s-23.019-10.306-23.019-23.019v-18.692h-34.722v18.692c0 12.713-10.306 23.019-23.019 23.019s-23.019-10.306-23.019-23.019v-18.692h-34.722v18.692c0 12.713-10.306 23.019-23.019 23.019s-23.019-10.306-23.019-23.019v-18.692c-29.236 0-52.943 23.707-52.943 52.952v47.627h394.213v-47.627c0-29.245-23.707-52.952-52.952-52.952z" fill="#ffd600"/><path d="m371.365 7.5c-12.713 0-23.019 10.306-23.019 23.019v33.566c0 12.713 10.306 23.019 23.019 23.019s23.019-10.306 23.019-23.019v-33.566c0-12.713-10.306-23.019-23.019-23.019z" fill="#ffff6f"/><path d="m448.704 37.893h-46.82v-7.374c0-16.828-13.691-30.519-30.519-30.519s-30.519 13.691-30.519 30.519v7.374h-19.723v-7.374c.001-16.828-13.69-30.519-30.518-30.519s-30.519 13.691-30.519 30.519v7.374h-19.723v-7.374c.001-16.828-13.689-30.519-30.517-30.519s-30.52 13.691-30.52 30.519v7.374h-19.722v-7.374c0-16.828-13.69-30.519-30.518-30.519s-30.52 13.691-30.52 30.519v7.856c-29.8 3.708-52.942 29.179-52.942 59.971v47.627c0 4.142 3.357 7.5 7.5 7.5h448.533c4.143 0 7.5-3.358 7.5-7.5v-47.628c0-33.333-27.119-60.452-60.453-60.452zm-92.857-7.374c0-8.557 6.962-15.519 15.519-15.519s15.519 6.962 15.519 15.519v33.565c0 8.557-6.962 15.519-15.519 15.519s-15.519-6.961-15.519-15.519c0-12.3 0-21.191 0-33.565zm-80.76 0c0-8.557 6.962-15.519 15.519-15.519s15.519 6.962 15.519 15.519v33.565c0 8.557-6.962 15.519-15.519 15.519s-15.519-6.961-15.519-15.519c0-12.3 0-21.191 0-33.565zm-80.761 0c0-8.557 6.962-15.519 15.52-15.519 8.557 0 15.519 6.962 15.519 15.519v33.565c0 8.557-6.962 15.519-15.519 15.519-8.558 0-15.52-6.961-15.52-15.519 0-12.3 0-21.191 0-33.565zm-80.76 0c0-8.557 6.962-15.519 15.52-15.519 8.557 0 15.519 6.962 15.519 15.519v33.565c0 8.557-6.962 15.519-15.519 15.519-8.558 0-15.52-6.961-15.52-15.519 0-12.3 0-21.191 0-33.565zm-52.942 67.826c0-22.508 16.441-41.248 37.942-44.834v10.573c0 16.828 13.691 30.519 30.52 30.519s30.519-13.69 30.519-30.519v-11.191h19.722v11.192c0 16.828 13.691 30.519 30.52 30.519s30.519-13.69 30.519-30.519v-11.192h19.723v11.192c0 16.828 13.69 30.519 30.519 30.519s30.519-13.69 30.519-30.519v-11.192h19.723v11.192c0 16.828 13.69 30.519 30.519 30.519s30.519-13.69 30.519-30.519v-10.563c21.676 3.605 37.953 22.494 37.953 44.823v40.127h-379.217zm433.533 40.127h-39.32v-40.127c0-17.313-7.522-33.933-20.637-45.453h14.504c25.063 0 45.453 20.39 45.453 45.453z" fill="#f95116"/></g></svg>