<svg id="Capa_1" enable-background="new 0 0 512 512" height="512" viewBox="0 0 512 512" width="512" xmlns="http://www.w3.org/2000/svg"><g><path d="m274.865 237.099c-5.432 3.527-11.906 5.583-18.865 5.583-19.163 0-34.698-15.535-34.698-34.698 0-4.499.866-8.794 2.424-12.739-11.239-9.692-21.088-23.638-28.815-38.939-58.801-21.158-123.032-1.32-123.032-1.32 3.184 5.244 5.017 11.398 5.017 17.981 0 12.415-6.525 23.3-16.327 29.432 17.345 15.807 39.638 45.939 31.938 92.602 5.823-4.614 13.18-7.376 21.186-7.376h173.671c-2.625-19.276-6.913-36.011-12.499-50.526z" fill="#b98eff"/><g><path d="m92.516 302.503c-.405 0-.816-.033-1.229-.101-4.087-.674-6.854-4.534-6.18-8.621 6.98-42.296-12.238-70.025-29.589-85.838-3.062-2.791-3.281-7.534-.491-10.595 2.79-3.063 7.535-3.281 10.595-.492 16.454 14.996 42.788 47.846 34.286 99.367-.607 3.673-3.787 6.28-7.392 6.28z" fill="#6d00ca"/></g><path d="m451.431 202.4c-9.803-6.132-16.327-17.017-16.327-29.432 0-6.583 1.833-12.737 5.017-17.981s-64.234-19.832-123.037 1.33c-7.726 15.297-17.574 29.24-28.81 38.929 1.559 3.945 2.424 8.24 2.424 12.739 0 12.21-6.312 22.939-15.845 29.123 5.588 14.517 9.886 31.239 12.51 50.519h110.944c8.006 0 15.363 2.762 21.186 7.376-7.7-46.664 14.593-76.796 31.938-92.603z" fill="#ff9bff"/><g><path d="m310.028 158.855c-1.403-3.897.619-8.194 4.517-9.597 60.464-21.759 125.067-2.279 127.789-1.438 3.957 1.222 6.175 5.421 4.953 9.378-1.222 3.955-5.413 6.177-9.373 4.956-.62-.191-62.639-18.81-118.289 1.219-3.89 1.399-8.191-.612-9.597-4.518z" fill="#e207b9"/></g><circle cx="42.198" cy="172.968" fill="#ffff6f" r="34.698"/><g><path d="m223.724 202.745c-1.735 0-3.478-.598-4.895-1.82-10.74-9.261-20.801-22.537-29.212-38.52-55.059-18.509-114.915-.44-115.525-.252-3.957 1.222-8.156-.995-9.379-4.953s.995-8.157 4.953-9.379c2.72-.84 67.32-20.327 127.784 1.429 1.805.649 3.291 1.965 4.156 3.676 7.807 15.46 17.149 28.13 27.018 36.64 3.138 2.705 3.487 7.44.782 10.578-1.483 1.719-3.577 2.601-5.682 2.601z" fill="#6d00ca"/></g><g><path d="m42.198 215.166c-23.268 0-42.198-18.93-42.198-42.198s18.93-42.198 42.198-42.198 42.198 18.93 42.198 42.198-18.929 42.198-42.198 42.198zm0-69.396c-14.997 0-27.198 12.201-27.198 27.198s12.201 27.198 27.198 27.198 27.198-12.201 27.198-27.198-12.201-27.198-27.198-27.198z" fill="#f95116"/></g><circle cx="469.802" cy="172.968" fill="#ffff6f" r="34.698"/><g><path d="m419.484 302.503c-3.605 0-6.785-2.606-7.392-6.28-8.502-51.522 17.833-84.372 34.287-99.367 3.061-2.789 7.805-2.571 10.595.492 2.79 3.062 2.57 7.805-.491 10.595-17.352 15.813-36.57 43.541-29.59 85.838.674 4.087-2.093 7.947-6.18 8.621-.412.068-.823.101-1.229.101z" fill="#e207b9"/></g><g><path d="m469.802 215.166c-23.269 0-42.198-18.93-42.198-42.198s18.93-42.198 42.198-42.198 42.198 18.93 42.198 42.198-18.93 42.198-42.198 42.198zm0-69.396c-14.997 0-27.198 12.201-27.198 27.198s12.201 27.198 27.198 27.198 27.198-12.201 27.198-27.198-12.201-27.198-27.198-27.198z" fill="#f95116"/></g><g><path d="m279.932 288.638c-2.444-17.958-6.504-34.392-12.066-48.845-1.487-3.866.44-8.206 4.307-9.693 3.865-1.488 8.205.44 9.693 4.306 5.979 15.536 10.328 33.102 12.93 52.209.559 4.104-2.315 7.884-6.42 8.443-4.159.562-7.893-2.365-8.444-6.42z" fill="#6d00ca"/></g><path d="m398.308 287.626h-284.615c-18.861 0-34.152 15.29-34.152 34.152v39.374c0 18.861 15.29 34.152 34.152 34.152h284.615c18.861 0 34.152-15.29 34.152-34.152v-39.374c-.001-18.862-15.291-34.152-34.152-34.152z" fill="#88f8d8"/><g><path d="m340.546 395.303v82.508c0 12.912-10.467 23.379-23.379 23.379h-39.025c-12.912 0-23.379-10.467-23.379-23.379s10.467-23.379 23.379-23.379h15.646v-59.128h46.758z" fill="#ffd600"/></g><g><path d="m231.737 395.303v82.508c0 12.912-10.467 23.379-23.379 23.379h-39.025c-12.912 0-23.379-10.467-23.379-23.379s10.467-23.379 23.379-23.379h15.646v-59.128h46.758z" fill="#ffd600"/></g><circle cx="307.084" cy="333.639" fill="#007ea8" r="10.839"/><g><path d="m278.95 370.351h-45.9c-4.143 0-7.5-3.358-7.5-7.5s3.357-7.5 7.5-7.5h45.9c4.143 0 7.5 3.358 7.5 7.5s-3.357 7.5-7.5 7.5z" fill="#007ea8"/></g><circle cx="204.917" cy="333.639" fill="#007ea8" r="10.839"/><g><g><path d="m317.167 508.69h-39.025c-17.027 0-30.88-13.853-30.88-30.879s13.853-30.879 30.88-30.879h8.146v-50.628c0-4.142 3.357-7.5 7.5-7.5s7.5 3.358 7.5 7.5v58.128c0 4.142-3.357 7.5-7.5 7.5h-15.646c-8.756 0-15.88 7.123-15.88 15.879s7.124 15.879 15.88 15.879h39.025c8.756 0 15.879-7.124 15.879-15.879v-81.507c0-4.142 3.357-7.5 7.5-7.5s7.5 3.358 7.5 7.5v81.507c0 17.026-13.853 30.879-30.879 30.879z" fill="#f95116"/></g></g><g><g><path d="m208.357 508.69h-39.025c-17.026 0-30.879-13.853-30.879-30.879s13.853-30.879 30.879-30.879h8.146v-50.628c0-4.142 3.357-7.5 7.5-7.5s7.5 3.358 7.5 7.5v58.128c0 4.142-3.357 7.5-7.5 7.5h-15.646c-8.756 0-15.879 7.123-15.879 15.879s7.123 15.879 15.879 15.879h39.025c8.756 0 15.88-7.124 15.88-15.879v-81.507c0-4.142 3.357-7.5 7.5-7.5s7.5 3.358 7.5 7.5v81.507c0 17.026-13.852 30.879-30.88 30.879z" fill="#f95116"/></g></g><path d="m184.978 395.303h46.758v31.241h-46.758z" fill="#f95116"/><path d="m293.787 395.303h46.758v31.241h-46.758z" fill="#f95116"/><g><path d="m398.308 402.803h-284.616c-22.967 0-41.651-18.685-41.651-41.652v-39.374c0-22.967 18.685-41.652 41.651-41.652h284.615c22.967 0 41.651 18.685 41.651 41.652v39.374c.001 22.967-18.684 41.652-41.65 41.652zm-284.616-107.677c-14.695 0-26.651 11.956-26.651 26.652v39.374c0 14.696 11.956 26.652 26.651 26.652h284.615c14.695 0 26.651-11.956 26.651-26.652v-39.374c0-14.696-11.956-26.652-26.651-26.652z" fill="#007ea8"/></g><circle cx="256" cy="207.984" fill="#ffff6f" r="34.698"/><path d="m256 10.81c-43.671 0-79.073 35.402-79.073 79.073 0 32.174 19.218 81.578 46.799 105.362 5.08-12.858 17.61-21.959 32.274-21.959s27.194 9.101 32.274 21.959c27.582-23.784 46.799-73.188 46.799-105.362 0-43.671-35.402-79.073-79.073-79.073z" fill="#88f8d8"/><g><path d="m218.829 200.925c-30.515-26.313-49.402-78.126-49.402-111.042 0-47.737 38.837-86.573 86.573-86.573s86.573 38.836 86.573 86.573c0 32.916-18.888 84.729-49.401 111.042-3.898 3.366-9.975 1.88-11.873-2.924-4.132-10.458-14.063-17.215-25.299-17.215-11.237 0-21.167 6.757-25.298 17.215-1.899 4.806-7.976 6.286-11.873 2.924zm37.171-35.139c13.773 0 26.282 6.542 34.088 17.289 22.688-24.396 37.485-66.049 37.485-93.191 0-39.466-32.107-71.573-71.573-71.573s-71.573 32.107-71.573 71.573c0 27.141 14.799 68.795 37.486 93.191 7.805-10.747 20.313-17.289 34.087-17.289z" fill="#007ea8"/></g><g><path d="m256 250.182c-23.269 0-42.198-18.93-42.198-42.198s18.93-42.198 42.198-42.198 42.198 18.93 42.198 42.198-18.929 42.198-42.198 42.198zm0-69.396c-14.997 0-27.198 12.201-27.198 27.198s12.201 27.198 27.198 27.198 27.198-12.201 27.198-27.198-12.201-27.198-27.198-27.198z" fill="#f95116"/></g></g></svg>