<svg id="Capa_1" enable-background="new 0 0 512 512" height="512" viewBox="0 0 512 512" width="512" xmlns="http://www.w3.org/2000/svg"><g><path d="m239.939 458.036v8.555.01c-3.335 4.037-5.057 9.258-5.183 13.389-.374 1.121.069 6.974 2.566 11.977-3.869 7.441-11.648 12.534-20.621 12.534h-38.775c-12.832 0-23.227-10.405-23.227-23.227 0-12.832 10.395-23.237 23.227-23.237h62.013z" fill="#ff63ed"/><path d="m319.955 458.036v23.237c0 12.822-10.405 23.227-23.237 23.227h-38.775c-12.923 0-23.227-10.417-23.227-23.227 0-.16.012-1.201.04-1.283.124-4.08 1.814-9.311 5.183-13.389 0-.01 0-.01 0-.01 4.257-5.222 10.743-8.555 18.005-8.555z" fill="#ff63ed"/><path d="m417.221 145.577c-.526-.482-1.063-.956-1.612-1.422l-.075-.064c11.64-32.574-8.723-67.811-42.758-73.989l-.018-.003-.003-.018c-6.178-34.035-41.414-54.398-73.988-42.759h-.001l-.064-.075c-22.376-26.331-63.021-26.331-85.397 0l-.064.075c-32.574-11.64-67.811 8.723-73.989 42.758l-.003.018-.018.003c-34.035 6.178-54.398 41.414-42.759 73.988v.001l-.075.064c-.549.466-1.086.94-1.611 1.422-32.419 29.706-10.411 83.975 33.56 83.975h4.699c-4.361-13.2-6.649-27.313-6.467-41.945.294-23.636 6.921-45.746 18.264-64.708 4.768-7.971 15.227-10.084 22.923-4.884 6.415 4.334 14.148 6.864 22.476 6.864 8.773 0 16.891-2.816 23.499-7.59 5.601-4.047 13.156-4.047 18.757 0 6.609 4.775 14.725 7.59 23.505 7.59s16.896-2.816 23.505-7.59c5.602-4.047 13.156-4.046 18.757 0 6.609 4.774 14.727 7.59 23.499 7.59 8.329 0 16.063-2.531 22.478-6.866 7.72-5.216 18.18-3.051 22.958 4.947 11.582 19.387 18.237 42.059 18.237 66.288 0 14.073-2.255 27.618-6.409 40.304h4.631c43.974.002 65.982-54.268 33.563-83.974z" fill="#ff63ed"/><circle cx="256.004" cy="194.694" fill="#ff9bff" r="28.631"/><g fill="#b98eff"><path d="m239.939 425.508v32.528h-46.464v-61.624c11.32 14.643 27.663 25.217 46.464 29.096z"/><path d="m319.955 394.522v63.514h-46.464v-32.856c18.99-4.287 35.383-15.409 46.464-30.658z"/><path d="m330.718 373.901c-3.949 11.459-10.455 21.725-18.84 30.111-14.304 14.294-34.05 23.138-55.874 23.138-34.617 0-64.031-22.262-74.714-53.248h149.428z"/><path d="m225.441 305.598c0-7.329 3.453-13.901 8.917-18.39s-64.437-55.878-64.437 18.39 64.437 18.39 64.437 18.39c-5.464-4.489-8.917-11.062-8.917-18.39z"/><path d="m277.649 287.207c5.465 4.489 8.917 11.061 8.917 18.39 0 7.329-3.453 13.901-8.917 18.39s64.437 55.878 64.437-18.39-64.437-18.39-64.437-18.39z"/><path d="m260.325 281.103h-8.642c-14.493 0-26.242 10.967-26.242 24.495 0 13.528 11.749 24.495 26.242 24.495h8.642c14.493 0 26.242-10.967 26.242-24.495-.001-13.529-11.749-24.495-26.242-24.495z"/></g><path d="m367.202 122.961c-4.778-7.998-15.238-10.163-22.958-4.947-6.415 4.335-14.149 6.866-22.478 6.866-8.773 0-16.891-2.816-23.499-7.59-5.601-4.047-13.156-4.047-18.757 0-6.609 4.775-14.725 7.59-23.505 7.59s-16.896-2.816-23.505-7.59c-5.602-4.047-13.156-4.046-18.757 0-6.609 4.774-14.727 7.59-23.499 7.59-8.328 0-16.061-2.531-22.476-6.864-7.696-5.2-18.155-3.087-22.923 4.884-11.342 18.962-17.97 41.071-18.264 64.708-.493 39.648 17.126 75.49 45.111 99.635 10.337-45.405 62.668-.035 62.668-.035 4.622-3.797 10.683-6.105 17.325-6.105h8.642c6.642 0 12.703 2.308 17.325 6.105s52.471-45.493 62.71.213c27.6-23.738 45.08-58.914 45.08-98.171-.004-24.229-6.659-46.902-18.24-66.289z" fill="#ffceff"/><path d="m277.649 323.988c-4.622 3.797-10.683 6.105-17.325 6.105h-8.642c-6.641 0-12.702-2.308-17.325-6.105-.001.001-40.636 35.232-57.366 12.542v11.608c0 9.022 1.512 17.686 4.297 25.764h149.429c2.785-8.077 4.297-16.741 4.297-25.764v-11.608c-16.729 22.69-57.364-12.542-57.365-12.542z" fill="#88f8d8"/><path d="m412.257 356.802c-4.775 12.762-18.99 19.228-31.742 14.463l-15.488-5.799 17.279-46.195 15.488 5.799c12.761 4.765 19.227 18.979 14.463 31.732z" fill="#ffceff"/><path d="m342.067 304.213c.005.464.019.91.019 1.384 0 15.288-2.734 25.052-7.071 30.933 0 0 0-.001.001-.001v11.608c0 2.023-.087 4.025-.237 6.009l30.248 11.319 17.279-46.195z" fill="#88f8d8"/><path d="m99.751 356.802c4.775 12.762 18.989 19.228 31.742 14.463l15.488-5.799-17.279-46.195-15.488 5.799c-12.762 4.765-19.228 18.979-14.463 31.732z" fill="#ffceff"/><path d="m169.941 304.213c-.005.464-.019.91-.019 1.384 0 15.288 2.734 25.052 7.071 30.933 0 0 0-.001-.001-.001v11.608c0 2.023.087 4.025.237 6.009l-30.248 11.319-17.279-46.195z" fill="#88f8d8"/><g fill="#e207b9"><circle cx="313.131" cy="172.492" r="12.121"/><circle cx="198.876" cy="172.492" r="12.121"/></g><circle cx="256.004" cy="194.694" fill="#ff63ed" r="28.631"/><g fill="#e207b9"><path d="m281.67 240.068h-51.332c-4.143 0-7.5 3.358-7.5 7.5s3.357 7.5 7.5 7.5h51.332c4.143 0 7.5-3.358 7.5-7.5s-3.358-7.5-7.5-7.5z"/><path d="m424.109 141.789c4.397-16.264 2.174-33.625-6.332-48.343-8.519-14.74-22.477-25.344-38.739-29.631-4.309-16.292-14.904-30.227-29.626-38.735-14.719-8.505-32.078-10.729-48.343-6.332-24.748-24.927-65.191-25.067-90.125.001-33.968-9.186-68.982 11.059-77.976 45.069-16.292 4.308-30.229 14.904-38.738 29.626-8.507 14.72-10.73 32.08-6.332 48.345-15.677 15.645-20.361 38.058-12.18 59.098 8.47 21.782 28.852 35.914 52.032 36.153 7.987 21.296 21.278 40.554 39.041 55.879 3.135 2.705 7.871 2.357 10.578-.779 2.706-3.136 2.356-7.872-.779-10.578-27.455-23.688-42.96-57.913-42.512-93.863.268-21.508 6.216-42.585 17.201-60.952 2.55-4.262 8.142-5.322 12.288-2.519 16.374 11.061 38.196 10.966 54.566-.861 2.962-2.142 6.971-2.169 9.974 0 16.509 11.927 39.023 12.116 55.793 0 2.982-2.154 6.991-2.155 9.974 0 16.304 11.779 38.132 11.965 54.569.859 4.186-2.829 9.766-1.695 12.319 2.58 11.236 18.808 17.176 40.4 17.176 62.441 0 35.354-15.346 69.157-42.47 92.485-3.141 2.701-3.496 7.436-.796 10.577 2.692 3.13 7.427 3.505 10.577.795 17.773-15.286 31.093-34.629 39.077-56.066 49.195-.565 74.642-60.461 39.783-95.249zm-35.058 79.946c2.474-10.153 3.888-21.386 3.888-32.486 0-24.749-6.674-49.001-19.299-70.133-7.129-11.938-22.551-14.779-33.595-7.316-11.205 7.571-26.176 7.51-37.386-.589-8.235-5.949-19.305-5.952-27.542 0-11.306 8.167-26.742 8.297-38.227 0-8.236-5.95-19.304-5.95-27.542 0-10.923 7.892-25.905 8.345-37.385.59-11.049-7.467-26.455-4.628-33.558 7.249-12.343 20.636-19.026 44.311-19.326 68.464-.142 11.455 1.213 23.218 3.92 34.226-17.721-2.111-28.742-14.566-33.301-26.289-5.941-15.28-3.03-33.192 11.556-45.581 2.493-2.077 3.317-5.403 2.28-8.304-4.806-13.448-3.463-28.251 3.683-40.616s19.302-20.918 33.354-23.469c.03-.005.079-.015.109-.021 2.93-.57 5.246-2.84 5.894-5.753.021-.095.041-.191.059-.288 5.348-29.468 35.874-47.114 64.085-37.035 2.933 1.05 6.281.096 8.302-2.28 19.309-22.722 54.501-22.907 74.03.074 2.012 2.367 5.286 3.259 8.241 2.206 13.449-4.806 28.253-3.462 40.615 3.682 12.352 7.138 20.9 19.277 23.462 33.309.529 3.066 2.899 5.491 5.959 6.086.03.006.079.015.109.021 14.052 2.551 26.208 11.105 33.354 23.469s8.487 27.168 3.682 40.616c-1.05 2.938-.096 6.283 2.281 8.303 28.159 23.918 11.992 67.816-21.702 71.865z"/><path d="m256.004 158.562c-19.923 0-36.132 16.208-36.132 36.131s16.209 36.131 36.132 36.131 36.132-16.208 36.132-36.131-16.209-36.131-36.132-36.131zm0 57.263c-11.652 0-21.132-9.479-21.132-21.131s9.479-21.131 21.132-21.131c11.652 0 21.132 9.479 21.132 21.131s-9.48 21.131-21.132 21.131z"/></g><path d="m333.161 366.81c-3.922-1.35-8.186.732-9.534 4.648-9.749 28.297-36.669 48.191-67.623 48.191-30.368 0-57.665-19.305-67.624-48.193-1.35-3.916-5.619-5.997-9.535-4.646-3.916 1.35-5.996 5.619-4.646 9.535 2.835 8.223 6.843 15.8 11.776 22.594v51.596h-8.048c-16.942 0-30.727 13.789-30.727 30.737 0 16.943 13.784 30.727 30.727 30.727h38.775c7.783 0 15.077-2.914 20.632-7.958 5.455 4.942 12.687 7.958 20.609 7.958h38.774c16.948 0 30.737-13.784 30.737-30.727v-23.237-61.138c4.346-6.366 7.854-13.298 10.354-20.554 1.35-3.915-.731-8.183-4.647-9.533zm-20.706 46.869v36.857h-31.464v-19.537c11.665-3.5 22.31-9.435 31.464-17.32zm-46.464 20.38v16.477h-8.048c-3.639 0-7.183.644-10.505 1.85v-18.177c2.826.28 5.682.44 8.565.44 3.365 0 6.695-.213 9.988-.59zm-65.016-19.172c9.067 7.468 19.93 13.243 31.464 16.505v19.144h-31.464zm15.727 82.113h-38.775c-8.672 0-15.727-7.055-15.727-15.727 0-8.677 7.055-15.737 15.727-15.737h53.626c-4.794 8.067-5.497 17.462-2.674 25.686-2.954 3.622-7.386 5.778-12.177 5.778zm95.753-15.727c0 8.672-7.06 15.727-15.737 15.727h-38.774c-6.174 0-11.513-3.585-14.085-8.771-5.217-11.288 3.053-22.693 14.085-22.693h54.512v15.737z" fill="#6d00ca"/><g fill="#007ea8"><path d="m344.916 297.272c-.012-.004-.023-.009-.035-.013.043.015.031.011.035.013z"/><path d="m344.714 297.196c.009.003.017.006.025.01-.009-.004-.017-.007-.025-.01z"/><path d="m400.423 318.046c-31.482-11.783-47.23-17.677-55.505-20.773-2.332-.873-5.112-.662-7.165.805-3.691 2.596-3.143 6.625-3.177 6.78.161 8.022-.796 20.709-5.597 27.22-.951 1.289-1.464 2.849-1.464 4.451-.053 11.388.519 18.972-2.353 29.872h-138.318c-3.153-11.972-2.165-20.966-2.352-26.088.112-3.955.112-6.101-1.463-8.235-4.921-6.674-5.737-19.514-5.589-27.771.066-5.269-5.19-8.965-10.128-7.119.041-.015.042-.016-.047.018-.042.016-.108.041-.196.073-.028.011-.057.021-.09.034.011-.004.04-.015.064-.024-.036.013-.072.027-.074.028-1.819.681-11.591 4.338-55.378 20.726-16.647 6.215-25.09 24.727-18.865 41.387 6.188 16.538 24.719 25.091 41.396 18.859 19.152-7.169 30.386-11.374 36.928-13.822.77 4.024 1.808 7.993 3.148 11.879 1.043 3.025 3.89 5.055 7.09 5.055h149.429c3.199 0 6.047-2.03 7.09-5.054 1.34-3.886 2.379-7.855 3.149-11.88 6.543 2.449 17.78 6.655 36.933 13.823 16.679 6.234 35.206-2.327 41.393-18.864 6.22-16.646-2.212-35.165-18.859-41.38zm-271.555 46.194c-8.865 3.311-18.774-1.202-22.092-10.063-3.318-8.879 1.172-18.762 10.068-22.083l8.462-3.168 12.023 32.146zm22.51-8.427c-.099-.264-.156-.416-.188-.501.001.004 0 0-.004-.012-.034-.09-.035-.094-.027-.072-.228-.609-1.905-5.092-11.805-31.562l23.421-8.764c.813 10.04 3.034 17.931 6.717 23.907.002 10.234-.004 9.328.005 10.222zm209.252 0-18.119-6.781c.006-.673.005-.463.005-9.625 0-.007-.001-.013-.001-.02 0-.196 0-.371 0-.576 3.684-5.977 5.904-13.868 6.718-23.908l23.421 8.764zm44.601-1.636c-3.318 8.862-13.226 13.377-22.087 10.065l-8.467-3.17 12.023-32.146 8.469 3.171c8.881 3.315 13.383 13.194 10.062 22.08z"/><path d="m345.001 297.303c.005.002.009.003.014.005-.004-.001-.008-.003-.014-.005z"/></g><path d="m331.012 261.924c-18.629-8.501-43.493 8.053-53.804 15.99-4.97-2.736-10.734-4.311-16.883-4.311h-8.643c-6.16 0-11.936 1.581-16.912 4.327-3.482-2.654-8.716-6.366-14.761-9.747-15.725-8.791-28.849-10.898-39.014-6.259-12.325 5.626-18.574 20.32-18.574 43.674s6.249 38.048 18.574 43.674c3.637 1.66 7.509 2.364 11.467 2.364 16.311 0 34.035-11.965 42.337-18.354 4.97 2.736 10.734 4.311 16.883 4.311h8.643c6.16 0 11.936-1.581 16.912-4.327 3.482 2.654 8.716 6.366 14.761 9.747 10.31 5.764 19.501 8.654 27.474 8.654 4.188 0 8.04-.797 11.54-2.395 12.325-5.626 18.574-20.32 18.574-43.674s-6.249-38.048-18.574-43.674zm-143.794 73.698c-8.523-3.899-9.796-20.485-9.796-30.025s1.272-26.126 9.796-30.025c9.747-4.457 27.446 6.136 36.21 12.539-3.679 5.34-5.486 11.505-5.486 17.486 0 5.988 1.818 12.152 5.486 17.486-11.295 8.251-27.368 16.585-36.21 12.539zm64.465-13.029c-9.972 0-18.741-7.386-18.741-16.995 0-1.777.319-3.562.919-5.235 0 0 0 0 0-.001 2.572-7.153 9.986-11.76 17.821-11.76h8.643c7.82 0 15.247 4.598 17.821 11.76v.001c.601 1.673.919 3.458.919 5.235 0 9.289-8.4 16.995-18.741 16.995zm73.107 13.029c-8.849 4.045-24.917-4.29-36.21-12.539 3.687-5.351 5.486-11.519 5.486-17.486 0-6.157-1.923-12.305-5.486-17.486 11.295-8.25 27.368-16.584 36.21-12.539 8.523 3.899 9.796 20.485 9.796 30.025s-1.273 26.127-9.796 30.025z" fill="#6d00ca"/></g></svg>