<svg id="Capa_1" enable-background="new 0 0 512 512" height="512" viewBox="0 0 512 512" width="512" xmlns="http://www.w3.org/2000/svg"><g><path d="m504.5 101.571v202.801c0 29.183-23.661 52.835-52.835 52.835h-60.131c29.173 0 52.835-23.651 52.835-52.835v-202.801c0-29.183-23.661-52.845-52.835-52.845h60.131c29.174 0 52.835 23.661 52.835 52.845z" fill="#9448f5"/><path d="m444.37 101.571v80.836h-436.87v-80.836c0-29.183 23.661-52.845 52.845-52.845h331.19c29.173 0 52.835 23.661 52.835 52.845z" fill="#b98eff"/><path d="m63.346 288.03c-5.142 0-9.311-4.169-9.311-9.311v-96.313h-46.535v121.965c0 29.183 23.661 52.835 52.845 52.835h9.561v-69.176z" fill="#ddbeff"/><path d="m54.036 182.406v96.313c0 5.142 4.169 9.311 9.311 9.311h13.119c5.142 0 9.311-4.169 9.311-9.311v-96.313z" fill="#ff63ed"/><path d="m125.762 288.03c-5.142 0-9.311-4.169-9.311-9.311v-96.313h-30.675v96.313c0 5.142-4.169 9.311-9.311 9.311h-6.56v69.176h62.416v-69.176z" fill="#ddbeff"/><path d="m148.192 182.406v96.313c0 5.142-4.169 9.311-9.311 9.311h-6.56v69.176h62.406v-174.8z" fill="#ddbeff"/><path d="m116.451 182.406v96.313c0 5.142 4.169 9.311 9.311 9.311h13.119c5.142 0 9.311-4.169 9.311-9.311v-96.313z" fill="#ff63ed"/><path d="m250.593 288.03c-5.142 0-9.311-4.169-9.311-9.311v-96.313h-46.555v174.8h62.416v-69.176z" fill="#ddbeff"/><path d="m241.283 182.406v96.313c0 5.142 4.169 9.311 9.311 9.311h13.119c5.142 0 9.311-4.169 9.311-9.311v-96.313z" fill="#ff63ed"/><path d="m313.009 288.03c-5.142 0-9.311-4.169-9.311-9.311v-96.313h-30.675v96.313c0 5.142-4.169 9.311-9.311 9.311h-6.57v69.176h62.406v-69.176z" fill="#ddbeff"/><path d="m303.698 182.406v96.313c0 5.142 4.169 9.311 9.311 9.311h13.119c5.142 0 9.311-4.169 9.311-9.311v-96.313z" fill="#ff63ed"/><path d="m375.425 288.03c-5.142 0-9.311-4.169-9.311-9.311v-96.313h-30.675v96.313c0 5.142-4.169 9.311-9.311 9.311h-6.58v69.176h62.416v-69.176z" fill="#ddbeff"/><path d="m397.855 182.406v96.313c0 5.142-4.169 9.311-9.311 9.311h-6.58v69.176h9.571c29.173 0 52.835-23.651 52.835-52.835v-121.965z" fill="#ddbeff"/><path d="m366.114 182.406v96.313c0 5.142 4.169 9.311 9.311 9.311h13.119c5.142 0 9.311-4.169 9.311-9.311v-96.313z" fill="#ff63ed"/><circle cx="93.943" cy="118.114" fill="#9448f5" r="24.037"/><circle cx="357.927" cy="118.114" fill="#9448f5" r="24.037"/><g><path d="m303.698 357.206v82.649c0 12.934-10.485 23.419-23.419 23.419h-39.092c-12.934 0-23.419-10.485-23.419-23.419s10.485-23.419 23.419-23.419h15.673v-59.23z" fill="#9448f5"/></g><g><path d="m194.703 357.206v82.649c0 12.934-10.485 23.419-23.419 23.419h-39.092c-12.934 0-23.419-10.485-23.419-23.419s10.485-23.419 23.419-23.419h15.673v-59.23z" fill="#9448f5"/></g><g fill="#6d00ca"><path d="m147.865 357.206h46.838v31.295h-46.838z"/><path d="m256.86 357.206h46.838v31.295h-46.838z"/><g><path d="m451.665 41.226c-18.444 0-370.927 0-391.319 0-33.275 0-60.346 27.07-60.346 60.345v202.801c0 33.269 27.071 60.335 60.346 60.335h80.019v44.229h-8.172c-17.049 0-30.92 13.87-30.92 30.919s13.871 30.919 30.92 30.919h39.092c17.049 0 30.919-13.871 30.919-30.919v-75.148h47.156v44.229h-8.173c-17.049 0-30.919 13.87-30.919 30.919s13.87 30.919 30.919 30.919h39.093c17.049 0 30.919-13.871 30.919-30.919v-75.148h140.467c33.269 0 60.335-27.066 60.335-60.335v-202.801c-.001-33.275-27.067-60.345-60.336-60.345zm-436.665 60.345c0-25.003 20.342-45.345 45.346-45.345h331.189c24.943 0 45.335 20.288 45.335 45.345v73.335c-82.521 0-338.388 0-421.87 0zm421.87 202.8c0 24.998-20.337 45.335-45.335 45.335h-2.071v-54.201c8.806-.479 15.891-7.861 15.891-16.786v-88.813h31.516v114.465zm-63.256-114.465h16.74v88.813c0 .999-.813 1.811-1.811 1.811-4.624 0-8.532 0-13.119 0-.998 0-1.811-.813-1.811-1.811v-88.813zm-45.675 88.813c0 .999-.813 1.811-1.812 1.811-4.617 0-8.535 0-13.119 0-.998 0-1.811-.813-1.811-1.811v-88.813h16.741v88.813zm-63.296 70.987v-54.201c8.647-.475 15.881-7.726 15.881-16.786v-88.813h15.675v88.813c0 8.854 7.001 16.284 15.851 16.784v54.203c-22.114 0-26.072 0-47.407 0zm-15.861-159.8h16.741v88.813c0 .999-.813 1.811-1.811 1.811-4.613 0-8.503 0-13.119 0-.999 0-1.812-.813-1.812-1.811v-88.813zm-108.09 88.813c0 .999-.813 1.811-1.812 1.811-4.588 0-8.531 0-13.119 0-.998 0-1.811-.813-1.811-1.811v-88.813h16.741v88.813zm-62.416 0c0 .999-.813 1.811-1.811 1.811-4.588 0-8.531 0-13.119 0-.999 0-1.812-.813-1.812-1.811v-88.813h16.741v88.813zm-63.276 25.652v-114.465h31.535v88.813c0 8.876 7.027 16.296 15.871 16.785v54.202h-2.061c-25.003 0-45.345-20.337-45.345-45.335zm62.406-8.866c8.648-.479 15.87-7.736 15.87-16.785v-88.813h15.675v88.813c0 8.847 6.997 16.294 15.87 16.785v54.202h-47.415zm62.415 0c8.595-.476 15.871-7.689 15.871-16.785v-88.813h31.535v159.8c-15.476 0-33.818 0-47.406 0zm47.382 144.35c0 8.778-7.142 15.919-15.919 15.919h-39.092c-8.778 0-15.92-7.142-15.92-15.919s7.142-15.919 15.92-15.919h15.672c4.143 0 7.5-3.358 7.5-7.5v-51.729h31.839zm15.025-249.949h31.555v88.813c0 8.869 7.003 16.289 15.86 16.785v54.202h-47.415zm93.97 249.949c0 8.778-7.142 15.919-15.919 15.919h-39.093c-8.777 0-15.919-7.142-15.919-15.919s7.142-15.919 15.919-15.919h15.673c4.143 0 7.5-3.358 7.5-7.5v-51.729h31.839zm30.851-144.349c8.659-.469 15.891-7.722 15.891-16.786v-88.813h15.675v88.813c0 8.951 7.098 16.288 15.85 16.784v54.203h-47.415v-54.201zm169.951 8.865c0 24.998-20.337 45.335-45.335 45.335h-20.358c12.749-11.187 20.563-27.614 20.563-45.335 0-7.369 0-195.446 0-202.801 0-17.256-7.513-33.897-20.566-45.345h20.361c24.998 0 45.335 20.342 45.335 45.345z"/><circle cx="280.751" cy="105.708" r="11.631"/><path d="m201.308 144.555h49.255c4.143 0 7.5-3.358 7.5-7.5s-3.357-7.5-7.5-7.5h-49.255c-4.143 0-7.5 3.358-7.5 7.5s3.357 7.5 7.5 7.5z"/><circle cx="171.119" cy="105.708" r="11.631"/><path d="m93.943 149.651c17.39 0 31.537-14.147 31.537-31.537s-14.147-31.537-31.537-31.537-31.537 14.147-31.537 31.537 14.148 31.537 31.537 31.537zm0-48.074c9.118 0 16.537 7.418 16.537 16.537s-7.419 16.537-16.537 16.537-16.537-7.418-16.537-16.537 7.419-16.537 16.537-16.537z"/><path d="m357.927 149.651c17.39 0 31.537-14.147 31.537-31.537s-14.147-31.537-31.537-31.537-31.537 14.147-31.537 31.537 14.147 31.537 31.537 31.537zm0-48.074c9.118 0 16.537 7.418 16.537 16.537s-7.419 16.537-16.537 16.537-16.537-7.418-16.537-16.537 7.419-16.537 16.537-16.537z"/></g></g></g></svg>