<?xml version="1.0" encoding="UTF-8" standalone="no"?>
<svg
   xmlns:dc="http://purl.org/dc/elements/1.1/"
   xmlns:cc="http://creativecommons.org/ns#"
   xmlns:rdf="http://www.w3.org/1999/02/22-rdf-syntax-ns#"
   xmlns:svg="http://www.w3.org/2000/svg"
   xmlns="http://www.w3.org/2000/svg"
   xmlns:sodipodi="http://sodipodi.sourceforge.net/DTD/sodipodi-0.dtd"
   xmlns:inkscape="http://www.inkscape.org/namespaces/inkscape"
   width="575"
   height="575"
   viewBox="0 0 152.13542 152.13541"
   version="1.1"
   id="svg8"
   inkscape:export-filename="G:\My Drive\Design\Logo\rovr-1000.png"
   inkscape:export-xdpi="157.90381"
   inkscape:export-ydpi="157.90381"
   inkscape:version="0.92.4 (5da689c313, 2019-01-14)"
   sodipodi:docname="favicon.svg">
  <defs
     id="defs2" />
  <sodipodi:namedview
     id="base"
     pagecolor="#25c9d0"
     bordercolor="#666666"
     borderopacity="1.0"
     inkscape:pageopacity="1"
     inkscape:pageshadow="2"
     inkscape:zoom="0.70710678"
     inkscape:cx="345.7375"
     inkscape:cy="516.29304"
     inkscape:document-units="mm"
     inkscape:current-layer="g4196"
     inkscape:document-rotation="0"
     showgrid="false"
     fit-margin-top="50"
     fit-margin-left="50"
     fit-margin-right="50"
     fit-margin-bottom="50"
     inkscape:window-width="2560"
     inkscape:window-height="1377"
     inkscape:window-x="1072"
     inkscape:window-y="612"
     inkscape:window-maximized="1"
     lock-margins="true"
     units="px" />
  <metadata
     id="metadata5">
    <rdf:RDF>
      <cc:Work
         rdf:about="">
        <dc:format>image/svg+xml</dc:format>
        <dc:type
           rdf:resource="http://purl.org/dc/dcmitype/StillImage" />
        <dc:title></dc:title>
      </cc:Work>
    </rdf:RDF>
  </metadata>
  <g
     inkscape:label="Layer 1"
     inkscape:groupmode="layer"
     id="layer1"
     transform="translate(15.974206,-101.35951)">
    <g
       id="g4196"
       transform="translate(-6.3154758,2.2213582)">
      <g
         id="g5158"
         transform="translate(-0.31184296,-0.38592017)">
        <g
           style="fill:#ffb20f;fill-opacity:1"
           transform="matrix(1.7132178,0,0,1.7132178,-322.17159,-546.26316)"
           id="g2772">
          <g
             style="fill:#ffb20f;fill-opacity:1"
             id="g2770">
            <path
               inkscape:connector-curvature="0"
               d="m 252.13687,412.17139 a 17.87771,16.934299 0 0 1 -17.87771,16.9343 17.87771,16.934299 0 0 1 -17.87772,-16.9343 17.87771,16.934299 0 0 1 17.87772,-16.9343 17.87771,16.934299 0 0 1 17.87771,16.9343 z"
               style="fill:#ffb20f;fill-opacity:1;stroke-width:1.16665006"
               id="path2764" />
            <path
               inkscape:connector-curvature="0"
               d="m 207.08095,395.23813 h 27.23542 v 56.51521 h -27.23542 z"
               style="fill:#ffb20f;fill-opacity:1;stroke-width:0.92531103"
               id="path2766" />
            <path
               inkscape:connector-curvature="0"
               sodipodi:nodetypes="ccccccc"
               d="m 252.85396,451.77321 -12.8646,2e-5 h -12.86459 l 6.4323,-11.14106 6.43229,-11.14107 6.4323,11.14107 z"
               transform="matrix(1.4926596,0,0,1.3770974,-124.42422,-170.36252)"
               inkscape:transform-center-y="-5.1141265"
               inkscape:transform-center-x="7.160341e-06"
               style="fill:#ffb20f;fill-opacity:1;stroke-width:1"
               id="path2768" />
          </g>
        </g>
        <g
           style="fill:#ffffff"
           transform="matrix(1.7132178,0,0,1.7132178,-332.60679,-553.66642)"
           id="g2706">
          <g
             style="fill:#ffffff"
             id="g2733">
            <path
               inkscape:connector-curvature="0"
               d="m 252.13687,412.17139 a 17.87771,16.934299 0 0 1 -17.87771,16.9343 17.87771,16.934299 0 0 1 -17.87772,-16.9343 17.87771,16.934299 0 0 1 17.87772,-16.9343 17.87771,16.934299 0 0 1 17.87771,16.9343 z"
               style="fill:#ffffff;fill-opacity:1;stroke-width:1.16665006"
               id="ellipse2700" />
            <path
               inkscape:connector-curvature="0"
               d="m 207.08095,395.23813 h 27.23542 v 56.51521 h -27.23542 z"
               style="fill:#ffffff;fill-opacity:1;stroke-width:0.92531103"
               id="rect2702" />
            <path
               inkscape:connector-curvature="0"
               sodipodi:nodetypes="ccccccc"
               d="m 252.85396,451.77321 -12.8646,2e-5 h -12.86459 l 6.4323,-11.14106 6.43229,-11.14107 6.4323,11.14107 z"
               transform="matrix(1.4926596,0,0,1.3770974,-124.42422,-170.36252)"
               inkscape:transform-center-y="-5.1141265"
               inkscape:transform-center-x="7.160341e-06"
               style="fill:#ffffff;fill-opacity:1;stroke-width:1"
               id="path2704" />
          </g>
        </g>
      </g>
    </g>
  </g>
</svg>
