<svg id="Capa_1" enable-background="new 0 0 512 512" height="512" viewBox="0 0 512 512" width="512" xmlns="http://www.w3.org/2000/svg"><g><path d="m467.774 137.087v188.877c0 11.759-9.537 21.305-21.305 21.305h-41c-11.768 0-21.305-9.547-21.305-21.305v-188.877z" fill="#7181ff"/><path d="m114.908 347.27c3.052-5.044 4.473-11.148 3.553-17.523-4.303-29.762-14.16-50.296-20.575-61.084 3.232-4.613 5.144-10.227 5.144-16.302 0-6.655-2.292-12.769-6.114-17.613v-97.661h287.248v188.877c0 11.759 9.537 21.305 21.305 21.305h-290.561z" fill="#7181ff"/><path d="m504.5 81.227v31.893c0 13.24-10.728 23.967-23.967 23.967h-58.783c-13.24 0-23.967-10.728-23.967-23.967v-31.893c0-13.24 10.728-23.967 23.967-23.967h58.783c13.239-.001 23.967 10.727 23.967 23.967z" fill="#f90"/><path d="m421.75 137.087h-390.282c-13.24 0-23.967-10.728-23.967-23.967v-31.893c0-13.24 10.728-23.967 23.967-23.967h390.282c-13.24 0-23.967 10.728-23.967 23.967v31.893c0 13.24 10.728 23.967 23.967 23.967z" fill="#ffd600"/><circle cx="301.882" cy="237.23" fill="#2115c2" r="13.081"/><circle cx="178.574" cy="237.23" fill="#2115c2" r="13.081"/><g><path d="m332.814 347.265v83.968c0 12.983-10.525 23.508-23.508 23.508h-39.24c-12.983 0-23.508-10.525-23.508-23.508s10.525-23.508 23.508-23.508h15.732v-60.46z" fill="#7181ff"/></g><g><path d="m223.406 347.265v83.968c0 12.983-10.525 23.508-23.508 23.508h-39.24c-12.983 0-23.508-10.525-23.508-23.508s10.525-23.508 23.508-23.508h15.732v-60.46z" fill="#7181ff"/></g><path d="m176.39 347.265h47.016v31.413h-47.016z" fill="#2115c2"/><path d="m285.798 347.265h47.016v31.413h-47.016z" fill="#2115c2"/><g fill="#2115c2"><path d="m212.528 279.987h55.399c4.143 0 7.5-3.357 7.5-7.5 0-4.142-3.357-7.5-7.5-7.5h-55.399c-4.143 0-7.5 3.358-7.5 7.5 0 4.143 3.358 7.5 7.5 7.5z"/><path d="m467.774 132.59c-4.143 0-7.5.355-7.5 4.497v188.877c0 7.612-6.193 13.805-13.806 13.805h-40.999c-7.612 0-13.806-6.193-13.806-13.805v-188.877c0-4.161-3.371-5.238-7.5-5.238-4.133 0-7.5 1.085-7.5 5.238v188.877c0 4.99 1.461 10.186 3.529 13.805-64.358 0-49.358-.009-261.458 0-4.143 0-7.5 3.358-7.5 7.5 0 4.143-.469 7.5 3.674 7.5h53.981v45.456h-8.231c-17.099 0-31.009 13.91-31.009 31.008s13.91 31.008 31.009 31.008h39.239c17.098 0 31.008-13.91 31.008-31.008v-76.463h47.393v45.456h-8.232c-17.098 0-31.008 13.91-31.008 31.008s13.91 31.008 31.008 31.008h39.24c17.098 0 31.008-13.91 31.008-31.008v-76.463h106.154c15.884 0 28.806-12.922 28.806-28.805v-188.879c-.001-4.142-3.358-4.497-7.5-4.497zm-251.869 298.643c0 8.827-7.181 16.008-16.008 16.008h-39.239c-8.827 0-16.009-7.181-16.009-16.008s7.182-16.008 16.009-16.008h15.731c4.143 0 7.5-3.358 7.5-7.5v-52.956h32.016zm109.408 0c0 8.827-7.181 16.008-16.008 16.008h-39.24c-8.827 0-16.008-7.181-16.008-16.008s7.181-16.008 16.008-16.008h15.732c4.143 0 7.5-3.358 7.5-7.5v-52.956h32.016z"/></g><g fill="#ffd600"><path d="m96.915 137.087v97.661c-5.214-6.605-13.28-10.848-22.346-10.848s-17.132 4.243-22.346 10.848v-97.661z"/><path d="m118.458 329.749c-4.301-29.755-14.152-50.284-20.57-61.074-5.147 7.345-13.669 12.152-23.319 12.152s-18.172-4.807-23.319-12.152c-6.418 10.79-16.269 31.319-20.57 61.074-2.306 15.952 10.023 30.263 26.141 30.263h35.495c16.119-.001 28.448-14.311 26.142-30.263z"/><circle cx="74.569" cy="252.365" r="28.462"/></g><path d="m480.533 49.76h-58.783-390.282c-17.352 0-31.468 14.116-31.468 31.467v31.893c0 17.351 14.116 31.467 31.468 31.467h13.255v87.739c-3.859 5.73-6.115 12.625-6.115 20.038 0 5.902 1.438 11.47 3.968 16.389-7.047 12.803-15.384 32.708-19.318 59.922-2.96 20.478 12.9 38.835 33.563 38.835h35.496c20.694 0 36.519-18.384 33.563-38.835-3.934-27.215-12.271-47.12-19.318-59.922 2.53-4.919 3.968-10.487 3.968-16.389 0-7.414-2.256-14.31-6.116-20.04v-87.738h376.118c17.351 0 31.467-14.116 31.467-31.467v-31.892c.001-17.351-14.115-31.467-31.466-31.467zm-405.964 181.643c11.588 0 20.962 9.448 20.962 20.962 0 11.544-9.407 20.962-20.959 20.962-.001 0-.002 0-.003 0s-.002 0-.003 0c-11.541 0-20.959-9.412-20.959-20.962 0-11.498 9.361-20.962 20.962-20.962zm17.748 121.108h-35.496c-11.584 0-20.364-10.301-18.718-21.69 3.188-22.055 9.609-38.806 14.934-49.667 6.306 4.712 13.893 7.165 21.52 7.171h.013s.008 0 .013 0c7.478-.007 15.098-2.373 21.52-7.171 5.324 10.861 11.746 27.611 14.934 49.667 1.648 11.417-7.166 21.69-18.72 21.69zm-2.902-132.921c-4.554-2.064-9.721-3.189-14.847-3.189-4.855 0-10.044 1.013-14.846 3.189v-75.002h29.692v75.002zm-57.947-90.003c-9.08 0-16.468-7.387-16.468-16.467v-31.893c0-9.08 7.388-16.467 16.468-16.467h363.478c-2.798 4.412-4.662 10.437-4.662 16.467v31.893c0 5.698 1.589 11.504 4.662 16.467-27.078 0-348.039 0-363.478 0zm465.532-16.467c0 9.08-7.387 16.467-16.467 16.467h-58.783c-9.08 0-16.467-7.387-16.467-16.467v-31.893c0-9.081 7.385-16.467 16.467-16.467h58.783c9.08 0 16.467 7.387 16.467 16.467z" fill="#f95116"/></g></svg>