<svg id="Capa_1" enable-background="new 0 0 512 512" height="512" viewBox="0 0 512 512" width="512" xmlns="http://www.w3.org/2000/svg"><g><g><path d="m308.33 406.484v74.376c0 13.056-10.584 23.64-23.64 23.64h-39.46c-13.056 0-23.64-10.584-23.64-23.64s10.584-23.64 23.64-23.64h15.821v-50.736z" fill="#ff63ed"/></g><g><path d="m198.308 406.484v74.376c0 13.056-10.584 23.64-23.64 23.64h-39.46c-13.056 0-23.64-10.584-23.64-23.64s10.584-23.64 23.64-23.64h15.821v-50.736z" fill="#ff63ed"/></g><g fill="#e207b9"><path d="m151.028 406.484h47.28v31.59h-47.28z"/><path d="m261.05 406.484h47.28v31.59h-47.28z"/><path d="m308.331 398.984c-4.143 0-7.5 3.358-7.5 7.5v74.376c0 8.899-7.24 16.14-16.141 16.14h-39.46c-8.9 0-16.141-7.241-16.141-16.14s7.24-16.14 16.141-16.14h15.82c4.143 0 7.5-3.358 7.5-7.5v-50.736c0-4.142-3.357-7.5-7.5-7.5s-7.5 3.358-7.5 7.5v43.236h-8.32c-17.171 0-31.141 13.969-31.141 31.14s13.97 31.14 31.141 31.14h39.46c17.171 0 31.141-13.969 31.141-31.14v-74.376c0-4.142-3.358-7.5-7.5-7.5z"/><path d="m198.307 398.984c-4.143 0-7.5 3.358-7.5 7.5v74.376c0 8.899-7.24 16.14-16.14 16.14h-39.46c-8.9 0-16.141-7.241-16.141-16.14s7.24-16.14 16.141-16.14h15.82c4.143 0 7.5-3.358 7.5-7.5v-50.736c0-4.142-3.357-7.5-7.5-7.5s-7.5 3.358-7.5 7.5v43.236h-8.32c-17.171 0-31.141 13.969-31.141 31.14s13.971 31.14 31.142 31.14h39.46c17.171 0 31.14-13.969 31.14-31.14v-74.376c-.001-4.142-3.358-7.5-7.501-7.5z"/></g><path d="m393.88 62.607v287.664c0 30.432-24.676 55.108-55.107 55.108h-221.9c-30.442 0-55.108-24.676-55.108-55.108v-287.664c0-30.432 24.666-55.107 55.108-55.107h221.899c30.432 0 55.108 24.675 55.108 55.107z" fill="#b98eff"/><path d="m353.626 132.071c0 8.192-6.662 14.854-14.854 14.854h-221.899c-8.192 0-14.854-6.662-14.854-14.854v-69.464c0-8.192 6.662-14.854 14.854-14.854h221.899c8.192 0 14.854 6.662 14.854 14.854z" fill="#88f8d8"/><path d="m212.737 350.271c0 8.192-6.662 14.854-14.854 14.854h-81.011c-8.192 0-14.854-6.662-14.854-14.854v-49.337c0-8.192 6.662-14.854 14.854-14.854h81.011c8.192 0 14.854 6.662 14.854 14.854z" fill="#ff63ed"/><path d="m212.737 241.171c0 8.192-6.662 14.854-14.854 14.854h-81.011c-8.192 0-14.854-6.662-14.854-14.854v-49.337c0-8.192 6.662-14.854 14.854-14.854h81.011c8.192 0 14.854 6.662 14.854 14.854z" fill="#a4bcff"/><path d="m353.626 350.271c0 8.192-6.662 14.854-14.854 14.854h-81.011c-8.192 0-14.854-6.662-14.854-14.854v-49.337c0-8.192 6.662-14.854 14.854-14.854h81.011c8.192 0 14.854 6.662 14.854 14.854z" fill="#a4bcff"/><path d="m353.626 241.171c0 8.192-6.662 14.854-14.854 14.854h-81.011c-8.192 0-14.854-6.662-14.854-14.854v-49.337c0-8.192 6.662-14.854 14.854-14.854h81.011c8.192 0 14.854 6.662 14.854 14.854z" fill="#ff63ed"/><path d="m450.235 62.607v287.664c0 30.432-24.676 55.108-55.108 55.108h-56.355c30.432 0 55.107-24.676 55.107-55.108v-287.664c0-30.432-24.676-55.107-55.107-55.107h56.355c30.432 0 55.108 24.675 55.108 55.107z" fill="#9448f5"/><circle cx="274.707" cy="90.317" fill="#007ea8" r="9.948"/><g><path d="m248.886 124.629h-42.128c-4.143 0-7.5-3.358-7.5-7.5s3.357-7.5 7.5-7.5h42.128c4.143 0 7.5 3.358 7.5 7.5s-3.357 7.5-7.5 7.5z" fill="#007ea8"/></g><circle cx="180.938" cy="90.317" fill="#007ea8" r="9.948"/><g><path d="m338.772 154.425h-221.899c-12.326 0-22.354-10.028-22.354-22.354v-69.464c0-12.326 10.027-22.354 22.354-22.354h221.899c12.326 0 22.354 10.028 22.354 22.354v69.464c-.001 12.326-10.028 22.354-22.354 22.354zm-221.899-99.171c-4.055 0-7.354 3.299-7.354 7.354v69.464c0 4.055 3.299 7.354 7.354 7.354h221.899c4.055 0 7.354-3.299 7.354-7.354v-69.465c0-4.055-3.299-7.354-7.354-7.354h-221.899z" fill="#007ea8"/></g><path d="m395.127 0c-5.098 0-270.147 0-278.255 0-34.521 0-62.607 28.085-62.607 62.607v287.664c0 34.522 28.086 62.608 62.607 62.608h278.255c34.521 0 62.607-28.086 62.607-62.608v-287.664c.001-34.522-28.085-62.607-62.607-62.607zm-325.862 350.271v-287.664c0-26.251 21.357-47.607 47.608-47.607h221.899c26.251 0 47.607 21.356 47.607 47.607v287.664c0 26.251-21.356 47.608-47.607 47.608h-221.899c-26.251 0-47.608-21.357-47.608-47.608zm373.47 0c0 26.251-21.356 47.608-47.607 47.608h-15.738c13.673-11.68 21.99-28.966 21.99-47.608v-287.664c0-18.228-8.054-35.703-21.99-47.607h15.738c26.251 0 47.607 21.356 47.607 47.607z" fill="#6d00ca"/><g fill="#2115c2"><path d="m197.883 169.48h-81.011c-12.326 0-22.354 10.028-22.354 22.354v49.337c0 12.326 10.027 22.354 22.354 22.354h81.011c12.326 0 22.354-10.028 22.354-22.354v-49.337c.001-12.326-10.028-22.354-22.354-22.354zm7.355 71.691c0 4.055-3.299 7.354-7.354 7.354h-81.011c-4.055 0-7.354-3.299-7.354-7.354v-49.337c0-4.055 3.299-7.354 7.354-7.354h81.011c4.056 0 7.354 3.299 7.354 7.354z"/><path d="m338.772 278.581h-81.011c-12.326 0-22.354 10.028-22.354 22.354v49.337c0 12.326 10.027 22.354 22.354 22.354h81.011c12.326 0 22.354-10.028 22.354-22.354v-49.337c-.001-12.327-10.028-22.354-22.354-22.354zm7.353 71.69c0 4.055-3.299 7.354-7.354 7.354h-81.011c-4.055 0-7.354-3.299-7.354-7.354v-49.337c0-4.055 3.299-7.354 7.354-7.354h81.011c4.055 0 7.354 3.299 7.354 7.354z"/><path d="m169.791 209.003h-4.912v-4.913c0-4.142-3.357-7.5-7.5-7.5s-7.5 3.358-7.5 7.5v4.913h-4.913c-4.143 0-7.5 3.358-7.5 7.5s3.357 7.5 7.5 7.5h4.913v4.913c0 4.142 3.357 7.5 7.5 7.5s7.5-3.358 7.5-7.5v-4.913h4.912c4.143 0 7.5-3.358 7.5-7.5s-3.358-7.5-7.5-7.5z"/><path d="m310.679 307.627h-24.825c-4.143 0-7.5 3.358-7.5 7.5s3.357 7.5 7.5 7.5h24.825c4.143 0 7.5-3.358 7.5-7.5s-3.357-7.5-7.5-7.5z"/><path d="m310.679 328.578h-24.825c-4.143 0-7.5 3.358-7.5 7.5s3.357 7.5 7.5 7.5h24.825c4.143 0 7.5-3.358 7.5-7.5s-3.357-7.5-7.5-7.5z"/></g><g fill="#e207b9"><path d="m220.238 300.934c0-12.326-10.028-22.354-22.354-22.354h-81.011c-12.326 0-22.354 10.028-22.354 22.354v49.337c0 12.326 10.027 22.354 22.354 22.354h81.011c12.326 0 22.354-10.028 22.354-22.354zm-15 49.337c0 4.055-3.299 7.354-7.354 7.354h-81.011c-4.055 0-7.354-3.299-7.354-7.354v-49.337c0-4.055 3.299-7.354 7.354-7.354h81.011c4.056 0 7.354 3.299 7.354 7.354z"/><path d="m338.772 169.48h-81.011c-12.326 0-22.354 10.028-22.354 22.354v49.337c0 12.326 10.027 22.354 22.354 22.354h81.011c12.326 0 22.354-10.028 22.354-22.354v-49.337c-.001-12.326-10.028-22.354-22.354-22.354zm7.353 71.691c0 4.055-3.299 7.354-7.354 7.354h-81.011c-4.055 0-7.354-3.299-7.354-7.354v-49.337c0-4.055 3.299-7.354 7.354-7.354h81.011c4.055 0 7.354 3.299 7.354 7.354z"/><path d="m171.459 311.522c-2.93-2.929-7.679-2.929-10.606 0l-3.475 3.474-3.475-3.474c-2.928-2.929-7.677-2.929-10.606 0s-2.929 7.678.001 10.606l3.474 3.474-3.474 3.474c-2.93 2.929-2.93 7.678-.001 10.607 1.465 1.464 3.384 2.197 5.304 2.197 1.919 0 3.839-.732 5.303-2.197l3.475-3.475 3.475 3.475c1.464 1.464 3.384 2.197 5.303 2.197s3.839-.732 5.304-2.197c2.929-2.929 2.929-7.678-.001-10.607l-3.474-3.474 3.474-3.474c2.928-2.928 2.928-7.676-.001-10.606z"/><path d="m310.679 209.003h-24.825c-4.143 0-7.5 3.358-7.5 7.5s3.357 7.5 7.5 7.5h24.825c4.143 0 7.5-3.358 7.5-7.5s-3.357-7.5-7.5-7.5z"/></g></g></svg>