<svg id="Capa_1" enable-background="new 0 0 512 512" height="512" viewBox="0 0 512 512" width="512" xmlns="http://www.w3.org/2000/svg"><g><path d="m170.409 101.189c7.48-1.322 15.178-2.014 23.038-2.014 14.033 0 27.549 2.203 40.229 6.271 1.202-7.451 3.004-15.802 5.702-24.436 3.101-9.923 6.993-19.034 11.621-27.303-3.925-7.975-9.209-15.449-15.859-22.074-18.42-18.351-43.315-26.226-67.299-23.652-12.495 1.341-22.377 11.261-23.671 23.76-2.485 23.993 5.483 48.859 23.904 67.21.766.766 1.546 1.51 2.335 2.238z" fill="#88f8d8"/><path d="m256 114.967c7.551-4.087 15.554-7.443 23.905-10.006.74-3.36 1.645-6.862 2.758-10.425 6.39-20.448 16.977-34.882 31.549-43.064 6.068-3.407 8.769-10.727 6.635-17.351l-4.982-15.463c-2.766-8.587-12.569-12.62-20.601-8.512-26.356 13.478-45.515 37.672-55.886 70.864-2.698 8.634-4.499 16.985-5.702 24.436 7.781 2.496 15.249 5.692 22.324 9.521z" fill="#ffd600"/><path d="m274.317 400.054v54.865h-16.591c-13.691 0-24.791 11.099-24.791 24.791 0 13.691 11.099 24.791 24.791 24.791h41.381c13.691 0 24.791-11.099 24.791-24.791v-66.7c-16.464.412-33.273-3.702-49.581-12.956z" fill="#88f8d8"/><path d="m238.506 399.586c-16.294 9.429-33.103 13.709-49.582 13.448v41.885h-16.591c-13.691 0-24.791 11.099-24.791 24.791 0 13.691 11.099 24.791 24.791 24.791h41.381c9.574 0 17.876-5.431 22.006-13.378-1.776-3.417-2.785-7.296-2.785-11.413 0-5.937 2.09-11.385 5.57-15.654v-64.47z" fill="#88f8d8"/><path d="m318.553 99.175c-22.645 0-43.949 5.724-62.553 15.792-18.604-10.068-39.908-15.792-62.553-15.792-72.651 0-131.545 58.904-131.545 131.555 0 143.316 109.051 227.868 194.098 156.548 85.046 71.32 194.098-13.232 194.098-156.548-.001-72.651-58.895-131.555-131.545-131.555z" fill="#ff63ed"/><g><path d="m165.324 106.701c-.904-.834-1.736-1.631-2.543-2.434-19.393-19.321-28.895-46.036-26.071-73.297 1.649-15.931 14.405-28.735 30.331-30.445 27.254-2.926 54.001 6.477 73.393 25.795 7.09 7.063 12.908 15.163 17.295 24.075 1.829 3.716-1.881 4.252-5.598 6.081-3.717 1.83-6.031 4.259-7.861.543-3.654-7.426-8.507-14.179-14.422-20.072-16.17-16.108-38.481-23.948-61.205-21.508-8.932.959-16.088 8.14-17.012 17.075-2.355 22.737 5.567 45.016 21.736 61.125.699.696 1.41 1.374 2.13 2.037 3.044 2.809.4 2.105-2.409 5.149-2.806 3.04-4.714 8.689-7.764 5.876z" fill="#007ea8"/></g><g><path d="m234.88 108.737c-.397 0-.799-.032-1.204-.097-4.09-.66-8.065-.301-7.405-4.39 1.43-8.851 3.431-17.423 5.948-25.478 10.902-34.89 31.522-60.929 59.629-75.304 12.179-6.228 26.983-.059 31.155 12.89l4.981 15.463c3.243 10.068-1.005 21.083-10.101 26.19-12.835 7.207-22.277 20.248-28.063 38.762-.973 3.115-1.845 6.413-2.592 9.801-.891 4.045-4.441.992-8.489.1-4.045-.891-7.05.717-6.159-3.328.839-3.806 1.822-7.523 2.923-11.048 6.967-22.288 18.754-38.225 35.037-47.367 2.899-1.628 4.232-5.208 3.168-8.512l-4.981-15.463c-1.332-4.134-6.071-6.167-10.048-4.134-24.438 12.498-42.469 35.467-52.143 66.423-2.305 7.376-4.141 15.247-5.456 23.395-.595 3.685-2.585 2.097-6.2 2.097z" fill="#f95116"/></g><circle cx="316.633" cy="255.585" fill="#e207b9" r="12.865"/><g><path d="m283.241 297.758h-54.483c-4.143 0-7.5-3.358-7.5-7.5s3.357-7.5 7.5-7.5h54.483c4.143 0 7.5 3.358 7.5 7.5 0 4.143-3.357 7.5-7.5 7.5z" fill="#e207b9"/></g><circle cx="195.367" cy="255.585" fill="#e207b9" r="12.865"/><g fill="#007ea8"><path d="m323.899 408.786c-4.143 0-7.499.081-7.499 4.223v66.7c0 9.534-7.757 17.291-17.292 17.291h-41.381c-9.611 0-17.291-7.85-17.291-17.291 0-9.57 7.78-17.291 17.291-17.291h16.591c4.143 0 7.5-3.357 7.5-7.5v-54.865c0-4.142-3.357-3.228-7.5-3.228s-7.5-.915-7.5 3.228v47.365h-9.091c-4.133 0-8.084.79-11.72 2.211v-50.043c0-4.143-3.358-4.434-7.5-4.434-4.143 0-7.499.292-7.499 4.434v61.996c-3.489 5.153-5.571 11.469-5.571 18.127 0 3.752.699 7.537 1.838 10.729-3.245 4.11-8.198 6.561-13.557 6.561h-41.382c-9.534 0-17.291-7.757-17.291-17.291 0-9.535 7.757-17.291 17.291-17.291h16.591c4.143 0 7.5-3.357 7.5-7.5v-41.884c0-4.143-3.357-3.769-7.499-3.769-4.143 0-7.5-.373-7.5 3.769v34.384h-9.091c-17.805 0-32.291 14.486-32.291 32.291s14.485 32.291 32.291 32.291h41.382c8.339 0 16.149-3.176 22.026-8.67 5.769 5.373 13.497 8.67 21.985 8.67h41.381c17.805 0 32.292-14.486 32.292-32.291v-66.7c-.004-4.141-3.362-4.222-7.504-4.222z"/><path d="m238.506 399.586c-16.294 9.429-33.103 13.709-49.582 13.448v30.236c.474.006.947.024 1.421.024 16.41 0 32.634-3.409 48.16-9.992v-33.716z"/><path d="m274.317 398.955v33.593c15.273 6.354 31.211 9.644 47.331 9.647h.022c.744 0 1.486-.023 2.229-.038v-30.247c-16.465.413-33.274-3.7-49.582-12.955z"/></g><g><path d="m321.799 420.575c-4.505 0-9.021-.314-13.547-.942-18.34-2.548-35.893-10.191-52.253-22.741-16.36 12.55-33.913 20.193-52.252 22.741-19.228 2.671-38.335-.343-56.798-8.955-26.654-12.434-49.502-35.397-66.073-66.408-17.319-32.409-26.473-71.671-26.473-113.54 0-76.675 62.375-139.055 139.045-139.055 21.723 0 43.263 5.118 62.552 14.832 19.29-9.714 40.83-14.832 62.553-14.832 76.67 0 139.045 62.38 139.045 139.055 0 41.869-9.154 81.13-26.473 113.54-16.571 31.011-39.419 53.974-66.072 66.408-14.12 6.585-28.617 9.897-43.254 9.897zm-128.351-313.9c-68.399 0-124.045 55.651-124.045 124.055 0 39.411 8.542 76.228 24.703 106.47 14.815 27.724 35.834 48.991 59.185 59.884 32.878 15.336 67.64 9.813 97.89-15.553 2.787-2.338 6.851-2.338 9.639 0 30.248 25.366 65.01 30.89 97.891 15.553 23.351-10.893 44.37-32.16 59.185-59.884 16.161-30.242 24.703-67.059 24.703-106.47 0-68.404-55.647-124.055-124.045-124.055-20.589 0-40.985 5.148-58.984 14.888-2.227 1.205-4.912 1.205-7.139 0-17.999-9.74-38.394-14.888-58.983-14.888z" fill="#e207b9"/></g></g></svg>