<svg id="Capa_1" enable-background="new 0 0 512 512" height="512" viewBox="0 0 512 512" width="512" xmlns="http://www.w3.org/2000/svg"><g><path d="m335.194 184.075c0 17.614-14.286 31.901-31.901 31.901h-94.586c-17.614 0-31.901-14.285-31.901-31.901 0-17.624 14.286-31.911 31.901-31.911h94.586c17.605 0 31.901 14.272 31.901 31.911z" fill="#7181ff"/><path d="m380.908 374.514c-140.904 61.067-172.061-20.248-241.965-7.048l51.707-46.419c11.492-10.315 18.057-25.034 18.057-40.477v-64.596h94.586v64.596c0 15.443 6.565 30.161 18.057 40.477z" fill="#a4bcff"/><path d="m385.918 368.933-59.559-53.467c-9.894-8.88-15.567-21.599-15.567-34.895v-57.821c18.15-3.513 31.901-19.515 31.901-38.676 0-21.731-17.676-39.411-39.401-39.411h-94.586c-21.726 0-39.4 17.68-39.4 39.411 0 19.161 13.75 35.163 31.9 38.676v57.821c0 13.296-5.674 26.015-15.566 34.896l-51.707 46.418c-3.083 2.767-3.338 7.509-.571 10.591 2.768 3.082 7.51 3.338 10.591.571l51.707-46.418c13.058-11.721 20.547-28.509 20.547-46.058v-57.096h79.586v57.096c0 17.549 7.489 34.337 20.548 46.058l59.559 53.466c1.432 1.286 3.223 1.919 5.007 1.919 2.056 0 4.103-.84 5.584-2.49 2.765-3.082 2.51-7.824-.573-10.591zm-177.211-160.457c-13.454 0-24.4-10.946-24.4-24.401 0-13.46 10.946-24.411 24.4-24.411h94.586c13.455 0 24.401 10.951 24.401 24.411 0 13.455-10.946 24.401-24.401 24.401z" fill="#2115c2"/><g fill="#88f8d8"><circle cx="211.761" cy="91.259" r="23.203"/><circle cx="292.31" cy="38.631" r="31.131"/><path d="m414.368 435.39c0 19.082-7.741 36.365-20.248 48.872s-29.78 20.238-48.872 20.238h-178.496c-38.174 0-69.12-30.936-69.12-69.11 0-9.813 2.091-19.394 5.992-28.161 3.921-8.767 9.652-16.72 16.951-23.275l18.368-16.488c69.904-13.201 101.061 68.115 241.965 7.048l10.516 9.441c14.599 13.11 22.944 31.81 22.944 51.435z"/></g><g><path d="m345.248 512h-178.496c-42.248 0-76.62-34.367-76.62-76.61 0-21.247 8.85-42.124 25.431-57.015l18.37-16.489c1.02-.916 2.271-1.534 3.618-1.789 28.104-5.307 50.224 3.427 73.641 12.675 37.984 15 81.034 32.003 166.734-5.139 2.686-1.165 5.809-.658 7.993 1.301l10.516 9.441c16.163 14.515 25.433 35.297 25.433 57.016 0 42.337-34.267 76.609-76.62 76.609zm-202.892-137.519-16.771 15.054c-12.766 11.466-20.452 28-20.452 45.854 0 33.972 27.643 61.61 61.62 61.61h178.495c34.043 0 61.62-27.547 61.62-61.61 0-33.701-24.839-48.849-27.414-52.103-38.269 16.038-68.816 21.659-94.238 21.66-33.388.001-57.933-9.694-79.532-18.224-21.639-8.544-40.406-15.957-63.328-12.241z" fill="#007ea8"/></g><circle cx="302.84" cy="436.875" fill="#007ea8" r="9.938"/><g><path d="m277.043 471.161h-42.088c-4.143 0-7.5-3.358-7.5-7.5s3.357-7.5 7.5-7.5h42.088c4.143 0 7.5 3.358 7.5 7.5s-3.357 7.5-7.5 7.5z" fill="#007ea8"/></g><circle cx="209.16" cy="436.875" fill="#007ea8" r="9.938"/><g><path d="m211.761 121.962c-16.93 0-30.703-13.773-30.703-30.703s13.773-30.703 30.703-30.703 30.702 13.773 30.702 30.703-13.772 30.703-30.702 30.703zm0-46.406c-8.659 0-15.703 7.044-15.703 15.703s7.044 15.703 15.703 15.703c8.658 0 15.702-7.044 15.702-15.703s-7.044-15.703-15.702-15.703z" fill="#007ea8"/></g><g><path d="m292.31 77.263c-21.301 0-38.631-17.33-38.631-38.632s17.33-38.631 38.631-38.631c21.302 0 38.632 17.33 38.632 38.632s-17.33 38.631-38.632 38.631zm0-62.263c-13.03 0-23.631 10.601-23.631 23.632s10.601 23.632 23.631 23.632 23.632-10.601 23.632-23.632-10.602-23.632-23.632-23.632z" fill="#007ea8"/></g></g></svg>