<svg id="Capa_1" enable-background="new 0 0 512 512" height="512" viewBox="0 0 512 512" width="512" xmlns="http://www.w3.org/2000/svg"><g><g><path d="m300.99 396.313v84.524c0 13.069-10.595 23.664-23.664 23.664h-39.5c-13.069 0-23.664-10.595-23.664-23.664s10.595-23.664 23.664-23.664h15.836v-60.86z" fill="#a4bcff"/></g><g><path d="m190.858 396.313v84.524c0 13.069-10.595 23.664-23.664 23.664h-39.5c-13.069 0-23.664-10.595-23.664-23.664s10.595-23.664 23.664-23.664h15.836v-60.86z" fill="#a4bcff"/></g><g><g><path d="m277.327 512h-39.5c-17.184 0-31.163-13.98-31.163-31.164s13.979-31.164 31.163-31.164h8.337v-53.36c0-4.142 3.357-4.576 7.5-4.576s7.5.434 7.5 4.576v60.86c0 4.142-3.357 7.5-7.5 7.5h-15.837c-8.912 0-16.163 7.251-16.163 16.164s7.251 16.164 16.163 16.164h39.5c8.913 0 16.164-7.251 16.164-16.164v-84.524c0-4.142 3.357-2.679 7.5-2.679s7.5-1.463 7.5 2.679v84.524c0 17.184-13.981 31.164-31.164 31.164z" fill="#2115c2"/></g></g><g><g><path d="m167.194 512h-39.5c-17.184 0-31.163-13.98-31.163-31.164s13.979-31.164 31.163-31.164h8.337v-53.36c0-4.142 3.357-4.576 7.5-4.576s7.5.434 7.5 4.576v60.86c0 4.142-3.357 7.5-7.5 7.5h-15.837c-8.912 0-16.163 7.251-16.163 16.164s7.251 16.164 16.163 16.164h39.5c8.913 0 16.164-7.251 16.164-16.164v-84.524c0-4.142 3.357-3.763 7.5-3.763s7.5-.379 7.5 3.763v84.524c0 17.184-13.98 31.164-31.164 31.164z" fill="#2115c2"/></g></g><path d="m143.531 396.313h47.327v31.621h-47.327z" fill="#2115c2"/><path d="m253.663 396.313h47.327v31.621h-47.327z" fill="#2115c2"/><path d="m351.098 201.906c0 44.034-16.95 83.41-43.582 109.591-4.129 4.062-6.526 9.558-6.526 15.342v69.473h-219.315c-11.771 0-21.31-9.538-21.31-21.31v-48.164c0-5.785 2.397-11.281 6.526-15.342 26.632-26.18 43.582-65.556 43.582-109.591s-16.95-83.41-43.582-109.591c-4.129-4.062-6.526-9.558-6.526-15.342v-48.162c0-11.771 9.538-21.31 21.31-21.31h219.315v69.473c0 5.785 2.397 11.281 6.526 15.342 26.633 26.181 43.582 65.557 43.582 109.591z" fill="#ffd600"/><path d="m445.1 92.316c-26.623 26.18-43.573 65.556-43.573 109.591s16.95 83.41 43.573 109.591c4.129 4.062 6.535 9.558 6.535 15.342v48.164c0 11.771-9.538 21.31-21.31 21.31h-129.335v-69.473c0-5.785 2.397-11.281 6.526-15.342 26.632-26.18 43.582-65.556 43.582-109.591s-16.95-83.41-43.582-109.591c-4.129-4.062-6.526-9.558-6.526-15.342v-69.475h129.335c11.771 0 21.31 9.538 21.31 21.31v48.164c0 5.784-2.406 11.28-6.535 15.342z" fill="#f90"/><circle cx="256.124" cy="59.433" fill="#f95116" r="11.705"/><circle cx="145.791" cy="59.433" fill="#f95116" r="11.705"/><g><path d="m200.958 130.229c-29.159 0-52.796 23.638-52.796 52.796v213.288h105.593v-213.288c-.001-29.159-23.639-52.796-52.797-52.796z" fill="#a4bcff"/></g><g><path d="m253.754 400.279c-4.143 0-7.5.176-7.5-3.966v-213.288c0-24.976-20.319-45.296-45.296-45.296s-45.297 20.32-45.297 45.296v213.288c0 4.142-3.357 3.124-7.5 3.124s-7.5 1.018-7.5-3.124v-213.288c0-33.247 27.049-60.296 60.297-60.296 33.247 0 60.296 27.049 60.296 60.296v213.288c0 4.142-3.357 3.966-7.5 3.966z" fill="#2115c2"/></g><g><path d="m210.583 286.509c-12.813 0-23.238-10.425-23.238-23.239s10.425-23.239 23.238-23.239 23.238 10.425 23.238 23.239-10.425 23.239-23.238 23.239zm0-31.477c-4.543 0-8.238 3.696-8.238 8.239s3.695 8.239 8.238 8.239 8.238-3.696 8.238-8.239-3.695-8.239-8.238-8.239z" fill="#2115c2"/></g><g fill="#f95116"><path d="m225.743 83.48h-49.57c-4.143 0-7.5 3.358-7.5 7.5s3.357 7.5 7.5 7.5h49.57c4.143 0 7.5-3.358 7.5-7.5s-3.358-7.5-7.5-7.5z"/><path d="m450.358 97.663c5.66-5.566 8.777-12.914 8.777-20.689v-48.164c0-15.886-12.925-28.81-28.811-28.81-17.794 0-335.27 0-348.65 0-15.886 0-28.81 12.924-28.81 28.81v48.164c0 7.781 3.113 15.128 8.768 20.691 26.272 25.825 41.34 63.82 41.34 104.242s-15.067 78.416-41.342 104.243c-5.652 5.561-8.766 12.908-8.766 20.689v48.164c0 15.886 12.924 28.81 28.81 28.81h348.65c15.886 0 28.811-12.924 28.811-28.81v-48.164c0-7.775-3.117-15.123-8.777-20.69-26.267-25.83-41.331-63.825-41.331-104.243 0-40.417 15.064-78.412 41.331-104.243zm-156.867 229.176v61.973h-211.817c-7.614 0-13.81-6.195-13.81-13.81v-48.164c0-3.728 1.521-7.277 4.283-9.994 29.122-28.627 45.824-70.521 45.824-114.939s-16.702-86.312-45.822-114.937c-2.764-2.718-4.285-6.268-4.285-9.996v-48.162c0-7.615 6.195-13.81 13.81-13.81h211.816v61.974c0 7.781 3.113 15.128 8.768 20.691 26.272 25.825 41.34 63.82 41.34 104.242s-15.067 78.417-41.342 104.244c-5.652 5.56-8.765 12.908-8.765 20.688zm150.644-249.865c0 3.721-1.525 7.271-4.295 9.995-29.115 28.632-45.813 70.525-45.813 114.938s16.698 86.307 45.813 114.938c2.77 2.724 4.295 6.274 4.295 9.995v48.164c0 7.615-6.195 13.81-13.811 13.81h-121.833v-61.973c0-3.728 1.521-7.277 4.283-9.994 29.122-28.627 45.824-70.521 45.824-114.939s-16.702-86.312-45.822-114.937c-2.764-2.718-4.285-6.268-4.285-9.996v-61.975h121.834c7.615 0 13.811 6.195 13.811 13.81v48.164z"/></g></g></svg>