<svg id="Capa_1" enable-background="new 0 0 512 512" height="512" viewBox="0 0 512 512" width="512" xmlns="http://www.w3.org/2000/svg"><g><path d="m337.147 69.929 104.94 104.94c4.757 4.757 7.828 10.558 9.229 16.665l40.328-40.328c17.148-17.148 17.148-44.949 0-62.097l-68.737-68.737c-17.148-17.148-44.949-17.148-62.097 0l-40.328 40.328c6.107 1.401 11.908 4.472 16.665 9.229z" fill="#ff9bff"/><path d="m170.295 472.553s-29.057 8.903-64.359 19.721l-86.187-86.187 19.714-64.367 26.297 6.407c16.161 3.934 28.778 16.55 32.712 32.712 1.967 8.073 6.106 15.266 11.772 20.932s12.859 9.805 20.932 11.772 15.273 6.099 20.939 11.765 9.798 12.866 11.772 20.947c3.208 13.145 6.408 26.298 6.408 26.298z" fill="#ff9bff"/><path d="m409.912 232.935-239.617 239.618s-3.2-13.152-6.407-26.297c-1.974-8.081-6.106-15.281-11.772-20.947s-12.866-9.798-20.939-11.765-15.266-6.106-20.932-11.772-9.805-12.859-11.772-20.932c-3.934-16.161-16.55-28.778-32.712-32.712l-26.297-6.407 239.617-239.617c1.394 6.106 4.47 11.912 9.226 16.668l104.937 104.938c4.756 4.756 10.562 7.831 16.668 9.225z" fill="#ffd600"/><path d="m442.086 174.868-104.94-104.94c-13.487-13.487-35.353-13.487-48.839 0-13.487 13.487-13.487 35.352 0 48.839l104.94 104.94c13.487 13.487 35.353 13.487 48.839 0 13.487-13.486 13.487-35.352 0-48.839z" fill="#b98eff"/><ellipse cx="257.993" cy="254.022" fill="#9448f5" rx="64.876" ry="41.29" transform="matrix(.707 -.707 .707 .707 -104.056 256.83)"/><circle cx="461.057" cy="114.966" fill="#e207b9" r="9.603"/><g><path d="m419.827 120.945-28.757-28.757c-2.929-2.929-2.929-7.677 0-10.606 2.93-2.929 7.678-2.928 10.607 0l28.757 28.757c2.928 2.929 2.928 7.677 0 10.606-2.93 2.928-7.678 2.929-10.607 0z" fill="#e207b9"/></g><circle cx="397.049" cy="50.958" fill="#e207b9" r="9.603"/><g><path d="m446.012 196.836c-2.928-2.929-2.928-7.677 0-10.606l40.327-40.327c14.196-14.196 14.196-37.295 0-51.491l-68.737-68.736c-14.228-14.229-37.26-14.231-51.49 0l-40.327 40.328c-2.929 2.929-7.677 2.929-10.607 0-2.929-2.929-2.929-7.677 0-10.606l40.327-40.328c20.092-20.091 52.609-20.093 72.703 0l68.737 68.737c20.044 20.044 20.044 52.659 0 72.703l-40.327 40.328c-2.928 2.926-7.676 2.927-10.606-.002z" fill="#e207b9"/></g><g><path d="m170.295 480.052c-1.919 0-3.839-.732-5.303-2.197-2.929-2.929-2.929-7.677 0-10.606l239.617-239.617c2.93-2.929 7.677-2.929 10.607 0 2.929 2.929 2.929 7.677 0 10.606l-239.618 239.618c-1.464 1.464-3.384 2.196-5.303 2.196z" fill="#f95116"/></g><g><path d="m39.462 349.22c-1.92 0-3.839-.732-5.303-2.197-2.929-2.929-2.929-7.677 0-10.606l239.618-239.617c2.93-2.929 7.678-2.928 10.607 0 2.929 2.929 2.929 7.677 0 10.606l-239.619 239.617c-1.465 1.464-3.384 2.197-5.303 2.197z" fill="#f95116"/></g><g><path d="m387.944 229.01-104.939-104.94c-16.427-16.427-16.43-43.016.001-59.445 16.427-16.427 43.014-16.429 59.444 0l104.94 104.94c16.389 16.389 16.389 43.056 0 59.445-16.39 16.388-43.055 16.391-59.446 0zm-94.333-153.778c-10.566 10.565-10.568 27.666-.001 38.233l104.94 104.94c10.566 10.566 27.666 10.566 38.232 0 10.566-10.565 10.569-27.665.001-38.233l-104.94-104.94c-10.565-10.566-27.665-10.567-38.232 0z" fill="#6d00ca"/></g><g><path d="m234.817 315.924c-11.248 0-20.929-3.653-28.001-10.725-9.675-9.676-12.952-24.24-9.227-41.01 3.456-15.554 12.655-31.417 25.905-44.666 28.699-28.697 66.332-36.024 85.677-16.678 19.344 19.346 12.019 56.979-16.679 85.676-13.249 13.249-29.112 22.449-44.666 25.904-4.512 1.003-8.868 1.499-13.009 1.499zm46.307-108.793c-14.235 0-32.314 8.288-47.023 22.997-11.258 11.258-19.024 24.509-21.869 37.313-2.575 11.587-.731 21.23 5.191 27.152 5.921 5.922 15.566 7.765 27.151 5.191 12.804-2.845 26.055-10.611 37.312-21.868 21.993-21.991 29.63-51.512 16.679-64.464-4.289-4.29-10.395-6.321-17.441-6.321z" fill="#6d00ca"/></g><g><path d="m98.765 494.471c-1.214-3.96 1.013-8.154 4.973-9.368l57.598-17.649c-1.227-5.04-2.979-12.231-4.734-19.421-3.297-13.494-13.781-23.934-27.201-27.203-18.861-4.595-33.616-19.339-38.215-38.216-3.285-13.494-13.707-23.916-27.198-27.2l-19.425-4.733-17.642 57.602c-1.213 3.96-5.41 6.188-9.367 4.975-3.961-1.213-6.187-5.407-4.974-9.367l19.714-64.367c1.163-3.798 5.085-6.03 8.946-5.09l26.298 6.407c18.96 4.615 33.607 19.262 38.223 38.224 3.269 13.417 13.763 23.92 27.193 27.192 18.581 4.527 33.525 19 38.222 38.218 3.209 13.15 6.409 26.304 6.409 26.304.939 3.859-1.293 7.78-5.09 8.943l-64.36 19.721c-3.964 1.216-8.157-1.013-9.37-4.972z" fill="#e207b9"/></g><path d="m105.935 492.274c-10.422 3.185-21.387 6.547-32.308 9.894-39.141 11.985-75.765-24.639-63.772-63.788l9.894-32.293z" fill="#9448f5"/><g><path d="m17.263 494.752c-15.588-15.59-21.038-37.484-14.578-58.568l9.893-32.293c1.658-5.415 8.49-7.092 12.474-3.106l86.187 86.187c3.99 3.991 2.3 10.821-3.111 12.475-9.891 3.023-21.009 6.431-32.303 9.892-21.209 6.492-43.068.909-58.562-14.587zm6.003-74.542-6.24 20.367c-4.805 15.685-.752 31.973 10.844 43.569 11.595 11.596 27.88 15.652 43.562 10.85 7.327-2.245 14.081-4.315 20.378-6.243z" fill="#6d00ca"/></g></g></svg>