<svg id="Capa_1" enable-background="new 0 0 512 512" height="512" viewBox="0 0 512 512" width="512" xmlns="http://www.w3.org/2000/svg"><g><path d="m203.411 200.004h-81.974c-53.076 0-96.261-43.176-96.261-96.252-.001-53.076 43.184-96.252 96.261-96.252h81.974c-53.076 0-96.261 43.176-96.261 96.252s43.185 96.252 96.261 96.252z" fill="#565eec"/><path d="m395.922 103.752c0-24.178 19.665-43.843 43.843-43.843h-236.354c-24.178 0-43.843 19.665-43.843 43.843s19.665 43.843 43.843 43.843h5.816v-20.044c0-13.144 10.655-23.799 23.799-23.799h45.242c13.144 0 23.799 10.655 23.799 23.799v20.044h137.698c-24.178 0-43.843-19.665-43.843-43.843z" fill="#a4bcff"/><g><g><path d="m209.227 147.595h-5.816c-24.178 0-43.843-19.665-43.843-43.843s19.665-43.843 43.843-43.843h236.354c14.467 0 26.205-11.729 26.205-26.205s-11.738-26.205-26.205-26.205h-236.354c-53.076 0-96.261 43.176-96.261 96.252s43.185 96.252 96.261 96.252h5.816z" fill="#7181ff"/></g><g><path d="m439.765 147.595h-137.698v52.41h137.698c14.467 0 26.205-11.729 26.205-26.205s-11.738-26.205-26.205-26.205z" fill="#7181ff"/></g></g><path d="m439.765 140.095c-20.039 0-36.343-16.303-36.343-36.343s16.304-36.343 36.343-36.343c18.585 0 33.704-15.12 33.704-33.705s-15.119-33.704-33.704-33.704c-72.852 0-287.48 0-318.328 0-57.215 0-103.762 46.543-103.762 103.752s46.547 103.752 103.762 103.752c4.143 0 7.5-3.358 7.5-7.5s-3.357-7.5-7.5-7.5c-48.943 0-88.762-39.814-88.762-88.752s39.819-88.752 88.762-88.752h28.279c-29.158 17.23-50.066 50.721-50.066 88.752 0 57.104 46.422 103.752 103.761 103.752h5.816c4.143 0 4.245-3.358 4.245-7.5s-.102-7.5-4.245-7.5h-5.816c-49.181 0-88.761-40.02-88.761-88.752 0-49.151 39.975-88.752 88.761-88.752h236.354c10.313 0 18.704 8.391 18.704 18.705s-8.391 18.705-18.704 18.705h-236.354c-28.468 0-51.343 23.191-51.343 51.343 0 28.311 23.032 51.343 51.343 51.343h5.816c4.134 0 5.846-3.348 5.846-7.5l.673-20.043c0-8.987 8.293-18.169 17.28-18.169l45.242.404c8.987 0 17.81 8.778 17.81 17.765l-.404 20.043c0 4.142 2.25 7.5 6.392 7.5h137.698c10.313 0 18.704 8.391 18.704 18.705 0 10.313-8.391 18.705-18.704 18.705h-44.914c-4.143 0-7.5 3.358-7.5 7.5s3.357 7.5 7.5 7.5h44.915c18.585 0 33.704-15.12 33.704-33.705s-15.119-33.706-33.704-33.706zm-130.198 0-1.916-12.543c0-17.258-12.125-29.606-29.382-29.606l-45.242.538c-17.258 0-29.615 11.81-29.615 29.068l-1.684 12.501c-19.482-.928-34.659-17.016-34.659-36.3 0-20.04 16.304-36.343 36.343-36.343h200.122c-9.329 9.301-15.11 22.16-15.11 36.343s5.781 27.042 15.11 36.343h-93.967z" fill="#2115c2"/><g><path d="m312.337 392.509v87.495c0 13.528-10.967 24.495-24.495 24.495h-40.889c-13.528 0-24.495-10.967-24.495-24.495s10.967-24.495 24.495-24.495h16.393v-63z" fill="#f90"/></g><g><path d="m198.333 392.509v87.495c0 13.528-10.967 24.495-24.495 24.495h-40.889c-13.528 0-24.495-10.967-24.495-24.495s10.967-24.495 24.495-24.495h16.393v-63z" fill="#f90"/></g><path d="m308.589 392.509h81.974c53.076 0 96.261-43.176 96.261-96.252s-43.185-96.252-96.261-96.252h-81.974c53.076 0 96.261 43.176 96.261 96.252s-43.185 96.252-96.261 96.252z" fill="#f90"/><path d="m72.235 340.1h236.354c24.178 0 43.843-19.665 43.843-43.843s-19.665-43.843-43.843-43.843h-236.354c24.178 0 43.843 19.665 43.843 43.843s-19.665 43.843-43.843 43.843z" fill="#ffff6f"/><path d="m308.589 200.004h-6.522v14.436c0 6.86-7.444 11.133-13.367 7.673l-28.571-16.687c-2.769-1.617-6.194-1.617-8.963 0l-28.571 16.687c-5.924 3.46-13.367-.813-13.367-7.673v-14.436h-136.993c-14.467 0-26.205 11.729-26.205 26.205s11.738 26.205 26.205 26.205h236.354c24.178 0 43.843 19.665 43.843 43.843s-19.665 43.843-43.843 43.843h-236.354c-14.467 0-26.205 11.729-26.205 26.205s11.738 26.205 26.205 26.205h236.354c53.076 0 96.261-43.176 96.261-96.252.001-53.077-43.185-96.254-96.261-96.254z" fill="#ffd600"/><g fill="#f95116"><path d="m149.342 392.509h48.991v32.733h-48.991z"/><path d="m263.346 392.509h48.991v32.733h-48.991z"/><circle cx="274.022" cy="284.392" r="10.308"/><circle cx="176.859" cy="284.392" r="10.308"/><g><path d="m247.267 304.673h-43.653c-4.143 0-7.5 3.358-7.5 7.5s3.357 7.5 7.5 7.5h43.653c4.143 0 7.5-3.358 7.5-7.5s-3.357-7.5-7.5-7.5z"/><path d="m390.564 192.504c-8.312 0-73.423 0-88.497 0-4.143 0-2.4 3.358-2.4 7.5s-1.742 7.5 2.4 7.5h6.522c9.941 0 19.506 1.643 28.438 4.671 35.681 12.096 60.323 45.743 60.323 84.082 0 49.038-39.923 88.752-88.761 88.752-78.162 0-165.409 0-236.354 0-10.313 0-18.704-8.391-18.704-18.705s8.39-18.704 18.704-18.704h236.354c28.31 0 51.343-23.031 51.343-51.343 0-28.361-23.079-51.343-51.343-51.343h-236.354c-10.313 0-18.704-8.391-18.704-18.705 0-10.313 8.391-18.705 18.704-18.705h136.992c4.143 0 4.245-3.358 4.245-7.5s-.102-7.5-4.245-7.5h-136.992c-18.585 0-33.704 15.12-33.704 33.705s15.119 33.705 33.704 33.705c20.039 0 36.343 16.303 36.343 36.343s-16.304 36.343-36.343 36.343c-18.585 0-33.704 15.12-33.704 33.705s15.119 33.705 33.704 33.705h69.607v48h-8.893c-17.643 0-31.996 14.353-31.996 31.996 0 17.642 14.354 31.996 31.996 31.996h40.888c17.643 0 31.996-14.354 31.996-31.996v-79.996h50.013v48h-8.893c-17.643 0-31.996 14.353-31.996 31.996 0 17.642 14.354 31.996 31.996 31.996h40.889c17.643 0 31.995-14.354 31.995-31.996v-79.996h70.727c57.214 0 103.761-46.543 103.761-103.752s-46.547-103.754-103.761-103.754zm-266.986 103.753c0-14.183-5.781-27.042-15.11-36.343h200.122c20.125 0 36.343 16.385 36.343 36.343 0 20.158-16.434 36.343-36.343 36.343h-200.123c9.329-9.302 15.111-22.161 15.111-36.343zm67.255 183.747c0 9.371-7.624 16.996-16.996 16.996h-40.887c-9.372 0-16.996-7.625-16.996-16.996 0-9.372 7.624-16.996 16.996-16.996h16.393c4.143 0 7.5-3.358 7.5-7.5v-55.5h33.991v79.996zm114.004 0c0 9.371-7.624 16.996-16.995 16.996h-40.889c-9.372 0-16.996-7.625-16.996-16.996 0-9.372 7.624-16.996 16.996-16.996h16.393c4.143 0 7.5-3.358 7.5-7.5v-55.5h33.991zm85.727-94.995h-28.28c29.319-17.325 50.066-51.518 50.066-88.751 0-37.653-20.582-71.33-50.066-88.752h28.28c48.942 0 88.761 39.814 88.761 88.752 0 48.937-39.819 88.751-88.761 88.751z"/></g></g><path d="m278.268 103.752h-45.242c-13.144 0-23.799 10.655-23.799 23.799v86.889c0 6.86 7.444 11.133 13.367 7.673l28.571-16.687c2.769-1.617 6.194-1.617 8.963 0l28.571 16.687c5.924 3.46 13.367-.813 13.367-7.673v-86.889c.001-13.144-10.654-23.799-23.798-23.799z" fill="#ff63ed"/><g><path d="m201.727 214.44v-86.889c0-17.258 14.041-31.299 31.299-31.299h45.242c17.258 0 31.299 14.041 31.299 31.299v86.889c0 12.647-13.716 20.535-24.649 14.15l-28.571-16.687c-.432-.252-.968-.252-1.397 0l-28.572 16.687c-10.96 6.401-24.651-1.521-24.651-14.15zm62.185-15.49 28.57 16.687c.932.545 2.085-.116 2.085-1.197v-86.889c0-8.987-7.312-16.299-16.299-16.299h-45.242c-8.987 0-16.299 7.312-16.299 16.299v86.889c0 1.077 1.148 1.743 2.085 1.197l28.571-16.687c5.096-2.977 11.429-2.978 16.529 0z" fill="#e207b9"/></g></g></svg>