<svg id="Capa_1" enable-background="new 0 0 512 512" height="512" viewBox="0 0 512 512" width="512" xmlns="http://www.w3.org/2000/svg"><g><path d="m499.93 274.041v41.723c0 34.953-28.338 63.281-63.281 63.281h-361.298c-34.953 0-63.281-28.328-63.281-63.281v-41.723z" fill="#b98eff"/><path d="m195.996 379.045h120.007v68.777h-120.007z" fill="#7181ff"/><path d="m332.604 447.822h-153.208c-17.445 0-31.587 14.142-31.587 31.587 0 13.857 11.234 25.091 25.091 25.091h166.2c13.857 0 25.091-11.234 25.091-25.091 0-17.445-14.142-31.587-31.587-31.587z" fill="#a4bcff"/><circle cx="256" cy="326.543" fill="#9448f5" r="20.372"/><path d="m499.93 70.771v203.27h-51.599v-203.27c0-6.44-5.242-11.672-11.682-11.672h-361.298c-6.44 0-11.682 5.232-11.682 11.672v203.27h-51.599v-203.27c0-34.943 28.328-63.271 63.281-63.271h361.298c34.943 0 63.281 28.328 63.281 63.271z" fill="#7181ff"/><path d="m448.331 70.771v203.27h-384.662v-203.27c0-6.44 5.242-11.672 11.682-11.672h361.298c6.439 0 11.682 5.232 11.682 11.672z" fill="#88f8d8"/><circle cx="313.678" cy="158.245" fill="#007ea8" r="12.238"/><g><path d="m281.914 198.729h-51.827c-4.143 0-7.5-3.358-7.5-7.5s3.357-7.5 7.5-7.5h51.827c4.143 0 7.5 3.358 7.5 7.5s-3.358 7.5-7.5 7.5z" fill="#007ea8"/></g><circle cx="198.322" cy="158.245" fill="#007ea8" r="12.238"/><g><path d="m256 354.415c-15.368 0-27.871-12.503-27.871-27.872s12.503-27.872 27.871-27.872c15.369 0 27.872 12.503 27.872 27.872s-12.503 27.872-27.872 27.872zm0-40.744c-7.097 0-12.871 5.774-12.871 12.872s5.774 12.872 12.871 12.872c7.098 0 12.872-5.774 12.872-12.872s-5.775-12.872-12.872-12.872z" fill="#6d00ca"/></g><circle cx="256" cy="33.3" fill="#2115c2" r="7.881"/><g fill="#2115c2"><path d="m332.604 440.322h-9.101v-61.277c0-4.142-3.357-4.049-7.5-4.049s-7.5-.093-7.5 4.049v61.277h-105.006v-61.277c0-4.142-3.357-5.269-7.5-5.269s-7.5 1.127-7.5 5.269v61.277h-9.101c-21.553 0-39.087 17.534-39.087 39.087 0 17.971 14.62 32.591 32.591 32.591h166.2c17.971 0 32.591-14.62 32.591-32.591 0-21.553-17.534-39.087-39.087-39.087zm6.496 56.678h-166.2c-9.699 0-17.591-7.891-17.591-17.591 0-13.282 10.806-24.087 24.087-24.087h153.208c13.281 0 24.087 10.805 24.087 24.087 0 9.7-7.892 17.591-17.591 17.591z"/><path d="m436.649 0h-361.298c-39.029 0-70.781 31.748-70.781 70.771v203.27c0 4.142 3.357 7.5 7.5 7.5s7.5-3.358 7.5-7.5v-203.27c0-30.752 25.023-55.771 55.781-55.771h361.298c30.758 0 55.781 25.019 55.781 55.771v203.27c0 4.142 3.357 7.5 7.5 7.5s7.5-3.358 7.5-7.5v-203.27c0-39.023-31.752-70.771-70.781-70.771z"/></g><g><path d="m448.331 276.516c-4.143 0-7.5 1.667-7.5-2.475v-203.27c0-2.3-1.876-4.172-4.182-4.172h-361.298c-2.306 0-4.182 1.871-4.182 4.172v203.27c0 4.142-3.357 2.785-7.5 2.785s-7.5 1.357-7.5-2.785v-203.27c0-10.571 8.604-19.172 19.182-19.172h361.298c10.577 0 19.182 8.6 19.182 19.172v203.27c0 4.142-3.358 2.475-7.5 2.475z" fill="#007ea8"/></g><g><path d="m436.649 386.545h-361.298c-39.029 0-70.781-31.752-70.781-70.781v-41.723c0-4.142 3.357-7.5 7.5-7.5h487.86c4.143 0 7.5 3.358 7.5 7.5v41.723c0 39.029-31.752 70.781-70.781 70.781zm-417.079-105.004v34.223c0 30.758 25.023 55.781 55.781 55.781h361.298c30.758 0 55.781-25.023 55.781-55.781v-34.223z" fill="#6d00ca"/></g></g></svg>