<svg id="Capa_1" enable-background="new 0 0 512 512" height="512" viewBox="0 0 512 512" width="512" xmlns="http://www.w3.org/2000/svg"><g><g><path d="m281.1 380.824v86.157c0 13.321-10.799 24.121-24.121 24.121h-40.263c-13.321 0-24.121-10.799-24.121-24.121 0-13.321 10.799-24.121 24.121-24.121h16.142v-62.036z" fill="#b98eff"/></g><g><path d="m168.84 380.824v86.157c0 13.321-10.799 24.121-24.121 24.121h-40.263c-13.321 0-24.121-10.799-24.121-24.121 0-13.321 10.799-24.121 24.121-24.121h16.142v-62.036z" fill="#b98eff"/></g><path d="m412.767 419.204-.021-.005c-7.634-1.641-15.487 1.613-19.725 8.172-7.4 11.455-24.156 11.455-31.556 0-4.237-6.559-12.09-9.813-19.724-8.172l-.022.005c-5.079 1.091-9.94.043-13.856-2.405v64.301c0 7.243 7.467 12.079 14.077 9.116l31.217-13.994c2.6-1.165 5.573-1.165 8.173 0l31.217 13.994c6.61 2.963 14.077-1.873 14.077-9.116v-64.301c-3.917 2.448-8.778 3.496-13.857 2.405z" fill="#7181ff"/><path d="m457.685 20.89h-403.371c-25.855 0-46.814 20.96-46.814 46.815v266.229c0 25.855 20.96 46.815 46.815 46.815h261.027c-1.167-1.37-2.536-2.591-4.101-3.601-11.455-7.4-11.455-24.156 0-31.556 6.559-4.237 9.813-12.09 8.172-19.724l-.005-.022c-2.864-13.33 8.981-25.175 22.311-22.311l.021.005c7.634 1.641 15.487-1.613 19.725-8.172 7.4-11.455 24.156-11.455 31.556 0 4.237 6.559 12.09 9.813 19.724 8.172l.022-.005c13.33-2.864 25.175 8.981 22.311 22.311l-.005.021c-1.641 7.634 1.613 15.487 8.172 19.724 11.455 7.4 11.455 24.156 0 31.556-1.564 1.01-2.934 2.231-4.101 3.601h18.54c25.855 0 46.815-20.96 46.815-46.815v-266.228c.001-25.855-20.959-46.815-46.814-46.815z" fill="#ffff6f"/><path d="m443.246 345.591c-6.559-4.237-9.813-12.09-8.172-19.725l.005-.021c2.865-13.33-8.981-25.176-22.311-22.311l-.022.005c-7.634 1.64-15.487-1.613-19.724-8.172-7.4-11.455-24.156-11.455-31.556 0-4.237 6.559-12.09 9.813-19.725 8.172l-.021-.005c-13.33-2.865-25.176 8.981-22.311 22.311l.005.022c1.64 7.634-1.613 15.487-8.172 19.724-11.455 7.4-11.455 24.156 0 31.556 6.559 4.237 9.813 12.09 8.172 19.725l-.005.021c-2.865 13.33 8.981 25.176 22.311 22.311l.022-.005c7.634-1.64 15.487 1.613 19.724 8.172 7.4 11.455 24.156 11.455 31.556 0 4.237-6.559 12.09-9.813 19.725-8.172l.021.005c13.33 2.865 25.176-8.981 22.311-22.311l-.005-.022c-1.64-7.634 1.613-15.487 8.172-19.724 11.455-7.4 11.455-24.156 0-31.556z" fill="#ff9bff"/><g><g><path d="m256.979 498.601h-40.264c-17.436 0-31.62-14.185-31.62-31.621s14.185-31.621 31.62-31.621h8.643v-54.536c0-4.142 3.358-4.126 7.5-4.126s7.5-.016 7.5 4.126v62.036c0 4.142-3.357 7.5-7.5 7.5h-16.143c-9.164 0-16.62 7.456-16.62 16.621s7.456 16.621 16.62 16.621h40.264c9.165 0 16.621-7.456 16.621-16.621v-86.157c0-4.142 3.357-2.269 7.5-2.269s7.5-1.873 7.5 2.269v86.157c.001 17.436-14.185 31.621-31.621 31.621z" fill="#6d00ca"/></g></g><g><g><path d="m144.719 498.601h-40.263c-17.436 0-31.621-14.185-31.621-31.621s14.186-31.621 31.621-31.621h8.643v-54.536c0-4.142 3.357-3.755 7.5-3.755s7.5-.387 7.5 3.755v62.036c0 4.142-3.357 7.5-7.5 7.5h-16.143c-9.165 0-16.621 7.456-16.621 16.621s7.456 16.621 16.621 16.621h40.263c9.165 0 16.621-7.456 16.621-16.621v-86.157c0-4.142 3.357-4.126 7.5-4.126s7.5-.016 7.5 4.126v86.157c0 17.436-14.186 31.621-31.621 31.621z" fill="#6d00ca"/></g></g><path d="m120.598 380.824h48.242v32.232h-48.242z" fill="#6d00ca"/><path d="m232.859 380.824h48.242v32.232h-48.242z" fill="#6d00ca"/><circle cx="313.473" cy="94.091" fill="#f95116" r="12.194"/><g><path d="m281.821 134.457h-51.643c-4.143 0-7.5-3.358-7.5-7.5s3.357-7.5 7.5-7.5h51.643c4.143 0 7.5 3.358 7.5 7.5s-3.357 7.5-7.5 7.5z" fill="#f95116"/></g><circle cx="198.526" cy="94.091" fill="#f95116" r="12.194"/><g><path d="m320.363 481.1v-64.302c0-4.142 3.357-3.742 7.5-3.742s7.5-.4 7.5 3.742v64.302c0 1.815 1.862 3.012 3.508 2.273l31.218-13.994c4.547-2.038 9.763-2.038 14.31 0l31.217 13.993c1.65.742 3.508-.464 3.508-2.272v-64.301c0-4.142 3.418-3.742 7.561-3.742s7.439-.4 7.439 3.742v64.301c0 12.656-13.054 21.154-24.645 15.96l-31.217-13.993c-.646-.29-1.39-.29-2.038 0l-31.217 13.993c-11.575 5.19-24.644-3.293-24.644-15.96z" fill="#2115c2"/></g><g><path d="m457.685 388.248h-18.54c-4.143 0-5.021-3.282-5.021-7.424s.879-7.576 5.021-7.576h18.54c21.679 0 39.315-17.636 39.315-39.315v-266.228c0-21.678-17.637-39.315-39.315-39.315h-403.371c-21.677 0-39.314 17.637-39.314 39.315v266.229c0 21.678 17.637 39.315 39.314 39.315h261.027c4.143 0 3.358 3.358 3.358 7.5s.785 7.5-3.358 7.5h-261.027c-29.949-.001-54.314-24.366-54.314-54.316v-266.228c0-29.949 24.365-54.315 54.314-54.315h403.37c29.95 0 54.316 24.366 54.316 54.315v266.229c0 29.949-24.366 54.314-54.315 54.314z" fill="#f95116"/></g><g><path d="m355.165 431.441c-2.53-3.916-7.289-5.889-11.85-4.91-18.721 4.021-35.237-12.608-31.24-31.215.009-.038.017-.076.025-.114.959-4.465-1.014-9.227-4.93-11.756-16.035-10.358-16.013-33.813 0-44.156 3.916-2.53 5.889-7.292 4.909-11.849-4.03-18.758 12.645-35.232 31.216-31.241 4.577.984 9.341-.989 11.869-4.905 10.361-16.037 33.811-16.012 44.156 0 2.53 3.916 7.288 5.889 11.85 4.91 18.656-4.01 35.251 12.545 31.24 31.215-.008.035-.016.07-.023.105-.961 4.474 1.013 9.236 4.928 11.766 16.032 10.356 16.015 33.811 0 44.156-3.916 2.53-5.889 7.292-4.909 11.849 4.029 18.754-12.641 35.233-31.215 31.241-.026-.006-.073-.016-.1-.022-4.476-.961-9.241 1.011-11.771 4.927-10.359 16.035-33.81 16.011-44.155-.001zm12.6-8.14c4.43 6.856 14.48 6.93 18.957 0 5.893-9.12 16.983-13.717 27.6-11.435.026.006.073.016.1.022 7.828 1.681 15.067-5.309 13.324-13.42-2.286-10.637 2.31-21.729 11.43-27.621 6.853-4.426 6.934-14.478.002-18.957-9.121-5.891-13.717-16.983-11.437-27.599.008-.035.016-.07.023-.105 1.684-7.843-5.327-15.057-13.421-13.319-10.632 2.285-21.728-2.309-27.621-11.43-4.429-6.856-14.48-6.93-18.957 0-5.894 9.121-16.989 13.715-27.601 11.435-8.077-1.739-15.141 5.404-13.423 13.398 2.286 10.637-2.31 21.729-11.43 27.621-6.853 4.426-6.934 14.478-.002 18.957 9.122 5.892 13.718 16.984 11.437 27.6-.009.038-.017.076-.025.114-1.679 7.819 5.319 15.052 13.423 13.31 10.625-2.285 21.722 2.299 27.621 11.429z" fill="#e207b9"/></g><g><path d="m419.184 185.61h-326.369c-4.143 0-7.5-3.358-7.5-7.5s3.357-7.5 7.5-7.5h326.368c4.143 0 7.5 3.358 7.5 7.5s-3.357 7.5-7.499 7.5z" fill="#f95116"/></g><g><path d="m419.184 250.424h-326.369c-4.143 0-7.5-3.358-7.5-7.5s3.357-7.5 7.5-7.5h326.368c4.143 0 7.5 3.358 7.5 7.5s-3.357 7.5-7.499 7.5z" fill="#f95116"/></g><g><path d="m181.989 331.667h-89.174c-4.143 0-7.5-3.358-7.5-7.5s3.357-7.5 7.5-7.5h89.174c4.143 0 7.5 3.358 7.5 7.5s-3.357 7.5-7.5 7.5z" fill="#f95116"/></g></g></svg>