<svg id="Capa_1" enable-background="new 0 0 512 512" height="512" viewBox="0 0 512 512" width="512" xmlns="http://www.w3.org/2000/svg"><g><g><path d="m279.705 7.5h-47.411c-10.392 0-18.816 8.424-18.816 18.816 0 10.392 8.424 18.816 18.816 18.816h47.411c10.392 0 18.816-8.424 18.816-18.816.001-10.392-8.424-18.816-18.816-18.816z" fill="#ff9bff"/></g><path d="m256 81.878c8.031 0 15.925.579 23.654 1.673v-38.418h-47.307v38.419c7.728-1.095 15.622-1.674 23.653-1.674z" fill="#ff63ed"/><path d="m306.021 26.316c0-14.51-11.805-26.316-26.315-26.316h-47.411c-14.511 0-26.316 11.806-26.316 26.316 0 11.924 7.975 22.015 18.868 25.236v31.999c0 4.142 3.357 7.5 7.5 7.5s7.5-3.358 7.5-7.5v-30.919h32.307v30.919c0 4.142 3.357 7.5 7.5 7.5s7.5-3.358 7.5-7.5v-31.998c10.893-3.221 18.867-13.312 18.867-25.237zm-26.315 11.316h-.053-47.307-.052c-6.24 0-11.316-5.076-11.316-11.316s5.076-11.316 11.316-11.316h47.411c6.239 0 11.315 5.077 11.315 11.316s-5.075 11.316-11.314 11.316z" fill="#e207b9"/><circle cx="256" cy="249.084" fill="#f90" r="167.206"/><circle cx="256" cy="249.084" fill="#ff63ed" r="124.8"/><path d="m256 226.235c6.284 0 11.975 2.538 16.106 6.643.247-1.136.386-2.312.386-3.522v-54.992c0-9.108-7.383-16.491-16.491-16.491s-16.492 7.383-16.492 16.491v54.992c0 1.21.139 2.386.386 3.522 4.13-4.105 9.821-6.643 16.105-6.643z" fill="#b98eff"/><path d="m330.719 232.593h-54.993c-1.21 0-2.386.139-3.521.386 4.105 4.131 6.644 9.822 6.644 16.106s-2.538 11.975-6.643 16.106c1.136.247 2.312.386 3.521.386h54.993c9.108 0 16.491-7.383 16.491-16.492s-7.384-16.492-16.492-16.492z" fill="#b98eff"/><circle cx="256" cy="249.084" fill="#ff9bff" r="22.85"/><path d="m96.709 89.793c7.173-7.173 15.51-12.462 24.398-15.903-5.015-9.382-14.901-15.767-26.283-15.767-16.45 0-29.786 13.336-29.786 29.786 0 11.381 6.386 21.268 15.767 26.283 3.442-8.889 8.731-17.226 15.904-24.399z" fill="#ffff6f"/><path d="m98.889 191.737c16.872-46.212 53.552-82.891 99.764-99.764-.669-.73-1.358-1.457-2.081-2.18-27.576-27.576-72.286-27.576-99.862 0s-27.576 72.286 0 99.862c.722.724 1.449 1.413 2.179 2.082z" fill="#ffd600"/><path d="m415.291 89.793c-7.173-7.173-15.51-12.462-24.398-15.903 5.015-9.382 14.901-15.767 26.283-15.767 16.45 0 29.786 13.336 29.786 29.786 0 11.381-6.386 21.268-15.767 26.283-3.442-8.889-8.732-17.226-15.904-24.399z" fill="#ffff6f"/><path d="m413.111 191.737c-16.872-46.212-53.552-82.891-99.764-99.764.669-.73 1.358-1.457 2.081-2.18 27.576-27.576 72.286-27.576 99.862 0s27.576 72.286 0 99.862c-.722.724-1.45 1.413-2.179 2.082z" fill="#ffd600"/><path d="m281.666 414.331v40.453h-16.636c-13.729 0-24.858 11.13-24.858 24.858 0 13.729 11.13 24.858 24.858 24.858h41.494c13.729 0 24.858-11.129 24.858-24.858v-81.276c-15.362 7.772-32.083 13.248-49.716 15.965z" fill="#b98eff"/><path d="m245.757 415.969c-17.427-1.053-34.133-4.774-49.716-10.763v49.577h-16.636c-13.729 0-24.858 11.13-24.858 24.858 0 13.729 11.13 24.858 24.858 24.858h41.494c9.6 0 17.924-5.446 22.065-13.414-1.781-3.426-2.793-7.316-2.793-11.444 0-5.954 2.095-11.416 5.586-15.697z" fill="#b98eff"/><g><path d="m256 381.384c-72.95 0-132.3-59.349-132.3-132.3s59.35-132.3 132.3-132.3 132.3 59.349 132.3 132.3-59.35 132.3-132.3 132.3zm0-249.599c-64.68 0-117.3 52.62-117.3 117.3 0 64.679 52.62 117.3 117.3 117.3s117.3-52.62 117.3-117.3c-.001-64.68-52.621-117.3-117.3-117.3z" fill="#e207b9"/></g><path d="m330.719 225.093h-50.729v-50.728c0-13.229-10.763-23.991-23.991-23.991s-23.991 10.763-23.991 23.991v54.992c0 1.696.188 3.417.558 5.116.88 4.046 4.864 6.615 8.923 5.734 4.047-.88 6.614-4.875 5.733-8.923-.142-.653-.214-1.302-.214-1.927v-54.992c0-4.958 4.033-8.991 8.991-8.991s8.991 4.034 8.991 8.991v54.992c0 .625-.072 1.274-.214 1.927-1.161 5.332 3.698 10.185 9.024 9.023.652-.143 1.301-.214 1.926-.214h54.992c4.958 0 8.991 4.034 8.991 8.992s-4.033 8.991-8.991 8.991h-54.992c-.625 0-1.273-.072-1.927-.214-4.044-.88-8.042 1.687-8.923 5.734s1.686 8.042 5.733 8.923c1.699.37 3.42.558 5.116.558h54.992c13.229 0 23.991-10.763 23.991-23.991.003-13.231-10.76-23.993-23.989-23.993z" fill="#6d00ca"/><g><path d="m256 279.434c-16.734 0-30.35-13.615-30.35-30.349s13.615-30.349 30.35-30.349 30.35 13.615 30.35 30.349-13.616 30.349-30.35 30.349zm0-45.699c-8.464 0-15.35 6.886-15.35 15.349s6.886 15.349 15.35 15.349 15.35-6.886 15.35-15.349-6.887-15.349-15.35-15.349z" fill="#e207b9"/></g><circle cx="307.19" cy="303.145" fill="#e207b9" r="10.861"/><g><path d="m278.999 339.919h-45.997c-4.143 0-7.5-3.358-7.5-7.5s3.357-7.5 7.5-7.5h45.997c4.143 0 7.5 3.358 7.5 7.5s-3.358 7.5-7.5 7.5z" fill="#e207b9"/></g><circle cx="204.81" cy="303.145" fill="#e207b9" r="10.861"/><g><path d="m306.524 512h-41.494c-17.843 0-32.358-14.516-32.358-32.358s14.516-32.358 32.358-32.358h9.136v-32.953c0-4.142 3.357-7.5 7.5-7.5s7.5 3.358 7.5 7.5v40.453c0 4.142-3.357 7.5-7.5 7.5h-16.636c-9.571 0-17.358 7.787-17.358 17.358s7.787 17.358 17.358 17.358h41.494c9.571 0 17.357-7.787 17.357-17.358v-81.276c0-4.142 3.357-7.5 7.5-7.5s7.5 3.358 7.5 7.5v81.276c0 17.842-14.515 32.358-32.357 32.358z" fill="#6d00ca"/></g><g><path d="m220.899 512h-41.493c-17.843 0-32.358-14.516-32.358-32.358s14.516-32.358 32.358-32.358h9.136v-42.077c0-4.142 3.357-7.5 7.5-7.5s7.5 3.358 7.5 7.5v49.577c0 4.142-3.357 7.5-7.5 7.5h-16.636c-9.571 0-17.358 7.787-17.358 17.358s7.787 17.358 17.358 17.358h41.493c5.385 0 10.36-2.464 13.618-6.595-1.215-3.448-1.846-7.101-1.846-10.763 0-6.481 1.968-12.834 5.586-18.17v-45.503c0-4.142 3.357-7.5 7.5-7.5s7.5 3.358 7.5 7.5v47.976c0 1.727-.596 3.401-1.688 4.74-2.551 3.128-3.898 6.917-3.898 10.957 0 2.811.655 5.498 1.948 7.985 1.126 2.168 1.126 4.749 0 6.916-5.595 10.768-16.6 17.457-28.72 17.457z" fill="#6d00ca"/></g><path d="m281.666 444.704c17.38-2.268 34.052-6.811 49.716-13.312v-33.025c-15.362 7.773-32.083 13.249-49.716 15.965z" fill="#6d00ca"/><path d="m196.041 437.046c15.807 5.054 32.47 8.176 49.716 9.062v-30.139c-17.427-1.053-34.133-4.774-49.716-10.763z" fill="#6d00ca"/><path d="m440.192 117.218c8.921-6.999 14.27-17.73 14.27-29.31 0-20.56-16.727-37.286-37.286-37.286-11.58 0-22.31 5.349-29.309 14.269-7.209-2.158-14.771-3.28-22.508-3.28-20.314 0-39.433 7.722-54.045 21.747-17.391-5.819-35.99-8.98-55.314-8.98s-37.923 3.16-55.313 8.98c-14.613-14.024-33.731-21.747-54.046-21.747-7.736 0-15.298 1.123-22.507 3.28-6.999-8.919-17.73-14.269-29.31-14.269-20.56 0-37.285 16.727-37.285 37.286 0 11.597 5.365 22.343 14.309 29.34-7.808 26.142-1.655 55.583 18.427 76.52-5.82 17.392-8.98 35.99-8.98 55.315 0 96.333 78.373 174.706 174.706 174.706s174.706-78.373 174.706-174.706c0-19.324-3.16-37.922-8.98-55.313 14.024-14.612 21.747-33.73 21.747-54.046-.002-7.735-1.124-15.298-3.282-22.506zm-23.017-51.595c12.289 0 22.286 9.998 22.286 22.286 0 5.445-1.975 10.582-5.416 14.564-6.899-12.685-17.754-23.989-31.434-31.435 3.982-3.44 9.12-5.415 14.564-5.415zm-339.212 36.862c-3.446-3.983-5.425-9.126-5.425-14.577 0-12.289 9.997-22.286 22.285-22.286 5.445 0 10.582 1.976 14.564 5.415-13.203 7.184-24.284 18.256-31.424 31.448zm9.883 14.303c3.26-8.379 8.297-15.822 14.166-21.691 11.68-11.68 27.579-18.485 44.628-18.485 13.983 0 27.273 4.517 38.204 12.863-39.455 17.567-70.883 48.996-88.452 88.449-13.503-17.738-16.35-41.048-8.546-61.136zm168.154 292.003c-88.063 0-159.706-71.644-159.706-159.706s71.643-159.707 159.706-159.707 159.706 71.644 159.706 159.707-71.644 159.706-159.706 159.706zm159.61-230.862c-17.568-39.457-48.998-70.887-88.455-88.455 10.93-8.345 24.221-12.863 38.204-12.863 7.84 0 15.455 1.437 22.564 4.155.088.038.172.083.262.118 24.026 9.305 40.287 32.512 40.287 58.841 0 13.984-4.517 27.274-12.862 38.204z" fill="#f95116"/></g></svg>