<svg id="Capa_1" enable-background="new 0 0 512 512" height="512" viewBox="0 0 512 512" width="512" xmlns="http://www.w3.org/2000/svg"><g><path d="m377.738 312.509 75.904-75.904c18.768-18.768 18.768-49.198 0-67.966l-121.258 121.257c-18.511 18.511-18.511 48.522 0 67.033 12.229 12.229 32.155 12.978 44.715 1.089 13.031-12.335 13.244-32.905.639-45.509z" fill="#88f8d8"/><g><path d="m327.08 362.233c-10.369-10.369-16.079-24.156-16.079-38.82s5.71-28.451 16.079-38.82c2.931-2.93 7.679-2.929 10.608 0s2.929 7.678 0 10.607c-7.537 7.536-11.686 17.555-11.686 28.213 0 10.657 4.15 20.677 11.686 28.213 9.451 9.453 24.82 9.876 34.254.945 9.94-9.408 10.152-25.099.492-34.759-2.929-2.929-2.929-7.678 0-10.607l75.904-75.904c15.813-15.814 15.813-41.545 0-57.359-2.929-2.929-2.929-7.678.001-10.607 2.929-2.93 7.678-2.929 10.607 0 21.661 21.663 21.661 56.911 0 78.574l-71.102 71.102c10.255 15.132 8.981 36.662-5.589 50.455-15.296 14.479-40.048 13.893-55.175-1.233z" fill="#007ea8"/></g><path d="m243.959 378.321-25.459 25.459c-22.172 22.172-49.715 38.204-79.939 46.539l-50.297 13.877-40.461-40.461 13.877-50.297c8.334-30.224 24.366-57.766 46.539-79.939l25.459-25.459z" fill="#b98eff"/><path d="m47.802 423.737-31.913 31.913c-11.173 11.173-11.173 29.288 0 40.461s29.288 11.173 40.461 0l31.913-31.913z" fill="#88f8d8"/><path d="m156.435 167.02h221.13v155.96h-221.13z" fill="#ff9bff" transform="matrix(.707 -.707 .707 .707 -95.038 260.557)"/><g><path d="m10.585 501.415c-14.113-14.114-14.114-36.954.001-51.069l31.912-31.913c2.93-2.929 7.678-2.929 10.608 0 2.929 2.929 2.929 7.678 0 10.607l-31.913 31.913c-8.251 8.25-8.252 21.602-.001 29.854 8.25 8.25 21.604 8.251 29.855 0l31.912-31.913c2.93-2.929 7.678-2.929 10.608 0 2.929 2.929 2.929 7.678 0 10.607l-31.913 31.913c-14.112 14.113-36.955 14.115-51.069.001z" fill="#007ea8"/></g><g><path d="m128.375 273.344c-2.929-2.929-2.929-7.678 0-10.607l156.363-156.363c2.93-2.929 7.678-2.929 10.608 0 2.929 2.929 2.929 7.678 0 10.607l-156.363 156.363c-2.929 2.929-7.678 2.93-10.608 0z" fill="#e207b9"/></g><g><path d="m238.655 383.625c-2.929-2.929-2.929-7.678 0-10.607l156.363-156.363c2.93-2.929 7.678-2.929 10.608 0 2.929 2.929 2.929 7.678 0 10.607l-156.363 156.363c-2.929 2.929-7.678 2.929-10.608 0z" fill="#e207b9"/></g><circle cx="297.047" cy="198.03" fill="#e207b9" r="11.555"/><g><path d="m257.955 281.164c-2.929-2.929-2.929-7.678 0-10.607l34.602-34.602c2.93-2.929 7.678-2.929 10.608 0 2.929 2.929 2.929 7.678 0 10.607l-34.602 34.602c-2.93 2.929-7.678 2.929-10.608 0z" fill="#e207b9"/></g><circle cx="220.03" cy="275.047" fill="#e207b9" r="11.555"/><g><path d="m82.96 469.5-40.46-40.461c-1.908-1.909-2.645-4.696-1.926-7.299l13.878-50.297c8.663-31.417 25.421-60.204 48.464-83.247l25.46-25.459c2.93-2.929 7.678-2.929 10.608 0l110.28 110.28c2.929 2.929 2.929 7.678 0 10.607l-25.459 25.459c-23.043 23.043-51.831 39.802-83.249 48.466l-50.296 13.877c-2.614.721-5.398-.025-7.3-1.926zm-26.764-47.98 34.283 34.284 46.087-12.716c28.922-7.975 55.42-23.402 76.631-44.612l20.156-20.155-99.673-99.673-20.155 20.155c-21.211 21.211-36.637 47.709-44.611 76.629z" fill="#6d00ca"/></g><path d="m481.7 140.581-81.378 81.378-110.28-110.28 81.377-81.379c30.452-30.452 79.829-30.452 110.28 0 30.452 30.452 30.452 79.829.001 110.281z" fill="#b98eff"/><g><path d="m395.018 227.262-110.28-110.28c-2.929-2.929-2.929-7.678 0-10.607l81.377-81.378c33.33-33.328 87.559-33.329 120.889 0 33.328 33.329 33.328 87.559 0 120.888l-81.378 81.378c-2.929 2.926-7.678 2.928-10.608-.001zm-94.369-115.584 99.673 99.673 76.074-76.074c27.48-27.48 27.48-72.193 0-99.673-27.479-27.48-72.194-27.479-99.673 0zm181.051 28.903h.01z" fill="#6d00ca"/></g></g></svg>