<svg id="Capa_1" enable-background="new 0 0 512 512" height="512" viewBox="0 0 512 512" width="512" xmlns="http://www.w3.org/2000/svg"><g><path d="m115.374 262.416-9.344-13.937c-2.623-3.913-3.599-8.443-3.108-12.784h-65.594c-16.176 0-29.288 13.113-29.288 29.288v239.517h125.283v-233.72c-6.844.74-13.857-2.251-17.949-8.364z" fill="#ffff6f"/><path d="m396.626 262.416 9.344-13.937c2.623-3.913 3.599-8.443 3.108-12.784h65.594c16.176 0 29.288 13.113 29.288 29.288v239.517h-125.282v-233.72c6.843.74 13.856-2.251 17.948-8.364z" fill="#ffff6f"/><path d="m378.678 270.78v233.72h-245.356v-233.72c2.981-.32 5.923-1.341 8.574-3.122l114.104-83.169 114.104 83.169c2.661 1.781 5.603 2.802 8.574 3.122z" fill="#ffd600"/><g fill="#9448f5"><path d="m84.988 302.759h-28.614c-7.92 0-14.34 6.42-14.34 14.34v34.693c0 7.92 6.42 14.34 14.34 14.34h28.614c7.92 0 14.34-6.42 14.34-14.34v-34.693c0-7.919-6.421-14.34-14.34-14.34z"/><path d="m84.988 406.386h-28.614c-7.92 0-14.34 6.42-14.34 14.34v34.693c0 7.92 6.42 14.34 14.34 14.34h28.614c7.92 0 14.34-6.42 14.34-14.34v-34.693c0-7.92-6.421-14.34-14.34-14.34z"/><path d="m427.013 302.759h28.614c7.92 0 14.34 6.42 14.34 14.34v34.693c0 7.92-6.42 14.34-14.34 14.34h-28.614c-7.92 0-14.34-6.42-14.34-14.34v-34.693c0-7.919 6.42-14.34 14.34-14.34z"/><path d="m427.013 406.386h28.614c7.92 0 14.34 6.42 14.34 14.34v34.693c0 7.92-6.42 14.34-14.34 14.34h-28.614c-7.92 0-14.34-6.42-14.34-14.34v-34.693c0-7.92 6.42-14.34 14.34-14.34z"/><path d="m367.889 85.668h-89.314v-78.168h89.314c9.427 0 17.069 7.642 17.069 17.069v44.029c.001 9.427-7.642 17.07-17.069 17.07z"/></g><path d="m240.683 128.513c9.264-6.203 21.37-6.203 30.634 0l7.258 5.24v-126.253h-23.27c-12.084 0-21.88 9.796-21.88 21.88v104.373z" fill="#b98eff"/><path d="m405.971 248.479-9.344 13.937c-4.092 6.113-11.105 9.104-17.948 8.364-2.971-.32-5.913-1.341-8.574-3.122l-114.105-83.169-114.104 83.169c-2.651 1.781-5.593 2.801-8.574 3.122-6.843.74-13.856-2.251-17.948-8.364l-9.344-13.937c-5.883-8.774-3.532-20.66 5.243-26.533l129.411-93.434c9.264-6.203 21.37-6.203 30.634 0l129.411 93.434c8.773 5.874 11.125 17.759 5.242 26.533z" fill="#9448f5"/><circle cx="310.346" cy="274.752" fill="#f95116" r="11.531"/><circle cx="201.654" cy="274.752" fill="#f95116" r="11.531"/><g fill="#f95116"><path d="m280.417 298.331h-48.833c-4.143 0-7.5 3.358-7.5 7.5 0 4.143 3.357 7.5 7.5 7.5h48.833c4.143 0 7.5-3.357 7.5-7.5 0-4.142-3.357-7.5-7.5-7.5z"/><path d="m474.673 228.195h-65.594c-4.143 0-5.822 3.358-5.822 7.5s1.679 7.5 5.822 7.5h65.594c12.014 0 21.788 9.774 21.788 21.789v232.016h-110.283v-226.22c0-4.142-3.357-3.33-7.5-3.33s-7.5-.812-7.5 3.33v226.22h-49.301c-4.143 0-7.5 3.358-7.5 7.5s3.357 7.5 7.5 7.5h182.084c4.143 0 7.5-3.358 7.5-7.5v-239.516c0-20.285-16.503-36.789-36.788-36.789z"/><path d="m190.123 497h-49.301v-226.22c0-4.142-3.357-4.13-7.5-4.13s-7.5-.012-7.5 4.13v226.22h-110.283v-232.016c0-12.015 9.774-21.789 21.788-21.789h65.594c4.143 0 3.906-3.358 3.906-7.5s.236-7.5-3.906-7.5h-65.594c-20.285 0-36.788 16.503-36.788 36.789v239.516c0 4.142 3.357 7.5 7.5 7.5h182.084c4.143 0 7.5-3.358 7.5-7.5s-3.357-7.5-7.5-7.5z"/></g><path d="m286.686 352.126h-61.372c-19.435 0-35.191 15.756-35.191 35.191v117.183h131.754v-117.183c0-19.435-15.755-35.191-35.191-35.191z" fill="#b98eff"/><g fill="#6d00ca"><path d="m84.987 295.259h-28.613c-12.043 0-21.84 9.798-21.84 21.84v34.693c0 12.043 9.797 21.84 21.84 21.84h28.613c12.043 0 21.84-9.797 21.84-21.84v-34.693c0-12.042-9.797-21.84-21.84-21.84zm6.84 56.533c0 3.771-3.068 6.84-6.84 6.84h-28.613c-3.771 0-6.84-3.068-6.84-6.84v-34.693c0-3.771 3.068-6.84 6.84-6.84h28.613c3.771 0 6.84 3.068 6.84 6.84z"/><path d="m84.987 398.886h-28.613c-12.043 0-21.84 9.797-21.84 21.84v34.693c0 12.042 9.797 21.84 21.84 21.84h28.613c12.043 0 21.84-9.797 21.84-21.84v-34.693c0-12.042-9.797-21.84-21.84-21.84zm6.84 56.533c0 3.771-3.068 6.84-6.84 6.84h-28.613c-3.771 0-6.84-3.068-6.84-6.84v-34.693c0-3.771 3.068-6.84 6.84-6.84h28.613c3.771 0 6.84 3.068 6.84 6.84z"/><path d="m455.626 295.259h-28.613c-12.043 0-21.84 9.798-21.84 21.84v34.693c0 12.043 9.797 21.84 21.84 21.84h28.613c12.043 0 21.84-9.797 21.84-21.84v-34.693c0-12.042-9.797-21.84-21.84-21.84zm6.84 56.533c0 3.771-3.068 6.84-6.84 6.84h-28.613c-3.771 0-6.84-3.068-6.84-6.84v-34.693c0-3.771 3.068-6.84 6.84-6.84h28.613c3.771 0 6.84 3.068 6.84 6.84z"/><path d="m455.626 398.886h-28.613c-12.043 0-21.84 9.797-21.84 21.84v34.693c0 12.042 9.797 21.84 21.84 21.84h28.613c12.043 0 21.84-9.797 21.84-21.84v-34.693c0-12.042-9.797-21.84-21.84-21.84zm6.84 56.533c0 3.771-3.068 6.84-6.84 6.84h-28.613c-3.771 0-6.84-3.068-6.84-6.84v-34.693c0-3.771 3.068-6.84 6.84-6.84h28.613c3.771 0 6.84 3.068 6.84 6.84z"/><path d="m286.687 344.626h-61.372c-23.54 0-42.691 19.151-42.691 42.691v117.183c0 4.142 3.357 7.5 7.5 7.5h131.754c4.143 0 7.5-3.358 7.5-7.5v-117.183c-.001-23.54-19.151-42.691-42.691-42.691zm27.69 152.374h-116.754v-109.683c0-15.269 12.422-27.691 27.691-27.691h61.372c15.269 0 27.69 12.422 27.69 27.691v109.683z"/><path d="m412.2 252.656c8.179-12.201 4.935-28.661-7.181-36.861l-118.944-85.877v-36.75h81.813c13.548 0 24.57-11.021 24.57-24.569v-44.03c.001-13.547-11.021-24.569-24.569-24.569-12.005 0-101.229 0-112.584 0-16.2 0-29.38 13.18-29.38 29.38v100.537l-118.943 85.877c-12.115 8.201-15.361 24.661-7.182 36.862l9.342 13.932c8.64 12.908 25.998 15.164 37.173 7.132l109.685-79.95c114.409 83.389 109.68 79.952 109.934 80.122 12.119 8.108 28.678 5.016 36.922-7.3zm-34.741-228.087v44.029c0 5.277-4.293 9.569-9.57 9.569h-81.813v-63.167h81.813c5.277 0 9.57 4.292 9.57 9.569zm-122.154-9.569h15.771v70.667 34.102c-9.546-4.57-20.604-4.57-30.15 0v-90.389c-.001-7.929 6.45-14.38 14.379-14.38zm144.436 229.302-9.348 13.941c-3.562 5.321-10.715 6.715-16.008 3.255l-113.968-83.07c-2.633-1.919-6.203-1.919-8.836 0l-113.973 83.074c-5.2 3.413-12.392 2.135-16.006-3.264l-9.345-13.936c-3.574-5.331-2.154-12.55 3.185-16.124.074-.049.146-.1.219-.151l129.295-93.351c6.721-4.442 15.365-4.442 22.086 0 135.047 97.501 129.272 93.34 129.514 93.502 5.337 3.572 6.762 10.789 3.185 16.124z"/></g></g></svg>