<svg id="Capa_1" enable-background="new 0 0 512 512" height="512" viewBox="0 0 512 512" width="512" xmlns="http://www.w3.org/2000/svg"><g><g><path d="m279.87 408.227v73.053c0 12.824-10.396 23.22-23.22 23.22h-38.759c-12.824 0-23.22-10.396-23.22-23.22s10.396-23.22 23.22-23.22h15.539v-49.834h46.44z" fill="#ff63ed"/></g><g><path d="m171.804 408.227v73.053c0 12.824-10.396 23.22-23.22 23.22h-38.759c-12.824 0-23.22-10.396-23.22-23.22s10.396-23.22 23.22-23.22h15.539v-49.834h46.44z" fill="#ff63ed"/></g><g><g><path d="m256.65 512h-38.759c-16.938 0-30.72-13.781-30.72-30.719 0-16.939 13.781-30.72 30.72-30.72h8.039v-42.334c0-4.142 3.357-5.358 7.5-5.358s7.5 1.216 7.5 5.358v49.834c0 4.142-3.357 7.5-7.5 7.5h-15.539c-8.668 0-15.72 7.052-15.72 15.72s7.052 15.719 15.72 15.719h38.759c8.668 0 15.72-7.052 15.72-15.719v-73.053c0-4.142 3.357-5.358 7.5-5.358s7.5 1.216 7.5 5.358v73.053c0 16.938-13.781 30.719-30.72 30.719z" fill="#e207b9"/></g></g><g><g><path d="m148.585 512h-38.759c-16.938 0-30.72-13.781-30.72-30.719 0-16.939 13.781-30.72 30.72-30.72h8.039v-42.334c0-4.142 3.357-4.37 7.5-4.37s7.5.228 7.5 4.37v49.834c0 4.142-3.357 7.5-7.5 7.5h-15.539c-8.668 0-15.72 7.052-15.72 15.72s7.052 15.719 15.72 15.719h38.759c8.668 0 15.72-7.052 15.72-15.719v-73.053c0-4.142 3.357-4.37 7.5-4.37s7.5.228 7.5 4.37v73.053c0 16.938-13.782 30.719-30.72 30.719z" fill="#e207b9"/></g></g><path d="m125.365 408.227h46.439v31.028h-46.439z" fill="#e207b9"/><path d="m233.431 408.227h46.439v31.028h-46.439z" fill="#e207b9"/><path d="m302.669 325.613v82.614h-182.546c-22.784 0-41.248-18.464-41.248-41.238v-41.376z" fill="#9448f5"/><path d="m433.125 325.613v24.899c0 31.877-25.838 57.715-57.715 57.715h-22.942v-82.614z" fill="#9448f5"/><g><path d="m302.669 415.727h-182.546c-26.88 0-48.748-21.864-48.748-48.738v-41.376c0-4.142 3.357-7.5 7.5-7.5s7.5 3.358 7.5 7.5v41.376c0 18.603 15.14 33.738 33.748 33.738h182.546c4.143 0 5.781 3.358 5.781 7.5s-1.638 7.5-5.781 7.5z" fill="#6d00ca"/></g><g><path d="m375.409 415.727h-22.941c-4.143 0-5.273-3.358-5.273-7.5s1.13-7.5 5.273-7.5h22.941c27.689 0 50.216-22.527 50.216-50.215v-24.899c0-4.142 3.357-7.5 7.5-7.5s7.5 3.358 7.5 7.5v24.899c0 35.96-29.256 65.215-65.216 65.215z" fill="#6d00ca"/></g><path d="m433.125 82.642v98.627h-80.657v-156.342h22.942c31.877 0 57.715 25.838 57.715 57.715z" fill="#9448f5"/><path d="m240.423 24.927c.773 2.414 1.194 4.984 1.194 7.654v85.694c0 8.527-9.486 13.628-16.6 8.927l-32.84-21.703c-3.578-2.364-8.221-2.364-11.799 0l-32.84 21.703c-7.114 4.701-16.6-.4-16.6-8.927v-85.694c0-2.67.421-5.241 1.194-7.654h-12.009c-22.784 0-41.248 18.464-41.248 41.238v115.105h223.794v-156.343z" fill="#9448f5"/><g><path d="m433.125 188.77c-4.143 0-7.5-3.358-7.5-7.5v-98.627c0-27.689-22.526-50.216-50.216-50.216h-22.941c-4.143 0-4.885-3.358-4.885-7.5s.743-7.5 4.885-7.5h22.941c35.96 0 65.216 29.256 65.216 65.216v98.627c0 4.142-3.357 7.5-7.5 7.5z" fill="#6d00ca"/></g><g><path d="m78.875 188.77c-4.143 0-7.5-3.358-7.5-7.5v-115.105c0-26.874 21.868-48.738 48.748-48.738h12.009c4.143 0 3.94 3.358 3.94 7.5s.202 7.5-3.94 7.5h-12.009c-18.608 0-33.748 15.135-33.748 33.738v115.105c0 4.142-3.357 7.5-7.5 7.5z" fill="#6d00ca"/></g><path d="m78.875 181.27h223.794v144.343h-223.794z" fill="#ffff6f"/><path d="m352.467 181.27h80.657v144.343h-80.657z" fill="#ffff6f"/><g><path d="m302.669 333.113h-223.794c-4.143 0-7.5-3.358-7.5-7.5v-144.343c0-4.142 3.357-7.5 7.5-7.5h223.794c4.143 0 4.679 3.358 4.679 7.5s-.536 7.5-4.679 7.5h-216.294v129.343h216.294c4.143 0 4.547 3.358 4.547 7.5s-.404 7.5-4.547 7.5z" fill="#f95116"/></g><g><path d="m433.125 333.113h-80.657c-4.143 0-5.273-3.358-5.273-7.5s1.13-7.5 5.273-7.5h73.157v-129.343h-73.157c-4.143 0-3.903-3.358-3.903-7.5s-.24-7.5 3.903-7.5h80.657c4.143 0 7.5 3.358 7.5 7.5v144.343c0 4.142-3.357 7.5-7.5 7.5z" fill="#f95116"/></g><path d="m335.042 7.5h-14.946c-9.623 0-17.423 7.801-17.423 17.423v383.308c0 9.623 7.801 17.423 17.423 17.423h14.946c9.623 0 17.423-7.801 17.423-17.423v-383.308c0-9.622-7.8-17.423-17.423-17.423z" fill="#ff63ed"/><path d="m216.535 7.5h-60.516c-13.852 0-25.082 11.229-25.082 25.082v85.694c0 8.527 9.486 13.628 16.6 8.927l32.84-21.703c3.578-2.364 8.221-2.364 11.799 0l32.84 21.703c7.114 4.701 16.6-.4 16.6-8.927v-85.695c0-13.852-11.229-25.081-25.081-25.081z" fill="#ff63ed"/><circle cx="244.465" cy="238.64" fill="#f95116" r="11.392"/><g><path d="m214.896 276.845h-48.246c-4.143 0-7.5-3.358-7.5-7.5s3.357-7.5 7.5-7.5h48.246c4.143 0 7.5 3.358 7.5 7.5s-3.358 7.5-7.5 7.5z" fill="#f95116"/></g><circle cx="137.079" cy="238.64" fill="#f95116" r="11.392"/><g><path d="m302.669 32.427h-62.246c-4.143 0-4.902-3.358-4.902-7.5s.76-7.5 4.902-7.5h62.246c4.143 0 4.891 3.358 4.891 7.5s-.748 7.5-4.891 7.5z" fill="#6d00ca"/></g><g><path d="m123.437 118.275v-85.693c0-17.966 14.617-32.582 32.583-32.582h60.516c17.965 0 32.581 14.616 32.581 32.582v85.694c0 14.486-16.152 23.171-28.234 15.184l-32.84-21.703c-1.072-.708-2.458-.708-3.528 0l-32.842 21.704c-11.977 7.913-28.236-.609-28.236-15.186zm32.583-103.275c-9.694 0-17.582 7.887-17.582 17.582v85.694c0 2.562 2.827 4.081 4.965 2.67l32.841-21.703c6.096-4.029 13.975-4.028 20.068 0l32.84 21.703c2.139 1.412 4.965-.108 4.965-2.67v-85.694c0-9.695-7.887-17.582-17.581-17.582z" fill="#e207b9"/></g><g><path d="m335.042 433.154h-14.946c-13.742 0-24.923-11.181-24.923-24.923v-383.308c0-13.743 11.181-24.923 24.923-24.923h14.946c13.743 0 24.924 11.18 24.924 24.923v383.308c0 13.743-11.181 24.923-24.924 24.923zm-14.946-418.154c-5.472 0-9.923 4.451-9.923 9.923v383.308c0 5.472 4.451 9.923 9.923 9.923h14.946c5.472 0 9.924-4.452 9.924-9.923v-383.308c0-5.472-4.452-9.923-9.924-9.923z" fill="#e207b9"/></g></g></svg>