<svg id="Capa_1" enable-background="new 0 0 512 512" height="512" viewBox="0 0 512 512" width="512" xmlns="http://www.w3.org/2000/svg"><g><g><path d="m373.543 406.655v74.246c0 13.033-10.566 23.599-23.599 23.599h-39.392c-13.033 0-23.599-10.566-23.599-23.599s10.566-23.599 23.599-23.599h15.793v-50.648h47.198z" fill="#88f8d8"/></g><g><path d="m263.712 406.655v74.246c0 13.033-10.566 23.599-23.599 23.599h-39.392c-13.033 0-23.599-10.566-23.599-23.599s10.566-23.599 23.599-23.599h15.793v-50.648h47.198z" fill="#88f8d8"/></g><g><g><path d="m349.944 512h-39.393c-17.147 0-31.099-13.951-31.099-31.099s13.951-31.099 31.099-31.099h8.293v-43.148c0-4.142 3.357-3.18 7.5-3.18s7.5-.962 7.5 3.18v50.648c0 4.142-3.357 7.5-7.5 7.5h-15.793c-8.877 0-16.099 7.222-16.099 16.099s7.222 16.099 16.099 16.099h39.393c8.877 0 16.099-7.222 16.099-16.099v-74.246c0-4.142 3.357-2.66 7.5-2.66s7.5-1.482 7.5 2.66v74.246c0 17.148-13.951 31.099-31.099 31.099z" fill="#007ea8"/></g></g><g><g><path d="m240.113 512h-39.392c-17.148 0-31.1-13.951-31.1-31.099s13.951-31.099 31.1-31.099h8.293v-43.148c0-4.142 3.357-4.48 7.5-4.48s7.5.338 7.5 4.48v50.648c0 4.142-3.357 7.5-7.5 7.5h-15.793c-8.877 0-16.1 7.222-16.1 16.099s7.223 16.099 16.1 16.099h39.392c8.877 0 16.099-7.222 16.099-16.099v-74.246c0-4.142 3.357-4.48 7.5-4.48s7.5.338 7.5 4.48v74.246c0 17.148-13.951 31.099-31.099 31.099z" fill="#007ea8"/></g></g><path d="m216.514 406.655h47.198v31.535h-47.198z" fill="#007ea8"/><path d="m326.345 406.655h47.198v31.535h-47.198z" fill="#007ea8"/><path d="m452.746 71.784v270.587c0 35.502-28.782 64.284-64.284 64.284h-199.06v-399.155h199.06c35.502 0 64.284 28.782 64.284 64.284z" fill="#a4bcff"/><g fill="#ffd600"><path d="m109.227 47.061h-25.78c-13.361 0-24.192 10.831-24.192 24.192 0 13.361 10.831 24.192 24.192 24.192h25.78c13.361 0 24.192-10.831 24.192-24.192 0-13.361-10.831-24.192-24.192-24.192z"/><path d="m109.227 137.61h-25.78c-13.361 0-24.192 10.831-24.192 24.192 0 13.361 10.831 24.192 24.192 24.192h25.78c13.361 0 24.192-10.831 24.192-24.192 0-13.36-10.831-24.192-24.192-24.192z"/><path d="m109.227 228.16h-25.78c-13.361 0-24.192 10.831-24.192 24.192 0 13.361 10.831 24.192 24.192 24.192h25.78c13.361 0 24.192-10.831 24.192-24.192 0-13.361-10.831-24.192-24.192-24.192z"/></g><path d="m135.908 7.5c-21.85 0-39.571 17.711-39.571 39.561h12.89c13.361 0 24.192 10.831 24.192 24.192 0 13.361-10.831 24.192-24.192 24.192h-12.89v42.165h12.89c13.361 0 24.192 10.831 24.192 24.192 0 13.361-10.831 24.192-24.192 24.192h-12.89v42.165h12.89c13.361 0 24.192 10.831 24.192 24.192 0 13.361-10.831 24.192-24.192 24.192h-12.89v42.165h12.89c13.361 0 24.192 10.831 24.192 24.192 0 13.361-10.831 24.192-24.192 24.192h-12.89c0 21.85 17.721 39.561 39.571 39.561h53.495v-399.153z" fill="#7181ff"/><path d="m109.227 318.709h-25.78c-13.361 0-24.192 10.831-24.192 24.192 0 13.361 10.831 24.192 24.192 24.192h25.78c13.361 0 24.192-10.831 24.192-24.192 0-13.361-10.831-24.192-24.192-24.192z" fill="#ffd600"/><path d="m367.798 71.253h-93.448c-14.238 0-25.78 11.542-25.78 25.78v38.989c0 14.238 11.542 25.78 25.78 25.78h93.448c14.238 0 25.78-11.542 25.78-25.78v-38.989c0-14.238-11.542-25.78-25.78-25.78z" fill="#ffff6f"/><circle cx="375.644" cy="260.871" fill="#2115c2" r="11.578"/><circle cx="266.504" cy="260.871" fill="#2115c2" r="11.578"/><g><path d="m367.798 169.303h-93.447c-18.351 0-33.28-14.929-33.28-33.28v-38.99c0-18.351 14.93-33.28 33.28-33.28h93.447c18.351 0 33.28 14.929 33.28 33.28v38.989c0 18.351-14.93 33.281-33.28 33.281zm-93.447-90.55c-10.08 0-18.28 8.2-18.28 18.28v38.989c0 10.08 8.2 18.28 18.28 18.28h93.447c10.08 0 18.28-8.2 18.28-18.28v-38.989c0-10.08-8.2-18.28-18.28-18.28z" fill="#f95116"/></g><g fill="#2115c2"><path d="m345.591 284.577h-49.034c-4.143 0-7.5 3.358-7.5 7.5s3.357 7.5 7.5 7.5h49.034c4.143 0 7.5-3.358 7.5-7.5s-3.358-7.5-7.5-7.5z"/><path d="m388.462 0c-7.592 0-247.288 0-252.555 0-25.955 0-47.07 21.111-47.07 47.061 0 4.142 3.357 5.147 7.5 5.147s7.5-1.006 7.5-5.147c0-17.679 14.387-32.061 32.07-32.061h45.995v384.155h-45.995c-17.684 0-32.07-14.382-32.07-32.061 0-4.143-3.357-3.869-7.5-3.869s-7.5-.273-7.5 3.869c0 25.949 21.115 47.061 47.07 47.061h252.555c39.582 0 71.784-32.202 71.784-71.784v-270.587c0-39.582-32.202-71.784-71.784-71.784zm56.784 342.371c0 31.311-25.474 56.784-56.784 56.784h-191.56v-384.155h191.56c31.311 0 56.784 25.473 56.784 56.784z"/><path d="m96.337 320.396c4.143 0 7.5 2.455 7.5-1.686v-42.165c0-4.142-3.357-4.095-7.5-4.095s-7.5-.047-7.5 4.095v42.165c0 4.141 3.357 1.686 7.5 1.686z"/><path d="m96.337 231.287c4.143 0 7.5 1.014 7.5-3.128v-42.165c0-4.142-3.357-3.861-7.5-3.861s-7.5-.281-7.5 3.861v42.165c0 4.143 3.357 3.128 7.5 3.128z"/><path d="m96.337 142.179c4.143 0 7.5-.427 7.5-4.569v-42.164c0-4.143-3.357-3.282-7.5-3.282s-7.5-.86-7.5 3.282v42.165c0 4.141 3.357 4.568 7.5 4.568z"/><path d="m348.166 93.959h-54.184c-4.143 0-7.5 3.358-7.5 7.5s3.357 7.5 7.5 7.5h54.184c4.143 0 7.5-3.358 7.5-7.5s-3.357-7.5-7.5-7.5z"/><path d="m348.166 124.097h-54.184c-4.143 0-7.5 3.358-7.5 7.5s3.357 7.5 7.5 7.5h54.184c4.143 0 7.5-3.358 7.5-7.5s-3.357-7.5-7.5-7.5z"/></g><g><path d="m109.227 102.946h-25.78c-17.476 0-31.692-14.217-31.692-31.692s14.217-31.692 31.692-31.692h25.78c17.476 0 31.692 14.217 31.692 31.692s-14.217 31.692-31.692 31.692zm-25.781-48.385c-9.204 0-16.692 7.488-16.692 16.692s7.488 16.692 16.692 16.692h25.78c9.204 0 16.692-7.488 16.692-16.692s-7.488-16.692-16.692-16.692z" fill="#f95116"/></g><g><path d="m109.227 193.495h-25.78c-17.476 0-31.692-14.217-31.692-31.692s14.217-31.692 31.692-31.692h25.78c17.476 0 31.692 14.217 31.692 31.692s-14.217 31.692-31.692 31.692zm-25.781-48.385c-9.204 0-16.692 7.488-16.692 16.692s7.488 16.692 16.692 16.692h25.78c9.204 0 16.692-7.488 16.692-16.692s-7.488-16.692-16.692-16.692z" fill="#f95116"/></g><g><path d="m109.227 284.044h-25.78c-17.476 0-31.692-14.217-31.692-31.692s14.217-31.692 31.692-31.692h25.78c17.476 0 31.692 14.217 31.692 31.692s-14.217 31.692-31.692 31.692zm-25.781-48.384c-9.204 0-16.692 7.488-16.692 16.692s7.488 16.692 16.692 16.692h25.78c9.204 0 16.692-7.488 16.692-16.692s-7.488-16.692-16.692-16.692z" fill="#f95116"/></g><g><path d="m109.227 374.594h-25.78c-17.476 0-31.692-14.217-31.692-31.692s14.217-31.692 31.692-31.692h25.78c17.476 0 31.692 14.217 31.692 31.692s-14.217 31.692-31.692 31.692zm-25.781-48.385c-9.204 0-16.692 7.488-16.692 16.692s7.488 16.692 16.692 16.692h25.78c9.204 0 16.692-7.488 16.692-16.692s-7.488-16.692-16.692-16.692z" fill="#f95116"/></g></g></svg>