<svg id="Capa_1" enable-background="new 0 0 512 512" height="512" viewBox="0 0 512 512" width="512" xmlns="http://www.w3.org/2000/svg"><g><g><path d="m309.591 403.806v76.655c0 13.276-10.763 24.039-24.039 24.039h-40.127c-13.276 0-24.039-10.763-24.039-24.039s10.763-24.039 24.039-24.039h16.088v-52.616z" fill="#ffd600"/></g><g><path d="m197.711 403.806v76.655c0 13.276-10.763 24.039-24.039 24.039h-40.127c-13.276 0-24.039-10.763-24.039-24.039s10.763-24.039 24.039-24.039h16.088v-52.616z" fill="#ffd600"/></g><g><g><path d="m285.552 512h-40.127c-17.391 0-31.539-14.148-31.539-31.539s14.148-31.539 31.539-31.539h8.588v-45.116c0-4.142 3.357-5.391 7.5-5.391s7.5 1.249 7.5 5.391v52.616c0 4.142-3.357 7.5-7.5 7.5h-16.088c-9.12 0-16.539 7.419-16.539 16.539s7.419 16.539 16.539 16.539h40.127c9.12 0 16.539-7.419 16.539-16.539v-76.655c0-4.142 5.326-5.391 9.469-5.391s5.531 1.249 5.531 5.391v76.655c0 17.391-14.148 31.539-31.539 31.539z" fill="#f95116"/></g></g><g><g><path d="m173.672 512h-40.127c-17.391 0-31.539-14.148-31.539-31.539s14.148-31.539 31.539-31.539h8.588v-45.116c0-4.142 3.357-4.047 7.5-4.047s7.5-.095 7.5 4.047v52.616c0 4.142-3.357 7.5-7.5 7.5h-16.088c-9.12 0-16.539 7.419-16.539 16.539s7.419 16.539 16.539 16.539h40.127c9.12 0 16.539-7.419 16.539-16.539v-76.655c0-4.142 3.357-5.391 7.5-5.391s7.5 1.249 7.5 5.391v76.655c0 17.391-14.148 31.539-31.539 31.539z" fill="#f95116"/></g></g><path d="m149.633 403.806h48.078v32.123h-48.078z" fill="#f95116"/><path d="m261.513 403.806h48.078v32.123h-48.078z" fill="#f95116"/><path d="m352.68 293.962v17.484c0 14.543-11.789 26.332-26.332 26.332-14.543 0-26.332-11.789-26.332-26.332v-16.391h-146.361v16.391c0 14.543-11.789 26.332-26.332 26.332-14.543 0-26.332-11.789-26.332-26.332v-17.484c-46.81-7.053-82.695-47.446-82.695-96.222v142.647c0 40.677 32.976 63.419 73.653 63.419h269.776c40.677 0 73.653-22.742 73.653-63.419v-142.647c-.002 48.776-35.888 89.169-82.698 96.222z" fill="#ff63ed"/><path d="m443.029 90.624h-58.33c27.988 0 50.677 22.689 50.677 50.677v56.439 142.647c0 40.677-32.975 63.419-73.653 63.419h58.33c40.677 0 73.653-22.742 73.653-63.419v-142.647-56.439c0-27.988-22.689-50.677-50.677-50.677z" fill="#ff63ed"/><path d="m175.799 90.624v-37.074h102.073v37.074h46.05v-45.623c0-20.711-16.79-37.501-37.501-37.501h-119.172c-20.711 0-37.501 16.79-37.501 37.501v45.624h46.051z" fill="#ffd600"/><path d="m326.348 252.332c14.543 0 26.332 11.789 26.332 26.332v32.782c0 14.543-11.789 26.332-26.332 26.332-14.543 0-26.332-11.789-26.332-26.332v-32.782c0-14.543 11.789-26.332 26.332-26.332z" fill="#b98eff"/><path d="m384.699 90.624h-315.728c-27.988 0-50.677 22.689-50.677 50.677v56.439c0 48.776 35.886 89.169 82.695 96.222v-15.298c0-14.543 11.789-26.332 26.332-26.332 14.543 0 26.332 11.789 26.332 26.332v16.391h146.361v-16.391c0-14.543 11.789-26.332 26.332-26.332 14.543 0 26.332 11.789 26.332 26.332v15.298c46.81-7.053 82.695-47.446 82.695-96.222v-56.439c.003-27.988-22.686-50.677-50.674-50.677z" fill="#ffceff"/><path d="m127.322 252.332c-14.543 0-26.332 11.789-26.332 26.332v32.782c0 14.543 11.789 26.332 26.332 26.332 14.543 0 26.332-11.789 26.332-26.332v-32.782c.001-14.543-11.789-26.332-26.332-26.332z" fill="#b98eff"/><circle cx="288.089" cy="169.473" fill="#e207b9" r="12.997"/><circle cx="165.581" cy="169.473" fill="#e207b9" r="12.997"/><g><path d="m323.922 93.811c-4.143 0-7.5.956-7.5-3.186v-45.624c0-16.542-13.458-30.001-30.001-30.001h-119.171c-16.543 0-30.001 13.458-30.001 30.001v45.624c0 4.142-3.357 1.843-7.5 1.843s-7.5 2.3-7.5-1.843v-45.624c0-24.814 20.187-45.001 45.001-45.001h119.172c24.813 0 45.001 20.187 45.001 45.001v45.624c-.001 4.141-3.358 3.186-7.501 3.186z" fill="#f95116"/></g><g><path d="m277.871 90.624c-4.143 0-7.5 4.142-7.5 0v-29.574h-87.072v29.574c0 4.142-3.358 0-7.5 0s-7.5 4.142-7.5 0v-37.074c0-4.142 3.357-7.5 7.5-7.5h102.072c4.143 0 7.5 3.358 7.5 7.5v37.074c.001 4.142-3.357 0-7.5 0z" fill="#f95116"/></g><g fill="#e207b9"><path d="m199.315 212.002h55.04c4.143 0 7.5-3.358 7.5-7.5s-3.357-7.5-7.5-7.5h-55.04c-4.143 0-7.5 3.358-7.5 7.5s3.357 7.5 7.5 7.5z"/><path d="m443.03 83.124c-16.664 0-354.505 0-374.059 0-32.079 0-58.177 26.098-58.177 58.177v199.086c0 44.892 36.262 70.919 81.153 70.919h328.105c44.89 0 81.152-26.026 81.152-70.919v-199.086c.002-32.079-26.096-58.177-58.174-58.177zm-417.236 257.263v-88.605c16.102 26.744 43.345 44.967 74.078 49.597 4.074.622 4.566-2.213 5.184-6.323.617-4.096 1.146-7.892-2.95-8.509-41.999-6.329-74.28-41.646-76.222-84.76-.162-3.603-.06-.885-.091-60.485 0-23.808 19.369-43.177 43.177-43.177h315.73c23.808 0 43.176 19.369 43.176 43.177-.031 60.077.069 56.925-.091 60.485-1.941 43.093-34.22 78.43-76.222 84.76-4.096.617-3.44 4.413-2.823 8.509.622 4.125 1.019 6.94 5.058 6.323 30.837-4.645 58.058-22.963 74.078-49.597v88.605c0 36.449-29.715 55.919-66.152 55.919h-269.776c-36.444 0-66.154-19.47-66.154-55.919zm460.412 0c0 36.449-29.715 55.919-66.152 55.919h-5.714c18.319-12.646 28.536-32.115 28.536-55.919 0-25.29 0-175.829 0-199.086 0-15.952-6.281-31.269-19.225-43.177h19.379c23.808 0 43.176 19.369 43.176 43.177z"/><path d="m300.016 287.555h-146.361c-4.143 0-4.022 3.358-4.022 7.5s-.121 7.5 4.022 7.5h146.361c4.143 0 3.929-3.358 3.929-7.5s.214-7.5-3.929-7.5z"/></g><g><path d="m326.348 345.278c-18.655 0-33.832-15.177-33.832-33.832v-32.782c0-18.655 15.177-33.832 33.832-33.832s33.832 15.177 33.832 33.832v32.782c0 18.655-15.177 33.832-33.832 33.832zm0-85.446c-10.384 0-18.832 8.448-18.832 18.832v32.782c0 10.384 8.448 18.832 18.832 18.832s18.832-8.448 18.832-18.832v-32.782c0-10.384-8.448-18.832-18.832-18.832z" fill="#6d00ca"/></g><g><path d="m127.323 345.278c-18.655 0-33.833-15.177-33.833-33.832v-32.782c0-18.655 15.178-33.832 33.833-33.832s33.832 15.177 33.832 33.832v32.782c0 18.655-15.177 33.832-33.832 33.832zm0-85.446c-10.385 0-18.833 8.448-18.833 18.832v32.782c0 10.384 8.448 18.832 18.833 18.832 10.384 0 18.832-8.448 18.832-18.832v-32.782c0-10.384-8.448-18.832-18.832-18.832z" fill="#6d00ca"/></g></g></svg>