<svg id="Capa_1" enable-background="new 0 0 512 512" height="512" viewBox="0 0 512 512" width="512" xmlns="http://www.w3.org/2000/svg"><g><path d="m419.694 145.914c-11.182-11.329-17.499-26.577-17.604-42.495v-.032c-.221-33.411-27.252-60.442-60.663-60.663h-.032c-15.918-.106-31.166-6.422-42.495-17.604-23.783-23.474-62.016-23.474-85.799 0-11.329 11.182-26.577 17.499-42.495 17.604h-.032c-33.411.221-60.442 27.252-60.663 60.663v.032c-.106 15.918-6.422 31.166-17.604 42.495-23.474 23.783-23.474 62.016 0 85.799 11.182 11.329 17.499 26.577 17.604 42.495v.032c.221 33.411 27.252 60.442 60.663 60.663h.032c15.918.106 31.166 6.422 42.495 17.604 23.783 23.474 62.016 23.474 85.799 0 11.329-11.182 26.577-17.499 42.495-17.604h.032c33.411-.221 60.442-27.252 60.663-60.663v-.032c.106-15.918 6.422-31.166 17.604-42.495 23.475-23.783 23.475-62.016 0-85.799z" fill="#ff9bff"/><circle cx="256" cy="188.813" fill="#ffff6f" r="115.093"/><path d="m462.89 412.148-65.133-115.724c-8.935 22.424-30.756 38.31-56.331 38.48h-.032c-15.918.105-31.166 6.422-42.495 17.604-7.864 7.762-17.311 12.94-27.29 15.569l-15.609 27.735 56.754 100.837c5.794 10.294 20.54 10.509 26.63.387l32.918-54.701c2.798-4.649 7.835-7.484 13.261-7.464l63.841.242c11.812.046 19.28-12.671 13.486-22.965z" fill="#a4bcff"/><path d="m341.426 334.903h-.032c-15.918.105-31.166 6.422-42.495 17.604-4.613 4.554-9.775 8.211-15.265 10.993l43.257 76.856 11.199-18.609c4.927-8.191 11.938-15.002 20.272-19.692 8.333-4.69 17.793-7.149 27.355-7.113l21.716.083-37.834-67.221c-8.416 4.465-17.995 7.032-28.173 7.099z" fill="#7181ff"/><path d="m213.1 352.508c-11.329-11.182-26.577-17.499-42.495-17.605h-.032c-25.575-.17-47.395-16.056-56.331-38.48l-65.133 115.725c-5.794 10.294 1.674 23.011 13.486 22.966l63.841-.242c5.426-.021 10.463 2.814 13.261 7.464l32.917 54.701c6.091 10.121 20.837 9.907 26.63-.387l72.364-128.572c-20.199 5.321-42.589.143-58.508-15.57z" fill="#a4bcff"/><path d="m213.1 352.508c-11.329-11.182-26.577-17.499-42.495-17.605h-.032c-10.178-.068-19.756-2.634-28.172-7.099l-37.834 67.221 21.716-.083c9.563-.037 19.022 2.423 27.355 7.113 8.334 4.691 15.345 11.501 20.272 19.692l11.199 18.609 43.254-76.85c-5.49-2.786-10.65-6.445-15.263-10.998z" fill="#7181ff"/><circle cx="310.225" cy="180.354" fill="#f95116" r="11.505"/><g><path d="m280.362 218.863h-48.724c-4.142 0-7.5-3.358-7.5-7.5s3.357-7.5 7.5-7.5h48.724c4.142 0 7.5 3.358 7.5 7.5s-3.357 7.5-7.5 7.5z" fill="#f95116"/></g><circle cx="201.774" cy="180.354" fill="#f95116" r="11.505"/><g><path d="m256 311.406c-67.598 0-122.592-54.995-122.592-122.593s54.994-122.593 122.592-122.593 122.593 54.995 122.593 122.593-54.996 122.593-122.593 122.593zm0-230.186c-59.327 0-107.593 48.266-107.593 107.593s48.266 107.594 107.593 107.594c59.328 0 107.594-48.266 107.594-107.593s-48.267-107.594-107.594-107.594z" fill="#f95116"/></g><g fill="#2115c2"><path d="m469.426 408.469-65.133-115.724c-2.031-3.61-5.024-2.514-8.635-.482-3.609 2.032-6.469 4.23-4.437 7.84l65.133 115.723c2.975 5.285-.853 11.788-6.888 11.788-.012 0-.023 0-.035 0l-63.841-.242c-.028 0-.057 0-.086 0-7.991 0-15.506 4.246-19.628 11.096l-32.918 54.701c-3.107 5.162-10.677 5.118-13.669-.199l-54.684-97.159 13.54-24.056c.283-.502.495-1.025.652-1.556l41.556 73.835c2.811 4.994 9.991 5.126 12.962.188l11.2-18.61c8.666-14.404 24.294-23.237 41.173-23.171l21.716.083c5.852-.031 9.343-6.242 6.564-11.178l-37.834-67.221c-2.032-3.609-5.186-3.104-8.794-1.072-3.609 2.032-6.309 4.82-4.278 8.43l31.515 55.994-8.833-.033c-22.169-.07-42.695 11.507-54.082 30.438l-4.557 7.571-36.937-65.629c-2.032-3.609-4.846-3.291-8.457-1.26-2.034 1.145-5.086 1.501-5.464 3.633-.301-.237-.617-.46-.961-.654-3.609-2.032-9.511 1.607-11.543 5.217l-71.036 126.212c-2.969 5.275-10.537 5.402-13.669.199l-32.918-54.701c-4.122-6.851-11.636-11.096-19.628-11.096-.028 0-.058 0-.086 0-78.811.298-61.266.242-63.876.242-6.046 0-9.855-6.514-6.887-11.788l65.133-115.723c2.031-3.61.03-5.358-3.579-7.39-3.611-2.031-7.462-3.576-9.493.033l-65.13 115.721c-8.604 15.288 2.453 34.145 19.959 34.144h.091l63.841-.242h.03c2.758 0 5.352 1.466 6.776 3.831l32.918 54.7c9.045 15.034 30.969 14.743 39.592-.576l50.219-89.223 50.218 89.224c8.607 15.29 30.528 15.638 39.592.576l32.918-54.701c1.424-2.365 4.017-3.83 6.776-3.83h.03l63.841.242h.091c17.512-.002 28.563-18.859 19.96-34.145z"/><path d="m104.566 402.525h.028l21.716-.083c16.646-.1 32.418 8.62 41.174 23.172l11.199 18.609c2.979 4.951 10.158 4.793 12.962-.188l43.254-76.85c2.031-3.61-.767-6.12-4.376-8.152-3.609-2.031-6.665-2.814-8.696.795l-36.935 65.623-4.556-7.57c-11.689-19.432-32.531-30.524-54.083-30.439l-8.833.033 31.516-55.994c2.031-3.609-.934-5.499-4.543-7.531s-6.496-3.436-8.529.173l-37.834 67.223c-2.806 4.986.797 11.179 6.536 11.179z"/></g><g><path d="m207.832 357.846c-9.995-9.865-23.234-15.349-37.276-15.442-37.937-.251-67.9-30.945-68.146-68.113-.093-14.075-5.577-27.313-15.443-37.308-26.37-26.717-26.38-69.61 0-96.336 9.866-9.995 15.35-23.234 15.443-37.277.25-37.864 30.875-67.898 68.113-68.145 14.075-.093 27.314-5.578 37.309-15.443 26.717-26.371 69.609-26.379 96.336 0 9.994 9.865 23.233 15.35 37.276 15.443 37.863.251 67.898 30.875 68.145 68.113.093 14.075 5.577 27.313 15.443 37.308 26.371 26.717 26.38 69.61 0 96.336-9.866 9.995-15.35 23.234-15.443 37.276-.25 37.863-30.874 67.899-68.113 68.145-14.075.093-27.314 5.577-37.308 15.442-26.717 26.37-69.61 26.381-96.336.001zm10.537-327.389c-12.794 12.628-29.739 19.647-47.714 19.766-29.181.194-53.052 24.065-53.246 53.214-.119 18.006-7.138 34.951-19.766 47.745-20.481 20.75-20.482 54.513-.001 75.263 12.628 12.794 19.648 29.739 19.767 47.714.193 29.181 24.065 53.052 53.213 53.245 18.006.119 34.951 7.139 47.746 19.766 20.749 20.482 54.513 20.48 75.263 0 12.793-12.627 29.737-19.647 47.714-19.766 29.18-.194 53.051-24.065 53.245-53.214.119-18.007 7.139-34.952 19.767-47.746 20.48-20.75 20.48-54.513 0-75.263-12.628-12.794-19.648-29.739-19.767-47.714-.193-29.18-24.065-53.052-53.213-53.245-18.007-.119-34.952-7.139-47.745-19.767-20.751-20.477-54.512-20.481-75.263.002z" fill="#e207b9"/></g></g></svg>