<svg id="Capa_1" enable-background="new 0 0 512 512" height="512" viewBox="0 0 512 512" width="512" xmlns="http://www.w3.org/2000/svg"><g><path d="m370.265 8.094h-228.53c-38.159 0-69.092 30.934-69.092 69.092v269.625c0 38.159 30.934 69.092 69.092 69.092h228.53c38.159 0 69.092-30.934 69.092-69.092v-269.625c.001-38.159-30.933-69.092-69.092-69.092z" fill="#ffff6f"/><path d="m355.804 63.106h-199.608c-15.763 0-28.541 12.778-28.541 28.541v110.675c0 15.763 12.778 28.541 28.541 28.541h199.608c15.763 0 28.541-12.778 28.541-28.541v-110.675c0-15.763-12.778-28.541-28.541-28.541z" fill="#88f8d8"/><path d="m36.614 77.186c-16.079 0-29.114 13.035-29.114 29.114v105.451c0 16.079 13.035 29.114 29.114 29.114h36.029v-163.679z" fill="#b98eff"/><path d="m475.386 77.186c16.079 0 29.114 13.035 29.114 29.114v105.451c0 16.079-13.035 29.114-29.114 29.114h-36.029v-163.679z" fill="#b98eff"/><circle cx="141.736" cy="326.807" fill="#ffd600" r="24.198"/><circle cx="370.265" cy="326.807" fill="#ffd600" r="24.198"/><path d="m299.39 302.609h-86.78c-9.518 0-17.233 7.716-17.233 17.233v29.219c0 9.518 7.716 17.233 17.233 17.233h86.78c9.518 0 17.233-7.716 17.233-17.233v-29.219c0-9.518-7.715-17.233-17.233-17.233z" fill="#b98eff"/><path d="m370.265 415.903h-53.642v46.167c0 23.105 18.731 41.836 41.836 41.836 23.105 0 41.836-18.731 41.836-41.836v-53.019c-9.081 4.39-19.267 6.852-30.03 6.852z" fill="#7181ff"/><path d="m141.736 415.903h53.642v46.167c0 23.105-18.731 41.836-41.836 41.836-23.105 0-41.836-18.731-41.836-41.836v-53.019c9.08 4.39 19.267 6.852 30.03 6.852z" fill="#7181ff"/><circle cx="310.333" cy="142.253" fill="#007ea8" r="11.528"/><g><path d="m280.41 180.823h-48.82c-4.143 0-7.5-3.358-7.5-7.5s3.357-7.5 7.5-7.5h48.82c4.143 0 7.5 3.358 7.5 7.5s-3.357 7.5-7.5 7.5z" fill="#007ea8"/></g><circle cx="201.668" cy="142.253" fill="#007ea8" r="11.528"/><g><path d="m355.804 238.363h-199.608c-19.873 0-36.041-16.168-36.041-36.041v-110.676c0-19.873 16.168-36.041 36.041-36.041h199.607c19.873 0 36.041 16.168 36.041 36.041v110.675c.001 19.874-16.167 36.042-36.04 36.042zm-199.608-167.758c-11.602 0-21.041 9.439-21.041 21.041v110.675c0 11.602 9.439 21.041 21.041 21.041h199.607c11.602 0 21.041-9.439 21.041-21.041v-110.675c0-11.602-9.439-21.041-21.041-21.041z" fill="#007ea8"/></g><g><path d="m72.644 248.365h-36.03c-20.189 0-36.614-16.425-36.614-36.614v-105.451c0-20.189 16.425-36.614 36.614-36.614h36.029c4.143 0 6.704 3.358 6.704 7.5s-2.562 7.5-6.704 7.5h-36.029c-11.918 0-21.614 9.696-21.614 21.614v105.451c0 11.918 9.696 21.614 21.614 21.614h36.029c4.143 0 6.835 3.358 6.835 7.5s-2.692 7.5-6.834 7.5z" fill="#6d00ca"/></g><g><path d="m475.387 248.365h-36.029c-4.143 0-6.627-3.358-6.627-7.5s2.485-7.5 6.627-7.5h36.029c11.918 0 21.613-9.696 21.613-21.614v-105.451c0-11.918-9.695-21.614-21.613-21.614h-36.029c-4.143 0-6.801-3.358-6.801-7.5s2.659-7.5 6.801-7.5h36.029c20.188 0 36.613 16.425 36.613 36.614v105.451c0 20.189-16.425 36.614-36.613 36.614z" fill="#6d00ca"/></g><g><path d="m141.735 358.505c-17.479 0-31.698-14.22-31.698-31.698s14.22-31.698 31.698-31.698 31.698 14.22 31.698 31.698-14.219 31.698-31.698 31.698zm0-48.396c-9.207 0-16.698 7.491-16.698 16.698s7.491 16.698 16.698 16.698 16.698-7.491 16.698-16.698-7.491-16.698-16.698-16.698z" fill="#f95116"/></g><g><path d="m370.265 358.505c-17.478 0-31.697-14.22-31.697-31.698s14.22-31.698 31.697-31.698c17.479 0 31.698 14.22 31.698 31.698s-14.22 31.698-31.698 31.698zm0-48.396c-9.207 0-16.697 7.491-16.697 16.698s7.49 16.698 16.697 16.698 16.698-7.491 16.698-16.698-7.491-16.698-16.698-16.698z" fill="#f95116"/></g><g><path d="m299.391 373.794h-86.78c-13.638 0-24.733-11.095-24.733-24.733v-29.219c0-13.638 11.096-24.733 24.733-24.733h86.78c13.638 0 24.732 11.095 24.732 24.733v29.219c0 13.638-11.095 24.733-24.732 24.733zm-86.781-63.685c-5.367 0-9.733 4.366-9.733 9.733v29.219c0 5.367 4.366 9.733 9.733 9.733h86.78c5.366 0 9.732-4.366 9.732-9.733v-29.219c0-5.367-4.366-9.733-9.732-9.733z" fill="#6d00ca"/></g><g><path d="m358.459 511.406c-27.204 0-49.336-22.132-49.336-49.336v-46.167c0-4.142 3.358-6.852 7.5-6.852s7.5 2.71 7.5 6.852v46.167c0 18.933 15.403 34.336 34.336 34.336s34.336-15.403 34.336-34.336v-53.019c0-4.142 3.358-6.703 7.5-6.703s7.5 2.561 7.5 6.703v53.019c0 27.204-22.132 49.336-49.336 49.336z" fill="#2115c2"/></g><g><path d="m153.541 511.406c-27.204 0-49.336-22.132-49.336-49.336v-53.019c0-4.142 3.358-6.312 7.5-6.312s7.5 2.17 7.5 6.312v53.019c0 18.933 15.403 34.336 34.336 34.336s34.336-15.403 34.336-34.336v-46.167c0-4.142 3.357-6.852 7.5-6.852s7.5 2.71 7.5 6.852v46.167c0 27.204-22.132 49.336-49.336 49.336z" fill="#2115c2"/></g><g><path d="m370.265 423.404h-228.53c-42.232 0-76.592-34.359-76.592-76.593v-269.625c0-42.233 34.359-76.593 76.592-76.593h228.529c42.233 0 76.593 34.359 76.593 76.593v269.625c0 42.233-34.359 76.593-76.592 76.593zm-228.53-407.81c-33.962 0-61.592 27.63-61.592 61.593v269.625c0 33.962 27.63 61.593 61.592 61.593h228.529c33.962 0 61.593-27.63 61.593-61.593v-269.626c0-33.962-27.631-61.593-61.593-61.593h-228.529z" fill="#f95116"/></g></g></svg>