<svg id="Capa_1" enable-background="new 0 0 512 512" height="512" viewBox="0 0 512 512" width="512" xmlns="http://www.w3.org/2000/svg"><g><path d="m472.118 249.426h-181.585c4.343-16.626 11.241-32.573 20.527-47.243l70.266-111.005 70.276 111.005c9.285 14.67 16.183 30.618 20.516 47.243z" fill="#ff63ed"/><g fill="#ff9bff"><path d="m381.326 91.178-70.266 111.005c-9.286 14.67-16.183 30.618-20.527 47.243h-250.651c4.333-16.626 11.231-32.573 20.517-47.243l70.276-111.005z"/><path d="m323.195 504.5h-250.652c-21.037 0-38.095-17.058-38.095-38.095v-56.647h250.652v56.647c0 21.037 17.058 38.095 38.095 38.095z"/><path d="m477.552 291.708v118.05h-192.452v-118.05c0-14.336 1.837-28.545 5.434-42.281h181.585c3.596 13.736 5.433 27.944 5.433 42.281z"/></g><path d="m290.533 249.426c-3.596 13.737-5.434 27.945-5.434 42.281v118.05h-250.651v-118.05c0-14.336 1.837-28.545 5.434-42.281z" fill="#ffceff"/><path d="m337.95 7.5h-163.9c-23.956 0-43.376 19.42-43.376 43.376v40.302h250.652v-40.302c0-23.956-19.42-43.376-43.376-43.376z" fill="#b98eff"/><circle cx="215.855" cy="320.385" fill="#e207b9" r="11.899"/><circle cx="103.692" cy="320.385" fill="#e207b9" r="11.899"/><path d="m477.552 409.757v56.647c0 21.038-17.048 38.095-38.086 38.095h-116.271c-21.038 0-38.095-17.058-38.095-38.095v-56.647z" fill="#ff63ed"/><g><path d="m381.326 98.678c-4.143 0-7.5-3.358-7.5-7.5v-40.302c0-19.782-16.094-35.876-35.876-35.876h-163.9c-19.782 0-35.876 16.094-35.876 35.876v40.302c0 4.142-3.357 7.5-7.5 7.5s-7.5-3.358-7.5-7.5v-40.302c0-28.053 22.824-50.876 50.876-50.876h163.9c28.053 0 50.876 22.823 50.876 50.876v40.302c0 4.142-3.358 7.5-7.5 7.5z" fill="#6d00ca"/></g><g><path d="m429.323 296.575h-95.994c-4.143 0-7.5-3.358-7.5-7.5s3.357-7.5 7.5-7.5h95.994c4.143 0 7.5 3.358 7.5 7.5s-3.358 7.5-7.5 7.5z" fill="#6d00ca"/></g><g><path d="m429.323 337.092h-95.994c-4.143 0-7.5-3.358-7.5-7.5s3.357-7.5 7.5-7.5h95.994c4.143 0 7.5 3.358 7.5 7.5s-3.358 7.5-7.5 7.5z" fill="#6d00ca"/></g><g><path d="m429.323 377.608h-95.994c-4.143 0-7.5-3.358-7.5-7.5s3.357-7.5 7.5-7.5h95.994c4.143 0 7.5 3.358 7.5 7.5s-3.358 7.5-7.5 7.5z" fill="#6d00ca"/></g><g fill="#e207b9"><path d="m184.97 344.955h-50.393c-4.143 0-7.5 3.358-7.5 7.5 0 4.143 3.357 7.5 7.5 7.5h50.393c4.143 0 7.5-3.357 7.5-7.5 0-4.142-3.357-7.5-7.5-7.5z"/><path d="m479.375 247.528c0-.001 0-.001 0-.001-4.557-17.477-11.769-34.083-21.436-49.356l-70.276-111.004c-1.297-2.046-3.702-3.488-6.337-3.488h-250.652c-2.57 0-4.962 1.316-6.337 3.488l-70.276 111.005c-17.764 28.066-27.113 60.572-27.113 93.536v174.696c0 25.142 20.454 45.596 45.596 45.596h366.923c25.136 0 45.586-20.454 45.586-45.596v-56.647-118.049c-.001-24.13-4.975-40.556-5.678-44.18zm-437.427 44.18c0-11.714 1.287-23.388 3.831-34.782h235.316c-2.303 11.314-3.495 23.417-3.495 34.782v110.549h-235.652zm250.652 0c0-11.598 1.282-23.326 3.841-34.782h169.78c2.544 11.394 3.831 23.068 3.831 34.782v110.549h-177.452zm169.504-49.782h-161.52c3.961-12.114 9.359-23.955 16.813-35.732l63.929-100.994 63.939 100.994c7.088 11.2 12.733 23.183 16.839 35.732zm-395.369-35.732 68.068-107.516h232.898l-62.979 99.494c-8.692 13.732-15.456 28.778-19.883 43.754h-234.943c4.105-12.547 9.75-24.531 16.839-35.732zm5.808 290.806c-16.87 0-30.596-13.725-30.596-30.596v-49.147h235.653v49.147c0 11.322 4.268 22.274 11.817 30.596zm397.509-30.596c0 16.871-13.721 30.596-30.586 30.596h-116.271c-16.87 0-30.595-13.725-30.595-30.596v-49.147h177.452z"/></g></g></svg>