<svg id="Capa_1" enable-background="new 0 0 512 512" height="512" viewBox="0 0 512 512" width="512" xmlns="http://www.w3.org/2000/svg"><g><circle cx="196.479" cy="193.785" fill="#a4bcff" r="186.285"/><path d="m196.479 380.071c-62.829 0-118.389-31.106-152.131-78.755v147.732c0 30.626 24.827 55.453 55.453 55.453h193.355c30.626 0 55.453-24.827 55.453-55.453v-147.733c-33.74 47.65-89.301 78.756-152.13 78.756z" fill="#f90"/><path d="m470.274 220.816h-28.39c-3.113 0-6.117-.458-8.957-1.298.051 6.13.078 11.726.078 13.485 0 65.457-33.573 123.212-84.396 156.977v54.13c22.805-11.254 43.863-26.284 62.372-44.793 44.424-44.424 68.889-103.488 68.889-166.313 0-1.77-.02-7.456-.06-13.658-3.008.952-6.211 1.47-9.536 1.47z" fill="#a4bcff"/><g><path d="m348.615 451.61c-2.766 0-2.755-1.535-4.062-4.183-1.833-3.714-2.977-8.211.737-10.044 22.293-11.001 42.61-25.593 60.388-43.371 43.008-43.008 66.693-100.189 66.693-161.01 0-1.763-.021-7.43-.061-13.61-.026-4.142 3.31-6.05 7.451-6.077h.05c4.119 0 7.473 1.854 7.499 5.98.04 6.224.061 11.93.061 13.706 0 64.828-25.246 125.776-71.086 171.616-18.939 18.939-40.592 34.489-64.356 46.216-1.068.528-2.2.777-3.314.777z" fill="#2115c2"/></g><g><path d="m348.616 397.479c-2.428 0-2.243-3.744-3.687-5.918-2.292-3.45-3.921-5.538-.47-7.83 50.749-33.714 81.047-90.062 81.047-150.729 0-1.75-.026-7.32-.078-13.421-.035-4.142 3.295-6.623 7.437-6.658h.064c4.113 0 7.464 2.412 7.499 6.532.052 6.159.078 11.781.078 13.548 0 65.704-32.803 126.722-87.746 163.224-1.277.847-2.718 1.252-4.144 1.252z" fill="#2115c2"/></g><path d="m196.479 380.071c-32.498 0-63.048-8.33-89.644-22.959v52.683c0 17.794 14.425 32.219 32.219 32.219h114.852c17.794 0 32.219-14.425 32.219-32.219v-52.683c-26.597 14.629-57.147 22.959-89.646 22.959z" fill="#ffd600"/><g><path d="m253.905 449.513h-114.851c-21.901 0-39.719-17.818-39.719-39.719v-52.683c0-4.142 3.357-6.025 7.5-6.025s7.5 1.883 7.5 6.025v52.683c0 13.63 11.089 24.719 24.719 24.719h114.852c13.63 0 24.719-11.089 24.719-24.719v-52.683c0-4.142 3.357-5.438 7.5-5.438s7.5 1.296 7.5 5.438v52.683c-.001 21.902-17.818 39.719-39.72 39.719z" fill="#f95116"/></g><g><path d="m293.156 512h-193.354c-34.713 0-62.953-28.241-62.953-62.953v-147.732c0-4.142 3.357-2.592 7.5-2.592s7.5-1.55 7.5 2.592v147.731c0 26.442 21.511 47.954 47.953 47.954h193.354c26.441 0 47.953-21.512 47.953-47.953v-147.732c0-4.142 3.357-2.921 7.5-2.921s7.5-1.221 7.5 2.921v147.731c0 34.713-28.24 62.954-62.953 62.954z" fill="#f95116"/></g><circle cx="196.479" cy="193.785" fill="#ffd600" r="75.265"/><circle cx="196.479" cy="193.785" fill="#ffff6f" r="27.031"/><path d="m470.274 157.754h-28.39c-17.414 0-31.531 14.117-31.531 31.531 0 17.414 14.117 31.531 31.531 31.531h28.39c17.414 0 31.531-14.117 31.531-31.531 0-17.414-14.117-31.531-31.531-31.531z" fill="#ffd600"/><circle cx="248.101" cy="59.762" fill="#2115c2" r="10.953"/><g><path d="m219.672 96.782h-46.385c-4.143 0-7.5-3.358-7.5-7.5s3.357-7.5 7.5-7.5h46.385c4.143 0 7.5 3.358 7.5 7.5s-3.358 7.5-7.5 7.5z" fill="#2115c2"/></g><circle cx="144.858" cy="59.762" fill="#2115c2" r="10.953"/><g><path d="m196.479 276.551c-45.637 0-82.766-37.128-82.766-82.766 0-45.637 37.129-82.765 82.766-82.765s82.766 37.128 82.766 82.765c0 45.638-37.129 82.766-82.766 82.766zm0-150.531c-37.366 0-67.766 30.399-67.766 67.765s30.399 67.766 67.766 67.766 67.766-30.399 67.766-67.766c0-37.366-30.399-67.765-67.766-67.765z" fill="#f95116"/></g><g><path d="m196.479 228.316c-19.04 0-34.53-15.49-34.53-34.531s15.49-34.531 34.53-34.531 34.53 15.49 34.53 34.531-15.489 34.531-34.53 34.531zm0-54.061c-10.769 0-19.53 8.761-19.53 19.531 0 10.769 8.762 19.531 19.53 19.531s19.53-8.761 19.53-19.531c.001-10.77-8.761-19.531-19.53-19.531z" fill="#f95116"/></g><g><path d="m196.479 387.571c-106.854 0-193.785-86.932-193.785-193.785s86.932-193.786 193.785-193.786 193.785 86.932 193.785 193.785-86.931 193.786-193.785 193.786zm0-372.571c-98.582 0-178.785 80.203-178.785 178.785s80.203 178.785 178.785 178.785 178.785-80.203 178.785-178.785-80.202-178.785-178.785-178.785z" fill="#2115c2"/></g><g><path d="m470.274 228.316h-28.39c-21.521 0-39.031-17.509-39.031-39.031s17.51-39.031 39.031-39.031h28.39c21.521 0 39.031 17.509 39.031 39.031s-17.509 39.031-39.031 39.031zm-28.389-63.062c-13.251 0-24.031 10.78-24.031 24.031s10.78 24.031 24.031 24.031h28.39c13.251 0 24.031-10.78 24.031-24.031s-10.78-24.031-24.031-24.031z" fill="#f95116"/></g></g></svg>