<svg id="Capa_1" enable-background="new 0 0 512 512" height="512" viewBox="0 0 512 512" width="512" xmlns="http://www.w3.org/2000/svg"><g><path d="m255.999 14.035c-137.242.001-248.499 111.258-248.499 248.5 0 104.407 64.388 193.775 155.623 230.562 44.453 17.924 92.877-15.284 92.877-63.214 0-37.528 30.423-67.951 67.951-67.951h82.605c53.638 0 97.376-43.146 97.931-96.781.01-.933.014-1.868.013-2.804-.102-136.891-111.61-248.313-248.501-248.312z" fill="#f90"/><circle cx="145.569" cy="376.984" fill="#ff63ed" r="41.421"/><circle cx="96.986" cy="265.377" fill="#7181ff" r="41.421"/><circle cx="141.55" cy="152.106" fill="#88f8d8" r="41.421"/><circle cx="253.157" cy="103.522" fill="#ffff6f" r="41.421"/><circle cx="366.428" cy="148.086" fill="#b98eff" r="41.421"/><circle cx="415.012" cy="259.693" fill="#ffceff" r="41.421"/><circle cx="315.792" cy="270.687" fill="#f95116" r="12.687"/><g><path d="m282.862 312.38h-53.727c-4.143 0-7.5-3.358-7.5-7.5s3.357-7.5 7.5-7.5h53.727c4.143 0 7.5 3.358 7.5 7.5s-3.357 7.5-7.5 7.5z" fill="#f95116"/></g><circle cx="196.206" cy="270.687" fill="#f95116" r="12.687"/><g><path d="m188.192 505.465c-9.423 0-18.88-1.786-27.874-5.412-46.799-18.87-86.703-50.9-115.399-92.629-29.386-42.733-44.919-92.834-44.919-144.889 0-68.38 26.629-132.667 74.98-181.019s112.639-74.981 181.019-74.981c141.055 0 255.896 114.754 256.001 255.806.001.963-.004 1.926-.014 2.888-.289 27.922-11.4 54.118-31.288 73.761-19.875 19.631-46.206 30.442-74.143 30.442h-82.605c-33.332 0-60.45 27.118-60.45 60.45 0 25.169-12.472 48.614-33.361 62.715-12.607 8.51-27.232 12.867-41.947 12.868zm67.807-483.93c-64.373 0-124.894 25.069-170.412 70.588-45.519 45.519-70.587 106.039-70.587 170.412 0 49.006 14.62 96.169 42.278 136.389 27.021 39.293 64.592 69.453 108.649 87.217 18.684 7.534 39.03 5.356 55.818-5.977 16.753-11.308 26.754-30.105 26.754-50.282 0-41.604 33.847-75.451 75.45-75.451h82.605c23.965 0 46.552-9.274 63.602-26.114 17.054-16.844 26.582-39.305 26.829-63.245.01-.906.015-1.812.014-2.719-.098-132.788-108.21-240.819-241-240.818z" fill="#f95116"/></g><g><path d="m145.569 425.905c-26.975 0-48.921-21.946-48.921-48.921s21.946-48.921 48.921-48.921c26.976 0 48.922 21.946 48.922 48.921s-21.946 48.921-48.922 48.921zm0-82.842c-18.704 0-33.921 15.217-33.921 33.921s15.217 33.921 33.921 33.921 33.922-15.217 33.922-33.921-15.218-33.921-33.922-33.921z" fill="#e207b9"/></g><g><path d="m96.986 314.276c-12.528 0-25.056-4.769-34.593-14.306-19.075-19.075-19.075-50.111-.001-69.185 19.076-19.074 50.112-19.074 69.187 0s19.074 50.111 0 69.185c-9.537 9.537-22.065 14.306-34.593 14.306zm0-82.804c-8.688 0-17.373 3.306-23.987 9.919-13.226 13.226-13.226 34.746.001 47.972s34.747 13.226 47.972 0c13.227-13.226 13.227-34.746 0-47.972-6.612-6.612-15.3-9.919-23.986-9.919z" fill="#2115c2"/></g><g><path d="m141.55 201.027c-26.975 0-48.921-21.946-48.921-48.921s21.946-48.921 48.921-48.921c26.976 0 48.922 21.946 48.922 48.921s-21.947 48.921-48.922 48.921zm0-82.843c-18.704 0-33.921 15.217-33.921 33.921s15.217 33.921 33.921 33.921 33.922-15.217 33.922-33.921-15.218-33.921-33.922-33.921z" fill="#007ea8"/></g><g><path d="m253.157 152.42c-12.528 0-25.056-4.769-34.593-14.306-.001 0-.001 0-.001 0-19.074-19.074-19.074-50.111 0-69.185 19.077-19.074 50.113-19.074 69.187 0s19.074 50.111 0 69.185c-9.537 9.538-22.065 14.306-34.593 14.306zm-23.987-24.912c13.227 13.226 34.748 13.226 47.973 0 13.227-13.226 13.227-34.746 0-47.972-13.224-13.225-34.745-13.226-47.973 0-13.226 13.226-13.226 34.746 0 47.972z" fill="#f95116"/></g><g><path d="m366.429 197.008c-26.976 0-48.922-21.946-48.922-48.921s21.946-48.921 48.922-48.921c26.975 0 48.921 21.946 48.921 48.921s-21.947 48.921-48.921 48.921zm0-82.843c-18.704 0-33.922 15.217-33.922 33.921s15.218 33.921 33.922 33.921 33.921-15.217 33.921-33.921-15.217-33.921-33.921-33.921z" fill="#6d00ca"/></g><g><path d="m415.012 308.591c-12.529 0-25.055-4.767-34.593-14.306-19.074-19.074-19.074-50.111 0-69.185 19.075-19.075 50.112-19.074 69.186 0 19.075 19.075 19.075 50.111.001 69.185-9.538 9.537-22.068 14.306-34.594 14.306zm0-82.804c-8.687 0-17.373 3.307-23.985 9.919-13.227 13.226-13.227 34.746 0 47.972 13.225 13.226 34.746 13.226 47.973 0 13.226-13.226 13.226-34.746-.001-47.972-6.614-6.612-15.301-9.919-23.987-9.919z" fill="#e207b9"/></g></g></svg>