<svg id="Capa_1" enable-background="new 0 0 512 512" height="512" viewBox="0 0 512 512" width="512" xmlns="http://www.w3.org/2000/svg"><g><path d="m430.164 76.24h-21.67v47.414h21.67c14.845 0 26.922 12.078 26.922 26.923s-12.078 26.922-26.922 26.922h-24.297c-2.97 16.785-8.399 32.716-15.905 47.414h40.202c41.055 0 74.337-33.282 74.337-74.337-.001-41.054-33.282-74.336-74.337-74.336z" fill="#ff63ed"/><path d="m148.675 292.277h46.618.005 132.726c48.304-30.018 80.471-83.553 80.471-144.609v-87.331c0-23.995-19.452-43.446-43.446-43.446h-253.399c-23.995 0-43.446 19.452-43.446 43.446v87.331c0 61.057 32.166 114.591 80.471 144.609z" fill="#ff9bff"/><circle cx="305.865" cy="126.637" fill="#e207b9" r="14.325"/><g><path d="m268.682 172.747h-60.666c-4.143 0-7.5-3.358-7.5-7.5s3.357-7.5 7.5-7.5h60.666c4.143 0 7.5 3.358 7.5 7.5s-3.358 7.5-7.5 7.5z" fill="#e207b9"/></g><circle cx="170.833" cy="126.637" fill="#e207b9" r="14.325"/><path d="m430.164 68.74h-14.17v-8.402c0-28.092-22.854-50.946-50.946-50.946h-253.398c-28.092 0-50.946 22.854-50.946 50.946v87.331c0 30.756 7.988 61.064 23.101 87.65 14.65 25.771 35.713 47.669 60.911 63.329 1.188.739 2.56 1.13 3.959 1.13h179.349c1.399 0 2.771-.391 3.959-1.13 25.831-16.053 47.608-38.826 62.499-66.234h35.683c45.124 0 81.836-36.712 81.836-81.837s-36.713-81.837-81.837-81.837zm-14.17 62.414h14.169c10.71 0 19.423 8.713 19.423 19.423s-8.713 19.423-19.423 19.423h-15.585c.934-7.386 1.416-14.845 1.416-22.331zm-90.138 153.623h-175.014c-22.287-14.257-40.929-33.883-53.996-56.872-13.831-24.33-21.142-52.076-21.142-80.237v-87.33c0-19.821 16.125-35.946 35.946-35.946h253.397c19.821 0 35.946 16.125 35.946 35.946v87.331c.001 54.692-27.61 106.703-75.137 137.108zm104.308-67.363h-28.412c4.484-10.499 7.981-21.611 10.289-32.414h18.122c18.98 0 34.423-15.442 34.423-34.423s-15.442-34.423-34.423-34.423h-14.169v-32.414h14.17c36.854 0 66.836 29.983 66.836 66.837s-29.982 66.837-66.836 66.837z" fill="#e207b9"/><path d="m195.297 495.109h-86.372c-55.923 0-101.425-45.492-101.425-101.416 0-55.923 45.502-101.416 101.425-101.416h86.372c-55.923 0-101.425 45.492-101.425 101.416s45.502 101.416 101.425 101.416z" fill="#565eec"/><path d="m444.33 439.888h-249.033c-25.475 0-46.195-20.72-46.195-46.195s20.72-46.195 46.195-46.195h249.033c-25.475 0-46.195 20.72-46.195 46.195.001 25.475 20.72 46.195 46.195 46.195z" fill="#a4bcff"/><path d="m444.33 292.277c15.243 0 27.61 12.358 27.61 27.611s-12.367 27.611-27.61 27.611h-249.033c-25.475 0-46.195 20.72-46.195 46.195s20.72 46.195 46.195 46.195h249.033c15.243 0 27.61 12.358 27.61 27.611s-12.367 27.611-27.61 27.611h-249.033c-55.923 0-101.425-45.492-101.425-101.416 0-55.923 45.502-101.416 101.425-101.416h249.033z" fill="#7181ff"/><path d="m444.33 432.388c-21.336 0-38.694-17.358-38.694-38.695s17.358-38.695 38.694-38.695c19.36 0 35.11-15.751 35.11-35.111s-15.75-35.11-35.11-35.11c-28.055 0-286.797 0-335.404 0-60.062 0-108.926 48.86-108.926 108.916s48.864 108.916 108.926 108.916h335.404c19.36 0 35.11-15.75 35.11-35.11 0-19.361-15.75-35.111-35.11-35.111zm-53.694-38.695c0 15.185 6.337 28.918 16.504 38.695h-211.843c-21.336 0-38.694-17.358-38.694-38.695s17.358-38.695 38.694-38.695h211.843c-10.167 9.777-16.504 23.51-16.504 38.695zm-250.457 93.916h-31.253c-51.791 0-93.926-42.13-93.926-93.916 0-51.785 42.135-93.916 93.926-93.916h31.253c-32.658 19.169-53.807 54.689-53.807 93.916 0 38.911 20.796 74.489 53.807 93.916zm304.151 0h-249.033c-51.79 0-93.925-42.13-93.925-93.916 0-51.785 42.135-93.916 93.925-93.916h249.033c11.089 0 20.11 9.021 20.11 20.11s-9.021 20.111-20.11 20.111h-249.033c-29.607 0-53.694 24.087-53.694 53.695 0 29.507 23.964 53.695 53.694 53.695h249.033c11.089 0 20.11 9.021 20.11 20.111 0 11.088-9.021 20.11-20.11 20.11z" fill="#2115c2"/></g></svg>