<svg id="Capa_1" enable-background="new 0 0 512 512" height="512" viewBox="0 0 512 512" width="512" xmlns="http://www.w3.org/2000/svg"><g><path d="m22.127 353.25c-19.545 19.545-19.545 51.233 0 70.777l65.826 65.826c19.545 19.545 51.233 19.545 70.777 0l331.098-331.098c19.545-19.545 19.545-51.233 0-70.777l-65.826-65.826c-19.545-19.545-51.233-19.545-70.777 0zm366.694-198.83c-8.653 8.653-22.683 8.653-31.336 0s-8.653-22.683 0-31.336 22.683-8.653 31.336 0 8.653 22.683 0 31.336z" fill="#b98eff"/><g fill="#6d00ca"><circle cx="310.727" cy="220.358" r="13.562"/><circle cx="220.332" cy="310.753" r="13.562"/><g><path d="m306.378 265.792-40.612 40.612c-2.929 2.929-2.929 7.678 0 10.607 1.465 1.465 3.385 2.197 5.304 2.197s3.839-.732 5.304-2.197l40.612-40.612c2.929-2.929 2.929-7.678 0-10.607-2.93-2.929-7.678-2.929-10.608 0z"/><path d="m14.435 350.499c-20.009 22.573-19.219 57.224 2.388 78.832l65.827 65.826c11.219 11.219 25.956 16.828 40.693 16.828 14.736 0 29.473-5.609 40.692-16.828l331.098-331.098c22.49-22.491 22.491-58.892 0-81.384l-65.827-65.826c-20.073-20.072-53.506-23.84-78.956-2.282zm470.089-197.047-331.098 331.098c-16.588 16.589-43.58 16.589-60.169 0l-65.827-65.826c-14.472-14.471-16.006-36.171-6.337-52.102l34.641 34.642c2.93 2.929 7.678 2.929 10.608 0 2.929-2.929 2.929-7.678 0-10.607l-35.508-35.508 22.882-22.882 20.952 20.952c2.93 2.929 7.677 2.929 10.608 0 2.929-2.929 2.929-7.678 0-10.607l-20.951-20.952 22.883-22.882 20.952 20.952c2.93 2.929 7.677 2.929 10.608 0 2.929-2.929 2.929-7.678 0-10.607l-20.954-20.953 22.883-22.883 20.952 20.952c2.93 2.93 7.677 2.93 10.608 0 2.929-2.929 2.929-7.678 0-10.607l-20.952-20.953 22.882-22.882 20.952 20.952c2.93 2.93 7.677 2.93 10.608 0 2.929-2.929 2.929-7.678 0-10.607l-20.952-20.953 22.882-22.882 35.507 35.508c2.929 2.929 7.677 2.929 10.608 0 2.929-2.929 2.929-7.678 0-10.607l-35.508-35.508 22.882-22.882 20.953 20.952c2.928 2.928 7.678 2.93 10.608 0 2.929-2.929 2.929-7.678 0-10.607l-20.953-20.953 22.882-22.882 20.953 20.952c2.928 2.928 7.678 2.93 10.608 0 2.929-2.929 2.929-7.678 0-10.607l-20.953-20.953 22.882-22.882 20.953 20.952c2.928 2.928 7.678 2.93 10.608 0 2.929-2.929 2.929-7.678 0-10.607l-20.953-20.953 22.882-22.883 20.952 20.953c2.929 2.928 7.678 2.929 10.608 0 2.929-2.929 2.929-7.678-.001-10.607l-20.952-20.952 22.883-22.883 35.508 35.508c2.93 2.929 7.678 2.929 10.608 0 2.929-2.929 2.929-7.678 0-10.607l-34.645-34.639c15.931-9.67 37.632-8.133 52.101 6.337l65.827 65.826c16.627 16.626 16.629 43.54-.001 60.169z"/><path d="m352.181 117.781c-11.563 11.563-11.563 30.379.001 41.943 11.589 11.589 30.351 11.592 41.942 0 11.565-11.564 11.565-30.379.001-41.943-11.563-11.564-30.379-11.564-41.944 0zm31.337 31.335c-.001 0-.001 0 0 0-5.728 5.729-15.002 5.729-20.729.001-5.715-5.715-5.715-15.014 0-20.729 5.712-5.713 15.015-5.717 20.729 0 5.715 5.715 5.715 15.013 0 20.728z"/></g></g></g></svg>