<svg id="Capa_1" enable-background="new 0 0 512 512" height="512" viewBox="0 0 512 512" width="512" xmlns="http://www.w3.org/2000/svg"><g><g><path d="m77.151 446.153c-7.675-3.968-13.189-10.461-16.069-17.935l-13.18 25.491c-9.56 18.49-2.321 41.229 16.169 50.789l30.716-59.407c-5.067 3.443-11.812 4.073-17.636 1.062z" fill="#b98eff"/><path d="m434.849 446.153c7.674-3.968 13.189-10.461 16.069-17.935l13.18 25.491c9.56 18.49 2.321 41.229-16.169 50.789l-30.716-59.407c5.067 3.443 11.812 4.073 17.636 1.062z" fill="#b98eff"/><g><path d="m60.626 511.161c-10.723-5.544-18.644-14.931-22.306-26.433s-2.625-23.741 2.919-34.463l13.18-25.491c1.901-3.679 5.509-2.981 9.189-1.078 3.68 1.902 6.037 4.288 4.135 7.967l-13.18 25.491c-3.704 7.163-4.396 15.34-1.95 23.023 1.669 5.241 4.661 9.825 8.668 13.385l26.843-51.916c1.902-3.68 6.498-3.419 10.18-1.516 3.68 1.902 5.047 4.726 3.144 8.406l-30.716 59.407c-1.91 3.699-6.45 5.109-10.106 3.218z" fill="#6d00ca"/></g><g><path d="m441.267 507.943-30.717-59.407 15.002-3.645 25.166 48.671c4.007-3.56 6.999-8.144 8.668-13.385 2.446-7.684 1.754-15.86-1.95-23.023l-10.881-23.192c-1.902-3.679-2.626-9.277 1.054-11.18 3.674-1.902 8.068-1.689 9.971 1.991l13.181 25.491c5.544 10.722 6.581 22.961 2.919 34.463-3.661 11.502-11.583 20.889-22.306 26.433-3.671 1.9-8.201.469-10.107-3.217z" fill="#6d00ca"/></g><g fill="#a4bcff"><path d="m116.445 296.271h-57.65c-8.481 0-15.357 6.875-15.357 15.357 0 8.481 6.875 15.357 15.357 15.357h41.769z"/><path d="m453.205 296.271h-57.649l15.88 30.713h41.769c8.481 0 15.357-6.875 15.357-15.357-.001-8.48-6.876-15.356-15.357-15.356z"/><g><path d="m228.048 296.271h-53.978l-15.88 30.713h69.858z"/><path d="m283.952 326.984h69.857l-15.88-30.713h-53.977z"/></g></g><path d="m256 262.887c-15.438 0-27.952 12.515-27.952 27.952v41.577c0 15.437 12.515 27.952 27.952 27.952s27.952-12.515 27.952-27.952v-41.577c0-15.437-12.515-27.952-27.952-27.952z" fill="#b98eff"/><g><path d="m100.565 334.484h-41.77c-12.603 0-22.856-10.253-22.856-22.857 0-12.603 10.253-22.856 22.856-22.856h57.649c4.143 0 3.512 3.358 3.512 7.5s.631 7.5-3.512 7.5h-57.649c-4.332 0-7.856 3.524-7.856 7.856s3.524 7.857 7.856 7.857h41.769c4.143 0 0 3.358 0 7.5.001 4.143 4.143 7.5.001 7.5z" fill="#2115c2"/></g><g><path d="m453.205 334.484h-41.769c-4.143 0-7.5-3.358-7.5-7.5s3.357-7.5 7.5-7.5h41.769c4.332 0 7.856-3.524 7.856-7.857 0-4.332-3.524-7.856-7.856-7.856h-57.649c-4.143 0-7.5-3.358-7.5-7.5s3.357-7.5 7.5-7.5h57.649c12.603 0 22.856 10.253 22.856 22.856 0 12.604-10.253 22.857-22.856 22.857z" fill="#2115c2"/></g><g><g><path d="m228.048 334.484h-69.857c-4.143 0-7.5-3.358-7.5-7.5s3.357-7.5 7.5-7.5h69.857c4.143 0 6.731 3.358 6.731 7.5 0 4.143-2.589 7.5-6.731 7.5z" fill="#2115c2"/></g><g><path d="m228.048 303.771h-53.977c-4.143 0-7.5-3.358-7.5-7.5s3.357-7.5 7.5-7.5h53.977c4.143 0 6.731 3.358 6.731 7.5 0 4.143-2.589 7.5-6.731 7.5z" fill="#2115c2"/></g><g><path d="m337.929 303.771h-53.977c-4.143 0-6.205-3.358-6.205-7.5s2.062-7.5 6.205-7.5h53.977c4.143 0 7.5 3.358 7.5 7.5 0 4.143-3.357 7.5-7.5 7.5z" fill="#2115c2"/></g><g><path d="m353.809 334.484h-69.857c-4.143 0-6.205-3.358-6.205-7.5s2.062-7.5 6.205-7.5h69.857c4.143 0 7.5 3.358 7.5 7.5 0 4.143-3.357 7.5-7.5 7.5z" fill="#2115c2"/></g></g><g><path d="m256 367.868c-19.549 0-35.452-15.904-35.452-35.452v-41.577c0-19.548 15.903-35.452 35.452-35.452s35.452 15.904 35.452 35.452v41.577c0 19.549-15.903 35.452-35.452 35.452zm0-97.481c-11.277 0-20.452 9.175-20.452 20.452v41.577c0 11.277 9.175 20.452 20.452 20.452s20.452-9.175 20.452-20.452v-41.577c0-11.277-9.175-20.452-20.452-20.452z" fill="#6d00ca"/></g><path d="m109.245 387.161c0-15.522 12.583-28.105 28.105-28.105 1.394 0 2.763.105 4.103.301l68.409-132.308c-16.166-10.982-28.205-27.574-33.337-46.976l-113.932 220.351c-8.608 16.648-2.09 37.122 14.558 45.729 8.465 4.377 18.875 1.063 23.251-7.402l16.636-32.176c-4.824-5.046-7.793-11.881-7.793-19.414z" fill="#f90"/><path d="m402.755 387.161c0-15.522-12.583-28.105-28.105-28.105-1.394 0-2.763.105-4.103.301l-68.408-132.307c16.166-10.982 28.205-27.574 33.337-46.976l113.931 220.349c8.608 16.648 2.09 37.122-14.558 45.729-8.465 4.377-18.875 1.063-23.251-7.402l-16.636-32.176c4.824-5.045 7.793-11.88 7.793-19.413z" fill="#f90"/><path d="m256 76.785c9.682 0 18.967 1.687 27.593 4.76v-46.452c0-15.239-12.354-27.593-27.593-27.593s-27.593 12.354-27.593 27.593v46.452c8.626-3.073 17.911-4.76 27.593-4.76z" fill="#ffff6f"/><circle cx="256" cy="158.999" fill="#a4bcff" r="82.214"/><circle cx="137.349" cy="387.161" fill="#ffff6f" r="28.105"/><circle cx="374.651" cy="387.161" fill="#ffff6f" r="28.105"/><circle cx="300.095" cy="156.188" fill="#2115c2" r="9.356"/><g><path d="m275.81 188.904h-39.621c-4.143 0-7.5-3.358-7.5-7.5s3.357-7.5 7.5-7.5h39.621c4.143 0 7.5 3.358 7.5 7.5s-3.357 7.5-7.5 7.5z" fill="#2115c2"/></g><circle cx="211.905" cy="156.188" fill="#2115c2" r="9.356"/><g><path d="m283.594 86.783c-4.143 0-7.5-1.095-7.5-5.237v-46.453c0-11.079-9.014-20.093-20.094-20.093s-20.094 9.014-20.094 20.093v46.453c0 4.142-3.357 5.628-7.5 5.628s-7.5-1.486-7.5-5.628v-46.453c0-19.35 15.743-35.093 35.094-35.093s35.094 15.743 35.094 35.093v46.453c0 4.142-3.358 5.237-7.5 5.237z" fill="#f95116"/></g><g fill="#f95116"><path d="m211.06 222.633c-3.68-1.902-5.958-2.707-7.861.973l-66.156 127.952c-19.6.18-35.298 16.161-35.298 35.603 0 7.11 2.177 14.311 6.377 20.331l-14.381 27.815c-2.475 4.788-8.357 6.662-13.145 4.185-12.947-6.695-18.034-22.675-11.34-35.623l113.93-220.349c1.902-3.68.462-8.204-3.218-10.106-3.682-1.903-8.205-.462-10.106 3.217l-113.93 220.35c-10.493 20.295-2.52 45.343 17.775 55.836 12.122 6.268 27.089 1.507 33.358-10.619l12.513-24.202c5.234 3.029 11.301 4.772 17.771 4.772 19.633 0 35.604-15.972 35.604-35.605 0-14.319-8.501-26.683-20.717-32.331l64.286-124.336c1.903-3.68-1.782-5.961-5.462-7.863zm-73.711 185.132c-11.286 0-20.604-9.23-20.604-20.604 0-11.361 9.243-20.604 20.604-20.604 11.268 0 20.604 9.18 20.604 20.604 0 11.361-9.243 20.604-20.604 20.604z"/><path d="m456.069 396.979-113.93-220.35c-1.903-3.68-5.041-3.729-8.715-1.826-3.68 1.902-6.512 5.035-4.609 8.715l113.93 220.349c6.694 12.948 1.607 28.928-11.34 35.623-4.797 2.48-10.674.598-13.145-4.184l-14.382-27.815c3.961-5.681 6.378-12.82 6.378-20.331 0-19.258-15.516-35.422-35.298-35.603l-66.156-127.952c-1.902-3.68-5.286-3.975-8.961-2.072-3.68 1.902-6.265 5.282-4.363 8.962l64.286 124.336c-12.217 5.648-20.718 18.012-20.718 32.331 0 19.633 15.973 35.605 35.605 35.605 6.47 0 12.537-1.743 17.77-4.772l12.514 24.202c6.28 12.145 21.253 16.88 33.358 10.619 20.295-10.494 28.269-35.542 17.776-55.837zm-102.023-9.818c0-11.51 9.426-20.604 20.605-20.604 11.361 0 20.604 9.243 20.604 20.604 0 11.448-9.383 20.604-20.604 20.604-11.362 0-20.605-9.243-20.605-20.604z"/></g><g><path d="m256 248.714c-49.469 0-89.715-40.245-89.715-89.714s40.246-89.715 89.715-89.715 89.715 40.246 89.715 89.714-40.246 89.715-89.715 89.715zm0-164.429c-41.198 0-74.715 33.517-74.715 74.714s33.517 74.714 74.715 74.714 74.715-33.517 74.715-74.714-33.517-74.714-74.715-74.714z" fill="#2115c2"/></g></g></g></svg>