<svg id="Capa_1" enable-background="new 0 0 512 512" height="512" viewBox="0 0 512 512" width="512" xmlns="http://www.w3.org/2000/svg"><g><path d="m256.005 280.315c-31.152 0-59.859-10.451-82.825-28.026v76.823c0 2.475.11 4.93.331 7.345h61.551l4.888-29.162c3.83 4.604 9.599 7.537 16.055 7.537 6.457 0 12.226-2.933 16.055-7.537l4.888 29.162h61.552c.22-2.415.331-4.87.331-7.345v-76.823c-22.966 17.575-51.674 28.026-82.826 28.026z" fill="#a4bcff"/><path d="m439.12 307.87c0 3.076-.561 6.212-1.743 9.238-5.451 13.978-21.743 20.24-35.15 13.497l-16.483-7.325 20.801-46.473 18.547 8.307c8.828 4.429 14.028 13.377 14.028 22.756z" fill="#ffceff"/><path d="m338.83 252.289v50.13l46.913 20.862 20.801-46.473-63.074-28.235c-1.38 1.155-2.785 2.281-4.211 3.381z" fill="#a4bcff"/><path d="m72.89 307.87c0 3.076.561 6.212 1.743 9.238 5.451 13.978 21.743 20.24 35.15 13.497l16.483-7.325-20.801-46.473-18.547 8.307c-8.827 4.429-14.028 13.377-14.028 22.756z" fill="#ffceff"/><path d="m173.18 252.289v50.13l-46.913 20.862-20.801-46.473 63.074-28.235c1.38 1.155 2.785 2.281 4.211 3.381z" fill="#a4bcff"/><path d="m270.838 410.585v47.359h46.557v-73.237c-12.001 13.241-28.233 22.565-46.557 25.878z" fill="#b98eff"/><path d="m198.935 389.104v68.84h46.557v-46.699c-17.946-2.275-34.094-10.283-46.557-22.141z" fill="#b98eff"/><path d="m392.397 143.923c0 75.33-61.062 136.392-136.392 136.392s-136.392-61.062-136.392-136.392c0-13.567 1.984-26.673 5.671-39.048h80.08c9.81 0 19.218-3.898 26.162-10.832l11.172-11.182c7.355-7.345 19.258-7.345 26.613 0l11.172 11.182c6.944 6.934 16.353 10.832 26.162 10.832h80.08c3.688 12.375 5.672 25.481 5.672 39.048z" fill="#ffceff"/><path d="m256.005 280.315c-7.099 0-14.071-.544-20.878-1.589v15.228c0 11.53 9.347 20.877 20.878 20.877s20.878-9.347 20.878-20.877v-15.228c-6.807 1.045-13.779 1.589-20.878 1.589z" fill="#ff63ed"/><path d="m276.949 336.457 1.727 10.306c1.353 8.07-1.645 16.256-7.89 21.544l-6.518 5.519c-4.768 4.037-11.756 4.037-16.525 0l-6.518-5.519c-6.245-5.287-9.243-13.474-7.89-21.544l1.727-10.306h-61.551c3.707 42.304 39.228 75.47 82.494 75.47s78.787-33.166 82.494-75.47z" fill="#b98eff"/><path d="m278.676 346.763-6.616-39.469c-3.83 4.604-9.599 7.537-16.055 7.537-6.457 0-12.226-2.933-16.055-7.537l-6.616 39.469c-1.353 8.07 1.645 16.256 7.89 21.544l6.518 5.519c4.768 4.037 11.756 4.037 16.525 0l6.518-5.519c6.246-5.288 9.244-13.474 7.891-21.544z" fill="#ff63ed"/><path d="m428.157 278.27-18.547-8.307c-3.78-1.692-8.215-.002-9.91 3.779-1.693 3.78-.001 8.217 3.779 9.91l18.384 8.234c8.365 4.284 11.819 14.065 8.526 22.498-3.837 9.836-15.287 14.302-24.793 9.522-.107-.054-.215-.105-.324-.154l-16.482-7.324c-3.786-1.682-8.217.022-9.899 3.807-1.683 3.785.022 8.217 3.807 9.899l16.329 7.256c17.408 8.628 38.342.376 45.334-17.552 6.537-16.724-1.835-35.22-16.204-41.568z" fill="#e207b9"/><path d="m123.221 316.427-16.482 7.324c-.109.048-.217.1-.324.154-9.47 4.763-20.94.357-24.795-9.527-3.282-8.405.143-18.199 8.528-22.492l18.384-8.234c3.78-1.693 5.472-6.13 3.779-9.91-1.693-3.781-6.134-5.471-9.91-3.779-20.754 9.298-18.613 8.332-18.845 8.448-15.559 7.806-21.977 25.897-15.908 41.421 7.025 18.013 28.013 26.144 45.336 17.558l16.329-7.256c3.785-1.682 5.49-6.114 3.807-9.899-1.681-3.785-6.112-5.489-9.899-3.808z" fill="#e207b9"/><path d="m339.155 328.986c-4.147-.365-7.764 2.69-8.126 6.816-3.422 39.046-36.318 68.626-75.023 68.626-38.659 0-71.602-29.583-75.024-68.626-.361-4.127-3.999-7.178-8.126-6.816-4.126.362-7.177 4-6.816 8.126 1.826 20.829 10.801 40.228 25.396 55.141v65.691c0 4.142 3.357 3.883 7.499 3.883s7.5.259 7.5-3.883v-53.323c9.174 6.043 20.148 10.698 31.558 12.99v40.333c0 4.142 3.286 3.883 7.428 3.883s7.571.259 7.571-3.883v-38.587c1.003.033 2.007.07 3.014.07 2.459 0 4.903-.118 7.333-.315v38.832c0 4.142 4.013 2.025 8.155 2.025s6.844 2.117 6.844-2.025v-41.322c11.097-2.837 21.847-7.809 31.558-15.042v56.364c0 4.142 3.357 4.944 7.5 4.944 4.142 0 7.499-.802 7.499-4.944v-70.444c12.038-14.178 19.439-31.704 21.077-50.388.36-4.127-2.691-7.765-6.817-8.126z" fill="#6d00ca"/><path d="m409.609 269.962-63.073-28.235c-3.622-1.622-5.873 3.385-7.706 6.845-2.021.558-5.666-1.564-6.591.137 0 0-.634 1.617-.635 1.618-.61 1.12-.273.845-.273 1.961v76.668h-54.382c-4.142 0-5.455 3.358-5.455 7.5s1.313 7.499 5.455 7.499h61.551c3.878 0 7.116-2.955 7.468-6.817.24-2.63.362-5.33.362-8.027v-15.15l36.366 16.171c3.789 1.684 8.207-.024 9.893-3.788l20.801-46.473c1.693-3.78-.001-8.216-3.781-9.909zm-27.654 43.426-35.625-15.842v-39.477l50.306 22.52z" fill="#2115c2"/><path d="m235.062 328.957h-54.382c0-23.507 0-54.398 0-76.668 0-3.309-4.203-2.807-7.5-3.716-1.834-3.46-4.079-8.467-7.706-6.845l-63.073 28.235c-3.78 1.692-5.473 6.129-3.781 9.909l20.801 46.473c1.69 3.773 6.112 5.468 9.893 3.788l36.367-16.171v15.15c0 2.704.121 5.404.361 8.027.353 3.862 3.591 6.817 7.468 6.817h61.551c4.142 0 3.723-3.357 3.723-7.499s.42-7.5-3.722-7.5zm-105.007-15.569-14.682-32.799 50.307-22.521v39.478z" fill="#2115c2"/><g fill="#e207b9"><circle cx="310.434" cy="159.111" r="11.549"/><path d="m231.552 197.736h48.907c4.142 0 7.5-3.358 7.5-7.5s-3.357-7.5-7.5-7.5h-48.907c-4.142 0-7.5 3.358-7.5 7.5s3.358 7.5 7.5 7.5z"/><circle cx="201.576" cy="159.111" r="11.549"/><path d="m284.382 284.999c65.798-13.214 115.514-71.445 115.514-141.076 0-14.008-2.013-27.866-5.983-41.189-1.183-3.969-5.364-6.229-9.329-5.046-3.969 1.183-6.228 5.36-5.046 9.329 3.555 11.932 5.358 24.349 5.358 36.906 0 64.611-47.788 118.265-109.873 127.487-12.532 1.848-25.33 1.873-38.022.002-62.093-9.216-109.889-62.873-109.889-127.489 0-12.557 1.803-24.974 5.358-36.906 1.183-3.969-1.076-8.146-5.046-9.329-3.975-1.184-8.147 1.076-9.329 5.046-3.97 13.323-5.983 27.181-5.983 41.189 0 69.63 49.717 127.862 115.514 141.075v8.956c0 5.575 1.623 10.776 4.411 15.167l-6.102 36.403c-1.781 10.624 2.221 21.547 10.441 28.507l6.518 5.519c7.596 6.431 18.622 6.43 26.217 0l6.518-5.519c8.22-6.961 12.221-17.884 10.44-28.507l-6.102-36.402c2.788-4.391 4.411-9.592 4.411-15.167v-8.956zm-28.376 2.815c3.794 0 8.946-.205 13.377-.617v6.756c0 7.33-5.986 13.378-13.377 13.378-7.461 0-13.378-6.129-13.378-13.378v-6.756c3.759.348 8.829.617 13.378.617zm9.934 74.769-6.518 5.519c-1.979 1.677-4.855 1.675-6.833 0l-6.518-5.519c-4.205-3.559-6.251-9.146-5.34-14.58l4.648-27.731c3.22 1.304 6.945 2.059 10.627 2.059 3.719 0 7.434-.768 10.626-2.059l4.648 27.73c.91 5.434-1.136 11.021-5.34 14.581z"/></g><path d="m386.726 104.875h-80.08c-9.81 0-19.218-3.898-26.162-10.832l-11.172-11.182c-7.355-7.345-19.258-7.345-26.613 0l-11.172 11.182c-6.944 6.934-16.353 10.832-26.162 10.832h-80.08c16.793-56.302 68.957-97.344 130.72-97.344s113.927 41.042 130.721 97.344z" fill="#565eec"/><g><path d="m386.726 112.375h-80.08c-11.877 0-23.05-4.625-31.462-13.024l-11.178-11.189c-4.411-4.404-11.595-4.403-16.008.006l-11.166 11.177c-8.417 8.405-19.591 13.031-31.468 13.031h-80.08c-5.012 0-8.621-4.834-7.187-9.643 8.673-29.075 26.841-55.222 51.159-73.622 51.121-38.682 122.033-38.943 173.498 0 24.318 18.401 42.486 44.547 51.159 73.622 1.432 4.801-2.169 9.642-7.187 9.642zm-112.115-34.82 11.178 11.188c5.573 5.564 12.983 8.633 20.857 8.633h69.584c-8.617-22.149-23.461-41.88-42.526-56.305-45.782-34.642-109.311-34.873-155.398 0-19.064 14.425-33.909 34.157-42.526 56.305h69.584c7.875 0 15.284-3.068 20.863-8.639l11.166-11.176c10.258-10.244 26.951-10.26 37.218-.006z" fill="#2115c2"/></g><path d="m242.006 481.227c0-.16.012-1.203.04-1.286.1-3.299 1.242-7.342 3.446-10.931v-11.067h-52.116c-7.276 0-13.775 3.339-18.041 8.572v.01c-3.375 4.086-5.069 9.328-5.193 13.416-.027.082-.04 1.126-.04 1.286 0 12.836 10.325 23.273 23.273 23.273h28.832c9.721 0 18.049-5.962 21.535-14.422-1.118-2.73-1.736-5.718-1.736-8.851z" fill="#a4bcff"/><path d="m317.395 457.944v23.283c0 12.848-10.426 23.273-23.283 23.273h-28.832c-12.949 0-23.273-10.438-23.273-23.273 0-.16.012-1.203.04-1.286.124-4.088 1.817-9.33 5.193-13.416 0-.01 0-.01 0-.01 4.266-5.233 10.765-8.572 18.041-8.572h52.114z" fill="#a4bcff"/><path d="m317.394 450.444h-52.115c-4.816 0-9.468 1.119-13.654 3.192-1.357-1.929-3.596-3.193-6.134-3.193h-52.116c-9.288 0-17.981 4.131-23.853 11.333-.064.079-.128.159-.188.24-4.023 4.996-6.731 11.739-6.731 19.21 0 16.968 13.805 30.773 30.773 30.773h28.832c8.256 0 15.914-3.269 21.55-8.806 5.554 5.442 13.151 8.806 21.522 8.806h28.831c16.974 0 30.783-13.805 30.783-30.773v-23.283c0-4.141-3.357-7.499-7.5-7.499zm-95.186 46.557h-28.832c-8.698 0-15.773-7.076-15.773-15.766 0-8.991 7.321-15.792 15.773-15.792h44.616v1.608c-2.151 4.168-3.271 8.596-3.432 12.372-.212 2.592.092 6.559 1.076 10.099-2.845 4.612-7.879 7.479-13.428 7.479zm87.687-15.774c0 8.698-7.081 15.774-15.784 15.774h-28.831c-9.623 0-16.711-8.426-15.673-17.652.829-7.53 7.375-13.905 15.673-13.905h44.615z" fill="#2115c2"/></g></svg>