<svg id="Capa_1" enable-background="new 0 0 512 512" height="512" viewBox="0 0 512 512" width="512" xmlns="http://www.w3.org/2000/svg"><g><path d="m270.834 411.921h46.56v46.019h-46.56z" fill="#ffceff"/><path d="m198.926 411.921h46.56v46.019h-46.56z" fill="#ffceff"/><path d="m355.853 391.882-17.353-55.436h-61.555l1.728 10.307c1.353 8.071-1.646 16.257-7.891 21.545l-6.518 5.519c-4.769 4.038-11.757 4.038-16.526 0l-6.518-5.519c-6.245-5.288-9.244-13.474-7.891-21.545l1.728-10.307h-61.555l-17.354 55.436c-3.111 9.937 4.312 20.039 14.725 20.039h85.127 85.128c10.413 0 17.836-10.102 14.725-20.039z" fill="#b98eff"/><g><path d="m317.394 465.44c-4.143 0-7.5-3.358-7.5-7.5v-46.02c0-4.142 3.357-4.523 7.5-4.523s7.5.381 7.5 4.523v46.02c0 4.143-3.358 7.5-7.5 7.5z" fill="#e207b9"/></g><g><path d="m270.834 462.375c-4.143 0-7.5-.293-7.5-4.435v-46.02c0-4.142 3.357-6.397 7.5-6.397s7.5 2.255 7.5 6.397v46.02c0 4.143-3.357 4.435-7.5 4.435z" fill="#e207b9"/></g><g><path d="m245.485 465.44c-4.143 0-7.5-3.358-7.5-7.5v-46.02c0-4.142 3.357-4.523 7.5-4.523s7.5.381 7.5 4.523v46.02c0 4.143-3.357 7.5-7.5 7.5z" fill="#e207b9"/></g><g><path d="m198.926 462.375c-4.143 0-7.5-.293-7.5-4.435v-46.02c0-4.142 3.357-4.523 7.5-4.523s7.5.381 7.5 4.523v46.02c0 4.143-3.358 4.435-7.5 4.435z" fill="#e207b9"/></g><g><path d="m341.128 419.421h-170.256c-15.488 0-26.51-14.997-21.883-29.78l17.354-55.436c1.236-3.953 5.447-6.155 9.397-4.917 3.953 1.238 6.154 5.445 4.917 9.398l-17.354 55.436c-1.6 5.112 2.211 10.299 7.568 10.299h170.256c5.357 0 9.168-5.186 7.568-10.299l-17.354-55.435c-1.237-3.953.964-8.161 4.917-9.398 3.95-1.234 8.16.964 9.397 4.917l17.354 55.436c4.628 14.78-6.39 29.779-21.881 29.779z" fill="#6d00ca"/></g><path d="m242 481.225c0-.16.012-1.204.04-1.286.1-3.3 1.242-7.343 3.446-10.931v-11.068h-52.119c-7.276 0-13.775 3.339-18.042 8.572v.01c-3.376 4.086-5.069 9.328-5.193 13.417-.027.082-.04 1.126-.04 1.286 0 12.837 10.325 23.275 23.275 23.275h28.834c9.722 0 18.05-5.962 21.536-14.423-1.118-2.731-1.737-5.719-1.737-8.852z" fill="#a4bcff"/><path d="m317.393 457.94v23.285c0 12.849-10.426 23.275-23.285 23.275h-28.834c-12.95 0-23.275-10.438-23.275-23.275 0-.16.012-1.204.04-1.286.124-4.088 1.818-9.33 5.193-13.417 0-.01 0-.01 0-.01 4.266-5.233 10.765-8.572 18.042-8.572z" fill="#a4bcff"/><path d="m317.394 450.44h-52.119c-4.816 0-9.469 1.119-13.655 3.193-1.357-1.929-3.596-3.193-6.134-3.193h-52.118c-17.011 0-30.775 13.768-30.775 30.785 0 16.969 13.806 30.775 30.775 30.775h28.834c8.258 0 15.915-3.269 21.551-8.806 5.554 5.442 13.151 8.806 21.522 8.806h28.834c16.975 0 30.785-13.806 30.785-30.775v-23.285c0-4.142-3.358-7.5-7.5-7.5zm-95.193 46.56h-28.834c-8.698 0-15.775-7.077-15.775-15.765 0-8.994 7.322-15.795 15.775-15.795h44.618v1.607c-1.895 3.642-3.232 8.08-3.426 12.288-.001.021-.004.042-.005.063-.209 2.488.085 6.56 1.075 10.122-2.844 4.613-7.878 7.48-13.428 7.48zm87.693-15.775c0 8.698-7.081 15.775-15.785 15.775h-28.834c-8.248 0-16.017-6.504-15.739-16.832 0-.002 0-.005 0-.008.244-7.543 6.956-14.72 15.739-14.72h44.619z" fill="#2115c2"/><path d="m119.6 143.9c0-13.568 1.984-26.675 5.672-39.05 9.229-30.94 29.141-57.269 55.455-74.715-9.493-7.943-21.514-12.957-34.644-13.563-33.572-1.549-61.278 25.211-61.278 58.442 0 15.75-7.732 25.2-15.65 30.749-9.472 6.637-10.932 20.206-2.925 28.552 10.354 10.791 27.368 21.509 53.83 20.781-.3-3.693-.46-7.425-.46-11.196z" fill="#ffd600"/><path d="m392.4 143.9c0-13.568-1.984-26.675-5.672-39.05-9.229-30.94-29.141-57.269-55.455-74.715 9.493-7.943 21.514-12.957 34.644-13.563 33.572-1.549 61.278 25.211 61.278 58.442 0 15.75 7.732 25.2 15.65 30.749 9.472 6.637 10.932 20.206 2.925 28.552-10.354 10.791-27.368 21.509-53.83 20.781.301-3.693.46-7.425.46-11.196z" fill="#ffd600"/><g><path d="m60.817 139.508c-11.167-11.64-9.226-30.596 4.033-39.887 8.264-5.791 12.453-14.069 12.453-24.606 0-37.533 31.229-67.689 69.124-65.934 14.418.665 27.942 5.957 39.111 15.303 3.177 2.658 3.598 7.388.939 10.565-2.658 3.177-7.391 3.597-10.564.939-8.631-7.222-19.066-11.31-30.178-11.823-29.237-1.342-53.433 21.871-53.433 50.95 0 15.495-6.517 28.251-18.846 36.891-5.626 3.943-6.711 12.117-1.816 17.218 12.283 12.802 28.489 19.019 48.212 18.476.069-.002.14-.003.21-.003 4.047 0 5.096 3.465 5.208 7.535.114 4.141-.865 7.348-5.006 7.462-22.771.629-43.7-6.676-59.447-23.086z" fill="#f95116"/></g><g><path d="m391.734 162.593c-4.141-.114-5.12-3.321-5.006-7.462.115-4.141 1.296-7.633 5.418-7.532 19.733.539 35.928-5.673 48.213-18.476 4.898-5.106 3.802-13.279-1.817-17.217-12.329-8.639-18.846-21.396-18.846-36.891 0-29.102-24.219-52.292-53.433-50.95-11.11.513-21.546 4.601-30.178 11.823-3.175 2.659-7.907 2.237-10.564-.939-2.658-3.177-2.237-7.907.939-10.565 11.17-9.346 24.694-14.637 39.111-15.302 37.99-1.76 69.124 28.51 69.124 65.934 0 10.537 4.189 18.816 12.453 24.606 13.262 9.293 15.197 28.25 4.033 39.887-15.765 16.43-36.714 23.711-59.447 23.084z" fill="#f95116"/></g><path d="m256 280.3c-31.154 0-59.863-10.451-82.83-28.028v76.828c0 2.475.11 4.93.331 7.345h61.555l4.888-29.164c3.83 4.604 9.599 7.538 16.056 7.538s12.227-2.934 16.056-7.538l4.888 29.164h61.556c.22-2.415.331-4.87.331-7.345v-76.828c-22.968 17.577-51.677 28.028-82.831 28.028z" fill="#a4bcff"/><path d="m439.126 307.857c0 3.076-.561 6.213-1.744 9.239-5.451 13.979-21.745 20.242-35.152 13.498l-16.484-7.325 20.803-46.475 18.548 8.307c8.829 4.428 14.029 13.377 14.029 22.756z" fill="#ffceff"/><path d="m338.83 252.273v50.133l46.916 20.863 20.803-46.475-63.078-28.237c-1.38 1.155-2.785 2.282-4.212 3.381z" fill="#a4bcff"/><path d="m72.874 307.857c0 3.076.561 6.213 1.744 9.239 5.451 13.979 21.745 20.242 35.152 13.498l16.484-7.325-20.803-46.475-18.548 8.306c-8.828 4.429-14.029 13.378-14.029 22.757z" fill="#ffceff"/><path d="m173.17 252.273v50.133l-46.916 20.863-20.803-46.475 63.078-28.237c1.38 1.155 2.785 2.282 4.212 3.381z" fill="#a4bcff"/><path d="m392.4 143.9c0 75.335-61.065 136.4-136.4 136.4s-136.4-61.065-136.4-136.4c0-13.568 1.984-26.675 5.672-39.05h80.085c9.81 0 19.219-3.898 26.164-10.832l11.173-11.183c7.355-7.345 19.26-7.345 26.615 0l11.173 11.183c6.944 6.934 16.354 10.832 26.164 10.832h80.085c3.685 12.375 5.669 25.482 5.669 39.05z" fill="#ffceff"/><path d="m256 280.3c-7.1 0-14.072-.544-20.879-1.589v15.229c0 11.531 9.348 20.879 20.879 20.879s20.879-9.348 20.879-20.879v-15.229c-6.807 1.046-13.779 1.589-20.879 1.589z" fill="#ff63ed"/><path d="m278.672 346.753-6.616-39.471c-3.83 4.604-9.599 7.538-16.056 7.538s-12.226-2.934-16.056-7.538l-6.616 39.471c-1.353 8.071 1.646 16.257 7.891 21.545l6.518 5.519c4.769 4.038 11.757 4.038 16.526 0l6.518-5.519c6.246-5.288 9.244-13.474 7.891-21.545z" fill="#ff63ed"/><circle cx="310.433" cy="159.089" fill="#e207b9" r="11.549"/><g><path d="m280.455 197.717h-48.91c-4.143 0-7.5-3.358-7.5-7.5s3.357-7.5 7.5-7.5h48.91c4.143 0 7.5 3.358 7.5 7.5s-3.357 7.5-7.5 7.5z" fill="#e207b9"/></g><circle cx="201.568" cy="159.089" fill="#e207b9" r="11.549"/><g><path d="m399.031 337.379-16.33-7.257c-3.785-1.682-5.49-6.114-3.808-9.899s6.112-5.489 9.899-3.808l16.483 7.325c.109.048.218.1.324.153 9.453 4.755 20.935.372 24.795-9.522 3.278-8.387-.125-18.197-8.526-22.499l-18.385-8.234c-3.78-1.693-5.473-6.13-3.779-9.91 1.693-3.781 6.136-5.473 9.91-3.779l18.548 8.307c.101.045.199.092.298.141 15.588 7.821 21.963 25.932 15.907 41.43-7.054 18.09-28.093 26.098-45.336 17.552z" fill="#e207b9"/></g><g><path d="m67.63 319.821c-6.059-15.52.339-33.613 15.909-41.425.099-.049.197-.096.298-.141l18.549-8.307c3.778-1.69 8.217 0 9.91 3.78s.001 8.217-3.779 9.911l-18.386 8.233c-8.393 4.297-11.805 14.097-8.527 22.496 3.853 9.878 15.32 14.29 24.796 9.525.107-.054.215-.105.324-.154l16.484-7.325c3.787-1.68 8.218.023 9.899 3.809 1.683 3.785-.022 8.217-3.808 9.899l-16.331 7.257c-17.412 8.631-38.345.374-45.338-17.558z" fill="#e207b9"/></g><path d="m409.614 269.948-63.078-28.237c-3.622-1.623-6.708.406-8.542 3.865-4.175 1.142-32.448 31.217-81.994 31.217-49.493 0-77.879-29.191-82.061-30.337-1.833-3.459-4.853-6.369-8.476-4.745l-63.077 28.237c-3.78 1.692-5.474 6.129-3.781 9.909l20.803 46.475c1.694 3.784 6.124 5.465 9.894 3.789l36.368-16.172v15.151c0 2.697.122 5.398.362 8.028.353 3.861 3.591 6.817 7.469 6.817h61.555c4.143 0 4.64-3.358 4.64-7.5s-.497-7.5-4.64-7.5h-54.386c0-23.201 0-28.389 0-64.881 22.599 13.953 48.366 18.548 75.33 18.548s52.732-4.204 75.33-18.157v64.489h-54.386c-4.143 0-4.379 3.358-4.379 7.5s.237 7.5 4.379 7.5h61.556c3.879 0 7.118-2.958 7.469-6.82.24-2.632.361-5.333.361-8.025v-15.152l36.369 16.173c3.778 1.679 8.203-.013 9.894-3.789l20.803-46.475c1.692-3.779-.001-8.215-3.782-9.908zm-279.571 43.427-14.683-32.801 50.31-22.522v39.48zm251.915 0-35.628-15.843v-39.48l50.311 22.522z" fill="#2115c2"/><path d="m284.379 284.984c65.802-13.214 115.521-71.449 115.521-141.084 0-14.007-2.014-27.866-5.984-41.192-1.184-3.97-5.364-6.23-9.329-5.046-3.97 1.183-6.229 5.359-5.046 9.329 3.556 11.936 5.359 24.354 5.359 36.909 0 64.631-47.816 118.299-109.93 127.501-12.303 1.809-25.036 1.898-37.941 0-62.113-9.201-109.929-62.869-109.929-127.501 0-12.555 1.804-24.973 5.359-36.909 1.183-3.97-1.076-8.146-5.046-9.329-3.978-1.184-8.147 1.076-9.329 5.046-3.971 13.326-5.984 27.185-5.984 41.192 0 69.634 49.72 127.869 115.521 141.083v8.957c0 5.576 1.623 10.777 4.412 15.168l-6.101 36.405c-1.781 10.625 2.22 21.548 10.44 28.509l6.519 5.519c7.596 6.431 18.622 6.432 26.219 0l6.519-5.519c8.221-6.961 12.222-17.885 10.441-28.509l-6.102-36.405c2.789-4.391 4.412-9.592 4.412-15.168v-8.956zm-28.379 2.816c3.874 0 8.943-.207 13.379-.616v6.757c0 7.444-6.116 13.378-13.379 13.378-7.333 0-13.379-6.004-13.379-13.378v-6.757c4.519.417 9.557.616 13.379.616zm9.935 74.774-6.519 5.52c-1.979 1.676-4.854 1.676-6.832 0l-6.519-5.519c-4.205-3.56-6.251-9.147-5.341-14.581l4.648-27.732c3.189 1.29 6.913 2.059 10.627 2.059 3.662 0 7.345-.735 10.628-2.059l4.648 27.732c.912 5.432-1.135 11.02-5.34 14.58z" fill="#e207b9"/><path d="m386.729 104.85h-80.085c-9.81 0-19.219-3.898-26.164-10.832l-11.173-11.183c-7.355-7.345-19.26-7.345-26.615 0l-11.172 11.183c-6.944 6.934-16.354 10.832-26.164 10.832h-80.085c16.795-56.306 68.962-97.35 130.729-97.35s113.934 41.044 130.729 97.35z" fill="#ffd600"/><g><path d="m386.729 112.35h-80.084c-11.878 0-23.052-4.626-31.464-13.025l-11.179-11.189c-4.409-4.402-11.595-4.403-16.01.006l-11.167 11.176c-8.418 8.406-19.591 13.032-31.469 13.032h-80.085c-5.012 0-8.622-4.834-7.188-9.644 8.674-29.078 26.843-55.225 51.162-73.627 25.142-19.023 55.142-29.079 86.755-29.079 31.614 0 61.613 10.056 86.755 29.08 24.318 18.402 42.488 44.55 51.161 73.627 1.432 4.802-2.169 9.643-7.187 9.643zm-112.122-34.822 11.179 11.189c5.573 5.565 12.982 8.633 20.858 8.633h69.587c-8.617-22.15-23.463-41.882-42.528-56.309-22.513-17.036-49.384-26.041-77.703-26.041s-55.188 9.005-77.703 26.041c-19.065 14.427-33.911 34.159-42.528 56.309h69.588c7.875 0 15.284-3.068 20.863-8.64l11.167-11.176c10.259-10.245 26.952-10.259 37.22-.006z" fill="#f95116"/></g></g></svg>