<svg id="Capa_1" enable-background="new 0 0 512 512" height="512" viewBox="0 0 512 512" width="512" xmlns="http://www.w3.org/2000/svg"><g><path d="m439.126 307.857c0 3.076-.561 6.213-1.744 9.239-5.451 13.979-21.745 20.242-35.152 13.498l-16.484-7.325 20.803-46.475 18.548 8.307c8.829 4.428 14.029 13.377 14.029 22.756z" fill="#ffceff"/><path d="m338.83 252.273v50.133l46.916 20.863 20.803-46.475-63.078-28.237c-1.38 1.155-2.785 2.282-4.212 3.381z" fill="#b98eff"/><path d="m72.874 307.857c0 3.076.561 6.213 1.744 9.239 5.451 13.979 21.745 20.242 35.152 13.498l16.484-7.325-20.803-46.475-18.548 8.306c-8.828 4.429-14.029 13.378-14.029 22.757z" fill="#ffceff"/><path d="m173.17 252.273v50.133l-46.916 20.863-20.803-46.475 63.078-28.237c1.38 1.155 2.785 2.282 4.212 3.381z" fill="#b98eff"/><path d="m270.834 410.962v46.978h46.56v-67.307c-12.001 11.05-28.235 17.937-46.56 20.329z" fill="#f90"/><path d="m198.926 394.267v63.673h46.56v-46.504c-17.947-1.626-34.096-7.454-46.56-17.169z" fill="#f90"/><path d="m173.501 346.446c3.708 42.307 39.231 65.475 82.5 65.475s78.792-23.168 82.499-65.475z" fill="#f90"/><path d="m242 481.225c0-.16.012-1.204.04-1.286.1-3.3 1.242-7.343 3.446-10.931v-11.068h-52.119c-7.276 0-13.775 3.339-18.042 8.572v.01c-3.376 4.086-5.069 9.328-5.193 13.417-.027.082-.04 1.126-.04 1.286 0 12.837 10.325 23.275 23.275 23.275h28.834c9.722 0 18.05-5.962 21.536-14.423-1.118-2.731-1.737-5.719-1.737-8.852z" fill="#ffd600"/><path d="m317.393 457.94v23.285c0 12.849-10.426 23.275-23.285 23.275h-28.834c-12.95 0-23.275-10.438-23.275-23.275 0-.16.012-1.204.04-1.286.124-4.088 1.818-9.33 5.193-13.417 0-.01 0-.01 0-.01 4.266-5.233 10.765-8.572 18.042-8.572z" fill="#ffd600"/><path d="m339.155 338.975c-4.146-.367-7.765 2.69-8.127 6.816-3.396 38.745-36.302 58.63-75.028 58.63-18.54 0-37.837-4.67-52.464-16.069-.002-.001-.004-.002-.006-.004-13.216-10.309-21.019-24.991-22.558-42.557-.362-4.126-4.018-7.178-8.126-6.816-4.127.361-7.179 4-6.817 8.126 1.8 20.54 10.562 37.96 25.396 50.715v52.69c-16.047 1.001-28.834 14.298-28.834 30.719 0 16.969 13.806 30.775 30.775 30.775h28.834c8.257 0 15.915-3.269 21.551-8.806 5.554 5.442 13.151 8.806 21.522 8.806h28.834c16.975 0 30.785-13.806 30.785-30.775 0-7.508 0-76.292 0-87.423 12.217-12.301 19.46-28.241 21.078-46.701.363-4.127-2.689-7.765-6.815-8.126zm-29.261 66.586v44.88h-31.56v-33.066c12.063-2.288 22.762-6.446 31.56-11.814zm-46.56 13.635v31.31c-3.611.225-7.104 1.082-10.349 2.494v-33.63c1.002.023 2.002.051 3.015.051 2.478 0 4.918-.086 7.334-.225zm-56.908-11.198c9.414 4.986 20.037 8.392 31.56 10.11v32.333h-31.56zm15.775 89.002h-28.834c-8.698 0-15.775-7.077-15.775-15.765 0-8.945 7.286-15.795 15.775-15.795h44.618v1.607c-2.106 4.062-3.26 8.522-3.43 12.338-.217 2.558.084 6.573 1.074 10.134-2.844 4.614-7.878 7.481-13.428 7.481zm87.693-15.775c0 8.698-7.081 15.775-15.785 15.775h-28.834c-9.618 0-16.718-8.439-15.672-17.665.809-7.278 7.151-13.895 15.672-13.895h44.619z" fill="#f95116"/><path d="m310.379 269.021c.045.469.075.943.075 1.427v19.706c0 10.137-10.176 17.116-19.633 13.465l-20.657-7.975c-3.159 2.325-7.049 3.716-11.273 3.716h-5.785c-4.224 0-8.113-1.391-11.273-3.716l-20.657 7.975c-9.457 3.651-19.633-3.328-19.633-13.465v-19.706c0-.484.03-.958.075-1.427-10.19-4.436-19.735-10.077-28.451-16.748v86.828c0 2.475.11 4.93.331 7.345h165.002c.22-2.415.331-4.87.331-7.345v-86.828c-8.717 6.67-18.262 12.311-28.452 16.748z" fill="#b98eff"/><g><path d="m413.674 340.802c-5.032 0-10.054-1.148-14.643-3.422l-16.33-7.257c-3.785-1.682-5.49-6.114-3.808-9.899s6.114-5.49 9.899-3.808l16.483 7.325c.109.048.218.1.324.153 4.572 2.299 9.721 2.555 14.496.723 4.78-1.835 8.438-5.474 10.299-10.246.817-2.091 1.23-4.281 1.23-6.514 0-6.791-3.734-12.901-9.758-15.985l-18.384-8.234c-3.78-1.693-5.473-6.13-3.779-9.91 1.693-3.781 6.136-5.471 9.91-3.779l18.548 8.307c.101.045.199.092.298.141 11.204 5.621 18.165 16.909 18.165 29.46 0 4.108-.76 8.136-2.258 11.969-3.363 8.624-10.252 15.476-18.897 18.794-3.796 1.458-7.799 2.182-11.795 2.182z" fill="#e207b9"/></g><g><path d="m98.326 340.802c-3.996 0-7.998-.723-11.797-2.181-8.646-3.318-15.534-10.17-18.899-18.799-1.496-3.833-2.256-7.859-2.256-11.964 0-12.55 6.961-23.839 18.166-29.46.099-.049.197-.096.298-.141l18.548-8.307c3.777-1.693 8.217-.001 9.91 3.779s.001 8.217-3.779 9.91l-18.384 8.234c-6.023 3.083-9.759 9.194-9.759 15.985 0 2.231.414 4.422 1.229 6.511 1.862 4.775 5.52 8.414 10.3 10.249 4.776 1.832 9.924 1.577 14.496-.723.106-.054.215-.105.324-.154l16.484-7.325c3.789-1.681 8.218.023 9.899 3.809 1.683 3.785-.022 8.217-3.808 9.899l-16.331 7.257c-4.587 2.273-9.61 3.421-14.641 3.421z" fill="#e207b9"/></g><path d="m409.614 269.948-63.078-28.237c-3.623-1.623-7.854-.133-9.688 3.327-3.292.908-5.518 3.918-5.518 7.235v86.673h-150.66s.575-88.391-1.502-91.162c-1.033-1.375-2.427-2.308-4.016-2.746-1.833-3.459-6.063-4.95-9.688-3.327l-63.077 28.237c-3.78 1.692-5.474 6.129-3.781 9.909l20.803 46.475c1.694 3.784 6.124 5.465 9.894 3.789l36.368-16.172v25.151c0 2.697.122 5.398.362 8.028.353 3.861 3.591 6.817 7.469 6.817h164.998c3.879 0 7.118-2.958 7.469-6.82.24-2.632.361-5.333.361-8.025v-25.152l36.369 16.173c3.778 1.679 8.203-.013 9.894-3.789l20.803-46.475c1.692-3.78-.001-8.216-3.782-9.909zm-279.571 43.427-14.683-32.801 50.31-22.522v39.48zm251.915 0-35.628-15.843v-39.48l50.311 22.522z" fill="#6d00ca"/><path d="m386.729 104.85c-16.795-56.306-68.962-97.35-130.729-97.35s-113.934 41.044-130.729 97.35c-3.688 12.375-5.672 25.482-5.672 39.05 0 56.004 33.752 104.113 82.021 125.12.902-9.35 10.552-15.515 19.557-12.038l20.657 7.975c3.159-2.325 7.049-3.716 11.272-3.716h5.785c4.224 0 8.113 1.391 11.272 3.716l20.657-7.975c9.005-3.477 18.655 2.688 19.557 12.038 48.269-21.007 82.021-69.116 82.021-125.12.002-13.568-1.982-26.675-5.669-39.05z" fill="#ffceff"/><g fill="#a4bcff"><path d="m203.294 181.863c1.412-1.871 2.865-3.581 4.405-5.016 6.802-6.339 16.275-11.318 25.787-12.487 3.729-5.86 5.898-12.809 5.898-20.269 0-20.886-16.931-37.817-37.817-37.817s-37.817 16.931-37.817 37.817 16.931 37.817 37.817 37.817c.58-.002 1.154-.02 1.727-.045z"/><path d="m310.433 106.273c-20.886 0-37.817 16.931-37.817 37.817 0 7.46 2.169 14.41 5.898 20.269 9.512 1.169 18.985 6.148 25.787 12.487 1.541 1.436 2.993 3.146 4.405 5.016.573.026 1.147.044 1.726.044 20.886 0 37.817-16.931 37.817-37.817 0-20.885-16.931-37.816-37.816-37.816z"/><path d="m256 209.684c-21.905 27.381-54.18 16.034-71.202 7.042-4.128-2.181-4.423-7.914-.597-10.591 9.757-6.827 15.439-21.778 23.499-29.289 12.522-11.67 34.094-18.76 48.301-5.879 14.207-12.881 35.779-5.791 48.301 5.879 8.06 7.512 13.741 22.462 23.499 29.289 3.826 2.677 3.531 8.41-.597 10.591-17.024 8.992-49.299 20.34-71.204-7.042z"/><path d="m119.6 143.9c0-13.568 1.984-26.675 5.672-39.05 7.359-24.673 21.512-46.415 40.287-63.057-.016 0-.032-.001-.048-.001-47.196 0-85.456 38.26-85.456 85.456 0 33.118 18.852 51.438 46.397 59.43-4.441-13.455-6.852-27.834-6.852-42.778z"/><path d="m392.4 143.9c0-13.568-1.984-26.675-5.672-39.05-7.359-24.673-21.512-46.415-40.287-63.057.016 0 .032-.001.048-.001 47.196 0 85.456 38.26 85.456 85.456 0 33.118-18.852 51.438-46.397 59.43 4.442-13.455 6.852-27.834 6.852-42.778z"/></g><path d="m290.822 256.982-20.657 7.975c4.714 3.47 7.786 9.041 7.786 15.343 0 6.302-3.072 11.873-7.786 15.343l20.657 7.975c9.457 3.651 19.633-3.328 19.633-13.465v-19.706c0-10.137-10.176-17.116-19.633-13.465z" fill="#ff63ed"/><path d="m234.049 280.301c0-6.302 3.072-11.873 7.786-15.343l-20.657-7.975c-9.457-3.651-19.633 3.328-19.633 13.465v19.706c0 10.137 10.176 17.116 19.633 13.465l20.657-7.975c-4.714-3.47-7.786-9.041-7.786-15.343z" fill="#ff63ed"/><path d="m258.893 261.242h-5.785c-10.526 0-19.059 8.533-19.059 19.059 0 10.526 8.533 19.059 19.059 19.059h5.785c10.526 0 19.059-8.533 19.059-19.059 0-10.526-8.533-19.059-19.059-19.059z" fill="#ff63ed"/><circle cx="310.433" cy="144.089" fill="#2115c2" r="11.549"/><circle cx="201.568" cy="144.089" fill="#2115c2" r="11.549"/><path d="m355.749 144.089c0-24.988-20.329-45.316-45.316-45.316s-45.316 20.329-45.316 45.316c0 4.514.676 8.965 1.977 13.226-3.856.758-7.597 2.152-11.093 4.303-3.496-2.152-7.237-3.546-11.092-4.304 1.301-4.261 1.977-8.711 1.977-13.226 0-24.988-20.329-45.316-45.317-45.316-24.987 0-45.316 20.329-45.316 45.316 0 21.032 14.403 38.76 33.863 43.847-3.19 4.82-6.513 9.465-10.212 12.053-8.444 5.908-7.675 18.578 1.393 23.369 29.496 15.58 56.226 14.485 74.705-2.665 9.771 9.069 21.846 13.648 35.418 13.647 12.099 0 25.388-3.64 39.287-10.983 9.076-4.794 9.831-17.464 1.395-23.368-3.7-2.589-7.023-7.234-10.213-12.054 19.457-5.085 33.86-22.813 33.86-43.845zm-184.498 0c0-16.716 13.6-30.316 30.316-30.316s30.317 13.6 30.317 30.316c0 4.699-1.085 9.298-3.158 13.467-11.428 2.404-22.469 9.251-29.007 16.794-15.859-.957-28.468-14.164-28.468-30.261zm90.605 60.911c-1.423-1.779-3.578-2.815-5.856-2.815s-4.434 1.036-5.856 2.815c-9.507 11.886-27.597 22.427-59.996 6.05 10.663-8.496 15.627-22.588 23.629-29.58 9.373-8.124 26.41-14.717 37.186-4.946 2.86 2.591 7.219 2.593 10.075 0 11.341-10.279 32.103-2.771 41.612 9.768 5.652 7.457 10.797 18.061 19.204 24.759-32.4 16.375-50.49 5.834-59.998-6.051zm50.425-30.649c-6.246-7.2-17.194-14.309-29.008-16.794-2.073-4.17-3.157-8.768-3.157-13.467 0-16.716 13.6-30.316 30.316-30.316s30.316 13.6 30.316 30.316c.001 16.096-12.607 29.303-28.467 30.261z" fill="#2115c2"/><g><path d="m126.455 194.18c-.692 0-1.396-.097-2.094-.299-33.893-9.834-51.808-32.875-51.808-66.634 0-51.256 41.7-92.956 92.957-92.956.054 0 .118.001.178.002 4.082.069 2.094 3.4 2.094 7.499 0 4.142 1.919 7.5-2.224 7.5-.035 0-.074 0-.115-.001-42.953.039-77.89 34.995-77.89 77.956 0 26.765 13.79 44.337 40.987 52.228 3.979 1.154 3.056 5.315 1.902 9.293-.952 3.28-.736 5.412-3.987 5.412z" fill="#2115c2"/></g><g><path d="m385.545 194.18c-3.252 0-2.444-2.132-3.396-5.412-1.154-3.978-2.668-8.139 1.31-9.293 27.197-7.891 40.987-25.463 40.987-52.228 0-42.964-34.934-77.922-77.89-77.956-.04 0 3.66.001 3.626.001-4.143 0-8.124-3.358-8.124-7.5 0-4.099.173-7.431 4.256-7.499.06-.001.124-.002.176-.002 51.256 0 92.956 41.7 92.956 92.956 0 33.758-17.915 56.8-51.808 66.634-.698.202-1.401.299-2.093.299z" fill="#2115c2"/></g><path d="m399.9 143.9c0-14.007-2.014-27.866-5.984-41.192 0-.001 0-.001 0-.002-8.673-29.077-26.842-55.225-51.161-73.627-25.142-19.023-55.141-29.079-86.755-29.079s-61.613 10.056-86.754 29.08c-24.319 18.402-42.488 44.549-51.162 73.629-3.971 13.326-5.984 27.185-5.984 41.192 0 55.625 32.001 106.066 81.946 129.901v16.352c0 15.395 15.479 26.005 29.834 20.462l17.208-6.644c3.612 1.842 7.695 2.888 12.02 2.888h5.785c4.325 0 8.408-1.046 12.021-2.888l17.208 6.644c14.324 5.529 29.833-5.045 29.833-20.462v-16.352c49.944-23.835 81.945-74.277 81.945-129.902zm-181.422 152.722c-4.534 1.748-9.432-1.576-9.432-6.469v-19.706c0-4.848 4.893-8.222 9.432-6.468l10.989 4.243c-1.979 3.858-2.917 8.049-2.917 12.078 0 3.858.882 8.111 2.917 12.079zm34.629-4.763c-6.251 0-11.559-5.11-11.559-11.559 0-6.474 5.344-11.559 11.559-11.559h5.785c6.332 0 11.56 5.188 11.56 11.559 0 6.359-5.221 11.559-11.56 11.559zm49.847-1.706c0 4.849-4.857 8.234-9.431 6.469l-10.989-4.243c2.004-3.906 2.918-8.149 2.918-12.079 0-4.027-.937-8.218-2.918-12.079l10.989-4.243c4.549-1.759 9.431 1.636 9.431 6.468zm11.638-31.413c-5.467-8.66-16.471-12.618-26.471-8.754l-17.207 6.643c-.895-.329-5.252-2.887-12.021-2.887h-5.785c-4.371 0-8.299 1.026-12.021 2.887l-17.206-6.643c-10.061-3.885-21.051.172-26.472 8.755-42.962-21.929-70.309-66.174-70.309-114.841 0-12.555 1.804-24.973 5.359-36.907 7.767-26.041 24.046-49.463 45.838-65.953 22.515-17.035 49.384-26.04 77.703-26.04 28.32 0 55.189 9.005 77.704 26.041 21.792 16.49 38.07 39.912 45.837 65.953 3.557 11.935 5.359 24.352 5.359 36.907 0 48.667-27.347 92.911-70.308 114.839z" fill="#e207b9"/></g></svg>