<svg id="Capa_1" enable-background="new 0 0 512 512" height="512" viewBox="0 0 512 512" width="512" xmlns="http://www.w3.org/2000/svg"><g><path d="m451.251 299.869c-4.611-14.843-10.801-29.873-18.412-44.849-6.087 12.179-13.125 24.326-21.018 36.312 3.013 7.425 5.609 14.817 7.748 22.137 1.022 3.497 1.92 6.932 2.715 10.311 11.717-7.434 21.426-15.467 28.967-23.911z" fill="#ff63ed"/><g><path d="m451.249 307.371c-3.199 0-6.161-2.062-7.16-5.277-4.447-14.314-10.481-29.009-17.936-43.676-1.876-3.693-.404-8.208 3.289-10.084 3.69-1.876 8.208-.404 10.084 3.288 7.835 15.418 14.189 30.903 18.887 46.022 1.229 3.956-.981 8.159-4.937 9.387-.741.231-1.491.34-2.227.34z" fill="#e207b9"/></g><g><path d="m422.277 331.282c-3.401 0-6.481-2.33-7.294-5.784-.788-3.352-1.667-6.691-2.612-9.924-2.042-6.985-4.565-14.192-7.499-21.421-1.558-3.838.29-8.212 4.129-9.77 3.839-1.559 8.212.292 9.77 4.128 3.124 7.696 5.814 15.385 7.998 22.854 1.02 3.488 1.967 7.088 2.816 10.698.948 4.032-1.552 8.07-5.584 9.018-.577.136-1.154.201-1.724.201z" fill="#e207b9"/></g><g fill="#ff63ed"><g><path d="m371.912 431.441c0-2.315.297-4.561.853-6.703-16.646 2.562-36.508.664-58.656-5.809-7.294-2.132-14.66-4.716-22.059-7.716-11.966 7.901-24.092 14.954-36.253 21.057 16.273 8.261 32.611 14.848 48.7 19.55 31.728 9.273 60.499 10.683 84.636 4.513-10.062-3.792-17.221-13.504-17.221-24.892z"/><path d="m459.672 338.989c-9.276 7.616-19.905 14.746-31.841 21.283-.471.258-.958.503-1.432.758-.695 19.153-6.484 34.874-17.23 46.043 9.381 4.11 15.937 13.471 15.937 24.368 0 2.949-.487 5.783-1.373 8.434 3.144-2.4 6.137-5.002 8.959-7.823 22.133-22.133 31.32-54.458 26.98-93.063z"/></g><g><path d="m86.893 79.85c0-1.621.153-3.206.431-4.747-2.096 1.742-4.122 3.575-6.064 5.516-21.609 21.609-30.877 52.933-27.266 90.331 8.878-7.109 18.947-13.782 30.175-19.932 1.151-.63 2.33-1.237 3.499-1.853 1.103-18.297 6.995-33.32 17.556-44.035-10.641-3.476-18.331-13.477-18.331-25.28z"/><path d="m209.454 60.851c-31.402-9.178-59.905-10.648-83.888-4.696 8.617 4.401 14.521 13.356 14.521 23.695 0 2.976-.496 5.834-1.398 8.506 17.142-3.165 37.886-1.414 61.152 5.385 6.464 1.889 12.984 4.14 19.533 6.713 12.022-7.969 24.208-15.076 36.43-21.23-15.494-7.709-31.035-13.897-46.35-18.373z"/></g><path d="m94.382 199.202c-1.253-4.286-2.324-8.481-3.235-12.59-11.768 7.316-21.563 15.229-29.246 23.553 4.428 14.832 10.444 29.866 17.894 44.86 6.168-12.209 13.283-24.382 21.261-36.388-2.557-6.516-4.795-13.003-6.674-19.435z"/><path d="m393.931 255.149c6.947-12.104 12.865-24.272 17.653-36.345-13.065-19.591-28.428-38.727-45.724-56.835-20.241-6.375-42.254-10.92-65.345-13.475 11.629 9.264 22.999 19.411 33.945 30.357 23.971 23.972 44.141 49.963 59.471 76.298z"/><path d="m118.644 255.149c-7.003 12.1-12.992 24.269-17.842 36.347 13.138 20.022 28.675 39.598 46.239 58.113 20.066 6.249 41.856 10.705 64.695 13.217-11.038-8.896-21.832-18.593-32.245-29.006-24.691-24.692-45.357-51.525-60.847-78.671z"/></g><g><g><path d="m357.643 433.347c-13.912 0-29.193-2.413-45.638-7.219-7.436-2.173-15.097-4.853-22.772-7.964-3.838-1.557-5.688-5.93-4.132-9.769s5.929-5.688 9.769-4.133c7.209 2.923 14.391 5.436 21.344 7.468 21.004 6.138 39.647 8.021 55.411 5.595 4.086-.631 6.479 2.179 7.11 6.272.63 4.094-.735 7.923-4.829 8.553-5.186.799-10.612 1.197-16.263 1.197z" fill="#e207b9"/></g><g><path d="m357.649 467.615c-17.185 0-35.661-2.868-55.256-8.595-16.374-4.785-33.194-11.535-49.991-20.061-3.693-1.875-5.168-6.389-3.293-10.083s6.392-5.168 10.082-3.293c15.973 8.108 31.924 14.514 47.409 19.04 30.359 8.872 57.502 10.369 80.675 4.445 4.011-1.029 4.682 1.395 5.708 5.409 1.025 4.013 2.019 8.098-1.993 9.124-10.473 2.676-21.606 4.014-33.341 4.014z" fill="#e207b9"/></g><g><path d="m411.184 412.558c-1.871 0-3.151-1.289-4.606-2.688-2.984-2.872-5.684-5.012-2.812-7.997 9.41-9.781 14.503-23.614 15.139-41.115.15-4.14 3.607-7.387 7.768-7.223 4.139.15 7.373 3.628 7.223 7.767-.773 21.301-7.273 38.45-19.32 50.971-1.473 1.53-1.425.285-3.392.285z" fill="#e207b9"/></g><g><path d="m423.739 447.376c-2.259 0-3.187-2.321-4.663-4.255-2.513-3.292-1.589-8.291 1.703-10.804 2.917-2.226 4.081-3.04 6.608-5.568 20.35-20.349 28.937-50.406 24.832-86.923-.463-4.116 2.499-7.828 6.615-8.291 4.105-.457 7.828 2.499 8.291 6.616 4.632 41.211-5.441 75.515-29.131 99.204-2.999 2.999-6.266 5.852-9.711 8.482-1.357 1.037-2.958 1.539-4.544 1.539z" fill="#e207b9"/></g></g><g><g><path d="m87.675 156.666c-.151 0-.305-.004-.458-.014-4.135-.249-7.284-3.803-7.035-7.938 1.229-20.398 7.857-36.833 19.7-48.849 2.908-2.95 5.627-.955 8.576 1.953 2.95 2.908 5.014 5.626 2.107 8.576-9.222 9.356-14.406 22.552-15.411 39.222-.24 3.982-3.544 7.05-7.479 7.05z" fill="#e207b9"/></g><g><path d="m53.985 178.451c-3.817 0-7.082-2.901-7.456-6.78-3.856-39.929 6.319-73.248 29.427-96.355 2.035-2.035 4.247-4.047 6.573-5.981 3.187-2.647 6.149-.447 8.796 2.739 2.648 3.186 3.977 6.15.791 8.797-1.975 1.641-3.843 3.34-5.554 5.051-19.834 19.833-28.515 48.986-25.104 84.307.398 4.123-2.621 7.788-6.744 8.186-.244.025-.487.036-.729.036z" fill="#e207b9"/></g><g><path d="m255.8 86.725c-1.122 0-2.262-.253-3.335-.787-15.207-7.565-30.386-13.584-45.114-17.889-30.04-8.779-56.945-10.332-79.978-4.615-4.021.997-6.063-1.453-7.061-5.473s-.573-8.088 3.448-9.086c25.643-6.365 55.184-4.757 87.798 4.776 15.579 4.553 31.59 10.897 47.589 18.857 3.708 1.845 5.219 6.347 3.374 10.056-1.312 2.636-3.964 4.161-6.721 4.161z" fill="#e207b9"/></g><g><path d="m219.373 107.956c-.912 0-1.84-.167-2.74-.521-6.415-2.52-12.771-4.705-18.895-6.495-22.07-6.449-41.476-8.201-57.688-5.208-4.066.75-5.889-1.94-6.641-6.014-.752-4.073-.155-7.985 3.918-8.737 18.539-3.422 40.279-1.551 64.617 5.562 6.554 1.915 13.341 4.247 20.172 6.931 3.855 1.515 5.753 5.868 4.238 9.723-1.159 2.955-3.988 4.759-6.981 4.759z" fill="#e207b9"/></g></g><g><path d="m101.058 226.139c-2.995 0-5.823-1.806-6.983-4.762-2.665-6.792-4.983-13.544-6.892-20.071-1.265-4.328-2.395-8.725-3.358-13.069-.896-4.044 1.654-8.049 5.698-8.946 4.053-.896 8.05 1.655 8.946 5.698.892 4.023 1.939 8.097 3.111 12.109 1.783 6.099 3.955 12.424 6.457 18.8 1.514 3.856-.386 8.208-4.242 9.722-.899.351-1.826.519-2.737.519z" fill="#e207b9"/></g><g><path d="m79.801 262.527c-2.758 0-5.412-1.527-6.723-4.164-7.672-15.439-13.851-30.933-18.364-46.052-1.185-3.969 1.072-8.147 5.041-9.332 3.972-1.188 8.146 1.073 9.332 5.041 4.27 14.301 10.132 28.992 17.425 43.667 1.843 3.709.33 8.211-3.379 10.054-1.072.533-2.211.786-3.332.786z" fill="#e207b9"/></g><g><path d="m393.938 262.651c-2.583 0-5.096-1.335-6.488-3.729-15.228-26.159-34.84-51.314-58.293-74.767-10.618-10.618-21.827-20.643-33.314-29.794-3.24-2.581-3.774-7.3-1.193-10.54 2.581-3.239 7.3-3.773 10.539-1.193 11.928 9.502 23.561 19.905 34.576 30.92 24.366 24.367 44.771 50.552 60.648 77.828 2.084 3.58.871 8.171-2.708 10.255-1.188.691-2.486 1.02-3.767 1.02z" fill="#e207b9"/></g><g><path d="m411.591 226.305c-2.424 0-4.802-1.172-6.247-3.34-12.9-19.346-28.009-38.125-44.907-55.816-2.86-2.995-2.752-7.743.243-10.604 2.996-2.862 7.743-2.752 10.604.243 17.498 18.32 33.156 37.785 46.54 57.854 2.298 3.446 1.367 8.103-2.079 10.401-1.278.854-2.724 1.262-4.154 1.262z" fill="#e207b9"/></g><g><path d="m211.732 370.326c-1.652 0-3.314-.543-4.701-1.661-11.277-9.089-22.327-19.028-32.843-29.542-25.133-25.132-46.012-52.135-62.059-80.257-2.053-3.598-.8-8.178 2.798-10.231 3.6-2.052 8.178-.801 10.231 2.797 15.384 26.962 35.448 52.897 59.636 77.084 10.138 10.137 20.786 19.716 31.648 28.47 3.226 2.599 3.732 7.321 1.134 10.546-1.48 1.839-3.652 2.794-5.844 2.794z" fill="#e207b9"/></g><g><path d="m147.043 357.109c-1.985 0-3.968-.784-5.442-2.338-17.754-18.714-33.59-38.618-47.068-59.159-2.272-3.463-1.308-8.113 2.156-10.385s8.111-1.307 10.385 2.156c12.99 19.797 28.269 38.997 45.41 57.065 2.851 3.005 2.726 7.752-.279 10.603-1.452 1.375-3.309 2.058-5.162 2.058z" fill="#e207b9"/></g><circle cx="398.509" cy="431.441" fill="#ffff6f" r="26.597"/><g><path d="m398.509 465.538c-18.801 0-34.097-15.296-34.097-34.097s15.296-34.098 34.097-34.098c18.802 0 34.098 15.296 34.098 34.098s-15.296 34.097-34.098 34.097zm0-53.194c-10.53 0-19.097 8.567-19.097 19.098s8.566 19.097 19.097 19.097 19.098-8.567 19.098-19.097-8.568-19.098-19.098-19.098z" fill="#f95116"/></g><g fill="#b98eff"><path d="m450.676 210.79c-7.612-8.383-17.354-16.356-29.095-23.73-.855 3.744-1.851 7.563-2.988 11.453-13.184 45.11-43.41 92.917-85.11 134.617-10.68 10.68-21.762 20.601-33.095 29.682 22.965-2.533 44.866-7.034 65.02-13.346 40.962-43.031 71-91.833 85.268-138.676z"/><path d="m178.516 178.162c10.68-10.68 21.761-20.601 33.094-29.681-22.965 2.534-44.866 7.034-65.02 13.346-40.962 43.031-70.999 91.832-85.268 138.676 7.612 8.382 17.354 16.356 29.095 23.73.855-3.744 1.851-7.563 2.988-11.453 13.184-45.11 43.411-92.918 85.111-134.618z"/><path d="m256 399.492c-3.688 0-7.362-.051-11.024-.141-15.452 8.081-30.934 14.454-46.11 18.889-41.54 12.141-75.048 8.196-94.352-11.108-10.971-10.971-16.974-26.534-17.89-45.547-.82-.437-1.645-.869-2.456-1.313-11.582-6.343-21.928-13.246-31.008-20.607-3.971 38.001 5.253 69.827 27.123 91.697 28.562 28.562 74.089 35.582 128.195 19.769 35.073-10.25 71.33-29.433 105.511-55.484-18.778 2.534-38.213 3.845-57.989 3.845z"/><path d="m256 111.8c3.687 0 7.361.051 11.023.141 15.452-8.082 30.934-14.454 46.11-18.89 41.54-12.14 75.048-8.195 94.352 11.109 10.971 10.971 16.974 26.534 17.89 45.546.82.437 1.645.869 2.456 1.313 11.582 6.343 21.928 13.246 31.008 20.607 3.971-38-5.252-69.826-27.123-91.697-28.562-28.562-74.089-35.582-128.195-19.769-35.073 10.251-71.33 29.434-105.511 55.485 18.779-2.535 38.214-3.845 57.99-3.845z"/></g><circle cx="113.49" cy="79.85" fill="#ffff6f" r="26.597"/><g><g><path d="m365.407 356.966c-1.857 0-3.719-.686-5.17-2.068-3-2.856-3.117-7.603-.262-10.603 40.014-42.035 69.678-90.224 83.526-135.69 1.207-3.963 5.399-6.197 9.36-4.989 3.962 1.207 6.196 5.397 4.989 9.36-14.517 47.658-45.418 97.967-87.011 141.661-1.473 1.548-3.45 2.329-5.432 2.329z" fill="#6d00ca"/></g><g><path d="m300.394 370.312c-2.198 0-4.376-.962-5.857-2.811-2.591-3.232-2.069-7.953 1.163-10.543 11.184-8.961 22.111-18.763 32.48-29.132 40.826-40.826 70.379-87.498 83.215-131.418 1.09-3.727 2.057-7.434 2.875-11.018.921-4.038 4.941-6.563 8.98-5.643 4.038.922 6.564 4.943 5.643 8.981-.884 3.875-1.927 7.874-3.1 11.888-13.531 46.296-44.431 95.241-87.006 137.817-10.757 10.756-22.098 20.927-33.709 30.231-1.383 1.109-3.04 1.648-4.684 1.648z" fill="#6d00ca"/></g><g><path d="m61.326 308.004c-.725 0-1.46-.105-2.188-.327-3.962-1.207-6.196-5.397-4.989-9.36 14.516-47.658 45.416-97.967 87.01-141.662 2.857-3 7.604-3.118 10.604-.261 3 2.856 3.117 7.603.262 10.603-40.015 42.035-69.678 90.224-83.525 135.69-.987 3.234-3.96 5.317-7.174 5.317z" fill="#6d00ca"/></g><g><path d="m90.425 331.733c-.554 0-1.115-.062-1.678-.19-4.038-.923-6.563-4.944-5.641-8.982.89-3.895 1.934-7.894 3.102-11.887 13.53-46.296 44.429-95.24 87.004-137.815 10.76-10.759 22.101-20.93 33.709-30.231 3.232-2.59 7.953-2.069 10.542 1.164 2.591 3.232 2.069 7.952-1.163 10.542-11.181 8.958-22.108 18.76-32.481 29.131-40.824 40.825-70.377 87.497-83.213 131.418-1.085 3.708-2.053 7.415-2.876 11.02-.794 3.475-3.885 5.83-7.305 5.83z" fill="#6d00ca"/></g><g><path d="m155.171 466.906c-32.604 0-60.162-10.212-80.191-30.241-23.394-23.395-33.519-57.207-29.278-97.78.43-4.12 4.127-7.116 8.238-6.68 4.12.431 7.11 4.119 6.68 8.239-3.753 35.922 4.881 65.527 24.968 85.615 26.536 26.536 69.433 32.883 120.787 17.873 33.837-9.889 69.478-28.648 103.069-54.25 3.294-2.511 8.001-1.875 10.511 1.418 2.511 3.294 1.876 8-1.419 10.511-35.039 26.706-72.368 46.318-107.953 56.718-19.628 5.737-38.223 8.576-55.412 8.577z" fill="#6d00ca"/></g><g><path d="m155.283 432.637c-23.436 0-42.674-6.804-56.073-20.203-12.301-12.3-19.056-29.288-20.077-50.489-.199-4.137 2.993-7.653 7.13-7.852 4.175-.194 7.654 2.994 7.853 7.13.837 17.361 6.119 31.022 15.701 40.604 17.277 17.277 48.153 20.55 86.946 9.213 14.555-4.254 29.606-10.423 44.738-18.336 3.669-1.917 8.201-.501 10.122 3.17 1.919 3.67.5 8.202-3.171 10.122-16.005 8.37-31.98 14.912-47.482 19.442-16.468 4.813-31.815 7.199-45.687 7.199z" fill="#6d00ca"/></g><g><path d="m458.848 179.127c-.261 0-.523-.013-.788-.041-4.12-.431-7.11-4.119-6.68-8.239 3.753-35.922-4.88-65.528-24.968-85.615-26.534-26.535-69.431-32.883-120.788-17.874-33.837 9.89-69.478 28.65-103.068 54.251-3.292 2.512-7.999 1.876-10.511-1.418-2.511-3.294-1.876-8 1.419-10.511 35.038-26.705 72.367-46.318 107.952-56.719 56.855-16.618 105.016-8.923 135.604 21.665 23.394 23.394 33.519 57.206 29.278 97.78-.402 3.855-3.658 6.721-7.45 6.721z" fill="#6d00ca"/></g><g><path d="m425.369 157.206c-3.977 0-7.292-3.125-7.485-7.139-.837-17.36-6.119-31.021-15.702-40.604-17.276-17.278-48.156-20.549-86.945-9.213-14.557 4.255-29.608 10.424-44.738 18.337-3.666 1.917-8.201.501-10.121-3.17s-.501-8.202 3.17-10.122c16.003-8.37 31.979-14.911 47.481-19.442 44.293-12.944 80.432-8.326 101.761 13.004 12.301 12.301 19.056 29.288 20.077 50.489.199 4.137-2.993 7.653-7.13 7.852-.124.005-.247.008-.368.008z" fill="#6d00ca"/></g></g><g><path d="m113.49 113.948c-18.802 0-34.098-15.296-34.098-34.097s15.296-34.098 34.098-34.098 34.098 15.296 34.098 34.098-15.296 34.097-34.098 34.097zm0-53.195c-10.53 0-19.098 8.567-19.098 19.098s8.567 19.097 19.098 19.097 19.098-8.567 19.098-19.097-8.567-19.098-19.098-19.098z" fill="#f95116"/></g><circle cx="256" cy="255.646" fill="#ffff6f" r="80.16"/><g><path d="m256 399.492c-64.628 0-125.652-13.929-171.831-39.22-49.441-27.077-76.669-64.234-76.669-104.626s27.228-77.549 76.669-104.626c46.179-25.292 107.203-39.22 171.831-39.22 64.627 0 125.652 13.929 171.831 39.22 49.44 27.077 76.669 64.234 76.669 104.626 0 40.393-27.228 77.549-76.669 104.626-46.179 25.291-107.204 39.22-171.831 39.22zm0-253.425c-58.973 0-114.151 12.432-155.371 35.007-37.958 20.789-58.862 47.272-58.862 74.572s20.904 53.783 58.862 74.572c41.219 22.575 96.398 35.007 155.371 35.007s114.151-12.432 155.371-35.007c37.958-20.789 58.862-47.272 58.862-74.572s-20.904-53.783-58.862-74.572c-41.22-22.575-96.398-35.007-155.371-35.007z" fill="#88f8d8"/></g><g><path d="m256 343.305c-48.336 0-87.66-39.324-87.66-87.66s39.324-87.66 87.66-87.66c48.335 0 87.659 39.324 87.659 87.66s-39.324 87.66-87.659 87.66zm0-160.319c-40.064 0-72.66 32.595-72.66 72.66s32.596 72.66 72.66 72.66 72.659-32.595 72.659-72.66-32.595-72.66-72.659-72.66z" fill="#f95116"/></g><circle cx="303.4" cy="250.917" fill="#f95116" r="10.057"/><g><path d="m277.296 285.523h-42.592c-4.143 0-7.5-3.358-7.5-7.5s3.357-7.5 7.5-7.5h42.592c4.143 0 7.5 3.358 7.5 7.5s-3.358 7.5-7.5 7.5z" fill="#f95116"/></g><circle cx="208.6" cy="250.917" fill="#f95116" r="10.057"/><g><g><path d="m256 406.991c-65.865 0-128.169-14.256-175.434-40.142-51.954-28.452-80.566-67.945-80.566-111.203s28.612-82.751 80.566-111.205c47.264-25.885 109.568-40.141 175.434-40.141 65.865 0 128.169 14.256 175.434 40.141 51.954 28.454 80.566 67.947 80.566 111.205s-28.612 82.751-80.566 111.204c-47.266 25.886-109.57 40.141-175.434 40.141zm0-287.691c-63.391 0-123.136 13.601-168.229 38.297-46.927 25.701-72.771 60.522-72.771 98.049s25.844 72.348 72.771 98.048c45.094 24.696 104.838 38.297 168.229 38.297 63.39 0 123.134-13.601 168.229-38.298 46.928-25.7 72.771-60.521 72.771-98.048 0-37.526-25.844-72.348-72.771-98.048-45.094-24.696-104.839-38.297-168.229-38.297zm0 253.424c-60.211 0-116.669-12.76-158.974-35.929-40.472-22.165-62.76-50.984-62.76-81.15s22.288-58.985 62.76-81.15c42.306-23.169 98.764-35.929 158.974-35.929 60.209 0 116.667 12.76 158.974 35.929 40.471 22.165 62.759 50.985 62.759 81.15s-22.288 58.985-62.759 81.15c-42.306 23.17-98.764 35.929-158.974 35.929zm0-219.157c-57.735 0-111.634 12.105-151.769 34.085-35.444 19.412-54.965 43.559-54.965 67.994s19.521 48.582 54.965 67.994c40.134 21.98 94.033 34.085 151.769 34.085 57.734 0 111.634-12.105 151.769-34.085 35.444-19.412 54.964-43.56 54.964-67.994s-19.52-48.582-54.964-67.994c-40.136-21.98-94.035-34.085-151.769-34.085z" fill="#007ea8"/></g></g></g></svg>