<svg id="Capa_1" enable-background="new 0 0 512 512" height="512" viewBox="0 0 512 512" width="512" xmlns="http://www.w3.org/2000/svg"><g><path d="m391.484 74.1v306.351c0 36.786-29.824 66.6-66.6 66.6h-205.89c-36.776 0-66.6-29.814-66.6-66.6v-306.351c0-36.786 29.824-66.6 66.6-66.6h205.89c36.776 0 66.6 29.814 66.6 66.6z" fill="#ffd600"/><path d="m459.606 74.1v306.351c0 36.786-29.824 66.6-66.6 66.6h-68.123c36.776 0 66.6-29.814 66.6-66.6v-306.351c0-36.786-29.824-66.6-66.6-66.6h68.123c36.776 0 66.6 29.814 66.6 66.6z" fill="#f90"/><g fill="#ff9bff"><path d="m122.76 258.125c-7.129 0-13.688-2.425-18.912-6.485v49.499c0 10.445 8.467 18.912 18.912 18.912 10.445 0 18.912-8.467 18.912-18.912v-49.499c-5.224 4.06-11.783 6.485-18.912 6.485z"/><circle cx="122.76" cy="227.275" r="30.85"/><path d="m118.994 447.051v37.891c0 10.802 8.757 19.558 19.558 19.558h22.705c10.802 0 19.558-8.757 19.558-19.558v-37.891z"/><path d="m324.884 447.051h-21.75v37.891c0 10.802 8.757 19.558 19.558 19.558h22.705c10.802 0 19.558-8.757 19.558-19.558v-37.891z"/></g><path d="m161.11 227.275c0-21.146-17.203-38.35-38.35-38.35s-38.35 17.204-38.35 38.35c0 10.917 4.592 20.774 11.938 27.765v46.098c0 14.563 11.849 26.412 26.412 26.412s26.411-11.848 26.411-26.412v-46.097c7.347-6.99 11.939-16.849 11.939-27.766zm-38.349-23.349c12.875 0 23.35 10.475 23.35 23.35 0 12.862-10.477 23.35-23.35 23.35-12.694 0-23.35-10.295-23.35-23.35 0-12.876 10.475-23.35 23.35-23.35zm11.411 59.98v37.232c0 6.292-5.119 11.412-11.411 11.412-6.293 0-11.412-5.119-11.412-11.412v-37.232c3.341 1.041 7.552 1.719 11.412 1.719 3.831 0 8.106-.688 11.411-1.719z" fill="#e207b9"/><circle cx="309.417" cy="217.489" fill="#f95116" r="11.546"/><g><path d="m279.447 256.108h-48.898c-4.143 0-7.5-3.358-7.5-7.5s3.357-7.5 7.5-7.5h48.898c4.143 0 7.5 3.358 7.5 7.5s-3.357 7.5-7.5 7.5z" fill="#f95116"/></g><circle cx="200.58" cy="217.489" fill="#f95116" r="11.546"/><g><path d="m288.989 115.461h-134.1c-4.143 0-7.5-3.358-7.5-7.5s3.357-7.5 7.5-7.5h134.101c4.143 0 7.5 3.358 7.5 7.5s-3.358 7.5-7.501 7.5z" fill="#f95116"/></g><g><path d="m288.989 68.954h-134.1c-4.143 0-7.5-3.358-7.5-7.5s3.357-7.5 7.5-7.5h134.101c4.143 0 7.5 3.358 7.5 7.5s-3.358 7.5-7.501 7.5z" fill="#f95116"/></g><g><g><path d="m288.989 354.089h-134.1c-4.143 0-7.5-3.358-7.5-7.5s3.357-7.5 7.5-7.5h134.101c4.143 0 7.5 3.358 7.5 7.5s-3.358 7.5-7.501 7.5z" fill="#f95116"/></g><g><path d="m288.989 400.597h-134.1c-4.143 0-7.5-3.358-7.5-7.5s3.357-7.5 7.5-7.5h134.101c4.143 0 7.5 3.358 7.5 7.5s-3.358 7.5-7.501 7.5z" fill="#f95116"/></g></g><g><path d="m161.257 512h-22.705c-14.92 0-27.059-12.138-27.059-27.058v-37.891c0-4.142 3.357-4.75 7.5-4.75s7.5.608 7.5 4.75v37.891c0 6.649 5.409 12.058 12.059 12.058h22.705c6.649 0 12.059-5.409 12.059-12.058v-37.891c0-4.142 3.357-4.448 7.5-4.448s7.5.306 7.5 4.448v37.891c-.001 14.92-12.139 27.058-27.059 27.058z" fill="#e207b9"/></g><g><path d="m345.397 512h-22.705c-14.92 0-27.059-12.138-27.059-27.058v-37.891c0-4.142 3.357-5.957 7.5-5.957s7.5 1.815 7.5 5.957v37.891c0 6.649 5.409 12.058 12.059 12.058h22.705c6.649 0 12.059-5.409 12.059-12.058v-37.891c0-4.142 3.357-4.901 7.5-4.901s7.5.758 7.5 4.901v37.891c0 14.92-12.139 27.058-27.059 27.058z" fill="#e207b9"/></g><path d="m393.006 0c-48.715 0-243.999 0-274.013 0-40.858 0-74.1 33.241-74.1 74.1v306.351c0 40.859 33.241 74.1 74.1 74.1h274.013c40.859 0 74.101-33.241 74.101-74.1v-306.351c-.001-40.859-33.242-74.1-74.101-74.1zm-333.112 380.451v-306.351c0-32.588 26.512-59.1 59.1-59.1h205.891c32.588 0 59.1 26.512 59.1 59.1v306.351c0 32.588-26.512 59.1-59.1 59.1h-205.892c-32.588 0-59.099-26.512-59.099-59.1zm392.212 0c0 32.588-26.513 59.1-59.101 59.1h-23.471c19.083-14.449 29.448-36.569 29.448-59.1v-306.351c0-22.957-10.706-44.901-29.447-59.1h23.47c32.588 0 59.101 26.512 59.101 59.1z" fill="#f95116"/></g></svg>