<svg id="Capa_1" enable-background="new 0 0 512 512" height="512" viewBox="0 0 512 512" width="512" xmlns="http://www.w3.org/2000/svg"><g><path d="m451.113 127.734-117.506-93.195c-45.457-36.053-109.757-36.053-155.214 0l-117.506 93.195c-17.654 14.001-7.753 42.418 14.779 42.418h360.667c22.533 0 32.434-28.416 14.78-42.418z" fill="#7181ff"/><path d="m112.485 133.084 86.606-68.688c16.122-12.786 36.332-19.828 56.909-19.828 20.576 0 40.786 7.042 56.909 19.828l86.606 68.688z" fill="#a4bcff"/><path d="m137.284 219.184h-33.764c-5.721 0-11.038-1.727-15.462-4.686v160.626h64.688v-160.626c-4.424 2.958-9.741 4.686-15.462 4.686z" fill="#ffd600"/><path d="m75.666 170.152v21.178c0 15.383 12.471 27.854 27.854 27.854h33.764c15.383 0 27.854-12.471 27.854-27.854v-21.178z" fill="#ffff6f"/><path d="m374.716 219.184h33.764c5.721 0 11.038-1.727 15.462-4.686v160.626h-64.688v-160.626c4.424 2.958 9.741 4.686 15.462 4.686z" fill="#ffd600"/><path d="m436.334 170.152v21.178c0 15.383-12.471 27.854-27.854 27.854h-33.764c-15.383 0-27.854-12.471-27.854-27.854v-21.178z" fill="#ffff6f"/><path d="m272.882 219.184h-33.764c-5.721 0-11.038-1.727-15.462-4.686v160.626h64.688v-160.626c-4.424 2.958-9.741 4.686-15.462 4.686z" fill="#ffd600"/><path d="m211.264 170.152v21.178c0 15.383 12.471 27.854 27.854 27.854h33.764c15.383 0 27.854-12.471 27.854-27.854v-21.178z" fill="#ffff6f"/><path d="m53.668 439.812h404.665c5.636 0 10.968 1.297 15.718 3.606v-32.284c0-19.888-16.122-36.01-36.01-36.01h-364.082c-19.888 0-36.01 16.122-36.01 36.01v32.284c4.75-2.309 10.083-3.606 15.719-3.606z" fill="#a4bcff"/><path d="m458.332 439.812h-404.664c-19.888 0-36.01 16.122-36.01 36.01v11.397c0 9.544 7.737 17.281 17.281 17.281h442.122c9.544 0 17.281-7.737 17.281-17.281v-11.397c0-19.888-16.122-36.01-36.01-36.01z" fill="#7181ff"/><circle cx="296.238" cy="86.891" fill="#2115c2" r="8.538"/><g><path d="m274.078 115.373h-36.155c-4.143 0-7.5-3.358-7.5-7.5s3.357-7.5 7.5-7.5h36.155c4.143 0 7.5 3.358 7.5 7.5s-3.358 7.5-7.5 7.5z" fill="#2115c2"/></g><circle cx="215.762" cy="86.891" fill="#2115c2" r="8.538"/><g fill="#f95116"><path d="m165.137 167.087c-4.143 0-7.5-1.077-7.5 3.065v21.178c0 11.283-9.205 20.354-20.354 20.354h-33.763c-11.114 0-20.354-9.037-20.354-20.354v-21.178c0-4.142-3.357-2.543-7.5-2.543s-7.5-1.599-7.5 2.543v21.178c0 10.734 4.815 20.36 12.392 26.849v156.945c0 4.142 3.357 4.344 7.5 4.344s7.5-.201 7.5-4.344v-149.342c2.288.527 5.18.902 7.962.902h33.764c2.691 0 5.627-.366 7.963-.902v149.342c0 4.142 3.357 4.344 7.5 4.344s7.5-.201 7.5-4.344v-156.946c7.576-6.489 12.391-16.114 12.391-26.848v-21.178c-.001-4.142-3.358-3.065-7.501-3.065z"/><path d="m436.333 166.961c-4.143 0-7.5-.951-7.5 3.191v21.178c0 11.293-9.214 20.354-20.354 20.354h-33.764c-11.171 0-20.354-9.091-20.354-20.354v-21.178c0-4.142-3.357-3.285-7.5-3.285s-7.5-.857-7.5 3.285v21.178c0 10.734 4.815 20.36 12.392 26.849v156.945c0 4.142 3.357 4.344 7.5 4.344s7.5-.201 7.5-4.344v-149.342c2.244.517 5.168.902 7.962.902h33.764c2.701 0 5.655-.37 7.962-.902v149.342c0 4.142 3.357 5.334 7.5 5.334s7.5-1.192 7.5-5.334v-156.945c7.577-6.489 12.392-16.115 12.392-26.849v-21.178c0-4.142-3.357-3.191-7.5-3.191z"/><path d="m300.736 166.961c-4.143 0-7.5-.951-7.5 3.191v21.178c0 11.243-9.162 20.354-20.354 20.354h-33.764c-11.195 0-20.354-9.108-20.354-20.354v-21.178c0-4.142-3.357-3.191-7.5-3.191s-7.5-.951-7.5 3.191v21.178c0 10.734 4.815 20.359 12.392 26.849v156.945c0 4.142 3.357 4.096 7.5 4.096s7.5.046 7.5-4.096v-149.343c2.356.541 5.209.902 7.963.902h33.764c2.701 0 5.655-.37 7.962-.902v149.342c0 4.142 3.357 4.344 7.5 4.344s7.5-.201 7.5-3.353v-156.945c7.577-7.48 12.392-17.105 12.392-27.84v-21.178c-.001-4.141-3.359-3.19-7.501-3.19z"/></g><path d="m481.551 439.052v-27.919c0-23.991-19.519-43.51-43.511-43.51h-364.081c-23.991 0-43.51 19.519-43.51 43.51v27.918c-12.182 7.72-20.292 21.312-20.292 36.77v11.397c0 13.665 11.117 24.781 24.781 24.781h442.122c13.664 0 24.781-11.117 24.781-24.781v-11.397c.001-15.457-8.109-29.049-20.29-36.769zm-436.101-5.969v-21.949c0-15.72 12.789-28.51 28.51-28.51h364.081c15.721 0 28.511 12.79 28.511 28.51v21.949c-2.461-.47-5.413-.771-8.219-.771h-404.666c-2.799 0-5.726.295-8.217.771zm441.392 54.136c0 5.394-4.388 9.781-9.781 9.781h-442.122c-5.394 0-9.781-4.388-9.781-9.781v-11.397c0-15.664 12.731-28.51 28.51-28.51h404.665c15.691 0 28.51 12.763 28.51 28.51v11.397z" fill="#2115c2"/><g><path d="m436.333 177.652h-360.666c-13.503 0-25.099-8.239-29.542-20.99-4.442-12.751-.478-26.413 10.103-34.803l117.506-93.195c23.304-18.485 52.52-28.664 82.266-28.664s58.963 10.179 82.268 28.663l117.506 93.195c10.58 8.391 14.545 22.052 10.103 34.803-4.444 12.751-16.04 20.991-29.544 20.991zm-180.333-162.652c-26.375 0-52.281 9.026-72.946 25.416l-117.507 93.195c-6.684 5.301-7.098 12.833-5.258 18.115 1.841 5.282 6.847 10.926 15.377 10.926h360.667c8.531 0 13.537-5.644 15.377-10.926 1.841-5.282 1.426-12.814-5.258-18.115l-117.505-93.195c-20.665-16.39-46.572-25.416-72.947-25.416z" fill="#2115c2"/></g><g><path d="m399.515 140.584h-287.03c-3.191 0-6.032-2.019-7.082-5.032-1.05-3.014-.078-6.361 2.422-8.344l86.606-68.688c17.442-13.833 39.308-21.452 61.569-21.452s44.127 7.618 61.568 21.451l86.606 68.688c2.5 1.982 3.472 5.33 2.422 8.344-1.049 3.014-3.889 5.033-7.081 5.033zm-265.504-15h243.978l-69.74-55.312c-14.802-11.739-33.358-18.204-52.249-18.204-18.892 0-37.447 6.465-52.249 18.204z" fill="#2115c2"/></g></g></svg>