<svg id="Capa_1" enable-background="new 0 0 512 512" height="512" viewBox="0 0 512 512" width="512" xmlns="http://www.w3.org/2000/svg"><g><path d="m496.305 117.862-102.168-102.167c-13.718-13.718-36.892-9.669-45.146 7.888l-26.583 56.549 109.459 109.459 56.549-26.583c17.558-8.253 21.607-31.427 7.889-45.146z" fill="#ff63ed"/><path d="m309.16 348.715 122.708-159.124-109.459-109.459-159.124 122.708z" fill="#ff9bff"/><path d="m131.979 321.669-93.408 93.408c-15.26 15.26-25.563 34.769-29.563 55.977l-1.103 5.849c-3.038 16.109 11.082 30.229 27.192 27.192l5.849-1.103c21.208-3.999 40.716-14.302 55.977-29.563l93.408-93.408z" fill="#b98eff"/><path d="m291.354 425.538c24.638-41.332 17.806-76.824 17.806-76.824l-145.875-145.874s-35.491-6.832-76.824 17.806c-17.647 10.52-20.622 34.883-6.095 49.411l161.577 161.577c14.528 14.527 38.892 11.552 49.411-6.096z" fill="#ff63ed"/><circle cx="330.408" cy="255.659" fill="#e207b9" r="11.112"/><g><path d="m288.834 263.943c-1.92 0-3.839-.732-5.304-2.197l-33.276-33.276c-2.929-2.929-2.929-7.678 0-10.607 2.931-2.93 7.679-2.929 10.608 0l33.276 33.276c2.929 2.929 2.929 7.678 0 10.607-1.465 1.464-3.385 2.197-5.304 2.197z" fill="#e207b9"/></g><circle cx="256.34" cy="181.592" fill="#e207b9" r="11.112"/><g><path d="m30.774 512c-8.085 0-15.927-3.188-21.757-9.017-7.198-7.198-10.369-17.467-8.482-27.47l1.103-5.848c4.297-22.786 15.234-43.495 31.629-59.891l93.408-93.408c2.93-2.929 5.585-.836 8.515 2.093 2.929 2.929 5.022 5.585 2.093 8.514l-93.408 93.408c-14.254 14.253-23.761 32.256-27.496 52.063l-1.103 5.849c-.981 5.205.604 10.338 4.348 14.083s8.879 5.328 14.084 4.349l5.849-1.103c19.808-3.735 37.81-13.243 52.063-27.496l93.408-93.408c2.93-2.929 4.743.006 7.673 2.935 2.929 2.929 5.864 4.743 2.935 7.672l-93.408 93.408c-16.396 16.396-37.106 27.333-59.891 31.63l-5.849 1.103c-1.903.358-3.816.534-5.714.534z" fill="#6d00ca"/></g><path d="m501.609 112.559-102.168-102.167c-17.378-17.377-46.787-12.233-57.237 10l-25.811 54.908-155.197 119.679c-10.395-1.15-42.358-2.366-78.575 19.224-21.836 13.016-25.559 43.156-7.559 61.157l161.578 161.577c17.935 17.935 48.093 14.356 61.157-7.557 21.59-36.219 20.373-68.18 19.224-78.576l119.679-155.197 54.906-25.811c22.238-10.452 27.377-39.862 10.003-57.237zm-216.697 309.139c-8.003 13.426-26.569 15.727-37.664 4.632l-161.578-161.577c-11.096-11.095-8.794-29.661 4.631-37.664 25.182-15.011 48.178-17.584 60.984-17.584 3.785 0 6.68.225 8.477.42l142.311 142.311c.858 7.916 2.274 36.858-17.161 69.462zm23.518-84.32-133.808-133.809 147.145-113.471 100.134 100.134zm176.795-181.158-51.78 24.341-102.007-102.007 24.341-51.781c6.039-12.844 22.982-15.851 33.054-5.775l102.168 102.167c10.04 10.038 7.119 26.993-5.776 33.055z" fill="#e207b9"/></g></svg>