<svg id="Capa_1" enable-background="new 0 0 512 512" height="512" viewBox="0 0 512 512" width="512" xmlns="http://www.w3.org/2000/svg"><g><g><path d="m274.865 410.124c-18.74-3.436-35.781-11.786-49.739-23.658v68.295h-16.644c-13.735 0-24.87 11.135-24.87 24.87s11.135 24.87 24.87 24.87h41.513c9.605 0 17.932-5.449 22.076-13.421-1.781-3.428-2.794-7.319-2.794-11.449 0-5.956 2.096-11.422 5.588-15.704z" fill="#ffd600"/></g><g><path d="m310.79 410.574v44.186h-16.643c-13.735 0-24.87 11.135-24.87 24.87s11.135 24.87 24.87 24.87h41.513c13.735 0 24.87-11.135 24.87-24.87v-90.987c-14.117 11.252-31.137 19.005-49.74 21.931z" fill="#ffd600"/></g><path d="m294.149 411.875c-58.825 0-106.682-47.857-106.682-106.682v-97.076c0-37.579 30.573-68.152 68.152-68.152s68.153 30.573 68.153 68.152v57.468c0 12.466-10.105 22.571-22.571 22.571s-22.571-10.105-22.571-22.571v-57.468c0-12.688-10.322-23.009-23.01-23.009-12.687 0-23.009 10.322-23.009 23.009v97.076c0 33.933 27.606 61.539 61.538 61.539s61.539-27.607 61.539-61.539v-152.863c0-54.967-44.72-99.687-99.687-99.687-54.968 0-99.688 44.72-99.688 99.687v147.969c0 12.466-10.106 22.571-22.571 22.571s-22.571-10.105-22.571-22.571v-147.969c-.001-79.86 64.97-144.83 144.829-144.83 79.86 0 144.83 64.97 144.83 144.83v152.863c0 58.824-47.857 106.682-106.681 106.682z" fill="#88f8d8"/><g><g><path d="m249.995 512h-41.514c-17.849 0-32.369-14.521-32.369-32.37s14.521-32.37 32.369-32.37h9.144v-60.795c0-4.142 3.357-3.762 7.5-3.762s7.5-.38 7.5 3.762v68.295c0 4.142-3.357 7.5-7.5 7.5h-16.644c-9.577 0-17.369 7.792-17.369 17.37s7.792 17.37 17.369 17.37h41.514c5.389 0 10.368-2.466 13.628-6.601-1.215-3.449-1.847-7.104-1.847-10.769 0-6.484 1.969-12.839 5.589-18.177v-51.33c0-4.142 3.357-3.233 7.5-3.233s7.5-.909 7.5 3.233v53.803c0 1.727-.596 3.401-1.688 4.74-2.553 3.13-3.901 6.921-3.901 10.964 0 2.813.655 5.502 1.949 7.991 1.126 2.168 1.126 4.749 0 6.917-5.597 10.771-16.606 17.462-28.73 17.462z" fill="#f95116"/></g></g><g><g><path d="m335.659 512h-41.513c-17.849 0-32.37-14.521-32.37-32.37s14.521-32.37 32.37-32.37h9.144v-36.687c0-4.142 3.357-4.024 7.5-4.024s7.5-.118 7.5 4.024v44.187c0 4.142-3.357 7.5-7.5 7.5h-16.644c-9.578 0-17.37 7.792-17.37 17.37s7.792 17.37 17.37 17.37h41.513c9.578 0 17.37-7.792 17.37-17.37v-90.987c0-4.142 3.357-2.178 7.5-2.178s7.5-1.964 7.5 2.178v90.987c0 17.849-14.521 32.37-32.37 32.37z" fill="#f95116"/></g></g><path d="m274.865 410.124c-18.74-3.436-35.781-11.786-49.739-23.658v36.777c14.999 8.804 31.817 14.826 49.739 17.366z" fill="#f95116"/><path d="m360.529 388.643c-14.116 11.252-31.136 19.004-49.74 21.931v30.381c17.863-2.177 34.672-7.811 49.74-16.211z" fill="#f95116"/><g><path d="m294.149 419.375c-62.961 0-114.183-51.222-114.183-114.182v-97.076c0-41.714 33.938-75.652 75.652-75.652s75.652 33.938 75.652 75.652v57.469c0 16.582-13.49 30.071-30.071 30.071s-30.071-13.49-30.071-30.071v-57.469c0-8.552-6.958-15.509-15.51-15.509s-15.51 6.958-15.51 15.509v97.076c0 29.797 24.242 54.04 54.039 54.04s54.039-24.242 54.039-54.04v-152.863c0-50.832-41.354-92.187-92.187-92.187s-92.188 41.355-92.188 92.187v147.97c0 16.582-13.49 30.071-30.071 30.071s-30.071-13.49-30.071-30.071v-147.97c.001-83.995 68.336-152.33 152.331-152.33s152.33 68.335 152.33 152.33v152.863c0 62.96-51.222 114.182-114.181 114.182zm-38.53-271.911c-33.443 0-60.652 27.208-60.652 60.652v97.076c0 54.689 44.493 99.182 99.183 99.182 54.688 0 99.181-44.493 99.181-99.182v-152.862c-.001-75.724-61.607-137.33-137.331-137.33s-137.33 61.606-137.33 137.33v147.97c0 8.311 6.761 15.071 15.071 15.071s15.071-6.761 15.071-15.071v-147.97c0-59.103 48.085-107.187 107.188-107.187s107.187 48.084 107.187 107.187v152.863c0 38.068-30.971 69.04-69.039 69.04s-69.039-30.971-69.039-69.04v-97.076c0-16.823 13.687-30.509 30.51-30.509s30.51 13.687 30.51 30.509v57.469c0 8.311 6.761 15.071 15.071 15.071s15.071-6.761 15.071-15.071v-57.469c0-33.444-27.208-60.653-60.652-60.653z" fill="#007ea8"/></g></g></svg>