<svg id="Capa_1" enable-background="new 0 0 512 512" height="512" viewBox="0 0 512 512" width="512" xmlns="http://www.w3.org/2000/svg"><g><path d="m460.248 281.554h-408.495c-18.294 0-33.125 14.831-33.125 33.125v30.827c0 18.294 14.831 33.125 33.125 33.125h408.495c18.294 0 33.125-14.831 33.125-33.125v-30.827c0-18.294-14.831-33.125-33.125-33.125z" fill="#b98eff"/><path d="m51.753 378.631v107.174c0 10.324 8.369 18.693 18.693 18.693h22.61c10.324 0 18.693-8.369 18.693-18.693v-107.174z" fill="#9448f5"/><path d="m460.248 378.631v107.174c0 10.324-8.369 18.693-18.693 18.693h-22.61c-10.324 0-18.693-8.369-18.693-18.693v-107.174z" fill="#9448f5"/><circle cx="409.047" cy="126.296" fill="#ff9bff" r="33.165"/><path d="m290.441 133.679-65.241-65.24c-9.168-9.168-24.032-9.168-33.199 0s-9.168 24.032 0 33.199l65.241 65.241c9.168 9.168 24.032 9.168 33.199 0 9.168-9.168 9.168-24.032 0-33.2z" fill="#ff9bff"/><g fill="#7181ff"><path d="m351.071 46.657c1.49 11.316-1.292 23.144-8.554 32.885l-8.705 11.677 42.105 33.697c.724-17.676 15.276-31.785 33.13-31.785.032 0 .064.002.097.002z"/><path d="m338.244 20.635c-15.852-15.852-40.934-17.671-58.908-4.273l-62.591 46.659c3.083 1.139 5.978 2.94 8.454 5.417l65.241 65.241c2.477 2.477 4.278 5.371 5.417 8.454l46.659-62.591c13.399-17.973 11.58-43.055-4.272-58.907z"/><path d="m402.376 221.944c1.147 0 2.28.055 3.406.134l23.504-69.517c-5.601 4.322-12.617 6.9-20.239 6.9-10.519 0-19.888-4.903-25.964-12.542l-25.367 75.025z"/></g><path d="m402.376 221.944h-61.362c-26.368 0-47.744 21.376-47.744 47.744v11.867h156.849v-11.867c0-26.369-21.375-47.744-47.743-47.744z" fill="#a4bcff"/><circle cx="311.017" cy="320.198" fill="#6d00ca" r="11.673"/><g><path d="m280.718 359.161h-49.435c-4.143 0-7.501-3.358-7.501-7.501s3.358-7.501 7.501-7.501h49.435c4.143 0 7.501 3.358 7.501 7.501s-3.358 7.501-7.501 7.501z" fill="#6d00ca"/></g><circle cx="200.983" cy="320.198" fill="#6d00ca" r="11.673"/><path d="m413.832 87.277-55.925-44.757c-1.931-10.039-6.745-19.576-14.358-27.189-18.354-18.353-47.887-20.494-68.696-4.982l-62.59 46.659c-3.322 2.476-1.218 5.367 1.258 8.688 2.474 3.321 4.385 5.816 7.708 3.34l62.59-46.659c14.881-11.094 35.997-9.56 49.12 3.563 13.117 13.117 14.66 34.23 3.563 49.12l-8.705 11.677v.001l-37.953 50.913c-2.476 3.321.182 4.613 3.504 7.089 3.32 2.476 6.049 5.199 8.524 1.877l33.314-44.689 36.044 28.846c3.236 2.589 5.986-.359 8.576-3.594 2.588-3.235 4.032-5.53.798-8.119l-36.446-29.168 4.372-5.865c.01-.014.019-.028.029-.042 4.553-6.12 8.104-13.825 9.583-22.061l45.525 36.433c3.874 3.987 8.941.946 10.791-4.325 1.055-3.006 1.861-4.766-.626-6.756z" fill="#2115c2"/><path d="m415.728 216.083 20.665-61.119c1.327-3.925-1.06-4.002-4.985-5.329-3.924-1.325-7.901-3.401-9.227.524l-21.735 64.284h-32.274l22.018-65.121c1.327-3.925-1.374-4.055-5.298-5.382-3.926-1.325-7.586-3.349-8.913.576l-23.643 69.926h-11.32c-30.462 0-55.245 24.783-55.245 55.245v11.867c0 4.143 3.358 4.621 7.501 4.621s7.501-.478 7.501-4.621v-11.867c0-22.19 18.053-40.242 40.242-40.242 68.959 0 60.849-.046 64.273.117 20.834 1.498 37.331 18.916 37.331 40.126v11.867c0 4.143 3.358 3.472 7.501 3.472s7.501.671 7.501-3.472v-11.867c0-25.86-17.862-47.617-41.893-53.605z" fill="#2115c2"/><path d="m460.247 274.053h-408.494c-22.401 0-40.626 18.225-40.626 40.626v30.827c0 19.838 14.296 36.39 33.125 39.921v100.378c0 14.444 11.751 26.195 26.195 26.195h22.61c14.444 0 26.194-11.751 26.194-26.195v-99.673h273.498v99.673c0 14.444 11.751 26.195 26.195 26.195h22.61c14.444 0 26.194-11.751 26.194-26.195v-100.379c18.828-3.531 33.125-20.083 33.125-39.921v-30.827c.001-22.4-18.224-40.625-40.626-40.625zm-355.999 211.752c0 6.172-5.02 11.192-11.191 11.192h-22.61c-6.172 0-11.192-5.021-11.192-11.192v-99.673h44.994v99.673zm348.498 0c0 6.172-5.02 11.192-11.191 11.192h-22.61c-6.172 0-11.192-5.021-11.192-11.192v-99.673h44.994v99.673zm33.125-140.299c0 14.129-11.494 25.624-25.624 25.624-51.647 0-357.279 0-408.495 0-14.128 0-25.624-11.495-25.624-25.624v-30.827c0-14.129 11.495-25.624 25.624-25.624h408.495c14.129 0 25.624 11.495 25.624 25.624z" fill="#6d00ca"/><g><path d="m409.048 166.962c-22.424 0-40.666-18.243-40.666-40.666s18.242-40.666 40.666-40.666 40.666 18.243 40.666 40.666-18.242 40.666-40.666 40.666zm0-66.33c-14.151 0-25.664 11.513-25.664 25.664s11.513 25.664 25.664 25.664 25.664-11.513 25.664-25.664-11.513-25.664-25.664-25.664z" fill="#e207b9"/></g><g><path d="m251.937 172.182-65.241-65.24c-12.077-12.078-12.077-31.73 0-43.807 12.078-12.078 31.73-12.078 43.808 0l65.241 65.24c12.077 12.078 12.077 31.73 0 43.808-12.076 12.076-31.729 12.078-43.808-.001zm-54.631-98.439c-6.229 6.228-6.229 16.363 0 22.591l65.241 65.24c6.228 6.228 16.362 6.228 22.59 0 6.229-6.228 6.229-16.363 0-22.591l-65.241-65.24c-6.229-6.229-16.363-6.228-22.59 0z" fill="#e207b9"/></g></g></svg>