<svg id="Capa_1" enable-background="new 0 0 512 512" height="512" viewBox="0 0 512 512" width="512" xmlns="http://www.w3.org/2000/svg"><g><path d="m206.846 142.741h98.308c2.732 0 5.401.26 7.996.734l-24.764-114.793c-2.666-12.359-13.596-21.182-26.239-21.182h-12.293c-12.644 0-23.573 8.823-26.239 21.182l-24.765 114.793c2.595-.473 5.264-.734 7.996-.734z" fill="#a4bcff"/><path d="m305.154 142.741h-98.308c-24.47 0-44.307 19.837-44.307 44.307v25.139h186.921v-25.139c.001-24.47-19.836-44.307-44.306-44.307z" fill="#f90"/><path d="m349.464 212.191h-186.928c-34.829 0-63.067 28.238-63.067 63.067v14.407h122.721c17.441-19.87 33.81-32.259 33.81-32.259s16.369 12.388 33.809 32.257h122.721v-14.407c0-34.828-28.237-63.065-63.066-63.065z" fill="#ffff6f"/><g fill="#f90"><path d="m181.039 379.521c0-34.835 21.271-67.207 41.152-89.857h-122.721v134.638h96.412c-9.323-12.495-14.843-27.993-14.843-44.781z"/><path d="m289.809 289.664c19.881 22.65 41.152 55.022 41.152 89.857 0 16.788-5.52 32.285-14.842 44.78h96.412v-134.637z"/></g><path d="m316.119 424.301c-13.667 18.318-35.507 30.181-60.119 30.181s-46.452-11.863-60.119-30.181h-96.411v17.132c0 34.829 28.238 63.067 63.067 63.067h186.927c34.829 0 63.067-28.238 63.067-63.067v-17.132z" fill="#ffff6f"/><path d="m256 257.406s-74.961 56.722-74.961 122.115c0 41.4 33.561 74.961 74.961 74.961s74.961-33.561 74.961-74.961c0-65.393-74.961-122.115-74.961-122.115z" fill="#a4bcff"/><g><path d="m312.355 146.53c-3.456 0-5.778 2.043-6.536-1.473l-24.764-114.793c-1.909-8.845-9.861-15.264-18.909-15.264h-12.293c-9.048 0-17 6.419-18.908 15.264l-24.765 114.793c-.873 4.05-4.743 3.109-8.789 2.237-4.049-.874-6.747-1.351-5.873-5.4l24.765-114.793c3.387-15.704 17.506-27.101 33.571-27.101h12.293c16.064 0 30.184 11.397 33.57 27.101l24.765 114.793c.874 4.049-2.487 3.593-6.536 4.467-.534.114-1.066.169-1.591.169z" fill="#2115c2"/></g><circle cx="299.228" cy="373.755" fill="#2115c2" r="9.172"/><g><path d="m275.422 405.975h-38.843c-4.143 0-7.5-3.358-7.5-7.5s3.357-7.5 7.5-7.5h38.843c4.143 0 7.5 3.358 7.5 7.5s-3.358 7.5-7.5 7.5z" fill="#2115c2"/></g><circle cx="212.772" cy="373.755" fill="#2115c2" r="9.172"/><path d="m356.961 205.093v-18.044c0-28.566-23.24-51.807-51.807-51.807h-98.309c-28.566 0-51.807 23.24-51.807 51.807v18.044c-35.398 3.756-63.069 33.787-63.069 70.165v166.176c0 38.911 31.656 70.567 70.566 70.567h186.928c38.91 0 70.566-31.656 70.566-70.567 0-23.879 0-140.301 0-166.176.001-36.379-27.67-66.409-63.068-70.165zm-44.859 214.646c-12.88 17.264-34.596 31.04-56.102 31.04-20.822 0-40.571-11.89-55.236-30.457-1.477-1.899-2.675-3.521-4.883-3.521h-88.911v-119.637c39.25-.013 115.376.035 116.151-.063 1.87-.233 2.406-2.119 3.576-3.445 11.315-12.892 23.388-27.1 29.303-32.054 26.795 22.438 28.602 35.562 35.601 35.562h113.429v119.637h-88.911c-2.252 0-2.543.972-4.017 2.938zm-142.063-232.691c0-20.295 16.512-36.807 36.807-36.807h98.309c20.295 0 36.807 16.511 36.807 36.807v17.639h-171.923zm-63.069 88.209c0-30.64 24.927-55.567 55.566-55.567h186.928c30.64 0 55.566 24.927 55.566 55.567v6.907h-114.067c-16.852-18.71-29.774-27.873-30.437-28.376-2.678-2.026-6.375-2.026-9.053 0-.663.502-13.985 9.665-30.837 28.376h-113.666zm298.06 166.176c0 30.64-24.927 55.567-55.566 55.567h-186.928c-30.64 0-55.566-24.927-55.566-55.567v-9.632h85.263c15.588 18.966 39.144 25.973 63.768 25.973 24.623 0 48.18-7.007 63.769-25.973h85.262v9.632z" fill="#f95116"/><g><path d="m256 461.982c-45.469 0-82.461-36.992-82.461-82.461 0-28.93 13.2-59.344 39.233-90.398 19.065-22.744 37.909-37.098 38.702-37.698 2.676-2.025 6.375-2.025 9.051 0 .793.6 19.637 14.954 38.702 37.698 26.033 31.054 39.233 61.468 39.233 90.398.001 45.469-36.991 82.461-82.46 82.461zm0-194.921c-15.796 13.273-67.461 60.657-67.461 112.46 0 37.198 30.263 67.461 67.461 67.461s67.461-30.263 67.461-67.461c0-51.803-51.665-99.188-67.461-112.46z" fill="#2115c2"/></g></g></svg>