<svg id="Capa_1" enable-background="new 0 0 512 512" height="512" viewBox="0 0 512 512" width="512" xmlns="http://www.w3.org/2000/svg"><g><path d="m200.614 278.016c-26.641 0-48.238 21.597-48.238 48.238v81.833h96.477v-81.833c-.001-26.641-21.598-48.238-48.239-48.238z" fill="#b98eff"/><path d="m393.251 408.087h-240.876c-30.226 0-54.728 24.503-54.728 54.728v15.536c0 14.441 11.707 26.148 26.148 26.148h298.036c14.441 0 26.148-11.707 26.148-26.148v-15.536c.001-30.225-24.502-54.728-54.728-54.728z" fill="#9448f5"/><circle cx="200.613" cy="331.985" fill="#88f8d8" r="17.067"/><path d="m377.36 181.897h-128.457c-11.263 0-20.394 9.131-20.394 20.394v20.948c0 11.263 9.131 20.394 20.394 20.394h128.457c11.263 0 20.394-9.131 20.394-20.394v-20.948c0-11.263-9.13-20.394-20.394-20.394z" fill="#9448f5"/><g><path d="m228.509 114.703c6.989 0 13.81.732 20.394 2.115v-66.243c-6.684-.83-13.489-1.264-20.394-1.264-90.699 0-164.489 73.789-164.489 164.489 0 63.244 35.883 118.256 88.354 145.772v-33.319c0-13.632 5.664-25.935 14.756-34.708-22.96-18.165-37.719-46.264-37.719-77.746.001-54.641 44.456-99.096 99.098-99.096z" fill="#ff9bff"/></g><path d="m335.863 7.5h-45.463c-22.918 0-41.497 18.579-41.497 41.497v132.9h128.457v-132.9c0-22.918-18.579-41.497-41.497-41.497z" fill="#88f8d8"/><path d="m399.389 304.339h-155.807c3.362 6.578 5.27 14.021 5.27 21.915v33.534h165.331c9.982 0 18.073-8.092 18.073-18.073v-4.509c0-18.152-14.715-32.867-32.867-32.867z" fill="#ff9bff"/><circle cx="327.461" cy="444.454" fill="#6d00ca" r="11.595"/><g><path d="m297.365 483.204h-49.104c-4.143 0-7.5-3.358-7.5-7.5s3.357-7.5 7.5-7.5h49.104c4.143 0 7.5 3.358 7.5 7.5s-3.357 7.5-7.5 7.5z" fill="#6d00ca"/></g><circle cx="218.166" cy="444.454" fill="#6d00ca" r="11.595"/><g><path d="m200.613 356.552c-13.546 0-24.566-11.021-24.566-24.566 0-13.546 11.021-24.567 24.566-24.567s24.566 11.021 24.566 24.567c.001 13.545-11.02 24.566-24.566 24.566zm0-34.134c-5.275 0-9.566 4.292-9.566 9.567s4.291 9.566 9.566 9.566 9.566-4.292 9.566-9.566c.001-5.275-4.29-9.567-9.566-9.567z" fill="#007ea8"/></g><g><g><path d="m152.369 367.074c-1.175 0-2.365-.276-3.478-.859-56.976-29.879-92.37-88.281-92.37-152.415 0-94.834 77.153-171.988 171.988-171.988 7.091 0 14.264.444 21.318 1.32 4.111.511 3.783 4.256 3.273 8.367s-1.02 7.034-5.12 6.519c-6.444-.8-12.995-1.206-19.471-1.206-86.563 0-156.988 70.425-156.988 156.988 0 58.538 32.316 111.85 84.338 139.13 3.668 1.924 2.527 4.645.603 8.313-1.34 2.557-1.394 5.831-4.093 5.831z" fill="#e207b9"/></g><g><path d="m164.185 295.708c-1.63 0-.331 2.81-1.708 1.721-25.78-20.396-40.565-50.877-40.565-83.628 0-58.778 47.819-106.598 106.597-106.598 7.368 0 14.749.765 21.937 2.275 4.054.852-.691 4.828-1.542 8.881s2.522 6.652-1.542 5.798c-6.175-1.297-12.518-1.955-18.853-1.955-50.507 0-91.597 41.09-91.597 91.598 0 28.137 12.71 54.331 34.872 71.864 3.249 2.57.337 3.729-2.233 6.977-1.481 1.872-3.152 3.067-5.366 3.067z" fill="#e207b9"/></g></g><g><path d="m377.36 185.331c-4.143 0-7.5.708-7.5-3.434v-132.9c0-18.746-15.251-33.997-33.997-33.997h-45.463c-18.746 0-33.997 15.251-33.997 33.997v132.9c0 4.142-3.358 2.285-7.5 2.285s-7.5 1.858-7.5-2.285v-132.9c0-27.017 21.98-48.997 48.997-48.997h45.463c27.018 0 48.997 21.98 48.997 48.997v132.9c0 4.142-3.357 3.434-7.5 3.434z" fill="#007ea8"/></g><g><path d="m414.183 367.288h-165.331c-4.143 0-2.267-3.358-2.267-7.5s-1.875-7.5 2.267-7.5h165.331c5.83 0 10.573-4.743 10.573-10.573v-4.509c0-13.987-11.38-25.367-25.367-25.367h-155.807c-4.143 0-3.896-3.358-3.896-7.5s-.246-7.5 3.896-7.5h155.807c22.259 0 40.367 18.108 40.367 40.367v4.509c0 14.1-11.472 25.573-25.573 25.573z" fill="#e207b9"/></g><g><path d="m377.36 251.132h-128.457c-15.381 0-27.895-12.513-27.895-27.894v-20.948c0-15.38 12.514-27.894 27.895-27.894h128.457c15.381 0 27.894 12.513 27.894 27.894v20.948c0 15.381-12.513 27.894-27.894 27.894zm-128.457-61.735c-7.11 0-12.895 5.784-12.895 12.894v20.948c0 7.11 5.784 12.894 12.895 12.894h128.457c7.109 0 12.894-5.784 12.894-12.894v-20.948c0-7.109-5.784-12.894-12.894-12.894z" fill="#6d00ca"/></g><path d="m393.251 400.587h-136.899v-74.333c0-30.734-25.004-55.738-55.738-55.738s-55.738 25.004-55.738 55.738v74.801c-30.787 3.718-54.729 29.987-54.729 61.76v15.536c0 18.554 15.095 33.648 33.648 33.648h298.036c18.554 0 33.648-15.095 33.648-33.648v-15.536c0-34.313-27.916-62.228-62.228-62.228zm-233.376-74.333c0-22.463 18.275-40.738 40.738-40.738s40.738 18.275 40.738 40.738v74.333h-81.477v-74.333zm280.604 152.098c0 10.283-8.365 18.648-18.648 18.648h-298.036c-10.283 0-18.648-8.366-18.648-18.648v-15.536c0-26.042 21.187-47.229 47.229-47.229h240.876c26.042 0 47.229 21.187 47.229 47.229v15.536z" fill="#6d00ca"/></g></svg>