<svg id="Capa_1" enable-background="new 0 0 512 512" height="512" viewBox="0 0 512 512" width="512" xmlns="http://www.w3.org/2000/svg"><g><path d="m463.114 502.883h-190.901c-19.211 0-34.774-15.564-34.774-34.764v-177.418c0-19.211 15.563-34.774 34.774-34.774h190.902c-19.211 0-34.774 15.564-34.774 34.774v177.418c-.001 19.201 15.563 34.764 34.773 34.764z" fill="#ff9bff"/><path d="m348.145 256.073h-190.902c-19.211 0-34.774-15.563-34.774-34.764v-177.418c0-19.211 15.563-34.774 34.774-34.774h190.902c-19.211 0-34.774 15.563-34.774 34.774v177.418c0 19.201 15.563 34.764 34.774 34.764z" fill="#ffd600"/><path d="m167.683 54.331h100.474v156.528h-100.474z" fill="#ffff6f"/><path d="m389.531 43.891v177.418c0 19.201-15.574 34.764-34.774 34.764h-6.611c-19.211 0-34.774-15.563-34.774-34.764v-177.418c0-19.211 15.563-34.774 34.774-34.774h6.611c19.2 0 34.774 15.563 34.774 34.774z" fill="#f90"/><g fill="#f95116"><path d="m268.157 46.831h-100.473c-4.143 0-7.5 3.358-7.5 7.5v156.528c0 4.142 3.357 7.5 7.5 7.5h100.474c4.143 0 7.5-3.358 7.5-7.5v-156.528c-.001-4.142-3.358-7.5-7.501-7.5zm-7.5 156.528h-85.474v-141.528h85.474z"/><path d="m354.756 1.616c-11.495 0-196.251 0-197.513 0-23.311 0-42.274 18.964-42.274 42.274v177.418c0 23.305 18.964 42.264 42.274 42.264 4.143 0 7.5-3.358 7.5-7.5s-3.357-7.5-7.5-7.5c-15.039 0-27.274-12.23-27.274-27.264v-177.417c0-15.039 12.235-27.274 27.274-27.274h158.627c-6.602 7.772-9.999 17.629-9.999 27.274v177.418c0 23.305 18.964 42.264 42.274 42.264 1.15 0 2.341-.293 3.305-.766.998.49 2.119.766 3.306.766 23.311 0 42.274-18.959 42.274-42.264v-177.418c0-23.31-18.964-42.275-42.274-42.275zm27.274 219.693c0 15.034-12.235 27.264-27.274 27.264-1.187 0-2.308.275-3.306.766-.903-.443-2.119-.766-3.305-.766-15.039 0-27.274-12.23-27.274-27.264v-177.418c0-15.039 12.235-27.274 27.274-27.274h6.61c15.039 0 27.274 12.235 27.274 27.274v177.418z"/></g><g><g><path d="m236.796 164.003c-3.03 0-5.885-1.851-7.018-4.854l-11.804-31.276-11.92 31.298c-1.476 3.871-5.813 5.813-9.678 4.339-3.871-1.474-5.814-5.807-4.34-9.678l17.953-47.139c.021-.058.045-.115.067-.172 1.325-3.235 4.439-5.328 7.936-5.332h.01c3.491 0 6.606 2.085 7.937 5.314.028.069.056.139.082.209l17.79 47.141c1.463 3.875-.493 8.203-4.368 9.665-.872.329-1.767.485-2.647.485z" fill="#f95116"/></g><g><path d="m231.286 152.261h-26.642c-4.143 0-7.5-3.358-7.5-7.5s3.357-7.5 7.5-7.5h26.642c4.143 0 7.5 3.358 7.5 7.5s-3.357 7.5-7.5 7.5z" fill="#f95116"/></g></g><path d="m233.176 502.883h-190.902c-19.211 0-34.774-15.564-34.774-34.764v-177.418c0-19.211 15.563-34.774 34.774-34.774h190.902c-19.211 0-34.774 15.564-34.774 34.774v177.418c-.001 19.201 15.563 34.764 34.774 34.764z" fill="#b98eff"/><path d="m52.714 301.141h100.474v156.528h-100.474z" fill="#ddbeff"/><path d="m237.439 468.119v-177.418c0-13.353 7.523-24.937 18.559-30.764-4.842-2.557-10.356-4.01-16.211-4.01h-6.611c-19.211 0-34.774 15.564-34.774 34.774v177.418c0 19.201 15.564 34.764 34.774 34.764h6.611c5.855 0 11.369-1.454 16.211-4.01-11.037-5.826-18.559-17.408-18.559-30.754z" fill="#9448f5"/><g><path d="m153.187 465.17h-100.473c-4.143 0-7.5-3.358-7.5-7.5v-156.529c0-4.142 3.357-7.5 7.5-7.5h100.474c4.143 0 7.5 3.358 7.5 7.5v156.529c-.001 4.142-3.358 7.5-7.501 7.5zm-92.973-15h85.474v-141.529h-85.474z" fill="#6d00ca"/></g><path d="m259.856 496.64c-1.935-3.662-3.693-6.334-7.36-4.399-3.949 2.085-8.226 3.143-12.709 3.143h-6.611c-15.039 0-27.274-12.23-27.274-27.264v-177.419c0-15.039 12.235-27.274 27.274-27.274h6.611c4.484 0 8.76 1.057 12.709 3.143 3.666 1.935 4.926-1.317 6.859-4.979 1.935-3.663 3.808-6.352.145-8.286-6.044-3.191-12.86-4.878-19.713-4.878-11.518 0-196.253 0-197.513 0-23.31 0-42.274 18.964-42.274 42.274v177.418c0 23.305 18.964 42.264 42.274 42.264h197.513c6.852 0 13.668-1.687 19.713-4.878 3.662-1.933 2.289-5.202.356-8.865zm-217.582-1.256c-15.039 0-27.274-12.23-27.274-27.264v-177.419c0-15.039 12.235-27.274 27.274-27.274h158.626c-6.576 7.741-9.999 17.591-9.999 27.274v177.418c0 10.056 3.604 19.703 9.996 27.264h-158.623z" fill="#6d00ca"/><path d="m118.446 375.422c1.464-2.648 2.303-5.688 2.303-8.921 0-10.202-8.3-18.501-18.502-18.501h-13.888c-4.143 0-7.5 3.358-7.5 7.5v22.016.036 25.76c0 1.995.795 3.908 2.208 5.315 1.406 1.4 3.309 2.185 5.292 2.185h.033s12.763-.057 16.28-.057c11.231 0 20.369-9.138 20.369-20.37.001-5.918-2.551-11.238-6.595-14.963zm-16.199-12.423c1.931 0 3.502 1.571 3.502 3.501s-1.571 3.501-3.502 3.501c-1.024 0-2.955.006-5.058.013h-1.33v-7.016h6.388zm2.426 32.756c-1.656 0-5.354.013-8.813.026v-10.76c.443-.002.885-.003 1.32-.005h7.493c2.961 0 5.369 2.409 5.369 5.37s-2.408 5.369-5.369 5.369z" fill="#6d00ca"/><path d="m282.653 301.141h100.474v156.528h-100.474z" fill="#ff63ed"/><path d="m504.5 290.701v177.418c0 19.201-15.574 34.764-34.774 34.764h-6.611c-19.211 0-34.774-15.564-34.774-34.764v-177.418c0-19.211 15.564-34.774 34.774-34.774h6.611c19.2 0 34.774 15.564 34.774 34.774z" fill="#ff63ed"/><g><path d="m383.126 465.17h-100.474c-4.143 0-7.5-3.358-7.5-7.5v-156.529c0-4.142 3.357-7.5 7.5-7.5h100.474c4.143 0 7.5 3.358 7.5 7.5v156.529c0 4.142-3.357 7.5-7.5 7.5zm-92.974-15h85.474v-141.529h-85.474z" fill="#e207b9"/></g><g><g><path d="m337.313 410.811c-17.317 0-31.406-14.088-31.406-31.406s14.089-31.406 31.406-31.406c6.293 0 12.366 1.856 17.564 5.368 3.433 2.319 4.335 6.981 2.017 10.414-2.319 3.432-6.981 4.335-10.413 2.016-2.709-1.831-5.88-2.798-9.168-2.798-9.047 0-16.406 7.36-16.406 16.406s7.359 16.406 16.406 16.406c3.274 0 6.011-.958 8.132-2.847.416-.37.813-.781 1.182-1.22 2.66-3.173 7.392-3.59 10.565-.928 3.175 2.661 3.59 7.392.929 10.566-.834.995-1.742 1.931-2.699 2.784-4.883 4.347-11.145 6.645-18.109 6.645z" fill="#e207b9"/></g></g><path d="m469.726 248.427h-6.611-190.902c-23.311 0-42.274 18.964-42.274 42.274v177.418c0 23.305 18.964 42.264 42.274 42.264h190.901 6.611c23.311 0 42.274-18.959 42.274-42.264v-177.418c.001-23.31-18.963-42.274-42.273-42.274zm-197.513 246.957c-15.039 0-27.274-12.23-27.274-27.264v-177.419c0-15.039 12.235-27.274 27.274-27.274h158.626c-6.657 7.837-9.999 17.666-9.999 27.274v177.418c0 9.987 3.567 19.659 9.996 27.264h-158.623zm224.787-27.265c0 15.034-12.235 27.264-27.274 27.264h-6.611c-15.039 0-27.274-12.23-27.274-27.264v-177.418c0-15.039 12.235-27.274 27.274-27.274h6.611c15.039 0 27.274 12.235 27.274 27.274z" fill="#e207b9"/></g></svg>