<svg id="Capa_1" enable-background="new 0 0 512 512" height="512" viewBox="0 0 512 512" width="512" xmlns="http://www.w3.org/2000/svg"><g><g><path d="m315.428 335.766v92.379c0 14.283-11.579 25.863-25.863 25.863h-43.171c-14.283 0-25.863-11.579-25.863-25.863s11.579-25.863 25.863-25.863h17.308v-66.516z" fill="#88f8d8"/></g><g><path d="m195.06 335.766v92.379c0 14.283-11.579 25.863-25.863 25.863h-43.171c-14.283 0-25.863-11.579-25.863-25.863s11.579-25.863 25.863-25.863h17.308v-66.516z" fill="#88f8d8"/></g><g><g><path d="m289.565 461.508h-43.171c-18.396 0-33.363-14.966-33.363-33.363s14.967-33.363 33.363-33.363h9.808v-59.017c0-4.142 3.357-7.5 7.5-7.5s7.5 3.358 7.5 7.5v66.517c0 4.142-3.357 7.5-7.5 7.5h-17.308c-10.126 0-18.363 8.237-18.363 18.363s8.237 18.363 18.363 18.363h43.171c10.125 0 18.362-8.237 18.362-18.363v-92.379c0-4.142 3.357-7.5 7.5-7.5s7.5 3.358 7.5 7.5v92.379c.001 18.397-14.965 33.363-33.362 33.363z" fill="#007ea8"/></g></g><g><g><path d="m169.197 461.508h-43.171c-18.396 0-33.362-14.966-33.362-33.363s14.966-33.363 33.362-33.363h9.809v-59.017c0-4.142 3.357-7.5 7.5-7.5s7.5 3.358 7.5 7.5v66.517c0 4.142-3.357 7.5-7.5 7.5h-17.309c-10.125 0-18.362 8.237-18.362 18.363s8.237 18.363 18.362 18.363h43.171c10.126 0 18.363-8.237 18.363-18.363v-92.379c0-4.142 3.357-7.5 7.5-7.5s7.5 3.358 7.5 7.5v92.379c.001 18.397-14.966 33.363-33.363 33.363z" fill="#007ea8"/></g></g><path d="m143.335 335.766h51.726v34.56h-51.726z" fill="#007ea8"/><path d="m263.703 335.766h51.726v34.56h-51.726z" fill="#007ea8"/><path d="m504.5 176.027v97.997c0 34.097-27.645 61.742-61.742 61.742h-77.068c34.097 0 61.742-27.645 61.742-61.742v-97.997c0-34.097-27.645-61.742-61.742-61.742h77.068c34.097-.001 61.742 27.644 61.742 61.742z" fill="#565eec"/><path d="m427.432 176.027v97.997c0 34.097-27.645 61.742-61.742 61.742h-296.447c-34.097 0-61.742-27.645-61.742-61.742v-97.997c0-33.117 26.082-60.146 58.825-61.665-3.358 9.182-5.186 19.102-5.186 29.44 0 47.386 38.413 85.799 85.799 85.799h44.039c47.386 0 85.81-38.413 85.81-85.799 0-10.371-1.839-20.313-5.219-29.517h94.122c34.096-.001 61.741 27.644 61.741 61.742z" fill="#a4bcff"/><circle cx="108.324" cy="281.981" fill="#f90" r="21.372"/><path d="m442.758 106.784c-17.652 0-149.159 0-171.189 0-4.143 0-7.5 3.358-7.5 7.5s3.357 7.5 7.5 7.5h94.121c29.91 0 54.243 24.333 54.243 54.242v97.998c0 29.909-24.333 54.242-54.243 54.242h-296.448c-29.909 0-54.242-24.333-54.242-54.242v-97.998c0-29.033 22.697-52.829 51.673-54.173 4.138-.192 7.336-3.702 7.145-7.839-.192-4.138-3.723-7.348-7.84-7.144-36.998 1.716-65.978 32.093-65.978 69.156v97.998c0 38.18 31.062 69.242 69.242 69.242h373.516c38.181 0 69.242-31.062 69.242-69.242v-97.998c0-38.18-31.062-69.242-69.242-69.242zm54.242 167.24c0 29.909-24.333 54.242-54.242 54.242h-34.075c16.139-12.813 26.25-32.553 26.25-54.242v-97.998c0-21.183-9.712-41.112-26.25-54.242h34.075c29.909 0 54.242 24.333 54.242 54.242z" fill="#2115c2"/><g><path d="m370.698 232.696h-78.398c-4.143 0-7.5-3.358-7.5-7.5s3.357-7.5 7.5-7.5h78.398c4.143 0 7.5 3.358 7.5 7.5s-3.357 7.5-7.5 7.5z" fill="#2115c2"/></g><g><path d="m370.698 265.719h-78.398c-4.143 0-7.5-3.358-7.5-7.5s3.357-7.5 7.5-7.5h78.398c4.143 0 7.5 3.358 7.5 7.5s-3.357 7.5-7.5 7.5z" fill="#2115c2"/></g><g><path d="m370.698 298.742h-78.398c-4.143 0-7.5-3.358-7.5-7.5s3.357-7.5 7.5-7.5h78.398c4.143 0 7.5 3.358 7.5 7.5s-3.357 7.5-7.5 7.5z" fill="#2115c2"/></g><g><path d="m108.324 310.853c-15.92 0-28.872-12.952-28.872-28.872s12.952-28.872 28.872-28.872 28.872 12.952 28.872 28.872-12.952 28.872-28.872 28.872zm0-42.744c-7.649 0-13.872 6.223-13.872 13.872s6.223 13.872 13.872 13.872 13.872-6.223 13.872-13.872-6.222-13.872-13.872-13.872z" fill="#f95116"/></g><path d="m232.748 143.801c0 47.386-38.424 85.799-85.81 85.799s-85.799-38.413-85.799-85.799 38.413-85.81 85.799-85.81 85.81 38.424 85.81 85.81z" fill="#ffd600"/><path d="m276.787 143.801c0 47.386-38.424 85.799-85.81 85.799h-44.039c47.386 0 85.81-38.413 85.81-85.799s-38.424-85.81-85.81-85.81h44.039c47.386 0 85.81 38.424 85.81 85.81z" fill="#f90"/><circle cx="194.608" cy="140.418" fill="#f95116" r="10.114"/><g><path d="m168.354 175.178h-42.833c-4.143 0-7.5-3.358-7.5-7.5s3.357-7.5 7.5-7.5h42.833c4.143 0 7.5 3.358 7.5 7.5s-3.357 7.5-7.5 7.5z" fill="#f95116"/></g><g fill="#f95116"><circle cx="99.269" cy="140.418" r="10.114"/><path d="m190.977 50.492h-44.038c-51.445 0-93.299 41.858-93.299 93.31 0 51.445 41.854 93.298 93.299 93.298h44.038c51.451 0 93.31-41.854 93.31-93.298-.001-51.452-41.859-93.31-93.31-93.31zm-122.337 93.309c0-43.18 35.125-78.31 78.299-78.31 43.18 0 78.31 35.129 78.31 78.31 0 43.174-35.13 78.298-78.31 78.298-43.174.001-78.299-35.124-78.299-78.298zm129.485 77.975c25.668-16.931 42.123-45.753 42.123-77.975 0-31.215-15.695-60.59-42.126-77.986 39.844 3.621 71.164 37.215 71.164 77.986 0 40.765-31.317 74.354-71.161 77.975z"/></g></g></svg>