<svg id="Capa_1" enable-background="new 0 0 512 512" height="512" viewBox="0 0 512 512" width="512" xmlns="http://www.w3.org/2000/svg"><g><path d="m448.305 55.487-392.818 392.818c-20.737 20.737-6.05 56.195 23.277 56.195h392.818c18.18 0 32.918-14.738 32.918-32.918v-392.819c0-29.326-35.458-44.013-56.195-23.276zm-22.744 370.074h-235.694l235.694-235.694z" fill="#88f8d8"/><path d="m342.696 46.824c-82.848-59.17-198.703-51.571-273.073 22.799-74.37 74.37-81.969 190.225-22.799 273.073 10.849 15.19 32.81 16.885 46.009 3.686l253.55-253.549c13.199-13.199 11.503-35.16-3.687-46.009zm-260.515 212.529c-4.724-16.403-6.526-33.68-5.173-50.991 2.648-33.887 17.371-65.813 41.456-89.899 27.017-27.016 62.936-41.895 101.144-41.895 13.635 0 26.995 1.888 39.787 5.57z" fill="#b98eff"/><g><path d="m471.582 512h-392.818c-16.658 0-30.967-9.561-37.342-24.951-6.374-15.39-3.018-32.268 8.762-44.048l392.818-392.817c11.778-11.779 28.655-15.137 44.047-8.762 15.39 6.375 24.951 20.683 24.951 37.342v392.818c0 22.286-18.132 40.418-40.418 40.418zm-.245-458.693c-5.872 0-12.259 2.014-17.728 7.483l-392.818 392.818c-8.856 8.855-8.652 20.115-5.511 27.701 3.143 7.585 10.961 15.691 23.484 15.691h392.818c14.016 0 25.418-11.403 25.418-25.419v-392.817c0-12.522-8.105-20.341-15.691-23.483-2.901-1.202-6.338-1.974-9.972-1.974zm-23.032 2.18h.01zm-22.744 377.574h-235.694c-3.033 0-5.769-1.827-6.929-4.63-1.161-2.803-.52-6.028 1.625-8.173l235.694-235.694c2.146-2.145 5.369-2.786 8.174-1.626 2.803 1.161 4.63 3.896 4.63 6.929v235.694c0 4.142-3.357 7.5-7.5 7.5zm-217.588-15h210.088v-210.088z" fill="#007ea8"/></g><g><path d="m71.366 362.781c-1.046 0-2.095-.043-3.147-.13-11.05-.915-21.072-6.599-27.498-15.596-29.852-41.798-44.076-93.172-40.052-144.659 4.069-52.063 26.675-101.1 63.651-138.076 36.977-36.977 86.013-59.582 138.076-63.651 51.499-4.022 102.862 10.2 144.661 40.051 8.996 6.425 14.68 16.448 15.595 27.498.921 11.124-3.076 22.029-10.965 29.918l-253.55 253.549c-7.144 7.144-16.759 11.096-26.771 11.096zm148.186-347.781c-5.32 0-10.651.207-15.987.624-48.502 3.791-94.187 24.852-128.637 59.303-34.451 34.451-55.512 80.136-59.303 128.638-3.75 47.977 9.498 95.84 37.304 134.773 3.857 5.401 9.882 8.814 16.528 9.365 6.725.554 13.309-1.857 18.073-6.623l253.548-253.55c4.766-4.766 7.18-11.353 6.623-18.074-.55-6.647-3.963-12.672-9.364-16.529-34.602-24.713-76.263-37.927-118.785-37.927zm-137.371 251.853c-.625 0-1.254-.078-1.874-.238-2.57-.663-4.599-2.636-5.333-5.187-5.029-17.465-6.861-35.516-5.443-53.651 2.788-35.667 18.282-69.27 43.63-94.618 28.434-28.433 66.238-44.091 106.448-44.091 14.262 0 28.346 1.972 41.861 5.862 2.552.734 4.524 2.763 5.188 5.334.664 2.57-.081 5.3-1.958 7.177l-177.215 177.215c-1.425 1.425-3.34 2.197-5.304 2.197zm137.427-182.784c-36.203 0-70.241 14.098-95.84 39.698-22.822 22.822-36.774 53.073-39.282 85.18-.937 11.97-.301 23.898 1.888 35.608l158.209-158.21c-8.187-1.513-16.544-2.276-24.975-2.276z" fill="#6d00ca"/></g></g></svg>