<svg id="Capa_1" enable-background="new 0 0 512 512" height="512" viewBox="0 0 512 512" width="512" xmlns="http://www.w3.org/2000/svg"><g><g fill="#a4bcff"><path d="m144.382 103.606v-33.596c0-3.822.816-7.451 2.274-10.732h-45.81v55.06h45.81c-1.457-3.281-2.274-6.911-2.274-10.732z"/><path d="m195.057 114.338h63.217c-1.457-3.281-2.274-6.91-2.274-10.732v-33.596c0-3.822.816-7.451 2.274-10.732h-63.217c1.457 3.281 2.274 6.91 2.274 10.732v33.595c-.001 3.822-.817 7.452-2.274 10.733z"/><path d="m359.622 59.278c1.457 3.281 2.274 6.91 2.274 10.732v33.595c0 3.822-.816 7.451-2.274 10.732h51.531v-55.06h-51.531z"/><path d="m150.104 231.298v-33.595c0-3.822.816-7.451 2.274-10.732h-51.531v55.06h51.531c-1.458-3.282-2.274-6.911-2.274-10.733z"/><path d="m253.726 186.971c1.457 3.281 2.274 6.91 2.274 10.732v33.595c0 3.822-.816 7.451-2.274 10.732h157.427v-55.06h-157.427z"/><path d="m359.622 314.664c1.457 3.281 2.274 6.91 2.274 10.732v33.595c0 3.822-.816 7.451-2.274 10.732h51.531v-55.06h-51.531z"/><path d="m256 358.991v-33.595c0-3.822.816-7.451 2.274-10.732h-157.428v55.06h157.427c-1.457-3.282-2.273-6.911-2.273-10.733z"/></g><g><path d="m146.656 121.838h-45.811c-4.143 0-5.24-3.358-5.24-7.5s1.097-7.5 5.24-7.5h45.811c4.143 0 5.226 3.358 5.226 7.5s-1.083 7.5-5.226 7.5z" fill="#2115c2"/></g><g><path d="m146.656 66.778h-45.811c-4.143 0-5.24-3.358-5.24-7.5s1.097-7.5 5.24-7.5h45.811c4.143 0 5.226 3.358 5.226 7.5s-1.083 7.5-5.226 7.5z" fill="#2115c2"/></g><g><path d="m258.273 66.778h-63.217c-4.143 0-5.227-3.358-5.227-7.5s1.084-7.5 5.227-7.5h63.217c4.143 0 5.227 3.358 5.227 7.5s-1.084 7.5-5.227 7.5z" fill="#2115c2"/></g><g><path d="m258.273 121.838h-63.217c-4.143 0-2.846-3.358-2.846-7.5s-1.297-7.5 2.846-7.5h63.217c4.143 0 2.987 3.358 2.987 7.5s1.156 7.5-2.987 7.5z" fill="#2115c2"/></g><g><path d="m411.153 66.778h-51.531c-4.143 0-5.226-3.358-5.226-7.5s1.083-7.5 5.226-7.5h51.531c4.143 0 4.358 3.358 4.358 7.5s-.215 7.5-4.358 7.5z" fill="#2115c2"/></g><g><path d="m411.153 121.838h-51.531c-4.143 0-2.707-3.358-2.707-7.5s-1.435-7.5 2.707-7.5h51.531c4.143 0 2.458 3.358 2.458 7.5s1.685 7.5-2.458 7.5z" fill="#2115c2"/></g><g><path d="m152.377 249.531h-51.531c-4.143 0-5.24-3.358-5.24-7.5s1.097-7.5 5.24-7.5h51.531c4.143 0 2.142 3.358 2.142 7.5s2.001 7.5-2.142 7.5z" fill="#2115c2"/></g><g><path d="m152.377 194.471h-51.531c-4.143 0-5.24-3.358-5.24-7.5s1.097-7.5 5.24-7.5h51.531c4.143 0 3.726 3.358 3.726 7.5s.417 7.5-3.726 7.5z" fill="#2115c2"/></g><g><path d="m411.153 194.471h-157.426c-4.143 0-1.652-3.358-1.652-7.5s-2.491-7.5 1.652-7.5h157.427c4.143 0 4.358 3.358 4.358 7.5s-.216 7.5-4.359 7.5z" fill="#2115c2"/></g><g><path d="m411.153 249.531h-157.426c-4.143 0-2.394-3.358-2.394-7.5s-1.748-7.5 2.394-7.5h157.427c4.143 0 4.358 3.358 4.358 7.5s-.216 7.5-4.359 7.5z" fill="#2115c2"/></g><g><path d="m411.153 322.164h-51.531c-4.143 0-5.226-3.358-5.226-7.5s1.083-7.5 5.226-7.5h51.531c4.143 0 3.167 3.358 3.167 7.5s.976 7.5-3.167 7.5z" fill="#2115c2"/></g><g><path d="m411.153 377.223h-51.531c-4.143 0-2.616-3.358-2.616-7.5s-1.527-7.5 2.616-7.5h51.531c4.143 0 3.267 3.358 3.267 7.5s.876 7.5-3.267 7.5z" fill="#2115c2"/></g><g><path d="m258.273 377.223h-157.427c-4.143 0-4.076-3.358-4.076-7.5s-.066-7.5 4.076-7.5h157.428c4.143 0 1.919 3.358 1.919 7.5s2.223 7.5-1.92 7.5z" fill="#2115c2"/></g><g><path d="m258.273 322.164h-157.427c-4.143 0-4.076-3.358-4.076-7.5s-.067-7.5 4.076-7.5h157.428c4.143 0 5.227 3.358 5.227 7.5s-1.085 7.5-5.228 7.5z" fill="#2115c2"/></g><path d="m229.526 171.229c14.621 0 26.474 11.853 26.474 26.474v33.595c0 14.621-11.853 26.474-26.474 26.474-14.621 0-26.474-11.853-26.474-26.474v-33.595c0-14.621 11.853-26.474 26.474-26.474z" fill="#ff9bff"/><path d="m176.578 171.229c14.621 0 26.474 11.853 26.474 26.474v33.595c0 14.621-11.853 26.474-26.474 26.474-14.621 0-26.474-11.853-26.474-26.474v-33.595c0-14.621 11.852-26.474 26.474-26.474z" fill="#ff63ed"/><path d="m282.474 298.922c-14.621 0-26.474 11.853-26.474 26.474v33.595c0 14.621 11.853 26.474 26.474 26.474 14.621 0 26.474-11.853 26.474-26.474v-33.595c0-14.621-11.853-26.474-26.474-26.474z" fill="#ffceff"/><path d="m335.422 298.922c-14.621 0-26.474 11.853-26.474 26.474v33.595c0 14.621 11.853 26.474 26.474 26.474 14.621 0 26.474-11.853 26.474-26.474v-33.595c0-14.621-11.853-26.474-26.474-26.474z" fill="#ff9bff"/><path d="m170.856 43.536c-14.621 0-26.474 11.853-26.474 26.474v33.595c0 14.621 11.853 26.474 26.474 26.474 14.621 0 26.474-11.853 26.474-26.474v-33.595c0-14.621-11.852-26.474-26.474-26.474z" fill="#ff9bff"/><path d="m282.474 43.536c-14.621 0-26.474 11.853-26.474 26.474v33.595c0 14.621 11.853 26.474 26.474 26.474 14.621 0 26.474-11.853 26.474-26.474v-33.595c0-14.621-11.853-26.474-26.474-26.474z" fill="#ffceff"/><path d="m335.422 43.536c-14.621 0-26.474 11.853-26.474 26.474v33.595c0 14.621 11.853 26.474 26.474 26.474 14.621 0 26.474-11.853 26.474-26.474v-33.595c0-14.621-11.853-26.474-26.474-26.474z" fill="#ff63ed"/><path d="m58.602 424.739h42.244v-383.73c0-18.506-15.003-33.509-33.509-33.509-18.507 0-33.509 15.002-33.509 33.509v390.366c7.292-4.213 15.748-6.636 24.774-6.636z" fill="#f90"/><path d="m453.397 424.739c9.027 0 17.482 2.423 24.774 6.636v-390.366c0-18.506-15.002-33.509-33.509-33.509-18.506 0-33.509 15.002-33.509 33.509v383.73z" fill="#f90"/><path d="m453.397 424.739h-394.795c-27.4 0-49.611 22.212-49.611 49.611 0 16.651 13.499 30.15 30.15 30.15h433.718c16.651 0 30.15-13.499 30.15-30.15 0-27.4-22.212-49.611-49.612-49.611z" fill="#ffd600"/><path d="m229.525 163.729c-10.693 0-20.241 4.97-26.474 12.716-6.232-7.746-15.781-12.716-26.474-12.716-18.733 0-33.975 15.241-33.975 33.974v33.595c0 18.733 15.241 33.974 33.975 33.974 10.693 0 20.241-4.97 26.474-12.716 6.232 7.746 15.781 12.716 26.474 12.716 18.733 0 33.975-15.241 33.975-33.974v-33.595c0-18.733-15.241-33.974-33.975-33.974zm-52.947 86.543c-10.463 0-18.975-8.512-18.975-18.974v-33.595c0-10.462 8.512-18.974 18.975-18.974 10.462 0 18.974 8.512 18.974 18.974v33.595c0 10.463-8.512 18.974-18.974 18.974zm71.922-18.974c0 10.462-8.512 18.974-18.975 18.974-10.462 0-18.974-8.512-18.974-18.974v-33.595c0-10.462 8.512-18.974 18.974-18.974 10.463 0 18.975 8.512 18.975 18.974z" fill="#e207b9"/><path d="m335.422 291.422c-10.693 0-20.242 4.97-26.474 12.716-6.232-7.746-15.782-12.716-26.475-12.716-18.733 0-33.974 15.241-33.974 33.974v33.595c0 18.733 15.24 33.974 33.974 33.974 10.693 0 20.242-4.97 26.475-12.716 6.232 7.746 15.781 12.716 26.474 12.716 18.733 0 33.975-15.241 33.975-33.974v-33.595c-.001-18.733-15.242-33.974-33.975-33.974zm-52.948 86.543c-10.462 0-18.974-8.512-18.974-18.974v-33.595c0-10.462 8.512-18.974 18.974-18.974 10.463 0 18.975 8.512 18.975 18.974v33.595c-.001 10.463-8.512 18.974-18.975 18.974zm71.922-18.974c0 10.462-8.512 18.974-18.975 18.974-10.462 0-18.974-8.512-18.974-18.974v-33.595c0-10.462 8.512-18.974 18.974-18.974 10.463 0 18.975 8.512 18.975 18.974z" fill="#e207b9"/><g><path d="m170.856 137.58c-18.733 0-33.975-15.241-33.975-33.974v-33.596c0-18.733 15.241-33.974 33.975-33.974s33.974 15.241 33.974 33.974v33.595c0 18.734-15.24 33.975-33.974 33.975zm0-86.544c-10.463 0-18.975 8.512-18.975 18.974v33.595c0 10.462 8.512 18.974 18.975 18.974 10.462 0 18.974-8.512 18.974-18.974v-33.595c0-10.462-8.512-18.974-18.974-18.974z" fill="#e207b9"/></g><path d="m335.422 36.036c-10.693 0-20.242 4.97-26.474 12.716-6.232-7.746-15.782-12.716-26.475-12.716-18.733 0-33.974 15.241-33.974 33.974v33.595c0 18.733 15.24 33.974 33.974 33.974 10.693 0 20.242-4.97 26.475-12.716 6.232 7.746 15.781 12.716 26.474 12.716 18.733 0 33.975-15.241 33.975-33.974v-33.595c-.001-18.733-15.242-33.974-33.975-33.974zm-52.948 86.544c-10.462 0-18.974-8.512-18.974-18.974v-33.596c0-10.462 8.512-18.974 18.974-18.974 10.463 0 18.975 8.512 18.975 18.974v33.595c-.001 10.463-8.512 18.975-18.975 18.975zm71.922-18.975c0 10.462-8.512 18.974-18.975 18.974-10.462 0-18.974-8.512-18.974-18.974v-33.595c0-10.462 8.512-18.974 18.974-18.974 10.463 0 18.975 8.512 18.975 18.974z" fill="#e207b9"/><path d="m485.672 427.266v-386.257c0-22.613-18.397-41.009-41.01-41.009-22.612 0-41.009 18.396-41.009 41.009v376.23h-295.307v-376.23c0-22.613-18.397-41.009-41.009-41.009s-41.009 18.396-41.009 41.009v386.257c-14.986 10.304-24.837 27.563-24.837 47.084 0 20.76 16.89 37.65 37.649 37.65h433.719c20.76 0 37.649-16.89 37.649-37.65.001-19.521-9.85-36.78-24.836-47.084zm-67.019-386.257c0-14.341 11.668-26.009 26.01-26.009s26.009 11.667 26.009 26.009v378.907c-5.402-1.717-11.465-2.677-17.274-2.677h-34.744v-376.23zm-377.325 0c0-14.342 11.668-26.009 26.009-26.009s26.009 11.667 26.009 26.009v376.23h-34.743c-5.66 0-11.709.907-17.274 2.677v-378.907zm431.531 455.991h-433.718c-12.489 0-22.649-10.161-22.649-22.65 0-23.166 18.867-42.111 42.111-42.111h42.243 310.308 42.244c23.005 0 42.111 18.709 42.111 42.111 0 12.489-10.16 22.65-22.65 22.65z" fill="#f95116"/></g></svg>