<svg id="Capa_1" enable-background="new 0 0 512 512" height="512" viewBox="0 0 512 512" width="512" xmlns="http://www.w3.org/2000/svg"><g><path d="m122.892 7.5c-39.143 0-70.868 31.725-70.868 70.868v298.591c.055-52.612 42.873-95.398 95.497-95.398h.001v-274.061z" fill="#f90"/><path d="m417.331 7.5h-269.808v274.061h283.679c15.891 0 28.774 12.883 28.774 28.774v.003h.001v-260.193c0-23.552-19.093-42.645-42.646-42.645z" fill="#ffd600"/><path d="m265.155 415.011h-117.633c-20.926 0-37.951-17.025-37.951-37.952s17.025-37.951 37.951-37.951h283.68c15.891 0 28.774-12.883 28.774-28.774s-12.883-28.774-28.774-28.774h-283.68c-52.658 0-95.499 42.841-95.499 95.5s42.841 95.499 95.499 95.499h117.633z" fill="#f90"/><path d="m359.429 415.011h71.773c-20.926 0-37.951-17.025-37.951-37.952s17.025-37.951 37.951-37.951h-283.68c-20.926 0-37.951 17.024-37.951 37.951 0 20.926 17.025 37.952 37.951 37.952h117.633v-8.781c0-8.437 6.839-15.276 15.276-15.276h63.721c8.437 0 15.277 6.839 15.277 15.276z" fill="#ffff6f"/><path d="m431.202 415.011h-71.773v57.548h71.773c15.891 0 28.774-12.883 28.774-28.774s-12.883-28.774-28.774-28.774z" fill="#f90"/><circle cx="356.898" cy="88.562" fill="#f95116" r="11.277"/><g><path d="m327.629 126.455h-47.757c-4.142 0-7.5-3.358-7.5-7.5s3.357-7.5 7.5-7.5h47.757c4.142 0 7.5 3.358 7.5 7.5-.001 4.143-3.358 7.5-7.5 7.5z" fill="#f95116"/></g><circle cx="250.601" cy="88.562" fill="#f95116" r="11.277"/><path d="m266.779 239.081-27.69-73.371c-.025-.068-.052-.136-.079-.203-1.422-3.46-4.757-5.694-8.497-5.694-.002 0-.005 0-.007 0-3.744.003-7.079 2.244-8.496 5.708-.023.057-.046.113-.067.17l-27.943 73.369c-1.475 3.871.469 8.204 4.339 9.678 3.87 1.475 8.203-.468 9.678-4.339l5.119-13.442h34.545l5.065 13.42c1.466 3.888 5.801 5.827 9.665 4.369 3.875-1.463 5.831-5.79 4.368-9.665zm-47.929-23.124 11.638-30.558 11.532 30.558z" fill="#6d00ca"/><g><g><path d="m406.49 249.229h-49.643c-2.752 0-5.282-1.507-6.594-3.926-1.311-2.419-1.192-5.362.31-7.668l40.933-62.822h-33.124c-4.142 0-7.5-3.358-7.5-7.5s3.357-7.5 7.5-7.5h46.962c2.752 0 5.282 1.507 6.594 3.926 1.311 2.419 1.192 5.362-.31 7.668l-40.933 62.822h35.805c4.142 0 7.5 3.358 7.5 7.5s-3.357 7.5-7.5 7.5z" fill="#6d00ca"/></g></g><g><g><path d="m333.078 212.02h-45.044c-4.142 0-7.5-3.358-7.5-7.5s3.357-7.5 7.5-7.5h45.044c4.142 0 7.5 3.358 7.5 7.5s-3.358 7.5-7.5 7.5z" fill="#6d00ca"/></g></g><path d="m431.202 346.608c19.993 0 36.26-16.259 36.273-36.25 0-.007.001-.014.001-.021v-260.192c.001-27.65-22.495-50.145-50.144-50.145h-269.809-24.63c-43.213 0-78.368 35.156-78.368 78.368v298.539c0 .051-.002.102-.002.154 0 56.794 46.205 102.998 102.999 102.998h117.633c4.142 0 3.434-3.358 3.434-7.5s.709-7.5-3.434-7.5h-117.633c-48.523 0-87.999-39.476-87.999-87.999 0-.028.001-.056.001-.085 0-.006.001-.011.001-.017v-.052c.083-48.453 39.526-87.846 87.997-87.846h283.68c11.73 0 21.274 9.544 21.274 21.274 0 11.731-9.544 21.274-21.274 21.274h-283.68c-25.062 0-45.451 20.389-45.451 45.451s20.389 45.451 45.451 45.451h117.633c4.142 0 5.232-3.358 5.232-7.5s-1.089-7.5-5.232-7.5h-117.633c-16.79 0-30.451-13.661-30.451-30.452s13.661-30.451 30.451-30.451h249.967c-7.292 8.065-11.737 18.748-11.737 30.451s4.445 22.386 11.737 30.452h-38.059c-4.142 0-5.294 3.358-5.294 7.5s1.151 7.5 5.294 7.5h71.773c11.73 0 21.274 9.544 21.274 21.274 0 11.731-9.544 21.274-21.274 21.274h-71.773c-4.142 0-4.021 3.358-4.021 7.5s-.122 7.5 4.021 7.5h71.773c20.001 0 36.273-16.272 36.273-36.274 0-20.001-16.272-36.274-36.273-36.274-16.79 0-30.451-13.661-30.451-30.452s13.66-30.45 30.45-30.45zm-291.18-72.272c-34.085 2.465-63.625 21.586-80.497 49.246v-245.214c0-34.942 28.427-63.368 63.368-63.368h17.13zm291.18-.275h-276.18v-259.061h262.309c19.379 0 35.145 15.767 35.145 35.146l-.001 230.836c-5.98-4.348-13.33-6.921-21.273-6.921z" fill="#f95116"/><path d="m344.152 390.954h-63.721c-8.437 0-15.276 6.839-15.276 15.276v89.588c0 7.406 8.702 11.387 14.305 6.543l32.832-21.64 32.832 21.64c5.603 4.843 14.305.863 14.305-6.543v-89.588c0-8.437-6.84-15.276-15.277-15.276z" fill="#b98eff"/><g><path d="m340.649 508.393-28.357-18.69-28.357 18.691c-10.534 8.512-26.28 1.003-26.28-12.576v-89.588c0-12.559 10.217-22.776 22.776-22.776h63.722c12.559 0 22.777 10.217 22.777 22.776v89.588c-.001 13.652-15.805 21.044-26.281 12.575zm-24.229-33.934c34.68 22.885 32.918 21.631 33.609 22.229.753.654 1.9.128 1.9-.87v-89.588c0-4.288-3.489-7.776-7.777-7.776h-63.722c-4.288 0-7.776 3.488-7.776 7.776v89.588c0 .996 1.147 1.524 1.901.869.685-.591-1.137.7 33.608-22.228 2.507-1.65 5.751-1.651 8.257 0z" fill="#6d00ca"/></g></g></svg>