<svg id="Capa_1" enable-background="new 0 0 512 512" height="512" viewBox="0 0 512 512" width="512" xmlns="http://www.w3.org/2000/svg"><g><path d="m274.482 412.569v40.092h-17.346c-14.315 0-25.92 11.605-25.92 25.92s11.605 25.92 25.92 25.92h43.266c14.315 0 25.92-11.605 25.92-25.92v-78.384c-16.321 6.405-33.72 10.643-51.84 12.372z" fill="#88f8d8"/><path d="m237.04 412.499c-18.114-1.821-35.516-6.212-51.839-12.807v52.969h-17.346c-14.315 0-25.92 11.605-25.92 25.92s11.605 25.92 25.92 25.92h43.266c10.01 0 18.69-5.679 23.008-13.987-1.857-3.572-2.912-7.628-2.912-11.932 0-6.208 2.185-11.904 5.824-16.367v-49.716z" fill="#88f8d8"/><g fill="#007ea8"><path d="m326.321 397.424c-4.143 0-7.5-1.37-7.5 2.772v78.384c0 10.157-8.263 18.42-18.42 18.42h-43.266c-10.241 0-18.42-8.357-18.42-18.42 0-10.131 8.238-18.42 18.42-18.42h17.347c4.143 0 7.5-3.358 7.5-7.5v-40.091c0-4.142-3.358-2.603-7.5-2.603s-7.5-1.539-7.5 2.603v32.591h-9.847c-4.455 0-8.706.883-12.596 2.472v-35.133c0-4.142-3.357-2.533-7.5-2.533s-7.5-1.609-7.5 2.533v47.234c-3.903 5.706-5.824 12.411-5.824 18.847 0 3.693.643 7.609 1.964 11.282-3.454 4.468-8.785 7.138-14.559 7.138h-43.267c-10.157 0-18.42-8.263-18.42-18.42s8.263-18.42 18.42-18.42h17.347c4.143 0 7.5-3.358 7.5-7.5v-52.968c0-4.142-3.358-4.956-7.5-4.956s-7.5.814-7.5 4.956v45.468h-9.847c-18.428 0-33.42 14.992-33.42 33.42s14.993 33.42 33.421 33.42h43.267c8.742 0 16.916-3.378 23.024-9.199 5.996 5.694 14.089 9.199 22.991 9.199h43.266c18.428 0 33.42-14.992 33.42-33.42v-78.384c-.001-4.142-3.358-2.772-7.501-2.772z"/><path d="m274.482 444.057c17.957-1.471 35.319-5.066 51.839-10.532v-33.33c-16.32 6.406-33.719 10.644-51.839 12.373z"/><path d="m237.04 444.002v-31.503c-18.114-1.821-35.516-6.212-51.839-12.807v33.524c16.681 5.643 34.057 9.271 51.839 10.786z"/></g><path d="m449.02 102.204v118.228c0 106.466-86.632 193.077-193.109 193.025-106.121-.053-192.931-88.577-192.931-194.698v-116.555h109.78v117.162c0 45.836 36.593 83.862 82.419 84.301 46.275.45 84.06-37.064 84.06-83.234v-118.229z" fill="#b98eff"/><path d="m172.761 38.04v64.164h-109.781v-64.164c0-16.864 13.675-30.54 30.54-30.54h48.701c16.864 0 30.54 13.675 30.54 30.54z" fill="#ff9bff"/><path d="m449.02 38.04v64.164h-109.78v-64.164c0-16.864 13.676-30.54 30.54-30.54h48.701c16.874 0 30.539 13.675 30.539 30.54z" fill="#565eec"/><circle cx="315.972" cy="337.927" fill="#6d00ca" r="12.725"/><g><path d="m282.944 379.722h-53.888c-4.143 0-7.5-3.358-7.5-7.5s3.357-7.5 7.5-7.5h53.888c4.143 0 7.5 3.358 7.5 7.5s-3.358 7.5-7.5 7.5z" fill="#6d00ca"/></g><circle cx="196.028" cy="337.927" fill="#6d00ca" r="12.725"/><g><path d="m256.011 311.17c-.302 0-.603-.001-.905-.004-49.54-.475-89.846-41.656-89.846-91.8v-117.162c0-4.142 3.357-7.5 7.5-7.5s7.5 3.358 7.5 7.5v117.162c0 41.952 33.641 76.405 74.991 76.801.25.002.505.003.755.003 20.063.001 38.949-7.776 53.259-21.948 14.493-14.353 22.475-33.456 22.475-53.791v-118.227c0-4.142 3.357-7.5 7.5-7.5s7.5 3.358 7.5 7.5v118.228c0 24.369-9.561 47.257-26.92 64.448-17.14 16.974-39.769 26.29-63.809 26.29z" fill="#6d00ca"/></g><g><path d="m256.008 420.957c-.035 0-.064 0-.101 0-53.243-.026-103.528-21.265-141.594-59.803-37.938-38.412-58.833-88.982-58.833-142.395v-116.555c0-4.142 3.357-7.5 7.5-7.5s7.5 3.358 7.5 7.5v116.555c0 49.441 19.357 96.268 54.507 131.854 35.226 35.665 81.724 55.319 130.929 55.343h.093c49.457 0 96.005-19.307 131.084-54.373 35.098-35.085 54.428-81.663 54.428-131.152v-118.227c0-4.142 3.357-7.5 7.5-7.5s7.5 3.358 7.5 7.5v118.228c0 53.497-20.891 103.842-58.823 141.761-37.911 37.895-88.231 58.764-141.69 58.764z" fill="#6d00ca"/></g><g><path d="m172.76 109.704h-109.78c-4.143 0-7.5-3.358-7.5-7.5v-64.164c0-20.976 17.064-38.04 38.04-38.04h48.701c20.975 0 38.039 17.064 38.039 38.04v64.164c0 4.142-3.357 7.5-7.5 7.5zm-102.28-15h94.78v-56.664c0-12.704-10.335-23.04-23.039-23.04h-48.701c-12.704 0-23.04 10.335-23.04 23.04z" fill="#e207b9"/></g><g><path d="m449.02 109.704h-109.78c-4.143 0-7.5-3.358-7.5-7.5v-64.164c0-20.976 17.064-38.04 38.04-38.04h48.7c20.976 0 38.04 17.064 38.04 38.04v64.164c0 4.142-3.357 7.5-7.5 7.5zm-102.28-15h94.78v-56.664c0-12.704-10.336-23.04-23.04-23.04h-48.7c-12.704 0-23.04 10.335-23.04 23.04z" fill="#2115c2"/></g></g></svg>