<svg id="Capa_1" enable-background="new 0 0 512 512" height="512" viewBox="0 0 512 512" width="512" xmlns="http://www.w3.org/2000/svg"><g><path d="m147.113 342.137-14.394 5.242c-2.846 1.034-5.774 1.536-8.661 1.536-9.245 0-18.069-5.098-22.512-13.749-6.972-13.565-.471-30.16 13.851-35.371l14.394-5.242z" fill="#ffd600"/><path d="m364.887 342.137 14.394 5.242c2.846 1.034 5.774 1.536 8.661 1.536 9.245 0 18.069-5.098 22.513-13.749 6.972-13.565.471-30.16-13.851-35.371l-14.394-5.242z" fill="#ffd600"/><g fill="#565eec"><path d="m292.794 414.527c-7.387 3.889-15.47 6.638-24.012 8.026v38.225h43.722v-60.936c-5.745 5.858-12.384 10.831-19.71 14.685z"/><path d="m201.258 401.583v59.196h43.722v-37.962c-16.859-2.351-32.008-10.011-43.722-21.234z"/><path d="m320.44 390.41c-7.19 10.04-16.65 18.33-27.65 24.12-10.98 5.78-23.5 9.06-36.79 9.06-26.58 0-50.07-13.11-64.44-33.18h22.42v-24.13h84.04v24.13z"/><path d="m213.98 278.18v112.23h-47.31v-55.39l-19.56 7.12-17.32-47.59 65.52-23.84h.01c6.542 3.178 13.088 5.729 18.66 7.47z"/><path d="m382.21 294.55-17.32 47.59-19.56-7.12v55.39h-47.31v-112.22c5.916-1.874 12.534-4.453 18.67-7.48 0 0 0 .01.01 0z"/></g><path d="m298.02 278.19v88.09h-84.04v-88.1c13.26 4.22 27.37 6.49 42.02 6.49 14.66 0 28.77-2.27 42.02-6.48z" fill="#a4bcff"/><g><path d="m94.873 338.592c-9.028-17.567-.598-39.094 17.959-45.846l14.392-5.241c3.89-1.418 8.196.589 9.613 4.481 1.418 3.892-.589 8.196-4.48 9.614l-14.394 5.242c-10.075 3.666-14.653 15.353-9.747 24.895 4.114 8.01 13.461 11.673 21.942 8.592l14.388-5.24c3.894-1.418 8.196.589 9.613 4.481 1.418 3.892-.589 8.196-4.48 9.614l-14.394 5.242c-15.465 5.617-32.771-.962-40.412-15.834z" fill="#f95116"/></g><g><path d="m376.721 354.428-14.4-5.244c-3.892-1.417-5.898-5.721-4.48-9.614 1.416-3.891 5.716-5.899 9.613-4.481l14.395 5.242c8.414 3.057 17.85-.635 21.935-8.592 4.901-9.534.345-21.226-9.743-24.897l-14.396-5.242c-3.892-1.417-5.898-5.721-4.48-9.614 1.416-3.891 5.715-5.899 9.613-4.481l14.395 5.242c18.554 6.751 26.986 28.278 17.954 45.847-7.508 14.617-24.859 21.482-40.406 15.834z" fill="#f95116"/></g><g><path d="m298.02 373.78h-84.04c-4.143 0-7.5-3.358-7.5-7.5v-85.1c0-4.142 3.357-7.5 7.5-7.5s7.5 3.358 7.5 7.5v77.6h69.04v-77.59c0-4.142 3.357-7.5 7.5-7.5s7.5 3.358 7.5 7.5v85.09c0 4.142-3.358 7.5-7.5 7.5z" fill="#2115c2"/></g><path d="m241.706 482.644c0-.15.012-1.13.037-1.207.094-3.099 1.166-6.895 3.236-10.265v-10.393h-48.942c-6.833 0-12.936 3.136-16.942 8.05v.009c-3.17 3.837-4.76 8.76-4.877 12.599-.026.077-.038 1.057-.038 1.207 0 12.054 9.696 21.856 21.856 21.856h27.076c9.129 0 16.95-5.599 20.223-13.544-1.048-2.564-1.629-5.37-1.629-8.312z" fill="#a4bcff"/><path d="m312.504 460.778v21.865c0 12.065-9.791 21.856-21.865 21.856h-27.076c-12.16 0-21.856-9.802-21.856-21.856 0-.15.012-1.13.037-1.207.116-3.839 1.707-8.762 4.877-12.599 0-.009 0-.009 0-.009 4.006-4.914 10.109-8.05 16.942-8.05z" fill="#a4bcff"/><path d="m384.775 287.502-63.286-23.031c-3.893-1.417-8.195.591-9.612 4.483-1.416 3.893.591 8.196 4.483 9.613l56.237 20.466-12.189 33.494-12.512-4.554c-4.89-1.781-10.065 1.849-10.065 7.047v47.89c-7.889 0-23.97 0-32.311 0 0-22.509 0-79.111 0-101.72 0-4.143-3.357-7.5-7.5-7.5s-7.5 3.357-7.5 7.5v77.59h-69.04v-77.6c0-4.142-3.357-7.5-7.5-7.5s-7.5 3.358-7.5 7.5v101.73c-8.34 0-24.421 0-32.31 0v-47.89c0-5.195-5.172-8.829-10.065-7.047l-12.513 4.555-12.188-33.494 56.065-20.4c3.893-1.417 5.899-5.72 4.483-9.612-1.417-3.892-5.717-5.901-9.612-4.483l-63.114 22.965c-3.892 1.417-5.899 5.725-4.483 9.613l17.319 47.59c.681 1.869 2.075 3.392 3.878 4.232 1.804.841 3.866.931 5.735.25l9.495-3.457v44.679c0 4.142 3.357 7.5 7.5 7.5h21.157c1.869 2.375 3.845 4.645 5.931 6.792v48.674c-14.932 1.149-27.076 13.572-27.076 29.267 0 16.187 13.169 29.356 29.355 29.356h27.076c7.723 0 14.897-2.997 20.242-8.091 5.268 5.008 12.382 8.091 20.206 8.091h27.076c16.192 0 29.366-13.169 29.366-29.356 0-9.208 0-69.579 0-79.867 1.441-1.577 2.846-3.188 4.168-4.867h21.158c4.143 0 7.5-3.358 7.5-7.5v-44.678l9.494 3.456c3.884 1.415 8.194-.585 9.613-4.483l17.32-47.59c1.419-3.892-.592-8.198-4.481-9.613zm-147.295 181.718c-2.312 4.55-3.272 8.952-3.273 13.418v.006c0 2.585.39 5.364 1.023 7.717-2.606 4.1-7.133 6.639-12.116 6.639h-27.076c-7.916 0-14.355-6.44-14.355-14.345 0-7.49 6.049-14.376 14.355-14.376h41.442zm0-15.941h-28.722v-36.19c8.752 5.717 18.444 9.776 28.722 12.006zm-29.142-55.369h5.642c4.143 0 7.5-3.358 7.5-7.5v-16.63h69.04v16.63c0 4.142 3.357 7.5 7.5 7.5h5.636c-13.143 11.715-30.085 18.18-47.656 18.18-17.69 0-34.643-6.609-47.662-18.18zm52.945 33.018v22.447c-3.056.235-6.021.933-8.803 2.065v-24.431c1.171.048 2.344.081 3.521.081 1.763 0 3.524-.055 5.282-.162zm43.721 51.716c0 7.916-6.444 14.356-14.366 14.356h-27.076c-7.871 0-14.355-6.391-14.355-14.351.021-7.572 6.104-14.371 14.355-14.371h41.442zm0-29.365h-28.722v-24.586c10.278-2.463 20.004-6.8 28.722-12.792z" fill="#2115c2"/><path d="m394.59 146.09c0 54.7-31.73 102.11-77.89 124.62-.01.01-.01 0-.01 0-17.589 8.736-38.675 13.96-60.69 13.96-20.458 0-41.022-4.411-60.68-13.96 0 0 0 0-.01 0-46.12-22.49-77.9-69.83-77.9-124.62 0-8.93.85-17.66 2.46-26.12 1.61-8.45 3.99-16.63 7.07-24.47h222.17c11.76 0 22.62-3.77 31.48-10.15 8.96 18.35 14 38.97 14 60.74z" fill="#ffd600"/><circle cx="309.335" cy="157.673" fill="#f95116" r="11.316"/><g><path d="m279.962 195.673h-47.924c-4.143 0-7.5-3.358-7.5-7.5s3.357-7.5 7.5-7.5h47.924c4.143 0 7.5 3.358 7.5 7.5s-3.357 7.5-7.5 7.5z" fill="#f95116"/></g><circle cx="202.665" cy="157.673" fill="#f95116" r="11.316"/><g><path d="m256 292.17c-80.818 0-146.09-65.528-146.09-146.08 0-18.072 3.306-36.171 10.049-53.332 1.516-3.855 5.869-5.753 9.723-4.238 3.855 1.515 5.753 5.868 4.238 9.723-5.733 14.592-9.01 30.767-9.01 47.848 0 72.835 59.069 131.08 131.09 131.08 72.348 0 131.09-58.617 131.09-131.08 0-19.489-4.188-38.262-12.446-55.796-1.765-3.747-.158-8.216 3.589-9.981 3.751-1.765 8.217-.158 9.981 3.589 9.207 19.548 13.876 40.471 13.876 62.187 0 80.413-65.133 146.08-146.09 146.08z" fill="#f95116"/></g><path d="m368.998 7.5h-154.058c-48.603 0-88.004 39.401-88.004 88.004h222.177c29.793 0 53.944-24.152 53.944-53.944 0-18.811-15.249-34.06-34.059-34.06z" fill="#88f8d8"/><g><path d="m349.114 103.004h-222.178c-4.143 0-7.5-3.358-7.5-7.5 0-52.661 42.843-95.504 95.504-95.504h154.058c22.917 0 41.561 18.644 41.561 41.56-.001 33.88-27.564 61.444-61.445 61.444zm-214.331-15h214.331c25.609 0 46.444-20.835 46.444-46.444 0-14.645-11.915-26.56-26.561-26.56h-154.057c-41.862 0-76.364 32.116-80.157 73.004z" fill="#007ea8"/></g></g></svg>