<svg id="Capa_1" enable-background="new 0 0 512 512" height="512" viewBox="0 0 512 512" width="512" xmlns="http://www.w3.org/2000/svg"><g><path d="m453.796 178.935c-19.155 7.707-45.69 11.274-70.876-9.25 7.376-43.158-5.777-87.735-37.124-120.062.164-.337.337-.675.511-1.012 12.113-23.612 40.682-34.191 65.254-24.153 25.022 10.232 37.39 37.513 29.969 62.402-3.434 11.509-4.13 23.724-1.032 35.326 2.566 9.578 7.727 19.973 17.734 28.344 9.68 8.095 7.278 23.703-4.436 28.405z" fill="#f90"/><g><path d="m424.337 192.518c-14.229 0-29.829-4.125-45.071-16.15-3.252-2.566-3.809-7.282-1.243-10.534 2.567-3.253 7.285-3.808 10.534-1.243 18.107 14.285 39.116 16.771 62.438 7.386 4.338-1.741 5.378-5.54 5.625-7.093.52-3.276-.677-6.491-3.2-8.602-9.881-8.266-16.666-19.085-20.167-32.157-3.297-12.35-2.92-25.976 1.09-39.411 6.49-21.767-4.524-44.689-25.621-53.316-20.936-8.551-45.421.513-55.743 20.635-1.891 3.685-6.414 5.14-10.097 3.25-3.686-1.891-5.14-6.411-3.249-10.097 13.843-26.987 46.684-39.143 74.764-27.673 28.271 11.561 43.024 42.293 34.32 71.488-3.217 10.779-3.553 21.584-.974 31.248 2.686 10.026 7.834 18.28 15.301 24.526 6.608 5.527 9.745 13.923 8.391 22.459-1.349 8.494-6.898 15.469-14.846 18.66-9.054 3.644-20.159 6.624-32.252 6.624z" fill="#f95116"/></g><path d="m155.48 100.673.046-.063c14.2-19.597-1.487-46.76-25.558-44.255l-.072.008c-9.867-22.104-41.242-22.104-51.108 0l-.072-.008c-24.072-2.505-39.759 24.658-25.558 44.255l.046.063-.046.063c-14.2 19.597 1.487 46.76 25.558 44.255l.072-.008c9.867 22.104 41.242 22.104 51.108 0l.072.008c24.071 2.505 39.758-24.658 25.557-44.255z" fill="#b98eff"/><path d="m141.58 340.7c-5.101 1.86-11.233 4.099-18.624 6.787-12.123 4.405-25.411-.971-31.176-12.225-6.981-13.564-.48-30.164 13.85-35.377 6.767-2.463 12.961-4.712 18.634-6.777z" fill="#ff63ed"/><path d="m400.777 335.263c-5.765 11.254-19.053 16.63-31.176 12.225-7.39-2.688-13.523-4.927-18.624-6.787l17.315-47.602c5.673 2.065 11.867 4.324 18.634 6.787 14.331 5.213 20.832 21.813 13.851 35.377z" fill="#ff63ed"/><g><path d="m85.106 338.682c-9.023-17.531-.627-39.082 17.962-45.844l18.632-6.776c3.896-1.418 8.197.591 9.613 4.483 1.417 3.892-.591 8.196-4.482 9.613l-18.634 6.777c-10.085 3.668-14.657 15.358-9.747 24.897 4.086 7.976 13.518 11.671 21.945 8.608 6.561-2.386 12.038-4.385 18.615-6.784 3.897-1.421 8.196.586 9.616 4.476 1.419 3.891-.585 8.197-4.476 9.616-6.53 2.382-12.072 4.404-18.631 6.789-15.577 5.66-32.921-1.228-40.413-15.855z" fill="#e207b9"/></g><g><path d="m367.039 354.537c-6.471-2.354-12.111-4.412-18.632-6.79-3.891-1.419-5.895-5.724-4.476-9.616s5.726-5.896 9.616-4.476c6.231 2.273 11.745 4.285 18.617 6.785 8.421 3.062 17.856-.633 21.937-8.596 4.935-9.59.31-21.254-9.739-24.909l-18.635-6.788c-3.892-1.417-5.899-5.721-4.482-9.613s5.714-5.9 9.613-4.483l18.633 6.787c18.539 6.744 27.009 28.26 17.954 45.856-7.536 14.713-24.934 21.464-40.406 15.843z" fill="#e207b9"/></g><path d="m360.249 459.178c9.394 21.353-6.184 45.322-29.52 45.322h-168.9c-23.336 0-38.913-23.969-29.52-45.322 26.831-60.971 37.186-128.638 37.186-128.638-2.923 1.063-.93.337-27.915 10.16l-17.315-47.591c50.648-18.44 59.796-21.762 61.135-22.242.01-.01.02-.01.041-.02.02-.01.051-.02.072-.02 0-.01.01-.01.02-.01.031-.01.041-.02.051-.02 18.327 8.944 38.923 13.963 60.695 13.963 21.792 0 42.389-5.019 60.705-13.963.01.01.02.01.041.02h.01c.031.01.051.02.082.031.02.01.02.01.031.01 1.319.47 10.385 3.772 61.145 22.242l-17.315 47.6c-26.985-9.823-24.992-9.097-27.915-10.16 0 0 10.354 67.667 37.186 128.638z" fill="#ffff6f"/><path d="m246.279 284.757c-14.627 0-28.722-2.272-41.961-6.471-.044.789-.071 1.583-.071 2.383 0 23.214 18.819 52.254 42.032 52.254s42.032-29.04 42.032-52.254c0-.798-.027-1.59-.071-2.377-13.232 4.195-27.326 6.465-41.961 6.465z" fill="#ff63ed"/><path d="m382.869 122.308c-7.595.112-14.78-.307-21.567-1.175-42.787-5.428-69.629-28.252-82.334-42.143-4.773-5.223-13.002-5.274-17.847-.112-30.092 32.055-68.392 40.232-100.273 39.997.399-6.082-1.186-12.429-5.325-18.133l-.041-.072.041-.061c12.102-16.692 2.494-38.872-15.496-43.523 25.4-30.288 63.526-49.586 106.252-49.586 35.428 0 67.656 13.247 92.106 35.009 23.528 20.998 39.153 49.027 44.484 79.799z" fill="#f90"/><path d="m382.92 169.685c-11.465 65.773-68.308 115.074-136.641 115.074-71.438 0-130.273-54.041-137.806-123.506 4.416-.644 8.709-2.31 12.429-5.019 3.71-2.719 6.859-6.46 8.995-11.254l.072.01c17.06 1.779 29.888-11.346 30.879-26.116 31.881.235 70.181-7.942 100.273-39.997 4.845-5.162 13.073-5.111 17.847.112 12.705 13.891 39.547 36.716 82.334 42.143 6.787.869 13.973 1.288 21.567 1.175 2.599 14.793 2.831 31.112.051 47.378z" fill="#ff63ed"/><circle cx="297.549" cy="160.093" fill="#e207b9" r="10.878"/><g><path d="m269.313 196.912h-46.068c-4.143 0-7.5-3.358-7.5-7.5s3.357-7.5 7.5-7.5h46.068c4.143 0 7.5 3.358 7.5 7.5s-3.358 7.5-7.5 7.5z" fill="#e207b9"/></g><circle cx="195.008" cy="160.093" fill="#e207b9" r="10.878"/><g><path d="m330.729 512h-168.9c-28.715 0-47.963-29.524-36.385-55.842 19.332-43.928 30.057-91.87 34.37-114.113l-15.668 5.703c-3.892 1.416-8.198-.591-9.613-4.483l-17.315-47.591c-1.416-3.892.591-8.195 4.482-9.612 41.245-15.017 54.973-20.009 59.372-21.605 3.896-1.413 8.196.599 9.608 4.493s-.6 8.195-4.493 9.608c-4.138 1.501-16.527 6.006-52.311 19.033l12.188 33.496 20.867-7.595c5.344-1.944 10.838 2.555 9.978 8.183-.43 2.803-10.813 69.349-37.735 130.524-7.208 16.383 4.662 34.801 22.654 34.801h168.9c17.814 0 29.93-18.265 22.654-34.802-26.92-61.174-37.305-127.72-37.734-130.523-.859-5.62 4.626-10.129 9.978-8.183l20.868 7.595 12.188-33.505c-24.695-8.986-47.691-17.354-52.038-18.932-3.894-1.413-5.904-5.715-4.491-9.609 1.412-3.893 5.714-5.905 9.608-4.491 4.412 1.601 19.697 7.164 59.097 21.501 3.893 1.416 5.899 5.719 4.483 9.612l-17.315 47.602c-1.414 3.89-5.721 5.901-9.613 4.484l-15.666-5.702c4.319 22.255 15.055 70.227 34.366 114.111 11.566 26.288-7.633 55.842-36.384 55.842z" fill="#f95116"/></g><path d="m390.255 121.01c-.716-4.079-4.606-6.806-8.685-6.088-4.08.717-6.806 4.605-6.089 8.685 2.555 14.54 2.571 30.036.05 44.79-11.075 63.535-65.8 108.861-129.253 108.861-65.933 0-121.787-49.265-130.067-114.414-.521-4.109-4.292-7.016-8.386-6.495-4.109.522-7.017 4.277-6.495 8.386 7.065 55.588 45.16 100.722 95.511 118.891.705 12.299 5.712 25.683 13.712 36.37 9.86 13.173 22.548 20.428 35.726 20.428s25.865-7.255 35.726-20.428c7.987-10.669 12.99-24.026 13.708-36.308 48.33-17.338 85.321-59.502 94.601-112.739 2.81-16.457 2.791-33.725-.059-49.939zm-110.192 167.318c-3.387 17.985-17.816 37.094-33.784 37.094-15.969 0-30.399-19.112-33.785-37.099 10.425 2.47 22.194 3.934 33.785 3.934 12.033.001 22.547-1.375 33.784-3.929z" fill="#e207b9"/><g><path d="m360.349 128.572c-45.469-5.768-73.973-30.369-86.916-44.521-1.832-2.005-4.992-2.015-6.844-.042-25.921 27.612-61.866 42.262-103.949 42.368-.006 0-.013 0-.019 0-4.134 0-7.489-3.345-7.5-7.481-.011-4.142 3.339-7.508 7.481-7.519 38.391-.097 69.697-12.759 93.05-37.634 7.791-8.301 21.094-8.301 28.851.186 11.553 12.631 37.019 34.597 77.741 39.763 3.704.474 7.501.8 11.359.977-6.312-25.487-20.377-48.861-40.213-66.565-23.981-21.345-54.921-33.104-87.111-33.104-38.02 0-74.125 16.478-99.06 45.209-2.715 3.129-7.452 3.463-10.58.749-3.128-2.715-3.463-7.452-.748-10.58 27.784-32.016 68.019-50.378 110.388-50.378 35.871 0 70.353 13.107 97.093 36.906 24.651 22.002 41.301 51.874 46.887 84.121.787 4.537-2.672 8.711-7.278 8.779-7.717.115-15.328-.299-22.632-1.234z" fill="#f95116"/></g><circle cx="104.341" cy="100.673" fill="#ffff6f" r="21.89"/><g><path d="m104.341 130.063c-16.205 0-29.39-13.184-29.39-29.39s13.185-29.39 29.39-29.39c16.206 0 29.391 13.184 29.391 29.39s-13.185 29.39-29.391 29.39zm0-43.78c-7.935 0-14.39 6.455-14.39 14.39s6.455 14.39 14.39 14.39 14.391-6.455 14.391-14.39c0-7.934-6.456-14.39-14.391-14.39z" fill="#f95116"/></g><g><path d="m104.341 169.061c-.001 0 0 0 0 0-12.442 0-23.516-6.185-29.959-16.44-12.159-.437-23.064-6.935-29.292-17.719-6.236-10.799-6.405-23.515-.708-34.24-5.696-10.762-5.515-23.445.708-34.22 6.235-10.797 17.162-17.298 29.296-17.725 6.444-10.251 17.515-16.433 29.954-16.433 12.443 0 23.517 6.185 29.961 16.44 12.159.437 23.064 6.935 29.292 17.719 6.235 10.797 6.405 23.509.712 34.231 5.692 10.729 5.521 23.436-.712 34.227-6.235 10.797-17.162 17.298-29.296 17.725-6.444 10.252-17.516 16.435-29.956 16.435zm-25.619-31.57c2.942 0 5.699 1.714 6.914 4.436 3.392 7.598 10.384 12.135 18.705 12.135s15.314-4.536 18.706-12.135c1.32-2.957 4.39-4.733 7.611-4.404 8.356.87 15.784-2.916 19.945-10.122 4.16-7.204 3.73-15.527-1.151-22.264-1.905-2.629-1.948-6.248-.039-8.874l.046-.063c4.875-6.727 5.305-15.051 1.145-22.255s-11.576-10.992-19.859-10.13c-3.227.336-6.376-1.433-7.697-4.395-3.392-7.599-10.385-12.135-18.706-12.135s-15.313 4.536-18.705 12.135c-1.319 2.957-4.381 4.734-7.611 4.404-8.35-.869-15.783 2.916-19.945 10.121-4.161 7.204-3.73 15.527 1.151 22.264 1.903 2.627 1.948 6.244.042 8.869-4.924 6.795-5.354 15.118-1.193 22.322 4.161 7.205 11.586 10.991 19.859 10.13.261-.026.522-.039.782-.039z" fill="#6d00ca"/></g></g></svg>