<svg id="Capa_1" enable-background="new 0 0 512 512" height="512" viewBox="0 0 512 512" width="512" xmlns="http://www.w3.org/2000/svg"><g><path d="m435.481 285.61c-8.55 5.56-18.41 10.78-29.02 14.2-.986-.426-80.242-29.23-80.89-29.46 32.04-19.18 55.47-51.2 63.25-88.89 7.5 14.92 23.1 40.92 48.53 60.51 14.56 11.22 13.54 33.62-1.87 43.64z" fill="#b98eff"/><path d="m186.441 270.34c-.511.183-79.968 29.067-80.9 29.47-10.61-3.42-20.47-8.64-29.02-14.2-15.41-10.02-16.43-32.42-1.87-43.64 25.43-19.59 41.03-45.59 48.53-60.51 7.78 37.73 31.24 69.72 63.26 88.88z" fill="#b98eff"/><g><path d="m403.657 306.767c-2.735-1.049-64.251-23.414-78.54-28.603-3.894-1.414-5.904-5.716-4.49-9.609s5.714-5.904 9.609-4.49c.694.252 62.166 22.581 76.333 27.793 8.074-2.856 16.412-7.065 24.822-12.535 11.128-7.235 11.827-23.362 1.381-31.412-24.481-18.86-40.273-43.184-49.209-60.268-1.92-3.67-.501-8.202 3.169-10.122 3.67-1.919 8.203-.502 10.122 3.169 8.24 15.752 22.748 38.139 45.073 55.338 18.823 14.505 17.207 43.147-2.359 55.869-10.359 6.737-20.725 11.801-30.807 15.051-1.623.524-3.432.492-5.104-.181z" fill="#6d00ca"/></g><g><path d="m101.71 306.442c-9.594-3.257-19.444-8.15-29.278-14.545-19.527-12.698-21.216-41.337-2.358-55.868 24.039-18.518 38.997-43.467 45.773-56.691 1.889-3.686 6.408-5.143 10.096-3.254 3.686 1.889 5.143 6.409 3.254 10.095-8.978 17.517-24.934 42.447-49.968 61.732-10.433 8.04-9.758 24.168 1.381 31.411 8.788 5.715 17.51 10.06 25.923 12.916 3.922 1.331 6.022 5.59 4.69 9.513-1.329 3.916-5.582 6.025-9.513 4.691z" fill="#6d00ca"/></g><path d="m377.548 93.672c14.297-7.763 24.004-22.908 24.004-40.321 0-25.323-20.528-45.851-45.851-45.851-17.544 0-32.781 9.858-40.49 24.333 27.023 13.131 49.002 34.969 62.337 61.839z" fill="#ffff6f"/><path d="m391.329 144.825c-61.88-4.335-100.165-29.751-119.592-47.318-8.925-8.064-22.548-8.064-31.474 0-19.426 17.567-57.711 42.983-119.592 47.318 4.668-70.708 63.485-126.56 135.328-126.56 71.992 0 130.672 55.989 135.33 126.56z" fill="#ffff6f"/><path d="m333.971 327.29s-25.66 13.03-43.09 30.15c-9.3 9.13-21.85 14.19-34.88 14.19-12.983 0-25.532-5.023-34.88-14.19-17.43-17.12-43.09-30.15-43.09-30.15 3.044-17.258 6.029-38.786 8.42-56.95 20.34 12.18 44.13 19.18 69.55 19.18 25.45 0 49.22-7.01 69.55-19.17 0 .01.01.03.01.06 0 .01 0 .03.01.05.001.014.09.76.1.77.999 9.486 6.754 47.297 8.3 56.06z" fill="#88f8d8"/><path d="m388.821 181.46c-7.78 37.69-31.21 69.71-63.25 88.89-.01.01-.01.01-.02.01-19.909 11.953-44.007 19.16-69.55 19.16-24.243 0-47.829-6.273-69.55-19.17l-.01-.01c-32.02-19.16-55.48-51.15-63.26-88.88 0 0-.01-.01 0-.01-2.487-12.029-3.325-24.401-2.51-36.63 61.88-4.33 100.17-29.75 119.59-47.31 8.93-8.07 22.55-8.07 31.48 0 19.42 17.56 57.71 42.98 119.59 47.31.802 12.078.011 24.445-2.51 36.64z" fill="#ff9bff"/><circle cx="308.197" cy="165.233" fill="#e207b9" r="11.075"/><g><path d="m279.451 202.582h-46.9c-4.143 0-7.5-3.358-7.5-7.5s3.357-7.5 7.5-7.5h46.9c4.143 0 7.5 3.358 7.5 7.5s-3.357 7.5-7.5 7.5z" fill="#e207b9"/></g><circle cx="203.804" cy="165.233" fill="#e207b9" r="11.075"/><path d="m387.144 96.458c13.779-10.04 21.907-25.911 21.907-43.106.001-29.419-23.932-53.352-53.35-53.352-17.381 0-33.339 8.264-43.361 22.274-17.61-7.539-36.718-11.508-56.339-11.508-36.561 0-71.361 13.779-97.99 38.798-26.514 24.911-42.432 58.567-44.821 94.767-.273 4.133 2.856 7.705 6.989 7.978.168.011.335.017.502.017 3.916 0 7.214-3.041 7.476-7.006 4.426-67.04 60.582-119.554 127.845-119.554 67.264 0 123.419 52.514 127.845 119.553.273 4.133 3.841 7.263 7.978 6.99 4.133-.272 7.263-3.844 6.989-7.978-1.104-16.701-5.094-32.861-11.67-47.873zm-6.879-13.65c-6.973-12.167-15.765-23.359-26.212-33.189-8.56-8.054-17.97-14.938-28.01-20.581 7.245-8.869 18.008-14.038 29.658-14.038 21.146 0 38.351 17.204 38.351 38.351 0 11.518-5.077 22.21-13.787 29.457z" fill="#f95116"/><g><path d="m419.171 334.74c-5.76 11.25-19.05 16.63-31.17 12.22-7.39-2.69-53.9-19.62-54.03-19.67-.746-4.323-7.197-45.858-8.3-56.06 0 0-.02-.11-.04-.25-.01-.08-.02-.19-.03-.27-.02-.14-.03-.25-.03-.25-.01-.02-.01-.04-.01-.05 0-.03-.01-.04-.01-.05s0-.01 0-.01h.02c.691.245 79.909 29.036 80.89 29.46 13.53 5.65 19.5 21.73 12.71 34.93z" fill="#ff9bff"/></g><g><path d="m186.451 270.34v.01c-.068.205-4.547 34.928-8.42 56.94-.13.05-46.64 16.98-54.03 19.67-12.12 4.41-25.41-.97-31.17-12.22-7.073-13.75-.243-30.321 13.85-35.38 1.16-.42 77.44-28.19 79.76-29.02z" fill="#ff9bff"/></g><g><g><path d="m396.626 355.985c-3.73 0-7.511-.638-11.189-1.977l-51.904-18.895c-3.893-1.417-5.898-5.722-4.48-9.614 1.417-3.891 5.713-5.9 9.613-4.481l51.901 18.894c8.424 3.066 17.852-.628 21.929-8.59 2.311-4.491 2.629-9.559.904-14.283-1.716-4.698-5.181-8.347-9.764-10.281-2.95-1.125-60.477-22.042-77.715-28.303-3.893-1.414-5.903-5.716-4.489-9.61 1.414-3.893 5.71-5.904 9.61-4.489.77.28 77.052 27.988 78.396 28.57 8.312 3.47 14.923 10.397 18.052 18.969 3.131 8.575 2.53 18.152-1.649 26.276-5.732 11.193-17.205 17.813-29.215 17.814z" fill="#e207b9"/></g></g><g><g><path d="m115.377 355.984c-12.011 0-23.485-6.622-29.222-17.826-4.316-8.391-4.81-18.251-1.346-27.038 3.466-8.792 10.514-15.651 19.337-18.819.324-.117 7.19-2.616 16.763-6.101 20.468-7.45 53.301-19.4 61.251-22.287 3.896-1.414 8.195.597 9.609 4.49 1.413 3.893-.597 8.196-4.49 9.609-7.949 2.886-40.775 14.834-61.239 22.283-9.589 3.49-16.465 5.993-16.808 6.117-4.776 1.715-8.586 5.433-10.468 10.208-1.908 4.84-1.646 10.057.735 14.688 4.083 7.976 13.512 11.668 21.937 8.603 6.492-2.363 43.185-15.719 52.084-18.961 3.893-1.418 8.196.589 9.613 4.48 1.418 3.892-.588 8.196-4.48 9.614-8.899 3.241-45.594 16.598-52.087 18.962-3.678 1.34-7.459 1.978-11.189 1.978z" fill="#e207b9"/></g></g><g><path d="m178.04 334.791c-.433 0-.871-.038-1.312-.115-4.079-.719-6.803-4.609-6.083-8.689 2.368-13.429 5.017-31.274 8.096-54.557.543-4.107 4.313-6.994 8.419-6.452 4.106.543 6.995 4.312 6.452 8.419-3.108 23.498-5.789 41.552-8.195 55.195-.642 3.639-3.806 6.199-7.377 6.199z" fill="#007ea8"/></g><g><path d="m333.962 334.791c-3.571 0-6.735-2.56-7.377-6.199-1.542-8.741-6.643-42.309-8.101-54.219-.503-4.111 2.422-7.852 6.533-8.356 4.1-.504 7.852 2.422 8.355 6.533 1.523 12.444 6.615 45.676 7.983 53.437.72 4.079-2.004 7.969-6.083 8.689-.439.078-.878.115-1.31.115z" fill="#007ea8"/></g><g><path d="m256.001 297.02c-26.093 0-50.78-6.803-73.379-20.221-.075-.045-.149-.09-.223-.137-34.235-20.557-58.475-54.642-66.538-93.562-.026-.116-.05-.233-.07-.35-2.587-12.614-3.463-25.543-2.604-38.429.249-3.74 3.221-6.721 6.96-6.983 58.125-4.067 94.665-26.929 115.083-45.391 11.842-10.7 29.699-10.701 41.539-.002 20.42 18.464 56.96 41.326 115.085 45.393 3.739.262 6.712 3.244 6.96 6.984.862 12.974-.028 25.98-2.648 38.655-8.061 39.049-32.388 73.241-66.742 93.807h-.001c-.043.026-.086.051-.13.076-22.016 13.19-47.356 20.16-73.292 20.16zm-65.536-33.009c20.199 11.95 42.247 18.009 65.536 18.009 23.263 0 45.978-6.255 65.689-18.09.05-.03.101-.06.152-.089 30.696-18.423 52.429-48.994 59.634-83.897 0-.001 0-.001 0-.002 1.913-9.258 2.797-18.715 2.639-28.194-58.545-5.605-96.037-29.354-117.404-48.675-6.105-5.517-15.316-5.516-21.422.002-21.365 19.319-58.858 43.068-117.403 48.673-.158 9.469.726 18.922 2.64 28.184.012.056.022.112.033.168 7.236 34.877 29.002 65.415 59.733 83.804.058.035.116.071.173.107z" fill="#e207b9"/></g><path d="m338.621 504.5h-165.24c-22.83 0-38.07-23.45-28.88-44.34 15.532-35.303 27.178-94.987 33.53-132.87 0 0 25.66 13.03 43.09 30.15 9.344 9.164 21.892 14.19 34.88 14.19 13.03 0 25.58-5.06 34.88-14.19 17.43-17.12 43.09-30.15 43.09-30.15 7.16 42.58 18.65 99.05 33.53 132.87 9.19 20.89-6.05 44.34-28.88 44.34z" fill="#b98eff"/><g><path d="m338.621 512h-165.24c-28.211 0-47.12-29.005-35.745-54.86 14.713-33.439 26.065-89.744 32.999-131.09.837-4.997 6.294-7.734 10.792-5.447 1.09.553 26.901 13.758 44.95 31.487 16.376 16.06 42.877 16.072 59.25-.001 18.047-17.727 43.858-30.932 44.948-31.485 4.502-2.287 9.951.449 10.792 5.443 6.965 41.419 18.343 97.783 32.999 131.093 11.362 25.828-7.502 54.86-35.745 54.86zm-154.991-172.997c-7.177 40.847-18.163 92.128-32.264 124.177-6.983 15.874 4.483 33.82 22.015 33.82h165.24c17.351 0 29.073-17.776 22.015-33.82-14.049-31.932-25.055-83.268-32.26-124.18-8.715 5.15-22.07 13.802-32.239 23.79-22.204 21.798-58.037 21.803-80.267.004-10.17-9.988-23.524-18.64-32.24-23.791z" fill="#6d00ca"/></g></g></svg>