<svg id="Capa_1" enable-background="new 0 0 512 512" height="512" viewBox="0 0 512 512" width="512" xmlns="http://www.w3.org/2000/svg"><g><path d="m72.875 307.857c0 3.076.561 6.213 1.744 9.239 5.451 13.979 21.745 20.242 35.152 13.498l16.484-7.325-20.803-46.475-18.548 8.306c-8.828 4.429-14.029 13.378-14.029 22.757z" fill="#f90"/><path d="m439.127 307.857c0 3.076-.561 6.213-1.744 9.239-5.451 13.979-21.745 20.242-35.152 13.498l-16.484-7.325 20.803-46.475 18.548 8.307c8.829 4.428 14.029 13.377 14.029 22.756z" fill="#f90"/><g><path d="m67.631 319.821c-6.063-15.515.341-33.613 15.909-41.424.099-.049.197-.096.298-.141l18.548-8.307c3.779-1.693 8.218-.001 9.91 3.779 1.693 3.78.001 8.217-3.779 9.91l-18.385 8.234c-8.398 4.301-11.804 14.114-8.528 22.494 3.852 9.875 15.318 14.295 24.797 9.528.106-.054.215-.105.324-.154l16.483-7.325c3.787-1.682 8.218.023 9.899 3.808 1.683 3.785-.022 8.217-3.808 9.899l-16.33 7.257c-17.265 8.558-38.288.52-45.338-17.558z" fill="#f95116"/></g><g><path d="m399.033 337.379-16.331-7.257c-3.785-1.682-5.49-6.114-3.808-9.899s6.114-5.49 9.899-3.808c12.613 5.607 16.564 7.355 16.809 7.479 9.452 4.755 20.935.372 24.795-9.523 3.323-8.516-.238-18.255-8.526-22.499l-18.386-8.234c-3.78-1.693-5.473-6.13-3.779-9.91 1.693-3.781 6.134-5.471 9.91-3.779l18.549 8.307c14.382 6.423 22.754 24.795 16.206 41.569-7.03 18.023-28.031 26.134-45.338 17.554z" fill="#f95116"/></g><path d="m338.831 252.273v50.133l46.916 20.863 20.803-46.475-63.078-28.237c-1.38 1.155-2.785 2.282-4.212 3.381z" fill="#a4bcff"/><path d="m173.171 252.273v50.133l-46.916 20.863-20.803-46.475 63.078-28.237c1.38 1.155 2.785 2.282 4.212 3.381z" fill="#a4bcff"/><g fill="#b98eff"><path d="m270.835 410.962v46.978h46.56v-67.307c-12.001 11.05-28.235 17.937-46.56 20.329z"/><path d="m198.927 394.267v63.673h46.56v-46.504c-17.947-1.626-34.096-7.454-46.56-17.169z"/><path d="m173.502 346.446c3.708 42.307 39.231 65.475 82.499 65.475s78.792-23.168 82.5-65.475z"/></g><path d="m256.001 280.301c-31.232 0-59.91-10.462-82.83-28.015v86.815c0 2.475.11 4.93.331 7.345h164.999c.22-2.415.331-4.87.331-7.345v-86.818c-22.907 17.548-51.575 28.018-82.831 28.018z" fill="#a4bcff"/><path d="m277.459 278.622v67.824h30.974v-76.577c-9.788 4.077-20.162 7.049-30.974 8.753z" fill="#ff63ed"/><path d="m203.569 269.867v76.578h30.974v-67.825c-10.808-1.703-21.183-4.675-30.974-8.753z" fill="#ff63ed"/><path d="m392.401 143.9c0 74.88-60.61 136.4-136.4 136.4-75.68 0-136.4-61.39-136.4-136.4 0-11.92 1.53-23.5 4.42-34.54h40.84c15.64 0 30.18-8.09 38.42-21.38l9.24-14.88c4.65-7.5 15.4-7.97 20.69-.9l14.22 19.02c8.54 11.41 21.96 18.14 36.22 18.14h104.32c2.9 11.05 4.43 22.62 4.43 34.54z" fill="#f90"/><path d="m387.971 109.36h-104.32c-14.26 0-27.68-6.73-36.22-18.14l-14.22-19.02c-5.29-7.07-16.04-6.6-20.69.9l-9.24 14.88c-8.24 13.29-22.78 21.38-38.42 21.38h-40.84c15.26-58.43 68.33-101.86 131.98-101.86 63.73 0 116.72 43.5 131.97 101.86z" fill="#565eec"/><circle cx="310.434" cy="159.089" fill="#f95116" r="11.549"/><g><path d="m280.456 197.717h-48.91c-4.143 0-7.5-3.358-7.5-7.5s3.357-7.5 7.5-7.5h48.91c4.143 0 7.5 3.358 7.5 7.5s-3.357 7.5-7.5 7.5z" fill="#f95116"/></g><circle cx="201.569" cy="159.089" fill="#f95116" r="11.549"/><path d="m339.155 338.974c-4.114-.361-7.764 2.69-8.126 6.817-3.377 38.55-36.016 58.629-75.027 58.629-38.561 0-71.623-19.768-75.028-58.63-.362-4.126-4.002-7.177-8.127-6.816-4.126.362-7.178 4-6.816 8.126 1.801 20.54 10.563 37.959 25.397 50.715v57.124c0 4.143 3.357 7.5 7.5 7.5s7.5-3.357 7.5-7.5v-46.942c9.414 4.986 20.037 8.392 31.56 10.109v36.833c0 4.143 3.357 7.5 7.5 7.5s7.5-3.357 7.5-7.5v-35.57c1.002.023 2.002.051 3.015.051 2.477 0 4.917-.086 7.333-.225v35.744c0 4.143 3.357 7.5 7.5 7.5s7.5-3.357 7.5-7.5v-37.565c11.581-2.196 22.179-6.145 31.448-11.75.037-.022.075-.042.112-.063v49.379c0 4.143 3.357 7.5 7.5 7.5s7.5-3.357 7.5-7.5v-61.138c12.217-12.301 19.46-28.241 21.078-46.702.359-4.126-2.692-7.764-6.819-8.126z" fill="#6d00ca"/><g><path d="m308.434 350.946c-4.143 0-7.5-3.358-7.5-7.5v-70.577c0-4.142 3.357-7.5 7.5-7.5s7.5 3.358 7.5 7.5v70.577c0 4.142-3.357 7.5-7.5 7.5z" fill="#e207b9"/></g><g><path d="m277.459 350.946c-4.143 0-7.5-3.358-7.5-7.5v-61.824c0-4.142 3.357-7.5 7.5-7.5s7.5 3.358 7.5 7.5v61.824c0 4.142-3.357 7.5-7.5 7.5z" fill="#e207b9"/></g><g><path d="m234.543 350.946c-4.143 0-7.5-3.358-7.5-7.5v-61.825c0-4.142 3.357-7.5 7.5-7.5s7.5 3.358 7.5 7.5v61.825c0 4.142-3.357 7.5-7.5 7.5z" fill="#e207b9"/></g><g><path d="m203.569 350.946c-4.143 0-7.5-3.358-7.5-7.5v-70.578c0-4.142 3.357-7.5 7.5-7.5s7.5 3.358 7.5 7.5v70.578c0 4.142-3.358 7.5-7.5 7.5z" fill="#e207b9"/></g><path d="m409.615 269.948-61.109-27.356c-3.777-1.692-8.218 0-9.91 3.781-.359.802-.557 1.634-.624 2.463-3.737.427-6.64 3.596-6.64 7.447v82.663h-150.66v-82.661c0-3.624-2.57-6.647-5.987-7.347-.027-.955-.236-1.92-.65-2.846-1.692-3.781-6.132-5.473-9.91-3.781l-61.736 27.636c-3.78 1.692-5.474 6.129-3.781 9.909l20.803 46.476c1.694 3.784 6.124 5.465 9.894 3.789l36.369-16.173v25.152c0 2.692.121 5.392.361 8.024.351 3.863 3.59 6.821 7.469 6.821h164.996c3.878 0 7.116-2.956 7.469-6.817.24-2.63.362-5.331.362-8.028v-25.151l36.368 16.172c3.779 1.679 8.203-.013 9.894-3.789l20.803-46.476c1.692-3.779-.001-8.216-3.781-9.908zm-279.572 43.428-14.683-32.801 50.311-22.521v39.479zm251.915 0-35.627-15.843v-39.48l50.31 22.521z" fill="#2115c2"/><g><path d="m256.001 287.8c-79.347 0-143.9-64.553-143.9-143.9 0-12.355 1.569-24.614 4.664-36.439 1.05-4.007 5.147-6.405 9.155-5.356 4.007 1.049 6.405 5.148 5.356 9.155-2.771 10.585-4.176 21.567-4.176 32.641 0 71.076 57.824 128.9 128.9 128.9 71.075 0 128.899-57.824 128.899-128.9 0-11.078-1.407-22.059-4.184-32.636-1.052-4.006 1.344-8.107 5.35-9.158 4.01-1.052 8.107 1.344 9.158 5.35 3.103 11.82 4.676 24.081 4.676 36.444.002 79.346-64.551 143.899-143.898 143.899z" fill="#f95116"/></g><g><path d="m387.971 116.86h-104.32c-16.529 0-32.313-7.905-42.225-21.146l-14.222-19.023c-1.437-1.92-3.463-2.046-4.252-2.012-.8.035-2.795.336-4.058 2.373l-9.241 14.884c-9.676 15.605-26.422 24.924-44.793 24.924h-40.84c-2.323 0-4.516-1.077-5.936-2.915-1.42-1.839-1.908-4.232-1.321-6.48 16.527-63.274 73.783-107.465 139.238-107.465 65.44 0 122.692 44.191 139.226 107.464.588 2.248.101 4.641-1.32 6.48-1.42 1.839-3.613 2.916-5.936 2.916zm-164.795-57.186c6.301 0 12.245 2.961 16.04 8.033l14.222 19.022c7.091 9.473 18.386 15.131 30.213 15.131h94.225c-17.761-51.608-66.55-86.86-121.875-86.86-55.338 0-104.131 35.253-121.886 86.86h30.745c13.144 0 25.123-6.666 32.047-17.832l9.241-14.884c3.489-5.627 9.526-9.161 16.148-9.45.295-.013.588-.02.88-.02z" fill="#2115c2"/></g><path d="m242.001 481.225c0-.16.012-1.204.04-1.286.1-3.3 1.242-7.343 3.446-10.931v-11.068h-52.119c-7.276 0-13.775 3.339-18.042 8.572v.01c-3.376 4.086-5.069 9.328-5.193 13.417-.027.082-.04 1.126-.04 1.286 0 12.837 10.325 23.275 23.275 23.275h28.834c9.722 0 18.05-5.962 21.536-14.423-1.118-2.731-1.737-5.719-1.737-8.852z" fill="#a4bcff"/><path d="m317.394 457.94v23.285c0 12.849-10.426 23.275-23.285 23.275h-28.834c-12.95 0-23.275-10.438-23.275-23.275 0-.16.012-1.204.04-1.286.124-4.088 1.818-9.33 5.193-13.417 0-.01 0-.01 0-.01 4.266-5.233 10.765-8.572 18.042-8.572z" fill="#a4bcff"/><path d="m317.394 450.44h-52.118c-4.816 0-9.469 1.12-13.655 3.193-1.357-1.929-3.596-3.193-6.134-3.193h-52.119c-17.01 0-30.774 13.772-30.774 30.785 0 16.969 13.806 30.774 30.774 30.774h28.834c8.257 0 15.915-3.269 21.551-8.806 5.554 5.442 13.151 8.806 21.523 8.806h28.834c16.975 0 30.784-13.806 30.784-30.775v-23.284c0-4.142-3.357-7.5-7.5-7.5zm-95.192 46.56h-28.834c-8.698 0-15.774-7.076-15.774-15.764 0-8.257 6.674-15.795 15.774-15.795h44.619v1.607c-.015.029-.028.059-.042.088-2.421 4.705-3.444 9.468-3.444 14.09 0 2.795.431 5.776 1.13 8.295-2.845 4.612-7.88 7.479-13.429 7.479zm87.692-15.775c0 8.698-7.081 15.775-15.784 15.775h-28.834c-8.573 0-15.699-6.921-15.769-15.635 0-.045-.007-.09-.007-.135 0-8.228 6.626-15.79 15.775-15.79h44.618v15.785z" fill="#2115c2"/></g></svg>