<svg id="Capa_1" enable-background="new 0 0 512 512" height="512" viewBox="0 0 512 512" width="512" xmlns="http://www.w3.org/2000/svg"><g><path d="m445.312 361.779c0 78.817-63.893 142.721-142.721 142.721-63.85 0-117.913-41.945-136.139-99.773-4.284-13.553-6.582-27.981-6.582-42.948 0-4.262.183-8.482.55-12.647 6.043-68.728 60.796-123.481 129.524-129.524 8.536 13.996 13.521 30.387 13.705 47.934-.345-.011-.701-.011-1.057-.011-52.056 0-94.248 42.193-94.248 94.248 0 .356 0 .712.011 1.057.183 17.546 5.18 33.938 13.705 47.923 16.543 27.15 46.412 45.268 80.533 45.268 52.056 0 94.248-42.193 94.248-94.248 0-34.121-18.118-63.991-45.268-80.533.367-4.165.55-8.395.55-12.658 0-14.967-2.298-29.395-6.582-42.948 57.837 18.226 99.771 72.288 99.771 136.139z" fill="#ffd600"/><path d="m250.083 55.268h-81.34c-.637-8.789.935-17.804 4.79-25.719l7.936-16.313c.997-2.046 2.118-3.958 3.351-5.736h49.187c1.223 1.778 2.344 3.69 3.341 5.736l7.946 16.313c3.853 7.915 5.426 16.93 4.789 25.719z" fill="#7180fc"/><g fill="#a4bcff"><path d="m250.083 55.268c-.576 7.977-2.971 15.769-7.134 22.378l-30.437 48.262c-1.114-.016-1.777-.031-3.104-.031-.958 0-3.067.031-3.104.031l-30.427-48.262c-4.173-6.61-6.569-14.401-7.134-22.378z"/><path d="m250.083 55.268c.637-8.789-.935-17.804-4.79-25.719l-7.946-16.313c-.997-2.046-2.118-3.958-3.341-5.736h25.071c12.15 0 23.406 6.373 29.656 16.786l7.946 13.23c3.289 5.489 4.924 11.636 4.934 17.752z"/><path d="m184.819 7.5c-1.234 1.778-2.354 3.69-3.351 5.736l-7.936 16.313c-3.855 7.915-5.427 16.93-4.79 25.719h-51.541c.01-6.116 1.645-12.253 4.934-17.752l7.946-13.23c6.25-10.413 17.506-16.786 29.656-16.786z"/></g><path d="m167.591 132.034c12.155-3.689 25.059-5.816 38.518-6.115.065-.004.128-.007.194-.011l-30.427-48.262c-4.173-6.61-6.569-14.401-7.134-22.378h-51.541c-.01 7.545 2.436 15.059 7.278 21.278z" fill="#7180fc"/><path d="m251.172 132.096 43.163-55.55c4.831-6.229 7.288-13.743 7.278-21.278h-51.53c-.576 7.977-2.971 15.769-7.134 22.378l-30.437 48.262c13.638.361 25.701 2.258 38.66 6.188z" fill="#7180fc"/><path d="m352.126 268.585c0 4.266-.185 8.491-.555 12.664-6.044 68.728-60.782 123.465-129.51 129.51-8.532-13.99-13.528-30.375-13.713-47.922.35.01.709.01 1.059.01 52.044 0 94.251-42.207 94.251-94.262 0-.339 0-.699-.01-1.049-.185-17.547-5.171-33.932-13.702-47.933-16.55-27.148-46.422-45.26-80.539-45.26-52.055 0-94.251 42.186-94.251 94.241 0 34.127 18.123 63.999 45.26 80.549-.36 4.163-.545 8.378-.545 12.644 0 14.967 2.292 29.399 6.579 42.947-57.832-18.225-99.761-72.274-99.761-136.14 0-76.933 61.815-142.708 142.719-142.708 62.892 0 117.623 41.011 136.129 99.761 4.286 13.56 6.589 27.982 6.589 42.948z" fill="#ffff6f"/><path d="m309.113 55.255c-.03-16.553-9.047-25.25-13.949-34.829-7.562-12.599-21.39-20.426-36.087-20.426-21.448 0-79.616 0-99.34 0-14.697 0-28.524 7.827-36.085 20.424-4.967 9.709-13.921 18.19-13.951 34.831v.002s0 .001 0 .001c-.012 9.345 3.135 18.541 8.855 25.89l41.45 53.349c2.538 3.267 7.25 3.864 10.524 1.321 3.271-2.542 3.862-7.253 1.321-10.524l-41.455-53.354c-2.126-2.73-3.698-5.857-4.646-9.171h36.421c1.333 6.94 3.945 13.469 7.359 18.878l30.427 48.262c2.614 4.145 6.845 3.469 9.449 3.469 2.981 0 6.841.665 9.448-3.468 4.638-7.354 28.319-44.903 30.439-48.265 3.343-5.308 5.998-11.833 7.353-18.875h36.412c-.949 3.309-2.522 6.438-4.646 9.177l-41.452 53.348c-2.542 3.271-1.95 7.983 1.32 10.524 3.284 2.551 7.994 1.936 10.523-1.321l41.456-53.354c5.721-7.375 8.864-16.567 8.853-25.885v-.001s.001-.003.001-.003zm-72.508 18.391c-5.509 8.736-21.692 34.395-27.197 43.125l-27.19-43.127c-2.08-3.296-3.688-7.166-4.663-10.875h63.708c-.975 3.686-2.567 7.558-4.658 10.877zm-48.395-57.124c.253-.521.538-1.018.813-1.522h40.77c.274.503.558 1.001.81 1.518 0 .001 0 .001.001.002l7.946 16.313c2.117 4.347 3.542 9.329 4.003 14.935h-66.282c.417-5.117 1.66-10.12 4.005-14.938zm-51.697 11.624c4.866-8.109 13.765-13.146 23.224-13.146h12.532l-5.48 11.266c-3.284 6.743-5.142 14.223-5.576 21.502h-35.433c1.591-5.476 3.768-7.611 10.733-19.622zm121.099 19.622c-.5-7.922-2.488-15.156-5.577-21.503l-5.487-11.265h12.529c9.459 0 18.358 5.037 23.227 13.148l7.942 13.224c1.206 2.013 2.142 4.164 2.79 6.396z" fill="#2115c2"/><path d="m423.129 272.119c-18.264-24.515-42.991-42.555-71.672-52.399-9.919-28.917-28.129-53.768-52.889-72.03-26.001-19.177-56.832-29.313-89.161-29.313-40.722 0-78.74 15.893-107.052 44.752-27.837 28.374-43.167 65.826-43.167 105.457 0 32.598 10.263 63.604 29.68 89.666 18.261 24.512 42.986 42.551 71.667 52.395 9.766 28.331 28.245 53.673 52.396 71.668 26.065 19.419 57.069 29.685 89.66 29.685 82.832 0 150.221-67.389 150.221-150.221 0-32.592-10.264-63.596-29.683-89.66zm-33.79 89.66c0 47.833-38.915 86.748-86.748 86.748-26.513 0-50.9-11.761-67.271-31.955 30.256-5.293 58.401-19.853 80.307-41.758 21.906-21.906 36.465-50.053 41.758-80.307 20.192 16.371 31.954 40.76 31.954 67.272zm-234.733-25.909c-20.191-16.38-31.95-40.773-31.95-67.284 0-47.83 38.916-86.741 86.751-86.741 26.511 0 50.902 11.76 67.277 31.95-30.256 5.293-58.404 19.856-80.313 41.766-21.908 21.907-36.471 50.054-41.765 80.309zm-53.71 13.42c-17.473-23.453-26.708-51.36-26.708-80.704 0-35.678 13.806-69.399 38.874-94.952 25.469-25.959 59.685-40.256 96.345-40.256 29.102 0 56.854 9.124 80.258 26.385 23.229 17.133 40.075 40.692 48.721 68.137 5.122 16.196 7.33 34.326 5.714 52.688v.007c-2.77 31.487-16.649 61.182-39.081 83.613-21.302 21.303-49.157 34.893-78.875 38.579-5.282-9.803-8.75-20.853-9.889-32.667 76.511-5.106 119.339-90.005 80.096-154.418-18.65-30.592-51.152-48.856-86.943-48.856-56.105 0-101.751 45.641-101.751 101.741 0 34.246 16.72 65.483 44.962 84.459-.755 13.194.242 26.752 2.923 39.591-21.495-9.389-40.563-24.447-54.646-43.347zm115.201 5.801c3.256-42.513 37.292-76.548 79.805-79.806-3.262 42.514-37.295 76.548-79.805 79.806zm86.494 141.909c-29.337 0-57.241-9.238-80.697-26.715-33.121-24.677-54.522-64.211-54.522-108.507 0-37.296 15.231-71.236 39.606-95.612 21.308-21.308 49.165-34.899 78.883-38.585 5.328 9.923 8.77 20.964 9.885 32.677-52.928 3.53-94.904 47.715-94.904 101.521 0 19.416 5.497 37.602 14.811 52.882 18.644 30.598 51.144 48.866 86.938 48.866 56.104 0 101.748-45.644 101.748-101.748 0-34.248-16.721-65.478-44.967-84.443.76-13.517-.284-26.973-2.926-39.607 21.495 9.388 40.569 24.448 54.654 43.353 17.475 23.455 26.711 51.359 26.711 80.698.001 74.56-60.66 135.22-135.22 135.22z" fill="#f90"/></g></svg>