<svg id="Capa_1" enable-background="new 0 0 512 512" height="512" viewBox="0 0 512 512" width="512" xmlns="http://www.w3.org/2000/svg"><g><path d="m178.299 172.82-.029-.177c-5.324-32.801 22.053-57.438 50.487-55.65 3.755-21.095-6.296-44.439-30.154-53.489l.029-.177c7.063-43.514-43.424-72.672-77.585-44.808l-.145.118-.145-.118c-34.16-27.864-84.648 1.294-77.585 44.808l.029.177c-41.228 15.64-41.228 73.963 0 89.603l-.029.177c-7.063 43.514 43.424 72.672 77.585 44.808l.145-.118.145.118c8.411 6.86 17.81 10.258 27.098 10.842 2.733-15.358 12.784-29.525 30.154-36.114z" fill="#ff9bff"/><path d="m468.8 63.504.029-.177c7.063-43.514-43.425-72.672-77.585-44.808l-.145.118-.145-.118c-34.161-27.864-84.648 1.294-77.585 44.808l.029.177c-23.858 9.051-33.909 32.395-30.154 53.489 28.435-1.788 55.811 22.849 50.487 55.65l-.029.177c17.37 6.589 27.421 20.755 30.154 36.113 9.287-.584 18.687-3.982 27.098-10.842l.145-.118.145.118c34.161 27.864 84.648-1.294 77.585-44.808l-.029-.177c41.228-15.639 41.228-73.962 0-89.602z" fill="#ffceff"/><path d="m333.702 172.82.029-.177c7.063-43.514-43.424-72.672-77.585-44.808l-.146.118-.145-.118c-34.161-27.864-84.648 1.294-77.585 44.808l.029.177c-41.228 15.64-41.228 73.963 0 89.603l-.029.177c-7.063 43.514 43.424 72.672 77.585 44.808l.145-.118.145.118c34.161 27.864 84.648-1.294 77.585-44.808l-.029-.177c41.229-15.64 41.229-73.963.001-89.603z" fill="#ff63ed"/><path d="m341.141 462.704-23.603-42.013h-123.076l-23.603 42.013c-10.507 18.702 3.009 41.797 24.46 41.797h121.363c21.45 0 34.966-23.095 24.459-41.797z" fill="#a4bcff"/><g><path d="m316.681 512h-121.362c-27.174 0-44.322-29.249-30.997-52.969l21.585-38.423c2.028-3.611 6.6-4.894 10.211-2.865s4.893 6.6 2.865 10.211l-21.585 38.423c-7.695 13.696 2.19 30.625 17.921 30.625h121.363c15.709 0 25.628-16.911 17.922-30.625l-21.586-38.423c-2.028-3.611-.746-8.182 2.865-10.211 3.61-2.028 8.181-.746 10.211 2.865l21.586 38.423c13.309 23.693-3.794 52.969-30.999 52.969z" fill="#2115c2"/></g><path d="m391.243 198.092-.145-.118-.145.118c-8.41 6.86-17.81 10.258-27.098 10.842 3.755 21.095-6.296 44.439-30.154 53.489l.029.177c7.063 43.514-43.424 72.672-77.585 44.808l-.145-.118-.145.118c-34.161 27.864-84.648-1.294-77.585-44.808l.029-.177c-23.858-9.051-33.909-32.395-30.154-53.489-9.287-.584-18.687-3.982-27.098-10.842l-.145-.118-.145.118c-14.951 12.195-33.029 13.467-48.041 7.394l121.747 166.488h123.076l121.747-166.488c-15.013 6.073-33.092 4.801-48.043-7.394z" fill="#a4bcff"/><g><path d="m315.129 375.268c-3.343-2.445-4.072-7.136-1.627-10.479l118.126-161.536c2.444-3.343 7.136-4.071 10.479-1.627 3.343 2.445 4.072 7.136 1.627 10.479l-118.126 161.537c-2.437 3.331-7.126 4.079-10.479 1.626z" fill="#2115c2"/></g><g><path d="m186.392 373.642-118.252-161.709c-2.445-3.343-1.717-8.035 1.627-10.479 3.343-2.445 8.035-1.716 10.479 1.627l118.252 161.709c2.445 3.343 1.717 8.035-1.627 10.479-3.355 2.453-8.044 1.703-10.479-1.627z" fill="#2115c2"/></g><g fill="#ffff6f"><circle cx="256" cy="217.622" r="35.121"/><circle cx="120.902" cy="108.305" r="35.121"/><circle cx="391.098" cy="108.305" r="35.121"/></g><path d="m317.538 371.974h-123.076c-13.453 0-24.359 10.906-24.359 24.359 0 13.453 10.906 24.359 24.359 24.359h123.076c13.453 0 24.359-10.906 24.359-24.359 0-13.454-10.906-24.359-24.359-24.359z" fill="#88f8d8"/><g><path d="m256 260.241c-23.501 0-42.62-19.119-42.62-42.62s19.119-42.62 42.62-42.62c23.5 0 42.619 19.119 42.619 42.62s-19.118 42.62-42.619 42.62zm0-70.242c-15.231 0-27.623 12.391-27.623 27.622s12.392 27.622 27.623 27.622 27.622-12.391 27.622-27.622-12.391-27.622-27.622-27.622z" fill="#f95116"/></g><g><path d="m120.902 150.925c-23.5 0-42.619-19.119-42.619-42.62s19.119-42.62 42.619-42.62c23.501 0 42.62 19.119 42.62 42.62s-19.119 42.62-42.62 42.62zm0-70.242c-15.231 0-27.622 12.391-27.622 27.622s12.391 27.622 27.622 27.622 27.623-12.391 27.623-27.622-12.392-27.622-27.623-27.622z" fill="#f95116"/></g><g><path d="m391.098 150.925c-23.501 0-42.62-19.119-42.62-42.62s19.119-42.62 42.62-42.62 42.62 19.119 42.62 42.62-19.118 42.62-42.62 42.62zm0-70.242c-15.231 0-27.623 12.391-27.623 27.622s12.392 27.622 27.623 27.622 27.623-12.391 27.623-27.622-12.392-27.622-27.623-27.622z" fill="#f95116"/></g><path d="m507.22 108.305c0-21.596-11.482-40.059-30.344-49.447 1.378-21.104-8.875-40.364-27.631-51.196-18.756-10.833-40.566-10.085-58.148 1.648-17.589-11.735-39.392-12.478-58.145-1.648-18.762 10.836-29.015 30.107-27.631 51.206-19.595 9.824-31.235 29.782-30.308 51.652-6.63 1.432-13.062 4.139-19.012 8.108-5.949-3.969-12.381-6.676-19.013-8.108.927-21.87-10.715-41.828-30.309-51.652 1.381-21.107-8.871-40.372-27.629-51.206s-40.568-10.085-58.149 1.648c-17.59-11.735-39.392-12.478-58.145-1.647-18.75 10.828-29.001 30.081-27.629 51.196-18.864 9.387-30.347 27.851-30.347 49.446s11.481 40.059 30.344 49.447c-1.377 21.104 8.876 40.364 27.631 51.196 8.879 5.128 18.44 7.661 27.917 7.661 10.536 0 20.967-3.132 30.232-9.313 5.877 3.909 12.305 6.623 19.021 8.052-.028.754-.046 1.511-.046 2.273 0 21.596 11.482 40.059 30.344 49.447-1.378 21.104 8.875 40.364 27.63 51.196 8.881 5.13 18.446 7.663 27.923 7.662 10.538 0 20.967-3.132 30.225-9.311 17.59 11.735 39.392 12.479 58.145 1.648 18.75-10.829 29.001-30.082 27.629-51.196 18.863-9.388 30.346-27.852 30.346-49.447 0-.763-.018-1.519-.046-2.274 6.713-1.428 13.14-4.142 19.019-8.051 9.262 6.18 19.692 9.314 30.231 9.313 9.476 0 19.041-2.534 27.92-7.662 18.76-10.834 29.012-30.101 27.631-51.197 18.861-9.386 30.344-27.849 30.344-49.444zm-381.443 83.968-.145-.118c-2.762-2.246-6.725-2.24-9.479.016l-.135.11c-15.935 12.997-34.086 10.423-45.761 3.68s-22.977-21.179-19.686-41.452l.029-.177c.583-3.523-1.399-6.969-4.739-8.236-19.23-7.296-26.083-24.305-26.083-37.79s6.852-30.495 26.083-37.79c3.339-1.266 5.321-4.713 4.739-8.236l-.025-.153c-3.294-20.297 8.008-34.733 19.682-41.476 13.9-8.028 31.581-7.886 45.755 3.675l.145.118c2.753 2.252 6.712 2.259 9.473.016l.158-.128c15.936-12.997 34.087-10.423 45.761-3.68 11.675 6.743 22.976 21.179 19.679 41.492l-.028.177c-.561 3.512 1.421 6.935 4.745 8.196 18.842 7.148 26.359 24.085 26.039 38.941-28.455 2.027-53.867 26.28-51.763 58.717-13.183 6.551-23.289 17.916-27.788 32.373-5.966-1.377-11.635-4.18-16.656-8.275zm205.264 63.139c-3.339 1.267-5.322 4.714-4.739 8.238l.025.152c3.294 20.297-8.008 34.733-19.682 41.476-11.677 6.743-29.828 9.316-45.755-3.675l-.145-.118c-2.761-2.257-6.718-2.254-9.473-.016l-.158.128c-15.935 12.997-34.086 10.423-45.761 3.68-11.675-6.742-22.976-21.179-19.679-41.492l.028-.177c.561-3.511-1.421-6.934-4.745-8.196-19.23-7.295-26.082-24.304-26.082-37.79 0-16.599 9.503-31.508 26.082-37.79 3.325-1.262 5.307-4.685 4.745-8.196l-.031-.194c-6.001-36.945 36.639-61.289 65.453-37.788l.145.118c2.762 2.246 6.725 2.239 9.479-.016l.135-.11c28.839-23.522 71.415 1.008 65.448 37.772l-.029.177c-.583 3.523 1.399 6.969 4.739 8.236 16.365 6.201 26.083 20.946 26.083 37.79 0 13.486-6.852 30.496-26.083 37.791zm135.099-109.316c-3.326 1.262-5.307 4.685-4.744 8.196l.03.193c3.294 20.297-8.007 34.733-19.681 41.476-11.675 6.743-29.828 9.316-45.771-3.688l-.145-.118c-2.768-2.251-6.73-2.235-9.479.016l-.135.11c-5.013 4.089-10.68 6.891-16.645 8.265-4.527-14.551-14.734-25.91-27.79-32.373 2.07-31.05-21.99-56.596-51.762-58.717-.32-14.856 7.198-31.793 26.04-38.941 3.339-1.266 5.321-4.713 4.739-8.236l-.025-.153c-3.294-20.297 8.008-34.733 19.682-41.476 11.675-6.743 29.827-9.316 45.755 3.675l.145.118c2.753 2.252 6.712 2.259 9.473.016l.158-.128c15.936-12.997 34.085-10.422 45.761-3.68 11.675 6.743 22.976 21.179 19.68 41.492l-.028.177c-.562 3.512 1.419 6.935 4.744 8.196 19.23 7.295 26.082 24.305 26.082 37.79s-6.853 30.495-26.084 37.79z" fill="#e207b9"/><g><path d="m317.538 428.19h-123.076c-17.567 0-31.857-14.291-31.857-31.858 0-17.566 14.291-31.858 31.857-31.858h123.075c17.567 0 31.857 14.291 31.857 31.858.001 17.567-14.29 31.858-31.856 31.858zm-123.076-48.718c-9.296 0-16.86 7.563-16.86 16.86s7.563 16.86 16.86 16.86h123.075c9.296 0 16.86-7.563 16.86-16.86s-7.563-16.86-16.86-16.86z" fill="#007ea8"/></g></g></svg>