<svg id="Capa_1" enable-background="new 0 0 512 512" height="512" viewBox="0 0 512 512" width="512" xmlns="http://www.w3.org/2000/svg"><g><path d="m389.77 391.358c-16.716-8.941-36.792-8.941-53.508 0-16.716 8.941-36.792 8.941-53.508 0-16.716-8.941-36.793-8.941-53.508 0-16.716 8.941-36.792 8.941-53.508 0-16.716-8.941-36.792-8.941-53.508 0-16.716 8.941-36.792 8.941-53.508 0v63.75c0 27.278 22.114 49.392 49.392 49.392h275.773c27.278 0 49.392-22.113 49.392-49.392v-63.75c-16.716 8.941-36.793 8.941-53.509 0z" fill="#ff63ed"/><path d="m336.262 237.61c-16.716-8.941-36.793-8.941-53.508 0-16.716 8.941-36.793 8.941-53.508 0-16.716-8.941-36.792-8.941-53.508 0-16.716 8.941-36.792 8.941-53.508 0v77.387h267.54v-77.387c-16.715 8.941-36.792 8.941-53.508 0z" fill="#ff9bff"/><path d="m282.754 83.861c-16.716-8.941-36.793-8.941-53.508 0-16.716 8.941-36.792 8.941-53.508 0v77.387h160.524v-77.387c-16.715 8.941-36.792 8.941-53.508 0z" fill="#ff63ed"/><g><path d="m393.887 512h-275.774c-31.37 0-56.892-25.522-56.892-56.892v-60.75c0-4.142 3.357-7.5 7.5-7.5s7.5 3.358 7.5 7.5v60.75c0 23.099 18.793 41.892 41.892 41.892h275.773c23.099 0 41.892-18.793 41.892-41.892v-60.75c0-4.142 3.357-7.5 7.5-7.5s7.5 3.358 7.5 7.5v60.75c0 31.37-25.521 56.892-56.891 56.892z" fill="#e207b9"/></g><g><path d="m389.771 319.497c-4.143 0-7.5-3.358-7.5-7.5v-71.387c0-4.142 3.357-7.5 7.5-7.5s7.5 3.358 7.5 7.5v71.387c0 4.142-3.358 7.5-7.5 7.5z" fill="#e207b9"/></g><g><path d="m122.229 319.497c-4.143 0-7.5-3.358-7.5-7.5v-71.387c0-4.142 3.357-7.5 7.5-7.5s7.5 3.358 7.5 7.5v71.387c0 4.142-3.357 7.5-7.5 7.5z" fill="#e207b9"/></g><g><path d="m336.263 165.748c-4.143 0-7.5-3.358-7.5-7.5v-70.387c0-4.142 3.357-7.5 7.5-7.5s7.5 3.358 7.5 7.5v70.387c0 4.143-3.358 7.5-7.5 7.5z" fill="#e207b9"/></g><g><path d="m175.738 165.748c-4.143 0-7.5-3.358-7.5-7.5v-70.387c0-4.142 3.357-7.5 7.5-7.5s7.5 3.358 7.5 7.5v70.387c0 4.143-3.357 7.5-7.5 7.5z" fill="#e207b9"/></g><path d="m438.322 314.997h-364.643c-17.513 0-31.711 14.197-31.711 31.711 0 18.679 10.283 35.841 26.754 44.651 16.716 8.941 36.792 8.941 53.508 0 16.716-8.941 36.792-8.941 53.508 0 16.716 8.941 36.792 8.941 53.508 0 16.716-8.941 36.792-8.941 53.508 0 16.716 8.941 36.792 8.941 53.508 0 16.716-8.941 36.792-8.941 53.508 0 16.716 8.941 36.793 8.941 53.508 0 16.471-8.81 26.754-25.972 26.754-44.651.001-17.514-14.197-31.711-31.71-31.711z" fill="#b98eff"/><path d="m384.814 161.248h-257.627c-17.513 0-31.711 14.197-31.711 31.711 0 18.679 10.283 35.841 26.754 44.651 16.716 8.941 36.792 8.941 53.508 0 16.716-8.941 36.792-8.941 53.508 0 16.716 8.941 36.792 8.941 53.508 0 16.716-8.941 36.792-8.941 53.508 0 16.716 8.941 36.792 8.941 53.508 0 16.471-8.81 26.754-25.972 26.754-44.651.001-17.513-14.197-31.711-31.71-31.711z" fill="#ddbeff"/><path d="m331.305 7.5h-150.61c-17.513 0-31.711 14.197-31.711 31.711 0 18.679 10.283 35.841 26.754 44.651 16.716 8.941 36.792 8.941 53.508 0 16.716-8.941 36.792-8.941 53.508 0 16.716 8.941 36.792 8.941 53.508 0 16.471-8.81 26.754-25.972 26.754-44.651 0-17.514-14.197-31.711-31.711-31.711z" fill="#b98eff"/><g><path d="m202.492 405.581c-10.405.001-20.807-2.536-30.291-7.609-14.539-7.776-31.897-7.775-46.435 0-18.967 10.145-41.615 10.145-60.582 0-18.947-10.134-30.717-29.777-30.717-51.264 0-21.621 17.59-39.211 39.211-39.211h364.643c21.621 0 39.211 17.59 39.211 39.211 0 21.487-11.77 41.13-30.717 51.264-18.967 10.145-41.615 10.145-60.582 0-14.54-7.776-31.897-7.775-46.434 0-18.965 10.145-41.614 10.146-60.583 0-14.536-7.775-31.894-7.776-46.434 0-9.481 5.072-19.887 7.608-30.29 7.609zm-53.508-28.445c10.403 0 20.808 2.536 30.291 7.609 14.536 7.775 31.894 7.776 46.434 0 18.968-10.146 41.616-10.145 60.582 0 14.539 7.776 31.897 7.775 46.435 0 18.967-10.145 41.615-10.146 60.582 0 14.537 7.775 31.896 7.775 46.434 0 14.058-7.519 22.791-22.094 22.791-38.037 0-13.35-10.861-24.211-24.211-24.211h-364.643c-13.35 0-24.211 10.861-24.211 24.211 0 15.943 8.733 30.518 22.791 38.037 14.539 7.776 31.896 7.776 46.434 0 9.483-5.073 19.887-7.609 30.291-7.609z" fill="#6d00ca"/></g><g><path d="m256 251.832c-10.403 0-20.808-2.536-30.291-7.609-14.54-7.776-31.897-7.775-46.434 0-18.966 10.145-41.615 10.146-60.583 0-18.947-10.134-30.717-29.777-30.717-51.264 0-21.621 17.59-39.211 39.211-39.211h257.627c21.621 0 39.211 17.59 39.211 39.211 0 21.487-11.77 41.13-30.717 51.264-18.968 10.146-41.616 10.145-60.582 0-14.539-7.776-31.897-7.775-46.435 0-9.482 5.073-19.886 7.609-30.29 7.609zm-53.508-28.444c10.403 0 20.808 2.536 30.291 7.609 14.54 7.776 31.897 7.775 46.434 0 18.967-10.145 41.616-10.146 60.583 0 14.537 7.775 31.895 7.776 46.434 0 14.058-7.519 22.791-22.094 22.791-38.037 0-13.35-10.861-24.211-24.211-24.211h-257.627c-13.35 0-24.211 10.861-24.211 24.211 0 15.943 8.733 30.518 22.791 38.037 14.539 7.776 31.897 7.775 46.435 0 9.483-5.073 19.886-7.609 30.29-7.609z" fill="#6d00ca"/></g><g><path d="m202.492 98.084c-10.405.001-20.807-2.536-30.291-7.609-18.947-10.134-30.717-29.777-30.717-51.264 0-21.621 17.59-39.211 39.21-39.211h150.611c21.621 0 39.211 17.59 39.211 39.211 0 21.487-11.77 41.13-30.717 51.264-18.965 10.145-41.614 10.146-60.583 0-14.536-7.775-31.894-7.776-46.434 0-9.481 5.072-19.887 7.608-30.29 7.609zm-21.798-83.084c-13.35 0-24.21 10.861-24.21 24.211 0 15.943 8.733 30.518 22.791 38.037 14.536 7.775 31.894 7.776 46.434 0 18.968-10.145 41.616-10.145 60.582 0 14.539 7.776 31.897 7.775 46.435 0 14.058-7.519 22.791-22.094 22.791-38.037 0-13.35-10.861-24.211-24.211-24.211z" fill="#6d00ca"/></g><circle cx="315.055" cy="435.043" fill="#e207b9" r="12.53"/><g><path d="m282.532 476.314h-53.064c-4.143 0-7.5-3.358-7.5-7.5s3.357-7.5 7.5-7.5h53.064c4.143 0 7.5 3.358 7.5 7.5s-3.357 7.5-7.5 7.5z" fill="#e207b9"/></g><circle cx="196.945" cy="435.043" fill="#e207b9" r="12.53"/></g></svg>