<svg id="Capa_1" enable-background="new 0 0 512 512" height="512" viewBox="0 0 512 512" width="512" xmlns="http://www.w3.org/2000/svg"><g><path d="m331.989 48.278c-21.568-6.388-42.705-7.947-42.705-7.947v-13.856c0-10.48-8.495-18.975-18.975-18.975h-28.618c-10.48 0-18.975 8.495-18.975 18.975v13.855s-21.137 1.559-42.705 7.947c-19.392 5.743-30.136 26.456-23.82 45.668 3.751 11.409 9.275 24.629 17.263 37.31 2.17-4.559 5.134-8.834 8.909-12.609 17.75-17.75 46.536-17.75 64.295 0l9.343 9.343 9.343-9.343c17.759-17.75 46.544-17.75 64.295 0 3.775 3.775 6.739 8.05 8.909 12.609 7.988-12.681 13.513-25.9 17.263-37.31 6.314-19.212-4.43-39.924-23.822-45.667z" fill="#88f8d8"/><path d="m329.637 118.647c-17.75-17.75-46.536-17.75-64.295 0l-9.342 9.342-9.343-9.343c-17.759-17.75-46.544-17.75-64.295 0-8.879 8.879-13.319 20.513-13.319 32.147 0 11.642 4.44 23.276 13.319 32.156l45.386 45.386c15.603 15.603 40.899 15.603 56.502 0l45.386-45.386c8.879-8.879 13.319-20.513 13.319-32.156.001-11.633-4.438-23.267-13.318-32.146z" fill="#b98eff"/><path d="m314.351 459.341h-35.95v-49.105c-7.166.386-14.621.595-22.401.595-7.779 0-15.235-.209-22.401-.595v49.105h-35.95c-14.513 0-26.279 11.765-26.279 26.279 0 10.427 8.453 18.881 18.881 18.881h131.498c10.427 0 18.881-8.453 18.881-18.881-.001-14.514-11.766-26.279-26.279-26.279z" fill="#ffff6f"/><path d="m425.452 314.136c-17.555-6.583-30.765-21.286-35.625-39.394-21.587-80.431-60.19-91.793-60.19-91.793l-45.386 45.386c-15.603 15.603-40.899 15.603-56.502 0l-45.386-45.386s-38.603 11.361-60.19 91.793c-4.86 18.108-18.069 32.811-35.625 39.394-11.212 4.204-15.548 17.845-8.726 27.686 18.3 26.397 65.32 69.009 178.178 69.009s159.877-42.613 178.178-69.009c6.822-9.841 2.486-23.481-8.726-27.686z" fill="#ddbeff"/><g><path d="m172.273 136.837c-2.532 0-5.003-1.282-6.415-3.604-6.711-11.036-12.361-23.466-16.792-36.945-7.632-23.216 5.312-48.241 28.815-55.202 14.739-4.365 29.126-6.542 37.335-7.527v-7.084c0-14.598 11.876-26.475 26.475-26.475h28.619c14.599 0 26.475 11.877 26.475 26.475v7.084c8.209.985 22.596 3.162 37.335 7.527 23.519 6.966 36.441 32.004 28.815 55.202-4.299 13.077-9.751 25.179-16.204 35.97-2.125 3.556-6.732 4.712-10.286 2.587-3.555-2.126-4.713-6.731-2.587-10.286 5.885-9.841 10.874-20.929 14.827-32.955 5.007-15.228-3.491-31.593-18.825-36.135-20.557-6.089-40.924-7.644-41.127-7.659-3.917-.289-6.948-3.552-6.948-7.48v-13.855c0-6.327-5.147-11.475-11.475-11.475h-28.619c-6.327 0-11.475 5.148-11.475 11.475v13.855c0 3.928-3.031 7.191-6.948 7.48-.201.015-20.64 1.591-41.127 7.659-15.307 4.534-23.84 20.881-18.825 36.135 4.073 12.392 9.241 23.776 15.358 33.834 2.152 3.539 1.028 8.153-2.511 10.305-1.217.741-2.562 1.094-3.89 1.094z" fill="#007ea8"/></g><g><path d="m321.749 512h-131.498c-14.546 0-26.38-11.834-26.38-26.38 0-18.625 15.153-33.778 33.778-33.778h28.449v-38.605c0-4.142 3.357-7.5 7.5-7.5s7.5 3.358 7.5 7.5v46.105c0 4.142-3.357 7.5-7.5 7.5h-35.948c-10.354 0-18.778 8.424-18.778 18.778 0 6.275 5.105 11.38 11.38 11.38h131.498c6.274 0 11.38-5.105 11.38-11.38 0-10.354-8.424-18.778-18.778-18.778h-35.95c-4.143 0-7.5-3.358-7.5-7.5v-46.105c0-4.142 3.357-7.5 7.5-7.5s7.5 3.358 7.5 7.5v38.605h28.45c18.625 0 33.778 15.153 33.778 33.778-.001 14.546-11.835 26.38-26.381 26.38z" fill="#f95116"/></g><path d="m428.085 307.114c-15.182-5.693-26.775-18.521-31.015-34.315-16.084-59.932-41.813-83.554-55.711-92.309 5.912-8.695 9.097-18.949 9.097-29.696 0-47.038-57.24-70.612-90.417-37.451l-4.039 4.04-4.041-4.041c-33.162-33.147-90.415-9.601-90.415 37.452 0 10.747 3.185 21 9.096 29.696-13.898 8.754-39.626 32.376-55.71 92.308-4.24 15.794-15.834 28.623-31.014 34.316-15.821 5.932-21.849 25.145-12.258 38.981 9.09 13.111 26.264 31.881 56.463 46.85 33.985 16.845 77.01 25.387 127.879 25.387s93.894-8.542 127.878-25.387c30.199-14.968 47.374-33.739 56.464-46.85 9.588-13.831 3.568-33.046-12.257-38.981zm-213.578-194.262c9.722 0 19.445 3.7 26.847 11.098l9.343 9.343c2.93 2.929 7.678 2.929 10.607 0l9.341-9.341c14.807-14.798 38.892-14.801 53.688-.001h.001c7.172 7.172 11.122 16.705 11.122 26.844 0 10.144-3.95 19.68-11.123 26.853l-45.386 45.386c-12.68 12.682-33.212 12.685-45.895 0l-45.387-45.386c-7.171-7.172-11.122-16.708-11.122-26.852.001-21.076 17.067-37.944 37.964-37.944zm213.507 224.697c-17.032 24.568-62.029 65.783-172.014 65.783-109.987 0-154.982-41.215-172.014-65.783-4.023-5.801-1.473-13.89 5.196-16.39 19.702-7.389 34.742-24.014 40.233-44.473 16.079-59.907 41.768-79.384 51.325-84.751l41.705 41.704c18.545 18.544 48.562 18.546 67.109 0l41.695-41.696c9.635 5.412 35.276 24.917 51.333 84.743 5.49 20.458 20.531 37.083 40.234 44.473 6.662 2.497 9.224 10.585 5.198 16.39z" fill="#6d00ca"/><circle cx="306.529" cy="296.247" fill="#6d00ca" r="10.721"/><g><path d="m278.701 332.643h-45.402c-4.143 0-7.5-3.358-7.5-7.5s3.357-7.5 7.5-7.5h45.402c4.143 0 7.5 3.358 7.5 7.5s-3.357 7.5-7.5 7.5z" fill="#6d00ca"/></g><circle cx="205.471" cy="296.247" fill="#6d00ca" r="10.721"/></g></svg>