<svg id="Capa_1" enable-background="new 0 0 512 512" height="512" viewBox="0 0 512 512" width="512" xmlns="http://www.w3.org/2000/svg"><g><path d="m183.227 404.615v50.286h-16.597c-13.696 0-24.8 11.103-24.8 24.8 0 13.696 11.103 24.8 24.8 24.8h41.396c13.696 0 24.8-11.103 24.8-24.8v-75.086z" fill="#88f8d8"/><path d="m298.647 404.615v50.286h-16.597c-13.696 0-24.8 11.103-24.8 24.8 0 13.696 11.103 24.8 24.8 24.8h41.396c13.696 0 24.8-11.103 24.8-24.8v-75.086z" fill="#88f8d8"/><g><path d="m208.027 512h-41.397c-17.81 0-32.299-14.49-32.299-32.3s14.489-32.3 32.299-32.3h9.097v-39.786c0-4.142 3.357-7.5 7.5-7.5s7.5 3.358 7.5 7.5v47.286c0 4.142-3.357 7.5-7.5 7.5h-16.597c-9.539 0-17.299 7.76-17.299 17.3 0 9.539 7.76 17.3 17.299 17.3h41.396c9.539 0 17.3-7.761 17.3-17.3v-72.086c0-4.142 3.357-7.5 7.5-7.5s7.5 3.358 7.5 7.5v72.086c.001 17.811-14.489 32.3-32.299 32.3z" fill="#007ea8"/></g><path d="m183.227 404.615h49.599v31.429h-49.599z" fill="#007ea8"/><path d="m298.647 404.615h49.599v31.429h-49.599z" fill="#007ea8"/><g><path d="m323.447 512h-41.397c-17.811 0-32.3-14.49-32.3-32.3s14.489-32.3 32.3-32.3h9.097v-39.786c0-4.142 3.357-7.5 7.5-7.5s7.5 3.358 7.5 7.5v47.286c0 4.142-3.357 7.5-7.5 7.5h-16.597c-9.539 0-17.3 7.76-17.3 17.3 0 9.539 7.761 17.3 17.3 17.3h41.396c9.539 0 17.299-7.761 17.299-17.3v-72.086c0-4.142 3.357-7.5 7.5-7.5s7.5 3.358 7.5 7.5v72.086c.001 17.811-14.489 32.3-32.298 32.3z" fill="#007ea8"/></g><g fill="#ff63ed"><path d="m229.46 73.225-50.458 10.482-7.509 1.561c-16.557 3.441-32.095-9.197-32.095-26.105v-24.99c0-16.832 15.463-29.559 32.095-26.105l57.966 12.033c-5.21 3.206-9.229 8.582-9.357 9.091-2.963 4.385-5.321 10.687-5.321 17.471.001 10.289 5.246 20.636 14.679 26.562z"/><path d="m372.602 34.174v24.99c0 16.908-15.538 29.546-32.095 26.105l-7.509-1.561-50.458-10.482c9.411-5.913 14.677-16.099 14.677-26.562 0-9.241-5.209-20.735-14.677-26.562l57.966-12.033c15.803-3.282 30.672 8.072 31.989 23.811.075.754.107 1.518.107 2.294z"/><path d="m297.218 46.663c0 18.376-14.988 31.383-31.373 31.383h-19.69c-16.456 0-31.373-12.906-31.373-31.383 0-6.794 2.404-13.32 5.321-17.471.011-.042.042-.085.074-.127 6.206-9.176 16.417-13.775 25.978-13.775h19.69c25.005 0 30.33 23.524 30.406 23.63.709 2.836.967 5.482.967 7.743z"/></g><g><path d="m397.904 160.932c14.128 7.091 14.121 27.26-.011 34.342l-141.893 71.1-141.892-71.1c-14.133-7.082-14.14-27.25-.011-34.342l25.302-12.7-81.562-64.808v278.035c0 23.834 19.322 43.156 43.156 43.156h310.015c23.834 0 43.156-19.322 43.156-43.156v-278.035l-81.562 64.808z" fill="#b98eff"/></g><path d="m256 266.379-141.889-71.104c-14.136-7.084-14.146-27.252-.011-34.347l25.298-12.691-81.564-64.816c-12.533-9.952-8.104-29.971 7.466-33.71l74.205-17.832c-.064.754-.106 1.519-.106 2.294v24.99c0 16.908 15.538 29.546 32.095 26.105l7.509-1.561z" fill="#ff9bff"/><path d="m332.998 83.707-76.998 182.672-76.998-182.672 50.458-10.482c4.832 3.059 10.557 4.822 16.695 4.822h19.69c6.139 0 11.863-1.763 16.695-4.822z" fill="#ddbeff"/><path d="m454.167 83.421-81.565 64.816 25.298 12.691c14.136 7.094 14.125 27.263-.011 34.347l-141.889 71.104 76.998-182.671 7.509 1.561c16.557 3.441 32.095-9.197 32.095-26.105v-24.99c0-.775-.042-1.54-.106-2.294l74.205 17.832c15.569 3.738 19.998 23.757 7.466 33.709z" fill="#ff9bff"/><circle cx="312.295" cy="311.767" fill="#6d00ca" r="11.944"/><g><path d="m281.293 351.46h-50.584c-4.143 0-7.5-3.358-7.5-7.5s3.357-7.5 7.5-7.5h50.584c4.143 0 7.5 3.358 7.5 7.5s-3.358 7.5-7.5 7.5z" fill="#6d00ca"/></g><circle cx="199.706" cy="311.767" fill="#6d00ca" r="11.944"/><g><g><path d="m411.008 412.115h-310.015c-27.932 0-50.656-22.724-50.656-50.656v-274.035c0-4.142 3.357-7.5 7.5-7.5s7.5 3.358 7.5 7.5v274.035c0 19.661 15.995 35.656 35.656 35.656h310.016c19.66 0 35.655-15.995 35.655-35.656v-274.035c0-4.142 3.357-7.5 7.5-7.5s7.5 3.358 7.5 7.5v274.035c0 27.932-22.724 50.656-50.656 50.656z" fill="#6d00ca"/></g></g><circle cx="256" cy="116.395" fill="#6d00ca" r="11.944"/><circle cx="256" cy="166.687" fill="#6d00ca" r="11.944"/><path d="m468.295 62.618c-2.225-10.055-9.828-17.795-19.843-20.199l-69.411-16.68c-4.481-17.632-22.098-28.743-40.059-25.015l-54.89 11.395c-5.08-2.678-11.141-4.329-18.248-4.329h-19.69c-6.356 0-12.494 1.55-17.953 4.39l-55.182-11.455c-18.194-3.778-35.64 7.592-40.058 25.013l-69.413 16.68c-10.016 2.405-17.619 10.145-19.844 20.2-2.224 10.053 1.403 20.274 9.463 26.674l72.369 57.509-14.8 7.424c-9.091 4.562-14.736 13.712-14.733 23.881s5.654 19.317 14.747 23.874l141.874 71.096c.004.002.008.004.013.006l.003.002c.004.002.008.003.012.005 2.2 1.098 4.681 1.001 6.689.003.006-.003.013-.005.02-.008l.006-.003c.003-.001.005-.003.008-.004l141.875-71.097c9.093-4.557 14.744-13.705 14.747-23.874.003-10.168-5.643-19.319-14.733-23.881l-14.799-7.424 72.366-57.506c8.061-6.403 11.688-16.624 9.464-26.677zm-126.262-47.206c11.592-2.409 22.062 6.031 22.989 17.092v.005c.054.64.08 1.184.08 1.665v24.99c0 12.078-11.098 21.25-23.068 18.762-44.423-9.23-39.38-8.182-44.164-9.176 4.534-6.559 6.849-14.289 6.849-22.086 0-8.253-2.522-15.574-6.901-22.073zm-86.032 231.658-66.545-157.873 38.672-8.035c5.51 2.863 11.664 4.385 18.027 4.385h19.69c6.467 0 12.566-1.597 17.937-4.404l38.764 8.054zm9.844-224.28c4.671 0 8.434 1.051 11.465 2.658.846.828 12.408 7.427 12.408 21.215 0 12.31-9.95 23.883-23.873 23.883h-19.69c-13.529 0-23.872-11.118-23.872-23.883 0-12.941 10.59-23.873 23.872-23.873zm-95.876-7.378 44.19 9.173c-4.473 7.029-6.877 13.811-6.877 22.078 0 7.853 2.272 15.581 6.769 22.103-1.13.235 3.779-.785-44.084 9.159-11.954 2.485-23.068-6.663-23.068-18.762v-24.99c0-12.092 11.116-21.25 23.07-18.761zm-52.498 173.158c-4.049-2.028-6.466-5.942-6.468-10.468-.001-4.525 2.414-8.439 6.461-10.47l25.298-12.691c2.288-1.148 3.833-3.384 4.097-5.931s-.789-5.052-2.794-6.645l-81.567-64.818c-3.586-2.848-5.136-7.217-4.146-11.688.989-4.474 4.242-7.784 8.7-8.855l64.848-15.583v17.743c0 21.549 19.761 37.885 41.121 33.448l1.468-.305 66.711 158.266zm332.031-111.023c-.001 0-.001.001-.002.001l-81.564 64.817c-2.005 1.593-3.058 4.098-2.794 6.645s1.809 4.783 4.097 5.931l25.297 12.691c4.047 2.031 6.462 5.945 6.461 10.47-.002 4.526-2.419 8.439-6.468 10.468l-123.727 62.003 66.711-158.266 1.468.305c21.226 4.405 41.121-11.767 41.121-33.448v-17.743l64.848 15.583c4.458 1.07 7.71 4.38 8.699 8.854.989 4.472-.561 8.842-4.147 11.689z" fill="#e207b9"/></g></svg>