<svg id="Capa_1" enable-background="new 0 0 512 512" height="512" viewBox="0 0 512 512" width="512" xmlns="http://www.w3.org/2000/svg"><g><path d="m468.003 177.575v-50.585c0-10.303-8.352-18.655-18.655-18.655h-15.309c-10.303 0-18.655 8.352-18.655 18.655v50.585z" fill="#7181ff"/><path d="m415.383 236.768v50.585c0 10.303 8.352 18.655 18.655 18.655h15.309c10.303 0 18.655-8.352 18.655-18.655v-50.585z" fill="#7181ff"/><path d="m474.904 177.575h-106.992v59.193h106.992c16.346 0 29.596-13.251 29.596-29.596 0-16.346-13.25-29.597-29.596-29.597z" fill="#a4bcff"/><path d="m512 207.171c0-20.254-16.318-36.759-36.497-37.081v-43.101c0-14.422-11.733-26.155-26.155-26.155h-15.31c-14.422 0-26.155 11.733-26.155 26.155v43.085h-35.971c-4.143 0-7.5 3.358-7.5 7.5s3.357 7.5 7.5 7.5h102.992c12.184 0 22.096 9.913 22.096 22.097s-9.912 22.096-22.096 22.096c-12.227 0-91.22 0-102.992 0-4.143 0-7.5 3.358-7.5 7.5s3.357 7.5 7.5 7.5h35.971v43.085c0 14.422 11.733 26.155 26.155 26.155h15.31c14.422 0 26.155-11.733 26.155-26.155v-43.101c20.179-.321 36.497-16.826 36.497-37.08zm-89.117-37.096v-43.085c0-6.151 5.004-11.155 11.155-11.155h15.31c6.151 0 11.155 5.004 11.155 11.155v43.085zm37.62 117.278c0 6.151-5.004 11.155-11.155 11.155h-15.31c-6.151 0-11.155-5.004-11.155-11.155v-43.085h37.62z" fill="#2115c2"/><path d="m307.867 125.99v162.372c0 29.682-24.068 53.74-53.751 53.74h-192.865c-29.682 0-53.751-24.058-53.751-53.74v-162.372c0-29.682 24.068-53.75 53.751-53.75h192.865c29.682 0 53.751 24.068 53.751 53.75z" fill="#ffff6f"/><path d="m367.912 125.99v162.372c0 29.682-24.068 53.74-53.75 53.74h-60.045c29.682 0 53.751-24.058 53.751-53.74v-162.372c0-29.682-24.068-53.75-53.751-53.75h60.045c29.682 0 53.75 24.068 53.75 53.75z" fill="#ffd600"/><g fill="#f90"><path d="m82.629 342.103v49.164h-16.227c-13.391 0-24.246 10.856-24.246 24.246 0 13.391 10.856 24.246 24.246 24.246h40.473c13.391 0 24.246-10.856 24.246-24.246v-73.411h-48.492z"/><path d="m195.474 342.103v49.164h-16.226c-13.391 0-24.246 10.856-24.246 24.246 0 13.391 10.856 24.246 24.246 24.246h40.473c13.391 0 24.246-10.856 24.246-24.246v-73.411h-48.493z"/><circle cx="208.25" cy="203.084" r="10.729"/></g><g><path d="m180.401 239.501h-45.438c-4.143 0-7.5-3.358-7.5-7.5s3.357-7.5 7.5-7.5h45.438c4.143 0 7.5 3.358 7.5 7.5s-3.357 7.5-7.5 7.5z" fill="#f90"/></g><circle cx="107.116" cy="203.084" fill="#f90" r="10.729"/><g><path d="m106.875 447.26h-40.473c-17.505 0-31.746-14.241-31.746-31.746s14.241-31.746 31.746-31.746h8.727v-37.664c0-4.142 3.357-7.5 7.5-7.5s7.5 3.358 7.5 7.5v45.164c0 4.142-3.357 7.5-7.5 7.5h-16.227c-9.233 0-16.746 7.512-16.746 16.746s7.513 16.746 16.746 16.746h40.473c9.234 0 16.747-7.512 16.747-16.746v-69.411c0-4.142 3.357-7.5 7.5-7.5s7.5 3.358 7.5 7.5v69.411c0 17.505-14.241 31.746-31.747 31.746z" fill="#f95116"/></g><path d="m82.629 342.103h48.493v30.728h-48.493z" fill="#f95116"/><path d="m195.474 342.103h48.493v30.728h-48.493z" fill="#f95116"/><g><path d="m219.721 447.26h-40.474c-17.505 0-31.746-14.241-31.746-31.746s14.241-31.746 31.746-31.746h8.727v-37.664c0-4.142 3.357-7.5 7.5-7.5s7.5 3.358 7.5 7.5v45.164c0 4.142-3.357 7.5-7.5 7.5h-16.227c-9.233 0-16.746 7.512-16.746 16.746s7.513 16.746 16.746 16.746h40.474c9.233 0 16.746-7.512 16.746-16.746v-69.411c0-4.142 3.357-7.5 7.5-7.5s7.5 3.358 7.5 7.5v69.411c0 17.505-14.241 31.746-31.746 31.746z" fill="#f95116"/></g><path d="m314.161 64.74c-4.032 0-249.591 0-252.91 0-33.773 0-61.251 27.476-61.251 61.25v162.373c0 33.768 27.478 61.241 61.251 61.241h252.91c33.773 0 61.251-27.473 61.251-61.241v-162.373c0-33.774-27.477-61.25-61.251-61.25zm-299.161 223.622v-162.372c0-25.502 20.748-46.25 46.251-46.25h192.865c25.457 0 46.25 20.694 46.25 46.25v162.373c0 25.497-20.748 46.241-46.25 46.241h-192.865c-25.503-.001-46.251-20.745-46.251-46.242zm345.412 0c0 25.497-20.748 46.241-46.251 46.241h-19.928c13.435-11.695 21.133-28.567 21.133-46.241v-162.372c0-17.786-7.847-34.728-21.136-46.25h19.931c25.503 0 46.251 20.748 46.251 46.25z" fill="#f90"/></g></svg>