<svg id="Capa_1" enable-background="new 0 0 512 512" height="512" viewBox="0 0 512 512" width="512" xmlns="http://www.w3.org/2000/svg"><g><path d="m336.411 434.844c-.353 8.654-10.095 13.607-17.246 8.721-36.812-25.145-52.629-60.907-59.074-81.865h-8.183c-6.445 20.958-22.262 56.72-59.074 81.865-7.152 4.885-16.893-.068-17.246-8.721l-1.248-30.601-35.812-3.621v52.783c0 28.219 22.876 51.095 51.095 51.095h132.754c28.219 0 51.095-22.876 51.095-51.095v-52.783l-35.812 3.621z" fill="#17d9c3"/><g><path d="m322.377 512h-132.754c-32.31 0-58.596-26.286-58.596-58.595v-49.783c0-4.142 3.357-7.5 7.5-7.5s7.5 3.358 7.5 7.5v49.783c0 24.039 19.557 43.595 43.596 43.595h132.754c24.038 0 43.595-19.557 43.595-43.595v-49.783c0-4.142 3.357-7.5 7.5-7.5s7.5 3.358 7.5 7.5v49.783c0 32.309-26.285 58.595-58.595 58.595z" fill="#007ea8"/></g><path d="m350.023 270.462c-.841.24-1.671.51-2.502.831l-65.234 24.596c-4.943-2.662-10.597-4.183-16.601-4.183h-19.373c-6.004 0-11.658 1.521-16.601 4.183l-65.234-24.596c-.831-.32-1.661-.59-2.502-.831 8.586-12.849 22.565-35.844 34.083-64.533l27.218 15.5c20.284 11.548 45.16 11.548 65.444 0l27.218-15.5c11.519 28.689 25.498 51.685 34.084 64.533z" fill="#17d9c3"/><path d="m246.313 361.7c-10.04 0-19.085-4.234-25.467-11.006l-60.491 14.319c-3.864.915-7.697 1.12-11.384.722-4.647 5.167-9.997 10.276-16.156 15.179-7.791 6.201-4.194 18.705 5.713 19.707l35.812 3.621 1.248 30.601c.353 8.654 10.095 13.607 17.246 8.721 36.812-25.145 52.629-60.907 59.074-81.865h-5.595z" fill="#ff63ed"/><path d="m379.185 380.915c-6.16-4.903-11.509-10.012-16.156-15.179-3.687.397-7.521.192-11.384-.722l-60.491-14.319c-6.382 6.772-15.427 11.006-25.467 11.006h-5.596c6.445 20.958 22.262 56.72 59.074 81.865 7.152 4.885 16.893-.068 17.246-8.721l1.248-30.601 35.812-3.621c9.908-1.003 13.505-13.507 5.714-19.708z" fill="#ff63ed"/><g><path d="m342.146 272.149c-9.075-13.851-22.196-36.099-33.167-63.426-1.543-3.844.322-8.211 4.166-9.754 3.844-1.542 8.21.321 9.754 4.166 10.512 26.183 23.092 47.512 31.794 60.794 2.27 3.465 1.302 8.114-2.163 10.384-3.465 2.269-8.114 1.301-10.384-2.164z" fill="#007ea8"/></g><g><path d="m158.484 275.735c-3.452-2.288-4.396-6.942-2.108-10.395 8.968-13.529 21.924-35.303 32.724-62.205 1.542-3.844 5.912-5.709 9.754-4.166 3.844 1.543 5.709 5.91 4.166 9.754-11.271 28.077-24.787 50.792-34.14 64.904-2.277 3.435-6.926 4.407-10.396 2.108z" fill="#007ea8"/></g><path d="m347.52 271.288-65.232 24.601c10.953 5.913 18.396 17.494 18.396 30.814 0 9.288-3.625 17.725-9.53 23.991l60.491 14.319c21.144 5.005 41.42-11.033 41.42-32.76v-29.464c0-23.533-23.527-39.805-45.545-31.501z" fill="#ff63ed"/><path d="m211.316 326.704c0-13.32 7.443-24.901 18.396-30.814l-65.232-24.601c-22.019-8.304-45.545 7.968-45.545 31.5v29.464c0 21.728 20.277 37.765 41.42 32.76l60.491-14.319c-5.905-6.265-9.53-14.702-9.53-23.99z" fill="#ff63ed"/><path d="m265.687 291.707h-19.374c-19.328 0-34.996 15.668-34.996 34.996 0 19.328 15.668 34.996 34.996 34.996h19.374c19.328 0 34.996-15.668 34.996-34.996 0-19.327-15.668-34.996-34.996-34.996z" fill="#ff9bff"/><path d="m400.565 332.252v-29.464c0-13.514-6.636-26.17-17.75-33.857-11.113-7.687-25.297-9.429-37.942-4.661l-62.239 23.472c-5.196-2.269-10.925-3.536-16.948-3.536h-19.374c-6.022 0-11.752 1.267-16.948 3.536l-62.239-23.473c-12.645-4.768-26.827-3.026-37.942 4.661-11.113 7.687-17.749 20.344-17.749 33.857v29.464c0 16.152 9.249 30.308 23.335 37.112-2.141 1.955-4.341 3.862-6.626 5.682-13.025 10.367-6.962 31.359 9.629 33.037l29.339 2.966.982 24.1c.59 14.396 16.842 22.893 28.971 14.608 34.036-23.249 50.929-55.302 58.935-76.813 8.008 21.511 24.901 53.565 58.935 76.813 12.148 8.298 28.384-.239 28.971-14.609l.982-24.1 29.339-2.966c16.636-1.682 22.629-22.69 9.63-33.037-2.285-1.819-4.485-3.727-6.626-5.682 14.077-6.797 23.335-20.946 23.335-37.11zm-274.13 0v-29.464c0-8.718 4.112-16.562 11.282-21.521 7.017-4.854 15.791-6.102 24.116-2.962l52.901 19.951c-7.014 7.784-10.918 17.968-10.918 28.447 0 6.822 1.714 13.567 4.593 19.227l-49.782 11.784c-16.436 3.902-32.192-8.57-32.192-25.462zm62.169 105.12c-2.311 1.579-5.41-.082-5.521-2.834l-1.248-30.601c-.152-3.73-3.025-6.781-6.739-7.156l-35.813-3.621c-3.247-.329-4.324-4.365-1.797-6.377 5.201-4.141 10.097-8.623 14.59-13.357 1.779.073 6.161-.202 10.007-1.114l56.543-13.384c6.165 5.282 13.969 8.888 22.438 9.937.143.018.285.041.429.058-7.447 19.519-22.759 47.868-52.889 68.449zm57.709-83.172c-15.222 0-27.496-12.407-27.496-27.496 0-15.159 12.349-27.497 27.496-27.497h19.374c15.143 0 27.497 12.33 27.497 27.497 0 15.32-12.487 27.496-27.497 27.496-7.01 0-12.364 0-19.374 0zm126.404 38.96-35.813 3.621c-3.714.375-6.587 3.426-6.739 7.156l-1.248 30.602c-.112 2.762-3.221 4.406-5.521 2.833-30.129-20.58-45.441-48.929-52.888-68.45.148-.017.295-.041.442-.06 8.558-1.063 16.342-4.722 22.424-9.935l56.543 13.384c3.791.898 8.142 1.189 10.008 1.114 4.495 4.736 9.391 9.219 14.59 13.357 2.529 2.014 1.447 6.049-1.798 6.378zm-10.488-34.882c-.001 0-.002 0-.003 0-2.975.319-6.066.097-8.854-.564l-49.781-11.784c2.883-5.669 4.593-12.463 4.593-19.227 0-10.325-3.813-20.562-10.919-28.447l52.901-19.951c8.155-3.076 16.946-1.997 24.117 2.962 7.17 4.959 11.282 12.803 11.282 21.521v29.464c0 13.785-10.505 24.648-23.336 26.026z" fill="#e207b9"/><path d="m315.94 205.929-27.218 15.5c-20.284 11.548-45.16 11.548-65.444 0l-27.218-15.5c11.508-28.669 20.544-63.032 19.263-98.626 3.532 2.622 7.905 4.183 12.648 4.183h56.058c4.743 0 9.116-1.561 12.648-4.183-1.281 35.594 7.755 69.957 19.263 98.626z" fill="#ffd600"/><path d="m275.16 7.5h-38.321c-16.666 0-30.176 13.51-30.176 30.176v52.511c0 11.765 9.538 21.303 21.303 21.303h56.067c11.765 0 21.303-9.538 21.303-21.303v-52.511c0-16.666-13.51-30.176-30.176-30.176z" fill="#ffff6f"/><path d="m322.899 203.135c-13.01-32.416-19.313-63.451-18.794-92.32 5.38-5.236 8.73-12.546 8.73-20.628v-52.511c.001-20.775-16.9-37.676-37.675-37.676h-38.321c-20.774 0-37.676 16.901-37.676 37.676v52.511c0 8.082 3.351 15.393 8.73 20.628.52 28.87-5.782 59.905-18.794 92.32-1.396 3.479-.01 7.456 3.248 9.311l27.219 15.501c11.237 6.397 23.835 9.595 36.434 9.595 12.598 0 25.196-3.199 36.434-9.596l27.218-15.5c3.257-1.855 4.644-5.831 3.247-9.311zm-108.736-165.459c0-12.503 10.172-22.676 22.676-22.676h38.321c12.504 0 22.676 10.172 22.676 22.676v52.511c0 7.476-6.093 13.799-13.808 13.799h-56.058c-7.56 0-13.808-6.168-13.808-13.799v-52.511zm70.848 177.236c-17.896 10.188-40.13 10.188-58.021 0l-21.59-12.294c11.043-29.171 16.908-57.374 17.495-84.077 1.732.3 3.568.449 5.07.449h56.067c1.617 0 3.535-.175 5.071-.449.587 26.703 6.452 54.906 17.494 84.077z" fill="#f95116"/></g></svg>