<svg id="Capa_1" enable-background="new 0 0 512 512" height="512" viewBox="0 0 512 512" width="512" xmlns="http://www.w3.org/2000/svg"><g><path d="m163.188 440.107c-6.005-2.902-9.861-8.938-9.861-15.607v-114.512c-4.59 3.217-10.175 5.111-16.205 5.111h-11.125c-6.03 0-11.615-1.894-16.205-5.111v114.512c0 6.67-3.856 12.705-9.861 15.607-9.744 4.71-24.871 14.151-36.728 31.153-9.773 14.013.352 33.24 17.436 33.24h101.841c17.084 0 27.209-19.228 17.436-33.24-11.858-17.002-26.984-26.443-36.728-31.153z" fill="#88f8d8"/><g><path d="m182.479 512h-101.84c-23.123 0-36.817-26.063-23.588-45.03 12.58-18.038 28.487-28.236 39.616-33.615 3.47-1.677 5.625-5.07 5.625-8.854v-111.513c0-4.142 3.357-7.5 7.5-7.5s7.5 3.358 7.5 7.5v111.512c0 9.444-5.534 18.221-14.098 22.36-9.518 4.6-23.115 13.312-33.841 28.69-6.309 9.047.237 21.45 11.286 21.45h101.841c11.071 0 17.581-12.422 11.285-21.45-10.726-15.379-24.323-24.09-33.841-28.69-8.563-4.139-14.098-12.916-14.098-22.36v-111.512c0-4.142 3.357-7.5 7.5-7.5s7.5 3.358 7.5 7.5v111.512c0 3.785 2.155 7.178 5.625 8.854 11.129 5.379 27.036 15.577 39.616 33.615 13.226 18.963-.459 45.031-23.588 45.031z" fill="#007ea8"/></g><path d="m225.728 123.36c-1.968 50.45-13.805 95.329-31.626 126.914-2.359.131-4.749.582-7.128 1.436l-33.513 11.947c-4.598-3.213-10.18-5.11-16.214-5.11h-11.124c-3.012 0-5.913.472-8.644 1.345-2.721.884-5.271 2.159-7.56 3.765l-33.514-11.947c-2.379-.853-4.769-1.305-7.128-1.436-19.006-33.693-31.204-82.497-31.887-137.064 67.237-27.63 100.138 37.359 188.338 10.15z" fill="#ffd600"/><path d="m225.899 108.311c0 5.07-.1 10.09-.301 15.05-88.2 27.208-121.101-37.78-188.338-10.15-.03-1.626-.04-3.263-.04-4.899 0-24.768 2.369-48.422 6.677-70.109 3.563-17.892 19.396-30.703 37.648-30.703h100.028c18.253 0 34.085 12.811 37.65 30.702 4.307 21.686 6.676 45.34 6.676 70.109z" fill="#88f8d8"/><g><path d="m225.669 129.13c-.091 0-.181-.002-.271-.005-4.14-.147-7.376-3.622-7.229-7.762.153-4.305.23-8.697.23-13.053 0-23.722-2.198-46.818-6.533-68.648-2.847-14.288-15.587-24.662-30.293-24.662h-100.028c-14.706 0-27.446 10.374-30.294 24.667-4.334 21.825-6.532 44.921-6.532 68.643 0 .907.004 1.814.012 2.719.035 4.142-3.295 7.528-7.437 7.563-.021 0-.043 0-.064 0-4.113 0-7.464-3.316-7.499-7.437-.008-.947-.012-1.896-.012-2.845 0-24.701 2.295-48.78 6.82-71.57 4.242-21.29 23.169-36.74 45.006-36.74h100.028c21.837 0 40.764 15.45 45.005 36.736 4.526 22.794 6.821 46.873 6.821 71.574 0 4.533-.081 9.104-.24 13.586-.143 4.049-3.472 7.234-7.49 7.234z" fill="#007ea8"/></g><circle cx="175.394" cy="173.082" fill="#f90" r="9.301"/><g><path d="m151.253 205.65h-39.388c-4.143 0-7.5-3.358-7.5-7.5s3.357-7.5 7.5-7.5h39.388c4.143 0 7.5 3.358 7.5 7.5s-3.358 7.5-7.5 7.5z" fill="#f90"/></g><circle cx="87.724" cy="173.082" fill="#f90" r="9.301"/><g><path d="m191.658 254.784c-3.635-1.985-4.973-6.542-2.988-10.177 15.968-29.243 26.153-68.432 29.02-111.249-42.306 10.297-72.298.081-98.99-9.01-24.626-8.387-46.072-15.694-73.707-6.011 1.288 48.036 12.007 93.767 29.655 126.157 1.981 3.637.64 8.193-2.997 10.174-3.64 1.982-8.193.639-10.175-2.997-19.704-36.163-30.922-85.303-31.585-138.368-.039-3.075 1.804-5.862 4.648-7.031 35.172-14.453 61.316-5.55 88.996 3.876 27.94 9.516 56.833 19.355 99.982 6.044 4.937-1.522 9.906 2.294 9.705 7.459-1.914 49.073-13.062 94.582-31.387 128.143-1.987 3.642-6.545 4.973-10.177 2.99z" fill="#f90"/></g><g fill="#b98eff"><path d="m186.84 251.708-33.514 11.95c7.296 5.113 12.07 13.579 12.07 23.165 0 9.586-4.775 18.051-12.07 23.165l33.514 11.95c16.408 5.85 33.661-6.315 33.661-23.734v-22.76c0-17.421-17.253-29.586-33.661-23.736z"/><path d="m97.721 286.823c0-9.586 4.775-18.051 12.07-23.165l-33.514-11.95c-16.408-5.85-33.661 6.315-33.661 23.734v22.76c0 17.42 17.253 29.585 33.661 23.734l33.514-11.95c-7.295-5.112-12.07-13.577-12.07-23.163z"/><path d="m137.122 258.548h-11.125c-15.616 0-28.275 12.659-28.275 28.275 0 15.616 12.659 28.275 28.275 28.275h11.125c15.616 0 28.275-12.659 28.275-28.275 0-15.616-12.659-28.275-28.275-28.275z"/></g><path d="m412.07 440.107c-6.005-2.902-9.861-8.938-9.861-15.607v-114.512c-4.59 3.217-10.175 5.111-16.205 5.111h-11.125c-6.03 0-11.615-1.894-16.205-5.111v114.512c0 6.67-3.856 12.705-9.861 15.607-9.744 4.71-24.871 14.151-36.728 31.153-9.773 14.013.352 33.24 17.436 33.24h101.841c17.084 0 27.209-19.228 17.436-33.24-11.857-17.002-26.983-26.443-36.728-31.153z" fill="#88f8d8"/><g><path d="m431.362 512h-101.841c-23.123 0-36.817-26.063-23.588-45.03 12.581-18.04 28.487-28.237 39.616-33.615 3.469-1.677 5.624-5.069 5.624-8.854v-111.513c0-4.142 3.357-7.5 7.5-7.5s7.5 3.358 7.5 7.5v111.512c0 9.445-5.533 18.221-14.097 22.36-9.518 4.6-23.114 13.311-33.841 28.69-6.309 9.047.236 21.45 11.285 21.45h101.841c11.089 0 17.567-12.441 11.284-21.449-10.725-15.379-24.322-24.091-33.84-28.691-8.563-4.139-14.098-12.916-14.098-22.36v-111.512c0-4.142 3.357-7.5 7.5-7.5s7.5 3.358 7.5 7.5v111.512c0 3.785 2.155 7.178 5.625 8.854 11.129 5.379 27.036 15.577 39.615 33.615 13.228 18.961-.453 45.031-23.585 45.031z" fill="#007ea8"/></g><path d="m474.611 123.36c-1.968 50.45-13.805 95.329-31.626 126.914-2.359.131-4.749.582-7.128 1.436l-33.513 11.947c-4.598-3.213-10.18-5.11-16.214-5.11h-11.124c-3.012 0-5.913.472-8.644 1.345-2.721.884-5.271 2.159-7.56 3.765l-33.513-11.947c-2.379-.853-4.769-1.305-7.128-1.436-19.006-33.694-31.204-82.498-31.887-137.065 67.236-27.629 100.136 37.36 188.337 10.151z" fill="#ffd600"/><path d="m474.782 108.311c0 5.07-.1 10.09-.301 15.05-88.201 27.208-121.101-37.78-188.339-10.15-.03-1.626-.04-3.263-.04-4.899 0-24.768 2.369-48.422 6.677-70.109 3.563-17.892 19.396-30.703 37.649-30.703h100.028c18.253 0 34.085 12.811 37.65 30.702 4.306 21.686 6.676 45.34 6.676 70.109z" fill="#88f8d8"/><g><path d="m474.551 129.13c-.091 0-.182-.002-.273-.005-4.139-.148-7.375-3.624-7.227-7.763.153-4.277.23-8.669.23-13.052 0-23.725-2.197-46.822-6.532-68.648-2.847-14.288-15.588-24.662-30.294-24.662h-100.027c-14.706 0-27.446 10.374-30.294 24.667-4.334 21.825-6.532 44.921-6.532 68.643 0 .907.004 1.814.012 2.719.034 4.142-3.295 7.528-7.437 7.563-4.122.03-7.528-3.294-7.563-7.437-.008-.947-.012-1.896-.012-2.845 0-24.701 2.295-48.78 6.82-71.57 4.242-21.29 23.169-36.74 45.006-36.74h100.027c21.837 0 40.765 15.45 45.006 36.736 4.526 22.791 6.82 46.87 6.82 71.574 0 4.561-.081 9.132-.24 13.588-.145 4.048-3.473 7.232-7.49 7.232z" fill="#007ea8"/></g><circle cx="424.277" cy="173.082" fill="#f90" r="9.301"/><g><path d="m400.136 205.65h-39.389c-4.143 0-7.5-3.358-7.5-7.5s3.357-7.5 7.5-7.5h39.389c4.143 0 7.5 3.358 7.5 7.5s-3.358 7.5-7.5 7.5z" fill="#f90"/></g><circle cx="336.606" cy="173.082" fill="#f90" r="9.301"/><g><path d="m440.541 254.784c-3.635-1.985-4.973-6.542-2.988-10.177 15.968-29.243 26.153-68.432 29.02-111.249-42.304 10.296-72.299.081-98.99-9.01-24.626-8.387-46.071-15.694-73.707-6.011 1.288 48.038 12.007 93.769 29.655 126.157 1.981 3.637.64 8.192-2.997 10.174-3.64 1.982-8.193.64-10.175-2.997-19.704-36.161-30.922-85.301-31.585-138.368-.039-3.075 1.804-5.862 4.648-7.031 35.176-14.455 61.317-5.55 88.995 3.876 27.941 9.516 56.834 19.355 99.983 6.044 4.937-1.522 9.906 2.294 9.705 7.459-1.914 49.073-13.062 94.582-31.387 128.143-1.988 3.642-6.545 4.973-10.177 2.99z" fill="#f90"/></g><g fill="#b98eff"><path d="m435.723 251.708-33.514 11.95c7.296 5.113 12.07 13.579 12.07 23.165 0 9.586-4.775 18.051-12.07 23.165l33.514 11.95c16.408 5.85 33.661-6.315 33.661-23.734v-22.76c0-17.421-17.253-29.586-33.661-23.736z"/><path d="m346.604 286.823c0-9.586 4.775-18.051 12.07-23.165l-33.514-11.95c-16.408-5.85-33.661 6.315-33.661 23.734v22.76c0 17.42 17.253 29.585 33.661 23.734l33.514-11.95c-7.296-5.112-12.07-13.577-12.07-23.163z"/><path d="m386.004 258.548h-11.125c-15.616 0-28.275 12.659-28.275 28.275 0 15.616 12.659 28.275 28.275 28.275h11.125c15.616 0 28.275-12.659 28.275-28.275 0-15.616-12.659-28.275-28.275-28.275z"/></g><g fill="#6d00ca"><path d="m184.322 244.644-30.133 10.744c-5.075-2.767-10.891-4.34-17.067-4.34h-11.126c-6.176 0-11.991 1.574-17.067 4.34l-30.133-10.744c-21.266-7.584-43.679 8.219-43.679 30.799v22.76c0 22.572 22.418 38.381 43.679 30.798l30.133-10.744c5.075 2.767 10.891 4.34 17.067 4.34h11.126c6.176 0 11.992-1.574 17.067-4.34l30.133 10.744c21.264 7.585 43.679-8.218 43.679-30.798v-22.76c0-22.577-22.411-38.384-43.679-30.799zm-110.563 70.229c-11.54 4.114-23.642-4.418-23.642-16.67v-22.76c0-12.246 12.099-20.785 23.642-16.67l22.586 8.053c-.452.964-6.123 7.676-6.123 19.997 0 11.287 5.899 19.52 6.123 19.997zm52.237-7.275c-11.619 0-20.774-9.521-20.774-20.775 0-11.391 9.285-20.775 20.774-20.775h11.126c11.539 0 20.774 9.42 20.774 20.775 0 11.434-9.323 20.775-20.774 20.775zm87.005-9.395c0 12.232-12.086 20.79-23.642 16.67l-22.586-8.053c.223-.51 6.123-8.12 6.123-19.997 0-11.815-5.951-19.66-6.123-19.997l22.586-8.053c11.52-4.11 23.642 4.403 23.642 16.67z"/><path d="m433.204 244.644-30.133 10.744c-5.076-2.767-10.891-4.34-17.067-4.34h-11.125c-6.176 0-11.992 1.574-17.067 4.34l-30.133-10.744c-21.267-7.583-43.679 8.219-43.679 30.799v22.76c0 10.616 5.18 20.606 13.855 26.723 5.584 3.937 12.189 5.971 18.856 5.971 3.691 0 7.403-.625 10.967-1.896l30.133-10.744c5.076 2.767 10.891 4.341 17.067 4.341h11.125c6.176 0 11.992-1.574 17.067-4.341l30.133 10.744c21.266 7.586 43.68-8.218 43.68-30.798v-22.76c.001-22.579-22.412-38.384-43.679-30.799zm-110.562 70.229c-5.495 1.959-11.377 1.154-16.143-2.206s-7.499-8.632-7.499-14.464v-22.76c0-12.246 12.099-20.785 23.642-16.67l22.585 8.053c-3.88 5.935-6.123 12.499-6.123 19.997 0 6.823 2.043 14.013 6.123 19.997zm52.237-7.275c-11.462 0-20.775-9.349-20.775-20.775 0-11.168 9.051-20.775 20.775-20.775h11.125c11.459 0 20.775 9.348 20.775 20.775 0 11.435-9.323 20.775-20.775 20.775zm87.005-9.395c0 12.237-12.091 20.788-23.643 16.67l-22.585-8.053c3.948-5.79 6.123-12.903 6.123-19.997 0-7.258-2.102-13.848-6.123-19.997l22.585-8.053c11.538-4.114 23.643 4.418 23.643 16.67z"/></g></g></svg>