<svg id="Capa_1" enable-background="new 0 0 511.976 511.976" height="512" viewBox="0 0 511.976 511.976" width="512" xmlns="http://www.w3.org/2000/svg"><g><path d="m417.745 248.609c6.736 53.457 8.174 110.604 8.234 148.166h39.492c.07-49.064 2.493-131.537 16.036-195.551-15.58 16.555-27.589 17.535-63.762 47.385z" fill="#565eec"/><path d="m425.768 424.253c-.141 8.073 6.354 14.679 14.428 14.679h11.059c8.073 0 14.568-6.605 14.428-14.679-.121-7.068-.231-16.428-.211-27.478h-39.492c.02 11.05-.091 20.41-.212 27.478z" fill="#565eec"/><path d="m503.315 128.423c-10.486-65.763-101.224-75.918-126.49-14.297-42.321 103.244-129.079 274.493-228.638 242.29-13.311-4.305-27.615-4.457-40.852.07l-80.783 27.631c-5.701 1.951-10.457 5.6-13.794 10.275-.553.764-1.065 1.558-1.528 2.383-2.393 4.162-3.73 8.958-3.73 13.995 0 15.554 12.608 28.161 28.171 28.161h199.14c31.53 0 60.124-16.328 76.592-42.157 3.609-5.65 6.636-11.753 8.978-18.238 20.37-56.282 60.234-99.575 97.363-129.928 36.705-30.288 48.196-30.845 63.763-47.385 17.55-18.788 26.356-44.707 21.808-72.8z" fill="#a4bcff"/><path d="m472.972 396.786c.146-101.828 9.561-163.405 15.462-192.034 18.76-21.029 26.878-49.156 22.284-77.527-5.31-33.248-30.431-57.247-64.005-61.142-33.815-3.922-63.962 13.82-76.827 45.199-20.12 49.083-52.393 118.46-91.879 170.234-44.25 58.019-87.147 80.819-127.512 67.764-15.222-4.923-30.986-4.884-45.586.11l-80.784 27.631c-14.947 5.115-24.125 19.065-24.125 33.749 0 19.664 16.002 35.662 35.672 35.662h199.14c33.705 0 64.701-17.056 82.912-45.619 3.948-6.181 7.216-12.818 9.711-19.723 15.395-42.538 43.789-82.079 84.485-117.718 5.272 48.591 6.503 98.664 6.56 133.416s0 0 0 .001c.017 9.091-.052 18.032-.21 27.333-.214 12.275 9.648 22.309 21.927 22.309h11.059c12.271 0 22.141-10.029 21.927-22.306-.158-9.303-.227-18.245-.21-27.336v-.001s-.001-.001-.001-.002zm-21.717 34.646h-11.059c-3.882 0-6.997-3.163-6.929-7.048 0-.001 0-.002 0-.003.116-6.828.185-13.464.206-20.105h24.504c.021 6.642.09 13.279.206 20.108.069 3.881-3.041 7.048-6.928 7.048zm6.744-42.157h-24.549c-.234-37.131-1.854-88.563-7.755-137.479 21.742-17.616 33.946-24.088 44.58-31.34-5.494 32.982-11.796 88.079-12.276 168.819zm12.875-188.158c-12.305 10.891-25.612 15.062-57.876 41.686-48.502 39.649-82.035 84.458-99.67 133.187-2.119 5.867-4.894 11.502-8.249 16.754-15.445 24.226-41.714 38.688-70.268 38.688h-199.139c-11.399 0-20.672-9.269-20.672-20.662 0-8.524 5.345-16.601 13.979-19.557l80.784-27.631c11.512-3.938 24.006-3.948 36.115-.03 9.026 2.919 18.098 4.376 27.217 4.375 38.434-.002 77.62-25.894 116.838-77.316 40.479-53.075 73.368-123.722 93.831-173.641 12.448-30.361 40.761-38.362 61.22-35.989 20.29 2.354 45.802 16.5 50.924 48.622.001.006.002.012.003.018 4.476 27.649-4.921 53.615-25.037 71.496z" fill="#2115c2"/></g></svg>