<svg id="Capa_1" enable-background="new 0 0 511.996 511.996" height="512" viewBox="0 0 511.996 511.996" width="512" xmlns="http://www.w3.org/2000/svg"><g><path d="m294.409 354.391v120.992c0 16.079 13.033 29.112 29.112 29.112h114.611c16.089 0 29.122-13.033 29.122-29.112v-120.992c-9.218 0-17.717-5.013-22.171-13.093l-64.247-116.348-64.246 116.348c-4.464 8.08-12.963 13.093-22.181 13.093z" fill="#17d9c3"/><path d="m24.77 354.391v120.992c0 16.079 13.033 29.112 29.112 29.112h269.639c-16.079 0-29.112-13.033-29.112-29.112v-120.992zm82.023 85.289c0-13.193 7.091-25.367 18.566-31.878l19.854-11.265c8.918-5.063 19.834-5.063 28.753 0l19.854 11.265c11.475 6.511 18.556 18.686 18.556 31.878v26.476h-105.583z" fill="#88f8d8"/><g fill="#b98eff"><path d="m360.816 363.102 10.211-15.022c4.704-6.92 14.902-6.92 19.606 0l10.211 15.022c9.96 14.653 15.285 31.961 15.285 49.679v91.719h-70.598v-91.719c0-17.717 5.325-35.026 15.285-49.679z"/><path d="m106.793 439.68v26.476h105.583v-26.476c0-13.193-7.081-25.367-18.556-31.878l-19.854-11.265c-8.918-5.063-19.834-5.063-28.753 0l-19.854 11.265c-11.475 6.511-18.566 18.685-18.566 31.878z"/><path d="m303.239 154.656v-59.653h-24.856c-7.718 0-13.974-6.257-13.974-13.974v-15.6c0-7.718 6.257-13.974 13.974-13.974h24.856v-29.98c0-7.718 6.257-13.974 13.974-13.974h15.6c7.718 0 13.974 6.257 13.974 13.974v29.98h24.856c7.718 0 13.974 6.257 13.974 13.974v15.6c0 7.718-6.257 13.974-13.974 13.974h-24.856v59.649z"/></g><path d="m24.77 354.391h269.639c9.218 0 17.717-5.013 22.181-13.093l64.246-116.349 64.246 116.349c4.454 8.079 12.953 13.093 22.171 13.093h19.964c9.088 0 14.851-9.757 10.456-17.717l-82.881-150.084c-10.876-19.704-31.609-31.938-54.11-31.938h-209.377c-22.501 0-43.234 12.234-54.11 31.938l-82.872 150.084c-4.394 7.96 1.359 17.717 10.447 17.717z" fill="#f90"/><g><path d="m416.128 509c-4.143 0-7.5-3.358-7.5-7.5v-88.719c0-16.279-4.837-32-13.988-45.463l-10.211-15.022c-1.169-1.72-2.906-1.906-3.6-1.906s-2.431.186-3.6 1.906l-10.211 15.022c-9.151 13.463-13.988 29.183-13.988 45.462v88.72c0 4.142-3.357 7.5-7.5 7.5s-7.5-3.358-7.5-7.5v-88.719c0-19.298 5.734-37.935 16.582-53.895l10.211-15.022c3.606-5.306 9.59-8.474 16.006-8.474s12.399 3.168 16.006 8.474l10.211 15.022c10.848 15.96 16.582 34.597 16.582 53.895v88.719c0 4.142-3.357 7.5-7.5 7.5z" fill="#6d00ca"/></g><path d="m467.253 349.891c-4.143 0-7.5 3.358-7.5 7.5v117.993c0 11.917-9.699 21.612-21.622 21.612h-114.61c-11.917 0-21.612-9.695-21.612-21.612v-117.993c0-4.142-3.357-7.5-7.5-7.5s-7.5 3.358-7.5 7.5v117.993c0 7.758 2.483 15.352 7.076 21.612h-240.103c-11.917 0-21.612-9.695-21.612-21.612v-117.993c0-4.142-3.357-7.5-7.5-7.5s-7.5 3.358-7.5 7.5v117.993c0 20.188 16.424 36.612 36.612 36.612h384.249c20.193 0 36.622-16.424 36.622-36.612v-117.993c0-4.142-3.357-7.5-7.5-7.5z" fill="#007ea8"/><circle cx="141.271" cy="247.421" fill="#f95116" r="11.372"/><g><path d="m218.949 285.572h-48.16c-4.143 0-7.5-3.358-7.5-7.5s3.357-7.5 7.5-7.5h48.16c4.143 0 7.5 3.358 7.5 7.5s-3.358 7.5-7.5 7.5z" fill="#f95116"/></g><circle cx="248.466" cy="247.421" fill="#f95116" r="11.372"/><g><path d="m212.375 473.656h-105.582c-4.143 0-7.5-3.358-7.5-7.5v-26.476c0-15.859 8.569-30.573 22.364-38.401l19.854-11.266c11.15-6.331 25.006-6.33 36.156.001l19.853 11.264c13.789 7.825 22.354 22.539 22.354 38.402v26.476c.001 4.142-3.356 7.5-7.499 7.5zm-98.082-15h90.582v-18.976c0-10.474-5.654-20.19-14.757-25.355l-19.854-11.265c-6.585-3.739-14.763-3.739-21.348-.001l-19.856 11.267c-9.108 5.168-14.767 14.884-14.767 25.355z" fill="#6d00ca"/></g><g><path d="m303.239 159.156c-4.143 0-7.5-3.358-7.5-7.5v-49.153h-17.355c-11.841 0-21.475-9.633-21.475-21.474v-15.6c0-11.841 9.634-21.474 21.475-21.474h17.355v-22.481c0-11.841 9.633-21.474 21.474-21.474h15.6c11.841 0 21.475 9.633 21.475 21.474v22.479h17.355c11.841 0 21.475 9.633 21.475 21.474v15.6c0 11.841-9.634 21.474-21.475 21.474h-17.355v49.148c0 4.142-3.357 7.5-7.5 7.5s-7.5-3.358-7.5-7.5v-56.646c0-4.142 3.357-7.5 7.5-7.5h24.855c3.57 0 6.475-2.904 6.475-6.474v-15.6c0-3.57-2.904-6.474-6.475-6.474h-24.855c-4.143 0-7.5-3.358-7.5-7.5v-29.981c0-3.57-2.904-6.474-6.475-6.474h-15.6c-3.57 0-6.475 2.904-6.475 6.474v29.979c0 4.142-3.357 7.5-7.5 7.5h-24.855c-3.57 0-6.475 2.904-6.475 6.474v15.6c0 3.57 2.904 6.474 6.475 6.474h24.855c4.143 0 7.5 3.358 7.5 7.5v56.653c.001 4.144-3.357 7.502-7.499 7.502z" fill="#6d00ca"/></g><g><path d="m487.217 361.891h-19.964c-11.956 0-22.968-6.503-28.739-16.972l-57.678-104.454-57.682 104.458c-5.782 10.467-16.797 16.968-28.746 16.968h-269.638c-6.947 0-13.203-3.573-16.735-9.557-3.534-5.988-3.638-13.197-.276-19.285l82.871-150.085c12.192-22.09 35.442-35.813 60.675-35.813h209.377c25.233 0 48.483 13.723 60.676 35.814l82.882 150.083c3.359 6.086 3.255 13.293-.279 19.281s-9.794 9.562-16.744 9.562zm-106.381-144.441c2.73 0 5.246 1.484 6.565 3.875l64.246 116.348c3.136 5.688 9.114 9.218 15.605 9.218h19.964c2.288 0 3.438-1.529 3.826-2.187.388-.657 1.171-2.402.064-4.406l-82.882-150.083c-9.555-17.311-27.771-28.064-47.544-28.064h-209.375c-19.771 0-37.989 10.753-47.543 28.063l-82.873 150.086c-1.107 2.007-.325 3.753.063 4.41.387.656 1.534 2.181 3.817 2.181h269.639c6.49 0 12.474-3.533 15.616-9.22l64.246-116.347c1.321-2.39 3.836-3.874 6.566-3.874z" fill="#f95116"/></g></g></svg>