<svg id="Capa_1" enable-background="new 0 0 512 512" height="512" viewBox="0 0 512 512" width="512" xmlns="http://www.w3.org/2000/svg"><g><path d="m40.384 353.123v108.954c0 12.018 8.657 21.761 19.336 21.761h25.873c10.679 0 19.335-9.743 19.335-21.761v-108.954z" fill="#f90"/><path d="m407.074 353.123v108.954c0 12.018 8.657 21.761 19.336 21.761h25.873c10.678 0 19.335-9.743 19.335-21.761v-108.954z" fill="#f90"/><g fill="#ffd600"><path d="m103.469 282.976h-68.085c-15.4 0-27.884 12.484-27.884 27.884v14.378c0 15.4 12.484 27.884 27.884 27.884h132.31z"/><path d="m476.616 282.976h-68.085l-64.227 70.147h132.312c15.4 0 27.884-12.484 27.884-27.884v-14.379c0-15.4-12.485-27.884-27.884-27.884z"/></g><path d="m164.694 345.623c-32.007 0-98.565 0-129.31 0-11.24 0-20.385-9.145-20.385-20.384v-14.379c0-11.24 9.145-20.384 20.385-20.384h63.086c4.143 0 7.5-3.358 7.5-7.5s-3.357-7.5-7.5-7.5h-63.085c-19.511 0-35.385 15.873-35.385 35.384v14.378c0 18.669 14.537 33.997 32.884 35.286v101.552c0 16.135 12.038 29.261 26.836 29.261h25.873c14.797 0 26.835-13.126 26.835-29.261v-101.453h52.267c4.143 0 7.5-3.358 7.5-7.5s-3.358-7.5-7.501-7.5zm-67.266 116.453c0 7.863-5.31 14.261-11.835 14.261h-25.873c-6.526 0-11.836-6.397-11.836-14.261v-101.453h49.544z" fill="#f95116"/><path d="m476.615 275.476h-63.085c-4.143 0-7.5 3.358-7.5 7.5s3.357 7.5 7.5 7.5h63.085c11.24 0 20.385 9.144 20.385 20.384v14.378c0 11.24-9.145 20.384-20.385 20.384-12.516 0-110.445 0-129.312 0-4.143 0-7.5 3.358-7.5 7.5s3.357 7.5 7.5 7.5h52.271v101.454c0 16.135 12.038 29.261 26.836 29.261h25.873c14.797 0 26.835-13.126 26.835-29.261v-101.552c18.346-1.29 32.882-16.618 32.882-35.286v-14.378c0-19.511-15.874-35.384-35.385-35.384zm-12.497 186.6c0 7.863-5.31 14.261-11.835 14.261h-25.873c-6.526 0-11.836-6.397-11.836-14.261v-101.453h49.544z" fill="#f95116"/><path d="m103.469 282.976 112.58 122.959c21.471 23.45 58.427 23.45 79.898.001l112.583-122.96z" fill="#ff63ed"/><g><path d="m210.519 411-111.445-121.719c-2.798-3.055-2.589-7.799.467-10.596 3.055-2.797 7.8-2.588 10.596.467l111.444 121.719c18.37 20.063 50.173 20.382 68.835 0l110.862-121.08c2.797-3.055 7.542-3.264 10.596-.467 3.056 2.797 3.265 7.541.467 10.596l-110.862 121.08c-24.406 26.657-66.494 26.723-90.96 0z" fill="#e207b9"/></g><path d="m408.531 226.233h-305.062c-15.669 0-28.372 12.702-28.372 28.372 0 15.669 12.702 28.372 28.372 28.372h305.062c15.669 0 28.372-12.702 28.372-28.372-.001-15.67-12.703-28.372-28.372-28.372z" fill="#a4bcff"/><path d="m408.532 226.229h-305.062c0-70.73 50.401-129.701 117.258-142.946 9.21-1.822 18.724-2.777 28.466-2.777h13.614c9.742 0 19.256.955 28.466 2.777 28.824 5.706 54.588 19.917 74.581 39.91 26.372 26.372 42.677 62.8 42.677 103.036z" fill="#7181ff"/><path d="m301.536 59.872-10.262 23.41c-9.21-1.822-18.724-2.777-28.466-2.777h-13.614c-9.742 0-19.256.955-28.466 2.777l-10.273-23.41c-6.552-14.949 4.404-31.709 20.72-31.709h49.641c16.327 0 27.283 16.761 20.72 31.709z" fill="#a4bcff"/><g fill="#2115c2"><circle cx="301.925" cy="148.367" r="9.744"/><circle cx="210.075" cy="148.367" r="9.744"/><g><path d="m415.879 219.492c-1.65-38.397-17.377-74.259-44.72-101.603-19.358-19.358-43.201-33.009-69.391-39.865l6.637-15.142c8.734-19.898-5.866-42.22-27.589-42.22h-49.642c-21.692 0-36.321 22.297-27.588 42.223l6.638 15.126c-64.577 16.929-111.164 74.507-114.106 141.48-16.266 3.4-28.521 17.85-28.521 35.112 0 19.779 16.092 35.871 35.871 35.871h305.062c19.78 0 35.872-16.092 35.872-35.872 0-17.259-12.256-31.709-28.523-35.11zm-184.704-183.829h49.642c10.914 0 18.256 11.165 13.853 21.194-.001.001-.001.003-.002.004l-7.894 18.008c-16.482-2.579-44.932-2.608-61.546 0l-7.903-18.009c-4.361-9.946 2.863-21.197 13.85-21.197zm-8.99 54.977c18.364-3.634 49.236-3.64 67.634 0h.004c26.816 5.31 51.274 18.4 70.729 37.855 24.329 24.329 38.472 56.131 40.282 90.233h-289.66c3.396-62.589 49.032-115.809 111.011-128.088zm186.345 184.836h-305.061c-11.509 0-20.871-9.363-20.871-20.872 0-11.508 9.362-20.872 20.871-20.872h305.061c11.509 0 20.872 9.363 20.872 20.872s-9.363 20.872-20.872 20.872z"/><path d="m276.633 167.13h-41.266c-4.143 0-7.5 3.357-7.5 7.5 0 4.142 3.357 7.5 7.5 7.5h41.266c4.143 0 7.5-3.358 7.5-7.5 0-4.143-3.358-7.5-7.5-7.5z"/></g></g></g></svg>