<svg id="Capa_1" enable-background="new 0 0 512 512" height="512" viewBox="0 0 512 512" width="512" xmlns="http://www.w3.org/2000/svg"><g><path d="m404.298 113.705h-326.199v361.192c0 16.349 13.254 29.603 29.603 29.603h296.595c16.35 0 29.603-13.254 29.603-29.603v-331.589c.001-16.349-13.253-29.603-29.602-29.603z" fill="#ffceff"/><path d="m356.902 9.405-278.803 104.3h318.779v-76.573c0-20.66-20.626-34.966-39.976-27.727z" fill="#ff9bff"/><path d="m396.878 343.773c0 58.652-47.547 106.207-106.207 106.207-47.515 0-87.746-31.213-101.309-74.247-3.188-10.086-4.898-20.822-4.898-31.96 0-3.172.137-6.312.41-9.411 4.497-51.144 45.242-91.889 96.386-96.386 6.352 10.415 10.062 22.613 10.198 35.67-.257-.008-.522-.008-.787-.008-38.738 0-70.136 31.398-70.136 70.136 0 .265 0 .53.008.787.137 13.057 3.854 25.255 10.198 35.662 12.31 20.204 34.538 33.687 59.929 33.687 38.738 0 70.136-31.398 70.136-70.136 0-25.391-13.483-47.619-33.687-59.929.273-3.1.41-6.247.41-9.419 0-11.138-1.71-21.874-4.898-31.96 43.042 13.561 74.247 53.792 74.247 101.307z" fill="#ffd600"/><path d="m327.533 274.422c0 3.175-.138 6.318-.413 9.424-4.498 51.144-45.231 91.878-96.376 96.376-6.349-10.411-10.067-22.604-10.204-35.662.26.008.528.008.788.008 38.729 0 70.138-31.409 70.138-70.146 0-.252 0-.52-.008-.78-.138-13.058-3.848-25.251-10.197-35.669-12.316-20.202-34.545-33.681-59.934-33.681-38.737 0-70.138 31.393-70.138 70.13 0 25.396 13.486 47.626 33.681 59.941-.268 3.098-.405 6.234-.405 9.409 0 11.138 1.706 21.877 4.896 31.959-43.036-13.562-74.238-53.783-74.238-101.309 0-57.251 46-106.197 106.205-106.197 46.801 0 87.53 30.519 101.302 74.238 3.189 10.089 4.903 20.822 4.903 31.959z" fill="#ffff6f"/><path d="m404.378 106.207v-69.075c0-25.871-25.879-43.814-50.104-34.751l-278.803 104.299c-2.849 1.058-4.881 3.862-4.872 7.042v361.174c0 20.459 16.644 37.103 37.103 37.103h296.596c20.459 0 37.103-16.644 37.103-37.103v-331.588c0-20.432-16.601-37.058-37.023-37.101zm-44.848-89.777c0-.001 0-.001 0 0 14.409-5.392 29.849 5.201 29.849 20.702v69.073h-269.827zm66.871 458.467c0 12.188-9.916 22.103-22.103 22.103h-296.596c-12.187 0-22.103-9.915-22.103-22.103v-353.692h318.699c12.187 0 22.103 9.915 22.103 22.103z" fill="#e207b9"/><path d="m381.909 275.906c-13.636-18.303-32.027-31.846-53.361-39.362-7.574-21.509-21.245-39.995-39.732-53.631-19.681-14.516-43.018-22.188-67.489-22.188-30.823 0-59.601 12.031-81.034 33.877-21.068 21.476-32.672 49.823-32.672 79.821 0 24.674 7.769 48.143 22.467 67.871 13.633 18.3 32.024 31.842 53.357 39.358 7.469 21.086 21.331 39.924 39.358 53.356 19.73 14.701 43.198 22.472 67.867 22.472 62.699 0 113.708-51.009 113.708-113.707 0-24.67-7.77-48.138-22.469-67.867zm-28.603 67.867c0 34.537-28.099 62.636-62.636 62.636-18.034 0-34.706-7.537-46.462-20.601 44.578-9.064 79.435-43.921 88.497-88.496 13.064 11.754 20.601 28.427 20.601 46.461zm-174.018-22.88c-13.062-11.761-20.598-28.437-20.598-46.47 0-34.535 28.1-62.631 62.638-62.631 18.033 0 34.708 7.536 46.465 20.597-44.582 9.064-79.441 43.923-88.505 88.504zm-37.171 12.44c-12.754-17.119-19.495-37.49-19.495-58.91 0-26.045 10.079-50.661 28.38-69.316 18.589-18.948 43.564-29.382 70.326-29.382 21.243 0 41.502 6.66 58.585 19.26 28.648 21.13 42.684 54.784 39.736 88.199v.006c-4.055 46.097-39.37 82.823-84.789 89.025-3.284-6.44-5.388-13.272-6.31-20.48 57.283-5.307 88.674-69.152 59.116-117.666-14.229-23.341-39.028-37.277-66.338-37.277-42.81 0-77.638 34.825-77.638 77.631 0 25.763 12.404 49.296 33.406 63.829-.401 8.49.187 17.31 1.562 25.185-14.319-6.906-26.999-17.297-36.541-30.104zm86.334 3.318c3.282-28.855 26.242-51.814 55.096-55.097-3.286 28.855-26.243 51.814-55.096 55.097zm62.219 105.829c-21.415 0-41.784-6.743-58.905-19.5-26.795-19.965-42.52-52.826-39.422-87.962 4.055-46.103 39.373-82.834 84.8-89.037 3.31 6.51 5.421 13.442 6.308 20.489-39.438 3.652-70.416 36.927-70.416 77.303 0 14.434 3.993 28.363 11.302 40.351 14.225 23.346 39.022 37.284 66.334 37.284 42.808 0 77.636-34.827 77.636-77.636 0-25.765-12.403-49.292-33.408-63.816.386-7.97-.116-16.909-1.563-25.198 14.319 6.906 27.003 17.299 36.547 30.109 12.755 17.121 19.497 37.49 19.497 58.906-.002 54.428-44.282 98.707-98.71 98.707z" fill="#f90"/></g></svg>