<svg id="Capa_1" enable-background="new 0 0 512 512" height="512" viewBox="0 0 512 512" width="512" xmlns="http://www.w3.org/2000/svg"><g><path d="m218.814 63.372c0-7.65 2.311-14.76 6.268-20.674-8.345-21.176-28.819-35.198-51.708-35.198-21.28 0-38.53 17.251-38.53 38.53 0 21.28 17.251 38.53 38.53 38.53h66.629c-11.703 0-21.189-9.486-21.189-21.188z" fill="#ff63ed"/><path d="m293.262 63.372c0-7.65-2.311-14.76-6.268-20.674 8.345-21.176 28.819-35.198 51.708-35.198 21.28 0 38.53 17.251 38.53 38.53 0 21.28-17.251 38.53-38.53 38.53h-66.629c11.702 0 21.189-9.486 21.189-21.188z" fill="#ff63ed"/><path d="m256.038 26.147c-20.558 0-37.224 16.666-37.224 37.224 0 11.702 9.487 21.189 21.189 21.189h32.071c11.702 0 21.189-9.487 21.189-21.189-.001-20.558-16.667-37.224-37.225-37.224z" fill="#ff9bff"/><path d="m112.864 219.478c26.035 0 49.322 15.949 58.815 40.035-.296.442-.583.891-.862 1.345 7.453-12.1 20.818-20.17 36.072-20.17 14.682 0 27.615 7.475 35.21 18.825 9.331-23.677 31.994-39.479 57.491-40.01v-96.328c0-21.322 17.282-38.614 38.604-38.614h-197.33c-21.322 0-38.604 17.292-38.604 38.614v97.602c3.396-.844 6.946-1.299 10.604-1.299z" fill="#b98eff"/><path d="m399.979 84.56h-61.785c-21.322 0-38.604 17.292-38.604 38.614v96.328c.441-.009.881-.025 1.323-.025 24.204 0 43.825 19.621 43.825 43.825 0 17.289-10.015 32.234-24.556 39.366 5.378 2.843 11.505 4.459 18.012 4.459h61.785c21.322 0 38.604-17.282 38.604-38.604v-145.348c0-21.322-17.282-38.615-38.604-38.615z" fill="#9448f5"/><circle cx="253.136" cy="153.186" fill="#6d00ca" r="11.135"/><g><path d="m224.235 190.697h-47.155c-4.143 0-7.5-3.358-7.5-7.5s3.357-7.5 7.5-7.5h47.155c4.143 0 7.5 3.358 7.5 7.5s-3.358 7.5-7.5 7.5z" fill="#6d00ca"/></g><circle cx="148.179" cy="153.186" fill="#6d00ca" r="11.135"/><g><path d="m102.259 225.277c-4.143 0-7.5-3.358-7.5-7.5v-94.602c0-25.428 20.683-46.115 46.104-46.115h22.742l6.483 3.147c.713 0 2.838.645 3.491.831 3.143.894 3.293.092 3.293 3.521 0 4.142-3.357 7.5-7.5 7.5h-28.51c-17.151 0-31.104 13.958-31.104 31.115v94.602c.001 4.143-3.356 7.501-7.499 7.501z" fill="#6d00ca"/></g><g><path d="m299.589 224.003c-4.143 0-7.5-3.358-7.5-7.5v-93.328c0-21.255 14.488-39.492 34.56-44.658 1.941-.5 5.285 2.911 7.323 2.665 4.111-.493 6.498-1.353 6.995 2.759.496 4.112-2.436 7.848-6.548 8.345-15.581 1.88-27.33 15.159-27.33 30.888v93.328c0 4.143-3.357 7.501-7.5 7.501z" fill="#6d00ca"/></g><g><path d="m405.844 314.185c-3.642 0-6.838-2.658-7.404-6.369-.625-4.095 2.188-7.921 6.282-8.546 15.028-2.294 26.36-15.512 26.36-30.746v-145.349c0-17.156-13.953-31.115-31.104-31.115h-56.785c-4.143 0-7.5-3.358-7.5-7.5s6.871-4.021 11.013-4.021l21.868-3.479h31.404c25.422 0 46.104 20.687 46.104 46.115v145.349c0 22.579-16.808 42.171-39.097 45.574-.383.059-.764.087-1.141.087z" fill="#6d00ca"/></g><path d="m503.951 340.975v129.677c0 18.694-15.163 33.847-33.858 33.847h-158.165c-18.694 0-33.847-15.153-33.847-33.847v-129.677c0-18.694 15.153-33.847 33.847-33.847h158.165c18.695 0 33.858 15.153 33.858 33.847z" fill="#17d9c3"/><path d="m311.928 504.5h-270.031c-18.694 0-33.847-15.153-33.847-33.847v-129.678c0-18.694 15.153-33.847 33.847-33.847h270.031c-18.694 0-33.847 15.153-33.847 33.847v129.677c0 18.695 15.153 33.848 33.847 33.848z" fill="#88f8d8"/><g fill="#007ea8"><circle cx="198.863" cy="393.919" r="11.135"/><circle cx="93.906" cy="393.919" r="11.135"/><g><path d="m122.807 431.429h47.154c4.143 0 7.5-3.358 7.5-7.5s-3.357-7.5-7.5-7.5h-47.154c-4.143 0-7.5 3.358-7.5 7.5s3.358 7.5 7.5 7.5z"/><path d="m470.093 299.628h-158.165c-22.799 0-41.348 18.548-41.348 41.347v129.677c0 10.129 3.861 19.763 9.505 26.347h-238.188c-14.528 0-26.348-11.819-26.348-26.347v-129.676c0-14.528 11.819-26.347 26.348-26.347h65.968c4.143 0 7.5-3.358 7.5-7.5 0-4.143-3.357-7.5-7.5-7.5h-65.968c-22.799 0-41.348 18.548-41.348 41.347v129.677c0 22.799 18.549 41.347 41.348 41.347h428.196c22.805 0 41.357-18.548 41.357-41.347v-129.677c.001-22.8-18.552-41.348-41.357-41.348zm26.358 171.025c0 14.528-11.824 26.347-26.357 26.347h-158.166c-14.528 0-26.348-11.819-26.348-26.347v-129.677c0-14.528 11.819-26.347 26.348-26.347h158.165c14.533 0 26.357 11.819 26.357 26.347v129.677z"/></g></g><path d="m164.549 283.027c0-8.702 2.628-16.788 7.13-23.515-9.492-24.086-32.78-40.035-58.814-40.035-24.204 0-43.825 19.621-43.825 43.825 0 24.204 19.621 43.825 43.825 43.825h75.785c-13.311.001-24.101-10.789-24.101-24.1z" fill="#ff63ed"/><path d="m249.228 283.027c0-8.702-2.628-16.788-7.13-23.515 9.492-24.086 32.78-40.035 58.814-40.035 24.204 0 43.825 19.621 43.825 43.825 0 24.204-19.621 43.825-43.825 43.825h-75.785c13.311.001 24.101-10.789 24.101-24.1z" fill="#ff63ed"/><path d="m206.889 240.688c-23.384 0-42.34 18.956-42.34 42.34 0 13.31 10.79 24.101 24.101 24.101h36.478c13.31 0 24.101-10.79 24.101-24.101-.001-23.384-18.957-42.34-42.34-42.34z" fill="#ff9bff"/><g fill="#e207b9"><path d="m338.702 0c-22.139 0-42.077 11.298-53.45 29.55-7.844-6.784-18.053-10.902-29.214-10.902s-21.37 4.118-29.213 10.903c-11.374-18.253-31.312-29.551-53.451-29.551-25.381 0-46.03 20.649-46.03 46.03s20.649 46.03 46.03 46.03h165.328c25.381 0 46.03-20.649 46.03-46.03s-20.649-46.03-46.03-46.03zm-165.328 77.06c-17.11 0-31.03-13.92-31.03-31.03s13.92-31.03 31.03-31.03c18.677 0 35.3 10.543 43.29 27.15-3.346 6.192-5.35 13.678-5.35 21.221 0 7.528 2.889 12.234 3.481 13.688h-41.421zm52.94-13.688c0-16.238 13.21-29.724 29.724-29.724 16.316 0 29.725 13.27 29.725 29.724 0 7.561-6.153 13.688-13.689 13.688h-32.07c-7.532 0-13.69-6.123-13.69-13.688zm112.388 13.688h-41.421c.611-1.418 3.481-5.992 3.481-13.688 0-7.667-2.034-15.083-5.351-21.221 7.99-16.608 24.613-27.15 43.29-27.15 17.11 0 31.03 13.92 31.03 31.03s-13.919 31.029-31.029 31.029z"/><path d="m300.913 211.978c-25.233 0-47.91 13.093-60.547 34.158-8.853-8.042-20.603-12.948-33.477-12.948h-.001c-12.874 0-24.624 4.907-33.477 12.949-12.637-21.065-35.314-34.159-60.546-34.159-28.301 0-51.325 23.024-51.325 51.325s23.024 51.325 51.325 51.325h188.048c28.301 0 51.325-23.024 51.325-51.326 0-28.3-23.025-51.324-51.325-51.324zm-188.048 87.65c-20.029 0-36.325-16.296-36.325-36.326s16.296-36.325 36.325-36.325c21.821 0 41.227 12.423 50.396 31.944-3.911 7.06-6.212 15.443-6.212 24.105 0 5.813 1.564 11.436 4.721 16.601h-48.905zm59.184-16.601c0-19.079 15.536-34.839 34.84-34.839 19.158 0 34.839 15.627 34.839 34.839 0 9.154-7.447 16.601-16.601 16.601h-36.477c-9.153 0-16.601-7.447-16.601-16.601zm128.864 16.601h-48.905c3.171-5.189 4.721-10.849 4.721-16.601 0-8.668-2.324-17.088-6.212-24.105 9.17-19.521 28.575-31.944 50.396-31.944 20.029 0 36.325 16.295 36.325 36.325s-16.296 36.325-36.325 36.325z"/></g></g></svg>