<svg id="Capa_1" enable-background="new 0 0 512 512" height="512" viewBox="0 0 512 512" width="512" xmlns="http://www.w3.org/2000/svg"><g><path d="m391.023 340.7c5.101 1.86 11.233 4.099 18.624 6.787 12.123 4.405 25.411-.971 31.176-12.225 6.981-13.564.48-30.164-13.85-35.377-6.767-2.463-12.961-4.712-18.634-6.777z" fill="#ffceff"/><path d="m131.826 335.263c5.765 11.254 19.053 16.63 31.176 12.225 7.39-2.688 13.523-4.927 18.624-6.787l-17.315-47.602c-5.673 2.065-11.867 4.324-18.634 6.787-14.331 5.213-20.832 21.813-13.851 35.377z" fill="#ffceff"/><g><path d="m407.085 354.537c-6.495-2.363-12.067-4.395-18.633-6.79-3.891-1.419-5.895-5.724-4.476-9.616 1.419-3.891 5.727-5.896 9.616-4.476 6.248 2.279 11.859 4.327 18.617 6.785 8.427 3.062 17.857-.633 21.938-8.596 4.935-9.59.31-21.254-9.739-24.909l-18.636-6.777c-3.892-1.417-5.899-5.72-4.482-9.613 1.416-3.892 5.718-5.901 9.613-4.482l18.634 6.777c18.54 6.744 27.009 28.261 17.954 45.856-7.553 14.742-24.963 21.452-40.406 15.841z" fill="#e207b9"/></g><g><path d="m125.152 338.682c-9.022-17.529-.63-39.081 17.962-45.844l18.631-6.787c3.896-1.418 8.196.591 9.613 4.482 1.417 3.892-.591 8.196-4.482 9.613l-18.633 6.787c-10.068 3.662-14.666 15.34-9.747 24.896 4.085 7.976 13.519 11.671 21.945 8.608 6.848-2.491 12.152-4.426 18.614-6.784 3.896-1.421 8.196.586 9.616 4.476 1.419 3.891-.585 8.197-4.476 9.616-6.149 2.243-12.101 4.415-18.629 6.789-15.596 5.669-32.931-1.24-40.414-15.852z" fill="#e207b9"/></g><path d="m201.871 504.5h168.9c23.34 0 38.92-23.97 29.52-45.32-14.55-33.07-24.25-68.1-30.08-93.24-16.35-.7-39.83 1.45-61.08 15.09-14.1 9.04-32.34 9.04-46.44 0-20.89-13.41-43.94-15.71-60.24-15.12-5.84 25.14-15.54 60.19-30.1 93.27-9.39 21.35 6.19 45.32 29.52 45.32z" fill="#b98eff"/><path d="m181.621 340.7c26.99-9.82 25-9.1 27.92-10.16 0 0-2.17 14.16-7.09 35.37 16.3-.59 39.35 1.71 60.24 15.12 14.1 9.04 32.34 9.04 46.44 0 21.25-13.64 44.73-15.79 61.08-15.09-4.93-21.22-7.1-35.4-7.1-35.4 2.92 1.06.93.34 27.91 10.16l17.32-47.59c-50.65-18.44-59.8-21.76-61.14-22.24-.01-.01-.02-.01-.04-.02s-.05-.02-.07-.02c0-.01-.01-.01-.02-.01-.03-.01-.04-.02-.05-.02-18.33 8.94-38.93 13.96-60.7 13.96-21.79 0-42.39-5.02-60.7-13.96-.01.01-.02.01-.04.02-.01 0-.01 0-.01 0-.03.01-.05.02-.09.03-.02.01-.02.01-.03.01-1.31.47-10.38 3.77-61.14 22.24z" fill="#9448f5"/><path d="m286.324 284.757c14.627 0 28.722-2.272 41.961-6.471.044.789.071 1.583.071 2.383 0 23.214-18.819 52.254-42.033 52.254s-42.032-29.04-42.032-52.254c0-.798.027-1.59.071-2.377 13.233 4.195 27.327 6.465 41.962 6.465z" fill="#ffceff"/><path d="m149.681 169.68c11.45 65.65 68.08 114.88 136.23 115.07 68.15-.19 124.78-49.42 136.23-115.07 2.78-16.26 2.55-32.58-.05-47.37-.92-5.34-2.16-10.58-3.69-15.7-64.1 24.69-102.86-2.04-120.7-20.93-6.42-6.79-17.16-6.79-23.58 0-17.84 18.89-56.6 45.62-120.7 20.93-1.53 5.12-2.77 10.36-3.69 15.7-2.6 14.79-2.83 31.11-.05 47.37z" fill="#ffceff"/><path d="m153.421 106.61c64.1 24.69 102.86-2.04 120.7-20.93 6.42-6.79 17.16-6.79 23.58 0 17.84 18.89 56.6 45.62 120.7 20.93-16.88-56.81-69.41-98.94-132.49-99.11-63.05.17-115.6 42.28-132.49 99.11z" fill="#ff63ed"/><path d="m78.808 178.935c19.155 7.707 45.69 11.274 70.876-9.25-7.376-43.158 5.777-87.735 37.124-120.062-.164-.337-.337-.675-.511-1.012-12.113-23.612-40.682-34.191-65.254-24.153-25.022 10.231-37.39 37.512-29.97 62.402 3.434 11.509 4.13 23.724 1.032 35.326-2.566 9.578-7.727 19.973-17.734 28.344-9.679 8.095-7.277 23.703 4.437 28.405z" fill="#ff63ed"/><circle cx="235.054" cy="160.093" fill="#e207b9" r="10.878"/><g><path d="m309.359 196.912h-46.069c-4.143 0-7.5-3.358-7.5-7.5s3.357-7.5 7.5-7.5h46.068c4.143 0 7.5 3.358 7.5 7.5s-3.357 7.5-7.499 7.5z" fill="#e207b9"/></g><circle cx="337.595" cy="160.093" fill="#e207b9" r="10.878"/><path d="m398.069 343.265 17.32-47.59c1.416-3.892-.59-8.196-4.482-9.612-35.688-12.993-56.017-20.388-60.423-21.981-3.892-1.408-8.193.608-9.603 4.503-1.409 3.895.607 8.194 4.503 9.603 4.097 1.481 22.03 8.004 53.345 19.405l-12.19 33.494-20.867-7.597c-5.339-1.938-10.835 2.553-9.974 8.185.077.5 1.651 10.697 5.129 26.711-19.633.598-39.087 5.634-55.743 16.331-11.647 7.466-26.698 7.467-38.34.002-16.28-10.453-35.357-15.582-54.923-16.302 3.479-16.036 5.058-26.241 5.134-26.741.861-5.616-4.616-10.13-9.973-8.186l-20.876 7.597-12.184-33.503c37.941-13.806 49.578-18.039 52.969-19.269 3.894-1.413 5.905-5.714 4.493-9.608-1.413-3.895-5.716-5.905-9.608-4.494-3.592 1.303-16.443 5.979-60.029 21.839-3.892 1.416-5.899 5.719-4.484 9.611l17.311 47.6c1.417 3.891 5.72 5.901 9.613 4.485l15.683-5.708c-1.125 5.824-2.688 13.399-4.721 22.167 0 .002-.001.003-.002.005-5.512 23.727-15.131 58.939-29.66 91.948-5.441 12.372-4.283 26.51 3.097 37.818 7.364 11.284 19.81 18.021 33.289 18.021h168.899c13.488 0 25.938-6.74 33.302-18.028 7.377-11.308 8.529-25.444 3.084-37.812-14.546-33.061-24.146-68.226-29.638-91.907-.001-.003-.001-.007-.002-.01-2.04-8.78-3.605-16.369-4.732-22.201l15.671 5.706c3.879 1.415 8.192-.582 9.612-4.482zm-6.56 142.511c-4.653 7.133-12.212 11.224-20.738 11.224h-168.9c-8.52 0-16.074-4.089-20.728-11.219-4.669-7.154-5.372-15.75-1.929-23.579 13.859-31.487 23.358-64.777 29.184-88.865 31.54 0 49.645 14.045 55.023 16.713.015.007.029.014.044.021 13.378 6.624 29.094 6.981 42.781.977 9.611-4.216 23.654-17.721 58.005-17.721 5.807 24.048 15.291 57.32 29.174 88.875 3.449 7.829 2.75 16.422-1.916 23.574z" fill="#6d00ca"/><path d="m425.591 104.475c0-.001 0-.001 0 0 0-.001 0-.001 0-.002 0-.003-.001-.006-.002-.009s-.002-.006-.003-.009c-17.757-59.72-72.991-104.276-139.695-104.455-37.648.101-71.638 14.241-97.51 37.711-15.638-21.656-44.84-30.544-70.178-20.196-28.269 11.56-43.021 42.293-34.316 71.489 6.939 23.254-.227 43.977-14.327 55.771-14.059 11.758-10.49 34.313 6.448 41.117 23.4 9.414 47.253 9.314 68.729-3.586 12.239 47.784 47.315 85.255 92.152 101.357.713 12.288 5.718 25.655 13.709 36.331 9.86 13.173 22.548 20.428 35.726 20.428s25.865-7.255 35.726-20.428c8.056-10.762 13.082-24.26 13.73-36.63 47.904-17.539 84.531-59.545 93.753-112.421 3.735-21.844 2.535-44.78-3.942-66.468zm-139.7-89.475c57.559.155 105.188 37.042 123.113 87.011-39.205 13.209-77.68 8.35-105.853-21.484-9.407-9.948-25.109-9.911-34.483.003-28.006 29.653-65.892 34.913-105.757 21.512 18.045-50.582 65.984-86.888 122.98-87.042zm-144.298 151.442c-17.542 12.636-37.701 14.502-59.985 5.535-.002-.001-.004-.002-.006-.002-6.47-2.597-7.739-11.243-2.418-15.693 18.922-15.83 27.654-42.824 19.077-71.565-6.49-21.769 4.523-44.69 25.617-53.315 19.71-8.053 42.492-.481 53.719 17.103-29.087 32.413-41.907 75.475-36.004 117.937zm144.732 158.98c-15.968 0-30.397-19.109-33.784-37.094 10.496 2.48 22.072 3.929 33.784 3.929 11.434 0 22.756-1.321 33.785-3.934-3.386 17.987-17.817 37.099-33.785 37.099zm128.427-157.031c-10.916 62.591-64.838 108.663-128.809 108.859-63.678-.192-117.879-45.923-128.867-108.821 0-.002 0-.005-.001-.007-2.842-16.634-2.527-34.266 1.598-51.958 44.781 14.898 88.518 8.656 120.898-25.63 3.458-3.659 9.215-3.667 12.677-.003 32.129 33.993 76.093 40.544 121.003 25.6 3.987 17.153 4.404 34.992 1.501 51.96z" fill="#e207b9"/></g></svg>