<svg id="Capa_1" enable-background="new 0 0 512 512" height="512" viewBox="0 0 512 512" width="512" xmlns="http://www.w3.org/2000/svg"><g><g><path d="m202.297 412.484v43.857h-16.115c-13.299 0-24.08 10.781-24.08 24.08s10.781 24.08 24.08 24.08h40.195c13.299 0 24.08-10.781 24.08-24.08v-67.937z" fill="#88f8d8"/></g><g><path d="m314.366 412.484v43.857h-16.115c-13.299 0-24.08 10.781-24.08 24.08s10.781 24.08 24.08 24.08h40.195c13.299 0 24.08-10.781 24.08-24.08v-67.937z" fill="#88f8d8"/></g><g><g><path d="m226.377 512h-40.194c-17.413 0-31.58-14.167-31.58-31.58s14.167-31.58 31.58-31.58h8.614v-33.357c0-4.142 3.357-7.5 7.5-7.5s7.5 3.358 7.5 7.5v40.857c0 4.142-3.357 7.5-7.5 7.5h-16.114c-9.143 0-16.58 7.438-16.58 16.58s7.437 16.58 16.58 16.58h40.194c9.143 0 16.58-7.438 16.58-16.58v-64.937c0-4.142 3.357-7.5 7.5-7.5s7.5 3.358 7.5 7.5v64.937c0 17.413-14.167 31.58-31.58 31.58z" fill="#007ea8"/></g></g><g><path d="m202.297 412.484h48.159v30.517h-48.159z" fill="#007ea8"/></g><g><path d="m314.366 412.484h48.159v30.517h-48.159z" fill="#007ea8"/></g><g><g><path d="m338.446 512h-40.194c-17.413 0-31.58-14.167-31.58-31.58s14.167-31.58 31.58-31.58h8.614v-33.357c0-4.142 3.357-7.5 7.5-7.5s7.5 3.358 7.5 7.5v40.857c0 4.142-3.357 7.5-7.5 7.5h-16.114c-9.143 0-16.58 7.438-16.58 16.58s7.438 16.58 16.58 16.58h40.194c9.142 0 16.579-7.438 16.579-16.58v-64.937c0-4.142 3.357-7.5 7.5-7.5s7.5 3.358 7.5 7.5v64.937c0 17.413-14.166 31.58-31.579 31.58z" fill="#007ea8"/></g></g><g><path d="m426.772 7.5h-298.163c-27.827 0-51.544 17.586-60.652 42.248h12.783c14.696 0 26.609 11.913 26.609 26.609 0 14.696-11.913 26.609-26.609 26.609h-16.771v35.871h16.771c14.696 0 26.609 11.913 26.609 26.609 0 14.696-11.913 26.609-26.609 26.609h-16.771v35.871h16.771c14.696 0 26.609 11.913 26.609 26.609 0 14.696-11.913 26.609-26.609 26.609h-16.771v35.871h16.771c14.696 0 26.609 11.913 26.609 26.609 0 14.696-11.913 26.609-26.609 26.609h-12.783c9.109 24.663 32.825 42.248 60.652 42.248h298.163c35.7 0 64.64-28.94 64.64-64.64v-275.701c0-35.7-28.94-64.64-64.64-64.64z" fill="#ff63ed"/></g><g><path d="m436.182 175.091c-4.196-67.254-81.71-103.991-141.871-57.228-60.121-46.728-137.669-10.06-141.865 57.228-1.623 26.008 8.048 53.61 27.957 79.818 22.292 29.34 56.908 56.702 102.882 81.333 6.905 3.698 15.147 3.704 22.052 0 45.979-24.63 80.59-51.993 102.882-81.333 19.914-26.208 29.58-53.81 27.963-79.818z" fill="#ffceff"/></g><g><g><path d="m426.771 419.984h-298.162c-29.457 0-55.684-17.624-66.814-44.9-1.564-3.835.275-8.213 4.11-9.778 3.839-1.565 8.213.276 9.778 4.11 8.817 21.606 29.592 35.568 52.926 35.568h298.162c31.508 0 57.141-25.633 57.141-57.14v-275.704c0-31.507-25.633-57.14-57.141-57.14h-298.162c-23.442 0-44.252 14.049-53.017 35.792-1.548 3.841-5.916 5.703-9.76 4.152-3.842-1.549-5.701-5.918-4.152-9.76 11.065-27.448 37.336-45.184 66.929-45.184h298.162c39.778 0 72.141 32.362 72.141 72.14v275.703c0 39.779-32.362 72.141-72.141 72.141z" fill="#e207b9"/></g></g><g><g><path d="m63.969 321.517c-4.143 0-7.5-3.358-7.5-7.5v-29.871c0-4.142 3.357-7.5 7.5-7.5s7.5 3.358 7.5 7.5v29.871c0 4.142-3.358 7.5-7.5 7.5z" fill="#e207b9"/></g></g><g><g><path d="m63.969 235.427c-4.143 0-7.5-3.358-7.5-7.5v-32.871c0-4.142 3.357-7.5 7.5-7.5s7.5 3.358 7.5 7.5v32.871c0 4.143-3.358 7.5-7.5 7.5z" fill="#e207b9"/></g></g><g><g><path d="m63.969 143.338c-4.143 0-7.5-3.358-7.5-7.5v-29.871c0-4.142 3.357-7.5 7.5-7.5s7.5 3.358 7.5 7.5v29.871c0 4.142-3.358 7.5-7.5 7.5z" fill="#e207b9"/></g></g><g><circle cx="344.533" cy="209.686" fill="#e207b9" r="10.655"/></g><g><g><path d="m316.876 245.905h-45.125c-4.143 0-7.5-3.358-7.5-7.5s3.357-7.5 7.5-7.5h45.125c4.143 0 7.5 3.358 7.5 7.5s-3.357 7.5-7.5 7.5z" fill="#e207b9"/></g></g><g><circle cx="244.094" cy="209.686" fill="#e207b9" r="10.655"/></g><g><g><path d="m294.316 346.52c-5.004 0-10.008-1.222-14.572-3.666-46.937-25.146-82.369-53.208-105.313-83.407-21.016-27.666-31.207-56.997-29.471-84.822 2.139-34.293 21.898-63.107 52.855-77.078 31.091-14.03 66.771-9.863 96.495 10.993 29.726-20.864 65.402-25.032 96.487-11.004 30.966 13.973 50.729 42.791 52.869 77.089v.001c1.73 27.834-8.462 57.165-29.477 84.821-22.949 30.206-58.382 58.268-105.312 83.407-4.555 2.444-9.558 3.666-14.561 3.666zm-58.518-242.145c-10.868 0-21.644 2.255-31.812 6.843-25.799 11.643-42.268 35.694-44.055 64.339-1.509 24.185 7.635 50.055 26.444 74.815 21.632 28.47 55.429 55.137 100.452 79.258 4.69 2.513 10.284 2.513 14.965.002 45.021-24.116 78.818-50.783 100.455-79.261 18.808-24.752 27.953-50.623 26.449-74.816-1.787-28.647-18.262-52.704-44.068-64.349-27.547-12.431-59.592-7.729-85.715 12.577-2.707 2.104-6.498 2.105-9.205 0-16.482-12.809-35.327-19.408-53.91-19.408z" fill="#e207b9"/></g></g><g><path d="m80.74 49.748h-33.543c-14.696 0-26.609 11.913-26.609 26.609 0 14.696 11.913 26.609 26.609 26.609h33.543c14.696 0 26.609-11.913 26.609-26.609.001-14.695-11.913-26.609-26.609-26.609z" fill="#ffd600"/></g><g><path d="m80.74 138.838h-33.543c-14.696 0-26.609 11.913-26.609 26.609 0 14.696 11.913 26.609 26.609 26.609h33.543c14.696 0 26.609-11.913 26.609-26.609.001-14.696-11.913-26.609-26.609-26.609z" fill="#ffd600"/></g><g><path d="m80.74 227.928h-33.543c-14.696 0-26.609 11.913-26.609 26.609 0 14.696 11.913 26.609 26.609 26.609h33.543c14.696 0 26.609-11.913 26.609-26.609.001-14.696-11.913-26.609-26.609-26.609z" fill="#ffd600"/></g><g><path d="m80.74 317.017h-33.543c-14.696 0-26.609 11.913-26.609 26.609 0 14.696 11.913 26.609 26.609 26.609h33.543c14.696 0 26.609-11.913 26.609-26.609.001-14.696-11.913-26.609-26.609-26.609z" fill="#ffd600"/></g><g><g><path d="m80.74 110.467h-33.543c-18.808 0-34.109-15.301-34.109-34.109s15.302-34.11 34.109-34.11h33.543c18.808 0 34.109 15.301 34.109 34.109s-15.301 34.11-34.109 34.11zm-33.543-53.219c-10.537 0-19.109 8.572-19.109 19.109s8.572 19.109 19.109 19.109h33.543c10.537 0 19.109-8.572 19.109-19.109s-8.572-19.109-19.109-19.109z" fill="#f90"/></g></g><g><g><path d="m80.74 199.556h-33.543c-18.808 0-34.109-15.301-34.109-34.109s15.302-34.109 34.109-34.109h33.543c18.808 0 34.109 15.301 34.109 34.109s-15.301 34.109-34.109 34.109zm-33.543-53.218c-10.537 0-19.109 8.572-19.109 19.109s8.572 19.109 19.109 19.109h33.543c10.537 0 19.109-8.572 19.109-19.109s-8.572-19.109-19.109-19.109z" fill="#f90"/></g></g><g><g><path d="m80.74 288.646h-33.543c-18.808 0-34.109-15.301-34.109-34.109s15.302-34.109 34.109-34.109h33.543c18.808 0 34.109 15.301 34.109 34.109s-15.301 34.109-34.109 34.109zm-33.543-53.219c-10.537 0-19.109 8.572-19.109 19.109s8.572 19.109 19.109 19.109h33.543c10.537 0 19.109-8.572 19.109-19.109s-8.572-19.109-19.109-19.109z" fill="#f90"/></g></g><g><g><path d="m80.74 377.735h-33.543c-18.808 0-34.109-15.301-34.109-34.109s15.302-34.109 34.109-34.109h33.543c18.808 0 34.109 15.301 34.109 34.109s-15.301 34.109-34.109 34.109zm-33.543-53.218c-10.537 0-19.109 8.572-19.109 19.109s8.572 19.109 19.109 19.109h33.543c10.537 0 19.109-8.572 19.109-19.109s-8.572-19.109-19.109-19.109z" fill="#f90"/></g></g></g></svg>