<svg id="Capa_1" enable-background="new 0 0 512 512" height="512" viewBox="0 0 512 512" width="512" xmlns="http://www.w3.org/2000/svg"><g><path d="m135.711 404.469v49.11h-16.208c-13.376 0-24.219 10.844-24.219 24.219 0 13.376 10.844 24.219 24.219 24.219h40.428c13.376 0 24.219-10.844 24.219-24.219v-73.329z" fill="#b98eff"/><path d="m248.43 404.469v49.11h-16.208c-13.376 0-24.219 10.844-24.219 24.219 0 13.376 10.844 24.219 24.219 24.219h40.428c13.376 0 24.219-10.844 24.219-24.219v-73.329z" fill="#b98eff"/><g><path d="m159.93 509.518h-40.428c-17.49 0-31.719-14.229-31.719-31.719s14.229-31.719 31.719-31.719h8.709v-38.61c0-4.142 3.357-7.5 7.5-7.5s7.5 3.358 7.5 7.5v46.11c0 4.142-3.357 7.5-7.5 7.5h-16.209c-9.219 0-16.719 7.5-16.719 16.719s7.5 16.719 16.719 16.719h40.428c9.22 0 16.72-7.5 16.72-16.719v-70.329c0-4.142 3.357-7.5 7.5-7.5s7.5 3.358 7.5 7.5v70.329c-.001 17.49-14.23 31.719-31.72 31.719z" fill="#6d00ca"/></g><path d="m135.711 404.469h48.439v30.694h-48.439z" fill="#6d00ca"/><path d="m248.43 404.469h48.439v30.694h-48.439z" fill="#6d00ca"/><g><path d="m272.649 509.518h-40.428c-17.49 0-31.72-14.229-31.72-31.719s14.229-31.719 31.72-31.719h8.708v-38.61c0-4.142 3.357-7.5 7.5-7.5s7.5 3.358 7.5 7.5v46.11c0 4.142-3.357 7.5-7.5 7.5h-16.208c-9.22 0-16.72 7.5-16.72 16.719s7.5 16.719 16.72 16.719h40.428c9.219 0 16.719-7.5 16.719-16.719v-70.329c0-4.142 3.357-7.5 7.5-7.5s7.5 3.358 7.5 7.5v70.329c0 17.49-14.228 31.719-31.719 31.719z" fill="#6d00ca"/></g><path d="m131.212 9.982c-19.212 0-34.787 15.575-34.787 34.787v5.814h69.574v-5.814c0-19.212-15.575-34.787-34.787-34.787z" fill="#88f8d8"/><path d="m165.999 50.583h-69.574c-17.417 0-31.535 14.119-31.535 31.535v18.611h132.645v-18.611c0-17.416-14.119-31.535-31.536-31.535z" fill="#17d9c3"/><path d="m351.154 54.036h-62.143c-14.344 0-25.972 11.628-25.972 25.972v20.721h114.087v-20.721c0-14.344-11.628-25.972-25.972-25.972z" fill="#ff63ed"/><path d="m173.475 43.809c-.514-22.874-19.268-41.327-42.263-41.327s-41.749 18.453-42.263 41.327c-17.959 3.498-31.559 19.342-31.559 38.309v15.611c0 4.143 3.357 7.5 7.5 7.5s7.5-3.357 7.5-7.5v-15.611c0-13.253 10.782-24.035 24.035-24.035h69.574c13.253 0 24.035 10.782 24.035 24.035v15.611c0 4.143 3.357 7.5 7.5 7.5s7.5-3.357 7.5-7.5v-15.611c0-18.967-13.6-34.811-31.559-38.309zm-69.498-.726c.874-14.263 12.756-25.601 27.235-25.601s26.361 11.337 27.235 25.601z" fill="#007ea8"/><g><path d="m377.126 105.229c-4.143 0-7.5-3.358-7.5-7.5v-17.721c0-10.186-8.286-18.472-18.472-18.472h-62.143c-10.186 0-18.473 8.287-18.473 18.472v17.721c0 4.142-3.357 7.5-7.5 7.5s-7.5-3.358-7.5-7.5v-17.721c0-18.457 15.016-33.472 33.473-33.472h62.143c18.456 0 33.472 15.016 33.472 33.472v17.721c0 4.143-3.357 7.5-7.5 7.5z" fill="#e207b9"/></g><path d="m504.5 158.119v188.951c0 31.699-25.701 57.399-57.399 57.399h-69.975c31.698 0 57.399-25.701 57.399-57.399v-188.951c0-31.699-25.701-57.389-57.399-57.389h69.975c31.698-.001 57.399 25.69 57.399 57.389z" fill="#ffd600"/><path d="m434.526 158.119v30.499h-112.54c-20.423-29.839-54.73-49.412-93.626-49.412h-60.978c-38.886 0-73.194 19.573-93.626 49.412h-66.256v-30.499c0-31.699 25.701-57.389 57.389-57.389h312.237c31.699-.001 57.4 25.69 57.4 57.389z" fill="#f90"/><g fill="#ffff6f"><path d="m53.994 252.594c0-23.737 7.298-45.766 19.766-63.977h-66.26v127.954h66.26c-12.467-18.211-19.766-40.24-19.766-63.977z"/><path d="m434.526 188.618v127.954h-112.54c12.476-18.213 19.773-40.235 19.773-63.977s-7.297-45.763-19.773-63.977z"/></g><g><g><path d="m7.5 324.071c-4.143 0-7.5-3.358-7.5-7.5v-127.953c0-4.142 3.357-7.5 7.5-7.5s7.5 3.358 7.5 7.5v127.954c0 4.141-3.357 7.499-7.5 7.499z" fill="#f90"/></g><g><path d="m434.525 324.071c-4.143 0-7.5-3.358-7.5-7.5v-127.953c0-4.142 3.357-7.5 7.5-7.5s7.5 3.358 7.5 7.5v127.954c0 4.141-3.357 7.499-7.5 7.499z" fill="#f90"/></g></g><path d="m434.526 316.571v30.499c0 31.699-25.701 57.399-57.399 57.399h-312.238c-31.688 0-57.389-25.701-57.389-57.399v-30.499h66.256c20.433 29.839 54.74 49.412 93.626 49.412h60.978c38.896 0 73.203-19.573 93.626-49.412z" fill="#f90"/><path d="m447.101 93.229h-69.975-312.236c-35.78 0-64.89 29.109-64.89 64.89v30.499c0 4.142 3.357 7.5 7.5 7.5h63.256c4.143 0 7.5-3.358 7.5-7.5 0-4.143-3.357-7.5-7.5-7.5h-55.756v-22.999c0-27.509 22.381-49.89 49.89-49.89h312.236c27.515 0 49.899 22.38 49.899 49.89v22.999h-102.039c-4.143 0-7.5 3.357-7.5 7.5 0 4.142 3.357 7.5 7.5 7.5h109.539c4.143 0 7.5-3.358 7.5-7.5v-30.499c0-20.037-9.133-37.977-23.452-49.89h28.527c27.515 0 49.899 22.38 49.899 49.89v188.951c0 27.515-22.385 49.899-49.899 49.899h-28.53c14.32-11.914 23.455-29.858 23.455-49.899v-30.499c0-4.142-3.357-7.5-7.5-7.5h-109.539c-4.143 0-7.5 3.358-7.5 7.5 0 4.143 3.357 7.5 7.5 7.5h102.039v22.999c0 27.515-22.385 49.899-49.899 49.899h-312.236c-27.509 0-49.89-22.385-49.89-49.899v-22.999h55.756c4.143 0 7.5-3.357 7.5-7.5 0-4.142-3.357-7.5-7.5-7.5h-63.256c-4.143 0-7.5 3.358-7.5 7.5v30.499c0 35.786 29.109 64.899 64.89 64.899h312.236 69.975c35.786 0 64.899-29.114 64.899-64.899v-188.951c0-35.78-29.113-64.89-64.899-64.89z" fill="#f95116"/><path d="m280.781 252.594c0 62.627-50.772 113.389-113.399 113.389-62.617 0-113.389-50.762-113.389-113.389s50.772-113.389 113.389-113.389c62.628 0 113.399 50.762 113.399 113.389z" fill="#b98eff"/><path d="m341.759 252.594c0 62.627-50.772 113.389-113.399 113.389h-60.978c62.627 0 113.399-50.762 113.399-113.389s-50.772-113.389-113.399-113.389h60.978c62.628 0 113.399 50.762 113.399 113.389z" fill="#9448f5"/><circle cx="167.387" cy="252.594" fill="#88f8d8" r="68.675"/><circle cx="205.655" cy="244.717" fill="#007ea8" r="8.121"/><g><path d="m184.577 274.103h-34.39c-4.143 0-7.5-3.358-7.5-7.5s3.357-7.5 7.5-7.5h34.39c4.143 0 7.5 3.358 7.5 7.5s-3.357 7.5-7.5 7.5z" fill="#007ea8"/></g><circle cx="129.11" cy="244.717" fill="#007ea8" r="8.121"/><path d="m228.36 131.706h-60.979c-66.658 0-120.889 54.23-120.889 120.889s54.23 120.889 120.889 120.889h60.979c66.664 0 120.898-54.23 120.898-120.889s-54.234-120.889-120.898-120.889zm-166.867 120.888c0-58.388 47.501-105.889 105.889-105.889 58.394 0 105.899 47.501 105.899 105.889s-47.506 105.889-105.899 105.889c-58.388 0-105.889-47.501-105.889-105.889zm166.867 105.889h-2.69c38.316-21.119 62.611-61.551 62.611-105.889 0-44.225-24.294-84.769-62.611-105.889h2.69c58.393 0 105.898 47.501 105.898 105.889s-47.505 105.889-105.898 105.889z" fill="#6d00ca"/><g><path d="m167.387 328.769c-42.003 0-76.175-34.172-76.175-76.175s34.172-76.175 76.175-76.175 76.175 34.172 76.175 76.175-34.172 76.175-76.175 76.175zm0-137.349c-33.731 0-61.175 27.443-61.175 61.175s27.443 61.175 61.175 61.175 61.175-27.443 61.175-61.175-27.444-61.175-61.175-61.175z" fill="#007ea8"/></g></g></svg>