<svg id="Capa_1" enable-background="new 0 0 512 512" height="512" viewBox="0 0 512 512" width="512" xmlns="http://www.w3.org/2000/svg"><g><path d="m171.766 401.467v51.871h-17.12c-14.128 0-25.581 11.453-25.581 25.581s11.453 25.581 25.581 25.581h42.701c14.128 0 25.581-11.453 25.581-25.581v-77.452z" fill="#ffd600"/><path d="m331.652 401.467h-40.829v51.87h-17.12c-14.128 0-25.581 11.453-25.581 25.581s11.453 25.581 25.581 25.581h42.701c14.128 0 25.581-11.453 25.581-25.581v-77.715c-3.434.175-6.879.264-10.333.264z" fill="#ffd600"/><g><path d="m197.347 512h-42.7c-18.241 0-33.081-14.84-33.081-33.081s14.84-33.081 33.081-33.081h9.619v-41.371c0-4.142 3.357-7.5 7.5-7.5s7.5 3.358 7.5 7.5v48.871c0 4.142-3.357 7.5-7.5 7.5h-17.119c-9.97 0-18.081 8.111-18.081 18.081s8.111 18.081 18.081 18.081h42.7c9.97 0 18.081-8.111 18.081-18.081v-74.452c0-4.142 3.357-7.5 7.5-7.5s7.5 3.358 7.5 7.5v74.452c0 18.241-14.84 33.081-33.081 33.081z" fill="#f95116"/></g><path d="m171.766 401.467h51.162v32.42h-51.162z" fill="#f95116"/><g><path d="m316.404 512h-42.701c-18.241 0-33.081-14.84-33.081-33.081s14.84-33.081 33.081-33.081h9.62v-41.371c0-4.142 3.357-7.5 7.5-7.5s7.5 3.358 7.5 7.5v48.871c0 4.142-3.357 7.5-7.5 7.5h-17.12c-9.97 0-18.081 8.111-18.081 18.081s8.111 18.081 18.081 18.081h42.701c9.97 0 18.081-8.111 18.081-18.081v-74.715c0-4.142 3.357-7.5 7.5-7.5s7.5 3.358 7.5 7.5v74.715c0 18.241-14.84 33.081-33.081 33.081z" fill="#f95116"/></g><path d="m331.652 401.467h-40.829v32.42h51.162v-32.683c-3.434.174-6.879.263-10.333.263z" fill="#f95116"/><g><path d="m331.652 401.467h-160.793c-86.558 0-135.254-59.975-135.148-59.902-8.926-8.926-8.927-23.398 0-32.325l23.669-23.669c8.926-8.926 23.399-8.927 32.325 0l.001.001c23.504 23.504 55.382 36.708 88.621 36.708h151.325c33.24 0 65.119-13.205 88.623-36.709 8.926-8.926 23.399-8.926 32.325 0l23.67 23.67c8.926 8.926 8.926 23.399 0 32.325-38.356 38.354-90.376 59.901-144.618 59.901z" fill="#7181ff"/></g><g><g><path d="m331.652 408.967h-160.793c-46.502 0-82.26-16.929-104.068-31.13-17.093-11.13-31.474-24.73-36.376-30.977l-.008.008c-11.836-11.837-11.836-31.096.001-42.932l23.668-23.669c11.862-11.863 31.067-11.866 42.932 0 3.092 3.092 6.392 6.042 9.809 8.771 3.237 2.584 3.767 7.303 1.183 10.54-2.583 3.237-7.303 3.767-10.54 1.182-3.854-3.075-7.573-6.402-11.057-9.886-6.001-6.001-15.716-6.004-21.719 0l-23.669 23.669c-5.988 5.988-5.988 15.73 0 21.719.226.226.435.463.626.71 1.66 2.011 48.001 56.996 129.219 56.996h160.793c26.004 0 51.371-5.046 75.396-14.997s45.529-24.321 63.917-42.708c6.002-6.001 6.004-15.715.001-21.718l-23.67-23.67c-5.988-5.989-15.73-5.986-21.719 0-3.991 3.992-8.28 7.765-12.747 11.214-3.277 2.53-7.986 1.928-10.521-1.352-2.531-3.278-1.926-7.989 1.353-10.52 3.962-3.06 7.768-6.407 11.31-9.949 11.835-11.835 31.094-11.836 42.931 0l23.67 23.67c11.864 11.864 11.866 31.067-.001 42.932-19.787 19.788-42.929 35.251-68.783 45.96-25.856 10.707-53.154 16.137-81.138 16.137z" fill="#2115c2"/></g></g><path d="m407.544 67.239v176.399h-303.11v-176.399c0-32.995 26.744-59.739 59.739-59.739h183.631c32.996 0 59.74 26.744 59.74 59.739z" fill="#7181ff"/><circle cx="309.34" cy="148.393" fill="#2115c2" r="11.32"/><g><path d="m279.958 186.402h-47.938c-4.143 0-7.5-3.358-7.5-7.5s3.357-7.5 7.5-7.5h47.938c4.143 0 7.5 3.358 7.5 7.5s-3.357 7.5-7.5 7.5z" fill="#2115c2"/></g><circle cx="202.639" cy="148.393" fill="#2115c2" r="11.32"/><g><path d="m407.544 251.138c-4.143 0-7.5-3.358-7.5-7.5v-176.399c0-28.805-23.434-52.239-52.239-52.239h-183.632c-28.805 0-52.239 23.434-52.239 52.239v176.399c0 4.142-3.357 7.5-7.5 7.5s-7.5-3.358-7.5-7.5v-176.399c0-37.076 30.163-67.239 67.239-67.239h183.632c37.076 0 67.239 30.163 67.239 67.239v176.399c0 4.142-3.357 7.5-7.5 7.5z" fill="#2115c2"/></g><path d="m407.544 243.638v53.035c-21.697 16.513-48.326 25.604-75.894 25.604h-151.322c-27.568 0-54.207-9.091-75.894-25.604v-53.035z" fill="#ff63ed"/><g><path d="m331.651 329.777h-151.322c-28.889 0-57.455-9.637-80.438-27.137-1.862-1.418-2.956-3.625-2.956-5.967v-53.035c0-4.142 3.357-7.5 7.5-7.5h303.11c4.143 0 7.5 3.358 7.5 7.5v53.035c0 2.342-1.094 4.55-2.958 5.968-22.993 17.499-51.558 27.136-80.436 27.136zm-219.717-36.893c19.853 14.143 43.994 21.893 68.395 21.893h151.322c24.392 0 48.532-7.751 68.394-21.894v-41.744h-288.11v41.745z" fill="#e207b9"/></g></g></svg>