<svg id="Capa_1" enable-background="new 0 0 512 512" height="512" viewBox="0 0 512 512" width="512" xmlns="http://www.w3.org/2000/svg"><g><path d="m361.667 262.002 26.394-11.482c14.521-6.317 21.039-23.388 14.281-37.825-6.513-13.915-23.227-19.78-37.315-13.651l-64.399 28.016c-28.559 12.424-41.639 45.647-29.215 74.206 12.424 28.559 45.647 41.639 74.206 29.214l38.543-16.767c14.279-6.212 20.819-22.824 14.607-37.103-6.21-14.281-22.822-20.82-37.102-14.608z" fill="#a4bcff"/><path d="m201.365 416.035c-18.5-3.642-35.177-12.355-48.525-24.635v64.575h-16.237c-13.4 0-24.262 10.863-24.262 24.262 0 13.4 10.863 24.262 24.262 24.262h40.5c9.37 0 17.495-5.316 21.536-13.093-1.738-3.344-2.726-7.14-2.726-11.169 0-5.811 2.045-11.143 5.452-15.32z" fill="#ffff6f"/><path d="m236.412 416.742v39.233h-16.237c-13.4 0-24.262 10.863-24.262 24.262 0 13.4 10.863 24.262 24.262 24.262h40.499c13.4 0 24.262-10.863 24.262-24.262v-85.344c-13.621 11.269-30.257 19.019-48.524 21.849z" fill="#ffff6f"/><path d="m398.253 300.212c-2.838 5.826-7.681 10.712-14.089 13.5l-38.543 16.767c-28.559 12.424-61.782-.656-74.206-29.214-12.424-28.559.656-61.782 29.215-74.206l20.814-9.055v-6.161c0-25.738-9.675-49.212-25.58-66.998h-149.939c-12.189 13.63-20.699 30.609-24.02 49.381h18.545c7.877 0 15.013 3.197 20.174 8.358s8.358 12.297 8.358 20.174c0 15.754-12.778 28.532-28.532 28.532h-20.105v66.099c0 55.532 45.017 100.549 100.549 100.549 32.903 0 62.113-15.805 80.456-40.236l55.903 16.639c26.287 7.824 54.112-6.224 63.423-32.022l5.949-16.482c7.613-21.089-6.745-43.262-28.372-45.625z" fill="#7181ff"/><circle cx="226.426" cy="183.388" fill="#2115c2" r="10.744"/><circle cx="158.22" cy="183.388" fill="#2115c2" r="10.744"/><g fill="#f90"><path d="m152.84 391.4v31.51c14.422 9.334 30.869 15.793 48.525 18.561v-25.436c-18.5-3.642-35.177-12.355-48.525-24.635z"/><path d="m236.412 416.742v25.312c17.35-2.11 33.801-7.749 48.525-16.493v-30.668c-13.622 11.269-30.258 19.019-48.525 21.849z"/><path d="m284.936 390.394c-4.143 0-7.5 3.357-7.5 7.5v82.344c0 9.243-7.52 16.763-16.762 16.763h-40.5c-9.359 0-16.762-7.648-16.762-16.763 0-9.214 7.498-16.762 16.762-16.762h16.237c4.143 0 7.5-3.358 7.5-7.5v-36.233c0-4.143-3.357-7.5-7.5-7.5s-7.5 3.357-7.5 7.5v28.733h-8.737c-3.983 0-7.794.744-11.311 2.089v-30.529c0-4.142-3.357-7.5-7.5-7.5s-7.5 3.358-7.5 7.5v42.414c-3.48 5.154-5.451 11.385-5.451 17.789 0 3.613.654 7.255 1.778 10.471-3.147 3.943-7.924 6.292-13.089 6.292h-40.5c-9.243 0-16.763-7.52-16.763-16.763s7.52-16.762 16.763-16.762h16.237c4.143 0 7.5-3.358 7.5-7.5v-60.577c0-4.142-3.357-7.5-7.5-7.5s-7.5 3.358-7.5 7.5v53.075h-8.737c-17.514 0-31.763 14.249-31.763 31.762 0 17.514 14.249 31.763 31.763 31.763h40.5c8.151 0 15.787-3.084 21.555-8.425 5.665 5.225 13.224 8.425 21.519 8.425h40.5c17.514 0 31.762-14.249 31.762-31.763v-82.344c-.001-4.142-3.358-7.499-7.501-7.499z"/></g><path d="m429.851 312.167c-5.187-8.314-12.912-14.387-21.907-17.439 1.4-7.061.636-14.37-2.297-21.11-3.075-7.069-8.179-12.643-14.334-16.335 18.15-8.062 26.371-29.505 17.822-47.768-8.114-17.335-29.24-25.118-47.1-17.35l-33.228 14.456c-1.154-23.791-10.15-46.632-25.642-64.814-2.688-3.153-7.421-3.531-10.573-.845s-3.531 7.42-.845 10.573c14.313 16.797 22.195 38.215 22.195 60.308v1.245l-16.307 7.094c-15.649 6.808-27.711 19.303-33.962 35.183-6.252 15.88-5.945 33.243.863 48.893 14.166 32.566 51.901 47.1 84.075 33.1l38.543-16.768c5.823-2.532 11.026-6.636 14.843-12.015 6.221 1.813 11.588 5.861 15.125 11.532 4.354 6.979 5.245 15.429 2.446 23.183l-5.949 16.482c-7.953 22.037-31.776 34.063-54.229 27.38l-55.903-16.64c-3.012-.896-6.254.177-8.138 2.685-17.769 23.667-44.908 37.24-74.459 37.24-51.308 0-93.049-41.742-93.049-93.049v-63.099c0-4.142-3.357-7.5-7.5-7.5s-7.5 3.358-7.5 7.5v63.099c0 59.579 48.471 108.049 108.05 108.049 32.552 0 62.583-14.183 83.193-39.097l51.026 15.188c30.174 8.982 62.006-7.265 72.617-36.664l5.949-16.483c4.375-12.108 2.979-25.308-3.825-36.214zm-87.222 11.435c-24.682 10.738-53.565-.575-64.338-25.329-10.754-24.721.609-53.583 25.33-64.336l64.399-28.017c10.49-4.563 22.834-.081 27.529 9.954 4.956 10.586.215 23.117-10.48 27.768l-26.384 11.479c-.004.001-.007.003-.011.004-3.798 1.652-5.537 6.071-3.885 9.87 1.652 3.797 6.066 5.538 9.869 3.885l.032-.014c10.456-4.529 22.654.282 27.202 10.736 4.606 10.588-.355 22.725-10.722 27.233z" fill="#2115c2"/><g><path d="m122.571 198.346c-.518 0-1.041-.053-1.566-.165-4.052-.861-6.639-4.844-5.777-8.895 3.729-17.549 11.887-34.046 23.59-47.707 2.694-3.145 7.427-3.511 10.575-.816 3.146 2.695 3.511 7.429.815 10.575-10.076 11.761-17.099 25.962-20.309 41.065-.749 3.526-3.863 5.943-7.328 5.943z" fill="#2115c2"/></g><path d="m168.982 222.757h-85.666c0-15.754 12.768-28.532 28.522-28.532h28.612c7.877 0 15.013 3.197 20.174 8.358 5.161 5.162 8.358 12.297 8.358 20.174z" fill="#ffff6f"/><path d="m168.982 222.757c0 15.754-12.778 28.532-28.532 28.532h-28.612c-7.877 0-15.013-3.197-20.164-8.358-5.171-5.161-8.358-12.297-8.358-20.174z" fill="#ffff6f"/><path d="m165.928 197.28c-6.807-6.806-15.854-10.555-25.478-10.555h-28.612c-19.863 0-36.022 16.164-36.022 36.032 0 20.037 16.244 36.031 36.022 36.031h28.612c19.868 0 36.032-16.164 36.032-36.031 0-9.622-3.749-18.67-10.554-25.477zm-54.09 4.446h28.612c5.616 0 10.897 2.188 14.87 6.161 2.131 2.131 3.749 4.638 4.79 7.371h-67.914c3.027-7.904 10.69-13.532 19.642-13.532zm28.612 42.063h-28.612c-9.147 0-16.709-5.799-19.653-13.531h67.915c-3.027 7.904-10.694 13.531-19.65 13.531z" fill="#f90"/><path d="m318.704 95.965h-195.62c-13.498 0-24.44 10.942-24.44 24.44 0 13.498 10.942 24.44 24.44 24.44h195.62c13.498 0 24.44-10.942 24.44-24.44 0-13.498-10.942-24.44-24.44-24.44z" fill="#9448f5"/><path d="m300.247 37.265v18.48h-158.705v-18.48c0-16.436 13.319-29.765 29.755-29.765h99.185c16.446 0 29.765 13.329 29.765 29.765z" fill="#9448f5"/><path d="m141.542 55.745h158.705v40.217h-158.705z" fill="#b98eff"/><path d="m318.704 88.465h-10.957c0-15.202 0-35.868 0-51.2 0-20.548-16.717-37.265-37.265-37.265h-99.186c-20.542 0-37.255 16.717-37.255 37.265v51.2h-10.958c-17.612 0-31.94 14.328-31.94 31.94s14.328 31.94 31.94 31.94h195.62c17.612 0 31.94-14.328 31.94-31.94s-14.327-31.94-31.939-31.94zm-169.662-25.22h143.705v25.217h-143.705zm0-25.98c0-12.277 9.983-22.265 22.255-22.265h99.186c12.276 0 22.265 9.988 22.265 22.265v10.98h-143.706zm169.662 100.08h-195.62c-9.341 0-16.94-7.599-16.94-16.94s7.6-16.94 16.94-16.94h195.62c9.341 0 16.94 7.599 16.94 16.94s-7.599 16.94-16.94 16.94z" fill="#6d00ca"/></g></svg>