<svg id="Capa_1" enable-background="new 0 0 512.007 512.007" height="512" viewBox="0 0 512.007 512.007" width="512" xmlns="http://www.w3.org/2000/svg"><g><path d="m444.663 133.91c-3.154 1.692-6.918 1.689-10.071 0-20.996-11.249-36.806-23.745-46.987-37.145-5.015-6.601-8.599-13.396-10.688-20.156h-211.157c-27.913 0-50.528 22.625-50.528 50.538v51.919c12.075 5.537 20.997 17.191 21.932 32.183.739 11.878-3.676 24.484-12.771 36.453-2.667 3.51-5.73 6.956-9.161 10.336v112.895c-2.113-.232-4.255-.357-6.416-.357-33.19 0-59.906 27.662-58.363 61.18 1.37 29.939 25.664 54.233 55.603 55.603 33.518 1.544 61.18-25.182 61.18-58.363v-187.294c0-12.717 10.304-23.021 23.011-23.021h195.215c12.707 0 23.011 10.304 23.011 23.021v129.233c-2.113-.232-4.245-.357-6.416-.357-33.19 0-59.906 27.662-58.363 61.18 1.37 29.939 25.664 54.233 55.603 55.603.926.039 1.843.068 2.759.068 32.264 0 58.421-26.166 58.421-58.43v-301.852c0-.856-.023-1.706-.065-2.551-4.874 3.189-10.119 6.298-15.749 9.314z" fill="#88f8d8"/><path d="m460.413 124.596c.042.845.065 1.695.065 2.551v301.851c0 32.264-26.157 58.43-58.421 58.43h38.593c32.264 0 58.421-26.157 58.421-58.43v-301.851c0-10.605-3.272-20.442-8.853-28.57-7.339 9.144-17.32 17.854-29.805 26.019z" fill="#17d9c3"/><path d="m504.42 60.312c-1.916-30.716-37.318-47.493-64.793-26.137-27.458-21.341-62.875-4.594-64.791 26.137-.741 11.878 3.676 24.484 12.768 36.453 10.181 13.4 25.99 25.896 46.987 37.145 3.154 1.689 6.918 1.692 10.071 0 20.999-11.249 36.806-23.745 46.987-37.145 9.096-11.969 13.51-24.576 12.771-36.453z" fill="#ff63ed"/><g><circle cx="332.299" cy="147.13" fill="#007ea8" r="10.984"/><g><path d="m303.787 184.235h-46.517c-4.143 0-7.5-3.358-7.5-7.5s3.357-7.5 7.5-7.5h46.518c4.143 0 7.5 3.358 7.5 7.5s-3.358 7.5-7.501 7.5z" fill="#007ea8"/></g><circle cx="228.758" cy="147.13" fill="#007ea8" r="10.984"/></g><g fill="#007ea8"><path d="m115.232 183.566c4.143 0 7.5-3.358 7.5-7.5v-48.919c0-23.731 19.302-43.038 43.027-43.038h208.156c4.143 0 7.5-3.357 7.5-7.5 0-4.142-3.357-7.5-7.5-7.5h-208.155c-31.996 0-58.027 26.036-58.027 58.038v48.919c-.001 4.142 3.357 7.5 7.499 7.5z"/><path d="m497.657 96.24c-2.21-3.504-6.841-4.554-10.345-2.345s-4.554 6.841-2.345 10.345c4.32 6.852 6.604 14.773 6.604 22.907v301.851c0 26.955-21.044 49.087-47.563 50.821 15.065-12.47 23.97-31.086 23.97-50.821v-301.851c0-.561-.048-1.093-.137-1.597-.531-3.804-3.896-6.643-7.8-6.445-4.137.206-7.324 3.726-7.119 7.863.012.222.03.439.056.653v301.376c0 28.083-22.843 50.93-50.92 50.93-.813 0-1.626-.027-2.417-.06-25.981-1.189-47.265-22.472-48.453-48.457-1.351-29.338 21.999-53.334 50.87-53.334 1.849 0 3.681.102 5.6.313 4.433.486 8.316-2.99 8.316-7.456v-129.231c0-16.83-13.688-30.521-30.512-30.521h-195.214c-16.824 0-30.512 13.692-30.512 30.521v187.296c0 28.72-23.87 52.226-53.337 50.871-25.981-1.189-47.265-22.473-48.454-48.457-1.351-29.338 22-53.334 50.871-53.334 1.823 0 3.707.105 5.6.313 4.433.486 8.316-2.989 8.316-7.456v-109.896c0-4.142-3.357-7.5-7.5-7.5s-7.5 3.358-7.5 7.5v102.046c-36.87.585-66.503 31.44-64.771 69.015 1.54 33.648 29.104 61.212 62.751 62.752 37.978 1.761 69.024-28.538 69.024-65.854v-187.296c0-8.559 6.959-15.521 15.512-15.521h195.214c8.553 0 15.512 6.963 15.512 15.521v121.384c-36.87.585-66.502 31.44-64.771 69.014 1.539 33.649 29.103 61.213 62.783 62.754 3.35.14 1.174.043 41.664.074 36.349 0 65.921-29.576 65.921-65.93v-301.851c0-10.969-3.083-21.656-8.914-30.907z"/></g><path d="m511.905 59.847c0-.001 0-.001 0-.002-2.185-35.027-40.661-54.745-72.279-34.817-31.644-19.94-70.092-.186-72.276 34.815v.001c-2.218 35.548 32.137 63.767 63.698 80.677l.006.003c5.369 2.874 11.782 2.876 17.153-.005.004-.002.009-.005.013-.008 31.433-16.839 65.901-45.055 63.685-80.664zm-70.779 67.45c-.003.001-.007.003-.01.004-.93.5-2.046.5-2.983-.001-25.184-13.492-57.6-37.841-55.812-66.521 1.549-24.853 30.099-38.251 52.703-20.682 2.619 2.044 6.462 2.141 9.205 0 22.667-17.617 51.159-4.099 52.705 20.682 1.784 28.672-30.612 53.019-55.808 66.518z" fill="#e207b9"/><path d="m137.164 211.25c-1.916-30.716-37.318-47.493-64.793-26.137-27.458-21.341-62.875-4.594-64.791 26.137-.741 11.878 3.676 24.484 12.768 36.453 10.181 13.4 25.99 25.896 46.987 37.145 3.154 1.689 6.918 1.692 10.071 0 20.999-11.249 36.806-23.745 46.987-37.145 9.095-11.969 13.51-24.575 12.771-36.453z" fill="#ff63ed"/><path d="m144.649 210.785c0-.001 0-.001 0-.002-2.184-35.023-40.655-54.746-72.279-34.816-31.637-19.938-70.092-.188-72.275 34.815v.001c-.854 13.697 4.083 28.033 14.28 41.457.001.002.003.004.005.006 10.837 14.26 27.461 27.454 49.413 39.214.002.001.004.002.006.003 5.369 2.874 11.782 2.876 17.153-.005.004-.002.009-.005.013-.008 21.942-11.756 38.563-24.947 49.397-39.206.001-.001.001-.002.002-.003 10.198-13.419 15.137-27.754 14.285-41.456zm-70.779 67.45c-.003.001-.007.002-.01.004-.931.5-2.047.5-2.983-.001-20.041-10.736-35.031-22.535-44.555-35.069 0 0-.001-.001-.001-.002-7.99-10.519-11.882-21.394-11.255-31.45 1.545-24.793 30.054-38.285 52.702-20.681 2.687 2.072 6.456 2.12 9.205 0 22.676-17.627 51.161-4.084 52.706 20.682v.001c.624 10.06-3.268 20.934-11.257 31.448-9.525 12.534-24.514 24.333-44.552 35.068z" fill="#e207b9"/></g></svg>