<svg id="Capa_1" enable-background="new 0 0 512 512" height="512" viewBox="0 0 512 512" width="512" xmlns="http://www.w3.org/2000/svg"><g><path d="m364.66 404.377h-217.32c-28.681 0-48.536-28.62-38.492-55.483l8.287-22.161h277.729l8.287 22.161c10.046 26.863-9.81 55.483-38.491 55.483z" fill="#ffd600"/><path d="m175.279 141.07c11.099-11.099 24.476-19.918 39.366-25.708v-31.146c0-16.684 9.885-31.05 24.113-37.588 0 0-.381-1.072-1.192-2.893-23.951-53.755-102.591-45.838-115.941 11.477-8.535 36.643-6.055 81.079 53.654 85.858z" fill="#ff63ed"/><path d="m297.355 84.216v31.146c14.89 5.79 28.267 14.609 39.366 25.708 59.709-4.779 62.19-49.215 53.655-85.858-13.35-57.315-91.991-65.232-115.941-11.477-.811 1.821-1.192 2.893-1.192 2.893 14.227 6.537 24.112 20.904 24.112 37.588z" fill="#ff63ed"/><path d="m256 107.636c14.587 0 28.532 2.74 41.355 7.726v-31.146c0-22.84-18.515-41.355-41.355-41.355-22.84 0-41.355 18.515-41.355 41.355v31.146c12.823-4.986 26.768-7.726 41.355-7.726z" fill="#ff9bff"/><path d="m394.865 326.734h-277.729l11.121-29.757c4.489-12.025 7.891-24.405 10.166-36.989 2.275-12.573 3.423-25.36 3.423-38.197 0-31.514 12.776-60.053 33.434-80.721 20.658-20.658 49.196-33.434 80.721-33.434s60.063 12.776 80.721 33.434c20.658 20.668 33.434 49.206 33.434 80.721 0 25.675 4.601 51.136 13.589 75.186z" fill="#f90"/><path d="m177.245 404.377v50.91h-16.467c-13.59 0-24.606 11.017-24.606 24.606 0 13.59 11.017 24.606 24.606 24.606h41.074c13.59 0 24.606-11.017 24.606-24.606v-75.516z" fill="#7181ff"/><path d="m291.765 404.377v50.91h-16.467c-13.59 0-24.606 11.017-24.606 24.606 0 13.59 11.017 24.606 24.606 24.606h41.074c13.59 0 24.606-11.017 24.606-24.606v-75.516z" fill="#7181ff"/><circle cx="307.318" cy="242.287" fill="#f95116" r="10.888"/><path d="m232.944 271.634h46.112" style="fill:none;stroke:#f95116;stroke-width:15;stroke-linecap:round;stroke-linejoin:round;stroke-miterlimit:10"/><circle cx="204.682" cy="242.287" fill="#f95116" r="10.888"/><path d="m397.68 53.51c-6.855-29.432-30.743-50.307-60.856-53.181-28.589-2.73-54.681 11.66-67.566 36.874-4.219-1.191-8.663-1.843-13.258-1.843-4.596 0-9.039.652-13.259 1.843-12.884-25.212-38.993-39.603-67.565-36.873-30.113 2.874-54 23.748-60.856 53.181-6.93 29.753-4.453 53.202 7.36 69.695 10.289 14.364 27.319 22.818 50.617 25.128 4.13.408 7.796-2.608 8.204-6.724.408-4.122-2.602-7.794-6.724-8.203-18.813-1.865-32.239-8.236-39.903-18.935-11.445-15.98-9.007-40.12-4.945-57.557 6.517-27.977 28.898-39.86 47.671-41.652 17.762-1.695 40.437 4.943 52.503 28.178-13.174 8.717-21.959 23.903-21.959 40.775v27.147 1c0 4.142 3.357 7.5 7.5 7.5s7.5-3.358 7.5-7.5v-1-27.147c0-18.555 15.132-33.855 33.855-33.855 18.875 0 33.855 15.436 33.855 33.855v27.147 1c0 4.142 3.357 7.5 7.5 7.5s7.5-3.358 7.5-7.5v-1-27.147c0-16.584-8.53-31.935-21.959-40.775 12.067-23.238 34.753-29.875 52.503-28.178 18.773 1.792 41.155 13.675 47.671 41.652 4.074 17.492 6.509 41.697-5.03 57.675-7.792 10.788-21.473 17.147-40.666 18.898-4.125.376-7.164 4.026-6.787 8.151.376 4.123 4.02 7.162 8.15 6.787 23.704-2.164 41.018-10.593 51.462-25.054 11.92-16.502 14.435-40.007 7.482-69.862z" fill="#e207b9"/><g><path d="m201.851 512h-41.074c-17.704 0-32.107-14.403-32.107-32.106s14.403-32.106 32.107-32.106h8.967v-40.41c0-4.142 3.357-7.5 7.5-7.5s7.5 3.358 7.5 7.5v47.91c0 4.142-3.357 7.5-7.5 7.5h-16.467c-9.433 0-17.107 7.674-17.107 17.107s7.675 17.107 17.107 17.107h41.074c9.433 0 17.106-7.674 17.106-17.107v-72.517c0-4.142 3.357-7.5 7.5-7.5s7.5 3.358 7.5 7.5v72.517c0 17.702-14.403 32.105-32.106 32.105z" fill="#2115c2"/></g><path d="m177.245 404.377h49.213v31.185h-49.213z" fill="#2115c2"/><path d="m291.765 404.377h49.213v31.185h-49.213z" fill="#2115c2"/><g><path d="m316.372 512h-41.074c-17.703 0-32.106-14.403-32.106-32.106s14.403-32.106 32.106-32.106h8.968v-40.41c0-4.142 3.357-7.5 7.5-7.5s7.5 3.358 7.5 7.5v47.91c0 4.142-3.357 7.5-7.5 7.5h-16.468c-9.433 0-17.106 7.674-17.106 17.107s7.674 17.107 17.106 17.107h41.074c9.433 0 17.106-7.674 17.106-17.107v-72.517c0-4.142 3.357-7.5 7.5-7.5s7.5 3.358 7.5 7.5v72.517c0 17.702-14.404 32.105-32.106 32.105z" fill="#2115c2"/></g><path d="m410.177 346.267c-19.847-53.071-32.522-79.178-32.522-124.477 0-32.486-12.653-63.035-35.631-86.024-22.976-22.976-53.528-35.63-86.023-35.63s-63.047 12.654-86.025 35.632c-22.976 22.987-35.63 53.537-35.63 86.023 0 51.215-18.161 82.665-24.232 102.31-.001.002-.002.004-.003.006l-8.287 22.161c-11.866 31.738 11.639 65.609 45.517 65.609h217.32c33.885 0 57.38-33.876 45.516-65.61zm-260.832-124.476c0-28.48 11.095-55.265 31.238-75.417 20.143-20.144 46.927-31.238 75.417-31.238s55.274 11.094 75.416 31.236c20.144 20.154 31.239 46.939 31.239 75.419 0 51.978 17.591 84.845 21.4 97.443h-256.11c3.869-12.651 21.4-45.709 21.4-97.443zm215.315 175.086h-217.32c-23.453 0-39.699-23.341-31.466-45.356l6.464-17.287h267.325l6.464 17.287c8.209 21.955-7.947 45.356-31.467 45.356z" fill="#f95116"/></g></svg>