<svg id="Capa_1" enable-background="new 0 0 512 512" height="512" viewBox="0 0 512 512" width="512" xmlns="http://www.w3.org/2000/svg"><g><path d="m325.666 35.341c0 20.431-14.116 48.581-38.52 72.984-34.405 34.405-76.243 48.343-93.439 31.146-5.007-5.007-7.373-12.083-7.373-20.455 0-20.443 14.116-48.581 38.52-72.984 34.405-34.405 76.243-48.355 93.439-31.147 5.006 4.996 7.373 12.083 7.373 20.456z" fill="#ff9bff"/><path d="m186.455 246.17h139.09c.041 0 .081.003.121.003v-210.832c0 20.431-14.116 48.581-38.52 72.984-34.405 34.405-76.243 48.343-93.439 31.146-5.007-5.007-7.373-12.083-7.373-20.455v127.156c.04.001.08-.002.121-.002z" fill="#ff63ed"/><path d="m368.24 288.865v19.857h-224.48v-19.857c0-23.578 19.117-42.695 42.695-42.695h139.09c23.578 0 42.695 19.117 42.695 42.695z" fill="#ffff6f"/><path d="m273.222 414.32v41.638h-16.243c-13.405 0-24.271 10.867-24.271 24.271s10.867 24.271 24.271 24.271h40.514c13.404 0 24.271-10.867 24.271-24.271v-65.91h-48.542z" fill="#88f8d8"/><path d="m238.162 414.32h-48.542v41.638h-16.243c-13.404 0-24.271 10.867-24.271 24.271s10.867 24.271 24.271 24.271h40.514c9.374 0 17.501-5.318 21.544-13.098-1.738-3.345-2.727-7.143-2.727-11.173 0-5.813 2.046-11.147 5.454-15.326z" fill="#88f8d8"/><path d="m368.24 308.722v62.892c0 23.588-19.117 42.705-42.695 42.705h-139.09c-23.578 0-42.695-19.117-42.695-42.705v-62.892z" fill="#7181ff"/><circle cx="306.547" cy="346.063" fill="#2115c2" r="10.725"/><g><path d="m278.709 382.469h-45.42c-4.142 0-7.5-3.358-7.5-7.5s3.357-7.5 7.5-7.5h45.42c4.142 0 7.5 3.358 7.5 7.5s-3.357 7.5-7.5 7.5z" fill="#2115c2"/></g><circle cx="205.453" cy="346.063" fill="#2115c2" r="10.725"/><path d="m323.598 9.584c-10.43-10.437-27.454-12.425-47.944-5.596-18.732 6.245-38.656 19.292-56.104 36.74-25.115 25.115-40.716 55.112-40.716 78.287v124.157c0 4.142 3.357 7.5 7.5 7.5.091 0 .183-.002.276-.004 4.581-.093 8.052-4.262 7.223-8.848v-92.755c28.209 17.28 73.699-10.521 98.616-35.437 10.727-10.73 19.55-22.261 25.716-32.619v160.811c-.814 4.505 2.543 8.852 7.5 8.852 4.142 0 7.5-3.358 7.5-7.5v-207.832c.001-10.604-3.311-19.514-9.567-25.756zm-93.441 41.751c15.833-15.833 33.675-27.594 50.241-33.116 10.28-3.427 24.876-5.751 32.598 1.977 5.696 5.683 5.831 15.1 4.432 23.064-3.172 18.074-16.435 40.612-35.585 59.762-14.841 14.841-31.451 26.104-47.119 32.004-20.937 7.878-40.889 6.348-40.889-16.01-.001-19.049 14.256-45.616 36.322-67.681z" fill="#e207b9"/><g fill="#007ea8"><path d="m321.764 409.82c-4.142 0-7.5 3.358-7.5 7.5v62.91c0 9.248-7.523 16.771-16.771 16.771h-40.513c-9.258 0-16.771-7.544-16.771-16.771 0-9.363 7.628-16.771 16.771-16.771h16.243c4.142 0 7.5-3.358 7.5-7.5v-38.639c0-4.142-3.357-7.5-7.5-7.5s-7.5 3.358-7.5 7.5v31.139h-8.743c-3.986 0-7.8.745-11.318 2.091v-33.23c0-4.142-3.357-7.5-7.5-7.5s-7.5 3.358-7.5 7.5v45.115c-3.615 5.359-5.453 11.611-5.453 17.795 0 3.606.655 7.266 1.779 10.474-3.149 3.946-7.928 6.297-13.097 6.297h-40.514c-9.248 0-16.771-7.523-16.771-16.771s7.523-16.771 16.771-16.771h16.244c4.142 0 7.5-3.358 7.5-7.5v-38.639c0-4.142-3.357-7.5-7.5-7.5s-7.5 3.358-7.5 7.5v31.139h-8.744c-17.518 0-31.771 14.253-31.771 31.771 0 17.519 14.253 31.771 31.771 31.771h40.514c8.155 0 15.794-3.086 21.563-8.43 5.665 5.228 13.227 8.43 21.525 8.43h40.513c17.518 0 31.771-14.252 31.771-31.771v-62.91c.001-4.142-3.357-7.5-7.499-7.5z"/><path d="m189.62 414.32h48.542v25.009h-48.542z"/><path d="m273.222 414.32h48.542v25.009h-48.542z"/></g><g><path d="m325.545 421.819h-139.09c-27.678 0-50.195-22.522-50.195-50.205v-62.892c0-4.142 3.357-7.5 7.5-7.5s7.5 3.358 7.5 7.5v62.892c0 19.412 15.789 35.206 35.195 35.206h139.09c19.407 0 35.195-15.793 35.195-35.206v-62.892c0-4.142 3.357-7.5 7.5-7.5s7.5 3.358 7.5 7.5v62.892c0 27.684-22.517 50.205-50.195 50.205z" fill="#2115c2"/></g><g><path d="m368.24 316.222h-224.48c-4.142 0-7.5-3.358-7.5-7.5v-19.857c0-27.677 22.517-50.195 50.195-50.195h139.09c27.678 0 50.195 22.517 50.195 50.195v19.857c0 4.142-3.358 7.5-7.5 7.5zm-216.98-15h209.48v-12.357c0-19.407-15.789-35.195-35.195-35.195h-139.09c-19.407 0-35.195 15.789-35.195 35.195z" fill="#f90"/></g></g></svg>