<svg id="Capa_1" enable-background="new 0 0 512 512" height="512" viewBox="0 0 512 512" width="512" xmlns="http://www.w3.org/2000/svg"><g><path d="m345.969 222.152c0-23.184-10.221-43.968-26.387-58.134 12.867-11.705 40.551-33.695 80.478-48.328 49.957-18.308 104.44 15.455 104.44 64.277v84.37c0 48.822-54.483 82.585-104.44 64.277-39.927-14.632-67.611-36.623-80.478-48.328 16.165-14.166 26.387-34.95 26.387-58.134z" fill="#ff63ed"/><path d="m166.031 222.152c0-23.184 10.221-43.968 26.387-58.134-12.867-11.705-40.551-33.695-80.478-48.328-49.957-18.308-104.44 15.456-104.44 64.278v84.37c0 48.822 54.483 82.585 104.44 64.277 39.927-14.632 67.611-36.623 80.478-48.328-16.165-14.167-26.387-34.951-26.387-58.135z" fill="#ff63ed"/><path d="m192.418 280.286c-5.057 4.6-12.413 10.792-21.891 17.499v52.418h-17.119c-14.128 0-25.581 11.453-25.581 25.581s11.453 25.581 25.581 25.581h42.7c14.128 0 25.581-11.453 25.581-25.581v-79.428c-10.956-3.194-20.91-8.743-29.271-16.07z" fill="#ffff6f"/><path d="m319.581 280.286c.001-.001.002-.002.003-.003-8.546 7.49-18.755 13.129-30 16.288v53.632h-17.12c-14.128 0-25.581 11.453-25.581 25.581s11.453 25.581 25.581 25.581h42.701c14.128 0 25.581-11.453 25.581-25.581v-78.514c-9.129-6.508-16.237-12.501-21.165-16.984z" fill="#ffff6f"/><g><path d="m196.108 408.865h-42.7c-18.241 0-33.081-14.84-33.081-33.081s14.84-33.081 33.081-33.081h9.619v-41.918c0-4.142 3.357-7.5 7.5-7.5s7.5 3.358 7.5 7.5v49.418c0 4.142-3.357 7.5-7.5 7.5h-17.119c-9.97 0-18.081 8.111-18.081 18.081s8.111 18.081 18.081 18.081h42.7c9.97 0 18.081-8.111 18.081-18.081v-76.427c0-4.142 3.357-7.5 7.5-7.5s7.5 3.358 7.5 7.5v76.427c0 18.241-14.839 33.081-33.081 33.081z" fill="#f90"/></g><g><path d="m315.165 408.865h-42.701c-18.241 0-33.081-14.84-33.081-33.081s14.84-33.081 33.081-33.081h9.62v-43.132c0-4.142 3.357-7.5 7.5-7.5s7.5 3.358 7.5 7.5v50.632c0 4.142-3.357 7.5-7.5 7.5h-17.12c-9.97 0-18.081 8.111-18.081 18.081s8.111 18.081 18.081 18.081h42.701c9.97 0 18.081-8.111 18.081-18.081v-75.514c0-4.142 3.357-7.5 7.5-7.5s7.5 3.358 7.5 7.5v75.514c0 18.241-14.84 33.081-33.081 33.081z" fill="#f90"/></g><path d="m319.584 280.284c-8.546 7.49-18.755 13.129-30 16.288v28.093h51.162v-27.395c-9.129-6.508-16.237-12.501-21.165-16.983.001-.001.002-.002.003-.003z" fill="#f90"/><path d="m170.527 297.785v26.88h51.162v-28.308c-10.957-3.195-20.91-8.744-29.271-16.07-5.057 4.6-12.412 10.791-21.891 17.498z" fill="#f90"/><g fill="#ff9bff"><path d="m166.031 222.152c0-5.819.664-11.481 1.883-16.932-43.816-14.852-87.675-6.564-90.284-6.048-9.483 1.877-15.639 11.071-13.784 20.559 1.854 9.488 11.062 15.678 20.552 13.848.578-.11 46.696-8.636 84.677 10.04-1.968-6.817-3.044-14.014-3.044-21.467z"/><path d="m345.969 222.152c0-5.819-.664-11.481-1.883-16.932 43.816-14.852 87.675-6.564 90.284-6.048 9.483 1.877 15.639 11.071 13.784 20.559-1.854 9.488-11.062 15.678-20.552 13.848-.578-.11-46.696-8.636-84.677 10.04 1.968-6.817 3.044-14.014 3.044-21.467z"/><path d="m268.679 144.862h-25.357c-42.686 0-77.29 34.604-77.29 77.29 0 42.686 34.604 77.29 77.29 77.29h25.357c42.686 0 77.29-34.604 77.29-77.29 0-42.686-34.604-77.29-77.29-77.29z"/></g><path d="m397.479 108.649c-36.652 13.433-63.315 32.902-78.117 45.569-14.148-10.582-31.697-16.855-50.683-16.855h-25.357c-18.986 0-36.535 6.273-50.683 16.855-14.802-12.667-41.465-32.136-78.117-45.569-54.779-20.074-114.522 17.153-114.522 71.319v84.37c0 54.139 59.719 91.401 114.521 71.319 36.65-13.432 63.314-32.901 78.117-45.569 14.148 10.582 31.696 16.855 50.682 16.855h25.357c18.986 0 36.535-6.273 50.683-16.855 14.802 12.667 41.465 32.136 78.117 45.569 54.771 20.07 114.523-17.151 114.523-71.32v-84.37c0-54.357-59.948-91.315-114.521-71.318zm-288.12 212.923c-45.641 16.727-94.359-14.204-94.359-57.235v-84.37c0-43.272 48.986-73.863 94.359-57.235 33.309 12.207 57.823 29.678 71.993 41.578-8.249 8.837-14.724 19.677-18.598 31.46-43.292-12.26-84.737-4.32-86.58-3.956-13.498 2.671-22.33 15.84-19.688 29.356 2.641 13.513 15.808 22.383 29.307 19.779.428-.081 42.176-7.626 77.125 8.067 4.156 12.197 10.587 22.569 18.435 30.978-14.17 11.901-38.687 29.372-71.994 41.578zm49.681-90.159c-23.584-7.951-55.589-9.104-76.062-5.198-5.428 1.049-10.714-2.507-11.771-7.922-1.059-5.417 2.477-10.694 7.879-11.763 1.701-.337 40.232-7.721 80.271 3.864-.47 3.346-.826 7.832-.826 11.759 0 2.923.201 6.475.509 9.26zm84.281 60.529c-38.682 0-69.79-31.565-69.79-69.79 0-38.153 31.036-69.79 69.79-69.79h25.357c38.316 0 69.79 31.168 69.79 69.79 0 38.499-31.349 69.79-69.79 69.79zm110.148-69.79c0-3.894-.34-8.289-.826-11.759 40.041-11.584 78.57-4.201 80.271-3.864 5.403 1.069 8.938 6.346 7.88 11.763-1.059 5.416-6.334 8.971-11.785 7.92-.436-.083-39.188-7.226-76.048 5.201.306-2.795.508-6.315.508-9.261zm143.531 42.185c0 43.268-48.95 73.877-94.359 57.235-33.309-12.207-57.823-29.678-71.993-41.578 7.723-8.273 14.275-18.766 18.434-30.978 34.948-15.694 76.697-8.148 77.1-8.072 13.538 2.608 26.692-6.261 29.332-19.774 2.642-13.516-6.19-26.684-19.689-29.356-1.84-.364-43.286-8.303-86.579 3.957-3.739-11.417-10.262-22.532-18.598-31.461 14.17-11.9 38.685-29.371 71.993-41.578 45.641-16.726 94.359 14.205 94.359 57.236z" fill="#e207b9"/><circle cx="302.731" cy="214.614" fill="#e207b9" r="9.915"/><path d="m235.005 241.337h41.99" style="fill:none;stroke:#e207b9;stroke-width:15;stroke-linecap:round;stroke-linejoin:round;stroke-miterlimit:10"/><circle cx="209.269" cy="214.614" fill="#e207b9" r="9.915"/></g></svg>