<svg id="Capa_1" enable-background="new 0 0 512 512" height="512" viewBox="0 0 512 512" width="512" xmlns="http://www.w3.org/2000/svg"><g><path d="m253.393 411.086c-22.11-1.237-42.889-11.277-57.601-27.997l-146.57-166.546c-10.77-12.239-16.921-27.236-18.284-42.646h127.652c.042 13.729 2.875 27.458 8.508 40.299z" fill="#7181ff"/><path d="m485.085 173.898h-127.651c.042-13.75-2.716-27.5-8.286-40.395l-54.409-126.003h33.187c42.001 0 81.159 21.159 104.189 56.269l41.06 62.621c9.458 14.427 13.369 31.189 11.91 47.508z" fill="#a4bcff"/><path d="m357.434 173.898h-198.845c-.042-13.75 2.716-27.5 8.286-40.395l54.409-126.003h73.454l54.409 126.003c5.57 12.894 8.329 26.644 8.287 40.395z" fill="#7181ff"/><path d="m357.434 173.898c-.042 13.729-2.875 27.458-8.508 40.299l-86.296 196.889c-1.533.085-3.076.127-4.619.127s-3.086-.042-4.619-.127l-86.296-196.889c-5.633-12.841-8.466-26.57-8.508-40.299z" fill="#a4bcff"/><path d="m239.756 409.155c-16.886-3.815-32.326-12.84-43.964-26.066l-7.342-8.342v78.448h-17.168c-14.167 0-25.653 11.485-25.653 25.653s11.485 25.653 25.653 25.653h42.82c9.907 0 18.497-5.62 22.771-13.843-1.837-3.536-2.882-7.55-2.882-11.81 0-6.144 2.162-11.781 5.764-16.198v-53.495z" fill="#88f8d8"/><path d="m320.231 383.089c-7.874 8.941-17.47 15.97-28.082 20.768-4.919 2.223-10.059 3.95-15.337 5.181v44.157h-17.167c-14.168 0-25.653 11.485-25.653 25.653s11.485 25.653 25.653 25.653h42.82c14.168 0 25.653-11.485 25.653-25.653v-104.72z" fill="#88f8d8"/><path d="m188.098 7.5c-37.883 0-73.449 17.219-96.958 46.357 4.929 6.208 11.919 10.515 20.23 12.269 5.006 1.057 8.687 5.308 8.687 10.424v.946c0 5.116-3.682 9.367-8.687 10.424-13.932 2.941-24.202 13.012-27.154 27.286-1.03 4.981-5.447 8.535-10.534 8.535h-.684c-5.249 0-9.499-3.682-10.556-8.687-.893-4.229-2.451-8.115-4.576-11.567l-15.017 22.903c-9.459 14.427-13.37 31.189-11.911 47.507h127.652c-.042-13.75 2.716-27.5 8.286-40.395l54.408-126.002z" fill="#a4bcff"/><path d="m357.434 173.898c-.042 13.729-2.875 27.458-8.508 40.299l-86.296 196.889c10.284-.571 20.282-3.054 29.519-7.229 10.611-4.798 20.208-11.827 28.082-20.768l68.715-78.08c-4.41-3.83-9.846-6.524-16-7.824-5.006-1.057-8.687-5.308-8.687-10.424v-.946c0-5.116 3.682-9.367 8.687-10.424 13.932-2.941 24.201-13.011 27.154-27.285 1.03-4.981 5.447-8.535 10.666-8.535h.685c5.111 0 9.366 3.674 10.42 8.675 1.022 4.848 2.924 9.238 5.549 13.046l39.381-44.748c10.77-12.239 16.921-27.236 18.284-42.646z" fill="#7181ff"/><g fill="#007ea8"><path d="m195.792 383.089-7.342-8.342v44.603c14.976 11.399 32.675 19.05 51.306 22.091v-32.285c-16.886-3.817-32.326-12.841-43.964-26.067z"/><path d="m328.117 369.628c-4.143 0-7.5 3.358-7.5 7.5v101.72c0 10.009-8.144 18.152-18.152 18.152h-42.82c-10.081 0-18.152-8.231-18.152-18.152 0-10.026 8.166-18.153 18.152-18.153h17.168c4.143 0 7.5-3.358 7.5-7.5v-41.157c0-4.142-3.357-7.5-7.5-7.5s-7.5 3.358-7.5 7.5v33.657h-9.668c-4.378 0-8.558.861-12.388 2.41v-35.95c0-4.142-3.357-7.5-7.5-7.5s-7.5 3.358-7.5 7.5v48.016c-3.75 5.519-5.765 12.048-5.765 18.677 0 6.149 1.845 10.792 1.935 11.15-3.405 4.383-8.646 7.002-14.323 7.002h-42.82c-10.009 0-18.152-8.143-18.152-18.152s8.144-18.153 18.152-18.153h17.168c4.143 0 7.5-3.358 7.5-7.5v-75.448c0-4.142-3.357-7.5-7.5-7.5s-7.5 3.358-7.5 7.5v67.948h-9.668c-18.28 0-33.152 14.872-33.152 33.153 0 18.28 14.872 33.152 33.152 33.152h42.82c8.647 0 16.734-3.331 22.788-9.074 5.942 5.618 13.949 9.074 22.753 9.074h42.82c18.28 0 33.152-14.872 33.152-33.152v-101.72c0-4.142-3.358-7.5-7.5-7.5z"/><path d="m320.231 383.089c-7.874 8.941-17.47 15.97-28.082 20.768-4.919 2.223-10.059 3.95-15.337 5.181v32.332c9.772-1.621 19.284-4.502 28.401-8.623 8.223-3.718 15.875-8.323 22.905-13.762v-44.856z"/></g><circle cx="309.727" cy="205.387" fill="#2115c2" r="10.973"/><g><path d="m281.246 242.46h-46.469c-4.143 0-7.5-3.358-7.5-7.5s3.357-7.5 7.5-7.5h46.469c4.143 0 7.5 3.358 7.5 7.5s-3.358 7.5-7.5 7.5z" fill="#2115c2"/></g><circle cx="206.297" cy="205.387" fill="#2115c2" r="10.973"/><path d="m479.446 122.277-41.061-62.622c-24.502-37.354-65.795-59.655-110.46-59.655-14.008 0-126.95 0-139.827 0-39.18 0-76.081 17.227-101.244 47.262-2.66 3.175-2.242 7.905.933 10.565 3.176 2.661 7.906 2.242 10.565-.933 22.306-26.624 55.017-41.894 89.746-41.894h21.778l-49.886 115.529c-4.823 11.169-7.795 23.086-8.668 35.868h-113.17c.177-12.696 3.976-25.229 10.969-35.895l14.086-21.482c2.271-3.464 1.305-8.113-2.159-10.385-3.463-2.271-8.113-1.305-10.384 2.159l-14.086 21.482c-10.089 15.385-14.744 33.946-13.111 52.266v.016c1.549 17.506 8.508 33.738 20.125 46.94l146.569 166.545c15.891 18.059 38.784 29.187 62.813 30.531h.004.001c3.334.184 6.712.185 10.063 0h.003c11.156-.619 21.987-3.271 32.193-7.884 11.774-5.324 22.077-12.943 30.622-22.647l67.67-76.893c2.736-3.109 2.435-7.849-.675-10.585-3.112-2.737-7.849-2.434-10.585.675l-67.669 76.891c-7.127 8.094-15.722 14.45-25.542 18.89-4.587 2.073-9.324 3.671-14.174 4.785l80.907-184.597c4.97-11.33 7.957-23.354 8.864-35.813h111.733c-2.381 11.172-7.562 21.488-15.22 30.191l-38.218 43.427c-2.736 3.109-2.435 7.849.675 10.585 3.11 2.737 7.848 2.434 10.585-.675l38.219-43.427c11.609-13.194 18.566-29.414 20.121-46.909.001-.008.002-.016.003-.024 1.639-18.326-3.016-36.895-13.108-52.287zm-278.024 255.857-146.569-166.545c-7.659-8.704-12.84-19.019-15.221-30.191h111.733c.9 12.69 4.068 24.878 8.862 35.81l80.897 184.573c-15.257-3.54-29.284-11.807-39.702-23.647zm140.634-166.948-84.044 191.754-84.047-191.756c-4.134-9.42-6.746-19.729-7.552-29.787h183.197c-.866 10.245-3.321 20.142-7.554 29.789zm-175.692-44.789c.789-10.154 3.194-20.192 7.397-29.921l52.455-121.476h63.592l52.456 121.477c3.995 9.252 6.557 19.169 7.396 29.92zm198.337 0c-.845-12.368-3.663-24.291-8.667-35.867l-49.887-115.53h21.778c39.593 0 76.197 19.77 97.917 52.882l41.06 62.621c6.993 10.666 10.792 23.199 10.97 35.895h-113.171z" fill="#2115c2"/><path d="m111.37 66.127c-13.932-2.941-24.201-13.011-27.154-27.285-1.03-4.981-5.447-8.535-10.666-8.535h-.685c-5.111 0-9.366 3.674-10.42 8.675-2.938 13.938-13.01 24.212-27.288 27.166-4.981 1.03-8.535 5.447-8.536 10.645v.574c0 5.104 3.584 9.504 8.581 10.544 14.25 2.965 24.301 13.228 27.239 27.144 1.057 5.006 5.307 8.687 10.556 8.687h.684c5.086 0 9.503-3.554 10.534-8.535 2.952-14.274 13.222-24.345 27.154-27.286 5.006-1.057 8.687-5.308 8.687-10.424v-.947c.001-5.116-3.68-9.367-8.686-10.423z" fill="#ffff6f"/><path d="m372.946 275.392c13.932-2.941 24.201-13.011 27.154-27.285 1.03-4.981 5.447-8.535 10.666-8.535h.685c5.111 0 9.366 3.674 10.42 8.675 2.938 13.938 13.01 24.212 27.288 27.166 4.981 1.03 8.535 5.447 8.536 10.645v.574c0 5.104-3.584 9.504-8.581 10.544-14.25 2.965-24.301 13.228-27.239 27.144-1.057 5.006-5.307 8.687-10.556 8.687h-.684c-5.086 0-9.503-3.554-10.534-8.535-2.952-14.274-13.222-24.345-27.154-27.286-5.006-1.057-8.687-5.308-8.687-10.424v-.946c-.001-5.117 3.681-9.368 8.686-10.424z" fill="#ffff6f"/><g><path d="m73.001 131.241c-8.72 0-16.077-6.02-17.896-14.638-2.37-11.228-10.181-19.01-21.43-21.351-8.433-1.755-14.553-9.277-14.553-17.886v-.574c0-8.684 6.104-16.25 14.517-17.99 11.271-2.332 19.097-10.12 21.468-21.368 1.814-8.612 9.117-14.628 17.759-14.628h.685c8.696 0 16.271 6.105 18.011 14.516 2.331 11.269 10.116 19.093 21.358 21.466 8.618 1.819 14.638 9.123 14.638 17.762v.946c0 8.638-6.02 15.942-14.638 17.762-11.243 2.374-19.028 10.198-21.358 21.467-1.74 8.411-9.259 14.516-17.879 14.516zm-.135-93.435c-1.477 0-2.743 1.119-3.081 2.721-3.605 17.099-15.982 29.422-33.108 32.964-1.504.311-2.555 1.668-2.555 3.301v.574c0 1.54 1.098 2.886 2.609 3.201 17.092 3.557 29.446 15.87 33.049 32.938.288 1.362 1.395 2.736 3.218 2.736h.681c1.545 0 2.887-1.074 3.192-2.554 3.541-17.122 15.858-29.498 32.95-33.105 1.61-.34 2.735-1.609 2.735-3.085v-.947c0-1.477-1.125-2.745-2.735-3.085-17.09-3.608-29.408-15.983-32.95-33.104-.311-1.505-1.677-2.555-3.321-2.555z" fill="#f90"/></g><g><path d="m411.318 340.506h-.685c-8.619 0-16.138-6.105-17.878-14.516-2.33-11.269-10.115-19.093-21.358-21.467-8.619-1.82-14.638-9.124-14.638-17.762v-.946c0-8.638 6.02-15.942 14.638-17.762 11.242-2.374 19.027-10.198 21.358-21.467 1.74-8.411 9.314-14.516 18.011-14.516h.685c8.642 0 15.944 6.016 17.759 14.629 2.37 11.247 10.195 19.036 21.469 21.367 8.411 1.74 14.516 9.306 14.516 17.99v.574c0 8.609-6.12 16.131-14.553 17.886-11.249 2.341-19.06 10.122-21.43 21.35-1.82 8.621-9.177 14.64-17.894 14.64zm-36.823-57.776c-1.61.34-2.735 1.609-2.735 3.085v.946c0 1.477 1.125 2.745 2.736 3.085 17.091 3.608 29.408 15.984 32.949 33.105.306 1.48 1.646 2.554 3.188 2.554h.685c1.823 0 2.93-1.374 3.218-2.736 3.603-17.068 15.957-29.381 33.049-32.938 1.512-.314 2.609-1.661 2.609-3.201v-.574c0-1.632-1.051-2.99-2.555-3.301-17.127-3.543-29.504-15.865-33.107-32.964-.338-1.603-1.604-2.722-3.081-2.722h-.685c-1.645 0-3.011 1.05-3.321 2.554-3.542 17.124-15.86 29.499-32.95 33.107z" fill="#f90"/></g></g></svg>