<svg id="Capa_1" enable-background="new 0 0 512 512" height="512" viewBox="0 0 512 512" width="512" xmlns="http://www.w3.org/2000/svg"><g><path d="m360.948 7.5h-147.681c-34.118 0-61.776 27.658-61.776 61.776v68.53c7.726-.496 15.139 4.167 17.768 11.846 3.148 9.195-1.753 19.201-10.948 22.349-2.384.816-4.66 1.829-6.82 3.006v77.499c2.16 1.177 4.436 2.19 6.82 3.006 9.195 3.148 14.096 13.155 10.948 22.35-2.625 7.666-10.03 12.343-17.768 11.846v54.889c0 34.118 27.658 61.776 61.776 61.776h147.681c34.118 0 61.776-27.658 61.776-61.776v-275.321c0-34.118-27.658-61.776-61.776-61.776z" fill="#b98eff"/><circle cx="287.108" cy="277.326" fill="#ffff6f" r="80.063"/><circle cx="287.108" cy="107.544" fill="#ffff6f" r="47.808"/><path d="m213.267 406.372c-1.474 0-2.931-.07-4.379-.172v49.573h-16.305c-13.455 0-24.363 10.908-24.363 24.363s10.908 24.363 24.363 24.363h40.668c13.455 0 24.363-10.908 24.363-24.363v-73.765h-44.347z" fill="#ff63ed"/><path d="m360.948 406.372h-38.671v49.401h-16.305c-13.455 0-24.363 10.908-24.363 24.363s10.908 24.363 24.363 24.363h40.668c13.455 0 24.363-10.908 24.363-24.363v-74.592c-3.273.537-6.629.828-10.055.828z" fill="#ff63ed"/><path d="m432.344 7.5h-71.396c34.118 0 61.776 27.658 61.776 61.776v275.32c0 34.118-27.658 61.776-61.776 61.776h71.396c34.118 0 61.776-27.658 61.776-61.776v-275.32c0-34.118-27.658-61.776-61.776-61.776z" fill="#9448f5"/><circle cx="331.335" cy="272.494" fill="#f90" r="9.384"/><g><path d="m306.978 305.286h-39.74c-4.143 0-7.5-3.358-7.5-7.5s3.357-7.5 7.5-7.5h39.74c4.143 0 7.5 3.358 7.5 7.5s-3.357 7.5-7.5 7.5z" fill="#f90"/></g><circle cx="242.88" cy="272.494" fill="#f90" r="9.384"/><g><path d="m287.108 364.89c-48.282 0-87.563-39.281-87.563-87.563s39.281-87.563 87.563-87.563 87.563 39.281 87.563 87.563-39.281 87.563-87.563 87.563zm0-160.127c-40.012 0-72.563 32.552-72.563 72.563 0 40.012 32.552 72.563 72.563 72.563s72.563-32.552 72.563-72.563-32.551-72.563-72.563-72.563z" fill="#f90"/></g><g><path d="m287.108 162.852c-30.497 0-55.308-24.811-55.308-55.308s24.811-55.308 55.308-55.308 55.308 24.811 55.308 55.308-24.811 55.308-55.308 55.308zm0-95.615c-22.226 0-40.308 18.082-40.308 40.308s18.082 40.308 40.308 40.308 40.308-18.082 40.308-40.308-18.083-40.308-40.308-40.308z" fill="#f90"/></g><path d="m213.267 406.372c-1.474 0-2.931-.07-4.379-.172v31.048h48.727v-30.877h-44.348z" fill="#e207b9"/><g><path d="m233.251 512h-40.668c-17.569 0-31.863-14.294-31.863-31.863s14.294-31.863 31.863-31.863h8.805v-39.074c0-4.142 3.357-7.5 7.5-7.5s7.5 3.358 7.5 7.5v46.573c0 4.142-3.357 7.5-7.5 7.5h-16.305c-9.299 0-16.863 7.565-16.863 16.863s7.565 16.864 16.863 16.864h40.668c9.299 0 16.863-7.565 16.863-16.863v-70.765c0-4.142 3.357-7.5 7.5-7.5s7.5 3.358 7.5 7.5v70.765c.001 17.569-14.293 31.863-31.863 31.863z" fill="#e207b9"/></g><path d="m360.948 406.372h-38.671v30.877h48.727v-31.704c-3.274.536-6.63.827-10.056.827z" fill="#e207b9"/><g><path d="m346.641 512h-40.668c-17.569 0-31.863-14.294-31.863-31.863s14.294-31.863 31.863-31.863h8.805v-39.902c0-4.142 3.357-7.5 7.5-7.5s7.5 3.358 7.5 7.5v47.402c0 4.142-3.357 7.5-7.5 7.5h-16.305c-9.299 0-16.863 7.565-16.863 16.863s7.564 16.863 16.863 16.863h40.668c9.299 0 16.863-7.565 16.863-16.863v-72.592c0-4.142 3.357-7.5 7.5-7.5s7.5 3.358 7.5 7.5v72.592c0 17.569-14.294 31.863-31.863 31.863z" fill="#e207b9"/></g><path d="m432.344 0c-7.4 0-211.662 0-219.077 0-38.199 0-69.276 31.077-69.276 69.276v66.529c0 4.143 3.357 7.5 7.5 7.5s7.5-3.357 7.5-7.5v-66.529c0-29.928 24.349-54.276 54.276-54.276h147.682c29.928 0 54.275 24.348 54.275 54.276v275.32c0 29.928-24.348 54.276-54.275 54.276h-147.682c-29.928 0-54.276-24.348-54.276-54.276v-52.889c0-4.142-3.357-7.5-7.5-7.5s-7.5 3.358-7.5 7.5v52.889c0 38.199 31.077 69.276 69.276 69.276h219.077c38.199 0 69.276-31.077 69.276-69.276v-275.32c.001-38.199-31.077-69.276-69.276-69.276zm54.277 344.596c0 29.928-24.349 54.276-54.276 54.276h-28.392c16.33-12.957 26.271-32.816 26.271-54.276v-275.32c0-21.297-9.828-41.24-26.271-54.276h28.392c29.928 0 54.276 24.348 54.276 54.276z" fill="#6d00ca"/><g><path d="m151.491 258.006c-4.143 0-7.5-3.358-7.5-7.5v-73.499c0-4.142 3.357-7.5 7.5-7.5s7.5 3.358 7.5 7.5v73.499c0 4.142-3.358 7.5-7.5 7.5z" fill="#6d00ca"/></g><g><path d="m81.822 334.154c-4.143 0-8.3-1.453-11.648-4.412-33.234-29.375-52.294-71.65-52.294-115.986s19.06-86.611 52.294-115.986c7.282-6.435 18.402-5.751 24.84 1.531 6.437 7.282 5.751 18.403-1.531 24.84-25.68 22.698-40.408 55.361-40.408 89.615s14.728 66.917 40.408 89.615c7.282 6.437 7.968 17.557 1.531 24.84-3.478 3.934-8.325 5.943-13.192 5.943z" fill="#88f8d8"/></g><g><path d="m146.91 288.81c-32.067-10.981-53.612-41.142-53.612-75.054s21.545-64.073 53.612-75.053c9.193-3.148 19.201 1.752 22.349 10.948 3.148 9.195-1.753 19.201-10.948 22.349-17.835 6.107-29.818 22.887-29.818 41.756s11.983 35.649 29.818 41.756c9.195 3.148 14.096 13.155 10.948 22.35-3.143 9.177-13.134 14.1-22.349 10.948z" fill="#88f8d8"/></g><g><g><path d="m65.207 335.362c-34.844-30.798-54.827-75.122-54.827-121.605s19.983-90.807 54.827-121.605c10.37-9.164 26.263-8.183 35.426 2.183 9.165 10.37 8.187 26.262-2.183 35.427-24.07 21.275-37.875 51.89-37.875 83.995s13.805 62.72 37.875 83.995c10.368 9.165 11.348 25.057 2.184 35.427-9.194 10.397-25.062 11.345-35.427 2.183zm9.933-231.971c-31.624 27.952-49.761 68.179-49.761 110.366s18.137 82.413 49.761 110.366c4.186 3.698 10.568 3.291 14.254-.879 3.687-4.171 3.293-10.566-.878-14.253-27.29-24.121-42.941-58.833-42.941-95.234 0-36.402 15.651-71.114 42.941-95.234 4.172-3.687 4.565-10.081.878-14.253-3.692-4.176-10.087-4.563-14.254-.879z" fill="#007ea8"/></g></g><g><g><path d="m144.482 295.906c-.001 0-.001 0-.002-.001-35.1-12.019-58.682-45.032-58.682-82.149 0-37.118 23.582-70.131 58.682-82.148 13.117-4.495 27.38 2.488 31.875 15.614 4.493 13.121-2.49 27.38-15.614 31.874-14.802 5.068-24.747 18.998-24.747 34.66 0 15.663 9.945 29.592 24.747 34.66 13.122 4.493 20.109 18.751 15.614 31.875-4.495 13.129-18.818 20.081-31.873 15.615zm4.855-14.192c5.264 1.801 11.022-1.015 12.826-6.282 1.812-5.29-1.011-11.02-6.282-12.824-20.867-7.145-34.888-26.777-34.888-48.851s14.021-41.706 34.888-48.852c5.281-1.808 8.091-7.544 6.282-12.824-1.808-5.278-7.542-8.091-12.823-6.282-29.035 9.941-48.542 37.251-48.542 67.958 0 30.706 19.507 58.016 48.541 67.958z" fill="#007ea8"/></g></g></g></svg>