<svg id="Capa_1" enable-background="new 0 0 512 512" height="512" viewBox="0 0 512 512" width="512" xmlns="http://www.w3.org/2000/svg"><g><path d="m34.543 343.453-22.265 22.265c-10.16 10.16-2.968 27.518 11.393 27.525h47.999l49.79-49.79z" fill="#88f8d8"/><path d="m111.963 293.67c-17.696 0-34.667 7.029-47.181 19.544l-30.239 30.239h86.917l49.782-49.782h-59.279z" fill="#17d9c3"/><path d="m108.078 429.65v47.999c.007 14.362 17.365 21.553 27.525 11.393l22.265-22.265v-86.917z" fill="#17d9c3"/><path d="m157.867 379.861v86.917l30.239-30.239c12.514-12.514 19.544-29.485 19.544-47.181v-59.279z" fill="#88f8d8"/><path d="m354.133 379.861v86.917l22.265 22.265c10.16 10.16 27.518 2.968 27.525-11.393v-48z" fill="#17d9c3"/><path d="m304.351 330.078v59.279c0 17.696 7.029 34.667 19.544 47.181l30.239 30.239v-86.917z" fill="#88f8d8"/><path d="m499.723 365.718-22.265-22.265h-86.917l49.79 49.79h47.999c14.361-.008 21.552-17.366 11.393-27.525z" fill="#88f8d8"/><path d="m447.219 313.214c-12.514-12.514-29.485-19.544-47.181-19.544h-59.279l49.782 49.782h86.917z" fill="#17d9c3"/><path d="m375.788 125.534c-10.373-1.3-19.271-4.846-26.512-9.899l-93.276 93.277 36.408 36.408 93.279-93.279c-5.053-7.242-8.599-16.138-9.899-26.507z" fill="#ffd600"/><path d="m219.592 245.32-147.919 147.919c-10.054 10.054-10.054 26.354 0 36.408s26.354 10.054 36.408 0l147.919-147.919z" fill="#ffd600"/><path d="m440.327 393.239-277.606-277.607c-7.241 5.053-16.137 8.6-26.506 9.9-1.3 10.373-4.846 19.271-9.898 26.511l277.603 277.604c10.054 10.054 26.354 10.054 36.408 0 10.053-10.054 10.053-26.354-.001-36.408z" fill="#ffff6f"/><g fill="#007ea8"><path d="m167.242 286.171h-55.28c-19.825 0-38.464 7.721-52.484 21.74-6.745 6.745-47.944 47.944-52.503 52.504-14.897 14.896-4.352 40.316 16.695 40.327h44c4.142 0 7.499-3.358 7.499-7.499s-3.357-7.499-7.499-7.499h-43.996c-7.683-.004-11.53-9.287-6.093-14.722l20.068-20.068h79.811c4.142 0 7.499-3.358 7.499-7.499s-3.357-7.499-7.499-7.499h-64.812l17.437-17.436c11.187-11.187 26.058-17.347 41.877-17.347h55.28c4.142 0 7.499-3.358 7.499-7.499 0-4.145-3.357-7.503-7.499-7.503z"/><path d="m207.65 326.578c-4.142 0-7.499 3.358-7.499 7.499v55.28c0 15.82-6.161 30.692-17.347 41.878l-17.436 17.437c0-6.393 0-58.699 0-65.812 0-4.142-3.357-7.499-7.499-7.499s-7.499 3.358-7.499 7.499v80.811l-20.07 20.068c-5.432 5.432-14.719 1.594-14.723-6.09v-44.999c0-4.142-3.357-7.499-7.499-7.499s-7.499 3.358-7.499 7.499v45.002c.011 21.052 25.436 31.581 40.328 16.692 10.192-10.192 42.768-42.768 52.504-52.504 14.018-14.019 21.739-32.658 21.739-52.484v-55.28c-.001-4.14-3.358-7.498-7.5-7.498z"/><path d="m403.923 425.151c-4.142 0-7.499 3.358-7.499 7.499v44.995c-.004 7.684-9.286 11.529-14.722 6.094l-20.069-20.069v-80.81c0-4.142-3.357-7.499-7.499-7.499s-7.499 3.358-7.499 7.499v65.812l-17.436-17.437c-11.187-11.186-17.347-26.059-17.347-41.878v-56.28c0-4.142-3.357-7.499-7.499-7.499s-7.499 3.358-7.499 7.499v56.28c0 19.826 7.721 38.465 21.739 52.484l52.504 52.504c14.954 14.952 40.316 4.264 40.327-16.696v-44.999c-.002-4.141-3.359-7.499-7.501-7.499z"/><path d="m505.026 360.415c-6.888-6.888-44.823-44.823-52.504-52.504-14.02-14.019-32.659-21.74-52.484-21.74h-56.28c-4.142 0-7.499 3.358-7.499 7.499 0 4.142 3.357 7.499 7.499 7.499h56.28c15.819 0 30.691 6.161 41.877 17.347l17.437 17.437h-65.812c-4.142 0-7.499 3.358-7.499 7.499s3.357 7.499 7.499 7.499h80.811l20.069 20.069c5.43 5.429 1.596 14.718-6.09 14.722h-45c-4.142 0-7.499 3.358-7.499 7.499s3.357 7.499 7.499 7.499h45.003c21.038-.009 31.589-25.428 16.693-40.325z"/></g><path d="m445.631 387.936-142.617-142.616 85.977-85.977c2.928-2.929 2.928-7.677 0-10.606-2.929-2.929-7.677-2.929-10.607 0l-85.976 85.977-25.802-25.802 85.974-85.973c2.928-2.929 2.928-7.677 0-10.606-2.929-2.929-7.677-2.929-10.607 0l-85.973 85.973-85.976-85.976c-2.929-2.929-7.677-2.929-10.607 0-2.928 2.929-2.928 7.677 0 10.606 12.075 12.075 275.607 275.607 275.607 275.607 7.114 7.114 7.114 18.689.001 25.803-7.113 7.112-18.688 7.114-25.803 0l-275.602-275.605c-2.929-2.929-7.677-2.929-10.607 0-2.928 2.928-2.928 7.677 0 10.606l85.973 85.973-142.617 142.616c-12.99 12.991-12.994 34.02 0 47.013 12.992 12.991 34.02 12.994 47.015 0l142.617-142.616 142.616 142.617c12.959 12.961 34.052 12.961 47.014 0 12.96-12.962 12.96-34.052 0-47.014zm-342.854 36.408c-7.113 7.115-18.688 7.113-25.803 0-7.128-7.128-7.132-18.671.001-25.802l142.616-142.616 25.803 25.802z" fill="#f95116"/><path d="m472.921 37.738c-1.358-4.489-4.845-7.982-9.337-9.337-29.897-9.039-56.137-12.108-77.999-9.124-19.529 2.665-35.309 10.259-45.636 21.956-26.7 30.253-9.434 78.628 35.839 84.301 5.671 45.241 54.031 62.551 84.299 35.836 11.699-10.325 19.292-26.107 21.959-45.633 2.983-21.862-.088-48.105-9.125-77.999z" fill="#ff63ed"/><path d="m172.05 41.233c-10.325-11.699-26.107-19.291-45.633-21.959-21.862-2.984-48.104.087-77.999 9.124-4.49 1.358-7.982 4.845-9.337 9.337-9.039 29.897-12.108 56.137-9.124 77.999 2.665 19.529 10.259 35.309 21.956 45.635 30.253 26.7 78.628 9.434 84.301-35.838 45.241-5.669 62.551-54.031 35.836-84.298z" fill="#ff63ed"/><g><path d="m427.296 181.571c-6.78 0-13.637-1.238-20.316-3.764-19.504-7.375-33.3-24.252-37.712-45.753-21.503-4.412-38.382-18.204-45.755-37.703-7.596-20.089-3.554-41.802 10.814-58.081 11.538-13.068 28.912-21.513 50.245-24.424 22.934-3.13 50.25.024 81.183 9.376 6.894 2.08 12.258 7.443 14.345 14.345 9.353 30.935 12.507 58.25 9.376 81.184-2.914 21.338-11.36 38.711-24.426 50.242-10.864 9.588-24.149 14.578-37.754 14.578zm-24.702-155.902c-5.585 0-10.92.346-15.994 1.038-17.719 2.418-31.907 9.157-41.029 19.489-10.621 12.035-13.623 28.054-8.029 42.85 6 15.866 20.646 26.724 39.178 29.046 3.402.426 6.083 3.106 6.508 6.508 2.323 18.531 13.184 33.176 29.055 39.177 14.788 5.592 30.804 2.591 42.84-8.031 10.33-9.117 17.07-23.303 19.491-41.025 2.837-20.784-.148-45.955-8.872-74.814-.63-2.083-2.247-3.701-4.326-4.328-21.815-6.595-41.523-9.91-58.822-9.91z" fill="#e207b9"/></g><g><path d="m84.708 181.572c-13.609.001-26.891-4.989-37.758-14.579-13.067-11.537-21.513-28.911-24.424-50.244-3.132-22.937.023-50.251 9.376-81.184 2.08-6.894 7.443-12.258 14.345-14.345 30.938-9.352 58.249-12.506 81.184-9.376 21.338 2.915 38.712 11.361 50.241 24.427 14.366 16.276 18.41 37.985 10.815 58.07-7.374 19.504-24.252 33.299-45.752 37.712-4.412 21.502-18.205 38.381-37.704 45.754-6.68 2.525-13.543 3.765-20.323 3.765zm24.704-155.905c-17.299 0-37.006 3.315-58.823 9.91-2.082.63-3.7 2.247-4.327 4.325-8.726 28.86-11.711 54.031-8.874 74.818 2.419 17.719 9.157 31.906 19.49 41.028 12.033 10.622 28.052 13.624 42.849 8.029 15.866-5.999 26.724-20.645 29.047-39.178.426-3.402 3.106-6.082 6.508-6.508 18.531-2.323 33.176-13.184 39.176-29.055 5.593-14.792 2.591-30.807-8.031-42.84-9.116-10.33-23.303-17.07-41.025-19.491-5.071-.692-10.407-1.038-15.99-1.038z" fill="#e207b9"/></g></g></svg>