<svg id="Capa_1" enable-background="new 0 0 512 512" height="512" viewBox="0 0 512 512" width="512" xmlns="http://www.w3.org/2000/svg"><g><path d="m370.976 53.886c-42.833 0-80.952 20.172-105.385 51.532 5.781 14.941 8.957 31.178 8.957 48.159 0 29.444-9.531 64.706-25.676 96.447 7.033 20.728 17.054 41.342 29.362 59.54 20.793 30.746 55.625 49.019 92.742 49.019 37.118 0 71.949-18.272 92.743-49.019 25.144-37.179 40.781-84.439 40.781-122.154 0-73.744-59.781-133.524-133.524-133.524z" fill="#7181ff"/><path d="m404.562 353.46c-10.74 3.355-22.052 5.122-33.586 5.122-11.534 0-22.846-1.767-33.586-5.122l-7.839 22.363c-4.194 11.965 4.686 24.486 17.364 24.486h48.122c12.678 0 21.558-12.522 17.364-24.486z" fill="#7181ff"/><path d="m353.264 400.309v73.927c0 9.782 7.93 17.712 17.712 17.712 9.782 0 17.712-7.93 17.712-17.712v-73.927z" fill="#a4bcff"/><g fill="#2115c2"><circle cx="415.34" cy="116.836" r="9.413"/><circle cx="326.612" cy="116.836" r="9.413"/><g><path d="m390.907 149.706c4.143 0 7.5-3.358 7.5-7.5s-3.357-7.5-7.5-7.5h-39.862c-4.143 0-7.5 3.358-7.5 7.5s3.357 7.5 7.5 7.5z"/><path d="m326.419 182.857c-4.074.275-7.457 3.267-8.243 7.36l-11.635 64.46c-.735 4.076 1.973 7.977 6.049 8.713 4.074.732 7.978-1.972 8.713-6.049l7.131-39.51 11.741 39.797c1.086 3.679 4.53 6.397 8.61 6.397h.046c4.019-.02 7.487-2.681 8.59-6.478l11.336-39.766 7.575 39.634c.778 4.069 4.701 6.737 8.774 5.959 4.068-.778 6.736-4.706 5.958-8.774l-12.34-64.568c-.815-4-4.23-6.955-8.306-7.186-4.187-.246-7.983 2.467-9.144 6.463l-12.589 44.161-13.051-44.237c-1.121-3.847-4.924-6.666-9.215-6.376z"/><path d="m408.837 264.026c4.143 0 7.5-3.358 7.5-7.5v-33.72c0-.292.182-3.05 6.471-9.672 3.341-3.516 6.221-5.031 6.385-5.116 3.692-1.8 5.254-6.242 3.486-9.96-1.777-3.742-6.253-5.331-9.993-3.555-.384.183-3.006 1.482-6.444 4.296-.55-3.6-3.65-6.36-7.404-6.36-4.143 0-7.5 3.358-7.5 7.5v56.586c-.001 4.143 3.356 7.501 7.499 7.501z"/><path d="m370.976 46.386c-42.408 0-82.171 18.829-109.094 51.66-2.626 3.203-2.159 7.929 1.044 10.555 3.201 2.626 7.927 2.16 10.556-1.043 24.062-29.343 59.598-46.171 97.494-46.171 69.49-.001 126.024 56.533 126.024 126.023 0 36.179-15.502 82.478-39.494 117.952-19.655 29.065-52.273 45.72-86.53 45.72s-66.874-16.655-86.529-45.72c-11.202-16.563-20.775-35.744-27.687-55.47-1.37-3.909-5.646-5.97-9.558-4.598-3.909 1.37-5.968 5.649-4.599 9.558 7.331 20.925 17.503 41.297 29.417 58.913 13.806 20.416 33.377 35.701 55.799 44.324l-5.346 15.252c-5.72 16.317 5.896 33.655 23.291 34.433v66.462c0 13.902 11.31 25.212 25.212 25.212s25.212-11.31 25.212-25.212v-66.462c17.415-.779 29.003-18.131 23.291-34.432l-5.347-15.253c22.422-8.623 41.992-23.908 55.799-44.323 25.949-38.37 42.069-86.786 42.069-126.356 0-77.761-63.264-141.024-141.024-141.024zm10.212 427.85c0 5.631-4.581 10.212-10.212 10.212s-10.212-4.581-10.212-10.212v-66.427h20.424zm24.135-95.932c2.483 7.082-2.754 14.505-10.286 14.505-9.957 0-38.163 0-48.122 0-7.51 0-12.776-7.401-10.285-14.505l5.509-15.719c9.319 2.296 18.991 3.497 28.837 3.497s19.519-1.201 28.838-3.497z"/></g><path d="m353.264 400.309h35.424v30h-35.424z"/></g><path d="m141.024 20.052c-73.743 0-133.524 59.781-133.524 133.524 0 37.714 15.637 84.975 40.781 122.154 20.793 30.746 55.625 49.018 92.743 49.018 37.118 0 71.949-18.272 92.743-49.018 25.144-37.179 40.781-84.44 40.781-122.154 0-73.743-59.781-133.524-133.524-133.524z" fill="#ff63ed"/><path d="m174.61 319.627c-10.74 3.355-22.052 5.122-33.586 5.122-11.534 0-22.846-1.767-33.586-5.122l-7.839 22.363c-4.194 11.965 4.686 24.486 17.364 24.486h48.122c12.678 0 21.558-12.522 17.364-24.486z" fill="#ff63ed"/><path d="m123.312 366.476v73.927c0 9.782 7.93 17.712 17.712 17.712 9.782 0 17.712-7.93 17.712-17.712v-73.927z" fill="#ff9bff"/><circle cx="185.388" cy="83.002" fill="#e207b9" r="9.413"/><circle cx="96.66" cy="83.002" fill="#e207b9" r="9.413"/><g fill="#e207b9"><path d="m168.455 108.372c0-4.142-3.357-7.5-7.5-7.5h-39.863c-4.143 0-7.5 3.358-7.5 7.5s3.357 7.5 7.5 7.5h39.863c4.143 0 7.5-3.358 7.5-7.5z"/><path d="m141.023 12.552c-77.76 0-141.023 63.263-141.023 141.024 0 39.57 16.12 87.987 42.068 126.355 13.806 20.416 33.377 35.701 55.799 44.324l-5.347 15.253c-5.709 16.291 5.865 33.653 23.292 34.432v66.462c0 13.902 11.31 25.212 25.212 25.212s25.212-11.31 25.212-25.212v-66.462c17.413-.779 29.004-18.132 23.29-34.432l-5.346-15.253c22.422-8.623 41.993-23.908 55.799-44.324 25.948-38.37 42.068-86.787 42.068-126.355.001-77.761-63.263-141.024-141.024-141.024zm10.213 427.85c0 5.631-4.581 10.212-10.212 10.212s-10.212-4.581-10.212-10.212v-66.427h20.424zm24.134-95.931c2.484 7.084-2.755 14.505-10.285 14.505-9.838 0-38.17 0-48.122 0-7.52 0-12.774-7.41-10.286-14.505l5.51-15.719c9.319 2.297 18.991 3.497 28.837 3.497s19.519-1.201 28.838-3.497zm52.184-72.943c-19.656 29.065-52.272 45.72-86.53 45.72-33.84 0-66.642-16.312-86.529-45.72-23.993-35.474-39.495-81.773-39.495-117.952 0-69.49 56.534-126.024 126.023-126.024 69.49 0 126.024 56.534 126.024 126.024.001 36.177-15.501 82.477-39.493 117.952z"/><path d="m122.399 156.2c-.815-4.001-4.231-6.956-8.309-7.186-4.277-.233-8.035 2.573-9.141 6.463l-12.589 44.161-13.05-44.238c-1.159-3.905-4.937-6.664-9.211-6.376-4.074.272-7.459 3.263-8.249 7.36l-11.634 64.46c-.735 4.076 1.973 7.977 6.049 8.713 4.072.732 7.978-1.972 8.713-6.049l7.13-39.51 11.742 39.798c1.117 3.766 4.612 6.397 8.61 6.396h.046c4.019-.02 7.487-2.68 8.59-6.478l11.336-39.766 7.575 39.634c.777 4.07 4.715 6.735 8.774 5.959 4.068-.778 6.736-4.706 5.958-8.774z"/><path d="m212.896 188.011c-6.818-2.515-13.172-5.252-15.208-6.142-1.291-1.077-1.244-2.556-1.155-3.177.129-.901.791-3.104 4.133-4.111 7.648-2.302 14.781 3.297 15.019 3.486 3.172 2.629 7.873 2.208 10.526-.949 2.665-3.17 2.256-7.901-.915-10.567-.54-.453-13.365-11.031-28.956-6.333-7.936 2.391-13.551 8.652-14.654 16.342-1.21 8.422 3.672 16.237 9.217 18.709.326.146 8.075 3.595 16.803 6.814 1.834.676 7.762 3.188 7.061 7.115-.526 2.946-4.165 5.993-9.343 5.993-5.451 0-10.691-2.192-14.019-5.863-2.781-3.069-7.524-3.303-10.594-.521s-3.303 7.524-.521 10.594c6.214 6.858 15.375 10.791 25.134 10.791 12.07 0 22.21-7.72 24.109-18.356 1.432-8.023-2.186-18.495-16.637-23.825z"/><path d="m166.36 160.669c-.384.183-3.006 1.482-6.444 4.296-.55-3.6-3.65-6.36-7.404-6.36-4.143 0-7.5 3.358-7.5 7.5v56.586c0 4.142 3.357 7.5 7.5 7.5s7.5-3.358 7.5-7.5v-33.72c0-2.651 7.274-11.897 12.855-14.788 3.692-1.8 5.254-6.242 3.486-9.96-1.778-3.741-6.251-5.33-9.993-3.554z"/></g><path d="m123.312 366.476h35.424v30h-35.424z" fill="#e207b9"/></g></svg>