<svg id="Capa_1" enable-background="new 0 0 512 512" height="512" viewBox="0 0 512 512" width="512" xmlns="http://www.w3.org/2000/svg"><g><path d="m438.052 350.105h-52.687l65.316 65.317h34.273c17.352 0 26.042-20.979 13.772-33.249l-11.84-11.84c-12.951-12.952-30.517-20.228-48.834-20.228z" fill="#b98eff"/><path d="m350.105 438.053v-52.687l65.317 65.316v34.273c0 17.352-20.979 26.042-33.249 13.772l-11.84-11.84c-12.952-12.952-20.228-30.518-20.228-48.834z" fill="#b98eff"/><path d="m450.682 415.422-97.001-97.001c-11.377 10.925-24.257 21.577-38.596 31.925l100.337 100.337c9.737 9.737 25.524 9.737 35.261 0 9.736-9.738 9.736-25.524-.001-35.261z" fill="#88f8d8"/><g><path d="m484.955 422.921h-31.273c-4.142 0-7.5-3.358-7.5-7.5s3.357-7.5 7.5-7.5h31.273c5.011 0 9.148-2.764 11.065-7.394 1.918-4.63.947-9.509-2.596-13.052l-11.841-11.84c-11.627-11.628-27.086-18.031-43.531-18.031h-49.687c-4.142 0-7.5-3.358-7.5-7.5s3.357-7.5 7.5-7.5h49.687c20.451 0 39.678 7.964 54.138 22.425l11.84 11.84c7.861 7.861 10.102 19.126 5.847 29.398-4.254 10.273-13.804 16.654-24.922 16.654z" fill="#6d00ca"/></g><g><path d="m395.773 512c-6.944 0-13.676-2.742-18.903-7.97l-11.841-11.84c-14.46-14.46-22.424-33.687-22.424-54.137v-49.687c0-4.142 3.357-7.5 7.5-7.5s7.5 3.358 7.5 7.5v49.687c0 16.444 6.404 31.904 18.031 43.531l11.84 11.84c3.542 3.542 8.421 4.514 13.053 2.596 4.63-1.918 7.393-6.054 7.393-11.065v-31.273c0-4.142 3.357-7.5 7.5-7.5s7.5 3.358 7.5 7.5v31.273c0 11.118-6.381 20.667-16.652 24.922-3.444 1.427-6.997 2.123-10.497 2.123z" fill="#6d00ca"/></g><g><path d="m433.051 465.469c-8.306 0-16.609-3.16-22.933-9.484l-100.336-100.337c-1.554-1.554-2.348-3.712-2.172-5.903s1.304-4.195 3.086-5.481c14.009-10.11 26.723-20.625 37.791-31.253 2.943-2.827 7.609-2.782 10.497.106l97.002 97.001c12.645 12.646 12.645 33.221 0 45.867-6.323 6.322-14.63 9.484-22.935 9.484zm-106.5-114.263 94.174 94.174c6.795 6.797 17.856 6.797 24.655 0 6.797-6.797 6.797-17.857-.001-24.654l-91.866-91.866c-8.263 7.569-17.29 15.051-26.962 22.346z" fill="#007ea8"/></g><path d="m226.339 385.181c-17.374-9.433-33.382-19.192-47.987-29.249v79.122h-16.057c-13.251 0-23.993 10.742-23.993 23.993s10.742 23.993 23.993 23.993h40.05c9.267 0 17.3-5.257 21.298-12.948-1.719-3.307-2.696-7.061-2.696-11.046 0-5.746 2.022-11.019 5.391-15.15v-58.715z" fill="#ffff6f"/><path d="m260.998 384.192v50.863h-16.057c-13.251 0-23.993 10.742-23.993 23.993s10.742 23.993 23.993 23.993h40.05c13.251 0 23.993-10.742 23.993-23.993v-104.373c-14.583 10.149-30.59 19.998-47.986 29.517z" fill="#ffff6f"/><path d="m414.518 191.738c-5.079-81.424-98.926-125.901-171.762-69.286-34.034-26.453-72.68-30.827-104.705-19.662l30.498 30.498c9.737 9.737 9.737 25.524 0 35.261-9.737 9.737-25.524 9.737-35.261 0l-37.498-37.498c-14.092 15.928-23.294 36.698-24.79 60.687-1.965 31.487 9.744 64.906 33.847 96.635 26.989 35.522 68.899 68.649 124.559 98.469 8.36 4.477 18.339 4.484 26.699 0 55.667-29.82 97.569-62.947 124.559-98.469 24.11-31.729 35.812-65.147 33.854-96.635z" fill="#ff63ed"/><path d="m168.548 133.288-61.226-61.226c-5.796 5.866-13.881 10.092-23.91 11.349-1.257 10.033-5.482 18.119-11.348 23.914l61.224 61.224c9.737 9.737 25.524 9.737 35.261 0 9.736-9.738 9.736-25.524-.001-35.261z" fill="#88f8d8"/><g fill="#f90"><path d="m178.353 355.932v35.529c11.652 7.366 24.004 14.548 37.047 21.535 3.486 1.867 7.161 3.345 10.94 4.463v-32.278c-17.375-9.433-33.383-19.192-47.987-29.249z"/><path d="m260.998 384.192v32.702c3.139-1.042 6.195-2.334 9.115-3.9 13.728-7.354 26.684-14.926 38.871-22.699v-35.62c-14.583 10.149-30.59 19.998-47.986 29.517z"/><path d="m308.985 350.175c-4.142 0-7.5 3.358-7.5 7.5v101.373c0 9.094-7.399 16.493-16.493 16.493h-40.051c-9.125 0-16.493-7.441-16.493-16.493 0-9.132 7.434-16.494 16.493-16.494h16.057c4.142 0 7.5-3.358 7.5-7.5v-47.863c0-4.142-3.357-7.5-7.5-7.5-4.142 0-7.5 3.358-7.5 7.5v40.363h-8.557c-3.907 0-7.647.72-11.102 2.027v-41.4c0-4.142-3.357-7.5-7.5-7.5s-7.5 3.358-7.5 7.5v53.249c-3.383 5.017-5.391 11.167-5.391 17.618 0 3.205.538 6.863 1.748 10.338-3.097 3.858-7.783 6.155-12.851 6.155h-40.05c-9.095 0-16.494-7.399-16.494-16.493 0-9.095 7.399-16.494 16.494-16.494h16.057c4.142 0 7.5-3.358 7.5-7.5v-76.122c0-4.142-3.357-7.5-7.5-7.5s-7.5 3.358-7.5 7.5v68.623h-8.557c-17.365 0-31.493 14.128-31.493 31.493s14.128 31.492 31.493 31.492h40.05c8.056 0 15.602-3.04 21.314-8.303 5.609 5.152 13.083 8.303 21.281 8.303h40.051c17.365 0 31.492-14.128 31.492-31.492v-101.373c.001-4.142-3.356-7.5-7.498-7.5z"/></g><g><path d="m242.761 397.705c-5.8 0-11.604-1.417-16.896-4.251-56.622-30.335-99.347-64.163-126.989-100.543-25.213-33.189-37.439-68.336-35.36-101.64 1.489-23.89 10.222-45.873 25.254-63.571 2.681-3.157 7.413-3.543 10.572-.861 3.157 2.681 3.542 7.414.861 10.571-12.92 15.213-20.43 34.16-21.717 54.795-1.851 29.663 9.33 61.348 32.334 91.632 26.329 34.652 67.419 67.085 122.128 96.395 6.146 3.292 13.478 3.291 19.612.001 54.709-29.307 95.8-61.739 122.132-96.397 23.003-30.273 34.186-61.959 32.34-91.632-2.201-35.28-22.492-64.906-54.28-79.25-33.895-15.294-73.296-9.531-105.394 15.419-2.707 2.104-6.498 2.105-9.205 0-28.717-22.32-63.34-29.384-94.99-19.381-3.951 1.248-8.164-.941-9.411-4.891-1.248-3.95.941-8.163 4.891-9.411 34.728-10.976 72.367-4.249 104.112 18.41 35.707-25.486 78.736-30.707 116.166-13.819 36.946 16.671 60.528 51.06 63.081 91.989 2.073 33.316-10.157 68.462-35.367 101.639-27.645 36.386-70.37 70.214-126.988 100.543-5.284 2.835-11.085 4.253-16.886 4.253z" fill="#e207b9"/></g><g><path d="m150.918 183.335c-8.305 0-16.61-3.161-22.933-9.483l-60.225-60.224c-2.929-2.929-2.929-7.677 0-10.606 2.93-2.929 7.677-2.929 10.607 0l60.223 60.223c6.797 6.797 17.857 6.797 24.654 0 6.798-6.797 6.798-17.857 0-24.655l-60.226-60.226c-2.929-2.929-2.929-7.677 0-10.606 2.93-2.929 7.677-2.929 10.607 0l60.226 60.226c12.645 12.646 12.645 33.221 0 45.867-6.323 6.323-14.628 9.484-22.933 9.484z" fill="#007ea8"/></g><circle cx="292.764" cy="228.941" fill="#e207b9" r="10.61"/><g><path d="m265.225 265.037h-44.933c-4.142 0-7.5-3.358-7.5-7.5s3.357-7.5 7.5-7.5h44.933c4.142 0 7.5 3.358 7.5 7.5 0 4.143-3.357 7.5-7.5 7.5z" fill="#e207b9"/></g><circle cx="192.752" cy="228.941" fill="#e207b9" r="10.61"/><path d="m108.751 23.805c-7.3-8.272-18.46-13.641-32.266-15.526-15.459-2.111-34.014.061-55.152 6.451-3.174.96-5.644 3.426-6.602 6.602-6.392 21.14-8.562 39.693-6.452 55.151 1.884 13.808 7.254 24.966 15.525 32.268 21.391 18.879 55.596 6.671 59.607-25.341 31.99-4.009 44.229-38.204 25.34-59.605z" fill="#b98eff"/><g><path d="m46.98 125.237c-10.143 0-20.043-3.718-28.139-10.863-9.64-8.512-15.861-21.264-17.992-36.877-2.258-16.534-.002-36.161 6.704-58.336 1.683-5.578 6.022-9.92 11.609-11.61 22.181-6.705 41.808-8.96 58.338-6.704 15.616 2.133 28.368 8.356 36.874 17.995 10.706 12.13 13.718 28.313 8.055 43.29-5.325 14.084-17.283 24.161-32.561 27.733-3.571 15.278-13.647 27.238-27.727 32.562-4.985 1.885-10.104 2.81-15.161 2.81zm17.471-110.243c-12.008 0-25.726 2.313-40.948 6.914-.777.235-1.358.814-1.592 1.589-6.079 20.103-8.165 37.588-6.202 51.971 1.639 11.999 6.153 21.564 13.058 27.661 7.889 6.962 18.381 8.932 28.068 5.268 10.443-3.949 17.597-13.638 19.136-25.92.426-3.403 3.106-6.082 6.508-6.509 12.28-1.539 21.97-8.695 25.919-19.141 3.662-9.684 1.691-20.173-5.27-28.061-6.092-6.903-15.656-11.419-27.658-13.058-3.492-.476-7.169-.714-11.019-.714z" fill="#6d00ca"/></g></g></svg>