<svg id="Capa_1" enable-background="new 0 0 512 512" height="512" viewBox="0 0 512 512" width="512" xmlns="http://www.w3.org/2000/svg"><g><g fill="#9448f5"><path d="m206.182 121.601c4.335 4.335 7.011 10.32 7.011 16.938 0 13.237-10.722 23.959-23.949 23.959h-78.767v-47.908h78.767c6.608.001 12.602 2.686 16.938 7.011z"/><path d="m228.571 17.558v34.912c0 6.618-2.686 12.603-7.021 16.948-4.335 4.325-10.33 7.011-16.938 7.011-13.227 0-23.959-10.722-23.959-23.959v-34.067c4.094-.563 8.268-.845 12.513-.845z"/><path d="m213.192 227.314c0 13.237-10.722 23.959-23.949 23.959h-78.767v-47.908h78.767c6.608 0 12.603 2.686 16.938 7.011 4.336 4.335 7.011 10.32 7.011 16.938z"/><path d="m401.524 114.591v47.908h-78.767c-13.227 0-23.949-10.722-23.949-23.959 0-6.618 2.675-12.603 7.011-16.938 4.335-4.325 10.33-7.011 16.938-7.011z"/><path d="m331.347 18.403v34.067c0 13.237-10.732 23.959-23.959 23.959-6.608 0-12.603-2.686-16.938-7.011-4.335-4.345-7.021-10.33-7.021-16.948v-34.912h35.405c4.245 0 8.419.282 12.513.845z"/><path d="m401.524 203.365v47.908h-78.767c-13.227 0-23.949-10.722-23.949-23.959 0-6.618 2.675-12.603 7.011-16.938 4.335-4.325 10.33-7.011 16.938-7.011z"/></g><path d="m189.243 251.273h-88.825v43.536c.973-.083 1.955-.134 2.95-.134h305.263c.995 0 1.977.052 2.95.134v-43.536h-88.825c-13.227 0-23.949-10.722-23.949-23.959 0-6.618 2.675-12.603 7.011-16.938 4.335-4.325 10.33-7.011 16.938-7.011h88.825v-40.867h-88.825c-13.227 0-23.949-10.722-23.949-23.959 0-6.618 2.675-12.603 7.011-16.938 4.335-4.325 10.33-7.011 16.938-7.011h88.825v-14.353c0-46.972-34.932-85.797-80.235-91.893v44.126c0 13.237-10.732 23.959-23.959 23.959-6.608 0-12.603-2.686-16.938-7.011-4.335-4.345-7.021-10.33-7.021-16.948v-44.97h-54.858v44.971c0 6.618-2.686 12.603-7.021 16.948-4.335 4.325-10.33 7.011-16.938 7.011-13.227 0-23.959-10.722-23.959-23.959v-44.126c-45.303 6.095-80.235 44.92-80.235 91.893v14.353h88.825c6.608 0 12.603 2.686 16.938 7.011 4.335 4.335 7.011 10.32 7.011 16.938 0 13.237-10.722 23.959-23.949 23.959h-88.825v40.867h88.825c6.608 0 12.603 2.686 16.938 7.011 4.335 4.335 7.011 10.32 7.011 16.938.001 13.236-10.721 23.958-23.948 23.958z" fill="#b98eff"/><path d="m408.632 294.675h-305.263c-19.01 0-34.42 15.41-34.42 34.42 0 19.01 15.41 34.42 34.42 34.42h305.263c19.01 0 34.42-15.41 34.42-34.42 0-19.01-15.41-34.42-34.42-34.42z" fill="#88f8d8"/><path d="m100.418 363.515v42.312c0 54.495 44.177 98.673 98.673 98.673h113.819c54.495 0 98.673-44.177 98.673-98.673v-42.312z" fill="#ff63ed"/><path d="m411.582 122.091c4.143 0 7.5-3.358 7.5-7.5v-14.353c0-49.972-37.288-92.673-86.735-99.326-4.494-.605-8.5 2.894-8.5 7.433v1.851c-1.665-.082-3.336-.138-5.012-.138h-27.905v-2.558c0-4.142-3.357-7.5-7.5-7.5h-54.858c-4.143 0-7.5 3.358-7.5 7.5v2.559h-27.905c-1.676 0-3.347.056-5.013.138v-1.852c0-4.518-3.981-8.04-8.5-7.433-49.446 6.653-86.734 49.354-86.734 99.326v14.353c0 4.142 3.357 7.5 7.5 7.5h2.558v32.908h-2.558c-4.143 0-7.5 3.358-7.5 7.5v40.867c0 4.142 3.357 7.5 7.5 7.5h2.558v32.908h-2.558c-4.143 0-7.5 3.358-7.5 7.5v41.536c0 4.142 3.357 7.5 7.5 7.5s7.5-3.358 7.5-7.5v-34.036h81.324c17.341 0 31.449-14.112 31.449-31.459 0-17.42-14.094-31.449-31.449-31.449-17.259 0-51.793 0-81.324 0v-25.867h2.558 78.767c17.341 0 31.449-14.112 31.449-31.459 0-17.444-14.129-31.449-31.449-31.449-17.259 0-51.793 0-81.324 0v-6.853c0-39.579 27.497-73.792 65.234-82.87v1.036 34.067c0 17.347 14.112 31.459 31.459 31.459 17.364 0 31.459-14.058 31.459-31.459v-34.912-2.559h39.858v2.559 34.912c0 17.33 14.023 31.459 31.459 31.459 17.346 0 31.458-14.112 31.458-31.459v-34.068-1.036c37.737 9.078 65.235 43.291 65.235 82.87v6.853h-2.559-78.767c-.524 0-1.047.013-1.567.038-7.804.381-15.093 3.601-20.674 9.169-5.938 5.938-9.207 13.836-9.207 22.241 0 17.347 14.107 31.459 31.448 31.459h78.767 2.559v25.867c-29.531 0-64.064 0-81.325 0-17.247 0-31.448 13.921-31.448 31.449 0 17.347 14.107 31.459 31.448 31.459h81.325v34.036c0 4.142 3.357 7.5 7.5 7.5s7.5-3.358 7.5-7.5v-41.536c0-4.142-3.357-7.5-7.5-7.5h-2.559v-32.908h2.559c4.143 0 7.5-3.358 7.5-7.5v-40.867c0-4.142-3.357-7.5-7.5-7.5h-2.559v-32.908h2.558zm-293.605 88.775h71.267c9.059 0 16.449 7.31 16.449 16.449 0 9.076-7.379 16.459-16.449 16.459h-71.267zm0-88.775h71.267c9.074 0 16.449 7.329 16.449 16.449 0 9.076-7.379 16.459-16.449 16.459h-71.267zm103.094-69.62c0 9.087-7.353 16.459-16.459 16.459-9.075 0-16.459-7.383-16.459-16.459v-27.267c1.661-.097 3.335-.145 5.013-.145h27.905zm102.776 0c0 9.076-7.383 16.459-16.458 16.459-9.104 0-16.459-7.371-16.459-16.459v-27.412h27.905c1.678 0 3.352.048 5.012.145zm70.176 102.528h-71.267c-9.069 0-16.448-7.383-16.448-16.459 0-4.398 1.71-8.53 4.808-11.629 3.115-3.108 7.25-4.82 11.641-4.82h71.267v32.908zm0 88.774h-71.267c-9.069 0-16.448-7.383-16.448-16.459 0-9.149 7.402-16.449 16.448-16.449h71.267z" fill="#6d00ca"/><g><path d="m312.909 512h-113.818c-58.543 0-106.172-47.629-106.172-106.172v-39.313c0-4.142 3.357-7.5 7.5-7.5s7.5 3.358 7.5 7.5v39.313c0 50.272 40.899 91.172 91.172 91.172h113.818c50.272 0 91.173-40.9 91.173-91.172v-39.313c0-4.142 3.357-7.5 7.5-7.5s7.5 3.358 7.5 7.5v39.313c0 58.543-47.629 106.172-106.173 106.172z" fill="#e207b9"/></g><circle cx="312.32" cy="414.715" fill="#e207b9" r="11.95"/><g><path d="m281.303 454.422h-50.605c-4.143 0-7.5-3.358-7.5-7.5s3.357-7.5 7.5-7.5h50.605c4.143 0 7.5 3.358 7.5 7.5s-3.358 7.5-7.5 7.5z" fill="#e207b9"/></g><circle cx="199.681" cy="414.715" fill="#e207b9" r="11.95"/><g><path d="m408.632 371.015h-305.263c-23.115 0-41.921-18.805-41.921-41.92s18.806-41.92 41.921-41.92h305.263c23.114 0 41.92 18.805 41.92 41.92s-18.806 41.92-41.92 41.92zm-305.263-68.84c-14.844 0-26.921 12.076-26.921 26.92s12.077 26.92 26.921 26.92h305.263c14.844 0 26.92-12.076 26.92-26.92s-12.076-26.92-26.92-26.92z" fill="#007ea8"/></g></g></svg>