<svg id="Capa_1" enable-background="new 0 0 512 512" height="512" viewBox="0 0 512 512" width="512" xmlns="http://www.w3.org/2000/svg"><g><path d="m397.9 102.918-11.898-68.473c-1.34-7.658-7.364-13.485-14.777-14.772l-68.469-11.902c-9.876-1.716-19.274 4.898-20.992 14.775-1.716 9.875 4.898 19.273 14.775 20.992l34.015 5.912-78.296 78.296c-50.46-37.946-122.656-33.967-168.559 11.937-50.255 50.254-50.261 132.031 0 182.292 10.075 10.075 21.421 18.136 33.531 24.162 11.044 5.513 22.724 9.337 34.647 11.481 40.166 7.219 83.131-4.659 114.114-35.643 8.419-8.419 15.427-17.725 21.023-27.607-11.263-6.142-23.526-9.767-35.995-10.877-3.125 4.511-6.687 8.805-10.698 12.815-20.176 20.176-47.418 29.077-73.826 26.696-12.456-1.11-24.732-4.736-35.989-10.871-7.592-4.139-14.721-9.408-21.139-15.825-36.104-36.104-36.104-94.849 0-130.953s94.849-36.104 130.953 0c22.653 22.653 31.092 54.22 25.316 83.509 11.924 2.144 23.61 5.975 34.654 11.487 8.497-36.399 1.046-75.796-22.364-106.933l78.298-78.299 5.911 34.019c1.72 9.87 11.115 16.493 20.985 14.773 9.884-1.72 16.494-11.115 14.78-20.991z" fill="#b98eff"/><path d="m465.725 247.752-11.898-68.474c-1.276-7.006-6.511-13.183-14.773-14.773l-.058-.01-68.416-11.892c-9.877-1.716-19.275 4.898-20.992 14.775-1.717 9.875 4.899 19.273 14.774 20.991l34.019 5.913-78.298 78.298c-6.289-4.723-12.918-8.811-19.791-12.231-11.044-5.513-22.73-9.344-34.654-11.487-40.173-7.213-83.131 4.672-114.114 35.655-8.419 8.419-15.421 17.718-21.017 27.614 11.256 6.135 23.533 9.761 35.989 10.871 3.125-4.511 6.687-8.805 10.698-12.815 20.176-20.176 47.418-29.077 73.826-26.696 12.469 1.11 24.732 4.736 35.995 10.877 7.592 4.126 14.722 9.408 21.132 15.819 36.104 36.104 36.104 94.849 0 130.953s-94.849 36.104-130.953 0c-22.653-22.653-31.099-54.227-25.316-83.522-11.924-2.144-23.604-5.968-34.647-11.481-9.812 42.001 1.617 87.995 34.294 120.672 50.254 50.255 132.037 50.255 182.292 0 45.904-45.903 49.876-118.105 11.937-168.559l78.298-78.298 5.911 34.019c1.72 9.87 11.108 16.486 20.985 14.773 9.881-1.721 16.491-11.116 14.777-20.992z" fill="#9448f5"/><path d="m473.115 246.47s0-.001 0-.002l-11.909-68.533c-1.926-10.579-10.064-18.741-20.734-20.794-.044-.009-.146-.026-.191-.034l-68.417-11.892c-13.927-2.424-27.243 6.945-29.664 20.88-2.423 13.933 6.943 27.241 20.879 29.665l19.781 3.438-63.589 63.588c-3.402-2.31-6.91-4.447-10.483-6.425 6.771-35.684-.777-72.282-21.064-102.135l63.586-63.586 3.438 19.784c2.428 13.936 15.728 23.297 29.66 20.874 13.931-2.424 23.299-15.73 20.883-29.662 0 0 0-.001 0-.002l-11.9-68.482c-1.861-10.637-10.253-19.023-20.881-20.869l-68.47-11.901c-13.93-2.424-27.24 6.946-29.665 20.88-2.42 13.933 6.946 27.24 20.881 29.665l19.777 3.437-63.585 63.586c-25.018-16.979-55.176-25.178-85.673-23.164-70.065 4.633-127.268 62.522-127.27 136.04-.001 36.474 14.166 70.727 39.89 96.452 9.063 9.063 19.251 16.732 30.337 22.86-8.482 44.567 5.301 89.786 37.488 121.974 25.723 25.722 59.975 39.888 96.45 39.888s70.727-14.166 96.449-39.888c23.35-23.349 37.409-54.382 39.59-87.382 2.015-30.487-6.184-60.654-23.161-85.669l63.587-63.587 3.438 19.784c2.427 13.927 15.733 23.292 29.66 20.874 13.93-2.425 23.298-15.731 20.882-29.662zm-384.113 70.202c-22.892-22.891-35.498-53.378-35.497-85.845.002-65.359 50.804-116.943 113.259-121.072 29.215-1.928 57.947 6.66 80.986 23.986 2.984 2.245 7.169 1.95 9.812-.691l78.296-78.296c4.289-4.29 1.959-11.653-4.02-12.692l-34.013-5.912c-5.787-1.007-9.678-6.533-8.673-12.318 1.007-5.786 6.524-9.675 12.319-8.671l68.47 11.901c4.414.767 7.899 4.253 8.671 8.667l11.898 68.471c1.004 5.787-2.889 11.313-8.677 12.321-5.777 1.005-11.302-2.883-12.309-8.668l-5.91-34.019c-1.038-5.972-8.398-8.314-12.693-4.02l-78.299 78.299c-2.642 2.642-2.936 6.824-.69 9.811 19.769 26.292 27.875 59.252 22.815 91.67-6.561-2.706-14.228-5.12-20.582-6.618 3.722-30.512-6.671-61.056-28.541-82.926-18.879-18.878-44.016-29.275-70.78-29.275-55.374 0-100.055 44.667-100.055 100.055 0 26.765 10.396 51.902 29.274 70.78 16.275 16.275 37.874 26.734 61.757 28.863 29.697 2.677 58.783-7.843 79.804-28.863 3.177-3.177 6.155-6.587 8.887-10.172 7.359 1.051 14.392 2.884 21.796 6.072-4.523 6.876-9.757 13.298-15.622 19.163-47.365 47.367-124.418 47.266-171.683-.001zm170.361-76.33c-41.607-5.088-83.414 9.143-113.143 38.872-6.898 6.898-13.004 14.495-18.243 22.637-4.774-3.152-9.234-6.778-13.305-10.849-16.046-16.045-24.882-37.415-24.882-60.173 0-47.083 37.958-85.055 85.055-85.055 22.758 0 44.128 8.836 60.173 24.881 18.394 18.395 27.227 44.012 24.345 69.687zm-76.914 75.198c.017-.016.032-.034.048-.05 14.234-14.233 32.827-22.797 52.572-24.54-.018.017-.034.036-.051.053-14.234 14.232-32.826 22.792-52.569 24.537zm107.095-10.899c4.758 3.141 9.217 6.766 13.299 10.848 16.046 16.045 24.882 37.415 24.882 60.173s-8.836 44.128-24.882 60.173c-33.18 33.179-87.166 33.179-120.346 0-18.399-18.399-27.233-44.02-24.347-69.698 5.558.681 11.117 1.025 16.653 1.024 35.905 0 70.733-14.127 96.489-39.885 6.899-6.895 13.007-14.492 18.252-22.635zm160.12-43.288c-5.767 1.004-11.306-2.886-12.313-8.667l-5.91-34.019c-1.038-5.973-8.398-8.314-12.693-4.02l-78.299 78.298c-2.642 2.642-2.936 6.825-.69 9.811 17.389 23.124 25.906 51.885 23.983 80.984-1.94 29.371-14.452 56.988-35.229 77.765-22.889 22.889-53.375 35.495-85.843 35.495s-62.954-12.606-85.843-35.495c-27.694-27.694-40.09-66.232-34.06-104.617 6.22 2.56 13.703 4.991 20.58 6.615-3.728 30.514 6.666 61.062 28.542 82.938 39.029 39.028 102.531 39.028 141.56 0 18.878-18.878 29.274-44.015 29.274-70.78s-10.396-51.902-29.274-70.78c-39.19-39.187-102.694-38.867-141.56 0-3.176 3.177-6.154 6.585-8.887 10.172-7.331-1.016-14.531-2.949-21.793-6.068 4.519-6.876 9.752-13.301 15.618-19.167 28.068-28.069 68.251-40.623 107.483-33.577 18.621 3.347 36.131 10.965 51.269 22.334 2.984 2.241 7.165 1.947 9.808-.694l78.298-78.297c4.289-4.29 1.959-11.653-4.02-12.692l-34.018-5.913c-5.787-1.006-9.676-6.532-8.67-12.318 1.005-5.787 6.533-9.673 12.318-8.67l68.416 11.892h.002c4.643.922 7.905 4.182 8.724 8.677l11.898 68.474c1.004 5.787-2.888 11.313-8.671 12.319z" fill="#6d00ca"/></g></svg>