<svg id="Capa_1" enable-background="new 0 0 512 512" height="512" viewBox="0 0 512 512" width="512" xmlns="http://www.w3.org/2000/svg"><g><g><path d="m314.45 153.57c0 45.54-20.94 86.27-53.7 113.08-8.46-10.37-15-22.36-19.09-35.42 20.65-19.49 33.55-47.09 33.55-77.66 0-11.11-1.7-21.83-4.87-31.91-4.09-13.06-10.63-25.05-19.09-35.42-19.6-24.09-49.47-39.5-82.87-39.5-58.91 0-106.84 47.93-106.84 106.83 0 58.91 47.93 106.83 106.84 106.83 13.88 0 27.16-2.66 39.34-7.51 4.9 12.39 11.46 23.96 19.39 34.43-12.26 5.4-25.38 9.17-39.11 11.01v28.86h41.27c10.84 0 19.62 8.79 19.62 19.62 0 10.84-8.78 19.62-19.62 19.62h-41.27v72.7c0 10.84-8.79 19.62-19.62 19.62-10.84 0-19.63-8.78-19.63-19.62v-72.7h-41.27c-10.84 0-19.62-8.78-19.62-19.62 0-10.83 8.78-19.62 19.62-19.62h41.27v-28.86c-71.3-9.61-126.45-70.87-126.45-144.76 0-80.54 65.53-146.07 146.08-146.07 47.52 0 89.82 22.82 116.51 58.07 7.93 10.47 14.49 22.04 19.39 34.43 6.56 16.6 10.17 34.67 10.17 53.57z" fill="#ff9bff"/></g><g><path d="m363.25 344.07v28.87h41.27c10.84 0 19.62 8.78 19.62 19.62 0 10.83-8.78 19.62-19.62 19.62h-41.27v72.7c0 10.84-8.79 19.62-19.62 19.62-10.84 0-19.62-8.78-19.62-19.62v-72.7h-41.28c-10.83 0-19.62-8.79-19.62-19.62 0-10.84 8.79-19.62 19.62-19.62h41.28v-28.87c-39.45-5.31-73.95-26.43-96.9-56.75-7.93-10.47-14.49-22.04-19.39-34.43-6.56-16.6-10.17-34.67-10.17-53.57 0-45.54 20.94-86.27 53.7-113.08 8.46 10.37 15 22.36 19.09 35.42-20.65 19.49-33.55 47.09-33.55 77.66 0 11.11 1.7 21.83 4.87 31.91 4.09 13.06 10.63 25.05 19.09 35.42 19.6 24.09 49.47 39.5 82.88 39.5 58.9 0 106.83-47.93 106.83-106.83 0-58.91-47.93-106.83-106.83-106.83-13.88 0-27.16 2.66-39.35 7.51-4.9-12.39-11.46-23.96-19.39-34.43 17.99-7.93 37.86-12.33 58.74-12.33 80.54 0 146.07 65.53 146.07 146.08 0 73.89-55.15 135.14-126.45 144.75z" fill="#ffceff"/></g><path d="m497.2 199.32c0-84.685-68.892-153.58-153.57-153.58-19.504 0-38.44 3.615-56.382 10.728-28.205-34.429-70.914-56.468-118.868-56.468-84.685 0-153.58 68.892-153.58 153.57 0 74.343 53.915 138.199 126.45 151.174v14.945h-33.771c-14.953 0-27.119 12.166-27.119 27.12s12.166 27.12 27.119 27.12h33.771v65.2c0 14.954 12.17 27.12 27.13 27.12 14.954 0 27.12-12.166 27.12-27.12v-65.2h33.77c14.954 0 27.12-12.166 27.12-27.12s-12.166-27.12-27.12-27.12h-33.77v-14.942c9.987-1.783 19.778-4.58 29.246-8.327 23.153 28.262 56.034 47.633 91.764 54.061v14.958h-33.78c-14.953 0-27.119 12.166-27.119 27.12s12.166 27.12 27.119 27.12h33.78v65.2c0 14.954 12.166 27.12 27.12 27.12s27.12-12.166 27.12-27.12v-65.2h33.77c14.954 0 27.12-12.166 27.12-27.12s-12.166-27.12-27.12-27.12h-33.77v-14.955c72.535-12.975 126.45-76.826 126.45-151.164zm-310.196 91.576c-3.724.499-6.504 3.676-6.504 7.434v28.86c0 4.142 3.357 7.5 7.5 7.5h41.27c6.683 0 12.12 5.437 12.12 12.12s-5.438 12.12-12.12 12.12h-41.27c-4.143 0-7.5 3.358-7.5 7.5v72.7c0 6.683-5.438 12.12-12.12 12.12-6.688 0-12.13-5.437-12.13-12.12v-72.7c0-4.142-3.357-7.5-7.5-7.5h-41.271c-6.683 0-12.119-5.437-12.119-12.12s5.437-12.12 12.119-12.12h41.271c4.143 0 7.5-3.358 7.5-7.5v-28.86c0-3.755-2.777-6.931-6.498-7.433-68.384-9.216-119.952-68.254-119.952-137.327 0-76.407 62.167-138.57 138.58-138.57 77.174 0 138.57 62.694 138.57 138.57 0 39.063-16.316 75.864-45.024 102.145-4.679-6.741-8.564-13.97-11.655-22.444 20.672-21.26 32.439-50.035 32.439-79.702 0-63.316-51.519-114.33-114.33-114.33-63.047 0-114.34 51.288-114.34 114.33s51.293 114.33 114.34 114.33c12.068 0 23.878-1.863 35.205-5.545 3.09 6.836 7.308 14.621 11.912 21.547-9.231 3.348-18.78 5.694-28.493 6.995zm126.922-186.344c9.573-3.012 19.529-4.562 29.704-4.562 54.771 0 99.33 44.559 99.33 99.33s-44.56 99.33-99.33 99.33c-27.548 0-53.491-11.311-72.26-31.26 32.235-29.16 50.58-70.211 50.58-113.819 0-16.802-2.7-33.254-8.024-49.019zm-68.238 111.337c-.918-5.446-1.398-10.982-1.398-16.568 0-23.041 7.741-44.73 22.022-62.319.918 5.446 1.398 10.982 1.398 16.569 0 23.04-7.741 44.73-22.022 62.318zm-47.614 32.451c-9.565 3.011-19.518 4.56-29.694 4.56-54.776 0-99.34-44.559-99.34-99.33s44.563-99.33 99.34-99.33c27.542 0 53.481 11.31 72.25 31.26-32.235 29.16-50.58 70.211-50.58 113.82 0 16.803 2.7 33.254 8.024 49.02zm165.176 132.1h41.27c6.683 0 12.12 5.437 12.12 12.12s-5.438 12.12-12.12 12.12h-41.27c-4.143 0-7.5 3.358-7.5 7.5v72.7c0 6.683-5.438 12.12-12.12 12.12s-12.12-5.437-12.12-12.12v-72.7c0-4.142-3.357-7.5-7.5-7.5h-41.28c-6.683 0-12.119-5.437-12.119-12.12s5.437-12.12 12.119-12.12h41.28c4.143 0 7.5-3.358 7.5-7.5v-28.87c0-3.755-2.777-6.932-6.5-7.433-68.333-9.198-119.96-67.879-119.96-137.317 0-39.063 16.316-75.864 45.024-102.146 4.936 7.099 8.726 14.415 11.655 22.444-20.672 21.26-32.439 50.035-32.439 79.702 0 62.444 50.632 114.33 114.34 114.33 63.042 0 114.33-51.288 114.33-114.33s-51.288-114.33-114.33-114.33c-12.067 0-23.88 1.863-35.215 5.547-3.21-7.109-7.374-14.683-11.915-21.553 15.066-5.475 30.879-8.244 47.13-8.244 76.408 0 138.57 62.167 138.57 138.58 0 69.066-51.568 128.1-119.952 137.317-3.722.501-6.498 3.678-6.498 7.433v28.87c0 4.142 3.357 7.5 7.5 7.5z" fill="#e207b9"/></g></svg>