<svg id="Capa_1" enable-background="new 0 0 512 512" height="512" viewBox="0 0 512 512" width="512" xmlns="http://www.w3.org/2000/svg"><g><g><path d="m228.5 87.788v-12.505c0-15.164 12.337-27.501 27.501-27.501 15.163 0 27.5 12.337 27.5 27.501v12.505c13.954 1.981 27.437 5.44 40.283 10.224v-22.729c-.001-37.435-30.349-67.783-67.784-67.783-37.435 0-67.783 30.347-67.783 67.783v22.729c12.846-4.784 26.329-8.243 40.283-10.224z" fill="#88f8d8"/></g><path d="m449.314 428.373h-386.628c-21.022 0-38.064 17.042-38.064 38.064 0 21.022 17.042 38.064 38.064 38.064h386.628c21.022 0 38.064-17.042 38.064-38.064-.001-21.022-17.042-38.064-38.064-38.064z" fill="#ffd600"/><path d="m256 85.837c-107.393 0-194.762 87.37-194.762 194.762v147.811c.481-.018.962-.037 1.448-.037h386.628c.486 0 .967.019 1.448.037v-147.811c0-107.392-87.37-194.762-194.762-194.762zm154.479 302.253h-134.337v-53.217c-4.134 2.466-8.412 4.899-12.873 7.289-4.553 2.442-9.988 2.438-14.54 0-4.459-2.389-8.736-4.822-12.869-7.287v53.215h-134.339v-107.491c0-78.355 58.64-143.266 134.338-153.166v59.882c6.846 2.249 13.647 5.811 20.139 10.857 6.495-5.049 13.297-8.612 20.143-10.862v-59.877c75.698 9.9 134.337 74.812 134.337 153.166v107.491z" fill="#ffff6f"/><path d="m349.542 235.906c-2.766-44.345-53.876-68.567-93.544-37.734-39.641-30.811-90.774-6.633-93.54 37.734-1.07 17.148 5.307 35.348 18.434 52.629 14.699 19.346 37.523 37.387 67.836 53.628 4.553 2.438 9.988 2.442 14.54 0 30.317-16.24 53.138-34.282 67.836-53.628 13.132-17.281 19.505-35.481 18.438-52.629z" fill="#b98eff"/><g><g><path d="m323.783 102.512c-4.143 0-7.5-3.358-7.5-7.5v-19.729c0-33.24-27.043-60.283-60.283-60.283s-60.283 27.043-60.283 60.283v19.729c0 4.142-3.357 7.5-7.5 7.5s-7.5-3.358-7.5-7.5v-19.729c0-41.511 33.772-75.283 75.283-75.283 41.512 0 75.283 33.772 75.283 75.283v19.729c0 4.142-3.358 7.5-7.5 7.5z" fill="#007ea8"/></g><g><path d="m283.5 92.288c-4.143 0-7.5-3.358-7.5-7.5v-9.505c0-11.028-8.972-20-19.999-20-11.028 0-20.001 8.972-20.001 20v9.505c0 4.142-3.357 7.5-7.5 7.5s-7.5-3.358-7.5-7.5v-9.505c0-19.299 15.701-35 35.001-35 19.299 0 34.999 15.701 34.999 35v9.505c0 4.142-3.358 7.5-7.5 7.5z" fill="#007ea8"/></g></g><circle cx="289.113" cy="258.716" fill="#6d00ca" r="7.026"/><g><path d="m270.876 285.152h-29.753c-4.143 0-7.5-3.358-7.5-7.5s3.357-7.5 7.5-7.5h29.753c4.143 0 7.5 3.358 7.5 7.5s-3.357 7.5-7.5 7.5z" fill="#6d00ca"/></g><circle cx="222.887" cy="258.716" fill="#6d00ca" r="7.026"/><g fill="#f95116"><path d="m458.261 421.76v-141.161c0-111.527-90.734-202.261-202.262-202.261s-202.26 90.733-202.26 202.261v141.161c-20.854 4.17-36.616 22.615-36.616 44.676 0 25.124 20.439 45.564 45.563 45.564h386.628c25.124 0 45.563-20.44 45.563-45.563 0-22.062-15.762-40.507-36.616-44.677zm-202.261-328.423c103.256 0 187.261 84.005 187.261 187.261v140.274h-374.522v-140.273c0-103.257 84.005-187.262 187.261-187.262zm193.314 403.663h-386.628c-16.853 0-30.563-13.711-30.563-30.563s13.711-30.563 30.563-30.563h386.628c16.853 0 30.563 13.711 30.563 30.563s-13.71 30.563-30.563 30.563z"/><path d="m101.521 395.59h134.338c4.143 0 7.5-3.358 7.5-7.5v-50.215c0-4.142-3.357-7.5-7.5-7.5s-7.5 3.358-7.5 7.5v42.715h-119.338v-99.992c0-70.672 50.727-131.28 119.338-144.369v48.084c0 4.142 3.357 7.5 7.5 7.5s7.5-3.358 7.5-7.5v-56.882c0-4.525-3.981-8.021-8.473-7.437-80.306 10.505-140.865 79.549-140.865 160.605v107.491c0 4.142 3.357 7.5 7.5 7.5z"/><path d="m276.142 395.59h134.337c4.143 0 7.5-3.358 7.5-7.5v-107.491c0-81.056-60.559-150.1-140.864-160.603-4.491-.585-8.473 2.912-8.473 7.437v56.877c0 4.142 3.357 7.5 7.5 7.5s7.5-3.358 7.5-7.5v-48.08c68.611 13.089 119.337 73.697 119.337 144.369v99.992h-119.337v-42.717c0-4.142-3.357-7.5-7.5-7.5s-7.5 3.358-7.5 7.5v50.217c0 4.141 3.358 7.499 7.5 7.499z"/></g><path d="m357.028 235.441c0-.001 0-.001 0-.002-1.471-23.577-15.063-43.39-36.359-53-20.826-9.397-44.623-6.91-64.67 6.498-20.047-13.404-43.847-15.889-64.676-6.49-21.291 9.608-34.879 29.417-36.35 52.99v.001c-1.184 18.967 5.714 38.896 19.946 57.633.002.003.005.006.007.009 15.352 20.203 38.99 38.94 70.259 55.693h.001c6.613 3.542 14.693 3.71 21.611.006.004-.002.009-.004.013-.006 31.269-16.751 54.91-35.492 70.266-55.701 14.233-18.729 21.132-38.658 19.952-57.631zm-31.895 48.556c-14.043 18.482-36.049 35.828-65.406 51.554-.001.001-.003.002-.004.002-2.33 1.249-5.116 1.249-7.453-.002-29.358-15.729-51.362-33.072-65.401-51.547-.001-.002-.002-.004-.004-.006-12.026-15.831-17.877-32.299-16.921-47.625 1.118-17.925 11.416-32.973 27.549-40.253 17.29-7.802 37.44-4.822 53.903 7.974 2.638 2.066 6.487 2.121 9.205 0 16.464-12.796 36.612-15.781 53.898-7.981 16.137 7.281 26.439 22.332 27.558 40.26v.001c.953 15.331-4.899 31.799-16.924 47.623z" fill="#6d00ca"/></g></svg>