<svg id="Capa_1" enable-background="new 0 0 512 512" height="512" viewBox="0 0 512 512" width="512" xmlns="http://www.w3.org/2000/svg"><g><path d="m412.181 73.745v364.51c0 36.586-29.659 66.245-66.245 66.245h-240.826c-36.586 0-66.235-29.659-66.235-66.245v-364.51c0-36.586 29.649-66.245 66.235-66.245h240.826c36.586 0 66.245 29.659 66.245 66.245z" fill="#ffceff"/><path d="m473.124 73.745v364.51c0 36.586-29.659 66.245-66.245 66.245h-60.943c36.586 0 66.245-29.659 66.245-66.245v-364.51c0-36.586-29.659-66.245-66.245-66.245h60.943c36.586 0 66.245 29.659 66.245 66.245z" fill="#ff63ed"/><g fill="#ffff6f"><circle cx="115.054" cy="83.683" r="29.684"/><circle cx="115.054" cy="199.547" r="29.684"/><circle cx="115.054" cy="315.412" r="29.684"/><circle cx="115.054" cy="431.276" r="29.684"/><circle cx="225.528" cy="431.276" r="29.684"/><circle cx="336.002" cy="431.276" r="29.684"/><circle cx="336.002" cy="315.412" r="29.684"/><circle cx="336.002" cy="199.547" r="29.684"/><circle cx="336.002" cy="83.683" r="29.684"/></g><path d="m336.002 169.864v-56.497c-16.394 0-29.684-13.29-29.684-29.684h-51.106c0 16.394-13.29 29.684-29.684 29.684s-29.684-13.29-29.684-29.684h-51.106c0 16.394-13.29 29.684-29.684 29.684-.001 0-.003 0-.004 0v56.497h.004c16.394 0 29.684 13.29 29.684 29.684s-13.29 29.684-29.684 29.684c-.001 0-.003 0-.004 0v56.497h.004c16.394 0 29.684 13.29 29.684 29.684s-13.29 29.684-29.684 29.684c-.001 0-.003 0-.004 0v56.497h.004c15.396 0 28.052 11.721 29.536 26.727h51.401c1.484-15.005 14.141-26.727 29.536-26.727s28.052 11.721 29.536 26.727h51.401c1.484-15.005 14.141-26.727 29.536-26.727v-56.497c-16.394 0-29.684-13.29-29.684-29.684s13.29-29.684 29.684-29.684v-56.497c-16.394 0-29.684-13.29-29.684-29.684s13.292-29.684 29.686-29.684z" fill="#a4bcff"/><circle cx="225.528" cy="83.683" fill="#ffff6f" r="29.684"/><circle cx="276.89" cy="257.057" fill="#2115c2" r="10.898"/><g><path d="m248.604 293.929h-46.151c-4.143 0-7.5-3.358-7.5-7.5s3.357-7.5 7.5-7.5h46.151c4.143 0 7.5 3.358 7.5 7.5s-3.357 7.5-7.5 7.5z" fill="#2115c2"/></g><circle cx="174.166" cy="257.057" fill="#2115c2" r="10.898"/><path d="m406.879 0c-5.551 0-292.977 0-301.77 0-40.656 0-73.734 33.082-73.734 73.745v364.51c0 40.663 33.077 73.745 73.734 73.745h301.77c40.663 0 73.745-33.082 73.745-73.745v-364.51c.001-40.663-33.082-73.745-73.745-73.745zm-360.504 438.255v-364.51c0-32.392 26.348-58.745 58.735-58.745h240.826c32.393 0 58.745 26.353 58.745 58.745v364.51c0 32.392-26.353 58.745-58.745 58.745h-240.826c-32.387 0-58.735-26.353-58.735-58.745zm419.25 0c0 32.392-26.353 58.745-58.745 58.745h-16.41c18.862-14.332 29.212-36.268 29.212-58.745v-364.51c0-23.747-11.335-45.161-29.212-58.745h16.41c32.393 0 58.745 26.353 58.745 58.745z" fill="#e207b9"/><g><path d="m193.844 91.183h-47.106c-4.143 0-7.5-3.358-7.5-7.5s3.357-7.5 7.5-7.5h47.106c4.143 0 7.5 3.358 7.5 7.5s-3.357 7.5-7.5 7.5z" fill="#2115c2"/></g><g><path d="m304.318 91.183h-47.105c-4.143 0-7.5-3.358-7.5-7.5s3.357-7.5 7.5-7.5h47.105c4.143 0 7.5 3.358 7.5 7.5s-3.358 7.5-7.5 7.5z" fill="#2115c2"/></g><g><path d="m336.002 175.364c-4.143 0-7.5-3.358-7.5-7.5v-52.497c0-4.142 3.357-7.5 7.5-7.5s7.5 3.358 7.5 7.5v52.497c0 4.142-3.357 7.5-7.5 7.5z" fill="#2115c2"/></g><g><path d="m336.002 291.228c-4.143 0-7.5-3.358-7.5-7.5v-52.497c0-4.142 3.357-7.5 7.5-7.5s7.5 3.358 7.5 7.5v52.497c0 4.142-3.357 7.5-7.5 7.5z" fill="#2115c2"/></g><g><path d="m336.002 407.092c-4.143 0-7.5-3.358-7.5-7.5v-52.497c0-4.142 3.357-7.5 7.5-7.5s7.5 3.358 7.5 7.5v52.497c0 4.142-3.357 7.5-7.5 7.5z" fill="#2115c2"/></g><g><path d="m304.465 435.819h-47.4c-4.143 0-7.5-3.358-7.5-7.5s3.357-7.5 7.5-7.5h47.4c4.143 0 7.5 3.358 7.5 7.5s-3.357 7.5-7.5 7.5z" fill="#2115c2"/></g><g><path d="m193.992 435.819h-47.4c-4.143 0-7.5-3.358-7.5-7.5s3.357-7.5 7.5-7.5h47.4c4.143 0 7.5 3.358 7.5 7.5s-3.358 7.5-7.5 7.5z" fill="#2115c2"/></g><g><path d="m115.05 407.092c-4.143 0-7.5-3.358-7.5-7.5v-52.497c0-4.142 3.357-7.5 7.5-7.5s7.502 3.358 7.502 7.5c0 .058-.001.115-.002.173v52.324c0 4.142-3.357 7.5-7.5 7.5z" fill="#2115c2"/></g><g><path d="m115.054 291.228c-4.143 0-7.504-3.358-7.504-7.5v-52.497c0-4.142 3.357-7.5 7.5-7.5s7.502 3.358 7.502 7.5c0 .058-.001.115-.002.173v52.152c.001.057.002.115.002.172 0 4.142-3.355 7.5-7.498 7.5z" fill="#2115c2"/></g><g><path d="m115.054 175.364c-4.143 0-7.504-3.358-7.504-7.5v-52.497c0-4.142 3.357-7.5 7.5-7.5s7.502 3.358 7.502 7.5c0 .058-.001.115-.002.173v52.152c.001.057.002.115.002.172 0 4.142-3.355 7.5-7.498 7.5z" fill="#2115c2"/></g><g><path d="m115.054 120.867c-20.503 0-37.184-16.681-37.184-37.184s16.681-37.183 37.184-37.183 37.184 16.681 37.184 37.184-16.681 37.183-37.184 37.183zm0-59.367c-12.232 0-22.184 9.952-22.184 22.184s9.951 22.184 22.184 22.184 22.184-9.952 22.184-22.184-9.951-22.184-22.184-22.184z" fill="#f90"/></g><g><path d="m115.054 236.731c-20.503 0-37.184-16.681-37.184-37.184s16.681-37.184 37.184-37.184 37.184 16.681 37.184 37.184-16.681 37.184-37.184 37.184zm0-59.367c-12.232 0-22.184 9.952-22.184 22.184s9.951 22.184 22.184 22.184 22.184-9.952 22.184-22.184-9.951-22.184-22.184-22.184z" fill="#f90"/></g><g><path d="m115.054 352.595c-20.503 0-37.184-16.681-37.184-37.184s16.681-37.184 37.184-37.184 37.184 16.681 37.184 37.184-16.681 37.184-37.184 37.184zm0-59.367c-12.232 0-22.184 9.952-22.184 22.184s9.951 22.184 22.184 22.184 22.184-9.952 22.184-22.184-9.951-22.184-22.184-22.184z" fill="#f90"/></g><g><path d="m115.054 468.459c-20.503 0-37.184-16.681-37.184-37.184s16.681-37.184 37.184-37.184 37.184 16.681 37.184 37.184c0 20.504-16.681 37.184-37.184 37.184zm0-59.367c-12.232 0-22.184 9.952-22.184 22.184s9.951 22.184 22.184 22.184 22.184-9.952 22.184-22.184c0-12.233-9.951-22.184-22.184-22.184z" fill="#f90"/></g><g><path d="m225.528 468.459c-20.503 0-37.184-16.681-37.184-37.184s16.681-37.184 37.184-37.184c20.504 0 37.185 16.681 37.185 37.184-.001 20.504-16.681 37.184-37.185 37.184zm0-59.367c-12.232 0-22.184 9.952-22.184 22.184s9.951 22.184 22.184 22.184 22.185-9.952 22.185-22.184c-.001-12.233-9.953-22.184-22.185-22.184z" fill="#f90"/></g><g><path d="m336.002 468.459c-20.504 0-37.185-16.681-37.185-37.184s16.681-37.184 37.185-37.184c20.503 0 37.184 16.681 37.184 37.184 0 20.504-16.681 37.184-37.184 37.184zm0-59.367c-12.232 0-22.185 9.952-22.185 22.184s9.952 22.184 22.185 22.184 22.184-9.952 22.184-22.184c0-12.233-9.951-22.184-22.184-22.184z" fill="#f90"/></g><g><path d="m336.002 236.731c-20.504 0-37.185-16.681-37.185-37.184s16.681-37.184 37.185-37.184c20.503 0 37.184 16.681 37.184 37.184s-16.681 37.184-37.184 37.184zm0-59.367c-12.232 0-22.185 9.952-22.185 22.184s9.952 22.184 22.185 22.184 22.184-9.952 22.184-22.184-9.951-22.184-22.184-22.184z" fill="#f90"/></g><g><path d="m336.002 120.867c-20.504 0-37.185-16.681-37.185-37.184s16.682-37.183 37.185-37.183 37.184 16.681 37.184 37.184-16.681 37.183-37.184 37.183zm0-59.367c-12.232 0-22.185 9.952-22.185 22.184s9.952 22.184 22.185 22.184 22.184-9.952 22.184-22.184-9.951-22.184-22.184-22.184z" fill="#f90"/></g><g><path d="m225.528 120.867c-20.503 0-37.184-16.681-37.184-37.184s16.681-37.183 37.184-37.183c20.504 0 37.185 16.681 37.185 37.184s-16.681 37.183-37.185 37.183zm0-59.367c-12.232 0-22.184 9.952-22.184 22.184s9.951 22.184 22.184 22.184 22.185-9.952 22.185-22.184-9.953-22.184-22.185-22.184z" fill="#f90"/></g><g><path d="m336.002 352.595c-20.504 0-37.185-16.681-37.185-37.184s16.681-37.184 37.185-37.184c20.503 0 37.184 16.681 37.184 37.184s-16.681 37.184-37.184 37.184zm0-59.367c-12.232 0-22.185 9.952-22.185 22.184s9.952 22.184 22.185 22.184 22.184-9.952 22.184-22.184-9.951-22.184-22.184-22.184z" fill="#f90"/></g></g></svg>