<svg id="Capa_1" enable-background="new 0 0 512 512" height="512" viewBox="0 0 512 512" width="512" xmlns="http://www.w3.org/2000/svg"><g><path d="m256.596 7.501c-72.925-.323-132.404 58.698-132.825 131.452-.092 15.974 12.905 29.79 28.879 29.944 16.24.156 29.454-12.962 29.454-29.166 0-42.079 35.353-76.055 77.916-73.789 37.464 1.995 67.774 32.305 69.769 69.769 2.267 42.564-31.71 77.916-73.788 77.916h-53.402c-43.536 0-78.83 35.293-78.83 78.83v70.398c0 25.83 20.94 46.77 46.77 46.77h170.922c25.83 0 46.77-20.94 46.77-46.77v-221.795c0-73.014-58.621-133.235-131.635-133.559z" fill="#ddbeff"/><path d="m328.799 293.855c-2.153-34.511-41.929-53.362-72.8-29.366-30.85-23.978-70.644-5.162-72.797 29.366-.833 13.346 4.13 27.51 14.346 40.958 11.439 15.056 29.202 29.096 52.793 41.735 3.543 1.898 7.773 1.901 11.316 0 23.594-12.639 41.354-26.68 52.793-41.735 10.219-13.448 15.179-27.612 14.349-40.958z" fill="#ff63ed"/><path d="m177.467 409.625v47.764h-15.764c-13.009 0-23.556 10.546-23.556 23.556 0 13.009 10.546 23.556 23.556 23.556h39.32c13.009 0 23.556-10.546 23.556-23.556v-71.32z" fill="#88f8d8"/><path d="m287.098 409.625v47.764h-15.764c-13.009 0-23.556 10.546-23.556 23.556 0 13.009 10.546 23.556 23.556 23.556h39.32c13.009 0 23.556-10.546 23.556-23.556v-71.32z" fill="#88f8d8"/><g><path d="m328.799 293.855c-2.153-34.511-41.929-53.362-72.8-29.366-30.85-23.978-70.644-5.162-72.797 29.366-.833 13.346 4.13 27.51 14.346 40.958 11.439 15.056 29.202 29.096 52.793 41.735 3.543 1.898 7.773 1.901 11.316 0 23.594-12.639 41.354-26.68 52.793-41.735 10.219-13.448 15.179-27.612 14.349-40.958z" style="fill:none;stroke:#e207b9;stroke-width:15;stroke-linecap:round;stroke-linejoin:round;stroke-miterlimit:10"/></g><g><path d="m201.023 512h-39.32c-17.124 0-31.056-13.932-31.056-31.056s13.932-31.056 31.056-31.056h8.265v-37.264c0-4.142 3.357-7.5 7.5-7.5s7.5 3.358 7.5 7.5v44.764c0 4.142-3.357 7.5-7.5 7.5h-15.765c-8.854 0-16.056 7.203-16.056 16.056s7.202 16.056 16.056 16.056h39.32c8.854 0 16.056-7.203 16.056-16.056v-68.32c0-4.142 3.357-7.5 7.5-7.5s7.5 3.358 7.5 7.5v68.32c0 17.124-13.932 31.056-31.056 31.056z" fill="#007ea8"/></g><path d="m177.467 409.625h47.112v29.853h-47.112z" fill="#007ea8"/><path d="m287.098 409.625h47.112v29.853h-47.112z" fill="#007ea8"/><g><path d="m310.654 512h-39.32c-17.124 0-31.056-13.932-31.056-31.056s13.932-31.056 31.056-31.056h8.265v-37.264c0-4.142 3.357-7.5 7.5-7.5s7.5 3.358 7.5 7.5v44.764c0 4.142-3.357 7.5-7.5 7.5h-15.765c-8.854 0-16.056 7.203-16.056 16.056s7.202 16.056 16.055 16.056h39.32c8.854 0 16.056-7.203 16.056-16.056v-68.32c0-4.142 3.357-7.5 7.5-7.5s7.5 3.358 7.5 7.5v68.32c0 17.124-13.931 31.056-31.055 31.056z" fill="#007ea8"/></g><g><path d="m341.461 417.125h-170.921c-29.925 0-54.271-24.345-54.271-54.27v-70.398c0-47.602 38.728-86.33 86.33-86.33h53.401c18.376 0 35.482-7.369 48.17-20.75 12.671-13.364 19.11-30.861 18.13-49.268-.867-16.268-7.756-31.639-19.398-43.281-11.643-11.643-27.013-18.531-43.28-19.397-18.414-.981-35.904 5.459-49.269 18.13-13.38 12.687-20.749 29.793-20.749 48.169 0 9.861-3.858 19.113-10.865 26.053-6.919 6.853-16.068 10.615-25.798 10.615-.12 0-.241 0-.362-.002-19.797-.19-36.424-17.357-36.307-37.487.444-76.723 63.07-138.909 139.729-138.909.211 0 .417 0 .628.001 76.701.34 139.102 63.619 139.102 141.059v221.794c0 29.925-24.345 54.271-54.27 54.271zm-138.862-195.998c-39.332 0-71.33 31.999-71.33 71.33v70.398c0 21.653 17.616 39.27 39.271 39.27h170.922c21.653 0 39.27-17.617 39.27-39.27v-221.794c0-69.206-55.701-125.756-124.168-126.059-.186-.002-.377-.002-.562-.002-68.437 0-124.334 55.506-124.73 123.997-.07 12.03 9.753 22.289 21.451 22.401 5.851.026 11.321-2.171 15.46-6.271 4.141-4.101 6.421-9.568 6.421-15.395 0-22.534 9.031-43.506 25.429-59.054 16.382-15.533 37.833-23.426 60.386-22.224 19.971 1.063 38.825 9.504 53.09 23.769s22.707 33.119 23.771 53.09c1.201 22.559-6.691 44.004-22.224 60.386-15.548 16.398-36.521 25.429-59.055 25.429h-53.402z" fill="#6d00ca"/></g></g></svg>