<svg id="Capa_1" enable-background="new 0 0 512.031 512.031" height="512" viewBox="0 0 512.031 512.031" width="512" xmlns="http://www.w3.org/2000/svg"><g><path d="m175.08 387.596v64.52c-2.877 3.453-5.131 8.561-5.41 14-.103.31-.501 6.392 2.68 12.49-4.04 7.78-12.16 13.09-21.53 13.09h-40.5c-13.4 0-24.26-10.86-24.26-24.26s10.86-24.26 24.26-24.26h16.23v-55.58z" fill="#ffff6f"/><path d="m258.65 387.596v79.84c0 13.4-10.86 24.26-24.26 24.26h-40.5c-13.456 0-24.26-10.918-24.26-24.26 0-.159.012-1.236.04-1.32.711-13.85 12.22-22.94 24.22-22.94h16.24v-55.58z" fill="#ffff6f"/><g><path d="m150.82 499.196h-40.5c-17.513 0-31.76-14.248-31.76-31.76 0-17.513 14.247-31.76 31.76-31.76h8.729v-45.08c0-4.142 3.357-7.5 7.5-7.5s7.5 3.358 7.5 7.5v52.58c0 4.142-3.357 7.5-7.5 7.5h-16.229c-9.241 0-16.76 7.519-16.76 16.76s7.519 16.76 16.76 16.76h40.5c5.169 0 9.946-2.35 13.09-6.296-1.648-4.779-1.972-9.365-1.717-12.167l-.014-.001c.293-5.694 2.23-11.418 5.4-16.103v-59.032c0-4.142 3.357-7.5 7.5-7.5s7.5 3.358 7.5 7.5v61.52c0 1.754-.615 3.453-1.738 4.801-1.644 1.972-3.474 5.525-3.682 9.583-.011.208-.03.414-.058.62-.02.66-.028 4.326 1.897 8.017 1.132 2.169 1.135 4.754.007 6.926-5.486 10.567-16.287 17.132-28.185 17.132zm25.966-30.711c-.001.002-.002.004-.002.006 0-.002.001-.004.002-.006zm.002-.007c0 .001-.001.003-.001.004 0-.001.001-.002.001-.004z" fill="#f95116"/></g><g><path d="m234.39 499.196h-40.5c-17.513 0-31.76-14.248-31.76-31.76 0-.796.013-1.416.064-1.961.992-16.731 14.865-29.799 31.695-29.799h8.74v-45.08c0-4.142 3.357-7.5 7.5-7.5s7.5 3.358 7.5 7.5v52.58c0 4.142-3.357 7.5-7.5 7.5h-16.24c-7.824 0-16.221 5.919-16.729 15.824-.005.095-.012.19-.021.285-.007.239-.01.566-.01.659 0 9.233 7.519 16.751 16.76 16.751h40.5c9.242 0 16.761-7.519 16.761-16.76v-76.84c0-4.142 3.357-7.5 7.5-7.5s7.5 3.358 7.5 7.5v76.84c0 17.514-14.248 31.761-31.76 31.761zm-57.607-30.702c-.001.002-.002.004-.002.006 0-.002.001-.004.002-.006zm.002-.008c0 .002-.001.003-.001.005 0-.001.001-.003.001-.005zm.003-.007c-.001.002-.001.004-.002.006.001-.002.001-.004.002-.006z" fill="#f95116"/></g><path d="m126.55 387.596h48.53v30h-48.53z" fill="#f95116"/><path d="m210.13 387.596h48.52v30h-48.52z" fill="#f95116"/><path d="m480.759 197.457c-17.8-13.83-43.43-10.66-57.31 7.1l-13.716 17.544c-7.014 8.972-19.975 10.574-28.939 3.55-19.379-15.184-57.198-39.595-114.935-54.943l-11.11 56.12c-5.64 28.44-30.59 48.94-59.58 48.94h-110.079c-14.99 0-29.37 4.1-41.8 11.49-12.43 7.38-22.89 18.06-30.05 31.23-3.94 7.25-5.74 14.87-5.74 22.29 0 24.48 19.62 46.82 46.84 46.82h209.01l-24.39-32.51c-8.66-11.56-.42-28.05 14.03-28.05h89.8c6.32 0 12.16 3.4 15.27 8.9l12.48 22.06c5.36 9.48 7.37 19.57 6.67 29.23 44.4-3.42 83.75-30.84 102.14-71.95l19.79-44.24c11.559-25.841 3.969-56.221-18.381-73.581z" fill="#a4bcff"/><path d="m370.538 357.998-12.481-22.063c-3.112-5.5-8.943-8.901-15.262-8.901h-89.801c-14.45 0-22.698 16.496-14.028 28.056l44.761 59.681c9.815 13.087 25.219 20.789 41.577 20.789 39.804 0 64.833-42.916 45.234-77.562z" fill="#7181ff"/><g fill="#88f8d8"><path d="m265.86 170.707-11.11 56.12c-5.64 28.44-30.59 48.94-59.58 48.94h-110.08l28.7-50.22c26.45-46.29 79.7-70.62 131.87-59.65 6.99 1.47 13.72 3.08 20.2 4.81z"/><circle cx="299.414" cy="278.857" r="19.833"/><circle cx="375.66" cy="278.857" r="19.833"/></g><path d="m182.973 68.566c-2.586-41.448-50.357-64.089-87.434-35.27-37.052-28.798-84.845-6.2-87.43 35.27-1 16.028 4.96 33.04 17.23 49.191 13.739 18.082 35.072 34.945 63.405 50.125 4.255 2.279 9.335 2.283 13.591 0 28.337-15.179 49.667-32.043 63.405-50.125 12.273-16.152 18.23-33.163 17.233-49.191z" fill="#ff9bff"/><circle cx="169.659" cy="323.67" fill="#2115c2" r="10.087"/><g><path d="m143.477 358.357h-42.718c-4.143 0-7.5-3.358-7.5-7.5s3.357-7.5 7.5-7.5h42.718c4.143 0 7.5 3.358 7.5 7.5s-3.358 7.5-7.5 7.5z" fill="#2115c2"/></g><circle cx="74.576" cy="323.67" fill="#2115c2" r="10.087"/><path d="m485.36 191.535c-21.013-16.327-51.438-12.559-67.819 8.403l-13.716 17.543c-4.462 5.706-12.695 6.741-18.405 2.265-22.045-17.273-60.349-41.06-117.634-56.288-4.007-1.066-8.111 1.318-9.175 5.321s1.318 8.111 5.321 9.175c57.717 15.343 95.093 40.167 112.235 53.599 12.192 9.552 29.868 7.455 39.474-4.834l13.717-17.545c11.304-14.462 32.296-17.063 46.8-5.795 19.677 15.283 26.312 41.845 16.134 64.594l-19.788 44.24c-16.084 35.953-49.278 60.92-87.841 66.632-.717-8.763-3.4-17.08-7.528-24.415-.024-.042-.044-.085-.068-.127l-12.479-22.059c-4.367-7.722-12.653-12.711-21.794-12.711h-89.801c-20.322 0-32.569 23.319-20.032 40.054 1.579 2.105-5.698-7.597 15.384 20.509h-194.005c-21.692 0-39.34-17.639-39.34-39.32 0-19.178 16.314-37.687 32.123-47.073 11.483-6.828 24.612-10.437 37.967-10.437 4.143 0 7.5-3.358 7.5-7.5s-3.357-7.5-7.5-7.5c-16.051 0-31.831 4.337-45.629 12.541-20.502 12.173-39.461 35.201-39.461 59.97 0 29.952 24.377 54.32 54.34 54.32h205.255l18.131 24.174c11.171 14.896 28.957 23.789 47.577 23.789 30.019 0 53.615-21.608 58.606-48.99 44.861-5.597 83.691-34.162 102.288-75.73l19.788-44.24c13.008-29.078 4.527-63.03-20.625-82.565zm-160.057 236.524c-13.924 0-27.224-6.65-35.577-17.789-12.664-16.895-39.259-52.347-44.761-59.681-5.013-6.685-.166-16.053 8.024-16.053h89.8c3.75 0 7.068 2.135 8.739 5.091l12.481 22.063h.001c16.766 29.631-4.617 66.369-38.707 66.369z" fill="#2115c2"/><g><path d="m195.17 283.267h-110.08c-2.674 0-5.146-1.423-6.487-3.736s-1.351-5.164-.024-7.485l28.7-50.22c13.787-24.128 34.433-42.942 59.703-54.406 25.354-11.501 53.092-14.566 80.222-8.862 6.961 1.464 13.889 3.114 20.591 4.903 3.818 1.019 6.19 4.826 5.423 8.703l-11.109 56.12c-6.321 31.86-34.472 54.983-66.939 54.983zm-97.155-15h97.155c25.33 0 47.293-18.042 52.224-42.898l9.731-49.161c-4.287-1.058-8.641-2.052-13.009-2.971-49.012-10.306-98.775 12.21-123.814 56.031z" fill="#007ea8"/></g><g><path d="m299.414 306.19c-15.071 0-27.333-12.261-27.333-27.333s12.262-27.333 27.333-27.333 27.333 12.262 27.333 27.333-12.262 27.333-27.333 27.333zm0-39.666c-6.801 0-12.333 5.533-12.333 12.333s5.532 12.333 12.333 12.333 12.333-5.532 12.333-12.333-5.532-12.333-12.333-12.333z" fill="#007ea8"/></g><g><path d="m375.66 306.19c-15.071 0-27.333-12.261-27.333-27.333s12.262-27.333 27.333-27.333 27.333 12.262 27.333 27.333-12.262 27.333-27.333 27.333zm0-39.666c-6.801 0-12.333 5.533-12.333 12.333s5.532 12.333 12.333 12.333 12.333-5.532 12.333-12.333-5.532-12.333-12.333-12.333z" fill="#007ea8"/></g><path d="m190.458 68.101v-.001c-1.387-22.222-14.198-40.896-34.272-49.954-19.531-8.813-41.826-6.535-60.647 5.933-18.824-12.467-41.121-14.742-60.653-5.927-20.069 9.057-32.877 27.728-34.263 49.946v.001c-1.114 17.847 5.366 36.587 18.742 54.195.002.003.005.006.007.009 14.392 18.939 36.539 36.499 65.829 52.191 6.465 3.462 14.184 3.473 20.661.006.004-.002.009-.004.013-.006 29.288-15.689 51.437-33.25 65.83-52.193.001-.002.003-.004.005-.006 13.376-17.601 19.858-36.342 18.748-54.194zm-91.666 93.169c-.001.001-.003.002-.004.003-2.032 1.09-4.463 1.09-6.503-.002-27.378-14.668-47.891-30.833-60.97-48.045-.001-.002-.002-.004-.004-.006-11.169-14.703-16.604-29.982-15.717-44.187 1.033-16.57 10.552-30.479 25.462-37.208 15.994-7.217 34.64-4.452 49.881 7.394 2.642 2.069 6.476 2.118 9.205 0 15.241-11.847 33.885-14.615 49.875-7.4 14.915 6.73 24.437 20.642 25.471 37.215.883 14.211-4.552 29.49-15.72 44.186-.001.001-.001.002-.002.004-13.083 17.215-33.597 33.381-60.974 48.046z" fill="#e207b9"/></g></svg>