<svg id="Capa_1" enable-background="new 0 0 512 512" height="512" viewBox="0 0 512 512" width="512" xmlns="http://www.w3.org/2000/svg"><g><path d="m434.822 191.89h-357.645c-38.482 0-69.677 31.196-69.677 69.677v157.582c0 38.482 31.196 69.677 69.677 69.677h357.646c38.482 0 69.677-31.196 69.677-69.677v-157.582c0-38.481-31.196-69.677-69.678-69.677z" fill="#ffceff"/><g fill="#b98eff"><path d="m291.023 65.579c-2.734 14.292-13.992 25.55-28.284 28.285l98.026 98.026h56.569z"/><path d="m220.976 65.58-126.31 126.31h56.568l98.026-98.026c-14.291-2.734-25.549-13.992-28.284-28.284z"/></g><circle cx="256" cy="58.841" fill="#ff63ed" r="35.668"/><g><g><path d="m414.497 196.554c-1.92 0-3.839-.732-5.304-2.197l-121.754-121.754c-2.929-2.929-2.929-7.678 0-10.606 2.931-2.93 7.679-2.929 10.607 0l121.754 121.755c2.929 2.929 2.929 7.678 0 10.606-1.464 1.464-3.384 2.196-5.303 2.196z" fill="#6d00ca"/></g><g><path d="m357.929 196.554c-1.92 0-3.839-.732-5.304-2.197l-93.47-93.471c-2.929-2.929-2.929-7.678 0-10.606 2.931-2.93 7.679-2.929 10.607 0l93.47 93.471c2.929 2.929 2.929 7.678 0 10.606-1.464 1.465-3.384 2.197-5.303 2.197z" fill="#6d00ca"/></g><g><path d="m153.462 197.162c-1.92 0-3.839-.732-5.304-2.197-2.929-2.929-2.929-7.678 0-10.606l93.952-93.952c2.931-2.93 7.679-2.928 10.607 0 2.929 2.929 2.929 7.678 0 10.606l-93.952 93.952c-1.464 1.465-3.384 2.197-5.303 2.197z" fill="#6d00ca"/></g><g><path d="m96.894 197.162c-1.92 0-3.839-.732-5.304-2.197-2.929-2.929-2.929-7.678 0-10.606l122.363-122.363c2.93-2.93 7.678-2.929 10.607 0s2.929 7.678 0 10.606l-122.363 122.364c-1.465 1.464-3.384 2.196-5.303 2.196z" fill="#6d00ca"/></g></g><g><path d="m256 102.008c-23.803 0-43.168-19.365-43.168-43.167s19.365-43.168 43.168-43.168 43.167 19.365 43.167 43.167-19.364 43.168-43.167 43.168zm0-71.335c-15.532 0-28.168 12.636-28.168 28.167s12.636 28.168 28.168 28.168c15.531 0 28.167-12.636 28.167-28.167s-12.636-28.168-28.167-28.168z" fill="#e207b9"/></g><g fill="#e207b9"><path d="m159.769 309.12v-60.044c0-4.142-3.357-7.5-7.5-7.5s-7.5 3.358-7.5 7.5v60.044c0 2.864-1.482 5.466-3.868 6.791-4.578 2.541-9.526-2.094-9.821-2.377-2.925-2.894-7.639-2.894-10.562.012-2.938 2.919-2.953 7.668-.034 10.606 7.071 7.114 18.104 10.2 27.696 4.875 7.148-3.969 11.589-11.597 11.589-19.907z"/><path d="m305.711 280.195c-9.534-3.517-18.388-7.354-20.771-8.399-2.11-1.584-3.13-4.089-2.741-6.797.503-3.509 3.233-6.335 7.301-7.561 11.631-3.501 22.208 4.957 22.42 5.129 3.172 2.636 7.88 2.219 10.536-.941 2.665-3.17 2.256-7.901-.915-10.567-.678-.568-16.813-13.871-36.367-7.983-9.659 2.91-16.488 10.494-17.822 19.792-1.246 8.679 2.514 17.026 9.813 21.784.331.216.679.405 1.04.566.433.193 10.723 4.773 22.315 9.05 7.905 2.916 11.936 7.412 11.057 12.334-.887 4.965-6.733 10.1-14.984 10.1-7.992 0-15.701-3.242-20.622-8.672-2.781-3.069-7.524-3.303-10.594-.521s-3.303 7.524-.521 10.594c7.717 8.516 19.581 13.6 31.737 13.6 14.674 0 27.464-9.657 29.751-22.464 1.734-9.722-2.774-22.456-20.633-29.044z"/><path d="m213.713 331.702h.055c16.589 0 34.025-12.031 34.025-30.985v-51.64c0-4.142-3.357-7.5-7.5-7.5s-7.5 3.358-7.5 7.5v51.64c0 9.797-10.29 16.114-19.059 15.985-8.439-.011-18.144-6.296-18.144-15.931v-51.694c0-4.142-3.357-7.5-7.5-7.5s-7.5 3.358-7.5 7.5v51.694c.001 18.597 16.982 30.91 33.123 30.931z"/><path d="m357.867 324.202c0 4.142 3.357 7.5 7.5 7.5s7.5-3.358 7.5-7.5v-67.625h13.328c4.143 0 7.5-3.358 7.5-7.5s-3.357-7.5-7.5-7.5h-41.489c-4.143 0-7.5 3.358-7.5 7.5s3.357 7.5 7.5 7.5h13.161z"/><path d="m178.05 363.321c-.025-.069-.053-.138-.081-.206-1.368-3.327-4.575-5.475-8.172-5.475-.003 0-.006 0-.009 0-3.6.003-6.807 2.158-8.171 5.49-.022.057-.046.114-.067.172l-22.156 58.174c-1.475 3.871.469 8.204 4.34 9.678 3.864 1.475 8.203-.468 9.678-4.339l3.678-9.658h25.246l3.637 9.636c1.467 3.888 5.801 5.827 9.665 4.369 3.875-1.462 5.831-5.79 4.368-9.665zm-15.248 38.836 6.967-18.294 6.904 18.294z"/><path d="m120.214 364.71c-.8-3.928-4.154-6.83-8.156-7.056-4.014-.218-7.664 2.279-8.9 6.092-.027.086-.054.172-.079.259l-10.451 36.665-10.84-36.74c-.026-.089-.055-.178-.084-.267-1.278-3.802-4.959-6.282-8.965-6-4.001.269-7.324 3.207-8.098 7.229l-10.371 57.46c-.735 4.076 1.973 7.977 6.049 8.713 4.069.734 7.978-1.972 8.713-6.049l5.746-31.838 9.494 32.18c.026.089.055.178.084.267 1.212 3.606 4.572 6.02 8.372 6.02h.047c3.819-.02 7.177-2.474 8.355-6.107.028-.086.054-.172.079-.258l9.165-32.152 6.109 31.965c.778 4.07 4.71 6.737 8.774 5.959 4.068-.777 6.736-4.706 5.958-8.774z"/><path d="m332.368 357.64c-4.143 0-7.5 3.358-7.5 7.5v59.005c0 4.142 3.357 7.5 7.5 7.5s7.5-3.358 7.5-7.5v-59.005c0-4.142-3.357-7.5-7.5-7.5z"/><path d="m386.534 373.179c4.143 0 7.5-3.358 7.5-7.5s-3.357-7.5-7.5-7.5h-24.636c-4.143 0-7.5 3.358-7.5 7.5v58.467c0 4.142 3.357 7.5 7.5 7.5h24.636c4.143 0 7.5-3.358 7.5-7.5s-3.357-7.5-7.5-7.5h-17.136v-14.233h15.318c4.143 0 7.5-3.358 7.5-7.5s-3.357-7.5-7.5-7.5h-15.318v-14.233h17.136z"/><path d="m427.226 359.385h-16.217c-4.145 0-7.508 3.367-7.5 7.514v.044.002 56.271c0 5.335 3.581 8.43 7.615 8.43h.028c.49-.002 12.057-.046 16.679-.127 17.394-.304 30.018-15.445 30.018-36.003 0-21.611-12.307-36.131-30.623-36.131zm.342 57.136c-2.066.037-5.663.065-8.97.086-.021-6.749-.049-16.318-.049-21.154 0-4.047-.016-14.043-.027-21.067h8.703c14.496 0 15.623 16.173 15.623 21.13.001 14.326-7.673 20.872-15.28 21.005z"/><path d="m256.986 380.475c0-12.591-10.633-22.835-23.702-22.835h-15.681c-.003 0-.006 0-.009 0s-.006 0-.009 0c-4.143 0-7.5 3.358-7.5 7.5v59.005c0 4.142 3.357 7.5 7.5 7.5s7.5-3.358 7.5-7.5v-16.373l18.771 21.328c2.74 3.113 7.48 3.408 10.585.675 3.109-2.736 3.411-7.476.675-10.585l-14.864-16.889c9.679-2.873 16.734-11.57 16.734-21.826zm-23.702 7.835c-1.899 0-5.102.013-8.114.027-.015-2.935-.027-6.032-.027-7.862 0-1.559-.008-4.757-.017-7.835h8.158c4.717 0 8.702 3.588 8.702 7.835s-3.985 7.835-8.702 7.835z"/><path d="m314.384 380.475c0-12.591-10.633-22.835-23.703-22.835h-15.68c-.003 0-.006 0-.009 0s-.006 0-.009 0c-4.143 0-7.5 3.358-7.5 7.5v59.005c0 4.142 3.357 7.5 7.5 7.5s7.5-3.358 7.5-7.5v-16.373l18.771 21.328c2.74 3.113 7.48 3.408 10.585.675 3.109-2.736 3.411-7.476.675-10.585l-14.864-16.889c9.679-2.873 16.734-11.57 16.734-21.826zm-23.703 7.835c-1.899 0-5.101.013-8.113.027-.015-2.935-.027-6.032-.027-7.862 0-1.559-.008-4.757-.017-7.835h8.157c4.718 0 8.703 3.588 8.703 7.835s-3.986 7.835-8.703 7.835z"/></g><g><path d="m434.822 496.327h-357.645c-42.556 0-77.177-34.622-77.177-77.177v-157.582c0-42.556 34.621-77.177 77.177-77.177h357.646c42.556 0 77.178 34.622 77.178 77.177v157.582c-.001 42.555-34.623 77.177-77.179 77.177zm-357.645-296.937c-34.284 0-62.177 27.893-62.177 62.178v157.582c0 34.285 27.893 62.177 62.177 62.177h357.646c34.285 0 62.178-27.893 62.178-62.177v-157.582c0-34.285-27.893-62.177-62.178-62.177h-357.646z" fill="#e207b9"/></g></g></svg>