<svg id="Capa_1" enable-background="new 0 0 512 512" height="512" viewBox="0 0 512 512" width="512" xmlns="http://www.w3.org/2000/svg"><g><path d="m208.793 210.281c10.761-3.42 22.222-5.272 34.116-5.272s23.354 1.851 34.116 5.272c10.145-9.259 16.512-22.588 16.512-37.405 0-27.961-22.667-50.628-50.628-50.628s-50.628 22.667-50.628 50.628c-.001 14.817 6.366 28.146 16.512 37.405z" fill="#a4bcff"/><path d="m182.272 305.282c5.682-28.311 30.652-49.645 60.636-49.645s54.954 21.334 60.636 49.645h51.204c-6.101-56.38-53.838-100.273-111.84-100.273s-105.739 43.893-111.84 100.273z" fill="#ffff6f"/><g><path d="m242.908 80.391c-9.748 0-17.651-7.902-17.651-17.651v-37.59c0-9.748 7.902-17.651 17.651-17.651 9.748 0 17.651 7.902 17.651 17.651v37.59c0 9.748-7.902 17.651-17.651 17.651z" fill="#a4bcff"/></g><path d="m154.79 81.842-26.58-26.58c-6.893-6.893-18.069-6.893-24.962 0s-6.893 18.069 0 24.962l26.58 26.58c6.893 6.893 18.069 6.893 24.962 0s6.893-18.068 0-24.962z" fill="#a4bcff"/><path d="m331.027 81.842 26.58-26.58c6.893-6.893 18.069-6.893 24.962 0s6.893 18.069 0 24.962l-26.58 26.58c-6.893 6.893-18.069 6.893-24.962 0s-6.893-18.068 0-24.962z" fill="#a4bcff"/><g><path d="m206.869 215.931c-1.936 0-3.871-.745-5.339-2.232-10.802-10.946-16.75-25.444-16.75-40.822 0-32.052 26.076-58.128 58.128-58.128s58.128 26.076 58.128 58.128c0 15.199-5.83 29.576-16.416 40.482-2.885 2.971-7.633 3.043-10.605.157-2.973-2.885-3.043-7.633-.158-10.605 7.854-8.091 12.18-18.758 12.18-30.034 0-23.781-19.347-43.128-43.128-43.128s-43.128 19.347-43.128 43.128c0 11.409 4.413 22.166 12.428 30.287 2.909 2.949 2.877 7.697-.071 10.606-1.462 1.441-3.366 2.161-5.269 2.161z" fill="#2115c2"/></g><g><path d="m130.484 308.911c-4.101-.585-6.95-4.384-6.365-8.484 4.043-28.326 18.188-54.35 39.828-73.277 21.854-19.114 49.896-29.64 78.961-29.64 28.759 0 56.576 10.331 78.326 29.089 21.52 18.558 35.797 44.159 40.201 72.087.646 4.091-2.148 7.932-6.24 8.577-4.091.648-7.931-2.149-8.576-6.24-3.853-24.426-16.347-46.823-35.181-63.065-19.028-16.41-43.366-25.448-68.53-25.448-25.432 0-49.967 9.209-69.086 25.931-18.939 16.566-31.318 39.333-34.854 64.106-.582 4.079-4.362 6.952-8.484 6.364z" fill="#f90"/></g><g><path d="m181.226 308.702c-4.001-1.072-6.375-5.185-5.303-9.186 8.108-30.251 35.653-51.378 66.985-51.378 31.073 0 58.559 20.909 66.841 50.847 1.104 3.992-1.236 8.124-5.229 9.228-3.997 1.105-8.124-1.237-9.229-5.229-6.49-23.46-28.031-39.846-52.384-39.846-24.556 0-46.143 16.556-52.497 40.262-1.072 4.004-5.187 6.373-9.184 5.302z" fill="#f90"/></g><g><g><path d="m242.908 87.891c-13.868 0-25.15-11.283-25.15-25.151v-37.59c0-13.868 11.282-25.15 25.15-25.15s25.15 11.282 25.15 25.15v37.59c.001 13.868-11.282 25.151-25.15 25.151zm0-72.891c-5.597 0-10.15 4.553-10.15 10.15v37.59c0 5.597 4.554 10.151 10.15 10.151s10.15-4.554 10.15-10.151v-37.59c.001-5.597-4.553-10.15-10.15-10.15z" fill="#2115c2"/></g></g><g><path d="m124.524 112.107-26.58-26.58c-9.806-9.806-9.806-25.762 0-35.568 9.829-9.828 25.739-9.831 35.569 0l26.58 26.58c9.806 9.806 9.806 25.762 0 35.568-9.828 9.829-25.738 9.832-35.569 0zm-15.973-51.541c-3.957 3.957-3.957 10.397.001 14.355l26.58 26.58c3.967 3.967 10.386 3.967 14.355 0 3.957-3.958 3.957-10.397-.001-14.355l-26.58-26.58c-3.967-3.967-10.386-3.968-14.355 0z" fill="#2115c2"/></g><g><path d="m325.724 112.108c-9.807-9.807-9.807-25.763-.001-35.569l26.58-26.58c9.829-9.828 25.739-9.831 35.569 0 9.828 9.828 9.831 25.738-.001 35.569l-26.579 26.579c-9.828 9.829-25.738 9.831-35.568.001zm10.606-24.962c-3.958 3.958-3.958 10.397 0 14.355 3.967 3.967 10.387 3.967 14.354 0l26.58-26.58c3.966-3.965 3.969-10.387.001-14.355-3.969-3.968-10.387-3.968-14.356 0z" fill="#2115c2"/></g><path d="m475.85 349.843v110.105c0 24.609-19.953 44.551-44.561 44.551h-132.881c24.609 0 44.561-19.942 44.561-44.551v-110.105c0-24.619-19.953-44.561-44.561-44.561h132.881c24.609 0 44.561 19.942 44.561 44.561z" fill="#ff9bff"/><path d="m342.97 349.843v110.105c0 24.609-19.953 44.551-44.561 44.551h-217.698c-24.619 0-44.561-19.942-44.561-44.551v-110.105c0-24.619 19.942-44.561 44.561-44.561h217.698c24.608 0 44.561 19.942 44.561 44.561z" fill="#ff9bff"/><g fill="#e207b9"><circle cx="240.729" cy="395.362" r="10.857"/><circle cx="138.39" cy="395.362" r="10.857"/><g><path d="m212.549 417.124h-45.979c-4.143 0-7.5 3.358-7.5 7.5s3.357 7.5 7.5 7.5h45.979c4.143 0 7.5-3.358 7.5-7.5s-3.358-7.5-7.5-7.5z"/><path d="m431.289 297.782c-15.222 0-336.316 0-350.578 0-28.707 0-52.062 23.354-52.062 52.062v110.105c0 28.701 23.355 52.051 52.062 52.051h350.578c28.707 0 52.062-23.35 52.062-52.051v-110.106c0-28.707-23.355-52.061-52.062-52.061zm-387.64 162.167v-110.106c0-20.436 16.626-37.062 37.062-37.062h217.697c20.438 0 37.062 16.628 37.062 37.062v110.105c0 20.43-16.626 37.051-37.062 37.051h-217.697c-20.436.001-37.062-16.62-37.062-37.05zm424.702 0c0 20.43-16.626 37.051-37.062 37.051h-96.35c9.802-9.638 15.53-23.063 15.53-37.051v-110.106c0-14.162-5.831-27.52-15.533-37.062h96.353c20.436 0 37.062 16.626 37.062 37.062z"/></g></g></g></svg>