<svg id="Capa_1" enable-background="new 0 0 512 512" height="512" viewBox="0 0 512 512" width="512" xmlns="http://www.w3.org/2000/svg"><g><path d="m143.542 424.477c-10.862 0-19.668 8.806-19.668 19.668 0 10.862 8.806 19.668 19.668 19.668h105.803v-39.336z" fill="#9448f5"/><path d="m362.748 424.477c10.862 0 19.668 8.806 19.668 19.668 0 10.862-8.806 19.668-19.668 19.668h-69.812v-39.336z" fill="#9448f5"/><path d="m197.713 56.224h174.723v128.965h-174.723z" fill="#ddbeff"/><circle cx="333.482" cy="112.001" fill="#6d00ca" r="10.271"/><g><path d="m306.823 147.183h-43.496c-4.143 0-7.5-3.358-7.5-7.5s3.357-7.5 7.5-7.5h43.496c4.143 0 7.5 3.358 7.5 7.5s-3.358 7.5-7.5 7.5z" fill="#6d00ca"/></g><circle cx="236.668" cy="112.001" fill="#6d00ca" r="10.271"/><path d="m227.574 339.696c0-23.951 19.416-43.367 43.367-43.367h-155.565c-23.951 0-43.367 19.416-43.367 43.367 0 10.301 8.35 18.651 18.651 18.651h155.565c-10.3 0-18.651-8.35-18.651-18.651z" fill="#ffceff"/><path d="m270.941 296.329c-23.951 0-43.367 19.416-43.367 43.367 0 10.301 8.35 18.651 18.651 18.651h169.404v-62.018z" fill="#ff63ed"/><g fill="#b98eff"><path d="m249.345 358.347v132.308c0 7.646 6.198 13.845 13.845 13.845h15.503c7.646 0 13.845-6.198 13.845-13.845v-132.308z"/><path d="m123.874 444.145c0-7.336 4.025-13.723 9.979-17.103v-68.695h-43.193v132.308c0 7.646 6.198 13.845 13.845 13.845h15.503c7.646 0 13.845-6.198 13.845-13.845v-29.407c-5.954-3.38-9.979-9.766-9.979-17.103z"/><path d="m372.437 358.347v68.695c5.954 3.381 9.979 9.767 9.979 17.103 0 7.336-4.025 13.723-9.979 17.103v29.407c0 7.646 6.198 13.845 13.845 13.845h15.503c7.646 0 13.845-6.198 13.845-13.845v-132.308z"/><path d="m372.437 56.224h43.193v240.105h-43.193z"/><path d="m154.521 56.224h43.193v240.105h-43.193z"/></g><path d="m197.713 7.5h-43.193c-13.455 0-24.362 10.907-24.362 24.362 0 13.455 10.907 24.362 24.362 24.362h43.193c13.455 0 24.362-10.907 24.362-24.362 0-13.455-10.907-24.362-24.362-24.362z" fill="#ff63ed"/><path d="m415.629 7.5h-43.193c-13.455 0-24.362 10.907-24.362 24.362 0 13.455 10.907 24.362 24.362 24.362h43.193c13.455 0 24.362-10.907 24.362-24.362 0-13.455-10.907-24.362-24.362-24.362z" fill="#ff63ed"/><path d="m415.629 353.847c-4.143 0-7.5 3.358-7.5 7.5v129.308c0 3.499-2.847 6.345-6.345 6.345h-15.504c-3.498 0-6.344-2.846-6.344-6.345v-25.489c.535-.703 9.979-6.403 9.979-21.021 0-11.214-5.531-16.012-9.979-21.021v-61.777c0-4.142-3.357-7.5-7.5-7.5s-7.5 3.358-7.5 7.5v55.726c-.723-.058-1.452-.096-2.189-.096h-62.71v-55.63c0-4.142-3.357-7.5-7.5-7.5s-7.5 3.358-7.5 7.5v129.308c0 3.499-2.847 6.345-6.345 6.345h-15.502c-3.498 0-6.345-2.846-6.345-6.345 0-46.199 0-84.335 0-129.308 0-4.142-3.357-7.5-7.5-7.5s-7.5 3.358-7.5 7.5v55.63h-98.304c-.737 0-1.466.038-2.188.096v-55.726c0-4.142-3.357-7.5-7.5-7.5s-7.5 3.358-7.5 7.5v61.777c-6.294 5.155-9.979 12.882-9.979 21.021 0 7.997 3.585 15.783 9.979 21.021v25.489c0 3.499-2.847 6.345-6.345 6.345h-15.503c-3.498 0-6.345-2.846-6.345-6.345v-129.308c0-4.142-3.357-7.5-7.5-7.5s-7.5 3.358-7.5 7.5v129.308c0 11.77 9.575 21.345 21.345 21.345h15.503c11.77 0 21.345-9.575 21.345-21.345v-19.438c.723.058 1.451.096 2.188.096h98.304v19.342c0 11.77 9.575 21.345 21.345 21.345h15.503c11.77 0 21.345-9.575 21.345-21.345v-19.342h62.71c.738 0 1.466-.038 2.189-.096v19.438c0 11.77 9.575 21.345 21.344 21.345h15.504c11.77 0 21.345-9.575 21.345-21.345v-129.308c-.001-4.142-3.358-7.5-7.501-7.5zm-173.784 102.466h-98.304c-6.694 0-12.168-5.493-12.168-12.168 0-6.643 5.444-12.167 12.168-12.167h98.304zm120.903 0h-62.312v-24.335h62.312c6.671 0 12.168 5.466 12.168 12.167s-5.498 12.168-12.168 12.168z" fill="#6d00ca"/><g fill="#6d00ca"><path d="m372.444 51.725c-1.369-1.819-3.539-3-5.99-3h-163.166c-2.461 0-4.639 1.191-6.006 3.022-3.94.225-7.068 3.482-7.068 7.478v3.935 230.17c0 4.142 3.357 7.5 7.5 7.5s7.5-3.358 7.5-7.5v-100.64h159.724v100.64c0 4.142 3.357 7.5 7.5 7.5s7.5-3.358 7.5-7.5c0-6.967 0-220.108 0-232.898v-1.207c-.001-4.141-3.355-7.497-7.494-7.5zm-167.231 125.964v-113.965h159.724v113.965z"/><path d="m415.629 51.724c-4.143 0-7.5 3.358-7.5 7.5v234.105c0 4.142 3.357 7.5 7.5 7.5s7.5-3.358 7.5-7.5v-234.105c0-4.142-3.357-7.5-7.5-7.5z"/><path d="m154.521 51.724c-4.143 0-7.5 3.358-7.5 7.5v234.105c0 4.142 3.357 7.5 7.5 7.5s7.5-3.358 7.5-7.5v-234.105c0-4.142-3.357-7.5-7.5-7.5z"/></g><path d="m415.629 288.829h-144.688-155.565c-28.048 0-50.867 22.819-50.867 50.867 0 14.419 11.731 26.151 26.151 26.151h324.969c4.143 0 7.5-3.358 7.5-7.5v-62.018c0-4.142-3.357-7.5-7.5-7.5zm-195.554 50.867c0 3.859.873 7.711 2.498 11.151h-131.912c-6.148 0-11.151-5.002-11.151-11.151 0-19.777 16.09-35.867 35.867-35.867h119.529c-9.394 9.437-14.831 22.335-14.831 35.867zm188.054 11.151h-161.904c-6.148 0-11.15-5.002-11.15-11.151 0-19.777 16.09-35.867 35.866-35.867h137.188z" fill="#e207b9"/><g><path d="m197.713 63.724h-43.192c-17.569 0-31.862-14.293-31.862-31.862s14.293-31.862 31.862-31.862h43.192c17.569 0 31.862 14.293 31.862 31.862s-14.292 31.862-31.862 31.862zm-43.192-48.724c-9.298 0-16.862 7.564-16.862 16.862s7.564 16.862 16.862 16.862h43.192c9.298 0 16.862-7.564 16.862-16.862s-7.564-16.862-16.862-16.862z" fill="#e207b9"/></g><g><path d="m415.629 63.724h-43.192c-17.569 0-31.862-14.293-31.862-31.862s14.293-31.862 31.862-31.862h43.192c17.568 0 31.861 14.293 31.861 31.862s-14.292 31.862-31.861 31.862zm-43.192-48.724c-9.298 0-16.862 7.564-16.862 16.862s7.564 16.862 16.862 16.862h43.192c9.298 0 16.861-7.564 16.861-16.862s-7.563-16.862-16.861-16.862z" fill="#e207b9"/></g></g></svg>