<svg id="Capa_1" enable-background="new 0 0 512 512" height="512" viewBox="0 0 512 512" width="512" xmlns="http://www.w3.org/2000/svg"><g><path d="m455.001 30.58h-398.002c-27.337 0-49.499 22.162-49.499 49.499v351.841c0 27.338 22.161 49.499 49.499 49.499h398.002c27.338 0 49.499-22.161 49.499-49.499v-351.841c0-27.337-22.161-49.499-49.499-49.499z" fill="#ffff6f"/><path d="m444.5 151.679v208.64c-33.75 0-61.1 27.35-61.1 61.1h-254.8c0-33.75-27.35-61.1-61.1-61.1v-208.64c33.75 0 61.1-27.35 61.1-61.1h254.8c0 33.75 27.35 61.1 61.1 61.1z" fill="#ffd600"/><g fill="#88f8d8"><circle cx="67.5" cy="421.42" r="23.048"/><circle cx="444.5" cy="421.42" r="23.048"/><circle cx="67.5" cy="90.58" r="23.048"/><circle cx="444.5" cy="90.58" r="23.048"/></g><path d="m316.336 244.379c-1.784-28.603-34.751-44.227-60.337-24.339-25.569-19.873-58.55-4.279-60.335 24.339-.69 11.061 3.423 22.8 11.89 33.946 9.481 12.478 24.203 24.115 43.755 34.591 2.937 1.573 6.442 1.575 9.379 0 19.555-10.475 34.275-22.112 43.755-34.591 8.471-11.146 12.581-22.885 11.893-33.946z" fill="#ff63ed"/><path d="m344.901 152.435c-27.274-14.714-57.797-22.448-88.901-22.448s-61.627 7.733-88.901 22.448c-4.945 2.668-6.597 8.974-3.661 13.764l10.646 17.373c2.699 4.404 8.362 5.996 12.925 3.575 21.213-11.251 44.88-17.16 68.99-17.16s47.778 5.909 68.99 17.16c4.563 2.42 10.226.829 12.925-3.575l10.646-17.373c2.938-4.79 1.286-11.096-3.659-13.764z" fill="#b98eff"/><g><path d="m455.001 488.92h-398.002c-31.43 0-56.999-25.57-56.999-56.999v-351.842c0-31.429 25.569-56.999 56.999-56.999h398.002c31.43 0 56.999 25.57 56.999 56.999v351.841c0 31.43-25.569 57-56.999 57zm-398.002-450.84c-23.158 0-41.999 18.841-41.999 41.999v351.841c0 23.158 18.841 41.999 41.999 41.999h398.002c23.158 0 41.999-18.841 41.999-41.999v-351.841c0-23.158-18.841-41.999-41.999-41.999z" fill="#f90"/></g><g><path d="m383.4 428.919h-254.8c-4.143 0-7.5-3.358-7.5-7.5 0-29.555-24.045-53.6-53.601-53.6-4.143 0-7.5-3.358-7.5-7.5v-208.64c0-4.142 3.357-7.5 7.5-7.5 29.556 0 53.601-24.045 53.601-53.6 0-4.142 3.357-7.5 7.5-7.5h254.8c4.143 0 7.5 3.358 7.5 7.5 0 29.555 24.045 53.6 53.6 53.6 4.143 0 7.5 3.358 7.5 7.5v208.64c0 4.142-3.357 7.5-7.5 7.5-29.555 0-53.6 24.045-53.6 53.6 0 4.142-3.357 7.5-7.5 7.5zm-247.707-15h240.614c3.479-31.845 28.848-57.213 60.692-60.692v-194.455c-31.845-3.479-57.213-28.847-60.692-60.693h-240.614c-3.479 31.846-28.848 57.213-60.693 60.693v194.455c31.846 3.479 57.214 28.846 60.693 60.692z" fill="#f95116"/></g><g><path d="m67.5 451.968c-16.844 0-30.548-13.704-30.548-30.548s13.704-30.548 30.548-30.548 30.548 13.704 30.548 30.548-13.704 30.548-30.548 30.548zm0-46.096c-8.573 0-15.548 6.975-15.548 15.548s6.975 15.548 15.548 15.548 15.548-6.975 15.548-15.548-6.975-15.548-15.548-15.548z" fill="#007ea8"/></g><g><path d="m444.5 451.968c-16.844 0-30.548-13.704-30.548-30.548s13.704-30.548 30.548-30.548 30.548 13.704 30.548 30.548-13.704 30.548-30.548 30.548zm0-46.096c-8.573 0-15.548 6.975-15.548 15.548s6.975 15.548 15.548 15.548 15.548-6.975 15.548-15.548-6.975-15.548-15.548-15.548z" fill="#007ea8"/></g><g><path d="m67.5 121.128c-16.844 0-30.548-13.704-30.548-30.548s13.704-30.548 30.548-30.548 30.548 13.704 30.548 30.548-13.704 30.548-30.548 30.548zm0-46.096c-8.573 0-15.548 6.975-15.548 15.548s6.975 15.548 15.548 15.548 15.548-6.975 15.548-15.548-6.975-15.548-15.548-15.548z" fill="#007ea8"/></g><g><path d="m444.5 121.128c-16.844 0-30.548-13.704-30.548-30.548s13.704-30.548 30.548-30.548 30.548 13.704 30.548 30.548-13.704 30.548-30.548 30.548zm0-46.096c-8.573 0-15.548 6.975-15.548 15.548s6.975 15.548 15.548 15.548 15.548-6.975 15.548-15.548-6.975-15.548-15.548-15.548z" fill="#007ea8"/></g><g><path d="m316.336 244.379c-1.784-28.603-34.751-44.227-60.337-24.339-25.569-19.873-58.55-4.279-60.335 24.339-.69 11.061 3.423 22.8 11.89 33.946 9.481 12.478 24.203 24.115 43.755 34.591 2.937 1.573 6.442 1.575 9.379 0 19.555-10.475 34.275-22.112 43.755-34.591 8.471-11.146 12.581-22.885 11.893-33.946z" style="fill:none;stroke:#e207b9;stroke-width:15;stroke-linecap:round;stroke-linejoin:round;stroke-miterlimit:10"/></g><g><path d="m329.509 195.774c-2.725 0-5.479-.645-8.033-2-20.087-10.654-42.729-16.286-65.476-16.286s-45.389 5.632-65.476 16.286c-8.036 4.264-18.063 1.501-22.834-6.282l-10.646-17.373c-2.481-4.049-3.196-9.002-1.961-13.589 1.229-4.561 4.311-8.458 8.455-10.695 28.311-15.274 60.283-23.347 92.462-23.347s64.151 8.073 92.462 23.347c4.146 2.236 7.228 6.135 8.456 10.695 1.235 4.587.521 9.54-1.961 13.589l-10.646 17.374c-3.254 5.309-8.957 8.28-14.802 8.281zm-73.509-33.286c25.188 0 50.26 6.236 72.505 18.035 1.054.558 2.376.175 3.017-.869l10.646-17.373c.462-.754.365-1.482.266-1.85-.115-.43-.399-1.021-1.095-1.396-26.129-14.096-55.639-21.547-85.339-21.547s-59.21 7.451-85.339 21.548c-.694.375-.979.965-1.094 1.395-.1.367-.196 1.096.266 1.851l10.646 17.373c.641 1.045 1.968 1.427 3.016.868 22.245-11.799 47.317-18.035 72.505-18.035z" fill="#6d00ca"/></g><circle cx="306.567" cy="352.114" fill="#f95116" r="10.729"/><g><path d="m278.719 388.531h-45.438c-4.143 0-7.5-3.358-7.5-7.5s3.357-7.5 7.5-7.5h45.438c4.143 0 7.5 3.358 7.5 7.5s-3.358 7.5-7.5 7.5z" fill="#f95116"/></g><circle cx="205.433" cy="352.114" fill="#f95116" r="10.729"/></g></svg>