<svg id="Capa_1" enable-background="new 0 0 512 512" height="512" viewBox="0 0 512 512" width="512" xmlns="http://www.w3.org/2000/svg"><g><path d="m287.765 78.434c0-4.378.417-8.656 1.176-12.815-8.586-24.564-31.948-42.189-59.443-42.189-34.779 0-62.968 28.19-62.968 62.968 0 34.779 28.19 62.968 62.968 62.968 30.192 0 55.405-21.249 61.534-49.606-2.119-6.731-3.267-13.894-3.267-21.326z" fill="#ffff6f"/><circle cx="358.698" cy="78.434" fill="#ffff6f" r="70.934"/><path d="m469.266 78.434c0 39.178-31.756 70.934-70.934 70.934h-39.634c39.178 0 70.934-31.756 70.934-70.934s-31.756-70.934-70.934-70.934h39.634c39.179 0 70.934 31.756 70.934 70.934z" fill="#ffd600"/><circle cx="358.697" cy="78.435" fill="#ff63ed" r="27.09"/><circle cx="229.498" cy="86.4" fill="#ff63ed" r="24.048"/><g fill="#ffd600"><path d="m288.941 65.619c3.089-16.922 12.167-31.748 24.975-42.189h-84.418c27.495 0 50.857 17.625 59.443 42.189z"/><path d="m291.033 99.762c-6.129 28.357-31.342 49.606-61.534 49.606h105.82v-3.962c-21.044-7.346-37.57-24.313-44.286-45.644z"/></g><g><path d="m358.698 113.025c-19.073 0-34.591-15.517-34.591-34.59s15.518-34.59 34.591-34.59 34.59 15.517 34.59 34.59-15.517 34.59-34.59 34.59zm0-54.18c-10.803 0-19.591 8.788-19.591 19.59s8.788 19.59 19.591 19.59c10.802 0 19.59-8.788 19.59-19.59s-8.788-19.59-19.59-19.59z" fill="#e207b9"/></g><g><path d="m229.498 117.948c-17.396 0-31.548-14.152-31.548-31.548s14.152-31.548 31.548-31.548 31.548 14.152 31.548 31.548-14.153 31.548-31.548 31.548zm0-48.096c-9.125 0-16.548 7.423-16.548 16.548s7.423 16.548 16.548 16.548 16.548-7.423 16.548-16.548-7.423-16.548-16.548-16.548z" fill="#e207b9"/></g><path d="m398.333 0h-39.634c-17.76 0-34.153 5.942-47.315 15.93h-81.885c-38.856 0-70.469 31.612-70.469 70.469 0 37.586 29.382 68.5 66.891 70.379.128.006.255.009.381.009 1.194 0 2.329-.282 3.338-.785 1.117.553 2.398.833 3.723.761 25.977-1.405 47.454-16.641 58.437-37.405 14.094 22.939 39.225 37.509 66.9 37.509 10.59 0 21.738-2.187 32.159-6.874.319 3.849 3.544 6.874 7.475 6.874 43.248 0 78.434-35.185 78.434-78.434s-35.187-78.433-78.435-78.433zm23.799 78.434c0 34.986-28.45 63.434-63.434 63.434-35.033 0-63.434-28.519-63.434-63.434 0-35.112 28.541-63.434 63.434-63.434 34.978 0 63.434 28.456 63.434 63.434zm-149.194-47.504h23.361c-3.474 4.564-6.81 10.237-9.03 15.118-4.13-5.89-9.186-11.093-14.331-15.118zm-43.325 111.629c-.892-.44-1.886-.709-2.942-.762-29.518-1.479-52.641-25.812-52.641-55.397 0-30.585 24.883-55.469 55.469-55.469 22.963 0 43.624 14.297 51.704 35.394-.525 3.377-.938 8.075-.938 12.109 0 7.434 1.095 14.856 3.007 21.558-5.714 23.058-26.229 40.469-50.721 41.793-1.055.057-2.049.33-2.938.774zm175.762-1.08c20.032-14.859 31.758-38.267 31.758-63.045 0-24.562-11.472-47.897-31.834-63.054 31.711 3.481 56.468 30.431 56.468 63.054-.001 32.597-24.718 59.53-56.392 63.045z" fill="#f90"/><path d="m203.2 406.029v49.574h-16.362c-13.502 0-24.448 10.946-24.448 24.448s10.946 24.448 24.448 24.448h40.81c13.502 0 24.448-10.946 24.448-24.448v-74.022z" fill="#ff63ed"/><path d="m316.985 406.029v49.574h-16.362c-13.502 0-24.448 10.946-24.448 24.448s10.946 24.448 24.448 24.448h40.81c13.502 0 24.448-10.946 24.448-24.448v-74.022z" fill="#ff63ed"/><path d="m426.323 199.993v155.42c0 27.962-22.664 50.616-50.616 50.616h-187.933c-27.952 0-50.616-22.654-50.616-50.616v-155.42c0-27.962 22.664-50.626 50.616-50.626h187.933c27.952 0 50.616 22.664 50.616 50.626z" fill="#b98eff"/><path d="m496.959 199.993v155.42c0 27.962-22.664 50.616-50.616 50.616h-70.636c27.952 0 50.616-22.654 50.616-50.616v-155.42c0-27.962-22.664-50.626-50.616-50.626h70.636c27.952 0 50.616 22.664 50.616 50.626z" fill="#9448f5"/><path d="m347.165 227.378h-130.849c-13.729 0-24.859 11.13-24.859 24.859v40.074c0 13.729 11.13 24.859 24.859 24.859h130.849c13.729 0 24.859-11.13 24.859-24.859v-40.074c0-13.729-11.129-24.859-24.859-24.859z" fill="#88f8d8"/><circle cx="232.762" cy="361.517" fill="#ffff6f" r="18.096"/><circle cx="330.72" cy="361.517" fill="#ffff6f" r="18.096"/><path d="m42.023 149.367c-14.902 0-26.983 12.081-26.983 26.983v202.697c0 14.902 12.081 26.983 26.983 26.983 14.902 0 26.983-12.081 26.983-26.983v-202.697c0-14.902-12.081-26.983-26.983-26.983z" fill="#88f8d8"/><path d="m69.006 379.047 68.152-43.815v-115.057l-68.152-43.825z" fill="#17d9c3"/><g><path d="m227.649 512h-40.811c-17.616 0-31.948-14.332-31.948-31.948s14.332-31.948 31.948-31.948h8.861v-39.074c0-4.142 3.357-7.5 7.5-7.5s7.5 3.358 7.5 7.5v46.574c0 4.142-3.357 7.5-7.5 7.5h-16.361c-9.346 0-16.948 7.603-16.948 16.948s7.603 16.948 16.948 16.948h40.811c9.346 0 16.948-7.603 16.948-16.948v-71.022c0-4.142 3.357-7.5 7.5-7.5s7.5 3.358 7.5 7.5v71.022c0 17.616-14.332 31.948-31.948 31.948z" fill="#e207b9"/></g><path d="m203.2 406.029h48.897v30.984h-48.897z" fill="#e207b9"/><path d="m316.985 406.029h48.897v30.984h-48.897z" fill="#e207b9"/><g><path d="m341.434 512h-40.811c-17.616 0-31.948-14.332-31.948-31.948s14.332-31.948 31.948-31.948h8.861v-39.074c0-4.142 3.357-7.5 7.5-7.5s7.5 3.358 7.5 7.5v46.574c0 4.142-3.357 7.5-7.5 7.5h-16.361c-9.346 0-16.948 7.603-16.948 16.948s7.603 16.948 16.949 16.948h40.811c9.346 0 16.948-7.603 16.948-16.948v-71.022c0-4.142 3.357-7.5 7.5-7.5s7.5 3.358 7.5 7.5v71.022c-.001 17.616-14.333 31.948-31.949 31.948z" fill="#e207b9"/></g><circle cx="329.769" cy="263.637" fill="#007ea8" r="10.19"/><g><path d="m303.319 298.603h-43.156c-4.143 0-7.5-3.358-7.5-7.5s3.357-7.5 7.5-7.5h43.156c4.143 0 7.5 3.358 7.5 7.5s-3.358 7.5-7.5 7.5z" fill="#007ea8"/></g><circle cx="233.713" cy="263.637" fill="#007ea8" r="10.19"/><g><path d="m347.166 324.671h-130.85c-17.843 0-32.359-14.516-32.359-32.359v-40.075c0-17.843 14.517-32.359 32.359-32.359h130.85c17.843 0 32.359 14.516 32.359 32.359v40.075c0 17.843-14.517 32.359-32.359 32.359zm-130.85-89.793c-9.572 0-17.359 7.787-17.359 17.359v40.075c0 9.572 7.787 17.359 17.359 17.359h130.85c9.572 0 17.359-7.787 17.359-17.359v-40.075c0-9.572-7.787-17.359-17.359-17.359z" fill="#007ea8"/></g><g><path d="m232.762 387.113c-14.114 0-25.597-11.482-25.597-25.596 0-14.113 11.482-25.596 25.597-25.596 14.113 0 25.596 11.482 25.596 25.596s-11.483 25.596-25.596 25.596zm0-36.192c-5.843 0-10.597 4.753-10.597 10.596s4.754 10.596 10.597 10.596 10.596-4.753 10.596-10.596c0-5.842-4.753-10.596-10.596-10.596z" fill="#f90"/></g><g><path d="m330.719 387.113c-14.113 0-25.596-11.482-25.596-25.596 0-14.113 11.482-25.596 25.596-25.596s25.596 11.482 25.596 25.596-11.482 25.596-25.596 25.596zm0-36.192c-5.843 0-10.596 4.753-10.596 10.596s4.753 10.596 10.596 10.596 10.596-4.753 10.596-10.596c0-5.842-4.753-10.596-10.596-10.596z" fill="#f90"/></g><path d="m130.928 330.321-54.423 34.987v-175.218l54.658 35.147c3.485 2.24 8.124 1.233 10.365-2.251 2.24-3.484 1.231-8.125-2.252-10.365l-63.045-40.541c-2.111-17.005-16.642-30.213-34.208-30.213-19.014 0-34.482 15.469-34.482 34.483v202.696c0 19.014 15.469 34.483 34.482 34.483 17.567 0 32.097-13.208 34.208-30.213l62.808-40.378c3.484-2.24 4.493-6.88 2.253-10.364-2.24-3.485-6.88-4.494-10.364-2.253zm-88.905 68.208c-10.742 0-19.482-8.74-19.482-19.483v-202.696c0-10.743 8.74-19.483 19.482-19.483s19.482 8.74 19.482 19.483v202.696c0 10.743-8.74 19.483-19.482 19.483z" fill="#007ea8"/><path d="m446.343 141.867c-24.099 0-226.05 0-258.569 0-32.045 0-58.115 26.075-58.115 58.126v155.42c0 32.045 26.07 58.116 58.115 58.116h258.569c32.045 0 58.116-26.071 58.116-58.116v-155.42c0-32.051-26.071-58.126-58.116-58.126zm-301.684 213.547v-155.42c0-23.78 19.342-43.126 43.115-43.126h187.934c23.773 0 43.115 19.346 43.115 43.126v155.42c0 23.774-19.342 43.116-43.115 43.116h-187.934c-23.774-.001-43.115-19.342-43.115-43.116zm344.8 0c0 23.774-19.342 43.116-43.116 43.116h-31.708c11.753-10.523 19.188-26.363 19.188-43.116v-155.42c0-16.802-7.51-32.668-19.19-43.126h31.711c23.774 0 43.116 19.346 43.116 43.126v155.42z" fill="#6d00ca"/></g></svg>