<svg id="Capa_1" enable-background="new 0 0 512 512" height="512" viewBox="0 0 512 512" width="512" xmlns="http://www.w3.org/2000/svg"><g><path d="m66.558 416.734v68.48c0 10.651 8.635 19.286 19.286 19.286h24.151c10.652 0 19.286-8.635 19.286-19.286v-68.48z" fill="#f90"/><path d="m445.441 416.734v68.48c0 10.651-8.635 19.286-19.286 19.286h-24.151c-10.651 0-19.286-8.635-19.286-19.286v-68.48z" fill="#f90"/><g><path d="m106.783 176.733h117.798c17.352 0 31.419 14.067 31.419 31.419 0-17.352 14.067-31.419 31.419-31.419h117.798c2.08 0 4.111.207 6.078.593 17.163-25.931 25.281-52.578 23.588-77.936-5.29-79.005-103.029-122.159-178.886-67.227-75.807-54.892-173.589-11.817-178.879 67.227-1.699 25.358 6.423 52.006 23.584 77.936 1.968-.385 4-.593 6.081-.593z" fill="#ffceff"/></g><g fill="#ff63ed"><path d="m158.058 176.733h66.523c17.352 0 31.419 14.067 31.419 31.419 0-17.352 14.067-31.419 31.419-31.419h66.517c3.854-4 7.444-8.026 10.749-12.078 17.757-21.772 26.476-43.302 25.211-62.252-1.163-17.38-10.362-28.602-17.873-34.957-11.326-9.581-26.395-14.857-42.428-14.857-16.308 0-32.614 5.565-47.152 16.093l-26.444 19.15-26.445-19.149c-14.531-10.522-30.835-16.084-47.147-16.084-16.04 0-31.109 5.273-42.432 14.847-7.509 6.349-16.704 17.568-17.868 34.958-1.27 18.947 7.447 40.474 25.206 62.253 3.302 4.052 6.892 8.077 10.745 12.076z"/><path d="m406.647 264.694c9.996 0 19.452 2.301 27.876 6.397 1.359-3.515 2.112-7.331 2.112-11.325v-51.614c0-17.352-14.067-31.419-31.419-31.419h-117.798c-17.352 0-31.419 14.067-31.419 31.419v51.614c0 1.677.135 3.322.388 4.928z"/><path d="m105.352 264.694h150.259c.253-1.606.388-3.251.388-4.928v-51.614c0-17.352-14.067-31.419-31.419-31.419h-117.797c-17.352 0-31.419 14.067-31.419 31.419v51.614c0 3.994.753 7.81 2.112 11.325 8.424-4.095 17.881-6.397 27.876-6.397z"/></g><path d="m422.613 173.353c14.552-24.749 21.365-50.322 19.753-74.464-4.172-62.297-61.717-104.181-124.39-98.349-21.659 2.017-42.978 9.765-61.978 22.484-18.997-12.712-40.316-20.458-61.977-22.474-62.796-5.842-120.225 36.167-124.386 98.339-1.618 24.135 5.194 49.71 19.749 74.465-12.746 6.4-21.52 19.59-21.52 34.798v51.614c0 3.567.488 7.11 1.45 10.529.932 3.308 3.94 5.47 7.216 5.47.673 0 1.356-.091 2.036-.283 3.987-1.122 6.31-5.264 5.187-9.251-.591-2.097-.89-4.271-.89-6.465v-51.614c0-13.264 10.822-23.919 23.918-23.919h117.799c13.188 0 23.919 10.73 23.919 23.919v51.614c0 4.142 3.357 7.5 7.5 7.5s7.5-3.358 7.5-7.5v-51.614c0-13.189 10.729-23.919 23.918-23.919h117.799c13.059 0 23.919 10.617 23.919 23.919v51.614c0 2.162-.291 4.309-.866 6.381-1.106 3.991 1.231 8.125 5.224 9.231.671.186 1.345.275 2.008.275 3.286 0 6.303-2.177 7.224-5.498.937-3.377 1.411-6.873 1.411-10.389v-51.614c-.001-15.209-8.775-28.4-21.523-34.799zm-71.899-4.12h-63.296c-12.299 0-23.999 5.862-31.418 15.975-7.093-9.717-18.686-15.975-31.419-15.975h-63.302c-2.914-3.119-5.649-6.242-8.155-9.315-16.537-20.281-24.676-39.995-23.535-57.012 2.501-37.38 53.153-58.86 95.565-28.148l26.446 19.149c2.625 1.9 6.174 1.9 8.797 0l26.445-19.15c13.249-9.595 28.033-14.667 42.752-14.667 26.649 0 51.063 16.609 52.818 42.813 1.136 17.024-7.004 36.738-23.54 57.013-2.506 3.072-5.241 6.197-8.158 9.317zm56.822.07c-.038-.002-.076-.001-.114-.003-.73-.041-1.465-.066-2.205-.066h-34.591c18.892-23.217 28.143-46.495 26.753-67.331-2.302-34.364-33.348-56.813-67.785-56.813-17.899 0-35.725 6.058-51.55 17.518l-22.046 15.965-22.047-15.964c-52.132-37.751-116.04-9.832-119.329 39.295-1.395 20.827 7.854 44.106 26.745 67.33h-34.585c-.74 0-1.474.025-2.203.066-.04.002-.079.001-.119.004-14.492-23.264-21.349-47.176-19.858-69.412 3.581-53.519 53.469-89.482 108.029-84.406 20.678 1.924 41.068 9.791 58.968 22.752 2.625 1.9 6.173 1.9 8.798 0 17.903-12.966 38.295-20.836 58.97-22.761 54.784-5.102 104.465 31.131 108.033 84.413 1.485 22.243-5.373 46.155-19.864 69.413z" fill="#e207b9"/><path d="m406.647 264.694h-301.295c-35.26 0-63.844 28.584-63.844 63.844v12.444h428.982v-12.444c0-35.26-28.583-63.844-63.843-63.844z" fill="#9448f5"/><g><path d="m470.49 345.481c-4.143 0-7.5-3.358-7.5-7.5v-9.443c0-31.068-25.275-56.344-56.344-56.344h-301.293c-31.068 0-56.344 25.276-56.344 56.344v9.443c0 4.142-3.357 7.5-7.5 7.5s-7.5-3.358-7.5-7.5v-9.443c0-39.339 32.005-71.344 71.344-71.344h301.294c39.339 0 71.344 32.005 71.344 71.344v9.443c-.001 4.142-3.358 7.5-7.501 7.5z" fill="#6d00ca"/></g><path d="m470.49 340.981h-428.981c-16.138 0-29.221 13.083-29.221 29.221v17.31c0 16.138 13.083 29.221 29.221 29.221h428.981c16.138 0 29.221-13.083 29.221-29.221v-17.31c0-16.138-13.082-29.221-29.221-29.221z" fill="#ffd600"/><path d="m470.49 333.481h-428.981c-20.248 0-36.721 16.473-36.721 36.721v17.311c0 20.248 16.473 36.721 36.721 36.721h17.549v60.98c0 14.77 12.017 26.786 26.786 26.786h24.151c14.77 0 26.786-12.016 26.786-26.786v-60.98h238.436v60.98c0 14.77 12.017 26.786 26.786 26.786h24.151c14.77 0 26.786-12.016 26.786-26.786v-60.98h17.549c20.248 0 36.722-16.473 36.722-36.721v-17.311c.001-20.248-16.473-36.721-36.721-36.721zm-348.709 151.733c0 6.499-5.287 11.786-11.786 11.786h-24.151c-6.499 0-11.786-5.287-11.786-11.786v-60.98h47.724v60.98zm316.16 0c0 6.499-5.287 11.786-11.786 11.786h-24.151c-6.499 0-11.786-5.287-11.786-11.786v-60.98h47.724v60.98zm54.271-97.701c0 11.977-9.744 21.721-21.722 21.721-24.556 0-404.425 0-428.981 0-11.977 0-21.721-9.744-21.721-21.721v-17.311c0-11.977 9.744-21.721 21.721-21.721h428.981c11.978 0 21.722 9.744 21.722 21.721z" fill="#f95116"/></g></svg>