<svg id="Capa_1" enable-background="new 0 0 512 512" height="512" viewBox="0 0 512 512" width="512" xmlns="http://www.w3.org/2000/svg"><g><path d="m468.682 34.17v91.747c0 14.725-11.934 26.659-26.659 26.659h-23.919c-14.725 0-26.659-11.934-26.659-26.659v-91.747c0-14.725 11.934-26.669 26.659-26.669h23.919c14.725-.001 26.659 11.943 26.659 26.669z" fill="#ffd600"/><path d="m418.104 152.576h-348.887c-14.725 0-26.659-11.934-26.659-26.659v-91.747c0-14.726 11.934-26.67 26.659-26.67h348.887c-14.725 0-26.659 11.944-26.659 26.669v91.747c0 14.726 11.934 26.66 26.659 26.66z" fill="#ffff6f"/><path d="m442.023 0h-23.919-348.887c-18.836 0-34.159 15.328-34.159 34.169v91.747c0 16.242 11.546 30.33 27.453 33.5 4.061.81 8.012-1.828 8.821-5.89.81-4.063-1.827-8.012-5.89-8.821-8.915-1.776-15.385-9.678-15.385-18.789v-91.747c.001-10.569 8.596-19.169 19.16-19.169h320.622c-3.983 5.913-5.895 12.543-5.895 19.169v91.747c0 28.962 35.207 42.566 37.513 27.485.625-4.095-2.187-7.921-6.281-8.547-9.234-1.412-16.231-9.542-16.231-18.938v-91.747c0-10.569 8.595-19.169 19.159-19.169h23.919c10.564 0 19.159 8.6 19.159 19.169v91.747c0 9.063-6.43 16.957-15.289 18.77-4.058.83-6.674 4.793-5.844 8.851s4.783 6.675 8.852 5.844c15.808-3.234 27.281-17.309 27.281-33.465v-91.747c0-18.841-15.324-34.169-34.159-34.169z" fill="#f95116"/><g fill="#f95116"><path d="m359.447 101.756c-.015 0-.028 0-.043 0-3.962.022-8.943.042-12.955.047v-51.033c0-4.142-3.357-7.5-7.5-7.5s-7.5 3.358-7.5 7.5v58.486c0 3.653 2.632 6.775 6.232 7.392.544.093.941.162 7.377.162 3.137 0 7.709-.016 14.43-.054 4.142-.023 7.481-3.4 7.458-7.542-.024-4.128-3.377-7.458-7.499-7.458z"/><path d="m128.137 43.27c-4.143 0-7.5 3.358-7.5 7.5v20.764h-25.507v-20.764c0-4.142-3.357-7.5-7.5-7.5s-7.5 3.358-7.5 7.5v58.536c0 4.142 3.357 7.5 7.5 7.5s7.5-3.358 7.5-7.5v-22.772h25.507v22.771c0 4.142 3.357 7.5 7.5 7.5s7.5-3.358 7.5-7.5v-58.535c0-4.142-3.357-7.5-7.5-7.5z"/><path d="m309.849 58.804c4.143 0 7.5-3.358 7.5-7.5s-3.357-7.5-7.5-7.5h-24.439c-4.143 0-7.5 3.358-7.5 7.5v58.001c0 4.142 3.357 7.5 7.5 7.5h24.439c4.143 0 7.5-3.358 7.5-7.5s-3.357-7.5-7.5-7.5h-16.939v-14h15.138c4.143 0 7.5-3.358 7.5-7.5s-3.357-7.5-7.5-7.5h-15.138v-14.001z"/><path d="m261.429 43.27h-32.327c-4.143 0-7.5 3.358-7.5 7.5s3.357 7.5 7.5 7.5h8.598v51.036c0 4.142 3.357 7.5 7.5 7.5s7.5-3.358 7.5-7.5v-51.036h8.729c4.143 0 7.5-3.358 7.5-7.5s-3.357-7.5-7.5-7.5z"/><path d="m183.348 43.27c-20.273 0-36.768 16.494-36.768 36.768s16.494 36.768 36.768 36.768 36.768-16.494 36.768-36.768-16.494-36.768-36.768-36.768zm0 58.536c-12.003 0-21.768-9.765-21.768-21.768s9.765-21.768 21.768-21.768 21.768 9.765 21.768 21.768-9.765 21.768-21.768 21.768z"/></g><path d="m500.226 184.119v288.837c0 17.424-14.12 31.543-31.543 31.543h-55.955c-17.414 0-31.544-14.12-31.544-31.543v-288.837c0-17.424 14.13-31.544 31.544-31.544h55.955c17.423.001 31.543 14.12 31.543 31.544z" fill="#ff63ed"/><path d="m412.727 504.5h-369.41c-17.414 0-31.544-14.12-31.544-31.543v-288.838c0-17.424 14.13-31.544 31.544-31.544h369.41c-17.414 0-31.544 14.12-31.544 31.544v288.837c.001 17.424 14.13 31.544 31.544 31.544z" fill="#ff9bff"/><g fill="#b98eff"><path d="m213.843 191.432h-31.916c-7.336 0-13.283 5.947-13.283 13.283v42.399c0 7.336 5.947 13.283 13.283 13.283h31.916c7.336 0 13.283-5.947 13.283-13.283v-42.399c-.001-7.337-5.948-13.283-13.283-13.283z"/><path d="m312.93 191.432h-31.916c-7.336 0-13.283 5.947-13.283 13.283v42.399c0 7.336 5.947 13.283 13.283 13.283h31.916c7.336 0 13.283-5.947 13.283-13.283v-42.399c-.001-7.337-5.948-13.283-13.283-13.283z"/><path d="m312.93 402.128h-31.916c-7.336 0-13.283 5.947-13.283 13.283v42.399c0 7.336 5.947 13.283 13.283 13.283h31.916c7.336 0 13.283-5.947 13.283-13.283v-42.399c-.001-7.336-5.948-13.283-13.283-13.283z"/><path d="m312.93 296.78h-31.916c-7.336 0-13.283 5.947-13.283 13.283v42.399c0 7.336 5.947 13.283 13.283 13.283h31.916c7.336 0 13.283-5.947 13.283-13.283v-42.399c-.001-7.336-5.948-13.283-13.283-13.283z"/><path d="m114.756 191.432h-31.917c-7.336 0-13.283 5.947-13.283 13.283v42.399c0 7.336 5.947 13.283 13.283 13.283h31.916c7.336 0 13.283-5.947 13.283-13.283v-42.399c0-7.337-5.947-13.283-13.282-13.283z"/><path d="m114.756 296.78h-31.917c-7.336 0-13.283 5.947-13.283 13.283v42.399c0 7.336 5.947 13.283 13.283 13.283h31.916c7.336 0 13.283-5.947 13.283-13.283v-42.399c0-7.336-5.947-13.283-13.282-13.283z"/><path d="m114.756 402.128h-31.917c-7.336 0-13.283 5.947-13.283 13.283v42.399c0 7.336 5.947 13.283 13.283 13.283h31.916c7.336 0 13.283-5.947 13.283-13.283v-42.399c0-7.336-5.947-13.283-13.282-13.283z"/><path d="m213.843 296.78h-31.916c-7.336 0-13.283 5.947-13.283 13.283v42.399c0 7.336 5.947 13.283 13.283 13.283h31.916c7.336 0 13.283-5.947 13.283-13.283v-42.399c-.001-7.336-5.948-13.283-13.283-13.283z"/></g><path d="m207.81 402.128h-19.851c-15.456 0-27.985 12.529-27.985 27.985v74.387h75.821v-74.387c0-15.456-12.53-27.985-27.985-27.985z" fill="#88f8d8"/><g><path d="m235.794 509c-4.143 0-7.5-3.358-7.5-7.5v-71.387c0-11.296-9.189-20.485-20.484-20.485h-19.851c-11.296 0-20.485 9.189-20.485 20.485v71.387c0 4.142-3.357 7.5-7.5 7.5s-7.5-3.358-7.5-7.5v-71.387c0-19.567 15.919-35.485 35.485-35.485h19.851c19.566 0 35.484 15.918 35.484 35.485v71.387c0 4.142-3.357 7.5-7.5 7.5z" fill="#007ea8"/></g><path d="m468.682 145.076h-55.955-369.41c-21.528 0-39.043 17.515-39.043 39.043v288.837c0 21.529 17.515 39.044 39.043 39.044h425.365c21.529 0 39.044-17.515 39.044-39.043v-288.838c0-21.529-17.515-39.043-39.044-39.043zm-425.365 351.924c-13.258 0-24.043-10.786-24.043-24.043v-288.838c0-13.258 10.785-24.043 24.043-24.043h338.668c-5.369 6.847-8.302 15.326-8.302 24.043v288.837c0 8.692 2.928 17.192 8.302 24.043h-338.668zm449.409-24.043c0 13.258-10.786 24.043-24.044 24.043h-55.955c-13.258 0-24.044-10.786-24.044-24.043v-288.838c0-13.258 10.786-24.043 24.044-24.043h55.955c13.258 0 24.044 10.786 24.044 24.043z" fill="#e207b9"/><g><path d="m213.842 267.896h-31.916c-11.459 0-20.782-9.323-20.782-20.783v-42.399c0-11.459 9.323-20.783 20.782-20.783h31.916c11.46 0 20.783 9.323 20.783 20.783v42.399c0 11.46-9.323 20.783-20.783 20.783zm-31.916-68.964c-3.188 0-5.782 2.594-5.782 5.783v42.399c0 3.188 2.594 5.783 5.782 5.783h31.916c3.188 0 5.783-2.594 5.783-5.783v-42.399c0-3.188-2.595-5.783-5.783-5.783z" fill="#6d00ca"/></g><g><path d="m312.929 267.896h-31.916c-11.459 0-20.782-9.323-20.782-20.783v-42.399c0-11.459 9.323-20.783 20.782-20.783h31.916c11.46 0 20.783 9.323 20.783 20.783v42.399c0 11.46-9.323 20.783-20.783 20.783zm-31.916-68.964c-3.188 0-5.782 2.594-5.782 5.783v42.399c0 3.188 2.594 5.783 5.782 5.783h31.916c3.188 0 5.783-2.594 5.783-5.783v-42.399c0-3.188-2.595-5.783-5.783-5.783z" fill="#6d00ca"/></g><g><path d="m312.929 478.593h-31.916c-11.459 0-20.782-9.323-20.782-20.783v-42.399c0-11.459 9.323-20.783 20.782-20.783h31.916c11.46 0 20.783 9.323 20.783 20.783v42.399c0 11.46-9.323 20.783-20.783 20.783zm-31.916-68.965c-3.188 0-5.782 2.594-5.782 5.783v42.399c0 3.188 2.594 5.783 5.782 5.783h31.916c3.188 0 5.783-2.594 5.783-5.783v-42.399c0-3.188-2.595-5.783-5.783-5.783z" fill="#6d00ca"/></g><g><path d="m312.929 373.245h-31.916c-11.459 0-20.782-9.323-20.782-20.783v-42.399c0-11.459 9.323-20.783 20.782-20.783h31.916c11.46 0 20.783 9.323 20.783 20.783v42.399c0 11.459-9.323 20.783-20.783 20.783zm-31.916-68.965c-3.188 0-5.782 2.594-5.782 5.783v42.399c0 3.188 2.594 5.783 5.782 5.783h31.916c3.188 0 5.783-2.594 5.783-5.783v-42.399c0-3.188-2.595-5.783-5.783-5.783z" fill="#6d00ca"/></g><g><path d="m114.755 267.896h-31.916c-11.459 0-20.782-9.323-20.782-20.783v-42.399c0-11.459 9.323-20.783 20.782-20.783h31.916c11.46 0 20.783 9.323 20.783 20.783v42.399c.001 11.46-9.323 20.783-20.783 20.783zm-31.916-68.964c-3.188 0-5.782 2.594-5.782 5.783v42.399c0 3.188 2.594 5.783 5.782 5.783h31.916c3.188 0 5.783-2.594 5.783-5.783v-42.399c0-3.188-2.595-5.783-5.783-5.783z" fill="#6d00ca"/></g><g><path d="m114.755 373.245h-31.916c-11.459 0-20.782-9.323-20.782-20.783v-42.399c0-11.459 9.323-20.783 20.782-20.783h31.916c11.46 0 20.783 9.323 20.783 20.783v42.399c.001 11.459-9.323 20.783-20.783 20.783zm-31.916-68.965c-3.188 0-5.782 2.594-5.782 5.783v42.399c0 3.188 2.594 5.783 5.782 5.783h31.916c3.188 0 5.783-2.594 5.783-5.783v-42.399c0-3.188-2.595-5.783-5.783-5.783z" fill="#6d00ca"/></g><g><path d="m114.755 478.593h-31.916c-11.459 0-20.782-9.323-20.782-20.783v-42.399c0-11.459 9.323-20.783 20.782-20.783h31.916c11.46 0 20.783 9.323 20.783 20.783v42.399c.001 11.46-9.323 20.783-20.783 20.783zm-31.916-68.965c-3.188 0-5.782 2.594-5.782 5.783v42.399c0 3.188 2.594 5.783 5.782 5.783h31.916c3.188 0 5.783-2.594 5.783-5.783v-42.399c0-3.188-2.595-5.783-5.783-5.783z" fill="#6d00ca"/></g><g><path d="m213.842 373.245h-31.916c-11.459 0-20.782-9.323-20.782-20.783v-42.399c0-11.459 9.323-20.783 20.782-20.783h31.916c11.46 0 20.783 9.323 20.783 20.783v42.399c0 11.459-9.323 20.783-20.783 20.783zm-31.916-68.965c-3.188 0-5.782 2.594-5.782 5.783v42.399c0 3.188 2.594 5.783 5.782 5.783h31.916c3.188 0 5.783-2.594 5.783-5.783v-42.399c0-3.188-2.595-5.783-5.783-5.783z" fill="#6d00ca"/></g></g></svg>