<svg id="Capa_1" enable-background="new 0 0 512 512" height="512" viewBox="0 0 512 512" width="512" xmlns="http://www.w3.org/2000/svg"><g><g><path d="m158.129 407.052v49.059h-16.192c-13.362 0-24.194 10.832-24.194 24.194s10.832 24.194 24.194 24.194h40.386c13.362 0 24.194-10.832 24.194-24.194v-73.253z" fill="#ffff6f"/></g><g><path d="m270.732 407.052v49.059h-16.192c-13.362 0-24.194 10.832-24.194 24.194s10.832 24.194 24.194 24.194h40.386c13.362 0 24.194-10.832 24.194-24.194v-73.253z" fill="#ffff6f"/></g><g><g><path d="m182.323 512h-40.386c-17.477 0-31.694-14.218-31.694-31.695s14.218-31.694 31.694-31.694h8.691v-38.559c0-4.142 3.357-7.5 7.5-7.5s7.5 3.358 7.5 7.5v46.059c0 4.142-3.357 7.5-7.5 7.5h-16.191c-9.205 0-16.694 7.489-16.694 16.694 0 9.206 7.489 16.695 16.694 16.695h40.386c9.205 0 16.694-7.489 16.694-16.695v-70.253c0-4.142 3.357-7.5 7.5-7.5s7.5 3.358 7.5 7.5v70.253c.001 17.477-14.217 31.695-31.694 31.695z" fill="#f90"/></g></g><g><path d="m158.129 407.052h48.389v30.662h-48.389z" fill="#f90"/></g><g><path d="m270.732 407.052h48.389v30.662h-48.389z" fill="#f90"/></g><g><g><path d="m294.927 512h-40.387c-17.477 0-31.694-14.218-31.694-31.695s14.218-31.694 31.694-31.694h8.691v-38.559c0-4.142 3.357-7.5 7.5-7.5s7.5 3.358 7.5 7.5v46.059c0 4.142-3.357 7.5-7.5 7.5h-16.191c-9.205 0-16.694 7.489-16.694 16.694 0 9.206 7.489 16.695 16.694 16.695h40.387c9.205 0 16.694-7.489 16.694-16.695v-70.253c0-4.142 3.357-7.5 7.5-7.5s7.5 3.358 7.5 7.5v70.253c0 17.477-14.218 31.695-31.694 31.695z" fill="#f90"/></g></g><g><path d="m443.868 137.928v221.441c0 26.333-21.35 47.683-47.683 47.683h-335.283c-26.343 0-47.693-21.35-47.693-47.683v-221.441z" fill="#ff9bff"/></g><g><path d="m498.791 137.928v221.441c0 26.333-21.35 47.683-47.683 47.683h-54.923c26.333 0 47.683-21.35 47.683-47.683v-221.441z" fill="#ff63ed"/></g><g><path d="m498.791 89.825v48.103h-54.923v-48.103c0-26.343-21.35-47.693-47.683-47.693h54.923c26.333-.001 47.683 21.35 47.683 47.693z" fill="#9448f5"/></g><g><path d="m396.184 42.131v17.915c0 13.546-10.981 24.527-24.527 24.527-13.546 0-24.527-10.981-24.527-24.527v-17.915h-46.379v17.915c0 13.546-10.981 24.527-24.527 24.527-13.546 0-24.527-10.981-24.527-24.527v-17.915h-46.379v17.915c0 13.546-10.981 24.527-24.527 24.527-13.546 0-24.527-10.981-24.527-24.527v-17.915h-46.379v17.915c0 13.546-10.981 24.527-24.527 24.527-13.546 0-24.527-10.981-24.527-24.527v-17.913c-26.311.038-47.623 21.372-47.623 47.692v48.103h430.659v-48.103c.001-26.343-21.349-47.694-47.683-47.694z" fill="#b98eff"/></g><g><path d="m342.429 238.413c-3.368-53.991-65.596-83.483-113.893-45.943-48.265-37.513-110.52-8.076-113.888 45.943-1.303 20.879 6.461 43.038 22.444 64.077 17.896 23.554 45.686 45.52 82.593 65.293 5.543 2.969 12.16 2.974 17.703 0 36.912-19.773 64.697-41.739 82.593-65.293 15.987-21.039 23.747-43.198 22.448-64.077z" fill="#88f8d8"/></g><g><path d="m498.791 131.428c-4.143 0-7.5 3.358-7.5 7.5v220.441c0 22.157-18.026 40.184-40.184 40.184h-17.137c11.058-10.405 17.398-25 17.398-40.184 0-10.959 0-209.697 0-220.441 0-4.142-3.357-7.5-7.5-7.5s-7.5 3.358-7.5 7.5v220.441c0 22.157-18.026 40.184-40.184 40.184h-335.282c-22.163 0-40.193-18.026-40.193-40.184v-218.441c0-4.142-3.357-7.5-7.5-7.5s-7.5 3.358-7.5 7.5v218.441c0 30.428 24.76 55.184 55.193 55.184h390.205c30.429 0 55.184-24.755 55.184-55.184v-220.441c0-4.142-3.357-7.5-7.5-7.5z" fill="#e207b9"/></g><g><g><path d="" style="fill:none;stroke:#6d00ca;stroke-width:15;stroke-linecap:round;stroke-linejoin:round;stroke-miterlimit:10"/></g></g><g><g><path d="m153.265 49.631h-40.379c-4.143 0-7.5-3.358-7.5-7.5s3.357-7.5 7.5-7.5h40.379c4.143 0 7.5 3.358 7.5 7.5s-3.358 7.5-7.5 7.5z" fill="#6d00ca"/></g></g><g><g><path d="m248.697 49.631h-40.378c-4.143 0-7.5-3.358-7.5-7.5s3.357-7.5 7.5-7.5h40.378c4.143 0 7.5 3.358 7.5 7.5s-3.357 7.5-7.5 7.5z" fill="#6d00ca"/></g></g><g><g><path d="m344.13 49.631h-40.378c-4.143 0-7.5-3.358-7.5-7.5s3.357-7.5 7.5-7.5h40.378c4.143 0 7.5 3.358 7.5 7.5s-3.358 7.5-7.5 7.5z" fill="#6d00ca"/></g></g><g><path d="m451.107 34.631h-51.923c-.283 0-.562.019-.837.049-.115-.004-.228-.016-.343-.02-4.122-.125-7.604 3.112-7.739 7.252s3.112 7.605 7.253 7.74c2.583.084 5.098.414 7.528.953.016.004.031.011.047.015 18.101 4.095 31.274 20.568 31.274 39.204v40.603h-415.658v-40.602c0-21.859 17.104-39.504 38.938-40.172 4.14-.126 7.394-3.585 7.267-7.726-.126-4.14-3.566-7.397-7.726-7.267-14.383.44-27.834 6.373-37.875 16.707-10.062 10.355-15.604 24.013-15.604 38.458v48.103c0 4.142 3.357 7.5 7.5 7.5h485.582c4.143 0 7.5-3.358 7.5-7.5v-48.103c0-30.434-24.755-55.194-55.184-55.194zm40.184 95.797h-39.923v-40.603c0-15.055-6.072-29.659-17.226-40.193h16.965c22.157 0 40.184 18.031 40.184 40.193z" fill="#6d00ca"/></g><g><circle cx="268.854" cy="266.186" fill="#007ea8" r="8.554"/></g><g><g><path d="m246.651 296.741h-36.226c-4.143 0-7.5-3.358-7.5-7.5s3.357-7.5 7.5-7.5h36.226c4.143 0 7.5 3.358 7.5 7.5s-3.357 7.5-7.5 7.5z" fill="#007ea8"/></g></g><g><circle cx="188.223" cy="266.186" fill="#007ea8" r="8.554"/></g><g><g><path d="m228.541 377.514c-4.256 0-8.514-1.039-12.397-3.119-37.87-20.289-66.476-42.954-85.024-67.367-17.089-22.495-25.374-46.383-23.958-69.081 1.751-28.087 17.938-51.689 43.299-63.134 25.149-11.35 53.952-8.164 78.074 8.373 24.122-16.539 52.921-19.729 78.067-8.382 25.367 11.446 41.559 35.051 43.311 63.143v.001c1.412 22.704-6.873 46.592-23.961 69.08-18.553 24.418-47.158 47.083-85.023 67.367-3.875 2.079-8.131 3.119-12.388 3.119zm-46.984-194.389c-8.518 0-16.962 1.767-24.925 5.36-20.203 9.117-33.099 27.956-34.499 50.395-1.189 19.057 6.049 39.483 20.931 59.073 17.236 22.686 44.207 43.955 80.163 63.219 3.327 1.782 7.296 1.783 10.616.002 35.956-19.262 62.927-40.531 80.167-63.221 14.881-19.584 22.119-40.012 20.934-59.074-1.4-22.441-14.301-41.284-34.51-50.403-21.605-9.751-46.764-6.043-67.295 9.916-2.707 2.104-6.497 2.105-9.205 0-12.966-10.077-27.778-15.267-42.377-15.267z" fill="#007ea8"/></g></g><g><path d="m85.359 7.5c-13.546 0-24.527 10.981-24.527 24.527v28.02c0 13.546 10.981 24.527 24.527 24.527 13.546 0 24.527-10.981 24.527-24.527v-28.02c0-13.546-10.981-24.527-24.527-24.527z" fill="#ffff6f"/></g><g><path d="m180.792 7.5c-13.546 0-24.527 10.981-24.527 24.527v28.02c0 13.546 10.981 24.527 24.527 24.527 13.546 0 24.527-10.981 24.527-24.527v-28.02c0-13.546-10.981-24.527-24.527-24.527z" fill="#ffff6f"/></g><g><path d="m276.225 7.5c-13.546 0-24.527 10.981-24.527 24.527v28.02c0 13.546 10.981 24.527 24.527 24.527 13.546 0 24.527-10.981 24.527-24.527v-28.02c0-13.546-10.981-24.527-24.527-24.527z" fill="#ffff6f"/></g><g><path d="m371.657 7.5c-13.546 0-24.527 10.981-24.527 24.527v28.02c0 13.546 10.981 24.527 24.527 24.527 13.546 0 24.527-10.981 24.527-24.527v-28.02c0-13.546-10.981-24.527-24.527-24.527z" fill="#ffff6f"/></g><g><g><path d="m85.359 92.074c-17.66 0-32.027-14.367-32.027-32.027v-28.02c0-17.66 14.367-32.027 32.027-32.027 17.659 0 32.026 14.367 32.026 32.027v28.02c.001 17.66-14.366 32.027-32.026 32.027zm0-77.074c-9.389 0-17.027 7.638-17.027 17.027v28.02c0 9.389 7.639 17.027 17.027 17.027s17.026-7.639 17.026-17.027v-28.02c.001-9.389-7.637-17.027-17.026-17.027z" fill="#f90"/></g></g><g><g><path d="m180.792 92.074c-17.66 0-32.027-14.367-32.027-32.027v-28.02c0-17.66 14.367-32.027 32.027-32.027s32.027 14.367 32.027 32.027v28.02c0 17.66-14.367 32.027-32.027 32.027zm0-77.074c-9.389 0-17.027 7.638-17.027 17.027v28.02c0 9.389 7.639 17.027 17.027 17.027s17.027-7.639 17.027-17.027v-28.02c0-9.389-7.638-17.027-17.027-17.027z" fill="#f90"/></g></g><g><g><path d="m276.225 92.074c-17.66 0-32.027-14.367-32.027-32.027v-28.02c-.001-17.66 14.366-32.027 32.027-32.027s32.027 14.367 32.027 32.027v28.02c0 17.66-14.367 32.027-32.027 32.027zm0-77.074c-9.389 0-17.027 7.638-17.027 17.027v28.02c0 9.389 7.639 17.027 17.027 17.027s17.027-7.639 17.027-17.027v-28.02c0-9.389-7.639-17.027-17.027-17.027z" fill="#f90"/></g></g><g><g><path d="m371.657 92.074c-17.66 0-32.027-14.367-32.027-32.027v-28.02c0-17.66 14.367-32.027 32.027-32.027s32.027 14.367 32.027 32.027v28.02c.001 17.66-14.367 32.027-32.027 32.027zm0-77.074c-9.389 0-17.027 7.638-17.027 17.027v28.02c0 9.389 7.639 17.027 17.027 17.027s17.027-7.639 17.027-17.027v-28.02c.001-9.389-7.638-17.027-17.027-17.027z" fill="#f90"/></g></g></g></svg>