<svg id="Capa_1" enable-background="new 0 0 512 512" height="512" viewBox="0 0 512 512" width="512" xmlns="http://www.w3.org/2000/svg"><g><path d="m342.846 431.637v-73.98l-49.779 12.117v52.693h-16.648c-13.745 0-24.885 11.14-24.885 24.885s11.14 24.885 24.885 24.885h41.543c9.611 0 17.94-5.447 22.084-13.427-3.263-6.255-2.855-12.494-2.749-12.812.286-5.58 2.598-10.82 5.549-14.361z" fill="#88f8d8"/><path d="m378.798 348.905v73.561h-16.658c-12.309 0-24.114 9.323-24.844 23.531-.029.086-.041 1.191-.041 1.354 0 13.685 11.082 24.885 24.885 24.885h41.543c13.745 0 24.884-11.14 24.884-24.885v-110.56z" fill="#88f8d8"/><path d="m504.5 245.235c0 11.642-.79 22.915-2.257 33.593-3.426 24.946-21.664 45.297-46.128 51.256l-277.197 67.473c27.705-13.724 48.63-76.705 48.63-152.323 0-75.608-20.925-138.588-48.63-152.313l277.197 67.463c24.464 5.96 42.702 26.31 46.128 51.256 1.467 10.68 2.257 21.953 2.257 33.595z" fill="#ffff6f"/><path d="m178.919 92.923-.021-.01c-3.672-1.805-7.457-2.759-11.334-2.759-13.035 0-25.097 10.753-34.936 29.008 10.44 11.377 17.955 25.484 21.341 41.147 2.394 11.074-4.642 21.992-15.716 24.387-10.074 2.177-20.033-3.465-23.535-12.888-4.553 21.858-7.139 46.862-7.139 73.429 0 26.142 2.505 50.766 6.922 72.373.964-.243 1.933-.474 2.909-.685 18.211-3.937 32.522-18.249 36.46-36.46 2.4-11.101 13.337-18.104 24.387-15.716 11.074 2.395 18.11 13.313 15.716 24.387-7.332 33.912-33.982 60.561-67.893 67.893-.028.006-.056.014-.084.02 10.782 26.801 25.429 43.282 41.569 43.282 3.877 0 7.662-.954 11.334-2.759l.021-.01c27.705-13.724 48.63-76.705 48.63-152.323-.001-75.611-20.926-138.592-48.631-152.316z" fill="#f90"/><g><path d="m153.869 280.463c-3.938 18.212-18.249 32.523-36.46 36.46-33.912 7.331-60.562 33.981-67.893 67.893-2.394 11.074 4.642 21.992 15.717 24.386 11.072 2.395 21.993-4.642 24.386-15.717 3.937-18.211 18.249-32.523 36.46-36.46 33.912-7.331 60.561-33.981 67.893-67.893 2.394-11.074-4.642-21.992-15.716-24.387-11.049-2.386-21.986 4.617-24.387 15.718z" fill="#ff9bff"/></g><circle cx="29.747" cy="186.893" fill="#ffff6f" r="22.247"/><circle cx="62.251" cy="277.371" fill="#88f8d8" r="22.247"/><circle cx="405.72" cy="244.118" fill="#f95116" r="11.005"/><g><path d="m377.154 281.28h-46.606c-4.143 0-7.5-3.358-7.5-7.5s3.357-7.5 7.5-7.5h46.606c4.143 0 7.5 3.358 7.5 7.5s-3.357 7.5-7.5 7.5z" fill="#f95116"/></g><circle cx="301.982" cy="244.118" fill="#f95116" r="11.005"/><g fill="#007ea8"><path d="m342.846 357.656-49.779 12.117v31.671l49.779-12.117z"/><path d="m428.567 332.29c-4.143 0-7.5 3.358-7.5 7.5v107.561c0 9.586-7.799 17.384-17.385 17.384h-41.542c-7.189 0-13.374-4.386-16.016-10.621-1.192-2.816-1.643-5.951-1.174-9.317 1.335-8.805 8.841-14.831 17.191-14.831h16.657c4.143 0 7.5-3.358 7.5-7.5v-70.561c0-4.142-3.357-7.5-7.5-7.5s-7.5 3.358-7.5 7.5v63.061h-9.157c-4.158 0-8.135.788-11.795 2.216v-56.526c0-4.142-3.357-7.5-7.5-7.5s-7.5 3.358-7.5 7.5v68.477c-3.407 5.005-5.198 10.668-5.525 16.231-.313 3.37.218 8.332 1.784 12.757-3.26 4.143-8.246 6.614-13.643 6.614h-41.543c-9.586 0-17.385-7.798-17.385-17.384s7.799-17.385 17.385-17.385h16.647c4.143 0 7.5-3.358 7.5-7.5v-49.693c0-4.142-3.357-7.5-7.5-7.5s-7.5 3.358-7.5 7.5v42.193h-9.147c-17.857 0-32.385 14.528-32.385 32.385s14.527 32.384 32.385 32.384h41.543c8.375 0 16.214-3.193 22.109-8.714 5.788 5.4 13.547 8.714 22.069 8.714h41.542c17.857 0 32.385-14.527 32.385-32.384v-107.561c0-4.142-3.357-7.5-7.5-7.5z"/><path d="m428.567 336.791-49.769 12.114v31.67l49.769-12.114z"/></g><path d="m509.674 210.622c-3.876-28.225-24.202-50.804-51.785-57.523l-276.503-67.295c-4.508-2.083-9.152-3.151-13.822-3.151-10.351 0-25.692 5.237-40.001 30.186-2.061 3.593-.818 8.177 2.774 10.237 3.595 2.061 8.178.819 10.237-2.774 4.852-8.458 14.809-22.648 26.989-22.648 2.677 0 5.302.651 8.026 1.99 21.553 10.677 44.459 65.332 44.459 145.592 0 80.267-22.906 134.926-44.459 145.603-2.725 1.339-5.35 1.99-8.026 1.99-11.829 0-24.209-13.487-33.965-37.002-1.588-3.826-5.979-5.642-9.802-4.053-3.826 1.587-5.641 5.976-4.054 9.801 12.375 29.828 29.357 46.254 47.82 46.254 4.656 0 9.287-1.063 13.816-3.15l276.511-67.306c27.581-6.719 47.907-29.298 51.783-57.523 3.042-22.141 3.165-46.191.002-69.228zm-14.861 67.186c-3.031 22.08-18.918 39.739-40.471 44.99l-250.644 61.01c24.081-36.122 31.351-95.175 31.351-138.573 0-42.863-7.506-102.997-31.351-138.563l250.642 61.001c21.555 5.25 37.441 22.91 40.473 44.99 2.916 21.215 2.917 43.916 0 65.145z" fill="#f95116"/><g><path d="m106.692 316.815c-4.389-22.341-6.614-46.424-6.614-71.58 0-25.857 2.344-50.536 6.966-73.349 1.97-9.716 16.673-6.755 14.701 2.979-4.361 21.528-6.667 45.861-6.667 70.371 0 24.187 2.131 47.297 6.333 68.688 1.908 9.704-12.782 12.753-14.719 2.891z" fill="#f95116"/></g><g><g><path d="m69.624 417.176c-1.987 0-3.988-.212-5.978-.643-15.097-3.264-24.725-18.203-21.462-33.301 7.953-36.783 36.858-65.688 73.64-73.64 15.341-3.317 27.397-15.373 30.714-30.715 3.264-15.096 18.2-24.723 33.303-21.462 15.099 3.265 24.726 18.204 21.463 33.303-7.953 36.782-36.858 65.687-73.64 73.639-15.341 3.317-27.397 15.373-30.714 30.714-1.581 7.314-5.916 13.575-12.207 17.629-4.58 2.952-9.798 4.476-15.119 4.476zm91.576-135.128c-4.559 21.082-21.125 37.648-42.206 42.206-31.042 6.711-55.437 31.105-62.147 62.148-1.517 7.014 2.956 13.954 9.971 15.471 3.398.734 6.877.102 9.8-1.781 2.923-1.884 4.937-4.792 5.671-8.19 4.559-21.082 21.125-37.648 42.206-42.206 31.042-6.711 55.437-31.105 62.147-62.147 1.517-7.014-2.956-13.955-9.97-15.472-7.012-1.515-13.955 2.958-15.472 9.971z" fill="#e207b9"/></g></g><g><path d="m29.747 216.64c-16.402 0-29.747-13.344-29.747-29.747s13.345-29.747 29.747-29.747 29.747 13.345 29.747 29.747-13.345 29.747-29.747 29.747zm0-44.494c-8.132 0-14.747 6.616-14.747 14.747s6.615 14.747 14.747 14.747 14.747-6.615 14.747-14.747-6.615-14.747-14.747-14.747z" fill="#f90"/></g><g><path d="m62.251 307.118c-16.402 0-29.747-13.344-29.747-29.747 0-16.402 13.345-29.747 29.747-29.747s29.747 13.344 29.747 29.747c0 16.402-13.345 29.747-29.747 29.747zm0-44.494c-8.132 0-14.747 6.615-14.747 14.747s6.615 14.747 14.747 14.747 14.747-6.616 14.747-14.747-6.615-14.747-14.747-14.747z" fill="#007ea8"/></g><g><path d="m113.865 168.978c-3.938-18.212-18.249-32.523-36.46-36.46-33.912-7.331-60.562-33.981-67.893-67.893-2.394-11.075 4.642-21.993 15.717-24.387 11.072-2.395 21.993 4.642 24.386 15.717 3.937 18.211 18.249 32.523 36.46 36.46 33.912 7.331 60.561 33.981 67.893 67.893 2.394 11.074-4.642 21.992-15.716 24.387-11.049 2.387-21.986-4.615-24.387-15.717z" fill="#9448f5"/></g><g><g><path d="m133.914 192.661c-12.904 0-24.544-8.986-27.38-22.097-3.316-15.342-15.373-27.398-30.714-30.715-36.781-7.952-65.687-36.857-73.64-73.639-3.262-15.1 6.366-30.039 21.464-33.302 7.313-1.583 14.805-.221 21.096 3.833s10.626 10.315 12.207 17.629c3.316 15.341 15.373 27.397 30.714 30.714 36.781 7.952 65.687 36.856 73.64 73.638 3.263 15.099-6.365 30.039-21.463 33.303-1.986.429-3.971.636-5.924.636zm-12.718-25.268c1.516 7.014 8.455 11.489 15.472 9.97 7.014-1.516 11.486-8.457 9.97-15.472-6.711-31.042-31.105-55.436-62.147-62.146-21.082-4.557-37.648-21.124-42.207-42.205-.734-3.398-2.748-6.307-5.671-8.19-2.922-1.883-6.405-2.515-9.799-1.781-7.016 1.517-11.488 8.457-9.972 15.471 6.711 31.042 31.105 55.437 62.147 62.147 21.082 4.558 37.649 21.125 42.207 42.206z" fill="#6d00ca"/></g></g></g></svg>