<svg id="Capa_1" enable-background="new 0 0 512 512" height="512" viewBox="0 0 512 512" width="512" xmlns="http://www.w3.org/2000/svg"><g><path d="m247.55 191.418s-15.22 105.23-76.1 148.48h-93.95v-50.15c0-67.86 38.06-126.99 93.95-157.17 17.13 21.16 42.69 40.94 76.1 58.84z" fill="#a4bcff"/><path d="m340.55 394.358-46.06 109.73h-76.98l-46.06-109.73c15.04 0 27.23-12.19 27.23-27.23s-12.19-27.23-27.23-27.23c60.88-43.25 76.1-148.48 76.1-148.48 5.29 2.83 11.61 2.84 16.9 0 0 0 15.22 105.23 76.1 148.48-15.04 0-27.23 12.19-27.23 27.23s12.19 27.23 27.23 27.23z" fill="#7181ff"/><g fill="#a4bcff"><path d="m217.51 504.088h-140.01v-109.73h93.95z"/><path d="m434.5 289.748v50.15h-93.95c-60.88-43.25-76.1-148.48-76.1-148.48 33.41-17.9 58.97-37.68 76.1-58.84 55.89 30.18 93.95 89.31 93.95 157.17z"/><path d="m434.5 394.358v109.73h-140.01l46.06-109.73z"/></g><g><path d="m337.724 345.326c-1.58 0-3.174-.498-4.529-1.527-55.216-41.924-72.793-131.265-75.756-148.749-.692-4.083 2.058-7.956 6.142-8.647 4.082-.689 7.956 2.058 8.647 6.142 1.214 7.163 6.032 32.749 17.071 61.239 13.788 35.586 31.608 61.853 52.966 78.069 3.299 2.505 3.943 7.209 1.438 10.508-1.475 1.943-3.714 2.965-5.979 2.965z" fill="#2115c2"/></g><g><path d="m174.687 345.014c-2.254 0-4.481-1.011-5.958-2.938-2.521-3.287-1.898-7.995 1.39-10.515 21.31-16.334 39.076-42.696 52.806-78.353 10.94-28.412 15.687-53.758 16.881-60.849.688-4.083 4.55-6.837 8.641-6.151 4.085.688 6.839 4.557 6.15 8.641-2.933 17.42-20.349 106.456-75.353 148.617-1.361 1.043-2.967 1.548-4.557 1.548z" fill="#2115c2"/></g><path d="m198.68 367.128c0 15.04-12.19 27.23-27.23 27.23h-93.95v-54.46h93.95c15.04 0 27.23 12.19 27.23 27.23z" fill="#ffff6f"/><path d="m434.5 339.898v54.46h-93.95c-15.04 0-27.23-12.19-27.23-27.23s12.19-27.23 27.23-27.23z" fill="#ffff6f"/><path d="m434.5 496.588h-128.728l40.608-96.743c1.604-3.819-.193-8.215-4.012-9.818-3.822-1.602-8.215.193-9.818 4.013l-.007.016c-.001.004-.003.007-.005.011l-43.034 102.522h-67.009l-43.045-102.55c-.401-.955-.977-1.783-1.674-2.464-1.395-1.361-3.277-2.13-5.225-2.135-.975-.003-1.965.185-2.92.586-2.864 1.202-4.59 3.976-4.598 6.898-.003.974.186 1.965.586 2.92l40.608 96.743h-128.727c-4.143 0-7.5 3.358-7.5 7.5s3.357 7.5 7.5 7.5h357c4.143 0 7.5-3.358 7.5-7.5s-3.357-7.499-7.5-7.499z" fill="#2115c2"/><g><path d="m171.45 401.858h-90.95c-4.143 0-7.5-3.358-7.5-7.5s3.357-7.5 7.5-7.5h90.95c10.88 0 19.73-8.851 19.73-19.73s-8.851-19.73-19.73-19.73h-90.95c-4.143 0-7.5-3.358-7.5-7.5s3.357-7.5 7.5-7.5h90.95c19.15 0 34.73 15.58 34.73 34.73s-15.579 34.73-34.73 34.73z" fill="#f90"/></g><g><path d="m431.5 401.858h-90.949c-19.15 0-34.73-15.58-34.73-34.73s15.58-34.73 34.73-34.73h90.949c4.143 0 7.5 3.358 7.5 7.5s-3.357 7.5-7.5 7.5h-90.949c-10.88 0-19.73 8.851-19.73 19.73s8.851 19.73 19.73 19.73h90.949c4.143 0 7.5 3.358 7.5 7.5s-3.357 7.5-7.5 7.5z" fill="#f90"/></g><g fill="#f90"><path d="m171.45 132.578c-55.89 30.18-93.95 89.31-93.95 157.17v214.34h-70v-214.34c0-98.3 57.08-183.26 139.9-223.56-.05.56-.1 1.13-.14 1.71-1.24 19.93 6.17 41.09 21.43 61.18.89 1.17 1.82 2.34 2.76 3.5z"/><path d="m504.5 289.748v214.34h-70v-214.34c0-67.86-38.06-126.99-93.95-157.17.94-1.16 1.87-2.33 2.76-3.5 15.26-20.09 22.67-41.25 21.43-61.18-.04-.58-.09-1.14-.14-1.71 82.82 40.3 139.9 125.26 139.9 223.56z"/></g><g><g><path d="m77.5 511.588h-70c-4.143 0-7.5-3.358-7.5-7.5v-214.34c0-48.71 13.736-96.091 39.726-137.022 25.289-39.83 60.985-71.889 103.229-92.711 3.714-1.831 8.21-.304 10.043 3.411 1.831 3.715.304 8.212-3.412 10.043-39.772 19.604-73.383 49.792-97.196 87.297-24.461 38.523-37.39 83.124-37.39 128.981v206.84h55v-206.84c0-67.716 36.948-130.163 96.426-162.972 3.627-2 8.188-.682 10.189 2.945 2 3.627.682 8.189-2.945 10.189-54.693 30.171-88.67 87.586-88.67 149.838v214.34c0 4.143-3.357 7.501-7.5 7.501z" fill="#f95116"/></g><g><path d="m504.5 511.588h-70c-4.143 0-7.5-3.358-7.5-7.5v-214.34c0-61.994-33.769-119.293-88.128-149.537-3.619-2.014-4.921-6.581-2.907-10.2s6.579-4.92 10.2-2.907c59.113 32.887 95.835 95.209 95.835 162.643v206.84h55v-206.84c0-45.618-12.803-90.02-37.023-128.407-23.576-37.364-56.888-67.539-96.335-87.263-3.704-1.852-5.206-6.357-3.354-10.062 1.852-3.704 6.354-5.208 10.063-3.354 41.896 20.948 77.274 52.995 102.312 92.675 25.734 40.786 39.337 87.957 39.337 136.411v214.34c0 4.143-3.357 7.501-7.5 7.501z" fill="#f95116"/></g></g><path d="m364.741 67.897c-3.216-51.55-62.63-79.708-108.743-43.865-46.082-35.817-105.522-7.711-108.738 43.865-1.244 19.935 6.169 41.092 21.429 61.18 17.087 22.489 43.62 43.462 78.858 62.341 5.293 2.835 11.61 2.839 16.903 0 35.243-18.879 61.771-39.852 78.858-62.341 15.264-20.088 22.673-41.245 21.433-61.18z" fill="#ff63ed"/><circle cx="294.493" cy="94.414" fill="#e207b9" r="8.167"/><g><path d="m273.294 123.926h-34.588c-4.143 0-7.5-3.358-7.5-7.5s3.357-7.5 7.5-7.5h34.588c4.143 0 7.5 3.358 7.5 7.5s-3.357 7.5-7.5 7.5z" fill="#e207b9"/></g><circle cx="217.508" cy="94.414" fill="#e207b9" r="8.167"/><path d="m372.227 67.432v-.001c-1.681-26.949-17.214-49.594-41.552-60.576-24.052-10.855-51.585-7.844-74.676 7.902-23.093-15.744-50.628-18.751-74.684-7.894-24.331 10.98-39.86 33.621-41.54 60.565v.001c-1.357 21.754 6.575 44.64 22.942 66.184 17.741 23.35 45.09 45.022 81.287 64.415 7.33 3.927 16.293 4.119 23.973.006.004-.002.009-.004.013-.006 36.192-19.387 63.54-41.057 81.283-64.409.001-.002.003-.004.005-.006 16.368-21.536 24.302-44.421 22.949-66.181zm-111.318 117.374c-.001.001-.003.002-.004.003-3.071 1.646-6.74 1.645-9.816-.002-34.285-18.368-59.999-38.644-76.427-60.267-14.159-18.638-21.045-38.063-19.915-56.175 1.328-21.296 13.567-39.176 32.739-47.828 20.52-9.26 44.41-5.739 63.911 9.418 2.707 2.095 6.496 2.097 9.205 0 19.502-15.158 43.39-18.682 63.904-9.426 19.178 8.654 31.421 26.537 32.75 47.837 1.126 18.117-5.761 37.542-19.92 56.174-.001.001-.001.002-.002.004-16.432 21.623-42.144 41.899-76.425 60.262z" fill="#e207b9"/></g></svg>