<svg id="Capa_1" enable-background="new 0 0 512 512" height="512" viewBox="0 0 512 512" width="512" xmlns="http://www.w3.org/2000/svg"><g><path d="m198.464 134.597h115.073v45.113h-115.073z" fill="#ffd600"/><path d="m319.941 7.5h-127.881c-17.872 0-32.359 14.488-32.359 32.359v62.379c0 17.872 14.488 32.359 32.359 32.359h127.88c17.872 0 32.359-14.488 32.359-32.359v-62.379c.001-17.871-14.487-32.359-32.358-32.359z" fill="#ffff6f"/><circle cx="303.466" cy="60.648" fill="#f95116" r="10.071"/><g><path d="m277.326 95.292h-42.65c-4.143 0-7.5-3.358-7.5-7.5s3.357-7.5 7.5-7.5h42.65c4.143 0 7.5 3.358 7.5 7.5s-3.358 7.5-7.5 7.5z" fill="#f95116"/></g><circle cx="208.535" cy="60.648" fill="#f95116" r="10.071"/><path d="m319.94 0h-127.88c-21.979 0-39.859 17.881-39.859 39.859v62.379c0 21.611 17.291 39.248 38.764 39.832v34.641c0 4.142 3.357 7.5 7.5 7.5s7.5-3.358 7.5-7.5v-34.613h100.072v34.613c0 4.142 3.357 7.5 7.5 7.5s7.5-3.358 7.5-7.5v-34.641c21.472-.585 38.763-18.221 38.763-39.832v-62.379c-.001-21.978-17.881-39.859-39.86-39.859zm24.859 102.238c0 13.708-11.152 24.859-24.859 24.859-27.749 0-99.9 0-127.88 0-13.707 0-24.859-11.152-24.859-24.859v-62.379c0-13.707 11.152-24.859 24.859-24.859h127.88c13.707 0 24.859 11.152 24.859 24.859z" fill="#f95116"/><path d="m313.537 179.71h-115.073c-20.976 0-37.98 17.004-37.98 37.98v19.803h191.033v-19.803c0-20.975-17.004-37.98-37.98-37.98z" fill="#a4bcff"/><g><path d="m351.517 241.993c-4.143 0-7.5-3.358-7.5-7.5v-16.803c0-16.807-13.674-30.48-30.48-30.48h-115.073c-16.807 0-30.48 13.673-30.48 30.48v16.803c0 4.142-3.357 7.5-7.5 7.5s-7.5-3.358-7.5-7.5v-16.803c0-25.078 20.402-45.48 45.48-45.48h115.072c25.078 0 45.48 20.402 45.48 45.48v16.803c.001 4.142-3.356 7.5-7.499 7.5z" fill="#2115c2"/></g><path d="m213.951 504.5h-46.337c-23.681 0-45.624-12.393-57.866-32.649l-47.321-78.364c-10.043-16.641-13.879-35.652-11.79-54.03h109.566c-1.506 14.271.372 28.903 5.755 42.631z" fill="#b98eff"/><path d="m213.489 237.493-39.83 63.219c-7.492 11.881-12.011 25.157-13.457 38.745h-109.566c1.948-17.113 9.049-33.653 21.07-47.201l21.953-24.725c16.962-19.101 41.286-30.038 66.825-30.038z" fill="#9448f5"/><path d="m351.798 339.457h-191.595c1.446-13.588 5.965-26.864 13.457-38.745l39.83-63.219h85.022l39.83 63.219c7.491 11.881 12.01 25.157 13.456 38.745z" fill="#b98eff"/><path d="m346.044 382.089-47.995 122.411h-84.098l-47.994-122.411c-5.383-13.728-7.261-28.361-5.755-42.631h191.596c1.507 14.27-.371 28.902-5.754 42.631z" fill="#9448f5"/><path d="m449.574 393.487-47.321 78.364c-12.242 20.256-34.186 32.649-57.866 32.649h-46.337l47.994-122.411c5.383-13.728 7.261-28.361 5.755-42.631h109.566c2.089 18.377-1.748 37.388-11.791 54.029z" fill="#b98eff"/><path d="m461.365 339.457h-109.567c-1.446-13.588-5.965-26.864-13.457-38.745l-39.83-63.219h53.006c25.539 0 49.862 10.937 66.825 30.038l21.953 24.725c12.021 13.548 19.121 30.088 21.07 47.201z" fill="#9448f5"/><path d="m445.903 287.277-21.953-24.726c-18.374-20.691-44.774-32.558-72.433-32.558-9.808 0-181.559 0-191.033 0-27.657 0-54.059 11.867-72.434 32.558l-21.954 24.727c-27.47 30.956-30.904 75.596-10.09 110.086l47.322 78.366c13.522 22.372 38.154 36.27 64.286 36.27h176.772c26.132 0 50.765-13.898 64.287-36.272l47.321-78.363c.001 0 .001-.001.002-.002 20.752-34.392 17.455-79.042-10.093-110.086zm-94.386-42.284c23.374 0 45.687 10.03 61.216 27.517l21.952 24.724c8.861 9.987 14.937 21.861 17.821 34.723h-94.203c-2.144-12.064-6.706-24.283-13.616-35.243l-32.586-51.721zm-58.583 252.007h-73.867l-46.128-117.649c-3.924-10.01-5.969-21.006-5.702-32.394h177.527c.296 10.608-1.623 21.982-5.703 32.394zm-75.304-252.007h76.742l37.626 59.72c5.087 8.069 8.882 17.231 11.02 27.244h-174.034c2.095-9.872 5.883-19.099 11.021-27.247zm-140.316 52.243 21.952-24.725c15.53-17.488 37.844-27.518 61.218-27.518h39.416l-32.584 51.719c-6.496 10.303-11.356 22.458-13.618 35.245h-94.203c2.885-12.862 8.959-24.736 17.819-34.721zm38.854 170.738-47.32-78.362c-7.853-13.012-11.688-27.637-11.238-42.655h94.616c-.267 12.445 1.982 25.71 6.748 37.87l43.981 112.173h-35.341c-20.912 0-40.626-11.123-51.446-29.026zm326.985-78.362.002-.002-47.32 78.361c-10.822 17.906-30.536 29.029-51.449 29.029h-35.34l43.98-112.173c4.634-11.819 7.008-24.969 6.749-37.87h94.616c.449 15.017-3.385 29.642-11.238 42.655z" fill="#6d00ca"/></g></svg>