<svg id="Capa_1" enable-background="new 0 0 512 512" height="512" viewBox="0 0 512 512" width="512" xmlns="http://www.w3.org/2000/svg"><g><circle cx="256" cy="213.417" fill="#88f8d8" r="205.917"/><path d="m393.656 177.746c-9.837-9.542-15.298-22.722-15.09-36.425v-.028c.425-28.032-22.409-50.867-50.442-50.442h-.028c-13.703.208-26.883-5.253-36.425-15.09-19.522-20.127-51.82-20.127-71.343 0-9.541 9.837-22.722 15.298-36.425 15.09h-.028c-28.032-.425-50.867 22.409-50.442 50.442v.028c.208 13.703-5.252 26.883-15.09 36.425-20.127 19.522-20.127 51.82 0 71.343 9.837 9.541 15.298 22.722 15.09 36.425v.028c-.425 28.032 22.409 50.867 50.442 50.442h.028c13.703-.208 26.883 5.252 36.425 15.09 19.522 20.127 51.82 20.127 71.343 0 9.541-9.837 22.722-15.298 36.425-15.09h.028c28.032.425 50.867-22.409 50.442-50.442v-.029c-.208-13.703 5.253-26.883 15.09-36.425 20.127-19.522 20.127-51.82 0-71.342z" fill="#ffff6f"/><circle cx="256" cy="213.417" fill="#ffd600" r="81.648"/><path d="m282.971 417.575v39.937h-15.722c-12.975 0-23.494 10.519-23.494 23.494s10.519 23.494 23.494 23.494h39.216c12.975 0 23.494-10.519 23.494-23.494v-75.368c-14.906 5.739-30.644 9.799-46.988 11.937z" fill="#ff63ed"/><path d="m249.034 419.204c-16.207-.539-31.938-2.951-46.987-7.027v45.336h-15.723c-12.975 0-23.494 10.519-23.494 23.494s10.519 23.494 23.494 23.494h39.216c9.074 0 16.94-5.147 20.854-12.678-1.683-3.238-2.64-6.914-2.64-10.816 0-5.627 1.98-10.79 5.279-14.835v-46.968z" fill="#ff63ed"/><g><path d="m214.945 356.294c-8.068-8.318-19.338-12.989-30.927-12.813-32.294.488-58.574-25.724-58.083-58.054.176-11.615-4.494-22.888-12.812-30.956-23.142-22.446-23.231-59.578 0-82.11 8.318-8.068 12.988-19.341 12.813-30.928-.495-32.609 26.066-58.572 58.054-58.083 11.611.176 22.888-4.494 30.956-12.812 22.446-23.142 59.578-23.231 82.11 0 8.067 8.318 19.346 12.988 30.927 12.813 32.18-.488 58.575 25.624 58.083 58.054-.176 11.615 4.494 22.888 12.812 30.956 23.143 22.447 23.231 59.578 0 82.11-8.318 8.068-12.988 19.341-12.813 30.928.486 32.067-25.514 58.573-58.054 58.083-11.641-.177-22.888 4.494-30.956 12.812-22.446 23.142-59.578 23.231-82.11 0zm-30.325-27.817c15.431 0 30.355 6.303 41.092 17.373 16.559 17.073 43.952 17.139 60.575 0 10.936-11.275 26.196-17.608 41.922-17.367 23.83.358 43.219-18.973 42.857-42.828-.238-15.735 6.092-31.015 17.367-41.951 17.073-16.56 17.138-43.953 0-60.575-11.275-10.936-17.605-26.216-17.367-41.922.363-23.988-19.136-43.217-42.828-42.857-15.726.238-31.015-6.091-41.951-17.367-16.559-17.072-43.952-17.139-60.575 0-10.936 11.275-26.222 17.606-41.922 17.367-24.002-.363-43.216 19.143-42.857 42.828.238 15.735-6.092 31.015-17.367 41.951-17.073 16.56-17.138 43.953 0 60.575 11.275 10.936 17.605 26.216 17.367 41.922-.338 22.312 16.772 42.851 43.687 42.851z" fill="#f95116"/></g><g><path d="m256 302.565c-49.156 0-89.147-39.992-89.147-89.148s39.991-89.148 89.147-89.148 89.148 39.992 89.148 89.148-39.992 89.148-89.148 89.148zm0-163.296c-40.885 0-74.147 33.263-74.147 74.148s33.262 74.148 74.147 74.148 74.148-33.263 74.148-74.148-33.263-74.148-74.148-74.148z" fill="#f95116"/></g><g fill="#e207b9"><path d="m329.958 401.139c-4.142 0-7.5 3.358-7.5 7.5v72.368c0 8.819-7.175 15.994-15.994 15.994h-39.216c-8.806 0-15.994-7.208-15.994-15.994 0-8.909 7.258-15.994 15.994-15.994h15.722c4.142 0 7.5-3.358 7.5-7.5v-36.938c0-4.142-3.358-7.5-7.5-7.5s-7.5 3.358-7.5 7.5v29.438h-8.222c-3.765 0-7.374.676-10.715 1.911v-29.72c0-4.143-3.358-7.5-7.5-7.5s-7.5 3.357-7.5 7.5v41.504c-3.316 4.923-5.279 10.989-5.279 17.298 0 3.143.507 6.617 1.692 10.092-3.003 3.701-7.522 5.901-12.407 5.901h-39.216c-8.819 0-15.994-7.175-15.994-15.994s7.175-15.994 15.994-15.994h15.723c4.142 0 7.5-3.358 7.5-7.5v-42.336c0-4.142-3.358-7.5-7.5-7.5s-7.5 3.358-7.5 7.5v34.836h-8.223c-17.09 0-30.994 13.904-30.994 30.994s13.906 30.995 30.996 30.995h39.216c7.877 0 15.257-2.957 20.866-8.075 5.509 5.014 12.825 8.075 20.843 8.075h39.216c17.09 0 30.994-13.904 30.994-30.994v-72.368c-.002-4.141-3.36-7.499-7.502-7.499z"/><path d="m202.047 440.181c15.271 3.555 30.992 5.606 46.987 6.066v-27.044c-16.207-.539-31.938-2.951-46.987-7.027z"/><path d="m282.971 444.827c16.089-1.819 31.818-5.249 46.987-10.237v-28.951c-14.905 5.739-30.643 9.798-46.987 11.937z"/></g><g><path d="m256 426.834c-117.679 0-213.417-95.738-213.417-213.417s95.738-213.417 213.417-213.417 213.417 95.738 213.417 213.417-95.738 213.417-213.417 213.417zm0-411.834c-109.408 0-198.417 89.009-198.417 198.417s89.009 198.417 198.417 198.417 198.417-89.01 198.417-198.417-89.009-198.417-198.417-198.417z" fill="#007ea8"/></g><circle cx="297.368" cy="210.982" fill="#f95116" r="8.777"/><g><path d="m274.586 242.138h-37.171c-4.142 0-7.5-3.358-7.5-7.5s3.358-7.5 7.5-7.5h37.171c4.142 0 7.5 3.358 7.5 7.5s-3.358 7.5-7.5 7.5z" fill="#f95116"/></g><circle cx="214.632" cy="210.982" fill="#f95116" r="8.777"/></g></svg>