<svg id="Capa_1" enable-background="new 0 0 512 512" height="512" viewBox="0 0 512 512" width="512" xmlns="http://www.w3.org/2000/svg"><g><g><path d="m336.578 400.308v80.521c0 13.073-10.598 23.671-23.671 23.671h-39.513c-13.073 0-23.671-10.598-23.671-23.671s10.598-23.671 23.671-23.671h15.841v-56.849h47.343z" fill="#ff63ed"/></g><g><path d="m226.41 400.308v80.521c0 13.073-10.598 23.671-23.671 23.671h-39.513c-13.073 0-23.671-10.598-23.671-23.671s10.598-23.671 23.671-23.671h15.841v-56.849h47.343z" fill="#ff63ed"/></g><path d="m370.351 174.855c-22.116 0-42.214-8.595-57.176-22.608-14.961 14.013-35.059 22.608-57.176 22.608s-42.214-8.595-57.176-22.608c-14.961 14.013-35.059 22.608-57.176 22.608-14.162 0-27.495-3.532-39.187-9.742v162.234c0 40.295 32.665 72.96 72.96 72.96h161.157c40.295 0 72.96-32.665 72.96-72.96v-162.234c-11.691 6.211-25.023 9.742-39.186 9.742z" fill="#b98eff"/><g fill="#ddbeff"><path d="m370.351 7.5c-22.116 0-42.214 8.595-57.176 22.608-14.961-14.013-35.059-22.608-57.175-22.608s-42.214 8.595-57.176 22.608c-14.961-14.013-35.059-22.608-57.175-22.608-46.214 0-83.678 37.464-83.678 83.678s37.464 83.678 83.678 83.678c22.116 0 42.214-8.595 57.176-22.608 14.961 14.013 35.059 22.608 57.176 22.608s42.214-8.595 57.176-22.608c14.961 14.013 35.059 22.608 57.176 22.608 46.214 0 83.678-37.464 83.678-83.678s-37.466-83.678-83.68-83.678z"/><path d="m256 211.033c-11.212 0-20.302 9.089-20.302 20.302v74.586c0 11.212 9.089 20.302 20.302 20.302 11.212 0 20.302-9.089 20.302-20.302v-74.586c0-11.213-9.09-20.302-20.302-20.302z"/><path d="m169.551 211.033c-11.212 0-20.302 9.089-20.302 20.302v74.586c0 11.212 9.089 20.302 20.302 20.302s20.302-9.089 20.302-20.302v-74.586c0-11.213-9.09-20.302-20.302-20.302z"/><path d="m342.449 211.033c11.212 0 20.302 9.089 20.302 20.302v74.586c0 11.212-9.089 20.302-20.302 20.302-11.212 0-20.302-9.089-20.302-20.302v-74.586c0-11.213 9.09-20.302 20.302-20.302z"/></g><circle cx="308.097" cy="85.798" fill="#6d00ca" r="11.054"/><g><path d="m279.406 123.09h-46.812c-4.142 0-7.5-3.358-7.5-7.5s3.358-7.5 7.5-7.5h46.812c4.142 0 7.5 3.358 7.5 7.5s-3.358 7.5-7.5 7.5z" fill="#6d00ca"/></g><circle cx="203.903" cy="85.798" fill="#6d00ca" r="11.054"/><g><g><path d="m312.907 512h-39.513c-17.188 0-31.171-13.983-31.171-31.171s13.983-31.171 31.171-31.171h8.341v-46.349c0-4.142 3.358-7.5 7.5-7.5s7.5 3.358 7.5 7.5v53.849c0 4.142-3.358 7.5-7.5 7.5h-15.841c-8.917 0-16.171 7.254-16.171 16.171s7.254 16.171 16.171 16.171h39.513c8.917 0 16.171-7.254 16.171-16.171v-77.521c0-4.142 3.358-7.5 7.5-7.5s7.5 3.358 7.5 7.5v77.521c.001 17.188-13.983 31.171-31.171 31.171z" fill="#e207b9"/></g></g><g><g><path d="m202.739 512h-39.513c-17.188 0-31.171-13.983-31.171-31.171s13.983-31.171 31.171-31.171h8.341v-46.349c0-4.142 3.358-7.5 7.5-7.5s7.5 3.358 7.5 7.5v53.849c0 4.142-3.358 7.5-7.5 7.5h-15.841c-8.917 0-16.171 7.254-16.171 16.171s7.254 16.171 16.171 16.171h39.513c8.917 0 16.171-7.254 16.171-16.171v-77.521c0-4.142 3.358-7.5 7.5-7.5s7.5 3.358 7.5 7.5v77.521c0 17.188-13.983 31.171-31.171 31.171z" fill="#e207b9"/></g></g><path d="m179.068 400.308h47.343v31.632h-47.343z" fill="#e207b9"/><path d="m289.236 400.308h47.343v31.632h-47.343z" fill="#e207b9"/><path d="m461.529 91.178c0-50.276-40.903-91.178-91.178-91.178-20.943 0-40.999 7.119-57.175 20.174-16.177-13.055-36.233-20.174-57.176-20.174s-40.999 7.119-57.175 20.174c-16.178-13.055-36.233-20.174-57.176-20.174-50.275 0-91.178 40.902-91.178 91.178 0 33.224 17.865 62.349 44.49 78.288v157.882c0 44.366 36.094 80.46 80.46 80.46h161.157c44.366 0 80.46-36.094 80.46-80.46v-157.883c26.626-15.938 44.491-45.064 44.491-78.287zm-59.49 236.17c0 36.095-29.365 65.46-65.46 65.46h-161.157c-36.095 0-65.46-29.365-65.46-65.46v-150.676c10.286 3.825 21.057 5.683 31.688 5.683 20.943 0 40.999-7.119 57.176-20.174 16.177 13.056 36.232 20.174 57.175 20.174s40.999-7.119 57.176-20.174c16.177 13.056 36.232 20.174 57.175 20.174 10.384 0 21.209-1.786 31.688-5.683v150.676zm-31.688-159.993c-18.981 0-37.582-7.032-52.048-20.582-2.841-2.659-7.335-2.734-10.254 0-14.171 13.272-32.655 20.582-52.049 20.582-18.981 0-37.582-7.032-52.048-20.582-2.893-2.709-7.376-2.694-10.254 0-14.171 13.272-32.655 20.582-52.049 20.582-42.199 0-76.178-34.351-76.178-76.177 0-42.005 34.174-76.178 76.178-76.178 19.394 0 37.878 7.31 52.049 20.582 2.884 2.702 7.37 2.701 10.254 0 14.17-13.272 32.654-20.582 52.048-20.582s37.878 7.31 52.049 20.582c2.884 2.702 7.37 2.701 10.254 0 14.17-13.272 32.655-20.582 52.048-20.582 42.005 0 76.178 34.173 76.178 76.178 0 41.868-34.058 76.177-76.178 76.177z" fill="#6d00ca"/><g><path d="m256 333.723c-15.33 0-27.802-12.472-27.802-27.802v-74.586c0-15.33 12.472-27.802 27.802-27.802s27.802 12.472 27.802 27.802v74.586c0 15.33-12.472 27.802-27.802 27.802zm0-115.19c-7.059 0-12.802 5.743-12.802 12.802v74.586c0 7.059 5.743 12.802 12.802 12.802s12.802-5.743 12.802-12.802v-74.586c0-7.059-5.743-12.802-12.802-12.802z" fill="#6d00ca"/></g><g><path d="m169.551 333.723c-15.33 0-27.802-12.472-27.802-27.802v-74.586c0-15.33 12.472-27.802 27.802-27.802s27.802 12.472 27.802 27.802v74.586c0 15.33-12.472 27.802-27.802 27.802zm0-115.19c-7.059 0-12.802 5.743-12.802 12.802v74.586c0 7.059 5.743 12.802 12.802 12.802s12.802-5.743 12.802-12.802v-74.586c0-7.059-5.743-12.802-12.802-12.802z" fill="#6d00ca"/></g><g><path d="m342.449 333.723c-15.33 0-27.802-12.472-27.802-27.802v-74.586c0-15.33 12.472-27.802 27.802-27.802s27.802 12.472 27.802 27.802v74.586c0 15.33-12.472 27.802-27.802 27.802zm0-115.19c-7.059 0-12.802 5.743-12.802 12.802v74.586c0 7.059 5.743 12.802 12.802 12.802s12.802-5.743 12.802-12.802v-74.586c0-7.059-5.743-12.802-12.802-12.802z" fill="#6d00ca"/></g></g></svg>