<svg id="Capa_1" enable-background="new 0 0 512 512" height="512" viewBox="0 0 512 512" width="512" xmlns="http://www.w3.org/2000/svg"><g><path d="m480.177 259.843-31.433-95.515c-8.425-25.605-32.197-42.809-59.153-42.809h-39.164l13.294 40.398h25.87c9.469 0 17.819 6.043 20.779 15.038l31.433 95.515c2.219 6.745 1.105 13.911-3.057 19.663-4.163 5.752-10.622 9.051-17.722 9.051h-16.444c.013.666.039 1.331.039 1.997 0 13.088-2.432 26.116-7.212 38.401h23.617c20.212 0 38.6-9.39 50.449-25.764 11.848-16.374 15.021-36.775 8.704-55.975z" fill="#7181ff"/><g><path d="m421.024 349.082h-23.617c-4.143 0-7.5-3.358-7.5-7.5s3.357-7.5 7.5-7.5h23.617c17.778 0 33.951-8.26 44.372-22.661 10.423-14.402 13.214-32.347 7.657-49.234l-31.433-95.515c-7.41-22.522-28.319-37.653-52.028-37.653h-28.801l8.358 25.398h20.442c12.715 0 23.928 8.115 27.902 20.194l31.433 95.515c2.979 9.057 1.483 18.681-4.105 26.404-5.591 7.724-14.265 12.154-23.798 12.154h-16.443c-4.143 0-7.5-3.358-7.5-7.5s3.357-7.5 7.5-7.5h16.444c4.665 0 8.91-2.168 11.646-5.948 2.734-3.779 3.467-8.489 2.009-12.922l-31.433-95.514c-1.945-5.911-7.433-9.883-13.654-9.883h-25.87c-3.239 0-6.111-2.079-7.124-5.156l-13.294-40.398c-.752-2.285-.362-4.792 1.048-6.741 1.411-1.949 3.671-3.103 6.076-3.103h39.164c30.202 0 56.837 19.276 66.276 47.965l31.433 95.515c7.078 21.512 3.523 44.371-9.753 62.716-13.275 18.345-33.878 28.867-56.524 28.867z" fill="#2115c2"/></g><g><path d="m298.706 409.094v71.436c0 13.238-10.732 23.97-23.97 23.97h-40.011c-13.238 0-23.97-10.732-23.97-23.97s10.732-23.97 23.97-23.97h16.041v-47.467h47.94z" fill="#7181ff"/></g><g><path d="m187.149 409.094v71.436c0 13.238-10.732 23.97-23.97 23.97h-40.011c-13.238 0-23.97-10.732-23.97-23.97s10.732-23.97 23.97-23.97h16.041v-47.467h47.94z" fill="#7181ff"/></g><g><g><path d="m274.737 512h-40.011c-17.353 0-31.47-14.117-31.47-31.47 0-17.352 14.117-31.47 31.47-31.47h8.541v-35.966c0-4.142 3.357-7.5 7.5-7.5s7.5 3.358 7.5 7.5v43.466c0 4.142-3.357 7.5-7.5 7.5h-16.041c-9.081 0-16.47 7.388-16.47 16.47s7.389 16.47 16.47 16.47h40.011c9.081 0 16.47-7.388 16.47-16.47v-67.436c0-4.142 3.357-7.5 7.5-7.5s7.5 3.358 7.5 7.5v67.436c0 17.353-14.118 31.47-31.47 31.47z" fill="#2115c2"/></g></g><g><g><path d="m163.179 512h-40.011c-17.353 0-31.47-14.117-31.47-31.47 0-17.352 14.117-31.47 31.47-31.47h8.541v-35.966c0-4.142 3.357-7.5 7.5-7.5s7.5 3.358 7.5 7.5v43.466c0 4.142-3.357 7.5-7.5 7.5h-16.041c-9.081 0-16.47 7.388-16.47 16.47s7.389 16.47 16.47 16.47h40.011c9.081 0 16.47-7.388 16.47-16.47v-67.436c0-4.142 3.357-7.5 7.5-7.5s7.5 3.358 7.5 7.5v67.436c0 17.353-14.117 31.47-31.47 31.47z" fill="#2115c2"/></g></g><path d="m139.21 409.094h47.939v32.03h-47.939z" fill="#2115c2"/><path d="m250.767 409.094h47.939v32.03h-47.939z" fill="#2115c2"/><path d="m404.619 303.181c0 18.846-5.029 37.57-14.876 54.123-19.088 32.106-53.689 51.79-91.036 51.79h-164.157c-18.684 0-36.661-4.918-52.366-13.856-15.705-8.928-29.127-21.875-38.671-37.933-15.654-26.329-19.149-58.142-9.574-87.239l20.411-62.011c106.276-47.185 155.612 76.362 321.354-9.726l23.602 71.736c3.556 10.806 5.313 21.976 5.313 33.116z" fill="#ff63ed"/><path d="m375.704 198.329c-165.742 86.088-215.078-37.459-321.354 9.726l14.715-44.72c2.07-6.292.596-13.22-3.878-18.118l-12.139-13.311c-10.746-11.796-2.384-30.743 13.574-30.743h277.108z" fill="#a4bcff"/><circle cx="273.14" cy="298.253" fill="#e207b9" r="12.703"/><g><path d="m240.167 339.99h-53.795c-4.143 0-7.5-3.358-7.5-7.5s3.357-7.5 7.5-7.5h53.795c4.143 0 7.5 3.358 7.5 7.5s-3.357 7.5-7.5 7.5z" fill="#e207b9"/></g><circle cx="153.4" cy="298.253" fill="#e207b9" r="12.703"/><g><path d="m298.707 416.594h-164.157c-19.628 0-39.02-5.131-56.076-14.838-17.058-9.698-31.377-23.744-41.408-40.62-16.769-28.205-20.505-62.254-10.251-93.415l20.411-62.011c1.295-3.934 5.535-6.074 9.469-4.779 3.935 1.295 6.074 5.534 4.779 9.469l-20.411 62.01c-8.897 27.039-5.654 56.585 8.896 81.061 8.704 14.643 21.129 26.831 35.932 35.246 14.803 8.424 31.628 12.877 48.659 12.877h164.156c34.529 0 66.942-18.44 84.59-48.123 9.043-15.202 13.822-32.592 13.822-50.29 0-10.463-1.661-20.816-4.937-30.772l-23.602-71.736c-1.295-3.935.846-8.174 4.78-9.468 3.938-1.295 8.174.846 9.468 4.78l23.602 71.736c3.774 11.471 5.688 23.402 5.688 35.46 0 20.396-5.509 40.438-15.931 57.957-20.334 34.206-57.686 55.456-97.479 55.456z" fill="#e207b9"/></g><g><path d="m240.392 50.335v-15.714c0-14.979-12.143-27.121-27.121-27.121-14.979 0-27.121 12.143-27.121 27.121v15.713h54.242z" fill="#7181ff"/></g><path d="m298.53 50.335h-170.52c-24.963 0-45.2 20.237-45.2 45.2v5.628h260.919v-5.628c0-24.964-20.236-45.2-45.199-45.2z" fill="#7181ff"/><path d="m382.829 195.984-31.6-96.024v-4.426c0-29.059-23.641-52.7-52.699-52.7h-50.639v-8.213c0-19.09-15.531-34.621-34.621-34.621s-34.621 15.531-34.621 34.621v8.213h-50.639c-28.431 0-51.661 22.634-52.652 50.828h-8.737c-10.395 0-19.46 5.906-23.66 15.413-4.201 9.511-2.461 20.194 4.544 27.883l12.144 13.315c2.639 2.889 3.517 6.995 2.292 10.717l-14.715 44.72c-.927 2.817-.107 5.916 2.092 7.906 2.199 1.989 5.364 2.497 8.075 1.293 43.404-19.27 76.477-8.417 114.771 4.148 26.812 8.797 55.473 18.202 90.363 18.202 32.361 0 70.082-8.095 116.634-32.274 3.264-1.696 4.817-5.507 3.668-9.001zm-189.18-161.363c0-10.819 8.802-19.621 19.621-19.621s19.621 8.802 19.621 19.621v8.213h-39.242zm-65.639 23.213h170.52c20.159 0 36.674 15.907 37.653 35.828h-245.826c.979-19.921 17.494-35.828 37.653-35.828zm131.027 164.335c-31.093-.597-57.072-9.121-82.195-17.364-23.883-7.836-46.96-15.408-72.229-15.408-12.124 0-24.755 1.745-38.215 6.04l9.791-29.758c2.915-8.859.821-18.638-5.46-25.516l-12.138-13.308c-2.987-3.28-3.701-7.66-1.908-11.717 1.79-4.054 5.506-6.475 9.938-6.475h16.189 255.49l28.269 85.9c-38.584 19.216-73.837 28.253-107.532 27.606z" fill="#2115c2"/></g></svg>