<svg id="Capa_1" enable-background="new 0 0 512 512" height="512" viewBox="0 0 512 512" width="512" xmlns="http://www.w3.org/2000/svg"><g><path d="m334.521 261.718c-.396 12.82 9.883 23.439 22.708 23.439h79.091v-276.515c.001 0-95.232 40.46-101.799 253.076z" fill="#88f8d8"/><g><path d="m354.245 292.462c-.327 0-.656-.021-.988-.065-15.436-2.032-26.713-15.321-26.231-30.91 1.517-49.131 7.9-93.244 18.974-131.114 8.933-30.547 20.929-57.161 35.657-79.104 25.578-38.105 50.677-49.082 51.732-49.53 4.927-2.094 10.433 1.518 10.433 6.903v273.515c0 4.142-3.357 7.5-7.5 7.5s-7.5-3.358-7.5-7.5v-260.107c-8.798 6.472-22.075 18.444-35.529 38.809-39.072 59.144-49.449 141.999-51.274 201.091-.242 7.857 5.431 14.553 13.196 15.576 4.107.541 6.998 4.308 6.457 8.415-.497 3.774-3.721 6.521-7.427 6.521z" fill="#007ea8"/></g><path d="m355.634 285.095v179.062c0 22.281 18.062 40.343 40.343 40.343 22.281 0 40.343-18.062 40.343-40.343v-179h-79.09c-.538 0-1.068-.026-1.596-.062z" fill="#b98eff"/><path d="m226.521 7.503c-9.837-.184-17.888 8.165-17.888 18.004v69.45c0 8.446-6.491 15.705-14.927 16.103-9.007.424-16.444-6.753-16.444-15.667v-69.88c0-9.839-8.051-18.194-17.889-18.01-9.54.179-17.218 7.968-17.218 17.55v69.895c0 8.446-6.491 15.713-14.927 16.11-9.007.424-16.444-6.753-16.444-15.667v-69.878c0-9.839-8.051-18.194-17.889-18.01-9.54.179-17.218 7.968-17.218 17.55v86.024c0 31.404 19.355 58.278 46.784 69.368 7.323 2.961 12.217 9.943 12.217 17.842v86.871h50.059v-86.871c0-7.899 4.894-14.881 12.217-17.842 27.429-11.09 46.784-37.964 46.784-69.368v-86.024c.001-9.582-7.677-17.371-17.217-17.55z" fill="#88f8d8"/><path d="m184.738 285.157h-50.059c-8.458 0-15.314 6.856-15.314 15.314v163.686c0 22.281 18.062 40.343 40.343 40.343 22.281 0 40.343-18.062 40.343-40.343v-163.686c.001-8.458-6.855-15.314-15.313-15.314z" fill="#b98eff"/><circle cx="395.977" cy="433.592" fill="#6d00ca" r="9.886"/><circle cx="395.977" cy="356.065" fill="#6d00ca" r="9.886"/><g><path d="m395.978 512c-26.381 0-47.844-21.463-47.844-47.843v-179.062c0-2.079.863-4.065 2.384-5.484s3.557-2.142 5.636-1.998c.355.025.714.044 1.076.044h79.092c4.143 0 7.5 3.358 7.5 7.5v179c-.001 26.381-21.464 47.843-47.844 47.843zm-32.844-219.343v171.5c0 18.11 14.733 32.843 32.844 32.843s32.844-14.734 32.844-32.843v-171.5z" fill="#6d00ca"/></g><circle cx="159.709" cy="433.592" fill="#6d00ca" r="9.886"/><circle cx="159.709" cy="356.065" fill="#6d00ca" r="9.886"/><g><path d="m184.738 289.657c-4.143 0-7.5-3.358-7.5-7.5v-83.871c0-10.91 6.636-20.643 16.906-24.795 25.57-10.339 42.094-34.838 42.094-62.415v-86.023c0-5.441-4.423-9.95-9.858-10.051-5.603-.105-10.247 4.831-10.247 10.505v69.449c0 12.648-9.696 23.011-22.075 23.594-13.488.636-24.296-10.173-24.296-23.159v-69.878c0-5.631-4.606-10.618-10.248-10.511-5.436.102-9.858 4.611-9.858 10.051v69.895c0 12.652-9.696 23.019-22.074 23.602-13.431.635-24.296-10.116-24.296-23.159v-69.878c0-5.618-4.589-10.617-10.248-10.511-5.436.102-9.858 4.611-9.858 10.051v86.024c0 27.577 16.523 52.076 42.095 62.415 10.27 4.152 16.905 13.884 16.905 24.795v83.871c0 4.142-3.357 7.5-7.5 7.5s-7.5-3.358-7.5-7.5v-83.871c0-4.766-2.955-9.04-7.527-10.888-31.269-12.642-51.473-42.6-51.473-76.321v-86.025c0-13.558 11.025-24.795 24.577-25.049 14.275-.268 25.529 11.728 25.529 25.509v69.878c0 4.644 3.859 8.398 8.591 8.176 4.289-.202 7.779-4.068 7.779-8.619v-69.895c0-13.558 11.025-24.795 24.577-25.049 14.301-.268 25.529 11.749 25.529 25.509v69.878c0 4.659 3.875 8.397 8.591 8.176 4.29-.202 7.78-4.065 7.78-8.611v-69.449c0-13.818 11.28-25.769 25.528-25.502 13.552.254 24.577 11.491 24.577 25.049v86.024c0 33.722-20.204 63.679-51.472 76.321-4.573 1.849-7.528 6.123-7.528 10.888v83.871c0 4.141-3.357 7.499-7.5 7.499z" fill="#007ea8"/></g><g><path d="m159.709 512c-26.381 0-47.844-21.462-47.844-47.843v-163.686c0-12.58 10.234-22.814 22.813-22.814h50.06c12.579 0 22.813 10.234 22.813 22.814v163.686c.001 26.381-21.461 47.843-47.842 47.843zm-25.03-219.343c-4.309 0-7.813 3.505-7.813 7.814v163.686c0 18.11 14.733 32.843 32.844 32.843 18.109 0 32.843-14.734 32.843-32.843v-163.686c0-4.309-3.505-7.814-7.813-7.814z" fill="#6d00ca"/></g></g></svg>