<svg id="Capa_1" enable-background="new 0 0 512 512" height="512" viewBox="0 0 512 512" width="512" xmlns="http://www.w3.org/2000/svg"><g><path d="m373.75 460.322v-91.477c-6.996 1.343-14.217 2.054-21.605 2.054-7.388 0-14.609-.711-21.605-2.054v91.478c-19.774 4.88-31.123 16.165-37.499 26.111-5.006 7.81.68 18.067 9.956 18.067h98.296c9.276 0 14.962-10.257 9.956-18.067-6.376-9.947-17.725-21.232-37.499-26.112z" fill="#a4bcff"/><g><path d="m401.293 512h-98.296c-7.059 0-13.549-3.851-16.938-10.051-3.371-6.165-3.115-13.661.668-19.564 6.02-9.391 17.083-21.414 36.313-27.713v-82.829c0-4.142 3.357-7.5 7.5-7.5s7.5 3.358 7.5 7.5v88.477c0 3.45-2.354 6.455-5.703 7.281-14.438 3.564-25.535 11.261-32.98 22.877-1.204 1.878-.496 3.614-.136 4.273.369.676 1.477 2.247 3.777 2.247h98.296c2.301 0 3.408-1.572 3.777-2.247.36-.659 1.068-2.394-.136-4.272-7.446-11.617-18.544-19.314-32.981-22.877-3.35-.827-5.703-3.832-5.703-7.282v-88.477c0-4.142 3.357-7.5 7.5-7.5s7.5 3.358 7.5 7.5v82.828c19.229 6.298 30.292 18.321 36.313 27.713 3.783 5.903 4.039 13.399.668 19.564-3.391 6.201-9.881 10.052-16.939 10.052z" fill="#2115c2"/></g><path d="m128.942 69.129h53.324c3.518 0 6.876.678 9.96 1.9v-39.059c0-13.514-10.956-24.47-24.47-24.47h-24.305c-13.514 0-24.47 10.956-24.47 24.47v39.059c3.085-1.221 6.443-1.9 9.961-1.9z" fill="#ffd600"/><path d="m238.161 256.915v-18.201c-12.268-14.003-28.026-24.871-45.935-31.211v-86.13c-3.084 1.221-6.442 1.9-9.96 1.9h-53.324c-3.518 0-6.876-.678-9.96-1.9v86.13c-42.594 15.077-73.109 55.703-73.109 103.463v155.321c0 21.104 17.108 38.213 38.213 38.213h143.038c21.104 0 38.213-17.108 38.213-38.213v-135.512c-16.944-19.894-27.176-45.68-27.176-73.86z" fill="#ff63ed"/><path d="m251.771 310.967h-205.898v116.858h219.463v-97.049c-5.183-6.087-9.74-12.721-13.565-19.809z" fill="#b98eff"/><path d="m466.128 256.136v.781c0 31.481-12.758 59.97-33.382 80.603-20.634 20.624-49.132 33.382-80.603 33.382-61.471 0-111.574-48.652-113.885-109.552 102.246-42.699 111.072 28.208 227.87-5.214z" fill="#ff63ed"/><path d="m466.128 215.019v41.117c-116.797 33.422-125.623-37.485-227.871 5.213-.07-1.471-.1-2.952-.1-4.433v-41.898c0-18.852 15.29-34.133 34.133-34.133h159.706c18.851.001 34.132 15.282 34.132 34.134z" fill="#a4bcff"/><circle cx="202.086" cy="361.036" fill="#6d00ca" r="9.862"/><g><path d="m176.487 395.117h-41.766c-4.143 0-7.5-3.358-7.5-7.5s3.357-7.5 7.5-7.5h41.766c4.143 0 7.5 3.358 7.5 7.5s-3.357 7.5-7.5 7.5z" fill="#6d00ca"/></g><circle cx="109.123" cy="361.036" fill="#6d00ca" r="9.862"/><g><circle cx="397.346" cy="298.835" fill="#e207b9" r="9.591"/><g><path d="m372.451 332.185h-40.617c-4.143 0-7.5-3.358-7.5-7.5s3.357-7.5 7.5-7.5h40.617c4.143 0 7.5 3.358 7.5 7.5s-3.358 7.5-7.5 7.5z" fill="#e207b9"/></g><circle cx="306.938" cy="298.835" fill="#e207b9" r="9.591"/></g><g><path d="m227.124 512h-143.038c-25.206 0-45.713-20.507-45.713-45.713v-36.464c0-4.142 3.357-7.5 7.5-7.5s7.5 3.358 7.5 7.5v36.464c0 16.936 13.777 30.713 30.713 30.713h143.038c16.935 0 30.712-13.778 30.712-30.713v-36.464c0-4.142 3.357-7.5 7.5-7.5s7.5 3.358 7.5 7.5v36.464c0 25.207-20.506 45.713-45.712 45.713z" fill="#e207b9"/></g><g><path d="m45.895 316.381c-.048 0-.095 0-.143-.001-4.142-.077-7.437-3.497-7.359-7.639.453-24.272 8.262-47.434 22.582-66.98 12.97-17.703 30.352-31.253 50.507-39.431v-78.957c0-4.142 3.357-7.5 7.5-7.5s7.5 3.358 7.5 7.5v84.13c0 3.177-2.002 6.01-4.997 7.07-39.939 14.138-67.304 52.093-68.094 94.447-.077 4.094-3.419 7.361-7.496 7.361z" fill="#e207b9"/></g><g><path d="m230.988 241.947c-11.323-12.36-25.593-21.825-41.265-27.373-2.995-1.06-4.997-3.893-4.997-7.07v-84.13c0-4.142 3.357-7.5 7.5-7.5s7.5 3.358 7.5 7.5v78.961c16.012 6.52 30.558 16.638 42.322 29.479 2.798 3.054 2.59 7.798-.464 10.596-3.047 2.792-7.792 2.597-10.596-.463z" fill="#e207b9"/></g><g><path d="m265.336 435.324h-219.463c-4.143 0-7.5-3.358-7.5-7.5v-116.857c0-4.142 3.357-7.5 7.5-7.5h205.898c4.143 0 7.5 3.358 7.5 7.5s-3.357 7.5-7.5 7.5h-198.398v101.858h204.463v-89.549c0-4.142 3.357-7.5 7.5-7.5s7.5 3.358 7.5 7.5v97.049c0 4.141-3.358 7.499-7.5 7.499z" fill="#6d00ca"/></g><g><path d="m238.191 267.207c-4.044 0-7.378-3.219-7.493-7.287-.028-.999-.041-44.901-.041-44.901 0-22.956 18.677-41.633 41.633-41.633h159.705c22.956 0 41.633 18.676 41.633 41.633v39.424c0 4.142-3.357 7.5-7.5 7.5s-7.5-3.358-7.5-7.5v-39.424c0-14.685-11.947-26.633-26.633-26.633h-159.705c-14.686 0-26.633 11.947-26.633 26.633 0 0 .011 43.617.035 44.475.117 4.14-3.144 7.592-7.284 7.71-.072.002-.145.003-.217.003z" fill="#2115c2"/></g><g><path d="m352.142 378.402c-31.63 0-61.58-12.089-84.335-34.041-22.695-21.895-35.852-51.274-37.045-82.727-.119-3.127 1.716-5.999 4.604-7.205 54.494-22.757 83.922-14.579 115.075-5.919 28.7 7.977 58.375 16.225 113.622.416 2.262-.647 4.698-.196 6.579 1.222 1.879 1.417 2.984 3.635 2.984 5.989v.781c0 32.443-12.635 62.951-35.577 85.905-22.955 22.944-53.463 35.579-85.907 35.579zm-106.067-112.13c2.214 25.586 13.512 49.316 32.147 67.293 19.943 19.24 46.195 29.836 73.92 29.836 28.438 0 55.181-11.076 75.302-31.187 17.949-17.959 28.701-41.195 30.803-66.204-53.159 13.255-84.227 4.62-111.821-3.05-28.82-8.009-53.838-14.965-100.351 3.312z" fill="#e207b9"/></g><path d="m182.266 69.129h-53.324c-14.951 0-27.072 12.121-27.072 27.072 0 14.951 12.121 27.072 27.072 27.072h53.324c14.951 0 27.072-12.121 27.072-27.072 0-14.951-12.12-27.072-27.072-27.072z" fill="#f90"/><path d="m199.726 66.38v-34.41c0-17.628-14.342-31.97-31.97-31.97h-24.305c-17.628 0-31.97 14.342-31.97 31.97v34.411c-10.227 6.011-17.111 17.124-17.111 29.82 0 19.063 15.509 34.572 34.571 34.572h53.324c19.063 0 34.572-15.509 34.572-34.572.002-12.697-6.883-23.809-17.111-29.821zm-73.244-4.664v-29.746c0-9.357 7.612-16.97 16.97-16.97h24.305c9.357 0 16.97 7.613 16.97 16.97v29.746c-.101-.007-1.586-.087-2.46-.087h-53.324c-.925 0-2.353.079-2.461.087zm55.784 54.057h-53.324c-10.792 0-19.571-8.78-19.571-19.572 0-10.862 8.912-19.572 19.571-19.572h53.324c10.692 0 19.572 8.736 19.572 19.572.001 10.792-8.78 19.572-19.572 19.572z" fill="#f95116"/></g></svg>