<svg id="Capa_1" enable-background="new 0 0 512 512" height="512" viewBox="0 0 512 512" width="512" xmlns="http://www.w3.org/2000/svg"><g><g><path d="m342.628 370.974v72.731c0 13.432-10.889 24.321-24.321 24.321h-40.597c-13.432 0-24.321-10.889-24.321-24.321s10.889-24.321 24.321-24.321h16.276v-48.41z" fill="#ff63ed"/></g><g><path d="m229.436 370.974v72.731c0 13.432-10.889 24.321-24.321 24.321h-40.597c-13.432 0-24.321-10.889-24.321-24.321s10.889-24.321 24.321-24.321h16.276v-48.41z" fill="#ff63ed"/></g><g><g><path d="m318.307 475.526h-40.597c-17.546 0-31.821-14.275-31.821-31.821s14.275-31.821 31.821-31.821h8.776v-37.91c0-4.142 3.358-7.5 7.5-7.5s7.5 3.358 7.5 7.5v45.41c0 4.142-3.358 7.5-7.5 7.5h-16.276c-9.275 0-16.821 7.546-16.821 16.821s7.546 16.821 16.821 16.821h40.597c9.275 0 16.821-7.546 16.821-16.821v-69.731c0-4.142 3.358-7.5 7.5-7.5s7.5 3.358 7.5 7.5v69.731c0 17.546-14.274 31.821-31.821 31.821z" fill="#e207b9"/></g></g><g><g><path d="m205.115 475.526h-40.597c-17.546 0-31.821-14.275-31.821-31.821s14.275-31.821 31.821-31.821h8.776v-37.91c0-4.142 3.358-7.5 7.5-7.5s7.5 3.358 7.5 7.5v45.41c0 4.142-3.358 7.5-7.5 7.5h-16.276c-9.275 0-16.821 7.546-16.821 16.821s7.546 16.821 16.821 16.821h40.597c9.275 0 16.821-7.546 16.821-16.821v-69.731c0-4.142 3.358-7.5 7.5-7.5s7.5 3.358 7.5 7.5v69.731c.001 17.546-14.274 31.821-31.821 31.821z" fill="#e207b9"/></g></g><path d="m180.794 370.974h48.642v32.5h-48.642z" fill="#e207b9"/><path d="m293.986 370.974h48.642v32.5h-48.642z" fill="#e207b9"/><path d="m208.761 105.448c15.226-3.285 31.029-5.02 47.239-5.02 16.209 0 32.012 1.735 47.239 5.02l12.346-24.691c8.45-16.899-3.839-36.782-22.733-36.782h-73.704c-18.894 0-31.182 19.883-22.733 36.782z" fill="#ff9bff"/><g><path d="m208.569 112.553c-2.751 0-5.4-1.519-6.714-4.148l-12.147-24.295c-10.955-21.91 4.998-47.637 29.441-47.637h73.704c24.496 0 40.372 25.774 29.441 47.637l-12.146 24.293c-1.852 3.705-6.357 5.206-10.062 3.354s-5.207-6.357-3.354-10.062l12.146-24.293c5.961-11.924-2.719-25.928-16.025-25.928h-73.704c-13.333 0-21.974 14.028-16.025 25.928l12.147 24.295c1.853 3.705.351 8.21-3.354 10.062-1.077.539-2.221.794-3.348.794z" fill="#e207b9"/></g><path d="m470.722 303.417h-429.443c-18.656 0-33.779 15.123-33.779 33.779 0 18.655 15.123 33.779 33.779 33.779h429.443c18.656 0 33.779-15.123 33.779-33.779-.001-18.656-15.124-33.779-33.779-33.779z" fill="#7181ff"/><g><path d="m41.279 303.417h429.443c2.555 0 5.039.293 7.432.83-9.721-114.176-105.461-203.819-222.154-203.819-116.692 0-212.433 89.643-222.153 203.819 2.393-.537 4.877-.83 7.432-.83z" fill="#a4bcff"/></g><circle cx="317.807" cy="228.225" fill="#2115c2" r="13.114"/><g><path d="m283.768 271.069h-55.536c-4.142 0-7.5-3.358-7.5-7.5s3.358-7.5 7.5-7.5h55.536c4.142 0 7.5 3.358 7.5 7.5s-3.358 7.5-7.5 7.5z" fill="#2115c2"/></g><g fill="#2115c2"><circle cx="194.194" cy="228.225" r="13.114"/><path d="m485.133 298.518c-5.95-55.36-31.694-106.51-72.854-144.507-42.669-39.39-98.17-61.083-156.279-61.083-58.108 0-113.609 21.693-156.278 61.083-41.16 37.997-66.904 89.147-72.854 144.507-15.675 5.859-26.868 20.983-26.868 38.677 0 22.761 18.518 41.279 41.279 41.279h429.443c22.761 0 41.278-18.518 41.278-41.279 0-17.693-11.192-32.818-26.867-38.677zm-375.237-133.486c39.89-36.825 91.777-57.104 146.104-57.104s106.214 20.28 146.104 57.104c37.439 34.562 61.238 80.756 67.624 130.885h-427.456c6.386-50.13 30.185-96.323 67.624-130.885zm360.826 198.442h-429.443c-14.49 0-26.279-11.789-26.279-26.279 0-14.43 11.745-26.279 26.279-26.279h429.443c14.478 0 26.278 11.795 26.278 26.279 0 14.491-11.789 26.279-26.278 26.279z"/></g></g></svg>