<svg id="Capa_1" enable-background="new 0 0 512 512" height="512" viewBox="0 0 512 512" width="512" xmlns="http://www.w3.org/2000/svg"><g><g><path d="m343.574 409.109v71.425c0 13.236-10.73 23.966-23.966 23.966h-40.005c-13.236 0-23.966-10.73-23.966-23.966s10.73-23.966 23.966-23.966h16.039v-47.459z" fill="#88f8d8"/></g><g><path d="m232.034 409.109v71.425c0 13.236-10.73 23.966-23.966 23.966h-40.005c-13.236 0-23.966-10.73-23.966-23.966s10.73-23.966 23.966-23.966h16.039v-47.459z" fill="#88f8d8"/></g><g><g><path d="m319.608 512h-40.005c-17.35 0-31.466-14.116-31.466-31.466s14.116-31.466 31.466-31.466h8.539v-36.959c0-4.142 3.358-7.5 7.5-7.5s7.5 3.358 7.5 7.5v44.459c0 4.142-3.358 7.5-7.5 7.5h-16.039c-9.079 0-16.466 7.387-16.466 16.466s7.387 16.466 16.466 16.466h40.005c9.08 0 16.466-7.387 16.466-16.466v-68.425c0-4.142 3.358-7.5 7.5-7.5s7.5 3.358 7.5 7.5v68.425c0 17.35-14.116 31.466-31.466 31.466z" fill="#007ea8"/></g></g><g><g><path d="m208.068 512h-40.005c-17.35 0-31.466-14.116-31.466-31.466s14.116-31.466 31.466-31.466h8.539v-36.959c0-4.142 3.358-7.5 7.5-7.5s7.5 3.358 7.5 7.5v44.459c0 4.142-3.358 7.5-7.5 7.5h-16.039c-9.079 0-16.466 7.387-16.466 16.466s7.387 16.466 16.466 16.466h40.005c9.08 0 16.466-7.387 16.466-16.466v-68.425c0-4.142 3.358-7.5 7.5-7.5s7.5 3.358 7.5 7.5v68.425c0 17.35-14.116 31.466-31.466 31.466z" fill="#007ea8"/></g></g><path d="m184.102 409.109h47.932v38.084h-47.932z" fill="#007ea8"/><path d="m295.642 409.109h47.932v38.084h-47.932z" fill="#007ea8"/><path d="m417.663 342.101h-323.325c-11.12 0-20.135 9.015-20.135 20.135 0 25.887 20.986 46.873 46.873 46.873h269.849c25.887 0 46.873-20.986 46.873-46.873-.001-11.12-9.015-20.135-20.135-20.135z" fill="#ffd600"/><g><path d="m390.924 416.609h-269.848c-29.981 0-54.373-24.391-54.373-54.373 0-15.238 12.396-27.635 27.634-27.635h12.869c4.142 0 7.5 3.358 7.5 7.5s-3.358 7.5-7.5 7.5h-12.869c-6.966 0-12.634 5.668-12.634 12.635 0 21.71 17.663 39.373 39.373 39.373h269.849c21.71 0 39.373-17.663 39.373-39.373 0-6.967-5.668-12.635-12.635-12.635h-12.868c-4.143 0-7.5-3.358-7.5-7.5s3.357-7.5 7.5-7.5h12.868c15.238 0 27.635 12.397 27.635 27.635-.001 29.981-24.392 54.373-54.374 54.373z" fill="#f95116"/></g><path d="m415.073 291.371c-14.512 6.218-30.938 6.218-45.449 0-14.512-6.218-30.937-6.218-45.449 0-14.512 6.218-30.937 6.218-45.449 0-14.512-6.218-30.937-6.218-45.449 0-14.512 6.218-30.937 6.218-45.449 0-14.512-6.218-30.937-6.218-45.449 0-14.512 6.218-30.937 6.218-45.449 0-4.876-2.089-9.129-5.15-12.612-8.878-6.251 6.323-10.113 15.012-10.113 24.605 0 19.332 15.671 35.003 35.003 35.003h293.588c19.332 0 35.003-15.671 35.003-35.003 0-9.593-3.862-18.282-10.113-24.605-3.484 3.728-7.737 6.789-12.613 8.878z" fill="#ff63ed"/><g><path d="m402.794 349.601h-293.588c-23.436 0-42.503-19.067-42.503-42.503 0-11.117 4.268-21.633 12.017-29.61 2.887-2.971 7.635-3.04 10.605-.154 2.971 2.886 3.04 7.634.154 10.605-5.015 5.162-7.776 11.966-7.776 19.158 0 15.165 12.338 27.503 27.503 27.503h293.588c15.165 0 27.503-12.338 27.503-27.503 0-7.23-2.786-14.059-7.846-19.23-2.897-2.961-2.846-7.709.115-10.606 2.961-2.898 7.71-2.845 10.605.115 7.819 7.991 12.125 18.546 12.125 29.72.001 23.438-19.065 42.505-42.502 42.505z" fill="#e207b9"/></g><path d="m256 7.5c-105.396 0-190.836 85.44-190.836 190.836 0 22.496 18.236 40.732 40.732 40.732h300.208c22.496 0 40.732-18.236 40.732-40.732 0-105.396-85.44-190.836-190.836-190.836z" fill="#ffd600"/><path d="m406.104 239.068h-300.208c-8.057 0-15.562-2.349-21.884-6.386-6.068 6.273-9.809 14.812-9.809 24.23 0 14.998 8.939 28.553 22.725 34.459 14.512 6.218 30.937 6.218 45.449 0 14.512-6.218 30.937-6.218 45.449 0 14.512 6.218 30.937 6.218 45.449 0 14.512-6.218 30.937-6.218 45.449 0 14.512 6.218 30.937 6.218 45.449 0 14.512-6.218 30.937-6.218 45.449 0 14.512 6.218 30.937 6.218 45.449 0 13.786-5.907 22.725-19.461 22.725-34.459 0-9.417-3.741-17.956-9.809-24.23-6.321 4.037-13.825 6.386-21.883 6.386z" fill="#88f8d8"/><circle cx="313.414" cy="161.022" fill="#f95116" r="12.182"/><g><path d="m281.794 201.354h-51.589c-4.142 0-7.5-3.358-7.5-7.5s3.358-7.5 7.5-7.5h51.589c4.142 0 7.5 3.358 7.5 7.5s-3.358 7.5-7.5 7.5z" fill="#f95116"/></g><circle cx="198.586" cy="161.022" fill="#f95116" r="12.182"/><g><path d="m301.449 303.509c-8.759 0-17.519-1.748-25.678-5.244-12.565-5.384-26.977-5.384-39.542 0-16.318 6.992-35.038 6.992-51.356 0-12.565-5.384-26.977-5.384-39.542 0-34.072 14.599-78.627-1.933-78.627-41.353 0-10.81 4.08-21.106 11.486-28.992 2.835-3.019 7.583-3.167 10.602-.332 3.019 2.836 3.167 7.582.332 10.601-4.784 5.094-7.419 11.743-7.419 18.722 0 27.689 32.985 38.163 57.72 27.566 16.318-6.992 35.038-6.992 51.356 0 12.565 5.384 26.977 5.384 39.542 0 16.318-6.992 35.038-6.992 51.356 0 12.565 5.384 26.977 5.384 39.542 0 16.318-6.992 35.038-6.992 51.356 0 24.7 10.583 57.721.158 57.721-27.566 0-7.04-2.676-13.731-7.533-18.842-2.854-3.002-2.734-7.749.269-10.603 3.001-2.853 7.749-2.734 10.603.269 7.521 7.911 11.662 18.273 11.662 29.176 0 39.23-44.36 56.036-78.627 41.353-12.565-5.383-26.978-5.384-39.542 0-8.162 3.497-16.922 5.245-25.681 5.245z" fill="#007ea8"/></g><g><path d="m406.104 246.568h-300.208c-26.596 0-48.232-21.637-48.232-48.232 0-109.363 88.973-198.336 198.336-198.336s198.336 88.973 198.336 198.336c0 26.595-21.636 48.232-48.232 48.232zm-150.104-231.568c-101.092 0-183.336 82.244-183.336 183.336 0 18.324 14.908 33.232 33.232 33.232h300.208c18.324 0 33.232-14.908 33.232-33.232 0-101.092-82.244-183.336-183.336-183.336z" fill="#f95116"/></g></g></svg>