<svg id="Capa_1" enable-background="new 0 0 512 512" height="512" viewBox="0 0 512 512" width="512" xmlns="http://www.w3.org/2000/svg"><g><path d="m290.262 38.222h-68.525c-21.408 0-38.763 17.355-38.763 38.763v17.749h146.051v-17.749c.001-21.408-17.354-38.763-38.763-38.763z" fill="#ffff6f"/><g fill="#ffd600"><g><path d="m107.122 128.337c0-8.273 2.996-15.844 7.954-21.699h-29.534c-25.223 0-45.671 20.447-45.671 45.671 0 25.223 20.447 45.671 45.671 45.671h21.58c0-26.998 0-52.909 0-69.643z"/><path d="m426.458 106.638h-29.498c4.95 5.846 7.943 13.402 7.951 21.663.028 31.352.044 53.537.052 69.679h21.495c25.223 0 45.671-20.447 45.671-45.671 0-25.223-20.448-45.671-45.671-45.671z"/></g><g><path d="m196.449 226.252c-16.445 0-29.776 13.331-29.776 29.776v27.291c0 2.056-.208 4.064-.605 6.003h60.157c0-11.318 0-22.735 0-33.294-.001-16.445-13.332-29.776-29.776-29.776z"/><path d="m315.551 226.252c-16.445 0-29.776 13.331-29.776 29.776v33.294h60.157c-.397-1.939-.605-3.946-.605-6.002 0-18.93 0-8.361 0-27.291 0-16.446-13.331-29.777-29.776-29.777z"/><path d="m426.458 197.98h-21.495c.028 58.465-.054 37.59-.085 85.339 0 2.056-.208 4.064-.605 6.003h22.185c25.223 0 45.671-20.447 45.671-45.671 0-25.224-20.448-45.671-45.671-45.671z"/><path d="m107.122 283.319c0-21.62 0-54.202 0-85.339h-21.58c-25.223 0-45.671 20.447-45.671 45.671 0 25.223 20.447 45.671 45.671 45.671h22.185c-.397-1.94-.605-3.947-.605-6.003z"/></g><path d="m426.458 289.321h-22.185c-2.777 13.567-14.782 23.773-29.17 23.773-14.388 0-26.393-10.206-29.17-23.773h-60.157v26.258c0 16.445-13.331 29.776-29.776 29.776-16.445 0-29.776-13.331-29.776-29.776 0-8.372 0-17.284 0-26.258h-60.157c-2.777 13.567-14.782 23.773-29.17 23.773s-26.393-10.206-29.17-23.773h-22.185c-25.223 0-45.671 20.447-45.671 45.671 0 25.223 20.447 45.671 45.671 45.671h340.916c25.223 0 45.671-20.447 45.671-45.671 0-25.223-20.448-45.671-45.671-45.671z"/></g><path d="m404.911 128.301c-.017-18.547-15.056-33.567-33.603-33.567h-230.583c-18.558 0-33.603 15.044-33.603 33.603v154.982c0 16.445 13.331 29.776 29.776 29.776s29.776-13.331 29.776-29.776c0-18.93 0-8.361 0-27.291 0-16.445 13.331-29.776 29.776-29.776 16.445 0 29.776 13.331 29.776 29.776v59.551c0 16.445 13.331 29.776 29.776 29.776 16.445 0 29.776-13.331 29.776-29.776 0-18.93 0-40.621 0-59.551 0-16.445 13.331-29.776 29.776-29.776 16.445 0 29.776 13.331 29.776 29.776v27.291c0 16.445 13.331 29.776 29.776 29.776 16.445 0 29.776-13.331 29.776-29.776.035-60.932.158-10.109.029-155.018z" fill="#f90"/><circle cx="310.513" cy="147.656" fill="#f95116" r="11.566"/><g><path d="m280.491 186.33h-48.982c-4.143 0-7.5-3.358-7.5-7.5s3.358-7.5 7.5-7.5h48.982c4.143 0 7.5 3.358 7.5 7.5s-3.357 7.5-7.5 7.5z" fill="#f95116"/></g><circle cx="201.487" cy="147.656" fill="#f95116" r="11.566"/><path d="m479.63 243.65c0-19.389-10.437-36.381-25.983-45.671 15.546-9.29 25.983-26.281 25.983-45.671 0-29.319-23.853-53.171-53.171-53.171h-26.257c-7.431-7.353-17.642-11.904-28.893-11.904h-34.782v-10.248c0-25.509-20.754-46.263-46.264-46.263h-68.525c-25.51 0-46.264 20.754-46.264 46.263v10.249h-34.75c-11.255 0-21.465 4.55-28.895 11.904h-26.287c-29.319 0-53.17 23.853-53.17 53.171 0 19.389 10.436 36.381 25.982 45.671-15.546 9.29-25.982 26.281-25.982 45.671 0 19.389 10.436 36.381 25.982 45.671-15.546 9.29-25.982 26.281-25.982 45.671 0 28.642 22.403 51.978 51.003 53.127.103.004.204.006.306.006 4.003 0 7.327-3.163 7.49-7.2.166-4.139-3.054-7.629-7.194-7.795-20.525-.825-36.604-17.577-36.604-38.139 0-21.047 17.123-38.171 38.17-38.171h16.605c5.597 14.371 19.53 23.774 34.751 23.774 15.827 0 29.372-9.964 34.751-23.774h47.076v18.758c0 20.554 16.722 37.276 37.276 37.276s37.275-16.722 37.275-37.276v-18.758h47.076c.128.328.265.651.401.975.004.009.007.017.011.026.465 1.098.982 2.167 1.545 3.205.022.041.045.082.068.123.252.459.513.913.783 1.36.042.069.084.14.126.209.291.475.589.943.9 1.403.006.01.013.02.019.029.311.459.633.91.964 1.355.101.135.206.268.309.402.213.278.429.555.65.827.159.197.321.392.485.585.159.188.321.374.484.559.205.233.41.467.621.695l.006.006c4.959 5.371 11.475 9.279 18.823 11.012.051.012.103.024.154.036.426.099.853.193 1.284.277.004 0 .009.001.013.002.705.137 1.418.251 2.137.347.286.039.572.078.86.109.244.027.488.049.733.072.356.032.713.06 1.071.082.2.012.399.026.599.035.566.026 1.134.043 1.706.043.571 0 1.139-.018 1.706-.043.201-.009.4-.023.599-.035.358-.022.715-.049 1.071-.082.245-.022.49-.045.734-.072.286-.032.571-.07.856-.109.721-.097 1.437-.21 2.145-.348.003 0 .005-.001.008-.001.431-.084.859-.179 1.285-.277.051-.012.103-.023.154-.036 7.675-1.811 14.438-5.996 19.472-11.74.15-.17.299-.341.446-.514.173-.205.344-.411.513-.619.207-.254.408-.513.608-.773.116-.151.234-.299.347-.452.324-.435.639-.877.945-1.327.022-.033.043-.066.065-.099.293-.436.576-.878.851-1.327.052-.085.104-.172.155-.258.257-.426.505-.857.746-1.295.033-.06.067-.12.099-.18.556-1.025 1.066-2.081 1.525-3.164.013-.031.025-.063.039-.093.13-.309.261-.616.382-.929h16.605c21.048 0 38.171 17.123 38.171 38.171 0 19.075-14.233 35.341-33.107 37.839-4.107.543-6.995 4.312-6.452 8.419s4.329 6.996 8.419 6.452c26.305-3.48 46.141-26.14 46.141-52.709 0-19.39-10.437-36.381-25.983-45.671 15.543-9.292 25.98-26.283 25.98-45.673zm-15.001-91.341c0 21.047-17.123 38.17-38.171 38.17h-13.999c-.009-15.358-.024-35.431-.047-62.147 0-.013 0-.025 0-.038-.005-4.856-.928-9.82-2.529-14.155h16.576c21.047-.001 38.17 17.123 38.17 38.17zm-274.154-75.324c0-17.238 14.025-31.263 31.263-31.263h68.525c17.238 0 31.263 14.025 31.263 31.263v10.249h-131.051zm-143.103 75.324c0-21.047 17.123-38.171 38.17-38.171h16.61c-1.603 4.342-2.53 9.294-2.53 14.198v62.142h-14.08c-21.047.001-38.17-17.122-38.17-38.169zm0 91.341c0-21.047 17.123-38.17 38.17-38.17h14.08v76.341h-14.08c-21.047 0-38.17-17.123-38.17-38.171zm126.802 38.171v-25.793c0-12.283 9.993-22.275 22.275-22.275 12.283 0 22.275 9.993 22.275 22.275v25.793zm104.101 33.758c0 12.282-9.993 22.275-22.275 22.275s-22.274-9.993-22.274-22.275c0-22.022 0-37.516 0-59.552 0-20.554-16.722-37.276-37.276-37.276s-37.276 16.722-37.276 37.276v27.291c0 12.54-10.277 22.275-22.275 22.275-12.284 0-22.275-10.023-22.275-22.275 0-20.237 0-138.948 0-154.982 0-14.331 11.662-26.102 26.103-26.102h230.584c14.53 0 26.089 11.853 26.103 26.072v.005c.027 31.348 0 102.472-.033 155.006 0 12.362-10.109 22.275-22.275 22.275-12.342 0-22.275-10.075-22.275-22.275v-27.291c0-20.554-16.722-37.276-37.276-37.276s-37.276 16.722-37.276 37.276c-.004 22.031-.004 37.518-.004 59.553zm15.001-59.551c0-12.283 9.993-22.275 22.275-22.275s22.275 9.993 22.275 22.275v25.793h-44.551v-25.793zm119.104 25.793c0-.069 0-.14 0-.209 0-.152 0-.299 0-.449.028-41.171.103-27.421.086-75.683h13.992c21.048 0 38.171 17.123 38.171 38.171s-17.123 38.17-38.171 38.17z" fill="#f95116"/><path d="m472.129 380.663h-432.258c-23.772 0-39.421 24.785-29.201 46.248 13.633 28.63 42.517 46.867 74.227 46.867h342.206c31.71 0 60.594-18.237 74.227-46.867 10.22-21.463-5.429-46.248-29.201-46.248z" fill="#b98eff"/><g><path d="m427.103 481.278h-342.206c-34.411 0-66.204-20.075-80.999-51.143-5.912-12.417-5.059-26.773 2.283-38.402s19.936-18.571 33.69-18.571h432.258c13.753 0 26.347 6.942 33.689 18.571s8.196 25.985 2.283 38.402c-14.794 31.068-46.587 51.143-80.998 51.143zm-387.231-93.115c-8.576 0-16.427 4.329-21.006 11.579-4.578 7.251-5.111 16.202-1.424 23.944 12.321 25.873 38.799 42.591 67.455 42.591h342.206c28.657 0 55.134-16.718 67.455-42.591 3.687-7.742 3.154-16.693-1.424-23.944-4.577-7.251-12.43-11.579-21.005-11.579z" fill="#6d00ca"/></g></g></svg>