<svg id="Capa_1" enable-background="new 0 0 512 512" height="512" viewBox="0 0 512 512" width="512" xmlns="http://www.w3.org/2000/svg"><g><g><path d="m339.633 400.464v78.863c0 13.472-10.921 24.393-24.393 24.393h-40.717c-13.472 0-24.393-10.921-24.393-24.393s10.921-24.393 24.393-24.393h16.324v-54.471h48.786z" fill="#b98eff"/></g><g><path d="m226.107 400.464v78.863c0 13.472-10.921 24.393-24.393 24.393h-40.717c-13.472 0-24.393-10.921-24.393-24.393s10.921-24.393 24.393-24.393h16.324v-54.471h48.786z" fill="#b98eff"/></g><path d="m439.41 215.826h-366.819c-2.451 0-4.832-.296-7.117-.839v121.953c0 35.083 28.441 63.524 63.524 63.524h254.006c35.083 0 63.524-28.441 63.524-63.524v-121.953c-2.286.543-4.666.839-7.118.839z" fill="#7181ff"/><path d="m478.184 240.028h-31.657v52.632h31.657c14.534 0 26.316-11.782 26.316-26.316 0-14.534-11.782-26.316-26.316-26.316z" fill="#a4bcff"/><path d="m33.817 240.028h31.657v52.632h-31.657c-14.534 0-26.316-11.782-26.316-26.316-.001-14.534 11.782-26.316 26.316-26.316z" fill="#a4bcff"/><circle cx="317.258" cy="287.681" fill="#2115c2" r="12.997"/><g><path d="m283.521 330.212h-55.042c-4.143 0-7.5-3.358-7.5-7.5s3.357-7.5 7.5-7.5h55.042c4.143 0 7.5 3.358 7.5 7.5s-3.357 7.5-7.5 7.5z" fill="#2115c2"/></g><circle cx="194.743" cy="287.681" fill="#2115c2" r="12.997"/><g><g><path d="m315.24 511.22h-40.717c-17.586 0-31.893-14.307-31.893-31.893s14.307-31.893 31.893-31.893h8.824v-43.971c0-4.142 3.357-7.5 7.5-7.5s7.5 3.358 7.5 7.5v51.471c0 4.142-3.357 7.5-7.5 7.5h-16.324c-9.314 0-16.893 7.578-16.893 16.893s7.578 16.893 16.893 16.893h40.717c9.314 0 16.893-7.578 16.893-16.893v-75.864c0-4.142 3.357-7.5 7.5-7.5s7.5 3.358 7.5 7.5v75.864c0 17.586-14.307 31.893-31.893 31.893z" fill="#6d00ca"/></g></g><g><g><path d="m201.715 511.22h-40.717c-17.586 0-31.893-14.307-31.893-31.893s14.307-31.893 31.893-31.893h8.824v-43.971c0-4.142 3.357-7.5 7.5-7.5s7.5 3.358 7.5 7.5v51.471c0 4.142-3.357 7.5-7.5 7.5h-16.324c-9.314 0-16.893 7.578-16.893 16.893s7.578 16.893 16.893 16.893h40.717c9.314 0 16.893-7.578 16.893-16.893v-75.864c0-4.142 3.357-7.5 7.5-7.5s7.5 3.358 7.5 7.5v75.864c-.001 17.586-14.307 31.893-31.893 31.893z" fill="#6d00ca"/></g></g><path d="m177.322 400.464h48.785v33.623h-48.785z" fill="#6d00ca"/><path d="m290.848 400.464h48.785v33.623h-48.785z" fill="#6d00ca"/><path d="m478.185 232.528h-24.157v-14.542c0-4.142-3.357-7.5-7.5-7.5s-7.5 3.358-7.5 7.5v118.953c0 30.892-25.132 56.024-56.023 56.024h-254.008c-30.892 0-56.023-25.132-56.023-56.024 0-26.416 0-93.897 0-118.953 0-4.142-3.357-7.5-7.5-7.5s-7.5 3.358-7.5 7.5v14.542h-24.158c-18.646 0-33.816 15.17-33.816 33.816s15.17 33.816 33.816 33.816h24.157v36.779c0 39.163 31.861 71.024 71.023 71.024h254.007c39.162 0 71.023-31.861 71.023-71.024v-36.779h24.157c18.646 0 33.815-15.17 33.815-33.816.002-18.646-15.168-33.816-33.813-33.816zm-444.369 52.633c-10.375 0-18.816-8.441-18.816-18.817 0-10.375 8.441-18.816 18.816-18.816h24.157v37.632h-24.157zm444.369 0h-24.157v-37.632h24.157c10.375 0 18.815 8.441 18.815 18.816s-8.44 18.816-18.815 18.816z" fill="#2115c2"/><path d="m305.022 57.302v-17.28c0-17.531-14.211-31.742-31.742-31.742h-34.559c-17.531 0-31.742 14.211-31.742 31.742v17.279h98.043z" fill="#ff63ed"/><path d="m372.68 57.302h-233.36c-40.785 0-73.847 33.062-73.847 73.847v24.196c2.285-.543 4.666-.839 7.117-.839h366.82c2.451 0 4.832.296 7.117.839v-24.196c0-40.785-33.062-73.847-73.847-73.847z" fill="#b98eff"/><path d="m439.41 154.505h-366.819c-16.933 0-30.66 13.727-30.66 30.66 0 16.933 13.727 30.66 30.66 30.66h366.82c16.933 0 30.66-13.727 30.66-30.66 0-16.932-13.727-30.66-30.661-30.66z" fill="#ff63ed"/><g><path d="m305.022 61.802c-4.143 0-7.5-3.358-7.5-7.5v-14.28c0-13.367-10.875-24.242-24.243-24.242h-34.559c-13.367 0-24.242 10.875-24.242 24.242v14.279c0 4.142-3.357 7.5-7.5 7.5s-7.5-3.358-7.5-7.5v-14.279c0-21.638 17.604-39.242 39.242-39.242h34.559c21.639 0 39.243 17.604 39.243 39.242v14.279c0 4.143-3.357 7.501-7.5 7.501z" fill="#e207b9"/></g><g><path d="m446.527 159.845c-4.143 0-7.5-3.358-7.5-7.5v-21.196c0-36.584-29.763-66.347-66.347-66.347h-233.36c-36.584 0-66.347 29.763-66.347 66.347v21.196c0 4.142-3.357 7.5-7.5 7.5s-7.5-3.358-7.5-7.5v-21.196c0-44.855 36.492-81.347 81.347-81.347h233.36c44.854 0 81.347 36.492 81.347 81.347v21.196c0 4.142-3.357 7.5-7.5 7.5z" fill="#6d00ca"/></g><g><path d="m439.41 223.326h-366.819c-21.042 0-38.161-17.119-38.161-38.16s17.119-38.161 38.161-38.161h366.819c21.042 0 38.161 17.119 38.161 38.161s-17.119 38.16-38.161 38.16zm-366.819-61.321c-12.771 0-23.161 10.39-23.161 23.161s10.39 23.16 23.161 23.16h366.819c12.771 0 23.161-10.39 23.161-23.16s-10.39-23.161-23.161-23.161z" fill="#e207b9"/></g></g></svg>