<svg id="Capa_1" enable-background="new 0 0 512 512" height="512" viewBox="0 0 512 512" width="512" xmlns="http://www.w3.org/2000/svg"><g><path d="m454.034 13.601-295.083 295.083 94.101 94.101c12.82 12.82 33.523 13.015 46.612.47 56.189-53.853 190.609-200.979 189.544-375.151-.113-18.322-22.219-27.458-35.174-14.503z" fill="#7181ff"/><circle cx="375.606" cy="185.103" fill="#2115c2" r="12.571"/><g><path d="m338.847 277.28c-1.919 0-3.839-.732-5.304-2.197-2.929-2.929-2.929-7.678 0-10.607l37.645-37.645c2.93-2.929 7.678-2.929 10.607 0s2.929 7.678 0 10.607l-37.645 37.645c-1.465 1.465-3.385 2.197-5.303 2.197z" fill="#2115c2"/></g><circle cx="291.815" cy="268.895" fill="#2115c2" r="12.571"/><g><path d="m247.749 408.087-33.416-33.415c-2.929-2.929-2.929-7.678 0-10.607 2.928-2.928 7.676-2.93 10.607 0l33.416 33.415c9.847 9.848 26.051 10.009 36.119.358 170.033-162.965 187.581-312.823 187.233-369.689-.033-5.495-3.082-10.019-8.154-12.102-5.044-2.071-10.356-1.003-14.217 2.857l-294.082 294.083c-2.93 2.929-7.678 2.929-10.607 0s-2.929-7.678 0-10.607l294.082-294.082c8.16-8.159 19.855-10.506 30.521-6.126 10.697 4.392 17.386 14.311 17.457 25.886 1.08 176.527-133.81 324.979-191.854 380.612-15.912 15.248-41.53 14.994-57.105-.583z" fill="#2115c2"/></g><path d="m35.158 432.477c-16.482 16.482-16.482 43.204 0 59.685 16.482 16.482 43.204 16.482 59.685 0l123.793-123.793-59.685-59.685z" fill="#ff9bff"/><circle cx="82.532" cy="444.788" fill="#7181ff" r="14.689"/><circle cx="141.42" cy="385.9" fill="#7181ff" r="14.689"/><g><path d="m29.854 497.466c-19.423-19.423-19.427-50.865.001-70.292l123.793-123.794c1.407-1.406 3.314-2.197 5.304-2.197s3.896.79 5.304 2.197l59.685 59.686c2.929 2.929 2.929 7.678 0 10.607l-123.794 123.793c-19.378 19.375-50.909 19.382-70.293 0zm129.097-178.176-118.489 118.49s0 0-.001 0c-13.561 13.561-13.564 35.515 0 49.079 13.531 13.531 35.547 13.531 49.08 0l118.489-118.49z" fill="#e207b9"/></g><g><path d="m66.842 460.478c-8.651-8.652-8.651-22.729 0-31.38 8.672-8.672 22.707-8.673 31.381 0 8.651 8.652 8.651 22.729 0 31.38-8.673 8.672-22.708 8.673-31.381 0zm10.607-20.774c-2.804 2.803-2.804 7.364 0 10.167 2.808 2.809 7.357 2.81 10.166 0 2.804-2.803 2.804-7.364 0-10.167-2.808-2.809-7.357-2.81-10.166 0z" fill="#2115c2"/></g><g><path d="m125.729 401.59c-8.651-8.652-8.651-22.729 0-31.38 8.652-8.651 22.728-8.652 31.381 0h.001c8.651 8.652 8.651 22.729 0 31.38-8.653 8.651-22.73 8.653-31.382 0zm10.607-20.773c-2.804 2.803-2.804 7.364 0 10.167 2.803 2.803 7.363 2.802 10.168 0 2.803-2.803 2.803-7.364-.001-10.167-2.803-2.803-7.364-2.804-10.167 0z" fill="#2115c2"/></g></g></svg>