<svg id="Capa_1" enable-background="new 0 0 512 512" height="512" viewBox="0 0 512 512" width="512" xmlns="http://www.w3.org/2000/svg"><g><path d="m345.031 210.382h-256.925c-14.756 0-27.006-4.948-36.31-12.776v238.359c0 37.851 30.684 68.535 68.535 68.535h192.475c37.851 0 68.535-30.684 68.535-68.535v-238.359c-9.304 7.828-21.555 12.776-36.31 12.776z" fill="#f90"/><path d="m368.682 102.541c-.752-.332-1.513-.653-2.282-.964l-.009-.132c-3.23-46.282-47.458-78.432-92.478-67.225l-.101.025-.085-.101c-29.823-35.523-84.483-35.526-114.31-.007l-.091.109-.101-.025c-45.012-11.221-89.243 20.918-92.476 67.194l-.011.163c-.769.31-1.53.632-2.282.964-55.456 24.477-36.967 107.84 23.65 107.84h256.925c60.617 0 79.106-83.363 23.651-107.841z" fill="#ffff6f"/><g fill="#ffd600"><path d="m216.569 253.392c-13.68 0-24.77 11.09-24.77 24.77v148.56c0 13.68 11.09 24.77 24.77 24.77s24.77-11.09 24.77-24.77v-148.56c-.001-13.681-11.09-24.77-24.77-24.77z"/><path d="m122.073 253.392c-13.68 0-24.77 11.09-24.77 24.77v148.56c0 13.68 11.09 24.77 24.77 24.77s24.77-11.09 24.77-24.77v-148.56c0-13.681-11.09-24.77-24.77-24.77z"/><path d="m311.064 253.392c13.68 0 24.77 11.09 24.77 24.77v148.56c0 13.68-11.09 24.77-24.77 24.77s-24.77-11.09-24.77-24.77v-148.56c0-13.681 11.09-24.77 24.77-24.77z"/><path d="m410.041 230.847h-28.7v51.705h28.7c10.398 0 18.858 8.46 18.858 18.858v77.787c0 10.398-8.46 18.858-18.858 18.858h-28.7v37.91c0 4.725-.479 9.339-1.389 13.795h30.09c38.909 0 70.563-31.654 70.563-70.563v-77.787c-.001-38.909-31.655-70.563-70.564-70.563z"/></g><circle cx="270.677" cy="119.075" fill="#f95116" r="11.481"/><g><path d="m240.878 157.517h-48.62c-4.142 0-7.5-3.358-7.5-7.5s3.358-7.5 7.5-7.5h48.62c4.142 0 7.5 3.358 7.5 7.5s-3.357 7.5-7.5 7.5z" fill="#f95116"/></g><circle cx="162.46" cy="119.075" fill="#f95116" r="11.481"/><g><path d="m216.568 458.99c-17.793 0-32.27-14.476-32.27-32.27v-148.56c0-17.793 14.476-32.27 32.27-32.27s32.27 14.476 32.27 32.27v148.56c0 17.794-14.476 32.27-32.27 32.27zm0-198.098c-9.522 0-17.27 7.747-17.27 17.27v148.56c0 9.523 7.747 17.27 17.27 17.27s17.27-7.747 17.27-17.27v-148.56c0-9.523-7.747-17.27-17.27-17.27z" fill="#f95116"/></g><g><path d="m122.073 458.99c-17.793 0-32.27-14.476-32.27-32.27v-148.56c0-17.793 14.476-32.27 32.27-32.27s32.27 14.476 32.27 32.27v148.56c0 17.794-14.476 32.27-32.27 32.27zm0-198.098c-9.522 0-17.27 7.747-17.27 17.27v148.56c0 9.523 7.747 17.27 17.27 17.27s17.27-7.747 17.27-17.27v-148.56c0-9.523-7.747-17.27-17.27-17.27z" fill="#f95116"/></g><g><path d="m311.064 458.99c-17.794 0-32.27-14.476-32.27-32.27v-148.56c0-17.793 14.476-32.27 32.27-32.27 17.793 0 32.27 14.476 32.27 32.27v148.56c0 17.794-14.477 32.27-32.27 32.27zm0-198.098c-9.523 0-17.27 7.747-17.27 17.27v148.56c0 9.523 7.747 17.27 17.27 17.27 9.522 0 17.27-7.747 17.27-17.27v-148.56c0-9.523-7.748-17.27-17.27-17.27z" fill="#f95116"/></g><path d="m410.041 223.347h-21.2v-22.425c9.987-9.512 16.391-21.915 18.997-34.272 5.188-24.603-3.51-55.574-34.397-70.179-2.798-22.517-14.733-42.833-33.208-56.263-18.466-13.424-41.464-18.51-63.731-14.235-15.501-16.559-37.096-25.972-59.928-25.973-.003 0-.002 0-.005 0-22.832 0-44.433 9.415-59.932 25.972-22.265-4.279-45.26.8-63.725 14.217-18.488 13.434-30.429 33.764-33.218 56.283-30.882 14.606-39.583 45.577-34.396 70.179 2.606 12.357 9.011 24.76 18.998 34.272v235.043c0 41.925 34.109 76.035 76.035 76.035h192.475c34.534 0 63.744-23.15 72.978-54.74h24.257c43.044 0 78.063-35.019 78.063-78.063v-77.788c.001-43.044-35.019-78.063-78.063-78.063zm-21.2 66.705h21.2c6.263 0 11.358 5.095 11.358 11.358v77.788c0 6.263-5.096 11.358-11.358 11.358h-21.2zm-348.865-126.497c-4.706-22.317 4.79-45.031 29.566-55.021 2.664-1.074 4.48-3.575 4.678-6.439l.011-.157c1.386-19.839 11.409-37.923 27.498-49.613 16.115-11.71 36.416-15.629 55.686-10.826l.101.025c2.778.691 5.709-.26 7.552-2.453l.093-.111c12.786-15.228 31.523-23.96 51.407-23.96h.004c19.885.001 38.624 8.736 51.42 23.979l.085.101c1.841 2.184 4.763 3.131 7.536 2.445l.11-.027c19.302-4.804 39.6-.853 55.688 10.843 16.089 11.696 26.111 29.784 27.496 49.628l.009.133c.201 2.861 2.016 5.358 4.676 6.431.694.28 1.38.57 2.06.87 26.286 11.603 31.247 36.423 27.507 54.152-4.9 23.233-23.588 39.328-48.13 39.328h-256.924c-24.408-.001-43.203-15.97-48.129-39.328zm272.83 333.445h-192.475c-33.655 0-61.035-27.38-61.035-61.035v-224.546c9.066 4.468 18.98 6.463 28.81 6.463h256.924c9.81 0 19.725-1.985 28.81-6.463v224.547c.001 33.581-27.31 61.034-61.034 61.034zm160.299-117.803c0 34.772-28.29 63.063-63.063 63.063h-21.459c.137-1.663.259-4.26.259-6.294v-30.41h21.2c14.534 0 26.358-11.824 26.358-26.358v-77.788c0-14.534-11.824-26.358-26.358-26.358h-21.2v-36.705h21.2c34.773 0 63.063 28.29 63.063 63.063z" fill="#f95116"/></g></svg>