<svg id="Capa_1" enable-background="new 0 0 512 512" height="512" viewBox="0 0 512 512" width="512" xmlns="http://www.w3.org/2000/svg"><g><path d="m173.144 400.441v51.289h-17.658c-14.572 0-26.385 11.813-26.385 26.385s11.813 26.385 26.385 26.385h44.043c14.572 0 26.385-11.813 26.385-26.385v-71.335c-18.503-1.132-36.204-3.293-52.77-6.339z" fill="#ff63ed"/><path d="m295.942 406.074v45.656h-17.658c-14.572 0-26.385 11.813-26.385 26.385s11.813 26.385 26.385 26.385h44.043c14.572 0 26.385-11.813 26.385-26.385v-79.616c-16.45 3.471-34.161 6.046-52.77 7.575z" fill="#ff63ed"/><g><path d="m199.529 512h-44.043c-18.685 0-33.885-15.201-33.885-33.885s15.2-33.885 33.885-33.885h10.157v-40.789c0-4.142 3.357-7.5 7.5-7.5s7.5 3.358 7.5 7.5v48.289c0 4.142-3.357 7.5-7.5 7.5h-17.657c-10.413 0-18.885 8.472-18.885 18.885s8.472 18.885 18.885 18.885h44.043c10.413 0 18.885-8.472 18.885-18.885v-68.335c0-4.142 3.357-7.5 7.5-7.5s7.5 3.358 7.5 7.5v68.335c0 18.684-15.201 33.885-33.885 33.885z" fill="#e207b9"/></g><g><path d="m322.327 512h-44.042c-18.685 0-33.886-15.201-33.886-33.885s15.201-33.885 33.886-33.885h10.157v-35.156c0-4.142 3.357-7.5 7.5-7.5s7.5 3.358 7.5 7.5v42.656c0 4.142-3.357 7.5-7.5 7.5h-17.657c-10.414 0-18.886 8.472-18.886 18.885s8.472 18.885 18.886 18.885h44.042c10.414 0 18.886-8.472 18.886-18.885v-76.616c0-4.142 3.357-7.5 7.5-7.5s7.5 3.358 7.5 7.5v76.616c-.001 18.684-15.202 33.885-33.886 33.885z" fill="#e207b9"/></g><path d="m173.144 428.674c16.884 2.894 34.582 4.895 52.77 5.946v-27.84c-18.502-1.132-36.204-3.293-52.77-6.339z" fill="#e207b9"/><path d="m295.942 433.955c18.269-1.415 35.972-3.798 52.77-7.09v-28.366c-16.45 3.471-34.161 6.046-52.77 7.575z" fill="#e207b9"/><path d="m344.024 43.119c5.348 7.723 8.223 17.363 7.209 27.939l-.01.1c7.854 1.738 14.52 5.426 19.767 10.356 21.833 20.516 13.791 56.969-14.184 67.693-6.576 2.521-15.379 5.214-26.877 7.554l-11.7 11.7c-8.482 8.482-22.235 8.482-30.718 0-1.812-1.812-3.212-3.872-4.25-6.062-8.381.46-17.472.719-27.332.719-.421 0-.83-.004-1.248-.005-.418.001-.827.005-1.248.005-9.86 0-18.951-.259-27.332-.719-1.038 2.19-2.438 4.25-4.25 6.062-8.482 8.482-22.235 8.483-30.718 0l-11.7-11.7c-11.498-2.34-20.301-5.034-26.877-7.554-27.974-10.723-36.016-47.177-14.184-67.693 5.247-4.93 11.912-8.618 19.767-10.356l-.01-.1c-.987-10.294 1.709-19.703 6.784-27.319-68.235 14.083-115.187 43.491-115.187 77.495 0 27.116 29.863 51.308 76.56 67.14l1.868-1.868c8.482-8.482 22.235-8.482 30.718 0 3.444 3.444 5.465 7.76 6.112 12.237 27.454 5.661 58.344 8.846 91.016 8.846 31.598 0 61.531-2.979 88.3-8.295.554-4.673 2.606-9.202 6.192-12.788 8.482-8.482 22.235-8.483 30.718 0l2.533 2.533c47.831-15.815 78.532-40.308 78.532-67.805 0-34.51-48.36-64.287-118.251-78.115z" fill="#88f8d8"/><path d="m383.742 189.039 9.462 9.462c8.483 8.482 8.482 22.235 0 30.718s-22.235 8.482-30.718 0l-11.994-11.994c-4.897-4.897-6.949-11.548-6.192-17.93-26.769 5.316-56.702 8.295-88.3 8.295-32.672 0-63.562-3.185-91.016-8.846.947 6.548-1.074 13.443-6.112 18.481l-11.994 11.994c-8.482 8.482-22.235 8.482-30.718 0s-8.483-22.235 0-30.718l10.127-10.127c-46.698-15.832-76.56-40.024-76.56-67.14v200.108c0 47.693 92.352 86.355 206.274 86.355s206.274-38.663 206.274-86.355v-200.108c0 27.497-30.702 51.99-78.533 67.805z" fill="#17d9c3"/><path d="m128.694 181.271c-28.004-9.486-71.469-30.448-71.469-60.037 0-17.421 15.571-31.344 28.634-39.956 19.593-12.918 47.454-23.359 80.571-30.194 4.057-.837 6.667-4.805 5.829-8.861-.837-4.056-4.808-6.666-8.86-5.829-74.743 15.426-121.173 47.935-121.173 84.84v200.108c0 26.285 23.092 50.427 65.02 67.98 39.856 16.686 92.685 25.875 148.755 25.875s108.897-9.189 148.754-25.875c41.93-17.553 65.02-41.696 65.02-67.98v-200.108c0-37.553-47.627-70.304-124.294-85.472-4.07-.804-8.01 1.838-8.813 5.902s1.839 8.009 5.901 8.813c33.928 6.712 62.53 17.169 82.713 30.239 13.455 8.713 29.493 22.815 29.493 40.518 0 .711-.027 1.422-.08 2.133-.042.556-.113 1.112-.187 1.668-.02.154-.029.308-.052.462-4.189 28.127-46.193 47.534-73.068 56.422l2.354 14.623c6.848 0 51.67-18.476 71.033-40.05v164.851c0 19.56-20.343 39.295-55.812 54.144-38.064 15.936-88.836 24.711-142.962 24.711-54.127 0-104.898-8.776-142.963-24.711-35.47-14.849-55.812-34.584-55.812-54.144v-164.885c16.437 18.351 43.216 31.108 66.652 39.019z" fill="#007ea8"/><g><path d="m255.929 170.619-1.265-.005-1.23.005c-9.586 0-18.92-.246-27.743-.731-4.136-.227-7.305-3.764-7.077-7.9.227-4.136 3.764-7.308 7.899-7.077 8.551.47 17.608.708 26.921.708l1.23-.005 1.265.005c9.312 0 18.37-.238 26.921-.708 4.118-.228 7.673 2.941 7.899 7.077.228 4.136-2.941 7.673-7.077 7.9-8.823.486-18.157.731-27.743.731z" fill="#007ea8"/></g><g><path d="m256 215.089c-32.435 0-63.567-3.028-92.531-9-4.057-.836-6.667-4.803-5.831-8.86.837-4.057 4.805-6.667 8.86-5.831 27.97 5.767 58.082 8.691 89.502 8.691 30.388 0 59.604-2.742 86.839-8.151 4.063-.806 8.011 1.832 8.817 5.895.807 4.063-1.833 8.01-5.896 8.817-28.193 5.6-58.393 8.439-89.76 8.439z" fill="#007ea8"/></g><path d="m191.134 168.462-11.994-11.994c-8.482-8.482-8.482-22.235 0-30.718s22.235-8.483 30.718 0l11.994 11.994c8.482 8.482 8.482 22.235 0 30.718s-22.235 8.483-30.718 0z" fill="#ff63ed"/><path d="m370.99 81.515c-5.247-4.93-11.912-8.618-19.767-10.356l.01-.1c3.07-32.009-29.344-55.562-58.839-42.754l-.057.025-.05-.085c-8.408-14.251-23.099-21.146-37.606-20.725-14.506-.421-29.198 6.474-37.606 20.725l-.05.085-.057-.025c-29.495-12.808-61.909 10.745-58.839 42.754l.01.1c-7.854 1.738-14.52 5.426-19.767 10.356-21.833 20.516-13.791 56.969 14.184 67.693 6.576 2.521 15.379 5.214 26.877 7.554l-.295-.295c-8.482-8.482-8.482-22.235 0-30.718s22.235-8.483 30.718 0l11.994 11.994c6.671 6.671 8.071 16.593 4.25 24.656 8.381.46 17.472.719 27.332.719.421 0 .83-.004 1.248-.005.418.001.827.005 1.248.005 9.86 0 18.951-.259 27.332-.719-3.821-8.063-2.421-17.985 4.25-24.656l11.994-11.994c8.483-8.482 22.235-8.482 30.718 0s8.483 22.235 0 30.718l-.295.295c11.498-2.34 20.301-5.034 26.877-7.554 27.977-10.724 36.019-47.178 14.186-67.693z" fill="#ffff6f"/><g fill="#ff63ed"><path d="m318.229 168.462 11.994-11.994c8.483-8.482 8.482-22.235 0-30.718-8.482-8.482-22.235-8.483-30.718 0l-11.994 11.994c-8.482 8.482-8.482 22.235 0 30.718 8.483 8.482 22.236 8.483 30.718 0z"/><path d="m116.16 198.501 11.994-11.994c8.482-8.482 22.235-8.482 30.718 0s8.483 22.235 0 30.718l-11.994 11.994c-8.482 8.482-22.235 8.482-30.718 0s-8.483-22.236 0-30.718z"/><path d="m393.204 198.501-11.994-11.994c-8.483-8.482-22.235-8.482-30.718 0s-8.483 22.235 0 30.718l11.994 11.994c8.483 8.482 22.235 8.482 30.718 0s8.482-22.236 0-30.718z"/></g><circle cx="318.676" cy="289.563" fill="#007ea8" r="13.298"/><g><path d="m284.159 332.904h-56.317c-4.143 0-7.5-3.358-7.5-7.5s3.357-7.5 7.5-7.5h56.317c4.143 0 7.5 3.358 7.5 7.5s-3.358 7.5-7.5 7.5z" fill="#007ea8"/></g><circle cx="193.325" cy="289.563" fill="#007ea8" r="13.298"/><g><path d="m330.03 164.242c-3.49 0-6.616-2.449-7.341-6.002-.828-4.058 1.791-8.02 5.85-8.848 9.694-1.978 18.302-4.396 25.584-7.187 11.012-4.221 18.947-13.671 21.229-25.279 2.217-11.275-1.244-22.19-9.497-29.945-4.528-4.255-9.996-7.115-16.252-8.499-3.676-.813-6.179-4.226-5.851-7.976l.009-.1c1.191-12.424-4.099-24.162-14.145-31.462-10.047-7.3-22.845-8.704-34.234-3.758-3.477 1.51-7.593.212-9.513-3.057-6.557-11.113-18.12-17.479-30.97-17.111-.146.004-.289.004-.436 0-12.829-.369-24.414 5.998-30.929 17.04-1.919 3.251-6.003 4.656-9.473 3.163-11.474-4.982-24.27-3.576-34.316 3.723-10.046 7.3-15.336 19.038-14.15 31.4l.009.091c.367 3.774-2.142 7.229-5.844 8.048-6.257 1.385-11.725 4.244-16.252 8.499-8.253 7.755-11.715 18.67-9.498 29.945 2.282 11.608 10.219 21.058 21.23 25.28 7.254 2.781 15.826 5.191 25.478 7.166 4.058.83 6.675 4.793 5.845 8.851-.829 4.058-4.792 6.676-8.851 5.845-10.455-2.138-19.822-4.781-27.842-7.855-15.863-6.081-27.295-19.686-30.58-36.392-3.187-16.208 2.027-32.57 13.945-43.769 4.916-4.62 10.78-8.177 17.203-10.466.386-15.345 7.779-29.541 20.488-38.776 12.683-9.214 28.427-11.869 43.152-7.518 9.623-12.573 24.414-19.677 40.601-19.273 16.198-.4 30.979 6.701 40.602 19.275 14.744-4.351 30.476-1.693 43.15 7.516 12.696 9.226 20.089 23.403 20.483 38.774 6.424 2.289 12.291 5.846 17.209 10.468 11.918 11.2 17.131 27.562 13.944 43.77-3.284 16.707-14.716 30.311-30.579 36.392-8.05 3.086-17.455 5.736-27.955 7.878-.502.099-1.006.149-1.503.149z" fill="#f95116"/></g><g><path d="m255.929 170.619-1.265-.005-1.23.005c-9.467 0-18.689-.24-27.414-.713-4.136-.224-7.307-3.759-7.083-7.895.225-4.136 3.728-7.307 7.895-7.083 8.454.458 17.404.691 26.602.691l1.23-.005 1.265.005c9.191 0 18.138-.232 26.59-.69 4.136-.221 7.67 2.947 7.895 7.083.224 4.136-2.947 7.671-7.084 7.895-8.721.473-17.94.712-27.401.712z" fill="#f95116"/></g><g><path d="m185.831 173.765-11.994-11.994c-11.394-11.393-11.394-29.931-.001-41.325 11.42-11.419 29.903-11.421 41.325 0l11.994 11.994c11.394 11.393 11.394 29.931.001 41.324-11.421 11.421-29.903 11.422-41.325.001zm-1.388-42.712c-5.545 5.545-5.545 14.566 0 20.111l11.994 11.994h.001c5.557 5.558 14.553 5.558 20.11 0 5.545-5.545 5.545-14.567 0-20.111l-11.994-11.994c-5.557-5.556-14.553-5.559-20.111 0z" fill="#e207b9"/></g><g><path d="m282.208 173.766c-11.394-11.393-11.394-29.931-.001-41.325l11.996-11.995c11.408-11.408 29.902-11.421 41.324 0 11.393 11.393 11.393 29.931 0 41.324l-11.996 11.995c-11.39 11.393-29.93 11.393-41.323.001zm22.602-42.713-11.996 11.995c-5.544 5.544-5.544 14.566.001 20.111 5.545 5.544 14.567 5.544 20.11 0h.001l11.995-11.994c5.544-5.545 5.544-14.566-.001-20.111-5.556-5.558-14.553-5.559-20.11-.001z" fill="#e207b9"/></g><g><path d="m256 215.089c-32.337 0-63.384-3.01-92.276-8.948-4.058-.834-6.671-4.799-5.837-8.856.834-4.058 4.8-6.67 8.856-5.837 27.901 5.734 57.932 8.641 89.257 8.641 30.283 0 59.409-2.724 86.568-8.098 4.072-.803 8.009 1.839 8.813 5.902s-1.839 8.009-5.901 8.813c-28.115 5.563-58.221 8.383-89.48 8.383z" fill="#007ea8"/></g><g><path d="m110.856 234.522c-11.393-11.393-11.393-29.931 0-41.324l11.994-11.994c11.41-11.408 29.903-11.421 41.325 0 11.393 11.393 11.393 29.931 0 41.324l-11.994 11.994c-11.409 11.408-29.903 11.421-41.325 0zm22.602-42.712-11.994 11.994c-5.545 5.545-5.545 14.567 0 20.111 5.556 5.557 14.553 5.558 20.11 0l11.994-11.994c5.545-5.545 5.545-14.567 0-20.111-5.557-5.558-14.553-5.558-20.11 0z" fill="#e207b9"/></g><g><path d="m357.183 234.522-11.995-11.995c-11.393-11.393-11.393-29.931 0-41.324 11.42-11.42 29.903-11.421 41.325 0l11.994 11.994h.001c11.419 11.421 11.42 29.904-.002 41.325-11.392 11.392-29.93 11.393-41.323 0zm-1.388-42.712c-5.545 5.545-5.545 14.567 0 20.111l11.994 11.994c5.543 5.543 14.565 5.545 20.11 0 5.558-5.557 5.56-14.553.001-20.111l-11.994-11.994c-5.557-5.557-14.552-5.56-20.111 0z" fill="#e207b9"/></g></g></svg>