<svg id="Capa_1" enable-background="new 0 0 512 512" height="512" viewBox="0 0 512 512" width="512" xmlns="http://www.w3.org/2000/svg"><g><path d="m363.4 219.049h-214.8c-24.694 0-44.712 20.018-44.712 44.712v152.193c0 24.694 20.018 44.712 44.712 44.712h214.8c24.694 0 44.712-20.018 44.712-44.712v-152.193c0-24.694-20.018-44.712-44.712-44.712z" fill="#7181ff"/><path d="m363.4 7.5h-214.8c-24.694 0-44.712 20.018-44.712 44.712v122.124c0 24.694 20.018 44.712 44.712 44.712h214.8c24.694 0 44.712-20.018 44.712-44.712v-122.123c0-24.694-20.018-44.713-44.712-44.713z" fill="#7181ff"/><g fill="#ff9bff"><path d="m170.455 58.878c-12.07 0-21.855 9.785-21.855 21.855v65.083c0 12.07 9.785 21.855 21.855 21.855 12.07 0 21.855-9.785 21.855-21.855v-65.083c.001-12.07-9.784-21.855-21.855-21.855z"/><path d="m170.455 270.427c-12.07 0-21.855 9.785-21.855 21.855v95.152c0 12.07 9.785 21.855 21.855 21.855 12.07 0 21.855-9.785 21.855-21.855v-95.152c.001-12.07-9.784-21.855-21.855-21.855z"/><path d="m148.6 460.667c-5.311 0-10.404-.931-15.13-2.631v26.533c0 11.008 8.924 19.931 19.931 19.931h28.001c11.008 0 19.931-8.924 19.931-19.931v-23.902z"/><path d="m363.4 460.667h-52.734v23.902c0 11.008 8.924 19.931 19.931 19.931h28.001c11.008 0 19.931-8.924 19.931-19.931v-26.533c-4.725 1.7-9.818 2.631-15.129 2.631z"/></g><g><path d="m170.456 175.171c-16.187 0-29.355-13.169-29.355-29.355v-65.083c0-16.187 13.169-29.355 29.355-29.355s29.355 13.169 29.355 29.355v65.083c0 16.186-13.169 29.355-29.355 29.355zm0-108.793c-7.916 0-14.355 6.44-14.355 14.355v65.083c0 7.916 6.439 14.355 14.355 14.355s14.355-6.44 14.355-14.355v-65.083c0-7.915-6.439-14.355-14.355-14.355z" fill="#e207b9"/></g><g><path d="m170.456 416.789c-16.187 0-29.355-13.169-29.355-29.355v-95.152c0-16.187 13.169-29.355 29.355-29.355s29.355 13.169 29.355 29.355v95.152c0 16.186-13.169 29.355-29.355 29.355zm0-138.862c-7.916 0-14.355 6.44-14.355 14.355v95.152c0 7.916 6.439 14.355 14.355 14.355s14.355-6.44 14.355-14.355v-95.152c0-7.916-6.439-14.355-14.355-14.355z" fill="#e207b9"/></g><g><path d="m181.403 512h-28.001c-15.126 0-27.432-12.306-27.432-27.431v-23.533c0-4.142 3.357-7.5 7.5-7.5s7.5 3.358 7.5 7.5v23.533c0 6.855 5.577 12.431 12.432 12.431h28.001c6.854 0 12.431-5.577 12.431-12.431v-20.902c0-4.142 3.357-7.5 7.5-7.5s7.5 3.358 7.5 7.5v20.902c0 15.126-12.306 27.431-27.431 27.431z" fill="#e207b9"/></g><g><path d="m358.598 512h-28.001c-15.125 0-27.431-12.306-27.431-27.431v-20.902c0-4.142 3.357-7.5 7.5-7.5s7.5 3.358 7.5 7.5v20.902c0 6.855 5.576 12.431 12.431 12.431h28.001c6.854 0 12.432-5.577 12.432-12.431v-23.533c0-4.142 3.357-7.5 7.5-7.5s7.5 3.358 7.5 7.5v23.533c0 15.126-12.306 27.431-27.432 27.431z" fill="#e207b9"/></g><path d="m415.613 174.336v-122.124c0-28.789-23.423-52.212-52.213-52.212h-214.8c-28.79 0-52.213 23.423-52.213 52.212v122.124c0 18.943 10.142 35.56 25.28 44.712-15.138 9.152-25.28 25.769-25.28 44.712v152.193c0 28.79 23.423 52.212 52.213 52.212h214.8c28.79 0 52.213-23.423 52.213-52.212v-152.192c0-18.943-10.142-35.56-25.28-44.712 15.138-9.153 25.28-25.769 25.28-44.713zm-15 89.425v152.193c0 20.519-16.693 37.212-37.213 37.212h-214.8c-20.52 0-37.213-16.693-37.213-37.212v-152.193c0-20.519 16.693-37.212 37.213-37.212h214.8c20.52 0 37.213 16.693 37.213 37.212zm-252.013-52.212c-20.52 0-37.213-16.693-37.213-37.212v-122.125c0-20.519 16.694-37.212 37.213-37.212h214.8c20.52 0 37.213 16.693 37.213 37.212v122.124c0 20.519-16.693 37.212-37.213 37.212h-214.8z" fill="#2115c2"/></g></svg>