<svg id="Capa_1" enable-background="new 0 0 512 512" height="512" viewBox="0 0 512 512" width="512" xmlns="http://www.w3.org/2000/svg"><g><path d="m39.886 328.037h181.638l24.862-40.791c5.764-9.457 4.96-21.516-2.008-30.124-7.833-9.676-21.393-12.506-32.441-6.769l-42.462 22.048c-14.401-16.067-35.306-26.183-58.58-26.183-43.44 0-78.655 35.215-78.655 78.655 0 1.358.034 2.707.102 4.048 2.403-.566 4.92-.884 7.544-.884z" fill="#ffd600"/><path d="m496.429 125.933c-5.574-5.574-13.102-8.001-20.379-7.284.717-7.277-1.71-14.805-7.284-20.379-9.877-9.877-25.891-9.877-35.768 0-9.501 9.501-9.858 24.677-1.081 34.611l-30.132 30.132c2.252 1.39 4.364 3.03 6.269 4.936l18.697 18.697c1.905 1.905 3.546 4.017 4.936 6.269l30.132-30.132c9.934 8.777 25.11 8.42 34.611-1.081 9.876-9.877 9.876-25.891-.001-35.769z" fill="#88f8d8"/><path d="m426.75 186.646-18.697-18.697c-8.616-8.616-21.273-12.137-33.456-8.994-21.623 5.577-43.474 17.48-56.168 30.174-25.139 25.139-26.012 65.026-1.948 89.089 24.063 24.063 63.95 23.191 89.089-1.948 12.694-12.694 24.597-34.546 30.174-56.168 3.142-12.183-.379-24.84-8.994-33.456z" fill="#ffd600"/><path d="m405.57 276.27c-25.139 25.139-65.026 26.012-89.089 1.948-24.063-24.063-23.191-63.95 1.948-89.089 7.46-7.46 18.093-14.636 29.974-20.426-28.644-16.718-61.961-26.303-97.52-26.303-78.005 0-145.231 46.096-175.953 112.53 10.782-5.556 23.002-8.712 35.966-8.712 23.274 0 44.179 10.116 58.58 26.183l42.462-22.048c11.049-5.737 24.609-2.908 32.441 6.769 6.968 8.608 7.772 20.667 2.008 30.124l-24.862 40.791h222.953c-1.161-28.08-8.308-54.611-20.181-78.369-5.469 10.511-11.981 19.856-18.727 26.602z" fill="#f90"/><g><path d="m427.382 197.218c-2.929-2.929-2.929-7.677 0-10.606l29.133-29.132c2.803-2.802 7.301-2.94 10.269-.317 7.018 6.202 17.711 5.867 24.343-.764 6.936-6.937 6.936-18.225-.001-25.162-3.781-3.781-9.007-5.649-14.341-5.123-4.702.466-8.663-3.496-8.199-8.2.526-5.332-1.341-10.559-5.123-14.34-6.952-6.953-18.207-6.954-25.161 0-6.632 6.63-6.967 17.323-.765 24.342 2.624 2.969 2.485 7.467-.316 10.269l-29.133 29.133c-2.931 2.929-7.678 2.928-10.607 0-2.929-2.929-2.929-7.677 0-10.606l24.698-24.698c-6.917-12.517-4.984-28.546 5.516-39.046 12.812-12.815 33.558-12.817 46.373 0 5.052 5.051 8.25 11.499 9.259 18.404 6.905 1.01 13.353 4.208 18.405 9.259 12.785 12.786 12.785 33.589 0 46.375-10.501 10.5-26.529 12.432-39.047 5.516l-24.697 24.698c-2.929 2.927-7.677 2.928-10.606-.002z" fill="#007ea8"/></g><path d="m432.645 249.705c4.353-8.898 7.951-18.388 10.361-27.73 3.754-14.553-.443-30.123-10.953-40.632l-18.698-18.697c-10.509-10.509-26.078-14.707-40.631-10.953-8.046 2.076-16.202 5.035-23.996 8.593-29.799-16.604-63.533-25.386-97.846-25.386-39.17 0-77.14 11.262-109.806 32.57-31.107 20.292-55.89 48.625-71.85 82.028-26.502 14.709-44.486 42.976-44.486 75.374 0 4.142 3.357 7.5 7.5 7.5s7.5-3.358 7.5-7.5c0-28.152 16.436-52.536 40.215-64.067.054-.026.108-.054.162-.08 9.397-4.527 19.884-7.008 30.778-7.008 20.105 0 39.448 8.575 52.996 23.689 2.118 2.363 5.847 3.31 9.041 1.65l42.461-22.048c7.851-4.077 17.59-2.045 23.155 4.831 4.961 6.129 5.537 14.77 1.434 21.502l-24.661 40.46c-2.151 3.53-1.044 8.146 2.501 10.307 3.543 2.16 8.155 1.031 10.307-2.5l24.661-40.461c7.394-12.131 6.356-27.702-2.583-38.745-10.029-12.392-27.579-16.051-41.726-8.706l-37.485 19.464c-16.031-15.601-37.62-24.443-60.102-24.443-6.614 0-13.584.78-20.223 2.382 14.542-24.482 34.535-45.369 58.6-61.066 30.223-19.714 65.359-30.134 101.611-30.134 28.438 0 56.449 6.497 81.79 18.885-21.18 13.013-36.091 30.217-40.2 54.841-7.015 41.681 23.801 79.585 66.729 79.585 24.155 0 47.032-11.318 64.238-37.287 8.057 19.725 12.601 40.553 13.53 62.094.179 4.139 3.675 7.35 7.816 7.17 4.138-.178 7.348-3.678 7.17-7.816-1.17-27.159-7.673-53.265-19.31-77.666zm-4.164-31.476c-2.315 8.975-5.872 18.393-10.838 27.978-12.496 24.014-30.345 41.403-57.187 41.99-30.462.681-54.625-23.375-53.955-53.956.238-10.883 3.579-21.505 9.902-30.928 12.227-18.129 38.997-31.662 60.066-37.096 9.433-2.433 19.503.258 26.279 7.035l18.697 18.697c6.775 6.773 9.471 16.843 7.036 26.28z" fill="#f95116"/><path d="m472.11 328.037h-432.224c-23.77 0-39.418 24.783-29.199 46.244 13.632 28.628 42.513 46.863 74.221 46.863h342.179c31.708 0 60.589-18.236 74.221-46.863 10.22-21.461-5.428-46.244-29.198-46.244z" fill="#17d9c3"/><g><path d="m427.088 428.645h-342.179c-34.408 0-66.199-20.073-80.992-51.139-12.576-26.412 6.661-56.969 35.97-56.969h432.223c29.253 0 48.571 30.505 35.97 56.968-14.793 31.066-46.584 51.14-80.992 51.14zm-387.202-93.108c-18.239 0-30.284 19.021-22.427 35.52 12.32 25.871 38.796 42.588 67.45 42.588h342.179c28.654 0 55.13-16.717 67.45-42.588 7.857-16.499-4.189-35.52-22.428-35.52z" fill="#007ea8"/></g></g></svg>