<svg id="Capa_1" enable-background="new 0 0 512 512" height="512" viewBox="0 0 512 512" width="512" xmlns="http://www.w3.org/2000/svg"><g><path d="m69.454 340.566c10.171 0 19.824 2.013 28.528 5.615-.299-3.804-.326-7.682-.022-11.624 1.413-18.263 4.876-36.874 10.307-55.471v.001c-11.631-8.457-21.618-20.139-28.515-34.464-10.635-22.09-11.799-46.008-5.054-66.265 5.203-15.624 22.312-23.861 37.77-18.184 4.173 1.533 8.251 3.446 12.196 5.695-.327-1.903-.606-3.826-.82-5.776-2.675-24.37 4.19-47.312 17.294-64.168 10.107-13.001 28.983-15.072 41.669-4.573 10.207 8.447 18.571 19.707 24.092 32.856 27.509-25.234 57.601-45.154 88.546-59.528 27.707-12.869 56.096-21.282 83.922-25.111-35.865-20.342-77.323-31.969-121.501-31.969-136.213 0-246.635 110.423-246.635 246.635 0 34.425 7.062 67.198 19.802 96.963 11.007-6.712 24.211-10.632 38.421-10.632z" fill="#ffd600"/><path d="m472.354 132.418c-3.821 27.865-12.241 56.296-25.129 84.044-15.495 33.337-37.43 65.688-65.508 94.887 4.004 2.284 7.778 5.122 11.195 8.539 20.617 20.617 20.617 54.044 0 74.662-20.013 20.013-52.095 20.596-72.815 1.755-.118 10.63-4.225 21.225-12.336 29.336-16.463 16.463-43.154 16.463-59.617 0-6.507-6.507-10.431-14.614-11.794-23.055v.001c-19.772 6.042-39.586 9.852-59.008 11.352-3.941.305-7.819.278-11.623-.02 3.601 8.704 5.614 18.355 5.614 28.526 0 14.249-3.943 27.485-10.689 38.51 29.834 12.81 62.696 19.916 97.222 19.916 136.213 0 246.635-110.422 246.635-246.635 0-44.308-11.693-85.881-32.147-121.818z" fill="#ffd600"/><g><path d="m30.899 358.378c-2.915 0-5.687-1.709-6.902-4.56-13.447-31.542-20.265-65.046-20.265-99.583 0-67.882 26.435-131.7 74.434-179.7s111.819-74.434 179.7-74.434c43.66 0 86.739 11.271 124.579 32.595 3.608 2.033 4.885 6.607 2.852 10.215-2.034 3.608-6.607 4.885-10.216 2.852-35.597-20.06-76.13-30.663-117.215-30.663-63.876 0-123.928 24.874-169.095 70.041-45.166 45.167-70.041 105.219-70.041 169.094 0 32.503 6.414 64.029 19.064 93.7 1.624 3.81-.147 8.215-3.957 9.84-.959.409-1.957.603-2.938.603z" fill="#f95116"/></g><g><path d="m257.866 508.37c-34.631 0-68.223-6.856-99.842-20.379-3.808-1.629-5.575-6.036-3.946-9.844s6.038-5.575 9.844-3.946c29.745 12.721 61.352 19.171 93.945 19.171 63.875 0 123.927-24.874 169.094-70.041 45.166-45.167 70.041-105.219 70.041-169.094 0-41.167-10.64-81.767-30.771-117.412-2.036-3.606-.764-8.181 2.843-10.218 3.606-2.037 8.182-.764 10.218 2.842 21.397 37.89 32.708 81.04 32.708 124.786 0 67.882-26.435 131.7-74.434 179.7-48 48-111.818 74.435-179.7 74.435z" fill="#f95116"/></g><path d="m474.432 110.479c-1.732 34.735-10.915 70.907-27.207 105.983-43.987 4.257-85.442-7.66-114.785-37.003s-41.253-70.79-36.995-114.777c35.076-16.291 71.248-25.474 105.983-27.207 41.011-2.043 75.047 31.992 73.004 73.004z" fill="#a4bcff"/><path d="m332.44 179.459c-29.343-29.343-41.253-70.79-36.995-114.777-35.341 16.416-69.57 40.064-100.11 70.604-58.88 58.88-92.131 131.473-97.375 199.272-3.488 45.223 34.167 82.878 79.382 79.382 19.422-1.5 39.236-5.31 59.008-11.352-2.085-12.913 1.839-26.608 11.794-36.563 14.958-14.958 38.358-16.322 54.859-4.099-1.337-15.033 3.74-30.53 15.247-42.037 17.2-17.2 43.311-20.038 63.466-8.539 28.078-29.2 50.013-61.551 65.508-94.887-43.986 4.256-85.441-7.661-114.784-37.004z" fill="#7181ff"/><path d="m296.254 214.418c17.176 17.176 17.176 45.024 0 62.2s-68.331 40.483-85.507 23.307 6.131-68.331 23.307-85.507 45.024-17.176 62.2 0z" fill="#a4bcff"/><path d="m97.982 346.18c-8.704-3.601-18.357-5.615-28.528-5.615-22.437 0-42.383 9.75-55.097 24.882-9.092 10.821-9.092 26.723 0 37.544 12.714 15.132 32.66 24.882 55.097 24.882 5.633 0 11.107-.62 16.35-1.78-1.16 5.244-1.78 10.717-1.78 16.35 0 22.437 9.75 42.383 24.882 55.097 10.821 9.092 26.723 9.092 37.544 0 15.132-12.714 24.882-32.66 24.882-55.097 0-10.171-2.013-19.822-5.614-28.526-36.034-2.824-64.906-31.696-67.736-67.737z" fill="#a4bcff"/><path d="m150.996 189.002c12.63-18.744 27.42-36.798 44.339-53.716 3.799-3.799 7.656-7.491 11.564-11.076-5.521-13.149-13.885-24.409-24.092-32.856-12.686-10.499-31.562-8.427-41.669 4.573-13.105 16.856-19.969 39.797-17.294 64.168.214 1.951.494 3.877.821 5.781 9.891 5.632 18.912 13.449 26.331 23.126z" fill="#88f8d8"/><path d="m150.996 189.002c-10.376-13.546-23.892-23.454-38.528-28.829-15.458-5.677-32.567 2.56-37.77 18.184-6.746 20.257-5.581 44.175 5.054 66.265 6.897 14.326 16.884 26.008 28.515 34.464 8.936-30.603 23.244-61.166 42.729-90.084z" fill="#88f8d8"/><path d="m318.251 319.889c-11.507 11.507-16.584 27.004-15.247 42.037 1.66 1.23 3.252 2.594 4.757 4.099 8.352 8.352 12.458 19.336 12.336 30.281 20.72 18.841 52.802 18.258 72.815-1.755 20.617-20.617 20.617-54.044 0-74.662s-54.044-20.618-74.661 0z" fill="#ff63ed"/><circle cx="277.953" cy="395.833" fill="#ff63ed" r="42.155"/><circle cx="381.732" cy="81.115" fill="#2115c2" r="11.796"/><g><path d="m228.74 313.494c-11.846 0-19.013-3.984-23.296-8.266-6.885-6.885-12.999-21.232-3.024-50.477 5.978-17.524 16.559-35.863 26.331-45.635 9.723-9.724 22.652-15.079 36.402-15.079 13.751 0 26.68 5.355 36.403 15.079 20.073 20.072 20.073 52.733 0 72.805-9.772 9.772-28.111 20.353-45.635 26.331-11.054 3.769-19.982 5.241-27.181 5.242zm36.414-104.459c-9.744 0-18.906 3.795-25.797 10.685-17.07 17.07-35.438 62.77-23.307 74.901 5.315 5.314 18.41 5.102 35.03-.566 15.308-5.221 31.704-14.573 39.871-22.74 14.224-14.225 14.224-37.37 0-51.594-6.891-6.891-16.053-10.686-25.797-10.686z" fill="#2115c2"/></g><path d="m213.646 120.909c-5.906-13.895-14.916-26.113-26.057-35.333-15.931-13.184-39.631-10.641-52.372 5.748-13.288 17.091-20.147 39.391-19.342 62.13-.275-.104-.546-.218-.822-.319-19.411-7.128-40.912 3.16-47.471 22.855-7.587 22.782-5.615 48.985 5.411 71.887 7.078 14.701 17.548 27.443 30.28 36.85 3.33 2.461 8.026 1.756 10.488-1.575 2.461-3.332 1.756-8.027-1.576-10.488-10.776-7.961-19.655-18.782-25.678-31.293-9.35-19.421-11.062-41.525-4.695-60.642 3.863-11.6 16.551-17.744 28.07-13.514 12.706 4.665 25.117 13.355 34.932 26.053 2.534 3.277 7.243 3.881 10.52 1.347 3.277-2.533 3.881-7.243 1.348-10.52-7.133-9.228-15.655-16.945-25.137-22.863-.088-.657-.176-1.312-.247-1.956-2.351-21.427 3.393-42.839 15.76-58.746 7.519-9.671 21.533-11.208 30.968-3.399 9.301 7.698 16.845 17.949 21.816 29.645 1.62 3.812 6.025 5.589 9.835 3.968 3.813-1.62 5.589-6.023 3.969-9.835z" fill="#007ea8"/><path d="m459.378 52.529c-15.406-15.407-36.673-23.62-58.324-22.544-35.698 1.78-73.31 11.426-108.768 27.895-37.361 17.354-71.764 41.613-102.253 72.102-29.382 29.382-53.02 62.471-70.258 98.346-16.703 34.763-26.558 70.309-29.291 105.652-.046.59-.08 1.179-.112 1.768-6.768-1.77-13.765-2.681-20.917-2.681-.001 0 0 0-.001 0-23.947 0-46.124 10.045-60.837 27.557-11.488 13.673-11.488 33.52 0 47.193 16.911 20.128 42.777 29.485 68.237 27.229-2.271 25.567 7.187 51.397 27.229 68.237 13.673 11.487 33.52 11.488 47.193 0 17.513-14.714 27.557-36.889 27.557-60.838 0-7.156-.912-14.155-2.685-20.926.59-.033 1.18-.057 1.771-.103 19.77-1.526 39.975-5.39 60.056-11.484 3.964-1.203 6.202-5.39 4.999-9.354-1.203-3.963-5.39-6.202-9.354-4.999-19.041 5.778-38.169 9.44-56.856 10.882-40.479 3.135-74.44-30.97-71.327-71.327 5.293-68.428 39.992-139.339 95.201-194.547 26.098-26.098 55.159-47.424 86.529-63.517-1.057 40.28 11.363 79.082 39.97 107.691 28.102 28.104 66.842 41.112 107.694 39.978-14.861 28.939-34.228 55.986-57.695 80.551-2.861 2.994-2.753 7.742.242 10.603s7.742 2.753 10.603-.243c27.668-28.962 49.889-61.271 66.045-96.028 0 0 0 0 .001-.001 0 0 0 0 0-.001 16.468-35.458 26.114-73.07 27.895-108.768 1.079-21.66-7.138-42.918-22.544-58.323zm-317.751 439.271c-8.081 6.791-19.813 6.79-27.896 0-18.636-15.657-25.709-41.001-20.604-64.085 1.187-5.364-3.611-10.123-8.942-8.942-23.09 5.109-48.433-1.974-64.085-20.604-6.79-8.082-6.79-19.814 0-27.896 11.857-14.113 29.846-22.207 49.355-22.206 7.448 0 14.685 1.179 21.574 3.51 2.393 17.083 10.266 33.457 23.062 46.25 12.843 12.845 29.425 20.694 46.235 23.047 2.33 6.888 3.509 14.125 3.509 21.573-.001 19.506-8.095 37.495-22.208 49.353zm325.314-381.694c-1.619 32.474-10.152 66.698-24.719 99.251-38.586 2.779-76.804-7.521-104.48-35.201-27.67-27.67-37.978-65.913-35.193-104.472 32.553-14.567 66.777-23.099 99.25-24.719 13.95-.693 27.693 3.418 38.992 11.444l-15.979 15.979c-2.929 2.929-2.929 7.677 0 10.606s7.677 2.929 10.606 0l16.471-16.471c10.387 12.048 15.845 27.678 15.052 43.583z" fill="#2115c2"/><path d="m398.215 314.586c-23.56-23.561-61.702-23.566-85.267 0-9.533 9.532-15.481 21.813-17.16 34.922-17.755-6.805-38.656-3.076-52.945 11.214-19.405 19.404-19.408 50.815 0 70.222 19.361 19.361 50.861 19.36 70.222 0 6.157-6.157 10.348-13.545 12.589-21.377 23.249 13.352 53.009 9.839 72.562-9.714 23.508-23.509 23.508-61.759-.001-85.267zm-95.756 105.752c-13.513 13.513-35.499 13.512-49.011 0-13.543-13.543-13.546-35.466 0-49.011 12.193-12.193 31.492-13.493 45.178-3.307 17.114 12.76 18.617 37.534 3.833 52.318zm85.151-31.09c-16.388 16.387-42.219 17.7-60.101 3.519-.698-11.639-5.402-22.881-14.444-32.045-.646-.667-2.343-2.2-2.761-2.558-.259-12.325 4.477-24.199 13.25-32.971 17.7-17.7 46.353-17.703 64.056 0 17.66 17.659 17.659 46.394 0 64.055z" fill="#e207b9"/></g></svg>