<svg id="Capa_1" enable-background="new 0 0 512 512" height="512" viewBox="0 0 512 512" width="512" xmlns="http://www.w3.org/2000/svg"><g><path d="m320.129 457.907v23.301c0 12.858-10.434 23.291-23.301 23.291h-24.843c-12.959 0-23.291-10.446-23.291-23.291 0-.16.012-1.204.04-1.287.124-4.091 1.819-9.337 5.197-13.426 0-.01 0-.01 0-.01 4.269-5.237 10.773-8.578 18.055-8.578z" fill="#17d9c3"/><path d="m239.89 457.907v23.301c0 12.858-10.434 23.291-23.301 23.291h-24.843c-12.959 0-23.291-10.446-23.291-23.291 0-.16.012-1.204.04-1.287.124-4.091 1.819-9.337 5.197-13.426 0-.01 0-.01 0-.01 4.269-5.237 10.773-8.578 18.055-8.578z" fill="#17d9c3"/><path d="m239.89 425.289v32.618h-46.593v-61.795c11.352 14.684 27.741 25.287 46.593 29.177z" fill="#88f8d8"/><path d="m320.129 394.218v63.69h-46.593v-32.948c19.042-4.299 35.481-15.451 46.593-30.742z" fill="#88f8d8"/><path d="m330.921 373.54c-3.96 11.491-10.484 21.785-18.892 30.194-14.344 14.334-34.144 23.202-56.029 23.202-34.713 0-64.208-22.324-74.921-53.396z" fill="#88f8d8"/><g fill="#a4bcff"><path d="m244.266 310.679-.83.83c-12.455 12.455-19.447 29.351-19.447 46.967v15.066h-42.906c-2.791-8.103-4.312-16.786-4.312-25.829v-65.304c18.617 15.635 41.915 25.859 67.495 28.27z"/><path d="m335.239 282.409v65.304c0 9.043-1.531 17.727-4.322 25.829h-106.929v-15.066c0-17.616 6.993-34.513 19.447-46.967l.83-.83c3.861.37 7.773.56 11.734.56 30.172 0 57.802-10.834 79.24-28.83z"/><path d="m176.766 282.408v57.549l-33.893 16.867-22.954-46.128z"/><path d="m335.234 282.408v57.549l33.893 16.867 22.954-46.128z"/></g><g><path d="m137.86 152.566c-3.351 11.207-5.16 23.08-5.16 35.378 0 68.097 55.203 123.3 123.3 123.3s123.3-55.203 123.3-123.3c0-12.297-1.809-24.171-5.16-35.378z" fill="#ff9bff"/></g><path d="m142.873 356.824-16.054 7.992c-17.127 8.514-37.243-3.941-37.243-23.064 0-4.883 1.384-9.566 3.861-13.567s6.047-7.32 10.429-9.496l16.054-7.992z" fill="#ff9bff"/><path d="m256 256.176c-17.061 21.327-42.2 12.489-55.459 5.485-3.216-1.699-3.445-6.164-.465-8.249 7.6-5.318 12.025-16.962 18.303-22.813 9.753-9.09 26.556-14.612 37.621-4.579 11.065-10.033 27.868-4.511 37.621 4.579 6.278 5.851 10.703 17.495 18.303 22.813 2.98 2.085 2.75 6.551-.465 8.249-13.259 7.004-38.398 15.842-55.459-5.485z" fill="#7181ff"/><path d="m341.062 7.5h-170.124c-18.268 0-33.077 14.809-33.077 33.077v111.989h236.279v-111.989c-.001-18.268-14.81-33.077-33.078-33.077z" fill="#a4bcff"/><path d="m256 43.07c-8.538 0-15.459 6.921-15.459 15.459v43.008c0 8.538 6.921 15.459 15.459 15.459s15.459-6.921 15.459-15.459v-43.008c0-8.538-6.921-15.459-15.459-15.459z" fill="#7181ff"/><path d="m189.846 43.07c-8.538 0-15.459 6.921-15.459 15.459v43.008c0 8.538 6.921 15.459 15.459 15.459s15.459-6.921 15.459-15.459v-43.008c0-8.538-6.921-15.459-15.459-15.459z" fill="#7181ff"/><path d="m322.154 43.07c8.538 0 15.459 6.921 15.459 15.459v43.008c0 8.538-6.921 15.459-15.459 15.459s-15.459-6.921-15.459-15.459v-43.008c0-8.538 6.921-15.459 15.459-15.459z" fill="#7181ff"/><g fill="#e207b9"><circle cx="306.695" cy="204.273" r="10.756"/><circle cx="205.305" cy="204.273" r="10.756"/></g><path d="m333.225 367.019c-3.906-1.378-8.19.671-9.568 4.577-9.759 27.648-36.31 47.839-67.657 47.839-30.154 0-57.458-19.048-67.634-47.778-1.383-3.904-5.671-5.948-9.574-4.565-3.905 1.383-5.949 5.669-4.566 9.574 2.824 7.973 6.758 15.333 11.572 21.953v52.375c-14.017 2.741-24.843 15.06-24.843 30.215 0 16.979 13.813 30.792 30.792 30.792h24.843c12.162 0 22.699-7.085 27.702-17.342 5.001 10.256 15.533 17.341 27.692 17.341h24.844c16.984 0 30.801-13.813 30.801-30.792 0-9.804 0-73.763 0-84.614 4.239-6.208 7.684-12.954 10.172-20.006 1.379-3.906-.67-8.19-4.576-9.569zm-20.596 46.363v37.025h-31.593v-19.627c12.018-3.604 22.724-9.729 31.593-17.398zm-80.239 17.791v19.234h-31.593v-35.826c8.869 7.334 19.945 13.306 31.593 16.592zm0 50.035c0 8.708-7.088 15.792-15.801 15.792h-24.843c-8.708 0-15.792-7.084-15.792-15.781.048-9.179 7.46-15.812 15.792-15.812h40.645v15.801zm15-18.493c0-10.296 0-17.897 0-28.725 2.842.284 5.712.445 8.609.445 3.381 0 6.727-.215 10.036-.594v17.152c-7.147 1.398-13.797 5.291-18.645 11.722zm65.239 18.493c0 8.708-7.088 15.792-15.801 15.792h-24.844c-8.707 0-15.791-7.084-15.791-15.782.048-9.159 7.443-15.811 15.791-15.811h40.645z" fill="#007ea8"/><path d="m327.739 285.409v54.64c.001.066-.003.132 0 .197v7.467c0 6.212-.798 12.356-2.376 18.33h-93.875v-7.565c0-15.743 6.126-30.54 17.25-41.664 2.929-2.929 2.929-7.677 0-10.606s-7.678-2.929-10.606 0c-14.016 14.02-21.644 32.599-21.644 52.271v7.565h-29.85c-1.572-5.962-2.367-12.106-2.367-18.33v-63.304l-11.296-8.491-55.917 27.825c-3.708 1.846-5.219 6.348-3.374 10.056 1.851 3.72 6.357 5.213 10.056 3.374l45.53-22.657v40.794l-29.402 14.631c-3.708 1.845-5.219 6.348-3.373 10.056 1.836 3.69 6.331 5.228 10.056 3.373l22.836-11.364c.401 8.186 1.937 16.233 4.604 23.977 1.042 3.026 3.891 5.058 7.091 5.058h149.835c3.201 0 6.049-2.031 7.091-5.057 2.671-7.756 4.211-15.803 4.613-23.974l23.164 11.527c3.684 1.834 8.199.359 10.056-3.373 1.846-3.708.335-8.211-3.373-10.056l-29.729-14.794v-40.795l46 22.891c3.684 1.834 8.199.359 10.056-3.373 1.846-3.708.335-8.21-3.373-10.056l-56.238-27.985z" fill="#2115c2"/><g><g><path d="m256 318.744c-72.123 0-130.8-58.677-130.8-130.8 0-12.752 1.842-25.378 5.475-37.527 1.188-3.968 5.366-6.224 9.334-5.037s6.224 5.366 5.037 9.334c-3.216 10.753-4.846 21.933-4.846 33.229 0 63.852 51.948 115.8 115.8 115.8s115.8-51.948 115.8-115.8c0-11.297-1.63-22.477-4.846-33.229-1.187-3.969 1.068-8.148 5.037-9.334 3.967-1.187 8.147 1.068 9.334 5.037 3.633 12.147 5.475 24.773 5.475 37.527 0 72.123-58.677 130.8-130.8 130.8z" fill="#e207b9"/></g></g><g><path d="m97.817 370.019c-9.856-6.108-15.741-16.675-15.741-28.266 0-12.613 7.135-24.16 18.453-29.781l16.048-7.989c3.706-1.844 8.211-.337 10.057 3.373l22.953 46.128c1.845 3.708.335 8.21-3.373 10.055l-16.054 7.992c-10.454 5.195-22.542 4.562-32.343-1.512zm18.729-49.266-9.339 4.649c-6.285 3.121-10.131 9.499-10.131 16.35 0 6.362 3.231 12.163 8.642 15.516 5.417 3.357 12.057 3.667 17.762.832l9.337-4.648z" fill="#e207b9"/></g><g><path d="m228.461 277.064c-9.694 0-20.319-2.906-31.423-8.772-3.824-2.02-6.267-5.798-6.536-10.107-.27-4.337 1.702-8.419 5.275-10.919 3.103-2.171 5.979-6.573 8.76-10.831 2.619-4.009 5.328-8.154 8.729-11.324 11.211-10.449 29.022-16.063 42.734-8.301 13.713-7.761 31.522-2.147 42.734 8.301 3.401 3.169 6.109 7.315 8.729 11.324 2.781 4.257 5.657 8.659 8.761 10.831 3.573 2.5 5.544 6.582 5.274 10.919-.269 4.309-2.712 8.087-6.536 10.107-23.076 12.191-44.096 11.598-58.962-1.306-7.714 6.696-17.086 10.078-27.539 10.078zm-20.779-20.225c13.458 6.271 30.597 9.483 42.461-5.348 1.423-1.779 3.578-2.815 5.856-2.815s4.433 1.036 5.856 2.815c11.866 14.831 29.005 11.618 42.461 5.348-3.798-3.605-6.745-8.116-9.413-12.198-2.227-3.409-4.331-6.628-6.397-8.555-6.643-6.191-19.557-11.683-27.47-4.509-2.858 2.591-7.217 2.592-10.075 0-7.912-7.173-20.826-1.681-27.47 4.51-2.067 1.927-4.17 5.146-6.397 8.555-2.667 4.081-5.614 8.592-9.412 12.197z" fill="#2115c2"/></g><g><path d="m374.139 160.066h-236.278c-4.142 0-7.5-3.358-7.5-7.5v-111.989c0-22.374 18.202-40.577 40.577-40.577h170.125c22.375 0 40.577 18.203 40.577 40.577v111.989c-.001 4.142-3.359 7.5-7.501 7.5zm-228.778-15h221.279v-104.489c0-14.104-11.474-25.577-25.577-25.577h-170.125c-14.104 0-25.577 11.474-25.577 25.577z" fill="#2115c2"/></g><g><path d="m256 124.496c-12.66 0-22.959-10.3-22.959-22.959v-43.008c0-12.66 10.299-22.959 22.959-22.959s22.959 10.3 22.959 22.959v43.008c0 12.66-10.3 22.959-22.959 22.959zm0-73.926c-4.389 0-7.959 3.571-7.959 7.959v43.008c0 4.389 3.57 7.959 7.959 7.959s7.959-3.571 7.959-7.959v-43.008c0-4.388-3.571-7.959-7.959-7.959z" fill="#2115c2"/></g><g><path d="m189.845 124.496c-12.66 0-22.959-10.3-22.959-22.959v-43.008c0-12.66 10.299-22.959 22.959-22.959s22.959 10.3 22.959 22.959v43.008c.001 12.66-10.299 22.959-22.959 22.959zm0-73.926c-4.389 0-7.959 3.571-7.959 7.959v43.008c0 4.389 3.57 7.959 7.959 7.959s7.959-3.571 7.959-7.959v-43.008c.001-4.388-3.57-7.959-7.959-7.959z" fill="#2115c2"/></g><g><path d="m322.154 124.496c-12.66 0-22.959-10.3-22.959-22.959v-43.008c0-12.66 10.299-22.959 22.959-22.959s22.959 10.3 22.959 22.959v43.008c.001 12.66-10.299 22.959-22.959 22.959zm0-73.926c-4.389 0-7.959 3.571-7.959 7.959v43.008c0 4.389 3.57 7.959 7.959 7.959s7.959-3.571 7.959-7.959v-43.008c.001-4.388-3.57-7.959-7.959-7.959z" fill="#2115c2"/></g><path d="m369.127 356.824 16.054 7.992c17.127 8.514 37.243-3.941 37.243-23.064 0-4.883-1.384-9.566-3.861-13.567s-6.047-7.32-10.429-9.496l-16.054-7.992z" fill="#ff9bff"/><g><path d="m381.844 371.532-16.059-7.994c-3.708-1.846-5.217-6.347-3.373-10.055l22.954-46.128c1.846-3.707 6.349-5.218 10.057-3.373l16.054 7.992c11.301 5.611 18.447 17.153 18.447 29.778 0 11.592-5.885 22.159-15.741 28.266-9.842 6.1-21.932 6.688-32.339 1.514zm-2.662-18.08 9.342 4.65c5.702 2.834 12.341 2.523 17.758-.834 12.24-7.585 11.225-25.553-1.483-31.862l-9.346-4.653z" fill="#e207b9"/></g></g></svg>