<svg id="Capa_1" enable-background="new 0 0 512.017 512.017" height="512" viewBox="0 0 512.017 512.017" width="512" xmlns="http://www.w3.org/2000/svg"><g><path d="m354.179 83.841v-26.261c0-12.987-8.01-24.626-20.141-29.263-16.472-6.297-33.041-12.63-49.005-18.733-12.696-4.853-27.071-.966-35.592 9.623l-15.137 18.81c34.505 13.19 78.769 30.11 119.875 45.824z" fill="#ff63ed"/><path d="m427.292 208.429c-11.875 0-21.501-9.626-21.501-21.501s9.626-21.501 21.501-21.501h43.347c-7.052-25.622-25.896-46.97-51.539-56.769-59.557-22.773-152.916-58.458-205.92-78.717-32.073-12.261-68.247-6.899-95.303 14.235-48.17 37.619-79.531 99.821-79.531 163.743 0 14.927 1.17 29.468 3.561 43.408h431.764v-42.9h-46.379zm-73.111-24.716c0 14.368-14.388 24.268-27.809 19.14l-114.555-43.785c-10.989-4.202-18.255-14.754-18.255-26.527v-24.095c0-15.395 15.426-26.008 29.794-20.514 20.412 7.815 55.588 21.267 116.692 44.609 8.507 3.256 14.134 11.417 14.134 20.534v30.638z" fill="#b98eff"/><g fill="#a4bcff"><path d="m191.601 352.586-28.708-11.165v38.212l15.8 6.145c7.928 3.083 13.049 10.57 13.049 19.076v19.938c0 8.506-5.122 15.993-13.049 19.077l-15.8 6.144v36.696c0 .522-.034 1.036-.078 1.547l28.787-11.195c21.72-8.448 35.755-28.964 35.755-52.269v-19.938c-.001-23.305-14.036-43.821-35.756-52.268z"/><path d="m127.278 486.71v-36.696l-15.8-6.144c-7.927-3.083-13.049-10.571-13.049-19.077v-19.938c0-8.506 5.121-15.993 13.049-19.076l15.8-6.145v-38.212l-28.708 11.164c-21.721 8.446-35.755 28.963-35.755 52.268v19.938c0 23.305 14.034 43.821 35.755 52.269l28.787 11.195c-.045-.51-.079-1.024-.079-1.546z"/><path d="m127.278 310.529v176.181c0 9.835 7.972 17.807 17.807 17.807s17.807-7.972 17.807-17.807v-176.181z"/></g><path d="m473.671 251.329v7.54c0 28.532-23.129 51.661-51.661 51.661h-325.593c-23.373 0-43.734-15.711-49.9-38.26-1.862-6.807-3.399-13.798-4.609-20.941z" fill="#ff63ed"/><path d="m473.671 187.936v20.493h-46.38c-11.875 0-21.501-9.626-21.501-21.501s9.626-21.501 21.501-21.501h43.347c1.985 7.215 3.033 14.775 3.033 22.509z" fill="#ff63ed"/><circle cx="192.351" cy="188.522" fill="#6d00ca" r="10.029"/><g><path d="m166.321 223.052h-42.471c-4.143 0-7.5-3.358-7.5-7.5s3.357-7.5 7.5-7.5h42.471c4.143 0 7.5 3.358 7.5 7.5s-3.358 7.5-7.5 7.5z" fill="#6d00ca"/></g><circle cx="97.819" cy="188.522" fill="#6d00ca" r="10.029"/><g><path d="m354.179 89.341c-4.143 0-7.5-3.358-7.5-7.5v-24.261c0-9.811-6.156-18.755-15.319-22.258l-49.005-18.732c-9.689-3.703-20.567-.762-27.071 7.32l-14.264 17.724c-2.597 3.227-7.317 3.738-10.545 1.141-3.227-2.597-3.737-7.318-1.141-10.545l14.264-17.724c10.597-13.17 28.325-17.962 44.112-11.928l49.005 18.733c14.932 5.708 24.964 20.283 24.964 36.269v24.26c0 4.143-3.357 7.501-7.5 7.501z" fill="#e207b9"/></g><g><path d="m41.75 257.951c-3.598 0-6.773-2.596-7.388-6.262-2.334-13.924-3.517-28.65-3.517-43.769 0-64.946 31.579-129.954 82.415-169.654 28.924-22.592 68.237-28.466 102.6-15.33l.221.084c53.041 20.274 146.225 55.892 205.699 78.633 27.351 10.453 48.319 33.55 56.091 61.784 1.099 3.994-1.248 8.122-5.241 9.221-3.998 1.099-8.122-1.248-9.222-5.241-6.509-23.651-24.073-42.998-46.984-51.753-59.475-22.741-152.658-58.359-205.699-78.632l-.221-.085c-29.481-11.271-63.204-6.235-88.009 13.14-47.279 36.922-76.648 97.4-76.648 157.833 0 14.291 1.113 28.183 3.31 41.29.685 4.085-2.072 7.952-6.157 8.636-.421.071-.839.105-1.25.105z" fill="#6d00ca"/></g><path d="m194.32 345.596-23.928-9.306v-22.761c0-4.142-3.357-7.5-7.5-7.5s-7.5 3.358-7.5 7.5v173.181c0 .245-.02.485-.037.725-.005.058-.007.103-.012.165-.004.046 0 .091-.003.137-.517 5.203-4.919 9.28-10.255 9.28-5.326 0-9.721-4.062-10.253-9.25-.003-.051.001-.102-.003-.152-.026-.299-.051-.6-.051-.905 0-7.448 0-150.802 0-173.181 0-4.142-3.357-7.5-7.5-7.5s-7.5 3.358-7.5 7.5v22.762l-23.927 9.305c-24.626 9.576-40.537 32.836-40.537 59.258v19.938c0 26.42 15.911 49.681 40.536 59.259l24.931 9.695c3.057 10.54 12.792 18.27 24.304 18.27s21.247-7.73 24.304-18.27l24.931-9.695c24.625-9.578 40.536-32.839 40.536-59.259v-19.938c0-26.422-15.911-49.682-40.536-59.258zm-74.541 93.455-5.582-2.17c-5.022-1.954-8.268-6.698-8.268-12.087v-19.938c0-5.389 3.245-10.133 8.268-12.086l5.582-2.17zm-49.464-14.258v-19.938c0-20.189 12.157-37.961 30.974-45.279l18.49-7.19v22.118l-11.02 4.286c-10.831 4.213-17.83 14.444-17.83 26.066v19.938c0 11.622 6.999 21.853 17.831 26.067l11.019 4.285v22.119l-18.49-7.19c-18.816-7.321-30.974-25.094-30.974-45.282zm100.077-34.195 5.582 2.17c5.022 1.954 8.268 6.698 8.268 12.086v19.938c0 5.389-3.245 10.133-8.267 12.086l-5.583 2.171zm49.464 34.195c0 20.188-12.158 37.961-30.974 45.279l-18.49 7.191v-22.119l11.02-4.285c10.831-4.214 17.83-14.445 17.83-26.067v-19.938c0-11.622-6.999-21.853-17.83-26.066l-11.02-4.286v-22.118l18.49 7.19h.001c18.815 7.317 30.973 25.09 30.973 45.279z" fill="#2115c2"/><g><path d="m473.671 256.829c-4.143 0-7.5-3.358-7.5-7.5v-41.9c0-4.142 3.357-7.5 7.5-7.5s7.5 3.358 7.5 7.5v41.9c0 4.142-3.357 7.5-7.5 7.5z" fill="#6d00ca"/></g><g><path d="m422.011 318.029h-325.594c-26.59 0-50.085-18.003-57.135-43.781-1.913-6.993-3.518-14.282-4.77-21.666-.369-2.177.24-4.406 1.665-6.094s3.521-2.66 5.729-2.66h431.764c4.143 0 7.5 3.358 7.5 7.5v7.54c.001 32.622-26.538 59.161-59.159 59.161zm-371.038-59.2c.826 3.891 1.755 7.723 2.778 11.462 5.271 19.277 22.816 32.739 42.666 32.739h325.594c24.35 0 44.16-19.81 44.16-44.161v-.04z" fill="#e207b9"/></g><g><path d="m473.671 215.929h-46.379c-15.991 0-29.001-13.01-29.001-29.001s13.01-29.001 29.001-29.001h43.347c3.376 0 6.336 2.256 7.231 5.511 2.19 7.963 3.301 16.205 3.301 24.497v20.493c0 4.143-3.357 7.501-7.5 7.501zm-46.379-43.001c-7.72 0-14.001 6.281-14.001 14.001s6.281 14.001 14.001 14.001h38.879v-12.993c0-5.051-.491-10.078-1.464-15.008h-37.415z" fill="#e207b9"/></g><g><path d="m333.693 211.705c-3.371 0-6.76-.608-9.997-1.846l-114.557-43.785c-13.804-5.279-23.077-18.754-23.077-33.533v-24.095c0-9.699 4.77-18.772 12.759-24.27 7.988-5.497 18.162-6.711 27.214-3.249 20.414 7.815 55.589 21.267 116.69 44.608 11.34 4.341 18.956 15.408 18.956 27.54v30.638c0 9.215-4.529 17.834-12.116 23.057-4.736 3.259-10.281 4.935-15.872 4.935zm-118.221-117.743c-2.859 0-5.675.868-8.147 2.57-3.979 2.739-6.263 7.081-6.263 11.913v24.095c0 8.604 5.398 16.449 13.434 19.522l114.555 43.785c4.055 1.55 8.434 1.028 12.009-1.432 3.573-2.46 5.622-6.36 5.622-10.702v-30.638c0-5.96-3.743-11.397-9.314-13.53-61.101-23.342-96.279-36.794-116.692-44.609-1.707-.652-3.464-.974-5.204-.974z" fill="#6d00ca"/></g></g></svg>