<svg id="Capa_1" enable-background="new 0 0 512 512" height="512" viewBox="0 0 512 512" width="512" xmlns="http://www.w3.org/2000/svg"><g><path d="m504.5 180.536v171.194c0 44.119-45.024 82.919-113.122 105.309v-171.194c68.098-22.39 113.122-61.19 113.122-105.309z" fill="#ffd600"/><path d="m120.622 285.845v171.194c-68.099-22.39-113.122-61.19-113.122-105.309v-171.194c0 44.119 45.023 82.919 113.122 105.309z" fill="#ffd600"/><path d="m504.5 180.536c0 44.119-45.024 82.919-113.122 105.309l-135.378-88.569-135.378 88.568c-68.099-22.389-113.122-61.189-113.122-105.308 0-69.358 111.263-125.571 248.5-125.571s248.5 56.213 248.5 125.571z" fill="#ffff6f"/><path d="m120.622 285.845v171.194h.012l135.366-88.569c0-26.768 0-159.36 0-171.194z" fill="#f90"/><path d="m120.622 457.051v-.012" fill="#ffd600"/><path d="m391.377 457.051v-.012" fill="#ffd600"/><path d="m256 197.276v171.194l135.365 88.568h.012v-171.193z" fill="#f90"/><path d="m391.377 457.051-.012-.012" fill="#ffd600"/><path d="m120.634 457.039-.012.012" fill="#ffd600"/><g fill="#ffff6f"><circle cx="450.826" cy="323.378" r="21.799"/><circle cx="61.173" cy="347.331" r="21.799"/><circle cx="323.688" cy="344.862" r="21.799"/><circle cx="195.079" cy="308.932" r="25.973"/></g><circle cx="326.74" cy="117.146" fill="#f95116" r="15.009"/><g><path d="m287.781 165.099h-63.563c-4.143 0-7.5-3.358-7.5-7.5s3.357-7.5 7.5-7.5h63.563c4.143 0 7.5 3.358 7.5 7.5s-3.357 7.5-7.5 7.5z" fill="#f95116"/></g><circle cx="185.259" cy="117.146" fill="#f95116" r="15.009"/><g><path d="m450.826 352.678c-16.156 0-29.3-13.144-29.3-29.299s13.144-29.299 29.3-29.299c16.155 0 29.299 13.144 29.299 29.299s-13.144 29.299-29.299 29.299zm0-43.599c-7.885 0-14.3 6.415-14.3 14.299s6.415 14.299 14.3 14.299 14.299-6.415 14.299-14.299-6.414-14.299-14.299-14.299z" fill="#f95116"/></g><g><path d="m61.173 376.63c-16.155 0-29.299-13.144-29.299-29.299 0-16.156 13.144-29.299 29.299-29.299 16.156 0 29.3 13.144 29.3 29.299 0 16.156-13.144 29.299-29.3 29.299zm0-43.598c-7.885 0-14.299 6.415-14.299 14.299 0 7.885 6.414 14.299 14.299 14.299s14.3-6.415 14.3-14.299-6.415-14.299-14.3-14.299z" fill="#f95116"/></g><g><path d="m323.688 374.161c-16.156 0-29.3-13.144-29.3-29.299s13.144-29.299 29.3-29.299c16.155 0 29.299 13.144 29.299 29.299s-13.143 29.299-29.299 29.299zm0-43.598c-7.885 0-14.3 6.415-14.3 14.299s6.415 14.299 14.3 14.299 14.299-6.415 14.299-14.299-6.414-14.299-14.299-14.299z" fill="#f95116"/></g><g><path d="m195.079 342.405c-18.457 0-33.473-15.016-33.473-33.473s15.016-33.473 33.473-33.473 33.473 15.016 33.473 33.473-15.016 33.473-33.473 33.473zm0-51.947c-10.186 0-18.473 8.287-18.473 18.473s8.287 18.473 18.473 18.473 18.473-8.287 18.473-18.473-8.287-18.473-18.473-18.473z" fill="#f95116"/></g><path d="m435.096 85.047c-47.963-24.235-111.568-37.582-179.096-37.582s-131.133 13.347-179.096 37.582c-49.592 25.059-76.904 58.971-76.904 95.489v171.194c0 46.052 44.217 88.083 118.279 112.434 2.329.736 4.662.331 6.461-.849l131.26-85.882 131.259 85.881c1.804 1.179 4.186 1.586 6.436.855.008-.003.017-.003.025-.006 74.063-24.35 118.28-66.381 118.28-112.433v-171.194c0-36.518-27.312-70.43-76.904-95.489zm-351.427 13.389c45.906-23.196 107.107-35.971 172.331-35.971s126.425 12.774 172.331 35.97c44.282 22.376 68.669 51.533 68.669 82.101 0 48.167-58.987 81.503-104.575 97.031l-132.319-86.567c-2.514-1.651-5.842-1.564-8.213 0l-132.319 86.567c-26.517-9.032-55.117-22.742-75.999-41.772-18.694-17.035-28.575-36.143-28.575-55.259 0-30.568 24.387-59.725 68.669-82.1zm-68.669 253.294v-125.815c21.264 31.502 62.077 52.798 98.122 65.314v155.271c-28.659-10.474-52.562-24.034-69.547-39.511-18.694-17.035-28.575-36.143-28.575-55.259zm113.122-61.829 120.378-78.755v153.269l-120.378 78.762zm135.378-78.755 120.377 78.755v153.275l-120.377-78.761zm233.5 14.769v125.815c0 19.116-9.882 38.224-28.576 55.259-16.985 15.478-40.888 29.037-69.547 39.511v-155.271c36.363-12.648 76.321-33.602 98.123-65.314z" fill="#f95116"/></g></svg>