<svg id="Capa_1" enable-background="new 0 0 512 512" height="512" viewBox="0 0 512 512" width="512" xmlns="http://www.w3.org/2000/svg"><g><path d="m270.712 307.404-66.117-66.117c-16.868-16.868-44.217-16.868-61.085 0l-39.388 39.388c-16.868 16.868-16.868 44.217 0 61.085l13.469 13.469c8.402 3.776 16.279 9.098 23.179 15.999 6.9 6.9 12.222 14.777 15.999 23.179l13.469 13.469c16.868 16.868 44.217 16.868 61.085 0l39.388-39.388c16.869-16.867 16.869-44.215.001-61.084z" fill="#9448f5"/><circle cx="226.73" cy="348.177" fill="#6d00ca" r="9.438"/><g><path d="m191.42 356.342c-1.92 0-3.839-.732-5.304-2.197l-28.262-28.263c-2.929-2.929-2.929-7.678 0-10.606 2.931-2.929 7.679-2.928 10.607 0l28.262 28.263c2.929 2.929 2.929 7.678 0 10.606-1.464 1.465-3.384 2.197-5.303 2.197z" fill="#6d00ca"/></g><circle cx="163.822" cy="285.27" fill="#6d00ca" r="9.438"/><g><path d="m164.935 413.181-12.469-12.469c-2.929-2.929-2.929-7.678 0-10.606 2.93-2.929 7.678-2.929 10.607 0l12.469 12.469c13.948 13.949 36.529 13.951 50.478 0l39.388-39.388c12.974-12.974 13.91-34.126 2.131-48.155-2.663-3.172-2.251-7.903.922-10.566s7.903-2.251 10.566.921c16.762 19.965 15.688 49.706-3.012 68.407l-39.388 39.388c-19.81 19.809-51.876 19.812-71.692-.001z" fill="#6d00ca"/></g><g><path d="m111.288 359.533-12.469-12.469c-19.764-19.765-19.764-51.926 0-71.691l39.388-39.388c19.035-19.033 49.631-19.879 69.656-1.928 3.085 2.765 3.344 7.506.579 10.591-2.764 3.084-7.506 3.345-10.591.579-14.095-12.636-35.637-12.036-49.037 1.366l-39.388 39.388c-13.917 13.917-13.917 36.562 0 50.479l12.469 12.469c2.929 2.929 2.929 7.677 0 10.606-2.929 2.927-7.677 2.927-10.607-.002z" fill="#6d00ca"/></g><path d="m412.245 165.872-66.117-66.117c-16.868-16.868-44.217-16.868-61.085 0l-39.388 39.388c-16.868 16.868-16.868 44.217 0 61.085l66.117 66.117c16.868 16.868 44.217 16.868 61.085 0l39.388-39.388c16.868-16.868 16.868-44.217 0-61.085z" fill="#9448f5"/><path d="m315.585 270.159-73.744-73.744c-11.338-11.338-29.721-11.338-41.059 0-11.338 11.338-11.338 29.721 0 41.059l73.744 73.744c11.338 11.338 29.721 11.338 41.059 0 11.339-11.338 11.339-29.721 0-41.059z" fill="#ffd600"/><path d="m436.761 108.269 50.191-50.191c9.121-9.121 23.801-38.588 14.68-47.71-9.121-9.121-38.589 5.559-47.71 14.68l-50.191 50.191z" fill="#a4bcff"/><path d="m457.118 128.626-73.744-73.744c-11.338-11.338-29.721-11.338-41.059 0-11.338 11.338-11.338 29.721 0 41.059l73.744 73.744c11.338 11.338 29.721 11.338 41.059 0 11.338-11.338 11.338-29.721 0-41.059z" fill="#88f8d8"/><path d="m140.771 371.229c-30.483-30.483-79.906-30.483-110.389 0s-30.483 79.906 0 110.389 79.906 30.483 110.389 0 30.483-79.906 0-110.389zm-77.906 77.906c-12.543-12.543-12.543-32.88 0-45.424 12.543-12.543 32.88-12.543 45.424 0 12.543 12.543 12.543 32.88 0 45.424-12.544 12.544-32.881 12.544-45.424 0z" fill="#a4bcff"/><circle cx="368.262" cy="206.645" fill="#6d00ca" r="9.438"/><g><path d="m332.953 214.81c-1.919 0-3.839-.732-5.304-2.197l-28.263-28.262c-2.929-2.929-2.929-7.678 0-10.606 2.93-2.929 7.678-2.929 10.607 0l28.263 28.262c2.929 2.929 2.929 7.678 0 10.606-1.464 1.464-3.384 2.197-5.303 2.197z" fill="#6d00ca"/></g><circle cx="305.355" cy="143.738" fill="#6d00ca" r="9.438"/><g><path d="m309.87 274.758c-3.18-2.654-3.606-7.383-.953-10.563s7.383-3.607 10.564-.953c14.257 11.897 34.923 10.949 48.072-2.2l39.388-39.388c13.021-13.021 13.92-34.217 2.047-48.255-2.675-3.163-2.279-7.895.883-10.57 3.165-2.675 7.896-2.279 10.57.883 16.87 19.946 15.598 50.055-2.893 68.547l-39.388 39.388c-18.645 18.645-48.305 19.788-68.29 3.111z" fill="#6d00ca"/></g><g><path d="m235.119 199.401c-14.692-20.265-12.491-47.838 5.232-65.562l39.388-39.388c18.72-18.72 49.037-19.812 69.021-2.488 3.13 2.713 3.467 7.45.754 10.58-2.714 3.131-7.451 3.466-10.58.754-14.065-12.194-35.408-11.42-48.588 1.761l-39.388 39.388c-12.481 12.48-14.035 31.89-3.695 46.152 2.431 3.353 1.684 8.043-1.67 10.474s-8.042 1.683-10.474-1.671z" fill="#6d00ca"/></g><g><path d="m269.223 316.522-73.744-73.745c-14.276-14.275-14.28-37.387.001-51.666 14.275-14.277 37.386-14.279 51.665 0l73.744 73.744c14.275 14.275 14.28 37.387-.001 51.666-14.276 14.277-37.386 14.279-51.665.001zm-63.137-114.804c-8.416 8.416-8.417 22.036-.001 30.453l73.744 73.745c8.415 8.414 22.037 8.417 30.452 0 8.416-8.416 8.417-22.037 0-30.453l-73.744-73.744c-8.413-8.416-22.037-8.418-30.451-.001z" fill="#f95116"/></g><g><path d="m433.457 111.572c-2.929-2.929-2.929-7.677 0-10.606l48.19-48.191c3.445-3.444 8.987-12.051 12.474-21.218 4.14-10.881 2.794-15.298 2.206-15.885-.586-.587-5.005-1.933-15.884 2.206-9.167 3.487-17.774 9.03-21.219 12.474l-48.19 48.191c-2.931 2.929-7.679 2.928-10.607 0-2.929-2.929-2.929-7.678 0-10.606l48.191-48.191c9.381-9.38 44.002-28.995 58.317-14.68 14.315 14.316-5.301 48.936-14.68 58.316l-48.19 48.191c-2.93 2.928-7.678 2.928-10.608-.001z" fill="#2115c2"/></g><g><path d="m410.755 174.989-73.744-73.744c-14.243-14.244-14.243-37.421 0-51.666 14.246-14.244 37.422-14.244 51.666 0l73.745 73.745c14.276 14.276 14.279 37.386 0 51.666-14.244 14.241-37.419 14.245-51.667-.001zm-63.138-114.804c-8.394 8.396-8.394 22.057.001 30.453l73.744 73.744c8.395 8.395 22.056 8.396 30.453 0 8.415-8.417 8.415-22.036 0-30.453h-.001l-73.744-73.744c-8.394-8.394-22.055-8.397-30.453 0z" fill="#007ea8"/></g><g><path d="m25.078 486.921c-33.435-33.434-33.44-87.556 0-120.995 33.437-33.435 87.556-33.44 120.996 0 33.435 33.434 33.44 87.556 0 120.996-33.436 33.434-87.555 33.439-120.996-.001zm10.607-110.389c-27.575 27.574-27.578 72.205 0 99.783 27.572 27.574 72.206 27.578 99.782 0 27.575-27.574 27.578-72.206 0-99.783-27.572-27.574-72.206-27.577-99.782 0zm21.877 77.907c-.001 0-.001 0 0 0-15.484-15.483-15.486-40.545-.001-56.03 15.449-15.446 40.583-15.447 56.03 0 15.484 15.482 15.487 40.544.001 56.03-15.448 15.445-40.582 15.448-56.03 0zm10.605-10.607c9.599 9.598 25.219 9.6 34.819 0 9.621-9.622 9.622-25.195-.001-34.817-9.598-9.599-25.217-9.599-34.818 0-9.621 9.623-9.622 25.195 0 34.817z" fill="#2115c2"/></g></g></svg>