<svg id="Capa_1" enable-background="new 0 0 512 512" height="512" viewBox="0 0 512 512" width="512" xmlns="http://www.w3.org/2000/svg"><g><path d="m468.211 256.594c0-10.101-10.963-16.391-19.683-11.292l-46.071 26.936h65.754z" fill="#7181ff"/><path d="m469.585 272.237h-67.128v20.519c3.201 4.356 4.967 9.652 4.967 15.1 0 3.076-.561 6.213-1.744 9.239-.835 2.142-1.928 4.101-3.223 5.862v35.088c0 7.224 5.856 13.081 13.081 13.081h54.047c7.224 0 13.081-5.857 13.081-13.081v-72.727c-.001-7.224-5.857-13.081-13.081-13.081z" fill="#a4bcff"/><path d="m475.711 265.669v-9.075c0-15.889-17.235-25.797-30.969-17.768l-46.071 26.937c-2.323 1.346-3.714 3.873-3.714 6.475v17.519c0 4.143 3.358 7.5 7.5 7.5s7.5-3.357 7.5-7.5v-10.019h59.628c3.077 0 5.581 2.503 5.581 5.581v72.727c0 3.077-2.503 5.581-5.581 5.581h-54.047c-3.077 0-5.581-2.504-5.581-5.581v-32.087c0-4.142-3.358-7.5-7.5-7.5s-7.5 3.358-7.5 7.5v32.087c0 11.349 9.232 20.581 20.581 20.581h54.047c11.348 0 20.581-9.232 20.581-20.581v-72.727c-.001-9.216-6.089-17.036-14.455-19.65zm-45.567-.931 22.169-12.962c3.726-2.178 8.397.509 8.397 4.818v8.144z" fill="#2115c2"/><path d="m407.423 307.857c0 3.076-.561 6.213-1.744 9.239-5.451 13.979-21.745 20.242-35.152 13.498l-16.484-7.325 20.803-46.475 18.548 8.307c8.829 4.428 14.029 13.377 14.029 22.756z" fill="#ff9bff"/><g><path d="m367.328 337.379-14.812-6.582c-3.786-1.682-5.49-6.114-3.809-9.899 1.683-3.785 6.117-5.489 9.899-3.808l14.965 6.65c.109.049.218.1.325.154 9.457 4.758 20.939.366 24.795-9.522 3.285-8.41-.141-18.206-8.526-22.499l-17.501-7.838c-3.78-1.693-5.473-6.13-3.779-9.91 1.693-3.78 6.128-5.473 9.91-3.78l17.664 7.911c.1.045.2.092.298.141 15.592 7.822 21.961 25.93 15.908 41.428-7.063 18.115-28.136 26.081-45.337 17.554z" fill="#e207b9"/></g><path d="m87.897 143.9c0-13.568 1.984-26.675 5.672-39.05 9.229-30.94 29.141-57.269 55.455-74.715-9.493-7.943-21.514-12.957-34.644-13.563-33.572-1.549-61.278 25.211-61.278 58.442 0 15.75-7.732 25.2-15.65 30.749-9.472 6.637-10.932 20.206-2.925 28.552 10.354 10.791 27.368 21.509 53.83 20.781-.3-3.693-.46-7.425-.46-11.196z" fill="#ffd600"/><path d="m355.026 104.85h-80.085c-9.81 0-19.219-3.898-26.164-10.832l-11.173-11.183c-7.355-7.345-19.26-7.345-26.615 0l-11.173 11.183c-6.944 6.934-16.354 10.832-26.164 10.832h-80.083c16.794-56.306 68.961-97.35 130.728-97.35s113.934 41.044 130.729 97.35z" fill="#ffd600"/><path d="m307.127 252.273v50.133l46.916 20.863 20.803-46.475-63.078-28.237c-1.38 1.155-2.785 2.282-4.212 3.381z" fill="#a4bcff"/><path d="m41.171 307.857c0 3.076.561 6.213 1.744 9.239 5.451 13.979 21.745 20.242 35.152 13.498l16.484-7.325-20.803-46.475-18.548 8.306c-8.828 4.429-14.029 13.378-14.029 22.757z" fill="#ff9bff"/><path d="m141.467 252.273v50.133l-46.916 20.863-20.803-46.475 63.078-28.237c1.38 1.155 2.785 2.282 4.212 3.381z" fill="#a4bcff"/><path d="m210.297 481.225c0-.16.012-1.204.04-1.286.1-3.3 1.242-7.343 3.446-10.931v-11.068h-52.119c-7.276 0-13.775 3.339-18.042 8.572v.01c-3.376 4.086-5.069 9.328-5.193 13.417-.027.082-.04 1.126-.04 1.286 0 12.837 10.325 23.275 23.275 23.275h28.834c9.722 0 18.05-5.962 21.536-14.423-1.118-2.731-1.737-5.719-1.737-8.852z" fill="#ffd600"/><path d="m285.69 457.94v23.285c0 12.849-10.426 23.275-23.285 23.275h-28.834c-12.95 0-23.275-10.438-23.275-23.275 0-.16.012-1.204.04-1.286.124-4.088 1.818-9.33 5.193-13.417 0-.01 0-.01 0-.01 4.266-5.233 10.765-8.572 18.042-8.572z" fill="#ffd600"/><g fill="#f90"><path d="m239.131 410.962v46.978h46.56v-67.307c-12.002 11.05-28.235 17.937-46.56 20.329z"/><path d="m167.223 394.267v63.673h46.56v-46.504c-17.947-1.626-34.096-7.454-46.56-17.169z"/><path d="m141.798 346.446c3.708 42.307 39.231 65.475 82.499 65.475s78.792-23.168 82.499-65.475z"/></g><path d="m278.676 269.021c.045.469.075.943.075 1.427v19.706c0 10.137-10.176 17.116-19.633 13.465l-20.657-7.975c-3.159 2.325-7.049 3.716-11.273 3.716h-5.785c-4.224 0-8.113-1.391-11.273-3.716l-20.657 7.975c-9.457 3.651-19.633-3.328-19.633-13.465v-19.706c0-.484.03-.958.075-1.427-10.19-4.436-19.735-10.077-28.451-16.748v86.828c0 2.475.11 4.93.331 7.345h164.999c.22-2.415.331-4.87.331-7.345v-86.828c-8.714 6.67-18.259 12.311-28.449 16.748z" fill="#a4bcff"/><path d="m259.119 256.982-20.657 7.975c4.714 3.47 7.786 9.041 7.786 15.343 0 6.302-3.072 11.873-7.786 15.343l20.657 7.975c9.457 3.651 19.633-3.328 19.633-13.465v-19.706c-.001-10.137-10.176-17.116-19.633-13.465z" fill="#ff63ed"/><path d="m202.346 280.3c0-6.302 3.072-11.873 7.786-15.343l-20.657-7.975c-9.457-3.651-19.633 3.328-19.633 13.465v19.706c0 10.137 10.176 17.116 19.633 13.465l20.657-7.975c-4.714-3.469-7.786-9.04-7.786-15.343z" fill="#ff63ed"/><path d="m227.19 261.242h-5.785c-10.526 0-19.059 8.533-19.059 19.059 0 10.526 8.533 19.059 19.059 19.059h5.785c10.526 0 19.059-8.533 19.059-19.059 0-10.526-8.533-19.059-19.059-19.059z" fill="#ff63ed"/><path d="m355.026 104.85h-80.085c-9.81 0-19.219-3.898-26.164-10.832l-11.173-11.183c-7.355-7.345-19.26-7.345-26.615 0l-11.173 11.183c-6.944 6.934-16.354 10.832-26.164 10.832h-80.083c-3.688 12.375-5.672 25.482-5.672 39.05 0 56.004 33.752 104.113 82.021 125.12.902-9.35 10.552-15.515 19.557-12.038l20.657 7.975s0 0-.001.001c3.159-2.326 7.049-3.716 11.273-3.716h5.785c4.224 0 8.114 1.391 11.273 3.716 0 0 0 0-.001-.001l20.657-7.975c9.005-3.477 18.655 2.688 19.557 12.038 48.269-21.007 82.021-69.116 82.021-125.12.001-13.568-1.983-26.675-5.67-39.05z" fill="#ff9bff"/><circle cx="278.73" cy="159.089" fill="#e207b9" r="11.549"/><g><path d="m248.752 197.717h-48.91c-4.142 0-7.5-3.358-7.5-7.5s3.358-7.5 7.5-7.5h48.91c4.142 0 7.5 3.358 7.5 7.5s-3.358 7.5-7.5 7.5z" fill="#e207b9"/></g><circle cx="169.865" cy="159.089" fill="#e207b9" r="11.549"/><path d="m362.213 102.707c-17.676-59.26-72.602-102.707-137.916-102.707-26.781 0-52.403 7.219-74.895 20.991-43.471-30.633-103.801.65-103.801 54.024 0 10.537-4.19 18.816-12.454 24.607-13.261 9.293-15.197 28.25-4.033 39.886 15.355 16.004 35.693 23.383 57.929 23.116 4.142-.052 7.458-3.451 7.406-7.593s-3.474-7.448-7.593-7.406c-19.113.238-34.912-5.988-46.918-18.502-4.895-5.103-3.808-13.276 1.817-17.217 12.329-8.64 18.846-21.396 18.846-36.891 0-38.659 41.585-63.42 75.419-44.734-23.547 18.331-41.15 43.965-49.639 72.426-1.184 3.969 1.074 8.146 5.043 9.331s8.146-1.074 9.331-5.043c7.767-26.041 24.046-49.463 45.838-65.952 22.515-17.038 49.384-26.043 77.704-26.043 59.351 0 107.961 39.756 123.542 91.994 1.181 3.96 5.353 6.231 9.331 5.043 3.968-1.184 6.227-5.361 5.043-9.33z" fill="#f95116"/><g><path d="m35.927 319.821c-6.061-15.513.338-33.612 15.91-41.424.098-.049.197-.096.298-.141l16.997-7.613c3.778-1.693 8.217-.001 9.91 3.779s.001 8.218-3.779 9.911l-16.833 7.539c-8.388 4.294-11.809 14.096-8.529 22.495 3.852 9.876 15.319 14.294 24.796 9.527.107-.054.215-.105.325-.154l14.422-6.408c3.785-1.683 8.217.022 9.899 3.808 1.682 3.785-.023 8.218-3.809 9.899l-14.268 6.34c-17.412 8.631-38.347.374-45.339-17.558z" fill="#e207b9"/></g><path d="m307.451 338.974c-4.128-.363-7.765 2.69-8.126 6.817-3.401 38.81-36.389 58.63-75.028 58.63-38.555 0-71.622-19.765-75.028-58.63-.361-4.126-4-7.176-8.126-6.817-4.126.362-7.178 4-6.816 8.126 1.8 20.54 10.562 37.96 25.396 50.716v52.689c-15.98.996-28.834 14.23-28.834 30.719 0 16.969 13.806 30.775 30.775 30.775h28.834c8.257 0 15.915-3.269 21.551-8.806 5.554 5.442 13.151 8.806 21.522 8.806h28.834c16.975 0 30.785-13.806 30.785-30.775 0-9.963 0-77.281 0-87.423 12.217-12.301 19.46-28.241 21.078-46.702.362-4.125-2.69-7.763-6.817-8.125zm-29.261 66.587v44.879h-31.56v-33.065c11.937-2.264 22.219-6.218 31.56-11.814zm-46.559 13.635v31.31c-3.611.225-7.103 1.082-10.348 2.494v-33.63c1.002.023 2.002.051 3.015.051 2.476 0 4.917-.086 7.333-.225zm-56.908-11.198c9.414 4.986 20.037 8.392 31.56 10.11v32.333h-31.56zm15.775 89.002h-28.834c-8.698 0-15.775-7.077-15.775-15.764.048-9.137 7.416-15.795 15.775-15.795h44.619v1.607c-2.278 4.394-3.486 9.144-3.486 14.177 0 2.79.424 5.761 1.13 8.295-2.846 4.613-7.88 7.48-13.429 7.48zm87.692-15.775c0 8.698-7.081 15.775-15.785 15.775h-28.834c-8.748 0-15.867-7.165-15.773-15.93.102-9.057 7.484-15.629 15.773-15.629h44.619z" fill="#f95116"/><path d="m299.627 255.273v83.673h-150.66c0-15.856 0-67.673 0-83.673l-15.858-13.271-62.425 27.945c-3.78 1.692-5.473 6.129-3.781 9.91l20.803 46.476c1.689 3.773 6.113 5.47 9.893 3.789l36.369-16.172v25.151c0 2.695.122 5.395.361 8.026.353 3.862 3.591 6.819 7.469 6.819h164.999c3.878 0 7.117-2.957 7.469-6.819.24-2.631.361-5.332.361-8.026v-25.151l36.369 16.172c3.777 1.68 8.203-.013 9.893-3.789l20.803-46.476c1.692-3.781-.001-8.217-3.781-9.91l-62.44-27.952zm-201.287 58.103-14.682-32.801 50.31-22.521v39.48zm251.915 0-35.627-15.843v-39.48l50.31 22.521z" fill="#2115c2"/><path d="m362.213 102.708c-.947-3.18-3.87-5.358-7.188-5.358h-80.084c-7.875 0-15.285-3.068-20.858-8.633l-11.179-11.189c-10.26-10.246-26.954-10.245-37.22.006l-11.167 11.176c-5.579 5.571-12.988 8.64-20.864 8.64h-80.084c-3.317 0-6.24 2.179-7.188 5.358-3.971 13.326-5.984 27.185-5.984 41.191 0 55.625 32.001 106.066 81.946 129.901v16.353c0 15.382 15.475 26.005 29.833 20.461l17.208-6.643c3.612 1.842 7.695 2.888 12.021 2.888h5.785c4.325 0 8.408-1.046 12.021-2.888l17.208 6.643c2.558.988 5.235 1.474 7.9 1.474 4.368 0 8.7-1.306 12.405-3.847 5.966-4.092 9.528-10.854 9.528-18.088v-16.353c49.946-23.835 81.946-74.276 81.946-129.901 0-14.006-2.014-27.864-5.985-41.191zm-164.45 189.671-10.989 4.243c-4.557 1.758-9.431-1.595-9.431-6.468v-19.706c0-4.882 4.923-8.216 9.431-6.469l10.989 4.243c-1.948 3.797-2.918 7.971-2.918 12.078 0 4.143.986 8.313 2.918 12.079zm29.427-.52h-5.785c-6.274 0-11.558-5.131-11.559-11.557 0 0 0-.001 0-.002 0-6.301 5.158-11.559 11.559-11.559h5.785c6.327 0 11.559 5.193 11.559 11.559 0 6.436-5.292 11.559-11.559 11.559zm44.061-1.705c0 4.847-4.857 8.234-9.431 6.468l-10.989-4.243c1.954-3.809 2.918-7.984 2.918-12.079 0-4.068-.952-8.247-2.918-12.079l10.989-4.243c4.619-1.782 9.431 1.691 9.431 6.469zm11.637-31.413c-5.535-8.77-16.608-12.553-26.461-8.759-.003.001-.007.002-.01.004-6.707 2.589-11.178 4.316-17.206 6.643-.385-.129-4.998-2.887-12.021-2.887h-5.785c-7.135 0-11.718 2.804-12.021 2.887l-17.207-6.643c-10.048-3.88-21.041.153-26.471 8.755-42.961-21.929-70.309-66.173-70.309-114.841 0-10.687 1.307-21.275 3.889-31.55h74.368c11.878 0 23.052-4.626 31.469-13.031l11.167-11.177c4.416-4.409 11.6-4.409 16.009-.006l11.179 11.189c8.412 8.399 19.585 13.025 31.463 13.025h74.368c2.582 10.275 3.889 20.863 3.889 31.55 0 48.667-27.348 92.912-70.31 114.841z" fill="#e207b9"/></g></svg>