<svg id="Capa_1" enable-background="new 0 0 512 512" height="512" viewBox="0 0 512 512" width="512" xmlns="http://www.w3.org/2000/svg"><g><path d="m460.86 289.867c-3.482 3.555-7.472 6.668-11.908 9.209-17.076 9.779-38.054 9.779-55.129 0-17.075-9.779-38.054-9.779-55.129 0-17.076 9.779-38.054 9.779-55.129 0-17.075-9.779-38.054-9.779-55.129 0-17.075 9.779-38.054 9.779-55.129 0-17.075-9.779-38.054-9.779-55.129 0-17.075 9.779-38.054 9.779-55.129 0-4.437-2.541-8.427-5.654-11.908-9.209-10.527 5.673-17.682 16.796-17.682 29.592 0 18.554 15.041 33.596 33.596 33.596h377.893c18.555 0 33.596-15.042 33.596-33.596-.002-12.796-7.157-23.919-17.684-29.592z" fill="#ff9bff"/><path d="m454.099 249.892h-272.648-123.81c-7.623 0-14.845-1.705-21.318-4.742-.545 2.034-.84 4.17-.84 6.375 0 19.645 10.517 37.787 27.565 47.55 17.075 9.779 38.054 9.779 55.129 0 17.075-9.779 38.054-9.779 55.129 0 17.075 9.779 38.054 9.779 55.129 0 17.075-9.779 38.054-9.779 55.129 0 17.075 9.779 38.054 9.779 55.129 0 17.075-9.779 38.054-9.779 55.129 0 17.076 9.779 38.054 9.779 55.129 0 17.048-9.763 27.565-27.905 27.565-47.55 0-2.244-.306-4.414-.869-6.48-6.531 3.105-13.836 4.847-21.548 4.847z" fill="#88f8d8"/><path d="m473.123 353.055h-434.247c-15.737 0-27.111 15.046-22.818 30.187 6.93 24.444 29.248 41.314 54.655 41.314h370.573c25.407 0 47.725-16.87 54.655-41.314 4.293-15.141-7.08-30.187-22.818-30.187z" fill="#f90"/><g><path d="m449.045 359.382c-3.802 0-7.732-1.879-8.125-5.743-.418-4.121 2.583-7.801 6.704-8.219 13.351-1.356 23.418-12.517 23.418-25.961 0-9.198-4.931-17.818-12.867-22.498-3.568-2.104-4.755-6.702-2.651-10.27 2.105-3.568 6.703-4.754 10.271-2.651 12.489 7.364 20.248 20.936 20.248 35.419 0 21.171-15.193 37.748-36.231 39.885-.258.026-.514.038-.767.038z" fill="#e207b9"/></g><g><path d="m64.081 359.25c-.136 0-.272-.004-.409-.011-21.79-1.172-37.715-17.942-37.715-39.78 0-14.623 7.871-28.26 20.542-35.591 3.586-2.074 8.173-.849 10.248 2.736s.849 8.173-2.736 10.248c-8.052 4.658-13.054 13.32-13.054 22.606 0 13.868 10.834 25.313 24.665 26.058 4.136.223 7.309 3.756 7.086 7.892-.215 4-4.669 5.842-8.627 5.842z" fill="#e207b9"/></g><g><path d="m483.265 244.625c.499 2.265.752 4.587.752 6.9 0 22.275-12.008 42.989-31.337 54.058-19.302 11.053-43.281 11.054-62.584 0-14.703-8.42-32.971-8.42-47.675 0-9.65 5.527-20.471 8.29-31.292 8.29s-21.641-2.763-31.292-8.29c-14.704-8.42-32.971-8.42-47.675 0-19.302 11.054-43.282 11.053-62.583 0-14.704-8.42-32.971-8.42-47.675 0-19.302 11.054-43.283 11.053-62.583 0-19.33-11.07-31.338-31.784-31.338-54.059 0-1.974.184-3.959.547-5.899l14.744 2.756c-.193 1.034-.291 2.091-.291 3.143 0 16.911 9.117 32.638 23.792 41.042 14.704 8.421 32.971 8.42 47.675 0 19.3-11.053 43.281-11.054 62.583 0 14.704 8.421 32.972 8.42 47.675 0 19.3-11.053 43.281-11.054 62.583 0 14.703 8.42 32.97 8.421 47.675 0 19.301-11.053 43.281-11.054 62.583 0 14.703 8.42 32.971 8.42 47.676 0 14.675-8.404 23.791-24.131 23.791-41.042 0-1.231-.135-2.467-.4-3.675z" fill="#007ea8"/></g><g><path d="m441.286 432.056h-370.573c-28.622 0-54.064-19.232-61.871-46.769-2.693-9.499-.823-19.464 5.131-27.339 5.953-7.876 15.03-12.393 24.903-12.393h434.247c9.873 0 18.95 4.517 24.904 12.394 5.953 7.876 7.822 17.841 5.13 27.339-7.806 27.536-33.249 46.768-61.871 46.768zm-402.41-71.501c-5.129 0-9.845 2.347-12.938 6.438s-4.064 9.268-2.665 14.203c5.986 21.114 25.494 35.86 47.439 35.86h370.573c21.946 0 41.454-14.746 47.439-35.86 1.399-4.935.428-10.111-2.665-14.203s-7.809-6.438-12.938-6.438z" fill="#f95116"/></g><path d="m392.324 87.444h-272.648c61.953 0 112.176 50.223 112.176 112.176 0 27.764-22.507 50.271-50.271 50.271h272.648c27.764 0 50.271-22.507 50.271-50.271 0-61.953-50.223-112.176-112.176-112.176z" fill="#f90"/><path d="m119.676 87.444c-61.953 0-112.176 50.223-112.176 112.176 0 27.764 22.507 50.271 50.271 50.271h123.81c27.764 0 50.271-22.507 50.271-50.271 0-61.953-50.223-112.176-112.176-112.176z" fill="#ffd600"/><circle cx="166.757" cy="173.815" fill="#f95116" r="9.989"/><g><path d="m140.828 208.238h-42.304c-4.142 0-7.5-3.358-7.5-7.5s3.358-7.5 7.5-7.5h42.304c4.142 0 7.5 3.358 7.5 7.5s-3.358 7.5-7.5 7.5z" fill="#f95116"/></g><g fill="#f95116"><circle cx="72.595" cy="173.815" r="9.989"/><path d="m392.323 79.944h-272.647c-65.989 0-119.676 53.686-119.676 119.677 0 31.854 25.916 57.771 57.771 57.771h396.458c31.855 0 57.771-25.916 57.771-57.771 0-65.991-53.687-119.677-119.677-119.677zm-377.323 119.676c0-57.718 46.958-104.676 104.676-104.676s104.676 46.958 104.676 104.677c0 23.584-19.187 42.771-42.771 42.771h-123.81c-23.584-.001-42.771-19.187-42.771-42.772zm439.229 42.771h-233.853c.227-.315 18.976-15.667 18.976-42.771 0-43.328-23.484-83.377-61.706-104.676h214.677c57.719 0 104.677 46.958 104.677 104.677 0 23.584-19.187 42.77-42.771 42.77z"/></g></g></svg>