<svg id="Capa_1" enable-background="new 0 0 512 512" height="512" viewBox="0 0 512 512" width="512" xmlns="http://www.w3.org/2000/svg"><g><path d="m175.793 344.96v52.669h-16.746c-13.82 0-25.023 11.203-25.023 25.023s11.203 25.023 25.023 25.023h41.769c13.82 0 25.023-11.203 25.023-25.023v-72.965c-16.614-.85-33.348-2.417-50.046-4.727z" fill="#88f8d8"/><path d="m292.251 349.339v48.29h-16.746c-13.82 0-25.023 11.203-25.023 25.023s11.203 25.023 25.023 25.023h41.769c13.82 0 25.023-11.203 25.023-25.023v-78.557c-16.678 2.492-33.412 4.22-50.046 5.244z" fill="#88f8d8"/><path d="m474.033 191.917c-21.837-31.858-62.131-45.598-98.772-33.383-35.321 11.776-76.768 18.322-119.261 18.322-42.494 0-83.94-6.546-119.262-18.322-36.641-12.216-76.935 1.524-98.771 33.382-32.566 47.511-10.758 113.165 43.883 131.388 56.029 18.686 116.492 27.172 174.15 27.172 57.657 0 118.12-8.486 174.149-27.172 54.641-18.223 76.449-83.877 43.884-131.387z" fill="#ffd600"/><path d="m478.709 87.158c-18.317-15.642-42.888-21.089-65.852-15.326 2.104.96 4.177 2.002 6.208 3.146 10.147 5.716 13.738 18.575 8.022 28.721-5.714 10.146-18.574 13.74-28.721 8.021-12.456-7.017-27.931-7.017-40.387 0-12.612 7.105-26.752 10.658-40.893 10.658s-28.281-3.553-40.893-10.658c-12.456-7.017-27.932-7.017-40.387 0-25.224 14.211-56.562 14.211-81.787 0-12.455-7.017-27.931-7.017-40.386 0-10.146 5.717-23.006 2.126-28.721-8.021-5.716-10.146-2.125-23.006 8.021-28.721 2.031-1.144 4.105-2.186 6.208-3.146-22.963-5.763-47.534-.316-65.85 15.326-35.774 30.549-33.028 84.018.169 112.076 1.368-2.479 2.865-4.922 4.506-7.317 21.837-31.858 62.131-45.598 98.771-33.382 35.323 11.775 76.769 18.321 119.263 18.321 42.493 0 83.94-6.546 119.261-18.322 36.641-12.216 76.935 1.525 98.772 33.383 1.642 2.395 3.138 4.838 4.506 7.316 33.197-28.057 35.943-81.526.17-112.075z" fill="#ff63ed"/><g><path d="m317.086 122.378c-14.141 0-28.281-3.553-40.893-10.658-12.456-7.017-27.932-7.017-40.387 0-25.224 14.211-56.562 14.211-81.787 0-12.455-7.017-27.931-7.017-40.386 0-10.146 5.717-23.006 2.126-28.721-8.021-5.716-10.146-2.125-23.006 8.021-28.721 25.224-14.211 56.562-14.211 81.787 0 12.455 7.017 27.931 7.017 40.386 0 25.224-14.211 56.563-14.211 81.786 0 12.456 7.017 27.931 7.017 40.387 0 25.223-14.211 56.563-14.211 81.786 0 10.147 5.716 13.738 18.575 8.022 28.721-5.714 10.146-18.574 13.74-28.721 8.021-12.456-7.017-27.931-7.017-40.387 0-12.611 7.105-26.752 10.658-40.893 10.658z" fill="#ffff6f"/></g><circle cx="322.298" cy="260.551" fill="#f95116" r="14.067"/><g><path d="m285.786 305.964h-59.572c-4.143 0-7.5-3.358-7.5-7.5s3.357-7.5 7.5-7.5h59.572c4.143 0 7.5 3.358 7.5 7.5s-3.358 7.5-7.5 7.5z" fill="#f95116"/></g><circle cx="189.702" cy="260.551" fill="#f95116" r="14.067"/><g><path d="m200.815 455.175h-41.769c-17.934 0-32.523-14.59-32.523-32.523s14.59-32.523 32.523-32.523h9.246v-42.169c0-4.142 3.357-7.5 7.5-7.5s7.5 3.358 7.5 7.5v49.669c0 4.142-3.357 7.5-7.5 7.5h-16.746c-9.662 0-17.523 7.861-17.523 17.523s7.861 17.523 17.523 17.523h41.769c9.662 0 17.523-7.861 17.523-17.523v-69.965c0-4.142 3.357-7.5 7.5-7.5s7.5 3.358 7.5 7.5v69.965c.001 17.933-14.589 32.523-32.523 32.523z" fill="#007ea8"/></g><path d="m175.793 344.96v31.901c16.502 2.165 33.224 3.661 50.046 4.481v-31.655c-16.614-.85-33.348-2.417-50.046-4.727z" fill="#007ea8"/><g><path d="m317.274 455.175h-41.769c-17.933 0-32.522-14.59-32.522-32.523s14.59-32.523 32.522-32.523h9.246v-37.79c0-4.142 3.357-7.5 7.5-7.5s7.5 3.358 7.5 7.5v45.29c0 4.142-3.357 7.5-7.5 7.5h-16.746c-9.662 0-17.522 7.861-17.522 17.523s7.86 17.523 17.522 17.523h41.769c9.662 0 17.522-7.861 17.522-17.523v-75.557c0-4.142 3.357-7.5 7.5-7.5s7.5 3.358 7.5 7.5v75.557c.001 17.933-14.589 32.523-32.522 32.523z" fill="#007ea8"/></g><path d="m292.251 349.339v31.702c16.84-.987 33.559-2.677 50.046-5.011v-31.935c-16.678 2.492-33.412 4.22-50.046 5.244z" fill="#007ea8"/><g><path d="m474.475 202.905c-2.761-3.088-2.496-7.829.592-10.59 14.155-12.658 22.148-30.977 21.929-50.259-.219-19.158-8.442-36.629-23.156-49.194-15.696-13.403-37.183-18.696-57.475-14.154-4.047.903-8.053-1.64-8.957-5.681-.904-4.042 1.64-8.052 5.682-8.957 24.871-5.566 51.224.933 70.49 17.385 18.055 15.418 28.146 36.879 28.415 60.43.269 23.611-9.546 46.068-26.93 61.612-3.081 2.755-7.823 2.502-10.59-.592z" fill="#e207b9"/></g><g><path d="m27.455 203.958c-17.614-15.477-27.62-37.972-27.453-61.717.168-23.692 10.26-45.28 28.419-60.786 19.278-16.463 45.647-22.957 70.532-17.375 4.042.906 6.583 4.918 5.677 8.96-.907 4.041-4.92 6.583-8.96 5.677-20.306-4.554-41.802.734-57.509 14.146-14.798 12.637-23.023 30.212-23.159 49.486-.137 19.391 8.011 37.74 22.353 50.343 3.112 2.734 3.418 7.473.684 10.584-2.729 3.105-7.469 3.42-10.584.682z" fill="#e207b9"/></g><g><g><path d="m272.512 118.254c-10.186-5.738-22.84-5.738-33.023 0-27.496 15.49-61.654 15.49-89.15 0-10.183-5.737-22.838-5.738-33.022 0-13.767 7.756-31.184 2.893-38.937-10.874-7.755-13.763-2.893-31.182 10.875-38.937 27.494-15.491 61.654-15.489 89.148 0 10.186 5.738 22.84 5.737 33.023 0 27.496-15.491 61.655-15.49 89.149 0 10.185 5.737 22.839 5.736 33.025 0 27.494-15.491 61.654-15.489 89.148 0 13.765 7.754 18.63 25.171 10.874 38.937-7.754 13.765-25.171 18.632-38.937 10.873-10.184-5.737-22.839-5.737-33.024.001-27.485 15.486-61.627 15.506-89.149 0zm-114.811-13.068c22.953 12.931 51.471 12.931 74.424 0 14.726-8.295 33.021-8.296 47.749 0 22.92 12.912 51.473 12.931 74.424 0 14.727-8.296 33.023-8.296 47.75 0 6.541 3.685 14.819 1.379 18.505-5.167 3.686-6.542 1.378-14.819-5.167-18.506-22.954-12.931-51.47-12.932-74.424 0-14.727 8.295-33.023 8.296-47.75 0-22.952-12.932-51.47-12.932-74.424 0-14.727 8.296-33.023 8.296-47.75 0-22.952-12.931-51.469-12.932-74.423 0-6.543 3.686-8.855 11.962-5.169 18.505 3.685 6.542 11.96 8.855 18.506 5.169 14.726-8.297 33.022-8.298 47.749-.001z" fill="#f95116"/></g></g><g><path d="m256 357.977c-61.425 0-122.466-9.529-176.523-27.558-28.211-9.409-49.832-31.007-59.319-59.255-9.53-28.378-5.293-58.808 11.623-83.488 23.667-34.527 67.804-49.436 107.33-36.257 35.197 11.735 75.617 17.937 116.89 17.937s81.692-6.202 116.89-17.937c39.527-13.178 83.664 1.731 107.33 36.257 35.495 51.786 11.561 122.979-47.697 142.743-54.058 18.028-115.098 27.558-176.524 27.558zm-211.847-161.82c-14.23 20.76-17.794 46.359-9.776 70.232 7.974 23.744 26.142 41.895 49.846 49.801 52.546 17.524 111.945 26.787 171.777 26.787 59.833 0 119.232-9.263 171.776-26.787 49.865-16.63 69.889-76.53 40.07-120.033-19.901-29.036-56.997-41.582-90.213-30.508-36.708 12.238-78.768 18.707-121.634 18.707s-84.926-6.469-121.634-18.707c-33.163-11.057-70.281 1.429-90.212 30.508z" fill="#f95116"/></g></g></svg>