<svg id="Capa_1" enable-background="new 0 0 512 512" height="512" viewBox="0 0 512 512" width="512" xmlns="http://www.w3.org/2000/svg"><g><path d="m19.763 380.673c-16.351 16.351-16.351 42.861 0 59.212 16.351 16.351 42.861 16.351 59.212 0l108.781-108.781-59.212-59.212z" fill="#f90"/><g fill="#7181ff"><circle cx="66.762" cy="392.886" r="14.573"/><circle cx="118.167" cy="341.481" r="14.573"/><path d="m376.897 69.309 96.216 96.216-25.962 12.185c-16.275 7.646-29.364 20.736-37.011 37.011-.119.26-.238.519-.365.772-7.639 16.282-20.729 29.371-37.011 37.011l-.772.365c-16.268 7.639-29.364 20.736-37.011 37.011-.119.26-.238.519-.358.765-7.639 16.282-20.736 29.378-37.018 37.018l-.765.358c-16.275 7.646-29.371 20.743-37.018 37.018l-12.178 25.955-119.095-119.101 202.576-202.577c12.641-12.64 33.131-12.647 45.772-.007z"/></g><path d="m473.114 165.526 21.929 21.929c12.641 12.641 12.634 33.131-.007 45.772l-179.694 179.693c-12.641 12.641-33.124 12.641-45.765 0l-21.929-21.929 12.178-25.955c7.646-16.275 20.743-29.371 37.018-37.018l.765-.358c16.282-7.639 29.378-20.736 37.018-37.018.119-.246.238-.505.358-.765 7.646-16.275 20.743-29.371 37.011-37.011l.772-.365c16.282-7.639 29.371-20.729 37.011-37.011.126-.253.246-.512.365-.772 7.646-16.275 20.736-29.364 37.011-37.011z" fill="#a4bcff"/><circle cx="329.578" cy="174.651" fill="#2115c2" r="10.923"/><g><path d="m297.637 255.726c-1.92 0-3.839-.732-5.304-2.197-2.929-2.929-2.929-7.678 0-10.607l32.71-32.71c2.931-2.93 7.679-2.929 10.608 0s2.929 7.678 0 10.607l-32.71 32.71c-1.464 1.465-3.385 2.197-5.304 2.197z" fill="#2115c2"/></g><circle cx="256.772" cy="247.457" fill="#2115c2" r="10.923"/><g><path d="m51.153 408.494c-8.625-8.624-8.628-22.588.001-31.216 8.624-8.625 22.588-8.627 31.215 0h.001c8.606 8.606 8.606 22.609 0 31.216-8.626 8.625-22.588 8.629-31.217 0zm10.608-20.609c-2.763 2.762-2.767 7.236-.001 10.002 2.764 2.764 7.237 2.765 10.003 0 2.757-2.757 2.757-7.244-.001-10.002-2.762-2.762-7.237-2.765-10.001 0z" fill="#2115c2"/></g><g><path d="m102.559 357.089c-8.606-8.607-8.606-22.61 0-31.216s22.61-8.606 31.216 0h.001c8.606 8.606 8.606 22.609 0 31.216-8.608 8.605-22.609 8.607-31.217 0zm10.607-20.609c-2.758 2.757-2.758 7.244 0 10.002 2.756 2.758 7.244 2.756 10.002-.001 2.757-2.757 2.757-7.244-.001-10.002-2.755-2.756-7.244-2.757-10.001.001z" fill="#2115c2"/></g><path d="m500.346 182.151c-14.666-14.666-105.307-105.307-118.145-118.145-15.544-15.542-40.833-15.538-56.38.007l-201.576 201.576c-2.929 2.929-2.929 7.678 0 10.607s7.677 2.93 10.608 0l201.575-201.576c9.698-9.697 25.474-9.7 35.165-.007l88.663 88.662-16.295 7.647c-17.816 8.37-32.238 22.793-40.637 40.67-11.294 24.665-32.322 32.986-34.519 34.488-17.815 8.366-32.238 22.788-40.629 40.649l-.048.104c-11.582 25.05-34.136 34.161-34.475 34.398-17.811 8.368-32.237 22.786-40.619 40.62l-7.64 16.283-50.335-50.334c-2.928-2.929-7.677-2.928-10.607 0-2.929 2.929-2.929 7.678.001 10.607 4.315 4.315 76.759 76.757 79.818 79.817 15.58 15.58 40.79 15.583 56.373 0l179.696-179.694c15.544-15.546 15.547-40.837.006-56.379zm-10.614 45.773-179.695 179.693c-9.717 9.718-25.439 9.72-35.158 0l-18.206-18.206 9.94-21.185c11.526-24.531 33.85-33.544 34.18-33.775 30.113-14.128 40.377-40.529 40.978-41.382 6.889-14.663 18.754-26.528 33.428-33.42 3.585-2.225 28.164-11.963 41.729-41.738 6.888-14.659 18.754-26.525 33.409-33.41l21.196-9.948 18.205 18.205c9.693 9.693 9.69 25.468-.006 35.166z" fill="#2115c2"/><g><path d="m49.369 459.648c-13.186 0-25.584-5.135-34.91-14.46-9.324-9.324-14.459-21.722-14.459-34.909s5.135-25.585 14.46-34.91l108.78-108.781c2.93-2.929 7.678-2.929 10.608 0l59.212 59.212c1.406 1.407 2.196 3.314 2.196 5.303s-.79 3.897-2.196 5.303l-108.781 108.782c-9.325 9.325-21.723 14.46-34.91 14.46zm79.175-177.149-103.477 103.477c-6.492 6.491-10.067 15.122-10.067 24.302s3.574 17.811 10.066 24.302c6.492 6.492 15.123 10.067 24.303 10.067s17.811-3.575 24.302-10.066l103.479-103.478zm-108.781 98.174h.01z" fill="#f95116"/></g></g></svg>