<svg id="Capa_1" enable-background="new 0 0 512 512" height="512" viewBox="0 0 512 512" width="512" xmlns="http://www.w3.org/2000/svg"><g><path d="m23.991 215.813c10.46-14.318 25.36-25.402 43.119-31.058l16.595-5.292c54.286-17.312 104.643-45.136 148.198-81.872l16.724-14.101c20.268-17.09 45.665-27.224 72.169-27.87.962-.023 1.924-.035 2.888-.035 32.711 0 62.313 13.257 83.743 34.687s34.687 51.042 34.687 83.743v59.506c0 65.407-53.023 118.43-118.43 118.43h-230.558c-47.289 0-85.625-38.336-85.625-85.615-.001-18.633 6.02-36.195 16.49-50.523z" fill="#ffceff"/><path d="m79.747 224.382 16.595-5.294c59.781-19.068 114.412-49.248 162.38-89.703l16.925-14.275c13.304-11.221 30.044-17.798 47.447-17.931.754-.006 1.51-.001 2.267.016 41.953.902 75.168 35.91 75.168 77.873v58.453c0 42.438-34.403 76.841-76.841 76.841h-229.725c-24.352 0-44.723-19.413-44.867-43.765-.115-19.353 12.232-36.34 30.651-42.215z" fill="#ff9bff"/><path d="m323.684 351.95h62.386c65.412 0 118.43-53.018 118.43-118.43v-59.506c0-65.402-53.018-118.43-118.43-118.43h-62.386c32.711 0 62.313 13.257 83.743 34.687s34.687 51.042 34.687 83.743v59.506c0 65.412-53.018 118.43-118.43 118.43z" fill="#ff63ed"/><ellipse cx="313.699" cy="171.79" fill="#ffceff" rx="37.482" ry="25.883" transform="matrix(.707 -.707 .707 .707 -29.594 272.135)"/><circle cx="158.89" cy="245.038" fill="#e207b9" r="11.478"/><g><path d="m237.291 283.474h-48.608c-4.143 0-7.5-3.358-7.5-7.5s3.357-7.5 7.5-7.5h48.608c4.143 0 7.5 3.358 7.5 7.5s-3.357 7.5-7.5 7.5z" fill="#e207b9"/></g><circle cx="267.084" cy="245.038" fill="#e207b9" r="11.478"/><g><path d="m296.243 351.95v80.733c0 13.108-10.626 23.734-23.734 23.734h-39.617c-13.108 0-23.734-10.626-23.734-23.734s10.626-23.734 23.734-23.734h15.883v-56.999z" fill="#88f8d8"/></g><g><path d="m185.784 351.95v80.733c0 13.108-10.626 23.734-23.734 23.734h-39.617c-13.108 0-23.734-10.626-23.734-23.734s10.626-23.734 23.734-23.734h15.883v-56.999z" fill="#88f8d8"/></g><g><g><path d="m272.509 463.917h-39.617c-17.222 0-31.233-14.011-31.233-31.234s14.012-31.234 31.233-31.234h8.384v-45.499c0-4.142 3.357-7.5 7.5-7.5s7.5 3.358 7.5 7.5v52.999c0 4.142-3.357 7.5-7.5 7.5h-15.884c-8.951 0-16.233 7.282-16.233 16.234s7.282 16.234 16.233 16.234h39.617c8.951 0 16.234-7.282 16.234-16.234v-76.733c0-4.142 3.357-7.5 7.5-7.5s7.5 3.358 7.5 7.5v76.733c0 17.222-14.012 31.234-31.234 31.234z" fill="#007ea8"/></g></g><g><g><path d="m162.051 463.917h-39.617c-17.223 0-31.234-14.011-31.234-31.234s14.012-31.234 31.234-31.234h8.383v-45.499c0-4.142 3.357-7.5 7.5-7.5s7.5 3.358 7.5 7.5v52.999c0 4.142-3.357 7.5-7.5 7.5h-15.883c-8.952 0-16.234 7.282-16.234 16.234s7.282 16.234 16.234 16.234h39.617c8.951 0 16.233-7.282 16.233-16.234v-76.733c0-4.142 3.357-7.5 7.5-7.5s7.5 3.358 7.5 7.5v76.733c0 17.222-14.012 31.234-31.233 31.234z" fill="#007ea8"/></g></g><path d="m138.317 351.95h47.467v31.715h-47.467z" fill="#007ea8"/><path d="m248.775 351.95h47.467v31.715h-47.467z" fill="#007ea8"/><g><path d="m323.688 317.863h-229.725c-28.709 0-52.2-22.978-52.367-51.22-.134-22.664 14.282-42.519 35.872-49.405l16.595-5.294c58.838-18.767 112.61-48.472 159.824-88.291l16.924-14.275c14.891-12.559 33.438-19.554 52.226-19.698 47.191-.348 84.992 38.444 84.992 85.389v58.453c-.001 46.505-37.836 84.341-84.341 84.341zm-.001-213.186c-.179 0-.356 0-.534.002-15.297.117-30.45 5.857-42.671 16.164l-16.924 14.275c-48.725 41.093-104.217 71.748-164.937 91.115l-16.595 5.294c-15.306 4.882-25.525 18.958-25.431 35.026.118 20.021 16.881 36.309 37.367 36.309h229.725c38.234 0 69.341-31.106 69.341-69.341v-58.453c0-38.132-30.856-70.391-69.341-70.391z" fill="#e207b9"/></g><path d="m386.07 48.085c-65.847.012-62.764-.029-65.456.037-27.676.675-54.958 11.199-76.822 29.634-11.015 7.845-64.233 63.266-162.366 94.561l-16.592 5.292c-38.501 12.263-64.834 48.008-64.834 88.727 0 51.344 41.776 93.114 93.126 93.114h292.944c69.438 0 125.93-56.492 125.93-125.93v-59.506c0-69.438-56.492-125.929-125.93-125.929zm-292.944 296.365c-43.079 0-78.126-35.042-78.126-78.114 0-16.688 5.203-32.628 15.047-46.097 0 0 0 0 0-.001 9.846-13.476 23.448-23.275 39.343-28.337l16.594-5.292c101.364-32.326 156.431-89.523 167.479-97.384 19.264-16.243 43.242-25.515 67.518-26.106 30.061-.734 59.192 10.504 81.145 32.457 20.952 20.952 32.49 48.809 32.49 78.44v59.506c0 61.167-49.763 110.93-110.93 110.93h-230.56zm403.874-110.93c0 61.167-49.763 110.93-110.93 110.93h-2.818c39.279-20.994 66.362-63.205 66.362-110.93v-59.506c0-33.638-13.099-65.262-36.883-89.046-8.852-8.852-19.013-16.347-29.313-21.883h2.652c61.167 0 110.93 49.763 110.93 110.93z" fill="#e207b9"/><g><path d="m302.35 211.492c-8.076 0-15.304-2.74-20.458-7.894-13.236-13.237-9.633-37.577 8.202-55.412 8.146-8.146 18.109-13.634 28.055-15.455 10.805-1.978 20.772.667 27.358 7.253s9.229 16.558 7.252 27.358c-1.82 9.946-7.309 19.909-15.454 28.054-8.146 8.146-18.109 13.634-28.055 15.455-2.349.429-4.657.641-6.9.641zm-1.649-52.7c-11.492 11.492-15.248 27.154-8.202 34.199 4.175 4.176 10.596 3.737 14.05 3.104 6.879-1.259 14.223-5.38 20.148-11.306 5.927-5.927 10.048-13.271 11.308-20.149.632-3.455 1.07-9.875-3.104-14.05-4.175-4.174-10.596-3.738-14.051-3.104-6.879 1.258-14.223 5.379-20.149 11.306z" fill="#e207b9"/></g></g></svg>