<svg id="Capa_1" enable-background="new 0 0 512 512" height="512" viewBox="0 0 512 512" width="512" xmlns="http://www.w3.org/2000/svg"><g><path d="m429.16 150.24v198.6c0 24.96-7.16 49.4-20.63 70.42l-7.61 11.88c-1.47-.22-2.96-.33-4.49-.33h-50.2c-1.156-93.619 2.043-127.349 7.519-212.016 4.217-65.209 7.295-101.14 9.291-137.604h33.39c4.08 0 7.97-.81 11.53-2.27l.57.89c13.47 21.02 20.63 45.46 20.63 70.43z" fill="#b98eff"/><path d="m309.142 213.98c0 93.16-4.064 169.833-4.064 216.83h-189.508c-1.53 0-3.02.11-4.49.33l-7.61-11.88c-13.47-21.02-20.63-45.46-20.63-70.42v-198.6c0-24.97 7.16-49.41 20.63-70.43l.57-.89c3.56 1.46 7.45 2.27 11.53 2.27h197.789c-2.22 45.779-4.217 66.75-4.217 132.79z" fill="#b98eff"/><path d="m353.749 218.794c-6.016 92.073-7.519 155.038-7.519 212.016h-41.151c0-62.967 4.14-113.533 4.14-206.693 0-66.04 4.14-106.464 4.14-142.927h49.68c-1.773 37.9-5.073 73.06-9.29 137.604z" fill="#ffceff"/><g fill="#6d00ca"><circle cx="236.574" cy="327.441" r="10.669"/><path d="m208.881 363.696h-45.184c-4.142 0-7.5-3.357-7.5-7.5s3.358-7.5 7.5-7.5h45.184c4.142 0 7.5 3.357 7.5 7.5s-3.358 7.5-7.5 7.5z"/><circle cx="136.004" cy="327.441" r="10.669"/><path d="m401.68 437.444c-1.385 0-2.786-.383-4.039-1.186-3.488-2.234-4.504-6.873-2.27-10.361l6.844-10.684c12.722-19.852 19.445-42.803 19.445-66.374v-198.6c0-23.577-6.724-46.532-19.445-66.384-2.234-3.488-1.219-8.127 2.269-10.361 3.486-2.234 8.126-1.22 10.361 2.268 14.271 22.272 21.815 48.026 21.815 74.478v198.6c0 26.445-7.543 52.195-21.815 74.467l-6.843 10.683c-1.432 2.234-3.852 3.454-6.322 3.454z"/><path d="m109.77 436.584c-2.471 0-4.891-1.22-6.323-3.455l-6.293-9.823c-14.271-22.271-21.814-48.021-21.814-74.466v-198.6c0-26.451 7.543-52.205 21.815-74.478 2.235-3.488 6.874-4.502 10.361-2.268s4.503 6.873 2.269 10.361c-12.722 19.853-19.445 42.808-19.445 66.385v198.6c0 23.571 6.724 46.522 19.444 66.373l6.294 9.824c2.234 3.488 1.218 8.127-2.27 10.361-1.252.803-2.653 1.186-4.038 1.186z"/></g><path d="m305.079 433.586c-4.142 0-7.5-3.357-7.5-7.5 0-18.408.691-39.02 1.493-62.886 1.146-34.142 2.571-76.632 2.571-131.099 0-63.856 0-114.294 4.274-148.748.51-4.111 4.261-7.019 8.366-6.521 4.11.511 7.029 4.256 6.52 8.366-4.16 33.535-4.16 86.071-4.16 146.902 0 54.718-1.431 97.348-2.58 131.602-.796 23.731-1.484 44.227-1.484 62.383 0 4.144-3.358 7.501-7.5 7.501z" fill="#e207b9"/><path d="m346.891 434.888c-4.142 0-7.5-3.357-7.5-7.5 0-65.777 2.248-134.16 6.872-209.056 2.639-42.743 5.161-82.234 9.302-132.754.338-4.129 3.956-7.214 8.088-6.862 4.128.338 7.201 3.959 6.862 8.087-4.13 50.381-6.646 89.793-9.28 132.453-4.605 74.585-6.844 142.665-6.844 208.132 0 4.142-3.358 7.5-7.5 7.5z" fill="#e207b9"/><path d="m383.312 7.5h-254.624c-23.973 0-43.407 19.434-43.407 43.407 0 16.726 13.559 30.285 30.285 30.285h280.868c16.726 0 30.285-13.559 30.285-30.285 0-23.973-19.434-43.407-43.407-43.407z" fill="#88f8d8"/><path d="m396.434 88.692h-280.868c-20.834 0-37.785-16.95-37.785-37.785 0-28.07 22.837-50.907 50.907-50.907h254.623c28.07 0 50.907 22.837 50.907 50.907.001 20.835-16.949 37.785-37.784 37.785zm-267.746-73.692c-19.799 0-35.907 16.107-35.907 35.907 0 12.563 10.221 22.785 22.785 22.785h280.868c12.563 0 22.785-10.222 22.785-22.785 0-19.8-16.108-35.907-35.907-35.907z" fill="#007ea8"/><path d="m128.688 504.5h254.623c23.973 0 43.407-19.434 43.407-43.407 0-16.726-13.559-30.285-30.285-30.285h-280.867c-16.726 0-30.285 13.559-30.285 30.285 0 23.973 19.434 43.407 43.407 43.407z" fill="#88f8d8"/><path d="m383.312 512h-254.624c-28.07 0-50.907-22.837-50.907-50.907 0-20.835 16.95-37.785 37.785-37.785h280.868c20.834 0 37.785 16.95 37.785 37.785 0 28.07-22.837 50.907-50.907 50.907zm-267.746-73.692c-12.563 0-22.785 10.222-22.785 22.785 0 19.8 16.108 35.907 35.907 35.907h254.623c19.799 0 35.907-16.107 35.907-35.907 0-12.563-10.221-22.785-22.785-22.785z" fill="#007ea8"/></g></svg>