<svg id="Capa_1" enable-background="new 0 0 512 512" height="512" viewBox="0 0 512 512" width="512" xmlns="http://www.w3.org/2000/svg"><g><path d="m83.334 410.547h345.332c.23 0 .454.018.683.022l-22.14-128.094c-2.608 2.911-5.67 5.47-9.136 7.555-17.275 10.383-38.868 10.383-56.143 0-.282-.172-.575-.343-.858-.515-17.275-10.393-38.868-10.393-56.143 0l-.858.515c-17.275 10.383-38.868 10.383-56.143 0l-.858-.515c-17.275-10.393-38.868-10.393-56.143 0l-.858.515c-17.275 10.383-38.868 10.383-56.143 0-3.467-2.085-6.529-4.644-9.136-7.555l-22.14 128.094c.229-.004.453-.022.684-.022z" fill="#ffd600"/><path d="m428.666 410.547h-345.332c-23.986 0-39.776 25.008-29.464 46.664 13.756 28.888 42.899 47.289 74.895 47.289h254.47c31.996 0 61.139-18.401 74.895-47.289 10.312-21.656-5.478-46.664-29.464-46.664z" fill="#b98eff"/><path d="m292.022 97.64c0 10.689-2.994 20.678-8.185 29.178h26.64c11.922-4.946 23.299-13.481 32.369-25.206 15.342-19.831 20.228-43.76 14.816-63.04-3.064-10.914-12.772-18.425-24.106-18.649-20.022-.396-41.957 10.343-57.299 30.174-1.299 1.68-2.519 3.39-3.669 5.123 11.896 10.279 19.434 25.464 19.434 42.42z" fill="#88f8d8"/><path d="m283.837 126.818c5.191-8.5 8.185-18.489 8.185-29.178 0-30.962-25.099-56.061-56.061-56.061-30.961 0-56.061 25.1-56.061 56.061 0 10.689 2.994 20.678 8.185 29.178z" fill="#ff9bff"/><path d="m416.797 249.102-15.423-89.228c-3.302-19.103-19.874-33.056-39.26-33.056h-212.23c-19.386 0-35.958 13.954-39.26 33.056l-15.423 89.228c-2.8 16.199 4.637 32.455 18.725 40.928 17.275 10.383 38.868 10.383 56.143 0l.858-.515c17.275-10.393 38.868-10.393 56.143 0l.858.515c17.275 10.383 38.868 10.383 56.143 0l.858-.515c17.275-10.393 38.868-10.393 56.143 0 .283.172.575.343.858.515 17.275 10.383 38.868 10.383 56.143 0 14.087-8.473 21.524-24.729 18.724-40.928z" fill="#ff63ed"/><circle cx="307.769" cy="205.936" fill="#e207b9" r="10.984"/><g><path d="m279.259 243.041h-46.518c-4.142 0-7.5-3.358-7.5-7.5s3.358-7.5 7.5-7.5h46.518c4.142 0 7.5 3.358 7.5 7.5s-3.358 7.5-7.5 7.5z" fill="#e207b9"/></g><circle cx="204.23" cy="205.936" fill="#e207b9" r="10.984"/><g><path d="m429.169 417.078c-3.582 0-6.751-2.574-7.382-6.224l-21.783-126.031c-.705-4.082 2.031-7.962 6.113-8.668 4.079-.706 7.963 2.032 8.668 6.113l21.783 126.032c.705 4.082-2.031 7.962-6.113 8.668-.432.074-.862.11-1.286.11z" fill="#f95116"/></g><g><path d="m82.844 417.001c-.424 0-.854-.036-1.286-.111-4.082-.705-6.818-4.586-6.113-8.668l21.756-125.872c.706-4.081 4.583-6.819 8.668-6.113 4.082.705 6.818 4.586 6.113 8.668l-21.756 125.872c-.631 3.649-3.8 6.224-7.382 6.224z" fill="#f95116"/></g><g><path d="m383.235 512h-254.47c-34.694 0-66.75-20.24-81.667-51.564-5.956-12.508-5.096-26.968 2.3-38.682s20.082-18.707 33.935-18.707h345.333c13.854 0 26.54 6.993 33.936 18.707s8.256 26.174 2.3 38.682c-14.917 31.324-46.972 51.564-81.667 51.564zm-299.901-93.953c-8.675 0-16.62 4.379-21.252 11.715s-5.17 16.392-1.44 24.225c12.442 26.129 39.182 43.013 68.123 43.013h254.47c28.941 0 55.681-16.884 68.124-43.013 3.73-7.833 3.191-16.889-1.44-24.224-4.631-7.336-12.576-11.715-21.252-11.715h-345.333z" fill="#6d00ca"/></g><g><path d="m311.503 133.886c-2.899 0-5.66-1.691-6.886-4.52-1.647-3.801.099-8.217 3.9-9.864 10.83-4.692 20.649-12.466 28.396-22.48 13.292-17.179 18.475-38.8 13.528-56.424-2.168-7.723-9.014-13.019-17.034-13.178-18.314-.363-37.928 10.085-51.218 27.264-2.536 3.276-7.245 3.877-10.521 1.343s-3.877-7.245-1.343-10.521c16.383-21.176 40.049-33.552 63.379-33.083 14.68.291 27.209 9.984 31.178 24.121 6.299 22.44.278 48.48-16.105 69.657-9.292 12.01-21.151 21.369-34.297 27.065-.971.421-1.982.62-2.977.62z" fill="#007ea8"/></g><path d="m424.188 247.824-15.423-89.228c-3.934-22.76-23.554-39.279-46.651-39.279h-66.4c2.505-6.91 3.807-14.241 3.807-21.678 0-34.299-27.313-62.323-61.329-63.504-4.936-12.226-12.812-23.298-23.002-32.265-3.109-2.736-7.849-2.435-10.585.675-2.736 3.109-2.434 7.849.675 10.585 7.36 6.478 13.105 13.991 17.156 22.413-28.57 6.218-50.036 31.691-50.036 62.097 0 7.437 1.302 14.768 3.807 21.678h-26.323c-23.097 0-42.716 16.519-46.651 39.279l-15.422 89.228c-3.353 19.397 5.381 38.487 22.251 48.634 34.055 20.469 64.631-.489 64.731-.516 25.986-15.635 49.16.486 49.27.516 34.041 20.46 64.63-.489 64.731-.516 26.038-15.667 49.103.47 49.27.516 19.699 11.84 44.173 11.84 63.872-.001 16.871-10.147 25.605-29.236 22.252-48.634zm-236.788-150.184c0-26.777 21.784-48.561 48.561-48.561 26.776 0 48.561 21.784 48.561 48.561 0 7.562-1.752 14.978-5.098 21.678h-86.926c-3.345-6.7-5.098-14.116-5.098-21.678zm206.809 185.962c-25.99 15.622-49.169-.485-49.27-.513-9.852-5.927-20.896-8.89-31.941-8.89-18.795 0-32.344 9.21-32.791 9.403-25.99 15.622-49.161-.483-49.27-.513-34.059-20.491-64.631.485-64.731.513-14.932 8.975-33.484 8.975-48.414.001-11.524-6.931-17.49-19.972-15.2-33.224l15.422-89.227c2.688-15.548 16.091-26.834 31.87-26.834h212.23c15.779 0 29.182 11.285 31.87 26.833l15.423 89.228c2.29 13.251-3.676 26.293-15.198 33.223z" fill="#e207b9"/></g></svg>