<svg id="Capa_1" enable-background="new 0 0 512 512" height="512" viewBox="0 0 512 512" width="512" xmlns="http://www.w3.org/2000/svg"><g><path d="m180.401 360.756-29.13-29.13c-7.676-7.676-20.121-7.676-27.797 0l-104.173 104.174c-15.72 15.72-15.72 41.207 0 56.927 15.72 15.72 41.207 15.72 56.927 0l104.173-104.173c7.676-7.677 7.676-20.122 0-27.798z" fill="#f90"/><circle cx="64.486" cy="447.542" fill="#ffff6f" r="14.01"/><circle cx="120.652" cy="391.376" fill="#ffff6f" r="14.01"/><path d="m493.365 114.717-96.055-96.055c-14.874-14.874-38.99-14.874-53.865 0l-99.006 99.006c-15.44 15.44-24.463 36.152-25.256 57.973l-1.948 53.632c-.579 15.947-7.174 31.085-18.458 42.368l-55.238 55.238c2.824.932 5.485 2.501 7.731 4.748l29.13 29.13c2.246 2.246 3.816 4.907 4.748 7.731l55.238-55.238c11.284-11.284 26.421-17.878 42.368-18.458l53.632-1.948c21.821-.793 42.533-9.816 57.973-25.256l99.006-99.006c14.875-14.874 14.875-38.99 0-53.865z" fill="#a4bcff"/><circle cx="388.828" cy="109.512" fill="#2115c2" r="11.419"/><g><path d="m350.135 191.729c-2.929-2.929-2.929-7.678 0-10.607l34.193-34.194c2.93-2.929 7.678-2.929 10.608 0 2.929 2.929 2.929 7.678 0 10.607l-34.193 34.194c-2.93 2.928-7.678 2.929-10.608 0z" fill="#2115c2"/></g><circle cx="312.719" cy="185.621" fill="#2115c2" r="11.419"/><g><path d="m49.275 462.752c-8.405-8.405-8.408-22.013.001-30.42 8.404-8.406 22.013-8.407 30.42 0h-.001.001c8.405 8.404 8.408 22.013-.001 30.42-8.404 8.406-22.013 8.408-30.42 0zm10.608-19.814c-2.543 2.542-2.547 6.661-.001 9.207 2.544 2.543 6.66 2.546 9.206 0 2.543-2.542 2.547-6.661.001-9.207-.001 0-.001 0-.001 0-2.545-2.544-6.661-2.544-9.205 0z" fill="#f95116"/></g><g><path d="m105.441 406.586c-8.387-8.387-8.387-22.033-.001-30.42 8.406-8.405 22.012-8.409 30.421 0h.001c8.405 8.406 8.408 22.013-.001 30.42-8.404 8.406-22.013 8.408-30.42 0zm10.606-19.813c-2.537 2.538-2.537 6.668.001 9.207 2.544 2.544 6.662 2.544 9.206 0 2.543-2.542 2.547-6.661.001-9.207-.001 0-.001 0-.001 0-2.544-2.544-6.661-2.545-9.207 0z" fill="#f95116"/></g><g><path d="m187.148 373.987c-1.92 0-3.839-.732-5.304-2.197-2.929-2.929-2.929-7.678 0-10.607l53.238-53.238c12.665-12.666 29.499-19.999 47.399-20.65l53.632-1.948c19.994-.726 38.796-8.917 52.941-23.064l99.006-99.006c5.777-5.777 8.959-13.459 8.959-21.629s-3.182-15.852-8.959-21.629l-96.055-96.055c-5.776-5.777-13.458-8.959-21.628-8.959-8.171 0-15.853 3.182-21.629 8.959l-99.006 99.006c-14.147 14.146-22.337 32.948-23.064 52.942l-1.948 53.632c-.65 17.9-7.984 34.733-20.649 47.4l-53.238 53.238c-2.931 2.929-7.679 2.928-10.608 0-2.929-2.929-2.929-7.678 0-10.607l53.238-53.238c9.978-9.978 15.754-23.238 16.266-37.337l1.948-53.632c.864-23.794 10.613-46.169 27.447-63.004l99.006-99.006c8.611-8.611 20.059-13.353 32.237-13.353 12.177 0 23.625 4.742 32.236 13.353l96.055 96.055c17.775 17.775 17.775 46.697 0 64.471l-99.006 99.006c-16.835 16.836-39.211 26.583-63.004 27.448l-53.632 1.948c-14.101.512-27.361 6.289-37.337 16.266l-53.238 53.238c-1.464 1.465-3.384 2.197-5.303 2.197z" fill="#2115c2"/></g><g><path d="m13.997 498.03c-18.663-18.664-18.663-48.869 0-67.533l104.173-104.174c10.613-10.613 27.791-10.614 38.405 0l29.129 29.129c10.611 10.611 10.614 27.79 0 38.404l-104.172 104.174c-18.619 18.618-48.915 18.619-67.535 0zm114.781-161.1-104.173 104.173c-12.801 12.801-12.802 33.518 0 46.32 12.769 12.77 33.549 12.77 46.319 0l104.173-104.173c4.751-4.751 4.751-12.439 0-17.191l-29.129-29.129c-4.738-4.739-12.452-4.739-17.19 0z" fill="#f95116"/></g></g></svg>