<svg id="Capa_1" enable-background="new 0 0 512 512" height="512" viewBox="0 0 512 512" width="512" xmlns="http://www.w3.org/2000/svg"><g><path d="m427.518 174.058c-27.224 0-49.988-19.034-55.75-44.517h-2.846c-5.762 25.482-28.525 44.517-55.75 44.517-27.224 0-49.988-19.034-55.749-44.517h-2.846c-5.761 25.482-28.525 44.517-55.749 44.517-27.224 0-49.988-19.034-55.75-44.517h-2.846c-5.762 25.482-28.525 44.517-55.749 44.517-14.441 0-27.621-5.365-37.684-14.196v265.583c2.909-.701 5.942-1.082 9.066-1.082h400.272c3.124 0 6.157.381 9.066 1.082v-265.583c-10.064 8.831-23.244 14.196-37.685 14.196z" fill="#ffff6f"/><path d="m188.715 235.913h-54.008c-16.662 0-30.169 13.507-30.169 30.169v158.281h114.345v-158.281c0-16.662-13.507-30.169-30.168-30.169z" fill="#b98eff"/><path d="m272.913 325.354h138.259c.884 0 1.745.09 2.591.225v-68.289c0-11.806-9.571-21.377-21.377-21.377h-100.687c-11.806 0-21.377 9.571-21.377 21.377v68.289c.846-.135 1.707-.225 2.591-.225z" fill="#ddbeff"/><path d="m411.172 325.354h-138.259c-9.028 0-16.346 7.318-16.346 16.346v20.071c0 9.028 7.318 16.346 16.346 16.346h138.259c9.028 0 16.346-7.318 16.346-16.346v-20.071c0-9.027-7.318-16.346-16.346-16.346z" fill="#9448f5"/><g><path d="m465.202 429.945c-4.143 0-7.5-3.358-7.5-7.5v-259.583c0-4.142 3.357-7.5 7.5-7.5s7.5 3.358 7.5 7.5v259.583c0 4.142-3.358 7.5-7.5 7.5z" fill="#f95116"/></g><g><path d="m46.798 429.945c-4.143 0-7.5-3.358-7.5-7.5v-259.583c0-4.142 3.357-7.5 7.5-7.5s7.5 3.358 7.5 7.5v259.583c0 4.142-3.357 7.5-7.5 7.5z" fill="#f95116"/></g><g><path d="m218.883 428.863c-4.143 0-7.5-3.358-7.5-7.5v-155.281c0-12.5-10.169-22.669-22.669-22.669h-54.008c-12.5 0-22.669 10.169-22.669 22.669v155.281c0 4.142-3.357 7.5-7.5 7.5s-7.5-3.358-7.5-7.5v-155.281c0-20.771 16.898-37.669 37.669-37.669h54.008c20.771 0 37.669 16.898 37.669 37.669v155.281c0 4.142-3.357 7.5-7.5 7.5z" fill="#6d00ca"/></g><path d="m421.263 320.102v-62.812c0-15.923-12.954-28.877-28.877-28.877h-100.686c-15.923 0-28.878 12.954-28.878 28.877v62.812c-8.118 3.808-13.755 12.056-13.755 21.599v20.071c0 13.149 10.697 23.846 23.847 23.846h138.259c13.148 0 23.846-10.697 23.846-23.846v-20.072c-.001-9.543-5.639-17.791-13.756-21.598zm-143.441-62.812c0-7.652 6.226-13.877 13.878-13.877h100.687c7.651 0 13.877 6.225 13.877 13.877v60.564h-128.442zm142.196 104.481c0 4.878-3.968 8.846-8.846 8.846h-138.259c-4.878 0-8.847-3.968-8.847-8.846v-20.071c0-4.961 4.077-8.846 8.847-8.846h138.259c4.776 0 8.846 3.897 8.846 8.846z" fill="#6d00ca"/><path d="m84.642 174.058h-.32c-31.487 0-57.013-25.525-57.013-57.013v-13.997h114.345v13.997c.001 31.487-25.525 57.013-57.012 57.013z" fill="#ff9bff"/><path d="m62.733 7.5c-19.564 0-35.424 15.86-35.424 35.424v60.125h114.346v-95.549z" fill="#ff63ed"/><path d="m198.987 174.058h-.32c-31.487 0-57.013-25.525-57.013-57.013v-13.997h114.346v13.997c0 31.487-25.525 57.013-57.013 57.013z" fill="#ffceff"/><path d="m141.655 7.5h114.345v95.549h-114.345z" fill="#ff9bff"/><path d="m313.333 174.058h-.32c-31.487 0-57.013-25.525-57.013-57.013v-13.997h114.345v13.997c0 31.487-25.525 57.013-57.012 57.013z" fill="#ff9bff"/><path d="m256 7.5h114.345v95.549h-114.345z" fill="#ff63ed"/><path d="m427.678 174.058h-.32c-31.487 0-57.013-25.525-57.013-57.013v-13.997h114.345v13.997c.001 31.487-25.524 57.013-57.012 57.013z" fill="#ffceff"/><path d="m449.267 7.5h-78.922v95.549h114.345v-60.125c.001-19.564-15.859-35.424-35.423-35.424z" fill="#ff9bff"/><path d="m449.267 0c-49.757 0-341.023 0-386.534 0-23.668 0-42.924 19.255-42.924 42.924v74.121c0 35.573 28.94 64.513 64.513 64.513h.32c24.688 0 46.171-13.946 57.013-34.368 10.842 20.422 32.325 34.368 57.013 34.368h.32c24.688 0 46.171-13.946 57.013-34.368 10.841 20.422 32.324 34.368 57.012 34.368h.321c24.688 0 46.17-13.946 57.012-34.368 10.842 20.422 32.325 34.368 57.013 34.368h.32c35.572 0 64.513-28.94 64.513-64.513 0-34.964 0-42.576 0-74.121-.001-23.669-19.257-42.924-42.925-42.924zm-315.112 117.045c0 27.302-22.211 49.513-49.513 49.513h-.32c-27.302 0-49.513-22.211-49.513-49.513v-6.496h99.346zm0-21.496h-99.346v-52.625c0-15.398 12.526-27.924 27.924-27.924h71.422zm114.345 21.496c0 27.302-22.211 49.513-49.513 49.513h-.32c-27.302 0-49.513-22.211-49.513-49.513v-6.496h99.346zm0-21.496h-99.346v-80.549h99.346zm114.345 21.496c0 27.302-22.211 49.513-49.512 49.513h-.321c-27.301 0-49.512-22.211-49.512-49.513v-6.496h99.345zm0-21.496h-99.345v-80.549h99.345zm114.346 21.496c0 27.302-22.211 49.513-49.513 49.513h-.32c-27.302 0-49.513-22.211-49.513-49.513v-6.496h99.346zm0-21.496h-99.346v-80.549h71.422c15.397 0 27.924 12.526 27.924 27.924z" fill="#e207b9"/><path d="m456.136 424.363h-400.272c-21.309 0-38.583 17.274-38.583 38.583v16.26c0 13.97 11.325 25.294 25.294 25.294h426.85c13.97 0 25.294-11.325 25.294-25.294v-16.26c0-21.309-17.274-38.583-38.583-38.583z" fill="#ff63ed"/><g><path d="m469.425 512h-426.849c-18.083 0-32.795-14.711-32.795-32.794v-16.26c0-25.41 20.673-46.083 46.083-46.083h400.272c25.41 0 46.083 20.673 46.083 46.083v16.26c0 18.082-14.711 32.794-32.794 32.794zm-413.561-80.137c-17.14 0-31.083 13.944-31.083 31.083v16.26c0 9.812 7.982 17.794 17.795 17.794h426.85c9.812 0 17.794-7.982 17.794-17.794v-16.26c0-17.139-13.943-31.083-31.083-31.083z" fill="#e207b9"/></g></g></svg>