<svg id="Capa_1" enable-background="new 0 0 512 512" height="512" viewBox="0 0 512 512" width="512" xmlns="http://www.w3.org/2000/svg"><g><path d="m214.273 21.285c-42.466 6.865-87.603 29.974-125.309 67.68s-60.815 82.843-67.68 125.309c-3.145 19.451 5.213 38.993 21.294 50.378 29.322 20.76 72.036 43.787 129.776 58.019 17.577 4.332 35.821-3.383 45.28-18.818 10.296-16.8 23.027-33.058 38.093-48.125 15.067-15.067 31.325-27.797 48.125-38.093 15.435-9.459 23.15-27.703 18.818-45.28-14.232-57.74-37.26-100.454-58.019-129.776-11.386-16.081-30.927-24.439-50.378-21.294z" fill="#f90"/><path d="m392.748 32.048c4.001 5.139 7.193 10.974 9.349 17.346 14.168 41.873 11.951 80.291 7.836 104.529-.676 3.98-2.146 7.654-4.2 10.903 8.218 1.219 19.079 3.875 30.908 9.55 20.89 10.023 45.929 3.831 59.243-15.132l.067-.095c12.511-17.819 11.084-41.858-3.315-58.188-42.681-48.403-81.506-63.983-99.888-68.913z" fill="#f90"/><path d="m353.583 9.636c-51.848-6.786-90.455 3.865-113.781 14.042 9.837 3.541 18.581 10.047 24.85 18.901 20.76 29.322 43.787 72.036 58.019 129.776 1.681 6.821 1.541 13.74-.154 20.209 15.918-6.973 36.71-13.581 58.95-13.992 14.178-.262 26.092-10.669 28.466-24.65 4.116-24.239 6.333-62.656-7.836-104.529-7.245-21.408-26.104-36.823-48.514-39.757z" fill="#ffd600"/><path d="m32.048 392.748c5.139 4.001 10.974 7.193 17.346 9.349 41.873 14.168 80.291 11.951 104.529 7.836 3.98-.676 7.654-2.146 10.903-4.2 1.219 8.218 3.875 19.079 9.55 30.908 10.023 20.89 3.831 45.929-15.132 59.243l-.095.067c-17.819 12.511-41.858 11.084-58.188-3.315-48.403-42.68-63.983-81.505-68.913-99.888z" fill="#f90"/><path d="m9.636 353.583c-6.786-51.848 3.865-90.455 14.042-113.781 3.541 9.837 10.047 18.581 18.901 24.85 29.322 20.76 72.036 43.787 129.776 58.019 6.821 1.681 13.74 1.541 20.209-.154-6.973 15.918-13.581 36.71-13.992 58.95-.262 14.178-10.669 26.092-24.65 28.466-24.239 4.116-62.656 6.333-104.529-7.836-21.409-7.244-36.824-26.103-39.757-48.514z" fill="#ffd600"/><circle cx="225.242" cy="142.275" fill="#f95116" r="12.448"/><g><path d="m188.843 233.619c-1.919 0-3.839-.732-5.303-2.197-2.928-2.929-2.928-7.677 0-10.606l37.276-37.276c2.929-2.929 7.677-2.929 10.607 0 2.928 2.929 2.928 7.677 0 10.606l-37.276 37.276c-1.465 1.465-3.385 2.197-5.304 2.197z" fill="#f95116"/></g><g fill="#f95116"><circle cx="142.274" cy="225.243" r="12.448"/><path d="m498.259 96.001c-42.028-47.664-80.666-64.594-101.282-70.556-10.611-12.522-25.703-21.057-42.42-23.244-51.716-6.769-90.796 3.319-115.163 13.499-8.42-2.554-17.416-3.257-26.318-1.819-45.872 7.416-91.832 32.198-129.415 69.78-37.581 37.583-62.364 83.543-69.78 129.414-1.439 8.9-.736 17.897 1.819 26.318-10.181 24.368-20.269 63.45-13.5 115.164 2.189 16.717 10.724 31.808 23.245 42.42 5.961 20.615 22.891 59.254 70.557 101.283 19.037 16.787 46.775 18.348 67.474 3.817l.078-.055c21.893-15.371 29.288-44.232 17.584-68.624-3.779-7.877-6.498-16.058-8.126-24.375 7.878-6.684 12.859-16.54 13.061-27.416.309-16.758 4.352-34.541 12.011-52.906 10.514-3.634 19.772-10.852 25.947-20.928 20.272-33.08 49.729-62.897 83.742-83.742 10.079-6.177 17.303-15.434 20.936-25.951 18.364-7.657 36.145-11.698 52.899-12.008 10.876-.201 20.732-5.182 27.415-13.06 8.316 1.628 16.497 4.347 24.376 8.127 24.311 11.665 53.202 4.381 68.638-17.604l.053-.076c14.523-20.689 12.949-48.428-3.831-67.458zm-343.341 393.757-.078.055c-14.994 10.527-35.11 9.374-48.919-2.803-34.36-30.296-51.629-58.322-60.29-78.286 31.294 11.346 87.226 15.254 113.624 7.67 1.91 8.013 4.709 15.882 8.36 23.491 8.517 17.753 3.185 38.722-12.697 49.873zm16.156-108.43c-.202 10.953-8.465 19.524-18.407 21.211-43.127 7.323-87.565-.258-107.476-10.319-.087-.044-.174-.089-.261-.134-14.986-7.678-25.637-22.499-27.859-39.477-5.275-40.309.317-72.266 7.788-94.89 3.593 4.829 8.15 9.344 13.385 13.053 38.197 27.043 82.715 46.954 132.315 59.18 3.368.83 6.967 1.295 10.386 1.387-6.259 17.178-9.574 33.946-9.871 49.989zm128.86-170.087c-35.001 21.452-66.552 52.564-88.693 88.694-7.882 12.862-22.882 18.956-37.091 15.455-45.573-11.233-88.931-29.738-127.238-56.859-.053-.038-.104-.078-.157-.116-13.535-9.666-20.733-26.462-18.067-42.945 6.917-42.786 30.207-85.83 65.579-121.203s78.416-58.662 121.203-65.58c16.55-2.675 33.407 4.595 43.06 18.225 25.195 35.586 44.744 78.088 56.859 127.238 3.478 14.103-2.501 29.153-15.455 37.091zm102.604-58.573c-1.744 10.279-10.566 18.21-21.21 18.407-16.04.296-32.803 3.61-49.978 9.867-.097-3.597-.61-7.186-1.398-10.382-12.227-49.602-32.137-94.119-59.18-132.314-3.6-5.087-8.085-9.689-13.053-13.385 22.625-7.472 54.585-13.064 94.891-7.788 19.625 2.568 36.162 16.341 42.383 34.725 11.093 32.786 13.162 67.79 7.545 100.87zm87.261 2.191-.053.076c-11.141 15.865-32.109 21.197-49.862 12.68-7.61-3.651-15.477-6.45-23.49-8.36.36-1.252.715-2.797.933-4.077 4.341-25.57 6.455-65.097-8.126-108.188-.154-.455-.313-.908-.477-1.359 19.963 8.66 47.988 25.929 78.286 60.29 12.176 13.81 13.329 33.926 2.789 48.938z"/></g></g></svg>