<svg id="Capa_1" enable-background="new 0 0 512 512" height="512" viewBox="0 0 512 512" width="512" xmlns="http://www.w3.org/2000/svg"><g><path d="m290.645 413.765h-15.496v41.906h-16.339c-13.484 0-24.415 10.931-24.415 24.415s10.932 24.414 24.415 24.414h40.753c13.484 0 24.414-10.931 24.414-24.414v-69.586c-10.865 2.137-22.017 3.265-33.332 3.265z" fill="#88f8d8"/><path d="m196.502 413.765c-11.875 0-23.589-1.221-34.981-3.566v45.472h-16.339c-13.484 0-24.415 10.931-24.415 24.415s10.931 24.414 24.415 24.414h40.753c13.484 0 24.414-10.931 24.414-24.414v-66.321z" fill="#88f8d8"/><g><path d="m299.564 512h-40.754c-17.598 0-31.915-14.317-31.915-31.915 0-17.597 14.317-31.914 31.915-31.914h8.839v-31.406c0-4.142 3.358-7.5 7.5-7.5s7.5 3.358 7.5 7.5v38.906c0 4.142-3.358 7.5-7.5 7.5h-16.339c-9.327 0-16.915 7.588-16.915 16.914 0 9.327 7.588 16.915 16.915 16.915h40.753c9.327 0 16.915-7.588 16.915-16.915v-66.585c0-4.142 3.358-7.5 7.5-7.5s7.5 3.358 7.5 7.5v66.585c0 17.598-14.317 31.915-31.914 31.915z" fill="#007ea8"/></g><g><path d="m185.936 512h-40.753c-17.597 0-31.914-14.317-31.914-31.915 0-17.597 14.317-31.914 31.914-31.914h8.839v-34.973c0-4.142 3.358-7.5 7.5-7.5s7.5 3.358 7.5 7.5v42.473c0 4.142-3.358 7.5-7.5 7.5h-16.339c-9.327 0-16.914 7.588-16.914 16.914 0 9.327 7.588 16.915 16.914 16.915h40.753c9.327 0 16.915-7.588 16.915-16.915v-63.32c0-4.142 3.358-7.5 7.5-7.5s7.5 3.358 7.5 7.5v63.32c0 17.598-14.317 31.915-31.915 31.915z" fill="#007ea8"/></g><path d="m161.522 410.199v26.196c11.417 2.024 23.111 3.087 34.981 3.087h13.848v-25.717h-13.848c-11.876 0-23.59-1.221-34.981-3.566z" fill="#007ea8"/><path d="m275.149 413.765v25.717h15.496c11.217 0 22.366-.952 33.333-2.82v-26.162c-10.866 2.137-22.018 3.265-33.333 3.265z" fill="#007ea8"/><path d="m22.803 258.618c4.252 23.572 12.187 45.863 23.188 66.255 29.729 55.11 87.894 88.891 150.511 88.891h94.143c63.744 0 122.53-35.133 152.008-91.652 10.242-19.638 17.663-40.982 21.724-63.495h-441.574z" fill="#ff63ed"/><path d="m320.286 190.139 71.75-153.523c3.717-7.953.101-17.403-7.976-20.843l-16.484-7.021c-8.077-3.44-17.396.5-20.555 8.691l-66.607 172.696z" fill="#ffff6f"/><path d="m486.26 65.253-14.212-10.91c-6.964-5.346-16.971-3.854-22.073 3.29l-94.63 132.506h48.797l84.643-102.713c5.584-6.774 4.439-16.828-2.525-22.173z" fill="#ffff6f"/><circle cx="298.203" cy="325.126" fill="#e207b9" r="11.588"/><g><path d="m268.126 363.857h-49.073c-4.142 0-7.5-3.358-7.5-7.5s3.358-7.5 7.5-7.5h49.073c4.142 0 7.5 3.358 7.5 7.5s-3.358 7.5-7.5 7.5z" fill="#e207b9"/></g><circle cx="188.977" cy="325.126" fill="#e207b9" r="11.588"/><g><path d="m290.646 421.265h-94.143c-66.021 0-126.222-35.57-157.111-92.83-11.579-21.464-19.643-44.505-23.969-68.484-.735-4.077 1.973-7.977 6.049-8.712 4.076-.734 7.977 1.973 8.712 6.049 4.044 22.418 11.583 43.959 22.408 64.025 28.268 52.401 83.411 84.952 143.91 84.952h94.143c29.975 0 59.363-8.146 84.988-23.558 25.697-15.456 46.573-37.608 60.37-64.062 10.068-19.304 17.131-39.948 20.993-61.358.736-4.076 4.636-6.784 8.712-6.049s6.785 4.636 6.049 8.712c-4.131 22.902-11.686 44.984-22.455 65.631-15.074 28.901-37.874 53.1-65.938 69.979-27.957 16.816-60.02 25.705-92.718 25.705z" fill="#e207b9"/></g><path d="m426.247 190.139h-365.313c-23.899 0-42.819 20.244-41.168 44.086.568 8.2 1.581 16.348 3.038 24.394h441.574c1.458-8.053 2.471-16.203 3.038-24.4 1.65-23.84-17.273-44.08-41.169-44.08z" fill="#ffd600"/><path d="m490.827 59.304-14.212-10.91c-10.32-7.922-25.153-5.747-32.743 4.88l-92.387 129.365h-19.416l66.761-142.847c5.509-11.787.184-25.8-11.831-30.919l-16.483-7.02c-12.016-5.119-25.81.753-30.492 12.892l-64.755 167.894h-214.336c-28.196 0-50.601 23.937-48.65 52.104.585 8.456 1.642 16.939 3.14 25.212.646 3.569 3.753 6.164 7.38 6.164h441.574c3.627 0 6.734-2.595 7.38-6.164 1.499-8.278 2.556-16.763 3.141-25.218 1.947-28.123-20.414-52.098-48.651-52.098h-6.204l74.531-90.443c8.279-10.046 6.606-24.946-3.747-32.892zm-136.808-39.162c1.634-4.236 6.442-6.269 10.619-4.49l16.483 7.02c4.177 1.779 6.043 6.655 4.121 10.768l-69.73 149.198h-24.167zm105.914 213.559c-.403 5.822-1.045 11.657-1.914 17.418h-428.858c-.869-5.758-1.51-11.591-1.914-17.412-1.352-19.521 14.097-36.068 33.686-36.068h365.313c19.562 0 35.041 16.518 33.687 36.062zm23.065-151.044-82.393 99.982h-30.688l86.161-120.648c2.633-3.687 7.794-4.469 11.403-1.699l14.212 10.91c3.595 2.759 4.198 7.945 1.305 11.455z" fill="#f95116"/></g></svg>