<svg id="Capa_1" enable-background="new 0 0 512 512" height="512" viewBox="0 0 512 512" width="512" xmlns="http://www.w3.org/2000/svg"><g><path d="m390.145 52.973c-25.476-22.182-58.123-34.398-91.93-34.398-24.16 0-47.996 6.266-68.932 18.121-.048.027-.095.054-.143.081-8.496 4.824-18.823 4.824-27.319 0-.048-.027-.096-.054-.143-.081-20.936-11.855-44.772-18.121-68.932-18.121-33.806 0-66.454 12.216-91.93 34.398-21.173 18.435-33.316 45.316-33.316 73.751v161.257c0 54.28 44.003 98.283 98.283 98.283h219.396c54.28 0 98.283-44.003 98.283-98.283v-161.257c0-28.436-12.144-55.317-33.317-73.751z" fill="#f90"/><path d="m463.979 52.973c2.851 11.549 1.334 23.935-4.414 34.544-7.768 14.336-7.768 31.625 0 45.961 7.768 14.336 7.768 31.625 0 45.961s-7.768 31.625 0 45.961 7.768 31.625 0 45.961-7.768 31.625 0 45.961 7.768 31.625 0 45.961c-2.88 5.316-6.963 10.074-11.606 13.694 33.407-15.696 56.541-49.642 56.541-88.996v-161.257c0-28.436-19.348-55.317-40.521-73.751z" fill="#f90"/><g><path d="m448.908 384.031c-2.788 0-5.466-1.562-6.76-4.24-1.801-3.73-.237-8.214 3.492-10.015 15.159-7.321 27.982-18.7 37.083-32.905 9.34-14.581 14.277-31.486 14.277-48.889v-161.259c0-21.772-13.341-46.16-36.602-66.909-3.092-2.757-3.362-7.498-.604-10.589 2.757-3.09 7.499-3.361 10.589-.604 26.449 23.592 41.617 52.059 41.617 78.102v161.258c0 20.276-5.757 39.979-16.647 56.98-10.597 16.542-25.531 29.793-43.189 38.321-1.051.508-2.163.749-3.256.749z" fill="#f95116"/></g><path d="m459.565 133.478c-7.768-14.336-7.768-31.625 0-45.961 7.768-14.336 7.768-31.625 0-45.961-7.672-14.16-22.484-22.981-38.589-22.981h-122.76c33.806 0 66.454 12.216 91.93 34.398 21.173 18.433 33.317 45.315 33.317 73.75v161.258c0 54.28-44.003 98.283-98.283 98.283h95.797c16.105 0 30.916-8.82 38.589-22.98 7.768-14.336 7.768-31.625 0-45.961s-7.768-31.625 0-45.961 7.768-31.625 0-45.961-7.768-31.625 0-45.961c7.766-14.337 7.766-31.626-.001-45.962z" fill="#88f8d8"/><g><path d="m420.976 393.764h-85.797c-4.142 0-7.5-3.358-7.5-7.5s3.358-7.5 7.5-7.5h85.797c13.367 0 25.626-7.301 31.995-19.054 6.584-12.152 6.584-26.663-.001-38.815-9.009-16.627-9.009-36.48.001-53.107 6.584-12.152 6.584-26.663-.001-38.815-9.009-16.627-9.009-36.479 0-53.106 6.585-12.153 6.585-26.663 0-38.816-9.009-16.626-9.009-36.479 0-53.106 6.585-12.153 6.585-26.663.001-38.815-6.369-11.753-18.629-19.054-31.995-19.054h-118.76c-4.142 0-7.5-3.358-7.5-7.5s3.358-7.5 7.5-7.5h118.76c18.876 0 36.189 10.311 45.183 26.908 9.01 16.627 9.01 36.48 0 53.107-6.584 12.153-6.584 26.663 0 38.815 9.01 16.627 9.01 36.48 0 53.107-6.584 12.152-6.584 26.663 0 38.815 9.01 16.627 9.01 36.48 0 53.107-6.584 12.152-6.584 26.663 0 38.815 9.01 16.627 9.01 36.48 0 53.106-8.993 16.598-26.306 26.908-45.183 26.908z" fill="#007ea8"/></g><g><path d="m301.586 386.264v82.816c0 13.446-10.9 24.346-24.346 24.346h-40.639c-13.446 0-24.346-10.9-24.346-24.346s10.9-24.346 24.346-24.346h16.293v-58.47z" fill="#b98eff"/></g><g><path d="m188.278 386.264v82.816c0 13.446-10.9 24.346-24.346 24.346h-40.639c-13.446 0-24.346-10.9-24.346-24.346s10.9-24.346 24.346-24.346h16.293v-58.47z" fill="#b98eff"/></g><path d="m353.913 91.429c-16.158-14.005-37.237-22.481-60.299-22.481-23.004 0-44.036 8.434-60.178 22.377-10.353 8.943-25.557 8.943-35.91 0-16.142-13.943-37.174-22.377-60.178-22.377-23.062 0-44.141 8.476-60.299 22.481-11.423 9.901-17.834 24.388-17.834 39.505v152.288c0 29.089 23.581 52.67 52.67 52.67h207.192c29.089 0 52.67-23.581 52.67-52.67v-152.289c0-15.117-6.411-29.603-17.834-39.504z" fill="#ffd600"/><g><g><path d="m277.24 500.926h-40.639c-17.56 0-31.846-14.286-31.846-31.846s14.286-31.846 31.846-31.846h8.793v-46.97c0-4.142 3.358-7.5 7.5-7.5s7.5 3.358 7.5 7.5v54.47c0 4.142-3.358 7.5-7.5 7.5h-16.293c-9.289 0-16.846 7.557-16.846 16.846s7.557 16.846 16.846 16.846h40.639c9.289 0 16.846-7.557 16.846-16.846v-78.816c0-4.142 3.358-7.5 7.5-7.5s7.5 3.358 7.5 7.5v78.816c0 17.559-14.286 31.846-31.846 31.846z" fill="#6d00ca"/></g></g><g><g><path d="m163.932 500.926h-40.639c-17.56 0-31.846-14.286-31.846-31.846s14.286-31.846 31.846-31.846h8.793v-46.97c0-4.142 3.358-7.5 7.5-7.5s7.5 3.358 7.5 7.5v54.47c0 4.142-3.358 7.5-7.5 7.5h-16.293c-9.289 0-16.846 7.557-16.846 16.846s7.557 16.846 16.846 16.846h40.639c9.289 0 16.846-7.557 16.846-16.846v-78.816c0-4.142 3.358-7.5 7.5-7.5s7.5 3.358 7.5 7.5v78.816c0 17.559-14.286 31.846-31.846 31.846z" fill="#6d00ca"/></g></g><path d="m139.586 386.264h48.692v32.533h-48.692z" fill="#6d00ca"/><path d="m252.894 386.264h48.692v32.533h-48.692z" fill="#6d00ca"/><g><path d="m319.077 343.392h-207.192c-33.178 0-60.17-26.992-60.17-60.17v-152.289c0-17.458 7.443-33.923 20.421-45.172 18.089-15.679 41.249-24.313 65.211-24.313 23.9 0 47.013 8.595 65.081 24.201 7.563 6.533 18.542 6.534 26.104 0 18.067-15.606 41.18-24.201 65.081-24.201 23.963 0 47.123 8.635 65.211 24.313 12.979 11.25 20.422 27.714 20.422 45.172v152.289c.001 33.178-26.991 60.17-60.169 60.17zm-181.729-266.944c-20.354 0-40.024 7.333-55.387 20.648-9.689 8.398-15.246 20.732-15.246 33.837v152.289c0 24.907 20.263 45.17 45.17 45.17h207.192c24.907 0 45.17-20.263 45.17-45.17v-152.289c0-13.105-5.557-25.439-15.247-33.837-15.362-13.315-35.032-20.648-55.387-20.648-20.301 0-39.932 7.299-55.275 20.552-13.246 11.441-32.471 11.44-45.715 0-15.343-13.254-34.974-20.552-55.275-20.552z" fill="#f95116"/></g><g><path d="m325.179 393.764h-219.395c-58.329 0-105.784-47.454-105.784-105.783v-161.258c0-30.604 13.082-59.547 35.892-79.407 26.842-23.371 61.239-36.242 96.855-36.242 25.453 0 50.567 6.603 72.627 19.095l.169.096c6.216 3.528 13.66 3.529 19.895-.01l.176-.1c22.035-12.478 47.149-19.081 72.602-19.081 35.616 0 70.013 12.871 96.854 36.242 22.81 19.858 35.892 48.801 35.892 79.406v161.258c0 58.33-47.454 105.784-105.783 105.784zm-192.432-367.689c-31.995 0-62.894 11.562-87.005 32.554-19.537 17.01-30.742 41.83-30.742 68.094v161.257c0 50.058 40.726 90.783 90.784 90.783h219.396c50.058 0 90.783-40.725 90.783-90.783v-161.257c0-26.265-11.205-51.084-30.742-68.093-24.11-20.993-55.009-32.555-87.004-32.555-22.868 0-45.426 5.93-65.236 17.148l-.118.066c-10.89 6.184-23.871 6.184-34.743.01l-.111-.063c-19.837-11.231-42.395-17.161-65.262-17.161z" fill="#f95116"/></g><g><circle cx="281.198" cy="203.014" fill="#f95116" r="13.333"/><g><path d="m246.592 246.448h-56.463c-4.142 0-7.5-3.358-7.5-7.5s3.358-7.5 7.5-7.5h56.463c4.142 0 7.5 3.358 7.5 7.5s-3.358 7.5-7.5 7.5z" fill="#f95116"/></g><circle cx="155.523" cy="203.014" fill="#f95116" r="13.333"/></g></g></svg>