<svg id="Capa_1" enable-background="new 0 0 512 512" height="512" viewBox="0 0 512 512" width="512" xmlns="http://www.w3.org/2000/svg"><g><path d="m107.691 453.304v29.189c0 12.154 9.853 22.008 22.008 22.008h46.197c12.154 0 22.008-9.853 22.008-22.008v-29.189z" fill="#ffd600"/><path d="m404.309 453.304v29.189c0 12.154-9.853 22.008-22.008 22.008h-46.197c-12.154 0-22.008-9.853-22.008-22.008v-29.189z" fill="#ffd600"/><g><path d="m175.896 512h-46.197c-16.271 0-29.508-13.237-29.508-29.507v-26.189c0-4.142 3.357-7.5 7.5-7.5s7.5 3.358 7.5 7.5v26.189c0 8 6.508 14.507 14.508 14.507h46.197c7.999 0 14.507-6.508 14.507-14.507v-26.189c0-4.142 3.357-7.5 7.5-7.5s7.5 3.358 7.5 7.5v26.189c0 16.27-13.236 29.507-29.507 29.507z" fill="#f95116"/></g><g><path d="m382.301 512h-46.197c-16.271 0-29.508-13.237-29.508-29.507v-26.189c0-4.142 3.357-7.5 7.5-7.5s7.5 3.358 7.5 7.5v26.189c0 8 6.508 14.507 14.508 14.507h46.197c7.999 0 14.507-6.508 14.507-14.507v-26.189c0-4.142 3.357-7.5 7.5-7.5s7.5 3.358 7.5 7.5v26.189c0 16.27-13.236 29.507-29.507 29.507z" fill="#f95116"/></g><path d="m453.13 172.943v57.56h-394.261v-57.56c0-26.971 21.861-48.821 48.821-48.821h296.618c26.961 0 48.822 21.85 48.822 48.821z" fill="#ff9bff"/><path d="m107.691 124.122h296.618c11.775 0 22.576 4.169 31.009 11.111v-67.133c0-33.468-27.131-60.6-60.6-60.6h-237.436c-33.468 0-60.6 27.131-60.6 60.6v67.132c8.433-6.941 19.234-11.11 31.009-11.11z" fill="#ffd600"/><path d="m184.588 71.366h-39.381c-14.283 0-25.861 11.578-25.861 25.861v26.895h91.102v-26.895c0-14.282-11.578-25.861-25.86-25.861z" fill="#9448f5"/><path d="m327.412 71.366h39.381c14.283 0 25.861 11.578 25.861 25.861v26.895h-91.102v-26.895c-.001-14.282 11.577-25.861 25.86-25.861z" fill="#9448f5"/><g><path d="m435.317 139.732c-4.143 0-7.5-3.358-7.5-7.5v-64.132c0-29.279-23.82-53.1-53.1-53.1h-237.435c-29.279 0-53.1 23.821-53.1 53.1v64.132c0 4.142-3.357 7.5-7.5 7.5s-7.5-3.358-7.5-7.5v-64.132c0-37.55 30.55-68.1 68.1-68.1h237.436c37.55 0 68.1 30.55 68.1 68.1v64.132c-.001 4.143-3.359 7.5-7.501 7.5z" fill="#f95116"/></g><g><path d="m210.449 128.622c-4.143 0-7.5-3.358-7.5-7.5v-23.895c0-10.124-8.237-18.361-18.361-18.361h-39.381c-10.124 0-18.36 8.237-18.36 18.361v23.895c0 4.142-3.357 7.5-7.5 7.5s-7.5-3.358-7.5-7.5v-23.895c0-18.395 14.966-33.361 33.36-33.361h39.381c18.396 0 33.361 14.966 33.361 33.361v23.895c0 4.142-3.358 7.5-7.5 7.5z" fill="#6d00ca"/></g><g><path d="m392.654 128.622c-4.143 0-7.5-3.358-7.5-7.5v-23.895c0-10.124-8.237-18.361-18.361-18.361h-39.381c-10.124 0-18.36 8.237-18.36 18.361v23.895c0 4.142-3.357 7.5-7.5 7.5s-7.5-3.358-7.5-7.5v-23.895c0-18.395 14.966-33.361 33.36-33.361h39.381c18.396 0 33.361 14.966 33.361 33.361v23.895c0 4.142-3.358 7.5-7.5 7.5z" fill="#6d00ca"/></g><path d="m453.13 230.503v173.979c0 26.961-21.861 48.821-48.821 48.821h-296.618c-26.961 0-48.821-21.861-48.821-48.821v-173.979z" fill="#ff63ed"/><g fill="#b98eff"><path d="m119.346 230.503h273.307v162.324h-273.307z"/><circle cx="119.346" cy="177.312" r="22.486"/><circle cx="210.448" cy="177.312" r="22.486"/><circle cx="301.551" cy="177.312" r="22.486"/><circle cx="392.653" cy="177.312" r="22.486"/></g><circle cx="312.128" cy="301.573" fill="#6d00ca" r="11.909"/><g><path d="m281.216 341.17h-50.434c-4.143 0-7.5-3.358-7.5-7.5s3.357-7.5 7.5-7.5h50.434c4.143 0 7.5 3.358 7.5 7.5s-3.357 7.5-7.5 7.5z" fill="#6d00ca"/></g><circle cx="199.871" cy="301.573" fill="#6d00ca" r="11.909"/><g><path d="m392.654 400.327h-273.308c-4.143 0-7.5-3.358-7.5-7.5v-159.324c0-4.142 3.357-7.5 7.5-7.5s7.5 3.358 7.5 7.5v151.824h258.308v-151.824c0-4.142 3.357-7.5 7.5-7.5s7.5 3.358 7.5 7.5v159.324c0 4.142-3.358 7.5-7.5 7.5z" fill="#6d00ca"/></g><g><path d="m119.346 207.299c-16.534 0-29.986-13.452-29.986-29.986s13.452-29.986 29.986-29.986 29.986 13.452 29.986 29.986-13.452 29.986-29.986 29.986zm0-44.973c-8.264 0-14.986 6.723-14.986 14.986s6.723 14.986 14.986 14.986 14.986-6.723 14.986-14.986-6.722-14.986-14.986-14.986z" fill="#6d00ca"/></g><g><path d="m210.449 207.299c-16.534 0-29.986-13.452-29.986-29.986s13.452-29.986 29.986-29.986 29.986 13.452 29.986 29.986-13.452 29.986-29.986 29.986zm0-44.973c-8.264 0-14.986 6.723-14.986 14.986s6.723 14.986 14.986 14.986 14.986-6.723 14.986-14.986-6.723-14.986-14.986-14.986z" fill="#6d00ca"/></g><g><path d="m301.551 207.299c-16.534 0-29.986-13.452-29.986-29.986s13.452-29.986 29.986-29.986 29.986 13.452 29.986 29.986-13.452 29.986-29.986 29.986zm0-44.973c-8.264 0-14.986 6.723-14.986 14.986s6.723 14.986 14.986 14.986 14.986-6.723 14.986-14.986-6.722-14.986-14.986-14.986z" fill="#6d00ca"/></g><g><path d="m392.654 207.299c-16.534 0-29.986-13.452-29.986-29.986s13.452-29.986 29.986-29.986 29.986 13.452 29.986 29.986-13.452 29.986-29.986 29.986zm0-44.973c-8.264 0-14.986 6.723-14.986 14.986s6.723 14.986 14.986 14.986 14.986-6.723 14.986-14.986-6.723-14.986-14.986-14.986z" fill="#6d00ca"/></g><path d="m404.308 116.622h-296.617c-31.056 0-56.321 25.266-56.321 56.322v231.539c0 31.056 25.266 56.321 56.321 56.321h296.617c31.057 0 56.322-25.266 56.322-56.321 0-6.153 0-213.938 0-231.539 0-31.057-25.265-56.322-56.322-56.322zm-337.938 56.321c0-22.785 18.537-41.322 41.321-41.322h296.617c22.785 0 41.322 18.537 41.322 41.322v50.06h-379.26zm379.26 231.539c0 22.785-18.537 41.321-41.322 41.321h-296.617c-22.784 0-41.321-18.537-41.321-41.321v-166.479h379.26z" fill="#e207b9"/></g></svg>