<svg id="Capa_1" enable-background="new 0 0 512 512" height="512" viewBox="0 0 512 512" width="512" xmlns="http://www.w3.org/2000/svg"><g><g><path d="m341.997 407.549v72.593c0 13.452-10.905 24.358-24.358 24.358h-40.659c-13.452 0-24.358-10.905-24.358-24.358s10.905-24.358 24.358-24.358h16.301v-48.235z" fill="#88f8d8"/></g><g><path d="m228.634 407.549v72.593c0 13.452-10.905 24.358-24.358 24.358h-40.659c-13.452 0-24.358-10.905-24.358-24.358s10.905-24.358 24.358-24.358h16.301v-48.235z" fill="#88f8d8"/></g><g><g><path d="m317.64 512h-40.659c-17.566 0-31.857-14.291-31.857-31.858s14.291-31.858 31.857-31.858h8.801v-37.735c0-4.142 3.357-7.5 7.5-7.5s7.5 3.358 7.5 7.5v45.235c0 4.142-3.357 7.5-7.5 7.5h-16.301c-9.295 0-16.857 7.562-16.857 16.858s7.562 16.858 16.857 16.858h40.659c9.295 0 16.857-7.562 16.857-16.858v-69.593c0-4.142 3.357-7.5 7.5-7.5s7.5 3.358 7.5 7.5v69.593c0 17.567-14.291 31.858-31.857 31.858z" fill="#007ea8"/></g></g><g><g><path d="m204.276 512h-40.658c-17.566 0-31.858-14.291-31.858-31.858s14.292-31.858 31.858-31.858h8.801v-37.735c0-4.142 3.357-7.5 7.5-7.5s7.5 3.358 7.5 7.5v45.235c0 4.142-3.357 7.5-7.5 7.5h-16.301c-9.296 0-16.858 7.562-16.858 16.858s7.562 16.858 16.858 16.858h40.658c9.296 0 16.858-7.562 16.858-16.858v-69.593c0-4.142 3.357-7.5 7.5-7.5s7.5 3.358 7.5 7.5v69.593c0 17.567-14.292 31.858-31.858 31.858z" fill="#007ea8"/></g></g><path d="m179.919 407.549h48.715v32.549h-48.715z" fill="#007ea8"/><path d="m293.282 407.549h48.715v32.549h-48.715z" fill="#007ea8"/><path d="m334.147 9.734-232.304 89.502h277.079v-58.769c0-23.121-23.2-39.045-44.775-30.733z" fill="#ff9bff"/><path d="m377.222 99.236h-275.379v275.379c0 18.189 14.745 32.935 32.935 32.935h242.444c18.189 0 32.935-14.745 32.935-32.935v-242.444c0-18.19-14.746-32.935-32.935-32.935z" fill="#ff63ed"/><circle cx="303.672" cy="300.376" fill="#e207b9" r="10.115"/><g><path d="m277.418 335.138h-42.837c-4.143 0-7.5-3.358-7.5-7.5s3.357-7.5 7.5-7.5h42.837c4.143 0 7.5 3.358 7.5 7.5s-3.357 7.5-7.5 7.5z" fill="#e207b9"/></g><g fill="#e207b9"><circle cx="208.328" cy="300.376" r="10.115"/><path d="m386.422 92.805v-52.338c0-28.368-28.512-47.925-54.971-37.731l-232.304 89.502c-4.93 1.916-4.771 6.92-4.804 7.02v275.357c0 22.296 18.139 40.434 40.434 40.434h242.444c22.296 0 40.434-18.139 40.434-40.434v-242.444c.001-19.131-13.357-35.189-31.233-39.366zm-49.579-76.072c16.668-6.421 34.579 5.833 34.579 23.734v51.269h-229.251zm65.813 357.882c0 14.025-11.41 25.435-25.435 25.435h-242.443c-14.024 0-25.434-11.41-25.434-25.435v-267.879h267.878c14.024 0 25.435 11.41 25.435 25.434v242.445z"/><g><path d="m308.378 154.509c-.025 0-.05 0-.074 0-4.143.04-7.468 3.43-7.428 7.572l.265 27.301-21.781-31.541c-1.865-2.701-5.267-3.874-8.404-2.898-3.133.977-5.268 3.878-5.268 7.16v50.8c0 4.142 3.357 7.5 7.5 7.5s7.5-3.358 7.5-7.5v-26.741l20.679 29.944c2.159 3.119 5.777 4.44 9.22 3.365 3.502-1.094 5.766-4.345 5.766-8.355l-.476-49.18c-.041-4.117-3.39-7.427-7.499-7.427z"/><path d="m188.641 161.435c-.782-3.848-4.067-6.69-7.987-6.912-3.943-.225-7.506 2.232-8.717 5.968-.027.085-.054.171-.078.257l-8.041 28.208-8.344-28.282c-.026-.09-.055-.18-.085-.269-1.252-3.723-4.863-6.133-8.782-5.873-3.918.265-7.171 3.143-7.926 7.081l-8.946 49.562c-.735 4.076 1.973 7.977 6.049 8.713 4.074.734 7.977-1.972 8.713-6.049l4.185-23.182 6.958 23.586c.026.09.055.18.085.27 1.188 3.53 4.478 5.893 8.198 5.892h.048c3.739-.021 7.027-2.424 8.181-5.982.027-.085.054-.171.078-.257l6.716-23.56 4.456 23.31c.777 4.07 4.713 6.735 8.774 5.959 4.068-.778 6.736-4.706 5.958-8.775z"/><path d="m240.748 169.973c4.143 0 7.5-3.358 7.5-7.5s-3.357-7.5-7.5-7.5h-21.25c-4.143 0-7.5 3.358-7.5 7.5v50.431c0 4.142 3.357 7.5 7.5 7.5h21.25c4.143 0 7.5-3.358 7.5-7.5s-3.357-7.5-7.5-7.5h-13.75v-10.215h12.183c4.143 0 7.5-3.358 7.5-7.5s-3.357-7.5-7.5-7.5h-12.183v-10.215h13.75z"/><path d="m374.884 154.509c-4.143 0-7.5 3.358-7.5 7.5v34.984c0 2.243-.649 4.863-5.468 7.289-2.939 1.481-7.187 1.655-10.376-.382-3.765-2.406-4.521-4.412-4.521-6.87v-35.021c0-4.142-3.357-7.5-7.5-7.5s-7.5 3.358-7.5 7.5v35.021c0 13.692 12.341 23.356 24.855 23.373h.038c12.637 0 25.472-9.338 25.472-23.411v-34.984c0-4.141-3.358-7.499-7.5-7.499z"/></g></g></g></svg>