<svg id="Capa_1" enable-background="new 0 0 512 512" height="512" viewBox="0 0 512 512" width="512" xmlns="http://www.w3.org/2000/svg"><g><path d="m327.623 68.413-259.21 259.21c-17.514 17.514-17.514 45.909 0 63.423l52.541 52.541c17.514 17.514 45.909 17.514 63.423 0l259.21-259.21c17.514-17.514 17.514-45.909 0-63.423l-52.541-52.541c-17.514-17.513-45.909-17.514-63.423 0z" fill="#ff63ed"/><path d="m68.368 323.384c.87.555 1.712 1.142 2.539 1.745l13.03-13.03 37.412-37.412 153.338-153.338 37.412-37.412 13.029-13.029c-.603-.827-1.189-1.669-1.745-2.539l-.059-.093c-16.022-25.092-50.38-30.524-73.361-11.598l-.063.052c-13.915 11.459-32.951 14.47-49.724 7.865-27.728-10.92-58.759 4.893-66.219 33.744l-.001.002c-4.516 17.463-18.153 31.1-35.615 35.616l-.003.001c-28.852 7.461-44.664 38.492-33.744 66.22 6.606 16.773 3.595 35.809-7.865 49.724l-.052.063c-18.925 22.981-13.493 57.339 11.598 73.361z" fill="#ffff6f"/><path d="m443.631 188.616c-.87-.555-1.712-1.141-2.539-1.745l-13.03 13.03-37.412 37.412-153.337 153.338-37.413 37.412-13.029 13.029c.603.827 1.189 1.67 1.745 2.539l.059.093c16.022 25.092 50.38 30.524 73.361 11.598l.063-.052c13.915-11.459 32.951-14.47 49.724-7.865 27.728 10.92 58.759-4.893 66.219-33.744l.001-.002c4.516-17.463 18.153-31.1 35.615-35.616l.002-.001c28.852-7.461 44.664-38.492 33.744-66.22-6.606-16.773-3.595-35.808 7.865-49.724l.052-.063c18.925-22.981 13.493-57.339-11.598-73.361z" fill="#ffff6f"/><g><path d="m64.339 329.711c-.264-.263-21.508-12.27-25.778-39.286-2.551-16.134 1.942-32.62 12.326-45.229 9.772-11.869 12.331-28.042 6.727-42.271-5.992-15.214-5.17-32.296 2.254-46.865 7.415-14.551 20.729-25.246 36.534-29.35.02-.005.04-.011.06-.016 14.79-3.824 26.358-15.374 30.211-30.151.007-.027.014-.055.021-.082 4.093-15.831 14.796-29.168 29.366-36.592 14.568-7.424 31.649-8.245 46.863-2.254 14.233 5.606 30.403 3.046 42.208-6.675 12.671-10.436 29.157-14.928 45.293-12.378 16.134 2.551 30.431 11.91 39.222 25.678l.069.108c2.22 3.497 1.185 8.132-2.312 10.353s-8.133 1.186-10.354-2.312l-.059-.092c-6.471-10.135-17.012-17.036-28.909-18.917-11.903-1.882-24.055 1.432-33.352 9.089-16.072 13.236-38.005 16.706-57.304 9.106-11.22-4.418-23.813-3.813-34.555 1.661-10.718 5.461-18.599 15.263-21.633 26.9-.007.028-.014.056-.021.084-5.191 20.074-20.876 35.773-40.942 40.984-.021.005-.041.011-.061.016-11.673 3.018-21.507 10.91-26.981 21.653s-6.08 23.338-1.661 34.557c7.599 19.297 4.13 41.23-9.054 57.24-7.709 9.361-11.022 21.517-9.142 33.414 1.881 11.897 8.782 22.438 18.934 28.921l.085.054c3.494 2.225 4.523 6.862 2.298 10.356-2.228 3.502-6.867 4.516-10.353 2.296z" fill="#f95116"/></g><g><path d="m221.575 473.439c-16.134-2.551-30.431-11.91-39.222-25.677l-.049-.077c-2.239-3.486-1.228-8.126 2.258-10.364 3.488-2.238 8.127-1.228 10.364 2.259l.06.093c6.493 10.168 17.034 17.069 28.932 18.949 11.899 1.882 24.052-1.432 33.35-9.088 16.073-13.237 38.004-16.707 57.304-9.106 11.219 4.419 23.814 3.813 34.556-1.662 10.742-5.474 18.635-15.309 21.654-26.981.006-.025.013-.05.02-.076 5.215-20.058 20.912-35.736 40.981-40.926 11.675-3.019 21.509-10.911 26.984-21.654 5.474-10.742 6.08-23.337 1.661-34.556-7.6-19.297-4.131-41.231 9.055-57.241 7.708-9.361 11.021-21.517 9.14-33.414s-8.782-22.438-18.934-28.92l-.109-.07c-3.486-2.238-4.497-6.879-2.258-10.364 2.239-3.486 6.879-4.496 10.364-2.259l.093.06c13.751 8.781 23.111 23.076 25.662 39.21 2.551 16.135-1.942 32.62-12.325 45.23-9.774 11.869-12.333 28.042-6.728 42.27 5.992 15.214 5.17 32.296-2.254 46.865s-20.762 25.272-36.592 29.366c-14.818 3.832-26.402 15.416-30.234 30.232-.006.023-.012.046-.018.069-4.107 15.802-14.8 29.111-29.349 36.525-14.568 7.423-31.65 8.245-46.863 2.254-14.232-5.606-30.402-3.046-42.208 6.675-12.684 10.443-29.169 14.926-45.295 12.378z" fill="#f95116"/></g><path d="m134.17 269.377h52.909v163.997h-52.909z" fill="#9448f5" transform="matrix(.707 -.707 .707 .707 -201.414 216.494)"/><path d="m324.92 78.626h52.909v163.997h-52.909z" fill="#9448f5" transform="matrix(-.707 .707 -.707 -.707 713.414 25.744)"/><path d="m72.003 394.636c-20.462 7.685-41.359 20.605-50.835 30.081-18.257 18.257-18.257 47.858 0 66.115s47.858 18.257 66.115 0c9.476-9.476 22.396-30.373 30.081-50.835z" fill="#ff9bff"/><path d="m424.717 21.168c-9.476 9.476-22.396 30.373-30.081 50.835l45.361 45.361c20.462-7.685 41.359-20.605 50.835-30.081 18.257-18.257 18.257-47.858 0-66.115-18.257-18.257-47.858-18.257-66.115 0z" fill="#ff9bff"/><circle cx="285.571" cy="213.461" fill="#e207b9" r="10.819"/><g><path d="m248.631 291.637c-2.929-2.929-2.929-7.678 0-10.608l32.398-32.397c2.931-2.929 7.679-2.929 10.608 0s2.929 7.678 0 10.608l-32.398 32.397c-2.929 2.928-7.678 2.93-10.608 0z" fill="#e207b9"/></g><g fill="#e207b9"><circle cx="213.461" cy="285.571" r="10.819"/><path d="m496.136 15.864c-21.153-21.153-55.573-21.152-76.723 0-9.044 9.043-19.826 26.157-27.55 43.258-20.531-16.311-50.567-14.99-69.544 3.987l-14.524 14.524c-2.929 2.929-2.929 7.679 0 10.608 2.93 2.929 7.678 2.929 10.608 0l14.524-14.524c14.56-14.561 38.254-14.561 52.814 0 0 0 47.514 47.513 52.541 52.541 14.561 14.561 14.561 38.254.001 52.815l-14.524 14.523c-2.93 2.929-2.93 7.678-.001 10.608 2.928 2.928 7.678 2.931 10.608 0l14.525-14.523c18.976-18.977 20.297-49.014 3.986-69.545 17.1-7.723 34.214-18.505 43.258-27.55 21.153-21.152 21.153-55.57.001-76.722zm-54.312 92.72-38.408-38.408c7.791-18.92 19.209-36.308 26.604-43.704h.001c15.301-15.301 40.203-15.304 55.507 0 15.303 15.303 15.303 40.203 0 55.507-7.396 7.396-24.785 18.814-43.704 26.605z"/><path d="m204.205 423.76c-2.929-2.929-7.678-2.929-10.607 0l-14.525 14.523c-14.594 14.595-38.218 14.597-52.814 0 0 0-47.514-47.513-52.541-52.541-14.561-14.561-14.561-38.254 0-52.815l14.524-14.524c2.929-2.929 2.929-7.678 0-10.608-2.93-2.929-7.679-2.929-10.608 0l-14.525 14.525c-18.976 18.977-20.297 49.013-3.986 69.544-17.1 7.722-34.213 18.505-43.259 27.55-21.152 21.152-21.152 55.57 0 76.723 21.152 21.152 55.568 21.152 76.723 0 9.043-9.045 19.825-26.157 27.548-43.256 20.213 16.099 50.234 15.322 69.545-3.989l14.524-14.523c2.93-2.931 2.93-7.68.001-10.609zm-122.225 61.769c-15.303 15.302-40.204 15.303-55.508 0s-15.303-40.204-.001-55.508c7.397-7.396 24.787-18.815 43.704-26.605l38.408 38.408c-7.79 18.919-19.208 36.308-26.603 43.705z"/></g><g><path d="m238.313 397.152c-1.919 0-3.839-.732-5.304-2.197-2.929-2.929-2.929-7.678 0-10.608l151.337-151.338c2.93-2.929 7.678-2.929 10.608 0 2.929 2.929 2.929 7.678 0 10.607l-151.337 151.339c-1.465 1.464-3.385 2.197-5.304 2.197z" fill="#e207b9"/></g><g><path d="m122.349 281.188c-1.92 0-3.839-.732-5.304-2.197-2.929-2.929-2.929-7.678 0-10.608l151.338-151.337c2.931-2.93 7.679-2.929 10.608 0s2.929 7.679 0 10.608l-151.338 151.337c-1.465 1.464-3.385 2.197-5.304 2.197z" fill="#e207b9"/></g><g><path d="m199.901 435.564c-1.989 0-3.897-.79-5.304-2.197l-115.964-115.964c-2.929-2.929-2.929-7.679 0-10.608l37.412-37.412c1.407-1.407 3.315-2.197 5.304-2.197s3.897.79 5.304 2.197l115.964 115.964c2.929 2.929 2.929 7.679 0 10.608l-37.412 37.412c-1.407 1.407-3.315 2.197-5.304 2.197zm-105.357-123.464 105.356 105.356 26.804-26.805-105.355-105.356z" fill="#6d00ca"/></g><g><path d="m390.65 244.814c-1.92 0-3.839-.732-5.304-2.197l-115.963-115.964c-2.929-2.929-2.929-7.679 0-10.608l37.412-37.412c1.407-1.407 3.315-2.197 5.304-2.197s3.897.79 5.304 2.197l115.964 115.963c1.406 1.406 2.197 3.314 2.197 5.304s-.79 3.897-2.197 5.304l-37.413 37.412c-1.465 1.465-3.385 2.198-5.304 2.198zm-105.355-123.464 105.355 105.355 26.805-26.805-105.356-105.355z" fill="#6d00ca"/></g></g></svg>