<svg id="Capa_1" enable-background="new 0 0 512 512" height="512" viewBox="0 0 512 512" width="512" xmlns="http://www.w3.org/2000/svg"><g><path d="m190.546 119.405c24.631 0 47.323 8.287 65.454 22.218 18.13-13.93 40.822-22.218 65.454-22.218 14.649 0 28.612 2.934 41.339 8.239.483-4.137.74-8.344.74-12.611-.001-59.389-48.145-107.533-107.534-107.533s-107.532 48.144-107.532 107.533c0 4.267.257 8.474.74 12.611 12.727-5.305 26.689-8.239 41.339-8.239z" fill="#b98eff"/><circle cx="300.057" cy="62.805" fill="#6d00ca" r="9.348"/><g><path d="m275.793 95.5h-39.588c-4.142 0-7.5-3.358-7.5-7.5s3.358-7.5 7.5-7.5h39.588c4.142 0 7.5 3.358 7.5 7.5s-3.358 7.5-7.5 7.5z" fill="#6d00ca"/></g><circle cx="211.942" cy="62.805" fill="#6d00ca" r="9.348"/><g><path d="m149.112 134.388c-3.775 0-7.024-2.842-7.446-6.681-.464-4.223-.699-8.487-.699-12.673 0-63.43 51.603-115.034 115.032-115.034 63.43 0 115.033 51.604 115.033 115.033 0 4.175-.234 8.427-.695 12.636-.451 4.118-4.151 7.089-8.272 6.639-4.117-.451-7.09-4.155-6.639-8.272.402-3.669.606-7.371.606-11.002 0-55.159-44.874-100.034-100.033-100.034-55.158 0-100.033 44.875-100.033 100.033 0 3.642.205 7.354.609 11.035.453 4.118-2.519 7.822-6.636 8.274-.277.031-.554.046-.827.046z" fill="#6d00ca"/></g><path d="m298.078 226.938c0 5.416-.401 10.739-1.174 15.94h130.904c.773-5.202 1.178-10.523 1.178-15.94 0-59.389-48.144-107.533-107.533-107.533-24.631 0-47.323 8.287-65.454 22.218 25.584 19.657 42.079 50.557 42.079 85.315z" fill="#ffd600"/><g><path d="m428.096 248.376c-.321 0-.646-.021-.973-.063-4.108-.533-7.006-4.294-6.474-8.402.556-4.287.837-8.651.837-12.974 0-55.158-44.875-100.033-100.033-100.033-21.516 0-42.018 6.731-59.29 19.465-3.334 2.458-8.029 1.748-10.487-1.586s-1.748-8.029 1.586-10.487c19.87-14.649 43.45-22.392 68.191-22.392 63.429 0 115.033 51.604 115.033 115.033 0 4.964-.324 9.978-.961 14.901-.491 3.782-3.716 6.538-7.429 6.538z" fill="#f95116"/></g><path d="m296.901 242.877c.773-5.202 1.178-10.523 1.178-15.94 0-59.389-48.144-107.533-107.533-107.533s-107.533 48.144-107.533 107.533c0 5.417.405 10.738 1.178 15.94z" fill="#ff63ed"/><path d="m302.354 458.072h-22.369v-67.385c-7.872.895-15.874 1.359-23.986 1.359s-16.114-.463-23.986-1.359v67.385h-22.369c-18.328 0-33.185 14.857-33.185 33.185 0 7.314 5.929 13.243 13.243 13.243h132.593c7.314 0 13.243-5.929 13.243-13.243.001-18.328-14.856-33.185-33.184-33.185z" fill="#88f8d8"/><path d="m430.469 242.877h-348.939c-13.385 0-22.287 13.84-16.746 26.025 33.031 72.636 106.22 123.143 191.216 123.143s158.185-50.508 191.216-123.143c5.54-12.184-3.362-26.025-16.747-26.025z" fill="#88f8d8"/><g><path d="m84.182 249.471c-3.654 0-6.855-1.767-7.409-5.491-.836-5.622-1.26-11.356-1.26-17.043 0-63.429 51.604-115.033 115.033-115.033s115.033 51.604 115.033 115.033c0 5.686-.424 11.419-1.259 17.042-.609 4.097-4.37 6.56-8.47 5.947-4.097-.609-6.976-4.055-6.367-8.152.728-4.895 1.096-9.887 1.096-14.837 0-55.158-44.875-100.033-100.033-100.033s-100.033 44.875-100.033 100.034c0 4.951.369 9.943 1.097 14.837.609 4.097-2.218 7.005-6.315 7.614-.375.055-.746.082-1.113.082z" fill="#e207b9"/></g><path d="m430.469 235.377h-348.939c-18.844 0-31.366 19.493-23.573 36.629 17.053 37.5 44.312 69.304 78.831 91.975 26.602 17.471 56.473 28.757 87.726 33.295v53.295h-14.869c-22.434 0-40.685 18.251-40.685 40.685 0 11.438 9.305 20.743 20.743 20.743h132.593c11.438 0 20.743-9.305 20.743-20.743 0-22.434-18.251-40.685-40.685-40.685h-14.869v-53.295c31.253-4.538 61.124-15.824 87.726-33.295 34.519-22.671 61.778-54.475 78.831-91.975 7.801-17.152-4.747-36.629-23.573-36.629zm-128.115 230.195c14.163 0 25.685 11.522 25.685 25.685 0 3.167-2.576 5.743-5.743 5.743h-132.593c-3.167 0-5.743-2.576-5.743-5.743 0-14.163 11.522-25.685 25.685-25.685h22.369c4.142 0 7.5-3.358 7.5-7.5v-59.146c5.414.406 11.014.62 16.485.62 5.552 0 10.998-.214 16.486-.62v59.146c0 4.142 3.358 7.5 7.5 7.5zm138.034-199.774c-15.878 34.917-41.263 64.532-73.411 85.646-66.677 43.79-154.203 44.496-221.955 0-32.148-21.114-57.533-50.729-73.411-85.646-3.284-7.221 1.959-15.42 9.918-15.42h348.94c7.938-.001 13.212 8.179 9.919 15.42z" fill="#007ea8"/></g></svg>