<svg id="Capa_1" enable-background="new 0 0 512 512" height="512" viewBox="0 0 512 512" width="512" xmlns="http://www.w3.org/2000/svg"><g><path d="m452.754 59.277c3.746-14.441-.424-30.512-12.535-41.312-15.383-13.718-38.936-13.883-54.5-.371-14.141 12.277-17.857 31.759-10.858 47.782 4.278 9.795 2.319 21.187-5.239 28.745l-53.273 53.273c.781.653 1.539 1.343 2.271 2.075l43.943 43.943c.732.732 1.422 1.49 2.075 2.271l53.274-53.274c7.56-7.56 18.952-9.514 28.75-5.237 16.011 6.99 35.477 3.288 47.758-10.839 13.526-15.558 13.373-39.119-.343-54.51-10.801-12.119-26.877-16.293-41.323-12.546z" fill="#ffff6f"/><path d="m273.642 146.405c-47.382 36.051-92.707 37.211-137.602 49.834 4.704 1.684 9.077 4.396 12.743 8.062l47.189 47.189c6.341 6.341 9.508 14.654 9.508 22.959 0 8.551-3.353 17.086-10.051 23.49-12.83 12.266-33.288 11.571-45.839-.98l-26.163-26.163c-4.493-4.493-10.378-6.74-16.263-6.74-5.986.007-11.957 2.319-16.477 6.957-8.842 9.073-8.38 23.715.578 32.673l6.448 6.448c6.341 6.341 9.508 14.654 9.508 22.959-.007 8.313-3.174 16.625-9.516 22.966-12.675 12.675-33.236 12.683-45.918 0l-30.607-30.607c-3.88-3.88-6.657-8.53-8.287-13.519-13.948 51.034-.882 107.908 39.206 147.997 59.481 59.481 155.92 59.481 215.401 0 73.067-73.067 39.577-144.592 98.125-221.541 10.378-13.639 9.054-32.859-3.064-44.978l-43.943-43.943c-12.117-12.117-31.337-13.44-44.976-3.063z" fill="#f90"/><path d="m112.495 196.482c-21.699 8.4-43.595 21.107-65.467 42.978-14.183 14.183-25.134 30.394-32.844 47.71-5.79 13.003-3.066 28.219 6.999 38.284l30.607 30.607c12.683 12.683 33.243 12.675 45.918 0 6.341-6.341 9.508-14.654 9.516-22.966 0-8.305-3.167-16.618-9.508-22.959l-6.448-6.448c-8.958-8.958-9.42-23.6-.578-32.673 4.52-4.638 10.491-6.949 16.477-6.957 5.885 0 11.769 2.247 16.263 6.74l26.163 26.163c12.551 12.551 33.01 13.246 45.839.98 6.698-6.404 10.051-14.939 10.051-23.49 0-8.305-3.167-16.618-9.508-22.959l-47.189-47.189c-9.513-9.511-23.75-12.676-36.291-7.821z" fill="#88f8d8"/><circle cx="220.968" cy="337.66" fill="#f95116" r="11.363"/><g><path d="m187.741 421.696c-1.919 0-3.839-.732-5.303-2.197-2.929-2.929-2.929-7.677 0-10.606l34.027-34.026c2.929-2.929 7.677-2.93 10.606 0 2.929 2.929 2.929 7.677 0 10.606l-34.027 34.026c-1.464 1.465-3.384 2.197-5.303 2.197z" fill="#f95116"/></g><circle cx="145.231" cy="413.396" fill="#f95116" r="11.363"/><path d="m499.675 66.834c-9.826-11.026-23.789-16.867-38.105-16.372.489-14.323-5.342-28.27-16.36-38.094-18.254-16.278-45.944-16.466-64.408-.437-16.249 14.108-21.398 36.792-12.814 56.448 3.097 7.091 1.657 15.114-3.67 20.44l-48.847 48.848c-14.294-8.329-32.723-7.614-46.372 2.771-34.153 25.985-66.48 32.985-100.705 40.394-10.893 2.359-22.158 4.798-33.288 7.882-3.992 1.106-6.331 5.238-5.224 9.23 1.106 3.992 5.241 6.329 9.23 5.224 10.717-2.97 21.768-5.363 32.456-7.677 34.32-7.43 69.809-15.114 106.614-43.117 10.599-8.063 25.702-7.032 35.134 2.399l43.941 43.941c.005.004.009.01.013.014 9.42 9.432 10.447 24.528 2.387 35.121-28.001 36.802-35.682 72.288-43.111 106.606-8.5 39.265-16.527 76.352-54.348 114.173-56.462 56.461-148.333 56.462-204.796 0-18.178-18.178-31.207-40.854-37.678-65.576-6.283-24.005-6.303-49.389-.059-73.406 1.042-4.009-1.363-8.103-5.371-9.146-4.011-1.043-8.103 1.363-9.146 5.371-6.889 26.495-6.866 54.497.065 80.979 7.145 27.295 21.523 52.325 41.582 72.384 31.155 31.155 72.079 46.733 113.003 46.733s81.849-15.578 113.004-46.733c40.941-40.941 49.818-81.948 58.402-121.606 7.408-34.222 14.405-66.547 40.388-100.696 10.385-13.649 11.1-32.078 2.771-46.372l48.847-48.847c5.325-5.325 13.352-6.765 20.447-3.667 19.642 8.575 42.313 3.433 56.418-12.792 16.052-18.459 15.878-46.154-.4-64.42zm-10.916 54.579c-9.782 11.252-25.493 14.825-39.097 8.886-12.79-5.584-27.336-2.912-37.055 6.807l-47.873 47.873-37.682-37.682 47.872-47.872c9.721-9.721 12.394-24.263 6.809-37.05-5.945-13.613-2.368-29.333 8.902-39.118 12.782-11.097 31.952-10.966 44.591.306 9.54 8.507 13.474 21.471 10.268 33.831-.667 2.573.077 5.307 1.956 7.186 1.881 1.88 4.62 2.624 7.186 1.956 12.369-3.208 25.333.73 33.839 10.276 11.273 12.648 11.394 31.822.284 44.601z" fill="#f95116"/><g><path d="m46.486 361.363-30.607-30.607c-12.131-12.131-15.566-30.873-8.547-46.637 8.294-18.625 19.865-35.434 34.393-49.962 20.395-20.395 42.022-34.589 68.062-44.669 15.236-5.898 32.623-2.165 44.299 9.51l47.189 47.189c15.69 15.69 15.761 41.471-.663 57.172-15.567 14.885-40.834 14.394-56.325-1.097l-26.162-26.162c-6.134-6.133-16.038-6.036-22.066.148-5.885 6.039-5.656 15.969.511 22.136l6.448 6.448c15.651 15.652 15.582 40.943-.007 56.532-15.603 15.602-40.904 15.62-56.525-.001zm78.095-159.636c-3.161 0-6.338.572-9.379 1.749-24.026 9.3-44.004 22.42-62.871 41.287-13.223 13.224-23.753 28.518-31.296 45.457-4.581 10.289-2.442 22.037 5.451 29.93l30.607 30.607c9.757 9.756 25.552 9.76 35.312 0 9.722-9.721 9.804-25.522.007-35.319l-6.447-6.448c-11.94-11.94-12.23-31.324-.647-43.21 11.768-12.075 31.276-12.424 43.414-.286l26.162 26.163c9.771 9.771 25.631 10.158 35.354.862 10.206-9.757 10.291-25.856.422-35.725l-47.189-47.189c-5.135-5.134-11.977-7.878-18.9-7.878z" fill="#007ea8"/></g></g></svg>