<svg id="Capa_1" enable-background="new 0 0 512 512" height="512" viewBox="0 0 512 512" width="512" xmlns="http://www.w3.org/2000/svg"><g><path d="m382.616 196.673h-253.231c-16.528 0-29.926 13.398-29.926 29.926 0 16.528 13.398 29.926 29.926 29.926h253.231c16.528 0 29.926-13.398 29.926-29.926 0-16.528-13.398-29.926-29.926-29.926z" fill="#a4bcff"/><path d="m227.553 65.559c9.178-1.936 18.692-2.963 28.447-2.963 9.755 0 19.269 1.027 28.448 2.963l7.232-17.724c5.269-12.913-4.229-27.048-18.176-27.048h-35.008c-13.947 0-23.445 14.135-18.176 27.048z" fill="#a4bcff"/><path d="m129.385 196.673h253.231c3.704 0 7.249.677 10.523 1.908-.629-75.208-61.781-135.985-137.138-135.985-75.357 0-136.509 60.776-137.138 135.985 3.273-1.231 6.818-1.908 10.522-1.908z" fill="#7181ff"/><circle cx="302.577" cy="132.611" fill="#2115c2" r="9.883"/><g><path d="m276.927 166.747h-41.853c-4.143 0-7.5-3.358-7.5-7.5s3.357-7.5 7.5-7.5h41.853c4.143 0 7.5 3.358 7.5 7.5s-3.358 7.5-7.5 7.5z" fill="#2115c2"/></g><circle cx="209.424" cy="132.611" fill="#2115c2" r="9.883"/><path d="m400.512 193.737c-1.49-36.583-16.516-70.758-42.637-96.676-17.864-17.725-39.549-30.233-63.183-36.755l3.933-9.638c7.268-17.811-5.831-37.382-25.12-37.382h-35.009c-19.237 0-32.408 19.523-25.12 37.382l3.933 9.637c-23.634 6.522-45.32 19.03-63.183 36.755-26.121 25.919-41.147 60.093-42.637 96.676-11.626 6.357-19.53 18.703-19.53 32.862 0 20.113 15.731 35.845 35.814 36.699.108.005.216.007.324.007 3.995 0 7.316-2.459 7.487-6.488.176-4.139-3.036-7.636-7.175-7.812-12.028-.512-21.451-10.353-21.451-22.405 0-12.418 10.117-22.426 22.426-22.426h253.231c12.245 0 22.426 9.95 22.426 22.426 0 11.995-9.375 21.834-21.343 22.4-4.138.196-7.333 3.708-7.137 7.846.195 4.137 4.049 6.945 8.197 6.735 19.981-.945 35.283-16.963 35.283-36.981.001-14.159-7.903-26.505-19.529-32.862zm-173.247-148.736c-3.25-7.961 2.569-16.715 11.231-16.715h35.009c8.599 0 14.505 8.695 11.231 16.715l-4.915 12.045c-7.971-1.314-16.162-1.951-23.822-1.951-7.541 0-15.735.618-23.821 1.951zm-97.88 144.171c-.978 0-2.507.083-2.611.09 2.456-30.859 15.722-59.529 37.918-81.553 17.89-17.753 40.06-29.659 64.163-34.771.082-.015.164-.023.247-.041 17.625-3.718 36.173-3.718 53.8 0 .071.015.142.021.213.034 24.115 5.109 46.297 17.017 64.196 34.778 22.196 22.024 35.462 50.694 37.918 81.553-.105-.007-1.688-.09-2.611-.09z" fill="#2115c2"/><path d="m222.843 318.035h66.316v118.264h-66.316z" fill="#b98eff"/><path d="m307.038 436.299h-102.075c-22.718 0-41.135 18.417-41.135 41.135 0 7.61 6.169 13.779 13.779 13.779h156.788c7.61 0 13.779-6.169 13.779-13.779 0-22.718-18.417-41.135-41.136-41.135z" fill="#ff63ed"/><g><path d="m289.158 440.799c-4.143 0-7.5-3.358-7.5-7.5v-112.264c0-4.142 3.357-7.5 7.5-7.5s7.5 3.358 7.5 7.5v112.264c0 4.142-3.357 7.5-7.5 7.5z" fill="#6d00ca"/></g><g><path d="m222.843 440.799c-4.143 0-7.5-3.358-7.5-7.5v-112.264c0-4.142 3.357-7.5 7.5-7.5s7.5 3.358 7.5 7.5v112.264c0 4.142-3.358 7.5-7.5 7.5z" fill="#6d00ca"/></g><g><path d="m334.395 498.713h-156.789c-11.733 0-21.279-9.546-21.279-21.279 0-26.817 21.818-48.635 48.636-48.635h102.075c26.817 0 48.636 21.818 48.636 48.635 0 11.733-9.546 21.279-21.279 21.279zm-129.432-54.914c-18.547 0-33.636 15.089-33.636 33.635 0 3.462 2.816 6.279 6.279 6.279h156.788c3.463 0 6.279-2.817 6.279-6.279 0-18.546-15.089-33.635-33.636-33.635z" fill="#e207b9"/></g><path d="m473.745 256.525h-435.489c-16.986 0-30.755 13.77-30.755 30.755 0 16.986 13.77 30.755 30.755 30.755h435.489c16.986 0 30.755-13.77 30.755-30.755 0-16.986-13.769-30.755-30.755-30.755z" fill="#ff63ed"/><g><path d="m473.745 325.535h-435.489c-21.095 0-38.256-17.161-38.256-38.255s17.161-38.255 38.256-38.255h435.489c21.094 0 38.255 17.161 38.255 38.255s-17.161 38.255-38.255 38.255zm-435.489-61.511c-12.823 0-23.256 10.433-23.256 23.256s10.433 23.255 23.256 23.255h435.489c12.823 0 23.255-10.432 23.255-23.255s-10.432-23.255-23.255-23.255h-435.489z" fill="#e207b9"/></g></g></svg>