<svg id="Capa_1" enable-background="new 0 0 512 512" height="512" viewBox="0 0 512 512" width="512" xmlns="http://www.w3.org/2000/svg"><g><g><path d="m257.858 346.332v71.707c0 13.288-10.772 24.061-24.061 24.061h-40.163c-13.288 0-24.061-10.772-24.061-24.061 0-13.288 10.772-24.061 24.061-24.061h16.102v-47.646z" fill="#ff63ed"/></g><g><path d="m145.878 346.332v71.707c0 13.288-10.772 24.061-24.061 24.061h-40.162c-13.288 0-24.061-10.772-24.061-24.061 0-13.288 10.772-24.061 24.061-24.061h16.102v-47.646z" fill="#ff63ed"/></g><g><g><path d="m233.797 449.6h-40.162c-17.402 0-31.561-14.158-31.561-31.561s14.158-31.561 31.561-31.561h8.602v-37.146c0-4.142 3.357-7.5 7.5-7.5s7.5 3.358 7.5 7.5v44.646c0 4.142-3.357 7.5-7.5 7.5h-16.102c-9.132 0-16.561 7.429-16.561 16.561s7.429 16.561 16.561 16.561h40.162c9.132 0 16.561-7.429 16.561-16.561v-68.707c0-4.142 3.357-7.5 7.5-7.5s7.5 3.358 7.5 7.5v68.707c-.001 17.403-14.159 31.561-31.561 31.561z" fill="#e207b9"/></g></g><g><g><path d="m121.817 449.6h-40.163c-17.402 0-31.561-14.158-31.561-31.561s14.158-31.561 31.561-31.561h8.603v-37.146c0-4.142 3.357-7.5 7.5-7.5s7.5 3.358 7.5 7.5v44.646c0 4.142-3.357 7.5-7.5 7.5h-16.103c-9.132 0-16.561 7.429-16.561 16.561s7.429 16.561 16.561 16.561h40.163c9.132 0 16.561-7.429 16.561-16.561v-68.707c0-4.142 3.357-7.5 7.5-7.5s7.5 3.358 7.5 7.5v68.707c0 17.403-14.158 31.561-31.561 31.561z" fill="#e207b9"/></g></g><path d="m97.757 346.332h48.121v32.152h-48.121z" fill="#e207b9"/><path d="m209.737 346.332h48.121v32.152h-48.121z" fill="#e207b9"/><path d="m309.796 222.169h-272.776c-4.559 0-8.877-1.035-12.731-2.881v88.865c0 21.086 17.094 38.18 38.18 38.18h221.88c21.086 0 38.18-17.094 38.18-38.18v-88.865c-3.856 1.845-8.173 2.881-12.733 2.881z" fill="#9448f5"/><path d="m480.947 219.288h-158.419v88.865l31.579-20.336c21.717-13.986 47.002-21.423 72.833-21.423h54.008c13.008 0 23.553-10.545 23.553-23.553s-10.546-23.553-23.554-23.553z" fill="#b98eff"/><circle cx="225.586" cy="269.63" fill="#6d00ca" r="11.071"/><g><path d="m196.851 306.969h-46.885c-4.143 0-7.5-3.358-7.5-7.5s3.357-7.5 7.5-7.5h46.885c4.143 0 7.5 3.358 7.5 7.5s-3.358 7.5-7.5 7.5z" fill="#6d00ca"/></g><circle cx="121.23" cy="269.63" fill="#6d00ca" r="11.071"/><path d="m315.027 221.288v86.865c0 16.917-13.763 30.68-30.679 30.68h-221.88c-16.916 0-30.679-13.763-30.679-30.68v-86.865c0-4.142-3.357-7.5-7.5-7.5s-7.5 3.358-7.5 7.5v86.865c0 25.188 20.491 45.68 45.679 45.68h221.881c23.764 0 43.338-18.243 45.476-41.458l28.342-18.252c20.551-13.233 44.332-20.229 68.772-20.229h54.008c17.122 0 31.053-13.93 31.053-31.053s-13.931-31.053-31.053-31.053h-156.42zm165.92 37.605h-54.008c-27.327 0-53.917 7.821-76.894 22.617l-20.019 12.892v-67.614h150.92c8.852 0 16.053 7.201 16.053 16.053s-7.2 16.052-16.052 16.052z" fill="#6d00ca"/><path d="m309.796 163.128h-272.776c-16.304 0-29.52 13.217-29.52 29.52 0 16.304 13.217 29.52 29.52 29.52h272.776c16.304 0 29.52-13.217 29.52-29.52 0-16.303-13.216-29.52-29.52-29.52z" fill="#88f8d8"/><path d="m207.777 107.281v-3.013c0-18.981-15.387-34.369-34.369-34.369-18.981 0-34.369 15.387-34.369 34.369v3.013z" fill="#88f8d8"/><path d="m309.796 163.128c0-30.843-25.003-55.846-55.846-55.846h-161.083c-30.843 0-55.846 25.003-55.846 55.846z" fill="#b98eff"/><g><path d="m207.777 111.769c-4.143 0-7.5-3.358-7.5-7.5 0-14.815-12.054-26.869-26.869-26.869s-26.869 12.053-26.869 26.869c0 4.142-3.357 7.5-7.5 7.5s-7.5-3.358-7.5-7.5c0-23.086 18.782-41.869 41.869-41.869s41.869 18.782 41.869 41.869c0 4.142-3.357 7.5-7.5 7.5z" fill="#007ea8"/></g><g><path d="m309.783 169.56c-4.077 0-7.419-3.266-7.496-7.359-.49-26.147-22.174-47.419-48.337-47.419h-161.084c-26.129 0-47.813 21.244-48.337 47.355-.083 4.141-3.497 7.426-7.648 7.348-4.142-.083-7.432-3.508-7.348-7.649.334-16.649 7.07-32.249 18.968-43.924 11.914-11.692 27.67-18.131 44.365-18.131h161.084c16.709 0 32.475 6.449 44.393 18.158 11.902 11.694 18.63 27.313 18.942 43.98.077 4.142-3.217 7.562-7.358 7.639-.048.001-.096.002-.144.002z" fill="#6d00ca"/></g><g><path d="m309.796 229.669h-272.775c-20.414 0-37.021-16.608-37.021-37.021s16.607-37.02 37.021-37.02h272.775c20.413 0 37.021 16.607 37.021 37.02s-16.608 37.021-37.021 37.021zm-272.775-59.041c-12.143 0-22.021 9.878-22.021 22.02s9.878 22.021 22.021 22.021h272.775c12.143 0 22.021-9.878 22.021-22.021s-9.878-22.02-22.021-22.02z" fill="#007ea8"/></g></g></svg>