<svg id="Capa_1" enable-background="new 0 0 512 512" height="512" viewBox="0 0 512 512" width="512" xmlns="http://www.w3.org/2000/svg"><g><path d="m243.507 414.662h-40.825c-2.063 0-4.114-.1-6.145-.294v43.163h-15.717c-12.97 0-23.485 10.515-23.485 23.485s10.515 23.485 23.485 23.485h39.201c9.07 0 16.934-5.145 20.846-12.673-1.682-3.237-2.639-6.911-2.639-10.811 0-5.625 1.98-10.786 5.277-14.829v-51.526z" fill="#88f8d8"/><path d="m309.319 414.662h-31.888v42.869h-15.716c-12.97 0-23.485 10.515-23.485 23.485s10.515 23.485 23.485 23.485h39.201c12.97 0 23.485-10.515 23.485-23.485v-68.152c-4.885 1.177-9.941 1.798-15.082 1.798z" fill="#88f8d8"/><g fill="#007ea8"><path d="m324.4 409.364c-4.142 0-7.5 3.358-7.5 7.5v64.151c0 8.814-7.171 15.985-15.985 15.985h-39.201c-8.856 0-15.985-7.266-15.985-15.985 0-8.751 7.114-15.985 15.985-15.985h15.716c4.142 0 7.5-3.358 7.5-7.5v-39.869c0-4.142-3.358-7.5-7.5-7.5s-7.5 3.358-7.5 7.5v32.369h-8.216c-3.762 0-7.369.676-10.708 1.909v-34.278c0-4.142-3.358-7.5-7.5-7.5s-7.5 3.358-7.5 7.5v46.061c-3.38 5.028-5.277 11.085-5.277 17.292 0 3.425.592 6.899 1.691 10.088-3.001 3.698-7.518 5.897-12.399 5.897h-39.201c-8.814 0-15.985-7.171-15.985-15.985s7.171-15.985 15.985-15.985h15.717c4.142 0 7.5-3.358 7.5-7.5v-40.163c0-4.142-3.358-7.5-7.5-7.5s-7.5 3.358-7.5 7.5v32.663h-8.217c-17.085 0-30.985 13.9-30.985 30.985s13.9 30.986 30.985 30.986h39.201c7.874 0 15.251-2.955 20.858-8.071 5.507 5.012 12.82 8.071 20.835 8.071h39.201c17.085 0 30.985-13.9 30.985-30.985v-64.151c0-4.142-3.358-7.5-7.5-7.5z"/><path d="m196.537 414.368v25.071c2.036.138 4.084.214 6.144.214h40.825v-24.991h-40.825c-2.063 0-4.113-.1-6.144-.294z"/><path d="m309.319 439.652c5.11 0 10.15-.44 15.081-1.276v-25.513c-4.885 1.177-9.941 1.798-15.082 1.798h-31.888v24.991z"/></g><path d="m389.69 275.747-31.652-165.107c-5.466 3.181-11.815 5.011-18.594 5.011h-166.887c-6.78 0-13.128-1.83-18.594-5.011l-31.653 165.107c-7.26 37.871.368 77.084 21.295 109.472 11.861 18.356 32.224 29.442 54.078 29.442h116.633c21.855 0 42.217-11.086 54.078-29.442 20.929-32.388 28.557-71.601 21.296-109.472z" fill="#ffff6f"/><path d="m256 165.722c-9.811 0-17.765 7.954-17.765 17.765v158.344c0 9.811 7.954 17.765 17.765 17.765s17.765-7.954 17.765-17.765v-158.344c0-9.811-7.954-17.765-17.765-17.765z" fill="#ffd600"/><path d="m190.539 165.722c-9.811 0-17.765 7.954-17.765 17.765v158.344c0 9.811 7.954 17.765 17.765 17.765s17.765-7.954 17.765-17.765v-158.344c0-9.811-7.954-17.765-17.765-17.765z" fill="#ffd600"/><path d="m321.461 165.722c9.811 0 17.765 7.954 17.765 17.765v158.344c0 9.811-7.954 17.765-17.765 17.765s-17.765-7.954-17.765-17.765v-158.344c0-9.811 7.954-17.765 17.765-17.765z" fill="#ffd600"/><g><path d="m314.317 422.162h-116.633c-24.507 0-47.078-12.289-60.378-32.872-22.081-34.172-30.022-74.997-22.362-114.955l31.344-163.497c.78-4.068 4.708-6.738 8.778-5.954 4.068.78 6.733 4.71 5.954 8.778l-31.344 163.497c-6.929 36.146.255 73.077 20.229 103.99 10.525 16.288 28.386 26.013 47.779 26.013h116.633c19.393 0 37.254-9.725 47.779-26.013 19.974-30.913 27.158-67.844 20.229-103.99l-31.326-163.403c-.78-4.068 1.886-7.998 5.954-8.778 4.07-.783 7.998 1.886 8.778 5.954l31.326 163.403c7.66 39.958-.281 80.782-22.362 114.955-13.301 20.583-35.872 32.872-60.378 32.872z" fill="#f95116"/></g><g><path d="m256 367.096c-13.931 0-25.265-11.333-25.265-25.265v-158.344c0-13.931 11.333-25.265 25.265-25.265s25.265 11.333 25.265 25.265v158.344c0 13.931-11.334 25.265-25.265 25.265zm0-193.874c-5.66 0-10.265 4.604-10.265 10.265v158.344c0 5.66 4.604 10.265 10.265 10.265s10.265-4.604 10.265-10.265v-158.344c0-5.66-4.605-10.265-10.265-10.265z" fill="#f95116"/></g><g><path d="m190.539 367.096c-13.931 0-25.265-11.333-25.265-25.265v-158.344c0-13.931 11.333-25.265 25.265-25.265s25.265 11.333 25.265 25.265v158.344c0 13.931-11.334 25.265-25.265 25.265zm0-193.874c-5.66 0-10.265 4.604-10.265 10.265v158.344c0 5.66 4.604 10.265 10.265 10.265s10.265-4.604 10.265-10.265v-158.344c0-5.66-4.605-10.265-10.265-10.265z" fill="#f95116"/></g><g><path d="m321.461 367.096c-13.931 0-25.265-11.333-25.265-25.265v-158.344c0-13.931 11.333-25.265 25.265-25.265s25.265 11.333 25.265 25.265v158.344c0 13.931-11.334 25.265-25.265 25.265zm0-193.874c-5.66 0-10.265 4.604-10.265 10.265v158.344c0 5.66 4.604 10.265 10.265 10.265s10.265-4.604 10.265-10.265v-158.344c0-5.66-4.605-10.265-10.265-10.265z" fill="#f95116"/></g><path d="m305.367 7.5h-98.733c-39.275 0-71.114 31.839-71.114 71.114 0 20.455 16.582 37.037 37.037 37.037h166.886c20.455 0 37.037-16.582 37.037-37.037 0-39.275-31.838-71.114-71.113-71.114z" fill="#ff63ed"/><circle cx="302.434" cy="54.293" fill="#e207b9" r="9.852"/><g><path d="m276.861 88.346h-41.723c-4.142 0-7.5-3.358-7.5-7.5s3.358-7.5 7.5-7.5h41.723c4.142 0 7.5 3.358 7.5 7.5s-3.358 7.5-7.5 7.5z" fill="#e207b9"/></g><circle cx="209.567" cy="54.293" fill="#e207b9" r="9.852"/><g><path d="m339.443 123.151h-166.886c-24.558 0-44.537-19.979-44.537-44.537 0-43.348 35.266-78.614 78.613-78.614h98.733c43.348 0 78.614 35.266 78.614 78.614 0 24.557-19.979 44.537-44.537 44.537zm-132.81-108.151c-35.077 0-63.614 28.537-63.614 63.614 0 16.287 13.25 29.537 29.537 29.537h166.887c16.287 0 29.537-13.25 29.537-29.537 0-35.077-28.537-63.614-63.613-63.614z" fill="#e207b9"/></g></g></svg>