<svg id="Capa_1" enable-background="new 0 0 511.977 511.977" height="512" viewBox="0 0 511.977 511.977" width="512" xmlns="http://www.w3.org/2000/svg"><g><path d="m460.974 51.002c10.283 10.283 18.4 21.778 24.301 33.79 2.449-1.585 4.772-3.443 6.918-5.588 16.409-16.409 16.409-43.012 0-59.421s-43.012-16.409-59.421 0c-2.146 2.146-4.004 4.469-5.588 6.918 12.012 5.901 23.508 14.018 33.79 24.301z" fill="#b98eff"/><path d="m299.558 113.694 98.725 98.725c28.247 4.941 56.201-1.932 75.661-21.393 35.085-35.085 29.279-97.776-12.969-140.024s-104.939-48.054-140.024-12.969c-19.461 19.461-26.334 47.414-21.393 75.661z" fill="#ffd600"/><path d="m122.606 251.466 137.905 137.904c3.219 3.219 5.499 7.018 6.853 11.06 113.073-67.913 67.18-124.272 130.919-188.011l-98.725-98.725c-63.739 63.739-120.098 17.846-188.011 130.919 4.041 1.354 7.84 3.634 11.059 6.853z" fill="#9448f5"/><path d="m199.139 492.138c16.151-22.214 22.882-44.776 25.673-58.833-1.606-1.053-3.13-2.283-4.541-3.695l-137.905-137.905c-1.412-1.411-2.642-2.935-3.695-4.541-14.057 2.792-36.619 9.522-58.833 25.673-15.024 10.923-16.533 32.799-3.399 45.933l136.766 136.766c13.135 13.135 35.01 11.625 45.934-3.398z" fill="#b98eff"/><path d="m260.511 389.37-137.905-137.904c-11.112-11.112-29.128-11.112-40.24 0s-11.112 29.128 0 40.24l137.905 137.904c11.112 11.112 29.128 11.112 40.24 0 11.111-11.112 11.111-29.128 0-40.24z" fill="#ffd600"/><circle cx="444.75" cy="137.312" fill="#f95116" r="10.515"/><g><path d="m405.411 145.553c-1.919 0-3.839-.732-5.304-2.197l-31.488-31.488c-2.929-2.929-2.929-7.678 0-10.606 2.93-2.929 7.678-2.929 10.607 0l31.488 31.488c2.929 2.929 2.929 7.678 0 10.606-1.464 1.464-3.384 2.197-5.303 2.197z" fill="#f95116"/></g><circle cx="374.664" cy="67.226" fill="#f95116" r="10.515"/><g><path d="m486.78 91.277c-2.35 0-4.664-1.101-6.126-3.164-2.395-3.379-1.598-8.061 1.782-10.456 1.587-1.125 3.086-2.389 4.455-3.759 13.457-13.457 13.457-35.355-.001-48.813-13.457-13.458-35.356-13.458-48.813 0-1.257 1.257-2.429 2.626-3.482 4.07-2.442 3.345-7.135 4.077-10.479 1.635-3.346-2.442-4.078-7.134-1.636-10.48 1.509-2.066 3.188-4.028 4.99-5.831 19.308-19.308 50.722-19.306 70.027-.001 19.307 19.307 19.307 50.721.001 70.028-1.966 1.965-4.114 3.778-6.388 5.389-1.317.934-2.831 1.382-4.33 1.382z" fill="#6d00ca"/></g><g><path d="m262.433 403.428c-2.149-3.541-1.022-8.153 2.519-10.303 63.138-38.336 73.576-71.795 84.629-107.217 7.805-25.016 15.876-50.884 42.528-77.916 2.909-2.951 7.658-2.982 10.606-.075 2.949 2.908 2.983 7.657.075 10.606-24.099 24.441-31.284 47.47-38.892 71.852-11.396 36.525-23.18 74.293-91.162 115.571-3.517 2.137-8.139 1.044-10.303-2.518z" fill="#6d00ca"/></g><g><path d="m108.548 249.543c-3.541-2.15-4.668-6.763-2.519-10.303 41.279-67.983 79.048-79.767 115.572-91.162 24.381-7.607 47.41-14.792 71.852-38.891 2.948-2.907 7.696-2.876 10.606.075 2.908 2.949 2.874 7.698-.075 10.606-27.032 26.653-52.899 34.724-77.916 42.529-68.881 21.491-87.502 52.159-107.217 84.628-2.151 3.544-6.766 4.665-10.303 2.518z" fill="#6d00ca"/></g><g><path d="m147.902 500.839-136.766-136.765c-16.451-16.451-14.388-43.72 4.292-57.302 22.378-16.271 45.087-23.467 60.197-26.64 4.052-.853 8.029 1.745 8.881 5.799s-1.745 8.03-5.799 8.881c-13.677 2.872-34.227 9.382-54.459 24.092-11.253 8.184-12.413 24.657-2.506 34.564l136.767 136.766c9.917 9.919 26.391 8.736 34.563-2.506 14.721-20.247 21.231-40.813 24.101-54.5.851-4.054 4.829-6.65 8.88-5.801 4.054.85 6.651 4.825 5.802 8.879-3.171 15.122-10.367 37.849-26.649 60.244-13.589 18.686-40.856 20.737-57.304 4.289z" fill="#6d00ca"/></g><g><g><path d="m220.2 275.955c-1.919 0-3.839-.732-5.304-2.197-2.929-2.929-2.929-7.678 0-10.606l61.33-61.33c2.93-2.929 7.678-2.929 10.607 0s2.929 7.678 0 10.606l-61.33 61.33c-1.465 1.465-3.385 2.197-5.303 2.197z" fill="#6d00ca"/></g><g><path d="m281.781 273.711c-8.33 0-16.702-3.201-23.093-9.591-4.669-4.669-16.878-16.727-17.001-16.848-1.415-1.398-2.217-3.301-2.229-5.29s.767-3.902 2.164-5.317c.126-.126 12.562-12.714 17.341-17.493 3.952-3.953 17.246-17.332 17.247-17.333 1.405-1.414 3.315-2.21 5.309-2.213h.012c1.989 0 3.896.79 5.304 2.197l17.077 17.077c12.654 12.654 12.806 33.093.339 45.56-6.175 6.171-14.302 9.251-22.47 9.251zm-24.216-31.836c3.937 3.894 9.054 8.962 11.73 11.639 6.688 6.689 17.84 6.846 24.347.339 3.16-3.159 4.865-7.447 4.804-12.074-.062-4.661-1.889-9.02-5.143-12.273l-11.758-11.758c-4.177 4.202-9.667 9.721-11.977 12.03-2.732 2.732-7.999 8.05-12.003 12.097z" fill="#6d00ca"/></g></g><g><path d="m396.991 219.806c-1.52-.266-2.921-.994-4.012-2.084l-98.725-98.724c-1.091-1.091-1.818-2.491-2.084-4.011-5.563-31.794 2.995-61.775 23.477-82.257 40.451-40.45 108.334-29.328 150.631 12.969 43.102 43.101 52.773 110.827 12.969 150.63-21.649 21.648-52.322 28.714-82.256 23.477zm4.885-14.401c26.037 3.922 50.271-3.189 66.763-19.683 15.364-15.364 22.592-37.145 20.352-61.331-2.288-24.708-14.122-48.888-33.32-68.086-37.295-37.296-95.738-46.65-129.416-12.969-16.494 16.493-23.606 40.721-19.683 66.765z" fill="#f95116"/></g><g><path d="m214.968 434.913-137.905-137.905c-14.05-14.051-14.052-36.794.001-50.846 14.049-14.051 36.793-14.053 50.846 0l137.905 137.904c14.018 14.019 14.018 36.828 0 50.846-14.019 14.018-36.828 14.021-50.847.001zm-127.299-178.144c-8.189 8.191-8.189 21.442 0 29.633l137.905 137.905c8.169 8.17 21.463 8.169 29.634 0 8.169-8.17 8.169-21.463-.001-29.633l-137.905-137.905c-8.188-8.189-21.442-8.189-29.633 0z" fill="#f95116"/></g></g></svg>