<svg id="Capa_1" enable-background="new 0 0 512 512" height="512" viewBox="0 0 512 512" width="512" xmlns="http://www.w3.org/2000/svg"><g><g><path d="m320.801 407.385v73.445c0 13.073-10.598 23.671-23.671 23.671h-39.512c-13.073 0-23.671-10.598-23.671-23.671s10.598-23.671 23.671-23.671h15.841v-49.774z" fill="#9448f5"/></g><g><path d="m210.636 407.385v73.445c0 13.073-10.598 23.671-23.671 23.671h-39.512c-13.073 0-23.671-10.598-23.671-23.671s10.598-23.671 23.671-23.671h15.841v-49.774z" fill="#9448f5"/></g><path d="m325.634 390.766c-12.548-24.651-30.941-74.571-11.491-136.435l49.528-157.551h-45.602v23.472c0 10.466-8.484 18.95-18.95 18.95s-18.95-8.484-18.95-18.95v-23.472h-70.063v23.472c0 10.466-8.484 18.95-18.95 18.95s-18.95-8.484-18.95-18.95v-22.875c-19.175 2.925-35.363 16.503-41.313 35.431l-32.367 102.973c-5.585 17.773-8.318 36.024-8.318 54.156 0 32.363 8.703 64.322 25.396 92.375 9.263 15.567 26.075 25.073 44.189 25.073h192.923c-11.438 0-21.893-6.424-27.082-16.619z" fill="#88f8d8"/><path d="m374.612 407.385h-21.896c-11.439 0-21.893-6.424-27.083-16.618-12.548-24.651-30.941-74.571-11.491-136.435l49.529-157.552 49.529 157.552c19.531 62.122 1.058 111.866-11.513 136.451-5.205 10.178-15.643 16.602-27.075 16.602z" fill="#17d9c3"/><circle cx="245.453" cy="264.334" fill="#007ea8" r="9.66"/><g><path d="m220.379 297.871h-40.91c-4.143 0-7.5-3.358-7.5-7.5s3.357-7.5 7.5-7.5h40.91c4.143 0 7.5 3.358 7.5 7.5s-3.358 7.5-7.5 7.5z" fill="#007ea8"/></g><circle cx="154.394" cy="264.334" fill="#007ea8" r="9.66"/><g><g><path d="m297.131 512h-39.512c-17.188 0-31.171-13.983-31.171-31.171s13.983-31.171 31.171-31.171h8.341v-39.273c0-4.142 3.357-7.5 7.5-7.5s7.5 3.358 7.5 7.5v46.773c0 4.142-3.357 7.5-7.5 7.5h-15.841c-8.917 0-16.171 7.254-16.171 16.171s7.254 16.171 16.171 16.171h39.512c8.917 0 16.171-7.254 16.171-16.171v-70.444c0-4.142 3.357-7.5 7.5-7.5s7.5 3.358 7.5 7.5v70.444c-.001 17.188-13.984 31.171-31.171 31.171z" fill="#6d00ca"/></g></g><g><g><path d="m186.964 512h-39.512c-17.188 0-31.171-13.983-31.171-31.171s13.983-31.171 31.171-31.171h8.341v-38.273c0-4.142 3.357-7.5 7.5-7.5s7.5 3.358 7.5 7.5v45.773c0 4.142-3.357 7.5-7.5 7.5h-15.841c-8.917 0-16.171 7.254-16.171 16.171s7.255 16.171 16.172 16.171h39.512c8.917 0 16.171-7.254 16.171-16.171v-69.444c0-4.142 3.357-7.5 7.5-7.5s7.5 3.358 7.5 7.5v69.444c-.001 17.188-13.984 31.171-31.172 31.171z" fill="#6d00ca"/></g></g><path d="m163.294 407.385h47.342v31.631h-47.342z" fill="#6d00ca"/><path d="m273.46 407.385h47.342v31.631h-47.342z" fill="#6d00ca"/><g><path d="m277.17 104.28h-64.063c-4.143 0-7.5-3.358-7.5-7.5s3.357-7.5 7.5-7.5h64.063c4.143 0 7.5 3.358 7.5 7.5s-3.358 7.5-7.5 7.5z" fill="#007ea8"/></g><path d="m420.354 252.083-49.527-157.552c-.997-3.17-3.973-5.251-7.155-5.251h-42.603c-4.143 0-7.5 3.358-7.5 7.5s3.357 7.5 7.5 7.5h32.383l-46.463 147.802c-8.892 28.278-11.08 57.082-6.505 85.609 3.138 19.568 9.352 38.57 18.467 56.477.863 1.698 2.174 3.866 3.57 5.716h-162.727c-15.424 0-29.887-8.203-37.744-21.408-25.138-42.247-31.181-93.311-16.368-140.447l32.369-102.973c4.945-15.734 18.106-27.273 34.35-30.113 4.08-.713 6.81-4.599 6.096-8.679-.713-4.081-4.589-6.809-8.68-6.097-21.787 3.81-39.442 19.286-46.076 40.391l-32.37 102.974c-16.09 51.203-9.535 106.695 17.788 152.615 10.548 17.726 29.949 28.738 50.635 28.738h214.818c14.294 0 27.228-7.927 33.752-20.688 16.01-31.309 31.085-81.379 11.99-142.114zm-25.346 135.285c-3.947 7.721-11.763 12.517-20.396 12.517h-21.896c-8.651 0-16.467-4.797-20.398-12.521-14.703-28.886-28.551-75.024-11.02-130.784l42.373-134.792 42.374 134.792c17.572 55.894 3.698 101.974-11.037 130.788z" fill="#007ea8"/><g><path d="m299.119 139.202c-10.466 0-18.95-8.484-18.95-18.95v-39.822c0-19.316-15.715-35.031-35.031-35.031s-35.032 15.715-35.032 35.031v39.823c0 10.466-8.484 18.95-18.95 18.95s-18.95-8.484-18.95-18.95v-39.823c0-40.214 32.716-72.93 72.93-72.93s72.931 32.716 72.931 72.93v39.823c.002 10.465-8.482 18.949-18.948 18.949z" fill="#ff63ed"/></g><g><g><path d="m299.119 146.702c-14.584 0-26.449-11.865-26.449-26.45v-39.822c0-15.181-12.351-27.531-27.531-27.531-15.181 0-27.531 12.35-27.531 27.531v39.823c0 14.584-11.865 26.45-26.449 26.45-14.585 0-26.45-11.865-26.45-26.45v-39.823c0-44.349 36.081-80.43 80.431-80.43s80.431 36.081 80.431 80.43v39.823c-.002 14.584-11.867 26.449-26.452 26.449zm-53.981-108.803c23.452 0 42.531 19.079 42.531 42.531v39.823c0 6.313 5.136 11.45 11.449 11.45s11.45-5.136 11.45-11.45v-39.823c0-36.078-29.353-65.43-65.431-65.43s-65.431 29.352-65.431 65.43v39.823c0 6.313 5.137 11.45 11.45 11.45s11.449-5.136 11.449-11.45v-39.823c.002-23.452 19.081-42.531 42.533-42.531z" fill="#e207b9"/></g></g></g></svg>