<svg id="Capa_1" enable-background="new 0 0 512 512" height="512" viewBox="0 0 512 512" width="512" xmlns="http://www.w3.org/2000/svg"><g><path d="m413.135 177.936h-15.763c3.201 7.958 4.903 16.522 4.903 25.264v25.263h10.86c14.692 0 26.646 11.954 26.646 26.647v38.372c0 14.693-11.954 26.647-26.646 26.647h-10.86v25.264c0 8.742-1.7 17.306-4.908 25.263h15.767c42.553 0 77.173-34.62 77.173-77.174v-38.372c.002-42.553-34.618-77.174-77.172-77.174z" fill="#ffd600"/><path d="m382.459 155.341c-3.254-3.254-6.801-6.124-10.58-8.62-1.253.131-2.526.192-3.82.192h-182.363c-16.076 23.96-43.411 39.732-74.433 39.732-4.815 0-9.54-.385-14.15-1.116-1.547 5.715-2.366 11.649-2.366 17.672v69.778c101.469-32.034 157.756 35.672 307.528-2.88v-66.899c.001-17.947-7.123-35.167-19.816-47.859z" fill="#ffff6f"/><path d="m368.062 72.958h-170.514c2.14 7.673 3.288 15.759 3.288 24.114 0 18.449-5.58 35.593-15.14 49.842h182.367c20.422 0 36.978-16.556 36.978-36.978-.001-20.422-16.556-36.978-36.979-36.978z" fill="#ffd600"/><path d="m413.135 170.436h-10.842c-3.618-7.464-8.479-14.367-14.694-20.554 14.756-7.247 24.941-22.427 24.941-39.946 0-24.525-19.953-44.478-44.479-44.478h-167.513c-4.143 0-7.5 3.358-7.5 7.5s3.357 7.5 7.5 7.5h167.514c16.255 0 29.479 13.224 29.479 29.478 0 16.258-13.227 29.476-29.481 29.476h-179.364c-2.589 0-4.872 1.312-6.22 3.308-.809 1.197-1.281 2.64-1.281 4.194 0 4.142 3.357 7.5 7.5 7.5 124.024-.009 179.681.018 181.084-.033 15.732 11.322 24.997 29.402 24.997 48.818v64.898c0 4.142 3.357 7.5 7.5 7.5s7.5-3.358 7.5-7.5v-32.134h3.359c10.558 0 19.146 8.589 19.146 19.147v38.372c0 10.558-8.589 19.147-19.146 19.147h-10.859c-4.143 0-6.219 3.358-6.219 7.5s2.077 7.5 6.219 7.5h10.859c18.828 0 34.146-15.318 34.146-34.147v-38.372c0-18.829-15.318-34.147-34.146-34.147h-3.359v-17.763c0-5.864-.747-12.107-2.11-17.764h5.47c38.418 0 69.674 31.256 69.674 69.674v38.372c0 38.418-31.256 69.674-69.674 69.674h-15.767c-4.143 0-5.393 3.358-5.393 7.5s1.25 7.5 5.393 7.5h15.767c46.689 0 84.674-37.985 84.674-84.674v-38.372c-.001-46.689-37.985-84.674-84.675-84.674z" fill="#f95116"/><circle cx="111.263" cy="97.072" fill="#88f8d8" r="89.572"/><g><path d="m328.526 413.08v67.436c0 13.246-10.738 23.984-23.984 23.984h-40.035c-13.246 0-23.984-10.738-23.984-23.984s10.738-23.984 23.984-23.984h16.051v-43.452z" fill="#ffd600"/></g><g><path d="m216.903 413.08v67.436c0 13.246-10.738 23.984-23.984 23.984h-40.035c-13.246 0-23.984-10.738-23.984-23.984s10.738-23.984 23.984-23.984h16.051v-43.452z" fill="#ffd600"/></g><path d="m402.276 270.098v75.296c0 8.974-1.779 17.765-5.154 25.9-3.365 8.135-8.317 15.613-14.663 21.959-12.703 12.702-29.912 19.827-47.869 19.827h-172.156c-8.974 0-17.765-1.779-25.91-5.154-8.125-3.365-15.603-8.327-21.959-14.673-12.692-12.692-19.817-29.902-19.817-47.859v-72.415c101.468-32.035 157.755 35.671 307.528-2.881z" fill="#88f8d8"/><circle cx="227.493" cy="348.503" fill="#17d9c3" r="28.215"/><circle cx="312.429" cy="334.061" fill="#17d9c3" r="20.847"/><circle cx="296.957" cy="208.45" fill="#f95116" r="11.351"/><g><path d="m267.495 246.543h-48.071c-4.143 0-7.5-3.358-7.5-7.5s3.357-7.5 7.5-7.5h48.071c4.143 0 7.5 3.358 7.5 7.5s-3.358 7.5-7.5 7.5z" fill="#f95116"/></g><circle cx="189.961" cy="208.45" fill="#f95116" r="11.351"/><g><g><path d="m304.542 512h-40.034c-17.36 0-31.484-14.124-31.484-31.484s14.124-31.484 31.484-31.484h8.551v-32.952c0-4.142 3.357-7.5 7.5-7.5s7.5 3.358 7.5 7.5v40.453c0 4.142-3.357 7.5-7.5 7.5h-16.051c-9.09 0-16.484 7.395-16.484 16.484s7.394 16.483 16.484 16.483h40.034c9.09 0 16.484-7.395 16.484-16.484v-64.436c0-4.142 3.357-7.5 7.5-7.5s7.5 3.358 7.5 7.5v64.437c.001 17.359-14.123 31.483-31.484 31.483z" fill="#f95116"/></g></g><g><g><path d="m192.919 512h-40.035c-17.36 0-31.483-14.124-31.483-31.484s14.123-31.484 31.483-31.484h8.551v-32.952c0-4.142 3.357-7.5 7.5-7.5s7.5 3.358 7.5 7.5v40.453c0 4.142-3.357 7.5-7.5 7.5h-16.051c-9.089 0-16.483 7.395-16.483 16.484s7.394 16.483 16.483 16.483h40.035c9.089 0 16.483-7.395 16.483-16.484v-64.436c0-4.142 3.357-7.5 7.5-7.5s7.5 3.358 7.5 7.5v64.437c.001 17.359-14.122 31.483-31.483 31.483z" fill="#f95116"/></g></g><path d="m168.935 413.08h47.968v34.07h-47.968z" fill="#f95116"/><path d="m280.559 413.08h47.968v34.07h-47.968z" fill="#f95116"/><g><path d="m227.493 384.218c-19.693 0-35.715-16.022-35.715-35.715s16.021-35.715 35.715-35.715 35.715 16.021 35.715 35.715-16.022 35.715-35.715 35.715zm0-56.43c-11.422 0-20.715 9.292-20.715 20.715s9.293 20.715 20.715 20.715 20.715-9.293 20.715-20.715-9.293-20.715-20.715-20.715z" fill="#007ea8"/></g><g><path d="m312.429 362.408c-15.631 0-28.347-12.716-28.347-28.347s12.716-28.347 28.347-28.347 28.347 12.716 28.347 28.347c0 15.63-12.716 28.347-28.347 28.347zm0-41.694c-7.359 0-13.347 5.987-13.347 13.347 0 7.359 5.987 13.347 13.347 13.347s13.347-5.987 13.347-13.347-5.987-13.347-13.347-13.347z" fill="#007ea8"/></g><circle cx="111.263" cy="97.072" fill="#ffd600" r="53.958"/><g><path d="m94.748 278.478c-4.143 0-7.5-3.358-7.5-7.5v-67.778c0-6.34.819-12.703 2.436-18.91 1.043-4.008 5.133-4.245 9.147-3.203 4.009 1.044 6.412 2.974 5.368 6.982-1.295 4.974-1.951 10.064-1.951 15.13v67.778c0 4.143-3.358 7.501-7.5 7.501z" fill="#f95116"/></g><path d="m172.721 97.072c0-33.859-27.588-61.458-61.458-61.458-33.859 0-61.458 27.589-61.458 61.458 0 33.859 27.588 61.458 61.458 61.458 33.859.001 61.458-27.588 61.458-61.458zm-107.302 7.5h27.737l-19.596 19.596c-4.111-5.705-6.963-12.371-8.141-19.596zm8.141-34.595 19.596 19.596h-27.737c1.178-7.226 4.03-13.892 8.141-19.596zm83.547 19.595h-27.737l19.596-19.596c4.111 5.705 6.963 12.371 8.141 19.596zm-38.344-10.607v-27.737c7.225 1.178 13.891 4.03 19.596 8.142zm-15 0-19.596-19.596c5.705-4.111 12.371-6.963 19.596-8.142zm0 36.214v27.738c-7.225-1.178-13.891-4.03-19.596-8.142zm15 0 19.596 19.596c-5.705 4.111-12.371 6.963-19.596 8.142zm10.607-10.607h27.737c-1.178 7.225-4.03 13.891-8.141 19.596z" fill="#f95116"/><g><path d="m334.589 420.58h-172.155c-40.96 0-75.187-33.083-75.187-75.186v-72.416c0-3.272 2.122-6.167 5.242-7.152 49.152-15.519 88.573-8.386 130.31-.833 46.575 8.427 99.367 17.98 177.607-2.159 2.241-.577 4.631-.084 6.464 1.335 1.833 1.421 2.905 3.609 2.905 5.928v75.296c.001 40.956-33.075 75.187-75.186 75.187zm-232.341-142.026v66.839c0 33.708 27.399 60.186 60.187 60.186h172.155c33.646 0 60.187-27.33 60.187-60.186v-65.728c-76.275 17.886-128.429 8.451-174.648.088-39.982-7.233-74.726-13.52-117.881-1.199z" fill="#007ea8"/></g><g><path d="m111.263 194.145c-53.525 0-97.072-43.546-97.072-97.072s43.547-97.073 97.072-97.073 97.072 43.546 97.072 97.072-43.546 97.073-97.072 97.073zm0-179.145c-45.255 0-82.072 36.817-82.072 82.072s36.817 82.072 82.072 82.072 82.072-36.817 82.072-82.072-36.817-82.072-82.072-82.072z" fill="#007ea8"/></g></g></svg>