<svg id="Capa_1" enable-background="new 0 0 512 512" height="512" viewBox="0 0 512 512" width="512" xmlns="http://www.w3.org/2000/svg"><g><path d="m293.054 315.438h-222.349c1.735-5.026 3.939-9.873 6.582-14.46 7.19-12.506 17.592-23.156 30.476-30.656 25.769-15.009 41.616-42.593 41.616-72.411v-18.419h65.001v18.419c0 29.818 15.846 57.402 41.616 72.411 17.621 10.261 30.606 26.397 37.058 45.116z" fill="#17d9c3"/><path d="m345.659 376.445c9.324 9.324 13.526 21.815 12.643 34.008 11.771-9.834 26.943-13.506 41.257-11.025 9.06-9.971 12.686-23.115 10.861-35.627-1.473-10.1-9.514-18.141-19.614-19.614-13.165-1.92-27.037 2.181-37.169 12.313-5.074 5.074-8.635 11.087-10.685 17.479.925.783 1.834 1.594 2.707 2.466z" fill="#17d9c3"/><path d="m256.883 492.775c-19.84-19.84-12.458-59.388 7.382-79.228 7.192-7.192 16.006-11.763 25.263-13.741-1.201-5.273-1.43-10.723-.651-16.06.882-6.044 4.126-11.337 8.745-14.94v-26.074c0-9.434-1.586-18.639-4.567-27.295h-222.35c-2.982 8.656-4.567 17.861-4.567 27.295v124.678c0 20.464 16.594 37.058 37.058 37.058h157.367c4.411 0 8.64-.775 12.564-2.189-6.129-1.867-11.706-4.965-16.244-9.504z" fill="#ffd600"/><path d="m336.111 413.547c3.904 3.904 7.028 8.29 9.395 12.961 2.368-4.671 5.491-9.057 9.395-12.961 1.095-1.095 2.234-2.12 3.4-3.094.883-12.193-3.319-24.684-12.643-34.008-10.132-10.132-24.004-14.233-37.169-12.313-10.1 1.473-18.141 9.514-19.614 19.614-.778 5.337-.55 10.787.651 16.06 16.282-3.478 33.937 1.093 46.585 13.741z" fill="#17d9c3"/><path d="m426.749 413.547c-19.84-19.84-52.007-19.84-71.847 0-3.904 3.904-7.028 8.29-9.395 12.961 7.297 14.395 7.297 31.53 0 45.925 2.368 4.671 5.491 9.057 9.395 12.961 19.84 19.84 59.388 27.222 79.228 7.382 19.84-19.841 12.459-59.389-7.381-79.229z" fill="#b98eff"/><path d="m264.265 413.547c19.84-19.84 52.007-19.84 71.847 0s19.84 52.007 0 71.847-59.388 27.222-79.228 7.382c-19.841-19.841-12.459-59.389 7.381-79.229z" fill="#b98eff"/><circle cx="228.203" cy="366.682" fill="#f95116" r="9.829"/><g><path d="m202.692 400.672h-41.624c-4.142 0-7.5-3.358-7.5-7.5s3.358-7.5 7.5-7.5h41.624c4.142 0 7.5 3.358 7.5 7.5s-3.358 7.5-7.5 7.5z" fill="#f95116"/></g><circle cx="135.556" cy="366.682" fill="#f95116" r="9.829"/><g><path d="m68.775 320.547c-3.881-1.446-5.856-5.764-4.41-9.646 1.761-4.728 3.923-9.326 6.424-13.667 7.952-13.831 19.434-25.38 33.201-33.393 23.37-13.611 37.889-38.874 37.889-65.929v-15.42c0-4.142 3.358-7.5 7.5-7.5s7.5 3.358 7.5 7.5v15.42c0 32.373-17.373 62.603-45.341 78.892-11.505 6.696-21.099 16.348-27.749 27.913-2.091 3.629-3.895 7.469-5.367 11.421-1.439 3.86-5.745 5.861-9.647 4.409z" fill="#007ea8"/></g><g><path d="m70.706 322.939c-.813 0-1.64-.133-2.451-.414-3.915-1.353-5.991-5.624-4.638-9.539.241-.698.491-1.393.748-2.084 1.445-3.881 5.763-5.858 9.645-4.412 3.882 1.445 5.857 5.763 4.412 9.645-.216.582-.426 1.166-.629 1.753-1.073 3.103-3.979 5.051-7.087 5.051z" fill="#007ea8"/></g><g><path d="m293.053 322.939c-3.111 0-6.019-1.951-7.09-5.057-5.96-17.29-17.943-31.879-33.742-41.079-27.968-16.289-45.341-46.518-45.341-78.892v-15.42c0-4.142 3.358-7.5 7.5-7.5s7.5 3.358 7.5 7.5v15.42c0 27.055 14.519 52.318 37.89 65.93 18.905 11.009 33.243 28.465 40.374 49.152 1.683 4.882-1.964 9.946-7.091 9.946z" fill="#007ea8"/></g><g><path d="m260.563 511.968h-157.367c-24.569 0-44.558-19.988-44.558-44.558v-124.678c0-10.147 1.674-20.153 4.976-29.738 1.042-3.026 3.89-5.057 7.091-5.057h222.349c3.201 0 6.049 2.031 7.091 5.057 3.302 9.585 4.976 19.591 4.976 29.738v24.074c0 4.142-3.358 7.5-7.5 7.5s-7.5-3.358-7.5-7.5v-24.074c0-6.712-.876-13.348-2.609-19.795h-211.265c-1.733 6.447-2.609 13.083-2.609 19.795v124.678c0 16.299 13.26 29.558 29.558 29.558h157.367c2.925 0 5.816-.428 8.592-1.271 3.962-1.204 8.152 1.032 9.356 4.996 1.204 3.963-1.033 8.152-4.996 9.356-4.191 1.273-8.548 1.919-12.952 1.919z" fill="#f95116"/></g><path d="m417.841 362.719c-1.945-13.335-12.617-24.007-25.952-25.952-15.917-2.322-32.198 3.073-43.555 14.431-3.404 3.403-6.299 7.293-8.616 11.491-9.722-5.404-21.102-7.61-32.311-5.976-13.335 1.945-24.007 12.617-25.952 25.953-.857 5.879-.682 11.835.521 17.705.83 4.051 4.787 6.674 8.853 5.841 4.058-.832 6.673-4.795 5.841-8.853-.853-4.161-.978-8.377-.373-12.529.995-6.821 6.454-12.28 13.275-13.275 22.336-3.261 42.165 14.497 41.32 37.087-.159 4.244 3.235 7.78 7.499 7.78 4.012 0 7.338-3.176 7.489-7.219.516-13.786-4.613-27.285-14.104-37.225 1.761-3.761 4.16-7.169 7.163-10.173 8.144-8.144 19.363-11.859 30.783-10.194 6.821.995 12.28 6.454 13.275 13.275 1.52 10.419-1.553 20.942-8.429 28.869-2.714 3.129-2.378 7.865.751 10.58 3.13 2.714 7.866 2.378 10.58-.751 9.74-11.23 14.092-26.124 11.942-40.865z" fill="#007ea8"/><path d="m432.051 408.244c-11.012-11.012-25.653-17.077-41.226-17.077s-30.215 6.064-41.226 17.077c-1.447 1.447-2.805 2.971-4.087 4.554-1.273-1.571-2.637-3.093-4.098-4.554-22.733-22.733-59.72-22.733-82.453 0-22.388 22.388-30.581 66.636-7.382 89.834 23.055 23.055 67.151 15.301 89.834-7.382 1.461-1.461 2.825-2.983 4.098-4.554 1.282 1.583 2.64 3.107 4.087 4.554 22.495 22.495 66.723 30.493 89.834 7.382 23.219-23.218 15.098-67.356-7.381-89.834zm-101.243 71.846c-17.107 17.106-52.133 23.871-68.622 7.382-16.491-16.491-9.724-51.516 7.382-68.622 16.884-16.884 44.357-16.884 61.241 0 16.921 16.921 16.818 44.422-.001 61.24zm98.019 7.382c-16.491 16.49-51.516 9.724-68.622-7.382-2.41-2.41-4.517-5.082-6.292-7.976 5.966-14.188 6.135-30.698 0-45.289 1.775-2.893 3.882-5.566 6.292-7.976 8.179-8.179 19.053-12.683 30.62-12.683 11.566 0 22.441 4.504 30.62 12.683 16.838 16.839 24.192 51.813 7.382 68.623z" fill="#6d00ca"/><path d="m186.641 9.744-10.936 7.57c-11.472 7.941-18.317 21.005-18.317 34.957v71.848h48.983v-104.037c0-10.142-11.391-16.111-19.73-10.338z" fill="#a4bcff"/><g><path d="m206.371 128.619c-4.142 0-7.5-3.358-7.5-7.5v-101.037c0-2.77-1.901-4.065-2.719-4.494-.816-.428-2.964-1.254-5.242.323l-10.936 7.57c-9.446 6.539-15.086 17.303-15.086 28.791v68.848c0 4.142-3.358 7.5-7.5 7.5s-7.5-3.358-7.5-7.5v-68.848c0-16.41 8.056-31.783 21.549-41.124l10.936-7.57c6.158-4.264 14.107-4.751 20.741-1.275 6.635 3.476 10.756 10.289 10.756 17.78v101.038c0 4.14-3.357 7.498-7.499 7.498z" fill="#2115c2"/></g><path d="m206.371 124.119h-48.983c-15.802 0-28.612 12.81-28.612 28.612v6.154c0 11.381 9.226 20.607 20.607 20.607h64.993c11.381 0 20.607-9.226 20.607-20.607v-6.154c0-15.801-12.81-28.612-28.612-28.612z" fill="#b98eff"/><g><path d="m214.376 186.992h-64.993c-15.498 0-28.107-12.609-28.107-28.107v-6.154c0-19.912 16.2-36.112 36.111-36.112h48.983c19.912 0 36.112 16.2 36.112 36.112v6.154c.001 15.498-12.608 28.107-28.106 28.107zm-56.988-55.373c-11.641 0-21.112 9.471-21.112 21.112v6.154c0 7.227 5.88 13.107 13.107 13.107h64.993c7.227 0 13.107-5.88 13.107-13.107v-6.154c0-11.642-9.471-21.112-21.112-21.112z" fill="#6d00ca"/></g></g></svg>