<svg id="Capa_1" enable-background="new 0 0 512 512" height="512" viewBox="0 0 512 512" width="512" xmlns="http://www.w3.org/2000/svg"><g><path d="m412.853 121.741-14.506-96.985c-1.484-9.917-10.002-17.256-20.03-17.256h-17.589c-10.028 0-18.546 7.339-20.029 17.256l-14.506 96.985z" fill="#ff63ed"/><path d="m422.498 121.741h-105.951c-22.074 0-39.968 17.894-39.968 39.968v9.618c0 12.113 9.82 21.933 21.933 21.933h142.022c12.113 0 21.933-9.82 21.933-21.933v-9.618c-.001-22.074-17.895-39.968-39.969-39.968z" fill="#ff9bff"/><path d="m185.808 121.741-14.506-96.985c-1.484-9.917-10.002-17.256-20.029-17.256h-17.589c-10.028 0-18.546 7.339-20.029 17.256l-14.506 96.985z" fill="#ffd600"/><path d="m195.453 121.741h-105.951c-22.074 0-39.968 17.894-39.968 39.968v9.618c0 12.113 9.82 21.933 21.933 21.933h142.022c12.113 0 21.933-9.82 21.933-21.933v-9.618c-.001-22.074-17.895-39.968-39.969-39.968z" fill="#f90"/><path d="m491.887 411.22-44.871-218.937c-2.049.633-4.226.976-6.483.976h-142.022c-2.257 0-4.434-.343-6.483-.976l-36.028 175.794 8.842 43.143c3.152 15.379 1.57 31.351-4.536 45.813-1.264 2.993-2.71 5.869-4.306 8.634 13.748 23.815 39.28 38.832 67.259 38.832h92.527c31.227 0 59.419-18.698 71.565-47.466 6.106-14.462 7.688-30.434 4.536-45.813z" fill="#ff63ed"/><path d="m264.842 411.22-44.871-218.937c-2.049.633-4.226.976-6.483.976h-142.021c-2.257 0-4.434-.343-6.483-.976l-44.871 218.937c-3.152 15.379-1.57 31.351 4.536 45.813 12.146 28.768 40.338 47.467 71.565 47.467h92.527c31.227 0 59.419-18.698 71.565-47.466 6.107-14.463 7.688-30.435 4.536-45.814z" fill="#ffd600"/><circle cx="426.895" cy="346.183" fill="#e207b9" r="12.173"/><g><path d="m395.298 386.492h-51.552c-4.143 0-7.5-3.358-7.5-7.5s3.357-7.5 7.5-7.5h51.552c4.143 0 7.5 3.358 7.5 7.5s-3.357 7.5-7.5 7.5z" fill="#e207b9"/></g><circle cx="312.15" cy="346.183" fill="#e207b9" r="12.173"/><g><path d="m412.853 129.241h-86.661c-2.183 0-4.257-.951-5.682-2.604-1.425-1.654-2.059-3.846-1.735-6.005l14.506-96.984c2.016-13.482 13.816-23.648 27.447-23.648h17.589c13.632 0 25.432 10.166 27.448 23.647l14.506 96.984c.322 2.159-.312 4.351-1.736 6.005-1.425 1.654-3.5 2.605-5.682 2.605zm-77.956-15h69.251l-13.219-88.375c-.926-6.195-6.349-10.866-12.612-10.866h-17.589c-6.264 0-11.686 4.671-12.611 10.866z" fill="#e207b9"/></g><g><path d="m440.534 200.759h-142.023c-16.229 0-29.433-13.204-29.433-29.433v-9.618c0-26.174 21.294-47.468 47.469-47.468h105.951c26.174 0 47.468 21.294 47.468 47.468v9.618c0 16.23-13.203 29.433-29.432 29.433zm-123.987-71.518c-17.903 0-32.469 14.565-32.469 32.468v9.618c0 7.958 6.475 14.433 14.433 14.433h142.022c7.958 0 14.433-6.475 14.433-14.433v-9.618c0-17.903-14.565-32.468-32.468-32.468z" fill="#e207b9"/></g><circle cx="199.85" cy="346.183" fill="#f95116" r="12.173"/><g><path d="m168.253 386.492h-51.552c-4.143 0-7.5-3.358-7.5-7.5s3.357-7.5 7.5-7.5h51.552c4.143 0 7.5 3.358 7.5 7.5s-3.357 7.5-7.5 7.5z" fill="#f95116"/></g><circle cx="85.106" cy="346.183" fill="#f95116" r="12.173"/><g><path d="m185.808 129.241h-86.66c-2.183 0-4.257-.951-5.682-2.604-1.425-1.654-2.059-3.846-1.736-6.005l14.506-96.984c2.016-13.482 13.816-23.648 27.447-23.648h17.59c13.631 0 25.431 10.166 27.447 23.647l14.506 96.984c.322 2.159-.312 4.351-1.736 6.005-1.425 1.654-3.499 2.605-5.682 2.605zm-77.955-15h69.25l-13.219-88.375c-.926-6.195-6.348-10.866-12.611-10.866h-17.59c-6.264 0-11.686 4.671-12.611 10.866z" fill="#f95116"/></g><g><path d="m213.489 200.759h-142.022c-16.229 0-29.433-13.204-29.433-29.433v-9.618c0-26.174 21.294-47.468 47.468-47.468h105.951c26.174 0 47.468 21.294 47.468 47.468v9.618c0 16.23-13.203 29.433-29.432 29.433zm-123.987-71.518c-17.902 0-32.468 14.565-32.468 32.468v9.618c0 7.958 6.475 14.433 14.433 14.433h142.021c7.958 0 14.433-6.475 14.433-14.433v-9.618c0-17.903-14.565-32.468-32.468-32.468z" fill="#f95116"/></g><g><path d="m415.785 512h-92.526c-29.841 0-57.87-15.921-73.15-41.552-2.121-3.558-.956-8.162 2.602-10.282 3.557-2.121 8.16-.958 10.283 2.602 12.587 21.115 35.68 34.232 60.265 34.232h92.526c28.277 0 53.656-16.833 64.656-42.884 5.541-13.123 6.958-27.435 4.098-41.39l-43.443-211.972c-.188.003-.375.005-.563.005h-142.022c-.188 0-.375-.002-.563-.005l-34.281 167.268c-.832 4.058-4.796 6.677-8.854 5.841-4.058-.832-6.673-4.795-5.842-8.853l35.709-174.232c.425-2.073 1.706-3.87 3.526-4.948 1.821-1.078 4.015-1.337 6.034-.712 1.379.426 2.815.642 4.27.642h142.022c1.454 0 2.891-.216 4.27-.642 2.02-.624 4.214-.366 6.034.712s3.102 2.875 3.526 4.948l44.871 218.937c3.471 16.938 1.751 34.31-4.975 50.236-13.348 31.618-44.151 52.049-78.473 52.049z" fill="#e207b9"/></g><g><path d="m188.742 512h-92.528c-34.321 0-65.125-20.431-78.475-52.049-6.726-15.928-8.445-33.3-4.974-50.237l44.87-218.937c.425-2.073 1.706-3.87 3.526-4.948 1.821-1.078 4.013-1.337 6.033-.712 1.38.426 2.817.642 4.271.642h142.021c1.454 0 2.891-.216 4.27-.642 2.021-.624 4.213-.366 6.034.712 1.82 1.078 3.102 2.875 3.526 4.948l44.871 218.937c3.471 16.936 1.752 34.307-4.974 50.236-13.346 31.619-44.15 52.05-78.471 52.05zm-117.838-311.246-43.443 211.972c-2.861 13.955-1.444 28.267 4.097 41.39 10.999 26.051 36.379 42.884 64.656 42.884h92.527c28.277 0 53.656-16.833 64.656-42.884 5.54-13.124 6.957-27.437 4.097-41.39l-43.443-211.972c-.188.003-.375.005-.563.005h-142.021c-.188 0-.376-.002-.563-.005z" fill="#f95116"/></g></g></svg>