<svg id="Capa_1" enable-background="new 0 0 512 512" height="512" viewBox="0 0 512 512" width="512" xmlns="http://www.w3.org/2000/svg"><g><g><path d="m310.769 393.21v86.006c0 13.964-11.32 25.284-25.284 25.284h-42.205c-13.964 0-25.284-11.32-25.284-25.284s11.32-25.284 25.284-25.284h16.921v-60.722z" fill="#ffd600"/></g><g><path d="m193.095 393.21v86.006c0 13.964-11.32 25.284-25.284 25.284h-42.205c-13.964 0-25.284-11.32-25.284-25.284s11.32-25.284 25.284-25.284h16.921v-60.722z" fill="#ffd600"/></g><g><g><path d="m285.485 512h-42.205c-18.077 0-32.784-14.707-32.784-32.784s14.707-32.784 32.784-32.784h9.421v-49.222c0-4.142 3.357-7.5 7.5-7.5s7.5 3.358 7.5 7.5v56.722c0 4.142-3.357 7.5-7.5 7.5h-16.921c-9.807 0-17.784 7.978-17.784 17.784s7.978 17.784 17.784 17.784h42.205c9.806 0 17.783-7.978 17.783-17.784v-82.006c0-4.142 3.357-7.5 7.5-7.5s7.5 3.358 7.5 7.5v82.006c.001 18.077-14.705 32.784-32.783 32.784z" fill="#f95116"/></g></g><g><g><path d="m167.812 512h-42.205c-18.077 0-32.784-14.707-32.784-32.784s14.707-32.784 32.784-32.784h9.421v-49.222c0-4.142 3.357-7.5 7.5-7.5s7.5 3.358 7.5 7.5v56.722c0 4.142-3.357 7.5-7.5 7.5h-16.921c-9.807 0-17.784 7.978-17.784 17.784s7.977 17.784 17.783 17.784h42.205c9.806 0 17.783-7.978 17.783-17.784v-82.006c0-4.142 3.357-7.5 7.5-7.5s7.5 3.358 7.5 7.5v82.006c.001 18.077-14.705 32.784-32.782 32.784z" fill="#f95116"/></g></g><path d="m142.527 393.21h50.568v33.787h-50.568z" fill="#f95116"/><path d="m260.201 393.21h50.568v33.787h-50.568z" fill="#f95116"/><path d="m390.924 52.766v63.61c-165.881-35.39-175.192 31.022-323.239 11.271-.703-22.169-9.822-43.284-25.546-59.008l-26.048-26.047c-3.856-3.857-6.019-9.087-6.019-14.531 0-11.356 9.204-20.561 20.561-20.561h315.026c25.002 0 45.265 20.262 45.265 45.266z" fill="#a4bcff"/><g><path d="m67.624 133.768c-3.979 0-7.295-3.127-7.485-7.144-.946-19.891-9.223-38.601-23.305-52.682l-26.047-26.047c-5.221-5.221-8.215-12.45-8.215-19.834 0-15.473 12.588-28.061 28.061-28.061h315.025c29.095 0 52.766 23.67 52.766 52.766v56.61c0 4.142-3.357 7.5-7.5 7.5s-7.5-3.358-7.5-7.5v-56.61c0-20.824-16.941-37.766-37.766-37.766h-315.025c-7.201 0-13.061 5.859-13.061 13.061 0 3.436 1.393 6.799 3.822 9.228l26.047 26.047c16.726 16.726 26.557 38.949 27.68 62.576.197 4.138-2.997 7.651-7.135 7.848-.121.005-.242.008-.362.008z" fill="#2115c2"/></g><path d="m390.924 116.376v222.247c0 30.149-24.438 54.587-54.587 54.587h-214.012c-30.149 0-54.587-24.438-54.587-54.587v-208.185c0-.927-.011-1.864-.053-2.791 148.047 19.751 157.358-46.661 323.239-11.271z" fill="#b98eff"/><path d="m421.307 63.11h-30.549c.101 1.233.166 2.476.166 3.734v49.532h30.384c15.107 0 27.354 12.247 27.354 27.354v97.592c0 18.178 14.736 32.914 32.914 32.914 11.24 0 20.352-9.112 20.352-20.352v-110.153c0-44.526-36.095-80.621-80.621-80.621z" fill="#7181ff"/><g><path d="m336.337 400.71h-214.013c-34.234 0-62.087-27.852-62.087-62.087v-208.185c0-.814-.008-1.638-.045-2.452-.101-2.219.788-4.369 2.426-5.869 1.637-1.5 3.846-2.202 6.059-1.904 66.949 8.931 105.419-.233 142.623-9.095 44.351-10.563 90.207-21.487 181.188-2.077 3.462.738 5.936 3.796 5.936 7.335v222.247c0 34.235-27.853 62.087-62.087 62.087zm-261.1-264.564v202.477c0 25.964 21.123 47.087 47.087 47.087h214.013c25.964 0 47.087-21.124 47.087-47.087v-216.149c-83.663-17.007-124.973-7.168-168.647 3.235-36.933 8.798-75.063 17.883-139.54 10.437z" fill="#6d00ca"/></g><g><path d="m383.504 63.655c.096-2.258.32-4.088 1.739-5.628s3.42-2.417 5.515-2.417h30.549c48.59 0 88.121 39.531 88.121 88.121v110.152c0 15.357-12.494 27.852-27.852 27.852-22.284 0-40.414-18.129-40.414-40.414v-97.591c0-10.948-8.906-19.854-19.854-19.854h-30.384c-4.143 0-7.5-3.358-7.5-7.5zm14.92 45.221h22.884c19.219 0 34.854 15.636 34.854 34.854v97.591c0 14.013 11.4 25.414 25.413 25.414 7.087 0 12.853-5.766 12.853-12.852v-110.152c0-40.319-32.802-73.121-73.121-73.121h-22.883z" fill="#2115c2"/></g><g><circle cx="294.563" cy="247.853" fill="#6d00ca" r="13.846"/></g><g><path d="m258.623 292.671h-58.638c-4.143 0-7.5-3.358-7.5-7.5s3.357-7.5 7.5-7.5h58.638c4.143 0 7.5 3.358 7.5 7.5s-3.358 7.5-7.5 7.5z" fill="#6d00ca"/></g><g><circle cx="164.045" cy="247.853" fill="#6d00ca" r="13.846"/></g></g></svg>