<svg id="Capa_1" enable-background="new 0 0 512 512" height="512" viewBox="0 0 512 512" width="512" xmlns="http://www.w3.org/2000/svg"><g><path d="m111.874 253.237h288.251c1.58 0 3.117.148 4.603.425.599-5.441.917-10.967.917-16.567.001-82.648-40.348-229.595-149.645-229.595s-149.646 146.947-149.646 229.595c0 5.601.318 11.126.917 16.567 1.487-.277 3.024-.425 4.603-.425z" fill="#ffff6f"/><path d="m348.416 462.491-50.848-14.245c-9.24-2.589-15.628-11.012-15.628-20.608v-17.838c-8.465 1.266-17.127 1.925-25.94 1.925s-17.474-.659-25.94-1.925v17.837c0 9.596-6.388 18.019-15.628 20.608l-50.848 14.245c-9.24 2.589-15.628 11.012-15.628 20.608 0 11.82 9.582 21.401 21.401 21.401h173.285c11.82 0 21.401-9.582 21.401-21.401.001-9.596-6.387-18.019-15.627-20.607z" fill="#88f8d8"/><path d="m400.125 253.237h-288.251c-16.413 0-28.375 15.678-23.895 31.467 20.775 73.226 88.229 127.021 168.021 127.021s147.246-53.795 168.021-127.021c4.48-15.789-7.483-31.467-23.896-31.467z" fill="#ff63ed"/><g><circle cx="317.218" cy="163.988" fill="#f95116" r="12.989"/><g><path d="m283.504 206.496h-55.008c-4.143 0-7.5-3.358-7.5-7.5s3.357-7.5 7.5-7.5h55.008c4.143 0 7.5 3.358 7.5 7.5s-3.358 7.5-7.5 7.5z" fill="#f95116"/></g><circle cx="194.782" cy="163.988" fill="#f95116" r="12.989"/></g><g><path d="m404.804 260.543c-.264 0-.531-.014-.8-.042-4.119-.437-7.104-4.13-6.667-8.249.536-5.062.809-10.162.809-15.158 0-37.198-8.678-94.144-33.033-142.412-18.342-36.35-52.161-79.682-109.113-79.682s-90.771 43.332-109.113 79.683c-24.354 48.268-33.032 105.213-33.032 142.412 0 4.894.26 9.883.773 14.829.428 4.12-2.565 7.806-6.686 8.234-4.132.43-7.807-2.566-8.234-6.686-.566-5.458-.854-10.968-.854-16.376 0-38.924 9.1-98.551 34.641-149.169 29.024-57.523 71.385-87.927 122.505-87.927s93.481 30.404 122.506 87.926c25.54 50.618 34.641 110.245 34.641 149.169 0 5.522-.3 11.154-.893 16.739-.409 3.85-3.663 6.709-7.45 6.709z" fill="#f95116"/></g><g><path d="m342.642 512h-173.285c-15.937 0-28.901-12.965-28.901-28.901 0-12.905 8.679-24.349 21.104-27.83l50.849-14.245c5.977-1.674 10.151-7.179 10.151-13.386v-13.838c0-4.142 3.357-7.5 7.5-7.5s7.5 3.358 7.5 7.5v13.837c0 12.904-8.679 24.348-21.104 27.83l-50.849 14.246c-5.978 1.674-10.151 7.179-10.151 13.386 0 7.665 6.236 13.901 13.901 13.901h173.285c7.665 0 13.901-6.236 13.901-13.901 0-6.207-4.174-11.712-10.151-13.386l-50.849-14.245c-12.426-3.482-21.104-14.926-21.104-27.83v-13.838c0-4.142 3.357-7.5 7.5-7.5s7.5 3.358 7.5 7.5v13.837c0 6.207 4.175 11.711 10.151 13.386l50.849 14.245c12.426 3.481 21.104 14.925 21.104 27.83.001 15.937-12.964 28.902-28.901 28.902z" fill="#007ea8"/></g><g><path d="m256 419.225c-40.391 0-78.674-13.002-110.71-37.602-31.009-23.811-53.925-57.504-64.525-94.872-2.773-9.773-.843-20.038 5.297-28.163 6.173-8.167 15.581-12.852 25.813-12.852h288.252c10.231 0 19.64 4.684 25.813 12.852 6.14 8.124 8.071 18.389 5.298 28.163-10.602 37.368-33.518 71.061-64.526 94.872-32.039 24.6-70.322 37.602-110.712 37.602zm-144.126-158.488c-5.486 0-10.533 2.514-13.845 6.896-3.279 4.339-4.313 9.815-2.835 15.024 9.728 34.287 30.763 65.208 59.231 87.068 29.393 22.57 64.517 34.5 101.574 34.5s72.182-11.93 101.574-34.5c28.469-21.86 49.504-52.782 59.232-87.068 1.478-5.209.444-10.686-2.835-15.025-3.313-4.382-8.358-6.896-13.846-6.896h-288.25z" fill="#e207b9"/></g></g></svg>