<svg id="Capa_1" enable-background="new 0 0 512 512" height="512" viewBox="0 0 512 512" width="512" xmlns="http://www.w3.org/2000/svg"><g><path d="m363.939 437.044c30.403 0 55.049-24.646 55.049-55.049h-110.098c0 30.403 24.646 55.049 55.049 55.049z" fill="#7181ff"/><path d="m102.676 437.044c30.403 0 55.049-24.646 55.049-55.049h-110.098c0 30.403 24.646 55.049 55.049 55.049z" fill="#7181ff"/><path d="m399.457 424.039c-9.588 8.108-21.978 13.005-35.518 13.005s-25.93-4.897-35.518-13.005h-190.227c-9.588 8.108-21.978 13.005-35.518 13.005s-25.93-4.897-35.518-13.005h-59.658v57.648h493.352v-57.648z" fill="#a4bcff"/><path d="m500.852 416.539h-84.802c6.588-9.906 10.438-21.782 10.438-34.543 0-4.142-3.357-7.5-7.5-7.5s-7.5 3.358-7.5 7.5c0 25.954-21.101 47.549-47.549 47.549-26.229 0-47.549-21.347-47.549-47.549 0-4.142-3.357-7.5-7.5-7.5s-7.5 3.358-7.5 7.5c0 12.762 3.85 24.638 10.438 34.543h-157.041c6.588-9.906 10.438-21.782 10.438-34.543 0-4.142-3.357-7.5-7.5-7.5s-7.5 3.358-7.5 7.5c0 26.448-21.567 47.549-47.549 47.549-26.091 0-47.549-21.173-47.549-47.549 0-4.142-3.357-7.5-7.5-7.5s-7.5 3.358-7.5 7.5c0 12.762 3.85 24.638 10.438 34.543h-43.065c-4.143 0-7.5 3.358-7.5 7.5v57.648c0 4.142 3.357 7.5 7.5 7.5h493.352c4.143 0 7.5-3.358 7.5-7.5v-57.648c0-4.142-3.358-7.5-7.5-7.5zm-7.5 57.648h-478.352v-42.648h49.51c10.89 8.392 24.393 13.005 38.166 13.005 14.007 0 27.475-4.767 38.166-13.005h184.932c10.677 8.229 24.189 13.005 38.165 13.005 13.492 0 27.087-4.468 38.166-13.005h91.247z" fill="#2115c2"/><path d="m504.5 323.994c0 16.018-6.489 30.521-16.985 41.016-10.496 10.496-24.999 16.985-41.016 16.985h-438.999v-278.103h303.162c42.163 0 81.325 21.749 103.612 57.523h-83.149c-25.447 0-41.026 27.929-27.66 49.578l47.754 77.338c5.921 9.589 16.387 15.43 27.66 15.43h121.972c2.403 6.448 3.649 13.296 3.649 20.233z" fill="#88f8d8"/><circle cx="195.551" cy="149.091" fill="#007ea8" r="9.853"/><g><path d="m169.977 183.146h-41.727c-4.143 0-7.5-3.358-7.5-7.5s3.357-7.5 7.5-7.5h41.727c4.143 0 7.5 3.358 7.5 7.5s-3.358 7.5-7.5 7.5z" fill="#007ea8"/></g><circle cx="102.676" cy="149.091" fill="#007ea8" r="9.853"/><path d="m310.662 103.892c-28.508-45.759-78.602-73.579-132.533-73.579h-170.629v73.579z" fill="#ffff6f"/><path d="m500.852 303.76h-121.972c-11.273 0-21.739-5.841-27.66-15.43l-47.754-77.338c-13.366-21.649 2.213-49.578 27.66-49.578h83.149c.09.139.179.289.269.429l81.305 131.681c2.013 3.249 3.687 6.678 5.003 10.236z" fill="#a4bcff"/><path d="m342.836 274.753h-335.336v-63.761h295.965z" fill="#ffff6f"/><g><path d="m304.297 107.857c-13.317-21.375-31.993-39.134-54.009-51.358-22.019-12.225-46.971-18.687-72.159-18.687h-163.129v66.079c0 4.142-3.357 7.5-7.5 7.5s-7.5-3.358-7.5-7.5v-73.578c0-4.142 3.357-7.5 7.5-7.5h170.629c27.73 0 55.2 7.114 79.44 20.573 24.237 13.457 44.798 33.008 59.458 56.54 2.19 3.516 1.116 8.141-2.399 10.332-3.515 2.19-8.142 1.115-10.331-2.401z" fill="#f90"/></g><g><path d="m303.466 218.492h-295.966c-4.143 0-7.5-3.358-7.5-7.5s3.357-7.5 7.5-7.5h295.966c4.143 0 7.5 3.358 7.5 7.5s-3.358 7.5-7.5 7.5z" fill="#f90"/></g><g><path d="m342.836 282.253h-335.336c-4.143 0-7.5-3.358-7.5-7.5s3.357-7.5 7.5-7.5h335.336c4.143 0 7.5 3.358 7.5 7.5s-3.357 7.5-7.5 7.5z" fill="#f90"/></g><g><path d="m446.499 389.495h-438.999c-4.143 0-7.5-3.358-7.5-7.5v-278.103c0-4.142 3.357-7.5 7.5-7.5h303.162c21.956 0 43.707 5.633 62.899 16.289 19.191 10.655 35.471 26.136 47.078 44.768 2.19 3.516 1.116 8.141-2.399 10.331-3.514 2.19-8.142 1.116-10.331-2.4-21.062-33.806-57.416-53.988-97.247-53.988h-295.662v263.104h431.499c13.493 0 26.177-5.252 35.714-14.788 9.535-9.536 14.787-22.219 14.787-35.713 0-6.031-1.068-11.957-3.177-17.616-1.446-3.882.528-8.2 4.41-9.646 3.883-1.445 8.199.528 9.646 4.41 2.733 7.339 4.12 15.028 4.12 22.852 0 17.501-6.812 33.951-19.182 46.32-12.368 12.368-28.818 19.18-46.318 19.18z" fill="#007ea8"/></g><g><path d="m500.852 311.26h-121.972c-13.974 0-26.699-7.099-34.042-18.989l-47.754-77.338c-7.727-12.514-8.061-27.654-.895-40.501 7.167-12.848 20.227-20.518 34.936-20.518h83.149c2.55 0 4.924 1.295 6.305 3.438l.291.462c.018.029.036.058.055.088l81.306 131.681c2.264 3.655 4.168 7.553 5.656 11.576.851 2.301.521 4.874-.881 6.887-1.402 2.014-3.7 3.214-6.154 3.214zm-169.727-142.346c-9.193 0-17.356 4.794-21.836 12.825-4.479 8.03-4.271 17.493.559 25.313l47.754 77.338c4.589 7.433 12.544 11.87 21.278 11.87h109.844l-78.629-127.346z" fill="#2115c2"/></g></g></svg>