<svg id="Capa_1" enable-background="new 0 0 512 512" height="512" viewBox="0 0 512 512" width="512" xmlns="http://www.w3.org/2000/svg"><g><g><path d="m234.364 228.234c13.769-6.142 29.502-6.142 43.271 0l106.39 47.456v-133.366h-256.05v133.367z" fill="#ddbeff"/></g><path d="m202.031 48.977h107.939v41.906h-107.939z" fill="#ff9bff"/><path d="m399.132 90.883h-286.264c-9.256 0-16.76 7.504-16.76 16.76v17.921c0 9.256 7.504 16.76 16.76 16.76h286.264c9.256 0 16.76-7.504 16.76-16.76v-17.921c0-9.256-7.504-16.76-16.76-16.76z" fill="#ff9bff"/><g><g><path d="m127.975 283.191c-4.143 0-7.5-3.358-7.5-7.5v-133.367c0-4.142 3.357-7.5 7.5-7.5s7.5 3.358 7.5 7.5v133.367c0 4.142-3.357 7.5-7.5 7.5z" fill="#6d00ca"/></g><g><path d="m384.026 283.191c-4.143 0-7.5-3.358-7.5-7.5v-133.367c0-4.142 3.357-7.5 7.5-7.5s7.5 3.358 7.5 7.5v133.367c0 4.142-3.358 7.5-7.5 7.5z" fill="#6d00ca"/></g></g><circle cx="302.451" cy="171.058" fill="#6d00ca" r="9.856"/><g><path d="m276.87 205.122h-41.738c-4.143 0-7.5-3.358-7.5-7.5s3.357-7.5 7.5-7.5h41.738c4.143 0 7.5 3.358 7.5 7.5s-3.358 7.5-7.5 7.5z" fill="#6d00ca"/></g><circle cx="209.549" cy="171.058" fill="#6d00ca" r="9.856"/><path d="m291.395 436.531c22.123-11.792 48.666-11.792 70.79 0 6.654 3.547 13.709 6.018 20.921 7.432l24.803-97.569-130.273-58.107c-6.88-3.071-14.258-4.616-21.636-4.616v161.705c12.167-.001 24.333-2.949 35.395-8.845z" fill="#9448f5"/><path d="m149.816 436.531c22.123-11.792 48.666-11.792 70.79 0 11.062 5.896 23.228 8.844 35.395 8.844v-161.705c-7.378 0-14.756 1.545-21.636 4.616l-130.273 58.107 24.803 97.569c7.212-1.413 14.267-3.885 20.921-7.431z" fill="#9448f5"/><path d="m256 283.67v161.705" style="fill:none;stroke:#6d00ca;stroke-width:15;stroke-linecap:round;stroke-linejoin:round;stroke-miterlimit:10"/><g><path d="m383.112 451.464c-.612 0-1.233-.075-1.854-.233-4.015-1.02-6.441-5.102-5.421-9.117l24.803-97.569c1.02-4.015 5.105-6.441 9.116-5.421 4.015 1.021 6.441 5.102 5.421 9.117l-24.803 97.569c-.862 3.394-3.914 5.654-7.262 5.654z" fill="#6d00ca"/></g><g><path d="m128.888 451.464c-3.349 0-6.4-2.26-7.263-5.654l-24.803-97.569c-1.021-4.014 1.406-8.096 5.421-9.117 4.011-1.019 8.097 1.406 9.116 5.421l24.803 97.569c1.021 4.014-1.406 8.096-5.421 9.117-.619.158-1.241.233-1.853.233z" fill="#6d00ca"/></g><g><path d="m256 452.875c-4.143 0-7.5-3.358-7.5-7.5v-161.706c0-4.142 3.357-7.5 7.5-7.5s7.5 3.358 7.5 7.5v161.705c0 4.143-3.357 7.501-7.5 7.501z" fill="#6d00ca"/></g><path d="m414.888 318.925-6.979 27.468-130.273-58.107c-13.769-6.152-29.502-6.152-43.271 0l-130.273 58.107-6.979-27.468c-3.888-15.295 3.799-31.157 18.206-37.588l119.046-53.102c13.769-6.142 29.502-6.142 43.271 0l119.046 53.102c14.407 6.43 22.095 22.293 18.206 37.588z" fill="#ff63ed"/><g><path d="m404.853 353.243-130.272-58.107c-11.808-5.276-25.351-5.277-37.156-.002l-130.277 58.109c-4.257 1.898-9.184-.508-10.324-5.002l-6.979-27.468c-4.799-18.878 4.629-38.344 22.418-46.284l119.048-53.103c15.691-6.999 33.689-7 49.383 0l119.046 53.102c17.791 7.941 27.219 27.407 22.419 46.286v-.001l-6.979 27.468c-1.147 4.51-6.085 6.893-10.327 5.002zm-167.433-118.159-119.047 53.102c-11.103 4.956-16.988 17.107-13.993 28.891l4.787 18.84 122.143-54.48c15.688-7.01 33.69-7.01 49.386.002l122.137 54.478 4.787-18.839v-.001c2.996-11.784-2.89-23.935-13.994-28.891l-119.045-53.101c-11.807-5.267-25.352-5.269-37.161-.001z" fill="#e207b9"/></g><path d="m8.236 436.531c22.123-11.792 48.666-11.792 70.79 0 22.123 11.792 48.666 11.792 70.79 0 22.123-11.792 48.666-11.792 70.79 0 22.123 11.792 48.666 11.792 70.79 0 22.123-11.792 48.666-11.792 70.79 0 22.123 11.792 48.666 11.792 70.79 0 22.123-11.792 48.666-11.792 70.79 0v67.969h-495.53z" fill="#7181ff"/><g><path d="m503.764 512h-495.528c-4.143 0-7.5-3.358-7.5-7.5v-67.969c0-2.771 1.527-5.315 3.973-6.619 24.372-12.991 53.475-12.991 77.845 0 19.955 10.636 43.78 10.636 63.735 0 24.37-12.991 53.473-12.991 77.845 0 19.953 10.636 43.78 10.636 63.733 0 24.373-12.991 53.475-12.991 77.846 0 19.955 10.636 43.78 10.636 63.733 0 24.373-12.991 53.474-12.991 77.847 0 2.444 1.303 3.972 3.848 3.972 6.619v67.969c-.001 4.142-3.358 7.5-7.501 7.5zm-488.028-15h480.528v-55.805c-19.089-8.636-41.116-7.984-59.763 1.955-24.371 12.991-53.475 12.99-77.844 0-19.955-10.636-43.78-10.636-63.735 0-24.371 12.991-53.474 12.991-77.845 0-19.955-10.636-43.78-10.636-63.733 0-24.373 12.991-53.474 12.991-77.847 0-18.647-9.939-40.673-10.59-59.762-1.955v55.805z" fill="#2115c2"/></g><path d="m309.97 30.462v18.515h-107.939v-18.515c0-12.682 10.269-22.962 22.952-22.962h62.036c12.681 0 22.951 10.279 22.951 22.962z" fill="#ff63ed"/><path d="m399.132 83.383h-81.662c0-9.913 0-42.608 0-52.921 0-16.797-13.661-30.462-30.452-30.462h-62.036c-16.791 0-30.451 13.665-30.451 30.462v52.921h-81.662c-13.377 0-24.261 10.883-24.261 24.26v17.92c0 13.377 10.884 24.26 24.261 24.26h286.264c13.377 0 24.26-10.883 24.26-24.26v-17.92c-.001-13.377-10.884-24.26-24.261-24.26zm-189.601-52.921c0-8.526 6.932-15.462 15.451-15.462h62.036c8.521 0 15.452 6.936 15.452 15.462v11.015h-92.939zm0 26.015h92.939v26.906h-92.939zm198.861 69.086c0 5.106-4.154 9.26-9.26 9.26h-286.263c-5.106 0-9.261-4.154-9.261-9.26v-17.92c0-5.106 4.154-9.26 9.261-9.26h286.264c5.105 0 9.26 4.154 9.26 9.26v17.92z" fill="#e207b9"/></g></svg>