<svg id="Capa_1" enable-background="new 0 0 512 512" height="512" viewBox="0 0 512 512" width="512" xmlns="http://www.w3.org/2000/svg"><g><path d="m390.504 91.932h-300.68v276.432c0 17.492 14.18 31.672 31.672 31.672h269.008c17.492 0 31.672-14.18 31.672-31.672v-244.761c0-17.491-14.18-31.671-31.672-31.671z" fill="#a4bcff"/><path d="m347.518 9.054-257.694 82.878h299.062v-52.727c0-21.477-20.923-36.726-41.368-30.151z" fill="#7181ff"/><circle cx="303.069" cy="133.19" fill="#2115c2" r="9.987"/><circle cx="208.93" cy="133.19" fill="#2115c2" r="9.987"/><g><path d="m338.125 400.036v80.731c0 13.107-10.626 23.733-23.733 23.733h-39.616c-13.107 0-23.733-10.626-23.733-23.733s10.626-23.733 23.733-23.733h15.883v-56.998z" fill="#7181ff"/></g><g><path d="m227.668 400.036v80.731c0 13.107-10.626 23.733-23.733 23.733h-39.616c-13.107 0-23.733-10.626-23.733-23.733s10.626-23.733 23.733-23.733h15.883v-56.998z" fill="#7181ff"/></g><g fill="#2115c2"><path d="m180.202 400.036h47.466v31.714h-47.466z"/><path d="m290.658 400.036h47.466v31.714h-47.466z"/><g><path d="m277.147 152.607h-42.294c-4.142 0-7.5 3.358-7.5 7.5 0 4.143 3.357 7.5 7.5 7.5h42.294c4.142 0 7.5-3.357 7.5-7.5-.001-4.142-3.358-7.5-7.5-7.5z"/><path d="m396.386 84.874v-45.669c0-26.59-25.854-45.433-51.165-37.29l-257.597 82.846c-3.203 1.005-5.3 3.941-5.3 7.17v276.432c0 21.6 17.572 39.172 39.171 39.172h51.207v41.999h-8.384c-17.221 0-31.233 14.011-31.233 31.233s14.011 31.233 31.233 31.233h39.616c17.221 0 31.233-14.011 31.233-31.233v-73.231h47.99v41.999h-8.383c-17.222 0-31.234 14.011-31.234 31.233s14.011 31.233 31.234 31.233h39.616c17.221 0 31.233-14.011 31.233-31.233v-73.231h44.879c21.599 0 39.172-17.572 39.172-39.172v-244.76c.002-19.602-14.469-35.884-33.288-38.731zm-46.573-68.68c15.619-5.022 31.574 6.6 31.574 23.011v45.227h-243.747zm-129.645 464.573c0 8.951-7.282 16.234-16.233 16.234h-39.616c-8.951 0-16.233-7.282-16.233-16.234 0-8.951 7.282-16.233 16.233-16.233h15.883c4.143 0 7.5-3.358 7.5-7.5v-49.499h32.466zm110.457 0c0 8.951-7.282 16.234-16.233 16.234h-39.616c-8.951 0-16.234-7.282-16.234-16.234 0-8.951 7.283-16.233 16.234-16.233h15.883c4.142 0 7.5-3.358 7.5-7.5v-49.499h32.467v73.232zm84.051-112.403c0 13.329-10.844 24.172-24.172 24.172-194.359 0-156.482 0-269.008 0-13.328 0-24.171-10.843-24.171-24.172v-268.933h291.562 1.617c13.329 0 24.172 10.844 24.172 24.172z"/></g></g><circle cx="256" cy="279.21" fill="#88f8d8" r="89.121"/><path d="m352.621 279.21c0-53.527-43.578-96.621-96.621-96.621-53.16 0-96.621 43.239-96.621 96.621 0 53.295 43.384 96.621 96.621 96.621 53.475-.001 96.621-43.539 96.621-96.621zm-89.122 81.262v-37.3c8.429.373 16.722 1.291 24.781 2.738-3.038 11.637-7.21 22.591-12.422 32.465-4.01 1.008-8.139 1.711-12.359 2.097zm-27.358-2.096c-5.267-9.979-9.471-21.06-12.517-32.834 8.104-1.354 16.431-2.173 24.875-2.45v37.381c-4.219-.387-8.347-1.09-12.358-2.097zm-61.404-71.666h28.239c.337 9.233 1.29 18.359 2.83 27.249-6.97 1.762-13.733 3.912-20.24 6.42-5.902-10.057-9.713-21.476-10.829-33.669zm10.829-48.67c6.506 2.509 13.27 4.659 20.24 6.42-1.541 8.89-2.494 18.017-2.83 27.25h-28.239c1.116-12.194 4.927-23.613 10.829-33.67zm62.934-40.093v37.381c-8.444-.277-16.771-1.096-24.875-2.451 3.046-11.775 7.25-22.855 12.517-32.834 4.01-1.006 8.138-1.709 12.358-2.096zm27.359 2.096c5.212 9.874 9.383 20.828 12.422 32.465-8.06 1.446-16.352 2.365-24.781 2.738v-37.3c4.219.388 8.348 1.091 12.359 2.097zm61.403 71.667h-28.238c-.344-9.427-1.324-18.744-2.922-27.81 6.863-1.823 13.52-4.019 19.919-6.575 6.142 10.228 10.098 21.904 11.241 34.385zm-43.249 0h-30.513v-21.456c9.501-.391 18.858-1.425 27.951-3.083 1.377 7.997 2.236 16.214 2.562 24.539zm-45.513-21.374v21.374h-30.512c.32-8.19 1.16-16.275 2.498-24.149 9.129 1.559 18.51 2.484 28.014 2.775zm-30.513 36.374h30.513v21.374c-9.503.29-18.885 1.216-28.014 2.774-1.339-7.874-2.178-15.959-2.499-24.148zm45.512 21.455v-21.455h30.513c-.326 8.324-1.185 16.542-2.562 24.538-9.093-1.658-18.449-2.692-27.951-3.083zm45.526-21.455h28.238c-1.143 12.481-5.099 24.157-11.241 34.385-6.399-2.556-13.057-4.752-19.919-6.575 1.597-9.067 2.578-18.384 2.922-27.81zm7.76-61.898c-4.498 1.664-9.13 3.134-13.873 4.415-1.881-7.289-4.17-14.345-6.851-21.089 7.79 4.409 14.791 10.051 20.724 16.674zm-100.846-16.674c-2.749 6.915-5.087 14.156-6.994 21.641-4.876-1.25-9.638-2.703-14.264-4.351 6.048-6.888 13.23-12.747 21.258-17.29zm-21.258 124.854c4.626-1.648 9.388-3.102 14.264-4.351 1.908 7.485 4.245 14.726 6.994 21.641-8.028-4.543-15.21-10.403-21.258-17.29zm101.38 17.29c2.681-6.744 4.97-13.801 6.851-21.089 4.743 1.281 9.375 2.752 13.873 4.415-5.934 6.623-12.934 12.265-20.724 16.674z" fill="#007ea8"/></g></svg>