<svg id="Capa_1" enable-background="new 0 0 512 512" height="512" viewBox="0 0 512 512" width="512" xmlns="http://www.w3.org/2000/svg"><g><path d="m219.521 417.139c-16.588-1.546-32.451-5.583-47.212-11.741v51.89h-15.798c-13.037 0-23.606 10.569-23.606 23.606s10.569 23.606 23.606 23.606h39.404c9.117 0 17.021-5.172 20.954-12.739-1.691-3.254-2.652-6.947-2.652-10.867 0-5.654 1.99-10.841 5.304-14.906z" fill="#ff63ed"/><path d="m277.227 417.857h-23.606v39.431h-15.798c-13.037 0-23.606 10.569-23.606 23.606s10.569 23.606 23.606 23.606h39.404c13.037 0 23.606-10.569 23.606-23.606v-64.751c-7.708 1.123-15.587 1.714-23.606 1.714z" fill="#ff63ed"/><g fill="#e207b9"><path d="m300.833 408.643c-4.142 0-7.5 3.358-7.5 7.5v64.751c0 8.88-7.225 16.105-16.106 16.105h-39.404c-8.915 0-16.106-7.269-16.106-16.105 0-8.907 7.239-16.106 16.106-16.106h15.798c4.142 0 7.5-3.357 7.5-7.5v-39.431c0-4.142-3.358-7.5-7.5-7.5s-7.5 3.358-7.5 7.5v31.931h-8.298c-3.796 0-7.435.687-10.801 1.937v-34.586c0-4.142-3.358-7.5-7.5-7.5s-7.5 3.358-7.5 7.5v46.386c-3.578 5.321-5.305 11.458-5.305 17.37 0 3.213.529 6.708 1.705 10.147-3.024 3.736-7.581 5.958-12.506 5.958h-39.404c-8.881 0-16.106-7.225-16.106-16.105 0-8.881 7.225-16.106 16.106-16.106h15.798c4.142 0 7.5-3.357 7.5-7.5v-51.89c0-4.142-3.358-7.5-7.5-7.5s-7.5 3.358-7.5 7.5v44.39h-8.298c-17.152 0-31.106 13.954-31.106 31.106 0 17.151 13.954 31.105 31.106 31.105h39.404c7.917 0 15.334-2.975 20.966-8.126 5.531 5.045 12.883 8.126 20.941 8.126h39.404c17.152 0 31.106-13.954 31.106-31.105v-64.751c0-4.143-3.358-7.501-7.5-7.501z"/><path d="m172.31 437.784c14.994 5.152 30.817 8.505 47.212 9.795v-30.44c-16.588-1.546-32.451-5.583-47.212-11.741z"/><path d="m253.621 417.857v29.401c16.423-1.602 32.249-5.267 47.212-10.744v-20.371c-7.707 1.123-15.587 1.714-23.605 1.714z"/></g><circle cx="234.773" cy="255.489" fill="#b98eff" r="162.369"/><path d="m257.964 93.12v-42.113h-46.383v43.769c7.576-1.084 15.316-1.656 23.192-1.656z" fill="#ff9bff"/><path d="m252.44 7.5h-35.336c-15.03 0-27.214 12.184-27.214 27.214 0 8.999 7.295 16.293 16.293 16.293h57.176c8.999 0 16.293-7.295 16.293-16.293.002-15.03-12.182-27.214-27.212-27.214z" fill="#ffd600"/><g><path d="m211.581 102.276c-4.142 0-7.5-3.358-7.5-7.5v-43.769c0-4.142 3.358-7.5 7.5-7.5s7.5 3.358 7.5 7.5v43.769c0 4.142-3.358 7.5-7.5 7.5z" fill="#e207b9"/></g><g><path d="m257.964 100.62c-4.142 0-7.5-3.358-7.5-7.5v-42.113c0-4.142 3.358-7.5 7.5-7.5s7.5 3.358 7.5 7.5v42.113c0 4.142-3.358 7.5-7.5 7.5z" fill="#e207b9"/></g><g><path d="m263.361 58.507h-57.176c-13.12 0-23.793-10.674-23.793-23.793-.001-19.141 15.572-34.714 34.713-34.714h35.335c19.141 0 34.714 15.572 34.714 34.714 0 13.119-10.674 23.793-23.793 23.793zm-46.256-43.507c-10.87 0-19.713 8.844-19.713 19.714 0 4.849 3.945 8.793 8.793 8.793h57.176c4.849 0 8.793-3.945 8.793-8.793 0-10.87-8.844-19.714-19.714-19.714z" fill="#f95116"/></g><ellipse cx="234.771" cy="255.486" fill="#ddbeff" rx="116.88" ry="116.88" transform="matrix(.707 -.707 .707 .707 -111.893 240.839)"/><g fill="#ff63ed"><path d="m203.125 250.075c.643-3.761 1.919-7.253 3.695-10.394l-45.702 26.36c-5.71 3.307-9.015 9.977-7.711 16.826 1.65 8.667 10.014 14.355 18.681 12.705l51.847-9.871c-14.405-5.147-23.477-20.029-20.81-35.626z"/><path d="m316.136 228.105c-1.65-8.667-10.014-14.355-18.681-12.705l-51.847 9.871c14.403 5.148 23.475 20.03 20.808 35.626-.643 3.761-1.919 7.253-3.695 10.394l45.702-26.36c5.712-3.307 9.017-9.977 7.713-16.826z"/></g><circle cx="234.771" cy="255.486" fill="#ffd600" r="32.105"/><path d="m439.596 255.489c0 89.67-72.698 162.369-162.369 162.369h-42.455c89.67 0 162.369-72.698 162.369-162.369s-72.698-162.369-162.368-162.369h42.455c89.669 0 162.368 72.698 162.368 162.369z" fill="#9448f5"/><circle cx="273.765" cy="174.786" fill="#6d00ca" r="8.274"/><circle cx="195.777" cy="174.786" fill="#6d00ca" r="8.274"/><g><g><path d="m155.897 299.291c-5.185-3.526-8.686-8.861-9.858-15.02-1.863-9.784 2.686-19.718 11.32-24.718l45.714-26.367c3.586-2.069 8.173-.839 10.244 2.75 2.07 3.588.839 8.174-2.75 10.244l-45.703 26.36c-3.115 1.804-4.763 5.394-4.09 8.926.875 4.599 5.307 7.617 9.91 6.74l51.847-9.871c4.071-.775 7.996 1.896 8.771 5.965s-1.896 7.996-5.965 8.77l-51.847 9.871c-6.043 1.15-12.31-.056-17.593-3.65z" fill="#e207b9"/></g><g><path d="m256.226 275.038c-2.07-3.588-.839-8.174 2.75-10.244l45.702-26.36c3.115-1.804 4.764-5.394 4.091-8.926-.875-4.599-5.308-7.618-9.91-6.74l-51.847 9.871c-4.07.774-7.996-1.896-8.771-5.965s1.896-7.996 5.965-8.77l51.847-9.871c12.74-2.425 25.024 5.92 27.451 18.67 1.863 9.785-2.686 19.718-11.321 24.718l-45.713 26.367c-3.611 2.082-8.188.815-10.244-2.75z" fill="#e207b9"/></g></g><g><path d="m234.771 295.092c-21.838 0-39.605-17.767-39.605-39.605s17.767-39.605 39.605-39.605 39.605 17.767 39.605 39.605-17.767 39.605-39.605 39.605zm0-64.211c-13.567 0-24.605 11.038-24.605 24.605s11.038 24.605 24.605 24.605 24.605-11.038 24.605-24.605-11.038-24.605-24.605-24.605z" fill="#f95116"/></g><g fill="#6d00ca"><path d="m252.29 189.585h-35.038c-4.142 0-7.5 3.358-7.5 7.5s3.358 7.5 7.5 7.5h35.038c4.142 0 7.5-3.358 7.5-7.5s-3.358-7.5-7.5-7.5z"/><path d="m359.151 255.486c0-68.583-55.796-124.38-124.38-124.38s-124.38 55.797-124.38 124.38 55.796 124.38 124.38 124.38 124.38-55.797 124.38-124.38zm-124.38 109.38c-60.312 0-109.38-49.067-109.38-109.38s49.068-109.38 109.38-109.38 109.38 49.067 109.38 109.38-49.068 109.38-109.38 109.38z"/><path d="m277.227 85.62h-42.455c-93.666 0-169.869 76.203-169.869 169.869s76.203 169.869 169.869 169.869h42.455c93.666 0 169.869-76.203 169.869-169.869s-76.203-169.869-169.869-169.869zm-197.323 169.869c0-85.395 69.474-154.869 154.869-154.869s154.869 69.474 154.869 154.869-69.474 154.869-154.869 154.869-154.869-69.474-154.869-154.869zm233.313 150.647c.254-.133.501-.276.754-.411 54.391-28.784 90.669-85.725 90.669-150.236 0-63.123-35.149-121.185-91.424-150.647 68.1 16.265 118.878 77.636 118.878 150.647.002 73.01-50.776 134.382-118.877 150.647z"/></g></g></svg>