<svg id="Capa_1" enable-background="new 0 0 512 512" height="512" viewBox="0 0 512 512" width="512" xmlns="http://www.w3.org/2000/svg"><g><circle cx="96.673" cy="373.462" fill="#ffd600" r="89.172"/><circle cx="307.354" cy="373.462" fill="#ffd600" r="89.172"/><circle cx="147.393" cy="195.117" fill="#f90" r="89.172"/><path d="m307.354 417.645c-24.362 0-44.183-19.82-44.183-44.184 0-24.362 19.82-44.183 44.183-44.183s44.184 19.82 44.184 44.183c-.001 24.364-19.821 44.184-44.184 44.184z" fill="#ffff6f"/><path d="m96.672 417.645c-24.362 0-44.183-19.82-44.183-44.184 0-24.362 19.82-44.183 44.183-44.183s44.184 19.82 44.184 44.183c0 24.364-19.821 44.184-44.184 44.184z" fill="#ffff6f"/><path d="m218.182 373.462c0-30.127 14.942-56.762 37.818-72.905-14.519-10.246-32.233-16.267-51.354-16.267h-107.973c49.248 0 89.172 39.924 89.172 89.172s-39.924 89.172-89.172 89.172h107.974c19.121 0 36.835-6.021 51.354-16.267-22.877-16.143-37.819-42.778-37.819-72.905z" fill="#f90"/><path d="m415.328 284.29h-107.974c49.248 0 89.172 39.924 89.172 89.172s-39.924 89.172-89.172 89.172h107.974c49.248 0 89.172-39.924 89.172-89.172s-39.923-89.172-89.172-89.172z" fill="#f90"/><path d="m147.393 239.301c-24.362 0-44.183-19.82-44.183-44.184 0-24.362 19.82-44.183 44.183-44.183s44.184 19.82 44.184 44.183c-.001 24.363-19.821 44.184-44.184 44.184z" fill="#ffff6f"/><path d="m414.471 192.064c-1.61-48.225-41.989-86.119-90.241-86.119-8.385 0-14.512-7.917-12.41-16.034l6.046-23.346c2.255-8.707-4.318-17.2-13.313-17.2h-11.876c-9.938 0-19.094 5.392-23.915 14.082l-19.91 35.895c-2.26 4.074-6.552 6.601-11.211 6.601h-90.248c49.248 0 89.172 39.924 89.172 89.172s-39.924 89.172-89.172 89.172h57.253c19.121 0 36.835 6.021 51.354 16.267 0 0-.001 0-.001.001 14.519-10.246 32.233-16.268 51.355-16.268h17.996c50.262.003 90.812-41.582 89.121-92.223z" fill="#ffd600"/><g fill="#f95116"><circle cx="367.209" cy="185.741" r="9.883"/><circle cx="274.054" cy="185.741" r="9.883"/><g><path d="m299.705 219.877h41.853c4.143 0 7.5-3.358 7.5-7.5s-3.357-7.5-7.5-7.5h-41.853c-4.143 0-7.5 3.358-7.5 7.5s3.357 7.5 7.5 7.5z"/><path d="m307.354 321.779c-28.498 0-51.683 23.185-51.683 51.683s23.185 51.684 51.683 51.684 51.684-23.186 51.684-51.684-23.186-51.683-51.684-51.683zm0 88.367c-20.227 0-36.683-16.457-36.683-36.684s16.456-36.683 36.683-36.683c20.228 0 36.684 16.456 36.684 36.683s-16.457 36.684-36.684 36.684z"/><path d="m148.355 373.462c0-28.498-23.186-51.683-51.684-51.683s-51.683 23.185-51.683 51.683 23.185 51.684 51.683 51.684 51.684-23.186 51.684-51.684zm-51.683 36.684c-20.227 0-36.683-16.457-36.683-36.684s16.456-36.683 36.683-36.683c20.228 0 36.684 16.456 36.684 36.683s-16.457 36.684-36.684 36.684z"/><path d="m415.328 276.79h-38.183c28.054-17.887 46.011-49.342 44.823-84.976-1.742-52.155-45.272-93.369-97.737-93.369-3.498 0-6.02-3.294-5.149-6.653l6.046-23.346c3.484-13.452-6.663-26.58-20.574-26.58h-11.876c-12.658 0-24.335 6.876-30.474 17.944l-19.91 35.895c-.938 1.69-2.72 2.739-4.652 2.739h-90.247c-.001 0-.002 0-.003 0-53.304.001-96.67 43.368-96.67 96.672 0 34.326 17.986 64.527 45.025 81.684-52.881.501-95.747 43.666-95.747 96.662 0 53.305 43.367 96.672 96.673 96.672h107.974c18.342 0 35.992-5.108 51.377-14.791 14.884 9.365 32.485 14.791 51.331 14.791h107.974c53.305 0 96.672-43.367 96.672-96.672-.001-53.306-43.368-96.672-96.673-96.672zm-26.302 96.672c0 45.034-36.638 81.672-81.672 81.672-45.293 0-81.673-36.942-81.673-81.672 0-44.981 36.591-81.672 81.673-81.672 45.035 0 81.672 36.638 81.672 81.672zm-151.385-260.017c7.381 0 14.189-4.009 17.77-10.463l19.91-35.895c3.497-6.304 10.147-10.22 17.356-10.22h11.876c4.088 0 7.08 3.858 6.053 7.819l-6.046 23.345c-3.331 12.866 6.373 25.414 19.671 25.414 21.481 0 41.884 8.138 57.447 22.914 1.6 1.519 3.112 3.104 4.57 4.725h-36.753c-4.143 0-7.5 3.358-7.5 7.5s3.357 7.5 7.5 7.5h47.464c6.114 11.03 9.587 23.37 10.016 36.23 1.546 46.286-35.403 84.476-81.626 84.476h-17.995c-18.415 0-36.127 5.181-51.354 14.756-23.107-14.526-39.646-13.79-56.933-14.756.055-.035.108-.072.162-.106 7.79-4.966 14.706-10.977 20.425-17.42h50.179c4.143 0 7.5-3.358 7.5-7.5s-3.357-7.5-7.5-7.5h-39.225c8.805-14.85 13.457-31.791 13.457-49.146 0-32.765-16.591-63.561-44.998-81.672h38.574zm-171.92 81.672c0-45.034 36.639-81.672 81.673-81.672s81.672 36.638 81.672 81.672-36.638 81.672-81.672 81.672-81.673-36.638-81.673-81.672zm-50.721 178.345c0-45.034 36.639-81.672 81.673-81.672s81.672 36.638 81.672 81.672-36.638 81.672-81.672 81.672-81.673-36.638-81.673-81.672zm189.646 81.672h-56.3c26.497-16.579 44.998-47.005 44.998-81.672 0-33.072-16.912-63.848-44.998-81.672h56.3c13.044 0 26.175 3.057 38.341 9.551-19.895 17.784-32.305 43.804-32.305 72.121 0 28.836 12.806 54.696 32.314 72.129-11.746 6.268-24.826 9.543-38.35 9.543zm210.682 0h-56.3c13.814-8.643 26.396-22.028 34.438-37.764h37.772c4.143 0 7.5-3.357 7.5-7.5 0-4.142-3.357-7.5-7.5-7.5h-31.628c2.901-9.226 4.416-19.061 4.416-28.908 0-9.485-1.401-19.302-4.416-28.909h31.628c4.143 0 7.5-3.358 7.5-7.5s-3.357-7.5-7.5-7.5h-37.772c-7.905-15.419-19.867-28.516-34.438-37.764h56.3c42.504 0 77.513 32.642 81.313 74.172h-31.71c-4.143 0-7.5 3.358-7.5 7.5s3.357 7.5 7.5 7.5h31.71c-3.8 41.531-38.808 74.173-81.313 74.173z"/><path d="m199.076 195.117c0-28.498-23.186-51.683-51.684-51.683s-51.682 23.185-51.682 51.683 23.185 51.684 51.683 51.684 51.683-23.186 51.683-51.684zm-51.683 36.684c-20.227 0-36.683-16.456-36.683-36.684 0-20.227 16.456-36.683 36.683-36.683 20.228 0 36.684 16.456 36.684 36.683-.001 20.228-16.457 36.684-36.684 36.684z"/></g></g></g></svg>