<svg id="Capa_1" enable-background="new 0 0 512 512" height="512" viewBox="0 0 512 512" width="512" xmlns="http://www.w3.org/2000/svg"><g><g><path d="m409.155 158.031c1.314 3.417 2.041 7.125 2.041 11.005v37.68c22.969 11.743 38.741 35.632 38.741 63.152s-15.772 51.409-38.741 63.152v33.587c0 5.733-1.577 11.095-4.314 15.685 50.457-12.498 87.975-58.158 87.975-112.424 0-53.448-36.395-98.548-85.702-111.837z" fill="#b98eff"/></g><path d="m411.107 150.79c-4-1.077-8.116 1.29-9.193 5.29-1.078 4 1.29 8.116 5.289 9.193 47.193 12.72 80.154 55.73 80.154 104.595 0 24.653-8.105 47.895-23.44 67.212-14.884 18.75-35.779 32.221-58.837 37.932-4.021.996-6.473 5.063-5.478 9.083.847 3.416 3.907 5.699 7.274 5.699.597 0 1.204-.072 1.809-.222 26.259-6.504 50.046-21.834 66.98-43.166 17.462-21.997 26.691-48.463 26.691-76.538.001-55.632-37.523-104.598-91.249-119.078z" fill="#6d00ca"/><path d="m407.782 326.341c-3.688 1.886-5.149 6.404-3.264 10.092 1.326 2.595 3.957 4.088 6.684 4.088 1.149 0 2.315-.265 3.408-.824 26.417-13.505 42.827-40.262 42.827-69.829s-16.41-56.324-42.827-69.829c-3.688-1.885-8.207-.425-10.092 3.264-1.886 3.688-.425 8.206 3.264 10.092 21.376 10.929 34.655 32.568 34.655 56.474s-13.279 45.543-34.655 56.472z" fill="#6d00ca"/><path d="m263.247 138.34c-11.949 25.365-18.158 53.046-18.158 81.526 0 2.805-2.286 5.081-5.091 5.081h-157.371c-2.805 0-5.081-2.276-5.081-5.081 0-29.338 8.914-57.528 25.774-81.526z" fill="#17d9c3"/><g><path d="m275.423 397.292v83.759c0 12.951-10.499 23.449-23.449 23.449h-39.142c-12.951 0-23.449-10.499-23.449-23.449 0-12.951 10.499-23.449 23.449-23.449h15.693v-60.309h46.898z" fill="#17d9c3"/></g><g><path d="m166.288 397.292v83.759c0 12.951-10.499 23.449-23.449 23.449h-39.142c-12.951 0-23.449-10.499-23.449-23.449 0-12.951 10.499-23.449 23.449-23.449h15.693v-60.309h46.898z" fill="#17d9c3"/></g><path d="m219.532 261.642c-11.305 0-20.469 9.164-20.469 20.469v33.643c0 11.305 9.164 20.469 20.469 20.469s20.469-9.164 20.469-20.469v-33.643c-.001-11.305-9.165-20.469-20.469-20.469z" fill="#b98eff"/><path d="m345.182 397.292h-247.561c-32.243 0-58.387-26.144-58.387-58.387v-85.319c10.481 13.466 26.493 21.272 43.393 21.272h1.348c-.859 2.256-1.348 4.692-1.348 7.257v33.64c0 11.55 9.573 20.863 21.212 20.454 11.09-.399 19.725-9.853 19.725-20.943v-33.151c0-2.565-.489-5.001-1.348-7.257h78.192c-.858 2.256-1.348 4.692-1.348 7.257v33.64c0 11.55 9.573 20.863 21.212 20.454 11.1-.399 19.725-9.853 19.725-20.943v-33.151c0-2.565-.489-5.001-1.348-7.257h1.348c19.755 0 37.094-10.471 46.797-26.144v90.19c.002 32.244 26.146 58.388 58.388 58.388z" fill="#88f8d8"/><path d="m103.096 261.642c-11.305 0-20.469 9.164-20.469 20.469v33.643c0 11.305 9.164 20.469 20.469 20.469s20.469-9.164 20.469-20.469v-33.643c0-11.305-9.164-20.469-20.469-20.469z" fill="#b98eff"/><path d="m411.196 169.036v197.57c0 16.95-13.746 30.686-30.696 30.686h-35.318c-32.243 0-58.387-26.144-58.387-58.387v-90.19c5.191-8.395 8.205-18.278 8.205-28.849 0-29.338 8.904-57.528 25.774-81.526h59.726c16.95 0 30.696 13.746 30.696 30.696z" fill="#17d9c3"/><g fill="#007ea8"><path d="m119.389 397.292h46.899v31.335h-46.899z"/><path d="m228.525 397.292h46.899v31.335h-46.899z"/><circle cx="214.722" cy="170.705" r="9.868"/><circle cx="121.709" cy="170.705" r="9.868"/><path d="m147.322 204.801h41.788c4.143 0 7.5-3.358 7.5-7.5s-3.357-7.5-7.5-7.5h-41.788c-4.143 0-7.5 3.358-7.5 7.5s3.357 7.5 7.5 7.5z"/><path d="m380.5 130.84h-24.416c-4.143 0-7.5 3.358-7.5 7.5s3.357 7.5 7.5 7.5h24.416c12.79 0 23.196 10.406 23.196 23.196v197.57c0 12.785-10.406 23.186-23.196 23.186h-35.317c-28.059 0-50.887-22.828-50.887-50.887v-90.19c0-4.131-3.347-7.5-7.5-7.5-4.143 0-7.5 3.357-7.5 7.5v90.19c0 18.972 8.163 37.576 24.078 50.887-63.593 0-143.805 0-205.753 0-28.059 0-50.887-22.828-50.887-50.887v-85.319c0-4.142-3.357-7.5-7.5-7.5s-7.5 3.358-7.5 7.5v85.319c0 36.33 29.557 65.887 65.887 65.887h14.269v45.31h-8.193c-17.065 0-30.949 13.884-30.949 30.949 0 17.066 13.884 30.95 30.949 30.95h39.143c17.065 0 30.949-13.884 30.949-30.95v-76.259h47.237v45.31h-8.193c-17.065 0-30.949 13.884-30.949 30.949 0 17.066 13.884 30.95 30.949 30.95h39.143c17.065 0 30.949-13.884 30.949-30.95v-76.259h97.576c21.062 0 38.196-17.13 38.196-38.186v-197.57c-.001-21.061-17.136-38.196-38.197-38.196zm-221.712 350.21c0 8.794-7.155 15.95-15.949 15.95h-39.143c-8.794 0-15.949-7.155-15.949-15.95s7.155-15.949 15.949-15.949h15.693c4.143 0 7.5-3.358 7.5-7.5v-52.81h31.898v76.259zm109.135 0c0 8.794-7.155 15.95-15.949 15.95h-39.143c-8.794 0-15.949-7.155-15.949-15.95s7.155-15.949 15.949-15.949h15.693c4.143 0 7.5-3.358 7.5-7.5v-52.81h31.898v76.259z"/></g><g><path d="m320.776 138.34c-16.87 23.997-25.774 52.188-25.774 81.526 0 30.326-24.676 54.993-55.003 54.993h-1.348c-2.925-7.716-10.372-13.217-19.116-13.217-8.755 0-16.191 5.5-19.126 13.217h-78.192c-2.925-7.716-10.372-13.217-19.116-13.217-8.755 0-16.191 5.5-19.126 13.217h-1.348c-30.326 0-54.993-24.666-54.993-54.993 0-31.734 7.726-62.479 22.49-90.12 0-.01.01-.01.01-.02 9.398 5.377 20.486 8.615 32.433 8.615h20.753c-16.86 23.997-25.774 52.188-25.774 81.526 0 2.805 2.276 5.081 5.081 5.081h157.371c2.805 0 5.091-2.276 5.091-5.081 0-28.48 6.209-56.161 18.158-81.526h57.529z" fill="#ff63ed"/></g><g><g><path d="m200.409 282.358h-78.191c-4.143 0-7.5-3.358-7.5-7.5s3.357-7.5 7.5-7.5h78.191c4.143 0 7.5 3.358 7.5 7.5s-3.358 7.5-7.5 7.5z" fill="#e207b9"/></g><g><path d="m239.999 282.358c-4.143 0-7.5-3.358-7.5-7.5s3.357-7.5 7.5-7.5c26.193 0 47.503-21.305 47.503-47.493 0-30.901 9.385-60.583 27.139-85.839 2.382-3.389 7.059-4.205 10.449-1.822 3.389 2.382 4.204 7.06 1.822 10.449-15.97 22.716-24.41 49.416-24.41 77.212-.001 34.459-28.04 62.493-62.503 62.493z" fill="#e207b9"/></g><g><path d="m239.999 232.447h-157.372c-6.938 0-12.581-5.644-12.581-12.581 0-30.886 9.384-60.568 27.138-85.837 2.381-3.389 7.059-4.207 10.448-1.825 3.39 2.381 4.206 7.059 1.825 10.448-15.506 22.07-23.914 47.882-24.39 74.795h152.535c.337-28.766 6.677-56.443 18.859-82.303 1.767-3.748 6.234-5.353 9.981-3.589 3.747 1.765 5.354 6.234 3.589 9.981-11.574 24.569-17.443 50.923-17.443 78.329.001 6.938-5.647 12.582-12.589 12.582z" fill="#e207b9"/></g><g><path d="m82.627 282.358c-34.459 0-62.493-28.034-62.493-62.493 0-32.581 8.054-64.908 23.293-93.501 1.232-2.455 3.773-4.139 6.707-4.139 5.711 0 9.273 6.116 6.605 11.053-14.135 26.463-21.605 56.404-21.605 86.587 0 26.188 21.306 47.493 47.493 47.493 4.143 0 7.5 3.358 7.5 7.5s-3.357 7.5-7.5 7.5z" fill="#e207b9"/></g></g><circle cx="356.083" cy="72.921" fill="#9448f5" r="65.421"/><circle cx="356.083" cy="72.921" fill="#b98eff" r="28.947"/><path d="m356.083 138.34h-92.556c-4.502-3.634-7.956-7.886-10.242-11.13-9.873-14.025-15.533-33.81-15.533-54.284s5.66-40.259 15.533-54.294c2.286-3.244 5.74-7.497 10.242-11.13h92.556c-36.126 0-65.424 29.288-65.424 65.424 0 36.126 29.298 65.414 65.424 65.414z" fill="#b98eff"/><path d="m197.823 72.926c0 23.738 5.45 46.478 15.542 65.414h-60.802c-4.512-3.624-7.966-7.886-10.252-11.13-9.873-14.025-15.533-33.81-15.533-54.284s5.66-40.259 15.533-54.294c2.286-3.244 5.74-7.507 10.252-11.13h60.802c-10.091 18.946-15.542 41.686-15.542 65.424z" fill="#b98eff"/><path d="m86.85 72.926c0 23.738 5.46 46.478 15.552 65.414h-19.835c-12.019 0-23.249-3.334-32.443-8.595-19.705-11.28-32.982-32.502-32.982-56.819 0-36.136 29.298-65.424 65.424-65.424h19.835c-10.091 18.946-15.551 41.686-15.551 65.424z" fill="#b98eff"/><g><path d="m263.527 138.34h-50.161c-10.092-18.937-15.542-41.676-15.542-65.414s5.45-46.478 15.542-65.424h50.161c-4.502 3.634-7.956 7.886-10.242 11.13-9.873 14.035-15.533 33.82-15.533 54.294s5.66 40.259 15.533 54.284c2.286 3.244 5.74 7.496 10.242 11.13z" fill="#9448f5"/></g><g><path d="m152.563 138.34h-50.161c-10.092-18.937-15.552-41.676-15.552-65.414s5.46-46.478 15.552-65.424h50.161c-4.512 3.624-7.966 7.886-10.252 11.13-9.873 14.035-15.533 33.82-15.533 54.294s5.66 40.259 15.533 54.284c2.286 3.244 5.74 7.506 10.252 11.13z" fill="#9448f5"/></g><path d="m356.083 36.474c-20.097 0-36.447 16.35-36.447 36.447s16.351 36.447 36.447 36.447 36.447-16.35 36.447-36.447-16.35-36.447-36.447-36.447zm0 57.894c-11.826 0-21.447-9.621-21.447-21.447s9.621-21.447 21.447-21.447 21.447 9.621 21.447 21.447-9.62 21.447-21.447 21.447z" fill="#6d00ca"/><path d="m429.004 72.921c0-40.209-32.712-72.921-72.921-72.921-.024 0-.048.001-.072.001-52.724 0-207.49 0-273.444 0-40.21 0-72.924 32.714-72.924 72.924 0 40.124 32.564 72.914 72.924 72.914h273.43c.029 0 .057.002.087.002 40.208.001 72.92-32.711 72.92-72.92zm-15 0c0 31.928-25.968 57.905-57.892 57.92-.01 0-.019-.001-.029-.001-31.936 0-57.921-25.976-57.921-57.919 0-31.937 25.982-57.919 57.921-57.919.008 0 .016-.001.024-.001 31.927.013 57.897 25.99 57.897 57.92zm-331.437 57.919c-32.078 0-57.924-26.063-57.924-57.914 0-31.939 25.984-57.924 57.924-57.924h7.995c-7.58 18.165-11.212 38.163-11.212 57.924 0 19.435 3.523 39.554 11.21 57.914zm24.446 0c-8.751-18.089-12.663-38.375-12.663-57.914 0-19.593 3.932-39.86 12.663-57.924h28.688c-11.14 16.25-16.423 37.99-16.423 57.924 0 19.766 5.255 41.667 16.423 57.914zm48.338 0c-14.664-13.489-21.072-37.476-21.072-57.914 0-20.575 6.508-44.469 21.073-57.924h46.176c-7.277 17.44-11.203 37.336-11.203 57.924 0 21.339 4.226 41.263 11.201 57.914zm62.626 0c-8.656-17.902-12.653-38.033-12.653-57.914 0-19.856 4.013-40.033 12.654-57.924h28.697c-11.163 16.256-16.422 38.045-16.422 57.924 0 19.971 5.256 41.658 16.422 57.914zm93.848 0h-45.499c-14.86-13.687-21.073-37.799-21.073-57.914 0-20.097 6.329-44.33 21.074-57.924h45.5c-18.023 13.8-28.668 35.121-28.668 57.924 0 22.248 10.25 43.817 28.666 57.914z" fill="#6d00ca"/><path d="m219.532 254.142c-15.422 0-27.969 12.547-27.969 27.969v33.643c0 15.422 12.547 27.969 27.969 27.969s27.969-12.547 27.969-27.969v-33.643c-.001-15.422-12.547-27.969-27.969-27.969zm12.968 61.612c0 7.151-5.817 12.969-12.969 12.969s-12.969-5.818-12.969-12.969v-33.643c0-7.151 5.817-12.969 12.969-12.969s12.969 5.818 12.969 12.969z" fill="#6d00ca"/><path d="m103.096 254.142c-15.422 0-27.969 12.547-27.969 27.969v33.643c0 15.422 12.547 27.969 27.969 27.969s27.969-12.547 27.969-27.969v-33.643c0-15.422-12.547-27.969-27.969-27.969zm12.969 61.612c0 7.151-5.817 12.969-12.969 12.969s-12.969-5.818-12.969-12.969v-33.643c0-7.151 5.817-12.969 12.969-12.969s12.969 5.818 12.969 12.969z" fill="#6d00ca"/></g></svg>