<svg id="Capa_1" enable-background="new 0 0 512 512" height="512" viewBox="0 0 512 512" width="512" xmlns="http://www.w3.org/2000/svg"><g><path d="m379.192 200.144h-42.321c2.797 10.644 4.247 21.651 4.247 32.767v12.462h37.029v57.541h-37.029v41.886c0 1.124-.048 2.236-.119 3.342h38.193c24.403 0 44.183-19.78 44.183-44.184v-59.632c.001-24.402-19.779-44.182-44.183-44.182z" fill="#17d9c3"/><g><path d="m379.192 355.643h-38.192c-4.143 0-7.5-3.358-7.5-7.5s3.357-7.5 7.5-7.5h38.192c20.228 0 36.684-16.456 36.684-36.683v-59.632c0-20.227-16.456-36.683-36.684-36.683h-42.32c-4.143 0-7.5-3.358-7.5-7.5s3.357-7.5 7.5-7.5h42.32c28.498 0 51.684 23.185 51.684 51.683v59.632c-.001 28.498-23.186 51.683-51.684 51.683z" fill="#007ea8"/></g><g><path d="m378.147 310.414h-37.028c-4.143 0-7.5-3.358-7.5-7.5s3.357-7.5 7.5-7.5h29.528v-42.541h-29.528c-4.143 0-7.5-3.358-7.5-7.5s3.357-7.5 7.5-7.5h37.028c4.143 0 7.5 3.358 7.5 7.5v57.541c0 4.142-3.357 7.5-7.5 7.5z" fill="#007ea8"/></g><path d="m300.836 60.488v19.448h-171.93v-19.448c0-29.268 23.72-52.988 52.988-52.988h65.954c29.268 0 52.988 23.72 52.988 52.988z" fill="#ffff6f"/><path d="m128.906 79.936h171.93v52.335h-171.93z" fill="#ff63ed"/><g><path d="m293.383 396.556v84.334c0 13.039-10.571 23.61-23.61 23.61h-39.411c-13.039 0-23.61-10.571-23.61-23.61s10.571-23.61 23.61-23.61h15.801v-60.723h47.22z" fill="#9448f5"/></g><g><path d="m183.499 396.556v84.334c0 13.039-10.571 23.61-23.61 23.61h-39.411c-13.039 0-23.61-10.571-23.61-23.61s10.571-23.61 23.61-23.61h15.801v-60.723h47.22z" fill="#9448f5"/></g><path d="m320.748 163.352-19.912-31.081h-171.93l-19.912 31.081c-13.301 20.762-20.371 44.903-20.371 69.56v111.889c0 28.584 23.172 51.756 51.756 51.756h148.983c28.584 0 51.756-23.172 51.756-51.756v-111.889c0-24.658-7.069-48.798-20.37-69.56z" fill="#b98eff"/><circle cx="264.327" cy="251.635" fill="#6d00ca" r="10.493"/><circle cx="165.416" cy="251.635" fill="#6d00ca" r="10.493"/><g><path d="m300.836 87.436c-4.143 0-7.5-3.358-7.5-7.5v-19.448c0-25.082-20.406-45.488-45.488-45.488h-65.954c-25.082 0-45.487 20.406-45.487 45.488v19.448c0 4.142-3.357 7.5-7.5 7.5s-7.5-3.358-7.5-7.5v-19.448c0-33.353 27.135-60.488 60.487-60.488h65.954c33.354 0 60.488 27.135 60.488 60.488v19.448c0 4.143-3.357 7.5-7.5 7.5z" fill="#f95116"/></g><g fill="#6d00ca"><path d="m136.278 396.556h47.221v31.55h-47.221z"/><path d="m246.162 396.556h47.221v31.55h-47.221z"/><g><path d="m192.652 287.416h44.438c4.143 0 7.5-3.358 7.5-7.5s-3.357-7.5-7.5-7.5h-44.438c-4.143 0-7.5 3.358-7.5 7.5s3.357 7.5 7.5 7.5z"/><path d="m327.063 159.306-19.911-31.081c-2.235-3.488-6.873-4.504-10.361-2.27-3.487 2.234-4.504 6.874-2.27 10.361l19.911 31.081c12.552 19.593 19.187 42.248 19.187 65.514v111.889c0 24.403-19.854 44.256-44.256 44.256-44.978 0-99.164 0-148.983 0-24.402 0-44.255-19.853-44.255-44.256v-111.888c0-23.268 6.634-45.922 19.186-65.514l19.912-31.081c2.234-3.488 1.218-8.126-2.27-10.361-3.49-2.235-8.128-1.219-10.361 2.269l-19.912 31.081c-14.102 22.012-21.555 47.464-21.555 73.605v111.889c0 28.704 20.517 52.699 47.653 58.108v46.871h-8.301c-17.154 0-31.11 13.956-31.11 31.11s13.956 31.111 31.11 31.111h39.411c17.154 0 31.11-13.956 31.11-31.11v-76.833h47.664v45.723h-8.301c-17.154 0-31.11 13.956-31.11 31.11s13.957 31.11 31.111 31.11h39.411c17.154 0 31.11-13.956 31.11-31.11v-77.967c27.177-5.377 47.735-29.391 47.735-58.123v-111.888c.001-26.141-7.453-51.593-21.555-73.606zm-151.064 321.584c0 8.883-7.228 16.11-16.11 16.11h-39.411c-8.883 0-16.11-7.227-16.11-16.11s7.228-16.11 16.11-16.11h15.801c4.143 0 7.5-3.358 7.5-7.5v-53.223h32.221v76.833zm109.884 0c0 8.883-7.228 16.11-16.11 16.11h-39.411c-8.883 0-16.11-7.227-16.11-16.11s7.228-16.11 16.11-16.11h15.801c4.143 0 7.5-3.358 7.5-7.5v-53.223h32.221v76.833z"/></g></g><g><path d="m300.836 139.771h-171.93c-4.143 0-7.5-3.358-7.5-7.5v-52.335c0-4.142 3.357-7.5 7.5-7.5h171.93c4.143 0 7.5 3.358 7.5 7.5v52.335c0 4.142-3.357 7.5-7.5 7.5zm-164.429-15h156.93v-37.335h-156.93z" fill="#e207b9"/></g></g></svg>