<svg id="Capa_1" enable-background="new 0 0 512 512" height="512" viewBox="0 0 512 512" width="512" xmlns="http://www.w3.org/2000/svg"><g><g fill="#ffff6f"><path d="m89.175 409.742c0-15.854 5.677-30.377 15.102-41.664h-66.998c-16.447 0-29.779 13.333-29.779 29.779 0 16.447 13.333 29.779 29.779 29.779h54.409c-1.624-5.687-2.513-11.685-2.513-17.894z"/><path d="m474.721 368.078h-270.545c9.424 11.286 15.102 25.81 15.102 41.664 0 6.209-.888 12.207-2.513 17.895h257.956c16.447 0 29.779-13.333 29.779-29.779 0-16.447-13.332-29.78-29.779-29.78z"/></g><path d="m309.057 37.206h-195.747c-41.997 0-76.029 34.042-76.029 76.029v144.994h244.165v-71.943c0-20.936 16.972-37.908 37.908-37.908h64.465c20.936 0 37.908 16.972 37.908 37.908v71.943h52.992v-55.361c0-91.486-74.165-165.662-165.662-165.662z" fill="#ddbeff"/><g><path d="m474.719 265.729c-4.142 0-7.5-3.358-7.5-7.5v-55.361c0-87.211-70.951-158.162-158.162-158.162h-195.747c-37.787 0-68.529 30.742-68.529 68.529v144.994c0 4.142-3.358 7.5-7.5 7.5s-7.5-3.358-7.5-7.5v-144.994c0-46.058 37.471-83.529 83.529-83.529h195.747c95.482 0 173.162 77.68 173.162 173.162v55.361c0 4.143-3.358 7.5-7.5 7.5z" fill="#6d00ca"/></g><g fill="#ffd600"><path d="m37.281 258.229h244.165v52.175h-244.165z"/><path d="m421.727 258.229h52.992v52.175h-52.992z"/></g><path d="m281.447 368.078v-57.674h-244.166v57.675h66.994c11.933-14.291 29.877-23.389 49.951-23.389s38.018 9.098 49.951 23.389z" fill="#f90"/><path d="m421.727 310.404h52.992v57.675h-52.992z" fill="#f90"/><g fill="#f95116"><path d="m281.447 265.729c4.142 0 7.5-3.358 7.5-7.5s-3.358-7.5-7.5-7.5h-244.166c-4.142 0-7.5 3.358-7.5 7.5v109.851c0 4.142 3.358 7.5 7.5 7.5h66.995c4.142 0 7.5-3.358 7.5-7.5 0-4.143-3.358-7.5-7.5-7.5h-59.495v-42.675h236.666c4.142 0 7.5-3.358 7.5-7.5s-3.358-7.5-7.5-7.5h-236.666v-37.175h236.666z"/><path d="m474.719 250.729h-52.992c-4.142 0-7.5 3.358-7.5 7.5s3.358 7.5 7.5 7.5h45.492v37.175h-45.492c-4.142 0-7.5 3.358-7.5 7.5s3.358 7.5 7.5 7.5h45.492v42.675l-45.492-.001c-4.142 0-7.5 3.358-7.5 7.5s3.358 7.5 7.5 7.5l52.992.001c4.14 0 7.5-3.359 7.5-7.5 0-10.744 0-99.132 0-109.851 0-4.141-3.358-7.499-7.5-7.499z"/></g><g><g><path d="m91.688 435.137h-54.409c-20.555 0-37.279-16.724-37.279-37.279 0-20.556 16.724-37.279 37.279-37.279h66.998c4.142 0 7.5 3.358 7.5 7.5s-3.358 7.5-7.5 7.5h-66.998c-12.285 0-22.279 9.994-22.279 22.279s9.995 22.279 22.279 22.279h54.409c4.142 0 7.5 3.358 7.5 7.5s-3.358 7.5-7.5 7.5z" fill="#f95116"/></g><g><path d="m474.721 435.137h-257.956c-4.142 0-7.5-3.358-7.5-7.5s3.358-7.5 7.5-7.5h257.956c12.285 0 22.279-9.994 22.279-22.279s-9.994-22.279-22.279-22.279h-270.545c-4.142 0-7.5-3.358-7.5-7.5s3.358-7.5 7.5-7.5h270.545c20.556 0 37.279 16.723 37.279 37.279s-16.723 37.279-37.279 37.279z" fill="#f95116"/></g></g><circle cx="154.227" cy="409.742" fill="#9448f5" r="65.051"/><circle cx="154.227" cy="409.742" fill="#b98eff" r="27.079"/><path d="m383.819 148.378h-64.465c-20.936 0-37.908 16.972-37.908 37.908v181.792h140.28v-181.792c.001-20.936-16.971-37.908-37.907-37.908z" fill="#b98eff"/><g><path d="m421.727 375.578h-140.28c-4.142 0-7.5-3.358-7.5-7.5v-181.792c0-25.038 20.37-45.408 45.408-45.408h64.464c25.038 0 45.408 20.37 45.408 45.408v181.792c0 4.142-3.358 7.5-7.5 7.5zm-132.78-15h125.28v-174.292c0-16.767-13.641-30.408-30.408-30.408h-64.464c-16.767 0-30.408 13.641-30.408 30.408z" fill="#6d00ca"/></g><circle cx="330.548" cy="258.228" fill="#9448f5" r="17.88"/><path d="m193.926 148.378h-74.937c-20.936 0-37.908 16.972-37.908 37.908v12.848c0 12.426 10.073 22.498 22.498 22.498h105.756c12.425 0 22.498-10.073 22.498-22.498v-12.848c.001-20.936-16.971-37.908-37.907-37.908z" fill="#b98eff"/><g><path d="m154.227 444.321c-19.067 0-34.579-15.512-34.579-34.578 0-19.067 15.512-34.579 34.579-34.579s34.579 15.512 34.579 34.579c-.001 19.066-15.513 34.578-34.579 34.578zm0-54.157c-10.796 0-19.579 8.783-19.579 19.579s8.783 19.578 19.579 19.578 19.579-8.783 19.579-19.578-8.784-19.579-19.579-19.579z" fill="#6d00ca"/></g><g><path d="m330.548 283.609c-13.995 0-25.38-11.386-25.38-25.38s11.386-25.38 25.38-25.38 25.38 11.386 25.38 25.38-11.385 25.38-25.38 25.38zm0-35.761c-5.724 0-10.38 4.657-10.38 10.38s4.657 10.38 10.38 10.38 10.38-4.657 10.38-10.38-4.656-10.38-10.38-10.38z" fill="#6d00ca"/></g><g><path d="m209.335 229.133h-105.755c-16.541 0-29.998-13.457-29.998-29.998v-12.848c0-25.038 20.37-45.408 45.408-45.408h74.937c25.038 0 45.408 20.37 45.408 45.408v12.848c-.001 16.541-13.459 29.998-30 29.998zm-90.346-73.255c-16.767 0-30.408 13.641-30.408 30.408v12.848c0 8.27 6.728 14.998 14.998 14.998h105.756c8.27 0 14.999-6.728 14.999-14.998v-12.848c0-16.767-13.641-30.408-30.408-30.408z" fill="#6d00ca"/></g><circle cx="281.38" cy="87.571" fill="#6d00ca" r="10.512"/><g><path d="m254.094 123.404h-44.52c-4.142 0-7.5-3.358-7.5-7.5s3.358-7.5 7.5-7.5h44.52c4.142 0 7.5 3.358 7.5 7.5s-3.358 7.5-7.5 7.5z" fill="#6d00ca"/></g><circle cx="182.288" cy="87.571" fill="#6d00ca" r="10.512"/><g><path d="m154.227 482.294c-40.005 0-72.551-32.546-72.551-72.551s32.546-72.552 72.551-72.552 72.551 32.547 72.551 72.552-32.547 72.551-72.551 72.551zm0-130.103c-31.734 0-57.551 25.818-57.551 57.552s25.817 57.551 57.551 57.551 57.551-25.817 57.551-57.551-25.818-57.552-57.551-57.552z" fill="#6d00ca"/></g></g></svg>