<svg id="Capa_1" enable-background="new 0 0 512 512" height="512" viewBox="0 0 512 512" width="512" xmlns="http://www.w3.org/2000/svg"><g><path d="m438.499 369.187-35.402 33.675c-12.829 12.2-29.841 18.999-47.533 18.999h-59.902c17.691 0 34.703-6.799 47.533-18.999l35.402-33.675c13.029-12.39 13.029-33.166 0-45.556l-35.402-33.675c-12.829-12.2-29.841-18.999-47.533-18.999h59.902c17.691 0 34.703 6.799 47.533 18.999l35.402 33.675c13.029 12.39 13.029 33.167 0 45.556z" fill="#f90"/><g fill="#b98eff"><path d="m256.794 7.5h-31.539c-10.668 0-19.316 8.648-19.316 19.316v33.078h70.171v-33.078c0-10.668-8.648-19.316-19.316-19.316z"/><path d="m205.939 210.797h70.171v60.161h-70.171z"/><path d="m205.939 421.862h70.171v82.638h-70.171z"/></g><path d="m378.597 369.187-35.402 33.675c-12.829 12.2-29.841 18.999-47.533 18.999h-182.483c-10.772 0-19.498-8.736-19.498-19.498v-111.907c0-10.772 8.726-19.498 19.498-19.498h182.483c17.691 0 34.703 6.799 47.533 18.999l35.402 33.675c13.029 12.389 13.029 33.166 0 45.555z" fill="#ffd600"/><circle cx="290.4" cy="337.53" fill="#f95116" r="10.476"/><circle cx="191.65" cy="337.53" fill="#f95116" r="10.476"/><g><path d="m276.11 67.394c-4.142 0-7.5-3.358-7.5-7.5v-33.078c0-6.515-5.301-11.816-11.816-11.816h-31.539c-6.516 0-11.816 5.301-11.816 11.816v33.078c0 4.142-3.358 7.5-7.5 7.5s-7.5-3.358-7.5-7.5v-33.078c0-14.786 12.03-26.816 26.817-26.816h31.539c14.786 0 26.816 12.03 26.816 26.816v33.078c-.001 4.142-3.359 7.5-7.501 7.5z" fill="#6d00ca"/></g><g><path d="m205.939 278.457c-4.142 0-7.5-3.358-7.5-7.5v-60.161c0-4.142 3.358-7.5 7.5-7.5s7.5 3.358 7.5 7.5v60.161c0 4.142-3.358 7.5-7.5 7.5z" fill="#6d00ca"/></g><g><path d="m276.11 278.457c-4.142 0-7.5-3.358-7.5-7.5v-60.161c0-4.142 3.358-7.5 7.5-7.5s7.5 3.358 7.5 7.5v60.161c0 4.142-3.358 7.5-7.5 7.5z" fill="#6d00ca"/></g><path d="m205.939 210.797h70.171v29.951h-70.171z" fill="#6d00ca"/><g><path d="m276.11 512h-70.171c-4.142 0-7.5-3.358-7.5-7.5v-82.638c0-4.142 3.358-7.5 7.5-7.5s7.5 3.358 7.5 7.5v75.138h55.171v-75.138c0-4.142 3.358-7.5 7.5-7.5s7.5 3.358 7.5 7.5v82.638c0 4.142-3.358 7.5-7.5 7.5z" fill="#6d00ca"/></g><path d="m205.939 421.862h70.171v29.952h-70.171z" fill="#6d00ca"/><g fill="#f95116"><path d="m443.668 318.197-35.403-33.676c-14.284-13.583-33-21.064-52.701-21.064-76.477 0-233.659 0-242.385 0-14.887 0-26.998 12.111-26.998 26.998v111.908c0 14.887 12.111 26.999 26.998 26.999h242.385c19.701 0 38.417-7.481 52.702-21.065l35.402-33.675c16.09-15.301 16.215-41.005 0-56.425zm-342.487 84.166v-111.907c0-6.616 5.382-11.998 11.998-11.998h182.483c15.836 0 30.881 6.014 42.364 16.933l35.403 33.676c9.912 9.426 9.948 25.225 0 34.686v.001l-35.402 33.674c-11.483 10.92-26.528 16.934-42.364 16.934h-182.484c-6.616 0-11.998-5.383-11.998-11.999zm332.15-38.611s-.001.001 0 0l-35.402 33.675c-11.483 10.92-26.528 16.934-42.364 16.934h-14.409c2.603-1.932 5.284-4.236 7.208-6.065l35.402-33.674c13.279-12.629 12.078-28.093 12.103-28.213 0-10.74-4.276-20.768-12.103-28.212l-35.403-33.676c-1.94-1.844-4.583-4.116-7.208-6.064h14.409c15.836 0 30.881 6.014 42.364 16.933l35.403 33.676c9.89 9.406 9.968 25.207 0 34.686z"/><path d="m263.208 358.265h-44.366c-4.142 0-7.5 3.358-7.5 7.5 0 4.143 3.358 7.5 7.5 7.5h44.366c4.142 0 7.5-3.357 7.5-7.5 0-4.141-3.358-7.5-7.5-7.5z"/></g><path d="m398.821 59.894h-22.386c-10.769 0-19.499 8.73-19.499 19.499v111.904c0 10.769 8.73 19.499 19.499 19.499h22.386c10.769 0 19.499-8.73 19.499-19.499v-111.903c0-10.769-8.73-19.5-19.499-19.5z" fill="#17d9c3"/><path d="m356.936 191.298v-111.904c0-10.769 8.73-19.499 19.499-19.499h-219.994c-17.694 0-34.711 6.8-47.532 18.995l-35.409 33.678c-13.027 12.391-13.027 33.164 0 45.555l35.41 33.679c12.821 12.194 29.838 18.995 47.532 18.995h219.995c-10.771 0-19.501-8.73-19.501-19.499z" fill="#88f8d8"/><circle cx="290.4" cy="123.149" fill="#007ea8" r="10.476"/><circle cx="191.65" cy="123.149" fill="#007ea8" r="10.476"/><g fill="#007ea8"><path d="m398.821 52.395c-10.823 0-230.21 0-242.38 0-19.706 0-38.421 7.479-52.7 21.06l-35.41 33.679c-16.088 15.302-16.213 41.002 0 56.424l35.41 33.679c14.279 13.581 32.995 21.06 52.7 21.06h242.38c14.887 0 26.999-12.112 26.999-27v-111.903c0-14.888-12.112-26.999-26.999-26.999zm-242.38 150.902c-15.84 0-30.885-6.012-42.362-16.929l-35.41-33.679c-9.89-9.407-9.967-25.206 0-34.686l35.41-33.679c11.478-10.917 26.522-16.929 42.362-16.929h195.812c-1.905 3.821-2.816 8.016-2.816 11.999v111.904c0 4.291 1.051 8.461 2.816 12h-195.812zm254.379-12c0 6.617-5.383 12-11.999 12h-22.386c-6.629 0-11.999-5.397-11.999-12v-111.903c0-6.616 5.383-11.999 11.999-11.999h22.386c6.616 0 11.999 5.383 11.999 11.999z"/><path d="m263.208 143.885h-44.366c-4.142 0-7.5 3.357-7.5 7.5 0 4.142 3.358 7.5 7.5 7.5h44.366c4.142 0 7.5-3.358 7.5-7.5s-3.358-7.5-7.5-7.5z"/></g></g></svg>