<svg id="Capa_1" enable-background="new 0 0 512 512" height="512" viewBox="0 0 512 512" width="512" xmlns="http://www.w3.org/2000/svg"><g><path d="m218.795 424.737h-36.208c-3.639 0-7.222-.256-10.737-.741v33.559h-15.708c-12.963 0-23.473 10.509-23.473 23.473 0 12.963 10.509 23.472 23.473 23.472h39.181c9.065 0 16.925-5.143 20.835-12.667-1.681-3.235-2.637-6.908-2.637-10.806 0-5.622 1.979-10.78 5.274-14.822z" fill="#f90"/><path d="m286.656 424.737h-33.954v32.818h-15.708c-12.963 0-23.473 10.509-23.473 23.473 0 12.963 10.509 23.472 23.473 23.472h39.181c12.963 0 23.472-10.509 23.472-23.472v-56.29h-12.991z" fill="#f90"/><path d="m218.795 424.737h-36.208c-3.639 0-7.222-.256-10.737-.741v20.023c3.531.384 7.109.604 10.737.604h36.208z" fill="#f95116"/><path d="m252.701 424.737v19.887h33.954c4.401 0 8.735-.306 12.991-.869v-19.018h-12.991z" fill="#f95116"/><path d="m381.726 196.007-17.421 159.116c-4.345 39.615-37.805 69.614-77.649 69.614h-104.069c-39.844 0-73.303-30-77.649-69.614l-17.421-159.116c-6.334-57.871 38.988-108.424 97.198-108.424h99.813c58.209 0 103.532 50.553 97.198 108.424z" fill="#b98eff"/><path d="m323.902 149.844c-10.208-11.32-24.933-17.511-40.176-17.511h-98.21c-15.244 0-29.969 6.191-40.177 17.512-10.268 11.387-15.005 26.057-13.337 41.29l6.579 60.091c2.247 20.524 19.583 36.066 40.23 36.066h111.622c20.646 0 37.983-15.542 40.23-36.066l6.579-60.091c1.666-15.232-3.072-29.904-13.34-41.291z" fill="#88f8d8"/><circle cx="234.621" cy="355.301" fill="#ffd600" r="34.391"/><path d="m324.19 330.076h-20.607c-4.033 0-7.303 3.27-7.303 7.303 1.658 5.693 2.564 11.702 2.564 17.923 0 3.922-.353 7.762-1.03 11.492-1.198 6.604 3.607 13.019 10.314 13.295.311.013.624.014.94.004 4.254-.142 8.095-2.603 10.323-6.228l15.334-24.949c5.062-8.24-.865-18.84-10.535-18.84z" fill="#ffd600"/><path d="m145.053 330.076h20.607c4.033 0 7.303 3.27 7.303 7.303-1.658 5.693-2.564 11.702-2.564 17.923 0 3.922.353 7.762 1.03 11.492 1.198 6.604-3.607 13.019-10.314 13.295-.311.013-.624.014-.94.004-4.254-.142-8.095-2.603-10.323-6.228l-15.334-24.949c-5.063-8.24.865-18.84 10.535-18.84z" fill="#ffd600"/><path d="m181.973 24.427c-.657-9.536-8.609-16.927-18.167-16.927h-18.73c-9.559 0-17.51 7.393-18.167 16.929-4.073 59.07-28.882 82.734-36.895 136.475 10.791-41.776 48.722-73.32 94.701-73.32h12.179c-6.911-19.071-13.066-36.261-14.921-63.157z" fill="#f90"/><path d="m424.483 196.007-17.421 159.116c-4.345 39.615-37.805 69.614-77.649 69.614h-42.757c39.844 0 73.303-30 77.649-69.614l17.421-159.116c6.334-57.871-38.988-108.424-97.198-108.424h42.757c58.209 0 103.532 50.553 97.198 108.424z" fill="#9448f5"/><circle cx="281.426" cy="202.934" fill="#007ea8" r="9.931"/><g><path d="m255.649 237.2h-42.056c-4.143 0-7.5-3.358-7.5-7.5s3.357-7.5 7.5-7.5h42.056c4.143 0 7.5 3.358 7.5 7.5s-3.357 7.5-7.5 7.5z" fill="#007ea8"/></g><circle cx="187.817" cy="202.934" fill="#007ea8" r="9.931"/><g><path d="m290.433 294.792h-111.623c-24.517 0-45.017-18.378-47.685-42.75l-6.579-60.091c-1.905-17.393 3.501-34.13 15.222-47.129 11.455-12.703 28.129-19.989 45.747-19.989h98.21c17.617 0 34.291 7.285 45.746 19.988 11.722 12.999 17.129 29.737 15.225 47.13l-6.579 60.091c-2.668 24.372-23.168 42.75-47.684 42.75zm-104.917-154.959c-13.378 0-25.991 5.48-34.606 15.034-8.817 9.778-12.885 22.369-11.452 35.452l6.579 60.091c1.834 16.75 15.924 29.382 32.774 29.382h111.622c16.851 0 30.94-12.631 32.774-29.382l6.579-60.091c1.432-13.083-2.637-25.674-11.454-35.453 0 0 0 0-.001 0-8.614-9.554-21.229-15.033-34.605-15.033z" fill="#007ea8"/></g><g fill="#f95116"><path d="m299.646 417.237c-4.143 0-7.5 3.358-7.5 7.5v56.29c0 8.808-7.165 15.973-15.973 15.973h-39.181c-8.978 0-15.973-7.4-15.973-15.973 0-8.749 7.113-15.973 15.973-15.973h15.708c4.143 0 7.5-3.357 7.5-7.5v-32.817c0-4.142-3.357-7.5-7.5-7.5s-7.5 3.358-7.5 7.5v25.317h-8.208c-3.759 0-7.362.675-10.698 1.906v-27.224c0-4.142-3.357-7.5-7.5-7.5s-7.5 3.358-7.5 7.5v39.006c-3.55 5.268-5.274 11.417-5.274 17.284 0 3.699.665 7.052 1.689 10.082-2.999 3.694-7.511 5.891-12.388 5.891h-39.181c-8.808 0-15.973-7.165-15.973-15.973 0-8.807 7.165-15.973 15.973-15.973h15.708c4.143 0 7.5-3.357 7.5-7.5v-33.559c0-4.142-3.357-7.5-7.5-7.5s-7.5 3.358-7.5 7.5v26.059h-8.208c-17.078 0-30.973 13.895-30.973 30.973 0 17.079 13.895 30.973 30.973 30.973h39.181c7.869 0 15.242-2.953 20.846-8.065 5.504 5.008 12.814 8.065 20.824 8.065h39.181c17.078 0 30.973-13.895 30.973-30.973v-56.29c.001-4.141-3.356-7.499-7.499-7.499z"/><path d="m234.621 397.192c23.099 0 41.892-18.792 41.892-41.891s-18.793-41.891-41.892-41.891-41.891 18.792-41.891 41.891 18.792 41.891 41.891 41.891zm0-68.782c14.828 0 26.892 12.063 26.892 26.891s-12.063 26.891-26.892 26.891c-14.827 0-26.891-12.063-26.891-26.891 0-14.827 12.064-26.891 26.891-26.891z"/><path d="m341.528 332.745c-3.562-6.367-10.043-10.169-17.338-10.169h-20.607c-8.163 0-14.804 6.641-14.804 14.803 0 .71.101 1.416.299 2.097 1.504 5.16 2.266 10.485 2.266 15.826 0 3.41-.306 6.826-.91 10.152-.978 5.393.431 10.944 3.863 15.233 3.335 4.165 8.263 6.678 13.521 6.895.274.011.55.017.827.017.224 0 .448-.003.673-.011 6.675-.223 12.829-3.885 16.463-9.797l15.334-24.949c3.82-6.217 3.974-13.73.413-20.097zm-13.193 12.242-15.334 24.949c-.976 1.587-2.578 2.606-4.186 2.66-.125.004-.253.004-.38-.001-1.198-.05-1.982-.725-2.429-1.282-.721-.9-1.018-2.06-.813-3.181.764-4.208 1.15-8.525 1.15-12.831 0-5.971-.752-11.923-2.236-17.726h20.083c2.575 0 3.827 1.742 4.245 2.49.419.75 1.249 2.728-.1 4.922z"/><path d="m143.463 377.79c3.634 5.912 9.788 9.574 16.461 9.797.226.007.45.011.675.011.276 0 .552-.006.825-.017 5.258-.217 10.187-2.729 13.521-6.894 3.434-4.289 4.843-9.841 3.865-15.234-.604-3.327-.91-6.743-.91-10.152 0-5.34.762-10.665 2.265-15.827.198-.681.299-1.387.299-2.096 0-8.163-6.641-14.803-14.803-14.803h-20.607c-7.296 0-13.777 3.802-17.338 10.17-3.562 6.368-3.406 13.881.414 20.096zm-2.656-37.724c.419-.749 1.671-2.491 4.246-2.491h20.082c-1.484 5.804-2.235 11.756-2.235 17.726 0 4.306.387 8.623 1.15 12.829.203 1.122-.094 2.282-.814 3.182-.446.557-1.229 1.232-2.43 1.282-.125.005-.25.005-.38.001-1.605-.054-3.208-1.073-4.184-2.66l-15.334-24.949c-1.348-2.193-.52-4.171-.101-4.92z"/></g><g><path d="m90.023 168.404c-.368 0-.741-.027-1.116-.083-4.097-.611-6.923-4.427-6.312-8.524 3.748-25.135 11.063-43.942 18.136-62.13 8.507-21.876 16.543-42.539 18.695-73.754.926-13.409 12.191-23.913 25.65-23.913h18.729c13.459 0 24.725 10.503 25.649 23.911 1.8 26.098 7.681 42.326 14.49 61.117 1.411 3.894-.603 8.195-4.497 9.607-3.893 1.412-8.195-.603-9.606-4.496-6.894-19.027-13.406-36.998-15.352-65.195-.383-5.577-5.076-9.944-10.683-9.944h-18.729c-5.607 0-10.301 4.368-10.685 9.944-2.31 33.493-11.141 56.2-19.681 78.159-7.086 18.22-13.778 35.43-17.279 58.906-.555 3.722-3.756 6.395-7.409 6.395z" fill="#f95116"/></g><path d="m405.67 115.085c-19.942-22.244-48.513-35.002-78.385-35.002-17.13 0-125.607 0-142.57 0-29.872 0-58.442 12.758-78.385 35.002-19.944 22.246-29.519 52.039-26.268 81.738l17.421 159.117c4.771 43.497 41.356 76.297 85.104 76.297h146.826c43.747 0 80.333-32.8 85.104-76.298l17.421-159.116c3.25-29.7-6.324-59.492-26.268-81.738zm-293.277 239.222-17.42-159.116c-2.787-25.468 5.423-51.016 22.525-70.093 17.102-19.075 41.601-30.015 67.217-30.015h99.813c25.616 0 50.115 10.94 67.217 30.015 17.103 19.077 25.313 44.625 22.525 70.092l-17.42 159.115c-3.936 35.877-34.112 62.932-70.193 62.932h-104.07c-36.082 0-66.259-27.055-70.194-62.93zm304.634-159.117-17.421 159.115c-3.711 33.838-30.768 59.829-64.104 62.673 20.894-14.5 33.626-37.053 36.258-61.039l17.421-159.116c3.251-29.7-6.323-59.492-26.268-81.738-6.594-7.351-14.27-13.797-22.726-19.072 20.809 3.014 40.112 13.245 54.314 29.085 17.103 19.077 25.313 44.625 22.526 70.092z" fill="#6d00ca"/></g></svg>