<svg id="Capa_1" enable-background="new 0 0 512 512" height="512" viewBox="0 0 512 512" width="512" xmlns="http://www.w3.org/2000/svg"><g><path d="m362.435 10.108c-53.513 0-96.893 43.381-96.893 96.893 0 1.169.028 2.331.069 3.49.001.033.002.065.004.098.305 8.369 1.67 16.467 3.967 24.163 13.697 48.851 58.783 93.877 80.69 113.51 6.928 6.209 17.398 6.209 24.326 0 21.907-19.633 66.993-64.659 80.69-113.51 2.297-7.697 3.663-15.794 3.967-24.163.001-.033.002-.065.004-.098.041-1.159.069-2.321.069-3.49.001-53.512-43.38-96.893-96.893-96.893z" fill="#ff63ed"/><path d="m52.5 198.515v234.99l79.25-34.13v48.99l-124.25 53.52v-332.98l124.25-53.52v49z" fill="#f90"/><path d="m256 168.905v48.99l-124.25-53.51v-49z" fill="#ffd600"/><path d="m256 452.885v49l-124.25-53.52v-48.99z" fill="#ffd600"/><path d="m380.25 399.375v48.99l-124.25 53.52v-49z" fill="#f90"/><path d="m131.75 164.385v234.99l-79.25 34.13v-234.99z" fill="#ffd600"/><path d="m256 217.895v234.99l-124.25-53.51v-234.99z" fill="#ffff6f"/><circle cx="362.435" cy="107.002" fill="#ff9bff" r="38.972"/><path d="m451.522 146.085c-5.276 13.908-12.806 27.354-21.298 39.822l29.276 12.608v234.99l-79.25-34.13v48.99l124.25 53.52v-332.98z" fill="#ffd600"/><path d="m278.939 159.024-22.939 9.881v48.99l47.09-20.28c-9.038-11.876-17.53-24.916-24.151-38.591z" fill="#f90"/><path d="m374.598 248.263c-6.928 6.209-17.398 6.209-24.326 0-11.833-10.605-30.424-28.625-47.182-50.648l-47.09 20.28v234.99l124.25-53.51v-156.283c-2.008 1.871-3.91 3.61-5.652 5.171z" fill="#ffd600"/><path d="m430.224 185.907c-16.267 23.882-35.997 44.156-49.974 57.185v156.283l79.25 34.13v-234.99z" fill="#ffff6f"/><g><path d="m362.436 153.473c-25.625 0-46.473-20.847-46.473-46.472s20.848-46.472 46.473-46.472 46.472 20.847 46.472 46.472-20.847 46.472-46.472 46.472zm0-77.943c-17.354 0-31.473 14.118-31.473 31.472s14.118 31.472 31.473 31.472c17.354 0 31.472-14.118 31.472-31.472s-14.119-31.472-31.472-31.472z" fill="#e207b9"/></g><path d="m507.467 162.017-52.979-22.82c-3.802-1.638-8.216.117-9.854 3.921s.116 8.217 3.921 9.855l48.445 20.868v316.647l-109.25-47.058v-32.659l68.783 29.623c2.342 1.011 5.082.698 7.09-.624 2.108-1.387 3.377-3.742 3.377-6.265v-234.99c0-2.996-1.782-5.704-4.533-6.888l-29.276-12.608c-3.804-1.638-8.216.117-9.855 3.922-1.632 3.792.105 8.209 3.922 9.855l24.742 10.655v218.658l-64.25-27.67v-151.347c0-4.142-3.357-7.5-7.5-7.5s-7.5 3.358-7.5 7.5v151.347c-4.513 1.944-102.106 43.974-109.25 47.05v-218.658l42.557-18.327c3.803-1.638 5.56-6.051 3.922-9.855-1.635-3.793-6.039-5.565-9.855-3.922l-36.624 15.772v-32.658l18.406-7.929c3.805-1.639 5.56-6.051 3.921-9.855-1.638-3.803-6.049-5.561-9.854-3.921l-19.973 8.603-121.283-52.242c-1.918-.826-4.153-.77-5.934 0l-124.25 53.52c-2.751 1.185-4.533 3.893-4.533 6.888v332.98c0 5.382 5.519 9.019 10.467 6.888l121.283-52.242 121.283 52.242c1.832.79 3.991.837 5.934 0l121.283-52.242 121.283 52.242c4.924 2.121 10.467-1.484 10.467-6.888v-332.98c0-2.995-1.782-5.703-4.533-6.888zm-383.217 232.422-64.25 27.67v-218.658l64.25-27.67zm0-234.99-74.717 32.178c-1.375.592-2.509 1.565-3.298 2.765s-1.235 2.625-1.235 4.123v234.99c0 2.523 1.269 4.878 3.377 6.265 2.039 1.341 4.765 1.626 7.09.624l68.783-29.623v32.659l-109.25 47.058v-316.647l109.25-47.059zm124.25 331.039-109.25-47.058v-32.659l109.25 47.05zm0-48.999-109.25-47.05v-218.658l109.25 47.05zm0-234.99c-3.071-1.323-104.135-44.847-109.25-47.05v-32.667l109.25 47.059zm124.25 236.931-109.25 47.058v-32.667l109.25-47.05z" fill="#f95116"/><g><path d="m345.267 253.848c-11.407-10.223-28.352-26.628-44.294-46.722-19.366-24.411-32.352-48.059-38.596-70.29-19.896-66.818 30.367-134.228 100.059-134.228 69.967 0 119.873 67.702 100.057 134.23-12.302 43.796-49.325 86.931-82.89 117.01-9.785 8.77-24.547 8.773-34.336 0zm17.169-236.24c-59.787 0-102.725 57.838-85.667 115 .013.04.023.08.035.12 13.392 47.762 59.341 92.802 78.475 109.949 4.079 3.656 10.232 3.658 14.313 0 19.134-17.147 65.082-62.184 78.475-109.949.012-.04.023-.08.035-.12 16.89-56.602-25.39-115-85.666-115z" fill="#e207b9"/></g></g></svg>