<svg id="Capa_1" enable-background="new 0 0 512 512" height="512" viewBox="0 0 512 512" width="512" xmlns="http://www.w3.org/2000/svg"><g><path d="m396.197 259.514 17.917-17.917c6.421-6.421 16.832-6.421 23.253 0l14.502 14.502c1.214 1.214 2.196 2.571 2.951 4.015l8.733-8.733c14.949-14.949 14.949-39.186 0-54.135l-148.799-148.798c-14.949-14.949-39.186-14.949-54.135 0l-8.733 8.733c1.445.755 2.802 1.737 4.015 2.951l14.502 14.502c6.421 6.421 6.421 16.832 0 23.253l-17.917 17.917 52.978 52.978 17.917-17.917c6.421-6.421 16.832-6.421 23.253 0l14.502 14.502c6.421 6.421 6.421 16.832 0 23.253l-17.917 17.917z" fill="#ffff6f"/><g fill="#ffd600"><path d="m270.403 74.634-14.502-14.502c-6.421-6.421-16.832-6.421-23.253 0l-28.038 28.038c-6.421 6.421-6.421 16.832 0 23.253l14.502 14.502c6.421 6.421 16.832 6.421 23.253 0l28.038-28.038c6.421-6.422 6.421-16.832 0-23.253z"/><path d="m361.136 165.366-14.502-14.502c-6.421-6.421-16.832-6.421-23.253 0l-28.038 28.038c-6.421 6.421-6.421 16.832 0 23.253l14.502 14.502c6.421 6.421 16.832 6.421 23.253 0l28.038-28.038c6.421-6.421 6.421-16.832 0-23.253z"/><path d="m451.868 256.099-14.502-14.502c-6.421-6.421-16.832-6.421-23.253 0l-28.038 28.038c-6.421 6.421-6.421 16.832 0 23.253l14.502 14.502c6.421 6.421 16.832 6.421 23.253 0l28.038-28.038c6.421-6.422 6.421-16.832 0-23.253z"/></g><path d="m386.076 292.887c-6.421-6.421-6.421-16.832 0-23.253l10.121-10.121-52.978-52.978-10.121 10.121c-6.421 6.421-16.832 6.421-23.253 0l-14.502-14.502c-6.421-6.421-6.421-16.832 0-23.253l10.121-10.121-52.978-52.978-10.121 10.121c-6.421 6.421-16.832 6.421-23.253 0l-12.135-12.135c-14.439 20.11-29.884 51.366-29.884 93.071l128.047 128.047c41.705 0 72.961-15.445 93.071-29.884z" fill="#b98eff"/><path d="m305.142 334.909-159.509 133.789-102.331-102.331 133.79-159.509z" fill="#ddbeff"/><path d="m148.389 363.611c-10.528-10.528-10.528-27.598 0-38.126l-32.56 32.56c-10.528 10.528-10.528 27.598 0 38.126s27.598 10.528 38.126 0l32.56-32.56c-10.529 10.529-27.598 10.529-38.126 0z" fill="#ff9bff"/><ellipse cx="167.452" cy="344.548" fill="#ff63ed" rx="26.959" ry="26.959" transform="matrix(.707 -.707 .707 .707 -194.587 219.322)"/><path d="m145.633 468.698-30.571 25.647c-17.089 14.326-42.299 13.232-58.071-2.54l-36.797-36.797c-15.772-15.772-16.867-40.983-2.54-58.071l25.647-30.571z" fill="#b98eff"/><circle cx="318.673" cy="260.695" fill="#6d00ca" r="10.107"/><circle cx="251.305" cy="193.327" fill="#6d00ca" r="10.107"/><path d="m191.817 320.183c-13.434-13.434-35.294-13.434-48.73 0l-32.56 32.56c-13.466 13.465-13.468 35.263 0 48.73 13.434 13.435 35.295 13.436 48.73 0l32.56-32.56c13.435-13.434 13.435-35.295 0-48.73zm-10.605 10.605c7.588 7.587 7.588 19.934 0 27.521-7.587 7.588-19.934 7.587-27.522 0-7.587-7.587-7.587-19.934 0-27.521 7.587-7.588 19.934-7.589 27.522 0zm-32.56 60.081c-7.587 7.588-19.934 7.587-27.522 0-7.606-7.606-7.606-19.915 0-27.522l12.451-12.451c1.286 6.941 4.67 13.187 9.504 18.017 4.713 4.716 10.668 8.036 18.028 9.494z" fill="#e207b9"/><g fill="#6d00ca"><path d="m390.894 264.816c2.927 2.928 7.676 2.929 10.604 0 2.929-2.928 2.929-7.676 0-10.604l-52.978-52.978c-2.928-2.928-7.676-2.928-10.604 0-2.929 2.929-2.929 7.676 0 10.604z"/><path d="m404.302 300.649c-2.416-3.364-7.1-4.133-10.465-1.717-17.632 12.66-46.642 27.69-85.621 28.447l-123.594-123.596c.757-38.978 15.787-67.988 28.447-85.621 2.416-3.365 1.646-8.049-1.717-10.465-3.365-2.416-8.05-1.646-10.465 1.717-13.976 19.466-30.57 51.557-31.258 94.673-3.275 3.904-154.251 183.897-157.72 188.032-16.952 20.222-15.669 49.537 2.985 68.191l36.796 36.797c18.688 18.687 48.004 19.908 68.193 2.983l188.031-157.718c43.116-.689 75.207-17.282 94.672-31.258 3.363-2.416 4.132-7.101 1.716-10.465zm-294.057 187.95c-14.22 11.922-34.835 11.02-47.952-2.096l-36.796-36.797c-13.117-13.117-14.018-33.731-2.098-47.95l20.388-24.301 45.379 45.379 45.379 45.379zm35.833-30.06-92.616-92.617 124.115-147.974 116.476 116.475z"/><path d="m300.162 174.083c2.928 2.929 7.676 2.929 10.604 0 2.929-2.928 2.929-7.676 0-10.604l-52.978-52.978c-2.928-2.928-7.676-2.928-10.604 0-2.929 2.928-2.929 7.676 0 10.604z"/><path d="m275.558 266.709c2.929 2.929 7.676 2.928 10.604 0 2.929-2.929 2.929-7.676 0-10.604l-30.267-30.267c-2.928-2.929-7.676-2.929-10.604 0-2.929 2.929-2.929 7.676 0 10.604z"/></g><g fill="#f95116"><path d="m320.056 43.145c-17.85-17.849-46.892-17.848-64.74 0l-5.352 5.352c-7.879-1.912-16.474.188-22.618 6.332l-28.038 28.038c-9.356 9.355-9.358 24.499 0 33.857l14.502 14.502c9.358 9.357 24.499 9.357 33.857 0l28.038-28.038c9.335-9.335 9.335-24.523 0-33.858l-12.683-12.683 2.899-2.898c12.002-12.002 31.529-12.002 43.531 0l148.798 148.8c12.001 12.001 12.001 31.529 0 43.53l-2.899 2.899-12.683-12.683c-9.334-9.335-24.523-9.334-33.857 0l-28.038 28.038c-9.356 9.356-9.358 24.5 0 33.857l14.502 14.502c9.357 9.357 24.5 9.357 33.857 0l28.038-28.038c6.115-6.115 8.197-14.738 6.299-22.586l5.384-5.385c17.89-17.889 17.892-46.847 0-64.739zm-54.955 36.79c3.487 3.488 3.487 9.161 0 12.649l-28.038 28.038c-3.496 3.496-9.153 3.495-12.648 0l-14.502-14.502c-3.487-3.487-3.487-9.161 0-12.648l28.038-28.038c3.493-3.495 9.152-3.496 12.648 0zm181.465 194.114-28.038 28.038c-3.487 3.487-9.161 3.487-12.648 0l-14.502-14.502c-3.496-3.496-3.495-9.153 0-12.648l28.038-28.038c3.488-3.487 9.161-3.487 12.648 0l14.502 14.502c3.487 3.487 3.487 9.161 0 12.648z"/><path d="m438.657 83.947 21.761-21.761c2.929-2.928 2.929-7.676 0-10.604-2.928-2.928-7.676-2.928-10.604 0l-21.761 21.761c-2.929 2.929-2.929 7.676 0 10.604 2.927 2.929 7.675 2.93 10.604 0z"/><path d="m362.51 45.354c4.141 0 7.499-3.357 7.499-7.499v-30.356c0-4.141-3.357-7.499-7.499-7.499s-7.499 3.357-7.499 7.499v30.357c0 4.141 3.357 7.498 7.499 7.498z"/><path d="m504.502 141.992h-30.357c-4.141 0-7.499 3.357-7.499 7.499s3.357 7.499 7.499 7.499h30.357c4.141 0 7.499-3.357 7.499-7.499s-3.358-7.499-7.499-7.499z"/><path d="m351.936 145.562c-9.354-9.355-24.5-9.358-33.857 0l-28.038 28.038c-9.356 9.355-9.358 24.5 0 33.857l14.502 14.502c9.357 9.357 24.5 9.357 33.857 0l28.038-28.038c9.335-9.335 9.335-24.523 0-33.858zm3.898 37.755-28.038 28.038c-3.496 3.496-9.153 3.495-12.648 0l-14.502-14.502c-3.496-3.496-3.495-9.153 0-12.648l28.039-28.039c3.494-3.494 9.152-3.495 12.647 0l14.502 14.502c3.487 3.488 3.487 9.161 0 12.649z"/></g></g></svg>