<svg id="Capa_1" enable-background="new 0 0 512 512" height="512" viewBox="0 0 512 512" width="512" xmlns="http://www.w3.org/2000/svg"><g><g fill="#7181ff"><path d="m149.805 178.933c-79.187 84.666-122.947 179.778-118.735 247.45.264 4.203.963 8.284 2.069 12.202l29.086-29.085c11.124-11.124 29.149-11.124 40.273 0 11.124 11.125 11.124 29.149 0 40.273l-29.084 29.085c3.917 1.106 7.999 1.805 12.202 2.069 67.672 4.212 162.783-39.547 247.45-118.734z"/><path d="m362.195 333.063c79.185-84.665 122.943-179.776 118.738-247.453-.264-4.203-.963-8.285-2.069-12.202l-29.092 29.092c-11.117 11.117-29.149 11.124-40.273 0-11.125-11.125-11.117-29.156 0-40.274l29.092-29.092c-3.918-1.106-7.999-1.805-12.202-2.069-67.678-4.205-162.789 39.553-247.454 118.738z"/></g><path d="m478.863 73.408-29.091 29.092c-11.117 11.117-29.149 11.124-40.273 0s-11.117-29.156 0-40.273l29.092-29.092c19.451 5.494 34.778 20.822 40.272 40.273z" fill="#a4bcff"/><path d="m102.498 449.774-29.085 29.085c-19.459-5.487-34.786-20.814-40.273-40.273l29.085-29.085c11.124-11.124 29.149-11.124 40.273 0s11.124 29.148 0 40.273z" fill="#a4bcff"/><g fill="#f90"><path d="m316.025 286.893 15.572-15.572c19.401-19.401 19.401-50.857 0-70.258l-20.662-20.662c-19.401-19.401-50.857-19.401-70.258 0l-15.572 15.572z"/><path d="m195.975 225.103-15.572 15.572c-19.401 19.401-19.401 50.857 0 70.258l20.662 20.662c19.401 19.401 50.857 19.401 70.258 0l15.572-15.572z"/></g><path d="m98.272 127.401c-8.044-8.044-8.044-21.086 0-29.13 8.044-8.044 21.086-8.044 29.13 0l17.863 17.863c6.143-13.453 4.786-29.628-4.541-42.059l-39.057-52.061c-13.256-17.672-39.09-19.506-54.711-3.885l-28.825 28.825c-15.621 15.621-13.787 41.455 3.884 54.712l52.061 39.057c12.431 9.326 28.606 10.684 42.059 4.541z" fill="#ffd600"/><path d="m489.985 410.33-52.061-39.057c-12.431-9.326-28.606-10.684-42.059-4.541l17.863 17.863c8.044 8.044 8.044 21.086 0 29.13-8.044 8.044-21.086 8.044-29.13 0l-17.863-17.863c-6.143 13.453-4.786 29.628 4.541 42.059l39.057 52.061c13.257 17.671 39.091 19.505 54.712 3.884l28.825-28.825c15.62-15.619 13.786-41.453-3.885-54.711z" fill="#ffd600"/><path d="m413.728 384.595-286.325-286.324c-8.044-8.044-21.086-8.044-29.13 0-8.044 8.044-8.044 21.086 0 29.13l286.325 286.325c8.044 8.044 21.086 8.044 29.13 0 8.044-8.044 8.044-21.087 0-29.131z" fill="#ffff6f"/><circle cx="407.106" cy="172.067" fill="#2115c2" r="10.078"/><g><path d="m364.098 178.081-30.18-30.18c-2.929-2.929-2.929-7.678 0-10.607s7.678-2.929 10.607 0l30.18 30.18c2.929 2.929 2.929 7.678 0 10.607-2.929 2.928-7.679 2.929-10.607 0z" fill="#2115c2"/></g><circle cx="339.931" cy="104.892" fill="#2115c2" r="10.078"/><g fill="#2115c2"><path d="m327.942 356.716c-40.502 37.881-84.829 68.775-128.189 89.343-40.639 19.277-78.747 28.77-110.478 27.544l11.5-11.501c3.162-4.191 17.546-12.829 17.546-32.465 0-31.917-38.797-48.041-61.401-25.44-3.826 3.826-12.491 12.491-18.526 18.526-1.222-31.73 8.268-69.84 27.544-110.478 20.567-43.36 51.462-87.687 89.343-128.189 2.83-3.025 2.671-7.771-.354-10.601-3.024-2.829-7.771-2.67-10.601.354-78.937 84.401-125.202 181.36-120.741 253.045.295 4.688 1.081 9.321 2.337 13.769 0 0 0 .001.001.001 10.509 37.257 45.71 45.604 45.46 45.453 4.446 1.255 9.076 2.041 13.767 2.335 87.063 5.413 188.69-60.557 253.039-120.742 3.025-2.829 3.184-7.575.354-10.601-2.83-3.024-7.577-3.183-10.601-.353zm-256.574 113.58c-13.614-5.141-24.525-16.051-29.666-29.666l25.826-25.826c8.09-8.1 21.412-8.254 29.667 0 8.178 8.178 8.18 21.487 0 29.666-6.086 6.085-19.612 19.612-25.827 25.826z"/><path d="m488.418 85.14c-.498-7.916-2.38-13.924-2.337-13.771-10.519-37.237-45.696-45.598-45.453-45.452-4.448-1.255-9.081-2.042-13.774-2.337-71.692-4.453-168.646 41.813-253.042 120.745-3.025 2.83-3.184 7.576-.354 10.601 2.829 3.025 7.575 3.184 10.601.354 40.502-37.879 84.828-68.773 128.188-89.341 40.639-19.277 78.752-28.766 110.481-27.549l-18.532 18.533c-14.027 14.026-14.002 36.877 0 50.88 14.054 14.053 36.881 13.999 50.88 0l18.532-18.532c1.219 31.734-8.273 69.844-27.549 110.481-20.568 43.36-51.462 87.687-89.341 128.188-2.83 3.025-2.671 7.771.354 10.601 3.033 2.836 7.777 2.664 10.601-.354 78.933-84.397 125.199-181.356 120.745-253.047zm-43.95 12.056c-8.297 8.296-21.637 8.03-29.666 0-8.331-8.332-7.969-21.696 0-29.666l25.831-25.831c13.61 5.147 24.52 16.056 29.666 29.666z"/></g><path d="m494.486 404.331-52.061-39.057c-12.9-9.678-29.601-12.285-44.7-7.288l-71.093-71.093 10.268-10.268c22.295-22.294 22.295-58.57 0-80.864l-20.662-20.662c-22.294-22.294-58.57-22.294-80.864 0l-10.268 10.269-71.093-71.093c4.997-15.099 2.39-31.8-7.288-44.7l-39.057-52.06c-16-21.329-47.186-23.516-66.015-4.687l-28.825 28.823c-18.851 18.851-16.613 50.036 4.687 66.015l52.06 39.057c12.997 9.751 29.727 12.276 44.722 7.309l71.072 71.072-10.269 10.268c-22.294 22.294-22.294 58.57 0 80.865l20.662 20.661c11.147 11.148 25.79 16.721 40.433 16.721 14.642 0 29.285-5.573 40.432-16.721l10.268-10.268 71.093 71.093c-4.997 15.099-2.39 31.8 7.288 44.7l39.057 52.061c15.975 21.293 47.149 23.553 66.015 4.687l28.826-28.826c18.849-18.85 16.611-50.034-4.688-66.014zm-248.506-218.626c16.446-16.446 43.206-16.446 59.651 0l20.662 20.662c16.446 16.446 16.446 43.205 0 59.651l-10.268 10.268-80.313-80.313zm-167.403-50.982-52.06-39.057c-14.023-10.52-15.463-31.028-3.082-43.409l28.825-28.825c12.428-12.428 32.923-10.896 43.409 3.082l39.057 52.06c5.052 6.734 7.335 14.964 6.676 23.088l-8.695-8.695c-10.956-10.956-28.782-10.956-39.737 0-10.931 10.931-11.031 28.703 0 39.737l8.695 8.695c-8.122.66-16.355-1.624-23.088-6.676zm187.443 191.568c-16.447 16.447-43.206 16.446-59.652 0l-20.662-20.661c-16.446-16.447-16.446-43.206 0-59.652l10.268-10.268 54.289 54.289 26.024 26.025zm-162.444-204.193c-5.123-5.124-5.111-13.413 0-18.524 5.091-5.089 13.396-5.126 18.524 0l286.325 286.325c5.107 5.107 5.107 13.417 0 18.524s-13.417 5.107-18.524 0zm384.99 337.641-28.826 28.826c-12.396 12.396-32.901 10.924-43.409-3.082l-39.057-52.06c-5.052-6.734-7.335-14.963-6.676-23.087l8.694 8.694c10.852 10.854 28.694 11.044 39.737 0 11.019-11.017 10.883-28.855 0-39.737l-8.695-8.695c8.129-.659 16.355 1.625 23.087 6.676l52.061 39.057c14.024 10.519 15.465 31.026 3.084 43.408z" fill="#f95116"/></g></svg>