<svg id="Capa_1" enable-background="new 0 0 512 512" height="512" viewBox="0 0 512 512" width="512" xmlns="http://www.w3.org/2000/svg"><g><path d="m266.588 396.684c-3.505.194-7.036.287-10.584.287-10.511 0-20.824-.844-30.884-2.447v51.232h61.759v-51.225c-6.657 1.061-13.427 1.785-20.291 2.153z" fill="#ff9bff"/><path d="m302.377 445.756h-92.753c-20.152 0-36.488 16.336-36.488 36.488 0 12.291 9.964 22.256 22.256 22.256h121.218c12.291 0 22.256-9.964 22.256-22.256-.001-20.152-16.338-36.488-36.489-36.488z" fill="#ff9bff"/><path d="m302.377 438.256h-7.997v-43.725c0-4.143-3.357-7.5-7.5-7.5s-7.5 3.357-7.5 7.5v43.725h-46.76v-43.732c0-4.142-3.357-7.5-7.5-7.5s-7.5 3.358-7.5 7.5v43.732h-7.996c-24.255 0-43.988 19.732-43.988 43.988 0 16.408 13.349 29.756 29.756 29.756h121.218c16.407 0 29.755-13.348 29.755-29.756-.001-24.255-19.733-43.988-43.988-43.988zm14.232 58.744h-121.217c-8.137 0-14.756-6.62-14.756-14.756 0-15.984 13.004-28.988 28.988-28.988h92.753c15.983 0 28.987 13.004 28.987 28.988 0 8.136-6.619 14.756-14.755 14.756z" fill="#e207b9"/><path d="m405.128 77.015-7.914 14.072c-1.546 2.762-3.733 5.043-6.318 6.69-2.585 1.656-5.566 2.686-8.725 2.939-6.436.515-12.172 4.266-15.221 9.95l-7.247 13.506c-3.539 6.597-10.626 10.499-18.101 9.967l-5.034-.363c-.836-.059-1.664-.084-2.5-.084-9.84 0-19.275 4.113-25.982 11.42-4.232 4.62-7.154 10.279-8.472 16.403l-3.032 14.123c-1.073 4.975-3.201 9.663-6.259 13.726l-16.521 22.046c-3.843 5.135-2.745 12.425 2.45 16.192l14.317 10.381c2.779 2.01 6.31 2.678 9.638 1.816l20.035-5.212c1.841-.481 3.716-.71 5.575-.71 5.879 0 11.597 2.331 15.829 6.631 4.173 4.24 9.874 6.631 15.82 6.631h11.302c3.632 0 7.205.887 10.406 2.593l11.437 6.065c1.098.583 2.145 1.258 3.125 2.019l37.714 29.005c12.357-25.576 19.284-54.278 19.284-84.584-.003-47.682-17.149-91.368-45.606-125.222z" fill="#7181ff"/><path d="m260.152 377.451c0-5.769 2.745-11.378 7.669-14.891 4.823-3.421 7.678-8.97 7.678-14.883v-6.217c0-4.637-1.765-9.105-4.941-12.492l-9.536-10.17c-5.853-6.242-6.588-15.719-1.765-22.789l2.559-3.75c6.85-10.051 2.154-23.862-9.393-27.654l-27.688-9.089c-2.542-.836-4.679-2.568-6.022-4.882l-18.988-32.663c-4.13-7.12-14.368-7.256-18.692-.245l-4.544 7.365c-2.01 3.252-5.532 5.178-9.266 5.178-.617 0-1.242-.051-1.858-.16-6.293-1.081-10.305-7.315-8.7-13.489l9.832-37.638c.777-2.999 2.804-5.524 5.558-6.943l20.035-10.313c3.691-1.892 5.913-5.676 5.913-9.688 0-.786-.084-1.579-.262-2.365-1.858-8.371-8.599-14.781-17.045-16.226l-13.194-2.255c-4.164-.709-8.168-2.205-11.783-4.401l-29.073-17.645c-7.188-4.367-12.484-11.268-14.832-19.343l-4.038-13.861c-29.005 34.006-46.507 78.105-46.507 126.293 0 107.55 87.185 194.736 194.736 194.736 3.548 0 7.078-.093 10.584-.287l-5.06-12.281c-.93-2.256-1.377-4.621-1.377-6.952z" fill="#7181ff"/><path d="m431.448 286.819c-30.028 62.192-92.152 105.971-164.86 109.864l-5.059-12.281c-.929-2.255-1.377-4.62-1.377-6.952 0-5.769 2.745-11.377 7.669-14.891 4.823-3.421 7.678-8.97 7.678-14.883v-6.217c0-4.637-1.765-9.105-4.941-12.492l-9.536-10.17c-5.853-6.242-6.588-15.719-1.765-22.789l2.559-3.75c6.85-10.051 2.154-23.862-9.393-27.654l-27.688-9.089c-2.542-.836-4.679-2.568-6.022-4.882l-18.988-32.663c-4.13-7.12-14.368-7.256-18.692-.245l-4.544 7.365c-2.01 3.252-5.532 5.178-9.266 5.178-.617 0-1.242-.051-1.858-.16-6.293-1.081-10.305-7.315-8.7-13.489l9.832-37.638c.777-2.999 2.804-5.524 5.558-6.943l20.035-10.313c3.691-1.892 5.913-5.676 5.913-9.688 0-.786-.084-1.58-.262-2.365-1.858-8.371-8.599-14.781-17.045-16.226l-13.194-2.255c-4.164-.709-8.168-2.205-11.783-4.401l-29.073-17.645c-7.188-4.367-12.484-11.268-14.832-19.343l-4.037-13.861v-.008c35.719-41.877 88.865-68.433 148.227-68.433 59.861 0 113.412 27.012 149.124 69.515l-7.914 14.072c-1.546 2.762-3.733 5.043-6.318 6.69-2.585 1.656-5.566 2.686-8.725 2.939-6.436.515-12.171 4.266-15.221 9.95l-7.247 13.506c-3.539 6.597-10.626 10.499-18.101 9.967l-5.034-.363c-.836-.059-1.664-.084-2.5-.084-9.84 0-19.275 4.113-25.982 11.42-4.232 4.62-7.154 10.279-8.472 16.403l-3.032 14.123c-1.073 4.975-3.201 9.663-6.259 13.726l-16.521 22.046c-3.843 5.135-2.745 12.425 2.45 16.192l14.317 10.381c2.779 2.01 6.31 2.678 9.638 1.816l20.035-5.212c1.841-.481 3.716-.71 5.575-.71 5.879 0 11.597 2.331 15.829 6.631 4.173 4.24 9.874 6.631 15.82 6.631h11.302c3.632 0 7.205.887 10.406 2.593l11.437 6.065c1.098.583 2.145 1.259 3.125 2.019z" fill="#88f8d8"/><circle cx="302.962" cy="75.081" fill="#007ea8" r="9.964"/><g><path d="m277.099 109.437h-42.197c-4.143 0-7.5-3.358-7.5-7.5s3.357-7.5 7.5-7.5h42.197c4.143 0 7.5 3.358 7.5 7.5s-3.358 7.5-7.5 7.5z" fill="#007ea8"/></g><circle cx="209.038" cy="75.081" fill="#007ea8" r="9.964"/><g><path d="m431.442 294.321c-1.094 0-2.205-.24-3.257-.749-3.729-1.802-5.292-6.286-3.49-10.016 12.3-25.457 18.536-52.817 18.536-81.321 0-44.002-15.571-86.759-43.845-120.394-2.665-3.171-2.256-7.902.915-10.567 3.171-2.666 7.902-2.255 10.567.915 30.542 36.334 47.362 82.519 47.362 130.046 0 30.782-6.739 60.338-20.03 87.847-1.293 2.678-3.97 4.239-6.758 4.239z" fill="#2115c2"/></g><g><path d="m256.004 404.471c-111.513 0-202.235-90.723-202.235-202.236 0-48.064 17.153-94.644 48.301-131.16 2.688-3.15 7.421-3.528 10.573-.839 3.151 2.688 3.527 7.422.839 10.573-28.834 33.804-44.713 76.927-44.713 121.426 0 103.242 83.993 187.236 187.235 187.236 3.445 0 6.866-.093 10.169-.276 4.121-.229 7.674 2.938 7.903 7.073s-2.938 7.674-7.073 7.904c-3.577.199-7.278.299-10.999.299z" fill="#2115c2"/></g><g><path d="m266.586 404.184c-3.024 0-5.771-1.823-6.933-4.643l-5.06-12.281c-1.289-3.13-1.942-6.43-1.942-9.809 0-8.316 4.043-16.165 10.813-20.997 2.846-2.018 4.534-5.295 4.534-8.777v-6.217c0-2.745-1.034-5.359-2.912-7.362l-9.536-10.17c-8.323-8.875-9.347-22.094-2.491-32.145l2.562-3.752c1.922-2.821 2.396-6.297 1.296-9.534-1.1-3.235-3.591-5.701-6.835-6.767l-27.686-9.088c-4.295-1.412-7.905-4.34-10.171-8.244l-18.985-32.657c-.841-1.45-2.169-1.682-2.886-1.692-.695-.016-2.059.187-2.939 1.615l-4.544 7.365c-3.384 5.474-9.232 8.74-15.648 8.74-1.076 0-2.145-.093-3.175-.277-5.012-.861-9.509-3.832-12.292-8.144-2.786-4.315-3.643-9.642-2.351-14.615l9.834-37.647c1.308-5.042 4.727-9.317 9.378-11.714l20.039-10.315c1.143-.586 1.846-1.74 1.846-3.02 0-.245-.026-.486-.079-.718-1.207-5.439-5.521-9.544-10.992-10.48l-13.193-2.255c-5.118-.872-9.969-2.684-14.413-5.384l-29.07-17.643c-8.822-5.36-15.265-13.762-18.143-23.661l-4.036-13.857c-.199-.681-.3-1.388-.3-2.098 0-1.784.636-3.518 1.794-4.875 38.523-45.163 94.629-71.066 153.934-71.066 59.872 0 116.318 26.313 154.866 72.19 2.01 2.392 2.326 5.778.795 8.501l-7.914 14.072c-2.111 3.773-5.166 7.006-8.825 9.338-3.631 2.326-7.84 3.744-12.155 4.091-3.915.313-7.357 2.563-9.211 6.019l-7.248 13.507c-4.927 9.186-14.83 14.646-25.242 13.902l-5.041-.363c-.616-.044-1.261-.065-1.961-.065-7.756 0-15.211 3.277-20.456 8.991-3.322 3.628-5.629 8.094-6.665 12.909l-3.031 14.12c-1.299 6.021-3.927 11.78-7.601 16.661l-16.512 22.033c-.871 1.163-.844 2.375-.75 2.993.094.616.426 1.778 1.601 2.63l14.316 10.381c.966.698 2.19.929 3.355.627l20.027-5.209c2.411-.63 4.926-.951 7.463-.951 7.908 0 15.626 3.233 21.174 8.87 2.746 2.791 6.564 4.392 10.476 4.392h11.301c4.851 0 9.669 1.201 13.934 3.474l11.423 6.057c1.477.783 2.893 1.698 4.208 2.718l37.69 28.987c2.815 2.165 3.726 6.008 2.182 9.206-32.078 66.437-97.683 110.155-171.213 114.093-.136.006-.27.01-.404.01zm-76.287-199.135c.087 0 .173 0 .26.002 6.527.089 12.379 3.512 15.653 9.158l18.985 32.656c.421.726 1.088 1.266 1.881 1.527l27.684 9.087c7.766 2.551 13.727 8.452 16.357 16.191 2.631 7.741 1.499 16.056-3.106 22.813l-2.563 3.754c-2.818 4.132-2.38 9.781 1.042 13.43l9.536 10.17c4.495 4.794 6.971 11.052 6.971 17.623v6.217c0 8.335-4.052 16.186-10.838 21-2.817 2.01-4.51 5.294-4.51 8.774 0 1.409.273 2.787.812 4.096l3.004 7.29c63.907-5.237 120.728-42.955 150.498-99.85l-32.803-25.228c-.662-.513-1.35-.957-2.068-1.338l-11.436-6.064c-2.115-1.127-4.493-1.719-6.893-1.719h-11.301c-7.904 0-15.619-3.233-21.167-8.87-2.787-2.832-6.51-4.391-10.482-4.391-1.258 0-2.496.157-3.679.466l-20.044 5.214c-5.513 1.427-11.315.335-15.921-2.998l-14.323-10.386c-4.149-3.009-6.857-7.457-7.626-12.524-.77-5.071.5-10.126 3.573-14.233l16.524-22.05c2.386-3.17 4.088-6.904 4.931-10.81l3.03-14.115c1.597-7.42 5.148-14.298 10.273-19.894 8.084-8.807 19.567-13.854 31.513-13.854 1.056 0 2.047.034 3.028.103l5.045.364c4.525.318 8.815-2.046 10.953-6.032l7.248-13.507c4.273-7.969 12.211-13.158 21.23-13.88 1.87-.15 3.695-.765 5.277-1.778 1.592-1.014 2.907-2.407 3.819-4.038l5.34-9.494c-35.564-40.063-86.293-62.931-140.002-62.931-53.565 0-104.317 22.83-139.884 62.773l2.894 9.932c1.829 6.29 5.922 11.626 11.525 15.031l29.07 17.643c2.823 1.715 5.901 2.865 9.151 3.419l13.197 2.256c11.506 1.967 20.574 10.6 23.104 21.993.291 1.29.44 2.64.44 3.99 0 6.934-3.829 13.203-9.992 16.363l-20.023 10.307c-.857.442-1.489 1.229-1.73 2.157l-9.835 37.651c-.325 1.252.134 2.228.438 2.698.302.468.998 1.285 2.275 1.504.211.037.393.052.589.052 1.18 0 2.259-.606 2.886-1.621l4.541-7.36c3.384-5.486 9.22-8.739 15.649-8.739z" fill="#007ea8"/></g></g></svg>