<svg id="Capa_1" enable-background="new 0 0 512 512" height="512" viewBox="0 0 512 512" width="512" xmlns="http://www.w3.org/2000/svg"><g><path d="m428.142 180.227v233.299c0 17.112-13.872 30.994-30.994 30.994h-32.264c-17.122 0-30.994-13.882-30.994-30.994v-233.299c0-17.122 13.872-30.994 30.994-30.994h32.264c17.122.001 30.994 13.872 30.994 30.994z" fill="#ff63ed"/><path d="m364.884 444.52h-229.278c-28.583 0-51.746-23.173-51.746-51.756v-191.784c0-28.584 23.163-51.746 51.746-51.746h229.278c-17.122 0-30.994 13.872-30.994 30.994v233.299c0 17.111 13.872 30.993 30.994 30.993z" fill="#ff9bff"/><circle cx="255.946" cy="344.68" fill="#e207b9" r="9.988"/><circle cx="161.794" cy="344.68" fill="#e207b9" r="9.988"/><path d="m246.544 205.691h-75.348c-13.45 0-24.353 10.903-24.353 24.353v36.705c0 13.45 10.903 24.353 24.353 24.353h75.348c13.45 0 24.353-10.903 24.353-24.353v-36.705c0-13.449-10.903-24.353-24.353-24.353z" fill="#a4bcff"/><g><path d="m246.544 298.603h-75.348c-17.564 0-31.854-14.289-31.854-31.853v-36.705c0-17.564 14.289-31.854 31.854-31.854h75.348c17.564 0 31.854 14.29 31.854 31.854v36.705c-.001 17.564-14.29 31.853-31.854 31.853zm-75.348-85.412c-9.293 0-16.854 7.561-16.854 16.854v36.705c0 9.293 7.561 16.853 16.854 16.853h75.348c9.293 0 16.854-7.56 16.854-16.853v-36.705c0-9.293-7.561-16.854-16.854-16.854z" fill="#2115c2"/></g><g><path d="m234.068 240.831h-50.396c-4.143 0-7.5-3.358-7.5-7.5s3.357-7.5 7.5-7.5h50.396c4.143 0 7.5 3.358 7.5 7.5s-3.357 7.5-7.5 7.5z" fill="#2115c2"/></g><g><path d="m234.068 270.963h-50.396c-4.143 0-7.5-3.358-7.5-7.5s3.357-7.5 7.5-7.5h50.396c4.143 0 7.5 3.358 7.5 7.5s-3.357 7.5-7.5 7.5z" fill="#2115c2"/></g><path d="m280.361 444.52v34.553c0 14.043 11.384 25.427 25.427 25.427s25.427-11.384 25.427-25.427v-34.553z" fill="#7181ff"/><path d="m146.355 444.52v34.553c0 14.043 11.384 25.427 25.427 25.427s25.427-11.384 25.427-25.427v-34.553z" fill="#7181ff"/><g><path d="m305.788 512c-18.156 0-32.927-14.771-32.927-32.927v-34.553c0-4.142 3.357-7.5 7.5-7.5s7.5 3.358 7.5 7.5v34.553c0 9.885 8.042 17.927 17.927 17.927s17.927-8.042 17.927-17.927v-34.553c0-4.142 3.357-7.5 7.5-7.5s7.5 3.358 7.5 7.5v34.553c-.001 18.156-14.771 32.927-32.927 32.927z" fill="#2115c2"/></g><g><path d="m171.782 512c-18.156 0-32.927-14.771-32.927-32.927v-34.553c0-4.142 3.357-7.5 7.5-7.5s7.5 3.358 7.5 7.5v34.553c0 9.885 8.042 17.927 17.927 17.927 9.886 0 17.928-8.042 17.928-17.927v-34.553c0-4.142 3.357-7.5 7.5-7.5s7.5 3.358 7.5 7.5v34.553c0 18.156-14.772 32.927-32.928 32.927z" fill="#2115c2"/></g><path d="m280.361 444.52h50.854v25h-50.854z" fill="#2115c2"/><path d="m146.355 444.52h50.854v25h-50.854z" fill="#2115c2"/><path d="m323.833 35.464c0-15.444 12.52-27.964 27.964-27.964h-197.881c-15.444 0-27.964 12.52-27.964 27.964s12.52 27.964 27.964 27.964h197.881c-15.444.001-27.964-12.519-27.964-27.964z" fill="#b98eff"/><g fill="#9448f5"><circle cx="351.797" cy="35.464" r="27.964"/><path d="m155.78 63.429h45.409v85.805h-45.409z"/><path d="m273.898 63.429h45.409v85.805h-45.409z"/></g><path d="m351.797 0h-197.881c-19.555 0-35.464 15.909-35.464 35.464 0 17.637 12.943 32.303 29.828 35.012v78.757c0 4.143 3.357 7.5 7.5 7.5s7.5-3.357 7.5-7.5v-78.304h30.409v78.305c0 4.143 3.357 7.5 7.5 7.5s7.5-3.357 7.5-7.5v-78.305h57.709v78.305c0 4.143 3.357 7.5 7.5 7.5s7.5-3.357 7.5-7.5v-78.305h30.408v78.305c0 4.143 3.357 7.5 7.5 7.5s7.5-3.357 7.5-7.5v-78.305h24.99c19.556 0 35.465-15.909 35.465-35.464s-15.909-35.465-35.464-35.465zm-197.881 55.929c-11.284 0-20.464-9.18-20.464-20.464s9.18-20.464 20.464-20.464h168.932c-4.352 6.155-6.515 13.361-6.515 20.464 0 7.567 2.425 14.695 6.515 20.464-54.09 0-108.162 0-168.932 0zm197.881 0c-11.284 0-20.464-9.18-20.464-20.464s9.18-20.464 20.464-20.464 20.465 9.181 20.465 20.464c-.001 11.284-9.181 20.464-20.465 20.464z" fill="#6d00ca"/><g fill="#e207b9"><path d="m230.02 364.101h-42.3c-4.143 0-7.5 3.358-7.5 7.5 0 4.143 3.357 7.5 7.5 7.5h42.3c4.143 0 7.5-3.357 7.5-7.5 0-4.142-3.357-7.5-7.5-7.5z"/><path d="m397.148 141.733c-7.323 0-247.283 0-261.542 0-32.669 0-59.247 26.578-59.247 59.247v191.784c0 32.674 26.578 59.256 59.247 59.256h261.542c21.226 0 38.493-17.268 38.493-38.493v-233.299c0-21.226-17.267-38.495-38.493-38.495zm-62.738 295.287h-198.804c-24.397 0-44.247-19.853-44.247-44.256v-191.784c0-24.397 19.85-44.247 44.247-44.247h198.804c-5.334 6.916-8.02 15.2-8.02 23.494v233.299c0 8.478 2.838 16.811 8.02 23.494zm86.231-23.494c0 12.954-10.539 23.493-23.493 23.493h-32.265c-12.954 0-23.493-10.539-23.493-23.493v-233.298c0-12.955 10.539-23.494 23.493-23.494h32.265c12.954 0 23.493 10.54 23.493 23.494z"/></g></g></svg>