<svg id="Capa_1" enable-background="new 0 0 512 512" height="512" viewBox="0 0 512 512" width="512" xmlns="http://www.w3.org/2000/svg"><g><path d="m473.195 435.423c0 38.155-30.922 69.077-69.066 69.077-38.155 0-69.077-30.922-69.077-69.077 0-38.144 30.922-69.066 69.077-69.066 38.143-.001 69.066 30.922 69.066 69.066z" fill="#ff63ed"/><path d="m395.901 160.791c-7.895-15.876-16.75-31.339-18.717-49.294-.007-.061-.013-.122-.02-.182-1.023-9.548-11.103-15.361-19.708-11.099-14.457 7.16-33.404 21.112-44.429 47.477 0 0-37.549-56.431-18.138-122.516 3.157-10.748-7.14-20.589-17.717-16.899-33.892 11.824-88.929 42.056-102.185 115.571 0 0-20.537-33.231-69.948-36.868-9.122-.671-16.593 7.47-14.783 16.436 12.909 63.959-91.942 153.127 17.623 262.941h240.913c67.092-49.806 83.868-131.654 47.109-205.567z" fill="#ffd600"/><path d="m282.072 366.356c9.362-16.012 14.799-35.063 14.799-55.518 0-38.58-19.32-72.181-47.896-89.778-12.336-7.597-27.962-7.597-40.298 0-28.576 17.598-47.896 51.198-47.896 89.778 0 20.455 5.437 39.505 14.799 55.518z" fill="#f90"/><path d="m404.128 504.5h-296.247c-38.155 0-69.077-30.922-69.077-69.077 0-38.144 30.922-69.066 69.077-69.066h296.247c-38.155 0-69.077 30.922-69.077 69.066.001 38.154 30.923 69.077 69.077 69.077z" fill="#ff9bff"/><circle cx="273.567" cy="161.702" fill="#f95116" r="9.493"/><g><path d="m248.927 194.788h-40.202c-4.143 0-7.5-3.358-7.5-7.5s3.358-7.5 7.5-7.5h40.202c4.143 0 7.5 3.358 7.5 7.5s-3.358 7.5-7.5 7.5z" fill="#f95116"/></g><circle cx="184.084" cy="161.702" fill="#f95116" r="9.493"/><circle cx="404.125" cy="435.427" fill="#ff9bff" r="26.924"/><g><path d="m348.8 373.857c-2.293 0-4.557-1.048-6.028-3.03-2.469-3.326-1.773-8.024 1.552-10.493 31.173-23.141 51.797-54.037 59.646-89.347 7.751-34.873 2.639-71.823-14.785-106.856-.981-1.975-1.979-3.943-2.975-5.911-7.184-14.182-14.613-28.848-16.481-45.907l-.019-.161c-.237-2.212-1.453-4.053-3.34-5.089-1.036-.568-3.135-1.341-5.586-.127-12.993 6.435-30.627 19.232-40.838 43.649-1.066 2.552-3.451 4.309-6.204 4.572-2.758.263-5.428-1.009-6.959-3.311-1.612-2.423-39.255-60.133-19.089-128.784.978-3.327-.862-5.537-1.698-6.332-.83-.79-3.115-2.502-6.352-1.371-15.023 5.241-36.968 15.233-56.202 33.069-21.699 20.123-35.518 45.946-41.072 76.751-.551 3.057-2.93 5.458-5.983 6.038-3.051.58-6.146-.783-7.779-3.426-.03-.048-4.874-7.634-15.191-15.493-13.728-10.457-30.19-16.459-48.928-17.838-2.069-.152-4.059.657-5.439 2.223-.76.862-1.958 2.69-1.441 5.249 4.659 23.087-4.384 48.38-13.957 75.158-19.045 53.266-40.632 113.64 29.538 183.969 2.926 2.932 2.92 7.681-.013 10.607s-7.68 2.92-10.607-.012c-76.867-77.043-52.567-145.006-33.042-199.614 9.237-25.833 17.213-48.143 13.379-67.14-1.314-6.509.47-13.119 4.893-18.136 4.51-5.116 11.002-7.761 17.792-7.264 33.005 2.43 54.054 17.118 65.389 28.101 18.414-67.14 72.012-95.343 103.721-106.406 7.553-2.634 15.839-.845 21.632 4.666 5.808 5.525 8.012 13.736 5.752 21.428-13.12 44.665 1.39 85.017 10.667 104.298 12.099-20.276 28.632-31.783 41.373-38.093 6.248-3.093 13.341-2.941 19.462.42 6.156 3.38 10.281 9.586 11.032 16.601l.017.143c1.574 14.369 8.073 27.2 14.953 40.784 1.014 2 2.026 4.001 3.025 6.009 18.968 38.142 24.5 78.527 15.996 116.79-8.642 38.881-31.239 72.816-65.347 98.137-1.343.998-2.91 1.479-4.464 1.479z" fill="#f95116"/></g><g><path d="m282.065 373.858c-1.286 0-2.589-.331-3.778-1.027-3.576-2.091-4.78-6.684-2.69-10.26 9.011-15.412 13.774-33.301 13.774-51.732 0-34.599-16.986-66.553-44.329-83.392-9.851-6.066-22.582-6.067-32.432 0-27.342 16.839-44.328 48.793-44.328 83.392 0 18.432 4.763 36.321 13.773 51.732 2.091 3.576.887 8.17-2.69 10.26-3.573 2.09-8.169.887-10.26-2.689-10.352-17.706-15.824-38.213-15.824-59.303 0-39.768 19.719-76.616 51.463-96.165 14.855-9.148 33.31-9.147 48.163 0 31.744 19.549 51.464 56.398 51.464 96.165 0 21.089-5.472 41.596-15.825 59.303-1.394 2.386-3.904 3.716-6.481 3.716z" fill="#f95116"/></g><g fill="#e207b9"><path d="m404.125 401.003c-18.982 0-34.425 15.443-34.425 34.424s15.443 34.424 34.425 34.424c18.981 0 34.424-15.443 34.424-34.424s-15.443-34.424-34.424-34.424zm0 53.848c-10.71 0-19.424-8.714-19.424-19.424s8.714-19.424 19.424-19.424 19.423 8.714 19.423 19.424-8.713 19.424-19.423 19.424z"/><path d="m100.095 412.98h34.032c4.143 0 7.5-3.358 7.5-7.5s-3.357-7.5-7.5-7.5h-34.032c-4.143 0-7.5 3.358-7.5 7.5-.001 4.142 3.357 7.5 7.5 7.5z"/><path d="m296.871 458.569h-34.033c-4.143 0-7.5 3.358-7.5 7.5s3.357 7.5 7.5 7.5h34.033c4.143 0 7.5-3.358 7.5-7.5s-3.357-7.5-7.5-7.5z"/><path d="m168.201 457.866h-74.895c-4.143 0-7.5 3.358-7.5 7.5s3.358 7.5 7.5 7.5h74.894c4.143 0 7.5-3.358 7.5-7.5.001-4.142-3.356-7.5-7.499-7.5z"/><path d="m229.452 427.927h-54.463c-4.143 0-7.5 3.358-7.5 7.5s3.358 7.5 7.5 7.5h54.463c4.143 0 7.5-3.358 7.5-7.5.001-4.142-3.357-7.5-7.5-7.5z"/><path d="m404.128 358.856h-296.247c-42.225 0-76.576 34.348-76.576 76.566 0 42.225 34.351 76.577 76.576 76.577h296.247c42.22 0 76.567-34.352 76.567-76.577 0-42.218-34.347-76.566-76.567-76.566zm-296.247 138.144c-33.953 0-61.576-27.623-61.576-61.577 0-33.948 27.623-61.566 61.576-61.566h250.769c-8.663 6.408-15.98 14.682-21.295 24.123h-70.387c-4.143 0-7.5 3.358-7.5 7.5s3.358 7.5 7.5 7.5h63.942c-2.256 7.345-3.358 15.006-3.358 22.443 0 23.743 11.038 46.681 31.101 61.577zm296.247 0c-33.953 0-61.576-27.623-61.576-61.577 0-33.948 27.623-61.566 61.576-61.566 33.948 0 61.567 27.618 61.567 61.566 0 33.953-27.619 61.577-61.567 61.577z"/></g></g></svg>