<svg id="Capa_1" enable-background="new 0 0 512 512" height="512" viewBox="0 0 512 512" width="512" xmlns="http://www.w3.org/2000/svg"><g><path d="m371.425 54.642v97.108h-301.452v-97.108c0-26.032 21.1-47.142 47.132-47.142h207.188c26.032 0 47.132 21.11 47.132 47.142z" fill="#ffff6f"/><path d="m422.863 54.642v97.108h-51.439v-97.108c0-26.032-21.1-47.142-47.132-47.142h51.439c26.032 0 47.132 21.11 47.132 47.142z" fill="#ffd600"/><path d="m375.731 0c-2.609 0-251.848 0-258.626 0-30.125 0-54.632 24.512-54.632 54.642v97.108c0 4.143 3.358 7.5 7.5 7.5s7.5-3.357 7.5-7.5v-97.108c0-21.858 17.778-39.642 39.632-39.642h207.188c21.854 0 39.632 17.784 39.632 39.642v97.108c0 4.143 3.358 7.5 7.5 7.5s7.5-3.357 7.5-7.5v-97.108c0-15.186-6.385-29.514-17.069-39.642h13.876c21.853 0 39.632 17.784 39.632 39.642v97.108c0 4.143 3.358 7.5 7.5 7.5s7.5-3.357 7.5-7.5v-97.108c-.001-30.13-24.509-54.642-54.633-54.642z" fill="#f95116"/><g fill="#f90"><path d="m341.76 98.872c-2.655.015-5.44.026-7.883.032v-36.546c0-4.142-3.358-7.5-7.5-7.5s-7.5 3.358-7.5 7.5v44.014c0 3.653 2.632 6.775 6.232 7.393 1.408.241 10.86.14 16.735.107 4.142-.023 7.481-3.399 7.458-7.542-.024-4.343-3.719-7.59-7.542-7.458z"/><path d="m130.08 54.858c-4.142 0-7.5 3.358-7.5 7.5v13.77h-15.484v-13.77c0-4.142-3.358-7.5-7.5-7.5s-7.5 3.358-7.5 7.5v44.051c0 4.143 3.358 7.5 7.5 7.5s7.5-3.357 7.5-7.5v-15.281h15.484v15.281c0 4.143 3.358 7.5 7.5 7.5s7.5-3.357 7.5-7.5v-44.051c0-4.142-3.358-7.5-7.5-7.5z"/><path d="m293.406 70.26c4.142 0 7.5-3.358 7.5-7.5s-3.358-7.5-7.5-7.5h-18.392c-4.142 0-7.5 3.358-7.5 7.5v43.648c0 4.143 3.358 7.5 7.5 7.5h18.392c4.142 0 7.5-3.357 7.5-7.5 0-4.142-3.358-7.5-7.5-7.5h-10.892v-6.824h9.536c4.142 0 7.5-3.358 7.5-7.5s-3.358-7.5-7.5-7.5h-9.536v-6.824z"/><path d="m247.548 54.858h-24.328c-4.142 0-7.5 3.358-7.5 7.5 0 4.143 3.358 7.5 7.5 7.5h4.615v36.551c0 4.143 3.358 7.5 7.5 7.5s7.5-3.357 7.5-7.5v-36.551h4.713c4.142 0 7.5-3.357 7.5-7.5 0-4.142-3.358-7.5-7.5-7.5z"/><path d="m177.848 54.858c-16.28 0-29.525 13.245-29.525 29.525s13.245 29.525 29.525 29.525 29.525-13.245 29.525-29.525-13.245-29.525-29.525-29.525zm0 44.051c-8.009 0-14.525-6.516-14.525-14.525s6.516-14.525 14.525-14.525 14.525 6.517 14.525 14.525c.001 8.009-6.516 14.525-14.525 14.525z"/></g><path d="m424.77 205.096v246.069c0 29.451-23.884 53.335-53.345 53.335h-301.452c-29.461 0-53.345-23.884-53.345-53.335v-246.069c0-29.461 23.884-53.345 53.345-53.345h301.452c29.461 0 53.345 23.883 53.345 53.345z" fill="#ff9bff"/><path d="m495.372 205.096v246.069c0 29.451-23.884 53.335-53.345 53.335h-70.602c29.461 0 53.345-23.884 53.345-53.335v-246.069c0-29.461-23.884-53.345-53.345-53.345h70.602c29.461 0 53.345 23.883 53.345 53.345z" fill="#ff63ed"/><g fill="#ffff6f"><path d="m220.699 205.805c-17.513 0-31.711 14.197-31.711 31.71v37.253c0 8.903 7.218 16.121 16.121 16.121h31.179c8.903 0 16.121-7.218 16.121-16.121v-37.253c0-17.512-14.197-31.71-31.71-31.71z"/><path d="m104.057 205.805c-17.513 0-31.711 14.197-31.711 31.71v37.253c0 8.903 7.218 16.121 16.121 16.121h31.179c8.903 0 16.121-7.218 16.121-16.121v-37.253c.001-17.512-14.196-31.71-31.71-31.71z"/><path d="m337.34 205.805c17.513 0 31.711 14.197 31.711 31.71v37.253c0 8.903-7.218 16.121-16.121 16.121h-31.179c-8.903 0-16.121-7.218-16.121-16.121v-37.253c0-17.512 14.197-31.71 31.71-31.71z"/></g><path d="m263.622 504.5v-117.179c0-23.706-19.217-42.923-42.923-42.923-23.706 0-42.923 19.217-42.923 42.923v117.179z" fill="#ff63ed"/><path d="m104.057 344.398c-17.513 0-31.711 14.197-31.711 31.71v37.253c0 8.903 7.218 16.121 16.121 16.121h31.179c8.903 0 16.121-7.218 16.121-16.121v-37.253c.001-17.513-14.196-31.71-31.71-31.71z" fill="#ffff6f"/><path d="m337.34 344.398c17.513 0 31.711 14.197 31.711 31.71v37.253c0 8.903-7.218 16.121-16.121 16.121h-31.179c-8.903 0-16.121-7.218-16.121-16.121v-37.253c0-17.513 14.197-31.71 31.71-31.71z" fill="#ffff6f"/><g><path d="m236.289 298.39h-31.18c-13.024 0-23.621-10.596-23.621-23.621v-37.253c0-21.621 17.59-39.211 39.21-39.211s39.21 17.59 39.21 39.211v37.253c.001 13.025-10.595 23.621-23.619 23.621zm-15.59-85.085c-13.35 0-24.21 10.861-24.21 24.211v37.253c0 4.754 3.867 8.621 8.621 8.621h31.18c4.753 0 8.621-3.867 8.621-8.621v-37.253c-.002-13.35-10.863-24.211-24.212-24.211z" fill="#f95116"/></g><g><path d="m119.647 298.39h-31.179c-13.025 0-23.621-10.596-23.621-23.621v-37.253c0-21.621 17.59-39.211 39.21-39.211s39.21 17.59 39.21 39.211v37.253c.001 13.025-10.596 23.621-23.62 23.621zm-15.59-85.085c-13.35 0-24.21 10.861-24.21 24.211v37.253c0 4.754 3.867 8.621 8.621 8.621h31.179c4.753 0 8.621-3.867 8.621-8.621v-37.253c0-13.35-10.861-24.211-24.211-24.211z" fill="#f95116"/></g><g><path d="m352.93 298.39h-31.18c-13.024 0-23.621-10.596-23.621-23.621v-37.253c0-21.621 17.59-39.211 39.21-39.211s39.21 17.59 39.21 39.211v37.253c.002 13.025-10.594 23.621-23.619 23.621zm-15.59-85.085c-13.35 0-24.21 10.861-24.21 24.211v37.253c0 4.754 3.867 8.621 8.621 8.621h31.18c4.753 0 8.621-3.867 8.621-8.621v-37.253c-.001-13.35-10.862-24.211-24.212-24.211z" fill="#f95116"/></g><path d="m442.027 144.25c-6.214 0-357.913 0-372.054 0-33.55 0-60.845 27.295-60.845 60.845v246.069c0 33.545 27.295 60.836 60.845 60.836h372.054c33.55 0 60.845-27.291 60.845-60.835v-246.069c0-33.551-27.295-60.846-60.845-60.846zm-185.905 352.75h-70.847v-109.679c0-19.532 15.891-35.423 35.423-35.423s35.423 15.891 35.423 35.423v109.679zm115.303 0h-100.303v-109.679c0-27.804-22.62-50.423-50.423-50.423s-50.423 22.62-50.423 50.423v109.679h-100.303c-25.279 0-45.845-20.562-45.845-45.835v-246.069c0-25.279 20.566-45.845 45.845-45.845h301.452c25.279 0 45.845 20.566 45.845 45.845v246.069c0 25.273-20.566 45.835-45.845 45.835zm116.447-45.835c0 25.273-20.566 45.835-45.845 45.835h-30.636c13.211-11.506 20.879-28.287 20.879-45.835v-246.069c0-17.509-7.618-34.259-20.882-45.845h30.639c25.279 0 45.845 20.566 45.845 45.845z" fill="#e207b9"/><g><path d="m119.647 436.982h-31.179c-13.025 0-23.621-10.596-23.621-23.621v-37.253c0-21.621 17.59-39.211 39.21-39.211s39.21 17.59 39.21 39.211v37.253c.001 13.025-10.596 23.621-23.62 23.621zm-15.59-85.085c-13.35 0-24.21 10.861-24.21 24.211v37.253c0 4.754 3.867 8.621 8.621 8.621h31.179c4.753 0 8.621-3.867 8.621-8.621v-37.253c0-13.35-10.861-24.211-24.211-24.211z" fill="#f95116"/></g><g><path d="m352.93 436.982h-31.18c-13.024 0-23.621-10.596-23.621-23.621v-37.253c0-21.621 17.59-39.211 39.21-39.211s39.21 17.59 39.21 39.211v37.253c.002 13.025-10.594 23.621-23.619 23.621zm-15.59-85.085c-13.35 0-24.21 10.861-24.21 24.211v37.253c0 4.754 3.867 8.621 8.621 8.621h31.18c4.753 0 8.621-3.867 8.621-8.621v-37.253c-.001-13.35-10.862-24.211-24.212-24.211z" fill="#f95116"/></g></g></svg>