<svg id="Capa_1" enable-background="new 0 0 512 512" height="512" viewBox="0 0 512 512" width="512" xmlns="http://www.w3.org/2000/svg"><g><path d="m339.666 318.111c-25.809-9.432-54.054-14.641-83.666-14.641s-57.856 5.21-83.666 14.641l10.46-54.533h146.413z" fill="#ffff6f"/><path d="m329.206 263.578h-146.412l9.601-50.072h127.21z" fill="#ffd600"/><g><path d="m79.372 411.712c22.08 11.769 48.571 11.769 70.651 0 22.08-11.769 48.571-11.769 70.651 0 22.08 11.769 48.571 11.769 70.651 0 22.08-11.769 48.571-11.769 70.651 0 22.08 11.769 48.571 11.769 70.651 0 5.378-2.866 11.018-5.029 16.792-6.499-37.794-60.686-110.24-101.745-193.419-101.745s-155.625 41.059-193.42 101.745c5.774 1.47 11.414 3.633 16.792 6.499z" fill="#ffd600"/></g><path d="m256 141.846-56.049 32.251-7.556 39.409h127.21l-7.556-39.409z" fill="#ffff6f"/><path d="m328.378 98.182 97.609-27.706c-10.29-36.348-43.705-62.976-83.337-62.976-39.652 0-76.36 26.797-86.65 63.136-10.29-36.339-46.998-63.136-86.65-63.136-39.632 0-73.047 26.628-83.337 62.976l97.609 27.706c-19.093 1.517-37.726 9.681-52.138 24.482-26.109 26.827-30.121 66.989-12.306 97.908l69.454-39.962 67.368-38.764 67.368 38.764 69.454 39.962c17.815-30.919 13.803-71.081-12.306-97.908-14.412-14.801-33.045-22.965-52.138-24.482z" fill="#88f8d8"/><g fill="#f95116"><circle cx="302.978" cy="349.519" r="9.968"/><circle cx="209.022" cy="349.519" r="9.968"/><g><path d="m277.106 368.884h-42.212c-4.142 0-7.5 3.358-7.5 7.5 0 4.143 3.358 7.5 7.5 7.5h42.212c4.142 0 7.5-3.357 7.5-7.5 0-4.142-3.357-7.5-7.5-7.5z"/><path d="m455.786 401.248c-25.034-40.196-63.907-70.962-109.526-88.576-35.1-183.032 16.35 85.282-26.845-139.987-.78-4.068-4.71-6.736-8.778-5.954-4.068.78-6.733 4.71-5.953 8.778l5.848 30.496h-109.062l5.847-30.496c.78-4.068-1.885-7.998-5.954-8.778-4.069-.781-7.998 1.885-8.778 5.954-2.654 13.838 2.075-10.811-26.845 139.987-45.62 17.614-84.492 48.379-109.526 88.576-2.19 3.516-1.115 8.142 2.401 10.331 3.516 2.19 8.141 1.114 10.331-2.401 39.027-62.663 112.042-98.117 186.726-98.205.109 0 .218-.003.328-.003s.218.003.328.003c74.776.088 147.744 35.612 186.726 98.205 1.421 2.283 3.869 3.536 6.374 3.536 1.354 0 2.724-.366 3.958-1.135 3.515-2.189 4.59-6.815 2.4-10.331zm-257.193-180.242h114.813l6.725 35.072h-128.263zm57.407 74.962c-24.743 0-49.738 3.549-73.882 10.95l6.874-35.84h134.017l6.874 35.84c-23.723-7.272-48.652-10.95-73.883-10.95z"/></g><path d="m312.049 174.097-56.049-32.251-56.049 32.251-6.216 32.418 43.9-25.259c11.37-6.542 25.36-6.542 36.73 0l43.9 25.259z"/></g><g><path d="m389.082 227.073-133.082-76.574-133.082 76.573c-3.589 2.064-8.172.831-10.239-2.757-19.835-34.425-14.313-78.377 13.43-106.883 8.209-8.431 17.925-15.083 28.548-19.676l-70.692-20.065c-3.983-1.131-6.296-5.274-5.168-9.258 11.406-40.292 48.643-68.433 90.553-68.433 36.419 0 70.23 20.565 86.65 50.889 16.419-30.324 50.231-50.889 86.65-50.889 41.91 0 79.147 28.141 90.553 68.433 1.128 3.984-1.186 8.127-5.168 9.258l-70.692 20.066c10.623 4.593 20.338 11.245 28.546 19.675 27.744 28.507 33.266 72.459 13.431 106.884-2.067 3.588-6.65 4.821-10.238 2.757zm-129.341-91.727 129.993 74.797c12.283-27.462 6.732-60.336-14.593-82.248-12.572-12.911-29.39-20.809-47.356-22.236-3.619-.288-6.512-3.125-6.87-6.738-.358-3.612 1.923-6.962 5.416-7.954l90.053-25.561c-11.704-30.02-41.025-50.406-73.734-50.406-17.594 0-35.321 5.86-49.917 16.501-14.51 10.578-24.992 25.202-29.516 41.178-.914 3.228-3.861 5.457-7.216 5.457s-6.302-2.228-7.216-5.457c-4.524-15.976-15.006-30.6-29.516-41.178-14.598-10.641-32.325-16.501-49.919-16.501-32.709 0-62.03 20.386-73.733 50.406l90.053 25.561c3.492.991 5.773 4.341 5.416 7.954s-3.25 6.45-6.87 6.738c-17.966 1.427-34.785 9.325-47.358 22.238-21.324 21.91-26.875 54.784-14.591 82.246l129.993-74.797c2.315-1.332 5.164-1.333 7.481 0z" fill="#007ea8"/></g><path d="m8.721 411.712c22.08-11.769 48.571-11.769 70.651 0 22.08 11.769 48.571 11.769 70.651 0 22.08-11.769 48.571-11.769 70.651 0 22.08 11.769 48.571 11.769 70.651 0 22.08-11.769 48.571-11.769 70.651 0 22.08 11.769 48.571 11.769 70.651 0 22.08-11.769 48.571-11.769 70.651 0v92.788h-494.557z" fill="#7181ff"/><g><path d="m503.279 512h-494.558c-4.142 0-7.5-3.358-7.5-7.5v-92.788c0-2.771 1.527-5.315 3.972-6.619 24.329-12.968 53.377-12.967 77.707 0 19.911 10.614 43.685 10.613 63.596 0 24.329-12.968 53.377-12.968 77.707 0 19.911 10.614 43.684 10.613 63.596 0 24.329-12.968 53.377-12.968 77.707 0 19.911 10.614 43.685 10.613 63.596 0 24.329-12.968 53.378-12.968 77.707 0 2.445 1.303 3.972 3.848 3.972 6.618v92.789c-.002 4.142-3.36 7.5-7.502 7.5zm-487.058-15h479.558v-80.624c-19.045-8.613-41.02-7.961-59.623 1.954-24.33 12.968-53.379 12.967-77.707 0-19.909-10.613-43.683-10.613-63.595 0-24.33 12.968-53.379 12.967-77.707 0-19.909-10.613-43.683-10.613-63.595 0-24.33 12.968-53.379 12.967-77.707 0-18.603-9.916-40.577-10.568-59.623-1.955v80.625z" fill="#2115c2"/></g></g></svg>