<svg id="Capa_1" enable-background="new 0 0 512 512" height="512" viewBox="0 0 512 512" width="512" xmlns="http://www.w3.org/2000/svg"><g><path d="m132.356 355.22c-1.681-.248-3.398-.381-5.147-.381h-21.867c-19.329 0-35.055 15.725-35.055 35.054v19.177c.742-.076 1.496-.116 2.258-.116h27.814v-19.061c0-2.747 2.235-4.982 4.983-4.982h21.867c2.747 0 4.982 2.235 4.982 4.982v19.061h27.814c.763 0 1.516.04 2.258.116v-19.177c0-8.466-3.018-16.241-8.033-22.306-8.917-.053-17.256-4.828-21.874-12.367z" fill="#a4bcff"/><path d="m160.005 408.954h-87.46c-12.084 0-21.881 9.796-21.881 21.881v44.038c0 12.084 9.796 21.881 21.881 21.881h87.46c12.084 0 21.881-9.796 21.881-21.881v-44.038c-.001-12.085-9.797-21.881-21.881-21.881z" fill="#7181ff"/><path d="m169.763 403.127v-13.235c0-9.86-3.464-19.479-9.754-27.085-2.64-3.193-7.367-3.64-10.559-1s-3.64 7.367-1 10.56c4.07 4.922 6.313 11.146 6.313 17.525v11.562h-15.072v-11.562c0-6.882-5.6-12.481-12.482-12.481h-21.867c-6.883 0-12.482 5.6-12.482 12.481v11.562h-15.073v-11.562c0-15.193 12.361-27.554 27.555-27.554h21.867c1.338 0 2.701.102 4.052.301 4.089.605 7.91-2.226 8.516-6.323.604-4.098-2.227-7.91-6.324-8.516-2.073-.307-4.174-.462-6.243-.462h-21.867c-23.465 0-42.555 19.09-42.555 42.554v13.235c-11.417 4.033-19.622 14.927-19.622 27.708v44.038c0 16.201 13.181 29.381 29.381 29.381h87.459c16.2 0 29.381-13.18 29.381-29.381v-44.038c-.002-12.78-8.207-23.675-19.624-27.708zm-61.904-10.716h16.832v9.043h-16.832zm66.526 82.462c0 7.93-6.451 14.381-14.381 14.381h-87.459c-7.93 0-14.381-6.451-14.381-14.381v-44.038c0-7.433 5.667-13.565 12.908-14.306.685-.069 88.791-.162 90.405 0 7.24.74 12.908 6.873 12.908 14.306z" fill="#2115c2"/><path d="m181.885 356.878-16.048 7.989c-17.121 8.51-37.229-3.939-37.229-23.055 0-4.882 1.383-9.563 3.859-13.563s6.044-7.318 10.425-9.493l16.049-7.989z" fill="#ffceff"/><g><path d="m136.845 370.07c-9.854-6.106-15.737-16.67-15.737-28.259 0-12.611 7.133-24.154 18.449-29.773l16.04-7.986c3.708-1.845 8.211-.336 10.057 3.372s.337 8.21-3.371 10.056l-16.048 7.99c-6.257 3.105-10.127 9.466-10.127 16.341 0 6.359 3.229 12.156 8.638 15.508 5.416 3.356 12.052 3.665 17.754.831l16.043-7.987c3.707-1.845 8.211-.336 10.057 3.372s.337 8.21-3.371 10.057l-16.048 7.989c-10.313 5.125-22.402 4.645-32.336-1.511z" fill="#e207b9"/></g><g fill="#7181ff"><path d="m278.868 425.318v32.606h-46.576v-61.772c11.347 14.678 27.73 25.278 46.576 29.166z"/><path d="m359.077 394.258v63.666h-46.576v-32.935c19.035-4.297 35.468-15.445 46.576-30.731z"/><path d="m369.865 373.588c-3.959 11.487-10.48 21.777-18.886 30.183-14.339 14.329-34.132 23.193-56.008 23.193-34.7 0-64.185-22.316-74.894-53.376z"/></g><path d="m359.077 457.924v23.293c0 12.853-10.43 23.283-23.293 23.283h-24.834c-12.954 0-23.283-10.442-23.283-23.283 0-.16.012-1.204.04-1.286.124-4.09 1.818-9.334 5.195-13.421 0-.01 0-.01 0-.01 4.268-5.235 10.769-8.575 18.048-8.575h48.127z" fill="#a4bcff"/><path d="m278.868 457.924v23.293c0 12.853-10.43 23.283-23.293 23.283h-24.834c-12.954 0-23.283-10.442-23.283-23.283 0-.16.012-1.204.04-1.286.124-4.09 1.818-9.334 5.195-13.421 0-.01 0-.01 0-.01 4.268-5.235 10.769-8.575 18.048-8.575h48.127z" fill="#a4bcff"/><path d="m215.767 282.49v65.276c0 9.042 1.524 17.723 4.31 25.822h74.89v-62.274c-30.158-.001-57.78-10.839-79.2-28.824z" fill="#f90"/><path d="m294.971 311.315c-.002 0-.003 0-.005 0v62.274h74.9c2.787-8.099 4.31-16.78 4.31-25.822v-65.277c-21.421 17.986-49.045 28.825-79.205 28.825z" fill="#f90"/><path d="m215.767 282.49v57.528l-33.882 16.86-22.945-46.111z" fill="#f90"/><path d="m408.057 356.878 16.048 7.989c17.121 8.51 37.229-3.939 37.229-23.055 0-4.882-1.383-9.563-3.859-13.563s-6.044-7.318-10.425-9.493l-16.048-7.989z" fill="#ffceff"/><path d="m374.176 282.49v57.528l33.881 16.86 22.945-46.111z" fill="#f90"/><path d="m405.652 53.25v5.543h-221.371v-5.543c0-27.486 22.273-45.75 49.749-45.75h121.872c27.477 0 49.75 18.264 49.75 45.75z" fill="#f90"/><path d="m196.311 98.953h197.311c4.174 0 8.206.596 12.03 1.685v-41.845h-221.371v41.845c3.824-1.089 7.856-1.685 12.03-1.685z" fill="#ffff6f"/><g><path d="m176.875 152.695c-3.35 11.203-5.158 23.072-5.158 35.365 0 68.072 55.183 123.255 123.255 123.255s123.255-55.183 123.255-123.255c0-12.293-1.808-24.162-5.158-35.365z" fill="#ffceff"/></g><path d="m393.622 98.953h-197.311c-24.21 0-43.835 19.626-43.835 43.835 0 5.471 4.435 9.907 9.907 9.907h265.169c5.471 0 9.907-4.435 9.907-9.907-.001-24.209-19.627-43.835-43.837-43.835z" fill="#f90"/><circle cx="342.155" cy="194.383" fill="#e207b9" r="10.011"/><g><path d="m316.169 228.865h-42.396c-4.143 0-7.5-3.358-7.5-7.5s3.357-7.5 7.5-7.5h42.396c4.143 0 7.5 3.358 7.5 7.5s-3.357 7.5-7.5 7.5z" fill="#e207b9"/></g><circle cx="247.788" cy="194.383" fill="#e207b9" r="10.011"/><path d="m372.309 366.497c-3.917-1.35-8.184.731-9.534 4.646-9.629 27.94-36.339 48.32-67.804 48.32-30.657 0-57.886-19.559-67.803-48.321-1.351-3.916-5.618-5.997-9.535-4.646-3.916 1.351-5.996 5.619-4.646 9.535 2.842 8.244 6.859 15.838 11.806 22.648v52.33c-13.852 2.709-24.835 14.901-24.835 30.207 0 16.974 13.81 30.783 30.783 30.783h24.834c12.157 0 22.689-7.081 27.692-17.332 5.001 10.252 15.53 17.333 27.683 17.333h24.834c16.979 0 30.793-13.809 30.793-30.783 0-9.787 0-73.695 0-84.584 4.356-6.381 7.873-13.329 10.38-20.602 1.349-3.916-.731-8.184-4.648-9.534zm-100.941 114.72c0 8.703-7.085 15.783-15.793 15.783h-24.834c-8.703 0-15.783-7.08-15.783-15.772 0-8.942 7.269-15.803 15.783-15.803h40.627zm0-30.793h-31.575v-35.79c8.922 7.357 19.758 13.227 31.575 16.568zm15.72 11.337c-.412.514-.479.641-.721.961v-4.798-23.903c2.839.282 5.707.443 8.604.443 3.378 0 6.722-.215 10.029-.594v17.141c-6.986 1.366-13.315 5.112-17.912 10.75zm64.489 19.456c0 8.703-7.085 15.783-15.793 15.783h-24.834c-8.703 0-15.783-7.08-15.783-15.772 0-8.942 7.269-15.803 15.783-15.803h40.627zm0-30.793h-31.577v-19.614c11.853-3.555 22.739-9.701 31.576-17.389v37.003z" fill="#2115c2"/><g><path d="m420.768 371.583-16.054-7.991c-3.708-1.846-5.217-6.348-3.371-10.056s6.346-5.218 10.057-3.372l16.049 7.989c5.697 2.833 12.336 2.522 17.749-.833 5.408-3.352 8.638-9.149 8.638-15.508 0-6.923-3.913-13.256-10.12-16.338l-16.056-7.992c-3.708-1.846-5.217-6.348-3.371-10.056s6.347-5.218 10.057-3.372l16.049 7.989c11.297 5.611 18.441 17.15 18.441 29.769 0 11.588-5.883 22.152-15.737 28.259-9.84 6.097-21.927 6.684-32.331 1.512z" fill="#e207b9"/></g><path d="m434.343 304.053-56.826-28.278c-4.956-2.454-10.841 1.127-10.841 6.714v65.277c0 6.215-.795 12.357-2.366 18.322h-61.844v-54.58c.002-.064.002-.129.002-.193 0-3.883-2.953-7.077-6.735-7.461-.252-.025-.508-.039-.767-.039-4.143 0-7.5 3.358-7.5 7.5v54.773h-61.833c-1.571-5.965-2.366-12.106-2.366-18.322v-65.276c0-5.598-5.908-9.168-10.841-6.715l-56.827 28.278c-3.705 1.843-5.219 6.347-3.374 10.056l22.945 46.111c1.85 3.715 6.355 5.214 10.057 3.374l23.157-11.523c.402 8.173 1.936 16.214 4.601 23.958 1.041 3.028 3.89 5.061 7.092 5.061h74.89 74.9c3.202 0 6.051-2.032 7.092-5.061 2.664-7.744 4.199-15.785 4.601-23.958l23.156 11.523c3.692 1.836 8.203.348 10.057-3.374l22.945-46.111c1.844-3.709.334-8.211-3.375-10.056zm-226.076 31.319-23.009 11.45-16.263-32.682 39.271-19.542v40.774zm196.417 11.45-23.008-11.45v-40.773l39.271 19.542z" fill="#f95116"/><g><g><path d="m294.971 318.814c-72.099 0-130.755-58.656-130.755-130.755 0-12.748 1.842-25.37 5.474-37.514 1.187-3.969 5.36-6.224 9.335-5.037 3.968 1.187 6.223 5.366 5.036 9.334-3.215 10.749-4.845 21.924-4.845 33.216 0 63.827 51.928 115.755 115.755 115.755s115.755-51.927 115.755-115.755c0-11.291-1.63-22.466-4.844-33.216-1.187-3.969 1.068-8.147 5.037-9.334 3.973-1.186 8.147 1.069 9.334 5.037 3.632 12.145 5.473 24.767 5.473 37.513 0 72.1-58.656 130.756-130.755 130.756z" fill="#e207b9"/></g></g><path d="m413.152 95.322c0-10.7 0-31.409 0-42.072 0-15.219-6.069-28.994-17.089-38.788-10.492-9.326-24.755-14.462-40.16-14.462h-121.872c-15.405 0-29.668 5.136-40.161 14.462-11.02 9.794-17.089 23.569-17.089 38.788v42.073c-18.646 7.701-31.806 26.071-31.806 47.465 0 9.599 7.809 17.407 17.407 17.407h265.169c9.598 0 17.406-7.809 17.406-17.407.001-21.394-13.159-39.766-31.805-47.466zm-179.121-80.322h121.872c23.755 0 41.188 15.146 42.202 36.293h-206.277c1.013-21.147 18.448-36.293 42.203-36.293zm-42.25 51.293h206.371v25.361c-1.358-.121-3.095-.201-4.529-.201h-197.312c-1.476 0-3.197.083-4.53.201zm235.77 78.902h-265.169c-1.327 0-2.407-1.08-2.407-2.407 0-20.234 16.532-36.335 36.336-36.335h197.312c20.025 0 36.335 16.318 36.335 36.335 0 1.327-1.08 2.407-2.407 2.407z" fill="#f95116"/></g></svg>