<svg id="Capa_1" enable-background="new 0 0 512 512" height="512" viewBox="0 0 512 512" width="512" xmlns="http://www.w3.org/2000/svg"><g><path d="m253.654 7.502c-58.368-.335-108.349 36.467-127.646 88.111-8.55 22.883 8.554 47.247 32.983 47.247 14.696 0 27.748-9.182 32.939-22.931 9.407-24.914 33.68-42.594 61.944-42.163 35.722.544 64.092 30.356 64.092 66.082 0 8.755-1.858 17.067-5.173 24.629-6.944 15.838-20.471 27.852-36.773 33.623l-80.748 28.583c-42.851 15.168-71.494 55.692-71.494 101.148v123.199c0 27.322 22.148 49.47 49.47 49.47h165.507c27.322 0 49.47-22.148 49.47-49.47v-172.989-137.691c-.001-74.694-59.879-136.419-134.571-136.848z" fill="#ffceff"/><circle cx="256" cy="399.852" fill="#ff63ed" r="67.658"/><g fill="#e207b9"><circle cx="306.981" cy="272.254" r="10.817"/><circle cx="205.019" cy="272.254" r="10.817"/><g><path d="m233.096 308.908h45.81c4.143 0 7.5-3.358 7.5-7.5 0-4.143-3.357-7.5-7.5-7.5h-45.81c-4.143 0-7.5 3.357-7.5 7.5 0 4.142 3.357 7.5 7.5 7.5z"/><path d="m253.696.003c-59.643-.373-113.803 37.024-134.714 92.985-4.854 12.99-3.019 27.568 4.911 38.996 7.984 11.507 21.104 18.376 35.097 18.376 17.624 0 33.682-11.165 39.956-27.782 8.565-22.687 30.549-37.689 54.813-37.313 31.268.477 56.706 26.757 56.706 58.583 0 7.471-1.528 14.744-4.542 21.617-5.967 13.61-17.779 24.386-32.407 29.564l-80.748 28.583c-45.752 16.195-76.491 59.685-76.491 108.218v123.2c0 31.413 25.557 56.97 56.971 56.97h165.507c31.413 0 56.97-25.557 56.97-56.97v-310.68c-.001-79.144-63.714-143.898-142.029-144.347zm127.028 455.027c0 23.142-18.827 41.97-41.97 41.97h-165.507c-23.143 0-41.971-18.828-41.971-41.97v-123.198c0-42.192 26.723-79.999 66.497-94.078l80.748-28.583c18.52-6.556 33.514-20.29 41.14-37.681 3.851-8.783 5.804-18.083 5.804-27.641 0-39.972-32.064-72.98-71.478-73.581-.369-.006-.734-.009-1.102-.009-30.086 0-57.31 18.782-67.973 47.021-4.083 10.814-14.501 18.081-25.923 18.081-9.213 0-17.514-4.347-22.772-11.927-5.204-7.5-6.365-16.684-3.185-25.195 18.634-49.868 66.733-83.239 119.85-83.239.24 0 .487.001.729.002 70.091.402 127.113 58.428 127.113 129.348z"/><path d="m256 324.694c-41.441 0-75.157 33.716-75.157 75.158s33.716 75.158 75.157 75.158c41.442 0 75.158-33.716 75.158-75.158s-33.716-75.158-75.158-75.158zm-60.157 75.158c0-33.171 26.986-60.158 60.157-60.158 13.888 0 26.681 4.743 36.874 12.677l-84.354 84.354c-7.934-10.192-12.677-22.985-12.677-36.873zm60.157 60.158c-13.887 0-26.68-4.743-36.873-12.677l84.354-84.354c7.934 10.193 12.677 22.986 12.677 36.874 0 33.17-26.987 60.157-60.158 60.157z"/></g></g></g></svg>