<svg id="Capa_1" enable-background="new 0 0 512 512" height="512" viewBox="0 0 512 512" width="512" xmlns="http://www.w3.org/2000/svg"><g><path d="m344.845 7.5h-44.58c-18.466 0-33.435 14.969-33.435 33.435v20.59h111.45v-20.59c0-18.466-14.97-33.435-33.435-33.435z" fill="#ff63ed"/><g><path d="m378.279 69.025c-4.143 0-7.5-3.358-7.5-7.5v-20.59c0-14.301-11.634-25.935-25.935-25.935h-44.58c-14.301 0-25.936 11.635-25.936 25.935v20.59c0 4.142-3.357 7.5-7.5 7.5s-7.5-3.358-7.5-7.5v-20.59c.001-22.572 18.365-40.935 40.937-40.935h44.58c22.571 0 40.935 18.363 40.935 40.935v20.59c-.001 4.142-3.358 7.5-7.501 7.5z" fill="#e207b9"/></g><path d="m329.699 176.372c8.041 16.105 12.573 34.269 12.573 53.494 0 66.231-53.691 119.921-119.921 119.921s-119.921-53.691-119.921-119.921c0-19.225 4.531-37.389 12.573-53.494h-103.779v166.717c0 30.493 24.713 55.196 55.196 55.196h311.86c30.483 0 55.196-24.703 55.196-55.196v-166.717z" fill="#ffceff"/><circle cx="222.35" cy="229.866" fill="#7181ff" r="119.921"/><g><path d="m309.019 398.207v83.044c0 12.84-10.409 23.249-23.249 23.249h-38.808c-12.84 0-23.249-10.409-23.249-23.249s10.409-23.249 23.249-23.249h15.559v-59.795z" fill="#ff63ed"/></g><g><path d="m200.815 398.207v83.044c0 12.84-10.409 23.249-23.249 23.249h-38.808c-12.84 0-23.249-10.409-23.249-23.249s10.409-23.249 23.249-23.249h15.559v-59.795z" fill="#ff63ed"/></g><path d="m500.777 176.372v166.717c0 30.493-24.713 55.196-55.196 55.196h-67.301c30.483 0 55.196-24.703 55.196-55.196v-166.717z" fill="#ff9bff"/><path d="m500.777 116.722v59.65h-67.301v-59.65c0-30.483-24.713-55.196-55.196-55.196h67.301c30.482-.001 55.196 24.713 55.196 55.196z" fill="#ffd600"/><circle cx="222.35" cy="229.866" fill="#a4bcff" r="78.632"/><path d="m378.28 61.525h-311.859c-30.483 0-55.196 24.713-55.196 55.196v59.65h103.777c19.661-39.378 60.343-66.427 107.349-66.427s87.688 27.049 107.349 66.427h103.777v-59.65c-.001-30.482-24.714-55.196-55.197-55.196z" fill="#ffff6f"/><circle cx="84.67" cy="118.094" fill="#ff63ed" r="22.278"/><g fill="#e207b9"><path d="m154.317 398.207h46.499v31.068h-46.499z"/><path d="m262.521 398.207h46.499v31.068h-46.499z"/><path d="m500.776 168.872c-4.143 0-7.5 3.358-7.5 7.5v166.717c0 26.3-21.396 47.696-47.696 47.696h-26.65c13.698-11.664 22.046-29.112 22.046-47.696v-166.717c0-4.142-3.357-7.5-7.5-7.5s-7.5 3.358-7.5 7.5v166.717c0 26.3-21.396 47.696-47.696 47.696-209.864-.143-146.385 0-311.859 0-26.3 0-47.696-21.396-47.696-47.696v-166.717c0-4.142-3.357-7.5-7.5-7.5s-7.5 3.358-7.5 7.5v166.717c0 34.571 28.125 62.696 62.696 62.696h80.396v44.716h-8.059c-16.956 0-30.75 13.794-30.75 30.75 0 16.955 13.794 30.75 30.75 30.75h38.808c16.956 0 30.75-13.794 30.75-30.75v-75.465h46.705v44.716h-8.059c-16.956 0-30.75 13.794-30.75 30.75 0 16.955 13.794 30.75 30.75 30.75h38.809c16.955 0 30.749-13.794 30.749-30.75v-75.465h129.061c34.571 0 62.696-28.125 62.696-62.696v-166.719c-.001-4.142-3.358-7.5-7.501-7.5zm-307.46 312.379c0 8.684-7.065 15.75-15.75 15.75h-38.808c-8.685 0-15.75-7.065-15.75-15.75s7.065-15.75 15.75-15.75h15.559c4.143 0 7.5-3.357 7.5-7.5v-52.216h31.499zm108.204 0c0 8.684-7.065 15.75-15.749 15.75h-38.809c-8.685 0-15.75-7.065-15.75-15.75s7.065-15.75 15.75-15.75h15.559c4.143 0 7.5-3.357 7.5-7.5v-52.216h31.499z"/></g><g><path d="m222.35 315.998c-47.493 0-86.132-38.639-86.132-86.132s38.639-86.132 86.132-86.132c47.494 0 86.133 38.639 86.133 86.132s-38.639 86.132-86.133 86.132zm0-157.264c-39.223 0-71.132 31.91-71.132 71.132s31.909 71.132 71.132 71.132 71.133-31.91 71.133-71.132-31.911-71.132-71.133-71.132z" fill="#2115c2"/></g><path d="m445.58 54.026c-4.242 0-361.699 0-379.16 0-34.571 0-62.696 28.125-62.696 62.696v59.65c0 4.142 3.357 7.5 7.5 7.5h103.777c4.143 0 7.5-3.358 7.5-7.5s-3.357-7.5-7.5-7.5h-96.277v-52.15c0-26.3 21.396-47.696 47.696-47.696h311.859c26.3 0 47.696 21.396 47.696 47.696v52.15h-96.276c-4.143 0-7.5 3.358-7.5 7.5s3.357 7.5 7.5 7.5h103.776 67.301c4.143 0 7.5-3.358 7.5-7.5v-59.65c0-34.571-28.125-62.696-62.696-62.696zm47.696 114.846h-52.301v-52.15c0-18.892-8.547-36.201-22.046-47.696h26.65c26.3 0 47.696 21.396 47.696 47.696v52.15z" fill="#f95116"/><g><path d="m222.35 357.287c-70.26 0-127.421-57.161-127.421-127.421s57.161-127.421 127.421-127.421c70.261 0 127.422 57.161 127.422 127.421s-57.162 127.421-127.422 127.421zm0-239.842c-61.989 0-112.421 50.432-112.421 112.421s50.431 112.421 112.421 112.421 112.422-50.432 112.422-112.421-50.433-112.421-112.422-112.421z" fill="#2115c2"/></g><g><path d="m84.67 147.873c-16.42 0-29.778-13.359-29.778-29.779s13.358-29.778 29.778-29.778 29.778 13.358 29.778 29.778-13.358 29.779-29.778 29.779zm0-44.557c-8.148 0-14.778 6.63-14.778 14.778 0 8.149 6.63 14.779 14.778 14.779s14.778-6.63 14.778-14.779-6.63-14.778-14.778-14.778z" fill="#e207b9"/></g><circle cx="266.829" cy="221.867" fill="#2115c2" r="9.437"/><g><path d="m242.333 254.803h-39.967c-4.143 0-7.5-3.358-7.5-7.5s3.357-7.5 7.5-7.5h39.967c4.143 0 7.5 3.358 7.5 7.5s-3.357 7.5-7.5 7.5z" fill="#2115c2"/></g><circle cx="177.871" cy="221.867" fill="#2115c2" r="9.437"/></g></svg>