<svg id="Capa_1" enable-background="new 0 0 512 512" height="512" viewBox="0 0 512 512" width="512" xmlns="http://www.w3.org/2000/svg"><g><path d="m475.666 24.412c-15.925 0-28.834 12.909-28.834 28.834v418.718c0 8.629 6.996 15.625 15.625 15.625h26.419c8.629 0 15.625-6.995 15.625-15.625v-418.718c-.001-15.925-12.91-28.834-28.835-28.834z" fill="#ffff6f"/><path d="m317.916 24.412c-15.925 0-28.834 12.909-28.834 28.834v418.718c0 8.629 6.995 15.625 15.625 15.625h26.419c8.629 0 15.625-6.995 15.625-15.625v-418.718c-.001-15.925-12.91-28.834-28.835-28.834z" fill="#ffff6f"/><path d="m36.334 24.412c-15.925 0-28.834 12.909-28.834 28.834v418.718c0 8.629 6.996 15.625 15.625 15.625h26.419c8.629 0 15.625-6.995 15.625-15.625v-418.718c-.001-15.925-12.91-28.834-28.835-28.834z" fill="#ffff6f"/><g fill="#ffd600"><path d="m346.75 73.374h100.082v47.575h-100.082z"/><path d="m346.75 180.382h100.082v47.575h-100.082z"/><path d="m346.75 287.39h100.082v47.575h-100.082z"/><path d="m346.75 394.397h100.082v47.575h-100.082z"/></g><path d="m106.774 24.412c-22.978 0-41.606 18.628-41.606 41.606v54.932h83.212v-54.932c0-22.979-18.627-41.606-41.606-41.606z" fill="#a4bcff"/><path d="m65.168 120.95h223.914v83.22h-223.914z" fill="#ff63ed"/><path d="m106.774 238.427c-22.978 0-41.606 18.628-41.606 41.606v54.932h83.212v-54.932c0-22.978-18.627-41.606-41.606-41.606z" fill="#a4bcff"/><path d="m65.168 334.965h223.914v83.22h-223.914z" fill="#ff63ed"/><g><path d="m148.38 128.45c-4.142 0-7.5-3.358-7.5-7.5v-54.932c0-18.806-15.3-34.106-34.106-34.106s-34.106 15.3-34.106 34.106c0 4.142-3.358 7.5-7.5 7.5s-7.5-3.358-7.5-7.5c0-27.077 22.029-49.106 49.106-49.106s49.106 22.028 49.106 49.106v54.932c0 4.142-3.358 7.5-7.5 7.5z" fill="#2115c2"/></g><g><path d="m289.082 128.45h-223.914c-4.142 0-7.5-3.358-7.5-7.5s3.358-7.5 7.5-7.5h223.914c4.142 0 7.5 3.358 7.5 7.5s-3.358 7.5-7.5 7.5z" fill="#e207b9"/></g><g><path d="m289.082 211.67h-223.914c-4.142 0-7.5-3.358-7.5-7.5s3.358-7.5 7.5-7.5h223.914c4.142 0 7.5 3.358 7.5 7.5s-3.358 7.5-7.5 7.5z" fill="#e207b9"/></g><g><path d="m148.38 342.465c-4.142 0-7.5-3.358-7.5-7.5v-54.932c0-18.806-15.3-34.106-34.106-34.106s-34.106 15.3-34.106 34.106c0 4.142-3.358 7.5-7.5 7.5s-7.5-3.358-7.5-7.5c0-27.077 22.029-49.106 49.106-49.106s49.106 22.029 49.106 49.106v54.932c0 4.142-3.358 7.5-7.5 7.5z" fill="#2115c2"/></g><g><path d="m289.082 342.465h-223.914c-4.142 0-7.5-3.358-7.5-7.5s3.358-7.5 7.5-7.5h223.914c4.142 0 7.5 3.358 7.5 7.5s-3.358 7.5-7.5 7.5z" fill="#e207b9"/></g><g><path d="m289.082 425.685h-223.914c-4.142 0-7.5-3.358-7.5-7.5s3.358-7.5 7.5-7.5h223.914c4.142 0 7.5 3.358 7.5 7.5s-3.358 7.5-7.5 7.5z" fill="#e207b9"/></g><g fill="#f95116"><path d="m475.666 16.911c-20.035 0-36.334 16.3-36.334 36.334v12.629h-85.082v-12.628c0-20.035-16.299-36.334-36.334-36.334s-36.334 16.3-36.334 36.334v418.719c0 12.751 10.374 23.125 23.125 23.125h26.418c12.751 0 23.125-10.374 23.125-23.125v-22.491h85.081v22.491c0 12.751 10.374 23.125 23.125 23.125h26.418c12.751 0 23.125-10.374 23.125-23.125v-418.719c.001-20.035-16.298-36.335-36.333-36.335zm-136.416 455.053c0 4.48-3.645 8.125-8.125 8.125h-26.418c-4.48 0-8.125-3.645-8.125-8.125v-418.719c0-11.764 9.57-21.334 21.334-21.334s21.334 9.571 21.334 21.334zm100.082-37.491h-85.082v-32.575h85.081v32.575zm0-47.576h-85.082v-44.432h85.081v44.432zm0-59.432h-85.082v-32.575h85.081v32.575zm0-47.575h-85.082v-44.432h85.081v44.432zm0-59.433h-85.082v-32.575h85.081v32.575zm0-47.575h-85.082v-44.433h85.081v44.433zm0-59.433h-85.082v-32.575h85.081v32.575zm57.668 358.515c0 4.48-3.645 8.125-8.125 8.125h-26.418c-4.48 0-8.125-3.645-8.125-8.125 0-41.242 0-372.619 0-418.719 0-11.764 9.571-21.334 21.334-21.334s21.334 9.571 21.334 21.335z"/><path d="m36.334 16.911c-20.035 0-36.334 16.3-36.334 36.334v418.719c0 12.751 10.374 23.125 23.125 23.125h26.418c12.751 0 23.125-10.374 23.125-23.125v-418.718c0-20.035-16.299-36.335-36.334-36.335zm21.334 455.053c0 4.48-3.645 8.125-8.125 8.125h-26.418c-4.48 0-8.125-3.645-8.125-8.125v-418.719c0-11.764 9.57-21.334 21.334-21.334s21.334 9.571 21.334 21.334z"/></g></g></svg>