<svg id="Capa_1" enable-background="new 0 0 512 512" height="512" viewBox="0 0 512 512" width="512" xmlns="http://www.w3.org/2000/svg"><g><path d="m255.987 7.5c-90.584 0-164.016 73.432-164.016 164.016 0 1.402.022 2.801.053 4.199.001.026.001.052.002.077 2.534 110.316 102.25 207.132 144.913 243.592 10.976 9.38 27.119 9.38 38.095 0 42.664-36.46 142.38-133.276 144.913-243.592.001-.026.001-.052.002-.077.032-1.398.053-2.797.053-4.199.001-90.584-73.432-164.016-164.015-164.016z" fill="#ff63ed"/><g fill="#b98eff"><circle cx="255.987" cy="171.516" r="101.834"/><path d="m276.04 418.52v38.045h-16.039c-13.237 0-23.967 10.731-23.967 23.967 0 13.237 10.731 23.967 23.967 23.967h40.007c13.237 0 23.967-10.731 23.967-23.967v-108.238c-18.163 19.658-35.37 35.436-47.935 46.226z"/><path d="m241.419 422.537c-1.564-.897-3.066-1.943-4.48-3.152-11.394-9.738-26.859-23.783-43.454-41.238v78.419h-16.04c-13.236 0-23.967 10.731-23.967 23.967 0 13.237 10.731 23.967 23.967 23.967h40.007c9.256 0 17.282-5.251 21.275-12.934-1.717-3.303-2.693-7.053-2.693-11.034 0-5.74 2.02-11.007 5.385-15.134z"/></g><circle cx="303.933" cy="159.735" fill="#6d00ca" r="10.173"/><g><path d="m277.527 194.654h-43.082c-4.142 0-7.5-3.358-7.5-7.5s3.358-7.5 7.5-7.5h43.082c4.142 0 7.5 3.358 7.5 7.5s-3.357 7.5-7.5 7.5z" fill="#6d00ca"/></g><circle cx="208.041" cy="159.735" fill="#6d00ca" r="10.173"/><g><path d="m255.987 280.85c-60.287 0-109.334-49.047-109.334-109.333 0-60.287 49.047-109.334 109.334-109.334s109.333 49.047 109.333 109.334c0 60.286-49.046 109.333-109.333 109.333zm0-203.668c-52.016 0-94.334 42.318-94.334 94.334s42.318 94.333 94.334 94.333 94.333-42.318 94.333-94.333c0-52.016-42.317-94.334-94.333-94.334z" fill="#6d00ca"/></g><path d="m276.04 418.52v29.453c5.598-2.207 10.843-5.326 15.485-9.293 9.45-8.076 20.57-18.104 32.449-29.85v-36.537c-18.162 19.659-35.369 35.437-47.934 46.227z" fill="#6d00ca"/><path d="m236.939 419.385c-11.394-9.738-26.859-23.783-43.454-41.238v36.04c9.812 9.461 18.985 17.675 26.964 24.494 6.131 5.24 13.306 9.017 20.97 11.138v-27.281c-1.563-.898-3.066-1.945-4.48-3.153z" fill="#6d00ca"/><path d="m323.975 364.794c-4.142 0-7.5 3.358-7.5 7.5v108.239c0 9.08-7.387 16.467-16.467 16.467h-40.006c-9.093 0-16.467-7.412-16.467-16.467 0-9.096 7.401-16.467 16.467-16.467h16.04c4.142 0 7.5-3.358 7.5-7.5v-38.046c0-4.142-3.358-7.5-7.5-7.5s-7.5 3.358-7.5 7.5v30.545h-8.54c-3.899 0-7.633.718-11.082 2.021v-28.55c0-4.142-3.358-7.5-7.5-7.5s-7.5 3.358-7.5 7.5v40.396c-3.376 5.002-5.386 11.161-5.386 17.601 0 3.201.524 6.792 1.745 10.325-3.091 3.85-7.769 6.142-12.827 6.142h-40.007c-9.08 0-16.467-7.387-16.467-16.467s7.387-16.467 16.467-16.467h16.04c4.142 0 7.5-3.358 7.5-7.5v-78.419c0-4.142-3.358-7.5-7.5-7.5s-7.5 3.358-7.5 7.5v70.919h-8.54c-17.351 0-31.467 14.116-31.467 31.467s14.116 31.467 31.467 31.467h40.007c8.046 0 15.583-3.035 21.29-8.291 5.604 5.144 13.07 8.291 21.258 8.291h40.006c17.351 0 31.467-14.116 31.467-31.467v-108.239c.002-4.142-3.356-7.5-7.498-7.5z" fill="#6d00ca"/><g><path d="m255.986 433.97c-8.495 0-16.99-2.961-23.92-8.883-23.82-20.356-58.549-53.436-88.723-95.425-37.896-52.733-57.684-104.444-58.815-153.697-.001-.043-.002-.085-.002-.108-2.236-97.431 76.116-175.857 171.461-175.857 97.28 0 174.292 81.043 171.458 175.965-1.131 49.252-20.919 100.964-58.815 153.697-30.174 41.989-64.903 75.068-88.723 95.425-6.93 5.922-15.425 8.883-23.921 8.883zm.001-418.97c-86.781 0-158.48 71.279-156.465 160.545.822 35.794 16.329 130.494 142.29 238.138 8.214 7.019 20.137 7.019 28.35 0 125.96-107.645 141.467-202.344 142.288-238.063.001-.037.002-.074.003-.111 1.972-89.387-69.803-160.509-156.466-160.509z" fill="#e207b9"/></g></g></svg>