<svg id="Capa_1" enable-background="new 0 0 512 512" height="512" viewBox="0 0 512 512" width="512" xmlns="http://www.w3.org/2000/svg"><g><path d="m182.976 392.547v64.002h-16.045c-13.241 0-23.975 10.734-23.975 23.975s10.734 23.975 23.975 23.975h40.02c13.241 0 23.975-10.734 23.975-23.975v-75.743c-16.716-2.096-32.785-6.264-47.95-12.234z" fill="#7181ff"/><path d="m294.558 402.624v53.926h-16.045c-13.241 0-23.975 10.734-23.975 23.975s10.734 23.975 23.975 23.975h40.02c13.241 0 23.975-10.734 23.975-23.975v-93.872c-15.033 7.249-31.109 12.672-47.95 15.971z" fill="#7181ff"/><g><path d="m206.951 512h-40.02c-17.355 0-31.476-14.12-31.476-31.475s14.12-31.475 31.476-31.475h8.545v-56.502c0-4.142 3.357-7.5 7.5-7.5s7.5 3.358 7.5 7.5v64.002c0 4.142-3.357 7.5-7.5 7.5h-16.045c-9.085 0-16.476 7.391-16.476 16.475s7.391 16.475 16.476 16.475h40.02c9.085 0 16.476-7.391 16.476-16.475v-75.743c0-4.142 3.357-7.5 7.5-7.5s7.5 3.358 7.5 7.5v75.743c0 17.355-14.121 31.475-31.476 31.475z" fill="#2115c2"/></g><g><path d="m318.533 512h-40.02c-17.355 0-31.476-14.12-31.476-31.475s14.12-31.475 31.476-31.475h8.545v-46.426c0-4.142 3.357-7.5 7.5-7.5s7.5 3.358 7.5 7.5v53.926c0 4.142-3.357 7.5-7.5 7.5h-16.045c-9.085 0-16.476 7.391-16.476 16.475s7.391 16.475 16.476 16.475h40.02c9.085 0 16.476-7.391 16.476-16.475v-93.873c0-4.142 3.357-7.5 7.5-7.5s7.5 3.358 7.5 7.5v93.873c0 17.355-14.121 31.475-31.476 31.475z" fill="#2115c2"/></g><path d="m294.558 433.728c16.438-2.788 32.524-7.348 47.95-13.599v-33.476c-15.033 7.25-31.11 12.673-47.95 15.972z" fill="#2115c2"/><path d="m182.976 425.111c15.528 5.185 31.61 8.709 47.95 10.496v-30.825c-16.716-2.097-32.785-6.265-47.95-12.234z" fill="#2115c2"/><path d="m358.387 247.559c-11.169 28.142-33.613 50.586-61.755 61.755-12.575 4.996-26.281 7.741-40.632 7.741s-28.057-2.745-40.632-7.741c-28.142-11.17-50.586-33.613-61.755-61.755-4.996-12.575-7.741-26.281-7.741-40.632s2.745-28.057 7.741-40.622c11.169-28.142 33.613-50.586 61.755-61.755h.01c12.575-4.996 26.271-7.741 40.622-7.741s28.057 2.745 40.632 7.741c28.142 11.17 50.586 33.613 61.755 61.755 4.996 12.566 7.741 26.271 7.741 40.622s-2.745 28.056-7.741 40.632z" fill="#b98eff"/><g fill="#ffceff"><path d="m455.436 206.927c0 36.158-9.621 70.085-26.452 99.329l-70.598-58.697c4.996-12.575 7.741-26.281 7.741-40.632s-2.745-28.057-7.741-40.622l70.598-58.697c16.831 29.243 26.452 63.16 26.452 99.319z"/><path d="m355.329 33.951-58.697 70.598c-12.575-4.996-26.281-7.741-40.632-7.741s-28.047 2.745-40.622 7.741h-.01l-58.687-70.598c29.244-16.83 63.161-26.451 99.319-26.451s70.085 9.621 99.329 26.451z"/><path d="m145.872 206.927c0 14.351 2.745 28.057 7.741 40.632l-70.598 58.697c-16.83-29.244-26.452-63.17-26.452-99.329s9.621-70.075 26.452-99.319l70.598 58.697c-4.996 12.565-7.741 26.27-7.741 40.622z"/><path d="m355.319 379.911c-29.244 16.83-63.161 26.452-99.319 26.452s-70.085-9.621-99.329-26.452l58.697-70.598c12.575 4.996 26.281 7.741 40.632 7.741s28.057-2.745 40.632-7.741z"/></g><path d="m215.368 104.549c-28.142 11.17-50.586 33.613-61.755 61.755l-70.598-58.697c17.6-30.583 43.082-56.056 73.665-73.656z" fill="#ff63ed"/><path d="m215.368 309.314-58.697 70.598c-30.583-17.6-56.056-43.073-73.656-73.656l70.598-58.697c11.169 28.142 33.613 50.585 61.755 61.755z" fill="#ff63ed"/><path d="m428.985 306.255c-17.6 30.583-43.082 56.056-73.665 73.656l-58.687-70.598c28.142-11.17 50.586-33.613 61.755-61.755z" fill="#ff63ed"/><path d="m428.985 107.607-70.598 58.697c-11.169-28.142-33.613-50.586-61.755-61.755l58.697-70.598c30.583 17.6 56.056 43.073 73.656 73.656z" fill="#ff63ed"/><circle cx="300.707" cy="198.891" fill="#6d00ca" r="9.486"/><g><path d="m276.086 231.957h-40.172c-4.143 0-7.5-3.358-7.5-7.5s3.357-7.5 7.5-7.5h40.172c4.143 0 7.5 3.358 7.5 7.5s-3.358 7.5-7.5 7.5z" fill="#6d00ca"/></g><circle cx="211.293" cy="198.891" fill="#6d00ca" r="9.486"/><path d="m435.498 103.89c-.004-.007-.008-.016-.012-.023-18.261-31.731-44.685-58.155-76.416-76.416-.002-.001-.005-.002-.007-.004-31.203-17.956-66.842-27.447-103.063-27.447-36.215 0-71.85 9.491-103.054 27.447-.002.001-.005.002-.007.004-31.74 18.266-58.167 44.689-76.425 76.416-.004.007-.008.016-.012.023-17.95 31.2-27.439 66.829-27.439 103.037 0 36.215 9.489 71.847 27.439 103.046.004.007.008.015.012.023 18.261 31.732 44.686 58.156 76.416 76.416.001.001.003.001.004.002 31.203 17.958 66.842 27.449 103.065 27.449 36.216 0 71.853-9.492 103.057-27.449.001-.001.003-.001.004-.002 31.741-18.266 58.168-44.69 76.426-76.416.004-.008.008-.016.012-.023 17.95-31.199 27.438-66.831 27.438-103.046 0-36.209-9.488-71.838-27.438-103.037zm-8.735 190.765-63.581-52.863c-3.184-2.647-7.913-2.213-10.562.972-2.648 3.185-2.213 7.914.972 10.562l65.663 54.594c-15.656 25.252-37.008 46.599-62.272 62.261l-54.584-65.662c-2.647-3.185-7.375-3.621-10.563-.973-3.185 2.648-3.62 7.376-.973 10.562l52.855 63.582c-26.99 13.877-57.128 21.173-87.719 21.173-30.598 0-60.738-7.296-87.728-21.173l52.862-63.581c2.648-3.185 2.213-7.914-.972-10.562-3.193-2.654-7.919-2.206-10.563.972l-36.153 43.484-18.44 22.179c-25.257-15.658-46.603-37.005-62.263-62.262l65.663-54.594c3.185-2.648 3.62-7.377.972-10.562-2.647-3.186-7.377-3.619-10.562-.972l-63.581 52.863c-13.877-26.99-21.173-57.131-21.173-87.728 0-30.591 7.296-60.729 21.173-87.718l63.581 52.863c3.143 2.614 7.898 2.233 10.562-.972 2.648-3.185 2.213-7.914-.972-10.562l-65.663-54.594c15.657-25.252 37.008-46.599 62.271-62.262l54.584 65.662c3.163 3.799 9.209 3.631 12.076-.737 3.098-4.806-.615-8.89-.654-8.99-.001 0-.001-.001-.002-.002l-52.738-63.441c26.991-13.877 57.129-21.174 87.721-21.174 30.598 0 60.737 7.296 87.729 21.173l-52.863 63.581c-2.648 3.186-2.213 7.914.972 10.563 3.188 2.646 7.938 2.192 10.562-.973l54.595-65.662c25.257 15.658 46.604 37.005 62.263 62.262l-65.663 54.594c-3.185 2.648-3.62 7.377-.972 10.562 2.63 3.167 7.387 3.612 10.562.972l63.581-52.863c13.877 26.989 21.173 57.126 21.173 87.718-.003 30.597-7.299 60.738-21.176 87.728z" fill="#e207b9"/><g><path d="m256 324.554c-64.917 0-117.628-52.649-117.628-117.628 0-65.123 52.832-117.618 117.628-117.618 64.908 0 117.628 52.641 117.628 117.618 0 64.94-52.672 117.628-117.628 117.628zm-102.628-117.627c0 56.68 45.959 102.628 102.628 102.628 43.456 0 80.427-26.998 95.417-64.763 0-.001 0-.001 0-.002 4.785-12.045 7.211-24.784 7.211-37.863 0-56.66-45.95-102.618-102.628-102.618-56.811-.001-102.628 46.082-102.628 102.618z" fill="#6d00ca"/></g></g></svg>