<svg id="Capa_1" enable-background="new 0 0 511.993 511.993" height="512" viewBox="0 0 511.993 511.993" width="512" xmlns="http://www.w3.org/2000/svg"><g><path d="m417.395 83.105.005-.027c4.07-21.283-14.61-39.964-35.894-35.894l-.027.005c-12.172-17.933-38.596-17.933-50.767 0l-.027-.005c-21.284-4.07-39.964 14.61-35.894 35.894l.005.027c-17.933 12.171-17.933 38.596 0 50.767l-.005.027c-4.07 21.283 14.61 39.964 35.894 35.894l.027-.005c12.172 17.933 38.596 17.933 50.767 0l.027.005c21.283 4.07 39.964-14.61 35.894-35.894l-.005-.027c17.933-12.171 17.933-38.596 0-50.767z" fill="#ff63ed"/><path d="m185.431 414.078v43.438h-15.719c-12.972 0-23.489 10.516-23.489 23.489 0 12.972 10.516 23.489 23.489 23.489h39.208c12.972 0 23.489-10.516 23.489-23.489v-57.251c-16.299-1.613-32.029-4.886-46.978-9.676z" fill="#ffff6f"/><path d="m294.749 421.709v35.807h-15.719c-12.972 0-23.489 10.516-23.489 23.489 0 12.972 10.516 23.489 23.489 23.489h39.208c12.972 0 23.489-10.516 23.489-23.489v-72.575c-14.833 6.044-30.571 10.525-46.978 13.279z" fill="#ffff6f"/><path d="m466.452 232.255c-4.19 112.189-96.83 192.671-210.479 192.671-113.849 0-206.299-79.752-210.459-192.671l19.738 8.189c24.418 10.119 51.865 10.119 76.292 0 12.209-5.059 25.177-7.599 38.136-7.599 12.969 0 25.937 2.54 38.146 7.599s25.178 7.589 38.146 7.589c12.969 0 25.937-2.53 38.146-7.589s25.177-7.599 38.146-7.599c12.959 0 25.927 2.54 38.136 7.599 12.219 5.059 25.177 7.589 38.146 7.589s25.937-2.53 38.146-7.589z" fill="#17d9c3"/><path d="m78.365 48.807 52.57 28.914 16.312 52.134h47.147l-23.217-74.205c-1.734-5.541-5.542-10.197-10.629-12.995l-60.499-33.273c-7.372-4.055-16.636-1.365-20.691 6.007l-7 12.728c-4.055 7.372-1.366 16.636 6.007 20.69z" fill="#ffff6f"/><circle cx="356.095" cy="108.489" fill="#ffff6f" r="24.445"/><path d="m417.904 141.562c-1.052 17.853-17.721 31.803-36.398 28.231l-.027-.005c-12.172 17.933-38.596 17.933-50.767 0l-.027.005c-21.284 4.07-39.964-14.611-35.894-35.894l.005-.027c-1.778-1.207-3.372-2.558-4.797-4.017h-150.404c-51.645 0-93.941 41.566-94.231 93.211-.01 1.46-.01 2.93.02 4.4.02 1.6.06 3.2.13 4.79l19.738 8.189c24.418 10.119 51.865 10.119 76.292 0 12.209-5.059 25.177-7.599 38.136-7.599 12.969 0 25.937 2.54 38.146 7.599s25.178 7.589 38.146 7.589c12.969 0 25.937-2.53 38.146-7.589s25.177-7.599 38.146-7.599c12.959 0 25.927 2.54 38.136 7.599 12.219 5.059 25.177 7.589 38.146 7.589s25.937-2.53 38.146-7.589l19.758-8.189c.09-2.64.14-5.28.14-7.949v-1.02c-.168-35.227-19.824-65.801-48.686-81.725z" fill="#88f8d8"/><g><path d="m208.919 511.993h-39.208c-17.087 0-30.988-13.901-30.988-30.989s13.901-30.989 30.988-30.989h8.22v-35.938c0-4.142 3.357-7.5 7.5-7.5s7.5 3.358 7.5 7.5v43.438c0 4.142-3.357 7.5-7.5 7.5h-15.72c-8.816 0-15.988 7.172-15.988 15.989s7.172 15.989 15.988 15.989h39.208c8.816 0 15.988-7.172 15.988-15.989v-57.251c0-4.142 3.357-7.5 7.5-7.5s7.5 3.358 7.5 7.5v57.251c0 17.088-13.901 30.989-30.988 30.989z" fill="#f95116"/></g><path d="m185.431 414.078v22.915c15.128 4.405 30.852 7.385 46.977 8.855v-22.095c-16.298-1.612-32.028-4.885-46.977-9.675z" fill="#f95116"/><g><path d="m318.238 511.993h-39.208c-17.087 0-30.988-13.901-30.988-30.989s13.901-30.989 30.988-30.989h8.219v-28.307c0-4.142 3.357-7.5 7.5-7.5s7.5 3.358 7.5 7.5v35.807c0 4.142-3.357 7.5-7.5 7.5h-15.719c-8.816 0-15.988 7.172-15.988 15.989s7.172 15.989 15.988 15.989h39.208c8.816 0 15.988-7.172 15.988-15.989v-72.575c0-4.142 3.357-7.5 7.5-7.5s7.5 3.358 7.5 7.5v72.575c0 17.088-13.902 30.989-30.988 30.989z" fill="#f95116"/></g><path d="m294.749 421.709v22.265c16.212-2.489 31.939-6.544 46.977-12.075v-23.47c-14.832 6.045-30.57 10.526-46.977 13.28z" fill="#f95116"/><circle cx="307.339" cy="321.705" fill="#007ea8" r="10.899"/><circle cx="204.608" cy="321.705" fill="#007ea8" r="10.899"/><g><path d="m187.236 132.095-23.218-74.205c-1.161-3.712-3.677-6.788-7.085-8.663l-60.498-33.274c-3.733-2.054-8.449-.688-10.506 3.051l-7 12.727c-2.055 3.737-.687 8.45 3.05 10.505l52.571 28.914c1.696.933 2.966 2.485 3.544 4.332l16.312 52.134c1.236 3.953-.966 8.16-4.919 9.397-3.955 1.237-8.161-.966-9.397-4.918l-15.41-49.256-49.93-27.46c-10.984-6.042-15.005-19.893-8.964-30.877l7-12.728c6.042-10.985 19.896-15.004 30.877-8.964l60.498 33.274c6.817 3.75 11.85 9.903 14.173 17.327l23.218 74.205c1.236 3.953-.966 8.16-4.919 9.397-3.953 1.238-8.161-.967-9.397-4.918z" fill="#f95116"/></g><g><path d="m356.095 140.433c-17.614 0-31.944-14.33-31.944-31.945s14.33-31.945 31.944-31.945 31.945 14.33 31.945 31.945-14.331 31.945-31.945 31.945zm0-48.889c-9.343 0-16.944 7.601-16.944 16.945s7.602 16.945 16.944 16.945c9.344 0 16.945-7.601 16.945-16.945s-7.601-16.945-16.945-16.945z" fill="#f95116"/></g><path d="m279.05 343.579h-46.154c-4.143 0-7.5 3.358-7.5 7.5s3.357 7.5 7.5 7.5h46.154c4.143 0 7.5-3.358 7.5-7.5s-3.357-7.5-7.5-7.5z" fill="#007ea8"/><path d="m421.528 134.995c-3.625-2-8.188-.683-10.189 2.944-2.001 3.626-.684 8.188 2.943 10.189 47.214 26.05 44.771 76.036 44.811 76.177 0 .958-.007 1.919-.02 2.89-10.667 3.71-25.395 13.338-50.524 13.338-12.161 0-24.03-2.361-35.275-7.018-25.566-10.595-54.996-11.201-82.024 0-22.003 9.118-47.381 9.602-70.55 0-25.616-10.616-55.051-11.179-82.024 0-22.696 9.401-47.751 9.448-70.548.001l-15.246-6.325c-.025-1.361-.024-2.723-.016-4.083.266-47.284 39.173-85.753 86.73-85.753h149.403c4.143 0 7.5-3.358 7.5-7.5s-3.357-7.5-7.5-7.5h-149.404c-54.604 0-104.466 43.633-101.574 110.227 0 .002.001.005.001.008 2.081 56.071 25.722 107.182 66.573 143.922 40.092 36.057 93.853 55.914 151.378 55.914 117.854 0 217.204-83.994 218.119-209.176-.177-36.647-20.318-70.464-52.564-88.255zm-24.288 230.094c-37.453 33.75-87.622 52.336-141.267 52.336-53.815 0-104.014-18.491-141.348-52.067-34.928-31.413-56.264-74.223-60.829-121.547l8.585 3.562c26.353 10.92 55.536 10.978 82.034 0 21.944-9.094 47.247-9.654 70.541 0 25.583 10.603 55.094 11.165 82.034 0 22.083-9.152 47.383-9.597 70.542.001 13.075 5.414 26.875 8.159 41.016 8.159 26.418 0 43.292-9.473 49.612-11.723-4.596 47.064-25.962 89.777-60.92 121.279z" fill="#007ea8"/><g><path d="m356.096 190.738c-11.067 0-21.48-4.777-28.679-12.974-10.881.723-21.646-3.262-29.49-11.107-7.834-7.834-11.819-18.589-11.103-29.487-8.2-7.198-12.979-17.612-12.979-28.682 0-11.069 4.778-21.483 12.979-28.681-.717-10.898 3.269-21.653 11.103-29.487s18.589-11.816 29.486-11.102c7.198-8.2 17.612-12.979 28.683-12.979 11.069 0 21.483 4.779 28.682 12.979 10.88-.72 21.652 3.268 29.486 11.102s11.819 18.589 11.103 29.487c8.2 7.198 12.979 17.612 12.979 28.681s-4.778 21.484-12.979 28.682c.717 10.898-3.269 21.653-11.103 29.487s-18.591 11.816-29.486 11.102c-7.199 8.2-17.613 12.979-28.682 12.979zm-25.404-28.446c2.459 0 4.813 1.204 6.226 3.284 4.383 6.458 11.373 10.162 19.179 10.162 7.805 0 14.794-3.704 19.177-10.161 1.676-2.469 4.655-3.71 7.588-3.16 7.717 1.477 15.278-.848 20.797-6.366 5.515-5.515 7.84-13.07 6.379-20.73-.567-2.939.662-5.967 3.146-7.654 6.458-4.383 10.162-11.373 10.162-19.178s-3.704-14.795-10.162-19.178c-2.509-1.703-3.743-4.746-3.136-7.709 1.438-7.641-.889-15.173-6.39-20.675-5.518-5.518-13.075-7.842-20.743-6.376-2.934.563-5.959-.672-7.641-3.149-4.383-6.458-11.373-10.162-19.179-10.162-7.805 0-14.794 3.704-19.177 10.161-1.676 2.469-4.657 3.71-7.588 3.16-7.72-1.475-15.279.849-20.797 6.366-5.516 5.516-7.841 13.073-6.378 20.735.565 2.938-.664 5.963-3.147 7.649-6.458 4.383-10.162 11.374-10.162 19.178s3.704 14.795 10.162 19.178c2.509 1.702 3.742 4.745 3.136 7.709-1.438 7.641.888 15.173 6.39 20.675 5.517 5.517 13.075 7.841 20.743 6.376.47-.091.945-.135 1.415-.135z" fill="#e207b9"/></g></g></svg>