<svg id="Capa_1" enable-background="new 0 0 512 512" height="512" viewBox="0 0 512 512" width="512" xmlns="http://www.w3.org/2000/svg"><g><path d="m160.239 413.46v53.266c0 20.862 16.912 37.774 37.774 37.774h115.973c20.862 0 37.774-16.912 37.774-37.774v-53.266z" fill="#f90"/><circle cx="300.41" cy="445.995" fill="#f95116" r="9.423"/><circle cx="211.59" cy="445.995" fill="#f95116" r="9.423"/><path d="m160.239 308.645h43.911v58.352h-43.911z" fill="#a4bcff"/><path d="m307.849 308.645h43.911v58.352h-43.911z" fill="#a4bcff" transform="matrix(-1 0 0 -1 659.61 675.642)"/><g><path d="m160.239 374.497c-4.143 0-7.5-3.358-7.5-7.5v-58.352c0-4.142 3.357-7.5 7.5-7.5s7.5 3.358 7.5 7.5v58.352c.001 4.142-3.357 7.5-7.5 7.5z" fill="#2115c2"/></g><g><path d="m204.151 374.497c-4.143 0-7.5-3.358-7.5-7.5v-58.352c0-4.142 3.358-7.5 7.5-7.5 4.143 0 7.5 3.358 7.5 7.5v58.352c0 4.142-3.358 7.5-7.5 7.5z" fill="#2115c2"/></g><g><path d="m307.849 374.497c-4.143 0-7.5-3.358-7.5-7.5v-58.352c0-4.142 3.357-7.5 7.5-7.5s7.5 3.358 7.5 7.5v58.352c.001 4.142-3.357 7.5-7.5 7.5z" fill="#2115c2"/></g><g><path d="m351.761 374.497c-4.143 0-7.5-3.358-7.5-7.5v-58.352c0-4.142 3.358-7.5 7.5-7.5s7.5 3.358 7.5 7.5v58.352c0 4.142-3.358 7.5-7.5 7.5z" fill="#2115c2"/></g><path d="m416.744 161.165c0 50.569-25.56 108.726-64.983 147.48h-60.185c21.271-29.008 35.585-83.236 35.585-145.361 0-68.352-17.333-127.158-42.193-153.307 74.95 13.045 131.776 75.769 131.776 151.188z" fill="#ff9bff"/><path d="m184.839 163.284c0 62.125 14.314 116.353 35.585 145.361h-60.185c-39.424-38.754-64.984-96.91-64.984-147.48 0-75.419 56.827-138.144 131.776-151.188-24.859 26.149-42.192 84.955-42.192 153.307z" fill="#ff9bff"/><path d="m327.161 163.284c0 62.125-14.314 116.353-35.585 145.361h-71.151c-21.271-29.008-35.585-83.236-35.585-145.361 0-68.352 17.333-127.158 42.193-153.307 9.396-1.639 19.082-2.489 28.968-2.489s19.572.85 28.968 2.489c24.859 26.149 42.192 84.955 42.192 153.307z" fill="#ff63ed"/><path d="m351.761 366.997h-191.522c-12.83 0-23.232 10.401-23.232 23.232 0 12.83 10.401 23.232 23.232 23.232h191.522c12.83 0 23.232-10.401 23.232-23.232-.001-12.831-10.402-23.232-23.232-23.232z" fill="#ffff6f"/><path d="m286.258 2.589c-.001 0-.002 0-.003 0-19.777-3.45-40.729-3.451-60.508 0-.001 0-.002 0-.002 0s0 0-.001 0c-79.957 13.917-137.989 80.608-137.989 158.576 0 52.695 26.388 112.684 67.226 152.829 1.402 1.379 3.291 2.151 5.258 2.151h191.521c1.967 0 3.856-.773 5.258-2.151 40.838-40.145 67.226-100.134 67.226-152.829.001-77.968-58.031-144.659-137.986-158.576zm-5.095 14.359c29.387 33.268 38.497 101.966 38.497 146.337 0 42.914-8.112 102.426-31.986 137.861h-63.348c-24.038-35.69-31.987-94.56-31.987-137.861 0-44.773 8.849-112.772 38.498-146.337 16.497-2.602 33.829-2.602 50.326 0zm-117.82 284.197c-36.885-37.429-60.587-92.033-60.587-139.98 0-64.148 43.521-119.902 105.98-139.109-23.166 38.58-31.397 96.04-31.397 141.228 0 44.468 7.494 99.215 29.366 137.861zm185.314 0h-43.361c21.728-38.389 29.365-93.412 29.365-137.861 0-44.799-8.345-102.84-31.396-141.228 62.46 19.207 105.98 74.961 105.98 139.109-.001 47.947-23.703 102.551-60.588 139.98z" fill="#e207b9"/><g fill="#f95116"><path d="m236.048 478.892h39.904c4.143 0 7.5-3.358 7.5-7.5s-3.358-7.5-7.5-7.5h-39.904c-4.143 0-7.5 3.358-7.5 7.5s3.357 7.5 7.5 7.5z"/><path d="m382.493 390.229c0-16.946-13.786-30.732-30.732-30.732h-191.522c-16.946 0-30.732 13.786-30.732 30.732 0 14.359 9.9 26.445 23.232 29.802v46.695c0 24.964 20.31 45.274 45.275 45.274h115.973c24.964 0 45.275-20.31 45.275-45.274v-46.695c13.331-3.357 23.231-15.444 23.231-29.802zm-38.233 76.497c0 16.693-13.581 30.274-30.274 30.274h-115.972c-16.693 0-30.274-13.581-30.274-30.274v-45.766h176.52zm7.501-60.766h-191.522c-8.675 0-15.732-7.057-15.732-15.731s7.057-15.732 15.732-15.732h191.521c8.675 0 15.732 7.057 15.732 15.732s-7.056 15.731-15.731 15.731z"/></g></g></svg>