<svg id="Capa_1" enable-background="new 0 0 512 512" height="512" viewBox="0 0 512 512" width="512" xmlns="http://www.w3.org/2000/svg"><g><path d="m59.412 409.031c-14.689 0-27.943-6.112-37.387-15.918-3.476 7.921-5.419 16.667-5.419 25.871 0 35.598 28.858 64.456 64.456 64.456s64.456-28.858 64.456-64.456c0-3.385-.264-6.709-.767-9.953z" fill="#17d9c3"/><g><path d="m81.063 490.94c-39.677 0-71.956-32.279-71.956-71.956 0-10.019 2.036-19.737 6.051-28.886 1.665-3.792 6.089-5.516 9.882-3.853 3.792 1.665 5.518 6.089 3.853 9.882-3.176 7.236-4.787 14.926-4.787 22.856 0 31.406 25.55 56.956 56.956 56.956s56.956-25.55 56.956-56.956c0-2.937-.229-5.899-.679-8.804-.634-4.093 2.169-7.926 6.263-8.561 4.096-.63 7.926 2.169 8.561 6.263.567 3.663.855 7.398.855 11.102.001 39.678-32.278 71.957-71.955 71.957z" fill="#007ea8"/></g><path d="m452.587 60.063c0 17.389-14.105 31.494-31.493 31.494h-119.205c-8.699 0-16.57-3.526-22.279-9.225-5.699-5.699-9.225-13.579-9.225-22.269 0-17.399 14.105-31.504 31.504-31.504h119.204c8.689 0 16.57 3.526 22.269 9.225 5.699 5.709 9.225 13.58 9.225 22.279z" fill="#ffd600"/><path d="m279.61 82.332c5.709 5.698 13.579 9.225 22.279 9.225h-121.245c-8.699 0-16.57-3.526-22.279-9.225-5.699-5.699-9.225-13.579-9.225-22.269 0-17.399 14.105-31.504 31.504-31.504h121.245c-17.399 0-31.504 14.105-31.504 31.504 0 8.69 3.527 16.571 9.225 22.269z" fill="#ffff6f"/><path d="m421.093 21.06c-29.11 0-210.979 0-240.45 0-21.506 0-39.003 17.497-39.003 39.004 0 21.596 17.493 38.993 39.003 38.993 4.142 0 7.5-3.358 7.5-7.5s-3.358-7.5-7.5-7.5c-13.212 0-24.003-10.679-24.003-23.993 0-13.236 10.768-24.004 24.003-24.004h90.522c-5.547 7.085-8.281 15.612-8.281 24.004 0 21.596 17.494 38.993 39.004 38.993 4.142 0 7.5-3.358 7.5-7.5s-3.358-7.5-7.5-7.5c-13.211 0-24.004-10.679-24.004-23.993 0-13.236 10.768-24.004 24.004-24.004h119.204c13.341 0 23.994 10.82 23.994 24.004 0 13.23-10.764 23.993-23.994 23.993-4.142 0-7.5 3.358-7.5 7.5s3.358 7.5 7.5 7.5c21.501 0 38.994-17.492 38.994-38.993.001-21.511-17.397-39.004-38.993-39.004z" fill="#f95116"/><path d="m504.5 143.47v70.878h-267.134v-70.878c0-28.664 23.239-51.913 51.913-51.913h163.307c28.665 0 51.914 23.249 51.914 51.913z" fill="#ff9bff"/><path d="m237.367 310.681v45.845c5.108-1.303 10.459-1.998 15.973-1.998 32.213 0 58.903 23.631 63.689 54.503h48.111c4.786-30.872 31.476-54.503 63.689-54.503 26.961 0 50.044 16.56 59.663 40.058 9.856-9.449 16.003-22.737 16.003-37.468v-46.437z" fill="#ff9bff"/><g><path d="m504.5 221.848c-4.142 0-7.5-3.358-7.5-7.5v-70.878c0-24.49-19.924-44.414-44.413-44.414h-163.308c-24.489 0-44.413 19.924-44.413 44.414v70.878c0 4.142-3.358 7.5-7.5 7.5s-7.5-3.358-7.5-7.5v-70.878c0-32.761 26.652-59.414 59.413-59.414h163.308c32.761 0 59.413 26.653 59.413 59.414v70.878c0 4.142-3.358 7.5-7.5 7.5z" fill="#e207b9"/></g><g><path d="m488.494 402.086c-1.973 0-3.942-.773-5.415-2.31-2.866-2.99-2.766-7.738.224-10.604 8.83-8.465 13.693-19.849 13.693-32.054v-46.437c0-4.142 3.358-7.5 7.5-7.5s7.5 3.358 7.5 7.5v46.437c0 16.332-6.503 31.561-18.312 42.882-1.455 1.394-3.324 2.086-5.19 2.086z" fill="#e207b9"/></g><path d="m237.367 356.526v-45.845h-229.867v46.437c0 28.669 23.243 51.912 51.912 51.912h130.239c3.967-25.587 22.981-46.197 47.716-52.504z" fill="#ffceff"/><path d="m80.745 91.558c-40.452 0-73.245 32.793-73.245 73.245v145.878h229.867v-167.21c0-28.669 23.243-51.912 51.912-51.912h-208.534z" fill="#ffceff"/><path d="m237.366 262.513h267.134v48.165h-267.134z" fill="#f90"/><path d="m237.366 214.348h267.134v48.165h-267.134z" fill="#ffff6f"/><path d="m504.5 206.848h-267.134c-4.142 0-7.5 3.358-7.5 7.5s3.358 7.5 7.5 7.5h259.634v33.165h-259.634c-4.142 0-7.5 3.358-7.5 7.5s3.358 7.5 7.5 7.5h259.634v33.165h-259.634c-4.142 0-7.5 3.358-7.5 7.5s3.358 7.5 7.5 7.5h267.134c4.142 0 7.5-3.358 7.5-7.5v-48.165-48.165c0-4.142-3.358-7.5-7.5-7.5z" fill="#f95116"/><g><path d="m237.367 318.181h-229.867c-4.142 0-7.5-3.358-7.5-7.5v-145.878c0-44.523 36.222-80.745 80.745-80.745h208.534c4.142 0 7.5 3.358 7.5 7.5s-3.358 7.5-7.5 7.5c-24.489 0-44.412 19.923-44.412 44.413v167.21c0 4.142-3.358 7.5-7.5 7.5zm-222.367-15h214.867v-159.71c0-17.648 7.732-33.521 19.989-44.413h-169.111c-36.252 0-65.745 29.493-65.745 65.745z" fill="#e207b9"/></g><g><path d="m365.14 416.531h-48.111c-4.142 0-7.5-3.358-7.5-7.5s3.358-7.5 7.5-7.5h48.111c4.142 0 7.5 3.358 7.5 7.5s-3.358 7.5-7.5 7.5z" fill="#e207b9"/></g><path d="m167.237 131.02h-67.43c-29.186 0-52.845 23.66-52.845 52.845v43.194c0 17.404 14.109 31.513 31.513 31.513h88.762c17.404 0 31.513-14.109 31.513-31.513v-64.526c-.001-17.404-14.109-31.513-31.513-31.513z" fill="#88f8d8"/><circle cx="66.54" cy="359.856" fill="#ffff6f" r="20.053"/><circle cx="156.555" cy="359.856" fill="#ffff6f" r="20.053"/><circle cx="418.492" cy="149.755" fill="#e207b9" r="10.091"/><g><path d="m392.3 184.453h-42.734c-4.142 0-7.5-3.358-7.5-7.5s3.358-7.5 7.5-7.5h42.734c4.142 0 7.5 3.358 7.5 7.5s-3.358 7.5-7.5 7.5z" fill="#e207b9"/></g><circle cx="323.374" cy="149.755" fill="#e207b9" r="10.091"/><g><path d="m167.237 266.072h-88.762c-21.512 0-39.013-17.501-39.013-39.013v-43.193c0-33.274 27.071-60.345 60.345-60.345h67.43c21.512 0 39.013 17.501 39.013 39.013v64.526c0 21.511-17.501 39.012-39.013 39.012zm-67.43-127.551c-25.003 0-45.345 20.342-45.345 45.345v43.193c0 13.241 10.772 24.013 24.013 24.013h88.762c13.241 0 24.013-10.772 24.013-24.013v-64.526c0-13.241-10.772-24.013-24.013-24.013h-67.43z" fill="#007ea8"/></g><g><path d="m66.54 387.409c-15.193 0-27.553-12.36-27.553-27.553s12.36-27.553 27.553-27.553 27.553 12.36 27.553 27.553-12.36 27.553-27.553 27.553zm0-40.106c-6.922 0-12.553 5.631-12.553 12.553s5.631 12.553 12.553 12.553 12.553-5.631 12.553-12.553-5.631-12.553-12.553-12.553z" fill="#f95116"/></g><g><path d="m156.555 387.409c-15.192 0-27.553-12.36-27.553-27.553s12.36-27.553 27.553-27.553 27.553 12.36 27.553 27.553-12.36 27.553-27.553 27.553zm0-40.106c-6.921 0-12.553 5.631-12.553 12.553s5.631 12.553 12.553 12.553 12.553-5.631 12.553-12.553-5.631-12.553-12.553-12.553z" fill="#f95116"/></g><path d="m428.829 354.528c-35.598 0-64.456 28.858-64.456 64.456s28.858 64.456 64.456 64.456 64.456-28.858 64.456-64.456-28.858-64.456-64.456-64.456zm0 88.17c-13.097 0-23.714-10.617-23.714-23.714s10.617-23.714 23.714-23.714 23.714 10.617 23.714 23.714-10.617 23.714-23.714 23.714z" fill="#88f8d8"/><path d="m428.829 442.698c-13.097 0-23.714-10.617-23.714-23.714s10.617-23.714 23.714-23.714 23.714 10.617 23.714 23.714-10.617 23.714-23.714 23.714z" fill="#17d9c3"/><g><path d="m428.829 450.198c-17.211 0-31.214-14.003-31.214-31.214s14.002-31.214 31.214-31.214 31.214 14.002 31.214 31.214-14.002 31.214-31.214 31.214zm0-47.428c-8.94 0-16.214 7.273-16.214 16.214s7.273 16.214 16.214 16.214 16.214-7.274 16.214-16.214-7.273-16.214-16.214-16.214z" fill="#007ea8"/></g><g><path d="m428.829 490.94c-39.677 0-71.956-32.28-71.956-71.957s32.279-71.956 71.956-71.956 71.957 32.279 71.957 71.956-32.28 71.957-71.957 71.957zm0-128.912c-31.406 0-56.956 25.55-56.956 56.956s25.55 56.957 56.956 56.957 56.957-25.551 56.957-56.957-25.551-56.956-56.957-56.956z" fill="#007ea8"/></g><g><path d="m189.651 416.531h-130.238c-32.761 0-59.413-26.653-59.413-59.413v-46.437c0-4.142 3.358-7.5 7.5-7.5h229.867c4.142 0 7.5 3.358 7.5 7.5v45.845c0 4.142-3.358 7.5-7.5 7.5s-7.5-3.358-7.5-7.5v-38.345h-214.867v38.937c0 24.489 19.923 44.413 44.413 44.413h130.239c4.142 0 7.5 3.358 7.5 7.5s-3.359 7.5-7.501 7.5z" fill="#e207b9"/></g><path d="m253.34 354.528c-35.598 0-64.456 28.858-64.456 64.456s28.858 64.456 64.456 64.456 64.456-28.858 64.456-64.456-28.858-64.456-64.456-64.456zm0 88.17c-13.097 0-23.714-10.617-23.714-23.714s10.617-23.714 23.714-23.714 23.714 10.617 23.714 23.714-10.617 23.714-23.714 23.714z" fill="#88f8d8"/><path d="m253.34 442.698c-13.097 0-23.714-10.617-23.714-23.714s10.617-23.714 23.714-23.714 23.714 10.617 23.714 23.714-10.617 23.714-23.714 23.714z" fill="#17d9c3"/><g><path d="m253.34 450.198c-17.211 0-31.214-14.003-31.214-31.214s14.003-31.214 31.214-31.214 31.214 14.002 31.214 31.214-14.002 31.214-31.214 31.214zm0-47.428c-8.94 0-16.214 7.273-16.214 16.214s7.274 16.214 16.214 16.214 16.214-7.274 16.214-16.214-7.273-16.214-16.214-16.214z" fill="#007ea8"/></g><g><path d="m253.34 490.94c-39.677 0-71.956-32.28-71.956-71.957s32.279-71.956 71.956-71.956 71.956 32.279 71.956 71.956-32.279 71.957-71.956 71.957zm0-128.912c-31.406 0-56.956 25.55-56.956 56.956s25.55 56.957 56.956 56.957 56.956-25.551 56.956-56.957-25.55-56.956-56.956-56.956z" fill="#007ea8"/></g></g></svg>