<svg id="Capa_1" enable-background="new 0 0 512 512" height="512" viewBox="0 0 512 512" width="512" xmlns="http://www.w3.org/2000/svg"><g><ellipse cx="404.533" cy="310.116" fill="#ddbeff" rx="99.966" ry="99.966" transform="matrix(.707 -.707 .707 .707 -100.8 376.879)"/><ellipse cx="107.466" cy="310.116" fill="#ddbeff" rx="99.966" ry="99.966" transform="matrix(.707 -.707 .707 .707 -187.809 166.821)"/><circle cx="404.533" cy="310.115" fill="#88f8d8" r="57.471"/><path d="m404.533 60.068c23.893 0 45.824 8.387 63.02 22.372v-13.499c0-34.805-28.215-57.017-63.02-57.017-34.805 0-63.021 22.212-63.021 57.017v13.499c17.197-13.985 39.128-22.372 63.021-22.372z" fill="#ff63ed"/><path d="m504.5 160.032v150.085c0-55.211-44.755-99.966-99.966-99.966s-99.966 44.755-99.966 99.966v-150.085c0-55.211 44.755-99.966 99.966-99.966s99.966 44.755 99.966 99.966z" fill="#b98eff"/><path d="m404.533 410.083c-7.025 0-13.879-.728-20.494-2.106v45.091h-15.73c-12.981 0-23.504 10.523-23.504 23.504s10.523 23.504 23.504 23.504h39.234c12.981 0 23.504-10.523 23.504-23.504v-70.05c-8.444 2.317-17.333 3.561-26.514 3.561z" fill="#ff63ed"/><circle cx="107.465" cy="310.115" fill="#88f8d8" r="57.471"/><path d="m107.466 60.068c23.893 0 45.824 8.387 63.021 22.372v-13.499c0-34.805-28.215-57.017-63.02-57.017-34.805 0-63.02 22.212-63.02 57.017v13.499c17.195-13.985 39.126-22.372 63.019-22.372z" fill="#ff63ed"/><path d="m207.432 160.032v150.085c0-55.211-44.755-99.966-99.966-99.966s-99.966 44.754-99.966 99.965v-150.084c0-55.211 44.755-99.966 99.966-99.966s99.966 44.755 99.966 99.966z" fill="#b98eff"/><path d="m107.466 410.083c-7.025 0-13.879-.728-20.494-2.106v45.091h-15.73c-12.981 0-23.504 10.523-23.504 23.504s10.523 23.504 23.504 23.504h39.234c12.981 0 23.504-10.523 23.504-23.504v-70.05c-8.444 2.317-17.333 3.561-26.514 3.561z" fill="#ff63ed"/><path d="m305.147 320.922c-12.047-9.275-29.597-15.119-49.148-15.119s-37.101 5.843-49.148 15.119c.354-3.179.58-7.121.58-10.806v-36.681c12.037-9.005 29.337-14.658 48.567-14.658s36.531 5.653 48.567 14.658v36.681c.002 3.709.232 7.654.582 10.806z" fill="#b98eff"/><path d="m304.567 160.032v113.404c-12.037-9.005-29.337-14.658-48.567-14.658s-36.531 5.653-48.567 14.658v-113.404c12.037-9.005 29.337-14.658 48.567-14.658s36.53 5.653 48.567 14.658z" fill="#9448f5"/><circle cx="449.095" cy="128.275" fill="#6d00ca" r="9.455"/><circle cx="359.972" cy="128.275" fill="#6d00ca" r="9.455"/><g><path d="m404.533 375.086c-35.825 0-64.971-29.146-64.971-64.971s29.146-64.971 64.971-64.971 64.971 29.146 64.971 64.971-29.146 64.971-64.971 64.971zm0-114.942c-27.554 0-49.971 22.417-49.971 49.971s22.417 49.971 49.971 49.971 49.971-22.417 49.971-49.971-22.417-49.971-49.971-49.971z" fill="#007ea8"/></g><g><path d="m467.553 89.94c-4.142 0-7.5-3.358-7.5-7.5v-13.499c0-14.465-5.49-26.878-15.876-35.897-10.113-8.783-24.193-13.62-39.645-13.62s-29.531 4.837-39.645 13.62c-10.386 9.019-15.876 21.432-15.876 35.897v13.499c0 4.142-3.358 7.5-7.5 7.5s-7.5-3.358-7.5-7.5v-13.499c0-37.384 29.658-64.517 70.521-64.517s70.521 27.133 70.521 64.517v13.499c0 4.142-3.358 7.5-7.5 7.5z" fill="#e207b9"/></g><g><path d="m407.543 507.576h-39.233c-17.096 0-31.004-13.909-31.004-31.004s13.908-31.004 31.004-31.004h8.23v-37.591c0-4.142 3.358-7.5 7.5-7.5s7.5 3.358 7.5 7.5v45.091c0 4.142-3.358 7.5-7.5 7.5h-15.73c-8.825 0-16.004 7.179-16.004 16.004s7.179 16.004 16.004 16.004h39.234c8.825 0 16.004-7.18 16.004-16.004v-70.05c0-4.142 3.358-7.5 7.5-7.5s7.5 3.358 7.5 7.5v70.05c0 17.095-13.909 31.004-31.005 31.004z" fill="#e207b9"/></g><path d="m404.533 410.083c-7.025 0-13.879-.728-20.494-2.106v30.502c6.678 1.062 13.522 1.621 20.494 1.621 9.084 0 17.951-.94 26.514-2.722v-30.856c-8.444 2.317-17.333 3.561-26.514 3.561z" fill="#e207b9"/><circle cx="152.027" cy="128.275" fill="#6d00ca" r="9.455"/><circle cx="62.905" cy="128.275" fill="#6d00ca" r="9.455"/><g><path d="m107.465 375.086c-35.825 0-64.971-29.146-64.971-64.971s29.146-64.971 64.971-64.971 64.971 29.146 64.971 64.971-29.145 64.971-64.971 64.971zm0-114.942c-27.554 0-49.971 22.417-49.971 49.971s22.417 49.971 49.971 49.971 49.971-22.417 49.971-49.971-22.416-49.971-49.971-49.971z" fill="#007ea8"/></g><g><path d="m170.486 89.94c-4.142 0-7.5-3.358-7.5-7.5v-13.499c0-14.465-5.49-26.878-15.875-35.897-10.114-8.783-24.193-13.62-39.645-13.62s-29.531 4.837-39.645 13.62c-10.386 9.019-15.876 21.432-15.876 35.897v13.499c0 4.142-3.358 7.5-7.5 7.5s-7.5-3.358-7.5-7.5v-13.499c0-37.384 29.658-64.517 70.521-64.517s70.521 27.133 70.521 64.517v13.499c-.001 4.142-3.359 7.5-7.501 7.5z" fill="#e207b9"/></g><g><path d="m110.476 507.576h-39.233c-17.096 0-31.004-13.909-31.004-31.004s13.909-31.004 31.004-31.004h8.229v-37.591c0-4.142 3.358-7.5 7.5-7.5s7.5 3.358 7.5 7.5v45.091c0 4.142-3.358 7.5-7.5 7.5h-15.729c-8.825 0-16.004 7.179-16.004 16.004s7.18 16.004 16.004 16.004h39.233c8.825 0 16.004-7.18 16.004-16.004v-70.05c0-4.142 3.358-7.5 7.5-7.5s7.5 3.358 7.5 7.5v70.05c0 17.095-13.908 31.004-31.004 31.004z" fill="#e207b9"/></g><path d="m107.466 410.083c-7.025 0-13.879-.728-20.494-2.106v30.502c6.678 1.062 13.522 1.621 20.494 1.621 9.084 0 17.951-.94 26.514-2.722v-30.856c-8.444 2.317-17.333 3.561-26.514 3.561z" fill="#e207b9"/><g fill="#6d00ca"><path d="m424.554 146.258h-40.041c-4.142 0-7.5 3.358-7.5 7.5s3.358 7.5 7.5 7.5h40.041c4.142 0 7.5-3.358 7.5-7.5s-3.358-7.5-7.5-7.5z"/><path d="m404.534 52.565c-54.9 0-100.31 41.382-106.693 94.59-12.144-6.037-26.582-9.282-41.841-9.282s-29.697 3.245-41.842 9.282c-6.382-53.209-51.793-94.591-106.693-94.591-59.256.001-107.465 48.21-107.465 107.468v150.084c0 59.257 48.209 107.466 107.466 107.466 54.174 0 99.105-40.295 106.417-92.485 11.047-7.52 26.196-11.793 42.117-11.793s31.07 4.273 42.116 11.793c7.312 52.19 52.244 92.485 106.418 92.485 59.257 0 107.466-48.209 107.466-107.466v-150.084c0-59.258-48.209-107.467-107.466-107.467zm-297.068 350.018c-50.986 0-92.466-41.48-92.466-92.467 0-51.295 41.79-92.466 92.466-92.466 50.911 0 92.467 41.405 92.467 92.466 0 50.645-41.164 92.467-92.467 92.467zm92.467-147.184c-19.465-32.745-54.518-52.749-92.466-52.749s-.001 0-.002 0c-37.811 0-73.015 19.993-92.464 52.749v-95.367c0-50.986 41.48-92.466 92.466-92.466s92.467 41.48 92.467 92.466v95.367zm97.134 51.854c-12.006-5.77-26.329-8.95-41.067-8.95s-29.062 3.18-41.067 8.95v-29.883c11.821-7.628 26.886-11.093 41.067-11.093 14.238 0 29.341 3.52 41.067 11.093zm0-47.075c-12.524-6.057-26.926-8.901-41.067-8.901-13.819 0-28.327 2.742-41.067 8.901v-96.23c10.958-7.07 25.694-11.074 41.067-11.074s30.109 4.004 41.067 11.074zm107.467 142.405c-51.392 0-92.467-41.896-92.467-92.466 0-50.986 41.48-92.466 92.467-92.466s92.466 41.479 92.466 92.465-41.48 92.467-92.466 92.467zm92.466-147.185c-18.753-31.584-53.233-52.749-92.466-52.749-38.508 0-73.352 20.573-92.467 52.749v-95.367c0-50.986 41.48-92.466 92.467-92.466s92.466 41.48 92.466 92.467z"/><path d="m127.486 146.258h-40.04c-4.142 0-7.5 3.358-7.5 7.5s3.358 7.5 7.5 7.5h40.041c4.142 0 7.5-3.358 7.5-7.5s-3.359-7.5-7.501-7.5z"/></g></g></svg>