<svg id="Capa_1" enable-background="new 0 0 512 512" height="512" viewBox="0 0 512 512" width="512" xmlns="http://www.w3.org/2000/svg"><g><path d="m354.029 32.322h-29.014c2.56 5.498 3.999 11.624 3.999 18.089v17.039h25.015c16.582 0 30.072 13.49 30.072 30.072s-13.49 30.071-30.072 30.071h-9.062c3.038 4.353 4.829 9.64 4.829 15.352 0 7.822-3.343 14.862-8.674 19.775h12.908c35.951 0 65.199-29.248 65.199-65.199-.001-35.951-29.25-65.199-65.2-65.199z" fill="#ff63ed"/><path d="m189.094 116.055h133.812c2.102 0 4.145.249 6.108.705v-66.348c0-23.699-19.212-42.912-42.912-42.912h-60.204c-23.699 0-42.912 19.212-42.912 42.912v66.348c1.963-.456 4.006-.705 6.108-.705z" fill="#ff9bff"/><path d="m354.029 24.822h-24.519c-8.783-14.842-24.948-24.822-43.408-24.822h-60.204c-27.797 0-50.412 22.615-50.412 50.412v66.348c0 4.142 3.357 7.5 7.5 7.5s7.5-3.358 7.5-7.5v-66.348c0-19.526 15.886-35.412 35.412-35.412h60.204c19.667 0 35.411 16.054 35.411 35.412v66.348c0 4.142 3.357 7.5 7.5 7.5s7.5-3.358 7.5-7.5v-41.81h17.516c12.446 0 22.571 10.125 22.571 22.572 0 12.446-10.125 22.571-22.571 22.571h-9.063c-4.143 0-7.5 3.358-7.5 7.5s3.357 7.5 7.5 7.5h9.063c20.717 0 37.571-16.854 37.571-37.571s-16.854-37.572-37.571-37.572h-17.516v-9.538c0-3.677-.449-7.487-1.114-10.589h18.63c31.815 0 57.699 25.884 57.699 57.699s-25.884 57.699-57.699 57.699c-4.143 0-7.5 3.358-7.5 7.5s3.357 7.5 7.5 7.5c40.087 0 72.699-32.613 72.699-72.699s-32.612-72.7-72.699-72.7z" fill="#e207b9"/><path d="m214.425 419.605c-8.435 0-16.766-.822-24.902-2.39v43.09h-14.788c-12.204 0-22.098 9.893-22.098 22.097s9.893 22.098 22.098 22.098h36.886c12.204 0 22.098-9.893 22.098-22.098v-62.797z" fill="#17d9c3"/><path d="m297.574 419.605h-5.207v40.7h-14.788c-12.204 0-22.097 9.893-22.097 22.097s9.894 22.098 22.097 22.098h36.886c12.204 0 22.097-9.893 22.097-22.098v-68.717c-12.482 3.873-25.607 5.92-38.988 5.92z" fill="#17d9c3"/><g><path d="m211.621 512h-36.886c-16.32 0-29.598-13.277-29.598-29.598 0-16.32 13.277-29.597 29.598-29.597h7.288v-35.59c0-4.142 3.357-7.5 7.5-7.5s7.5 3.358 7.5 7.5v43.09c0 4.142-3.357 7.5-7.5 7.5h-14.788c-8.049 0-14.598 6.548-14.598 14.597s6.549 14.598 14.598 14.598h36.886c8.049 0 14.598-6.548 14.598-14.598v-62.797c0-4.142 3.357-7.5 7.5-7.5s7.5 3.358 7.5 7.5v62.797c-.001 16.321-13.278 29.598-29.598 29.598z" fill="#007ea8"/></g><g><path d="m314.464 512h-36.886c-16.32 0-29.598-13.277-29.598-29.598 0-16.32 13.277-29.597 29.598-29.597h7.288v-33.2c0-4.142 3.357-7.5 7.5-7.5s7.5 3.358 7.5 7.5v40.7c0 4.142-3.357 7.5-7.5 7.5h-14.788c-8.049 0-14.598 6.548-14.598 14.597s6.549 14.598 14.598 14.598h36.886c8.049 0 14.598-6.548 14.598-14.598v-68.717c0-4.142 3.357-7.5 7.5-7.5s7.5 3.358 7.5 7.5v68.717c0 16.321-13.277 29.598-29.598 29.598z" fill="#007ea8"/></g><path d="m322.905 116.055h-133.811c-14.851 0-26.89 12.039-26.89 26.89 0 14.851 12.039 26.89 26.89 26.89h133.812c14.851 0 26.89-12.039 26.89-26.89-.001-14.851-12.04-26.89-26.891-26.89z" fill="#7181ff"/><path d="m427.562 267.448c-9.552-57.293-48.114-90.969-68.212-104.964-1.757.143-3.528.235-5.321.235h-12.908c-4.791 4.415-11.187 7.115-18.216 7.115h-133.811c-10.583 0-19.733-6.116-24.121-15.003s-67.458 34.18-80.536 112.617c-5.873 35.226 3.422 71.302 24.929 99.811 24.868 32.965 63.766 52.346 105.059 52.346h83.149c41.293 0 80.191-19.381 105.059-52.346 21.508-28.509 30.802-64.585 24.929-99.811z" fill="#a4bcff"/><circle cx="306.279" cy="260.684" fill="#2115c2" r="10.668"/><g><path d="m278.588 296.936h-45.178c-4.143 0-7.5-3.358-7.5-7.5s3.357-7.5 7.5-7.5h45.178c4.143 0 7.5 3.358 7.5 7.5s-3.357 7.5-7.5 7.5z" fill="#2115c2"/></g><circle cx="205.72" cy="260.684" fill="#2115c2" r="10.668"/><path d="m214.425 419.605c-8.435 0-16.766-.822-24.902-2.39v25.444c8.188 1.334 16.512 2.037 24.902 2.037h19.293v-25.091z" fill="#007ea8"/><path d="m297.574 419.605h-5.207v25.091h5.207c13.254 0 26.349-1.726 38.988-5.001v-26.01c-12.482 3.873-25.607 5.92-38.988 5.92z" fill="#007ea8"/><path d="m434.959 266.215c-9.882-59.277-48.928-94.29-71.323-109.885-1.429-.995-3.159-1.464-4.895-1.32-1.346.11-2.57.175-3.715.199 1.46-3.812 2.268-7.944 2.268-12.264 0-18.962-15.427-34.39-34.39-34.39h-133.81c-18.963 0-34.391 15.427-34.391 34.39 0 2.94.372 5.794 1.07 8.52-6.802 4.172-18.743 12.336-31.447 24.937-31.999 31.741-43.377 66.36-47.287 89.813-13.796 82.742 51.069 160.891 137.386 160.891h83.149c86.266-.001 151.191-78.092 137.385-160.891zm-245.865-142.66h133.812c10.691 0 19.39 8.698 19.39 19.39 0 10.679-8.737 19.39-19.39 19.39h-133.812c-10.753 0-19.391-8.778-19.391-19.39.001-10.692 8.699-19.39 19.391-19.39zm108.481 288.55h-83.149c-77.319 0-134.824-70.053-122.591-143.424 5.13-30.769 19.489-58.107 42.678-81.255 11.163-11.143 21.811-18.586 28.088-22.532 6.495 7.883 16.178 12.44 26.494 12.44h133.812c7.608 0 14.983-2.53 20.942-7.114 9.91-.021 10.633.052 13.337-.079 20.714 14.924 54.304 46.503 62.979 98.54 12.211 73.244-45.137 143.424-122.59 143.424z" fill="#2115c2"/></g></svg>