<svg id="Capa_1" enable-background="new 0 0 512 512" height="512" viewBox="0 0 512 512" width="512" xmlns="http://www.w3.org/2000/svg"><g><path d="m226.211 57.723v39.031c5.696-.751 11.468-1.146 17.308-1.146h24.962c5.841 0 11.613.395 17.308 1.146v-39.031z" fill="#7181ff"/><path d="m287.861 7.5h-63.723c-13.869 0-25.111 11.243-25.111 25.111 0 13.869 11.243 25.111 25.111 25.111h63.723c13.869 0 25.111-11.243 25.111-25.111.001-13.868-11.242-25.111-25.111-25.111z" fill="#a4bcff"/><path d="m320.473 32.611c0-17.982-14.629-32.611-32.612-32.611h-63.724c-17.982 0-32.611 14.629-32.611 32.611 0 16.133 11.777 29.559 27.185 32.151v31.992c0 4.142 3.357 7.5 7.5 7.5s7.5-3.358 7.5-7.5v-31.531h44.578v31.532c0 4.142 3.357 7.5 7.5 7.5s7.5-3.358 7.5-7.5v-31.993c15.407-2.593 27.184-16.018 27.184-32.151zm-32.612 17.612c-6.307 0-58.247 0-63.724 0-9.711 0-17.611-7.9-17.611-17.611s7.901-17.612 17.612-17.612h63.724c9.711 0 17.611 7.9 17.611 17.611s-7.901 17.612-17.612 17.612z" fill="#2115c2"/><g><path d="m341.597 396.508v84.371c0 13.045-10.576 23.621-23.621 23.621h-39.428c-13.045 0-23.621-10.576-23.621-23.621s10.576-23.621 23.621-23.621h15.808v-60.75z" fill="#7181ff"/></g><g><path d="m231.663 396.508v84.371c0 13.045-10.576 23.621-23.621 23.621h-39.428c-13.045 0-23.621-10.576-23.621-23.621s10.576-23.621 23.621-23.621h15.808v-60.75z" fill="#7181ff"/></g><path d="m445.578 273.008h-379.156c-17.052 0-30.875 13.823-30.875 30.875 0 17.052 13.823 30.875 30.875 30.875h379.156c17.052 0 30.875-13.823 30.875-30.875 0-17.051-13.823-30.875-30.875-30.875z" fill="#a4bcff"/><path d="m84.521 334.758c-23.899 0-45.084 15.38-52.485 38.105-3.8 11.667 4.896 23.645 17.167 23.645h413.593c12.271 0 20.967-11.978 17.167-23.645-7.401-22.724-28.585-38.105-52.485-38.105" fill="#ffd600"/><path d="m268.481 95.911h-24.962c-97.808 0-177.097 79.289-177.097 177.097h379.156c0-97.808-79.289-177.097-177.097-177.097z" fill="#ffd600"/><g><g><path d="m317.976 512h-39.429c-17.16 0-31.12-13.96-31.12-31.121s13.96-31.121 31.12-31.121h8.308v-53.25c0-4.142 3.357-7.5 7.5-7.5s7.5 3.358 7.5 7.5v60.75c0 4.142-3.357 7.5-7.5 7.5h-15.808c-8.889 0-16.12 7.232-16.12 16.121s7.231 16.121 16.12 16.121h39.429c8.89 0 16.121-7.231 16.121-16.121v-84.371c0-4.142 3.357-7.5 7.5-7.5s7.5 3.358 7.5 7.5v84.371c0 17.161-13.961 31.121-31.121 31.121z" fill="#2115c2"/></g></g><g><g><path d="m208.042 512h-39.428c-17.16 0-31.121-13.96-31.121-31.121s13.961-31.121 31.121-31.121h8.308v-53.25c0-4.142 3.357-7.5 7.5-7.5s7.5 3.358 7.5 7.5v60.75c0 4.142-3.357 7.5-7.5 7.5h-15.808c-8.89 0-16.121 7.232-16.121 16.121s7.232 16.121 16.121 16.121h39.428c8.89 0 16.121-7.231 16.121-16.121v-84.371c0-4.142 3.357-7.5 7.5-7.5s7.5 3.358 7.5 7.5v84.371c0 17.161-13.961 31.121-31.121 31.121z" fill="#2115c2"/></g></g><path d="m184.422 396.508h47.242v31.564h-47.242z" fill="#2115c2"/><path d="m294.355 396.508h47.242v31.564h-47.242z" fill="#2115c2"/><circle cx="308.897" cy="192.051" fill="#f95116" r="11.224"/><g><path d="m279.766 229.801h-47.531c-4.143 0-7.5-3.358-7.5-7.5s3.357-7.5 7.5-7.5h47.531c4.143 0 7.5 3.358 7.5 7.5s-3.358 7.5-7.5 7.5z" fill="#f95116"/></g><circle cx="203.102" cy="192.051" fill="#f95116" r="11.224"/><g><path d="m445.578 280.508c-4.143 0-7.5-3.358-7.5-7.5 0-93.517-76.081-169.598-169.598-169.598h-24.962c-93.516 0-169.597 76.081-169.597 169.598 0 4.142-3.357 7.5-7.5 7.5s-7.5-3.358-7.5-7.5c0-101.788 82.81-184.598 184.597-184.598h24.962c101.787 0 184.598 82.81 184.598 184.598 0 4.142-3.357 7.5-7.5 7.5z" fill="#f95116"/></g><g><path d="m462.796 404.008h-413.593c-17.388 0-29.682-16.936-24.298-33.468 8.432-25.888 32.389-43.282 59.615-43.282 4.143 0 7.5 3.358 7.5 7.5s-3.357 7.5-7.5 7.5c-20.713 0-38.938 13.232-45.354 32.928-2.224 6.828 2.856 13.822 10.036 13.822h413.593c7.181 0 12.259-6.995 10.036-13.823-6.414-19.695-24.641-32.927-45.354-32.927-4.143 0-7.5-3.358-7.5-7.5s3.357-7.5 7.5-7.5c27.228 0 51.185 17.394 59.616 43.283 5.386 16.531-6.911 33.467-24.297 33.467z" fill="#f95116"/></g><g><path d="m445.578 342.258h-379.156c-21.16 0-38.375-17.215-38.375-38.375s17.215-38.375 38.375-38.375h379.156c21.16 0 38.375 17.215 38.375 38.375s-17.215 38.375-38.375 38.375zm-379.156-61.75c-12.889 0-23.375 10.486-23.375 23.375s10.486 23.375 23.375 23.375h379.156c12.889 0 23.375-10.486 23.375-23.375s-10.486-23.375-23.375-23.375z" fill="#2115c2"/></g></g></svg>