<svg id="Capa_1" enable-background="new 0 0 512 512" height="512" viewBox="0 0 512 512" width="512" xmlns="http://www.w3.org/2000/svg"><g><g><path d="m316.692 416.26v68.94c0 10.659-8.641 19.301-19.301 19.301h-32.217c-10.659 0-19.301-8.641-19.301-19.301s8.641-19.301 19.301-19.301h12.917v-49.639z" fill="#7181ff"/></g><g><path d="m226.865 416.26v68.94c0 10.659-8.641 19.301-19.301 19.301h-32.217c-10.659 0-19.301-8.641-19.301-19.301s8.641-19.301 19.301-19.301h12.917v-49.639z" fill="#7181ff"/></g><g><g><path d="m297.391 512h-32.217c-14.777 0-26.8-12.022-26.8-26.8s12.022-26.8 26.8-26.8h5.418v-42.14c0-4.142 3.357-7.499 7.499-7.499s7.499 3.358 7.499 7.499v49.639c0 4.142-3.357 7.499-7.499 7.499h-12.917c-6.507 0-11.801 5.294-11.801 11.801s5.294 11.801 11.801 11.801h32.217c6.507 0 11.802-5.294 11.802-11.801v-68.94c0-4.142 3.357-7.499 7.499-7.499s7.499 3.358 7.499 7.499v68.94c.001 14.779-12.022 26.801-26.8 26.801z" fill="#2115c2"/></g></g><g><g><path d="m207.564 512h-32.218c-14.777 0-26.8-12.022-26.8-26.8s12.022-26.8 26.8-26.8h5.418v-42.14c0-4.142 3.357-7.499 7.499-7.499s7.499 3.358 7.499 7.499v49.639c0 4.142-3.357 7.499-7.499 7.499h-12.917c-6.507 0-11.801 5.294-11.801 11.801s5.294 11.801 11.801 11.801h32.218c6.507 0 11.801-5.294 11.801-11.801v-68.94c0-4.142 3.357-7.499 7.499-7.499s7.499 3.358 7.499 7.499v68.94c.001 14.779-12.021 26.801-26.799 26.801z" fill="#2115c2"/></g></g><path d="m188.263 416.26h38.601v27.716h-38.601z" fill="#2115c2"/><path d="m278.091 416.26h38.601v27.716h-38.601z" fill="#2115c2"/><path d="m373.694 219.747-11.183 57.59c-1.396 7.189-7.719 12.405-15.042 12.405h-189.324c-7.324 0-13.647-5.216-15.042-12.405l-11.183-57.59z" fill="#ff63ed"/><path d="m381.778 321.935-11.385 61.074c-3.599 19.277-20.422 33.251-40.026 33.251h-155.12c-19.604 0-36.427-13.974-40.026-33.251l-11.385-61.074c.308.221.606.433.914.635.019.029.048.048.077.058 9.712 6.725 21.268 10.423 33.318 10.423h189.324c12.41 0 24.188-4.068 33.318-10.423.029-.01.058-.029.077-.058.308-.202.606-.414.914-.635z" fill="#ff63ed"/><path d="m417.917 219.227-12.896 66.367c-2.916 15.052-11.491 27.842-23.242 36.34v-.019c-.308.221-.606.433-.914.654-.019.029-.048.048-.077.058-9.754 6.658-21.126 10.423-33.318 10.423h-189.325c-10.981 0-23.044-3.308-33.318-10.423-.029-.01-.058-.029-.077-.058-.308-.221-.606-.433-.914-.654v.019c-11.751-8.498-20.326-21.288-23.242-36.34l-12.896-66.367c1.657.339 3.312.52 5.158.52h39.064l11.183 57.59c1.395 7.189 7.718 12.405 15.042 12.405h189.324c7.324 0 13.647-5.216 15.042-12.405l11.183-57.59h39.035c1.902 0 3.554-.185 5.188-.52z" fill="#ffceff"/><circle cx="298.108" cy="361.823" fill="#e207b9" r="9.612"/><circle cx="207.506" cy="361.823" fill="#e207b9" r="9.612"/><path d="m434.597 45.133-49.167-33.426c-10.989-7.471-25.954-4.619-33.425 6.37-7.471 10.989-4.619 25.954 6.37 33.425l49.167 33.426c10.989 7.471 25.954 4.619 33.425-6.37 7.471-10.99 4.619-25.954-6.37-33.425z" fill="#a4bcff"/><path d="m337.891 100.01 15.451 4.468c8.626 2.494 16.609 6.584 23.595 11.963l24.326-35.782-36.609-24.889-29.485 43.371c.903.301 1.805.604 2.722.869z" fill="#7181ff"/><path d="m438.813 38.931-49.167-33.426c-23.106-15.71-53.994 4.463-48.746 32.007 1.579 8.281 6.288 15.451 13.259 20.19l.078.053-25.269 37.169c-2.329 3.425-1.44 8.09 1.985 10.419 3.426 2.328 8.089 1.439 10.418-1.986l25.268-37.169 24.205 16.456-20.109 29.58c-2.329 3.425-1.44 8.09 1.985 10.419 3.433 2.333 8.094 1.433 10.418-1.986l20.109-29.581.077.053c14.39 9.783 34.059 6.036 43.843-8.356 9.785-14.391 6.036-34.059-8.354-43.842zm-4.047 35.41c-5.145 7.568-15.437 9.532-23.007 4.385l-49.167-33.427c-7.568-5.144-9.532-15.435-4.385-23.006 5.142-7.563 15.466-9.511 23.007-4.385l49.167 33.426c7.551 5.134 9.518 15.455 4.385 23.007z" fill="#2115c2"/><path d="m395.151 137.24c-9.176-15.917-24.161-27.659-41.81-32.763l-15.451-4.468c-10.003-2.893-19.249-7.949-27.081-14.811l-11.191-9.805c-12.954-11.35-29.59-17.607-46.813-17.607s-33.859 6.257-46.813 17.607l-11.191 9.805c-7.832 6.862-17.077 11.919-27.081 14.811l-15.451 4.468c-17.649 5.103-32.634 16.846-41.81 32.763l-17.573 30.484h319.836z" fill="#ffff6f"/><g fill="#e207b9"><path d="m273.16 380.23h-40.706c-4.142 0-7.499 3.358-7.499 7.499s3.357 7.499 7.499 7.499h40.706c4.142 0 7.499-3.358 7.499-7.499s-3.357-7.499-7.499-7.499z"/><path d="m419.347 211.865c-4.07-.79-8.002 1.867-8.792 5.931l-12.897 66.372c-4.783 24.694-26.541 41.383-50.188 41.383h-189.325c-24.068 0-45.479-17.072-50.189-41.387l-12.896-66.368c-.789-4.065-4.719-6.721-8.792-5.931-4.066.79-6.721 4.727-5.931 8.792l12.895 66.363c3.006 15.521 11.401 29.305 23.762 39.132l10.856 58.232c4.26 22.815 24.194 39.374 47.398 39.374h155.12c23.204 0 43.138-16.559 47.398-39.376l10.856-58.23c12.359-9.827 20.754-23.611 23.761-39.128l12.896-66.368c.789-4.064-1.866-8.001-5.932-8.791zm-56.327 169.767c-2.934 15.719-16.668 27.128-32.654 27.128h-155.12c-15.986 0-29.719-11.409-32.654-27.126l-8.504-45.617c7.836 3.075 16.328 4.533 24.056 4.533h189.324c8.046 0 16.315-1.538 24.061-4.564z"/><path d="m135.741 278.766c2.078 10.705 11.5 18.476 22.403 18.476h189.324c10.903 0 20.326-7.77 22.403-18.475l11.184-57.59c.79-4.066-1.866-8.002-5.932-8.791-4.062-.789-8.001 1.867-8.791 5.932l-11.184 57.59c-.713 3.671-3.942 6.335-7.68 6.335h-189.323c-3.738 0-6.967-2.664-7.68-6.335l-11.184-57.59c-.788-4.066-4.72-6.722-8.791-5.932-4.066.789-6.722 4.726-5.932 8.791z"/></g><path d="m438.733 193.733c0 12.588-8.941 23.088-20.817 25.494-.423.087-.847.164-1.27.231-1.28.192-2.589.289-3.917.289h-319.873c-.327 0-.654-.01-.982-.019-.635-.029-1.251-.067-1.867-.135-.356-.038-.693-.087-1.039-.135-.423-.067-.847-.144-1.27-.231-5.101-1.03-9.653-3.561-13.204-7.103-4.696-4.706-7.613-11.212-7.613-18.391 0-14.359 11.645-26.004 26.004-26.004h319.845c7.18 0 13.676 2.906 18.392 7.622 4.695 4.697 7.611 11.203 7.611 18.382z" fill="#ffd600"/><path d="m417.238 160.537-15.589-27.042s0 0-.001 0c-10.196-17.687-26.612-30.55-46.224-36.222-10.26-3.644-24.793-4.679-39.673-17.715-6.113-4.076-25.3-29.271-62.945-29.271-37.736 0-56.769 25.153-62.945 29.271-14.899 13.053-29.27 14.02-39.673 17.715-19.612 5.671-36.027 18.535-46.225 36.222l-15.591 27.048c-16.347 2.211-28.992 16.248-28.992 33.191 0 18.386 14.859 33.513 33.475 33.513h319.873c18.684 0 33.503-15.272 33.503-33.513.001-17.154-12.783-31.027-28.993-33.197zm-300.278-19.551c8.248-14.309 21.529-24.716 37.395-29.304 9.502-3.437 27.364-5.049 45.391-20.843 6.558-4.451 21.927-25.553 53.061-25.553 31.174 0 46.389 21.025 53.061 25.553 18.032 15.798 35.742 17.352 45.391 20.842 15.866 4.588 29.147 14.995 37.395 29.304l11.091 19.24h-293.876zm295.769 71.262h-319.873c-10.19 0-18.476-8.282-18.476-18.515 0-10.203 8.301-18.504 18.504-18.504h319.845c10.204 0 18.504 8.257 18.504 18.504.001 10.074-8.178 18.515-18.504 18.515z" fill="#f95116"/></g></svg>