<svg id="Capa_1" enable-background="new 0 0 512 512" height="512" viewBox="0 0 512 512" width="512" xmlns="http://www.w3.org/2000/svg"><g><g><path d="m305.716 391.125v88.576c0 13.695-11.103 24.798-24.798 24.798h-41.394c-13.695 0-24.798-11.103-24.798-24.798s11.103-24.798 24.798-24.798h16.596v-63.778z" fill="#ff63ed"/></g><g><path d="m190.303 391.125v88.576c0 13.695-11.103 24.798-24.798 24.798h-41.394c-13.695 0-24.798-11.103-24.798-24.798s11.103-24.798 24.798-24.798h16.596v-63.778z" fill="#ff63ed"/></g><g><g><path d="m280.917 512h-41.394c-17.81 0-32.298-14.489-32.298-32.298s14.489-32.298 32.298-32.298h9.096v-56.278c0-4.142 3.358-7.5 7.5-7.5s7.5 3.358 7.5 7.5v63.778c0 4.142-3.358 7.5-7.5 7.5h-16.596c-9.538 0-17.298 7.76-17.298 17.298s7.761 17.298 17.299 17.298h41.394c9.538 0 17.298-7.76 17.298-17.298v-88.576c0-4.142 3.358-7.5 7.5-7.5s7.5 3.358 7.5 7.5v88.576c0 17.809-14.489 32.298-32.299 32.298z" fill="#e207b9"/></g></g><g><g><path d="m165.505 512h-41.394c-17.809 0-32.298-14.489-32.298-32.298s14.489-32.298 32.298-32.298h9.096v-56.278c0-4.142 3.358-7.5 7.5-7.5s7.5 3.358 7.5 7.5v63.778c0 4.142-3.358 7.5-7.5 7.5h-16.596c-9.538 0-17.298 7.76-17.298 17.298s7.76 17.298 17.298 17.298h41.394c9.538 0 17.298-7.76 17.298-17.298v-88.576c0-4.142 3.358-7.5 7.5-7.5s7.5 3.358 7.5 7.5v88.576c0 17.809-14.489 32.298-32.298 32.298z" fill="#e207b9"/></g></g><path d="m140.707 391.125h49.596v33.137h-49.596z" fill="#e207b9"/><path d="m256.119 391.125h49.596v33.137h-49.596z" fill="#e207b9"/><path d="m442.337 44.712v129.486c0 20.543-16.658 37.212-37.212 37.212h-109.935c-20.553 0-37.212-16.669-37.212-37.212v-129.486c0-20.543 16.658-37.212 37.212-37.212h109.935c20.554 0 37.212 16.669 37.212 37.212z" fill="#ddbeff"/><circle cx="350.159" cy="109.454" fill="#88f8d8" r="50.277"/><path d="m295.19 211.409c-20.553 0-37.212-16.669-37.212-37.212v-129.485c0-6.024 1.441-11.71 3.984-16.745h-186.152c-29.051 0-52.595 23.56-52.595 52.595v257.968c0 29.036 23.545 52.595 52.595 52.595h263.06c29.051 0 52.595-23.56 52.595-52.595v-127.121z" fill="#b98eff"/><path d="m451.574 211.409h-46.449-13.66v127.121c0 29.036-23.545 52.595-52.595 52.595h65.651c29.051 0 52.595-23.56 52.595-52.595v-127.534c-1.808.27-3.659.413-5.542.413z" fill="#9448f5"/><path d="m488.785 44.712v129.486c0 20.543-16.658 37.212-37.212 37.212h-46.449c20.553 0 37.212-16.669 37.212-37.212v-129.486c0-20.543-16.658-37.212-37.212-37.212h46.449c20.554 0 37.212 16.669 37.212 37.212z" fill="#b98eff"/><circle cx="97.651" cy="93.996" fill="#ff63ed" r="24.188"/><path d="m190.172 154.453h-91.023c-14.185 0-25.685 11.5-25.685 25.685v42.644c0 14.185 11.5 25.685 25.685 25.685h91.024c14.185 0 25.685-11.5 25.685-25.685v-42.644c-.001-14.185-11.5-25.685-25.686-25.685z" fill="#88f8d8"/><circle cx="257.23" cy="302.37" fill="#6d00ca" r="10.586"/><circle cx="157.449" cy="302.37" fill="#6d00ca" r="10.586"/><g><path d="m350.159 167.232c-31.858 0-57.777-25.919-57.777-57.777s25.919-57.777 57.777-57.777 57.777 25.919 57.777 57.777-25.918 57.777-57.777 57.777zm0-100.555c-23.587 0-42.777 19.19-42.777 42.777s19.19 42.777 42.777 42.777 42.777-19.19 42.777-42.777-19.189-42.777-42.777-42.777z" fill="#007ea8"/></g><g fill="#6d00ca"><path d="m229.754 323.4h-44.829c-4.142 0-7.5 3.358-7.5 7.5s3.358 7.5 7.5 7.5h44.829c4.142 0 7.5-3.358 7.5-7.5s-3.358-7.5-7.5-7.5z"/><path d="m451.574 0h-46.449-109.935c-15.721 0-29.564 8.164-37.538 20.467h-181.842c-33.137 0-60.095 26.958-60.095 60.095v257.968c0 33.137 26.958 60.096 60.095 60.096h328.711c33.137 0 60.095-26.959 60.095-60.096v-121.566c18.311-5.595 31.67-22.648 31.67-42.767v-129.486c0-24.653-20.058-44.711-44.712-44.711zm-156.384 15h109.935c16.383 0 29.712 13.329 29.712 29.711v129.486c0 16.383-13.329 29.712-29.712 29.712-23 0-84.593 0-109.935 0-16.383 0-29.711-13.329-29.711-29.712v-129.486c0-16.368 13.333-29.711 29.711-29.711zm-264.476 323.53v-257.968c0-24.866 20.229-45.095 45.095-45.095h175.624c-.654 3.102-.955 6.22-.955 9.245v129.486c0 24.654 20.058 44.712 44.711 44.712h88.775v119.62c0 24.866-20.229 45.096-45.095 45.096h-263.059c-24.866-.001-45.096-20.23-45.096-45.096zm418.902 0c0 24.866-20.229 45.096-45.095 45.096h-25.97c12.547-11.061 20.414-27.346 20.414-45.096v-119.621h6.16 44.491zm31.67-164.333c0 14.901-11.027 27.272-25.349 29.389-3.076.453-4.575.296-17.427.323 7.103-7.975 11.327-18.507 11.327-29.712v-129.486c0-10.927-4.029-21.514-11.327-29.711h13.063c16.383 0 29.712 13.329 29.712 29.711v129.486z"/></g><g><path d="m97.651 125.684c-17.473 0-31.688-14.215-31.688-31.688s14.215-31.688 31.688-31.688 31.688 14.215 31.688 31.688-14.215 31.688-31.688 31.688zm0-48.376c-9.202 0-16.688 7.486-16.688 16.688s7.486 16.688 16.688 16.688 16.688-7.486 16.688-16.688-7.486-16.688-16.688-16.688z" fill="#e207b9"/></g><g><path d="m190.172 255.968h-91.024c-18.298 0-33.185-14.887-33.185-33.185v-42.644c0-18.298 14.887-33.185 33.185-33.185h91.023c18.298 0 33.185 14.887 33.185 33.185v42.644c.001 18.298-14.886 33.185-33.184 33.185zm-91.024-94.014c-10.027 0-18.185 8.158-18.185 18.185v42.644c0 10.027 8.158 18.185 18.185 18.185h91.023c10.027 0 18.185-8.158 18.185-18.185v-42.644c0-10.027-8.158-18.185-18.185-18.185z" fill="#007ea8"/></g></g></svg>