<svg id="Capa_1" enable-background="new 0 0 512 512" height="512" viewBox="0 0 512 512" width="512" xmlns="http://www.w3.org/2000/svg"><g><path d="m423.886 129.666h-335.771l13.463-49.731c9.02-33.368 39.302-56.535 73.861-56.535h161.123c34.559 0 64.841 23.167 73.861 56.535z" fill="#ffff6f"/><path d="m492.59 236.242-19.252 11.527c-34.694 20.764-77.786 20.764-112.469 0-14.996-8.979-33.637-8.979-48.633 0-34.683 20.764-77.786 20.764-112.469 0-14.996-8.979-33.627-8.979-48.633 0-34.683 20.764-77.786 20.764-112.469 0l-19.252-11.527c-11.609-6.949-15.389-21.997-8.44-33.606l6.752-11.278c6.949-11.609 21.997-15.379 33.606-8.43l19.252 11.526c15.006 8.979 33.637 8.979 48.633 0 34.694-20.764 77.786-20.764 112.469 0 14.996 8.979 33.637 8.979 48.633 0 34.683-20.764 77.786-20.764 112.469 0 14.996 8.979 33.627 8.979 48.633 0l19.252-11.526c11.609-6.949 26.657-3.179 33.596 8.43l6.763 11.278c6.948 11.609 3.168 26.657-8.441 33.606z" fill="#ffff6f"/><g><path d="m423.881 137.168c-3.304 0-6.33-2.2-7.235-5.542l-13.463-49.731c-8.117-30.026-35.512-50.995-66.621-50.995h-161.123c-31.109 0-58.504 20.969-66.621 50.991l-13.464 49.734c-1.082 3.998-5.199 6.361-9.2 5.28-3.998-1.082-6.362-5.201-5.28-9.2l13.463-49.731c9.88-36.547 43.23-62.075 81.101-62.075h161.123c37.87 0 71.221 25.527 81.102 62.078l13.462 49.728c1.083 3.999-1.281 8.118-5.28 9.2-.655.178-1.315.263-1.964.263z" fill="#f95116"/></g><g fill="#17d9c3"><path d="m441.419 194.454c-15.006 8.979-33.637 8.979-48.633 0-34.683-20.764-77.786-20.764-112.469 0-14.996 8.979-33.637 8.979-48.633 0-34.683-20.764-77.776-20.764-112.469 0-14.996 8.979-33.627 8.979-48.633 0l17.533-64.789h335.771z"/><path d="m281.147 391.922 4.306 7.779c73.561-11.753 132.867-66.784 150.897-138.081-12.478 2.234-25.247 2.287-37.736.142-17.597 54.747-65.899 95.855-124.536 102.942 5.113 4.812 8.31 11.637 8.31 19.212 0 2.586-.382 5.08-1.079 7.44z"/><path d="m320.95 463.828-39.803-71.906c-2.738 8.608-9.77 15.301-18.582 17.557l-6.565 11.859 33.237 60.044c3.74 6.756 12.248 9.201 19.004 5.461l7.248-4.012c6.755-3.74 9.2-12.248 5.461-19.003z"/></g><circle cx="256" cy="383.916" fill="#88f8d8" r="26.387"/><path d="m230.791 391.663c-.757-2.45-1.177-5.048-1.177-7.747 0-7.575 3.197-14.4 8.31-19.212-58.637-7.087-106.939-48.196-124.536-102.943-12.489 2.145-25.258 2.092-37.736-.141 18.031 71.296 77.336 126.327 150.896 138.08l4.306-7.779z" fill="#17d9c3"/><path d="m256 410.303c-11.781 0-21.756-7.723-25.146-18.381l-39.803 71.906c-3.74 6.756-1.295 15.264 5.461 19.003l7.248 4.012c6.756 3.74 15.264 1.295 19.004-5.461l39.801-71.903c-2.099.537-4.298.824-6.565.824z" fill="#17d9c3"/><circle cx="304.748" cy="67.766" fill="#f95116" r="10.343"/><g><path d="m277.902 103.143h-43.802c-4.142 0-7.5-3.358-7.5-7.5s3.358-7.5 7.5-7.5h43.802c4.142 0 7.5 3.358 7.5 7.5s-3.358 7.5-7.5 7.5z" fill="#f95116"/></g><circle cx="207.253" cy="67.766" fill="#f95116" r="10.343"/><path d="m438.189 254.348c-4.015-1.016-8.095 1.417-9.11 5.432-8.517 33.679-26.647 64-52.428 87.685-24.624 22.622-54.685 37.743-87.224 43.927l-.268-.484c.475-2.257.729-4.595.729-6.992 0-.003 0-.007 0-.01-.002-4.869-1.043-9.497-2.902-13.685 55.387-11.135 101.271-51.725 118.768-106.164 1.268-3.944-.902-8.168-4.845-9.435s-8.169.901-9.435 4.845c-16.635 51.757-61.629 89.655-115.149 97.352-5.666-4.26-12.705-6.789-20.324-6.789s-14.658 2.529-20.324 6.789c-53.52-7.697-98.513-45.595-115.149-97.353-1.268-3.944-5.493-6.115-9.435-4.845-3.944 1.268-6.113 5.492-4.845 9.435 17.497 54.439 63.381 95.029 118.768 106.164-1.859 4.188-2.9 8.816-2.902 13.685v.01c0 2.396.254 4.734.729 6.991l-.268.485c-32.539-6.184-62.6-21.305-87.224-43.927-25.781-23.685-43.91-54.006-52.428-87.684-1.016-4.016-5.095-6.45-9.11-5.432-4.016 1.016-6.448 5.094-5.432 9.11 9.235 36.518 28.884 69.387 56.822 95.053 25.472 23.4 56.321 39.398 89.757 46.638l-30.47 55.044c-5.749 10.387-1.997 23.447 8.391 29.198l7.249 4.013c10.362 5.734 23.461 1.973 29.198-8.391l26.672-48.187 26.675 48.189c5.737 10.364 18.789 14.153 29.199 8.39l7.248-4.012c10.387-5.749 14.14-18.809 8.391-29.197l-30.47-55.045c33.436-7.24 64.285-23.237 89.757-46.638 27.938-25.666 47.587-58.536 56.822-95.054 1.015-4.017-1.418-8.095-5.433-9.111zm-163.302 129.568v.001c-.001 10.4-8.482 18.885-18.886 18.885-10.516 0-18.885-8.524-18.886-18.885 0 0 0-.001 0-.002 0-10.373 8.474-18.886 18.887-18.886 10.391.001 18.885 8.493 18.885 18.887zm-58.686 93.834c-1.731 3.126-5.681 4.263-8.808 2.532l-7.248-4.013c-3.127-1.731-4.262-5.682-2.532-8.808l33.495-60.509c5.107 5.531 11.917 9.016 18.598 10.272zm98.187-10.29c1.734 3.134.602 7.074-2.531 8.808l-7.248 4.012c-3.133 1.734-7.074.604-8.809-2.531l-31.226-56.411 3.104-5.608c4.886-1.806 9.475-4.81 13.191-8.826z" fill="#007ea8"/><g><path d="m441.415 201.957c-3.304 0-6.331-2.2-7.236-5.543l-16.034-59.248h-324.29l-16.034 59.248c-1.082 3.998-5.2 6.362-9.199 5.281-3.999-1.082-6.363-5.201-5.281-9.199l17.533-64.789c.885-3.27 3.852-5.541 7.24-5.541h335.771c3.388 0 6.355 2.271 7.24 5.541l17.533 64.789c1.082 3.998-1.282 8.117-5.281 9.199-.654.177-1.314.262-1.962.262z" fill="#007ea8"/></g><g><path d="m94.899 270.846c-20.78.001-41.554-5.546-60.088-16.642l-19.252-11.526c-15.14-9.063-20.085-28.753-11.023-43.893l6.752-11.279c9.083-15.174 28.718-20.098 43.893-11.013l19.253 11.527c12.627 7.555 28.309 7.556 40.927 0 37.07-22.187 83.118-22.186 120.175 0 12.623 7.558 28.306 7.558 40.928 0 37.063-22.189 83.112-22.19 120.175 0 12.618 7.556 28.301 7.555 40.93-.001l19.25-11.525c15.172-9.083 34.811-4.167 43.887 11.017l6.757 11.269c9.065 15.145 4.12 34.835-11.02 43.898l-19.252 11.526c-37.069 22.186-83.117 22.186-120.175 0-12.623-7.558-28.305-7.558-40.927 0-37.063 22.19-83.111 22.191-120.175 0-12.619-7.556-28.302-7.555-40.929.001-18.53 11.093-39.311 16.64-60.086 16.641zm108.72-29.512c32.31 19.344 72.453 19.343 104.763 0 17.375-10.403 38.964-10.403 56.339 0 32.306 19.341 72.449 19.34 104.764-.001l19.251-11.526c8.044-4.815 10.671-15.276 5.857-23.318l-6.76-11.273c-4.829-8.078-15.257-10.672-23.311-5.852l-19.252 11.527c-17.382 10.401-38.969 10.4-56.339 0-32.31-19.344-72.454-19.344-104.763 0-17.375 10.403-38.963 10.403-56.339 0-32.305-19.341-72.449-19.34-104.765.001-17.368 10.399-38.955 10.399-56.336 0l-19.254-11.528c-8.06-4.823-18.491-2.215-23.318 5.847l-6.752 11.279c-4.814 8.042-2.187 18.503 5.857 23.318l19.253 11.526c32.31 19.344 72.454 19.344 104.764 0 17.377-10.397 38.964-10.405 56.341 0z" fill="#f95116"/></g></g></svg>