<svg id="Capa_1" enable-background="new 0 0 512 512" height="512" viewBox="0 0 512 512" width="512" xmlns="http://www.w3.org/2000/svg"><g><path d="m421.85 90.42v331.16c0 45.8-37.13 82.92-82.92 82.92h-246.69c-45.8 0-82.92-37.12-82.92-82.92v-331.16c0-45.8 37.12-82.92 82.92-82.92h246.69c45.79 0 82.92 37.12 82.92 82.92z" fill="#7181ff"/><path d="m92.24 194.5c-18.152 0-32.92-14.768-32.92-32.92v-71.16c0-18.152 14.768-32.92 32.92-32.92h246.69c18.152 0 32.92 14.768 32.92 32.92v71.16c0 18.152-14.768 32.92-32.92 32.92z" fill="#ff9bff"/><path d="m502.68 90.42v331.16c0 45.8-37.12 82.92-82.92 82.92h-80.83c45.79 0 82.92-37.12 82.92-82.92v-331.16c0-45.8-37.13-82.92-82.92-82.92h80.83c45.8 0 82.92 37.12 82.92 82.92z" fill="#565eec"/><path d="m67.12 318.464h139.922" fill="#ff9bff"/><g fill="#88f8d8"><path d="m364.05 407.41v17.68c0 14.8-11.99 26.8-26.79 26.8h-14.35v-44.48z"/><path d="m322.91 362.94h41.14v44.47h-41.14z"/><path d="m364.05 345.26v17.68h-41.14v-44.48h14.35c14.8 0 26.79 12 26.79 26.8z"/><path d="m281.77 318.46h41.14v44.48h-41.14z"/><path d="m281.77 318.46v44.48h-41.14v-17.68c0-14.8 12-26.8 26.8-26.8z"/><path d="m240.63 362.94h41.14v44.47h-41.14z"/><path d="m281.77 407.41v44.48h-14.34c-14.8 0-26.8-12-26.8-26.8v-17.68z"/><path d="m281.77 407.41h41.14v44.48h-41.14z"/><path d="m281.77 362.94h41.14v44.47h-41.14z"/></g><circle cx="272.534" cy="240.024" fill="#2115c2" r="12.194"/><g><path d="m240.883 280.389h-51.641c-4.143 0-7.5-3.358-7.5-7.5s3.357-7.5 7.5-7.5h51.641c4.143 0 7.5 3.358 7.5 7.5s-3.357 7.5-7.5 7.5z" fill="#2115c2"/></g><circle cx="157.592" cy="240.024" fill="#2115c2" r="12.194"/><path d="m92.24 194.5c-18.152 0-32.92-14.768-32.92-32.92v-71.16c0-18.152 14.768-32.92 32.92-32.92h246.69c18.152 0 32.92 14.768 32.92 32.92v71.16c0 18.152-14.768 32.92-32.92 32.92z" fill="#a4bcff"/><path d="m419.76 0c-100.109 0-318.007 0-327.52 0-49.857 0-90.42 40.562-90.42 90.42v331.16c0 49.858 40.563 90.42 90.42 90.42h327.52c49.857 0 90.42-40.562 90.42-90.42v-331.16c0-49.858-40.563-90.42-90.42-90.42zm-402.94 421.58v-331.16c0-41.587 33.834-75.42 75.42-75.42h246.69c41.587 0 75.42 33.833 75.42 75.42v331.16c0 41.587-33.833 75.42-75.42 75.42h-246.69c-41.586 0-75.42-33.833-75.42-75.42zm478.36 0c0 41.587-33.833 75.42-75.42 75.42h-31.003c25.227-16.741 40.593-44.904 40.593-75.42v-331.16c0-29.793-14.771-58.284-40.593-75.42h31.003c41.587 0 75.42 33.833 75.42 75.42z" fill="#2115c2"/><g fill="#2115c2"><path d="m338.93 50h-246.69c-22.288 0-40.42 18.132-40.42 40.42v71.16c0 22.288 18.133 40.42 40.421 40.42h246.689c22.288 0 40.42-18.132 40.42-40.42v-71.16c0-22.288-18.132-40.42-40.42-40.42zm25.42 111.58c0 14.017-11.403 25.42-25.42 25.42h-246.69c-14.018 0-25.421-11.403-25.421-25.42v-71.16c.001-14.017 11.404-25.42 25.421-25.42h246.69c14.017 0 25.42 11.403 25.42 25.42z"/><path d="m141.501 88.654c-.025-.069-.053-.137-.081-.206-1.405-3.417-4.698-5.623-8.393-5.623-.004 0-.007 0-.011 0-3.697.004-6.991 2.219-8.391 5.641-.022.056-.045.112-.066.169l-26.11 68.554c-1.475 3.871.469 8.204 4.339 9.678 3.88 1.476 8.207-.476 9.679-4.339l4.663-12.243h31.598l4.612 12.222c1.463 3.875 5.79 5.833 9.665 4.369 3.875-1.462 5.831-5.79 4.368-9.665zm-18.658 46.632 10.158-26.671 10.066 26.671z"/><path d="m320.115 90.086c-.821-4.034-4.266-7.014-8.377-7.246-4.099-.236-7.868 2.341-9.139 6.257-.028.085-.054.172-.079.258l-13.582 47.644-14.078-47.721c-.026-.088-.054-.176-.083-.264-1.311-3.904-5.095-6.439-9.203-6.164-4.109.274-7.523 3.29-8.319 7.421l-12.222 67.713c-.735 4.076 1.973 7.977 6.049 8.713 4.074.735 7.978-1.972 8.713-6.049l7.774-43.075 12.786 43.338c.026.088.054.176.083.263 1.243 3.705 4.694 6.186 8.599 6.186h.047c3.923-.02 7.372-2.541 8.582-6.272.027-.085.054-.171.078-.257l12.345-43.306 8.257 43.2c.777 4.07 4.714 6.734 8.774 5.959 4.068-.777 6.736-4.706 5.958-8.774z"/><path d="m222.206 82.826h-38.4c-4.143 0-7.5 3.358-7.5 7.5s3.357 7.5 7.5 7.5h11.623v62.034c0 4.142 3.357 7.5 7.5 7.5s7.5-3.358 7.5-7.5v-62.034h11.777c4.143 0 7.5-3.358 7.5-7.5s-3.357-7.5-7.5-7.5z"/></g><path d="m83.313 318.464v107.083c0 14.548 11.793 26.341 26.341 26.341h54.853c14.548 0 26.341-11.793 26.341-26.341v-107.083z" fill="#ff9bff"/><path d="m190.849 310.964c-4.143 0-7.5 3.358-7.5 7.5v107.083c0 10.389-8.452 18.841-18.841 18.841h-30.606v-125.924c0-4.142-3.357-7.5-7.5-7.5s-7.5 3.358-7.5 7.5v125.924h-9.247c-10.389 0-18.841-8.452-18.841-18.841v-107.083c0-4.142-3.357-7.5-7.5-7.5s-7.5 3.358-7.5 7.5v107.083c0 18.66 15.181 33.841 33.841 33.841h54.854c18.66 0 33.841-15.181 33.841-33.841v-107.083c-.001-4.142-3.359-7.5-7.501-7.5z" fill="#e207b9"/><g><path d="m207.042 325.964h-139.923c-4.143 0-7.5-3.358-7.5-7.5s3.357-7.5 7.5-7.5h139.923c4.143 0 7.5 3.358 7.5 7.5s-3.357 7.5-7.5 7.5z" fill="#2115c2"/></g><path d="m337.26 310.96c-6.862 0-61.601 0-69.83 0-18.913 0-34.3 15.387-34.3 34.3v79.83c0 18.913 15.387 34.3 34.3 34.3h69.83c18.907 0 34.29-15.387 34.29-34.3 0-13.065 0-50.295 0-79.83 0-18.913-15.383-34.3-34.29-34.3zm-89.13 59.48h26.14v29.47h-26.14zm41.14 0h26.141v29.47h-26.141zm41.14 0h26.14v29.47h-26.14zm26.14-25.18v10.18h-26.14v-29.48h6.85c10.637 0 19.29 8.658 19.29 19.3zm-41.14 10.18h-26.14v-29.48h26.141v29.48zm-67.28-10.18c0-10.642 8.658-19.3 19.3-19.3h6.84v29.48h-26.14zm0 79.83v-10.18h26.14v29.48h-6.84c-10.642 0-19.3-8.658-19.3-19.3zm41.14-10.18h26.141v29.48h-26.141zm67.28 10.18c0 10.642-8.653 19.3-19.29 19.3h-6.85v-29.48h26.14z" fill="#007ea8"/></g></svg>