<svg id="Capa_1" enable-background="new 0 0 512 512" height="512" viewBox="0 0 512 512" width="512" xmlns="http://www.w3.org/2000/svg"><g><path d="m289.28 102.26c-28.654 0-51.91 23.219-51.91 51.91v167.21h-229.87v-145.88c0-40.45 32.79-73.24 73.24-73.24z" fill="#ffff6f"/><path d="m59.413 419.73c-14.689 0-27.943-6.112-37.387-15.918-3.476 7.921-5.419 16.667-5.419 25.871 0 35.598 28.858 64.456 64.456 64.456s64.456-28.858 64.456-64.456c0-3.385-.264-6.709-.767-9.953z" fill="#7181ff"/><g><path d="m81.063 501.64c-39.677 0-71.956-32.28-71.956-71.957 0-10.019 2.036-19.737 6.052-28.885 1.664-3.793 6.088-5.518 9.882-3.854 3.793 1.665 5.518 6.089 3.853 9.882-3.176 7.236-4.786 14.927-4.786 22.857 0 31.406 25.551 56.957 56.956 56.957s56.956-25.551 56.956-56.957c0-2.935-.229-5.897-.679-8.804-.635-4.093 2.169-7.926 6.263-8.561 4.085-.633 7.925 2.169 8.56 6.263.568 3.665.856 7.4.856 11.102 0 39.677-32.28 71.957-71.957 71.957z" fill="#2115c2"/></g><path d="m330.84 102.26h-177.77l11.27-44.73c5.88-23.33 26.86-39.67 50.91-39.67h53.42c24.05 0 45.03 16.34 50.9 39.67z" fill="#a4bcff"/><path d="m384.52 102.26h-53.68l-11.27-44.73c-5.87-23.33-26.85-39.67-50.9-39.67h53.68c24.05 0 45.03 16.34 50.9 39.67z" fill="#7181ff"/><path d="m391.793 100.427-11.27-44.727c-6.717-26.695-30.639-45.34-58.173-45.34-13.074 0-94.097 0-107.101 0-27.528 0-51.454 18.643-58.183 45.337l-11.27 44.73c-1.013 4.017 1.424 8.093 5.44 9.105 4.012 1.01 8.093-1.423 9.104-5.44l11.27-44.729c5.047-20.021 22.991-34.003 43.638-34.003h53.42c20.65 0 38.59 13.981 43.628 34.002l11.27 44.73c.856 3.401 3.912 5.669 7.267 5.669.606 0 1.224-.074 1.838-.229 4.017-1.012 6.453-5.089 5.44-9.105l-11.267-44.727c-2.898-11.521-9.266-22.224-18.459-30.34h13.966c20.649 0 38.589 13.981 43.627 34.002l11.271 44.73c1.012 4.017 5.092 6.454 9.104 5.44 4.016-1.011 6.453-5.088 5.44-9.105z" fill="#2115c2"/><path d="m504.5 154.17v70.88h-267.13v-70.88c0-28.642 23.221-51.91 51.91-51.91h163.31c28.66 0 51.91 23.25 51.91 51.91z" fill="#ffd600"/><path d="m237.367 367.226v-45.845h-229.867v46.437c0 28.669 23.243 51.912 51.912 51.912h130.239c3.967-25.587 22.981-46.197 47.716-52.504z" fill="#ffff6f"/><circle cx="66.54" cy="370.556" fill="#88f8d8" r="20.053"/><circle cx="156.555" cy="370.556" fill="#88f8d8" r="20.053"/><g><path d="m66.54 398.109c-15.192 0-27.553-12.36-27.553-27.553s12.36-27.553 27.553-27.553 27.554 12.36 27.554 27.553-12.361 27.553-27.554 27.553zm0-40.107c-6.922 0-12.553 5.631-12.553 12.553s5.631 12.553 12.553 12.553 12.554-5.631 12.554-12.553-5.632-12.553-12.554-12.553z" fill="#007ea8"/></g><g><path d="m156.555 398.109c-15.192 0-27.553-12.36-27.553-27.553s12.36-27.553 27.553-27.553 27.554 12.36 27.554 27.553-12.361 27.553-27.554 27.553zm0-40.107c-6.922 0-12.553 5.631-12.553 12.553s5.631 12.553 12.553 12.553 12.554-5.631 12.554-12.553-5.632-12.553-12.554-12.553z" fill="#007ea8"/></g><path d="m237.367 321.381v45.845c5.108-1.303 10.459-1.998 15.973-1.998 32.213 0 58.903 23.631 63.689 54.503h48.111c4.786-30.872 31.476-54.503 63.689-54.503 26.961 0 50.044 16.56 59.663 40.058 9.856-9.449 16.003-22.737 16.003-37.468v-46.437z" fill="#ffd600"/><circle cx="418.492" cy="160.455" fill="#2115c2" r="10.091"/><g><path d="m392.301 195.152h-42.734c-4.143 0-7.5-3.358-7.5-7.5s3.357-7.5 7.5-7.5h42.734c4.143 0 7.5 3.358 7.5 7.5s-3.358 7.5-7.5 7.5z" fill="#2115c2"/></g><circle cx="323.374" cy="160.455" fill="#2115c2" r="10.091"/><path d="m167.237 141.72h-67.43c-29.186 0-52.845 23.66-52.845 52.845v43.194c0 17.404 14.109 31.513 31.513 31.513h88.762c17.404 0 31.513-14.109 31.513-31.513v-64.526c0-17.404-14.109-31.513-31.513-31.513z" fill="#88f8d8"/><g fill="#f95116"><path d="m452.59 94.76c-13.866 0-352.589 0-371.85 0-44.52 0-80.74 36.219-80.74 80.74v192.318c0 32.76 26.652 59.412 59.413 59.412h130.238c4.143 0 7.5-3.358 7.5-7.5s-3.357-7.5-7.5-7.5h-130.238c-24.489 0-44.413-19.923-44.413-44.412v-38.938h214.867v38.345c0 4.142 3.357 7.5 7.5 7.5s7.5-3.358 7.5-7.5v-45.788c0-.02.003-.039.003-.058 0-4.142-3.357-7.5-7.5-7.5h-222.37v-138.379c0-36.25 29.491-65.74 65.74-65.74h169.118c-12.546 11.148-19.988 27.284-19.988 44.41v70.88c0 4.142 3.357 7.5 7.5 7.5s7.5-3.358 7.5-7.5v-70.88c0-24.488 19.922-44.41 44.41-44.41h163.31c24.488 0 44.41 19.922 44.41 44.41v70.88c0 4.142 3.357 7.5 7.5 7.5s7.5-3.358 7.5-7.5v-70.88c0-32.759-26.651-59.41-59.41-59.41z"/><path d="m504.496 313.881c-4.143 0-7.5 3.358-7.5 7.5v46.438c0 12.204-4.863 23.587-13.693 32.053-2.99 2.867-3.09 7.614-.224 10.604 1.474 1.537 3.442 2.31 5.415 2.31 1.866 0 3.736-.692 5.189-2.086 11.809-11.322 18.313-26.551 18.313-42.881v-46.438c0-4.142-3.357-7.5-7.5-7.5z"/><path d="m365.141 412.23h-48.111c-4.143 0-7.5 3.358-7.5 7.5s3.357 7.5 7.5 7.5h48.111c4.143 0 7.5-3.358 7.5-7.5s-3.358-7.5-7.5-7.5z"/></g><path d="m237.37 225.05h44.52v48.16h-44.52z" fill="#7181ff"/><path d="m281.89 225.05h44.52v48.16h-44.52z" fill="#a4bcff"/><path d="m326.41 225.05h44.52v48.16h-44.52z" fill="#7181ff"/><path d="m370.93 225.05h44.53v48.16h-44.53z" fill="#a4bcff"/><path d="m415.46 225.05h44.52v48.16h-44.52z" fill="#7181ff"/><path d="m459.98 225.05h44.52v48.16h-44.52z" fill="#a4bcff"/><path d="m237.37 273.212h44.52v48.16h-44.52z" fill="#a4bcff"/><path d="m281.89 273.212h44.52v48.16h-44.52z" fill="#7181ff"/><path d="m326.41 273.212h44.52v48.16h-44.52z" fill="#a4bcff"/><path d="m370.93 273.212h44.53v48.16h-44.53z" fill="#7181ff"/><path d="m415.46 273.212h44.52v48.16h-44.52z" fill="#a4bcff"/><g fill="#7181ff"><path d="m459.98 273.212h44.52v48.16h-44.52z"/><path d="m253.34 365.228c-35.598 0-64.456 28.858-64.456 64.456s28.858 64.456 64.456 64.456 64.456-28.858 64.456-64.456-28.858-64.456-64.456-64.456zm0 88.17c-13.097 0-23.714-10.617-23.714-23.714s10.617-23.714 23.714-23.714 23.714 10.617 23.714 23.714-10.617 23.714-23.714 23.714z"/><path d="m428.829 365.228c-35.598 0-64.456 28.858-64.456 64.456s28.858 64.456 64.456 64.456 64.456-28.858 64.456-64.456-28.858-64.456-64.456-64.456zm0 88.17c-13.097 0-23.714-10.617-23.714-23.714s10.617-23.714 23.714-23.714 23.714 10.617 23.714 23.714c.001 13.097-10.617 23.714-23.714 23.714z"/></g><g><path d="m167.237 276.771h-88.762c-21.512 0-39.013-17.501-39.013-39.013v-43.193c0-33.274 27.071-60.345 60.346-60.345h67.43c21.512 0 39.013 17.501 39.013 39.013v64.526c-.001 21.512-17.502 39.012-39.014 39.012zm-67.429-127.551c-25.004 0-45.346 20.342-45.346 45.345v43.193c0 13.241 10.772 24.013 24.013 24.013h88.763c13.24 0 24.013-10.772 24.013-24.013v-64.526c0-13.241-10.772-24.013-24.013-24.013h-67.43z" fill="#007ea8"/></g><g><path d="m253.341 501.64c-39.677 0-71.956-32.279-71.956-71.956s32.279-71.957 71.956-71.957 71.956 32.28 71.956 71.957-32.279 71.956-71.956 71.956zm0-128.912c-31.405 0-56.956 25.551-56.956 56.957s25.551 56.956 56.956 56.956 56.956-25.55 56.956-56.956-25.551-56.957-56.956-56.957z" fill="#2115c2"/></g><g><path d="m428.829 501.64c-39.677 0-71.956-32.279-71.956-71.956s32.279-71.957 71.956-71.957 71.957 32.28 71.957 71.957-32.28 71.956-71.957 71.956zm0-128.912c-31.405 0-56.956 25.551-56.956 56.957s25.551 56.956 56.956 56.956c31.406 0 56.957-25.55 56.957-56.956s-25.551-56.957-56.957-56.957z" fill="#2115c2"/></g><path d="m512 225.05c0-4.142-3.357-7.5-7.5-7.5-59.83 0-215.88 0-267.13 0-4.143 0-7.5 3.358-7.5 7.5v48.16.001s0 .001 0 .001v48.16c0 4.142 3.357 7.5 7.5 7.5h267.13c4.143 0 7.5-3.358 7.5-7.5v-48.16-.001s0-.001 0-.001zm-15 40.66h-29.52v-33.16h29.52zm-44.52 0h-29.52v-33.16h29.521v33.16zm-44.52 0h-29.529v-33.16h29.529zm-44.529 0h-29.521v-33.16h29.521zm-44.521 0h-29.52v-33.16h29.52zm-74.04-33.16h29.521v33.16h-29.521zm0 48.162h29.521v33.16h-29.521zm44.521 0h29.52v33.16h-29.52zm44.519 0h29.521v33.16h-29.521zm44.521 0h29.529v33.16h-29.529zm44.529 0h29.521v33.16h-29.521zm74.04 33.16h-29.52v-33.16h29.52z" fill="#2115c2"/><path d="m253.34 453.398c-13.097 0-23.714-10.617-23.714-23.714s10.617-23.714 23.714-23.714 23.714 10.617 23.714 23.714-10.617 23.714-23.714 23.714z" fill="#a4bcff"/><g><path d="m253.341 460.898c-17.212 0-31.215-14.002-31.215-31.214s14.003-31.214 31.215-31.214c17.211 0 31.214 14.003 31.214 31.214s-14.003 31.214-31.214 31.214zm0-47.428c-8.94 0-16.215 7.274-16.215 16.214s7.274 16.214 16.215 16.214 16.214-7.273 16.214-16.214-7.274-16.214-16.214-16.214z" fill="#2115c2"/></g><path d="m428.829 453.398c-13.097 0-23.714-10.617-23.714-23.714s10.617-23.714 23.714-23.714 23.714 10.617 23.714 23.714c.001 13.097-10.617 23.714-23.714 23.714z" fill="#a4bcff"/><g><path d="m428.829 460.898c-17.211 0-31.214-14.002-31.214-31.214s14.003-31.214 31.214-31.214c17.212 0 31.215 14.003 31.215 31.214s-14.003 31.214-31.215 31.214zm0-47.428c-8.94 0-16.214 7.274-16.214 16.214s7.273 16.214 16.214 16.214 16.215-7.273 16.215-16.214-7.274-16.214-16.215-16.214z" fill="#2115c2"/></g></g></svg>