<svg id="Capa_1" enable-background="new 0 0 512 512" height="512" viewBox="0 0 512 512" width="512" xmlns="http://www.w3.org/2000/svg"><g><path d="m504.5 256-6.939-11.072c-18.555-29.605-28.009-64.006-27.19-98.935l.307-13.067-10.88-5.611c-31.531-16.262-57.497-41.554-74.582-72.646l-5.892-10.722-11.854.51c-35.678 1.534-70.995-7.673-101.382-26.431l-10.088-6.227-10.086 6.226c-30.388 18.758-65.705 27.966-101.383 26.431l-11.854-.51-5.892 10.722c-17.085 31.092-43.052 56.385-74.582 72.646l-10.88 5.611.307 13.067c.819 34.929-8.635 69.33-27.19 98.934l-6.94 11.074 6.939 11.072c18.555 29.605 28.009 64.006 27.19 98.935l-.307 13.067 10.88 5.611c31.531 16.262 57.497 41.554 74.582 72.646l5.892 10.722 11.854-.51c35.678-1.534 70.995 7.673 101.382 26.431l10.088 6.227 10.086-6.226c30.387-18.758 65.705-27.966 101.383-26.431l11.854.51 5.892-10.722c17.085-31.092 43.052-56.385 74.582-72.646l10.88-5.611-.307-13.067c-.819-34.929 8.635-69.33 27.19-98.934z" fill="#f90"/><path d="m388.946 144c-4.374 24.912-26.103 43.848-52.268 43.848-29.319 0-53.086-23.767-53.086-53.086 0-18.023 8.99-33.938 22.722-43.534-15.938-4.683-32.824-7.211-50.314-7.211s-34.376 2.528-50.314 7.211c13.732 9.596 22.722 25.511 22.722 43.534 0 29.319-23.768 53.086-53.086 53.086-26.166 0-47.894-18.936-52.268-43.848-26.331 30.092-42.248 69.22-42.248 112 0 94.984 78.437 171.984 175.194 171.984s175.194-77 175.194-171.984c0-42.781-15.917-81.908-42.248-112z" fill="#ffff6f"/><g><path d="m252.061 506.583-10.088-6.227c-53.558-33.064-102.506-24.261-108.975-24.811-2.848.118-5.521-1.382-6.896-3.881l-5.892-10.722c-30.179-54.922-76.913-71.482-82.326-75.204-2.552-1.315-4.128-3.972-4.061-6.841l.307-13.066c1.457-62.112-29.948-99.347-32.985-105.848-1.527-2.436-1.527-5.53-.001-7.966l6.939-11.072c32.994-52.643 25.029-100.703 25.74-107.843-.067-2.87 1.51-5.526 4.061-6.842l10.881-5.611c55.696-28.725 73.475-75 77.338-80.314 1.373-2.499 4.055-3.999 6.896-3.881l11.854.51c62.865 2.711 101.296-28.868 107.208-31.546 2.414-1.49 5.465-1.491 7.879 0 5.661 2.565 44.515 34.243 107.207 31.546l11.854-.51c2.868-.106 5.522 1.382 6.896 3.881 3.811 5.242 21.788 51.665 77.338 80.314l10.88 5.611c2.552 1.315 4.128 3.972 4.061 6.841.68 6.822-7.141 55.382 25.74 107.843l6.94 11.072c1.526 2.436 1.526 5.53-.001 7.966-2.9 6.207-34.438 43.949-32.986 105.847l.307 13.067c.067 2.869-1.509 5.526-4.061 6.841-5.226 3.593-52.216 20.407-82.327 75.204l-5.892 10.722c-1.373 2.5-4.028 4.004-6.896 3.881l-11.854-.51c-62.869-2.702-101.352 28.895-107.207 31.546-2.41 1.491-5.457 1.496-7.878.003zm-2.209-18.991 6.148 3.794c3.689-1.632 46.085-34.157 111.791-31.337l7.201.31 3.648-6.64c31.416-57.172 81.208-76.904 84.428-79.16.492-4.526-6.284-56.551 28.136-111.47l4.444-7.09c-1.934-4.236-34.3-45.222-32.776-110.182l.196-8.376c-3.425-2.4-52.905-21.796-84.427-79.16l-3.648-6.64c-4.016-.377-56.883 7.314-112.846-27.233l-6.147-3.795c-3.688 1.632-46.093 34.165-111.792 31.336l-7.201-.31c-2.476 3.343-23.194 52.338-81.366 82.34l-6.71 3.46c-.492 4.526 6.285 56.55-28.137 111.47l-4.442 7.091c1.94 4.249 34.299 45.223 32.775 110.183l-.196 8.376c3.425 2.4 52.905 21.798 84.427 79.161l3.648 6.64c4.237.387 56.782-7.377 112.846 27.232z" fill="#f95116"/></g><g><path d="m256 435.484c-100.738 0-182.694-80.516-182.694-179.483 0-42.906 15.663-84.436 44.103-116.939 1.901-2.172 4.881-3.062 7.663-2.284 2.781.777 4.869 3.082 5.368 5.926 3.83 21.813 22.706 37.645 44.882 37.645 25.136 0 45.586-20.45 45.586-45.586 0-14.87-7.296-28.846-19.518-37.386-2.363-1.652-3.571-4.512-3.105-7.358.465-2.846 2.521-5.173 5.287-5.986 16.971-4.987 34.61-7.515 52.429-7.515s35.457 2.528 52.428 7.515c2.767.813 4.822 3.14 5.287 5.985.466 2.846-.741 5.706-3.105 7.358-12.221 8.541-19.518 22.518-19.518 37.387 0 25.136 20.45 45.586 45.586 45.586 22.176 0 41.052-15.832 44.882-37.645.499-2.844 2.587-5.149 5.368-5.926 2.781-.778 5.762.111 7.663 2.284 28.44 32.503 44.104 74.033 44.104 116.939-.002 98.966-81.958 179.483-182.696 179.483zm-135.93-275.811c-20.568 27.914-31.764 61.634-31.764 96.327 0 90.696 75.228 164.483 167.694 164.483s167.694-73.787 167.694-164.483c0-34.694-11.197-68.415-31.766-96.328-9.57 21.326-30.916 35.675-55.251 35.675-33.407 0-60.586-27.179-60.586-60.586 0-14.712 5.371-28.765 14.813-39.667-22.871-4.754-46.937-4.754-69.81 0 9.441 10.902 14.813 24.955 14.813 39.667 0 33.407-27.179 60.586-60.586 60.586-24.335.001-45.68-14.349-55.251-35.674z" fill="#f95116"/></g><circle cx="336.678" cy="134.762" fill="#b98eff" r="53.086"/><circle cx="175.322" cy="134.762" fill="#b98eff" r="53.086"/><circle cx="175.322" cy="134.762" fill="#ddbeff" r="21.478"/><circle cx="336.678" cy="134.762" fill="#ddbeff" r="21.478"/><path d="m287.343 154.36c-2.412-6.065-3.752-12.673-3.752-19.598s1.34-13.533 3.752-19.598h-62.687c2.412 6.065 3.752 12.673 3.752 19.598s-1.34 13.533-3.752 19.598z" fill="#9448f5"/><g fill="#6d00ca"><path d="m175.321 105.783c-15.979 0-28.978 13-28.978 28.978s12.999 28.978 28.978 28.978 28.979-13 28.979-28.978-13-28.978-28.979-28.978zm0 42.956c-7.707 0-13.978-6.271-13.978-13.978s6.271-13.978 13.978-13.978c7.708 0 13.979 6.271 13.979 13.978s-6.271 13.978-13.979 13.978z"/><path d="m336.678 105.783c-15.979 0-28.978 13-28.978 28.978s12.999 28.978 28.978 28.978 28.979-13 28.979-28.978-13.001-28.978-28.979-28.978zm0 42.956c-7.707 0-13.978-6.271-13.978-13.978s6.271-13.978 13.978-13.978c7.708 0 13.979 6.271 13.979 13.978s-6.271 13.978-13.979 13.978z"/><path d="m336.678 74.175c-23.67 0-44.2 13.652-54.164 33.488h-53.028c-9.965-19.836-30.494-33.488-54.164-33.488-33.407 0-60.586 27.179-60.586 60.586s27.179 60.586 60.586 60.586c23.67 0 44.199-13.652 54.164-33.488h53.028c9.965 19.836 30.494 33.488 54.164 33.488 33.407 0 60.586-27.179 60.586-60.586s-27.179-60.586-60.586-60.586zm-161.357 106.173c-25.136 0-45.586-20.45-45.586-45.586s20.45-45.586 45.586-45.586c25.16 0 45.586 20.506 45.586 45.586 0 25.073-20.415 45.586-45.586 45.586zm101.986-33.488h-42.614c.707-3.47 1.215-7.826 1.215-12.098 0-3.953-.426-8.224-1.215-12.098h42.614c-.789 3.871-1.215 8.141-1.215 12.098 0 3.9.418 8.189 1.215 12.098zm59.371 33.488c-25.563 0-45.586-20.923-45.586-45.586 0-24.941 20.29-45.586 45.586-45.586 25.136 0 45.586 20.45 45.586 45.586s-20.45 45.586-45.586 45.586z"/></g><circle cx="312.752" cy="241.807" fill="#f95116" r="12.041"/><g><path d="m281.497 281.761h-50.995c-4.143 0-7.5-3.358-7.5-7.5s3.357-7.5 7.5-7.5h50.995c4.143 0 7.5 3.358 7.5 7.5s-3.357 7.5-7.5 7.5z" fill="#f95116"/></g><circle cx="199.248" cy="241.807" fill="#f95116" r="12.041"/></g></svg>