<svg id="Capa_1" enable-background="new 0 0 512 512" height="512" viewBox="0 0 512 512" width="512" xmlns="http://www.w3.org/2000/svg"><g><path d="m196.185 185.889c-28.208-35.323-81.906-35.323-110.122 0l-78.563 98.357v62.662c14.835 2.768 30.26 1.334 44.48-4.314 9.543-3.791 19.632-5.682 29.721-5.682 10.08 0 20.169 1.891 29.712 5.682s19.632 5.691 29.712 5.691c10.089 0 20.177-1.9 29.721-5.691 9.543-3.791 19.623-5.682 29.712-5.682s20.169 1.891 29.712 5.682 19.632 5.691 29.721 5.691c10.08 0 20.169-1.9 29.712-5.691l24.039-9.535z" fill="#ffceff"/><path d="m420.538 45.077c-20.553-29.313-63.978-29.313-84.532 0l-27.723 39.538c34.767 5.308 61.401 35.338 61.401 71.588 0 4.136-.365 8.185-1.031 12.132 6.847-3.193 14.478-4.987 22.531-4.987 29.484 0 53.385 23.901 53.385 53.385s-23.901 53.385-53.385 53.385h-127.718l50.274 62.939 133.933 167.672h56.827v-335.905z" fill="#b98eff"/><g><path d="m504.5 508.231h-56.828c-4.142 0-7.5-3.358-7.5-7.5s3.358-7.5 7.5-7.5h49.328v-326.04l-82.603-117.808c-8.373-11.941-21.54-18.791-36.125-18.791s-27.752 6.849-36.125 18.791l-27.722 39.539c-2.378 3.392-7.056 4.213-10.447 1.835-3.392-2.378-4.213-7.055-1.835-10.447l27.723-39.539c11.22-16.001 28.865-25.179 48.407-25.179 19.543 0 37.187 9.178 48.406 25.179l83.962 119.747c.885 1.262 1.359 2.765 1.359 4.306v335.908c0 4.141-3.358 7.499-7.5 7.499z" fill="#6d00ca"/></g><path d="m447.672 500.731-133.932-167.672-24.039 9.535c-9.543 3.791-19.632 5.691-29.712 5.691-10.089 0-20.177-1.9-29.721-5.691-9.543-3.791-19.623-5.682-29.712-5.682s-20.169 1.891-29.712 5.682-19.632 5.691-29.721 5.691c-10.08 0-20.169-1.9-29.712-5.691s-19.632-5.682-29.712-5.682c-10.089 0-20.177 1.891-29.721 5.682-14.22 5.649-29.645 7.082-44.48 4.314v153.823z" fill="#ff63ed"/><path d="m391.183 163.349c-8.053 0-15.684 1.794-22.531 4.987.666-3.947 1.031-7.996 1.031-12.132 0-39.997-32.424-72.421-72.421-72.421-11.083 0-21.579 2.498-30.97 6.948-3.885-44.528-41.256-79.462-86.792-79.462-39.686 0-73.17 26.534-83.692 62.827-1.668-.115-3.346-.194-5.043-.194-39.997 0-72.421 32.424-72.421 72.421 0 30.515 18.883 56.603 45.593 67.267l22.126-27.7c28.217-35.323 81.914-35.323 110.122 0l67.28 84.23h127.718c29.484 0 53.385-23.901 53.385-53.385.001-29.485-23.901-53.386-53.385-53.386z" fill="#a4bcff"/><circle cx="190.232" cy="261.095" fill="#e207b9" r="10.42"/><circle cx="92.016" cy="261.095" fill="#e207b9" r="10.42"/><g><path d="m391.184 277.619h-127.719c-4.142 0-7.5-3.358-7.5-7.5s3.358-7.5 7.5-7.5h127.718c25.301 0 45.885-20.584 45.885-45.885s-20.584-45.885-45.885-45.885c-6.751 0-13.265 1.441-19.361 4.284-2.525 1.178-5.497.858-7.713-.83-2.217-1.688-3.316-4.467-2.852-7.215.615-3.644.927-7.306.927-10.884 0-47.624-49.835-78.998-92.679-58.696-4.715 2.236-10.23-.922-10.684-6.125-1.724-19.757-10.74-38.07-25.387-51.565-14.732-13.573-33.886-21.048-53.934-21.048-35.235 0-66.688 23.61-76.488 57.415-.983 3.39-4.193 5.63-7.718 5.394-37.956-2.612-69.45 27.556-69.45 64.745 0 26.719 16.044 50.389 40.874 60.302 3.847 1.536 5.721 5.899 4.185 9.746-1.536 3.846-5.9 5.721-9.746 4.185-30.563-12.202-50.312-41.34-50.312-74.232 0-43.956 35.669-79.737 79.583-79.921 6.144-17.036 17.262-32.25 31.743-43.293 16.591-12.652 36.415-19.339 57.331-19.339 23.824 0 46.587 8.884 64.097 25.017 14.945 13.769 24.956 31.764 28.784 51.448 7.989-2.625 16.321-3.952 24.88-3.952 44.069 0 79.921 35.853 79.921 79.921 0 .421-.003.843-.01 1.266 4.558-1.078 9.239-1.621 14.01-1.621 33.572 0 60.885 27.313 60.885 60.885s-27.313 60.883-60.885 60.883z" fill="#2115c2"/></g><g fill="#e207b9"><path d="m119.061 296.677h44.126c4.142 0 7.5-3.358 7.5-7.5s-3.358-7.5-7.5-7.5h-44.126c-4.142 0-7.5 3.358-7.5 7.5s3.358 7.5 7.5 7.5z"/><path d="m453.532 496.051c-6.782-8.49-249.686-312.587-251.487-314.842h.001c-14.875-18.626-37.077-29.311-60.913-29.313-.003 0-.003 0-.006 0-23.837 0-46.044 10.685-60.924 29.312l-78.563 98.357c-1.062 1.329-1.64 2.98-1.64 4.681v216.485c0 4.142 3.358 7.5 7.5 7.5h440.172c2.882 0 5.509-1.651 6.759-4.249 1.249-2.597.9-5.68-.899-7.931zm-438.532-209.178 76.923-96.303c12.019-15.045 29.952-23.674 49.205-23.674h.005c19.25.002 37.18 8.63 49.192 23.673h.001l111.231 139.253-14.625 5.8c-16.879 6.706-36.12 7.061-53.895 0-20.49-8.138-43.736-8.43-64.961 0-17.825 7.081-37.053 6.69-53.895 0-20.278-8.054-43.532-8.515-64.97 0-10.603 4.214-22.251 5.981-34.21 4.779v-53.528zm0 206.358v-137.756c13.415 1.126 27.171-.915 39.748-5.912 16.853-6.693 36.15-7.048 53.895 0 20.346 8.082 43.545 8.511 64.97 0 16.818-6.68 36.105-7.063 53.886 0 20.425 8.114 43.628 8.479 64.966.001l18.878-7.487 120.738 151.154z"/></g></g></svg>