<svg id="Capa_1" enable-background="new 0 0 512 512" height="512" viewBox="0 0 512 512" width="512" xmlns="http://www.w3.org/2000/svg"><g><path d="m170.91 321.593h170.179c7.133 0 13.721 2.327 19.054 6.257l35.39-253.242h-279.066l35.39 253.242c5.332-3.931 11.92-6.257 19.053-6.257z" fill="#a4bcff"/><circle cx="256" cy="193.822" fill="#ffd600" r="59.46"/><g><path d="m337.516 407.896v73.304c0 12.868-10.432 23.299-23.299 23.299h-38.892c-12.868 0-23.299-10.432-23.299-23.299 0-12.868 10.432-23.299 23.299-23.299h15.593v-50.005z" fill="#7181ff"/></g><g><path d="m229.079 407.896v73.304c0 12.868-10.432 23.299-23.299 23.299h-38.892c-12.868 0-23.299-10.432-23.299-23.299 0-12.868 10.432-23.299 23.299-23.299h15.593v-50.005z" fill="#7181ff"/></g><path d="m341.089 321.593h-170.179c-17.756 0-32.151 14.394-32.151 32.151v22.002c0 17.756 14.394 32.151 32.151 32.151h170.179c17.756 0 32.151-14.394 32.151-32.151v-22.002c0-17.757-14.395-32.151-32.151-32.151z" fill="#ffd600"/><circle cx="305.052" cy="352.947" fill="#f95116" r="10.408"/><circle cx="206.947" cy="352.947" fill="#f95116" r="10.408"/><g><g><path d="m314.216 512h-38.892c-16.983 0-30.799-13.816-30.799-30.799s13.816-30.799 30.799-30.799h8.092v-42.505c0-4.142 3.358-7.5 7.5-7.5s7.5 3.358 7.5 7.5v50.005c0 4.142-3.358 7.5-7.5 7.5h-15.592c-8.712 0-15.799 7.087-15.799 15.799s7.088 15.799 15.8 15.799h38.892c8.712 0 15.799-7.087 15.799-15.799v-73.304c0-4.142 3.358-7.5 7.5-7.5s7.5 3.358 7.5 7.5v73.304c0 16.983-13.817 30.799-30.8 30.799z" fill="#2115c2"/></g></g><g><g><path d="m205.779 512h-38.892c-16.983 0-30.799-13.816-30.799-30.799s13.816-30.799 30.799-30.799h8.093v-42.505c0-4.142 3.358-7.5 7.5-7.5s7.5 3.358 7.5 7.5v50.005c0 4.142-3.358 7.5-7.5 7.5h-15.593c-8.712 0-15.799 7.087-15.799 15.799s7.087 15.799 15.799 15.799h38.892c8.712 0 15.799-7.087 15.799-15.799v-73.304c0-4.142 3.358-7.5 7.5-7.5s7.5 3.358 7.5 7.5v73.304c.001 16.983-13.816 30.799-30.799 30.799z" fill="#2115c2"/></g></g><path d="m182.48 407.896h46.599v31.135h-46.599z" fill="#2115c2"/><path d="m290.917 407.896h46.599v31.135h-46.599z" fill="#2115c2"/><g><path d="m360.152 335.351c-.346 0-.695-.024-1.047-.073-4.102-.573-6.963-4.363-6.39-8.466l35.39-253.241c.573-4.102 4.357-6.963 8.466-6.39 4.102.573 6.963 4.363 6.39 8.466l-35.39 253.241c-.525 3.75-3.737 6.463-7.419 6.463z" fill="#2115c2"/></g><g><path d="m151.848 335.351c-3.682 0-6.895-2.713-7.418-6.463l-35.39-253.241c-.573-4.103 2.288-7.893 6.39-8.466 4.106-.574 7.893 2.288 8.466 6.39l35.39 253.241c.573 4.103-2.288 7.893-6.39 8.466-.353.049-.703.073-1.048.073z" fill="#2115c2"/></g><path d="m398.081 56.378-2.549 18.23h-279.065l-2.549-18.23c-3.611-25.828 16.445-48.878 42.52-48.878h199.123c26.076 0 46.131 23.05 42.52 48.878z" fill="#ffd600"/><g fill="#f95116"><path d="m278.038 373.498h-44.076c-4.142 0-7.5 3.358-7.5 7.5s3.358 7.5 7.5 7.5h44.076c4.142 0 7.5-3.358 7.5-7.5s-3.358-7.5-7.5-7.5z"/><path d="m175.11 186.322c-4.142 0-7.5 3.358-7.5 7.5s3.358 7.5 7.5 7.5h14.361c1.439 12.85 6.53 24.605 14.208 34.215l-10.18 10.18c-2.929 2.929-2.929 7.678 0 10.606 2.929 2.929 7.678 2.929 10.606 0l10.18-10.18c9.61 7.677 21.365 12.768 34.215 14.208v14.361c0 4.142 3.358 7.5 7.5 7.5s7.5-3.358 7.5-7.5v-14.361c12.85-1.439 24.605-6.53 34.215-14.208l10.18 10.18c2.929 2.929 7.678 2.929 10.606 0 2.929-2.929 2.929-7.678 0-10.606l-10.18-10.18c7.677-9.61 12.768-21.365 14.208-34.215h14.361c4.142 0 7.5-3.358 7.5-7.5s-3.358-7.5-7.5-7.5h-14.361c-1.439-12.85-6.53-24.605-14.208-34.215l10.18-10.18c2.929-2.929 2.929-7.678 0-10.606-2.929-2.929-7.678-2.929-10.606 0l-10.18 10.18c-9.61-7.677-21.365-12.768-34.215-14.208v-14.361c0-4.142-3.358-7.5-7.5-7.5s-7.5 3.358-7.5 7.5v14.361c-12.85 1.439-24.605 6.53-34.215 14.208l-10.18-10.18c-2.929-2.929-7.678-2.929-10.606 0-2.929 2.929-2.929 7.678 0 10.606l10.18 10.18c-7.677 9.61-12.768 21.365-14.208 34.215zm80.89-44.46c28.651 0 51.96 23.309 51.96 51.96s-23.309 51.96-51.96 51.96-51.96-23.309-51.96-51.96 23.309-51.96 51.96-51.96z"/><path d="m341.089 314.093h-170.179c-21.863 0-39.65 17.787-39.65 39.65v22.002c0 21.864 17.787 39.651 39.65 39.651h170.179c21.864 0 39.651-17.787 39.651-39.651v-22.002c0-21.863-17.787-39.65-39.651-39.65zm24.651 61.653c0 13.592-11.058 24.651-24.651 24.651h-170.179c-13.592 0-24.65-11.059-24.65-24.651v-22.002c0-13.592 11.058-24.65 24.65-24.65h170.179c13.593 0 24.651 11.058 24.651 24.65z"/><path d="m355.561 0h-199.123c-30.635 0-54.184 27.111-49.948 57.417l2.549 18.23c.518 3.705 3.687 6.461 7.428 6.461h279.065c3.741 0 6.91-2.756 7.428-6.461l2.549-18.23c4.242-30.341-19.347-57.417-49.948-57.417zm35.093 55.339-1.646 11.769h-266.017l-1.646-11.769c-2.978-21.315 13.593-40.339 35.093-40.339h199.123c21.521 0 38.069 19.043 35.093 40.339z"/></g></g></svg>