<svg id="Capa_1" enable-background="new 0 0 512 512" height="512" viewBox="0 0 512 512" width="512" xmlns="http://www.w3.org/2000/svg"><g><path d="m471.749 434.349-8.704 23.473c-6.013 16.18-28.907 16.18-34.909 0l-8.704-23.473z" fill="#9448f5"/><g><path d="m445.586 477.457c-.003 0-.005 0-.008 0-11.031-.003-20.639-6.687-24.475-17.026l-8.705-23.474c-1.44-3.883.541-8.199 4.425-9.64 3.882-1.438 8.2.54 9.64 4.425l8.704 23.473c2.492 6.718 8.603 7.242 10.416 7.243h.002c1.818 0 7.93-.524 10.429-7.248l8.703-23.468c1.441-3.883 5.759-5.865 9.64-4.424 3.884 1.44 5.865 5.756 4.425 9.64l-8.705 23.473c-3.846 10.344-13.458 17.026-24.491 17.026z" fill="#6d00ca"/></g><g><path d="m138.166 395.417v85.224c0 13.177-10.682 23.859-23.859 23.859h-39.827c-13.177 0-23.859-10.682-23.859-23.859s10.682-23.859 23.859-23.859h15.967v-61.364h47.719z" fill="#88f8d8"/></g><path d="m244.242 407.43c-8.08 0-14.99-4.969-17.868-12.013h-24.883v61.364h-15.967c-13.177 0-23.859 10.682-23.859 23.859s10.682 23.859 23.859 23.859h39.827c13.177 0 23.859-10.682 23.859-23.859v-73.21z" fill="#88f8d8"/><g><g><path d="m114.307 512h-39.828c-17.292 0-31.359-14.068-31.359-31.359s14.067-31.359 31.359-31.359h8.468v-53.864c0-4.142 3.357-7.5 7.5-7.5s7.5 3.358 7.5 7.5v61.364c0 4.142-3.357 7.5-7.5 7.5h-15.968c-9.021 0-16.359 7.339-16.359 16.359s7.339 16.359 16.359 16.359h39.827c9.021 0 16.359-7.339 16.359-16.359v-85.224c0-4.142 3.357-7.5 7.5-7.5s7.5 3.358 7.5 7.5v85.224c.001 17.291-14.066 31.359-31.358 31.359z" fill="#007ea8"/></g></g><path d="m90.447 395.417h47.719v31.883h-47.719z" fill="#007ea8"/><g><path d="m225.351 512h-39.827c-17.292 0-31.359-14.068-31.359-31.359s14.067-31.359 31.359-31.359h8.468v-53.864c0-4.142 3.357-7.5 7.5-7.5s7.5 3.358 7.5 7.5v61.364c0 4.142-3.357 7.5-7.5 7.5h-15.968c-9.021 0-16.359 7.339-16.359 16.359s7.338 16.359 16.358 16.359h39.827c9.021 0 16.359-7.339 16.359-16.359v-73.21c0-4.142 3.357-7.5 7.5-7.5s7.5 3.358 7.5 7.5v73.21c.001 17.291-14.066 31.359-31.358 31.359z" fill="#007ea8"/></g><path d="m244.242 407.43c-8.08 0-14.99-4.969-17.868-12.013h-24.883v31.883h47.719v-19.87z" fill="#007ea8"/><path d="m295.344 19.521h-11.591c.917 2.248 1.432 4.704 1.432 7.282v87.664h70.165v-34.94c.001-33.141-26.864-60.006-60.006-60.006z" fill="#9448f5"/><path d="m224.939 26.803c0-2.578.515-5.034 1.432-7.282h-166.363c-23.787 0-43.075 19.278-43.075 43.065v51.881h208.006z" fill="#9448f5"/><path d="m16.933 114.467h208.006v117.596h-208.006z" fill="#ddbeff"/><path d="m285.185 114.467h70.165v117.596h-70.165z" fill="#ddbeff"/><path d="m285.185 232.064v156.064c0 2.581-.516 5.039-1.435 7.29h11.593c33.142 0 60.007-26.865 60.007-60.007v-103.347z" fill="#9448f5"/><path d="m224.939 388.128v-156.064h-208.006v120.278c0 23.787 19.288 43.075 43.075 43.075h166.365c-.918-2.25-1.434-4.708-1.434-7.289z" fill="#9448f5"/><path d="m265.883 7.5h-21.641c-10.661 0-19.303 8.642-19.303 19.303v361.324c0 10.661 8.642 19.303 19.303 19.303h21.641c10.661 0 19.303-8.642 19.303-19.303v-361.324c-.001-10.661-8.643-19.303-19.303-19.303z" fill="#ff9bff"/><path d="m413.512 105.135h64.147c3.241 0 6.264.902 8.863 2.444v-37.155c0-15.674-12.706-28.38-28.38-28.38h-25.114c-15.674 0-28.38 12.706-28.38 28.38v37.156c2.599-1.543 5.623-2.445 8.864-2.445z" fill="#ff9bff"/><path d="m486.517 394.524-14.768 39.825h-52.318l-14.779-39.825z" fill="#ffd600"/><path d="m477.659 152.91h-64.147c-3.241 0-6.264-.902-8.863-2.444v244.063h81.873v-244.063c-2.599 1.543-5.622 2.444-8.863 2.444z" fill="#ffff6f"/><path d="m477.659 105.135h-64.147c-9.614 0-17.408 7.794-17.408 17.408v12.959c0 9.614 7.794 17.408 17.408 17.408h64.147c9.614 0 17.408-7.794 17.408-17.408v-12.959c0-9.614-7.794-17.408-17.408-17.408z" fill="#9448f5"/><path d="m295.344 12.021h-11.591c-4.143 0-7.5 3.358-7.5 7.5s3.357 7.5 7.5 7.5h11.591c28.952 0 52.507 23.555 52.507 52.507v27.439h-62.665c-4.143 0-7.5 3.358-7.5 7.5s3.357 7.5 7.5 7.5h62.665v102.597h-62.665c-4.143 0-7.5 3.358-7.5 7.5s3.357 7.5 7.5 7.5h62.665v95.846c0 28.952-23.555 52.507-52.507 52.507h-11.594c-4.143 0-7.5 3.358-7.5 7.5s3.357 7.5 7.5 7.5h11.594c37.224 0 67.507-30.284 67.507-67.507 0-51.455 0-198.818 0-255.882 0-37.224-30.284-67.507-67.507-67.507z" fill="#6d00ca"/><path d="m226.374 387.917h-166.365c-19.617 0-35.576-15.959-35.576-35.575v-112.778h200.506c4.143 0 7.5-3.358 7.5-7.5s-3.357-7.5-7.5-7.5h-200.506v-102.597h200.506c4.143 0 7.5-3.358 7.5-7.5s-3.357-7.5-7.5-7.5h-200.506v-44.381c0-19.611 15.959-35.565 35.576-35.565h166.362c4.143 0 7.5-3.358 7.5-7.5s-3.357-7.5-7.5-7.5h-166.362c-27.888 0-50.576 22.684-50.576 50.565v289.756c0 27.887 22.688 50.575 50.576 50.575h166.365c4.143 0 7.5-3.358 7.5-7.5s-3.357-7.5-7.5-7.5z" fill="#6d00ca"/><g><path d="m265.883 414.931h-21.641c-14.779 0-26.804-12.024-26.804-26.803v-361.325c0-14.779 12.025-26.803 26.804-26.803h21.641c14.779 0 26.803 12.024 26.803 26.803v361.324c0 14.78-12.024 26.804-26.803 26.804zm-21.641-399.931c-6.509 0-11.804 5.295-11.804 11.803v361.324c0 6.508 5.295 11.803 11.804 11.803h21.641c6.508 0 11.803-5.295 11.803-11.803v-361.324c0-6.508-5.295-11.803-11.803-11.803z" fill="#e207b9"/></g><circle cx="173.761" cy="162.555" fill="#6d00ca" r="10.658"/><g><path d="m146.097 198.781h-45.136c-4.143 0-7.5-3.358-7.5-7.5s3.357-7.5 7.5-7.5h45.136c4.143 0 7.5 3.358 7.5 7.5s-3.358 7.5-7.5 7.5z" fill="#6d00ca"/></g><circle cx="73.298" cy="162.555" fill="#6d00ca" r="10.658"/><g><path d="m486.521 115.08c-4.143 0-7.5-3.358-7.5-7.5v-37.156c0-11.513-9.366-20.88-20.879-20.88h-25.114c-11.514 0-20.88 9.367-20.88 20.88v37.156c0 4.142-3.357 7.5-7.5 7.5s-7.5-3.358-7.5-7.5v-37.156c0-19.784 16.096-35.88 35.88-35.88h25.114c19.784 0 35.879 16.096 35.879 35.88v37.156c0 4.142-3.357 7.5-7.5 7.5z" fill="#e207b9"/></g><path d="m486.521 142.966c-4.143 0-7.5 3.358-7.5 7.5v236.563h-66.873v-236.563c0-4.142-3.357-7.5-7.5-7.5s-7.5 3.358-7.5 7.5v244.063c0 .986.267 2.157.591 2.922l14.66 39.507c1.091 2.94 3.896 4.891 7.031 4.891h52.318c3.137 0 5.941-1.952 7.032-4.893l14.647-39.499c.352-.831.594-1.925.594-2.928v-244.063c0-4.142-3.357-7.5-7.5-7.5zm-19.99 283.883h-41.884l-9.21-24.82h60.297z" fill="#f95116"/><g><path d="m477.659 160.411h-64.147c-13.734 0-24.908-11.174-24.908-24.908v-12.959c0-13.734 11.174-24.908 24.908-24.908h64.147c13.734 0 24.908 11.174 24.908 24.908v12.959c0 13.734-11.173 24.908-24.908 24.908zm-64.147-47.776c-5.464 0-9.908 4.445-9.908 9.908v12.959c0 5.463 4.444 9.908 9.908 9.908h64.147c5.464 0 9.908-4.445 9.908-9.908v-12.959c0-5.463-4.444-9.908-9.908-9.908z" fill="#6d00ca"/></g></g></svg>