<svg id="Capa_1" enable-background="new 0 0 512 512" height="512" viewBox="0 0 512 512" width="512" xmlns="http://www.w3.org/2000/svg"><g><path d="m328.268 181.733c-8.343-8.343-13.507-19.875-13.507-32.61 0-25.47 20.647-46.117 46.117-46.117h34.906c3.844 0 7.594.397 11.215 1.146.066-1.428.103-2.864.103-4.309 0-51-41.344-92.345-92.345-92.345-51 0-92.345 41.344-92.345 92.345s41.344 92.345 92.345 92.345c8.062 0 15.881-1.036 23.335-2.977-3.604-2.052-6.911-4.566-9.824-7.478z" fill="#ff9bff"/><path d="m226.578 256.797h-19.38c-52.796 0-95.597 42.8-95.597 95.597 0 8.125 6.587 14.712 14.712 14.712h100.265c30.461 0 55.154-24.693 55.154-55.154.001-30.461-24.693-55.155-55.154-55.155z" fill="#ff9bff"/><path d="m7.554 422.305c22.184-11.825 48.8-11.825 70.985 0 22.184 11.825 48.8 11.825 70.985 0 22.184-11.825 48.8-11.825 70.985 0 22.184 11.825 48.8 11.825 70.985 0 22.184-11.825 48.8-11.825 70.985 0 22.184 11.825 48.8 11.825 70.985 0 22.184-11.825 48.8-11.825 70.985 0v82.195h-496.895z" fill="#7181ff"/><path d="m79.786 313.753-13.84-13.84c-5.875-5.875-15.397-5.874-21.272 0-5.874 5.875-5.874 15.398 0 21.271l16.725 16.724c4.458-9.253 10.751-17.45 18.387-24.155z" fill="#ff9bff"/><path d="m78.538 422.305c22.184 11.825 48.801 11.825 70.985 0 22.184-11.825 48.8-11.825 70.985 0 22.184 11.825 48.8 11.825 70.985 0 22.184-11.825 48.8-11.825 70.985 0 6.06 3.23 12.453 5.572 18.994 7.037 16.798-13.935 27.499-34.965 27.499-58.496 0-41.958-34.014-75.972-75.972-75.972h-53.974c1.75 5.379 2.709 11.115 2.709 17.078 0 30.461-24.693 55.154-55.154 55.154h-100.266c-8.125 0-14.712-6.587-14.712-14.712 0-21.595 7.164-41.515 19.24-57.52h-.962c-41.958 0-75.972 34.014-75.972 75.972 0 18.187 6.398 34.875 17.056 47.953 2.57 1.025 5.101 2.187 7.574 3.506z" fill="#ff63ed"/><path d="m338.092 189.212s.001 0 0 0c-7.453 1.942-15.272 2.977-23.334 2.977-11.37 0-22.257-2.06-32.316-5.818 6.617 40.97 33.082 68.685 50.478 108.503h.077c41.958 0 75.972 34.014 75.972 75.972 0-87.71-52.76-120.122-65.144-178.887-1.979-.791-3.898-1.702-5.733-2.747z" fill="#ff9bff"/><g fill="#e207b9"><circle cx="371.056" cy="77.158" r="10.015"/><circle cx="294.705" cy="77.158" r="10.015"/></g><path d="m378.208 250.631c-11.516-19.619-22.393-38.15-27.043-60.219-.74-3.511-3.823-5.926-7.27-5.955-1.818-2.218-4.851-3.243-7.691-2.502-53.907 14.036-106.29-26.862-106.29-82.11 0-46.784 38.062-84.845 84.845-84.845s84.845 38.061 84.845 84.845c0 1.263-.031 2.56-.096 3.965-.189 4.138 3.012 7.646 7.149 7.835 4.092.181 7.645-3.012 7.835-7.149.075-1.637.111-3.158.111-4.652 0-55.054-44.79-99.844-99.845-99.844s-99.845 44.79-99.845 99.845c0 41.241 25.135 76.722 60.891 91.93 4.94 25.221 16.7 45.292 29.127 66.465 5.478 9.335 11.096 18.909 16.195 29.134h-36.921c-9.575-22.365-31.798-38.076-57.626-38.076h-19.381c-32.248 0-61.08 14.887-79.999 38.144-17.5.556-33.659 6.508-46.851 16.267l-9.098-9.098c-8.808-8.811-23.068-8.81-31.879 0-8.808 8.81-8.81 23.068.001 31.878l13.123 13.121c-3.912 9.656-6.086 20.194-6.086 31.236 0 19.146 6.656 37.859 18.741 52.691 2.616 3.21 7.341 3.694 10.552 1.076 3.212-2.616 3.693-7.341 1.077-10.552-9.912-12.163-15.37-27.511-15.37-43.216 0-33.411 23.928-60.852 54.868-67.115-8.012 14.892-12.174 31.543-12.174 48.663 0 12.248 9.965 22.212 22.213 22.212h100.265c34.548 0 62.654-28.106 62.654-62.654 0-3.13-.301-6.773-.732-9.578h44.497c37.934 0 68.473 30.89 68.473 68.473 0 20.438-9.035 39.655-24.788 52.723-3.188 2.645-3.628 7.373-.983 10.561 2.632 3.173 7.358 3.64 10.562.984 19.199-15.928 30.21-39.353 30.21-64.269-.004-55.024-20.332-89.657-38.266-120.214zm-318.499 74.983-9.733-9.733c-2.946-2.946-2.946-7.718 0-10.664 2.947-2.947 7.718-2.949 10.666 0l8.445 8.444c-3.498 3.706-6.629 7.698-9.378 11.953zm166.87 33.992h-100.265c-3.978 0-7.213-3.235-7.213-7.212 0-48.872 39.817-88.097 88.097-88.097h19.381c26.368 0 47.654 21.495 47.654 47.654 0 26.278-21.378 47.655-47.654 47.655zm111.258-72.09c-6.157-13.332-13.168-25.278-19.97-36.869-10.292-17.536-20.108-34.263-25.396-53.458 14.608 3.338 29.973 3.338 44.832-.062 5.483 22.791 16.421 41.426 27.967 61.097 9.692 16.512 19.565 33.334 26.546 53.457-14.448-14.366-33.617-22.977-53.979-24.165z" fill="#e207b9"/><g><path d="m504.447 512h-496.894c-4.143 0-7.5-3.358-7.5-7.5v-82.195c0-2.771 1.527-5.315 3.973-6.619 24.432-13.023 53.608-13.024 78.04 0 20.016 10.669 43.914 10.669 63.93 0 24.434-13.023 53.608-13.023 78.04 0 20.015 10.67 43.913 10.668 63.93 0 24.432-13.023 53.605-13.024 78.039 0 20.017 10.669 43.916 10.668 63.929 0 24.434-13.023 53.609-13.024 78.041 0 2.445 1.303 3.973 3.848 3.973 6.619v82.195c-.001 4.142-3.359 7.5-7.501 7.5zm-489.394-15h481.894v-70.032c-19.148-8.667-41.25-8.016-59.958 1.955-24.431 13.023-53.604 13.024-78.039 0-20.017-10.669-43.916-10.669-63.929 0-24.432 13.023-53.607 13.024-78.041 0-20.016-10.669-43.912-10.669-63.93 0-24.434 13.023-53.608 13.022-78.04 0-18.707-9.973-40.807-10.623-59.957-1.956v70.033z" fill="#2115c2"/></g><path d="m352.284 149.124h-37.523c0 12.735 5.164 24.267 13.507 32.61s19.875 13.507 32.61 13.507h26.322c15.733 0 29.618-7.884 37.94-19.91-20.249-16.726-45.927-26.207-72.856-26.207z" fill="#ffff6f"/><path d="m406.995 104.15c-16.064 10.79-27.686 27.676-31.567 47.35-7.541-1.574-15.292-2.377-23.144-2.377h-37.523c0-25.47 20.647-46.117 46.117-46.117h34.906c3.841.001 7.591.392 11.211 1.144z" fill="#ffff6f"/><path d="m450.835 158.058v16.876c-.1 9.306-11.502 13.778-18.12 7.23-15.733-15.543-35.638-26.202-57.287-30.664 3.881-19.674 15.503-36.56 31.567-47.35 25.028 5.184 43.84 27.345 43.84 53.908z" fill="#f90"/><path d="m408.516 96.806c-.004-.001-.007-.001-.011-.002-4.148-.86-8.428-1.297-12.722-1.297h-34.905c-29.564 0-53.617 24.052-53.617 53.617 0 29.635 23.981 53.617 53.617 53.617h26.322c14.763 0 28.734-6.112 38.778-16.638.488.464.983.919 1.462 1.394 11.223 11.107 30.721 3.613 30.895-12.562v-16.876c0-29.513-20.952-55.274-49.819-61.253zm-47.638 13.701h27.312c-8.782 9.571-14.972 20.906-18.361 32.388-5.79-.845-12.01-1.271-17.544-1.271h-29.292c3.501-17.716 19.157-31.117 37.885-31.117zm26.323 77.233h-26.322c-18.983 0-34.466-13.597-37.894-31.117h29.3c22.114 0 43.883 6.942 61.999 19.828.036.026.073.052.11.078-7.175 7.115-16.925 11.211-27.193 11.211zm56.134-12.886c-.028 2.694-3.423 3.88-5.35 1.976-14.872-14.692-33.477-25.385-53.407-30.844 4.35-13.82 13.123-25.755 23.969-33.746 20.336 5.66 34.788 24.444 34.788 45.819z" fill="#f95116"/></g></svg>