<svg id="Capa_1" enable-background="new 0 0 512 512" height="512" viewBox="0 0 512 512" width="512" xmlns="http://www.w3.org/2000/svg"><g><path d="m161.897 127.648c-5.407-40.049 7.25-80.814 16.046-103.057 3.245-8.205-2.814-17.092-11.638-17.092h-20.679c-9.793 0-18.486 6.267-21.561 15.564-9.753 29.492-19.051 72.006-12.272 115.381 14.52-7.83 31.948-11.605 50.104-10.796z" fill="#b98eff"/><path d="m350.103 127.648c5.407-40.049-7.25-80.814-16.046-103.057-3.244-8.205 2.815-17.091 11.639-17.091h20.679c9.792 0 18.486 6.267 21.56 15.564 9.753 29.492 19.051 72.006 12.272 115.381-14.52-7.831-31.948-11.606-50.104-10.797z" fill="#b98eff"/><path d="m407.119 142.616c-26.65-18.056-66.05-20.632-101.351-3.734-23.33 11.168-40.552 28.789-49.768 48.446-9.216-19.657-26.438-37.278-49.768-48.446-35.3-16.898-74.701-14.322-101.351 3.734-11.401 7.724-18.239 20.728-17.786 34.491 1.019 30.927 22.321 62.239 57.355 79.009 40.142 19.215 85.582 13.244 111.549-12.032 25.967 25.276 71.407 31.247 111.549 12.032 35.035-16.77 56.337-48.082 57.355-79.009.455-13.763-6.383-26.767-17.784-34.491z" fill="#ff9bff"/><path d="m394.565 336.723c-35.306 13.275-84.35 21.501-138.566 21.501s-103.259-8.227-138.566-21.501c-14.676-5.518-30.361 5.188-30.361 20.867v24.758c0 13.83 9.727 25.778 23.288 28.496 26.637 5.339 71.329 22.083 108.199 74.23 8.601 12.162 22.546 19.426 37.441 19.426s28.84-7.264 37.439-19.426c36.87-52.147 81.562-68.891 108.199-74.23 13.561-2.718 23.288-14.666 23.288-28.496v-24.758c0-15.68-15.684-26.386-30.361-20.867z" fill="#ff63ed"/><g><path d="m111.784 145.946c-3.632 0-6.823-2.643-7.401-6.343-7.098-45.413 2.914-89.721 12.562-118.894 4.097-12.387 15.623-20.709 28.68-20.709h20.679c14.102 0 23.801 14.226 18.612 27.35-8.072 20.412-20.831 60.455-15.587 99.295.554 4.105-2.324 7.882-6.429 8.436-4.111.554-7.882-2.324-8.437-6.429-5.7-42.216 7.894-85.045 16.503-106.818 1.295-3.274-1.122-6.833-4.663-6.833h-20.679c-6.575 0-12.379 4.188-14.439 10.419-9.129 27.602-18.618 69.416-11.983 111.867.64 4.092-2.159 7.929-6.252 8.568-.392.061-.782.091-1.166.091z" fill="#6d00ca"/></g><g><path d="m400.216 145.946c-.385 0-.774-.03-1.167-.091-4.093-.64-6.892-4.476-6.252-8.568 6.635-42.448-2.854-84.263-11.983-111.867-2.061-6.232-7.864-10.42-14.439-10.42h-20.679c-3.534 0-5.961 3.554-4.664 6.834 8.61 21.771 22.204 64.598 16.504 106.817-.555 4.106-4.33 6.98-8.437 6.429-4.104-.554-6.982-4.331-6.429-8.436 5.244-38.842-7.515-78.884-15.588-99.295-5.184-13.114 4.502-27.349 18.614-27.349h20.679c13.058 0 24.584 8.322 28.681 20.709 9.648 29.175 19.659 73.484 12.563 118.894-.579 3.7-3.771 6.343-7.403 6.343z" fill="#6d00ca"/></g><g><path d="m193.563 274.883c-17.438 0-35.491-3.932-52.351-12.002-36.289-17.371-60.475-50.943-61.613-85.527-.538-16.335 7.341-31.642 21.075-40.947 29.615-20.065 72.322-21.749 108.796-4.29 19.487 9.329 35.614 23.226 46.529 39.885 10.916-16.659 27.044-30.556 46.53-39.884 36.476-17.459 79.181-15.776 108.796 4.29 13.734 9.306 21.613 24.613 21.075 40.946-1.14 34.585-25.324 68.157-61.613 85.528-39.483 18.899-85.551 15.108-114.788-8.759-16.752 13.675-39.036 20.759-62.436 20.76zm-36.584-139.829c-17.573 0-34.382 4.619-47.891 13.771-9.304 6.303-14.859 17.045-14.497 28.035.957 29.055 21.799 57.509 53.098 72.491 36.37 17.409 78.758 13.034 103.079-10.641 2.912-2.834 7.551-2.834 10.463 0 14.37 13.988 35.054 21.238 57.068 21.24 15.247.001 31.13-3.475 46.012-10.599 31.299-14.982 52.141-43.436 53.098-72.491.362-10.989-5.193-21.731-14.497-28.035-25.286-17.132-62.145-18.38-93.905-3.178-20.937 10.022-37.351 25.956-46.216 44.865-1.235 2.634-3.882 4.316-6.791 4.316-2.909 0-5.556-1.682-6.791-4.316-8.864-18.909-25.277-34.842-46.215-44.865-14.792-7.081-30.695-10.593-46.015-10.593z" fill="#e207b9"/></g><g><path d="m256 512c-17.273 0-33.559-8.447-43.563-22.596-34.351-48.584-75.27-65.539-103.548-71.206-16.986-3.405-29.314-18.482-29.314-35.85v-24.758c0-20.886 20.928-35.248 40.5-27.887 36.055 13.556 84.327 21.021 135.926 21.021s99.872-7.465 135.927-21.021c19.551-7.353 40.5 6.975 40.5 27.887v24.758c0 17.368-12.328 32.445-29.314 35.85-28.278 5.668-69.197 22.623-103.549 71.207-10.006 14.148-26.291 22.595-43.565 22.595zm-161.426-154.41v24.758c0 10.246 7.26 19.137 17.262 21.143 25.337 5.078 73.688 21.867 112.849 77.253 7.196 10.179 18.903 16.256 31.315 16.256s24.119-6.077 31.315-16.256c39.162-55.387 87.513-72.176 112.85-77.254 10.002-2.005 17.262-10.897 17.262-21.143v-24.757c0-10.404-10.39-17.543-20.221-13.847-37.701 14.175-87.849 21.981-141.206 21.981-53.356 0-103.504-7.806-141.205-21.981-9.89-3.718-20.221 3.501-20.221 13.847z" fill="#e207b9"/></g><circle cx="306.588" cy="401.177" fill="#e207b9" r="10.734"/><g><path d="m278.728 437.606h-45.456c-4.143 0-7.5-3.358-7.5-7.5s3.357-7.5 7.5-7.5h45.456c4.143 0 7.5 3.358 7.5 7.5s-3.357 7.5-7.5 7.5z" fill="#e207b9"/></g><circle cx="205.412" cy="401.177" fill="#e207b9" r="10.734"/></g></svg>