<svg id="Capa_1" enable-background="new 0 0 512 512" height="512" viewBox="0 0 512 512" width="512" xmlns="http://www.w3.org/2000/svg"><g><g><path d="m321.149 369.669v84.024c0 12.992-10.532 23.524-23.524 23.524h-39.266c-12.992 0-23.524-10.532-23.524-23.524s10.532-23.524 23.524-23.524h15.743v-60.5z" fill="#b98eff"/></g><g><path d="m211.668 369.669v84.024c0 12.992-10.532 23.524-23.524 23.524h-39.266c-12.992 0-23.524-10.532-23.524-23.524s10.532-23.524 23.524-23.524h15.743v-60.5z" fill="#b98eff"/></g><path d="m464.444 171.784v138.442c0 32.836-26.617 59.443-59.443 59.443h-338.048c-32.836 0-59.453-26.607-59.453-59.443v-138.442z" fill="#ff9bff"/><path d="m464.444 94.227v29.601h-456.944v-29.601c0-32.826 26.617-59.443 59.453-59.443h338.049c32.826 0 59.442 26.617 59.442 59.443z" fill="#ff9bff"/><path d="m504.5 94.227v216c0 32.836-26.617 59.443-59.443 59.443h-40.056c32.826 0 59.443-26.607 59.443-59.443v-216c0-32.826-26.617-59.443-59.443-59.443h40.056c32.826 0 59.443 26.617 59.443 59.443z" fill="#ff63ed"/><path d="m7.5 123.828h456.944v47.957h-456.944z" fill="#b98eff"/><path d="m380.931 214.602h-48.034c-13.265 0-24.019 10.754-24.019 24.019v19.079c0 13.265 10.754 24.019 24.019 24.019h48.034c13.265 0 24.019-10.754 24.019-24.019v-19.079c0-13.265-10.754-24.019-24.019-24.019z" fill="#ffff6f"/><g><g><path d="m297.625 484.716h-39.266c-17.106 0-31.023-13.917-31.023-31.023s13.917-31.023 31.023-31.023h8.243v-53c0-4.142 3.358-7.5 7.5-7.5s7.5 3.358 7.5 7.5v60.5c0 4.142-3.358 7.5-7.5 7.5h-15.743c-8.835 0-16.023 7.188-16.023 16.023s7.188 16.023 16.023 16.023h39.266c8.835 0 16.024-7.188 16.024-16.023v-84.024c0-4.142 3.358-7.5 7.5-7.5s7.5 3.358 7.5 7.5v84.024c0 17.106-13.918 31.023-31.024 31.023z" fill="#6d00ca"/></g></g><g><g><path d="m188.145 484.716h-39.266c-17.106 0-31.024-13.917-31.024-31.023s13.917-31.023 31.024-31.023h8.242v-53c0-4.142 3.358-7.5 7.5-7.5s7.5 3.358 7.5 7.5v60.5c0 4.142-3.358 7.5-7.5 7.5h-15.742c-8.835 0-16.024 7.188-16.024 16.023s7.188 16.023 16.024 16.023h39.266c8.835 0 16.023-7.188 16.023-16.023v-84.024c0-4.142 3.358-7.5 7.5-7.5s7.5 3.358 7.5 7.5v84.024c0 17.106-13.917 31.023-31.023 31.023z" fill="#6d00ca"/></g></g><path d="m164.621 369.669h47.047v31.434h-47.047z" fill="#6d00ca"/><path d="m274.102 369.669h47.047v31.434h-47.047z" fill="#6d00ca"/><path d="m445.058 27.284c-16.826 0-362.036 0-378.105 0-36.918 0-66.953 30.03-66.953 66.942v29.601c0 4.142 3.358 7.5 7.5 7.5s7.5-3.358 7.5-7.5v-29.601c0-28.641 23.306-51.942 51.953-51.942h338.049c28.641 0 51.942 23.301 51.942 51.942v29.601c0 4.142 3.358 7.5 7.5 7.5s7.5-3.358 7.5-7.5v-29.601c0-20.072-9.079-39.161-24.703-51.897 27.632 1.15 49.759 23.989 49.759 51.897v216c0 27.909-22.127 50.747-49.758 51.897 15.698-12.796 24.703-31.962 24.703-51.897v-138.442c0-4.142-3.358-7.5-7.5-7.5s-7.5 3.358-7.5 7.5v138.442c0 28.641-23.301 51.942-51.942 51.942h-338.05c-28.647.001-51.953-23.301-51.953-51.942v-138.442c0-4.142-3.358-7.5-7.5-7.5s-7.5 3.358-7.5 7.5v138.442c0 36.912 30.035 66.942 66.953 66.942h338.049 40.056c36.912 0 66.942-30.03 66.942-66.942v-216c0-36.912-30.03-66.942-66.942-66.942z" fill="#e207b9"/><g><path d="m464.444 179.284h-456.944c-4.142 0-7.5-3.358-7.5-7.5v-47.957c0-4.142 3.358-7.5 7.5-7.5h456.944c4.142 0 7.5 3.358 7.5 7.5v47.957c0 4.142-3.358 7.5-7.5 7.5zm-449.444-15h441.944v-32.957h-441.944z" fill="#6d00ca"/></g><g><path d="m380.931 289.219h-48.034c-17.38 0-31.519-14.139-31.519-31.519v-19.079c0-17.38 14.139-31.519 31.519-31.519h48.034c17.38 0 31.52 14.139 31.52 31.519v19.079c-.001 17.379-14.14 31.519-31.52 31.519zm-48.034-67.117c-9.108 0-16.519 7.411-16.519 16.519v19.079c0 9.108 7.411 16.519 16.519 16.519h48.034c9.109 0 16.52-7.411 16.52-16.519v-19.079c0-9.108-7.411-16.519-16.52-16.519z" fill="#f95116"/></g><circle cx="191.865" cy="238.94" fill="#e207b9" r="10.669"/><g><path d="m164.171 275.196h-45.184c-4.142 0-7.5-3.358-7.5-7.5s3.358-7.5 7.5-7.5h45.184c4.142 0 7.5 3.358 7.5 7.5s-3.358 7.5-7.5 7.5z" fill="#e207b9"/></g><circle cx="91.294" cy="238.94" fill="#e207b9" r="10.669"/><g><g><path d="m121.548 332.234h-54.553c-4.142 0-7.5-3.358-7.5-7.5s3.358-7.5 7.5-7.5h54.553c4.142 0 7.5 3.358 7.5 7.5s-3.358 7.5-7.5 7.5z" fill="#e207b9"/></g><g><path d="m216.016 332.234h-54.554c-4.142 0-7.5-3.358-7.5-7.5s3.358-7.5 7.5-7.5h54.554c4.142 0 7.5 3.358 7.5 7.5s-3.358 7.5-7.5 7.5z" fill="#e207b9"/></g><g><path d="m310.483 332.234h-54.554c-4.142 0-7.5-3.358-7.5-7.5s3.358-7.5 7.5-7.5h54.554c4.142 0 7.5 3.358 7.5 7.5s-3.358 7.5-7.5 7.5z" fill="#e207b9"/></g><g><path d="m404.95 332.234h-54.554c-4.142 0-7.5-3.358-7.5-7.5s3.358-7.5 7.5-7.5h54.554c4.142 0 7.5 3.358 7.5 7.5s-3.358 7.5-7.5 7.5z" fill="#e207b9"/></g></g></g></svg>