<svg id="Capa_1" enable-background="new 0 0 512 512" height="512" viewBox="0 0 512 512" width="512" xmlns="http://www.w3.org/2000/svg"><g><path d="m432.865 176.813h-261.287c-13.179 0-23.863 10.684-23.863 23.863 0 13.179 10.684 23.863 23.863 23.863h261.287c13.179 0 23.863-10.684 23.863-23.863 0-13.179-10.684-23.863-23.863-23.863z" fill="#ffd600"/><path d="m270.847 46.101c10.052-2.478 20.557-3.802 31.374-3.802 10.817 0 21.323 1.324 31.374 3.802l6.887-20.418c3.012-8.931-3.631-18.183-13.056-18.183h-50.41c-9.425 0-16.068 9.251-13.056 18.183z" fill="#ffd600"/><path d="m302.221 42.299c-72.153 0-130.643 58.491-130.643 130.643v3.871h261.287v-3.871c0-72.152-58.491-130.643-130.644-130.643z" fill="#ffff6f"/><circle cx="345.321" cy="109.091" fill="#f95116" r="9.145"/><g><path d="m321.585 141.238h-38.728c-4.143 0-7.5-3.358-7.5-7.5s3.357-7.5 7.5-7.5h38.728c4.143 0 7.5 3.358 7.5 7.5s-3.357 7.5-7.5 7.5z" fill="#f95116"/></g><circle cx="259.122" cy="109.091" fill="#f95116" r="9.145"/><path d="m440.33 170.218c-1.181-60.713-41.717-111.956-97.103-129.207l4.362-12.932c4.645-13.772-5.622-28.079-20.162-28.079h-50.41c-14.537 0-24.81 14.302-20.163 28.08l4.362 12.931c-55.386 17.251-95.922 68.494-97.103 129.207-13.7 3.359-23.898 15.737-23.898 30.458 0 17.294 14.069 31.363 31.363 31.363 4.143 0 7.5-3.358 7.5-7.5s-3.357-7.5-7.5-7.5c-9.022 0-16.363-7.34-16.363-16.363s7.341-16.363 16.363-16.363h261.286c9.022 0 16.363 7.34 16.363 16.363s-7.341 16.363-16.363 16.363c-4.143 0-7.5 3.358-7.5 7.5s3.357 7.5 7.5 7.5c17.294 0 31.363-14.069 31.363-31.363.001-14.721-10.197-27.099-23.897-30.458zm-164.524-132.885-4.739-14.047c-1.374-4.074 1.649-8.286 5.95-8.286h50.41c4.301 0 7.323 4.212 5.949 8.286l-4.738 14.047c-8.386-1.626-17.486-2.534-26.416-2.534-8.916 0-18.074.915-26.416 2.534zm-96.675 131.98c1.646-56.588 41.66-103.719 94.871-116.244 18.187-4.263 37.626-4.405 56.433-.001 53.214 12.523 93.229 59.655 94.876 116.245z" fill="#f95116"/><path d="m466.077 224.54h-327.711c-13.615 0-22.994 13.659-18.103 26.365 8.475 22.019 29.634 36.547 53.228 36.547h257.462c23.594 0 44.753-14.528 53.228-36.547 4.889-12.706-4.489-26.365-18.104-26.365z" fill="#7181ff"/><g><path d="m430.952 294.952c-4.143 0-7.5-3.358-7.5-7.5s3.357-7.5 7.5-7.5c20.344 0 38.921-12.756 46.229-31.741 1.43-3.715.957-7.727-1.296-11.008s-5.827-5.163-9.808-5.163h-327.711c-3.98 0-7.556 1.882-9.809 5.164-2.253 3.281-2.726 7.293-1.296 11.008 7.309 18.985 25.886 31.741 46.229 31.741 4.143 0 7.5 3.358 7.5 7.5s-3.357 7.5-7.5 7.5c-26.503 0-50.706-16.619-60.227-41.353-3.186-8.274-2.091-17.578 2.928-24.887s13.309-11.673 22.175-11.673h327.711c8.866 0 17.155 4.364 22.174 11.673s6.113 16.612 2.928 24.887c-9.52 24.733-33.723 41.352-60.227 41.352z" fill="#2115c2"/></g><circle cx="422.94" cy="455.979" fill="#7181ff" r="48.521"/><circle cx="181.503" cy="455.979" fill="#7181ff" r="48.521"/><circle cx="422.94" cy="455.979" fill="#a4bcff" r="17.144"/><path d="m100.876 319.557c0-4.942 1.119-9.622 3.114-13.804-12.061-9.308-26.761-14.366-42.247-14.366h-33.251c-11.078 0-20.058 8.98-20.058 20.058s8.98 20.058 20.058 20.058h33.252c7.806 0 15.145 3.04 20.664 8.56 5.67 5.669 11.863 10.625 18.469 14.825v-35.331z" fill="#7181ff"/><path d="m471.461 287.452h-338.48c-17.731 0-32.105 14.374-32.105 32.105v104.697c0 17.731 14.374 32.105 32.105 32.105h.01c-.001-.128-.01-.253-.01-.381 0-26.797 21.724-48.521 48.521-48.521s48.521 21.724 48.521 48.521c0 .128-.009.253-.01.381h144.414c-.001-.128-.01-.253-.01-.381 0-26.797 21.724-48.521 48.521-48.521s48.521 21.724 48.521 48.521c0 .128-.009.253-.01.381h.01c17.731 0 32.105-14.374 32.105-32.105v-104.697c.003-17.731-14.371-32.105-32.103-32.105z" fill="#ff63ed"/><g><path d="m422.939 480.623c-13.589 0-24.644-11.055-24.644-24.644 0-13.588 11.055-24.644 24.644-24.644s24.645 11.055 24.645 24.644c0 13.588-11.056 24.644-24.645 24.644zm0-34.288c-5.317 0-9.644 4.326-9.644 9.644s4.326 9.644 9.644 9.644 9.645-4.326 9.645-9.644-4.326-9.644-9.645-9.644z" fill="#2115c2"/></g><g><path d="m100.869 362.39c-1.377 0-2.77-.378-4.018-1.172-7.099-4.514-13.743-9.847-19.747-15.85-4.104-4.104-9.559-6.364-15.361-6.364h-33.252c-15.195 0-27.558-12.363-27.558-27.559s12.362-27.558 27.558-27.558h33.252c17.134 0 33.327 5.508 46.829 15.928 3.279 2.531 3.886 7.241 1.355 10.52-2.531 3.28-7.242 3.886-10.52 1.355-10.854-8.376-23.878-12.803-37.665-12.803h-33.251c-6.924 0-12.558 5.633-12.558 12.558s5.634 12.559 12.558 12.559h33.252c9.81 0 19.031 3.82 25.968 10.757 5.229 5.229 11.013 9.872 17.189 13.799 3.495 2.222 4.527 6.857 2.305 10.353-1.429 2.248-3.856 3.477-6.336 3.477z" fill="#2115c2"/></g><g><path d="m471.461 463.86c-4.143 0-7.505-3.358-7.505-7.5s3.353-7.5 7.495-7.5h.01c13.567 0 24.605-11.038 24.605-24.605v-104.697c0-13.567-11.038-24.605-24.605-24.605h-338.48c-13.567 0-24.605 11.038-24.605 24.605v104.697c0 13.567 11.038 24.605 24.605 24.605 4.143 0 7.505 3.358 7.505 7.5s-3.353 7.5-7.495 7.5c-21.849 0-39.615-17.767-39.615-39.605v-104.697c0-21.838 17.767-39.605 39.605-39.605h338.479c21.839 0 39.605 17.767 39.605 39.605v104.697c.001 21.838-17.765 39.605-39.604 39.605z" fill="#e207b9"/></g><g><path d="m374.429 463.86h-144.414c-4.143 0-7.5-3.358-7.5-7.5s3.357-7.5 7.5-7.5h144.414c4.143 0 7.5 3.358 7.5 7.5s-3.358 7.5-7.5 7.5z" fill="#e207b9"/></g><g><path d="m422.939 512c-30.89 0-56.021-25.131-56.021-56.021s25.131-56.021 56.021-56.021c30.891 0 56.021 25.131 56.021 56.021s-25.13 56.021-56.021 56.021zm0-97.042c-22.619 0-41.021 18.402-41.021 41.021s18.402 41.021 41.021 41.021 41.021-18.402 41.021-41.021-18.401-41.021-41.021-41.021z" fill="#2115c2"/></g><circle cx="181.503" cy="455.979" fill="#a4bcff" r="17.144"/><g><path d="m181.503 480.623c-13.589 0-24.645-11.055-24.645-24.644 0-13.588 11.056-24.644 24.645-24.644s24.644 11.055 24.644 24.644c-.001 13.588-11.055 24.644-24.644 24.644zm0-34.288c-5.318 0-9.645 4.326-9.645 9.644s4.326 9.644 9.645 9.644c5.317 0 9.644-4.326 9.644-9.644-.001-5.318-4.327-9.644-9.644-9.644z" fill="#2115c2"/></g><g><path d="m181.503 512c-30.891 0-56.021-25.131-56.021-56.021s25.131-56.021 56.021-56.021 56.021 25.131 56.021 56.021-25.131 56.021-56.021 56.021zm0-97.042c-22.619 0-41.021 18.402-41.021 41.021s18.402 41.021 41.021 41.021 41.021-18.402 41.021-41.021-18.402-41.021-41.021-41.021z" fill="#2115c2"/></g></g></svg>