<svg id="Capa_1" enable-background="new 0 0 512 512" height="512" viewBox="0 0 512 512" width="512" xmlns="http://www.w3.org/2000/svg"><g><g><path d="m277.495 396.898v84.066c0 12.998-10.537 23.535-23.535 23.535h-39.286c-12.998 0-23.535-10.537-23.535-23.535s10.537-23.535 23.535-23.535h15.751v-60.531z" fill="#88f8d8"/></g><g><path d="m167.959 396.898v84.066c0 12.998-10.537 23.535-23.535 23.535h-39.286c-12.998 0-23.535-10.537-23.535-23.535s10.537-23.535 23.535-23.535h15.751v-60.531z" fill="#88f8d8"/></g><g><g><path d="m253.959 512h-39.286c-17.113 0-31.035-13.922-31.035-31.036s13.922-31.036 31.035-31.036h8.251v-53.03c0-4.142 3.357-7.5 7.5-7.5s7.5 3.358 7.5 7.5v60.53c0 4.142-3.357 7.5-7.5 7.5h-15.751c-8.842 0-16.035 7.193-16.035 16.036s7.193 16.036 16.035 16.036h39.286c8.843 0 16.036-7.193 16.036-16.036v-84.066c0-4.142 3.357-7.5 7.5-7.5s7.5 3.358 7.5 7.5v84.066c0 17.114-13.923 31.036-31.036 31.036z" fill="#007ea8"/></g></g><g><g><path d="m144.423 512h-39.285c-17.113 0-31.036-13.922-31.036-31.036s13.923-31.036 31.036-31.036h8.25v-53.03c0-4.142 3.357-7.5 7.5-7.5s7.5 3.358 7.5 7.5v60.53c0 4.142-3.357 7.5-7.5 7.5h-15.75c-8.843 0-16.036 7.193-16.036 16.036s7.193 16.036 16.036 16.036h39.285c8.843 0 16.036-7.193 16.036-16.036v-84.066c0-4.142 3.357-7.5 7.5-7.5s7.5 3.358 7.5 7.5v84.066c0 17.114-13.923 31.036-31.036 31.036z" fill="#007ea8"/></g></g><path d="m120.888 396.898h47.071v31.45h-47.071z" fill="#007ea8"/><path d="m230.424 396.898h47.071v31.45h-47.071z" fill="#007ea8"/><path d="m407.1 7.505c-34.198-.445-62.062 27.145-62.062 61.241v290.43h86.461c19.899 0 36.031-16.132 36.031-36.031v-253.486c0-33.659-26.774-61.716-60.43-62.154z" fill="#565eec"/><path d="m105.716 7.5c-33.826 0-61.246 27.421-61.246 61.246v292.29c0 19.899 16.132 36.031 36.031 36.031h228.507c19.899 0 36.031-16.132 36.031-36.031v-292.29c0-33.824 27.422-61.246 61.246-61.246h-300.569z" fill="#7181ff"/><path d="m44.47 253.518h300.568v51.575h-300.568z" fill="#a4bcff"/><g fill="#2115c2"><circle cx="258.536" cy="132.275" r="12.47"/><circle cx="140.991" cy="132.275" r="12.47"/><g><path d="m173.358 173.384h52.81c4.143 0 7.5-3.358 7.5-7.5s-3.357-7.5-7.5-7.5h-52.81c-4.143 0-7.5 3.358-7.5 7.5s3.358 7.5 7.5 7.5z"/><path d="m407.198.005c-.216-.002-301.482-.005-301.482-.005-37.906 0-68.746 30.839-68.746 68.746v292.29c0 24.003 19.527 43.531 43.53 43.531h228.508c22.091 0 40.377-16.544 43.153-37.891h79.339c24.003 0 43.531-19.528 43.531-43.531v-253.486c-.001-37.92-30.43-69.166-67.833-69.654zm-355.228 261.013h285.568v36.575h-285.568zm53.746-246.018h257.704c-16.458 13.175-25.882 32.728-25.882 53.746v177.272h-285.568v-177.272c0-29.636 24.11-53.746 53.746-53.746zm231.822 346.036c0 15.732-12.799 28.531-28.53 28.531h-228.508c-15.731 0-28.53-12.799-28.53-28.531v-48.443h285.568v46.583zm122.492-37.891c0 15.732-12.799 28.531-28.531 28.531h-78.961c0-15.703 0-272.118 0-282.93 0-29.863 24.544-54.166 54.465-53.741 29.239.381 53.027 24.899 53.027 54.655z"/></g></g></g></svg>