<svg id="Capa_1" enable-background="new 0 0 512 512" height="512" viewBox="0 0 512 512" width="512" xmlns="http://www.w3.org/2000/svg"><g><g fill="#565eec"><path d="m403.451 108.546-35.24 88.681-37.34-16.1-16.1-37.34z"/><path d="m197.23 143.787-16.1 37.34-37.34 16.1-35.241-88.681z"/><path d="m403.451 403.448-88.68-35.24 16.1-37.34 37.34-16.1z"/><path d="m197.23 368.208-88.681 35.24 35.241-88.68 37.34 16.1z"/></g><path d="m330.871 330.868-16.1 37.34-58.771 136.291v-248.502z" fill="#a4bcff"/><path d="m256 255.997v248.502l-58.77-136.291-16.1-37.34z" fill="#7181ff"/><path d="m256 255.997-74.87 74.871-37.34-16.1-136.291-58.771z" fill="#a4bcff"/><path d="m256 255.997h-248.501l136.291-58.77 37.34-16.1z" fill="#7181ff"/><path d="m256 7.496v248.501l-74.87-74.87 16.1-37.34z" fill="#a4bcff"/><path d="m330.871 181.127-74.871 74.87v-248.501l58.771 136.291z" fill="#7181ff"/><path d="m504.502 255.997h-248.502l74.871-74.87 37.34 16.1z" fill="#a4bcff"/><path d="m504.502 255.997-136.291 58.771-37.34 16.1-74.871-74.871z" fill="#7181ff"/><g fill="#f90"><path d="m314.771 143.787 60.347-23.981c-24.641-21.57-55.186-36.553-88.895-42.222z"/><path d="m434.414 225.775c-5.669-33.709-20.652-64.254-42.222-88.895l-23.981 60.347z"/><path d="m225.778 77.583c-33.709 5.669-64.254 20.653-88.895 42.222l60.347 23.981z"/><path d="m143.79 197.227-23.981-60.347c-21.57 24.641-36.553 55.186-42.222 88.895z"/><path d="m143.79 314.768-66.204-28.548c5.669 33.709 20.652 64.254 42.222 88.895z"/><path d="m314.771 368.208-28.548 66.203c33.709-5.669 64.254-20.653 88.895-42.222z"/><path d="m368.211 314.768 23.981 60.347c21.57-24.641 36.553-55.186 42.222-88.895z"/><path d="m197.23 368.208-60.347 23.981c24.641 21.57 55.186 36.553 88.895 42.222z"/></g><g><g><path d="m370.179 125.449c-24.183-21.169-53.645-35.163-85.2-40.47-4.085-.687-6.839-4.555-6.152-8.64.688-4.085 4.545-6.839 8.641-6.152 34.298 5.768 66.315 20.974 92.59 43.974 3.117 2.729 3.432 7.467.704 10.584-2.73 3.117-7.467 3.431-10.583.704z" fill="#f95116"/></g><g><path d="m434.406 233.276c-3.596 0-6.772-2.593-7.388-6.257-5.307-31.554-19.3-61.016-40.469-85.199-2.729-3.117-2.413-7.855.704-10.584 3.114-2.728 7.853-2.414 10.583.704 23 26.276 38.206 58.294 43.975 92.591.687 4.085-2.067 7.953-6.152 8.64-.421.071-.84.105-1.253.105z" fill="#f95116"/></g><g><path d="m131.239 124.745c-2.728-3.117-2.413-7.855.704-10.584 26.276-23.001 58.293-38.207 92.59-43.974 4.087-.688 7.954 2.067 8.641 6.152s-2.068 7.953-6.152 8.64c-31.555 5.307-61.016 19.3-85.2 40.47-3.109 2.723-7.849 2.418-10.583-.704z" fill="#f95116"/></g><g><path d="m77.595 233.276c-.413 0-.831-.034-1.253-.105-4.084-.687-6.839-4.555-6.152-8.64 5.769-34.298 20.975-66.315 43.975-92.591 2.728-3.117 7.466-3.432 10.583-.704 3.117 2.729 3.433 7.467.704 10.584-21.169 24.183-35.162 53.644-40.469 85.199-.616 3.664-3.792 6.257-7.388 6.257z" fill="#f95116"/></g><g><path d="m114.165 380.055c-23-26.276-38.206-58.294-43.975-92.591-.687-4.085 2.068-7.953 6.152-8.64 4.085-.69 7.953 2.067 8.641 6.152 5.307 31.554 19.3 61.016 40.469 85.199 2.729 3.117 2.413 7.855-.704 10.584-3.11 2.723-7.849 2.418-10.583-.704z" fill="#f95116"/></g><g><path d="m278.826 435.655c-.687-4.085 2.067-7.953 6.152-8.64 31.556-5.307 61.017-19.301 85.199-40.47 3.116-2.729 7.854-2.414 10.584.703 2.728 3.117 2.413 7.855-.703 10.583-26.276 23.001-58.293 38.207-92.591 43.975-4.102.692-7.956-2.082-8.641-6.151z" fill="#f95116"/></g><g><path d="m387.253 380.759c-3.117-2.729-3.433-7.467-.704-10.584 21.169-24.183 35.162-53.644 40.469-85.199.688-4.085 4.547-6.842 8.641-6.152 4.085.687 6.839 4.555 6.152 8.64-5.769 34.298-20.975 66.315-43.975 92.591-2.723 3.111-7.462 3.436-10.583.704z" fill="#f95116"/></g><g><path d="m224.534 441.808c-34.298-5.768-66.316-20.974-92.591-43.975-3.116-2.728-3.431-7.466-.703-10.583 2.73-3.117 7.467-3.432 10.584-.703 24.182 21.169 53.644 35.163 85.199 40.47 4.084.687 6.839 4.555 6.152 8.64-.687 4.081-4.552 6.837-8.641 6.151z" fill="#f95116"/></g></g><path d="m511.992 256.314c.137-3.122-1.709-5.991-4.52-7.204l-129.601-55.884 32.55-81.91c1.105-2.782.451-5.956-1.666-8.073-2.118-2.117-5.292-2.773-8.073-1.667l-81.911 32.55-55.884-129.6c-1.174-2.72-3.863-4.532-6.911-4.526-3.068.012-5.727 1.88-6.863 4.526l-55.883 129.601-81.91-32.55c-2.784-1.106-5.955-.45-8.073 1.667-2.117 2.117-2.772 5.291-1.666 8.073l32.549 81.91-129.601 55.883c-2.581 1.113-4.402 3.66-4.52 6.571-.136 3.11 1.697 5.986 4.52 7.204l129.601 55.884-32.549 81.91c-1.105 2.782-.45 5.956 1.666 8.073 2.118 2.116 5.29 2.772 8.073 1.667l81.91-32.55 55.884 129.6c.007.016.016.029.023.045 1.171 2.662 3.825 4.479 6.847 4.486.005 0 .009.001.013.001h.003s.002 0 .003 0c.004 0 .009-.001.013-.001 2.985-.007 5.66-1.786 6.847-4.486.007-.016.016-.029.023-.045l55.884-129.601 81.91 32.55c2.788 1.107 5.96.446 8.073-1.667 2.117-2.117 2.772-5.291 1.666-8.073l-32.55-81.91 129.6-55.884c2.589-1.115 4.405-3.664 4.523-6.57zm-190.024-76.891-58.468 58.467v-194.061zm-131.935 153.149 58.467-58.468v194.06zm142.542-142.542 1.41.608 134.183 57.86h-194.06zm57.484-68.091-25.967 65.344-27.514-11.863-11.863-27.514zm-141.559 115.951-58.467-58.467 58.467-135.593zm-61.213-89.984-11.863 27.514-27.515 11.863-25.966-65.345zm-7.861 42.124 58.467 58.467h-194.06zm58.467 73.467-58.467 58.468-1.702-.734-133.891-57.734zm-115.951 126.559 25.966-65.345 27.515 11.864 11.863 27.514zm141.558-115.952 58.468 58.468-58.468 135.593zm61.214 89.985 11.863-27.514 27.514-11.864 25.967 65.345zm7.861-42.124-58.468-58.468h194.06c-17.009 7.335-113.607 48.988-135.592 58.468z" fill="#2115c2"/></g></svg>