<?xml version="1.0" encoding="UTF-8" standalone="no"?>
<!-- Created with Inkscape (http://www.inkscape.org/) -->

<svg
   version="1.1"
   id="svg9"
   xml:space="preserve"
   width="6500"
   height="4333.3335"
   viewBox="0 0 6500 4333.3335"
   sodipodi:docname="landing.svg"
   inkscape:version="1.1.1 (3bf5ae0d25, 2021-09-20)"
   xmlns:inkscape="http://www.inkscape.org/namespaces/inkscape"
   xmlns:sodipodi="http://sodipodi.sourceforge.net/DTD/sodipodi-0.dtd"
   xmlns="http://www.w3.org/2000/svg"
   xmlns:svg="http://www.w3.org/2000/svg"><defs
     id="defs13"><clipPath
       clipPathUnits="userSpaceOnUse"
       id="clipPath25"><path
         d="M 0,3250 H 4875.001 V 0 H 0 Z"
         id="path23" /></clipPath><clipPath
       clipPathUnits="userSpaceOnUse"
       id="clipPath49"><path
         d="M 0,3250 H 4875.001 V 0 H 0 Z"
         id="path47" /></clipPath><clipPath
       clipPathUnits="userSpaceOnUse"
       id="clipPath65"><path
         d="M 0,3250 H 4875.001 V 0 H 0 Z"
         id="path63" /></clipPath></defs><sodipodi:namedview
     id="namedview11"
     pagecolor="#ffffff"
     bordercolor="#666666"
     borderopacity="1.0"
     inkscape:pageshadow="2"
     inkscape:pageopacity="0.0"
     inkscape:pagecheckerboard="0"
     showgrid="false"
     inkscape:zoom="0.13488461"
     inkscape:cx="5949.5297"
     inkscape:cy="1953.5216"
     inkscape:window-width="2560"
     inkscape:window-height="1377"
     inkscape:window-x="1072"
     inkscape:window-y="612"
     inkscape:window-maximized="1"
     inkscape:current-layer="g15" /><g
     id="g15"
     inkscape:groupmode="layer"
     inkscape:label="AdobeStock_301523967"
     transform="matrix(1.3333333,0,0,-1.3333333,0,4333.3333)"><rect
       style="fill:#000000;fill-rule:evenodd;stroke-width:1.45618"
       id="rect410"
       width="10442.015"
       height="5811.9062"
       x="-2561.801"
       y="-4496.415"
       transform="scale(1,-1)" /><path
       d="M 388.201,2991.199 H 4486.8 V 258.801 H 388.201 Z"
       style="fill:#25c9d0;fill-opacity:1;fill-rule:evenodd;stroke:none"
       id="path17" /><g
       id="g27"
       transform="rotate(-30,5203.5197,-3235.2899)"
       style="fill:#00a9b1;fill-opacity:1"><path
         d="m 0,0 -967.729,-558.717 c -88.646,-51.18 -201.993,-20.807 -253.171,67.838 -42.189,73.07 -28.962,162.931 26.642,220.917 l 244.681,149.736 c 88.644,51.179 119.015,164.528 67.836,253.173 -51.178,88.643 -164.525,119.016 -253.172,67.838 L -1465.594,9.863 v -2401.474 h 1029.915 l 685.117,395.554 c 88.643,51.178 119.015,164.527 67.835,253.172 -51.177,88.644 -164.524,119.017 -253.17,67.837 l -492.123,-284.127 c -88.647,-51.179 -201.993,-20.806 -253.173,67.838 -51.178,88.644 -20.806,201.995 67.837,253.173 l 900.783,520.067 c 88.643,51.178 119.014,164.528 67.835,253.171 -51.178,88.644 -164.527,119.017 -253.173,67.838 -88.645,-51.178 -201.993,-20.804 -253.172,67.839 -51.179,88.644 -20.808,201.994 67.835,253.172 l 268.584,155.066 c 88.644,51.179 119.015,164.528 67.836,253.173 C 201.994,20.805 88.646,51.178 0,0"
         style="fill:#00a9b1;fill-opacity:1;fill-rule:evenodd;stroke:none"
         id="path29" /></g><g
       id="g31"
       transform="rotate(-30,4020.3694,-1988.5012)"
       style="fill:#ffb20f;fill-opacity:1"><path
         d="m 0,0 -660.768,-381.494 c -60.528,-34.945 -137.921,-14.206 -172.866,46.32 -28.808,49.893 -19.776,111.251 18.19,150.843 l 167.07,102.241 c 60.527,34.945 81.264,112.34 46.319,172.866 -34.945,60.526 -112.339,81.265 -172.867,46.321 L -1000.712,6.734 v -1639.732 h 703.229 l 467.8,270.084 c 60.526,34.946 81.263,112.341 46.318,172.868 -34.945,60.526 -112.339,81.264 -172.866,46.32 l -336.023,-194.004 c -60.527,-34.944 -137.921,-14.206 -172.866,46.32 -34.945,60.527 -14.208,137.922 46.319,172.868 l 615.055,355.102 c 60.527,34.945 81.264,112.341 46.319,172.867 -34.945,60.526 -112.339,81.265 -172.866,46.321 -60.528,-34.946 -137.922,-14.207 -172.867,46.319 -34.945,60.526 -14.208,137.922 46.319,172.867 l 183.388,105.879 c 60.527,34.945 81.265,112.341 46.32,172.867 C 137.921,14.207 60.527,34.945 0,0"
         style="fill:#ffb20f;fill-opacity:1;fill-rule:evenodd;stroke:none"
         id="path33" /></g><g
       id="g67"
       transform="rotate(-30,4045.1896,-3587.5713)"
       style="fill:#ffffff;fill-opacity:1"><path
         d="m 0,0 c -189.955,0 -343.946,-153.99 -343.946,-343.946 0,-189.955 153.991,-343.945 343.946,-343.945 189.956,0 343.946,153.99 343.946,343.945 C 343.946,-153.99 189.956,0 0,0 m 0,-130.113 c 118.097,0 213.833,-95.736 213.833,-213.833 0,-118.097 -95.736,-213.832 -213.833,-213.832 -118.097,0 -213.832,95.735 -213.832,213.832 0,118.097 95.735,213.833 213.832,213.833"
         style="fill:#ffffff;fill-opacity:1;fill-rule:evenodd;stroke:none"
         id="path69" /></g><g
       id="g75"
       transform="rotate(-30,4885.0751,-2471.9446)"
       style="fill:#ffffff;fill-opacity:1"><path
         d="m 0,0 c 50.191,0 90.879,-40.688 90.879,-90.879 0,-50.192 -40.688,-90.879 -90.879,-90.879 -50.192,0 -90.879,40.687 -90.879,90.879 C -90.879,-40.688 -50.192,0 0,0"
         style="fill:#ffffff;fill-opacity:1;fill-rule:evenodd;stroke:none"
         id="path77" /></g><g
       id="g83"
       transform="rotate(-30,1338.5766,-3042.6628)"><path
         d="m 0,0 c 24.395,0 44.172,-19.776 44.172,-44.171 0,-24.396 -19.777,-44.174 -44.172,-44.174 -24.396,0 -44.173,19.778 -44.173,44.174 C -44.173,-19.776 -24.396,0 0,0"
         style="fill:#ffffff;fill-opacity:1;fill-rule:evenodd;stroke:none"
         id="path85" /></g><g
       id="g95"
       transform="rotate(-30,5167.1063,-1430.9062)"
       style="fill:#ffb20f;fill-opacity:1"><path
         d="m 0,0 c 35.569,0 64.405,-28.836 64.405,-64.405 0,-35.569 -28.836,-64.405 -64.405,-64.405 -35.569,0 -64.405,28.836 -64.405,64.405 C -64.405,-28.836 -35.569,0 0,0"
         style="fill:#ffb20f;fill-opacity:1;fill-rule:evenodd;stroke:none"
         id="path97" /></g><g
       id="g99"
       transform="rotate(-30,2592.0385,-2951.5445)"
       style="fill:#ffffff;fill-opacity:1"><path
         d="m 0,0 c 24.395,0 44.171,-19.777 44.171,-44.172 0,-24.396 -19.776,-44.174 -44.171,-44.174 -24.396,0 -44.173,19.778 -44.173,44.174 C -44.173,-19.777 -24.396,0 0,0"
         style="fill:#ffffff;fill-opacity:1;fill-rule:evenodd;stroke:none"
         id="path101" /></g><g
       id="g123"
       transform="rotate(-30,2410.2398,-3675.606)"
       style="fill:#00a9b1;fill-opacity:1"><path
         d="m 0,0 c 35.568,0 64.405,-28.836 64.405,-64.404 0,-35.57 -28.837,-64.406 -64.405,-64.406 -35.569,0 -64.405,28.836 -64.405,64.406 C -64.405,-28.836 -35.569,0 0,0"
         style="fill:#00a9b1;fill-opacity:1;fill-rule:evenodd;stroke:none"
         id="path125" /></g><g
       id="g10413"
       transform="rotate(-30,4463.763,-2542.8916)"><g
         id="g35"
         transform="translate(3146.3042,2870.2205)"
         style="fill:#00a9b1;fill-opacity:1"><path
           d="m 0,0 c 155.069,0 280.781,-125.711 280.781,-280.784 0,-155.069 -125.712,-280.781 -280.781,-280.781 -155.072,0 -280.784,125.712 -280.784,280.781 C -280.784,-125.711 -155.072,0 0,0"
           style="fill:#00a9b1;fill-opacity:1;fill-rule:evenodd;stroke:none"
           id="path37" /></g><g
         id="g39"
         transform="translate(4153.3491,1086.1434)"
         style="fill:#ffb20f;fill-opacity:1"><path
           d="M 0,0 C 136.637,0 247.408,-110.771 247.408,-247.413 247.408,-384.05 136.637,-494.822 0,-494.822 c -136.642,0 -247.413,110.772 -247.413,247.409 C -247.413,-110.771 -136.642,0 0,0"
           style="fill:#ffb20f;fill-opacity:1;fill-rule:evenodd;stroke:none"
           id="path41" /></g><g
         id="g55"
         transform="translate(4449.77,1903.2274)"><path
           d="m 0,0 c 6.952,4.014 15.843,1.634 19.855,-5.319 4.014,-6.952 1.631,-15.841 -5.321,-19.855 -6.95,-4.013 -15.841,-1.632 -19.854,5.32 C -9.334,-12.903 -6.951,-4.013 0,0 m -74.898,-43.242 c 6.951,4.013 15.839,1.631 19.852,-5.32 4.016,-6.953 1.633,-15.841 -5.317,-19.855 -6.954,-4.015 -15.843,-1.632 -19.857,5.32 -4.012,6.952 -1.633,15.841 5.322,19.855 M -149.8,-86.487 c 6.954,4.015 15.842,1.633 19.856,-5.318 4.013,-6.953 1.632,-15.842 -5.321,-19.856 -6.951,-4.012 -15.839,-1.632 -19.853,5.322 -4.015,6.95 -1.633,15.839 5.318,19.852 M 31.656,118.145 c 1.707,0.986 3.533,1.584 5.374,1.826 V 91.146 c -4.325,0.572 -8.344,3.075 -10.692,7.144 -4.015,6.951 -1.635,15.841 5.318,19.855 m -74.9,-43.244 c 6.951,4.013 15.844,1.631 19.855,-5.32 4.015,-6.951 1.632,-15.843 -5.32,-19.855 -6.951,-4.014 -15.841,-1.632 -19.854,5.32 -4.014,6.951 -1.631,15.841 5.319,19.855 m -74.898,-43.243 c 6.951,4.014 15.84,1.631 19.854,-5.32 4.013,-6.953 1.632,-15.843 -5.319,-19.856 -6.953,-4.014 -15.842,-1.63 -19.855,5.321 -4.014,6.95 -1.634,15.841 5.32,19.855 m -74.9,-43.245 c 6.953,4.014 15.842,1.632 19.855,-5.319 4.013,-6.951 1.632,-15.841 -5.322,-19.855 -6.95,-4.014 -15.839,-1.631 -19.852,5.32 -4.014,6.952 -1.633,15.839 5.319,19.854 m 181.454,204.63 c 6.953,4.014 15.844,1.631 19.856,-5.32 4.014,-6.951 1.631,-15.84 -5.321,-19.854 -6.952,-4.014 -15.839,-1.632 -19.853,5.319 -4.013,6.952 -1.632,15.842 5.318,19.855 m -74.899,-43.244 c 6.952,4.014 15.842,1.633 19.857,-5.32 4.012,-6.951 1.628,-15.839 -5.322,-19.854 -6.951,-4.012 -15.841,-1.631 -19.856,5.319 -4.012,6.951 -1.63,15.843 5.321,19.855 m -74.899,-43.241 c 6.951,4.012 15.842,1.629 19.855,-5.322 4.013,-6.951 1.632,-15.84 -5.32,-19.852 -6.954,-4.016 -15.842,-1.634 -19.854,5.317 -4.015,6.952 -1.633,15.842 5.319,19.857 m -74.901,-43.244 c 6.954,4.014 15.844,1.631 19.857,-5.321 4.013,-6.951 1.632,-15.842 -5.32,-19.856 -6.953,-4.012 -15.841,-1.629 -19.855,5.321 -4.013,6.951 -1.632,15.842 5.318,19.856 M 20.07,311.186 c 5.58,3.222 12.409,2.321 16.96,-1.755 v -21.665 c -0.733,-0.655 -1.541,-1.244 -2.425,-1.754 -6.954,-4.016 -15.841,-1.633 -19.855,5.317 -4.015,6.955 -1.632,15.843 5.32,19.857 m -74.901,-43.244 c 6.954,4.014 15.843,1.633 19.857,-5.32 4.012,-6.952 1.632,-15.841 -5.322,-19.855 -6.951,-4.012 -15.84,-1.63 -19.852,5.321 -4.016,6.952 -1.634,15.841 5.317,19.854 m -74.898,-43.243 c 6.951,4.013 15.84,1.632 19.855,-5.32 4.015,-6.951 1.631,-15.842 -5.32,-19.854 -6.952,-4.014 -15.843,-1.634 -19.856,5.319 -4.013,6.953 -1.63,15.841 5.321,19.855 m -74.9,-43.244 c 6.952,4.015 15.84,1.633 19.856,-5.319 4.012,-6.953 1.629,-15.84 -5.321,-19.854 -6.953,-4.015 -15.841,-1.633 -19.855,5.318 -4.015,6.953 -1.632,15.841 5.32,19.855 m -74.899,-43.243 c 6.952,4.014 15.841,1.633 19.855,-5.32 4.014,-6.951 1.632,-15.84 -5.322,-19.854 -6.951,-4.014 -15.84,-1.632 -19.853,5.318 -4.013,6.955 -1.633,15.844 5.32,19.856 m 256.355,247.873 c 6.952,4.014 15.839,1.632 19.854,-5.319 4.013,-6.955 1.632,-15.842 -5.32,-19.856 -6.952,-4.014 -15.84,-1.632 -19.855,5.321 -4.014,6.951 -1.632,15.84 5.321,19.854 m -74.9,-43.244 c 6.953,4.014 15.841,1.632 19.855,-5.319 4.015,-6.952 1.632,-15.841 -5.322,-19.855 -6.95,-4.014 -15.84,-1.632 -19.854,5.32 -4.012,6.953 -1.631,15.841 5.321,19.854 m -74.9,-43.244 c 6.952,4.015 15.841,1.634 19.855,-5.317 4.014,-6.954 1.631,-15.843 -5.319,-19.857 -6.952,-4.012 -15.842,-1.632 -19.856,5.321 -4.015,6.951 -1.631,15.841 5.32,19.853 m -74.898,-43.242 c 6.951,4.013 15.84,1.633 19.852,-5.32 4.016,-6.952 1.634,-15.841 -5.319,-19.853 -6.952,-4.016 -15.841,-1.634 -19.855,5.319 -4.012,6.951 -1.632,15.84 5.322,19.854 m -74.901,-43.243 c 6.954,4.014 15.84,1.632 19.855,-5.319 4.015,-6.954 1.632,-15.843 -5.32,-19.857 -6.951,-4.012 -15.84,-1.63 -19.854,5.322 -4.014,6.951 -1.632,15.84 5.319,19.854 M 8.483,504.229 c 6.951,4.013 15.839,1.629 19.853,-5.322 4.014,-6.951 1.633,-15.841 -5.318,-19.854 -6.951,-4.014 -15.843,-1.631 -19.856,5.319 -4.014,6.951 -1.632,15.843 5.321,19.857 m -74.9,-43.243 c 6.951,4.012 15.841,1.63 19.854,-5.322 4.014,-6.951 1.633,-15.841 -5.317,-19.854 -6.954,-4.016 -15.844,-1.632 -19.857,5.321 -4.013,6.95 -1.632,15.841 5.32,19.855 m -74.899,-43.244 c 6.952,4.014 15.84,1.631 19.854,-5.32 4.014,-6.952 1.633,-15.843 -5.319,-19.857 -6.951,-4.012 -15.842,-1.629 -19.855,5.322 -4.013,6.951 -1.633,15.841 5.32,19.855 m -74.9,-43.244 c 6.95,4.015 15.842,1.631 19.855,-5.319 4.013,-6.952 1.632,-15.844 -5.321,-19.856 -6.95,-4.014 -15.84,-1.632 -19.855,5.32 -4.014,6.952 -1.63,15.843 5.321,19.855 m -74.9,-43.243 c 6.953,4.014 15.841,1.631 19.855,-5.32 4.013,-6.951 1.632,-15.841 -5.318,-19.856 -6.954,-4.014 -15.844,-1.63 -19.858,5.321 -4.012,6.951 -1.631,15.841 5.321,19.855 m -74.898,-43.245 c 6.952,4.014 15.841,1.632 19.853,-5.319 4.015,-6.951 1.635,-15.841 -5.319,-19.855 -6.952,-4.014 -15.84,-1.631 -19.855,5.32 -4.014,6.952 -1.632,15.841 5.321,19.854 M 37.03,599.6 c -0.838,0.856 -1.583,1.831 -2.21,2.916 -3.34,5.783 -2.253,12.907 2.21,17.45 z m -71.791,-20.472 c 6.951,4.013 15.841,1.63 19.854,-5.322 4.013,-6.951 1.634,-15.841 -5.319,-19.854 -6.951,-4.015 -15.841,-1.632 -19.855,5.32 -4.013,6.951 -1.631,15.843 5.32,19.856 m -74.898,-43.244 c 6.951,4.014 15.84,1.631 19.853,-5.321 4.013,-6.95 1.633,-15.841 -5.318,-19.855 -6.952,-4.014 -15.843,-1.63 -19.855,5.321 -4.014,6.95 -1.633,15.841 5.32,19.855 M -184.56,492.64 c 6.953,4.015 15.842,1.631 19.855,-5.32 4.014,-6.951 1.634,-15.841 -5.32,-19.855 -6.951,-4.014 -15.84,-1.631 -19.854,5.32 -4.013,6.953 -1.632,15.843 5.319,19.855 m -74.9,-43.242 c 6.953,4.013 15.843,1.631 19.856,-5.32 4.013,-6.952 1.631,-15.843 -5.319,-19.857 -6.953,-4.012 -15.844,-1.63 -19.857,5.321 -4.013,6.951 -1.63,15.842 5.32,19.856 m -74.897,-43.243 c 6.95,4.014 15.84,1.631 19.852,-5.322 4.015,-6.951 1.635,-15.841 -5.318,-19.854 -6.952,-4.015 -15.843,-1.631 -19.856,5.32 -4.013,6.952 -1.633,15.842 5.322,19.856 m -74.902,-43.244 c 6.953,4.014 15.842,1.631 19.857,-5.32 4.011,-6.952 1.631,-15.841 -5.321,-19.857 -6.952,-4.012 -15.841,-1.629 -19.855,5.322 -4.013,6.951 -1.632,15.841 5.319,19.855 m 432.432,-749 c 4.42,2.553 9.622,2.521 13.857,0.372 v -25.913 c -6.84,-3.487 -15.291,-1.041 -19.175,5.688 -4.015,6.952 -1.632,15.84 5.318,19.853 m -43.242,74.9 c 6.953,4.014 15.841,1.631 19.855,-5.319 4.014,-6.953 1.632,-15.842 -5.32,-19.855 -6.952,-4.015 -15.84,-1.632 -19.856,5.32 -4.012,6.952 -1.63,15.84 5.321,19.854 m 31.656,118.145 c 6.953,4.012 15.842,1.628 19.855,-5.323 4.013,-6.95 1.632,-15.841 -5.318,-19.854 -6.954,-4.015 -15.843,-1.631 -19.857,5.32 -4.012,6.952 -1.632,15.842 5.32,19.857 m -74.9,-43.244 c 6.953,4.014 15.841,1.63 19.856,-5.32 4.014,-6.953 1.632,-15.843 -5.32,-19.857 -6.952,-4.013 -15.842,-1.629 -19.854,5.322 -4.015,6.951 -1.634,15.841 5.318,19.855 M 37.03,-92.928 c -1.443,3.567 -1.371,7.463 0,10.872 z m -68.685,-25.218 c 6.951,4.014 15.84,1.63 19.854,-5.321 4.012,-6.952 1.632,-15.84 -5.32,-19.854 -6.952,-4.013 -15.842,-1.632 -19.854,5.32 -4.014,6.95 -1.633,15.841 5.32,19.855 m -74.901,-43.244 c 6.952,4.015 15.843,1.631 19.855,-5.32 4.014,-6.951 1.633,-15.84 -5.32,-19.854 -6.953,-4.014 -15.839,-1.632 -19.854,5.319 -4.013,6.953 -1.632,15.843 5.319,19.855 m -118.142,31.661 c 6.951,4.012 15.84,1.632 19.852,-5.321 4.014,-6.952 1.634,-15.841 -5.318,-19.853 -6.951,-4.014 -15.842,-1.634 -19.856,5.32 -4.012,6.951 -1.63,15.84 5.322,19.854 m -74.9,-43.244 c 6.952,4.015 15.84,1.632 19.854,-5.319 4.015,-6.954 1.633,-15.842 -5.318,-19.854 -6.953,-4.015 -15.841,-1.633 -19.856,5.32 -4.014,6.951 -1.632,15.84 5.32,19.853 m -74.899,-43.243 c 6.952,4.014 15.841,1.632 19.853,-5.319 4.014,-6.952 1.634,-15.841 -5.32,-19.856 -6.951,-4.013 -15.84,-1.631 -19.853,5.321 -4.013,6.953 -1.633,15.84 5.32,19.854 m -74.9,-43.243 c 6.951,4.014 15.841,1.633 19.855,-5.319 4.015,-6.953 1.631,-15.842 -5.32,-19.856 -6.951,-4.012 -15.841,-1.632 -19.857,5.321 -4.012,6.951 -1.629,15.84 5.322,19.854 m -74.899,-43.243 c 6.951,4.013 15.84,1.631 19.853,-5.319 4.013,-6.954 1.633,-15.842 -5.319,-19.856 -6.952,-4.015 -15.842,-1.632 -19.855,5.32 -4.014,6.953 -1.632,15.841 5.321,19.855 m -74.9,-43.244 c 6.952,4.014 15.841,1.633 19.854,-5.318 4.015,-6.954 1.633,-15.842 -5.319,-19.857 -6.953,-4.013 -15.84,-1.632 -19.856,5.322 -4.012,6.951 -1.63,15.84 5.321,19.853 m -74.9,-43.242 c 6.952,4.012 15.841,1.631 19.853,-5.321 4.014,-6.952 1.633,-15.842 -5.319,-19.853 -6.95,-4.015 -15.84,-1.634 -19.855,5.319 -4.014,6.951 -1.631,15.84 5.321,19.855 m 406.155,334.357 c 6.951,4.014 15.839,1.632 19.853,-5.319 4.013,-6.951 1.632,-15.841 -5.318,-19.855 -6.951,-4.012 -15.843,-1.631 -19.858,5.32 -4.011,6.951 -1.629,15.842 5.323,19.854 m -74.9,-43.24 c 6.95,4.012 15.841,1.629 19.854,-5.323 4.013,-6.95 1.633,-15.84 -5.32,-19.854 -6.952,-4.014 -15.841,-1.631 -19.854,5.32 -4.015,6.952 -1.633,15.843 5.32,19.857 m -74.901,-43.243 c 6.953,4.013 15.843,1.629 19.856,-5.321 4.013,-6.953 1.632,-15.843 -5.32,-19.857 -6.952,-4.013 -15.841,-1.629 -19.856,5.322 -4.011,6.951 -1.631,15.841 5.32,19.856 m -74.899,-43.245 c 6.951,4.013 15.843,1.631 19.856,-5.32 4.014,-6.951 1.631,-15.842 -5.32,-19.855 -6.952,-4.014 -15.843,-1.632 -19.856,5.32 -4.014,6.951 -1.631,15.841 5.32,19.855 m -74.9,-43.243 c 6.953,4.014 15.842,1.631 19.855,-5.32 4.013,-6.953 1.632,-15.843 -5.318,-19.856 -6.954,-4.014 -15.843,-1.63 -19.856,5.321 -4.013,6.951 -1.633,15.841 5.319,19.855 m -74.899,-43.243 c 6.952,4.013 15.842,1.63 19.855,-5.321 4.014,-6.95 1.632,-15.841 -5.32,-19.855 -6.951,-4.014 -15.841,-1.631 -19.854,5.321 -4.013,6.952 -1.634,15.842 5.319,19.855 m -74.9,-43.244 c 6.951,4.014 15.841,1.631 19.854,-5.32 4.013,-6.951 1.633,-15.841 -5.318,-19.856 -6.952,-4.012 -15.842,-1.631 -19.856,5.32 -4.013,6.952 -1.631,15.843 5.32,19.856 M -311.185,20.07 c 6.951,4.013 15.841,1.631 19.854,-5.321 4.014,-6.952 1.634,-15.842 -5.319,-19.854 -6.951,-4.014 -15.842,-1.632 -19.855,5.32 -4.015,6.951 -1.631,15.842 5.32,19.855 m -74.9,-43.243 c 6.953,4.014 15.842,1.63 19.856,-5.321 4.012,-6.952 1.63,-15.839 -5.321,-19.854 -6.952,-4.013 -15.841,-1.631 -19.855,5.32 -4.013,6.95 -1.632,15.841 5.32,19.855 m -74.899,-43.244 c 6.952,4.015 15.842,1.631 19.855,-5.32 4.014,-6.951 1.632,-15.84 -5.322,-19.854 -6.951,-4.014 -15.84,-1.632 -19.852,5.319 -4.014,6.953 -1.634,15.843 5.319,19.855 m -74.901,-43.243 c 6.951,4.014 15.844,1.632 19.858,-5.32 4.012,-6.951 1.629,-15.84 -5.323,-19.854 -6.95,-4.013 -15.84,-1.632 -19.854,5.318 -4.013,6.952 -1.631,15.843 5.319,19.856 m -74.897,-43.242 c 6.95,4.012 15.84,1.629 19.853,-5.322 4.013,-6.951 1.632,-15.84 -5.32,-19.852 -6.952,-4.016 -15.841,-1.634 -19.854,5.317 -4.014,6.952 -1.633,15.842 5.321,19.857 m -74.902,-43.244 c 6.953,4.014 15.843,1.631 19.856,-5.32 4.014,-6.952 1.632,-15.84 -5.321,-19.855 -6.951,-4.013 -15.839,-1.631 -19.853,5.32 -4.014,6.951 -1.633,15.841 5.318,19.855 m -74.898,-43.243 c 6.951,4.014 15.84,1.63 19.853,-5.322 4.013,-6.951 1.632,-15.84 -5.32,-19.852 -6.951,-4.014 -15.841,-1.634 -19.853,5.319 -4.014,6.951 -1.632,15.841 5.32,19.855 m 406.153,334.358 c 6.953,4.013 15.84,1.632 19.855,-5.321 4.013,-6.951 1.632,-15.839 -5.32,-19.853 -6.951,-4.013 -15.84,-1.632 -19.855,5.318 -4.014,6.952 -1.63,15.843 5.32,19.856 m -74.897,-43.242 c 6.95,4.012 15.839,1.631 19.853,-5.323 4.014,-6.95 1.632,-15.839 -5.32,-19.852 -6.953,-4.015 -15.841,-1.633 -19.854,5.318 -4.014,6.954 -1.633,15.843 5.321,19.857 M -504.228,8.483 c 6.954,4.014 15.841,1.632 19.855,-5.32 4.015,-6.953 1.633,-15.84 -5.32,-19.855 -6.951,-4.013 -15.839,-1.631 -19.854,5.32 -4.014,6.952 -1.632,15.841 5.319,19.855 m -74.898,-43.243 c 6.95,4.014 15.841,1.632 19.855,-5.321 4.012,-6.951 1.63,-15.841 -5.322,-19.854 -6.951,-4.014 -15.841,-1.633 -19.853,5.319 -4.016,6.953 -1.632,15.841 5.32,19.856 m -74.9,-43.244 c 6.951,4.014 15.839,1.632 19.854,-5.32 4.014,-6.953 1.632,-15.84 -5.319,-19.854 -6.954,-4.014 -15.841,-1.632 -19.856,5.319 -4.013,6.952 -1.632,15.841 5.321,19.855 m -74.902,-43.244 c 6.954,4.014 15.844,1.634 19.858,-5.32 4.012,-6.951 1.632,-15.84 -5.323,-19.853 -6.95,-4.015 -15.838,-1.633 -19.852,5.318 -4.016,6.955 -1.633,15.843 5.317,19.855 m -74.897,-43.242 c 6.95,4.013 15.84,1.631 19.853,-5.322 4.014,-6.95 1.632,-15.839 -5.319,-19.853 -6.952,-4.013 -15.842,-1.632 -19.855,5.319 -4.014,6.953 -1.63,15.843 5.321,19.856 m 406.155,334.358 c 6.95,4.013 15.839,1.632 19.852,-5.32 4.014,-6.952 1.633,-15.841 -5.319,-19.854 -6.951,-4.013 -15.841,-1.633 -19.855,5.321 -4.015,6.95 -1.631,15.839 5.322,19.853 m -74.9,-43.243 c 6.951,4.014 15.84,1.632 19.854,-5.319 4.014,-6.954 1.632,-15.841 -5.319,-19.855 -6.954,-4.014 -15.842,-1.632 -19.858,5.32 -4.011,6.951 -1.629,15.84 5.323,19.854 m -74.902,-43.244 c 6.954,4.015 15.843,1.634 19.856,-5.318 4.014,-6.953 1.634,-15.841 -5.321,-19.856 -6.951,-4.014 -15.839,-1.632 -19.853,5.32 -4.015,6.953 -1.632,15.842 5.318,19.854 M -622.37,40.138 c 6.951,4.014 15.842,1.633 19.855,-5.317 4.015,-6.954 1.631,-15.843 -5.32,-19.858 -6.952,-4.012 -15.843,-1.631 -19.856,5.321 -4.013,6.952 -1.629,15.841 5.321,19.854 m -74.9,-43.242 c 6.953,4.012 15.841,1.632 19.854,-5.32 4.015,-6.953 1.632,-15.842 -5.318,-19.854 -6.953,-4.016 -15.842,-1.634 -19.856,5.32 -4.014,6.951 -1.632,15.839 5.32,19.854 m -74.899,-43.244 c 6.952,4.014 15.841,1.632 19.856,-5.319 4.013,-6.954 1.631,-15.841 -5.322,-19.856 -6.952,-4.013 -15.841,-1.631 -19.855,5.322 -4.012,6.951 -1.63,15.839 5.321,19.853 m -74.9,-43.243 c 6.953,4.013 15.84,1.632 19.854,-5.321 4.014,-6.952 1.632,-15.841 -5.319,-19.853 -6.951,-4.014 -15.841,-1.634 -19.856,5.32 -4.013,6.951 -1.63,15.84 5.321,19.854 m 406.155,334.357 c 6.951,4.015 15.84,1.633 19.853,-5.318 4.013,-6.952 1.633,-15.842 -5.318,-19.855 -6.952,-4.013 -15.843,-1.631 -19.857,5.319 -4.012,6.953 -1.628,15.842 5.322,19.854 m -74.899,-43.24 c 6.951,4.014 15.84,1.631 19.853,-5.322 4.015,-6.951 1.634,-15.841 -5.318,-19.854 -6.953,-4.015 -15.844,-1.632 -19.856,5.321 -4.014,6.95 -1.634,15.841 5.321,19.855 m -74.902,-43.243 c 6.954,4.014 15.843,1.63 19.857,-5.321 4.012,-6.952 1.632,-15.841 -5.321,-19.857 -6.952,-4.012 -15.841,-1.628 -19.855,5.322 -4.012,6.951 -1.632,15.841 5.319,19.856 m -74.898,-43.244 c 6.951,4.014 15.842,1.63 19.855,-5.32 4.014,-6.951 1.63,-15.843 -5.32,-19.856 -6.951,-4.014 -15.843,-1.632 -19.856,5.321 -4.013,6.951 -1.631,15.842 5.321,19.855 m -74.9,-43.242 c 6.951,4.012 15.841,1.629 19.854,-5.322 4.013,-6.951 1.634,-15.841 -5.318,-19.855 -6.954,-4.014 -15.842,-1.63 -19.856,5.32 -4.013,6.951 -1.632,15.841 5.32,19.857 m -74.9,-43.245 c 6.953,4.014 15.842,1.632 19.855,-5.32 4.013,-6.951 1.632,-15.842 -5.32,-19.856 -6.95,-4.014 -15.841,-1.63 -19.853,5.323 -4.015,6.95 -1.634,15.841 5.318,19.853 m -74.899,-43.242 c 6.951,4.012 15.84,1.629 19.853,-5.322 4.015,-6.95 1.634,-15.841 -5.318,-19.855 -6.952,-4.012 -15.842,-1.631 -19.856,5.321 -4.013,6.952 -1.631,15.842 5.321,19.856 m 406.155,334.358 c 6.951,4.014 15.839,1.63 19.853,-5.322 4.014,-6.951 1.632,-15.841 -5.318,-19.854 -6.951,-4.014 -15.844,-1.632 -19.856,5.32 -4.014,6.951 -1.631,15.843 5.321,19.856 m -74.9,-43.242 c 6.953,4.012 15.841,1.629 19.855,-5.322 4.013,-6.951 1.633,-15.841 -5.319,-19.855 -6.954,-4.014 -15.842,-1.631 -19.857,5.32 -4.012,6.951 -1.632,15.841 5.321,19.857 m -74.9,-43.245 c 6.952,4.014 15.841,1.632 19.855,-5.321 4.014,-6.95 1.632,-15.841 -5.32,-19.855 -6.951,-4.014 -15.842,-1.631 -19.853,5.322 -4.015,6.951 -1.634,15.841 5.318,19.854 m -74.899,-43.243 c 6.95,4.014 15.842,1.631 19.854,-5.319 4.015,-6.953 1.633,-15.843 -5.319,-19.858 -6.951,-4.012 -15.842,-1.63 -19.856,5.321 -4.012,6.953 -1.631,15.842 5.321,19.856 m -74.899,-43.243 c 6.951,4.014 15.84,1.631 19.854,-5.321 4.012,-6.952 1.631,-15.842 -5.319,-19.854 -6.952,-4.016 -15.842,-1.632 -19.855,5.32 -4.015,6.951 -1.634,15.841 5.32,19.855 m -74.901,-43.243 c 6.952,4.013 15.843,1.631 19.855,-5.321 4.014,-6.952 1.634,-15.841 -5.32,-19.857 -6.951,-4.012 -15.84,-1.628 -19.855,5.323 -4.011,6.95 -1.631,15.841 5.32,19.855 m -74.9,-43.244 c 6.952,4.014 15.841,1.631 19.855,-5.322 4.013,-6.95 1.633,-15.841 -5.319,-19.853 -6.951,-4.014 -15.842,-1.632 -19.857,5.32 -4.012,6.951 -1.63,15.843 5.321,19.855 M 3.104,-697.271 c 6.953,4.012 15.841,1.629 19.855,-5.322 4.013,-6.95 1.632,-15.841 -5.318,-19.855 -6.954,-4.014 -15.843,-1.63 -19.857,5.321 -4.013,6.952 -1.633,15.842 5.32,19.856 m -74.9,-43.245 c 6.952,4.016 15.843,1.632 19.856,-5.32 4.013,-6.951 1.631,-15.842 -5.321,-19.855 -6.951,-4.014 -15.841,-1.63 -19.853,5.321 -4.014,6.952 -1.634,15.842 5.318,19.854 m -74.899,-43.242 c 6.951,4.013 15.842,1.631 19.856,-5.32 4.013,-6.951 1.631,-15.843 -5.32,-19.857 -6.952,-4.012 -15.843,-1.63 -19.857,5.321 -4.012,6.952 -1.63,15.843 5.321,19.856 m -74.899,-43.243 c 6.951,4.014 15.84,1.63 19.854,-5.321 4.012,-6.952 1.632,-15.842 -5.319,-19.855 -6.953,-4.013 -15.842,-1.631 -19.855,5.321 -4.014,6.95 -1.633,15.84 5.32,19.855 m -74.9,-43.244 c 6.951,4.015 15.842,1.631 19.854,-5.32 4.014,-6.952 1.634,-15.841 -5.32,-19.855 -6.951,-4.015 -15.84,-1.631 -19.853,5.319 -4.013,6.952 -1.633,15.842 5.319,19.856 m -74.9,-43.243 c 6.952,4.013 15.84,1.63 19.855,-5.321 4.012,-6.953 1.632,-15.842 -5.319,-19.855 -6.952,-4.015 -15.843,-1.631 -19.855,5.32 -4.015,6.951 -1.633,15.843 5.319,19.856 M 34.76,-579.129 c 0.738,0.426 1.497,0.777 2.27,1.062 v -27.3 c -3.09,1.13 -5.816,3.309 -7.59,6.382 -4.013,6.952 -1.63,15.841 5.32,19.856 m -74.898,-43.244 c 6.95,4.015 15.84,1.631 19.854,-5.319 4.013,-6.954 1.632,-15.844 -5.32,-19.856 -6.952,-4.014 -15.841,-1.631 -19.854,5.32 -4.015,6.952 -1.634,15.841 5.32,19.855 m -74.901,-43.243 c 6.952,4.013 15.843,1.631 19.855,-5.321 4.014,-6.95 1.633,-15.84 -5.321,-19.855 -6.95,-4.014 -15.839,-1.631 -19.852,5.321 -4.014,6.95 -1.633,15.841 5.318,19.855 m -74.898,-43.243 c 6.951,4.013 15.841,1.631 19.855,-5.321 4.013,-6.951 1.63,-15.842 -5.32,-19.855 -6.952,-4.014 -15.843,-1.631 -19.856,5.32 -4.013,6.951 -1.632,15.843 5.321,19.856 m -74.9,-43.243 c 6.95,4.013 15.841,1.629 19.854,-5.322 4.013,-6.951 1.633,-15.841 -5.32,-19.854 -6.952,-4.015 -15.841,-1.631 -19.854,5.319 -4.013,6.953 -1.633,15.844 5.32,19.857 m -74.901,-43.245 c 6.954,4.016 15.842,1.632 19.856,-5.32 4.013,-6.951 1.632,-15.841 -5.32,-19.855 -6.951,-4.013 -15.841,-1.631 -19.854,5.322 -4.014,6.95 -1.633,15.841 5.318,19.853 m -74.899,-43.242 c 6.951,4.013 15.842,1.629 19.854,-5.322 4.014,-6.95 1.634,-15.841 -5.319,-19.855 -6.951,-4.012 -15.842,-1.63 -19.855,5.321 -4.014,6.952 -1.631,15.842 5.32,19.856 M -8.481,-504.23 c 6.95,4.013 15.839,1.629 19.853,-5.321 4.013,-6.953 1.632,-15.84 -5.32,-19.854 -6.951,-4.012 -15.841,-1.632 -19.854,5.319 -4.014,6.951 -1.633,15.843 5.321,19.856 m -74.901,-43.243 c 6.951,4.013 15.842,1.629 19.855,-5.322 4.013,-6.95 1.631,-15.84 -5.32,-19.853 -6.954,-4.014 -15.841,-1.632 -19.855,5.319 -4.013,6.952 -1.632,15.842 5.32,19.856 m -74.901,-43.245 c 6.954,4.016 15.844,1.632 19.857,-5.32 4.013,-6.951 1.632,-15.84 -5.322,-19.854 -6.951,-4.012 -15.839,-1.631 -19.853,5.321 -4.013,6.951 -1.632,15.841 5.318,19.853 m -74.898,-43.242 c 6.951,4.013 15.842,1.631 19.856,-5.32 4.013,-6.951 1.63,-15.841 -5.321,-19.854 -6.953,-4.013 -15.842,-1.634 -19.855,5.318 -4.015,6.952 -1.631,15.842 5.32,19.856 m -74.9,-43.243 c 6.953,4.014 15.842,1.631 19.855,-5.321 4.013,-6.953 1.631,-15.841 -5.32,-19.853 -6.952,-4.015 -15.841,-1.633 -19.854,5.318 -4.014,6.951 -1.633,15.841 5.319,19.856 m -74.899,-43.244 c 6.952,4.014 15.842,1.631 19.855,-5.321 4.014,-6.951 1.632,-15.838 -5.32,-19.853 -6.953,-4.015 -15.841,-1.632 -19.855,5.318 -4.013,6.951 -1.632,15.842 5.32,19.856 m -74.9,-43.243 c 6.952,4.013 15.841,1.629 19.856,-5.321 4.011,-6.953 1.629,-15.84 -5.322,-19.854 -6.95,-4.012 -15.841,-1.632 -19.854,5.319 -4.013,6.951 -1.631,15.843 5.32,19.856 m 406.154,334.359 c 6.952,4.013 15.84,1.632 19.855,-5.322 4.014,-6.951 1.632,-15.84 -5.319,-19.852 -6.953,-4.015 -15.841,-1.634 -19.856,5.318 -4.014,6.954 -1.63,15.841 5.32,19.856 m -74.899,-43.244 c 6.952,4.014 15.841,1.633 19.855,-5.32 4.013,-6.953 1.63,-15.841 -5.32,-19.854 -6.953,-4.014 -15.842,-1.632 -19.855,5.319 -4.015,6.952 -1.632,15.841 5.32,19.855 m -74.899,-43.243 c 6.952,4.013 15.84,1.632 19.855,-5.321 4.014,-6.95 1.632,-15.84 -5.321,-19.853 -6.952,-4.014 -15.841,-1.632 -19.854,5.319 -4.013,6.953 -1.632,15.841 5.32,19.855 m -74.901,-43.244 c 6.953,4.014 15.843,1.633 19.857,-5.32 4.013,-6.951 1.63,-15.84 -5.322,-19.853 -6.951,-4.013 -15.84,-1.633 -19.855,5.318 -4.014,6.952 -1.63,15.843 5.32,19.855 m -74.897,-43.242 c 6.95,4.013 15.84,1.63 19.853,-5.321 4.014,-6.952 1.632,-15.84 -5.319,-19.854 -6.954,-4.014 -15.842,-1.632 -19.856,5.318 -4.013,6.954 -1.632,15.844 5.322,19.857 m -74.902,-43.245 c 6.954,4.016 15.841,1.634 19.857,-5.32 4.013,-6.951 1.631,-15.84 -5.322,-19.854 -6.951,-4.012 -15.84,-1.632 -19.854,5.321 -4.014,6.952 -1.632,15.84 5.319,19.853 m -74.898,-43.242 c 6.951,4.013 15.84,1.632 19.853,-5.322 4.013,-6.95 1.632,-15.839 -5.32,-19.852 -6.951,-4.014 -15.841,-1.634 -19.853,5.318 -4.015,6.954 -1.632,15.842 5.32,19.856 m 406.153,334.358 c 6.952,4.014 15.84,1.632 19.854,-5.319 4.014,-6.954 1.632,-15.841 -5.319,-19.855 -6.951,-4.012 -15.841,-1.632 -19.855,5.321 -4.015,6.95 -1.631,15.841 5.32,19.853 m -74.898,-43.242 c 6.951,4.013 15.84,1.631 19.852,-5.32 4.016,-6.952 1.634,-15.842 -5.317,-19.856 -6.954,-4.013 -15.843,-1.631 -19.857,5.321 -4.012,6.953 -1.632,15.841 5.322,19.855 m -74.902,-43.245 c 6.955,4.016 15.841,1.634 19.856,-5.317 4.015,-6.954 1.632,-15.843 -5.32,-19.857 -6.952,-4.012 -15.84,-1.632 -19.854,5.322 -4.015,6.951 -1.632,15.839 5.318,19.852 m -74.897,-43.242 c 6.95,4.013 15.841,1.633 19.854,-5.319 4.015,-6.953 1.631,-15.842 -5.321,-19.855 -6.951,-4.014 -15.842,-1.634 -19.855,5.32 -4.013,6.951 -1.631,15.84 5.322,19.854 m -74.9,-43.243 c 6.953,4.013 15.839,1.632 19.854,-5.32 4.014,-6.953 1.632,-15.842 -5.319,-19.854 -6.952,-4.015 -15.842,-1.633 -19.856,5.319 -4.013,6.951 -1.632,15.84 5.321,19.855 m -74.9,-43.244 c 6.952,4.014 15.841,1.631 19.854,-5.319 4.015,-6.953 1.633,-15.841 -5.321,-19.855 -6.951,-4.014 -15.839,-1.632 -19.853,5.32 -4.013,6.952 -1.632,15.84 5.32,19.854 m -74.899,-43.244 c 6.95,4.014 15.84,1.632 19.853,-5.319 4.014,-6.954 1.632,-15.841 -5.319,-19.854 -6.95,-4.013 -15.841,-1.633 -19.856,5.32 -4.013,6.95 -1.629,15.841 5.322,19.853 m 406.153,334.361 c 6.95,4.013 15.841,1.631 19.854,-5.322 4.013,-6.951 1.633,-15.841 -5.32,-19.853 -6.95,-4.015 -15.841,-1.632 -19.855,5.32 -4.012,6.951 -1.63,15.841 5.321,19.855 m -74.898,-43.243 c 6.951,4.013 15.839,1.63 19.853,-5.321 4.013,-6.952 1.632,-15.842 -5.318,-19.855 -6.953,-4.014 -15.843,-1.63 -19.856,5.321 -4.014,6.95 -1.633,15.841 5.321,19.855 m -74.902,-43.244 c 6.952,4.014 15.843,1.631 19.855,-5.32 4.014,-6.951 1.635,-15.842 -5.32,-19.855 -6.951,-4.014 -15.839,-1.631 -19.854,5.32 -4.012,6.953 -1.632,15.843 5.319,19.855 m -74.899,-43.244 c 6.952,4.015 15.842,1.632 19.856,-5.319 4.013,-6.952 1.631,-15.842 -5.32,-19.855 -6.951,-4.013 -15.843,-1.631 -19.857,5.319 -4.012,6.952 -1.63,15.844 5.321,19.855 m -74.899,-43.241 c 6.952,4.012 15.841,1.629 19.854,-5.322 4.015,-6.951 1.634,-15.841 -5.318,-19.856 -6.954,-4.013 -15.844,-1.63 -19.856,5.321 -4.015,6.952 -1.632,15.842 5.32,19.857 m -74.901,-43.244 c 6.954,4.015 15.843,1.631 19.857,-5.32 4.012,-6.953 1.632,-15.843 -5.321,-19.857 -6.952,-4.012 -15.841,-1.629 -19.855,5.321 -4.012,6.952 -1.632,15.842 5.319,19.856 m -74.898,-43.243 c 6.951,4.012 15.84,1.63 19.854,-5.322 4.014,-6.952 1.632,-15.841 -5.319,-19.854 -6.951,-4.015 -15.843,-1.632 -19.856,5.32 -4.013,6.951 -1.63,15.842 5.321,19.856 m 406.155,334.358 c 6.951,4.014 15.84,1.63 19.853,-5.321 4.013,-6.952 1.632,-15.839 -5.32,-19.854 -6.95,-4.012 -15.841,-1.631 -19.853,5.319 -4.015,6.951 -1.633,15.843 5.32,19.856 m -74.9,-43.242 c 6.951,4.012 15.841,1.628 19.854,-5.322 4.014,-6.951 1.632,-15.84 -5.319,-19.852 -6.954,-4.016 -15.841,-1.634 -19.856,5.317 -4.013,6.952 -1.632,15.842 5.321,19.857 m -74.901,-43.244 c 6.953,4.014 15.842,1.631 19.857,-5.32 4.012,-6.953 1.631,-15.841 -5.323,-19.856 -6.95,-4.012 -15.84,-1.631 -19.853,5.321 -4.013,6.951 -1.632,15.841 5.319,19.855 m -74.898,-43.243 c 6.951,4.011 15.842,1.631 19.854,-5.321 4.015,-6.951 1.631,-15.841 -5.319,-19.853 -6.953,-4.015 -15.844,-1.634 -19.856,5.318 -4.014,6.951 -1.63,15.841 5.321,19.856 m -74.9,-43.244 c 6.952,4.014 15.841,1.63 19.855,-5.321 4.012,-6.952 1.631,-15.839 -5.321,-19.853 -6.952,-4.014 -15.84,-1.632 -19.855,5.318 -4.012,6.951 -1.632,15.842 5.321,19.856 m -74.9,-43.244 c 6.953,4.014 15.843,1.63 19.855,-5.32 4.014,-6.951 1.632,-15.84 -5.322,-19.853 -6.95,-4.015 -15.84,-1.633 -19.851,5.318 -4.015,6.952 -1.634,15.843 5.318,19.855 m -74.9,-43.243 c 6.953,4.014 15.841,1.63 19.854,-5.321 4.015,-6.95 1.632,-15.839 -5.318,-19.854 -6.952,-4.012 -15.842,-1.631 -19.856,5.32 -4.013,6.95 -1.631,15.843 5.32,19.855"
           style="fill:#ffffff;fill-opacity:1;fill-rule:evenodd;stroke:none"
           id="path57" /></g><g
         id="g71"
         transform="translate(4203.1685,2029.0472)"><path
           d="m 0,0 c -98.703,0 -178.717,-80.014 -178.717,-178.717 0,-98.703 80.014,-178.718 178.717,-178.718 98.703,0 178.718,80.015 178.718,178.718 C 178.718,-80.014 98.703,0 0,0 m 0,-39.033 c 77.146,0 139.685,-62.54 139.685,-139.684 0,-77.145 -62.539,-139.685 -139.685,-139.685 -77.145,0 -139.685,62.54 -139.685,139.685 0,77.144 62.54,139.684 139.685,139.684"
           style="fill:#ffffff;fill-opacity:1;fill-rule:evenodd;stroke:none"
           id="path73" /></g><g
         id="g79"
         transform="translate(3415.6577,2274.5554)"><path
           d="m 0,0 c 34.545,0 62.552,-28.006 62.552,-62.551 0,-34.547 -28.007,-62.554 -62.552,-62.554 -34.547,0 -62.554,28.007 -62.554,62.554 C -62.554,-28.006 -34.547,0 0,0"
           style="fill:#ffffff;fill-opacity:1;fill-rule:evenodd;stroke:none"
           id="path81" /></g><g
         id="g87"
         transform="translate(2875.1753,944.8759)"><path
           d="m 0,0 c 24.396,0 44.172,-19.777 44.172,-44.172 0,-24.396 -19.776,-44.173 -44.172,-44.173 -24.396,0 -44.173,19.777 -44.173,44.173 C -44.173,-19.777 -24.396,0 0,0"
           style="fill:#ffffff;fill-opacity:1;fill-rule:evenodd;stroke:none"
           id="path89" /></g><g
         id="g91"
         transform="translate(4339.1616,1294.7567)"><path
           d="m 0,0 c 42.273,0 76.545,-34.271 76.545,-76.546 0,-42.273 -34.272,-76.545 -76.545,-76.545 -42.274,0 -76.546,34.272 -76.546,76.545 C -76.546,-34.271 -42.274,0 0,0"
           style="fill:#ffffff;fill-opacity:1;fill-rule:evenodd;stroke:none"
           id="path93" /></g><g
         id="g103"
         transform="translate(3615.3364,958.2596)"
         style="fill:#00a9b1;fill-opacity:1"><path
           d="m 0,0 c 24.396,0 44.172,-19.777 44.172,-44.172 0,-24.396 -19.776,-44.173 -44.172,-44.173 -24.396,0 -44.174,19.777 -44.174,44.173 C -44.174,-19.777 -24.396,0 0,0"
           style="fill:#00a9b1;fill-opacity:1;fill-rule:evenodd;stroke:none"
           id="path105" /></g><g
         id="g107"
         transform="translate(4193.6655,2767.1101)"
         style="fill:#00a9b1;fill-opacity:1"><path
           d="m 0,0 c 35.568,0 64.404,-28.836 64.404,-64.405 0,-35.569 -28.836,-64.406 -64.404,-64.406 -35.569,0 -64.405,28.837 -64.405,64.406 C -64.405,-28.836 -35.569,0 0,0"
           style="fill:#00a9b1;fill-opacity:1;fill-rule:evenodd;stroke:none"
           id="path109" /></g><g
         id="g111"
         transform="translate(3501.3472,2852.0896)"
         style="fill:#ffb20f;fill-opacity:1"><path
           d="m 0,0 c 24.396,0 44.172,-19.777 44.172,-44.172 0,-24.396 -19.776,-44.173 -44.172,-44.173 -24.396,0 -44.174,19.777 -44.174,44.173 C -44.174,-19.777 -24.396,0 0,0"
           style="fill:#ffb20f;fill-opacity:1;fill-rule:evenodd;stroke:none"
           id="path113" /></g><g
         id="g115"
         transform="translate(3006.8657,1724.264)"
         style="fill:#ffb20f;fill-opacity:1"><path
           d="m 0,0 c 35.568,0 64.405,-28.836 64.405,-64.405 0,-35.569 -28.837,-64.405 -64.405,-64.405 -35.568,0 -64.405,28.836 -64.405,64.405 C -64.405,-28.836 -35.568,0 0,0"
           style="fill:#ffb20f;fill-opacity:1;fill-rule:evenodd;stroke:none"
           id="path117" /></g><g
         id="g119"
         transform="translate(3583.7681,1445.4364)"
         style="fill:#00a9b1;fill-opacity:1"><path
           d="m 0,0 c 24.395,0 44.172,-19.776 44.172,-44.172 0,-24.396 -19.777,-44.173 -44.172,-44.173 -24.396,0 -44.174,19.777 -44.174,44.173 C -44.174,-19.776 -24.396,0 0,0"
           style="fill:#00a9b1;fill-opacity:1;fill-rule:evenodd;stroke:none"
           id="path121" /></g><g
         id="g127"
         transform="translate(4067.6509,2330.6741)"><path
           d="m 0,0 c 24.395,0 44.171,-19.776 44.171,-44.171 0,-24.397 -19.776,-44.174 -44.171,-44.174 -24.396,0 -44.174,19.777 -44.174,44.174 C -44.174,-19.776 -24.396,0 0,0"
           style="fill:#ffffff;fill-opacity:1;fill-rule:evenodd;stroke:none"
           id="path129" /></g><g
         id="g131"
         transform="translate(3274.0708,646.036)"><path
           d="m 0,0 c -74.647,0 -135.16,-60.513 -135.16,-135.159 0,-74.648 60.513,-135.159 135.16,-135.159 74.646,0 135.158,60.511 135.158,135.159 C 135.158,-60.513 74.646,0 0,0 m 0,-29.521 c 58.342,0 105.639,-47.295 105.639,-105.638 0,-58.344 -47.297,-105.64 -105.639,-105.64 -58.344,0 -105.64,47.296 -105.64,105.64 0,58.343 47.296,105.638 105.64,105.638"
           style="fill:#ffffff;fill-opacity:1;fill-rule:evenodd;stroke:none"
           id="path133" /></g><g
         id="g135"
         transform="translate(3661.1938,691.4198)"
         style="fill:#ffb20f;fill-opacity:1"><path
           d="m 0,0 c 35.569,0 64.405,-28.836 64.405,-64.404 0,-35.57 -28.836,-64.406 -64.405,-64.406 -35.568,0 -64.405,28.836 -64.405,64.406 C -64.405,-28.836 -35.568,0 0,0"
           style="fill:#ffb20f;fill-opacity:1;fill-rule:evenodd;stroke:none"
           id="path137" /></g></g><g
       id="g11864"
       transform="rotate(-30,2964.7974,-1830.987)"
       style="fill:#ffb20f;fill-opacity:1"><path
         d="m 0,0 -660.768,-381.494 c -60.528,-34.945 -137.921,-14.206 -172.866,46.32 -28.808,49.893 -19.776,111.251 18.19,150.843 l 167.07,102.241 c 60.527,34.945 81.264,112.34 46.319,172.866 -34.945,60.526 -112.339,81.265 -172.867,46.321 l -225.79,-130.363 0,-1639.732 843.52512,81 467.8,270.084 c 60.526,34.946 81.263,112.341 46.318,172.868 -34.945,60.526 -112.339,81.264 -172.866,46.32 l -128.319248,-74.0862 c -60.5270002,-34.944 -137.921,-14.206 -172.866002,46.32 -34.945,60.527 -14.208,137.92202 46.319002,172.86802 L 196.254,-763.44 c 60.527,34.945 81.264,112.341 46.319,172.867 -34.945,60.526 -112.339,81.265 -172.866,46.321 -60.528,-34.946 -137.922,-14.207 -172.867,46.319 -34.945,60.526 -14.208,137.922 46.319,172.867 l 183.388,105.879 c 60.527,34.945 81.265,112.341 46.32,172.867 C 137.921,14.207 60.527,34.945 0,0"
         style="fill:#ffb20f;fill-opacity:1;fill-rule:evenodd;stroke:none"
         id="path11862"
         sodipodi:nodetypes="cccccscccccsccsccscsccsc" /></g><g
       id="g10381"
       transform="rotate(-30,1184.6825,1549.1453)"><g
         id="g51"
         transform="translate(1080.7306,1335.8104)"><path
           d="m 0,0 c 6.951,4.014 15.842,1.632 19.854,-5.318 4.014,-6.954 1.633,-15.842 -5.321,-19.856 -6.95,-4.015 -15.839,-1.633 -19.854,5.32 C -9.333,-12.901 -6.952,-4.015 0,0 m -74.898,-43.244 c 6.949,4.013 15.84,1.633 19.851,-5.319 4.015,-6.954 1.633,-15.842 -5.318,-19.855 -6.95,-4.014 -15.842,-1.633 -19.856,5.32 -4.012,6.952 -1.63,15.84 5.323,19.854 m -74.901,-43.241 c 6.952,4.011 15.84,1.63 19.854,-5.322 4.015,-6.952 1.632,-15.841 -5.318,-19.854 -6.955,-4.014 -15.842,-1.634 -19.856,5.321 -4.014,6.949 -1.633,15.84 5.32,19.855 m -74.9,-43.245 c 6.952,4.013 15.842,1.632 19.854,-5.32 4.014,-6.952 1.633,-15.841 -5.319,-19.854 -6.953,-4.014 -15.841,-1.633 -19.855,5.321 -4.013,6.949 -1.632,15.84 5.32,19.853 m -74.898,-43.245 c 6.949,4.015 15.841,1.634 19.854,-5.318 4.014,-6.951 1.632,-15.841 -5.321,-19.855 -6.951,-4.013 -15.841,-1.632 -19.856,5.32 -4.011,6.952 -1.63,15.842 5.323,19.853 m -74.902,-43.241 c 6.953,4.014 15.842,1.63 19.856,-5.319 4.014,-6.954 1.631,-15.843 -5.319,-19.858 -6.954,-4.013 -15.841,-1.629 -19.857,5.322 -4.014,6.952 -1.63,15.84 5.32,19.855 m -74.899,-43.244 c 6.952,4.015 15.841,1.632 19.854,-5.318 4.015,-6.954 1.633,-15.842 -5.318,-19.856 -6.952,-4.014 -15.843,-1.632 -19.856,5.321 -4.013,6.952 -1.632,15.838 5.32,19.853 M -43.245,74.899 c 6.954,4.014 15.843,1.631 19.855,-5.32 4.015,-6.952 1.634,-15.841 -5.32,-19.855 -6.951,-4.014 -15.839,-1.631 -19.853,5.321 -4.013,6.951 -1.633,15.841 5.318,19.854 m -74.898,-43.242 c 6.951,4.013 15.841,1.63 19.854,-5.323 4.014,-6.949 1.633,-15.841 -5.319,-19.854 -6.951,-4.013 -15.841,-1.631 -19.855,5.321 -4.013,6.951 -1.631,15.841 5.32,19.856 m -74.898,-43.243 c 6.949,4.013 15.84,1.629 19.854,-5.322 4.012,-6.951 1.631,-15.843 -5.319,-19.855 -6.954,-4.014 -15.845,-1.631 -19.857,5.322 -4.014,6.949 -1.634,15.841 5.322,19.855 m -74.901,-43.245 c 6.952,4.014 15.842,1.632 19.853,-5.32 4.016,-6.952 1.634,-15.841 -5.317,-19.856 -6.952,-4.013 -15.843,-1.631 -19.857,5.322 -4.012,6.95 -1.632,15.841 5.321,19.854 m -74.9,-43.242 c 6.952,4.014 15.844,1.631 19.855,-5.323 4.016,-6.949 1.632,-15.84 -5.321,-19.854 -6.949,-4.013 -15.84,-1.631 -19.854,5.32 -4.013,6.952 -1.631,15.844 5.32,19.857 m -74.898,-43.243 c 6.949,4.013 15.839,1.629 19.853,-5.321 4.013,-6.953 1.632,-15.842 -5.319,-19.856 -6.954,-4.015 -15.842,-1.63 -19.855,5.319 -4.014,6.953 -1.633,15.843 5.321,19.858 m -74.9,-43.246 c 6.951,4.014 15.841,1.632 19.853,-5.319 4.015,-6.952 1.634,-15.841 -5.318,-19.855 -6.953,-4.014 -15.841,-1.63 -19.857,5.321 -4.011,6.952 -1.631,15.84 5.322,19.853 m 406.152,334.36 c 6.954,4.014 15.844,1.632 19.857,-5.32 4.014,-6.951 1.63,-15.84 -5.323,-19.854 -6.95,-4.013 -15.839,-1.632 -19.853,5.32 -4.013,6.952 -1.632,15.841 5.319,19.854 m -74.899,-43.242 c 6.953,4.013 15.842,1.629 19.854,-5.321 4.014,-6.952 1.632,-15.839 -5.319,-19.855 -6.95,-4.011 -15.84,-1.631 -19.855,5.319 -4.013,6.952 -1.63,15.844 5.32,19.857 m -74.898,-43.243 c 6.951,4.013 15.84,1.63 19.854,-5.322 4.013,-6.952 1.632,-15.839 -5.32,-19.852 -6.953,-4.015 -15.841,-1.633 -19.854,5.318 -4.014,6.95 -1.634,15.841 5.32,19.856 m -74.9,-43.245 c 6.952,4.016 15.842,1.631 19.854,-5.32 4.015,-6.952 1.632,-15.839 -5.32,-19.853 -6.953,-4.015 -15.839,-1.632 -19.854,5.318 -4.013,6.953 -1.632,15.842 5.32,19.855 m -74.901,-43.241 c 6.953,4.012 15.844,1.628 19.857,-5.321 4.014,-6.952 1.629,-15.842 -5.32,-19.854 -6.953,-4.015 -15.843,-1.633 -19.857,5.318 -4.013,6.951 -1.629,15.843 5.32,19.857 m -74.898,-43.244 c 6.951,4.013 15.84,1.631 19.854,-5.322 4.012,-6.95 1.632,-15.84 -5.321,-19.852 -6.952,-4.014 -15.841,-1.634 -19.853,5.319 -4.014,6.949 -1.634,15.84 5.32,19.855 m -74.9,-43.245 c 6.953,4.015 15.842,1.632 19.854,-5.32 4.014,-6.95 1.634,-15.842 -5.319,-19.856 -6.952,-4.013 -15.841,-1.63 -19.855,5.322 -4.013,6.952 -1.632,15.841 5.32,19.854 m 406.152,334.361 c 6.956,4.014 15.843,1.631 19.857,-5.32 4.014,-6.952 1.632,-15.84 -5.32,-19.856 -6.953,-4.013 -15.84,-1.63 -19.854,5.32 -4.016,6.953 -1.632,15.841 5.317,19.856 m -74.898,-43.244 c 6.952,4.013 15.84,1.632 19.856,-5.321 4.013,-6.951 1.629,-15.84 -5.32,-19.853 -6.952,-4.013 -15.842,-1.634 -19.857,5.319 -4.014,6.951 -1.628,15.841 5.321,19.855 m -74.898,-43.243 c 6.951,4.013 15.84,1.632 19.855,-5.321 4.011,-6.953 1.631,-15.84 -5.322,-19.853 -6.951,-4.015 -15.841,-1.634 -19.854,5.318 -4.014,6.953 -1.633,15.842 5.321,19.856 m -74.9,-43.245 c 6.952,4.015 15.84,1.635 19.854,-5.321 4.014,-6.949 1.632,-15.839 -5.321,-19.853 -6.952,-4.013 -15.839,-1.633 -19.854,5.32 -4.014,6.952 -1.631,15.843 5.321,19.854 m -74.9,-43.242 c 6.953,4.014 15.841,1.633 19.856,-5.321 4.014,-6.951 1.63,-15.84 -5.321,-19.853 -6.952,-4.013 -15.841,-1.632 -19.855,5.317 -4.016,6.955 -1.63,15.844 5.32,19.857 M -504.226,8.481 c 6.95,4.014 15.839,1.632 19.854,-5.32 4.013,-6.953 1.632,-15.84 -5.32,-19.854 -6.953,-4.014 -15.843,-1.632 -19.854,5.319 -4.016,6.954 -1.634,15.842 5.32,19.855 m -74.901,-43.242 c 6.952,4.014 15.839,1.631 19.855,-5.32 4.014,-6.952 1.63,-15.84 -5.322,-19.856 -6.951,-4.013 -15.839,-1.629 -19.854,5.32 -4.014,6.954 -1.632,15.841 5.321,19.856 m 406.153,334.358 c 6.954,4.014 15.841,1.631 19.855,-5.318 4.015,-6.955 1.633,-15.842 -5.32,-19.857 -6.952,-4.015 -15.84,-1.631 -19.853,5.32 -4.015,6.952 -1.632,15.84 5.318,19.855 m -74.898,-43.243 c 6.953,4.012 15.839,1.632 19.854,-5.321 4.014,-6.952 1.632,-15.841 -5.319,-19.853 -6.953,-4.014 -15.841,-1.634 -19.855,5.32 -4.015,6.949 -1.631,15.84 5.32,19.854 M -322.77,213.11 c 6.949,4.012 15.839,1.632 19.852,-5.321 4.014,-6.951 1.634,-15.841 -5.319,-19.852 -6.952,-4.015 -15.841,-1.635 -19.857,5.319 -4.012,6.951 -1.63,15.84 5.324,19.854 m -74.901,-43.244 c 6.952,4.015 15.839,1.634 19.855,-5.318 4.014,-6.953 1.63,-15.843 -5.322,-19.857 -6.951,-4.012 -15.84,-1.632 -19.854,5.324 -4.014,6.949 -1.63,15.839 5.321,19.851 m -74.9,-43.243 c 6.952,4.014 15.841,1.634 19.856,-5.319 4.014,-6.952 1.63,-15.841 -5.321,-19.855 -6.951,-4.012 -15.842,-1.633 -19.856,5.321 -4.014,6.952 -1.629,15.84 5.321,19.853 M -547.469,83.38 c 6.95,4.014 15.839,1.632 19.852,-5.319 4.014,-6.955 1.634,-15.841 -5.319,-19.856 -6.953,-4.014 -15.841,-1.632 -19.856,5.32 -4.012,6.954 -1.631,15.84 5.323,19.855 m -74.9,-43.242 c 6.952,4.013 15.839,1.63 19.854,-5.32 4.014,-6.954 1.632,-15.84 -5.321,-19.856 -6.952,-4.015 -15.84,-1.631 -19.853,5.322 -4.016,6.95 -1.632,15.839 5.32,19.854 m 406.152,334.359 c 6.952,4.014 15.842,1.632 19.856,-5.32 4.013,-6.951 1.631,-15.842 -5.32,-19.857 -6.952,-4.011 -15.843,-1.63 -19.855,5.323 -4.014,6.95 -1.633,15.841 5.319,19.854 m -74.898,-43.244 c 6.95,4.016 15.839,1.631 19.853,-5.32 4.013,-6.952 1.632,-15.841 -5.317,-19.855 -6.952,-4.013 -15.844,-1.631 -19.857,5.32 -4.014,6.953 -1.632,15.843 5.321,19.855 m -74.9,-43.241 c 6.953,4.013 15.841,1.629 19.853,-5.322 4.015,-6.952 1.634,-15.841 -5.318,-19.856 -6.953,-4.014 -15.842,-1.629 -19.856,5.32 -4.012,6.952 -1.632,15.843 5.321,19.858 m -74.9,-43.244 c 6.951,4.014 15.841,1.63 19.855,-5.321 4.013,-6.952 1.632,-15.841 -5.32,-19.854 -6.953,-4.016 -15.842,-1.631 -19.854,5.319 -4.014,6.953 -1.633,15.842 5.319,19.856 m -74.899,-43.243 c 6.95,4.012 15.842,1.629 19.856,-5.321 4.012,-6.951 1.629,-15.843 -5.32,-19.855 -6.952,-4.015 -15.845,-1.632 -19.857,5.32 -4.014,6.951 -1.631,15.842 5.321,19.856 m -74.9,-43.243 c 6.952,4.013 15.84,1.629 19.854,-5.322 4.013,-6.95 1.633,-15.842 -5.318,-19.855 -6.952,-4.014 -15.843,-1.63 -19.857,5.321 -4.012,6.95 -1.632,15.843 5.321,19.856 m -74.898,-43.246 c 6.952,4.014 15.839,1.633 19.853,-5.319 4.013,-6.95 1.632,-15.841 -5.32,-19.857 -6.953,-4.011 -15.842,-1.629 -19.854,5.324 -4.014,6.949 -1.632,15.839 5.321,19.852 m 406.153,334.36 c 6.951,4.015 15.841,1.631 19.855,-5.319 4.012,-6.953 1.632,-15.842 -5.32,-19.856 -6.952,-4.014 -15.842,-1.631 -19.854,5.321 -4.014,6.952 -1.634,15.841 5.319,19.854 m -74.899,-43.241 c 6.95,4.012 15.84,1.629 19.854,-5.323 4.012,-6.95 1.631,-15.842 -5.319,-19.854 -6.952,-4.015 -15.844,-1.633 -19.856,5.32 -4.014,6.951 -1.631,15.843 5.321,19.857 m -74.901,-43.244 c 6.953,4.013 15.843,1.631 19.854,-5.322 4.015,-6.951 1.634,-15.842 -5.318,-19.853 -6.952,-4.016 -15.842,-1.632 -19.856,5.32 -4.013,6.949 -1.632,15.841 5.32,19.855 m -74.899,-43.245 c 6.952,4.014 15.841,1.632 19.854,-5.32 4.013,-6.95 1.633,-15.841 -5.32,-19.855 -6.952,-4.013 -15.841,-1.631 -19.854,5.321 -4.013,6.951 -1.633,15.842 5.32,19.854 m -74.899,-43.242 c 6.95,4.014 15.841,1.631 19.855,-5.321 4.013,-6.95 1.631,-15.842 -5.319,-19.856 -6.953,-4.013 -15.844,-1.629 -19.856,5.32 -4.014,6.953 -1.632,15.844 5.32,19.857 m -74.899,-43.243 c 6.951,4.013 15.841,1.629 19.853,-5.321 4.014,-6.952 1.634,-15.841 -5.318,-19.856 -6.953,-4.015 -15.842,-1.629 -19.857,5.319 -4.011,6.953 -1.631,15.843 5.322,19.858 m -58.573,-44.461 c 1.384,-1.102 2.589,-2.478 3.528,-4.103 3.645,-6.317 2.013,-14.229 -3.528,-18.636 z M 302.702,-524.3 c 6.952,4.014 15.841,1.632 19.857,-5.32 4.011,-6.953 1.63,-15.843 -5.321,-19.857 -6.952,-4.013 -15.842,-1.629 -19.855,5.324 -4.014,6.949 -1.633,15.84 5.319,19.853 m -74.9,-43.243 c 6.952,4.012 15.842,1.63 19.854,-5.321 4.014,-6.952 1.634,-15.841 -5.319,-19.856 -6.949,-4.011 -15.841,-1.632 -19.855,5.322 -4.013,6.952 -1.63,15.84 5.32,19.855 m -74.898,-43.242 c 6.949,4.013 15.84,1.629 19.854,-5.32 4.013,-6.954 1.632,-15.844 -5.319,-19.858 -6.954,-4.014 -15.843,-1.632 -19.855,5.32 -4.015,6.954 -1.634,15.843 5.32,19.858 m -74.902,-43.246 c 6.953,4.014 15.844,1.633 19.858,-5.319 4.012,-6.952 1.632,-15.84 -5.321,-19.856 -6.952,-4.015 -15.841,-1.631 -19.853,5.322 -4.016,6.95 -1.634,15.841 5.316,19.853 M 3.103,-697.274 c 6.952,4.014 15.845,1.632 19.857,-5.319 4.014,-6.951 1.63,-15.843 -5.322,-19.855 -6.95,-4.014 -15.841,-1.632 -19.855,5.32 -4.012,6.951 -1.629,15.841 5.32,19.854 m -74.898,-43.243 c 6.951,4.015 15.839,1.631 19.854,-5.321 4.012,-6.951 1.631,-15.842 -5.319,-19.853 -6.954,-4.015 -15.843,-1.631 -19.855,5.32 -4.014,6.95 -1.635,15.839 5.32,19.854 m -74.9,-43.245 c 6.954,4.015 15.841,1.634 19.856,-5.318 4.012,-6.952 1.631,-15.841 -5.321,-19.857 -6.953,-4.012 -15.841,-1.628 -19.853,5.324 -4.015,6.949 -1.633,15.84 5.318,19.851 m 406.155,334.361 c 6.951,4.013 15.841,1.631 19.855,-5.322 4.013,-6.95 1.632,-15.84 -5.32,-19.856 -6.953,-4.012 -15.841,-1.629 -19.854,5.323 -4.014,6.949 -1.633,15.842 5.319,19.855 m -74.901,-43.245 c 6.952,4.015 15.841,1.631 19.854,-5.32 4.015,-6.952 1.633,-15.841 -5.318,-19.854 -6.95,-4.014 -15.843,-1.631 -19.856,5.319 -4.013,6.953 -1.63,15.843 5.32,19.855 m -74.898,-43.242 c 6.95,4.015 15.839,1.629 19.853,-5.32 4.013,-6.952 1.632,-15.842 -5.317,-19.856 -6.956,-4.015 -15.844,-1.629 -19.857,5.32 -4.014,6.952 -1.633,15.843 5.321,19.856 m -74.9,-43.243 c 6.952,4.014 15.841,1.631 19.855,-5.32 4.012,-6.952 1.632,-15.841 -5.321,-19.856 -6.952,-4.015 -15.84,-1.63 -19.853,5.321 -4.014,6.951 -1.633,15.84 5.319,19.855 m -74.902,-43.243 c 6.953,4.012 15.845,1.63 19.857,-5.32 4.014,-6.952 1.632,-15.843 -5.32,-19.856 -6.951,-4.014 -15.841,-1.632 -19.856,5.321 -4.012,6.951 -1.63,15.84 5.319,19.855 m -74.898,-43.242 c 6.951,4.012 15.84,1.629 19.856,-5.323 4.012,-6.951 1.63,-15.842 -5.319,-19.855 -6.955,-4.014 -15.844,-1.63 -19.857,5.321 -4.014,6.951 -1.634,15.842 5.32,19.857 m -74.899,-43.245 c 6.952,4.013 15.841,1.632 19.856,-5.321 4.011,-6.951 1.631,-15.84 -5.32,-19.857 -6.952,-4.011 -15.843,-1.629 -19.855,5.324 -4.014,6.949 -1.634,15.841 5.319,19.854 m 406.155,334.359 c 6.952,4.014 15.841,1.63 19.854,-5.32 4.013,-6.952 1.633,-15.84 -5.321,-19.854 -6.951,-4.014 -15.84,-1.633 -19.853,5.319 -4.013,6.952 -1.633,15.841 5.32,19.855 m -74.9,-43.242 c 6.951,4.013 15.841,1.629 19.853,-5.323 4.015,-6.95 1.633,-15.84 -5.318,-19.853 -6.953,-4.014 -15.842,-1.634 -19.857,5.319 -4.011,6.951 -1.629,15.841 5.322,19.857 m -74.899,-43.243 c 6.95,4.012 15.84,1.629 19.854,-5.323 4.013,-6.95 1.631,-15.839 -5.32,-19.851 -6.952,-4.015 -15.843,-1.634 -19.855,5.318 -4.014,6.949 -1.634,15.841 5.321,19.856 m -74.901,-43.245 c 6.953,4.013 15.843,1.631 19.857,-5.321 4.013,-6.951 1.63,-15.84 -5.324,-19.853 -6.948,-4.013 -15.839,-1.633 -19.852,5.32 -4.014,6.95 -1.633,15.841 5.319,19.854 m -74.899,-43.243 c 6.952,4.014 15.842,1.631 19.855,-5.322 4.016,-6.948 1.63,-15.839 -5.321,-19.853 -6.952,-4.013 -15.84,-1.632 -19.855,5.319 -4.012,6.952 -1.63,15.844 5.321,19.856 m -74.899,-43.243 c 6.949,4.014 15.84,1.629 19.854,-5.32 4.012,-6.952 1.632,-15.84 -5.321,-19.854 -6.952,-4.016 -15.84,-1.632 -19.853,5.317 -4.014,6.953 -1.634,15.843 5.32,19.857 m -74.899,-43.244 c 6.951,4.015 15.841,1.631 19.855,-5.32 4.013,-6.952 1.632,-15.839 -5.322,-19.854 -6.951,-4.013 -15.84,-1.632 -19.853,5.319 -4.013,6.953 -1.633,15.841 5.32,19.855 m 406.153,334.358 c 6.953,4.014 15.842,1.633 19.857,-5.32 4.012,-6.949 1.632,-15.84 -5.324,-19.853 -6.949,-4.013 -15.839,-1.633 -19.85,5.319 -4.016,6.953 -1.635,15.842 5.317,19.854 m -74.9,-43.242 c 6.953,4.014 15.84,1.63 19.854,-5.32 4.014,-6.952 1.632,-15.84 -5.319,-19.855 -6.952,-4.011 -15.841,-1.63 -19.855,5.318 -4.014,6.954 -1.63,15.845 5.32,19.857 m -74.898,-43.243 c 6.95,4.014 15.84,1.632 19.853,-5.32 4.014,-6.953 1.633,-15.84 -5.32,-19.855 -6.952,-4.013 -15.841,-1.632 -19.854,5.32 -4.013,6.954 -1.633,15.84 5.321,19.855 m -74.9,-43.244 c 6.951,4.016 15.841,1.632 19.855,-5.32 4.013,-6.951 1.633,-15.84 -5.321,-19.854 -6.951,-4.014 -15.84,-1.632 -19.852,5.319 -4.015,6.954 -1.634,15.841 5.318,19.855 m -74.901,-43.242 c 6.953,4.013 15.843,1.633 19.856,-5.32 4.015,-6.953 1.63,-15.843 -5.319,-19.854 -6.953,-4.016 -15.844,-1.633 -19.857,5.317 -4.014,6.953 -1.629,15.843 5.32,19.857 m -74.898,-43.243 c 6.951,4.012 15.839,1.631 19.854,-5.322 4.012,-6.951 1.631,-15.839 -5.321,-19.852 -6.952,-4.015 -15.841,-1.634 -19.854,5.318 -4.014,6.952 -1.633,15.842 5.321,19.856 m -74.9,-43.245 c 6.953,4.013 15.841,1.633 19.855,-5.321 4.013,-6.949 1.632,-15.84 -5.322,-19.853 -6.95,-4.013 -15.839,-1.633 -19.852,5.32 -4.014,6.952 -1.633,15.841 5.319,19.854 m 406.155,334.357 c 6.952,4.015 15.841,1.634 19.853,-5.316 4.015,-6.954 1.635,-15.843 -5.319,-19.858 -6.952,-4.013 -15.84,-1.632 -19.854,5.322 -4.013,6.951 -1.632,15.84 5.32,19.852 M 54.83,-267.947 c 6.952,4.013 15.839,1.63 19.855,-5.32 4.014,-6.954 1.63,-15.84 -5.319,-19.856 -6.952,-4.011 -15.843,-1.631 -19.857,5.322 -4.014,6.95 -1.629,15.841 5.321,19.854 m -74.898,-43.244 c 6.95,4.014 15.839,1.631 19.852,-5.319 4.014,-6.954 1.633,-15.842 -5.319,-19.855 -6.951,-4.014 -15.841,-1.632 -19.856,5.32 -4.012,6.952 -1.631,15.84 5.323,19.854 m -74.9,-43.244 c 6.952,4.016 15.841,1.632 19.853,-5.317 4.015,-6.954 1.634,-15.843 -5.32,-19.856 -6.949,-4.015 -15.839,-1.632 -19.854,5.32 -4.012,6.952 -1.631,15.839 5.321,19.853 m -74.9,-43.242 c 6.952,4.013 15.841,1.632 19.855,-5.318 4.014,-6.954 1.631,-15.845 -5.32,-19.856 -6.952,-4.015 -15.841,-1.633 -19.855,5.321 -4.016,6.949 -1.631,15.84 5.32,19.853 m -74.898,-43.243 c 6.949,4.012 15.839,1.632 19.852,-5.32 4.014,-6.952 1.634,-15.842 -5.319,-19.854 -6.952,-4.014 -15.843,-1.634 -19.857,5.32 -4.012,6.951 -1.632,15.839 5.324,19.854 m -74.901,-43.245 c 6.952,4.016 15.842,1.633 19.854,-5.317 4.015,-6.954 1.635,-15.843 -5.321,-19.857 -6.949,-4.013 -15.84,-1.632 -19.854,5.321 -4.012,6.952 -1.632,15.84 5.321,19.853 m 406.153,334.362 c 6.953,4.015 15.843,1.629 19.855,-5.32 4.014,-6.952 1.634,-15.841 -5.32,-19.856 -6.95,-4.015 -15.84,-1.629 -19.854,5.32 -4.012,6.952 -1.632,15.843 5.319,19.856 m -74.899,-43.243 c 6.95,4.013 15.84,1.63 19.854,-5.322 4.013,-6.951 1.633,-15.841 -5.318,-19.854 -6.953,-4.014 -15.843,-1.632 -19.855,5.321 -4.016,6.949 -1.632,15.84 5.319,19.855 m -74.9,-43.242 c 6.952,4.013 15.842,1.629 19.855,-5.323 4.014,-6.95 1.633,-15.842 -5.319,-19.855 -6.952,-4.013 -15.843,-1.632 -19.857,5.321 -4.012,6.951 -1.63,15.842 5.321,19.857 m -74.9,-43.245 c 6.953,4.013 15.844,1.632 19.857,-5.321 4.013,-6.951 1.633,-15.842 -5.322,-19.857 -6.949,-4.012 -15.84,-1.628 -19.854,5.324 -4.012,6.95 -1.631,15.841 5.319,19.854 m -74.898,-43.244 c 6.95,4.014 15.84,1.632 19.856,-5.32 4.011,-6.95 1.63,-15.841 -5.322,-19.855 -6.95,-4.013 -15.842,-1.631 -19.855,5.32 -4.014,6.952 -1.632,15.843 5.321,19.855 m -74.9,-43.242 c 6.952,4.014 15.841,1.629 19.853,-5.321 4.014,-6.951 1.634,-15.842 -5.318,-19.856 -6.953,-4.014 -15.841,-1.629 -19.856,5.321 -4.012,6.951 -1.631,15.841 5.321,19.856 m -74.902,-43.244 c 6.955,4.015 15.845,1.63 19.857,-5.32 4.014,-6.952 1.634,-15.841 -5.32,-19.856 -6.951,-4.014 -15.84,-1.629 -19.854,5.321 -4.012,6.951 -1.632,15.842 5.317,19.855 M 43.242,-74.904 c 6.954,4.013 15.845,1.632 19.857,-5.321 4.014,-6.951 1.63,-15.839 -5.321,-19.854 -6.952,-4.012 -15.839,-1.632 -19.854,5.321 -4.012,6.949 -1.631,15.841 5.318,19.854 m -74.898,-43.243 c 6.951,4.015 15.84,1.629 19.854,-5.322 4.012,-6.952 1.632,-15.84 -5.32,-19.853 -6.95,-4.013 -15.842,-1.632 -19.854,5.319 -4.014,6.952 -1.632,15.844 5.32,19.856 m -74.9,-43.244 c 6.952,4.015 15.842,1.63 19.854,-5.319 4.014,-6.953 1.632,-15.84 -5.319,-19.855 -6.954,-4.015 -15.841,-1.631 -19.855,5.318 -4.012,6.953 -1.632,15.843 5.32,19.856 m -74.901,-43.243 c 6.956,4.014 15.845,1.631 19.857,-5.32 4.014,-6.952 1.632,-15.84 -5.32,-19.854 -6.953,-4.013 -15.84,-1.631 -19.854,5.32 -4.013,6.952 -1.632,15.841 5.317,19.854 m -74.898,-43.242 c 6.951,4.011 15.843,1.63 19.857,-5.321 4.012,-6.951 1.629,-15.842 -5.322,-19.854 -6.951,-4.014 -15.843,-1.634 -19.855,5.319 -4.014,6.951 -1.631,15.84 5.32,19.856 m -74.899,-43.243 c 6.951,4.013 15.84,1.629 19.853,-5.321 4.014,-6.953 1.632,-15.84 -5.319,-19.853 -6.954,-4.016 -15.841,-1.634 -19.855,5.316 -4.012,6.953 -1.632,15.844 5.321,19.858 m -74.9,-43.245 c 6.953,4.013 15.842,1.632 19.855,-5.321 4.014,-6.951 1.632,-15.839 -5.321,-19.853 -6.952,-4.013 -15.839,-1.633 -19.853,5.32 -4.013,6.949 -1.632,15.841 5.319,19.854 m -118.142,31.66 c 6.95,4.014 15.839,1.633 19.852,-5.319 4.014,-6.954 1.634,-15.842 -5.319,-19.855 -6.949,-4.014 -15.841,-1.633 -19.855,5.321 -4.012,6.951 -1.631,15.839 5.322,19.853 m -74.9,-43.241 c 6.952,4.011 15.84,1.631 19.854,-5.321 4.013,-6.952 1.632,-15.842 -5.32,-19.855 -6.953,-4.014 -15.84,-1.634 -19.854,5.321 -4.014,6.95 -1.632,15.84 5.32,19.855 m -74.901,-43.245 c 6.955,4.013 15.843,1.632 19.856,-5.32 4.014,-6.952 1.632,-15.841 -5.32,-19.854 -6.952,-4.013 -15.839,-1.633 -19.854,5.321 -4.013,6.95 -1.632,15.84 5.318,19.853 m 106.558,161.385 c 6.95,4.012 15.84,1.632 19.851,-5.321 4.016,-6.949 1.634,-15.841 -5.317,-19.853 -6.951,-4.014 -15.843,-1.632 -19.857,5.32 -4.012,6.951 -1.629,15.84 5.323,19.854 m -74.901,-43.241 c 6.951,4.013 15.84,1.631 19.854,-5.321 4.012,-6.951 1.632,-15.844 -5.317,-19.856 -6.955,-4.014 -15.845,-1.631 -19.857,5.322 -4.014,6.95 -1.633,15.841 5.32,19.855 m 31.656,118.142 c 6.951,4.014 15.842,1.629 19.854,-5.321 4.014,-6.952 1.634,-15.842 -5.319,-19.856 -6.95,-4.013 -15.84,-1.629 -19.855,5.32 -4.012,6.952 -1.63,15.844 5.32,19.857 m -74.898,-43.243 c 6.95,4.013 15.84,1.63 19.854,-5.321 4.013,-6.952 1.632,-15.84 -5.32,-19.853 -6.953,-4.015 -15.843,-1.633 -19.855,5.318 -0.701,1.213 -1.207,2.485 -1.526,3.779 v 6.96 c 0.914,3.71 3.278,7.056 6.847,9.117 m 31.655,118.142 c 6.952,4.014 15.84,1.633 19.854,-5.321 4.014,-6.951 1.631,-15.84 -5.319,-19.853 -6.951,-4.013 -15.841,-1.633 -19.855,5.32 -4.014,6.951 -1.631,15.84 5.32,19.854 m -38.502,76.629 c 5.847,1.029 11.971,-1.61 15.114,-7.051 4.014,-6.952 1.63,-15.841 -5.319,-19.853 -3.082,-1.78 -6.545,-2.3 -9.795,-1.726 z m 470.936,-825.629 c 6.949,4.015 15.84,1.632 19.852,-5.318 4.014,-6.953 1.634,-15.842 -5.319,-19.856 -6.951,-4.012 -15.842,-1.632 -19.857,5.321 -4.012,6.952 -1.628,15.84 5.324,19.853 m -74.902,-43.24 c 6.953,4.013 15.844,1.629 19.856,-5.32 4.014,-6.953 1.634,-15.843 -5.319,-19.857 -6.953,-4.015 -15.842,-1.633 -19.856,5.32 -4.013,6.953 -1.631,15.842 5.319,19.857 m -74.899,-43.245 c 6.952,4.014 15.841,1.632 19.857,-5.319 4.011,-6.953 1.63,-15.841 -5.322,-19.855 -6.951,-4.016 -15.841,-1.632 -19.854,5.32 -4.014,6.95 -1.634,15.841 5.319,19.854 m -74.9,-43.243 c 6.952,4.013 15.843,1.631 19.856,-5.32 4.014,-6.95 1.631,-15.843 -5.321,-19.855 -6.949,-4.014 -15.841,-1.632 -19.855,5.321 -4.012,6.95 -1.631,15.841 5.32,19.854 m -74.898,-43.243 c 6.952,4.014 15.841,1.63 19.854,-5.322 4.014,-6.95 1.633,-15.841 -5.319,-19.853 -6.953,-4.014 -15.841,-1.63 -19.855,5.32 -4.012,6.951 -1.633,15.84 5.32,19.855 m -74.901,-43.244 c 6.952,4.015 15.843,1.633 19.857,-5.319 4.012,-6.953 1.632,-15.842 -5.321,-19.857 -6.952,-4.011 -15.842,-1.629 -19.853,5.323 -4.016,6.949 -1.634,15.84 5.317,19.853 m 331.255,291.116 c 6.952,4.015 15.841,1.629 19.854,-5.322 4.014,-6.952 1.633,-15.841 -5.319,-19.854 -6.949,-4.013 -15.841,-1.631 -19.855,5.32 -4.013,6.952 -1.631,15.843 5.32,19.856 m -74.898,-43.243 c 6.952,4.014 15.841,1.629 19.854,-5.32 4.013,-6.953 1.633,-15.843 -5.32,-19.857 -6.952,-4.014 -15.84,-1.629 -19.855,5.32 -4.012,6.953 -1.632,15.843 5.321,19.857 m -74.902,-43.243 c 6.952,4.014 15.843,1.63 19.857,-5.321 4.013,-6.952 1.632,-15.841 -5.32,-19.856 -6.953,-4.014 -15.841,-1.629 -19.854,5.322 -4.015,6.952 -1.633,15.841 5.317,19.855 m -74.9,-43.243 c 6.953,4.012 15.845,1.63 19.857,-5.321 4.014,-6.951 1.631,-15.843 -5.321,-19.856 -6.95,-4.013 -15.842,-1.632 -19.855,5.321 -4.013,6.951 -1.63,15.84 5.319,19.856 m -74.898,-43.243 c 6.953,4.013 15.842,1.629 19.854,-5.321 4.014,-6.952 1.634,-15.843 -5.319,-19.856 -6.951,-4.015 -15.841,-1.631 -19.855,5.32 -4.013,6.951 -1.632,15.843 5.32,19.857 m -74.899,-43.245 c 6.952,4.013 15.841,1.633 19.855,-5.321 4.012,-6.95 1.632,-15.84 -5.321,-19.856 -6.952,-4.011 -15.841,-1.629 -19.853,5.323 -4.014,6.949 -1.634,15.841 5.319,19.854 m -53.194,-54.143 c 0.13,-1.126 0.13,-2.256 0,-3.367 z m 384.447,345.261 c 6.953,4.012 15.842,1.628 19.854,-5.324 4.016,-6.95 1.632,-15.839 -5.317,-19.852 -6.953,-4.015 -15.843,-1.634 -19.857,5.318 -4.013,6.952 -1.629,15.843 5.32,19.858 m -74.898,-43.244 c 6.953,4.012 15.841,1.631 19.854,-5.323 4.014,-6.95 1.632,-15.838 -5.321,-19.851 -6.952,-4.015 -15.839,-1.634 -19.853,5.318 -4.013,6.949 -1.632,15.842 5.32,19.856 m -74.899,-43.245 c 6.952,4.014 15.841,1.631 19.855,-5.321 4.012,-6.949 1.632,-15.84 -5.322,-19.853 -6.951,-4.013 -15.84,-1.632 -19.853,5.32 -4.013,6.951 -1.633,15.841 5.32,19.854 m -74.902,-43.243 c 6.952,4.015 15.844,1.631 19.857,-5.321 4.014,-6.949 1.629,-15.84 -5.321,-19.854 -6.952,-4.012 -15.84,-1.63 -19.856,5.319 -4.011,6.952 -1.629,15.844 5.32,19.856 m -74.898,-43.243 c 6.952,4.014 15.843,1.629 19.855,-5.32 4.014,-6.952 1.631,-15.84 -5.321,-19.854 -6.952,-4.014 -15.838,-1.631 -19.854,5.318 -4.012,6.952 -1.631,15.842 5.32,19.856 m -74.9,-43.244 c 6.953,4.015 15.842,1.631 19.857,-5.319 4.011,-6.953 1.63,-15.84 -5.324,-19.855 -6.949,-4.013 -15.839,-1.632 -19.852,5.32 -4.014,6.952 -1.633,15.84 5.319,19.854 m 331.255,291.116 c 6.951,4.015 15.84,1.631 19.854,-5.32 4.014,-6.952 1.632,-15.839 -5.319,-19.854 -6.952,-4.012 -15.841,-1.631 -19.857,5.318 -4.014,6.954 -1.628,15.845 5.322,19.856 m -74.898,-43.243 c 6.951,4.014 15.84,1.632 19.854,-5.32 4.014,-6.953 1.63,-15.84 -5.32,-19.855 -6.953,-4.013 -15.84,-1.631 -19.856,5.32 -4.014,6.954 -1.63,15.842 5.322,19.855 m -74.901,-43.243 c 6.952,4.016 15.842,1.632 19.856,-5.321 4.014,-6.95 1.631,-15.84 -5.323,-19.854 -6.949,-4.013 -15.839,-1.632 -19.852,5.32 -4.014,6.954 -1.634,15.84 5.319,19.855 m -74.9,-43.243 c 6.953,4.014 15.841,1.633 19.856,-5.319 4.015,-6.954 1.63,-15.843 -5.321,-19.855 -6.952,-4.016 -15.841,-1.633 -19.855,5.317 -4.014,6.954 -1.631,15.843 5.32,19.857 m -74.898,-43.243 c 6.952,4.012 15.84,1.632 19.854,-5.322 4.014,-6.951 1.631,-15.839 -5.321,-19.852 -6.952,-4.014 -15.84,-1.634 -19.854,5.319 -4.014,6.952 -1.632,15.841 5.321,19.855 m 256.354,247.871 c 6.952,4.013 15.839,1.632 19.854,-5.32 4.014,-6.953 1.631,-15.84 -5.319,-19.856 -6.953,-4.011 -15.842,-1.631 -19.856,5.322 -4.014,6.95 -1.63,15.841 5.321,19.854 m -74.898,-43.243 c 6.952,4.013 15.839,1.631 19.853,-5.32 4.015,-6.954 1.633,-15.841 -5.32,-19.854 -6.952,-4.015 -15.84,-1.633 -19.854,5.319 -4.014,6.953 -1.631,15.84 5.321,19.855 m -74.9,-43.243 c 6.951,4.014 15.841,1.63 19.853,-5.319 4.015,-6.954 1.635,-15.842 -5.32,-19.856 -6.951,-4.015 -15.839,-1.632 -19.854,5.32 -4.012,6.952 -1.631,15.84 5.321,19.855 m -74.902,-43.243 c 6.953,4.012 15.843,1.632 19.857,-5.319 4.014,-6.954 1.629,-15.843 -5.32,-19.856 -6.952,-4.015 -15.843,-1.633 -19.857,5.321 -4.014,6.949 -1.628,15.84 5.32,19.854 m -73.262,-42.431 c 6.655,2.806 14.513,0.284 18.218,-6.133 4.016,-6.952 1.632,-15.842 -5.32,-19.854 -4.093,-2.362 -8.853,-2.508 -12.898,-0.813 z m 254.718,247.061 c 6.951,4.013 15.84,1.63 19.855,-5.322 4.012,-6.951 1.631,-15.841 -5.318,-19.854 -6.953,-4.013 -15.845,-1.631 -19.857,5.321 -4.014,6.949 -1.63,15.841 5.32,19.855 m -74.899,-43.242 c 6.952,4.013 15.84,1.629 19.855,-5.323 4.013,-6.95 1.632,-15.841 -5.32,-19.854 -6.951,-4.014 -15.842,-1.633 -19.854,5.321 -4.014,6.95 -1.634,15.841 5.319,19.856 m -74.9,-43.245 c 6.954,4.014 15.842,1.632 19.855,-5.32 4.014,-6.952 1.634,-15.843 -5.32,-19.857 -6.949,-4.013 -15.84,-1.629 -19.854,5.323 -4.012,6.95 -1.632,15.841 5.319,19.854 m -74.898,-43.243 c 6.949,4.013 15.841,1.632 19.855,-5.321 4.012,-6.949 1.631,-15.841 -5.32,-19.855 -6.953,-4.013 -15.844,-1.631 -19.856,5.32 -4.015,6.952 -1.631,15.843 5.321,19.856 m 181.455,204.629 c 6.95,4.015 15.84,1.629 19.854,-5.322 4.012,-6.952 1.632,-15.839 -5.32,-19.852 -6.951,-4.014 -15.842,-1.633 -19.854,5.318 -4.016,6.952 -1.632,15.844 5.32,19.856 m -74.901,-43.243 c 6.953,4.014 15.843,1.629 19.857,-5.32 4.012,-6.953 1.632,-15.84 -5.32,-19.854 -6.953,-4.016 -15.843,-1.632 -19.854,5.317 -4.016,6.953 -1.634,15.844 5.317,19.857 m -74.9,-43.243 c 6.954,4.014 15.845,1.63 19.857,-5.321 4.014,-6.952 1.631,-15.84 -5.322,-19.854 -6.951,-4.013 -15.84,-1.631 -19.853,5.32 -4.013,6.952 -1.631,15.841 5.318,19.855 m -61.675,-42.572 c 2.694,-1.207 5.045,-3.241 6.634,-5.992 4.011,-6.951 1.629,-15.842 -5.323,-19.854 -0.431,-0.249 -0.867,-0.471 -1.311,-0.672 z"
           style="fill:#ffffff;fill-opacity:1;fill-rule:evenodd;stroke:none"
           id="path53" /></g><path
         d="m 164.80303,673.58 c -6.951,-4.014 -15.842,-1.632 -19.854,5.318 -4.014,6.954 -1.633,15.842 5.321,19.856 6.95,4.015 15.839,1.633 19.854,-5.32 4.012,-6.953 1.631,-15.839 -5.321,-19.854 m 74.898,43.244 c -6.949,-4.013 -15.84,-1.633 -19.851,5.319 -4.015,6.954 -1.633,15.842 5.318,19.855 6.95,4.014 15.842,1.633 19.856,-5.32 4.012,-6.952 1.63,-15.84 -5.323,-19.854 m 74.901,43.241 c -6.952,-4.011 -15.84,-1.63 -19.854,5.322 -4.015,6.952 -1.632,15.841 5.318,19.854 6.955,4.014 15.842,1.634 19.856,-5.321 4.014,-6.949 1.633,-15.84 -5.32,-19.855 m 74.9,43.245 c -6.952,-4.013 -15.842,-1.632 -19.854,5.32 -4.014,6.952 -1.633,15.841 5.319,19.854 6.953,4.014 15.841,1.633 19.855,-5.321 4.013,-6.949 1.632,-15.84 -5.32,-19.853 m 74.898,43.245 c -6.949,-4.015 -15.841,-1.634 -19.854,5.318 -4.014,6.951 -1.632,15.841 5.321,19.855 6.951,4.013 15.841,1.632 19.856,-5.32 4.011,-6.952 1.63,-15.842 -5.323,-19.853 m 74.902,43.241 c -6.953,-4.014 -15.842,-1.63 -19.856,5.319 -4.014,6.954 -1.631,15.843 5.319,19.858 6.954,4.013 15.841,1.629 19.857,-5.322 4.014,-6.952 1.63,-15.84 -5.32,-19.855 m 74.899,43.244 c -6.952,-4.015 -15.841,-1.632 -19.854,5.318 -4.015,6.954 -1.633,15.842 5.318,19.856 6.952,4.014 15.843,1.632 19.856,-5.321 4.013,-6.952 1.632,-15.838 -5.32,-19.853 m -406.153,-334.359 c -6.954,-4.014 -15.843,-1.631 -19.855,5.32 -4.015,6.952 -1.634,15.841 5.32,19.855 6.951,4.014 15.839,1.631 19.853,-5.321 4.013,-6.951 1.633,-15.841 -5.318,-19.854 m 74.898,43.242 c -6.951,-4.013 -15.841,-1.63 -19.854,5.323 -4.014,6.949 -1.633,15.841 5.319,19.854 6.951,4.013 15.841,1.631 19.855,-5.321 4.013,-6.951 1.631,-15.841 -5.32,-19.856 m 74.898,43.243 c -6.949,-4.013 -15.84,-1.629 -19.854,5.322 -4.012,6.951 -1.631,15.843 5.319,19.855 6.954,4.014 15.845,1.631 19.857,-5.322 4.014,-6.949 1.634,-15.841 -5.322,-19.855 m 74.901,43.245 c -6.952,-4.014 -15.842,-1.632 -19.853,5.32 -4.016,6.952 -1.634,15.841 5.317,19.856 6.952,4.013 15.843,1.631 19.857,-5.322 4.012,-6.95 1.632,-15.841 -5.321,-19.854 m 74.9,43.242 c -6.952,-4.014 -15.844,-1.631 -19.855,5.323 -4.016,6.949 -1.632,15.84 5.321,19.854 6.949,4.013 15.84,1.631 19.854,-5.32 4.013,-6.952 1.631,-15.844 -5.32,-19.857 m 74.898,43.243 c -6.949,-4.013 -15.839,-1.629 -19.853,5.321 -4.013,6.953 -1.632,15.842 5.319,19.856 6.954,4.015 15.842,1.63 19.855,-5.319 4.014,-6.953 1.633,-15.843 -5.321,-19.858 m 74.9,43.246 c -6.951,-4.014 -15.841,-1.632 -19.853,5.319 -4.015,6.952 -1.634,15.841 5.318,19.855 6.953,4.014 15.841,1.63 19.857,-5.321 4.011,-6.952 1.631,-15.84 -5.322,-19.853 m -406.152,-334.36 c -6.954,-4.014 -15.844,-1.632 -19.857,5.32 -4.014,6.951 -1.63,15.84 5.323,19.854 6.95,4.013 15.839,1.632 19.853,-5.32 4.013,-6.952 1.632,-15.841 -5.319,-19.854 m 74.899,43.242 c -6.953,-4.013 -15.842,-1.629 -19.854,5.321 -4.014,6.952 -1.632,15.839 5.319,19.855 6.95,4.011 15.84,1.631 19.855,-5.319 4.013,-6.952 1.63,-15.844 -5.32,-19.857 m 74.898,43.243 c -6.951,-4.013 -15.84,-1.63 -19.854,5.322 -4.013,6.952 -1.632,15.839 5.32,19.852 6.953,4.015 15.841,1.633 19.854,-5.318 4.014,-6.95 1.634,-15.841 -5.32,-19.856 m 74.9,43.245 c -6.952,-4.016 -15.842,-1.631 -19.854,5.32 -4.015,6.952 -1.632,15.839 5.32,19.853 6.953,4.015 15.839,1.632 19.854,-5.318 4.013,-6.953 1.632,-15.842 -5.32,-19.855 m 74.901,43.241 c -6.953,-4.012 -15.844,-1.628 -19.857,5.321 -4.014,6.952 -1.629,15.842 5.32,19.854 6.953,4.015 15.843,1.633 19.857,-5.318 4.013,-6.951 1.629,-15.843 -5.32,-19.857 m 74.898,43.244 c -6.951,-4.013 -15.84,-1.631 -19.854,5.322 -4.012,6.95 -1.632,15.84 5.321,19.852 6.952,4.014 15.841,1.634 19.853,-5.319 4.014,-6.949 1.634,-15.84 -5.32,-19.855 m 74.9,43.245 c -6.953,-4.015 -15.842,-1.632 -19.854,5.32 -4.014,6.95 -1.634,15.842 5.319,19.856 6.952,4.013 15.841,1.63 19.855,-5.322 4.013,-6.952 1.632,-15.841 -5.32,-19.854 m -406.152,-334.361 c -6.956,-4.014 -15.843,-1.631 -19.857,5.32 -4.014,6.952 -1.632,15.84 5.32,19.856 6.953,4.013 15.84,1.63 19.854,-5.32 4.016,-6.953 1.632,-15.841 -5.317,-19.856 m 74.898,43.244 c -6.952,-4.013 -15.84,-1.632 -19.856,5.321 -4.013,6.951 -1.629,15.84 5.32,19.853 6.952,4.013 15.842,1.634 19.857,-5.319 4.014,-6.951 1.628,-15.841 -5.321,-19.855 m 74.898,43.243 c -6.951,-4.013 -15.84,-1.632 -19.855,5.321 -4.011,6.953 -1.631,15.84 5.322,19.853 6.951,4.015 15.841,1.634 19.854,-5.318 4.014,-6.953 1.633,-15.842 -5.321,-19.856 m 74.9,43.245 c -6.952,-4.015 -15.84,-1.635 -19.854,5.321 -4.014,6.949 -1.632,15.839 5.321,19.853 6.952,4.013 15.839,1.633 19.854,-5.32 4.014,-6.952 1.631,-15.843 -5.321,-19.854 m 74.9,43.242 c -6.953,-4.014 -15.841,-1.633 -19.856,5.321 -4.014,6.951 -1.63,15.84 5.321,19.853 6.952,4.013 15.841,1.632 19.855,-5.317 4.016,-6.955 1.63,-15.844 -5.32,-19.857 m 74.898,43.244 c -6.95,-4.014 -15.839,-1.632 -19.854,5.32 -4.013,6.953 -1.632,15.84 5.32,19.854 6.953,4.014 15.843,1.632 19.854,-5.319 4.016,-6.954 1.634,-15.842 -5.32,-19.855 m 74.901,43.242 c -6.952,-4.014 -15.839,-1.631 -19.855,5.32 -4.014,6.952 -1.63,15.84 5.322,19.856 6.951,4.013 15.839,1.629 19.854,-5.32 4.014,-6.954 1.632,-15.841 -5.321,-19.856 m -406.153,-334.358 c -6.954,-4.014 -15.841,-1.631 -19.855,5.318 -4.015,6.955 -1.633,15.842 5.32,19.857 6.952,4.015 15.84,1.631 19.853,-5.32 4.015,-6.952 1.632,-15.84 -5.318,-19.855 m 74.898,43.243 c -6.953,-4.012 -15.839,-1.632 -19.854,5.321 -4.014,6.952 -1.632,15.841 5.319,19.853 6.953,4.014 15.841,1.634 19.855,-5.32 4.015,-6.949 1.631,-15.84 -5.32,-19.854 m 74.898,43.244 c -6.949,-4.012 -15.839,-1.632 -19.852,5.321 -4.014,6.951 -1.634,15.841 5.319,19.852 6.952,4.015 15.841,1.635 19.857,-5.319 4.012,-6.951 1.63,-15.84 -5.324,-19.854 m 74.901,43.244 c -6.952,-4.015 -15.839,-1.634 -19.855,5.318 -4.014,6.953 -1.63,15.843 5.322,19.857 6.951,4.012 15.84,1.632 19.854,-5.324 4.014,-6.949 1.63,-15.839 -5.321,-19.851 m 74.9,43.243 c -6.952,-4.014 -15.841,-1.634 -19.856,5.319 -4.014,6.952 -1.63,15.841 5.321,19.855 6.951,4.012 15.842,1.633 19.856,-5.321 4.014,-6.952 1.629,-15.84 -5.321,-19.853 m 74.898,43.243 c -6.95,-4.014 -15.839,-1.632 -19.852,5.319 -4.014,6.955 -1.634,15.841 5.319,19.856 6.953,4.014 15.841,1.632 19.856,-5.32 4.012,-6.954 1.631,-15.84 -5.323,-19.855 m 74.9,43.242 c -6.952,-4.013 -15.839,-1.63 -19.854,5.32 -4.014,6.954 -1.632,15.84 5.321,19.856 6.952,4.015 15.84,1.631 19.853,-5.322 4.016,-6.95 1.632,-15.839 -5.32,-19.854 m -406.152,-334.359 c -6.952,-4.014 -15.842,-1.632 -19.856,5.32 -4.013,6.951 -1.631,15.842 5.32,19.857 6.952,4.011 15.843,1.63 19.855,-5.323 4.014,-6.95 1.633,-15.841 -5.319,-19.854 m 74.898,43.244 c -6.95,-4.016 -15.839,-1.631 -19.853,5.32 -4.013,6.952 -1.632,15.841 5.317,19.855 6.952,4.013 15.844,1.631 19.857,-5.32 4.014,-6.953 1.632,-15.843 -5.321,-19.855 m 74.9,43.241 c -6.953,-4.013 -15.841,-1.629 -19.853,5.322 -4.015,6.952 -1.634,15.841 5.318,19.856 6.953,4.014 15.842,1.629 19.856,-5.32 4.012,-6.952 1.632,-15.843 -5.321,-19.858 m 74.9,43.244 c -6.951,-4.014 -15.841,-1.63 -19.855,5.321 -4.013,6.952 -1.632,15.841 5.32,19.854 6.953,4.016 15.842,1.631 19.854,-5.319 4.014,-6.953 1.633,-15.842 -5.319,-19.856 m 74.899,43.243 c -6.95,-4.012 -15.842,-1.629 -19.856,5.321 -4.012,6.951 -1.629,15.843 5.32,19.855 6.952,4.015 15.845,1.632 19.857,-5.32 4.014,-6.951 1.631,-15.842 -5.321,-19.856 m 74.9,43.243 c -6.952,-4.013 -15.84,-1.629 -19.854,5.322 -4.013,6.95 -1.633,15.842 5.318,19.855 6.952,4.014 15.843,1.63 19.857,-5.321 4.012,-6.95 1.632,-15.843 -5.321,-19.856 m 74.898,43.246 c -6.952,-4.014 -15.839,-1.633 -19.853,5.319 -4.013,6.95 -1.632,15.841 5.32,19.857 6.953,4.011 15.842,1.629 19.854,-5.324 4.014,-6.949 1.632,-15.839 -5.321,-19.852 m -406.153,-334.36 c -6.951,-4.015 -15.841,-1.631 -19.855,5.319 -4.012,6.953 -1.632,15.842 5.32,19.856 6.952,4.014 15.842,1.631 19.854,-5.321 4.014,-6.952 1.634,-15.841 -5.319,-19.854 m 74.899,43.241 c -6.95,-4.012 -15.84,-1.629 -19.854,5.323 -4.012,6.95 -1.631,15.842 5.319,19.854 6.952,4.015 15.844,1.633 19.856,-5.32 4.014,-6.951 1.631,-15.843 -5.321,-19.857 m 74.901,43.244 c -6.953,-4.013 -15.843,-1.631 -19.854,5.322 -4.015,6.951 -1.634,15.842 5.318,19.853 6.952,4.016 15.842,1.632 19.856,-5.32 4.013,-6.949 1.632,-15.841 -5.32,-19.855 m 74.899,43.245 c -6.952,-4.014 -15.841,-1.632 -19.854,5.32 -4.013,6.95 -1.633,15.841 5.32,19.855 6.952,4.013 15.841,1.631 19.854,-5.321 4.013,-6.951 1.633,-15.842 -5.32,-19.854 m 74.899,43.242 c -6.95,-4.014 -15.841,-1.631 -19.855,5.321 -4.013,6.95 -1.631,15.842 5.319,19.856 6.953,4.013 15.844,1.629 19.856,-5.32 4.014,-6.953 1.632,-15.844 -5.32,-19.857 m 74.899,43.243 c -6.951,-4.013 -15.841,-1.629 -19.853,5.321 -4.014,6.952 -1.634,15.841 5.318,19.856 6.953,4.015 15.842,1.629 19.857,-5.319 4.011,-6.953 1.631,-15.843 -5.322,-19.858 m 58.573,44.461 c -1.384,1.102 -2.589,2.478 -3.528,4.103 -3.645,6.317 -2.013,14.229 3.528,18.636 z m -995.231,713.02 c -6.952,-4.014 -15.841,-1.632 -19.857,5.32 -4.011,6.953 -1.63,15.843 5.321,19.857 6.952,4.013 15.842,1.629 19.855,-5.324 4.014,-6.949 1.633,-15.84 -5.319,-19.853 m 74.900002,43.243 c -6.952,-4.012 -15.842,-1.63 -19.854,5.321 -4.014,6.952 -1.634,15.841 5.319,19.856 6.949,4.011 15.841,1.632 19.855,-5.322 4.013,-6.952 1.63,-15.84 -5.32,-19.855 m 74.898,43.242 c -6.949,-4.013 -15.84,-1.629 -19.854,5.32 -4.013,6.954 -1.632,15.844 5.319,19.858 6.954,4.014 15.843,1.632 19.855,-5.32 4.015,-6.954 1.634,-15.843 -5.32,-19.858 m 74.902,43.246 c -6.953,-4.014 -15.844,-1.633 -19.858,5.319 -4.012,6.952 -1.632,15.84 5.321,19.856 6.952,4.015 15.841,1.631 19.853,-5.322 4.016,-6.95 1.634,-15.841 -5.316,-19.853 m 74.898998,43.243 c -6.952,-4.014 -15.845,-1.632 -19.857,5.319 -4.014,6.951 -1.63,15.843 5.322,19.855 6.95,4.014 15.841,1.632 19.855,-5.32 4.012,-6.951 1.629,-15.841 -5.32,-19.854 m 74.898,43.243 c -6.951,-4.015 -15.839,-1.631 -19.854,5.321 -4.012,6.951 -1.631,15.842 5.319,19.853 6.954,4.015 15.843,1.631 19.855,-5.32 4.014,-6.95 1.635,-15.839 -5.32,-19.854 m 74.9,43.245 c -6.954,-4.015 -15.841,-1.634 -19.856,5.318 -4.012,6.952 -1.631,15.841 5.321,19.857 6.953,4.012 15.841,1.628 19.853,-5.324 4.015,-6.949 1.633,-15.84 -5.318,-19.851 M -94.656968,1122.981 c -6.951002,-4.013 -15.841002,-1.631 -19.855002,5.322 -4.013,6.95 -1.632,15.84 5.32,19.856 6.953,4.012 15.841002,1.629 19.854002,-5.323 4.014,-6.949 1.633,-15.842 -5.319,-19.855 m 74.901,43.245 c -6.952,-4.015 -15.841,-1.631 -19.854,5.32 -4.015,6.952 -1.633,15.841 5.318,19.854 6.95,4.014 15.843,1.631 19.856,-5.319 4.013,-6.953 1.63,-15.843 -5.32,-19.855 m 74.898,43.242 c -6.95,-4.015 -15.839,-1.629 -19.853,5.32 -4.013,6.952 -1.632,15.842 5.317,19.856 6.956,4.015 15.844,1.629 19.857,-5.32 4.014,-6.952 1.633,-15.843 -5.321,-19.856 m 74.899998,43.243 c -6.952,-4.014 -15.841,-1.631 -19.855,5.32 -4.012,6.952 -1.632,15.841 5.321,19.856 6.952,4.015 15.84,1.63 19.853,-5.321 4.014,-6.951 1.633,-15.84 -5.319,-19.855 m 74.902,43.243 c -6.953,-4.012 -15.845,-1.63 -19.857,5.32 -4.014,6.952 -1.632,15.843 5.32,19.856 6.951,4.014 15.841,1.632 19.856,-5.321 4.012,-6.951 1.63,-15.84 -5.319,-19.855 m 74.898,43.242 c -6.951,-4.012 -15.84,-1.629 -19.856,5.323 -4.012,6.951 -1.63,15.842 5.319,19.855 6.955,4.014 15.844,1.63 19.857,-5.321 4.014,-6.951 1.634,-15.842 -5.32,-19.857 m 74.899,43.245 c -6.952,-4.013 -15.841,-1.632 -19.856,5.321 -4.011,6.951 -1.631,15.84 5.32,19.857 6.952,4.011 15.843,1.629 19.855,-5.324 4.014,-6.949 1.634,-15.841 -5.319,-19.854 M -51.413968,1048.082 c -6.952,-4.014 -15.841,-1.63 -19.854,5.32 -4.013,6.952 -1.633,15.84 5.321,19.854 6.951,4.014 15.84,1.633 19.853,-5.319 4.013,-6.952 1.633,-15.841 -5.32,-19.855 m 74.9,43.242 c -6.951,-4.013 -15.841,-1.629 -19.853,5.323 -4.015,6.95 -1.633,15.84 5.318,19.853 6.953,4.014 15.842,1.634 19.857,-5.319 4.011,-6.951 1.629,-15.841 -5.322,-19.857 m 74.899,43.243 c -6.95,-4.012 -15.84,-1.629 -19.854,5.323 -4.013,6.95 -1.631,15.839 5.32,19.851 6.952,4.015 15.843,1.634 19.854998,-5.318 4.014,-6.949 1.634,-15.841 -5.320998,-19.856 m 74.900998,43.245 c -6.953,-4.013 -15.843,-1.631 -19.857,5.321 -4.013,6.951 -1.63,15.84 5.324,19.853 6.948,4.013 15.839,1.633 19.852,-5.32 4.014,-6.95 1.633,-15.841 -5.319,-19.854 m 74.899,43.243 c -6.952,-4.014 -15.842,-1.631 -19.855,5.322 -4.016,6.948 -1.63,15.839 5.321,19.853 6.952,4.013 15.84,1.632 19.855,-5.319 4.012,-6.952 1.63,-15.844 -5.321,-19.856 m 74.899,43.243 c -6.949,-4.014 -15.84,-1.629 -19.854,5.32 -4.012,6.952 -1.632,15.84 5.321,19.854 6.952,4.016 15.84,1.632 19.853,-5.317 4.014,-6.953 1.634,-15.843 -5.32,-19.857 m 74.899,43.244 c -6.951,-4.015 -15.841,-1.631 -19.855,5.32 -4.013,6.952 -1.632,15.839 5.322,19.854 6.951,4.013 15.84,1.632 19.853,-5.319 4.013,-6.953 1.633,-15.841 -5.32,-19.855 M -8.169968,973.184 c -6.953,-4.014 -15.842,-1.633 -19.857,5.32 -4.012,6.949 -1.632,15.84 5.324,19.853 6.949,4.013 15.839,1.633 19.85,-5.319 4.016,-6.953 1.635,-15.842 -5.317,-19.854 m 74.9,43.242 c -6.953,-4.014 -15.84,-1.63 -19.854,5.32 -4.014,6.952 -1.632,15.84 5.319,19.855 6.952,4.011 15.841,1.63 19.855,-5.318 4.014,-6.954 1.63,-15.845 -5.32,-19.857 m 74.897998,43.243 c -6.95,-4.014 -15.84,-1.632 -19.853,5.32 -4.014,6.953 -1.633,15.84 5.32,19.855 6.952,4.013 15.841,1.632 19.854,-5.32 4.013,-6.954 1.633,-15.84 -5.321,-19.855 m 74.9,43.244 c -6.951,-4.016 -15.841,-1.632 -19.855,5.32 -4.013,6.951 -1.633,15.84 5.321,19.854 6.951,4.014 15.84,1.632 19.852,-5.319 4.015,-6.954 1.634,-15.841 -5.318,-19.855 m 74.901,43.242 c -6.953,-4.013 -15.843,-1.633 -19.856,5.32 -4.015,6.953 -1.63,15.843 5.319,19.854 6.953,4.016 15.844,1.633 19.857,-5.317 4.014,-6.953 1.629,-15.843 -5.32,-19.857 m 74.898,43.243 c -6.951,-4.012 -15.839,-1.631 -19.854,5.322 -4.012,6.951 -1.631,15.839 5.321,19.852 6.952,4.015 15.841,1.634 19.854,-5.318 4.014,-6.952 1.633,-15.842 -5.321,-19.856 m 74.9,43.245 c -6.953,-4.013 -15.841,-1.633 -19.855,5.321 -4.013,6.949 -1.632,15.84 5.322,19.853 6.95,4.013 15.839,1.633 19.852,-5.32 4.014,-6.952 1.633,-15.841 -5.319,-19.854 M 35.072032,898.286 c -6.952,-4.015 -15.841,-1.634 -19.853,5.316 -4.015,6.954 -1.635,15.843 5.319,19.858 6.952,4.013 15.84,1.632 19.854,-5.322 4.013,-6.951 1.632,-15.84 -5.32,-19.852 m 74.900998,43.241 c -6.952,-4.013 -15.838998,-1.63 -19.854998,5.32 -4.014,6.954 -1.63,15.84 5.319,19.856 6.951998,4.011 15.842998,1.631 19.856998,-5.322 4.014,-6.95 1.629,-15.841 -5.321,-19.854 m 74.898,43.244 c -6.95,-4.014 -15.839,-1.631 -19.852,5.319 -4.014,6.954 -1.633,15.842 5.319,19.855 6.951,4.014 15.841,1.632 19.856,-5.32 4.012,-6.952 1.631,-15.84 -5.323,-19.854 m 74.9,43.244 c -6.952,-4.016 -15.841,-1.632 -19.853,5.317 -4.015,6.954 -1.634,15.843 5.32,19.856 6.949,4.015 15.839,1.632 19.854,-5.32 4.012,-6.952 1.631,-15.839 -5.321,-19.853 m 74.9,43.242 c -6.952,-4.013 -15.841,-1.632 -19.855,5.318 -4.014,6.954 -1.631,15.845 5.32,19.856 6.952,4.015 15.841,1.633 19.855,-5.321 4.016,-6.949 1.631,-15.84 -5.32,-19.853 m 74.898,43.243 c -6.949,-4.012 -15.839,-1.632 -19.852,5.32 -4.014,6.952 -1.634,15.842 5.319,19.854 6.952,4.014 15.843,1.634 19.857,-5.32 4.012,-6.951 1.632,-15.839 -5.324,-19.854 m 74.901,43.245 c -6.952,-4.016 -15.842,-1.633 -19.854,5.317 -4.015,6.954 -1.635,15.843 5.321,19.857 6.949,4.013 15.84,1.632 19.854,-5.321 4.012,-6.952 1.632,-15.84 -5.321,-19.853 M 78.317032,823.383 c -6.953,-4.015 -15.843,-1.629 -19.855,5.32 -4.014,6.952 -1.634,15.841 5.32,19.856 6.95,4.015 15.84,1.629 19.854,-5.32 4.012,-6.952 1.632,-15.843 -5.319,-19.856 m 74.898998,43.243 c -6.95,-4.013 -15.84,-1.63 -19.854,5.322 -4.013,6.951 -1.633,15.841 5.318,19.854 6.953,4.014 15.843,1.632 19.855,-5.321 4.016,-6.949 1.632,-15.84 -5.319,-19.855 m 74.9,43.242 c -6.952,-4.013 -15.842,-1.629 -19.855,5.323 -4.014,6.95 -1.633,15.842 5.319,19.855 6.952,4.013 15.843,1.632 19.857,-5.321 4.012,-6.951 1.63,-15.842 -5.321,-19.857 m 74.9,43.245 c -6.953,-4.013 -15.844,-1.632 -19.857,5.321 -4.013,6.951 -1.633,15.842 5.322,19.857 6.949,4.012 15.84,1.628 19.854,-5.324 4.012,-6.95 1.631,-15.841 -5.319,-19.854 m 74.898,43.244 c -6.95,-4.014 -15.84,-1.632 -19.856,5.32 -4.011,6.95 -1.63,15.841 5.322,19.855 6.95,4.013 15.842,1.631 19.855,-5.32 4.014,-6.952 1.632,-15.843 -5.321,-19.855 m 74.9,43.242 c -6.952,-4.014 -15.841,-1.629 -19.853,5.321 -4.014,6.951 -1.634,15.842 5.318,19.856 6.953,4.014 15.841,1.629 19.856,-5.321 4.012,-6.951 1.631,-15.841 -5.321,-19.856 m 74.902,43.244 c -6.955,-4.015 -15.845,-1.63 -19.857,5.32 -4.014,6.952 -1.634,15.841 5.32,19.856 6.951,4.014 15.84,1.629 19.854,-5.321 4.012,-6.951 1.632,-15.842 -5.317,-19.855 m -406.155,-334.359 c -6.954,-4.013 -15.845,-1.632 -19.857,5.321 -4.013998,6.951 -1.63,15.839 5.321,19.854 6.952,4.012 15.839,1.632 19.854,-5.321 4.012,-6.949 1.631,-15.841 -5.318,-19.854 m 74.898,43.243 c -6.951,-4.015 -15.84,-1.629 -19.854,5.322 -4.012,6.952 -1.632,15.84 5.32,19.853 6.95,4.013 15.842,1.632 19.854,-5.319 4.014,-6.952 1.632,-15.844 -5.32,-19.856 m 74.9,43.244 c -6.952,-4.015 -15.842,-1.63 -19.854,5.319 -4.014,6.953 -1.632,15.84 5.319,19.855 6.954,4.015 15.841,1.631 19.855,-5.318 4.012,-6.953 1.632,-15.843 -5.32,-19.856 m 74.901,43.243 c -6.956,-4.014 -15.845,-1.631 -19.857,5.32 -4.014,6.952 -1.632,15.84 5.32,19.854 6.953,4.013 15.84,1.631 19.854,-5.32 4.013,-6.952 1.632,-15.841 -5.317,-19.854 m 74.898,43.242 c -6.951,-4.011 -15.843,-1.63 -19.857,5.321 -4.012,6.951 -1.629,15.842 5.322,19.854 6.951,4.014 15.843,1.634 19.855,-5.319 4.014,-6.951 1.631,-15.84 -5.32,-19.856 m 74.899,43.243 c -6.951,-4.013 -15.84,-1.629 -19.853,5.321 -4.014,6.953 -1.632,15.84 5.319,19.853 6.954,4.016 15.841,1.634 19.855,-5.316 4.012,-6.953 1.632,-15.844 -5.321,-19.858 m 74.9,43.245 c -6.953,-4.013 -15.842,-1.632 -19.855,5.321 -4.014,6.951 -1.632,15.839 5.321,19.853 6.952,4.013 15.839,1.633 19.853,-5.32 4.013,-6.949 1.632,-15.841 -5.319,-19.854 m 118.142,-31.66 c -6.95,-4.014 -15.839,-1.633 -19.852,5.319 -4.014,6.954 -1.634,15.842 5.319,19.855 6.949,4.014 15.841,1.633 19.855,-5.321 4.012,-6.951 1.631,-15.839 -5.322,-19.853 m 74.9,43.241 c -6.952,-4.011 -15.84,-1.631 -19.854,5.321 -4.013,6.952 -1.632,15.842 5.32,19.855 6.953,4.014 15.84,1.634 19.854,-5.321 4.014,-6.95 1.632,-15.84 -5.32,-19.855 m 74.901,43.245 c -6.955,-4.013 -15.843,-1.632 -19.856,5.32 -4.014,6.952 -1.632,15.841 5.32,19.854 6.952,4.013 15.839,1.633 19.854,-5.321 4.013,-6.95 1.632,-15.84 -5.318,-19.853 m -106.558,-161.385 c -6.95,-4.012 -15.84,-1.632 -19.851,5.321 -4.016,6.949 -1.634,15.841 5.317,19.853 6.951,4.014 15.843,1.632 19.857,-5.32 4.012,-6.951 1.629,-15.84 -5.323,-19.854 m 74.901,43.241 c -6.951,-4.013 -15.84,-1.631 -19.854,5.321 -4.012,6.951 -1.632,15.844 5.317,19.856 6.955,4.014 15.845,1.631 19.857,-5.322 4.014,-6.95 1.633,-15.841 -5.32,-19.855 m -31.656,-118.142 c -6.951,-4.014 -15.842,-1.629 -19.854,5.321 -4.014,6.952 -1.634,15.842 5.319,19.856 6.95,4.013 15.84,1.629 19.855,-5.32 4.012,-6.952 1.63,-15.844 -5.32,-19.857 m 74.898,43.243 c -6.95,-4.013 -15.84,-1.63 -19.854,5.321 -4.013,6.952 -1.632,15.84 5.32,19.853 6.953,4.015 15.843,1.633 19.855,-5.318 0.701,-1.213 1.207,-2.485 1.526,-3.779 v -6.96 c -0.914,-3.71 -3.278,-7.056 -6.847,-9.117 m -31.655,-118.142 c -6.952,-4.014 -15.84,-1.633 -19.854,5.321 -4.014,6.951 -1.631,15.84 5.319,19.853 6.951,4.013 15.841,1.633 19.855,-5.32 4.014,-6.951 1.631,-15.84 -5.32,-19.854 m 38.502,-76.629 c -5.847,-1.029 -11.971,1.61 -15.114,7.051 -4.014,6.952 -1.63,15.841 5.319,19.853 3.082,1.78 6.545,2.3 9.795,1.726 z m -470.936,825.629 c -6.949,-4.015 -15.84,-1.632 -19.852,5.318 -4.014,6.953 -1.634,15.842 5.319,19.856 6.951,4.012 15.842,1.632 19.857,-5.321 4.012,-6.952 1.628,-15.84 -5.324,-19.853 m 74.902,43.24 c -6.953,-4.013 -15.844,-1.629 -19.856,5.32 -4.014,6.953 -1.634,15.843 5.319,19.857 6.953,4.015 15.842,1.633 19.856,-5.32 4.013,-6.953 1.631,-15.842 -5.319,-19.857 m 74.899,43.245 c -6.952,-4.014 -15.841,-1.632 -19.857,5.319 -4.011,6.953 -1.63,15.841 5.322,19.855 6.951,4.016 15.841,1.632 19.854,-5.32 4.014,-6.95 1.634,-15.841 -5.319,-19.854 m 74.9,43.243 c -6.952,-4.013 -15.843,-1.631 -19.856,5.32 -4.014,6.95 -1.631,15.843 5.321,19.855 6.949,4.014 15.841,1.632 19.855,-5.321 4.012,-6.95 1.631,-15.841 -5.32,-19.854 m 74.898,43.243 c -6.952,-4.014 -15.841,-1.63 -19.854,5.322 -4.014,6.95 -1.633,15.841 5.319,19.853 6.953,4.014 15.841,1.63 19.855,-5.32 4.012,-6.951 1.633,-15.84 -5.32,-19.855 m 74.901,43.244 c -6.952,-4.015 -15.843,-1.633 -19.857,5.319 -4.012,6.953 -1.632,15.842 5.321,19.857 6.952,4.011 15.842,1.629 19.853,-5.323 4.016,-6.949 1.634,-15.84 -5.317,-19.853 m -331.255,-291.116 c -6.952,-4.015 -15.841,-1.629 -19.854,5.322 -4.014,6.952 -1.633,15.841 5.319,19.854 6.949,4.013 15.841,1.631 19.855,-5.32 4.013,-6.952 1.631,-15.843 -5.32,-19.856 m 74.898,43.243 c -6.952,-4.014 -15.841,-1.629 -19.854,5.32 -4.013,6.953 -1.633,15.843 5.32,19.857 6.952,4.014 15.84,1.629 19.855,-5.32 4.012,-6.953 1.632,-15.843 -5.321,-19.857 m 74.902,43.243 c -6.952,-4.014 -15.843,-1.63 -19.857,5.321 -4.013,6.952 -1.632,15.841 5.32,19.856 6.953,4.014 15.841,1.629 19.854,-5.322 4.015,-6.952 1.633,-15.841 -5.317,-19.855 m 74.9,43.243 c -6.953,-4.012 -15.845,-1.63 -19.857,5.321 -4.014,6.951 -1.631,15.843 5.321,19.856 6.95,4.013 15.842,1.632 19.855,-5.321 4.013,-6.951 1.63,-15.84 -5.319,-19.856 m 74.898,43.243 c -6.953,-4.013 -15.842,-1.629 -19.854,5.321 -4.014,6.952 -1.634,15.843 5.319,19.856 6.951,4.015 15.841,1.631 19.855,-5.32 4.013,-6.951 1.632,-15.843 -5.32,-19.857 m 74.899,43.245 c -6.952,-4.013 -15.841,-1.633 -19.855,5.321 -4.012,6.95 -1.632,15.84 5.321,19.856 6.952,4.011 15.841,1.629 19.853,-5.323 4.014,-6.949 1.634,-15.841 -5.319,-19.854 m 53.194,54.143 c -0.13,1.126 -0.13,2.256 0,3.367 z m -384.447,-345.261 c -6.953,-4.012 -15.842,-1.628 -19.854,5.324 -4.016,6.95 -1.632,15.839 5.317,19.852 6.953,4.015 15.843,1.634 19.857,-5.318 4.013,-6.952 1.629,-15.843 -5.32,-19.858 m 74.898,43.244 c -6.953,-4.012 -15.841,-1.631 -19.854,5.323 -4.014,6.95 -1.632,15.838 5.321,19.851 6.952,4.015 15.839,1.634 19.853,-5.318 4.013,-6.949 1.632,-15.842 -5.32,-19.856 m 74.899,43.245 c -6.952,-4.014 -15.841,-1.631 -19.855,5.321 -4.012,6.949 -1.632,15.84 5.322,19.853 6.951,4.013 15.84,1.632 19.853,-5.32 4.013,-6.951 1.633,-15.841 -5.32,-19.854 m 74.902,43.243 c -6.952,-4.015 -15.844,-1.631 -19.857,5.321 -4.014,6.949 -1.629,15.84 5.321,19.854 6.952,4.012 15.84,1.63 19.856,-5.319 4.011,-6.952 1.629,-15.844 -5.32,-19.856 m 74.898,43.243 c -6.952,-4.014 -15.843,-1.629 -19.855,5.32 -4.014,6.952 -1.631,15.84 5.321,19.854 6.952,4.014 15.838,1.631 19.854,-5.318 4.012,-6.952 1.631,-15.842 -5.32,-19.856 m 74.9,43.244 c -6.953,-4.015 -15.842,-1.631 -19.857,5.319 -4.011,6.953 -1.63,15.84 5.324,19.855 6.949,4.013 15.839,1.632 19.852,-5.32 4.014,-6.952 1.633,-15.84 -5.319,-19.854 m -331.255,-291.116 c -6.951,-4.015 -15.84,-1.631 -19.854,5.32 -4.014,6.952 -1.632,15.839 5.319,19.854 6.952,4.012 15.841,1.631 19.857,-5.318 4.014,-6.954 1.628,-15.845 -5.322,-19.856 m 74.898,43.243 c -6.951,-4.014 -15.84,-1.632 -19.854,5.32 -4.014,6.953 -1.63,15.84 5.32,19.855 6.953,4.013 15.84,1.631 19.856,-5.32 4.014,-6.954 1.63,-15.842 -5.322,-19.855 m 74.901,43.243 c -6.952,-4.016 -15.842,-1.632 -19.856,5.321 -4.014,6.95 -1.631,15.84 5.323,19.854 6.949,4.013 15.839,1.632 19.852,-5.32 4.014,-6.954 1.634,-15.84 -5.319,-19.855 m 74.9,43.243 c -6.953,-4.014 -15.841,-1.633 -19.856,5.319 -4.015,6.954 -1.63,15.843 5.321,19.855 6.952,4.016 15.841,1.633 19.855,-5.317 4.014,-6.954 1.631,-15.843 -5.32,-19.857 m 74.898,43.243 c -6.952,-4.012 -15.84,-1.632 -19.854,5.322 -4.014,6.951 -1.631,15.839 5.321,19.852 6.952,4.014 15.84,1.634 19.854,-5.319 4.014,-6.952 1.632,-15.841 -5.321,-19.855 m -256.354,-247.871 c -6.952,-4.013 -15.839,-1.632 -19.854,5.32 -4.014,6.953 -1.631,15.84 5.319,19.856 6.953,4.011 15.842,1.631 19.856,-5.322 4.014,-6.95 1.63,-15.841 -5.321,-19.854 m 74.898,43.243 c -6.952,-4.013 -15.839,-1.631 -19.853,5.32 -4.015,6.954 -1.633,15.841 5.32,19.854 6.952,4.015 15.84,1.633 19.854,-5.319 4.014,-6.953 1.631,-15.84 -5.321,-19.855 m 74.9,43.243 c -6.951,-4.014 -15.841,-1.63 -19.853,5.319 -4.015,6.954 -1.635,15.842 5.32,19.856 6.951,4.015 15.839,1.632 19.854,-5.32 4.012,-6.952 1.631,-15.84 -5.321,-19.855 m 74.902,43.243 c -6.953,-4.012 -15.843,-1.632 -19.857,5.319 -4.014,6.954 -1.629,15.843 5.32,19.856 6.952,4.015 15.843,1.633 19.857,-5.321 4.014,-6.949 1.628,-15.84 -5.32,-19.854 m 73.262,42.431 c -6.655,-2.806 -14.513,-0.284 -18.218,6.133 -4.016,6.952 -1.632,15.842 5.32,19.854 4.093,2.362 8.853,2.508 12.898,0.813 z m -254.718,-247.061 c -6.951,-4.013 -15.84,-1.63 -19.855,5.322 -4.012,6.951 -1.631,15.841 5.318,19.854 6.953,4.013 15.845,1.631 19.857,-5.321 4.014,-6.949 1.63,-15.841 -5.32,-19.855 m 74.899,43.242 c -6.952,-4.013 -15.84,-1.629 -19.855,5.323 -4.013,6.95 -1.632,15.841 5.32,19.854 6.951,4.014 15.842,1.633 19.854,-5.321 4.014,-6.95 1.634,-15.841 -5.319,-19.856 m 74.9,43.245 c -6.954,-4.014 -15.842,-1.632 -19.855,5.32 -4.014,6.952 -1.634,15.843 5.32,19.857 6.949,4.013 15.84,1.629 19.854,-5.323 4.012,-6.95 1.632,-15.841 -5.319,-19.854 m 74.898,43.243 c -6.949,-4.013 -15.841,-1.632 -19.855,5.321 -4.012,6.949 -1.631,15.841 5.32,19.855 6.953,4.013 15.844,1.631 19.856,-5.32 4.015,-6.952 1.631,-15.843 -5.321,-19.856 m -181.455,-204.629 c -6.95,-4.015 -15.84,-1.629 -19.854,5.322 -4.012,6.952 -1.632,15.839 5.32,19.852 6.951,4.014 15.842,1.633 19.854,-5.318 4.016,-6.952 1.632,-15.844 -5.32,-19.856 m 74.901,43.243 c -6.953,-4.014 -15.843,-1.629 -19.857,5.32 -4.012,6.953 -1.632,15.84 5.32,19.854 6.953,4.016 15.843,1.632 19.854,-5.317 4.016,-6.953 1.634,-15.844 -5.317,-19.857 m 74.9,43.243 c -6.954,-4.014 -15.845,-1.63 -19.857,5.321 -4.014,6.952 -1.631,15.84 5.322,19.854 6.951,4.013 15.84,1.631 19.853,-5.32 4.013,-6.952 1.631,-15.841 -5.318,-19.855 m 61.675,42.572 c -2.694,1.207 -5.045,3.241 -6.634,5.992 -4.011,6.951 -1.629,15.842 5.323,19.854 0.431,0.249 0.867,0.471 1.311,0.672 z"
         style="fill:#ffffff;fill-opacity:1;fill-rule:evenodd;stroke:none"
         id="path10238" /></g></g></svg>
